<svg class="icon" viewBox="0 0 1024 1024" xmlns="http://www.w3.org/2000/svg" width="128" height="128"><defs><style/></defs><path d="M128 224a32 32 0 0 1 32-32h704a32 32 0 1 1 0 64H160c-17.664 0-32-14.208-32-32zm0 288c0-17.664 14.368-32 32.224-32h415.552C593.568 480 608 494.208 608 512c0 17.664-14.368 32-32.224 32H160.224A32.032 32.032 0 0 1 128 512zm0 288a32 32 0 0 1 32-32h704a32 32 0 1 1 0 64H160c-17.664 0-32-14.208-32-32zm553.376-425.376a32 32 0 0 1 45.248-45.248l160 160a32 32 0 0 1 0 45.248l-160 160a32 32 0 0 1-45.248-45.248L818.752 512 681.376 374.624z"/></svg>