<svg class="icon" viewBox="0 0 1024 1024" xmlns="http://www.w3.org/2000/svg" width="200" height="200"><defs><style/></defs><path d="M922.59 379.329l58.743-18.433-53.674 102.763-102.763-53.675 56.975-17.878C828.785 235.878 679.439 128.002 513.63 128.002c-192.15 0-357.61 143.467-384.896 333.696-1.515 10.645-10.645 18.304-21.077 18.304-1.003 0-2.027-.064-3.072-.213-11.648-1.664-19.755-12.48-18.07-24.15C116.787 244.525 300.403 85.335 513.63 85.335c184.347 0 350.335 120.133 408.96 293.994zM101.419 635.792l-58.75 18.435 53.674-102.784 102.763 53.696-56.97 17.877c53.07 156.22 202.413 264.09 368.238 264.09 192.128 0 357.611-143.467 384.896-333.696 1.664-11.67 12.438-19.733 24.128-18.09 11.67 1.663 19.776 12.48 18.091 24.149-30.272 211.114-213.888 370.304-427.115 370.304-184.342 0-350.326-120.127-408.955-293.98z"/><path d="M457.774 544l64.064-148.736L585.923 544h-128.15zm221.504 108.885l-137.835-320c-.426-.938-1.194-1.6-1.706-2.453-.896-1.45-1.664-2.923-2.88-4.139-1.216-1.216-2.688-1.984-4.14-2.858-.852-.534-1.492-1.28-2.431-1.686-.085-.042-.192-.021-.277-.064-1.771-.746-3.67-.938-5.568-1.194-.875-.107-1.728-.491-2.603-.491-.853 0-1.685.384-2.539.49-1.941.235-3.861.449-5.653 1.195-.064.043-.15.022-.235.064-.832.342-1.386 1.024-2.133 1.472-1.579.918-3.179 1.792-4.48 3.094-1.173 1.173-1.899 2.602-2.752 3.989-.555.896-1.365 1.579-1.792 2.581l-137.835 320c-4.672 10.838.32 23.382 11.136 28.032a21.192 21.192 0 0 0 8.448 1.75c8.256 0 16.107-4.822 19.584-12.886l35.798-83.114H604.29l35.798 83.114c3.477 8.064 11.349 12.886 19.605 12.886 2.816 0 5.675-.555 8.427-1.75 10.837-4.65 15.829-17.194 11.157-28.032z"/></svg>