<svg xmlns="http://www.w3.org/2000/svg" viewBox="0 0 200 200"><path d="M116.5 83.5h49.4c6.1 0 11 4.9 11 11v71.4c0 6.1-4.9 11-11 11H94.5c-6.1 0-11-4.9-11-11v-49.4H34.1c-6.1 0-11-4.9-11-11V34.1c0-6.1 4.9-11 11-11h71.4c6.1 0 11 4.9 11 11v49.4zm-.4 11v10.8c0 6-4.8 10.8-10.8 10.8h-13l-.1 43.3c0 3 4.7 8.5 7.7 8.5h59.4c2.9 0 8.7-5.5 8.7-8.5V100c0-3-5.8-7-8.7-7h-43.2v1.5zM32.4 39.6V100c0 3 4.2 7.6 7.2 7.6l60.4-.2c3 0 7.2-4.4 7.2-7.4l.1-60.4c0-3-4.3-7.5-7.3-7.5H39.6c-3.1 0-7.2 4.4-7.2 7.5zm12.7 41.9V53.9h19.4V42.3h8c1.1.2 1.7.3 1.7.5 0 .3-.1.5-.2.7-.5 1.3-.7 2.8-.7 4.5v5.9h20.5v26.9H85v-3.5H73.2v20.3h-8.5V77.3H53.1v4.3c0-.1-8-.1-8-.1zm8-21v10.4h11.6V60.5H53.1zM85 70.9V60.5H73.2v10.4H85zm35 83.8h-9l15.8-43.7h11.1l15.3 43.7h-9.4l-3.3-9.2h-17.2l-3.3 9.2zm5.6-16.6h12.5l-5.9-18.6h-.2l-6.4 18.6zM165.9 67h-8c0-12.1-12.8-25.3-25-25.3V34c18.3.1 33 14.8 33 33zM34.1 133h7.6c0 12.1 13.2 25.6 25.4 25.6v7.4c-18.3-.1-33-14.8-33-33z"/></svg>