<svg class="icon" viewBox="0 0 1024 1024" xmlns="http://www.w3.org/2000/svg" width="128" height="128"><defs><style/></defs><path d="M325.928 602.277S215.526 662.23 211.254 756.198c-4.27 93.969-93.968 162.31-123.867 170.852s437.098 27.879 402.928-172.874L325.929 602.278zm205.223 63.788c17.01 16.507 21.317 39.656 9.623 51.708-11.693 12.052-34.965 8.44-51.971-8.067L376.218 602.278c-17.01-16.505-21.318-39.655-9.623-51.706 11.695-12.052 34.965-8.441 51.973 8.065L531.15 666.065zm390.466-564.438c-30.516-20.699-57.94-2.14-69.756 4.618-35.313 23.647-287.925 269.146-397.694 382.529-13.477 17.961-22.561 31.91 42.068 96.539 54.553 54.553 79.973 50.987 107.6 27.432C649.84 566.74 845.711 293.65 918.068 189.536c11.884-17.102 36.228-65.742 3.549-87.91z"/></svg>