<svg class="icon" viewBox="0 0 1024 1024" xmlns="http://www.w3.org/2000/svg" width="200" height="200"><defs><style/></defs><path d="M99.5 137.186v749.628c0 20.827 16.863 37.686 37.685 37.686h749.63c20.826 0 37.685-16.863 37.685-37.686V137.186c0-20.827-16.863-37.686-37.686-37.686H137.185c-20.826 0-37.685 16.863-37.685 37.686zm206.25 554.547l-66.2-66.2c-7.174-7.173-19.285-7.413-26.608-.09-7.108 7.107-7.281 19.234.091 26.606l66.2 66.201-66.2 66.2c-7.173 7.174-7.413 19.285-.09 26.608 7.107 7.108 19.234 7.281 26.606-.091l66.201-66.2 66.2 66.2c7.174 7.173 19.285 7.413 26.608.09 7.108-7.107 7.281-19.234-.091-26.606l-66.2-66.201 66.2-66.2c7.173-7.174 7.413-19.285.09-26.608-7.107-7.108-19.234-7.281-26.606.091l-66.201 66.2zM287 287h-93.622c-10.144 0-18.878 8.395-18.878 18.75 0 10.052 8.452 18.75 18.878 18.75H287v93.622c0 10.144 8.395 18.878 18.75 18.878 10.052 0 18.75-8.452 18.75-18.878V324.5h93.622c10.144 0 18.878-8.395 18.878-18.75 0-10.052-8.452-18.75-18.878-18.75H324.5v-93.622c0-10.144-8.395-18.878-18.75-18.878-10.052 0-18.75 8.452-18.75 18.878V287zM62 137.186C62 95.662 95.638 62 137.185 62h749.63C928.337 62 962 95.638 962 137.186v749.628C962 928.338 928.362 962 886.814 962H137.185C95.662 962 62 928.362 62 886.814V137.186zM549.5 305.75c0-10.355 8.734-18.75 18.878-18.75h224.744c10.426 0 18.878 8.698 18.878 18.75 0 10.355-8.734 18.75-18.878 18.75H568.378c-10.426 0-18.878-8.698-18.878-18.75zm0 337.5c0-10.355 8.734-18.75 18.878-18.75h224.744c10.426 0 18.878 8.698 18.878 18.75 0 10.355-8.734 18.75-18.878 18.75H568.378c-10.426 0-18.878-8.698-18.878-18.75zm0 150c0-10.355 8.734-18.75 18.878-18.75h224.744c10.426 0 18.878 8.698 18.878 18.75 0 10.355-8.734 18.75-18.878 18.75H568.378c-10.426 0-18.878-8.698-18.878-18.75z"/></svg>