<svg class="icon" viewBox="0 0 1024 1024" xmlns="http://www.w3.org/2000/svg" width="200" height="200"><defs><style/></defs><path d="M953.171 632.747l-138.8-140.557c-5.27-5.358-12.473-8.345-20.028-8.345H539.496v-84.51H876.92c46.472 0 84.334-37.862 84.334-84.334V146.334C961.253 99.862 923.391 62 876.92 62H231.941c-7.467 0-14.582 2.987-19.853 8.17L70.653 210.99c-5.27 5.27-8.258 12.474-8.258 19.941s2.987 14.67 8.346 19.942l141.435 140.292c5.27 5.183 12.386 8.17 19.765 8.17h251.42v84.51H146.73c-46.471 0-84.334 37.862-84.334 84.334v168.667c0 46.472 37.863 84.334 84.334 84.334h336.633v111.83c0 15.55 12.562 28.112 28.11 28.112s28.112-12.563 28.112-28.112V821.18H794.43c7.555 0 14.759-2.987 20.03-8.345l138.8-140.557c10.717-10.98 10.717-28.55-.089-39.531zM130.39 230.843l113.148-112.62H876.92c15.462 0 28.112 12.65 28.112 28.11v168.668c0 15.462-12.65 28.112-28.112 28.112H243.537L130.39 230.843zm652.27 534.115H146.73c-15.461 0-28.111-12.65-28.111-28.112V568.18c0-15.462 12.65-28.112 28.111-28.112h635.93L893.7 652.513 782.66 764.959z"/></svg>