<svg class="icon" viewBox="0 0 1024 1024" xmlns="http://www.w3.org/2000/svg" width="128" height="128"><defs><style/></defs><path d="M523.042 900.357c-216.96 0-393.6-176.64-393.6-393.6s176.64-393.6 393.6-393.6c185.28 0 347.52 131.52 384.96 312.96 1.92 10.56 3.84 22.08 5.76 32.64 1.92 15.36-9.6 29.76-24.96 31.68-15.36 1.92-29.76-9.6-31.68-24.96-.96-9.6-2.88-19.2-4.8-27.84-32.64-155.52-170.88-268.8-330.24-268.8-185.28.96-336 151.68-336 337.92s150.72 336.96 336.96 336.96c166.08 0 309.12-123.84 333.12-287.04 1.92-15.36 16.32-25.92 31.68-24 15.36 1.92 25.92 16.32 24 31.68-27.84 192-195.84 336-388.8 336z"/><path d="M157.282 738.117c-42.24 0-66.24-11.52-75.84-34.56-18.24-42.24 32.64-88.32 72.96-119.04 12.48-9.6 29.76-7.68 39.36 4.8 9.6 12.48 7.68 29.76-4.8 39.36-34.56 26.88-48 43.2-52.8 51.84 37.44 9.6 190.08-15.36 435.84-121.92 245.76-106.56 368.64-201.6 386.88-235.2-11.52-2.88-44.16-4.8-122.88 13.44-15.36 3.84-30.72-5.76-33.6-21.12-3.84-15.36 5.76-30.72 21.12-33.6 115.2-26.88 173.76-21.12 191.04 17.28 16.32 38.4-18.24 84.48-114.24 148.8-77.76 52.8-186.24 110.4-305.28 162.24-119.04 51.84-235.2 92.16-327.36 112.32-45.12 10.56-81.6 15.36-110.4 15.36z"/></svg>