<?xml version="1.0" standalone="no"?><!DOCTYPE svg PUBLIC "-//W3C//DTD SVG 1.1//EN" "http://www.w3.org/Graphics/SVG/1.1/DTD/svg11.dtd"><svg t="1536891198927" class="icon" style="" viewBox="0 0 1024 1024" version="1.1" xmlns="http://www.w3.org/2000/svg" p-id="1316" xmlns:xlink="http://www.w3.org/1999/xlink" width="128" height="128"><defs><style type="text/css"></style></defs><path d="M523.04171875 900.35727432c-216.96000001 0-393.6-176.63999999-393.6-393.60000001s176.63999999-393.6 393.6-393.6c185.28 0 347.52 131.52 384.96 312.96 1.92 10.56 3.84 22.08 5.76 32.64000001 1.92000001 15.36-9.60000001 29.76-24.96 31.68-15.36 1.92000001-29.76-9.60000001-31.67999999-24.96-0.96-9.6-2.88-19.2-4.80000001-27.84000001-32.64-155.52-170.88000001-268.8-330.23999998-268.8-185.28 0.96-336 151.68-336.00000002 337.92S336.80171875 843.71727431 523.04171875 843.71727432c166.08 0 309.12-123.84 333.12-287.04000001 1.92000001-15.36 16.32-25.92 31.68-23.99999999 15.36 1.92000001 25.92 16.32 24.00000002 31.67999999C884.00171875 756.35727431 716.00171875 900.35727431 523.04171875 900.35727432z" p-id="1317"></path><path d="M157.28171876 738.11727431c-42.23999999 0-66.24000001-11.52-75.84000001-34.56-18.24-42.24 32.64-88.32 72.96-119.03999999 12.48-9.6 29.76-7.68 39.36 4.79999999 9.6 12.48 7.68 29.76-4.8 39.36-34.56 26.88000001-48 43.2-52.8 51.84 37.44 9.6 190.08-15.36 435.84-121.92 245.75999999-106.56000001 368.64-201.6 386.88000001-235.2-11.52-2.88-44.16-4.8-122.88000001 13.44000001-15.36 3.84-30.72-5.76-33.6-21.12000001-3.84-15.36 5.76-30.72 21.12-33.6 115.2-26.88 173.76-21.12 191.04 17.28000001 16.32 38.4-18.23999999 84.48-114.24000001 148.8-77.76 52.8-186.24 110.4-305.27999999 162.23999999-119.04 51.84000001-235.2 92.16-327.36 112.32-45.12 10.56-81.6 15.35999999-110.39999999 15.36z" p-id="1318"></path></svg>