<?xml version="1.0" standalone="no"?><!DOCTYPE svg PUBLIC "-//W3C//DTD SVG 1.1//EN" "http://www.w3.org/Graphics/SVG/1.1/DTD/svg11.dtd"><svg t="1537495038255" class="icon" style="" viewBox="0 0 1024 1024" version="1.1" xmlns="http://www.w3.org/2000/svg" p-id="2128" xmlns:xlink="http://www.w3.org/1999/xlink" width="128" height="128"><defs><style type="text/css"></style></defs><path d="M918.36244522 596.36409473c20.75024198-23.28573501 44.29562124-49.67658834 44.29562123-84.16538828s-23.54405363-60.87965328-44.29562123-84.16538828c-11.97934388-13.42857559-24.34682789-27.32212346-28.04673995-38.6801796-4.00989443-12.36748401-2.17384692-31.56516682-0.38814012-50.14288619 2.92363313-30.4524115 6.23540509-64.96770546-13.27358442-91.77186863-19.71564441-27.11546983-53.76464052-34.59212741-83.80374348-41.21567259-18.05975778-3.98472473-36.7143106-8.07277691-46.95961011-15.54943448-10.03864461-7.29649797-19.58582293-23.62221139-28.79652488-39.4047948-15.62759222-26.75249942-33.35087492-57.04991973-65.61416292-67.5296925-28.09840368-9.10737447-61.18963565 3.00179088-90.37562495 15.67925595-17.3868063 7.55481532-35.34323663 15.36927488-48.84864568 15.36927487s-31.46183936-7.81313396-48.84864566-15.36927487c-29.15949529-12.67746508-62.328885-24.78663044-90.34913093-15.67925595-32.263288 10.47844845-49.96140099 40.77586876-65.58899321 67.50319848-9.23719596 15.78258341-18.78437429 32.10829811-28.79652488 39.4047948-10.27179354 7.47798188-28.95151605 11.59120378-47.01127385 15.54943448-30.03910167 6.62354519-64.06160377 14.12669679-83.77724946 41.19050289-19.5341592 26.85582689-16.22238725 61.37112085-13.29875412 91.85002637 1.7857081 18.55122535 3.62175433 37.74890818-0.38814011 50.11639217-3.69991206 11.38454886-16.06739607 25.25160399-28.04673996 38.6801796-20.77673601 23.28573501-44.29562124 49.67658834-44.29562123 84.16538828s23.51888394 60.87965328 44.29562123 84.16538828c11.97934388 13.42857559 24.34682789 27.29562944 28.04673996 38.6801796 4.00989443 12.36748401 2.17384692 31.56516682 0.38814011 50.11639216-2.92363313 30.47890551-6.23540509 64.99287517 13.29875412 91.79836264 19.71564441 27.11546983 53.76464052 34.59212741 83.80374348 41.21567261 18.03326377 3.98472473 36.7143106 8.07277691 46.95961012 15.54943448 10.01347619 7.29649797 19.56065322 23.62221139 28.79652487 39.4047948 15.62759222 26.72732973 33.3243809 57.04991973 65.58899322 67.5296925 28.17656144 9.15903822 61.24129938-3.00179088 90.40079466-15.67925596 17.36031229-7.55481532 35.31674261-15.36927488 48.82215164-15.36927488s31.46183936 7.81313396 48.82215166 15.36927488c21.70800741 9.44385087 44.16579975 19.19768282 67.50319848 19.19768283 8.02111318 0 15.73091969-1.18958876 22.89759618-3.51842687 32.263288-10.47844845 49.96140099-40.77586876 65.58899322-67.50319847 9.23719596-15.78258341 18.78437429-32.10829811 28.82301889-39.40479481 10.24529952-7.47798188 28.92634635-11.59120378 46.98610543-15.5759285 30.03910167-6.59705118 64.06160377-14.10152708 83.77724946-41.1905029 19.50898949-26.83065718 16.19721755-61.34595114 13.27358441-91.79836264-1.7857081-18.55122535-3.62175433-37.74890818 0.38814012-50.11639217C894.01561862 623.68621948 906.38310133 609.79134602 918.36244522 596.36409473zM878.80133493 561.09901584c-15.60109821 17.51662778-31.74665202 35.62804929-38.8868332 57.59437535-7.42499383 22.84593245-5.04581632 47.63256289-2.74214793 71.56475665 2.14735291 22.12131596 4.32120112 44.96724839-3.36343568 55.55034861-7.8912917 10.84141886-30.47890551 15.80907743-52.34190413 20.62042051-23.36389275 5.14914378-47.55440514 10.47844845-66.75341355 24.47664938-18.99102921 13.81671571-31.38368161 35.00676154-43.38951952 55.49868487-11.38454886 19.48249548-23.13074512 39.61144971-36.19635031 43.85449308-11.35805485 3.72508177-32.78124959-5.12264976-52.91020383-13.89354785-22.35446489-9.7021695-45.43354626-19.74081412-69.96053375-19.74081413s-47.60739317 10.03864461-69.96053374 19.76730814c-20.07729051 8.71923437-41.37066379 17.56829151-52.88503414 13.86837944-13.06560518-4.24304336-24.83829417-24.39849162-36.22284431-43.85449307-11.97934388-20.51709305-24.3719963-41.70713888-43.36302551-55.5238546-19.22417813-13.99687531-43.38951952-19.30101027-66.75341355-24.45015534-21.86299731-4.81266739-44.45061113-9.78032725-52.34190413-20.64691453-7.7098065-10.5817759-5.51078987-33.42770835-3.38993099-55.55034862 2.30234409-23.95868778 4.68284591-48.71882418-2.74214793-71.53958693-7.11501277-21.96632477-23.28573501-40.07774757-38.91332851-57.59437535-15.16129436-17.0251602-30.84055162-34.61862143-30.84055162-48.9003094s15.67925595-31.87514918 30.84055162-48.90030939c15.62759222-17.51662778 31.79831574-35.62804929 38.91332851-57.59437535 7.42499383-22.82076275 5.04581632-47.58089916 2.74214793-71.53958694-2.12218449-22.12131596-4.32120112-44.99374241 3.38993099-55.57551831 7.8912917-10.84141886 30.47890551-15.80907743 52.34190413-20.62042052 23.36389275-5.17431348 47.52923543-10.47844845 66.75341355-24.47664937 18.99102921-13.81671571 31.38368161-35.00676154 43.38951953-55.49868488 11.38454886-19.48249548 23.13074512-39.61144971 36.19635029-43.85449307 11.38454886-3.67341805 32.75607989 5.14914378 52.88503414 13.89354785 22.32797086 9.7021695 45.43354626 19.74081412 69.96053374 19.74081411s47.63256289-10.03864461 69.96053375-19.74081411c20.15544826-8.74572969 41.57864301-17.59346122 52.91020383-13.89354785 13.06560518 4.24304336 24.83829417 24.3719963 36.22284432 43.85449307 11.97934388 20.49192464 24.3719963 41.70713888 43.3378558 55.52385459 19.22417813 13.99687531 43.38951952 19.30101027 66.77858197 24.45015534 21.86299731 4.81266739 44.45061113 9.78032725 52.34190412 20.62042052 7.6846368 10.5817759 5.51078987 33.45420237 3.36343568 55.55034862-2.30234409 23.95868778-4.68284591 48.71882418 2.74214793 71.59125065 7.14150678 21.93983075 23.28573501 40.05125356 38.8868332 57.56788004 15.18778967 16.99866619 30.86704564 34.59212741 30.86704564 48.9003094S893.98912331 544.10034965 878.80133493 561.09901584z" p-id="2129"></path><path d="M650.41884774 474.50013639c14.64465838 0 26.4941808-11.84952241 26.4941808-26.49418078s-11.84952241-26.4941808-26.4941808-26.49418079l-83.57059455 0 70.0135218-70.0135218c10.34862698-10.34862698 10.34862698-27.11546983 0-37.46409681s-27.11546983-10.34862698-37.46409681 0l-87.12743814 87.12743814-87.12743813-87.12743814c-10.34862698-10.34862698-27.11546983-10.34862698-37.4640968 0s-10.34862698 27.11546983 0 37.46409681l70.01352178 70.0135218-83.57059454 0c-14.64465838 0-26.4941808 11.84952241-26.4941808 26.49418079s11.84952241 26.4941808 26.4941808 26.49418078l111.64250291 0 0 66.20895796-111.64250291 0c-14.64465838 0-26.4941808 11.84952241-26.4941808 26.49418079s11.84952241 26.4941808 26.4941808 26.49418079l111.64250291 0 0 97.93044026c0 14.64465838 11.84952241 26.4941808 26.49418079 26.4941808s26.4941808-11.84952241 26.49418078-26.4941808l0-97.93044026 111.66899824 0c14.64465838 0 26.4941808-11.84952241 26.49418079-26.49418079s-11.84952241-26.4941808-26.49418079-26.49418079l-111.66899824 0 0-66.20895796L650.41884774 474.50013639z" p-id="2130"></path></svg>