<?xml version="1.0" standalone="no"?><!DOCTYPE svg PUBLIC "-//W3C//DTD SVG 1.1//EN" "http://www.w3.org/Graphics/SVG/1.1/DTD/svg11.dtd"><svg t="1536997224430" class="icon" style="" viewBox="0 0 1024 1024" version="1.1" xmlns="http://www.w3.org/2000/svg" p-id="1844" xmlns:xlink="http://www.w3.org/1999/xlink" width="200" height="200"><defs><style type="text/css"></style></defs><path d="M99.50000029 361.99999971a37.50000029 37.50000029 0 1 1 74.99999971 0v525.00000058a37.50000029 37.50000029 0 1 1-74.99999971 0V361.99999971z m749.99999971-18.74999971a37.50000029 37.50000029 0 1 1 74.99999971 0v543.75000029a37.50000029 37.50000029 0 1 1-74.99999971 0V343.25zM605.75000029 136.99999971a37.50000029 37.50000029 0 1 1 74.99999971 0v750.00000058a37.50000029 37.50000029 0 1 1-74.99999971 0V136.99999971zM343.25 568.25a37.50000029 37.50000029 0 1 1 74.99999971 0v318.75000029a37.50000029 37.50000029 0 1 1-74.99999971 0V568.25z" fill="" p-id="1845"></path></svg>