<svg class="icon" viewBox="0 0 1024 1024" xmlns="http://www.w3.org/2000/svg" width="128" height="128"><defs><style/></defs><path d="M102.4 204.8c0-18.842 15.292-34.133 34.133-34.133h750.934c18.841 0 34.133 15.291 34.133 34.133 0 18.842-15.292 34.133-34.133 34.133H136.533c-18.841 0-34.133-15.291-34.133-34.133zm0 204.8c0 18.842 15.292 34.133 34.133 34.133h750.934c18.841 0 34.133-15.291 34.133-34.133 0-18.842-15.292-34.133-34.133-34.133H136.533c-18.841 0-34.133 15.291-34.133 34.133zm0 204.8c0 18.842 15.292 34.133 34.133 34.133h750.934c18.841 0 34.133-15.291 34.133-34.133 0-18.842-15.292-34.133-34.133-34.133H136.533c-18.841 0-34.133 15.291-34.133 34.133zm0 204.8c0 18.842 15.292 34.133 34.133 34.133h750.934c18.841 0 34.133-15.291 34.133-34.133 0-18.842-15.292-34.133-34.133-34.133H136.533c-18.841 0-34.133 15.291-34.133 34.133z"/></svg>