<svg class="icon" viewBox="0 0 1024 1024" xmlns="http://www.w3.org/2000/svg" width="128" height="128"><defs><style/></defs><path d="M184.32 839.971V184.32l655.36-.328.291 655.724-655.651.219zm655.651-728.469H184.03a72.6 72.6 0 0 0-72.527 72.49v655.98c0 39.976 32.55 72.526 72.527 72.526h655.94a72.636 72.636 0 0 0 72.527-72.527V183.992a72.6 72.6 0 0 0-72.527-72.453z"/><path d="M746.91 433.284L614.018 566.14 497.764 449.85a36.409 36.409 0 0 0-51.373-.146l-178.44 176.584a36.445 36.445 0 0 0 51.228 51.81l152.698-151.134L588.313 643.4a37.501 37.501 0 0 0 51.482 0l158.597-158.634a36.372 36.372 0 1 0-51.482-51.482"/></svg>