<?xml version="1.0" standalone="no"?><!DOCTYPE svg PUBLIC "-//W3C//DTD SVG 1.1//EN" "http://www.w3.org/Graphics/SVG/1.1/DTD/svg11.dtd"><svg t="1536891554734" class="icon" style="" viewBox="0 0 1024 1024" version="1.1" xmlns="http://www.w3.org/2000/svg" p-id="1316" xmlns:xlink="http://www.w3.org/1999/xlink" width="128" height="128"><defs><style type="text/css"></style></defs><path d="M780.32 306.73999999C857.48 375.44 905.75 473.45 905.75 582.23c0 75.69-23.37 146.16-63.6 205.2l0.6 0.33a26.67 26.67 0 0 0 0.15000001 26.81999999c7.65 12.75 24.63 16.59 37.94999999 8.58000001a29.19 29.19 0 0 0 7.8-6.84l0.69000001 0.41999999A414.81 414.81 0 0 0 962 582.23c0-124.32-55.14000001-236.31-143.34000001-314.84999999l-38.33999999 39.36z m-152.67-84.44999999a410.4 410.4 0 0 0-115.65-16.5c-217.47 0-393.75 168.54000001-393.75 376.44a362.01 362.01 0 0 0 59.58 199.2 25.89 25.89 0 0 1 3.12 4.2c7.65 12.72 3.06000001 29.52-10.26 37.5-13.32 8.04-30.30000001 4.2-37.95000001-8.54999999a25.98000001 25.98000001 0 0 1-1.58999999-3.06000001A413.76 413.76 0 0 1 62 582.23C62 344.63 263.48 152 512 152c45.99 0 90.39 6.6 132.18000001 18.87l-16.50000001 51.42zM457.69999999 672.41c-57.66000001-33.30000001-34.71-72.90000001 6.09000001-125.61C504.61999999 494.09 797 106.21999999 797 106.21999999S610.01 517.10000001 566.18000001 599.6c-43.86000001 82.50000001-50.13 106.47-108.51000001 72.78000001z" p-id="1317"></path></svg>
