<svg class="icon" viewBox="0 0 1024 1024" xmlns="http://www.w3.org/2000/svg" width="128" height="128"><defs><style/></defs><path d="M926.669 496.941l-.006-.006-126.38-126.38c-9.607-9.607-25.33-9.607-34.937 0l-.006.006c-9.608 9.609-9.608 25.331 0 34.94l83.324 83.323H532.375V173.846l84.814 84.815c9.608 9.607 25.33 9.607 34.938 0l.006-.006c9.608-9.608 9.608-25.33 0-34.939L525.747 97.331c-9.607-9.608-25.33-9.608-34.937 0l-.006.005v.001l-126.38 126.379c-9.608 9.608-9.608 25.33 0 34.939l.006.006c9.608 9.607 25.33 9.607 34.938 0l81.833-81.834v311.997H175.336l83.323-83.324c9.608-9.608 9.608-25.33 0-34.939l-.006-.005c-9.607-9.608-25.33-9.608-34.937 0l-126.38 126.38-.005.005c-9.609 9.608-9.609 25.33 0 34.939l.005.006 126.38 126.38c9.608 9.607 25.33 9.607 34.937 0l.006-.006c9.608-9.609 9.608-25.331 0-34.94l-83.323-83.323H481.2v307.176l-81.833-81.834c-9.608-9.607-25.33-9.607-34.938 0l-.006.006c-9.608 9.608-9.608 25.33 0 34.939L490.81 926.669c9.607 9.608 25.33 9.608 34.937 0l126.386-126.385c9.608-9.608 9.608-25.33 0-34.939l-.006-.006c-9.608-9.607-25.33-9.607-34.938 0l-84.814 84.815V539.997h316.29l-83.324 83.324c-9.608 9.608-9.608 25.33 0 34.939l.006.005c9.607 9.608 25.33 9.608 34.937 0l126.38-126.38.005-.005c9.608-9.608 9.608-25.33 0-34.939z"/></svg>