<?xml version="1.0" standalone="no"?><!DOCTYPE svg PUBLIC "-//W3C//DTD SVG 1.1//EN" "http://www.w3.org/Graphics/SVG/1.1/DTD/svg11.dtd"><svg t="1537497009197" class="icon" style="" viewBox="0 0 1024 1024" version="1.1" xmlns="http://www.w3.org/2000/svg" p-id="1966" xmlns:xlink="http://www.w3.org/1999/xlink" width="128" height="128"><defs><style type="text/css"></style></defs><path d="M325.92751882 602.27705363s-110.40146015 59.9533037-114.67343645 153.92100504c-4.27076267 93.96891497-93.96770133 162.31082667-123.86668089 170.852352s437.09720652 27.87828622 402.9274643-172.87425897l-164.38613333-151.89788445zM531.15107555 666.06542697c17.01023289 16.50657659 21.31740445 39.65534815 9.62286934 51.707904-11.69332148 12.05134222-34.96466963 8.43958045-51.97126164-8.06699615l-112.58477984-107.42806757c-17.00901925-16.50536297-21.31740445-39.65534815-9.62286933-51.70669036 11.69453511-12.05134222 34.96466963-8.44079408 51.97247525 8.06578252l112.58356622 107.42806756zM921.61699082 101.62691792c-30.51550341-20.69845333-57.93989215-2.13962903-69.75579023 4.61786075-35.31298133 23.64757333-287.92513422 269.14664297-397.69429334 382.52877748-13.47735703 17.96171852-22.56137482 31.91117748 42.06804386 96.53938252 54.55265185 54.55265185 79.97333808 50.987008 107.60040297 27.43167051 46.00384475-46.00384475 241.87517155-319.094784 314.2329837-423.20842903 11.88386133-17.10246875 36.22805808-65.74231703 3.54865304-87.90926223z" p-id="1967"></path></svg>
