<svg class="icon" viewBox="0 0 1024 1024" xmlns="http://www.w3.org/2000/svg" width="200" height="200"><defs><style/></defs><path d="M811.913 835.064c-7.531 0-15.072-2.803-20.923-8.443L188.337 245.816c-11.992-11.557-12.345-30.648-.787-42.641 11.558-11.992 30.648-12.345 42.641-.787l602.653 580.805c11.993 11.557 12.345 30.648.787 42.641-5.919 6.142-13.813 9.23-21.718 9.23zM631.56 550.206a128.545 128.545 0 0 0 5.562-35.71c1.003-70.944-55.696-129.268-126.64-130.271-15.362-.217-30.129 2.275-43.854 7.028L631.56 550.206zm-245.768-75.11a128.512 128.512 0 0 0-5.58 35.769c-1.003 70.944 55.696 129.268 126.64 130.271 15.384.217 30.172-2.282 43.913-7.048L385.792 475.096z"/><path d="M415.791 342.259c33.197-6.349 67.285-9.389 101.842-8.9 144.507 2.042 281.152 66.525 374.898 176.915.349.41.333 1.055-.036 1.5-46.167 55.621-102.603 99.719-165.401 130.502l48.569 46.809c63.14-34.328 120.106-81.048 166.077-136.435 20.261-24.409 20.081-59.654-.427-83.803-51.714-60.895-114.262-109.28-185.907-143.811-74.21-35.768-153.904-54.498-236.87-55.67-54.01-.773-106.762 5.919-157.699 19.933l54.954 52.96zm186.764 341.743a503.631 503.631 0 0 1-95.648 9.135c-2.392 0-4.811-.017-7.207-.051-144.506-2.041-281.151-66.524-374.898-176.915-.349-.411-.333-1.057.036-1.502 46.36-55.854 103.085-100.084 166.207-130.884l-48.608-46.845C178.99 371.305 121.75 418.183 75.592 473.794c-20.26 24.41-20.08 59.654.427 83.804 51.714 60.896 114.262 109.28 185.907 143.812 74.21 35.769 153.905 54.498 236.87 55.671 2.775.039 5.533.059 8.301.059 51.441 0 101.711-6.797 150.325-20.26l-54.867-52.878z"/></svg>