<?xml version="1.0" standalone="no"?><!DOCTYPE svg PUBLIC "-//W3C//DTD SVG 1.1//EN" "http://www.w3.org/Graphics/SVG/1.1/DTD/svg11.dtd"><svg t="1537090021522" class="icon" style="" viewBox="0 0 1024 1024" version="1.1" xmlns="http://www.w3.org/2000/svg" p-id="2021" xmlns:xlink="http://www.w3.org/1999/xlink" width="200" height="200"><defs><style type="text/css"></style></defs><path d="M506.838611 641.119227a128.468 128.468 0 1 0 3.623258-256.910451 128.468 128.468 0 1 0-3.623258 256.910451Z" p-id="2022"></path><path d="M941.314 468.847c-51.714-60.895-114.262-109.28-185.907-143.811-74.21-35.768-153.904-54.498-236.87-55.67-86.925-1.244-170.593 16.833-248.676 53.685-74.371 35.1-141.548 87.226-194.269 150.743-20.26 24.41-20.08 59.654 0.427 83.804 51.714 60.896 114.262 109.28 185.907 143.812 74.21 35.769 153.905 54.498 236.87 55.671 2.775 0.039 5.533 0.059 8.301 0.059 83.948 0 164.786-18.068 240.376-53.743 74.37-35.101 141.548-87.227 194.269-150.745 20.26-24.411 20.08-59.655-0.428-83.805z m-48.819 42.928c-95.892 115.529-236.072 181.369-385.588 181.361-2.392 0-4.811-0.017-7.207-0.051-144.506-2.041-281.151-66.524-374.898-176.915-0.349-0.411-0.333-1.057 0.036-1.502 97.425-117.376 240.599-183.465 392.794-181.309 144.507 2.042 281.152 66.525 374.898 176.915 0.35 0.411 0.334 1.056-0.035 1.501z" p-id="2023"></path></svg>