<svg class="icon" viewBox="0 0 1024 1024" xmlns="http://www.w3.org/2000/svg" width="200" height="200"><defs><style/></defs><path d="M902.475 337.168L646.733 81.426a35.644 35.644 0 0 0-25.307-10.515H217.94A106.93 106.93 0 0 0 111.01 177.84v677.23A106.93 106.93 0 0 0 217.94 962h588.12a106.93 106.93 0 0 0 106.93-106.93V362.474a35.644 35.644 0 0 0-10.515-25.307zM639.782 137.564l206.555 206.377H724.436a84.653 84.653 0 0 1-84.654-84.654zM806.06 917.446H217.941a62.376 62.376 0 0 1-62.377-62.377V177.842a62.376 62.376 0 0 1 62.377-62.377h377.287v143.822a129.386 129.386 0 0 0 129.208 129.208h144v466.574a62.376 62.376 0 0 1-62.377 62.377z"/><path d="M569.899 463.79a27.036 27.036 0 0 0-38.068 3.028L422.605 594.213 314.46 466.818a27.036 27.036 0 1 0-41.096 35.039L387.998 635.74 273.364 769.624a27.036 27.036 0 1 0 41.096 35.04l108.145-127.396L531.83 804.663a27.036 27.036 0 0 0 20.548 9.517 27.036 27.036 0 0 0 21.63-44.556L459.373 635.741l114.634-133.884a26.82 26.82 0 0 0-4.11-38.067z"/></svg>