<svg class="icon" viewBox="0 0 1024 1024" xmlns="http://www.w3.org/2000/svg" width="200" height="200"><defs><style/></defs><path d="M474.5 662V99.5c0-20.625 16.875-37.5 37.5-37.5s37.5 16.875 37.5 37.5V662c0 20.625-16.875 37.5-37.5 37.5s-37.5-16.875-37.5-37.5"/><path d="M260.817 297.598L485.48 72.928a37.597 37.597 0 0 1 53.025 0c14.587 14.587 14.587 38.475 0 53.024l-224.663 224.67a37.597 37.597 0 0 1-53.025 0 37.597 37.597 0 0 1 0-53.025"/><path d="M538.415 72.935l224.662 224.662a37.597 37.597 0 0 1 0 53.026c-14.587 14.595-38.475 14.595-53.025 0L485.39 125.975a37.597 37.597 0 0 1 0-53.025 37.597 37.597 0 0 1 53.025 0M849.5 962h-675C112.475 962 62 911.525 62 849.5v-225c0-20.738 16.762-37.5 37.5-37.5s37.5 16.762 37.5 37.5v225c0 20.7 16.8 37.5 37.5 37.5h675c20.7 0 37.5-16.8 37.5-37.5v-225c0-20.738 16.763-37.5 37.5-37.5s37.5 16.762 37.5 37.5v225c0 62.025-50.475 112.5-112.5 112.5"/></svg>