<svg class="icon" viewBox="0 0 1024 1024" xmlns="http://www.w3.org/2000/svg" width="200" height="200"><defs><style/></defs><path d="M115.601 344.917h792.186v-34.773c0-9.121-3.996-18.251-10.252-23.945-6.273-6.274-14.804-10.269-24.494-10.269H511.413c-58.659 0-84.273-26.792-107.07-49.597-15.384-16.533-29.609-30.786-53.524-30.786H149.765c-9.67 0-18.22 3.426-24.475 9.69-6.253 6.273-9.69 15.393-9.69 24.523v115.157zM897.535 817.54c6.255-6.273 10.252-14.824 10.252-24.513V396.23H115.6v396.798c0 9.69 3.437 18.24 9.69 24.513 6.254 6.275 14.805 10.269 24.475 10.269h723.276c9.689 0 18.22-3.994 24.493-10.27zM511.413 224.055h361.63c23.914 0 45.553 9.69 60.935 25.083 15.385 15.964 25.055 37.63 25.055 61.006v482.885c0 23.934-9.67 45.61-25.055 60.995-15.382 15.403-37.021 25.092-60.936 25.092H149.765c-23.896 0-44.974-9.69-60.917-25.092-15.384-15.964-25.054-37.062-25.054-60.995v-563.27c0-23.375 9.67-45.04 25.054-61.004 15.943-15.393 37.581-25.083 60.917-25.083H350.82c42.697 0 63.195 21.087 84.273 42.186 19.38 18.807 38.72 38.197 76.321 38.197z"/></svg>