<?xml version="1.0" standalone="no"?><!DOCTYPE svg PUBLIC "-//W3C//DTD SVG 1.1//EN" "http://www.w3.org/Graphics/SVG/1.1/DTD/svg11.dtd"><svg t="1538216155624" class="icon" style="" viewBox="0 0 1024 1024" version="1.1" xmlns="http://www.w3.org/2000/svg" p-id="9227" xmlns:xlink="http://www.w3.org/1999/xlink" width="200" height="200"><defs><style type="text/css"></style></defs><path d="M115.601366 344.916611l792.18533 0 0-34.772968c0-9.120728-3.996011-18.250666-10.251481-23.944342l0 0c-6.272867-6.27389-14.804171-10.268878-24.493857-10.268878l0 0L511.413134 275.930423l0 0c-58.658981 0-84.273359-26.792203-107.069551-49.597605-15.384385-16.532535-29.609365-30.786167-53.525054-30.786167l0 0L149.765467 195.546651l0 0c-9.670244 0-18.22099 3.426029-24.475438 9.689686-6.253424 6.27389-9.689686 15.393595-9.689686 24.523533L115.600343 344.916611zM897.535215 817.540811c6.254447-6.272867 10.251481-14.823614 10.251481-24.5133l0-396.797211L115.601366 396.2303l0 396.797211c0 9.689686 3.436262 18.240433 9.689686 24.5133l0 0c6.254447 6.274914 14.805194 10.268878 24.475438 10.268878l0 0 723.275891 0 0 0C882.731044 827.809689 891.262348 823.815725 897.535215 817.540811L897.535215 817.540811zM511.413134 224.054939l361.629247 0c23.914666 0 45.553499 9.69071 60.935838 25.083282 15.384385 15.963577 25.054629 37.630039 25.054629 61.005422l0 482.884892c0 23.934109-9.670244 45.610804-25.054629 60.995189-15.382339 15.402805-37.021172 25.092491-60.935838 25.092491l0 0L149.765467 879.116215l0 0c-23.896246 0-44.974307-9.69071-60.917418-25.092491l0 0c-15.384385-15.963577-25.053606-37.062104-25.053606-60.995189l0 0 0-563.268664 0 0c0-23.375383 9.66922-45.040822 25.053606-61.004399l0 0c15.943111-15.393595 37.58092-25.083282 60.917418-25.083282l0 0 201.053062 0 0 0c42.697451 0 63.195298 21.087271 84.273359 42.185798C454.47126 204.665333 473.811748 224.054939 511.413134 224.054939L511.413134 224.054939z" p-id="9228"></path></svg>