<?xml version="1.0" standalone="no"?><!DOCTYPE svg PUBLIC "-//W3C//DTD SVG 1.1//EN" "http://www.w3.org/Graphics/SVG/1.1/DTD/svg11.dtd"><svg t="1537497503331" class="icon" style="" viewBox="0 0 1024 1024" version="1.1" xmlns="http://www.w3.org/2000/svg" p-id="3802" xmlns:xlink="http://www.w3.org/1999/xlink" width="128" height="128"><defs><style type="text/css"></style></defs><path d="M926.66851807 496.94104004l-0.00576783-0.00576782-126.37957763-126.37957764c-9.60754395-9.60754395-25.32980347-9.60754395-34.93734741 0l-0.00576783 0.00576782c-9.60836792 9.60836792-9.60836792 25.33062744 0 34.93899536l83.3236084 83.32360841H532.37524414V173.84576416L617.18942261 258.6607666c9.60754395 9.60754395 25.32980347 9.60754395 34.93734741 1e-8l0.00576782-0.00576783c9.60836792-9.60836792 9.60836792-25.33062744 0-34.93899536L525.74719238 97.33065796c-9.60754395-9.60754395-25.32980347-9.60754395-34.93734741 0l-0.00576783 0.00576782-0.00082396 0.00082398L364.42449951 223.71600342c-9.60836792 9.60836792-9.60836792 25.33062744 0 34.93899536l0.00576783 0.00576782c9.60754395 9.60754395 25.32980347 9.60754395 34.9373474 0l81.83386231-81.8338623v311.99716187H175.33551026l83.32360839-83.32360841c9.60836792-9.60836792 9.60836792-25.33062744 0-34.93899536l-0.00576782-0.00576782c-9.60754395-9.60754395-25.32980347-9.60754395-34.93734741 0L97.33642578 496.93527222l-0.00576782 0.00576782c-9.60836792 9.60836792-9.60836792 25.33062744 0 34.93899536l0.00576782 0.00576782L223.71600342 658.26538086c9.60754395 9.60754395 25.32980347 9.60754395 34.93734741 0l0.00576782-0.00576782c9.60836792-9.60836792 9.60836792-25.33062744 0-34.93899536L175.33551026 539.99700927h305.86596679v307.17608643l-81.83386231-81.8338623c-9.60754395-9.60754395-25.32980347-9.60754395-34.9373474 0l-0.00576783 0.00576782c-9.60836792 9.60836792-9.60836792 25.33062744 0 34.93899536l126.38534546 126.38534546c9.60754395 9.60754395 25.32980347 9.60754395 34.93734741 0L652.13253784 800.28399658c9.60836792-9.60836792 9.60836792-25.33062744 0-34.93899536l-0.00576782-0.00576782c-9.60754395-9.60754395-25.32980347-9.60754395-34.93734741 0L532.37524414 850.15423584V539.99700927h316.2892456L765.34088135 623.32061768c-9.60836792 9.60836792-9.60836792 25.33062744 0 34.93899536l0.00576782 0.00576782c9.60754395 9.60754395 25.32980347 9.60754395 34.93734741 0l126.37957764-126.37957764 0.00576782-0.00576782c9.60754395-9.60836792 9.60754395-25.33062744-0.00082397-34.93899537z" p-id="3803"></path></svg>