<?xml version="1.0" standalone="no"?><!DOCTYPE svg PUBLIC "-//W3C//DTD SVG 1.1//EN" "http://www.w3.org/Graphics/SVG/1.1/DTD/svg11.dtd"><svg t="1536827561368" class="icon" style="" viewBox="0 0 1024 1024" version="1.1" xmlns="http://www.w3.org/2000/svg" p-id="1743" xmlns:xlink="http://www.w3.org/1999/xlink" width="128" height="128"><defs><style type="text/css"></style></defs><path d="M128 224a32 32 0 0 1 32-32h704a32 32 0 1 1 0 64H160c-17.664 0-32-14.208-32-32z m288 288c0-17.664 14.368-32 32.224-32h415.552C881.568 480 896 494.208 896 512c0 17.664-14.368 32-32.224 32H448.224A32.032 32.032 0 0 1 416 512zM128 800a32 32 0 0 1 32-32h704a32 32 0 1 1 0 64H160c-17.664 0-32-14.208-32-32z m214.624-425.376L205.248 512l137.376 137.376a32 32 0 0 1-45.248 45.248l-160-160a32 32 0 0 1 0-45.248l160-160a32 32 0 0 1 45.248 45.248z" p-id="1744"></path></svg>
