<?xml version="1.0" standalone="no"?><!DOCTYPE svg PUBLIC "-//W3C//DTD SVG 1.1//EN" "http://www.w3.org/Graphics/SVG/1.1/DTD/svg11.dtd"><svg t="1538287512282" class="icon" style="" viewBox="0 0 1024 1024" version="1.1" xmlns="http://www.w3.org/2000/svg" p-id="2255" xmlns:xlink="http://www.w3.org/1999/xlink" width="200" height="200"><defs><style type="text/css"></style></defs><path d="M556.8 512l272-272c12.8-12.8 12.8-32 0-44.8-12.8-12.8-32-12.8-44.8 0L512 467.2 240 195.2c-12.8-12.8-32-12.8-44.8 0-12.8 12.8-12.8 32 0 44.8l272 272-272 272c-12.8 12.8-12.8 32 0 44.8 12.8 12.8 32 12.8 44.8 0l272-272 272 272c12.8 12.8 32 12.8 44.8 0 12.8-12.8 12.8-32 0-44.8L556.8 512z" p-id="2256"></path></svg>
