<svg class="icon" viewBox="0 0 1024 1024" xmlns="http://www.w3.org/2000/svg" width="128" height="128"><defs><style/></defs><path d="M332 173.333c0-66.24-53.76-120-120-120s-120 53.76-120 120 53.76 120 120 120 120-53.76 120-120zm210 60c49.68 0 90-40.32 90-90s-40.32-90-90-90-90 40.32-90 90 40.32 90 90 90zm300-120c-49.68 0-90 40.32-90 90s40.32 90 90 90 90-40.32 90-90-40.32-90-90-90zm-306.48 181.14c-72.24-1.14-154.44 10.02-220.26 68.34-65.88 58.32-57.66 204 35.46 243.18 93.18 39.12 113.7 106.8 88.74 191.04-24.96 84.24 17.64 156.3 124.14 156.3 183.6 0 248.4-172.02 248.4-364.74 0-209.58-82.38-291.18-276.48-294.12z"/></svg>