<svg class="icon" viewBox="0 0 1032 1024" xmlns="http://www.w3.org/2000/svg" width="201.563" height="200"><defs><style/></defs><path d="M557 99.5V662c0 20.625-16.875 37.5-37.5 37.5S482 682.625 482 662V99.5c0-20.625 16.875-37.5 37.5-37.5S557 78.875 557 99.5"/><path d="M770.57 463.902l-224.663 224.67a37.597 37.597 0 0 1-53.025 0c-14.587-14.595-14.587-38.474 0-53.025l224.663-224.67a37.597 37.597 0 0 1 53.025 0 37.597 37.597 0 0 1 0 53.025"/><path d="M492.972 688.558L268.31 463.901a37.597 37.597 0 0 1 0-53.024c14.587-14.596 38.475-14.596 53.025 0L545.997 635.54a37.597 37.597 0 0 1 0 53.025 37.597 37.597 0 0 1-53.025 0"/><path d="M857 962H182c-62.025 0-112.5-50.475-112.5-112.5v-225c0-20.738 16.762-37.5 37.5-37.5s37.5 16.762 37.5 37.5v225c0 20.7 16.8 37.5 37.5 37.5h675c20.7 0 37.5-16.8 37.5-37.5v-225c0-20.738 16.762-37.5 37.5-37.5s37.5 16.762 37.5 37.5v225c0 62.025-50.475 112.5-112.5 112.5"/></svg>