<svg class="icon" viewBox="0 0 1024 1024" xmlns="http://www.w3.org/2000/svg" width="200" height="200"><defs><style/></defs><path d="M512 879.506c-202.632 0-367.506-164.848-367.506-367.506 0-202.632 164.874-367.506 367.506-367.506 202.658 0 367.506 164.848 367.506 367.506 0 202.658-164.848 367.506-367.506 367.506zm0-682.277c-173.575 0-314.771 141.196-314.771 314.771 0 173.549 141.196 314.771 314.771 314.771 173.549 0 314.771-141.196 314.771-314.771S685.55 197.229 512 197.229zm-39.55 143.384a1.236 1.236 0 1 0 79.1 0 1.236 1.236 0 1 0-79.1 0zM512 722.938c-14.555 0-26.367-11.787-26.367-26.368V459.266c0-14.555 11.812-26.368 26.367-26.368s26.367 11.813 26.367 26.368V696.57c0 14.581-11.812 26.367-26.367 26.367z"/></svg>