<?xml version="1.0" standalone="no"?><!DOCTYPE svg PUBLIC "-//W3C//DTD SVG 1.1//EN" "http://www.w3.org/Graphics/SVG/1.1/DTD/svg11.dtd"><svg class="icon" width="128px" height="128.00px" viewBox="0 0 1024 1024" version="1.1" xmlns="http://www.w3.org/2000/svg"><path d="M691.2 704c-76.8 0-147.2-25.6-204.8-83.2-115.2-115.2-115.2-294.4 0-409.6 115.2-115.2 294.4-115.2 409.6 0 115.2 115.2 115.2 294.4 0 409.6-57.6 57.6-134.4 83.2-204.8 83.2z m0-512c-57.6 0-115.2 19.2-160 64-89.6 89.6-89.6 230.4 0 320s230.4 89.6 320 0 89.6-230.4 0-313.6c-44.8-51.2-102.4-70.4-160-70.4z"  /><path d="M217.6 896c-25.6 0-51.2-12.8-70.4-25.6L57.6 780.8c-12.8-12.8-12.8-32 0-44.8s32-12.8 44.8 0L192 819.2c6.4 6.4 12.8 12.8 25.6 12.8 6.4 0 19.2-6.4 25.6-6.4L486.4 576c12.8-12.8 32-12.8 44.8 0s12.8 32 0 44.8l-243.2 243.2c-25.6 19.2-44.8 32-70.4 32z"  /><path d="M371.2 768c-6.4 0-19.2 0-25.6-6.4L256 672c-12.8-12.8-12.8-32 0-44.8s32-12.8 44.8 0l89.6 89.6c12.8 12.8 12.8 32 0 44.8 0 0-6.4 6.4-19.2 6.4z"  /></svg>
