<svg class="icon" viewBox="0 0 1024 1024" xmlns="http://www.w3.org/2000/svg" width="200" height="200"><defs><style/></defs><path d="M512 881.14c-203.027 0-369.14-166.113-369.14-369.14S308.972 142.86 512 142.86 881.14 308.972 881.14 512 715.028 881.14 512 881.14zm0-685.546c-174.023 0-316.406 142.383-316.406 316.406S337.977 828.406 512 828.406 828.406 686.023 828.406 512 686.023 195.594 512 195.594z"/><path d="M512 591.102c-14.502 0-26.367-11.866-26.367-26.368 0-35.595 34.277-65.918 59.326-87.011 5.273-3.955 10.547-7.91 13.184-11.866 11.865-11.865 19.775-29.003 19.775-46.142 0-36.914-29.004-65.918-65.918-65.918s-65.918 29.004-65.918 65.918c0 14.502-11.865 26.367-26.367 26.367s-26.367-11.865-26.367-26.367c0-65.918 52.734-118.652 118.652-118.652s118.652 52.734 118.652 118.652c0 31.64-11.865 61.963-34.277 84.375-3.955 3.955-10.547 9.228-17.139 14.502-11.865 10.547-40.869 34.277-40.869 46.142 0 14.502-11.865 26.368-26.367 26.368zm0 131.836c-14.502 0-26.367-11.866-26.367-26.368v-26.367c0-14.502 11.865-26.367 26.367-26.367s26.367 11.865 26.367 26.367v26.367c0 14.502-11.865 26.367-26.367 26.367z"/></svg>