<svg class="icon" viewBox="0 0 1024 1024" xmlns="http://www.w3.org/2000/svg" width="200" height="200"><defs><style/></defs><path d="M680.75 427.625V343.25a168.75 168.75 0 1 0-337.5 0v84.375h337.5zm-450 56.25v337.303a28.097 28.097 0 0 0 27.9 28.322h506.7c15.103 0 27.9-12.656 27.9-28.322V483.875h-562.5zm-56.25-14.063V455.75a28.125 28.125 0 0 1 28.125-28.125H287V343.25a225 225 0 1 1 450 0v84.375h84.375c15.525 0 28.125 12.488 28.125 28.125v393.919a56.25 56.25 0 0 1-56.39 56.081H230.89a56.25 56.25 0 0 1-56.39-56.081V469.813zM540.125 624.5v112.781c0 15.357-12.488 27.844-28.125 27.844a28.125 28.125 0 0 1-28.125-27.844V624.5h-28.406a27.928 27.928 0 0 1-27.844-28.125 28.125 28.125 0 0 1 27.844-28.125H568.53c15.357 0 27.844 12.488 27.844 28.125A28.125 28.125 0 0 1 568.53 624.5h-28.406z"/></svg>