<svg class="icon" viewBox="0 0 1024 1024" xmlns="http://www.w3.org/2000/svg" width="200" height="200"><defs><style/></defs><path d="M512 881.14c-203.871 0-369.14-165.269-369.14-369.14S308.128 142.86 512 142.86 881.14 308.128 881.14 512 715.872 881.14 512 881.14zm0-52.734c174.735 0 316.406-141.67 316.406-316.406S686.736 195.594 512 195.594 195.594 337.264 195.594 512 337.264 828.406 512 828.406zM485.633 644.1a26.367 26.367 0 1 1 52.734 0v52.207a26.367 26.367 0 1 1-52.734 0V644.1zm0-316.802c0-14.502 11.707-26.235 26.367-26.235 14.555 0 26.367 12.023 26.367 26.235v211.201c0 14.502-11.707 26.235-26.367 26.235-14.555 0-26.367-12.023-26.367-26.235V327.298z"/></svg>