<svg class="icon" viewBox="0 0 1024 1024" xmlns="http://www.w3.org/2000/svg" width="200" height="200"><defs><style/></defs><path d="M441.6 270.933c-17.067-6.4-34.133 0-42.667 17.067L249.6 642.133 100.267 288c-6.4-17.067-25.6-23.467-42.667-17.067-14.933 6.4-21.333 25.6-14.933 42.667l179.2 422.4c0 2.133 2.133 4.267 4.266 6.4l2.134 2.133 6.4 6.4h2.133c2.133 0 2.133 2.134 4.267 2.134h4.266c2.134 0 6.4 2.133 8.534 2.133 2.133 0 6.4 0 8.533-2.133h4.267c2.133 0 2.133-2.134 4.266-2.134h2.134l6.4-6.4 2.133-2.133c2.133-2.133 2.133-4.267 4.267-6.4l179.2-422.4c0-17.067-6.4-36.267-23.467-42.667zM435.2 755.2c-4.267 0-8.533 0-12.8-2.133-17.067-6.4-23.467-25.6-17.067-42.667l179.2-422.4c6.4-17.067 25.6-23.467 42.667-17.067 17.067 6.4 23.467 25.6 17.067 42.667L465.067 736c-6.4 12.8-17.067 19.2-29.867 19.2zm362.667-486.4c-12.8 0-25.6 6.4-29.867 19.2L588.8 710.4c-6.4 17.067 0 34.133 17.067 42.667 4.266 2.133 8.533 2.133 12.8 2.133 12.8 0 23.466-6.4 29.866-19.2l51.2-123.733C729.6 629.333 761.6 640 797.867 640c102.4 0 185.6-83.2 185.6-185.6s-83.2-185.6-185.6-185.6zm0 307.2c-25.6 0-51.2-8.533-72.534-23.467l91.734-217.6c57.6 8.534 102.4 59.734 102.4 119.467 0 68.267-53.334 121.6-121.6 121.6z"/></svg>