<svg class="icon" viewBox="0 0 1024 1024" xmlns="http://www.w3.org/2000/svg" width="200" height="200"><defs><style/></defs><path d="M549.283 512l130.65 130.623a26.209 26.209 0 0 1-.132 37.178 26.288 26.288 0 0 1-37.178.132L512 549.283l-130.623 130.65a26.209 26.209 0 0 1-37.178-.132 26.288 26.288 0 0 1-.132-37.178L474.717 512 344.04 381.377a26.209 26.209 0 0 1 .132-37.178 26.288 26.288 0 0 1 37.178-.132L512 474.717l130.623-130.65a26.209 26.209 0 0 1 37.178.132 26.288 26.288 0 0 1 .132 37.178L549.283 512zM512 881.14c-203.871 0-369.14-165.269-369.14-369.14S308.128 142.86 512 142.86 881.14 308.128 881.14 512 715.872 881.14 512 881.14zm0-52.734c174.735 0 316.406-141.67 316.406-316.406S686.736 195.594 512 195.594 195.594 337.264 195.594 512 337.264 828.406 512 828.406z"/></svg>