<svg class="icon" viewBox="0 0 1024 1024" xmlns="http://www.w3.org/2000/svg" width="128" height="128"><defs><style/></defs><path d="M918.362 596.364c20.75-23.286 44.296-49.676 44.296-84.165s-23.544-60.88-44.296-84.166c-11.979-13.428-24.346-27.322-28.046-38.68-4.01-12.367-2.174-31.565-.388-50.143 2.923-30.452 6.235-64.967-13.274-91.772-19.716-27.115-53.765-34.592-83.804-41.215-18.06-3.985-36.714-8.073-46.96-15.55-10.038-7.296-19.585-23.622-28.796-39.405-15.627-26.752-33.35-57.05-65.614-67.53-28.098-9.107-61.19 3.003-90.376 15.68-17.386 7.555-35.343 15.37-48.848 15.37s-31.462-7.814-48.849-15.37c-29.16-12.677-62.329-24.787-90.35-15.68-32.262 10.48-49.96 40.777-65.588 67.504-9.237 15.783-18.784 32.108-28.797 39.405-10.271 7.478-28.951 11.591-47.01 15.55-30.04 6.623-64.063 14.126-83.778 41.19-19.534 26.856-16.223 61.37-13.299 91.85 1.786 18.551 3.622 37.749-.388 50.116-3.7 11.385-16.067 25.252-28.047 38.68C85.373 451.32 61.855 477.71 61.855 512.2s23.518 60.88 44.295 84.165c11.98 13.429 24.347 27.296 28.047 38.68 4.01 12.368 2.174 31.565.388 50.117-2.924 30.479-6.235 64.993 13.299 91.798 19.715 27.115 53.764 34.592 83.804 41.216 18.033 3.984 36.714 8.072 46.96 15.55 10.013 7.296 19.56 23.621 28.796 39.404 15.627 26.727 33.324 57.05 65.589 67.53 28.176 9.159 61.241-3.002 90.4-15.68 17.36-7.554 35.317-15.369 48.823-15.369s31.462 7.813 48.822 15.37c21.708 9.443 44.166 19.197 67.503 19.197 8.021 0 15.73-1.19 22.898-3.518 32.263-10.479 49.961-40.776 65.589-67.504 9.237-15.782 18.784-32.108 28.823-39.404 10.245-7.478 28.926-11.592 46.986-15.576 30.039-6.597 64.061-14.102 83.777-41.19 19.509-26.831 16.197-61.347 13.274-91.8-1.786-18.55-3.622-37.748.388-50.116 3.7-11.383 16.067-25.278 28.046-38.705zm-39.56-35.265c-15.602 17.517-31.747 35.628-38.887 57.594-7.425 22.846-5.046 47.633-2.743 71.565 2.148 22.121 4.322 44.967-3.363 55.55-7.891 10.842-30.479 15.81-52.342 20.62-23.364 5.15-47.554 10.48-66.753 24.478-18.991 13.816-31.384 35.006-43.39 55.498-11.384 19.483-23.13 39.612-36.196 43.855-11.358 3.725-32.782-5.123-52.91-13.894-22.355-9.702-45.434-19.74-69.961-19.74s-47.607 10.038-69.96 19.767c-20.078 8.719-41.371 17.568-52.886 13.868-13.065-4.243-24.838-24.398-36.222-43.854-11.98-20.518-24.372-41.708-43.363-55.524-19.225-13.997-43.39-19.301-66.754-24.45-21.863-4.813-44.45-9.78-52.342-20.647-7.71-10.582-5.51-33.428-3.39-55.55 2.303-23.96 4.683-48.72-2.742-71.54-7.115-21.967-23.286-40.078-38.913-57.595-15.161-17.025-30.84-34.618-30.84-48.9s15.679-31.875 30.84-48.9c15.627-17.517 31.798-35.628 38.913-57.595 7.425-22.82 5.046-47.58 2.742-71.54-2.122-22.12-4.32-44.993 3.39-55.575 7.892-10.841 30.48-15.809 52.342-20.62 23.364-5.174 47.53-10.479 66.754-24.477 18.99-13.817 31.383-35.007 43.39-55.499 11.384-19.482 23.13-39.611 36.195-43.854 11.385-3.673 32.757 5.15 52.885 13.894 22.328 9.702 45.434 19.74 69.961 19.74s47.633-10.038 69.96-19.74c20.156-8.746 41.58-17.594 52.91-13.894 13.066 4.243 24.839 24.372 36.224 43.854 11.979 20.492 24.372 41.708 43.337 55.524 19.225 13.997 43.39 19.301 66.779 24.45 21.863 4.813 44.45 9.78 52.342 20.62 7.685 10.583 5.51 33.455 3.363 55.551-2.302 23.959-4.682 48.72 2.743 71.592 7.141 21.94 23.285 40.05 38.886 57.567 15.188 17 30.867 34.593 30.867 48.9S893.99 544.1 878.801 561.1z"/><path d="M650.419 474.5c14.645 0 26.494-11.85 26.494-26.494s-11.85-26.494-26.494-26.494h-83.57l70.013-70.014c10.348-10.348 10.348-27.115 0-37.464s-27.116-10.348-37.464 0l-87.128 87.128-87.127-87.128c-10.349-10.348-27.116-10.348-37.464 0s-10.349 27.116 0 37.464l70.013 70.014h-83.57c-14.645 0-26.495 11.85-26.495 26.494s11.85 26.494 26.495 26.494h111.642v66.21H374.122c-14.645 0-26.495 11.849-26.495 26.493s11.85 26.494 26.495 26.494h111.642v97.93c0 14.646 11.85 26.495 26.494 26.495s26.494-11.85 26.494-26.494v-97.93h111.67c14.644 0 26.494-11.85 26.494-26.495s-11.85-26.494-26.495-26.494H538.752V474.5H650.42z"/></svg>