<svg class="icon" viewBox="0 0 1024 1024" xmlns="http://www.w3.org/2000/svg" width="200" height="200"><defs><style/></defs><path d="M512 881.14c-203.871 0-369.14-165.269-369.14-369.14S308.128 142.86 512 142.86 881.14 308.128 881.14 512 715.872 881.14 512 881.14zm0-52.734c174.735 0 316.406-141.67 316.406-316.406S686.736 195.594 512 195.594 195.594 337.264 195.594 512 337.264 828.406 512 828.406zm-74.566-219.981l242.34-242.367a26.314 26.314 0 0 1 37.31 0 26.314 26.314 0 0 1 0 37.283L456.075 664.35a26.34 26.34 0 0 1-37.23.052L306.863 552.421a26.262 26.262 0 0 1 .053-37.23 26.446 26.446 0 0 1 37.23-.053l93.288 93.287z"/></svg>