<?xml version="1.0" standalone="no"?><!DOCTYPE svg PUBLIC "-//W3C//DTD SVG 1.1//EN" "http://www.w3.org/Graphics/SVG/1.1/DTD/svg11.dtd"><svg t="1541667951288" class="icon" style="" viewBox="0 0 1024 1024" version="1.1" xmlns="http://www.w3.org/2000/svg" p-id="2627" xmlns:xlink="http://www.w3.org/1999/xlink" width="200" height="200"><defs><style type="text/css"></style></defs><path d="M549.28320313 512l130.64941406 130.62304688a26.20898438 26.20898438 0 0 1-0.13183594 37.17773437 26.28808594 26.28808594 0 0 1-37.17773438 0.13183594L512 549.28320313l-130.62304688 130.64941406a26.20898438 26.20898438 0 0 1-37.17773437-0.13183594 26.28808594 26.28808594 0 0 1-0.13183594-37.17773438L474.71679687 512 344.04101562 381.37695312a26.20898438 26.20898438 0 0 1 0.13183594-37.17773437 26.28808594 26.28808594 0 0 1 37.17773438-0.13183594L512 474.71679687l130.62304688-130.64941406a26.20898438 26.20898438 0 0 1 37.17773437 0.13183594 26.28808594 26.28808594 0 0 1 0.13183594 37.17773438L549.28320313 512zM512 881.140625C308.12890625 881.140625 142.859375 715.87109375 142.859375 512S308.12890625 142.859375 512 142.859375s369.140625 165.26953125 369.140625 369.140625-165.26953125 369.140625-369.140625 369.140625z m0-52.734375c174.73535156 0 316.40625-141.67089844 316.40625-316.40625S686.73535156 195.59375 512 195.59375 195.59375 337.26464844 195.59375 512s141.67089844 316.40625 316.40625 316.40625z" fill="#333333" p-id="2628"></path></svg>