<?xml version="1.0" standalone="no"?><!DOCTYPE svg PUBLIC "-//W3C//DTD SVG 1.1//EN" "http://www.w3.org/Graphics/SVG/1.1/DTD/svg11.dtd"><svg t="1541667955123" class="icon" style="" viewBox="0 0 1024 1024" version="1.1" xmlns="http://www.w3.org/2000/svg" p-id="2742" xmlns:xlink="http://www.w3.org/1999/xlink" width="200" height="200"><defs><style type="text/css"></style></defs><path d="M512 881.140625C308.12890625 881.140625 142.859375 715.87109375 142.859375 512S308.12890625 142.859375 512 142.859375s369.140625 165.26953125 369.140625 369.140625-165.26953125 369.140625-369.140625 369.140625z m0-52.734375c174.73535156 0 316.40625-141.67089844 316.40625-316.40625S686.73535156 195.59375 512 195.59375 195.59375 337.26464844 195.59375 512s141.67089844 316.40625 316.40625 316.40625z m-74.56640625-219.98144531l242.34082031-242.3671875a26.31445313 26.31445313 0 0 1 37.30957032 0 26.31445313 26.31445313 0 0 1 0 37.28320312l-261.00878907 261.00878907a26.34082031 26.34082031 0 0 1-37.23046875 0.05273437L306.86328125 552.42089844a26.26171875 26.26171875 0 0 1 0.05273438-37.23046875 26.44628906 26.44628906 0 0 1 37.23046875-0.05273438l93.28710937 93.28710938z" fill="#333333" p-id="2743"></path></svg>