<?xml version="1.0" standalone="no"?><!DOCTYPE svg PUBLIC "-//W3C//DTD SVG 1.1//EN" "http://www.w3.org/Graphics/SVG/1.1/DTD/svg11.dtd"><svg t="1541667883355" class="icon" style="" viewBox="0 0 1024 1024" version="1.1" xmlns="http://www.w3.org/2000/svg" p-id="2567" xmlns:xlink="http://www.w3.org/1999/xlink" width="200" height="200"><defs><style type="text/css"></style></defs><path d="M512 881.140625C308.12890625 881.140625 142.859375 715.87109375 142.859375 512S308.12890625 142.859375 512 142.859375s369.140625 165.26953125 369.140625 369.140625-165.26953125 369.140625-369.140625 369.140625z m0-52.734375c174.73535156 0 316.40625-141.67089844 316.40625-316.40625S686.73535156 195.59375 512 195.59375 195.59375 337.26464844 195.59375 512s141.67089844 316.40625 316.40625 316.40625z m-26.3671875-184.30664063a26.3671875 26.3671875 0 1 1 52.734375 1e-8v52.20703125a26.3671875 26.3671875 0 1 1-52.734375 0v-52.20703125z m0-316.80175781c0-14.50195313 11.70703125-26.23535156 26.3671875-26.23535156 14.5546875 0 26.3671875 12.0234375 26.3671875 26.23535156v211.20117188c0 14.50195313-11.70703125 26.23535156-26.3671875 26.23535156-14.5546875 0-26.3671875-12.0234375-26.3671875-26.23535156v-211.20117188z" fill="#333333" p-id="2568"></path></svg>