<svg class="icon" viewBox="0 0 1024 1024" xmlns="http://www.w3.org/2000/svg" width="200" height="200"><defs><style/></defs><path d="M506.839 641.12a128.468 128.468 0 1 0 3.623-256.911 128.468 128.468 0 1 0-3.623 256.91z"/><path d="M941.314 468.847c-51.714-60.895-114.262-109.28-185.907-143.811-74.21-35.768-153.904-54.498-236.87-55.67-86.925-1.244-170.593 16.833-248.676 53.685-74.371 35.1-141.548 87.226-194.269 150.743-20.26 24.41-20.08 59.654.427 83.804 51.714 60.896 114.262 109.28 185.907 143.812 74.21 35.769 153.905 54.498 236.87 55.671 2.775.039 5.533.059 8.301.059 83.948 0 164.786-18.068 240.376-53.743 74.37-35.101 141.548-87.227 194.269-150.745 20.26-24.411 20.08-59.655-.428-83.805zm-48.819 42.928c-95.892 115.529-236.072 181.369-385.588 181.361-2.392 0-4.811-.017-7.207-.051-144.506-2.041-281.151-66.524-374.898-176.915-.349-.411-.333-1.057.036-1.502 97.425-117.376 240.599-183.465 392.794-181.309 144.507 2.042 281.152 66.525 374.898 176.915.35.411.334 1.056-.035 1.501z"/></svg>