<?xml version="1.0" standalone="no"?><!DOCTYPE svg PUBLIC "-//W3C//DTD SVG 1.1//EN" "http://www.w3.org/Graphics/SVG/1.1/DTD/svg11.dtd"><svg t="1537512715632" class="icon" style="" viewBox="0 0 1024 1024" version="1.1" xmlns="http://www.w3.org/2000/svg" p-id="2113" xmlns:xlink="http://www.w3.org/1999/xlink" width="128" height="128"><defs><style type="text/css"></style></defs><path d="M511.32166289 289.48271021c41.62771389 0 75.38267175-33.0053725 75.38267176-73.70221756 0-40.71117892-33.75495786-73.70896262-75.38267175-73.70896262-41.63361603 0-75.38182882 32.99778369-75.38182882 73.70896262C435.93983408 256.4773377 469.68804687 289.48271021 511.32166289 289.48271021L511.32166289 289.48271021zM511.32166289 436.89979333c-41.63361603 0-75.38182882 32.99947037-75.38182881 73.70306049 0 40.70443387 33.7482128 73.70896262 75.38182882 73.70896262 41.62771389 0 75.38267175-33.00452957 75.38267176-73.70896262C586.70433466 469.89841995 552.94937681 436.89979333 511.32166289 436.89979333L511.32166289 436.89979333zM511.32166289 731.72383953c-41.63361603 0-75.38182882 32.96574261-75.38182881 73.7081197 0 40.70443387 33.7482128 73.70306048 75.38182882 73.70306048 41.62771389 0 75.38267175-32.99862662 75.38267176-73.70306048C586.70433466 764.68958298 552.94937681 731.72383953 511.32166289 731.72383953L511.32166289 731.72383953zM511.32166289 731.72383953" p-id="2114"></path></svg>