<?xml version="1.0" standalone="no"?><!DOCTYPE svg PUBLIC "-//W3C//DTD SVG 1.1//EN" "http://www.w3.org/Graphics/SVG/1.1/DTD/svg11.dtd"><svg t="1537520676195" class="icon" style="" viewBox="0 0 1024 1024" version="1.1" xmlns="http://www.w3.org/2000/svg" p-id="2171" xmlns:xlink="http://www.w3.org/1999/xlink" width="16" height="16"><defs><style type="text/css"></style></defs><path d="M823.32149773 689.05726129c-0.992147-1.27561733-98.22253519-136.91626089-98.22253517-236.83961892 0-138.75881891-62.78872-209.90991961-134.08155589-236.4144126L591.0174075 203.18879154c0-43.65445989-35.57555036-79.08827508-79.08827508-79.08827509S432.84085733 159.6760668 432.84085733 203.18879154l0 13.7483204c-8.92932139 6.51982187-13.32311407 18.00037793-9.77973322 29.05572849 4.3937927 13.89005557 19.27599527 21.40202444 33.16605085 17.00823092 14.59873142-4.67726385 30.473081-6.94502737 46.91437125-6.94502737l17.57517241 0c94.96262383 0 151.65672747 73.41886423 151.65672748 196.30333437 0 89.00974265 60.09575015 193.89383487 90.85230149 241.80035313-47.33957676 21.54375962-150.80631646 62.78872-251.15488001 62.78872-100.0650932 0-203.81530325-41.52843073-251.15488-63.07219034 30.75655133-47.76478225 90.71056631-152.36540415 90.71056631-241.51688196 0-51.44989912 9.49626205-94.112212 28.48878699-126.85305734 7.22849854-12.61443823 2.97644018-28.77225732-9.63799805-36.00075586-12.75617341-7.3702337-28.77225732-2.97644018-36.00075586 9.63799805-23.52805279 40.81975489-35.57555036 92.41138916-35.57555035 153.21581515 0 99.92335803-97.23038818 234.99706009-98.22253518 236.4144126-4.3937927 6.23635153-6.09461636 13.89005557-4.3937927 21.40202444 1.70082285 7.3702337 6.51982187 13.74832041 13.18137891 17.29170126 4.67726385 2.55123468 88.44280197 47.19784158 192.33474719 69.59201221 17.57517243 54.70981045 60.94616198 91.70271332 110.12829675 91.70271332s92.55312433-36.99290286 110.12829675-91.70271332c103.89194522-22.39417062 187.65748333-66.75730719 192.3347472-69.16680669 6.66155704-3.68511685 11.48055606-9.92146838 13.32311407-17.29170127C829.41611411 703.08905203 827.85702561 695.29361282 823.32149773 689.05726129zM503.1415462 203.18879154c-5.95288119 0-11.76402639 0.85041184-17.57517242 1.27561733L485.56637378 203.18879154c0-14.45699624 11.90576157-26.36275864 26.36275864-26.36275864 14.45699624 0 26.36275864 11.90576157 26.36275862 26.36275864l0 0.70867666c-5.95288119-0.42520551-11.76402639-0.70867667-17.57517241-0.70867666L503.1415462 203.18879154zM511.92913242 836.03672491c-18.42558344 0-35.57555036-11.05535056-47.76478227-29.05572847 15.87434875 1.70082285 31.74869833 2.69296985 47.76478227 2.69296984s32.03216867-1.13388218 47.76478225-2.69296984C547.50468277 824.98137518 530.35471585 836.03672491 511.92913242 836.03672491z" p-id="2172"></path></svg>