<?xml version="1.0" standalone="no"?><!DOCTYPE svg PUBLIC "-//W3C//DTD SVG 1.1//EN" "http://www.w3.org/Graphics/SVG/1.1/DTD/svg11.dtd"><svg t="1537506974915" class="icon" style="" viewBox="0 0 1024 1024" version="1.1" xmlns="http://www.w3.org/2000/svg" p-id="2084" xmlns:xlink="http://www.w3.org/1999/xlink" width="128" height="128"><defs><style type="text/css"></style></defs><path d="M838.89546494 362.02265171c-13.08147545 4.87903679-19.65756852 19.51614716-14.77853172 32.59762261 45.8912301 122.25876247 15.90990258 260.85169158-76.36753237 353.12912653-113.49063838 113.49063838-289.06525215 127.84490604-418.39508243 43.20422433l79.33738085 0c6.92964646 0 13.29360749-2.82842712 17.88980156-7.4246212 4.59619408-4.59619408 7.4246212-10.96015511 7.42462121-17.88980157 0-14.00071427-11.3137085-25.31442277-25.31442277-25.31442276L258.36079759 740.32477965c-1.69705627 0-3.32340187 0.21213203-5.02045815 0.49497474-0.70710678 0.14142136-1.41421356 0.42426407-2.12132034 0.56568543-0.84852814 0.28284271-1.76776695 0.49497475-2.61629509 0.77781746-0.77781746 0.35355339-1.55563492 0.84852814-2.33345238 1.20208152-0.6363961 0.35355339-1.34350288 0.6363961-2.05060967 1.06066018-1.34350288 0.91923882-2.54558441 1.83847763-3.67695526 2.96984848l-0.14142135 0.14142135-0.14142136 0.14142136c-1.13137085 1.13137085-2.12132034 2.40416306-2.96984848 3.67695526-0.42426407 0.70710678-0.77781746 1.34350288-1.06066017 2.05060967-0.42426407 0.70710678-0.91923882 1.48492424-1.20208153 2.33345238-0.35355339 0.91923882-0.56568542 1.69705627-0.77781746 2.61629509-0.14142136 0.70710678-0.49497475 1.34350288-0.56568543 2.12132034-0.6363961 3.32340187-0.70710678 6.64680374 0 9.89949494 0.14142136 0.70710678 0.42426407 1.41421356 0.63639611 2.05060966 0.28284271 0.84852814 0.49497475 1.76776695 0.77781746 2.61629509 0.35355339 0.77781746 0.84852814 1.55563492 1.2727922 2.40416306 0.35355339 0.6363961 0.6363961 1.34350288 1.13137085 1.97989898 0.91923882 1.34350288 1.97989899 2.68700577 3.18198052 3.8890873 149.69450558 149.69450558 393.36350237 149.69450558 543.05800795 0 106.27814921-106.27814921 140.78496013-265.9428604 87.96408358-406.72782054-5.09116882-12.86934342-19.65756852-19.51614716-32.80975465-14.56639969zM789.04443687 268.04816049c0.28284271-0.84852814 0.56568542-1.69705627 0.77781746-2.61629509 0.14142136-0.70710678 0.49497475-1.34350288 0.56568542-2.12132034 0.6363961-3.32340187 0.70710678-6.64680374 0-9.89949494-0.14142136-0.70710678-0.42426407-1.41421356-0.6363961-2.05060967-0.28284271-0.84852814-0.49497475-1.76776695-0.77781746-2.61629509-0.35355339-0.77781746-0.84852814-1.55563492-1.27279221-2.40416305-0.35355339-0.6363961-0.6363961-1.34350288-1.13137085-1.97989899-0.91923882-1.34350288-1.97989899-2.68700577-3.18198051-3.8890873-149.69450558-149.69450558-393.36350237-149.69450558-543.05800795 0-107.55094142 107.55094142-141.56277759 268.70057685-86.54987002 410.54619716 5.09116882 13.01076477 19.65756852 19.51614716 32.73904397 14.49568902 13.08147545-5.02045815 19.44543648-19.7282792 14.49568901-32.73904397C153.35544058 509.59583694 182.84179336 369.65940495 276.25059915 276.25059915c113.49063838-113.49063838 289.06525215-127.84490604 418.39508243-43.20422433l-79.33738085 0c-14.00071427 0-25.31442277 11.3137085-25.31442277 25.31442277 0 14.00071427 11.3137085 25.31442277 25.31442277 25.31442276L765.78062377 283.67522035c1.69705627 0 3.32340187-0.21213203 5.02045814-0.49497474 0.70710678-0.14142136 1.41421356-0.42426407 2.12132035-0.56568543 0.84852814-0.28284271 1.76776695-0.49497475 2.61629509-0.77781746 0.77781746-0.35355339 1.55563492-0.84852814 2.33345238-1.20208152 0.6363961-0.35355339 1.34350288-0.6363961 1.97989898-1.13137085 1.34350288-0.91923882 2.68700577-1.97989899 3.8890873-3.18198052 1.20208153-1.20208153 2.19203102-2.47487373 3.18198052-3.8890873 0.49497475-0.6363961 0.77781746-1.34350288 1.13137085-1.97989898 0.14142136-0.84852814 0.56568542-1.55563492 0.98994949-2.40416306z" p-id="2085"></path></svg>