<svg class="icon" viewBox="0 0 1024 1024" xmlns="http://www.w3.org/2000/svg" width="128" height="128"><defs><style/></defs><path d="M838.895 362.023c-13.081 4.879-19.657 19.516-14.778 32.597 45.891 122.259 15.91 260.852-76.368 353.13-113.49 113.49-289.065 127.844-418.395 43.204h79.338a25.29 25.29 0 0 0 17.89-7.425 25.29 25.29 0 0 0 7.424-17.89c0-14-11.314-25.314-25.314-25.314H258.36c-1.697 0-3.324.212-5.02.495-.708.141-1.415.424-2.122.565-.849.283-1.768.495-2.616.778-.778.354-1.556.849-2.334 1.202-.636.354-1.343.637-2.05 1.061-1.344.92-2.546 1.838-3.677 2.97l-.142.141-.141.142c-1.132 1.131-2.121 2.404-2.97 3.677-.424.707-.778 1.343-1.06 2.05-.425.707-.92 1.485-1.203 2.334-.353.919-.565 1.697-.778 2.616-.141.707-.495 1.344-.565 2.121-.637 3.324-.707 6.647 0 9.9.141.707.424 1.414.636 2.05.283.849.495 1.768.778 2.617.354.778.849 1.555 1.273 2.404.353.636.636 1.343 1.131 1.98.92 1.343 1.98 2.687 3.182 3.889 149.695 149.694 393.364 149.694 543.058 0 106.278-106.278 140.785-265.943 87.964-406.728-5.09-12.87-19.657-19.516-32.81-14.566zm-49.85-93.975c.282-.848.565-1.697.777-2.616.142-.707.495-1.344.566-2.121.636-3.324.707-6.647 0-9.9-.141-.707-.424-1.414-.636-2.05-.283-.85-.495-1.768-.778-2.617-.354-.778-.849-1.555-1.273-2.404-.354-.636-.636-1.344-1.131-1.98-.92-1.343-1.98-2.687-3.182-3.889-149.695-149.695-393.364-149.695-543.058 0-107.551 107.55-141.563 268.7-86.55 410.546 5.09 13.011 19.657 19.516 32.739 14.496 13.081-5.02 19.445-19.728 14.495-32.74-47.659-123.177-18.172-263.114 75.237-356.522 113.49-113.491 289.065-127.845 418.395-43.205h-79.338c-14 0-25.314 11.314-25.314 25.315 0 14 11.314 25.314 25.314 25.314h150.473c1.697 0 3.323-.212 5.02-.495.707-.141 1.414-.424 2.121-.565.849-.283 1.768-.495 2.617-.778.778-.354 1.555-.849 2.333-1.202.637-.354 1.344-.637 1.98-1.132 1.344-.919 2.687-1.98 3.89-3.182 1.201-1.202 2.191-2.475 3.181-3.889.495-.636.778-1.343 1.131-1.98.142-.848.566-1.555.99-2.404z"/></svg>