<?xml version="1.0" standalone="no"?><!DOCTYPE svg PUBLIC "-//W3C//DTD SVG 1.1//EN" "http://www.w3.org/Graphics/SVG/1.1/DTD/svg11.dtd"><svg t="1538200708761" class="icon" style="" viewBox="0 0 1024 1024" version="1.1" xmlns="http://www.w3.org/2000/svg" p-id="2197" xmlns:xlink="http://www.w3.org/1999/xlink" width="200" height="200"><defs><style type="text/css"></style></defs><path d="M713.459375 673.690625l169.5375 169.509375a28.096875 28.096875 0 1 1-39.796875 39.796875L673.690625 713.459375A336.15 336.15 0 0 1 455.75 793.25C269.365625 793.25 118.25 642.134375 118.25 455.75S269.365625 118.25 455.75 118.25s337.5 151.115625 337.5 337.5c0 83.08125-30.009375 159.13125-79.790625 217.940625zM455.75 737c155.334375 0 281.25-125.915625 281.25-281.25S611.084375 174.5 455.75 174.5 174.5 300.415625 174.5 455.75s125.915625 281.25 281.25 281.25z" p-id="2198"></path></svg>
