<svg class="icon" viewBox="0 0 1024 1024" xmlns="http://www.w3.org/2000/svg" width="200" height="200"><defs><style/></defs><path d="M713.46 673.69L882.996 843.2a28.097 28.097 0 1 1-39.797 39.797L673.69 713.459a336.15 336.15 0 0 1-217.94 79.791c-186.384 0-337.5-151.116-337.5-337.5s151.116-337.5 337.5-337.5 337.5 151.116 337.5 337.5c0 83.081-30.01 159.131-79.79 217.94zM455.75 737C611.084 737 737 611.084 737 455.75S611.084 174.5 455.75 174.5 174.5 300.416 174.5 455.75 300.416 737 455.75 737z"/></svg>