<svg class="icon" viewBox="0 0 1024 1024" xmlns="http://www.w3.org/2000/svg" width="128" height="128"><defs><style/></defs><path d="M215.67 547.55a127.376 127.376 0 0 0 32.545 55.01c24.183 24.175 56.35 37.51 90.552 37.51 34.202 0 66.37-13.32 90.553-37.517a127.436 127.436 0 0 0 31.927-52.885h434.998c20.77 0 37.667-16.868 37.667-37.668 0-20.762-16.867-37.667-37.667-37.667H461.239a127.444 127.444 0 0 0-31.912-52.885 127.233 127.233 0 0 0-90.56-37.517c-34.202 0-66.37 13.32-90.552 37.517a127.376 127.376 0 0 0-32.545 55.01 37.48 37.48 0 0 0-12.467-2.125h-75.41a37.675 37.675 0 0 0 0 75.335h75.41a37.54 37.54 0 0 0 12.467-2.117zm592.734 222.705a127.384 127.384 0 0 0-32.544-55.01 127.233 127.233 0 0 0-90.553-37.508c-34.202 0-66.37 13.319-90.552 37.516a127.436 127.436 0 0 0-31.927 52.885H127.83c-20.77 0-37.667 16.868-37.667 37.668 0 20.762 16.867 37.667 37.667 37.667h435.006a127.436 127.436 0 0 0 31.911 52.885c24.19 24.205 56.358 37.517 90.56 37.517 34.202 0 66.37-13.32 90.553-37.517a127.376 127.376 0 0 0 32.544-55.01 37.48 37.48 0 0 0 12.468 2.125h75.41a37.675 37.675 0 0 0 0-75.335h-75.41a37.55 37.55 0 0 0-12.468 2.117zm0-587.61a127.384 127.384 0 0 0-32.544-55.01 127.233 127.233 0 0 0-90.553-37.51c-34.202 0-66.37 13.32-90.552 37.517a127.436 127.436 0 0 0-31.927 52.885H127.83c-20.77 0-37.667 16.868-37.667 37.668 0 20.762 16.867 37.667 37.667 37.667h435.006a127.436 127.436 0 0 0 31.911 52.885c24.19 24.205 56.358 37.517 90.56 37.517 34.202 0 66.37-13.32 90.553-37.517a127.376 127.376 0 0 0 32.544-55.01 37.48 37.48 0 0 0 12.468 2.125h75.41a37.675 37.675 0 0 0 0-75.335h-75.41a37.55 37.55 0 0 0-12.468 2.117zM376.058 549.29a52.388 52.388 0 0 1-37.29 15.444 52.388 52.388 0 0 1-37.291-15.444A52.388 52.388 0 0 1 286.033 512c0-14.088 5.484-27.332 15.444-37.291a52.388 52.388 0 0 1 37.29-15.444c14.088 0 27.332 5.484 37.291 15.444A52.388 52.388 0 0 1 391.502 512c0 14.088-5.485 27.332-15.444 37.29zm346.54 293.806a52.388 52.388 0 0 1-37.29 15.443 52.388 52.388 0 0 1-37.291-15.443 52.388 52.388 0 0 1-15.444-37.291c0-14.088 5.484-27.332 15.444-37.29a52.388 52.388 0 0 1 37.29-15.444c14.088 0 27.332 5.484 37.291 15.443a52.388 52.388 0 0 1 15.444 37.29c0 14.088-5.485 27.332-15.444 37.292zm0-587.612a52.388 52.388 0 0 1-37.29 15.444 52.388 52.388 0 0 1-37.291-15.444 52.388 52.388 0 0 1-15.444-37.29c0-14.088 5.484-27.332 15.444-37.291a52.388 52.388 0 0 1 37.29-15.444c14.088 0 27.332 5.485 37.291 15.444a52.388 52.388 0 0 1 15.444 37.29c0 14.088-5.485 27.332-15.444 37.291z"/></svg>