<?xml version="1.0" standalone="no"?><!DOCTYPE svg PUBLIC "-//W3C//DTD SVG 1.1//EN" "http://www.w3.org/Graphics/SVG/1.1/DTD/svg11.dtd"><svg t="1537497315153" class="icon" style="" viewBox="0 0 1024 1024" version="1.1" xmlns="http://www.w3.org/2000/svg" p-id="2053" xmlns:xlink="http://www.w3.org/1999/xlink" width="128" height="128"><defs><style type="text/css"></style></defs><path d="M354.13333334 307.2h546.13333333c18.87573333 0 34.13333333-15.29173333 34.13333333-34.13333333s-15.2576-34.13333333-34.13333333-34.13333334H354.13333334c-18.8416 0-34.13333333 15.29173333-34.13333334 34.13333334s15.29173333 34.13333333 34.13333334 34.13333333zM900.26666667 477.86666667H354.13333334c-18.8416 0-34.13333333 15.29173333-34.13333334 34.13333333s15.29173333 34.13333333 34.13333334 34.13333333h546.13333333c18.87573333 0 34.13333333-15.29173333 34.13333333-34.13333333s-15.2576-34.13333333-34.13333333-34.13333333zM900.26666667 716.8H354.13333334c-18.8416 0-34.13333333 15.2576-34.13333334 34.13333333s15.29173333 34.13333333 34.13333334 34.13333334h546.13333333c18.87573333 0 34.13333333-15.2576 34.13333333-34.13333334s-15.2576-34.13333333-34.13333333-34.13333333zM81.06666667 273.06666667a2.13333333 2.13333333 0 1 0 136.53333333 0 2.13333333 2.13333333 0 1 0-136.53333333 0zM81.06666667 512a2.13333333 2.13333333 0 1 0 136.53333333 0 2.13333333 2.13333333 0 1 0-136.53333333 0zM81.06666667 750.93333333a2.13333333 2.13333333 0 1 0 136.53333333 0 2.13333333 2.13333333 0 1 0-136.53333333 0z" p-id="2054"></path></svg>
