<svg class="icon" viewBox="0 0 1024 1024" xmlns="http://www.w3.org/2000/svg" width="128" height="128"><defs><style/></defs><path d="M354.133 307.2h546.134c18.875 0 34.133-15.292 34.133-34.133s-15.258-34.134-34.133-34.134H354.133c-18.841 0-34.133 15.292-34.133 34.134s15.292 34.133 34.133 34.133zm546.134 170.667H354.133C335.292 477.867 320 493.158 320 512s15.292 34.133 34.133 34.133h546.134c18.875 0 34.133-15.291 34.133-34.133s-15.258-34.133-34.133-34.133zm0 238.933H354.133c-18.841 0-34.133 15.258-34.133 34.133s15.292 34.134 34.133 34.134h546.134c18.875 0 34.133-15.258 34.133-34.134S919.142 716.8 900.267 716.8zm-819.2-443.733a2.133 2.133 0 1 0 136.533 0 2.133 2.133 0 1 0-136.533 0zm0 238.933a2.133 2.133 0 1 0 136.533 0 2.133 2.133 0 1 0-136.533 0zm0 238.933a2.133 2.133 0 1 0 136.533 0 2.133 2.133 0 1 0-136.533 0z"/></svg>