<?xml version="1.0" standalone="no"?><!DOCTYPE svg PUBLIC "-//W3C//DTD SVG 1.1//EN" "http://www.w3.org/Graphics/SVG/1.1/DTD/svg11.dtd"><svg t="1538216078729" class="icon" style="" viewBox="0 0 1024 1024" version="1.1" xmlns="http://www.w3.org/2000/svg" p-id="6355" xmlns:xlink="http://www.w3.org/1999/xlink" width="200" height="200"><defs><style type="text/css"></style></defs><path d="M954.514 402.113c-7.724-22.304-27.494-38.582-51.328-42.155l-231.982-34.509L570.327 116.055c-10.595-22.01-33.307-36.087-58.312-36.087-24.918 0-47.632 14.077-58.264 36.087L352.876 325.449l-232.025 34.509c-23.84 3.574-43.606 19.851-51.329 42.155-7.685 22.299-1.873 46.884 14.989 63.662L254.491 635.63 215.04 871.145c-3.946 23.716 6.311 47.551 26.454 61.424 11.087 7.642 24.086 11.464 37.084 11.464 10.718 0 21.473-2.621 31.149-7.809l202.25-108.934L714.31 936.224c9.714 5.23 20.431 7.809 31.105 7.809 12.999 0 25.996-3.864 37.127-11.464 20.1-13.874 30.354-37.67 26.369-61.424L769.5 635.63l170.104-169.855C956.382 448.997 962.114 424.412 954.514 402.113L954.514 402.113zM734.95 590.657l-28.326 28.278 6.563 39.457 39.409 235.058L548.812 783.81l-36.833-19.851L475.14 783.81l-203.828 109.68 39.414-235.098 6.602-39.457-28.321-28.278-168.61-168.277 231.274-34.348 40.702-6.058 17.855-37.049 101.75-211.051 101.746 211.051 17.898 37.049 40.658 6.058 231.275 34.348L734.95 590.657 734.95 590.657z" p-id="6356"></path></svg>