<svg class="icon" viewBox="0 0 1024 1024" xmlns="http://www.w3.org/2000/svg" width="200" height="200"><defs><style/></defs><path d="M954.514 402.113c-7.724-22.304-27.494-38.582-51.328-42.155l-231.982-34.509-100.877-209.394c-10.595-22.01-33.307-36.087-58.312-36.087-24.918 0-47.632 14.077-58.264 36.087L352.876 325.449l-232.025 34.509c-23.84 3.574-43.606 19.851-51.329 42.155-7.685 22.299-1.873 46.884 14.989 63.662l169.98 169.855-39.451 235.515c-3.946 23.716 6.311 47.551 26.454 61.424 11.087 7.642 24.086 11.464 37.084 11.464a66.023 66.023 0 0 0 31.149-7.809l202.25-108.934L714.31 936.224c9.714 5.23 20.431 7.809 31.105 7.809a65.877 65.877 0 0 0 37.127-11.464c20.1-13.874 30.354-37.67 26.369-61.424L769.5 635.63l170.104-169.855c16.778-16.778 22.51-41.363 14.91-63.662zM734.95 590.657l-28.326 28.278 6.563 39.457 39.409 235.058-203.784-109.64-36.833-19.851-36.839 19.851-203.828 109.68 39.414-235.098 6.602-39.457-28.321-28.278-168.61-168.277 231.274-34.348 40.702-6.058 17.855-37.049 101.75-211.051 101.746 211.051 17.898 37.049 40.658 6.058 231.275 34.348L734.95 590.657z"/></svg>