<?xml version="1.0" standalone="no"?><!DOCTYPE svg PUBLIC "-//W3C//DTD SVG 1.1//EN" "http://www.w3.org/Graphics/SVG/1.1/DTD/svg11.dtd"><svg t="1537349181543" class="icon" style="" viewBox="0 0 1024 1024" version="1.1" xmlns="http://www.w3.org/2000/svg" p-id="1964" xmlns:xlink="http://www.w3.org/1999/xlink" width="128" height="128"><defs><style type="text/css"></style></defs><path d="M832 552.8c-45.4 0-85.1-25.3-106.3-62.8-21.3 37.5-61 62.8-106.3 62.8-45.4 0-85.1-25.3-106.3-62.8-21.3 37.5-61 62.8-106.3 62.8-45.4 0-85.1-25.3-106.3-62.8-21.3 37.5-61 62.8-106.3 62.8-67.7 0-122.8-56.3-122.8-125.6l0-2.7 70.1-209.2 743.6 0 70.1 209.2 0 2.7C954.8 496.5 899.7 552.8 832 552.8zM742.1 427.3c0 51 40.3 92.6 89.8 92.6 48.7 0 88.5-40.1 89.8-90L861 248.3 164.9 248.3l-60.8 181.5c1.3 49.9 41.1 90 89.8 90 49.5 0 89.8-41.5 89.8-92.6l33 0c0 51 40.3 92.6 89.8 92.6 49.5 0 89.8-41.5 89.8-92.6l33 0c0 51 40.3 92.6 89.8 92.6 49.5 0 89.8-41.5 89.8-92.6L742.1 427.2z" p-id="1965"></path><path d="M774.7 920.3 251.2 920.3c-39.6 0-81.9-33.1-81.9-82.4L169.3 580l17.4 0.9c2.5 0.1 4.9 0.2 7.3 0.2 35.5 0 69.2-13.6 94.9-38.4l11.4-11 11.4 11c25.7 24.7 59.4 38.4 94.9 38.4 35.5 0 69.2-13.6 94.9-38.4l11.4-11 11.4 11c25.7 24.7 59.4 38.4 94.9 38.4 35.5 0 69.2-13.6 94.9-38.4l11.4-11 11.4 11c25.7 24.7 59.4 38.4 94.9 38.4 2.4 0 4.8-0.1 7.3-0.2l17.4-0.9 0 257.9C856.7 884.9 821.4 920.3 774.7 920.3zM202.3 613.9l0 224c0 31.8 28.9 49.4 48.9 49.4l523.5 0c14.3 0 26.6-5 35.6-14.3 8.6-9 13.4-21.5 13.4-35l0-224c-35.9-1.7-70-14.8-98-37.3-30.2 24.3-67.4 37.5-106.3 37.5-39 0-76.2-13.2-106.3-37.5-30.2 24.3-67.4 37.5-106.3 37.5-39 0-76.2-13.2-106.3-37.5C272.3 599.1 238.2 612.2 202.3 613.9z" p-id="1966"></path><path d="M780.2 174.2 245.8 174.2c-9.1 0-16.5-7.4-16.5-16.5s7.4-16.5 16.5-16.5l534.4 0c9.1 0 16.5 7.4 16.5 16.5S789.3 174.2 780.2 174.2z" p-id="1967"></path></svg>