<?xml version="1.0" standalone="no"?><!DOCTYPE svg PUBLIC "-//W3C//DTD SVG 1.1//EN" "http://www.w3.org/Graphics/SVG/1.1/DTD/svg11.dtd"><svg t="1537520173569" class="icon" style="" viewBox="0 0 1024 1024" version="1.1" xmlns="http://www.w3.org/2000/svg" p-id="2142" xmlns:xlink="http://www.w3.org/1999/xlink" width="16" height="16"><defs><style type="text/css"></style></defs><path d="M856.17419434 282.02868652L757.79162598 173.84082031c-16.80908203-18.45703125-39.46838379-28.67431641-63.69323731-28.6743164s-46.88415528 10.21728516-63.69323731 28.6743164l-39.38598632 43.258667c-6.3446045 7.00378418-11.70043945 14.99633789-15.73791504 23.73046875H449.70751953c-4.11987305-8.73413086-9.39331055-16.80908203-15.73791504-23.73046875l-39.38598632-43.258667c-16.80908203-18.45703125-39.46838379-28.67431641-63.69323731-28.6743164s-46.88415528 10.21728516-63.69323731 28.6743164L168.73217773 282.02868652c-33.45336914 36.74926758-33.45336914 96.56982422 0 133.3190918l39.38598633 43.25866699c15.73791504 17.22106934 36.58447266 27.19116211 58.50219727 28.50952149v298.27880859c0 52.56958008 39.88037109 95.41625977 88.98925781 95.41625977H669.37915039c49.02648926 0 88.98925781-42.76428223 88.98925781-95.41625977v-298.27880859c21.83532715-1.31835938 42.76428223-11.20605469 58.50219727-28.50952149l39.38598633-43.25866699c33.37097168-36.74926758 33.37097168-96.56982422-0.08239747-133.31909179z m-34.03015137 102.42004395l-39.38598633 43.258667c-10.87646484 11.94763184-26.03759766 16.39709473-40.7043457 11.94763183-7.00378418-2.14233398-14.50195313-0.82397461-20.43457032 3.54309082-5.85021973 4.28466797-9.31091309 11.20605469-9.31091309 18.45703125v323.73962402c0 27.27355958-19.28100586 49.52087403-43.01147461 49.52087403H355.60961914c-23.73046875 0-43.01147461-22.24731445-43.01147461-49.52087403v-323.82202148c0-7.25097656-3.46069336-14.08996583-9.31091309-18.45703125-4.03747559-2.96630859-8.81652833-4.53186036-13.67797851-4.53186036-2.22473145 0-4.53186036 0.32958984-6.7565918 0.98876954-14.66674805 4.44946289-29.82788086 0-40.70434571-11.94763184l-39.38598632-43.258667c-17.71545411-19.44580078-17.71545411-52.23999023 0-71.60339355L301.22729492 204.6574707c7.99255372-8.81652833 18.53942872-13.59558106 29.66308594-13.59558106s21.58813477 4.8614502 29.58068848 13.59558106l39.38598632 43.258667c5.35583497 5.85021973 9.31091309 13.34838867 11.45324707 21.58813477 2.63671875 10.1348877 11.78283692 17.22106934 22.24731446 17.22106933h157.70874023c10.46447754 0 19.69299317-7.08618164 22.24731446-17.22106933 2.14233398-8.23974609 6.09741211-15.73791504 11.45324707-21.58813477l39.38598632-43.258667c7.99255372-8.81652833 18.53942872-13.59558106 29.66308594-13.59558106s21.58813477 4.8614502 29.58068848 13.59558106l98.46496582 108.10546875c17.71545411 19.44580078 17.71545411 52.3223877 0.08239746 71.68579102z" p-id="2143"></path></svg>
