<svg class="icon" viewBox="0 0 1024 1024" xmlns="http://www.w3.org/2000/svg" width="16" height="16"><defs><style/></defs><path d="M856.174 282.029L757.792 173.84c-16.81-18.457-39.469-28.674-63.694-28.674s-46.884 10.217-63.693 28.674l-39.386 43.258c-6.344 7.004-11.7 14.997-15.738 23.731H449.708c-4.12-8.734-9.394-16.81-15.738-23.73l-39.386-43.26c-16.81-18.456-39.469-28.673-63.694-28.673s-46.884 10.217-63.693 28.674l-98.465 108.188c-33.453 36.749-33.453 96.57 0 133.319l39.386 43.258c15.738 17.222 36.585 27.192 58.502 28.51v298.279c0 52.57 39.88 95.416 88.99 95.416h313.77c49.026 0 88.988-42.764 88.988-95.416V487.116c21.836-1.318 42.765-11.206 58.503-28.51l39.386-43.258c33.37-36.75 33.37-96.57-.083-133.32zm-34.03 102.42l-39.386 43.258c-10.876 11.948-26.038 16.397-40.704 11.948-7.004-2.142-14.502-.824-20.435 3.543-5.85 4.285-9.31 11.206-9.31 18.457v323.74c0 27.273-19.282 49.52-43.012 49.52H355.61c-23.73 0-43.012-22.247-43.012-49.52V461.573c0-7.251-3.46-14.09-9.31-18.457-4.038-2.967-8.817-4.532-13.679-4.532-2.224 0-4.532.33-6.756.989-14.667 4.45-29.828 0-40.705-11.948l-39.386-43.259c-17.715-19.445-17.715-52.24 0-71.603l98.465-108.106c7.993-8.816 18.54-13.595 29.663-13.595s21.589 4.861 29.581 13.595l39.386 43.26c5.356 5.85 9.311 13.348 11.453 21.587 2.637 10.135 11.783 17.221 22.248 17.221h157.708c10.465 0 19.693-7.086 22.248-17.22 2.142-8.24 6.097-15.739 11.453-21.589l39.386-43.259c7.992-8.816 18.54-13.595 29.663-13.595s21.588 4.861 29.58 13.595l98.466 108.106c17.715 19.446 17.715 52.322.082 71.686z"/></svg>