<svg class="icon" viewBox="0 0 1024 1024" xmlns="http://www.w3.org/2000/svg" width="200" height="200"><defs><style/></defs><path d="M731.64 601.31c-8.21 0-16.422-3.134-22.689-9.402-12.537-12.524-12.537-32.855 0-45.382l131.839-131.84c32.333-32.334 50.147-75.313 50.147-121.028s-17.814-88.694-50.147-121.017c-32.333-32.344-75.311-50.145-121.028-50.145h-.01c-45.716 0-88.685 17.801-121.007 50.135l-131.85 131.84c-12.537 12.536-32.847 12.536-45.382 0-12.537-12.526-12.537-32.855 0-45.381l131.84-131.84c44.442-44.452 103.54-68.94 166.4-68.94h.01c62.859 0 121.958 24.488 166.408 68.94 44.463 44.441 68.95 103.55 68.95 166.41 0 62.859-24.487 121.967-68.95 166.418L754.33 591.91c-6.267 6.267-14.478 9.401-22.69 9.401zM299.871 948.919c-62.869 0-121.978-24.486-166.43-68.948-91.746-91.757-91.746-241.066 0-332.84L265.313 415.29c12.537-12.535 32.867-12.535 45.382 0 12.535 12.537 12.535 32.856 0 45.382L178.834 592.513c-66.725 66.745-66.725 175.34 0 242.075 32.333 32.333 75.312 50.146 121.037 50.146 45.728 0 88.705-17.813 121.028-50.146l131.852-131.84c12.536-12.535 32.844-12.535 45.381 0 12.537 12.528 12.537 32.856 0 45.38l-131.84 131.844c-44.443 44.461-103.552 68.947-166.42 68.947z"/><path d="M316.477 729.038c-8.212 0-16.423-3.134-22.691-9.402-12.536-12.536-12.536-32.854 0-45.382L638.18 329.881c12.536-12.535 32.844-12.535 45.38 0 12.537 12.537 12.537 32.856 0 45.383L339.169 719.636a31.996 31.996 0 0 1-22.69 9.402z"/></svg>