<svg class="icon" viewBox="0 0 1024 1024" xmlns="http://www.w3.org/2000/svg" width="200" height="200"><defs><style/></defs><path d="M197.427 463.94l369.186 369.186 76.459-76.458c-32.768-32.768-32.768-87.382-2.185-122.334l268.698-297.097v-2.184L695.501 120.969h-2.185L396.22 389.666c-34.953 30.584-87.382 30.584-122.334-2.184l-76.459 76.458zm476.228 323.311l-76.458 76.459c-17.476 17.476-45.875 17.476-61.167 0L166.844 494.524c-17.477-17.477-17.477-43.69 0-61.167l76.458-76.459c17.477-17.476 43.691-17.476 61.167-2.184 19.661 17.476 45.876 17.476 63.352 2.184L664.917 88.201c17.477-15.292 45.876-15.292 63.352 2.184L942.353 304.47c17.476 17.477 17.476 45.876 2.185 63.352L675.84 664.917c-15.292 17.477-15.292 43.691 0 61.167 13.107 19.661 13.107 45.875-2.185 61.167zM284.81 699.87c8.738-8.738 21.845-8.738 30.583 0s8.738 21.845 0 30.583l-207.53 207.531c-8.739 8.738-21.846 8.738-30.584 0s-8.738-21.845 0-30.583l207.53-207.531z"/></svg>