<svg class="icon" viewBox="0 0 1024 1024" xmlns="http://www.w3.org/2000/svg" width="200" height="200"><defs><style/></defs><path d="M1024 457.064c-7.91 7.032-16.7 13.185-24.611 20.217C847.327 623.19 695.265 769.099 544.96 915.887c-26.369 25.49-40.432 24.61-65.922 0-116.903-115.145-237.322-227.654-355.104-342.799-19.338-18.458-35.159-25.49-52.738-4.394-26.37 32.521-48.344 17.579-71.197-2.637v-8.79c58.891-53.617 118.66-106.355 176.673-160.852 102.84-96.686 204.8-194.252 306.76-291.818 16.7-16.7 26.37-21.095 48.344-2.636 62.407 52.738 117.782 112.508 176.673 167.883a18469.906 18469.906 0 0 1 190.736 180.189c14.064 13.184 27.248 22.853 41.312 2.637 26.369-37.796 54.496-29.006 83.502-4.395v8.79zM532.656 845.57c110.75-106.355 221.5-212.71 333.13-318.187 16.7-15.821 14.063-25.49-.88-40.433-110.75-104.597-220.621-210.073-329.613-315.55-20.217-19.337-31.643-14.063-49.223 2.637-107.234 103.719-214.468 206.558-323.46 308.519-21.975 20.216-19.338 30.763.878 50.1 108.993 101.961 216.227 205.68 324.34 308.52 7.911 7.031 14.064 16.7 29.006 16.7 3.516-2.637 10.548-7.032 15.822-12.306z"/><path d="M516.834 448.275h134.483c17.58 0 29.885 4.395 29.006 25.49-.88 20.216-14.943 20.216-29.006 20.216H373.562c-14.942 0-28.127-.879-29.006-20.216-1.758-21.095 10.548-25.49 29.006-25.49h143.272zm134.483 137.119c14.942 0 28.127-.879 29.006-20.216.879-21.096-11.427-25.49-29.006-25.49H373.562c-14.942 0-28.127.879-29.006 21.095-.879 21.095 11.427 25.49 29.006 24.611h277.755zM431.574 364.773c-15.821 0-21.974 7.91-21.974 22.853 0 14.942 6.153 22.853 21.974 22.853H589.79c17.58 0 25.49-7.91 24.611-25.49-.879-15.822-10.548-20.216-24.611-20.216H431.574zm0 266.327c-15.821 0-21.974 7.911-21.974 22.854 0 14.942 6.153 22.853 21.974 22.853H589.79c17.58 0 24.611-7.91 24.611-25.49-.879-16.7-10.548-20.217-24.611-20.217h-74.713c-27.248 0-55.375.88-83.502 0z"/></svg>