<?xml version="1.0" standalone="no"?><!DOCTYPE svg PUBLIC "-//W3C//DTD SVG 1.1//EN" "http://www.w3.org/Graphics/SVG/1.1/DTD/svg11.dtd"><svg class="icon" width="128px" height="128.00px" viewBox="0 0 1024 1024" version="1.1" xmlns="http://www.w3.org/2000/svg"><path d="M635.75 531.6875C697.625 492.3125 737 422 737 343.25c0-123.75-101.25-225-225-225S287 219.5 287 343.25c0 78.75 39.375 149.0625 101.25 188.4375C230.75 582.3125 118.25 731.375 118.25 905.75h56.25c0-185.625 151.875-337.5 337.5-337.5s337.5 151.875 337.5 337.5h56.25c0-174.375-112.5-323.4375-270-374.0625zM512 512c-92.8125 0-168.75-75.9375-168.75-168.75s75.9375-168.75 168.75-168.75 168.75 75.9375 168.75 168.75-75.9375 168.75-168.75 168.75z"  /></svg>
