<svg class="icon" width="128" height="128" viewBox="0 0 1024 1024" xmlns="http://www.w3.org/2000/svg"><path d="M635.75 531.688C697.625 492.313 737 422 737 343.25c0-123.75-101.25-225-225-225s-225 101.25-225 225c0 78.75 39.375 149.063 101.25 188.438-157.5 50.625-270 199.687-270 374.062h56.25c0-185.625 151.875-337.5 337.5-337.5s337.5 151.875 337.5 337.5h56.25c0-174.375-112.5-323.438-270-374.063zM512 512c-92.813 0-168.75-75.938-168.75-168.75S419.188 174.5 512 174.5s168.75 75.938 168.75 168.75S604.812 512 512 512z"/></svg>