<?xml version="1.0" encoding="utf-8"?>
<!-- Generator: Adobe Illustrator 22.1.0, SVG Export Plug-In . SVG Version: 6.00 Build 0)  -->
<svg version="1.2" baseProfile="tiny" id="图层_1"
	 xmlns="http://www.w3.org/2000/svg" xmlns:xlink="http://www.w3.org/1999/xlink" x="0px" y="0px" viewBox="0 0 253.2 253.2"
	 xml:space="preserve">
<g>
	<g>
		<path fill="#7ECA37" d="M47.6,89.8c11.6,16.4,22.5,32,33.5,47.4c2.8,3.9,5.8,7.7,9.1,11.2c7,7.3,19.5,8.9,26.5,3.7
			c9.6-7.2,12.7-18.9,7-28.6c-4.7-8-10.5-15.4-15.3-23.3c-2.9-4.8-1.7-9.4,2.4-12.9c4.7-4,10.8-3.6,14.5,1.3
			c6.3,8.4,12.4,16.9,18.3,25.6c0.9,1.3,0.9,4.3,0,5.6c-6,8.3-5,16,1.1,23.7c4.2,5.3,8.1,10.9,12.1,16.5c2.3-1.2,4.2-2.2,6.4-3.3
			c5,6.6,9.9,13,14.9,19.8c1.9-1.5,3.5-2.7,5.3-4.2c-4.9-6.5-9.5-12.7-14.5-19.4c3.7-2.7,7.2-5.3,11.5-8.6
			c6.5,8.8,12.8,17.3,19.3,26.1c-11.6,8.5-22.8,16.7-34.1,24.9c-11.6,8.4-23.1,16.9-34.9,25c-3.7,2.5-8.2,4.5-12.6,5.4
			c-6.5,1.4-12.1-1.3-16.2-6.7c-11.9-16-23.9-32-35.6-48.2c-10.9-14.9-21.3-30.2-32.4-44.9c-7.2-9.5-5.3-18.7,1.8-26
			C38.9,96.2,43.1,93.4,47.6,89.8z"/>
		<path fill="#175F35" d="M155.1,110.8c-6.7-9.4-13.1-18.5-19.8-27.4c-6.1-8.2-16.6-11.6-25.1-8.4c-8.8,3.3-15.3,12.5-14.4,21.7
			c0.3,3.4,1.9,7,3.7,10c4,6.3,8.6,12.2,12.8,18.4c5,7.5,4.5,12.9-1.2,16.9c-5.5,3.9-11,2.6-16.1-4.5c-12.8-17.4-25.3-35-38.3-53
			c2.9-2.1,5.9-4.2,8.8-6.3c20.7-15,41.5-30,62.2-45.1c12.6-9.2,22.6-7.7,31.9,5c20.8,28.5,41.6,56.9,62.4,85.4
			c1.9,2.5,3.5,5.2,5.2,7.9c4,6.2,4.1,11.8-0.5,17.5c-5.9,7.3-13.6,12.5-22,17.4c-6.4-8.9-12.6-17.5-19-26.4c2.4-2,4.6-3.9,7.9-6.6
			c-6.2-7.8-12-16-18.9-23.2C170.4,105.9,163.5,106.8,155.1,110.8z"/>
	</g>
</g>
</svg>
