<svg version="1.1" id="图层_1" xmlns="http://www.w3.org/2000/svg" x="0" y="0" viewBox="0 0 1145.6 819.9" xml:space="preserve"><style>.st2{fill:#fff}.st6{fill:#5a5773}.st6,.st7{opacity:.1}.st10{fill:#c37098}.st11{fill:#3f3d56}</style><path d="M1127.4 551.2c-26.6 54.8-80.5 91.5-136.4 115.6-75.3 32.5-158.2 45.5-239.9 40-14.3-1-28.6-2.5-42.8-4.6-49.5-7.2-97.7-21.3-143.3-41.7-13.2-5.9-26.1-12.4-38.7-19.4-21.1-11.7-41.3-24.9-60.5-39.5-4.8-3.7-9.6-7.5-14.3-11.3-3.3-2.7-6.5-5.4-9.7-8.1-6.9-5.6-14-10.9-21.9-14.9-2.4-1.2-4.8-2.3-7.3-3.2-25.1-9.5-54-5.9-80.1 1.5-19.9 5.7-39.2 13.4-59.1 18.9-8.8 2.5-17.8 4.4-26.9 5.7-20.3 2.6-40.9.8-60.5-5.3l-1.7-.5c-2.8-.9-5.6-1.8-8.3-2.9l-1.7-.6c-2.7-1-5.3-2.1-7.8-3.3l-1.7-.8c-2.7-1.2-5.3-2.5-7.8-3.9l-2.7-1.5c-14.5-8.1-27.7-18.4-39.2-30.5-.3-.3-.6-.7-1-1-1.6-1.7-3.2-3.5-4.7-5.3-.6-.7-1.1-1.3-1.7-2-1.8-2.2-3.5-4.4-5.2-6.7-.3-.3-.5-.7-.7-1-6.8-9.4-12.5-19.7-16.9-30.5-.1-.3-.3-.7-.4-1-1.3-3.4-2.6-6.9-3.7-10.5-.4-1.5-.9-3-1.3-4.5-.1-.4-.3-.9-.4-1.3-5.5-21.7-6.2-44.3-6.2-66.8v-7.9c.2-36.3.7-73.3 6.1-109.1 0-.3.1-.5.1-.7 1.8-12.1 4.2-24 7.3-35.8 3.2-12.4 7.3-24.5 12.3-36.3 12.3-29 30.3-55.4 50.2-79.8C199.4 79.1 265.1 27.5 342.1 8.1c82.9-20.8 175.1-.9 242.1 52.4 20.4 16.2 38.7 35.5 61.6 47.9 20 10.8 43.4 15.3 64.8 6.8 17.7-7.1 29.2-10.6 49.1-9.5 41.2 2.3 81.7 10.8 120.4 25.2 1.6.6 3.1 1.2 4.7 1.8C985.5 171.2 1072 247.8 1117 346.2c1.2 2.6 2.3 5.2 3.5 7.9 26.8 62.6 36.5 136 6.9 197.1zM120.3 714.6c48.8 0 88.3 6.3 88.3 14.2S169.1 743 120.3 743 32 736.6 32 728.8s39.5-14.2 88.3-14.2zm792 74.9c86.4 0 156.5 6.8 156.5 15.2s-70.1 15.2-156.5 15.2-156.5-6.8-156.5-15.2 70-15.2 156.5-15.2z" opacity=".1"/><linearGradient id="SVGID_1_" gradientUnits="userSpaceOnUse" x1="591.305" y1="173.92" x2="591.305" y2="712.25" gradientTransform="matrix(1 0 0 -1 0 820)"><stop offset="0" stop-color="gray" stop-opacity=".25"/><stop offset=".54" stop-color="gray" stop-opacity=".12"/><stop offset="1" stop-color="gray" stop-opacity=".1"/></linearGradient><path d="M128.6 107.8H1054c6.9 0 12.5 5.6 12.5 12.5v513.4c0 6.9-5.6 12.5-12.5 12.5H128.6c-6.9 0-12.5-5.6-12.5-12.5V120.2c0-6.9 5.6-12.4 12.5-12.4z" fill="url(#SVGID_1_)"/><path class="st2" d="M130.1 115.3h922.4c6.9 0 12.5 5.6 12.5 12.5v504c0 6.9-5.6 12.5-12.5 12.5H130.1c-6.9 0-12.5-5.6-12.5-12.5v-504c.1-6.9 5.6-12.5 12.5-12.5z"/><path class="st2" d="M130.1 115.3h922.4c6.9 0 12.5 5.6 12.5 12.5v504c0 6.9-5.6 12.5-12.5 12.5H130.1c-6.9 0-12.5-5.6-12.5-12.5v-504c.1-6.9 5.6-12.5 12.5-12.5z"/><path d="M130.1 115.3h922.4c6.9 0 12.5 5.6 12.5 12.5v504c0 6.9-5.6 12.5-12.5 12.5H130.1c-6.9 0-12.5-5.6-12.5-12.5v-504c.1-6.9 5.6-12.5 12.5-12.5z" opacity=".04" fill="#fff"/><path d="M1060.3 109.3H122.5c-2.7 0-4.8 2.2-4.8 4.8v20.3H1065v-20.3c0-2.7-2.1-4.8-4.7-4.8z" fill="#5a5773"/><circle class="st2" cx="136.6" cy="121.8" r="6.5"/><circle class="st2" cx="154.1" cy="121.8" r="6.5"/><circle class="st2" cx="171.6" cy="121.8" r="6.5"/><path d="M195.7 181.7H450v21.6H195.7v-21.6z" opacity=".2"/><path class="st6" d="M195.7 268.2H987v332H195.7v-332z"/><path class="st7" d="M659 289.9h-13.5v-26.3c0-29.7-23.7-54.4-53.4-54.8-30-.3-54.5 23.7-54.8 53.7v27.4h-13.5c-12.4 0-22.5 10.1-22.5 22.5v108.2c0 12.4 10.1 22.5 22.5 22.5H659c12.4 0 22.5-10.1 22.5-22.5V312.4c0-12.4-10-22.5-22.5-22.5zm-59.7 70.3V399c0 4.3-3.3 7.8-7.5 8.1-4.4.2-8.1-3.2-8.3-7.5v-39.4c-8.9-4.4-12.6-15.1-8.3-24.1 4.4-8.9 15.1-12.6 24.1-8.3s12.6 15.1 8.3 24.1c-1.8 3.6-4.7 6.5-8.3 8.3zm30.4-70.3H553v-27.1c0-21.2 17.2-38.3 38.3-38.3s38.3 17.2 38.3 38.3l.1 27.1z"/><path class="st8" d="M659 287.9h-13.5v-26.3c0-29.7-23.7-54.4-53.4-54.8-30-.3-54.5 23.7-54.8 53.7v27.4h-13.5c-12.4 0-22.5 10.1-22.5 22.5v108.2c0 12.4 10.1 22.5 22.5 22.5H659c12.4 0 22.5-10.1 22.5-22.5V310.4c0-12.4-10-22.5-22.5-22.5zm-59.7 70.3V397c0 4.3-3.3 7.8-7.5 8.1-4.4.2-8.1-3.2-8.3-7.5v-39.4c-8.9-4.4-12.6-15.1-8.3-24.1 4.4-8.9 15.1-12.6 24.1-8.3s12.6 15.1 8.3 24.1c-1.8 3.6-4.7 6.5-8.3 8.3zm30.4-70.3H553v-27.1c0-21.2 17.2-38.3 38.3-38.3s38.3 17.2 38.3 38.3l.1 27.1z"/><path class="st6" d="M906.9 236.3H987v18.9h-80.1v-18.9z"/><linearGradient id="SVGID_2_" gradientUnits="userSpaceOnUse" x1="944.341" y1="-34.625" x2="944.341" y2="530.72" gradientTransform="matrix(1 0 0 -1 -26.97 779.96)"><stop offset="0" stop-color="gray" stop-opacity=".25"/><stop offset=".54" stop-color="gray" stop-opacity=".12"/><stop offset="1" stop-color="gray" stop-opacity=".1"/></linearGradient><path d="M1014.3 809.3c-.5-2.7-1.4-5.2-2.7-7.6l-12-17.9h.1s-1.9-9 0-13.4-6.7-15.3-6.7-15.3-1-2.7 1.7-6.1c2.7-3.4-1.7-13.2-1.7-13.2s-2.1-20.5-2.3-23.7-1.9-20.5-1.9-20.5l-4-36.9-7.1-97.8-.1-1.8c.9-.4 1.3-.7 1.3-.7l-1.4-54.1 1.2-1.1c10.7-9.7 35.5-32.2 35.3-32.7s-3-37.6-3.3-46.9c-.3-6.6-1.7-13.1-4.3-19.2-.6-1.2-2.4-9.3-3.2-12.8-.2-.9-.3-1.5-.3-1.5s-7.3-13.8-6.6-20.1 1.9-11-13.6-13.2c0 0-13-1.9-20.7-7.2-4.6-3.2-9.6-5.7-14.9-7.4 0 0-4.3-8-7.4-5.3-1.3-2.9-2.2-5.8-2.8-8.9l-.1-.6c5.7-4 9.9-9.9 11.6-16.7.1-.4.2-.8.3-1.1.3.1.6.2.9.2 2.6 0 4.3-2.9 6.7-3.9 1-.4 2.2-.5 3-1.2.5-.6.8-1.4.7-2.2v-1.1.1c-.7-3.6-3.5-6.9-3.2-10.6.3-3.5 3.4-6.5 3.1-9.9 0-.3 0-.5-.1-.8v.1a9.4 9.4 0 0 0-2-3.5c-1.1-1.5-2.5-2.7-4.1-3.5-1.4-.6-3-.8-4.3-1.5-3.8-2.1-3.8-7.5-6.1-11.2-2-3.1-5.6-4.9-9.3-4.6-2.8.3-5.4 1.8-8.2 2.3-3.8.7-7.8-.6-11.4-2s-7.3-3-11.2-3-8.1 2-9.3 5.7c-.6 2-.3 4.1-.8 6.2-.9 3.6-4 6.1-7.3 7.9-2 1.1-4.4 2.4-5 4.5v-.2c0 .2-.1.3-.1.5v.7c0 1.4.8 2.8 1.3 4.2 1 2.6.9 5.5-.1 8.1-.7 1.9-2 3.6-2.7 5.5-.3.9-.6 1.8-.7 2.7v-.2 1.3c0 1.5.3 2.9 1 4.2.9 1.8 2.5 3.2 4.5 3.8 2 .5 3.3-1.5 5.4-1 .4.1.7.2 1.1.4.1.5.1.9.2 1.3 1.3 6.7 4.9 12.8 10.1 17.2 0 .2.1.5.1.7.6 4 .9 8 .8 12.1 0 0-3.2-4.6-7.5 4.3 0 0-11.3 6.5-15.2 7.2s-17.7 5.5-17.7 5.5c-2.1 1.5-4.6 2.3-7.2 2.3-4.3 0-7.9 9.4-7.4 14.6s-.3 8.9-4.3 9.1-1.8 8.3-1.8 8.5l-.4 1.8c-.8 3.6-2.5 11.3-3.1 12.5-2.5 6.1-4 12.6-4.3 19.2-.3 9.3-3 46.2-3.3 46.9-.2.4 16.8 15.9 28.7 26.8l1.7 1.6-5.5 51.3c.3 4 2.4 7.7 5.6 10 0 .6 0 1.2-.1 1.8-.2 6-.7 13.3-1.7 15.2-1.7 3.4-1.3 21.4-1.3 21.4s-1.7 36.7-3.8 40.7-2.5 12.4-1.9 14-2.1 45.7-2.1 45.7L847 715s.6 18.9-1.3 19.3-3 13.4-3 13.4-6.7 9.2-3.8 12.6-.4 4.8-.7 5.7-6.4 4-2 15.7c0 .1.1.2.1.3-4.1 5.8-17.3 24.3-16.5 27.1.6 1.8 1.8 3.3 3.5 4.2 3.1 1.8 8.4 2.7 16.8 0 14-4.5 13-7.8 13-7.8.1-3.2 2.7-5.6 5.9-5.7 5.8-.4 10.1-5.8 10.1-5.8l-.7-2.5-.9-3.5c.1-1 .8-2.8 4-3.7 4.8-1.5 3.6-10.7 3.6-10.7s-.4-9.6 1.7-10.9 1.3-17.2 1.3-17.2 2.3-11.5 5.7-19.3 7.4-53.9 7.4-53.9 2.7-22.6 5.3-29.1 4.8-24.7 4.8-24.7 15.6-30.2 15.8-36.9c0 0 2-6.3 4 .6s7.6 23.5 7.6 23.5l5.5 20.3 6.5 30.4 4.2 25.6s-.6 9.6 1 13 4 11.1 2.7 12.6 2.5 8.4 3.6 9.8 0 32.5 0 32.5 4.8 26.4 11.8 31c.5.3 1 .6 1.5.8-.1 2.9-.2 6.7-.1 8.7 0 .4.1.9.2 1.3.6.8 7.8 6.5 9.3 6.5s6.7 3.7 7 5.5 15.4 9.3 17.5 9.5 12.6 2.1 14-.8c1-1.3 1.1-2.2.9-3.1zM977 431.6l1.1.9s1.1 8.6 1.9 11.2-.2 7.6-.2 7.6c.1 1.9.4 3.7 1.1 5.5.9 1.9-1.9 6-1.9 6h-2.5l-.8-32.4 1.3 1.2zm-75.2-96.7v-.2.2zM863 459.5c-.4-.8-.4-1.8-.2-2.7.2-.5.4-1 .5-1.5.3-1.3.5-2.7.6-4-.1-.5-.9-5.1-.2-7.6s1.9-11.2 1.9-11.2l.7-.6 1.7-1.5s0-.5.1-1.4c.3 7.6.6 16 .2 16.4-.8.8-3.9 9-3.2 9.3.2.1-.1 3.4-.7 7.8-.5-.9-1-1.9-1.4-3z" fill="url(#SVGID_2_)"/><path class="st10" d="M943.5 342.9v12.4L918 368.1s-25.3-15.3-19.1-21.4c4-3.9 3.2-14.5 2.2-21.8-.6-4.2-1.4-7.4-1.4-7.4s45.5-13 38.6-3.1c-2.3 3.3-2.5 7.6-1.7 11.8 1.6 8.5 6.9 16.7 6.9 16.7z"/><path class="st11" d="M873.6 464.5l-3.3 40.5s-4.9-4.5-11.3-10.3c-11.8-10.8-28.6-26.2-28.4-26.6.3-.6 3-37.4 3.3-46.6.3-6.6 1.7-13 4.2-19.1.6-1.2 2.3-8.8 3-12.4.2-1.1.4-1.8.4-1.8l5.5-2.2s23 25.7 23 26.1-1.6 20.2-1.6 20.2l-1.6 1.4-.7.6s-1.1 8.6-1.9 11.2.1 7.1.2 7.5c-.1 1.3-.3 2.7-.6 4-.1.5-.3 1-.5 1.5-.3.9-.2 1.8.2 2.7.4 1.2 1 2.3 1.7 3.3h8.4zm139.4 3.6c.2.5-24.3 22.9-34.9 32.5l-4.8 4.4-3.3-40.5h8.5s2.8-4.1 1.9-6c-.7-1.8-1-3.6-1.1-5.5 0 0 .9-5 .2-7.6s-1.9-11.2-1.9-11.2l-1.1-.9-1.3-1.1s-1.6-19.7-1.6-20.2 23-26.1 23-26.1l5.5 2.2s.1.6.3 1.5c.7 3.4 2.5 11.5 3.1 12.7 2.5 6.1 3.9 12.5 4.2 19.1.3 9.3 3 46.1 3.3 46.7zm.1 344c-1.5 2.9-11.8 1-13.9.8s-17.2-7.7-17.4-9.5-5.4-5.4-6.9-5.4-8.5-5.6-9.2-6.5c-.2-.4-.2-.9-.2-1.3-.2-3.4.2-12.3.2-12.3l30.3 1.7 14.7 22.1c1.2 2.4 2.1 4.9 2.7 7.6.2.9.1 1.9-.3 2.8z"/><path class="st7" d="M1013.1 812.1c-1.5 2.9-11.8 1-13.9.8s-17.2-7.7-17.4-9.5-5.4-5.4-6.9-5.4-8.5-5.6-9.2-6.5c-.2-.4-.2-.9-.2-1.3-.2-3.4.2-12.3.2-12.3l30.3 1.7 14.7 22.1c1.2 2.4 2.1 4.9 2.7 7.6.2.9.1 1.9-.3 2.8z"/><path class="st7" d="M1013.1 812.1c-1.5 2.9-11.8 1-13.9.8s-17.2-7.7-17.4-9.5-5.4-5.4-6.9-5.4-8.5-5.6-9.2-6.5c-.2-.4-.2-.9-.2-1.3l9.8 6.2s6.3 4 7.9 6.4 14.8 7.3 15.9 7.4c.8.1 9.5-1.6 14.2-.9.3.9.2 1.9-.2 2.8z"/><path class="st11" d="M870.1 793.8s-4.3 5.3-10 5.7c-3.1 0-5.7 2.5-5.8 5.6 0 0 1 3.2-12.8 7.7-8.3 2.7-13.6 1.8-16.7 0-1.6-.9-2.9-2.4-3.5-4.2-.9-3.3 17.5-28.7 17.5-28.7l16.8-1 12 5.4 1.8 6.9.7 2.6z"/><path class="st7" d="M870.1 793.8s-4.3 5.3-10 5.7c-3.1 0-5.7 2.5-5.8 5.6 0 0 1 3.2-12.8 7.7-8.3 2.7-13.6 1.8-16.7 0-1.6-.9-2.9-2.4-3.5-4.2-.9-3.3 17.5-28.7 17.5-28.7l16.8-1 12 5.4 1.8 6.9.7 2.6z"/><path class="st8" d="M870.1 793.8s-4.3 5.3-10 5.7c-3.1 0-5.7 2.5-5.8 5.6 0 0 1 3.2-12.8 7.7-8.3 2.7-13.6 1.8-16.7 0 7.9-.8 25.3-5.8 27-7.5 2.1-2.1 4.7-7.8 6.5-7.9 1.2-.1 7.5-3.8 11.2-6.2l.6 2.6z"/><path class="st7" d="M870.1 793.8s-4.3 5.3-10 5.7c-3.1 0-5.7 2.5-5.8 5.6 0 0 1 3.2-12.8 7.7-8.3 2.7-13.6 1.8-16.7 0 7.9-.8 25.3-5.8 27-7.5 2.1-2.1 4.7-7.8 6.5-7.9 1.2-.1 7.5-3.8 11.2-6.2l.6 2.6z"/><path class="st11" d="M998.9 770.6c-1.9 4.4 0 13.3 0 13.3s-28 1.5-34.8-3.1-11.7-30.9-11.7-30.9 1-30.9 0-32.3-4.8-8.3-3.5-9.8-1-9.2-2.7-12.5-1-12.9-1-12.9l-4.2-25.5-6.5-30.2-5.5-20.2s-5.6-16.5-7.5-23.4-3.9-.6-3.9-.6c-.2 6.7-15.6 36.7-15.6 36.7s-2.3 18.2-4.8 24.6-5.2 29-5.2 29-4 45.9-7.3 53.6-5.6 19.2-5.6 19.2.8 15.9-1.3 17.1-1.8 10.8-1.8 10.8 1.3 9.2-3.5 10.6-4 4.6-4 4.6-26.7 4.4-31.1-7.3 1.7-14.8 2-15.6 3.7-2.3.7-5.6 3.8-12.5 3.8-12.5 1-12.9 2.9-13.3 1.3-19.2 1.3-19.2l2.1-19.6s2.7-43.8 2.1-45.5-.2-10 1.9-14 3.8-40.5 3.8-40.5-.4-17.9 1.3-21.3c1-1.9 1.4-9.2 1.7-15.1.2-4.5.2-8.3.2-8.3l23.4-8.8 30-9.6 25.2 12.1 36.9 7.1.5 6.4 7 97.3 4 36.7s1.7 17.3 1.9 20.4 2.3 23.6 2.3 23.6 4.4 9.8 1.7 13.1-1.7 6-1.7 6 8.4 11 6.5 15.4z"/><path class="st7" d="M938.4 314.5c-2.3 3.3-2.5 7.6-1.7 11.8-10.8 7.6-25.4 7.1-35.6-1.3-.6-4.2-1.4-7.4-1.4-7.4s45.6-13 38.7-3.1z"/><path class="st10" d="M949 301.7c0 16.2-13.1 29.3-29.3 29.3s-29.3-13.1-29.3-29.3 13.1-29.3 29.3-29.3c16.1-.1 29.2 12.9 29.3 29v.3z"/><path class="st8" d="M955.1 351.7l-9.6 170.9-52.2-11-10.3-68.5 10.2-92 7.7 1 13.6 1.7 13.5.8 14.6-1.6 12.5-1.3z"/><path class="st11" d="M912.3 356.3l18.8.6-5.3 7.4s.4 14.9 2.9 19.2 1.8 70.4 1.8 70.4l-5 9.5-8.5-10.6.1-87.3-4.8-9.2z"/><path class="st7" d="M912.3 356.3l18.8.6-5.3 7.4s.4 14.9 2.9 19.2 1.8 70.4 1.8 70.4l-5 9.5-8.5-10.6.1-87.3-4.8-9.2z"/><path class="st7" d="M941.7 336.9l-17.5 19.4 10 10.4 16.6-16.2-9.1-13.6zm-24.9 18.4L899 337.6l-1.7 9.3 8.1 20.3 11.4-11.9z"/><path class="st8" d="M941.7 335.6L924.1 355l10 10.4 16.6-16.2-9-13.6zm-24.3 18.5l-17.7-17.7-1.7 9.3 8.1 20.3 11.3-11.9z"/><path class="st7" d="M977.1 558.1c-8.5 4.1-17.6 6.7-27 7.8-17.2 2.2-28.5-19.7-28.5-19.7l-6.6 8.5c-2.1 9.1-33.9 11.4-46.8 7.9-2.7-.7-5.2-1.9-7.4-3.5.2-4.5.2-8.3.2-8.3l23.4-8.8 30-9.6 25.2 12.1 36.9 7.1.6 6.5zm-22-206.4l-9.6 170.9-52.2-11-10.3-68.5 10.2-92 7.7 1c-.2 3.4-.6 6.7-1.1 10-1.3 5.9 6.5 47.4 6.5 47.4s14.7 46.5 21.3 39.8 16-42.1 16-42.1c6.4-13.1.1-50-.4-50.7-.3-1.1-.5-2.2-.6-3.4l12.5-1.4zM977.7 484l.4 16.8-4.8 4.4-3.3-40.5h7.2l.5 19.3zm-113.3-30.9c-.1 1.3-.3 2.7-.6 4 0-.4 0-.6-.1-.6-.2-.1.1-1.7.7-3.4zm9.2 11.4l-3.3 40.5s-4.9-4.5-11.3-10.3l.8-7.2s2.7-17.6 3.7-26.3c.4 1.2 1 2.3 1.7 3.3h8.4z"/><path class="st11" d="M901.9 337s-3.1-4.6-7.4 4.3c0 0-11.2 6.5-15 7.2S862 354 862 354c-2.1 1.5-4.5 2.3-7.1 2.3-4.3 0-7.8 9.4-7.3 14.5s-.3 8.9-4.3 9.1-1.8 8.4-1.8 8.4l26.4 30.3s1.7 27.9.8 28.7-3.9 9-3.1 9.3-4 31.1-4 31.1l-6.4 59.8s0 10 12.9 13.5 44.8 1.2 46.8-7.9l6.6-8.6s11.3 21.9 28.5 19.7 28.2-8.5 28.2-8.5l-1.9-71.6-1.3-51.6 26.9-44.1s-7.2-13.8-6.6-20 1.9-11-13.5-13.1c0 0-12.9-1.9-20.5-7.2-4.5-3.1-9.5-5.6-14.7-7.4 0 0-4.3-8-7.3-5.3 0 0 3 11.3 2.8 13s.5 9.3.9 10.1 6.7 37.6.4 50.7c0 0-9.3 35.4-16 42.1s-21.3-39.8-21.3-39.8-7.7-41.5-6.5-47.4 2.3-27.1 2.3-27.1z"/><circle class="st11" cx="924.3" cy="469.1" r="4.6"/><circle class="st11" cx="924.3" cy="490.8" r="4.6"/><circle class="st7" cx="924.3" cy="469.1" r="4.6"/><circle class="st7" cx="924.3" cy="490.8" r="4.6"/><path d="M965.5 764.3s18.8 1.5 20.7 2.9-20.7-2.9-20.7-2.9zm-112.2-14.8s4 5 2.3 7.3-2.3-7.3-2.3-7.3zm4.8 18s7.3-4.8 10.2-1.6-10.2 1.6-10.2 1.6z" opacity=".1" stroke="tomato" stroke-miterlimit="10"/><path class="st7" d="M949 301.7c0 2.5-.3 5-.9 7.4-1.3-.6-2-1.9-1.9-3.3.1-1.2.9-2.3.8-3.5-.3-1.8-2.5-2.6-3.6-4-1.4-1.7-1.1-4.3-1-6.5s-.5-5-2.6-5.8c-.6-.2-1.3-.3-1.9-.5-1.7-.7-2.2-2.8-3.3-4.2-2.2-2.9-6.6-2.8-10-1.4-1.5.7-3 1.3-4.5 1.9-1.5.5-3.3.4-4.7-.4-.7-.4-1.2-1-1.9-1.4-2.3-1.4-5.2 0-7.2 1.8s-3.5 4.1-6 5.2c-1.1.5-2.5.8-3 1.9-.3.6-.4 1.2-.3 1.9 0 3.9.5 7.8-.3 11.6-.5 2.5-2.2 5.2-4.7 4.9-.3 0-.6-.1-.9-.2-3-15.9 7.5-31.2 23.4-34.2 15.9-3 31.2 7.5 34.2 23.4.2 1.8.3 3.6.3 5.4z"/><path class="st11" d="M889.6 305.5c.8.2 1.5.6 2.2.7 2.5.3 4.2-2.5 4.7-4.9.8-3.8.4-7.8.4-11.6-.1-.6.1-1.3.3-1.9.6-1.1 1.9-1.4 3-1.9 2.4-1.1 4-3.4 6-5.2s4.9-3.1 7.2-1.8c.7.4 1.2 1 1.9 1.4 1.5.8 3.2.9 4.7.4s3-1.3 4.5-1.9c3.3-1.4 7.8-1.4 10 1.4 1.1 1.4 1.6 3.5 3.3 4.2.6.3 1.3.3 1.9.5 2.1.8 2.7 3.5 2.6 5.8s-.4 4.8 1 6.5c1.2 1.4 3.4 2.2 3.6 4 .2 1.2-.6 2.3-.8 3.5-.1 1.8 1.3 3.4 3.1 3.5 2.6 0 4.2-2.9 6.6-3.8 1-.4 2.2-.5 3-1.2.6-.8.8-1.8.6-2.7-.5-3.8-3.6-7.2-3.2-11 .3-3.7 3.7-6.9 3-10.5-.4-1.3-1.1-2.6-2-3.6-1.1-1.5-2.5-2.6-4.1-3.5-1.4-.6-3-.7-4.3-1.5-3.8-2.1-3.8-7.5-6-11.1-2-3.1-5.5-4.9-9.1-4.5-2.8.3-5.4 1.8-8.1 2.3-3.8.7-7.7-.6-11.3-2s-7.3-3-11.1-3-8.1 2-9.2 5.7c-.6 2-.3 4.1-.8 6.1-.8 3.6-4 6.1-7.2 7.9-2.2 1.2-4.8 2.6-5.1 5.1-.2 1.6.7 3 1.3 4.5.9 2.6.9 5.4-.1 8-.7 1.9-2 3.5-2.7 5.4-1.1 2.6-1 5.5.3 8 .9 1.8 2.6 3.2 4.6 3.8 2 .4 3.2-1.6 5.3-1.1z"/><path d="M896.6 299c-.5 2.5-2.3 5.2-4.7 4.9-.8-.1-1.5-.5-2.2-.7-2.1-.5-3.3 1.5-5.3 1-2-.6-3.6-1.9-4.6-3.8-.5-1-.8-2.1-.9-3.3-.2 1.8.1 3.6.9 5.1.9 1.8 2.6 3.2 4.6 3.8 2 .5 3.2-1.5 5.3-1 .7.3 1.5.5 2.2.6 2.5.3 4.2-2.5 4.7-4.9.4-2.2.6-4.4.5-6.6 0 1.8-.2 3.4-.5 4.9zm-13.7-15c.1-1.6-.1-3.3-.7-4.8-.5-1-.8-2.1-1.2-3.2 0 .2-.1.3-.1.5-.2 1.6.7 3 1.3 4.5.4 1 .6 2 .7 3zm76.4-5.3c-.5 2.8-2.8 5.5-3 8.5-.1.5-.1 1 0 1.5.5-3.5 3.6-6.5 3-10zm.2 21.1c-.1.4-.3.8-.6 1.1-.7.8-2 .9-3 1.2-2.4.9-4 3.9-6.6 3.8-1.4-.1-2.6-1-3-2.3-.1.2-.1.4-.1.7-.1 1.8 1.3 3.4 3.1 3.5 2.6 0 4.2-2.9 6.6-3.8 1-.4 2.2-.5 3-1.2.6-.8.8-1.8.6-2.7v-.3zm-12.6-.8c-.3-1.8-2.5-2.6-3.6-4-.7-.9-1.1-2.1-1.1-3.3-.1 1.9 0 3.8 1.1 5.2s2.9 2 3.5 3.4c.1-.4.2-.9.1-1.3zm-4.6-10.5c.1-2.3-.5-5-2.6-5.8-.6-.2-1.3-.3-1.9-.5-1.7-.7-2.2-2.8-3.3-4.2-2.2-2.9-6.6-2.8-10-1.4-1.5.6-2.9 1.4-4.5 1.9-1.5.5-3.3.4-4.7-.4-.7-.4-1.2-1-1.9-1.4-2.3-1.4-5.2 0-7.2 1.8s-3.5 4.1-6 5.2c-1.1.5-2.5.8-3.1 1.9-.3.6-.4 1.2-.3 1.9v1.2c0-.4.1-.8.3-1.2.6-1.1 1.9-1.4 3.1-1.9 2.4-1.1 4-3.4 6-5.2s4.9-3.1 7.2-1.8c.7.4 1.2 1 1.9 1.4 1.5.8 3.2.9 4.7.4s3-1.2 4.5-1.9c3.3-1.4 7.8-1.4 10 1.4 1.1 1.4 1.6 3.5 3.3 4.2.6.3 1.3.3 1.9.5 1.7.6 2.4 2.6 2.5 4.5l.1-.6z"/><g opacity=".1"><path d="M893 299c.1-3.4 2.5-6.3 5.8-7.2 4.5-1.1 9.1-.9 13.5.6 9.5 3.1-1.2 14.4-1.2 14.4s-7.1 7-13.7 2.1c-2-1.5-3.3-3.6-3.9-6-.3-1.3-.5-2.6-.5-3.9zm52.2 0c-.1-3.4-2.5-6.3-5.8-7.2-4.5-1.1-9.1-.9-13.5.6-9.5 3.1 1.2 14.4 1.2 14.4s7.1 7 13.7 2.1c2-1.5 3.3-3.6 3.9-6 .4-1.3.5-2.6.5-3.9z"/><path d="M910.5 291.5v.5h17.3v-.6l-17.3.1zm5.5 5h.5v-1.6s1.8-1.4 4.7 0v1.4h1v-.9h-.5s.2-1.9-3.1-1.6c0 0-2.6-.3-2.6 1.4h-.6l.6 1.3z"/></g><path class="st8" d="M893 298.3c.1-3.4 2.5-6.3 5.8-7.2 4.5-1.1 9.1-.9 13.5.6 9.5 3.1-1.2 14.4-1.2 14.4s-7.1 7-13.7 2.1c-2-1.5-3.3-3.6-3.9-6a16 16 0 0 1-.5-3.9zm52.2 0c-.1-3.4-2.5-6.3-5.8-7.2-4.5-1.1-9.1-.9-13.5.6-9.5 3.1 1.2 14.4 1.2 14.4s7.1 7 13.7 2.1c2-1.5 3.3-3.6 3.9-6 .4-1.2.5-2.5.5-3.9zm-34.7-7.4v.5h17.3v-.6l-17.3.1zm5.5 5h.5v-1.6s1.8-1.4 4.7 0v1.4h1v-.9h-.5s.2-1.9-3.1-1.6c0 0-2.6-.2-2.6 1.4h-.6l.6 1.3z"/><path d="M117.5 457.2h5.7v127.9h-5.7V457.2z" fill="#535461"/><path class="st11" d="M158.8 584.7l-.4 5.8-.5 8.1-.2 3.4-.5 8.1-.2 3.4-.5 8.1-5.7 92.5c-.5 8.3-7.4 14.7-15.6 14.7h-29.8c-8.3 0-15.1-6.4-15.6-14.7L84 621.6l-.5-8.1-.2-3.4-.5-8.2-.2-3.4-.5-8.1-.4-5.8c-.3-4.5 3.1-8.3 7.6-8.6h61.4c4.5 0 8.1 3.6 8.1 8.1.1.2.1.4 0 .6z"/><path d="M158.5 590.5l-.5 8.1H82.6l-.5-8.1h76.4zm-.7 11.5l-.5 8.1h-74l-.5-8.1h75zm-.7 11.5l-.5 8.1H84.1l-.5-8.1h73.5z" fill="#9d9cb5"/><path class="st8" d="M73.4 505.1c33.1 23.9 46.9 61.4 46.9 61.4s-39.9-1.4-73-25.3S.4 479.8.4 479.8s39.9 1.4 73 25.3zM94.8 457c18 13 25.5 33.4 25.5 33.4s-21.7-.7-39.7-13.8-25.5-33.4-25.5-33.4 21.7.7 39.7 13.8zm51.7 32.3c-20.7 22.7-25.1 52.4-25.1 52.4s29.2-7.2 49.8-29.9 25.1-52.4 25.1-52.4-29.2 7.1-49.8 29.9z"/><path d="M.5 479.8s41.4 23 54.7 42c13.3 19 65.2 44.7 65.2 44.7M55.1 443.1s22.5 12.5 29.7 22.9 35.5 24.3 35.5 24.3m76-30.9s-26.9 23.3-33.8 39.4-41.1 43-41.1 43" stroke="#535461" stroke-width="2" stroke-miterlimit="10"/></svg>