<svg xmlns="http://www.w3.org/2000/svg" viewBox="0 0 1060 664.1"><ellipse fill="none" stroke="#444053" stroke-miterlimit="10" cx="811.5" cy="568.1" rx="119.5" ry="24"/><linearGradient id="a" gradientUnits="userSpaceOnUse" x1="1007.538" y1="-49.971" x2="1007.538" y2="250.481" gradientTransform="rotate(180 708.09 272.835)"><stop offset="0" stop-color="gray" stop-opacity=".25"/><stop offset=".54" stop-color="gray" stop-opacity=".12"/><stop offset="1" stop-color="gray" stop-opacity=".1"/></linearGradient><path fill="url(#a)" d="M360.5 376.9c.4.9.7 1.8 1.2 2.6v.1s5.7 20.9 8.3 25.3c.8 1.3 1.6 2.7 2.5 4-.2 1-.2 2 0 3 .8 4.7 1.8 11.1 1.3 12.5s.5 4.9-1 6.1-3.1 3.3 1.6 6.2c0 0 .9 2.4.1 2.9-.1.1 0 .2.2.4-1.3 3.8-3.2 10-2 10.4.6.3 2.4-.7 4.3-1.9 0 .3.1.5.1.8.3 2.1.8 4.1 1.4 6.1.9 1.9 1.7 5.1 1.3 6.2s1.3 3.4.9 4.3 1.3 4 1.3 4 1.7 5.9 1.6 7.8 1.9 14.8 1.9 14.8-2 6.6-1 8.5 1.6 8.5 0 10.9c-1.6 2.4-3.7 7.8-3 9.3s-.9 19.4 3.1 26.8c.5 2.7.9 5.5 1.1 8.3 0 2 3.2 7.3 3.2 7.3s-1.9 8 2.8 9.3c.3.1.7.2 1 .2.1.9 0 1.8-.3 2.6-.8 1.1-1.4 2.4-1.7 3.7-.1.3 0 .5.1.8.5.6 2 8.5 2 8.5s2.1 8.9 13.8 6.7c0 0 7.9-.5 7.2-3.2-.2-.9-.5-1.8-.9-2.7-.3-.6-.5-1.1-.7-1.7-.1-.7-1.8-2.5-1.9-3.8s-1.2-3.7-1-4.5-1.8-6.5-1.9-7.7c-.2-.9-.4-1.7-.8-2.6l.4-.2s1.1-5.9.1-8.1-4.6-5-4.6-5 .5-14.6-.1-16.5.3-9.5.3-9.5 2.3-10.6 2.1-13c-.1-1.5.1-3 .7-4.3 0 0 1.4-15.6 2.3-17.6s2-21.3 2-21.3l.6 1.8c.9 2.7 1.9 5.3 3.1 7.8.5.8 2 3.4 3.3 5.5l1.9 3.2s.9 3.1.3 5 6.2 12.2 6.2 12.2c-.4.9-.7 1.8-.7 2.8.2 1-2.1 4.1-2.1 4.1s-.9 2.8-.3 3.8-.9 6.8-.9 6.8-2.3 12.9-2.8 14.4.3 11.9.3 11.9-4.2 10.7-2.2 14.2c.1 1.3.1 3.3-.4 4.1-.7 1.1-.5 5.1-.4 6.2v.3s-2.3 3 .6 4.2 12.5 2.1 12.5 2.1 9.2 2.6 13.6 3.4 13.7.5 14.4-2.2c.2-.8.3-1.7.2-2.6-.1-1.1-.8-2.1-1.8-2.6-2.7-1.1-5.5-2-8.4-2.8 0 0-4.4-1-4.8-2.9s-6.6-7.2-6.6-7.2-.1-.4-.2-.9h.2l-.3-.3c-.3-1-.8-2.3-1.4-2.1-.4-.7-.1-1.6.6-2h.1c2.4-1.3 3.9-5.5 3.2-9.9s-.8-3.7.6-6.3c.9-1.9 1.2-4.1 1-6.2l3.7-13.7c.6-1.7.9-3.4 1.1-5.2.1-1.4.4-2.8 1.1-4 0 0 1.7-9.5 3.1-11.7s-1-9.8-1-9.8-2.3-11.8-2.1-17.3-5.8-24.2-5.8-24.2c-.8-1.2-1.1-2.7-.9-4.1.1-1.1-.6-2.9-1.4-4.6l-.3-.5c.3-.4.7-.7 1.1-1 1.6-1 2.4-3.6 2.4-5.5l-22.6-53.3c0-.2 10.5-21.5 10.4-21.7-.6-3.5-6.5-12.8-6.5-12.8-.1-.1-.1-.2-.3-.3-1.3-.6-5.8-3.2-5.8-3.2-3.5-4.4-6.8-5.3-9-5.2-.7 0-1.4.1-2 .3-.2.1-.5.2-.7.3l-.1.9c-.2-2 0-4 .5-6 0-.2.1-.4.1-.5h1c8.9 0 16.1-7.2 16.2-16.1 0-1.5-.2-3-.6-4.5l-.1-.2.5-.2c2-.7 4.5.5 6.1-.8.6-.6 1-1.3 1.2-2.1.4-1.1.7-2.2.9-3.4V308c0-.1 0 0 0 0-.1-.7-.4-1.4-.9-2-1.1-1.2-2.8-1.5-4.2-2.5-1.1-.8-2-1.9-2.7-3.1-.7-1.2-1.5-2.3-2.6-3.2-1.1-.9-2.6-1.1-3.9-.6-.4.3-.8.5-1.3.6-.5 0-1-.1-1.4-.4-4.6-2.1-10-1.8-15-1.1-2 .2-4 .6-5.9 1.4-1.9.8-3.4 2.4-4 4.3-.4 1.5-.1 3.2-.6 4.8-.3 1-1 1.9-1.4 2.9-.2.5-.3 1.1-.4 1.6v.2c-.2 2.3.7 4.7 1.1 7 .6 3.2.3 6.7 1.7 9.7.1.4.3.7.5 1.1-.5 1-1 2.1-1.5 3-.7-.2-3-.7-3.1 1.3 0 1.6-.4 3.2-1.1 4.6-.1.1-.2.2-.3.2-.3.1-.4.4-.4.6l-.3.2c-.1 0-.2 0-.3.1-.1-.2-.6-.3-2.1 1.5-1.9 2-4.2 3.7-6.6 5.1 0 0-9.8 6.9-10.4 10s-3.4 17-1.8 21.6zm43.2-33.4v-.1l.1.1h-.1zm26.6 224c-.3.1-.6.2-.8.2l.8-.2z"/><path fill="#444053" d="M407.7 595.3c-11.5 2.2-13.6-6.7-13.6-6.7s-1.4-7.9-2-8.5c-.1-.2-.2-.5-.1-.8.3-1.3.9-2.6 1.7-3.7.7-.8.1-4.4.1-4.4l13.4-3.4c.6 1.3 1 2.6 1.3 3.9.1 1.2 2.1 6.9 1.9 7.7s.9 3.2 1 4.5 1.8 3.1 1.9 3.7c.2.6.4 1.2.7 1.7.4.9.6 1.8.9 2.7.6 2.9-7.2 3.3-7.2 3.3z"/><path opacity=".1" d="M407.7 595.3c-11.5 2.2-13.6-6.7-13.6-6.7s-1.4-7.9-2-8.5c-.1-.2-.2-.5-.1-.8l2.8 8s2.3 4.8 10.8 4.1c4.9-.4 7.2-1.3 8.4-2 .4.9.6 1.8.9 2.7.6 2.8-7.2 3.2-7.2 3.2z"/><path opacity=".1" d="M398.8 582.9s2.9.1 3.1-2.3l-3.1 2.3z"/><path fill="#3F3D56" d="M448.9 505.5c-1.4 2.2-3.1 11.6-3.1 11.6-.6 1.2-1 2.6-1 4-.1 1.8-.4 3.5-1 5.2l-3.8 13.6c.2 2.1-.1 4.2-1 6.2-1.4 2.6-1.2 1.8-.6 6.2s-.8 8.6-3.1 9.9 1 4.4 1 4.4-15.1 4.1-18.2 1.6 1.6-14.8 1.6-14.8-.8-10.3-.3-11.9 2.8-14.3 2.8-14.3 1.4-5.8.9-6.8.3-3.8.3-3.8 2.2-3.2 2-4.1c0-1 .2-1.9.7-2.8 0 0-6.7-10.2-6.1-12.1s-.3-5-.3-5-.8-1.5-1.9-3.2c-1.2-2.1-2.7-4.7-3.3-5.5-1.2-2.5-2.2-5.1-3-7.8l-.6-1.8s-1 19.3-2 21.2-2.3 17.5-2.3 17.5c-.5 1.4-.7 2.9-.7 4.3.1 2.4-2.1 13-2.1 13s-1 7.5-.3 9.4.1 16.4.1 16.4 3.6 2.8 4.5 5-.1 8.1-.1 8.1-10.5 5.2-15.1 3.9-2.8-9.3-2.8-9.3-3.1-5.2-3.1-7.3c-.2-2.8-.6-5.5-1.1-8.3-4-7.3-2.4-25.2-3.1-26.6s1.4-6.8 3-9.2 1-9 0-10.9 1-8.5 1-8.5-1.9-12.7-1.8-14.7-1.6-7.8-1.6-7.8-1.7-3-1.3-3.9-1.3-3.3-.9-4.3-.4-4.3-1.3-6.2c-.6-2-1.1-4-1.4-6-.4-2.3-.7-4.3-.7-4.3l10.8-8.7 27-7.1 10.2-3.3 9.9 15.6s1 1.6 1.9 3.5c.8 1.6 1.5 3.4 1.4 4.5-.2 1.4.2 2.9.9 4.1 0 0 5.9 18.7 5.8 24s2.1 17.2 2.1 17.2 2.5 7.7 1.1 9.9z"/><path opacity=".1" d="M388.2 515.2s11.5-4.9 14.9-1.4c3.4 3.4-14.9 1.4-14.9 1.4zm6.5 2s-11.7 6.6-7.7 7.7 7.7-7.7 7.7-7.7zm34.8-5.7s-5 .3-3.1 1.3 3.1-1.3 3.1-1.3zm6.3 1.5c-.1.3-14.5 5-11.7 7.1s11.7-7.1 11.7-7.1zm-45.9 40.1c2.2-.3 14.2-5.9 9.5-1.9-2.6 2.3-6.2 3-9.5 1.9zm6 4.4s1 4.1 5 3.5-5-3.5-5-3.5zm-3.4 8.2c.7-.2 9.3-4.1 9.5-2.3s-8.2 5-8.8 4.1c-.4-.5-.6-1.1-.7-1.8zm27.8-4.7c1-.1 10.9-3.2 12.8-.4l-12.8.4zm8.9 1.8s1.7-1.5 3.4-.7-3.4.7-3.4.7zm-21.7 16.3c.2 1.1 1.1 2 2.2 2.3l-2.2-2.3z"/><path fill="#444053" d="M457.5 585.2c-.6 2.7-9.8 3-14.2 2.2s-13.5-3.3-13.5-3.3-9.6-.9-12.4-2.1-.6-4.2-.6-4.2v-.3c-.1-1.1-.3-5.1.4-6.1.8-1.3.3-5.3.3-5.3s13.6 2.6 13.8 1.4 2.4-3 3.3-3.4 1.7 3.3 1.7 3.3 6.2 5.2 6.5 7.1 4.7 2.9 4.7 2.9c2.8.8 5.6 1.7 8.3 2.8 1 .5 1.7 1.4 1.8 2.5.2.8.1 1.7-.1 2.5z"/><path opacity=".1" d="M457.5 585.2c-.6 2.7-9.8 3-14.2 2.2s-13.5-3.3-13.5-3.3-9.6-.9-12.4-2.1-.6-4.2-.6-4.2v-.3l13.7 3s6.8 2.9 11.1 2.9c3.8 0 12.2 1.5 16.2-.8 0 .9-.1 1.8-.3 2.6z"/><path opacity=".1" d="M438.9 574.9s-.6 4.3-3.3 5.8l3.3-5.8z"/><path fill="#A1616A" d="M480.9 415.6c-3.9 1.5-12.9 1.6-16.9 1.6h-2l-2.6-5.2 2.6-4.4s2.4-.6 5.5-1.2c4.6-.8 11-1.5 14 .4 5 3.2 4.5 7-.6 8.8z"/><path opacity=".05" d="M421.3 353.2l1.1-1.3s5.9 9.3 6.5 12.8 1.4 7.5 1.4 7.5 1.5 4.5 2.5 6.5c.8 1.5 1.5 3.1 1.9 4.8.1.9-.4 2.8 1.5 4s2.3 4.5 2.3 4.5 6.6 6.5 10.1 6.6 13.5 1.9 13.2 3.7 4.2 2.8 6 3.2-11.8 5.8-3.8 12.5c0 0-5.1 1-5.6 2.3s-5.9-.7-5.9-.7-1.1-2.7-5.1-2.9-5.9-1.9-5.9-2.2-3.9-2.4-6.1-3-5.1-.9-5.2-1.5-13.1-56.8-13.1-56.8h4.2z"/><path fill="none" stroke="#444053" stroke-miterlimit="10" d="M555 590.6c66 0 119.5 10.8 119.5 24s-53.5 24-119.5 24-119.5-10.7-119.5-24"/><path fill="#444053" d="M513.6 93.1l16.8 2.9-21.3 125.3-16.9-2.9 21.4-125.3z"/><path fill="#D0D2D5" d="M550.3 598.8l3.7 26.7 3.2-27.8-6.9 1.1z"/><path fill="#3F3D56" d="M430.2 583.8v16.6l3.7 14.4h2.7l3.2-15.5 1.6-18.7-11.2 3.2z"/><path fill="#D0D2D5" d="M476.1 217.5l-25.6 162.3S412.6 552.8 427 587h18.2l54.5-332.1-23.6-37.4zm65-20.1l19.7 163.1s14.3 207.8-1.4 241.4h-15.5l-27.7-368.1 24.9-36.4z"/><path fill="#444053" d="M473.7 158.2c2.7-9.1 11.2-15.3 20.7-15 15.8.4 40.3 3.3 53 16.3 19.8 20.3-13.3 88.6-13.3 88.6s-31 57.1-59.3-15.5c0 .2-11.7-38.7-1.1-74.4z"/><path opacity=".1" d="M473.7 158.2c2.7-9.1 11.2-15.3 20.7-15 15.8.4 40.3 3.3 53 16.3 19.8 20.3-13.3 88.6-13.3 88.6s-31 57.1-59.3-15.5c0 .2-11.7-38.7-1.1-74.4z"/><path fill="#444053" d="M484.6 172.1c2-6.5 8-10.8 14.8-10.7 11.3.3 28.6 2.3 37.7 11.6 14.1 14.4-9.5 63.1-9.5 63.1s-22 40.7-42.2-11c-.1.1-8.4-27.6-.8-53z"/><linearGradient id="b" gradientUnits="userSpaceOnUse" x1="991.553" y1="10.582" x2="1079.047" y2="10.582" gradientTransform="rotate(180 809.135 272.835)"><stop offset="0" stop-color="gray" stop-opacity=".25"/><stop offset=".54" stop-color="gray" stop-opacity=".12"/><stop offset="1" stop-color="gray" stop-opacity=".1"/></linearGradient><path fill="url(#b)" d="M539.3 587.9c.2 2.6.6 5.3 2.2 7.3 2.7 3.3 7.6 3.6 11.8 4.7 3.2.9 6.4 2.2 9.3 3.7l9.1 4.3c-2.3.1-4.6.6-6.8 1.4-1.2.4-2.5 1.1-2.6 2.4 0 1 .6 2 1.5 2.4 1 .4 2 .6 3 .5 5.4.2 10.8-.1 16.2-.8l.6-.1c2.8 1.4 5.5 2.8 8.2 4.2 1.1.6 2.5 0 3.5-.8 1.2-1 2.2-2.2 3.1-3.5.2.3.3.5.5.8.9 1.7 1.7 3.9.5 5.3-1 1.1-2.9 1.3-3.5 2.7-.3 1 .1 2.1.9 2.7.9.6 1.9.9 2.9 1 2.5.3 5 .3 7.5-.1 1.3-.1 2.6-.6 3.6-1.5.9-1.2 1.3-2.6 1.3-4l1.7-19.4c.2-.9.1-1.9-.2-2.8-.7-1.7-2.7-2.3-4.4-2.6h-.2c1.5 0 3-.1 4.6-.1 1.4.1 2.8-.1 4.1-.5 2.5-1 3.9-3.7 5-6.1 2-4.3 4.3-9 4-13.8l-.8-.3c-.1-5.1-2.2-9.9-3-14.9.9-1.3 1.3-2.9 1.3-4.5-.1-1.8-.5-3.5-1.1-5.1-3.2-9.4-6.3-18.9-10.6-27.9-2.7-6-6.1-11.7-10-17-1-1.3-2.1-2.7-3.2-4-.8-.9-2.6-2.2-2.9-3.4s.4-2.3 0-3.5c-.1-.3-.2-.6-.4-.9 2.3-3.1 1.7-7.6.9-11.4l-1-4.8c-.2-1.3-.6-2.6-1.2-3.8-.6-1-1.5-1.9-2.4-2.7-4.9-4.4-11-7.4-16.5-11.1-5.8-3.9-11.1-8.6-16.3-13.3-1.6-1.4-3.6-3-5.7-2.3s-2.9 2.8-3 4.9c0 2.9 1.1 5.6 3.3 7.5 3.6 3.3 9.1 3.6 13.4 5.9 1.5.9 2.9 1.8 4.2 2.9l12.5 9.8c.9.6 1.6 1.5 2 2.5 0 .6-.1 1.3-.3 1.9-.5 1.4-1.3 3.3-1.9 5.1l-1-.7c-2.1-1.5-4.3-2.9-6.6-4-3.1-1.3-6.4-2.1-9.7-2.3-7.4-.8-14 .3-18.5 6.5-.9 1.4-2.1 2.6-3.5 3.6-1 .5-2 1.1-2.8 1.8-2.3 2.6-1 6.8 1.2 9 1.8 1.7 4.1 2.9 6.6 3.4 2.8 6.3 9.9 9.4 16.4 7.4.2 1.3.2 2.6.1 3.9-.1 1.3.4 2.7 1.4 3.6.5.4 1.1.6 1.7.8 2.2.8 4.3 1.9 6.2 3.3-2.3 2.4-4.1 5.2-5.5 8.3-1.7 4.1-1.4 8.7 1 12.5l.1.1c-.2.6-.5 1.2-.9 1.7-1.3 1-3.1.8-4.1-.4-.9-1-1.6-2.1-2.2-3.3-2-3.3-5.3-5.6-9-6.4-1.4-.4-2.8-.3-4.2.2-1.3.5-2.3 1.7-2.4 3.1 0 1.5 1.1 2.8 2.2 3.8 3.3 3.4 7 6.5 11 9.1 1.1.7 2.2 1.3 3.4 1.8-2-.4-4-.8-5.9-1.2-2.7-.7-5.5-.9-8.3-.7-2.8.2-5.4 1.7-7 4.1-1.1 2.1-1.3 4.5-.7 6.8.7 2.2 1.7 4.4 3.1 6.3 2.1 3.5 4.7 6.8 7.7 9.6-2.5.8-5 1.6-7.4 2.5s-5 2-6.1 4.2c-1 1.2-1.2 3-1 4.7zm36.8-34c.6-.2 1.1-.6 1.4-1.1 1.5-2 2.6-4.4 3.2-6.8.6-.1 1.2-.2 1.7-.4-.8.7-1.2 1.7-1.2 2.8l5.6 2.8c.4.2.8.4 1 .8.2.4.2.8.1 1.2l-.6 3.9c-1.7-.5-3.3-.9-4.8-1.3-2.1-.8-4.2-1.4-6.4-1.9z"/><path fill="#FABDBD" d="M577.2 500.8c2.9.7 5.9.2 8.4-1.4.5-.3 1-.6 1.6-.8 1.1-.1 2.1.3 2.8 1.1 2.4 2.4 2.7 6.3 1.4 9.5-1.2 3.2-3.7 5.6-6.3 7.8-2.1 1.7-4.3 3.3-6.7 4.7-1.3-3-3.8-5.4-6.8-6.7-2.7-1.1-4.7-3.9-6.3-6.4-1.2-1.8-2.2-1.8-1.2-3.7 1.2-1.8 2.6-3.5 4.2-5 .9-.9 1.6-1.9 2.2-3 .7-1.3.5-2.1 1.6-1.1.7.7 1 2.1 1.8 2.9 1 1.1 2.1 1.7 3.3 2.1zm8.6-19.5c.2-.6.3-1.2.3-1.9-.3-1-1-1.9-1.9-2.5l-12.2-9.7c-1.3-1.1-2.7-2-4.1-2.9-4.2-2.3-9.5-2.6-13.1-5.8-2.1-1.9-3.2-4.6-3.2-7.5 0-2 1-4.3 2.9-4.8s4 .9 5.6 2.3c5.1 4.6 10.2 9.3 15.9 13.1 5.4 3.6 11.3 6.5 16.2 10.9.9.7 1.6 1.6 2.2 2.6.6 1.2 1 2.5 1.2 3.8l1 4.7c.8 4 1.5 8.6-1.2 11.7-.8 1-2 1.6-3.3 1.6-.9-.1-1.7-.4-2.5-.9-2-1-5.6-2-6.2-4.5-.8-3 1.4-7.3 2.4-10.2zm-19.5 62.5c-.8-1-1.5-2.1-2.1-3.3-1.9-3.2-5.1-5.5-8.8-6.3-1.3-.3-2.7-.3-4 .2-1.3.5-2.2 1.7-2.3 3.1 0 1.5 1.1 2.7 2.1 3.8 3.2 3.4 6.8 6.4 10.8 9 3.9 2.6 8.4 4.1 13.1 4.5.5.1.9 0 1.4-.1.5-.2 1-.6 1.3-1.1 2.5-3.2 3.3-7.3 4-11.3-.2 1.4-8.3-1.9-9.2-1.5-1.3.6-1.2 2.5-2.2 3.4-1.3 1-3.1.8-4.1-.4zm58.6 31.4c0 .5-.1 1-.3 1.5-.5.9-1.8.9-2.8.7-2.3-.4-4.6-.9-6.9-1.7l-20.5-5.9c-.3-.1-.6-.2-.9-.4-.2-.3-.4-.6-.4-.9-.7-2.9-.9-6-.5-9 0-.4.2-.9.4-1.2.5-.4 1.1-.7 1.7-.6 3.2-.3 6.4-.5 9.7-.4 2.1.1 4.2 0 6.3-.1 2.7-.3 5.8-1.9 8.5-1.6 2.3.2 2.3 2 2.5 4 .7 5.1 3.2 10.2 3.2 15.6z"/><path fill="#3F3D56" d="M559.4 550.8c-2.7-.7-5.4-.9-8.2-.7-2.8.2-5.3 1.7-6.8 4-1.1 2.1-1.3 4.5-.6 6.7.7 2.2 1.7 4.3 3 6.2 2.3 4 5.3 7.6 8.8 10.6 1.8 1.4 3.7 2.5 5.4 4 3.6 3.1 5.8 7.5 7.9 11.8 2 4 4 8.1 4.9 12.5 0 .3.2.7.4.9.3.1.6.2.9.1l9.8-1.8c.8 0 1.6-.6 1.6-1.5 0-.3-.1-.6-.2-.9-2.1-9.2-6.1-17.8-11.8-25.4 5.3 5 12.7 7.1 19.8 5.7 1.4-.2 2.7-.8 3.8-1.6 2.2-2 2.1-5.4 1.6-8.3-.4-2.6-1-5.2-1.8-7.7-1.8-6-9.8-7.6-15.2-9.1-7.8-2.1-15.5-3.9-23.3-5.5z"/><path opacity=".1" d="M566.7 572.1c1.4.6 2.7 1.4 3.7 2.5-1.8-2-6.8-3-9.3-3.9-3.1-1.1-6.4-2.3-9-4.3 5 1.5 9.9 3.4 14.6 5.7z"/><path d="M598.6 614.2c.8 1.7 1.7 3.8.4 5.3-.9 1.1-2.8 1.3-3.4 2.6-.3 1 .1 2.1.9 2.7.8.6 1.8.9 2.8 1 2.4.3 4.9.3 7.3-.1 1.3-.1 2.5-.6 3.5-1.5.8-1.2 1.3-2.6 1.3-4l1.7-19.2c.1-.9.1-1.8-.2-2.7-.7-1.6-2.6-2.3-4.3-2.6-1.9-.3-3.9-.4-5.9-.2-1.3 0-2.6.5-3.7 1.3-1 1.1-1.6 2.5-1.7 4-.5 2.3-1.7 5.4-1.4 7.8.1 1.8 1.8 4 2.7 5.6zm-22.1-6.2c-3.7-.5-7.6-.1-11.1 1.3-1.1.4-2.4 1.1-2.6 2.3 0 1 .5 2 1.5 2.4.9.4 1.9.6 2.9.5 5.3.1 10.6-.1 15.8-.8 1.4-.1 2.7-.5 3.8-1.2 1.2-.8 1.7-2.2 1.2-3.6-.6-1.3-2.3-1.7-3.2-2.9-.6-.9-.8-2.1-1.7-2.6-.7-.2-1.5-.2-2.2.2-1 .3-3.4.7-4.1 1.5-.1 1-.3 1.9-.3 2.9z"/><circle fill="#FABDBD" cx="562.3" cy="498.1" r="13.1"/><path d="M593.5 492.4c-2.1-1.5-4.8-2.1-7.3-2.6-.9-.3-1.8-.2-2.6.1-.6.4-1 .9-1.3 1.6-.8 1.3-1.4 2.7-1.7 4.1-.4 1.5 0 3.1 1 4.2.8.8 1.9 1.2 2.7 2 1.1 1.2 1.5 2.8 1.2 4.3-.3 1.5-.9 3-1.8 4.3-1.9 3.4-4.1 6.6-6.6 9.7-2.5 3.2-5.4 6.2-6.9 10-1.7 4-1.3 8.6 1 12.3 2.4 3.5 7.3 5.4 11.3 3.9-.7.7-1.2 1.7-1.1 2.7l5.5 2.7c.4.1.8.4 1 .8.1.4.2.8.1 1.2-.4 2.2-.7 4.5-.7 6.7.2 2.3 1.2 4.6 3.2 5.6 1.9.9 4.1.4 6.1 0 4.8-1 9.6-1.5 14.5-1.5 2.4 0 4.9.1 7.2-.9 3.1-1.3 5-4.4 5.1-7.7-.1-1.7-.5-3.4-1.1-5.1-3.1-9.3-6.2-18.6-10.3-27.5-2.7-5.9-6-11.5-9.8-16.8-1-1.3-2-2.6-3.1-3.9-.8-.9-2.5-2.2-2.8-3.4s.4-2.3 0-3.5c-.7-1.2-1.6-2.5-2.8-3.3z"/><path fill="#3F3D56" d="M625.7 575.5c-5.8-2.7-11.5-5.3-17.5-7.4-4.4-1.5-9.3-2.7-13.7-1-1.3.5-2.5 1.3-3.7 1.9-4.2 2-9 2.3-13.6 2.8-10.3 1.2-20.4 3.6-30.2 7.2-2.3.9-4.8 2-6 4.2-.7 1.6-.9 3.3-.6 5 .2 2.5.6 5.2 2.2 7.2 2.6 3.3 7.4 3.5 11.5 4.6 3.2.9 6.2 2.1 9.1 3.6 9.6 4.6 19.2 9.1 28.6 14.1 1.1.6 2.4 0 3.4-.8 2.8-2.6 4.9-6 5.9-9.7 1-3.7 1.5-7.5 1.5-11.4 3.7 0 6.7-.2 10.3-.2 1.4.1 2.7-.1 4-.5 2.5-1 3.8-3.6 4.9-6 2-4.3 4.2-9 3.9-13.6z"/><path opacity=".1" d="M558.8 589.1c2.6-1.3 5.6-1.3 8.5-1.3 1.8 0 3.5.1 5.3.4 2.7.7 5.2 1.7 7.7 2.9 6.1 2.6 12.7 3.9 19.4 3.8"/><path fill="#3F3D56" d="M543.9 500c2 1.8 4.4 3.1 7.1 3.5 2.6.6 5.3.8 7.9 1.4 3.2.7 6.7 2.4 7.5 5.6.2 1.3.2 2.6.1 3.9-.1 1.3.4 2.6 1.3 3.5.5.3 1.1.6 1.7.8 10.7 4.1 17.9 14.3 18 25.8 3.3-1.9 5.6-5.3 6.2-9.1 0 3.5 3 7 1.3 10.1 7.4-4.8 9.5-14.7 4.6-22.1-.2-.4-.5-.7-.8-1.1-1.3-1.7-3-3.1-4.4-4.7-4-4.6-5.8-10.6-5.2-16.6.3-2.5 1-5.1.5-7.6-.8-3.5-3.8-5.9-6.7-7.9-2-1.5-4.2-2.8-6.5-3.9-3-1.3-6.2-2-9.5-2.3-7.2-.8-13.6.3-18.1 6.4-.9 1.4-2.1 2.6-3.4 3.6-1 .5-1.9 1.1-2.8 1.8-2.3 2.5-1 6.7 1.2 8.9z"/><path fill="#A1616A" d="M409 353.6c-.4-.2-28.9-11.9-25-14.3 2.3-1.4 5.2-7.3 7.2-11.9 1.4-3.2 2.3-5.8 2.3-5.8s22.9-4.1 14.7 10c-1.3 2.2-2.3 4.5-2.9 6.9-2.4 9.5 3.5 14.9 3.7 15.1z"/><path opacity=".1" d="M408.1 331.6c-1.3 2.2-2.3 4.5-2.9 6.9-5.9-.4-11.1-4.1-13.5-9.5-.2-.5-.4-1-.6-1.6 1.4-3.2 2.3-5.8 2.3-5.8s22.9-4 14.7 10z"/><path fill="#A1616A" d="M422.3 322c0 8.8-7.2 16-16.1 15.9-6.3 0-12-3.7-14.5-9.5-.9-2-1.4-4.2-1.4-6.5 0-8.8 7.2-16 16.1-15.9 7.1 0 13.3 4.7 15.3 11.5.4 1.5.6 3 .6 4.5z"/><path opacity=".1" d="M437.8 445.9c-1.1 1.2-1.9 2.8-2.3 4.4 0 0-7.9 5.4-7.3 2s-4.1-17.2-4.1-17.2l.5 18.7s-25.1-1.2-27-3-12.5-5.4-12.5-5.4-3.3 2.6-6.3 4.6c-.4-2.3-.7-4.3-.7-4.3l10.8-8.7 27-7.1 10.1-3.3 9.9 15.6c-.1.2 1 1.8 1.9 3.7z"/><path fill="#444053" d="M438.6 444.4c-2.1 1.3-2.9 4.9-2.9 4.9s-7.9 5.4-7.3 2-4.1-17.2-4.1-17.2l.5 18.7s-25.2-1.2-27-3-12.6-5.4-12.6-5.4-9.3 7.5-11 6.8 3-13.4 3-13.4l4.8-74.4s-1.3-22.1.7-22.9c.3-.1.6-.3.8-.5 1.3-1.2 1.7-3.5 1.8-5.5.1-2.4 3.3-1.2 3.3-1.2l-1.8 2.4 16.2 9.9.1.1c.6-.3 1.3-.6 2-.9 1.4-.5 3.4-1.1 4.6-.5.7.4 1.3.9 1.7 1.5.9 1.4 1.7 2.9 2.2 4.5l5.9 10s3 13.2 3 13.8.9 12.6 2 13.9 2.1 7.9 1.7 9.8.6 9.3.6 9.3c4.3 3.5 6.5 15.6 6.5 15.6s6.8 13.5 7.3 15.1.1 5.3-2 6.6z"/><path opacity=".1" d="M403.1 346c-1.6 2.4-6.2 5.7-6.2 5.7l-13.3-11.2c1.3-1.2 1.7-3.5 1.8-5.5.1-2.4 3.3-1.2 3.3-1.2l-.4.5c-.7.9-.5 2.3.4 3 .1 0 .1.1.2.1l14.2 8.6z"/><path fill="#444053" d="M403.1 345.5c-1.6 2.4-6.2 5.7-6.2 5.7L383.6 340c1.3-1.2 1.7-3.5 1.8-5.5.1-2.4 3.3-1.2 3.3-1.2l-.4.5c-.7.9-.5 2.3.4 3 .1 0 .1.1.2.1l14.2 8.6z"/><path opacity=".1" d="M409.2 347.3c-1.7 2-4.1 4.4-4 3.2s-1.5-3.7-2.4-4.9c1.6-.5 3.2-.4 4.8.1.6.4 1.2.9 1.6 1.6z"/><path fill="#444053" d="M409.5 346.5c-1.7 2.1-4.1 4.4-4 3.2s-1.3-3.1-2.3-4.2c1.4-.5 3.4-1.1 4.6-.5.7.3 1.3.8 1.7 1.5z"/><path opacity=".1" d="M383.6 340.6s.2-1.6-2.1 1.1c-1.9 2-4.1 3.7-6.5 5 0 0-9.7 6.8-10.2 10s-3.7 16.8-2 21.3 14.3 26.3 14.3 26.3-3.3 3.9-2.5 8.6 1.8 11 1.3 12.4.5 4.9-1 6.1-3 3.3 1.6 6.1c0 0 .9 2.4.1 2.9s11.6 5.9 16.5 3.1 13.7-25.9 13.9-31.1-2.7-22.2-4.3-26.2-6.3-19.7-8.3-23.1-10.8-22.5-10.8-22.5z"/><path d="M383.1 340.6s.2-1.6-2.1 1.1c-1.9 2-4.1 3.7-6.5 5.1 0 0-9.7 6.8-10.2 10s-3.7 16.8-2 21.3 14.3 26.3 14.3 26.3-3.3 3.9-2.5 8.6 1.8 11 1.3 12.4.5 4.9-1 6.1-3.1 3.3 1.6 6.1c0 0 .9 2.4.1 2.9s11.6 5.9 16.5 3.1 13.7-25.9 13.9-31.1-2.7-22.2-4.3-26.2-6.3-19.7-8.3-23.1-10.8-22.6-10.8-22.6z"/><path opacity=".1" d="M379.6 355.5s7.5 8.3 7.3 13.8c-.1 0 0-8.9-7.3-13.8zm25.3-11.9s4.9-3 11 4.6c0 0 4.5 2.5 5.8 3.1s2.8 16.9 2.8 16.9 2.9 7 2.1 11 2.3 17.8 2.3 17.8 5.1 24.8 4.9 25.5-5.2-7.8-5.1-12-4.2-17.3-4.8-18.1-4.8-23.2-4.8-23.2-3.4-9.5-5.6-12.7-4.9-9.1-6-10.1c-.8-.7-1.7-1.3-2.7-1.7l.1-1.1z"/><path d="M404.9 343.6s5.5-3 11.6 4.6c0 0 4.5 2.5 5.8 3.1s2.8 16.9 2.8 16.9 2.9 7 2.1 11 2.3 17.8 2.3 17.8 5.1 24.8 4.9 25.5-5.1-7.8-5.1-12-4.2-17.3-4.8-18.1-4.8-23.2-4.8-23.2-3.4-9.4-5.6-12.6-4.9-9.1-6-10.1c-1-.8-2.1-1.3-3.2-1.7v-1.2z"/><path fill="#A1616A" d="M428.9 398.2s10.4-6.8 15.4-3.5 13.2 8.1 5.2 11.6-19.3 2.8-19.3 2.8l-1.3-10.9z"/><path opacity=".1" d="M421.6 463.9c-1.5 3.3-2.8 20-3.7 25.3-1.2-2.1-2.7-4.7-3.3-5.5-1.2-2.5-2.2-5.1-3-7.8 1-2.4 3.7-9.3 3.7-11.8 0-3.1 5-7 5-7 1.9 1.8 2.4 4.5 1.3 6.8zm.1-146.3c-.2.1-.5.2-.8.3-1.2.3-2.4-.5-3.5-1.2s-2.6-1.1-3.5-.3c-1.2 1.1-.3 3.5-1.6 4.6-.8.7-2.1.5-3 1s-1.2 1.8-1.4 2.9-.7 2.3-1.7 2.6-2-.4-3-.3c-.2 0-.5 0-.6-.1-.1-.1-.1-.3-.1-.5.1-1.3 0-2.6-.3-3.8-.4-1.3-1.4-2.2-2.7-2.5-1.8-.3-3.4 1.3-4.5 2.9-1.1 1.6-2.2 3.3-3.1 5 0 .1-.1.2-.2.4-.9-2-1.4-4.2-1.4-6.5 0-8.8 7.2-16 16.1-15.9 7.1 0 13.3 4.6 15.3 11.4z"/><path fill="#3F3D56" d="M395 322.9c1.1-1.5 2.6-3.1 4.5-2.9 1.3.3 2.3 1.2 2.7 2.5.3 1.2.5 2.5.3 3.8 0 .2 0 .3.1.5s.4.1.6.1c1 0 2 .6 3 .3s1.5-1.5 1.7-2.6.5-2.3 1.4-2.9 2.2-.3 3-1c1.3-1.1.4-3.5 1.6-4.6 1-.9 2.5-.4 3.5.3s2.3 1.5 3.5 1.2c.4-.1.8-.3 1.2-.5 2-.7 4.5.5 6.1-.8.6-.6 1-1.3 1.2-2.1.4-1.1.7-2.2.9-3.3.1-1.2-.2-2.3-.9-3.3-1-1.2-2.8-1.5-4.1-2.4-1.1-.8-2-1.9-2.6-3.1-.7-1.2-1.5-2.3-2.6-3.2-1.1-.9-2.6-1.1-3.9-.6-.4.3-.8.5-1.3.6-.5 0-1-.1-1.4-.4-4.5-2.1-9.8-1.8-14.8-1.1-2 .2-4 .6-5.8 1.4-1.9.8-3.3 2.4-3.9 4.3-.4 1.5-.1 3.2-.6 4.7-.3 1-1 1.9-1.4 2.9-1.1 2.8.2 5.8.8 8.7.6 3.2.3 6.6 1.6 9.6.3.6.6 1.6 1.2 1.2.5-.3 1-2 1.3-2.5.9-1.6 2-3.2 3.1-4.8z"/><path opacity=".1" d="M366.2 374.1l-2.4 6.7s5.6 20.8 8.2 25.2 6.5 10 6.5 10c4.4 2 9.3 2.6 14 1.7 7.5-1.5 29.4-5.4 29.4-5.4 1.1.2 2.1-.2 2.8-1 1-1.4 5.9-2.1 5.9-2.1s5.8-8.4-1.3-11.9c0 0-.9 1.9-4.6.6s-4.9 1-4.9 1-6.1 1.2-9.5.8-11.9-.6-12.8-1.3c-.5-.4-1.2-.4-1.6.1-1-.4-2-.9-2.8-1.6-.7-.8-1.7.9-1.7.9s-1.2-.7-.9-1.6-1.1-4.2-1.1-4.2c-.4-1.3-.5-2.6-.3-3.9.4-1.8-2.2-8-2.2-8 0-1.1.1-2.1.4-3.1.4-1.6-3.3-4.7-3.3-4.7s-3.7-17.8-11.4-12-6.4 13.8-6.4 13.8z"/><path d="M365.7 374.1l-2.4 6.7s5.6 20.8 8.2 25.2 6.5 10 6.5 10c4.4 2 9.3 2.6 14 1.7 7.5-1.5 29.4-5.4 29.4-5.4 1.1.2 2.1-.2 2.8-1 1-1.4 5.9-2.1 5.9-2.1s5.8-8.4-1.3-11.9c0 0-.9 1.9-4.6.6s-4.9 1-4.9 1-6.1 1.2-9.5.8-11.9-.6-12.8-1.3c-.5-.4-1.2-.4-1.6.1-1-.4-2-.9-2.8-1.6-.7-.8-1.7.9-1.7.9s-1.2-.7-.9-1.6-1-4.2-1-4.2c-.4-1.3-.5-2.6-.3-3.9.4-1.8-2.2-8-2.2-8 0-1.1.1-2.1.4-3.1.4-1.6-3.3-4.7-3.3-4.7s-3.7-17.8-11.4-12-6.5 13.8-6.5 13.8z"/><path opacity=".1" d="M387.3 394.3s-8.6 1.8-5.7 3.2 5.7-3.2 5.7-3.2zm14.8-73.3c-.4-1.3-1.4-2.2-2.7-2.5-1.8-.3-3.4 1.3-4.5 2.8-1.1 1.6-2.2 3.3-3.1 5-.3.5-.8 2.2-1.3 2.5-.7.4-1-.6-1.2-1.2-1.4-3-1-6.5-1.6-9.6-.5-1.8-.8-3.7-1.1-5.6-.2 2.3.7 4.7 1.1 7 .6 3.2.3 6.6 1.6 9.6.3.6.6 1.6 1.2 1.2.5-.3 1-2 1.3-2.5.9-1.7 2-3.4 3.1-5 1.1-1.5 2.6-3.1 4.5-2.8 1.3.3 2.3 1.2 2.7 2.5.2.6.3 1.3.4 2 .1-1.1-.1-2.3-.4-3.4zm27.3-8.2c-.2.8-.6 1.5-1.2 2.1-1.6 1.3-4.1.1-6.1.8-.4.1-.8.4-1.2.5-1.2.3-2.4-.5-3.5-1.2s-2.6-1.2-3.5-.3c-1.2 1.1-.3 3.5-1.6 4.6-.8.7-2.1.5-3 1s-1.2 1.8-1.4 2.9-.7 2.3-1.7 2.6-2-.4-3-.3c-.2 0-.5 0-.6-.1l-.1-.1v1c0 .2 0 .3.1.5s.4.1.6.1c1 0 2 .6 3 .3s1.5-1.5 1.7-2.6.5-2.3 1.4-2.9 2.2-.3 3-1c1.3-1.1.4-3.5 1.6-4.6 1-.9 2.5-.4 3.5.3s2.3 1.5 3.5 1.2c.4-.1.8-.3 1.2-.5 2-.7 4.5.5 6.1-.8.6-.6 1-1.3 1.2-2.1.4-1.1.7-2.2.9-3.3v-1.2c-.2 1-.5 2.1-.9 3.1z"/><ellipse cx="255" cy="565.6" rx="40.9" ry="7.9"/><ellipse fill="#3F3D56" cx="254.3" cy="562.2" rx="4.8" ry="6.2"/><ellipse fill="#3F3D56" cx="254.3" cy="554.6" rx="4.8" ry="6.2"/><ellipse fill="#3F3D56" cx="254.3" cy="547" rx="4.8" ry="6.2"/><ellipse fill="#3F3D56" cx="254.3" cy="539.4" rx="4.8" ry="6.2"/><ellipse fill="#3F3D56" cx="254.3" cy="531.7" rx="4.8" ry="6.2"/><ellipse fill="#3F3D56" cx="254.3" cy="524.1" rx="4.8" ry="6.2"/><ellipse fill="#3F3D56" cx="254.3" cy="516.5" rx="4.8" ry="6.2"/><path d="M272.1 464.3c.7-.8 1.2-1.7 1.8-2.6l-12.5-2 13.5.1c2.6-5.7 2.8-12.2.4-18.1l-18.2 9.4 16.8-12.3c-6.3-10.9-20.3-14.6-31.2-8.3-10.9 6.3-14.6 20.3-8.3 31.2.5.9 1.1 1.8 1.8 2.6-1 1.3-1.9 2.7-2.6 4.2l16.2 8.4-17.3-5.8c-2.5 7.3-1.1 15.4 3.7 21.4-7.8 9.9-6.1 24.3 3.8 32 9.9 7.8 24.3 6.1 32-3.8 6.5-8.3 6.5-19.9 0-28.2 6.7-8.2 6.7-19.9.1-28.2z"/><path opacity=".1" d="M231.4 478.4c0 5.1 1.7 10.1 4.9 14.1-7.8 9.9-6.1 24.3 3.8 32s24.3 6.1 32-3.8c6.5-8.3 6.5-19.9 0-28.2 3.1-3.8-40.7-16.6-40.7-14.1z"/><ellipse cx="940" cy="638.6" rx="40.9" ry="7.9"/><ellipse fill="#3F3D56" cx="939.3" cy="635.2" rx="4.8" ry="6.2"/><ellipse fill="#3F3D56" cx="939.3" cy="627.6" rx="4.8" ry="6.2"/><ellipse fill="#3F3D56" cx="939.3" cy="620" rx="4.8" ry="6.2"/><ellipse fill="#3F3D56" cx="939.3" cy="612.4" rx="4.8" ry="6.2"/><ellipse fill="#3F3D56" cx="939.3" cy="604.7" rx="4.8" ry="6.2"/><ellipse fill="#3F3D56" cx="939.3" cy="597.1" rx="4.8" ry="6.2"/><ellipse fill="#3F3D56" cx="939.3" cy="589.5" rx="4.8" ry="6.2"/><path d="M957.2 537.3c.7-.8 1.2-1.7 1.8-2.6l-12.5-2 13.5.1c2.6-5.7 2.8-12.2.4-18.1l-18.2 9.4 16.8-12.3c-6.3-10.9-20.3-14.6-31.2-8.3-10.9 6.3-14.6 20.3-8.3 31.2.5.9 1.1 1.8 1.8 2.6-1 1.3-1.9 2.7-2.6 4.2l16.2 8.4-17.3-5.8c-2.5 7.3-1.1 15.4 3.7 21.4-7.8 9.9-6.1 24.3 3.8 32s24.3 6.1 32-3.8c6.5-8.3 6.5-19.9 0-28.2 6.6-8.2 6.6-19.9.1-28.2z"/><path opacity=".1" d="M916.4 551.4c0 5.1 1.7 10.1 4.9 14.1-7.8 9.9-6.1 24.3 3.8 32s24.3 6.1 32-3.8c6.5-8.3 6.5-19.9 0-28.2 3.1-3.8-40.7-16.6-40.7-14.1zm-512-473c8.4 0 15.3 6.8 15.3 15.3s-6.8 15.3-15.3 15.3-15.3-6.8-15.3-15.3 6.9-15.3 15.3-15.3zM459.1 0c14.1 0 25.6 11.5 25.6 25.6s-11.5 25.6-25.6 25.6-25.6-11.5-25.6-25.6S444.9 0 459.1 0zm-33.9 124.2c14.1 0 25.6 11.5 25.6 25.6s-11.5 25.6-25.6 25.6-25.6-11.5-25.6-25.6 11.4-25.6 25.6-25.6zm538.7 138.2c8.4 0 15.3 6.8 15.3 15.3s-6.8 15.3-15.3 15.3-15.3-6.8-15.3-15.3 6.9-15.3 15.3-15.3zM909.3 184c14.1 0 25.6 11.5 25.6 25.6s-11.5 25.6-25.6 25.6-25.6-11.5-25.6-25.6 11.5-25.6 25.6-25.6zm33.9 124.2c14.1 0 25.6 11.5 25.6 25.6s-11.5 25.6-25.6 25.6-25.6-11.5-25.6-25.6 11.4-25.6 25.6-25.6zm-842.4-11.5c4.8 0 8.7 3.9 8.7 8.6s-3.9 8.6-8.7 8.6-8.7-3.9-8.7-8.6 3.9-8.6 8.7-8.6zm37.1-38.6c8 0 14.5 6.5 14.5 14.5s-6.5 14.5-14.5 14.5-14.5-6.5-14.5-14.5 6.4-14.5 14.5-14.5zm-69.5 22.5c8 0 14.5 6.5 14.5 14.5s-6.5 14.5-14.5 14.5-14.5-6.5-14.5-14.5 6.5-14.5 14.5-14.5zm673.4-35.9c4.8 0 8.7 3.9 8.7 8.6s-3.9 8.7-8.7 8.7-8.7-3.9-8.7-8.7 3.9-8.6 8.7-8.6zm37-38.6c8 0 14.5 6.5 14.5 14.5s-6.5 14.5-14.5 14.5-14.5-6.5-14.5-14.5 6.5-14.5 14.5-14.5zm-69.3 22.5c8 0 14.5 6.5 14.5 14.5s-6.5 14.5-14.5 14.5-14.5-6.5-14.5-14.5 6.4-14.5 14.5-14.5zM216.6 106.1c20 0 36.3 16.2 36.3 36.3s-16.2 36.3-36.3 36.3-36.3-16.2-36.3-36.3 16.3-36.3 36.3-36.3zm207 135.3c11.6 0 20.9 9.4 20.9 20.9 0 11.6-9.4 20.9-20.9 20.9s-20.9-9.4-20.9-20.9c0-11.5 9.3-20.9 20.9-20.9zm207 136c11.6 0 20.9 9.4 20.9 20.9s-9.4 20.9-20.9 20.9-20.9-9.4-20.9-20.9 9.3-20.9 20.9-20.9z"/><ellipse fill="none" stroke="#444053" stroke-miterlimit="10" cx="255" cy="568.6" rx="119.5" ry="24"/><ellipse fill="none" stroke="#444053" stroke-miterlimit="10" cx="940" cy="639.6" rx="119.5" ry="24"/><ellipse fill="none" stroke="#444053" stroke-miterlimit="10" cx="120" cy="639.6" rx="119.5" ry="24"/></svg>