<svg version="1.1" id="图层_1" xmlns="http://www.w3.org/2000/svg" x="0" y="0" viewBox="0 0 1038.2 693.3" xml:space="preserve"><style>.st2{fill:#fbbebe}.st3{fill:#464353}.st4{opacity:.1}.st7{fill:#3f3d56}.st12{fill:#3acc6c}.st13{fill:#ff6584}</style><path d="M615.2 111.4c-64.7-2.3-126.4-23.1-185.2-46S312.9 17.2 249.7 5.1C209-2.7 162.6-3.8 129.8 18c-31.5 21-41.7 57.2-47.2 90.7-4.1 25.3-6.5 51.8 4.8 75.5 7.8 16.4 21.7 30.2 31.4 45.9 33.5 54.7 9.8 122.2-26.5 175.6-17 25.1-36.7 49-49.9 75.7s-19.2 57.2-7.7 84.5c11.4 27 38.5 47.2 67.9 61.5 59.7 28.9 130 37.2 198.6 41.9 151.8 10.4 304.5 5.9 456.7 1.4 56.3-1.7 112.9-3.4 168.3-12.1 30.8-4.8 62.6-12.5 84.9-31 28.4-23.5 35.4-63.4 16.4-92.9-31.9-49.5-120-61.8-142.3-114.9-12.3-29.2.3-61.8 18.2-88.9 38.2-58.2 102.3-109.2 105.7-175.7 2.3-45.7-28.5-91.4-76.1-113C883.1 19.6 813.8 22.5 777 60c-38 38.5-104.6 53.4-161.8 51.4zm-528.9 188S11.5 268 1.7 324.7c0 0-5.1 8.8 2 16.1 0 0 1.5-3.9 8.8.1 2.6 1.4 5.3 2.5 8.2 3.3 3.8 1.1 7.9.8 11.6-.6 0 0 24.6-1.3 45.3-33.5 0 0 8.9-5.5 9.3-7.5l-14.8 1s1.1 10.9-5 17.4c0 0 5.4-16.8 2.8-17.3-.5-.1-7.8.9-7.8.9s1.9 18.9-8 28.6c0 0 9.2-19.2 5.2-28.3L48.4 307s3 19.9-7.8 31.4c0 0 8.9-20.4 5.5-30.8l-10.5 3.5s2.5 19.4-6.5 29c0 0 7.9-24.6 4.2-28 0 0-9.4 3.8-11.4 6 0 0 1.5 14-4.3 19 0 0 3.5-17 1.8-17.7 0 0-10.9 8.2-14.3 15.4 0 0 4.2-10.9 12.9-17 0 0-7.4-1.2-13 1.8 0 0 3.8-7.2 15.6-3.8 0 0 8.8-6.1 10.6-6 0 0-11.2-5-19.3-4.4 0 0 8.7-5 22.1 3.4l10.5-3.8s-14.5-7.4-21.8-7.4c0 0 9.7-3.7 24.5 6.7l10.7-2.2s-12-7.4-20.1-9.1c0 0 9.7-1.5 23.2 8.5l7.3-.6s-8.8-5.2-11.5-6.5-2.6-2.1-2.6-2.1c6.4 1.1 12.3 3.9 17.1 8.2-.2.1 15-.2 15-1.1zM83.6 243S57.1 181.7 19 209.8c0 0-8.1 2.3-8 10.7 0 0 3.1-1.5 5.1 5.1.7 2.3 1.7 4.5 3 6.6 1.7 2.8 4.2 5 7.3 6.3 0 0 15.4 13.2 46 5.9 0 0 8.4 1.8 9.8.8l-9.4-7.9s-5.5 7.1-12.9 7.4c0 0 12.8-6.9 11.6-8.7-.3-.4-5.2-3.9-5.2-3.9s-9.6 12.3-21 12.5c0 0 16.4-6.2 19.2-13.9l-7.7-5s-9.7 13.5-22.7 14.2c0 0 16.9-7.1 20.8-15.2l-8.2-3.9s-9.6 13-20.4 13.5c0 0 18.7-10.1 18.4-14.3 0 0-7.8-3.1-10.2-2.9 0 0-7.1 9.1-13.4 8.9 0 0 11.8-8.1 11.1-9.5 0 0-11.2-1.3-17.2 1 0 0 8.7-4.1 17.4-2.7 0 0-3.7-4.9-8.8-6.3 0 0 6.4-2.1 11.5 6.6 0 0 8.7 1.4 9.7 2.4 0 0-3.8-9.4-9-13.6 0 0 8 2 11.2 14.6l8.4 3.7s-4.4-12.7-8.7-16.8c0 0 7.9 3.3 10.8 17.9l7.6 4.8s-2.9-11.2-6.8-16.8c0 0 6.6 4.6 8.9 18.3l4.7 3.8s-2.3-8.1-3.2-10.4-.3-2.7-.3-2.7c3.2 4.3 5.1 9.4 5.5 14.7-.1.1 9.1 8.5 9.7 8z" opacity=".1"/><linearGradient id="SVGID_1_" gradientUnits="userSpaceOnUse" x1="320.863" y1="-99.978" x2="320.863" y2="411.143" gradientTransform="matrix(1 0 0 -1 -80.89 592.65)"><stop offset="0" stop-color="gray" stop-opacity=".25"/><stop offset=".54" stop-color="gray" stop-opacity=".12"/><stop offset="1" stop-color="gray" stop-opacity=".1"/></linearGradient><path d="M448.7 651.5c-1-3.6-2-7.3-4-10.4-1.9-2.7-4.1-5.1-6.5-7.2-7.3-6.6-16.1-13.3-25.8-11.6-3 .7-5.8 1.7-8.5 3.1-1.4.7-2.8 1.3-4.3 1.8-4.1 1.7-8.5 2.1-12.8 1.1-2.2-.6-4.3-1.7-6.4-2.3-1-.3-2.1-.5-3.1-.7 2.1-.9 4.1-2 6.1-3.2 10.8-6.6 19.4-18.5 18.2-31.3-.4-4.3-1.9-8.4-3.3-12.5l-3.8-10.6c-1.7-4.6-3.4-9.3-6.4-13.1-3.4-4.3-8.2-7.2-13.1-9.3-10.7-4.6-22.3-6.3-33.8-7.8l-.8-.1V413.3c0-4.4-3.6-8-8-8h-15.1c-.7-4.1-1.3-8.2-2-12.2-1.9-11.6-3.9-23.4-9.2-33.9-3.5-6.8-9.1-13.4-16.6-14.7-1.5-.1-2.9-.5-4.3-1-2.2-1.1-3.4-3.5-5.1-5.3-4.4-4.6-11.5-4.6-17.3-7-5.2-2-9.4-5.9-14.1-8.9s-10.5-5.1-15.7-3.1c0 .4-.1.8-.1 1.1l-3.3-1.5c-3.6-1.7-7.3-3.4-10.2-6.1-3.7-3.5-5.7-8.1-7.2-13.1-.2-.5-.3-1-.5-1.5 6.4-6.5 10.7-14.8 12.4-23.8l.8 2.6c.2.6.4 1.2.6 1.7.4 1.1 1.1 2.1 2 2.8.3.2.5.4.8.5.3.1.6.2.9.2.4.1.8 0 1.2-.1 1.4-.4 2.5-1.4 3-2.8.2-.4.3-.8.4-1.2 0-.3.1-.5.1-.8v-1.8c0-.2-.1-.4-.1-.6v-.2c0-.3-.1-.5-.2-.8v-.2c0-.1-.1-.4-.1-.6s-.1-.3-.1-.4v-.1l-.3-1.2c-.7-3.5-.9-7-.5-10.6.6-5.2 1.6-10.3 2.9-15.4l.2-.9c.1-.4.2-.7.2-1.1.2-.7.3-1.4.5-2.2l.4-1.8.3-1.6v-.2c.6-3.7.7-7.5.4-11.2-.5-5.2-2.1-10.2-5.6-14.1-2.5-2.8-5.8-4.9-8.1-7.8-2.2-2.7-3.4-6.1-5.7-8.8-6.2-7.5-22.3-13.2-32.1-14.2-11.3-1.1-29.4 1.7-38.5 8.4-3.4 2.5-5.7 6-8 9.4-4.3 6.3-9.2 12.5-16.1 16-2.6 1.3-5.6 2.3-7.3 4.6-1 1.6-1.7 3.3-1.9 5.2-1.3 6.5-2 13.1-2.1 19.8v2.5c0 2.5.6 5 1.6 7.2.2.3.3.7.5 1l.1.2c1.2 1.7 2.3 3.6 3.2 5.5.2.5.4 1.1.5 1.7.2 1.5.1 2.9-.3 4.4 0 .2-.1.4-.1.7l-.1.4c0 .1 0 .3-.1.4-.1.4-.1.9-.2 1.3-.2 1.2-.1 2.3.2 3.5.3 1.3 1.1 2.4 2.2 3 .6.3 1.2.5 1.8.6.6.1 1.3.2 1.9.3.8.2 1.6.5 2.3.9.7.3 1.3.7 1.9 1.2.3.3.6.5.8.8.5.6 1 1.3 1.4 1.9.2.4.4.7.6 1.1.7 1.4 1.3 3 1.7 4.5.3.9.5 1.9.7 2.8.1.4.2.8.2 1.3s.1.8.2 1.2c.3 0 .5-.1.8-.2 1.5-.5 2.3-2.2 2.8-3.9.1-.3.1-.5.2-.8.2-1 .5-2.1.7-3.1 3.9 8.4 10.3 15.4 18.3 20.1.3.8.6 1.6.8 2.5 1.3 4.5 1.9 9.3-.3 13.2-1.6 2.8-4.3 4.5-7.4 5.7-.4-.6-1-1.1-1.6-1.4-2.6-1.3-5.8.3-8 2.3-4 3.6-7.3 8.8-12.5 10-1.9.4-4 .4-5.6 1.5-1 1-1.9 2.1-2.6 3.4-2.3 3.3-6.2 5.3-10.2 5.1-1.8-.1-4-.5-5.3.8-.9 1-1 2.6-2 3.5-1.3 1.3-3.5.7-5.4.6-3.6-.1-6.9 2.1-8.9 5.1s-3 6.5-4 10v.1c-.3.2-.5.4-.7.6-1 1-1.7 2.3-2.2 3.6-8.1 18.4-12.9 38.1-14.1 58.2 0 1-.2 1.9-.6 2.8-.4.6-.9 1.1-1.5 1.6-2 2.4-1.6 5.9.8 7.9l.1.1c.3-.5.6-1 1.1-1.4-.1.5-.2.9-.3 1.3-.4 2.9-.4 5.9-.1 8.8.9 13.9 1.9 27.8 2.9 41.7.3 3.9.5 7.8.9 11.8.7 7.6 1.7 15.1 3 22.7.1.3.1.7.2 1-8.1 2.6-15.4 7.3-18.4 15.1-1.1 2.7-1.5 5.6-2.8 8.2-1.4 2.8-3.8 5.1-5.3 7.9-2.7 4.8-2.8 10.6-1.8 16 1.9 10.5 7.5 19.8 15 27.4h-1c-2.4.3-4.8 1.1-6.8 2.5-15.8 9.2-24.8 29-21.5 47.1.7 3.5 1.8 7.1 4.1 9.8 2 2.1 4.5 3.7 7.3 4.5 1.7.5 3.5.9 5.4 1 12.3 1 24.2-4.7 36.5-5.2 4.1-.1 8.2.1 12.2.6 5.9.5 11.9.8 17.9.9 9.7.2 15.1-2.3 21.3-9.6 1.5-1.8 2.8-3.8 3.8-5.9 5.3-.3 11.1-.8 15.3-1.1l.1.6c.2 2 .6 4.3 2.2 5.6.9.6 1.9 1 3 1.2 10.1 2.5 20.3 5 30.7 5 4.9-.1 9.8-.5 14.6-1.1l18.3-2.1c5.3.7 10.6 1.8 15.7 3.4 5.3 1.8 10.2 4.5 15.4 6.6 12 4.9 24.9 6.6 37.7 8.3 2.2.3 4.7.5 6.3-1 2.1-2 1.4-5.3.8-8.1-.2-1.2-.4-2.3-.6-3.5 8.6 2.3 17.1 5.2 25.2 8.8l1.4.6c.4 2.2 2.4 3.9 4.4 6.3.6 1 1.4 1.9 2.2 2.7 1 .6 2 1 3.2 1.1 13.5 2.5 27.3 3.1 40.9 1.8 2.8-.4 5.6-.5 8.4-.3 2.1.3 4.1.7 6.1 1.4l11.6 3.3c8.5 2.4 17.3 4.9 26.1 4.4 1.8-.1 3.6-.4 5.3-.8 7-1.6 13.5-5.5 16.9-11.8 4-8.6 1.8-19.1-.8-28.5z" fill="url(#SVGID_1_)"/><path class="st2" d="M125 649.5c-2.1-4.8-4.1-10.3-2-15.1 1.4-2.8 3.7-5.1 6.7-6.3 2.9-1.2 5.9-1.9 9-2.2 9.7-1.3 19.5-1.4 29.3-.4.7 5.6-.8 11.3-2.1 16.8-1.2 5-1.8 5.7-7 6-3.4.2-33.1 3-33.9 1.2z"/><ellipse class="st3" cx="214.1" cy="577.2" rx="143" ry="40"/><ellipse class="st4" cx="214.1" cy="577.2" rx="143" ry="40"/><path class="st2" d="M239.7 366c-4.9 9.5-13 16.9-22.9 20.8-5.8 2.1-12 3.3-18.2 3.5-6.8.3-13.7-.1-20.1-2.5-8.6-3.1-15.7-9.4-21-16.8s-9-15.8-12.2-24.3c-1.7-4.4-3.3-9.1-2.5-13.8 5.1-1.2 10.8-2.9 13.4-7.5 2.3-3.9 1.6-8.6.3-13.1-.4-1.3-.8-2.5-1.2-3.7-1-2.9-4.4-8.4-2-10.9 1.5-1.6 7.9-2.4 10.1-3.4 6.8-3.1 13.1-7.7 20.6-9.2 6.5-1.3 13.1-.1 19.6 1.3.9.1 1.7.4 2.4.9.8.7 1.5 1.6 1.8 2.7 1.8 4.5 2.9 9.4 4.4 14.1 1.5 4.9 3.5 9.5 7.2 13 2.9 2.7 6.6 4.4 10.2 6.1l8.9 4.1c1.6.6 3 1.5 4.2 2.7 1.2 1.6 1.9 3.5 2 5.4 1.6 10.4-.1 21.1-5 30.6z"/><path class="st4" d="M212.2 304c-14.5 15.1-37.4 18.5-55.7 8.3-.4-1.3-.8-2.5-1.2-3.7-1-2.9-4.4-8.4-2-10.9 1.5-1.6 7.9-2.4 10.1-3.4 6.8-3.1 13.1-7.7 20.6-9.2 6.5-1.3 13.1-.1 19.6 1.3.9.1 1.7.4 2.4.9.8.7 1.5 1.6 1.8 2.7 1.9 4.4 3 9.4 4.4 14z"/><circle class="st2" cx="179.1" cy="270.2" r="46"/><path class="st5" d="M319.2 419.5l-3.8-22.9c-1.9-11.5-3.9-23.2-9.2-33.5-3.5-6.8-9.1-13.2-16.6-14.6-1.5-.1-2.9-.5-4.3-1-2.2-1.1-3.4-3.4-5.1-5.2-4.4-4.5-11.5-4.6-17.3-6.9-5.2-2-9.4-5.9-14.1-8.8s-10.6-5-15.8-3.1c-.8 9-1.7 18.1-5.5 26.3-9.2 19.7-32.5 28.2-52.2 19-2.5-1.2-4.9-2.6-7.1-4.2-8.9-6.7-14.6-17.1-17.3-27.9-.6-2.6-1.4-5.7-3.8-6.9-2.6-1.3-5.8.3-8 2.2-4 3.6-7.3 8.7-12.5 9.9-1.9.4-4 .4-5.6 1.5-1.1 1-1.9 2.1-2.6 3.4-2.3 3.3-6.2 5.2-10.2 5.1-1.8-.1-4-.5-5.3.8-.9 1-1 2.6-2 3.5-1.3 1.3-3.5.7-5.4.6-3.6-.1-6.9 2.1-8.9 5s-3 6.4-4 9.9c10.9 24.3 20.9 48.7 31.9 73 .5.9.8 1.9.8 3-.2 1.1-.7 2.1-1.4 3-5.4 8.6-5.2 19.4-4.6 29.6s1.3 20.8-3.2 29.9c-1.2 2.5-2.8 4.8-4 7.3-2.7 5.6-3.7 23.7-2.1 29.7h226.1c-4.3-11.8-2.7-35.6-1.8-48.2.6-8.8-1-17.6-1.7-26.4-1.5-18.2-.4-35.2-3.4-53.1z"/><path class="st2" d="M65.4 445.6c-.4 2.9-.4 5.8-.1 8.7l2.9 41.3c.3 3.9.5 7.8.9 11.6.7 7.5 1.7 15 3 22.5.1 2.2 1.9 3.9 4.1 3.9 12.7 2.7 25.7 2.6 38.6 1.8 19.7-1.1 39.4-3.6 59.1-3.2 5.1.1 11 0 14.1-4s1.3-10.5-2.7-13.7-9.5-4-14.6-4c-6.8-.1-13.7.9-20.5.5-6.3-.4-12.4-1.9-18.4-3.4l-17-4.2c.7-5.1 2.6-10 4.5-14.9 3.3-8.7 6.5-17.6 6.5-26.9s-3.4-19.1-11.1-24.4c-6.3-4.4-14.3-5.2-22-5-5.6.2-15.1-1.2-20.2 1-4.1 1.9-6.4 8.5-7.1 12.4z"/><path class="st3" d="M330.8 540c3.3-1.3 7-.8 10.6-.3 11.5 1.6 23.1 3.2 33.8 7.8 5 2.1 9.8 5 13.1 9.2 3 3.8 4.8 8.4 6.4 13l3.8 10.5c1.5 4 2.9 8.1 3.4 12.3 1.2 12.6-7.4 24.5-18.2 31s-23.6 8.9-36 11.3-24.9 5.1-37.3 8c-5.8 1.5-11.6 2.6-17.5 3.5-13.2 1.5-27.1-.7-39.7 3.7-5 1.8-9.9 4.3-15.1 5.6-3.4.7-6.9 1.3-10.4 1.6l-23.8 2.7c-4.8.6-9.7 1-14.6 1.1-10.4 0-20.6-2.5-30.7-4.9-1.1-.2-2.1-.6-3-1.2-1.6-1.3-1.9-3.5-2.2-5.5-1-8.9-1.9-17.9-2.7-26.8-.2-2.9-.4-6.1 1.2-8.5 2-3 5.9-3.9 9.5-4.5 15.1-2.5 30.4-3.5 45.7-3.2 5.8-5.8 15.4-5.8 23-9 2.8-1.3 5.5-2.8 8.1-4.4 13.6-7.9 28.8-12.7 44.5-14.1 3.1-.1 6.1-.5 9.1-1.3 5.9-1.8 11.3-6.8 17.3-5.6.8-2.1 1.3-4.8 3-6.3.9-.7 1.9-1.2 2.7-2 1.7-1.7 1.8-4.3 1.6-6.7s-.8-4.8-.2-7.1c.3-.9.6-1.7 1.1-2.5 2.9-5.2 7.5-7.9 13.5-7.4z"/><path d="M330.8 540c3.3-1.3 7-.8 10.6-.3 11.5 1.6 23.1 3.2 33.8 7.8 5 2.1 9.8 5 13.1 9.2 3 3.8 4.8 8.4 6.4 13l3.8 10.5c1.5 4 2.9 8.1 3.4 12.3 1.2 12.6-7.4 24.5-18.2 31s-23.6 8.9-36 11.3-24.9 5.1-37.3 8c-5.8 1.5-11.6 2.6-17.5 3.5-13.2 1.5-27.1-.7-39.7 3.7-5 1.8-9.9 4.3-15.1 5.6-3.4.7-6.9 1.3-10.4 1.6l-23.8 2.7c-4.8.6-9.7 1-14.6 1.1-10.4 0-20.6-2.5-30.7-4.9-1.1-.2-2.1-.6-3-1.2-1.6-1.3-1.9-3.5-2.2-5.5-1-8.9-1.9-17.9-2.7-26.8-.2-2.9-.4-6.1 1.2-8.5 2-3 5.9-3.9 9.5-4.5 15.1-2.5 30.4-3.5 45.7-3.2 5.8-5.8 15.4-5.8 23-9 2.8-1.3 5.5-2.8 8.1-4.4 13.6-7.9 28.8-12.7 44.5-14.1 3.1-.1 6.1-.5 9.1-1.3 5.9-1.8 11.3-6.8 17.3-5.6.8-2.1 1.3-4.8 3-6.3.9-.7 1.9-1.2 2.7-2 1.7-1.7 1.8-4.3 1.6-6.7s-.8-4.8-.2-7.1c.3-.9.6-1.7 1.1-2.5 2.9-5.2 7.5-7.9 13.5-7.4z" opacity=".05"/><path class="st7" d="M134.2 655.7c-6.2 7.2-11.6 9.7-21.3 9.5-6-.1-11.9-.5-17.9-.9-4.1-.4-8.2-.6-12.2-.6-12.3.5-24.3 6.1-36.6 5.1-1.8-.1-3.6-.5-5.4-1-2.8-.8-5.3-2.3-7.3-4.4-2.4-2.7-3.5-6.2-4.1-9.7-3.3-17.9 5.7-37.5 21.5-46.6 2.1-1.3 4.4-2.2 6.8-2.4 2.4 0 4.8.5 6.9 1.5l.2.1c6.4 2.6 12.2 6.5 17.1 11.4.7.9 1.6 1.6 2.6 2.1 1 .4 2 .6 3.1.6l13.1.8c2.2.1 4.4.4 6.6.9 2.4.8 4.7 1.8 6.9 3 7.1 3.2 14.9 4 22.6 5.2.7 0 1.4.3 2 .8.3.4.5.8.6 1.3 2.3 8.2.3 16.9-5.2 23.3z"/><path class="st4" d="M64.9 606.3c-5.1 4.9-9.5 10.4-13.2 16.4-5.8 10-9.5 21.1-10.7 32.5-.5 4.2-.5 8.4-.1 12.6-2.8-.8-5.3-2.3-7.3-4.4-2.4-2.7-3.5-6.2-4.1-9.7-3.3-17.9 5.7-37.5 21.5-46.6 2.1-1.3 4.4-2.2 6.8-2.4 2.4 0 4.8.5 6.9 1.5l.2.1z"/><path class="st2" d="M319.4 631.2c7.4-.2 15.6-.6 21 4.4 5.1 4.7 5.8 12.4 6.2 19.3l.4 8.1c.1 2.5.2 5-.8 7.3-1.8 4-6.6 5.9-11 5.7s-8.5-2.2-12.5-3.9c-10.9-4.7-22.3-8.3-34-10.7.4-5.6 1-11.1 1.9-16.7.6-3.8.7-10.2 3.3-13.4 2.7-3.4 6.2-1.5 9.9-.9 5.1.7 10.3 1 15.6.8z"/><path class="st3" d="M125.1 550.1c0 1-1.6 0-1.7-1.1-1.1-8.1-7.5-14.8-15-18s-16-3.4-24.1-2.6c-12.3 1.2-26 5.8-30.5 17.3-1.1 2.7-1.5 5.6-2.8 8.2-1.4 2.8-3.8 5.1-5.3 7.8-2.7 4.7-2.8 10.5-1.8 15.9 2.6 14.3 12.4 26.5 24.2 35s25.7 13.5 39.5 18.1c36.5 12 74 21 112 26.8 6.2.9 12.4 1.8 18.3 3.8 5.3 1.8 10.2 4.4 15.4 6.5 12 4.8 24.9 6.5 37.7 8.2 2.2.3 4.7.5 6.3-1 2.1-1.9 1.4-5.3.8-8.1-2.2-10.5-.3-21.5 5.1-30.8 2.1-3.6 4.9-7.3 4.5-11.5-.5-4.9-5.3-8.3-10.1-9.1s-9.7.4-14.6 1c-1.7.2-3.5.4-5-.5-.7-.5-1.4-1.1-1.9-1.7-6.8-6.6-17.2-8-25.5-3.6-1.8 1-4.5-1.2-6.4-2.1l-21-9.5c-24.2-10.9-48.4-21.9-74-28.8-2-.4-4-1.2-5.7-2.4-1.3-1-2.2-2.4-3.4-3.5-2.6-2.4-6.1-3.4-9.2-5.1s-6.5-5.8-5.8-9.2z"/><path class="st7" d="M449.3 680.8c-3.4 6.2-9.9 10.1-16.9 11.7-1.8.4-3.5.7-5.3.8-8.9.5-17.6-1.9-26.1-4.3l-11.6-3.3c-2-.6-4-1.1-6.1-1.4-2.8-.2-5.6-.1-8.4.3-13.7 1.3-27.5.7-41-1.8-1.1-.1-2.2-.5-3.2-1.1-.8-.8-1.6-1.7-2.2-2.7-3.1-3.8-6.5-6-2.8-11 2.1-2.9 6.1-4.3 7.8-7.7s.6-8.1-.4-11.5c-1.4-4.8-5.8-6.8-7.4-11.2-1.2-3.3.8-7.1 3.8-8.9s6.7-1.9 10.2-1.5 6.9 1.4 10.4 1.7c10.3.8 20.8-4.5 30.6-1.5 2.2.7 4.2 1.7 6.4 2.3 4.3 1 8.8.6 12.8-1.1 1.4-.5 2.9-1.2 4.3-1.8 2.7-1.4 5.6-2.4 8.5-3.1 9.6-1.7 18.5 5 25.8 11.5 2.5 2.1 4.7 4.5 6.5 7.1 2 3.1 3.1 6.8 4 10.3 2.7 9.2 4.9 19.7.3 28.2z"/><path class="st4" d="M449.3 680.8c-3.4 6.2-9.9 10.1-16.9 11.7 2.7-5.3 4-11.2 3.5-17.2-.6-9.5-4.8-18.5-10.1-26.4-3.3-4.9-7-9.4-11.1-13.6-3.2-3.2-7.1-5.7-10.5-8.7 2.7-1.4 5.6-2.4 8.5-3.1 9.6-1.7 18.5 5 25.8 11.5 2.5 2.1 4.7 4.5 6.5 7.1 2 3.1 3.1 6.8 4 10.3 2.7 9.4 4.9 19.9.3 28.4z"/><path class="st5" d="M82.1 372.3c-1 1-1.7 2.2-2.2 3.5-8.1 18.2-12.9 37.7-14.1 57.6 0 1-.2 1.9-.7 2.8-.4.6-.9 1.1-1.5 1.6-2 2.3-1.7 5.8.7 7.8.1.1.2.2.3.2 1.7-3.1 5.6-4.1 9.1-4.4 16.8-1.3 33.2 6.5 50.1 5.9-1.2-4.1-2.9-8.1-3.9-12.2-4.3-18.5 6.4-38.6-.2-56.4-1.3-3.6-3.5-7.1-6.9-8.6-1.4-.6-2.9-1-4.4-1.2-4.3-.8-12.7-4.1-16.9-2.7-1.5.5-2.1 1.9-3.4 2.8-1.9 1.2-4.4 1.6-6 3.3z"/><path class="st7" d="M125.5 408.7h207.1c4.4 0 8 3.6 8 8v126.1c0 4.4-3.6 8-8 8H125.5c-4.4 0-8-3.6-8-8V416.6c.1-4.4 3.6-7.9 8-7.9z"/><circle cx="228.6" cy="479.7" r="6" fill="#fff"/><path class="st7" d="M147.3 195.5c-3.4 2.4-5.7 5.9-8 9.3-4.3 6.2-9.2 12.4-16.1 15.8-2.6 1.3-5.6 2.3-7.3 4.6-1 1.5-1.7 3.3-1.9 5.1-1.3 6.5-2 13-2.1 19.6 0 3.3.1 6.7 1.6 9.6 1.4 2.8 3.8 5.2 4.3 8.2.4 2.4-.5 4.8-.8 7.1s.2 5.2 2.4 6.4c1.2.4 2.4.7 3.7.9 6.6 1.5 8.9 9.3 9.9 15.7 2.3-.1 3.3-2.7 3.8-4.8l6.9-30.8c.8-3.3 2-7.2 5.3-8.4 2.2-.8 4.7-.1 7 .1 9.1.8 16.9-6.3 25.8-8.3 2.9-.6 5.8-.8 8.7-.6 7.1.4 15.3 3.3 16.8 9.8.3 1.1.4 2.4 1.4 2.9s2.1.1 3.1 0c4.5-.5 7.1 4.6 8.4 8.7l4.7 15c.7 2.3 1.9 4.9 4.3 5.2 2.3.3 4.2-1.9 4.5-4s-.4-4.3-.9-6.5c-2.2-9.9 1.2-19.9 3.2-29.8s2.4-21.2-4.5-28.8c-2.5-2.8-5.8-4.8-8.1-7.7-2.2-2.7-3.4-6.1-5.7-8.7-6.3-7.4-22.3-13.1-32.1-14-11-1-29.2 1.8-38.3 8.4z"/><path d="M229.4 279.8c-2.5-.3-3.6-3-4.3-5.2-1.6-5-3.1-10-4.7-15-1.3-4.1-3.9-9.2-8.4-8.7-1.1.1-2.2.5-3.1 0s-1.1-1.8-1.4-2.9c-1.5-6.6-9.7-9.5-16.8-9.8-2.9-.2-5.8 0-8.7.6-8.9 2-16.7 9-25.8 8.3-2.4-.2-4.8-.9-7-.1-3.4 1.2-4.6 5-5.3 8.4l-6.9 30.8c-.5 2.1-1.5 4.7-3.8 4.8-1-6.4-3.2-14.2-9.9-15.7-1.3-.1-2.5-.4-3.7-.9-.9-.5-1.6-1.2-1.9-2.1-.2.9-.4 1.9-.5 2.8-.3 2.4.2 5.2 2.4 6.4 1.2.4 2.4.7 3.7.9 6.6 1.5 8.9 9.3 9.9 15.7 2.3-.1 3.3-2.7 3.8-4.8l6.9-30.8c.8-3.3 2-7.2 5.3-8.4 2.2-.8 4.7-.1 7 .1 9.1.8 16.9-6.3 25.8-8.3 2.9-.6 5.8-.8 8.7-.6 7.1.4 15.3 3.3 16.8 9.8.3 1.1.4 2.4 1.4 2.9s2.1.1 3.1 0c4.5-.5 7.1 4.6 8.4 8.7 1.6 5 3.1 10 4.7 15 .7 2.3 1.9 4.9 4.3 5.2 2.3.3 4.2-1.9 4.5-4 .2-1.8-.1-3.6-.6-5.3-.7 1.4-2.3 2.3-3.9 2.2zm-111.6-19c-.5-3-3-5.4-4.3-8.2-.9-1.9-1.4-3.9-1.5-6 0 1.1-.1 2.2-.1 3.4 0 3.3.1 6.7 1.6 9.6 1.1 2.3 2.9 4.3 3.9 6.6.4-1.8.6-3.6.4-5.4zm118.5-21.3c-1.8 8.7-4.7 17.6-3.8 26.3.6-6.5 2.4-12.9 3.8-19.3 1.1-4.9 1.5-9.9 1.2-14.8-.3 2.6-.7 5.2-1.2 7.8z" opacity=".1"/><g opacity=".8"><path d="M330 290.5h625.1m-569.5 0s29.9 4.1 14.4-27.9 42-26 42-26m142.6 53.9s29.9-4.1 14.4 27.9 42 26 42 26m230.3-53.9s-29.9-4.1-14.4 27.9-42 26-42 26m0 0h-165" fill="none" stroke="#3f3d56" stroke-width="3" stroke-miterlimit="10"/><circle class="st12" cx="442.3" cy="236.3" r="18.3"/><circle class="st13" cx="641.3" cy="344.1" r="18.3"/><circle class="st13" cx="737" cy="344.1" r="18.3"/><path class="st5" d="M330 272.2c10.1 0 18.3 8.2 18.3 18.3s-8.2 18.3-18.3 18.3-18.3-8.2-18.3-18.3 8.3-18.3 18.3-18.3zm112.3 0c10.1 0 18.3 8.2 18.3 18.3s-8.2 18.3-18.3 18.3-18.3-8.2-18.3-18.3 8.2-18.3 18.3-18.3zm72.4 0c10.1 0 18.3 8.2 18.3 18.3s-8.2 18.3-18.3 18.3c-10.1 0-18.3-8.2-18.3-18.3s8.3-18.3 18.3-18.3zm217.3 0c10.1 0 18.3 8.2 18.3 18.3s-8.2 18.3-18.3 18.3-18.3-8.2-18.3-18.3 8.3-18.3 18.3-18.3zm218.5 0c10.1 0 18.3 8.2 18.3 18.3s-8.2 18.3-18.3 18.3-18.3-8.2-18.3-18.3 8.2-18.3 18.3-18.3zm-89.4 0c10.1 0 18.3 8.2 18.3 18.3s-8.2 18.3-18.3 18.3-18.3-8.2-18.3-18.3 8.2-18.3 18.3-18.3zM299.4 122.7h61.2v42.2h-61.2v-42.2z"/><path class="st12" d="M411.9 122.7h61.2v42.2h-61.2v-42.2z"/><path class="st13" d="M610.5 122.7h61.2v42.2h-61.2v-42.2z"/></g></svg>