<svg xmlns="http://www.w3.org/2000/svg" viewBox="0 0 1130 868.1"><path opacity=".1" d="M1108.1 197.7c-11.5-22.4-26.7-42.8-44.8-60.4l-621.9-5.2 512-60.8c-33.5-11.2-68.6-17.1-103.9-17.4C800.3 20.2 736.9 0 667.8 0c-62 0-119.3 16.3-166.1 43.9-39.7-17.3-85-27.1-133.1-27.1-138.2 0-253.3 80.9-279.1 188.2l1018.6-7.3zm21.9 89.9c0-29.4-6.7-58.4-19.4-84.9L32.9 298.4c-11 16.6-19.5 34.8-25.3 53.9l333.8 42.1L0 425c10.3 121.5 133.4 217.4 283.9 217.4 75.7 0 144.5-24.3 195.5-63.9 51.1 40.4 120.6 65.2 197.2 65.2 113.6 0 211.6-54.7 257.3-133.7 91.6-24.6 162.7-86.3 187.1-163.5l-422.1-55.3H1130v-3.6z"/><ellipse opacity=".1" cx="500" cy="855.2" rx="290" ry="12.9"/><path fill="#C8CAD7" d="M672.1 832.4v7.8H440.8v-6.3c39.4-14.6 59.4-58.3 44.9-97.7-7-18.9-21.3-34.3-39.6-42.7h224.5c-38.2 17.5-54.9 62.6-37.5 100.7 7.8 17.1 21.7 30.7 39 38.2z"/><path opacity=".1" d="M670.5 693.5c-20.9 9.6-36.3 28.1-42 50.4H488.1c-5.7-22.3-21.1-40.8-42-50.4h224.4z"/><path fill="#C8CAD7" d="M176 653.7v43.9c0 24.2 17.7 43.9 39.6 43.9H896c21.9 0 39.6-19.7 39.6-43.9v-43.9H176z"/><path opacity=".1" d="M672.1 832.4v7.8H440.8v-6.3c6.3-2.4 12.3-5.6 17.8-9.5h199.2c4.5 3.1 9.3 5.8 14.3 8z"/><path fill="#C8CAD7" d="M373.9 826.8H739c5.2 0 9.5 4.3 9.5 9.5v4.2c0 5.2-4.3 9.5-9.5 9.5H373.9c-5.2 0-9.5-4.3-9.5-9.5v-4.2c0-5.2 4.3-9.5 9.5-9.5z"/><path fill="#474157" d="M935.7 172.6c0-21.9-17.8-39.6-39.6-39.6H215.7c-21.9 0-39.6 17.7-39.7 39.6v489.6h759.7V172.6z"/><path fill="#4C4C78" d="M915 190.3V611c0 10.8-8.7 19.5-19.5 19.5H216.3c-10.8 0-19.5-8.7-19.5-19.5V190.3c0-10.8 8.7-19.5 19.5-19.5h679.2c10.7 0 19.5 8.7 19.5 19.5z"/><circle fill="#FFF" cx="555.8" cy="151.9" r="9.2"/><circle fill="#FFF" cx="555.8" cy="699.4" r="22.6"/><path fill="#FFF" d="M348.5 180.5v449.9H216.3c-10.8 0-19.5-8.7-19.5-19.5V190.3l.7-2.6 1.9-7.1h149.1z"/><path fill="#4C4C78" d="M365.5 187.6v40.5H196.8v-37.8l.7-2.6 168-.1z"/><path fill="#C8CAD7" d="M915 190.3H196.8c0-10.8 8.7-19.5 19.5-19.5h679.2c10.7 0 19.5 8.7 19.5 19.5z"/><circle fill="#EDEDF4" cx="216.3" cy="180.5" r="4.9"/><circle fill="#EDEDF4" cx="230.9" cy="180.5" r="4.9"/><circle fill="#EDEDF4" cx="245.5" cy="180.5" r="4.9"/><path d="M222 205.5h101.3v9.3H222v-9.3z"/><path opacity=".5" d="M222 251h101.3v9.3H222V251zm0 32.1h101.3v9.3H222v-9.3zm0 32.2h101.3v9.3H222v-9.3zm0 32.2h101.3v9.3H222v-9.3zm0 32.2h101.3v9.3H222v-9.3zm0 32.1h101.3v9.3H222v-9.3zm0 32.2h101.3v9.3H222V444z"/><path opacity=".5" fill="#DCE0ED" d="M431.5 239.8h449v1.5h-449v-1.5zm0 34.8h449v1.5h-449v-1.5zm0 34.9h449v1.5h-449v-1.5zm0 34.8h449v1.5h-449v-1.5zm0 34.8h449v1.5h-449v-1.5z"/><path opacity=".5" d="M880.5 380.6H430.9v-68.5l41.2 20.3 42.7 5.8 37.4-11.3 45.2-35 22.7-13.1 16.6-3.2 15.9.9 26.1 12.9 35.5 22.6 27.9 3.6 22.1-7.6 46.8-38.4 23.9-8.5 25 3.9 20.4 11.8v103.8z"/><path d="M509.3 338.2c-40.5 0-77.9-24.8-78.4-25.1l1.1-1.7c.6.4 58.2 38.5 107.1 19.4 17.9-7 30.5-17.8 42.9-28.2 12.8-10.9 25-21.3 41.5-25.7 19-5.1 39.7-.5 55.4 12.4 13.4 11 40.2 28.8 68.5 23.5 14.4-2.7 26.6-13.2 39.5-24.4 24.6-21.4 50.2-43.5 94.3-11.8l-1.2 1.6c-42.8-30.8-67.8-9.2-91.8 11.7-13.1 11.3-25.4 22-40.4 24.9-29.1 5.5-56.4-12.6-70.2-23.9-15.2-12.5-35.3-17-53.6-12-16.1 4.4-28 14.5-40.7 25.3-12.4 10.6-25.3 21.5-43.4 28.6-9.8 3.7-20.2 5.5-30.6 5.4z"/><circle cx="647.5" cy="275.4" r="11.1"/><linearGradient id="a" gradientUnits="userSpaceOnUse" x1="340.515" y1="-8.774" x2="340.515" y2="413.488" gradientTransform="matrix(1 0 0 -1 -35 849.94)"><stop offset="0" stop-color="gray" stop-opacity=".25"/><stop offset=".54" stop-color="gray" stop-opacity=".12"/><stop offset="1" stop-color="gray" stop-opacity=".1"/></linearGradient><path fill="url(#a)" d="M368.6 517.2c-15.2-8.8-21-10.9-21-10.9l-.3-.2c-1.7-1.3-3-2.9-3.8-4.8v-1 .1c.3-4.6 3.5-8.9 6.7-12.5 2.7-3.1 5.3-6.3 8-9.4.9-1 1.6-2.1 2.1-3.3.2-.7.2-1.3.2-2v-.8c0-2.3-.1-4.7-.2-7-.1-2-.6-4.6-2.6-5-1.1-.2-2.5.2-3-.8-.2-.4-.2-.8-.1-1.2.4-1.6.6-3.2.8-4.8 0-.8-.1-1.6-.3-2.4-1.2-3.4-5.3-4.8-8.9-5.4s-7.6-1.2-9.9-4c-.6-.9-1.3-1.8-2-2.7-1-.9-2.3-1.6-3.7-1.8-4.5-1.1-9.2-.7-13.4 1.2-1.7.8-3.5 1.8-5.4 1.7s-3.7-1.5-5.6-1.8c-3.2-.5-6.2 1.8-7.8 4.5-.9 1.6-1.4 3.5-1.4 5.4v.3c0 2 .7 4 2.1 5.5 1.4 1.4 3.4 2.4 4 4.3.2.8.2 1.6.4 2.3 0 .1.1.2.1.3l-.1.1c-3.2 4.2-5 9.3-5 14.6.1 10.5 6.9 19.8 17 23v.7c.1 3-1.1 6-3.3 8l-21.6 8.7s-13-1.5-17.7 17.5c-.8 3.2-1 6.4-.8 9.6.2 2.9-.2 7.9-3.6 14.4-5.3 10.4-4.1 34.4 6.8 36.8 10.3 2.2 14.3 1.3 14.7 1.2v.4c-.2 4.5-1.8 43.3-7.7 48-1.6 1.3-1.3 2.2 0 2.8v.7c-.2 2.8-1.1 13.6-5.1 19.8-4.6 7.1-4 48.1-4 48.1l-3.1 24.2s1.9 14.9 0 17.5c-1.7 2.3-4 57.6-4.5 69.6h-.2c-1.9.1-3.7 1.2-4.7 2.8-2.8 3.9-11.7 11.5-11.7 11.5-1.9 2.8-9.1 5.4-12.9 6.6l-1.5.6c-1.4.8-2.6 2-3.3 3.4-.5.9-.6 1.9-.3 2.8 1 2.4 21.1 4 26.1 1.7 4-1.9 19.8-4.3 26.4-5.3 2.5-.3 4.4-2.2 4.7-4.7.1-.8-.1-1.7-.6-2.3-1.3-1.6-1.9-5.8-2.2-8.6.5-.2 1-.5 1.5-.9-.5-8.6.7-17.3 3.6-25.4 4.8-12.8 6.3-36.5 5.1-51.9 0 0 14.8-63.6 26.4-69.5.2.2 5.8 7.5 6.5 29.9.7 22.8 9 37.7 9 37.7s-3.6 38.7 0 53.1l-4.8 22.8c-.2-.2-.4-.3-.6-.5 0 0 .1.6.3 1.7l-.1.5h.2c.5 2.8 1.3 7.8 1 10.7-.2 1.7-.6 3.9-1 6.2-.5 3.5-.6 6.9 1.2 7.7 3 1.2 20.8 2.9 23.9-1 1.4-1.6 1.7-3.9.9-5.9-.2-.5-.5-1-.9-1.5 0 0-4.7-7.7-3.4-13.2.2-1.1 0-2.2-.6-3.1.7-8.6 2.1-17.2 4.2-25.6 3-11.4 9.4-36.4 4.7-52.9-.2-.6-.4-1.3-.6-1.9-2.7-9-3.6-18.4-2.7-27.8-1.7-8-1.7-16.2 0-24.2 2.9-13.3 4.9-26.3 4.9-26.3s1.6-17.5.2-28.3l-.1-.7.8-.2s-4.1-18.3-5.6-29.9c-.3-2.8-.8-6.2-1.3-9.9 1.3-.2 2.7-.6 4-1 13.1-4.5 17.2-45.3 17.2-45.3v-12.9c.2.1 4.6-19.7-10.7-28.5zm-97.4 315l-.6-.3.6.3z"/><path fill="#65617D" d="M360.7 752.7c5.7 16.3-1 42.8-4 54.6-2 8.5-3.4 17.2-4 26-6.9 1.2-14 1-20.8-.5l5-24.3c-3.5-14.4 0-53 0-53s-8-14.9-8.7-37.6c-.7-22.3-6.2-29.5-6.4-29.8-11.4 5.9-25.8 69.3-25.8 69.3 1.2 15.4-.2 39-5 51.8-2.9 8.1-4.1 16.7-3.5 25.3-1.6 1.4-4 1.6-6.4 1.2-6.8-1.1-14.8-6.9-14.8-6.9s2.6-69 4.5-71.6 0-17.5 0-17.5l3.1-24.1s-.5-40.9 4-48c3.9-6.1 4.8-16.9 5-19.7v-.7l6.8-8.2s66.2-5 71.1 0c1.2 1.2 2 4 2.4 7.5 1.4 10.7-.2 28.2-.2 28.2s-2 13-4.8 26.2c-1.7 7.9-1.7 16.2 0 24.1-1 9.3-.1 18.7 2.5 27.7z"/><path fill="#A27772" d="M356.6 856.3c-3 3.9-20.3 2.3-23.3 1-1.8-.8-1.7-4.1-1.2-7.6.3-2.2.8-4.5.9-6.2.5-4.3-1.4-12.9-1.4-12.9s3.9 4.1 4.8 0c.4-1.6 1.7-2.8 3.4-3.2 2-.6 4.2-.5 6.1.4 3.1 1.3 8.2 4.2 7.3 8-1.3 5.4 3.3 13.1 3.3 13.1.4.5.6 1 .9 1.5.9 2 .6 4.3-.8 5.9z"/><path opacity=".1" d="M356.6 856.3c-3 3.9-20.3 2.3-23.3 1-1.8-.8-1.7-4.1-1.2-7.6 1.9.9 5 1.6 10.3 1.1 1.2-.1 2.5-.2 3.7-.1 3.8.2 7.5.1 11.3-.2.9 1.9.6 4.2-.8 5.8zM296 757.4c1.2 15.4-.2 39-5 51.8-2.9 8.1-4.1 16.7-3.5 25.3-1.6 1.4-4 1.6-6.4 1.2 1.4-10 7.5-52.9 11.4-86.9 4.4-38.7 25.2-65.2 25.2-65.2l4.1 4.5c-11.4 5.9-25.8 69.3-25.8 69.3z"/><path fill="#FBBEBE" d="M349.5 509l-2.9 14.2-14.1 23.8-17.4-7.5s-23.7-24.8-8.8-28.4c1.8-.4 3.5-1.1 5-2.2 2.9-2.2 3.8-5.4 3.9-8.5-.1-3.5-.9-7-2.4-10.2l30.5-9.6c-1.3 4-2 8.2-2.2 12.4-.2 8.3 2.9 12.4 5.4 14.4.8.7 1.8 1.2 3 1.6z"/><path opacity=".1" d="M343.1 480.6c-1.3 4-2 8.2-2.2 12.4-6.3 7.5-16.6 10.4-25.9 7.4-.1-3.5-.9-7-2.4-10.2l30.5-9.6z"/><path fill="#FBBEBE" d="M346.6 476.7c0 13.3-10.8 24.1-24.1 24.1s-24.1-10.8-24.1-24.1 10.8-24.1 24.1-24.1 24.1 10.7 24.1 24v.1z"/><path opacity=".1" d="M349.5 509l-2.9 14.2-14.1 23.8-17.4-7.5s-23.7-24.8-8.8-28.4c1.8-.4 3.5-1.1 5-2.2-2.7 7.4 8.4 22.8 8.4 22.8 1.3 1.9 4.3.7 4.3.7 7.1-1.1 20.3-21.6 22.5-25.1.8.8 1.8 1.3 3 1.7zm13.6 137.4c-4.2 1-27.4 6.1-36.2 4.8-9.7-1.4-28.5-2.4-28.5-2.4s-12 .6-15.7-1v-.7l6.8-8.2s66.2-5 71.1 0c1.4 1.3 2.1 4.1 2.5 7.5z"/><path fill="#FF748E" d="M319.6 532.3s-12.5-17.3-7.8-24l-21.1 8.6s-12.7-1.5-17.3 17.4c-.7 3.1-1 6.4-.8 9.6.2 2.8-.2 7.9-3.5 14.4-5.2 10.4-4 34.3 6.6 36.6s14.4 1.2 14.4 1.2-1.4 43.3-7.6 48.2 15.7 3.8 15.7 3.8 18.8 1 28.5 2.4 36.9-5 36.9-5-4-18.2-5.4-29.8-4.7-36.2-4.7-36.2l24.1-32.7s4.3-19.7-10.6-28.5-20.5-10.9-20.5-10.9-15 24.4-22.8 25.6c.1.1-2.8 1.3-4.1-.7z"/><path opacity=".1" d="M291.9 539.2s-.2 7.8 1.2 10.9 6.6 20.1 6.6 20.1h-11.8s6.4-6.8 5.9-10.2-1.9-20.8-1.9-20.8z"/><path fill="#FBBEBE" d="M326.9 598s-26.1-6.4-28.5-11.8-9.1-17.6-9.1-17.6l2.8-3.7 12.7 10s15.1 12 22.2 13.2-.1 9.9-.1 9.9z"/><path opacity=".05" d="M326.9 598s-26.1-6.4-28.5-11.8-9.1-17.6-9.1-17.6l2.8-3.7 12.7 10s15.1 12 22.2 13.2-.1 9.9-.1 9.9z"/><path fill="#FBBEBE" d="M349.5 567.3v14.2h-2.3c-11.2 0-22.3 2.9-32.1 8.3l-4.3 2.4-1.1.6-7.3-16.5 6.9-6.2h.4c1.7.2 8.9.8 12-.3s6.5-4.1 15.1-1.9c4.2 1.1 7.9 5.8 12 4.3l.7-4.9z"/><path opacity=".1" d="M372.3 541.6l4.7 5.3v12.9s-4 40.7-16.8 45.2-35.5-2.6-35.5-2.6-5.9-15.6-3.1-16.5 24.3-6.6 24.3-6.6-.3-23.8 4.4-30.9c0 0-3.1-22.2 7.6-22.7s14.4 15.9 14.4 15.9z"/><path fill="#FF748E" d="M373 541.6l4.7 5.3v12.9s-4 40.7-16.8 45.2-35.5-2.6-35.5-2.6-5.9-15.6-3.1-16.5 24.3-6.6 24.3-6.6-.3-23.8 4.4-30.9c0 0-3.1-22.2 7.6-22.7s14.4 15.9 14.4 15.9z"/><path opacity=".1" d="M340 486.9c.2-1.6 0-3.1-.5-4.6-.6-1.5-2.1-2.4-3.7-2.2-2 .5-2.9 3.1-4.9 3.7-1.7.5-3.5-.6-4.3-2.2-.7-1.6-1-3.4-.8-5.1v-5.9c0-2.1-.1-4.5-1.4-6.2-1.6-2.1-5.5-3-8.1-2.9-1.7 0-3.4.7-4.6 1.9-1.3 1.3-3.1 1.9-4.9 1.7-1.6-.2-2.9-1.4-3.4-2.9v-.1c8-10.6 23.2-12.7 33.8-4.7 10.6 8 12.7 23.2 4.7 33.8-.8 1-1.7 2-2.6 2.9.3-2.4.6-4.8.7-7.2z"/><path fill="#7C5C5C" d="M306.7 464.4c-1.6-.2-2.9-1.4-3.4-2.9-.2-.8-.1-1.6-.4-2.3-.5-1.9-2.5-2.8-3.9-4.2-2.7-2.8-2.5-7.5-.6-10.9 1.5-2.7 4.5-5 7.6-4.5 1.9.3 3.6 1.7 5.5 1.8s3.6-.9 5.3-1.7c4.1-1.9 8.7-2.3 13.1-1.2 1.3.3 2.6.9 3.6 1.8.7.9 1.3 1.8 1.9 2.7 2.2 2.8 6.1 3.4 9.7 4s7.5 2 8.6 5.4c.8 2.2 0 4.7-.4 7-.2.5-.1 1 .1 1.5.5.9 1.9.5 3 .7 2 .4 2.5 3 2.6 5 .1 2.3.2 4.7.2 7 .1.9 0 1.7-.2 2.6-.4 1.2-1.1 2.3-2 3.3l-7.8 9.4c-3.5 4.2-7.1 9-6.4 14.4-1.6.7-3.6-.7-4.1-2.4s-.1-3.6.3-5.3c.6-3 1-6.1 1.2-9.2.2-1.6 0-3.1-.5-4.6-.6-1.5-2.2-2.4-3.8-2.2-2 .5-2.9 3.1-4.9 3.7-1.7.5-3.5-.6-4.3-2.2-.7-1.6-.9-3.4-.8-5.1v-5.9c0-2.1-.1-4.5-1.4-6.2-1.6-2.1-5.5-3-8.1-2.9-1.7 0-3.4.7-4.6 1.9-1.5 1.1-3.3 1.7-5.1 1.5z"/><path opacity=".1" d="M312.1 538.6l7.4 30.4c.1 0 5.9 0-7.4-30.4zm25.3-5.1s-9.7 15.9-5.9 32.3l1.8.1s-3.2-7.6 4.1-32.4zm6.2 89.9s11.9-3.9 12.8 5.2c0 0-2.3-6.3-12.8-5.2zm-34.4-52.5s-2.4 16.5 1.9 23.2c-6.7 2.3-13.7 3.3-20.8 2.8l-1.4-26h20.3z"/><path opacity=".1" d="M310.8 592.2l-1.1.6-7.3-16.5 6.9-6.2h.4c-.3.9-2.2 15.1 1.1 22.1z"/><path fill="#FF748E" d="M309.2 570.2s-2.4 16.5 1.9 23.2c-6.7 2.3-13.7 3.3-20.8 2.8l-8.3-26h27.2z"/><path fill="#A27772" d="M288.8 846.2c-.3 2.4-2.2 4.4-4.6 4.7-6.4 1-21.9 3.4-25.8 5.3-5 2.4-24.6.7-25.5-1.7-.3-1-.1-2 .3-2.8.9-1.9 2.6-3.3 4.6-4 3.7-1.2 10.7-3.8 12.6-6.6 0 0 8.7-7.6 11.2-11.7.9-1.6 2.7-2.7 4.5-2.8 2.1-.1 4.4 1 5.3 5.5 0 0 11.3 6.5 14.4.8 0 0 .5 8.7 2.4 11.1.5.6.7 1.4.6 2.2z"/><path opacity=".1" d="M288.8 846.2c-.3 2.4-2.2 4.4-4.6 4.7-6.4 1-21.9 3.4-25.8 5.3-5 2.4-24.6.7-25.5-1.7-.3-1-.1-2 .3-2.8.7-1.4 1.8-2.6 3.2-3.4 3.2 2.1 10.3 4.2 25.9 1.8 14.9-2.3 22.3-4.6 25.9-6.2.5.7.7 1.5.6 2.3zm64.5-386.5v-.1c.5-1.7.7-3.5.7-5.4-.2 1.4-.4 2.9-.7 4.3-.1.4-.1.8 0 1.2zm-13.8 22.1c.4.9.6 1.8.6 2.7.1-1.3-.1-2.6-.6-3.8-.6-1.5-2.2-2.4-3.8-2.2-2 .5-2.9 3.1-4.9 3.7-1.7.5-3.5-.7-4.3-2.2-.7-1.6-1-3.4-.8-5.1V469c0-2.1-.1-4.5-1.4-6.2-1.6-2.1-5.5-3-8.1-2.9-1.7 0-3.4.7-4.6 1.9-1.3 1.3-3.1 1.9-4.9 1.7-1.6-.2-2.9-1.4-3.4-2.9-.2-.8-.1-1.6-.4-2.3-.5-1.9-2.5-2.8-3.9-4.2-1.2-1.4-1.9-3.1-2-5-.2 2.2.5 4.4 2 6.1 1.3 1.4 3.3 2.4 3.9 4.2.2.8.2 1.6.4 2.3.5 1.6 1.8 2.7 3.4 2.9 1.8.2 3.6-.5 4.9-1.7 1.3-1.2 2.9-1.8 4.6-1.9 2.6-.1 6.5.8 8.1 2.9 1.3 1.7 1.4 4 1.4 6.2v5.9c-.1 1.8.1 3.5.8 5.1.8 1.6 2.6 2.7 4.3 2.2 2-.6 2.9-3.3 4.9-3.7 1.6-.1 3.1.8 3.8 2.2zm19.4-6.5c-.4 1.2-1.1 2.3-2 3.3-2.6 3.1-5.2 6.2-7.8 9.4-3.3 4-6.8 8.5-6.5 13.6.2-4.6 3.5-8.8 6.5-12.5l7.8-9.4c.9-.9 1.6-2 2-3.3.2-.9.3-1.7.2-2.6 0 .5-.1 1-.2 1.5zm-20.4 24.6c-.1-.4-.2-.8-.2-1.3-.1.8 0 1.6.2 2.3.5 1.7 2.5 3.1 4.1 2.4 0-.4-.1-.7-.1-1-1.6.7-3.5-.7-4-2.4zM260 831.5s2.5 4.3 11.4.5m64.2.5s7.7 9.1 17.5 3m5-110.5s-5.5 3.4-5.6 5.4 2.8-1.4 2.8-1.4l2.8-4zm2.2 26.1c-1.9 1.6-4.3 2.5-6.7 2.6-4.1.2-3.7 5.5-1.1 3.9s7.8-6.5 7.8-6.5zm1 3.4s-2.6 12.9-4.8 10.4"/><path opacity=".5" fill="#DCE0ED" d="M471.2 458.6h66v14h-66v-14zm151.5 0h66v14h-66v-14zm151.6 0h66v14h-66v-14z"/><ellipse opacity=".1" cx="952.7" cy="801.3" rx="26.9" ry="4.5"/><ellipse opacity=".1" cx="115.2" cy="858.7" rx="26.9" ry="4.5"/><ellipse cx="893.8" cy="850" rx="40.2" ry="6.8"/><path d="M910.4 838.9c1.8-1.5 3.2-3.5 3.8-5.8.5-2.3-.5-5-2.7-5.9-2.5-.9-5.1.8-7.1 2.5s-4.3 3.7-6.9 3.3c2.7-2.5 4-6.2 3.2-9.8-.1-.7-.4-1.4-.9-2-1.4-1.5-3.8-.8-5.5.3-5.2 3.7-6.7 10.7-6.7 17.1-.5-2.3-.1-4.7-.1-7s-.7-5-2.6-6.2c-1.2-.7-2.6-1-4-.9-2.3-.1-5 .1-6.5 1.8-2 2.1-1.5 5.7.3 8s4.4 3.8 6.8 5.4c1.9 1.2 3.6 2.7 4.8 4.6.1.3.3.5.3.8h14.7c3.4-1.6 6.4-3.7 9.1-6.2zm-794-47.7s5.5 7.2-2.5 18-14.7 20-12 26.8c0 0 12.1-20.2 22-20.4s3.4-12.2-7.5-24.4z"/><path opacity=".1" d="M116.4 791.2c.5.7.9 1.5 1.1 2.3 9.6 11.3 14.7 21.8 5.5 22.1-8.6.3-18.9 15.7-21.4 19.5l.3.9s12.1-20.2 22-20.4 3.4-12.2-7.5-24.4z"/><path fill="#FFD037" d="M126.7 800.4c0 2.5-.3 4.6-.6 4.6s-.6-2-.6-4.6.3-1.3.7-1.3.5-1.2.5 1.3z"/><path fill="#FFD037" d="M130.2 803.4c-2.2 1.2-4.2 1.9-4.3 1.6s1.5-1.5 3.7-2.8 1.4-.3 1.5 0 1.3 0-.9 1.2z"/><path d="M87.4 791.2s-5.5 7.2 2.5 18 14.7 20 12 26.8c0 0-12.1-20.2-22-20.4s-3.3-12.2 7.5-24.4z"/><path opacity=".1" d="M87.4 791.2c-.5.7-.9 1.5-1.1 2.3-9.6 11.3-14.7 21.8-5.5 22.1 8.6.3 18.9 15.7 21.4 19.5l-.3.9s-12.1-20.2-22-20.4-3.3-12.2 7.5-24.4z"/><path fill="#FFD037" d="M77.2 800.4c0 2.5.3 4.6.6 4.6s.6-2 .6-4.6-.3-1.3-.7-1.3-.5-1.2-.5 1.3z"/><path fill="#FFD037" d="M73.7 803.4c2.2 1.2 4.2 1.9 4.3 1.6s-1.5-1.5-3.7-2.8-1.3-.3-1.5 0-1.3 0 .9 1.2z"/><path fill="#A8A8A8" d="M79 835.1s15.4-.5 20-3.8 23.6-7.2 24.8-2 23.1 26.3 5.7 26.4-40.3-2.7-44.9-5.5-5.6-15.1-5.6-15.1z"/><path opacity=".2" d="M129.8 854c-17.3.1-40.3-2.7-44.9-5.5-3.5-2.2-4.9-9.8-5.4-13.4H79s1 12.4 5.6 15.2 27.6 5.7 44.9 5.5c5 0 6.7-1.8 6.6-4.5-.7 1.6-2.6 2.6-6.3 2.7z"/><path opacity=".5" d="M504.8 511v9.3c20.5.1 37 16.8 36.8 37.3-.1 20.5-16.8 37-37.3 36.8-8.7-.1-17.1-3.2-23.7-8.8l-6.6 6.6c19.3 16.9 48.6 14.9 65.4-4.4 16.9-19.3 14.9-48.6-4.4-65.4-8.4-7.3-19.1-11.3-30.2-11.4zm304 8.8c20.4 0 36.1 16.6 36.1 37.1v.3h9.3v-.3c0-25.6-19.9-46.4-45.4-46.4-13.4 0-26.1 5.8-34.9 15.9l6.6 6.6c7-8.4 17.4-13.2 28.3-13.2zM674 513.7l-1.8 9.3c13.6 5.5 22.3 18.8 22.3 34.4 0 20.5-16.6 37.1-37.1 37.1s-37.1-16.6-37.1-37.1c0-14.7 8.7-28.1 22.2-34l-4.1-8.3c-23.3 10.5-33.8 38-23.2 61.3 10.5 23.3 38 33.8 61.3 23.2 16.6-7.5 27.3-24 27.3-42.2 0-20.1-11.9-37.2-29.8-43.7z"/><path d="M466.5 556.4c0-20.4 16.6-36.1 37.1-36.1h.3V511h-.3c-25.6 0-46.4 19.9-46.4 45.4 0 13.4 5.8 26.1 15.9 34.9l6.6-6.6c-8.4-7-13.2-17.4-13.2-28.3zm387.7 1.7h-9.3c-.1 20.5-16.8 37-37.3 36.8-20.5-.1-37-16.8-36.8-37.3.1-8.7 3.2-17.1 8.8-23.7l-6.6-6.6c-16.9 19.3-14.9 48.6 4.4 65.4 19.3 16.9 48.6 14.9 65.4-4.4 7.3-8.3 11.4-19.1 11.4-30.2zm-195.6-38.4c4.4 0 8.8.9 12.9 2.7l1.8-9.3c-4.7-1.8-9.7-2.7-14.8-2.7-6.6 0-13 1.4-19 4.1l4.2 8.3c4.7-2 9.8-3.1 14.9-3.1z"/></svg>