<svg xmlns="http://www.w3.org/2000/svg" viewBox="0 0 1128.3 786.8"><path opacity=".1" d="M655.7 124.5c-72.3-2.5-141.2-25.9-207-51.4S317.8 19.2 247.3 5.7C201.9-3 149.9-4.2 113.4 20.1 78.2 43.5 66.8 83.9 60.7 121.5c-4.6 28.2-7.3 57.9 5.3 84.4 8.8 18.3 24.3 33.8 35 51.3 37.4 61.1 11 136.5-29.6 196.3-19 28-41.1 54.7-55.7 84.5s-21.4 64-8.5 94.4c12.7 30.1 43 52.8 75.9 68.7 66.6 32.3 145.2 41.5 221.9 46.8 169.6 11.6 340.2 6.6 510.3 1.5 62.9-1.9 126.2-3.8 188.1-13.5 34.4-5.4 69.9-14 94.9-34.7 31.7-26.3 39.6-70.8 18.3-103.8-35.6-55.3-134.1-69-159-128.4-13.7-32.7.4-69 20.3-99.3 42.7-65 114.3-122 118.1-196.3 2.6-51-31.8-102.1-85.1-126.3C955 21.9 877.6 25.1 836.4 67c-42.4 43.1-116.8 59.7-180.7 57.5zm377.4 280.2c8.4 0 15.3 6.8 15.3 15.3s-6.8 15.3-15.3 15.3-15.3-6.8-15.3-15.3 6.9-15.3 15.3-15.3zm54.6-78.5c14.1 0 25.6 11.5 25.6 25.6s-11.5 25.6-25.6 25.6-25.6-11.5-25.6-25.6 11.5-25.6 25.6-25.6zm-33.9 124.3c14.1 0 25.6 11.5 25.6 25.6s-11.5 25.6-25.6 25.6-25.6-11.5-25.6-25.6 11.5-25.6 25.6-25.6zM36.3 309.3c20 0 36.3 16.2 36.3 36.3s-16.2 36.3-36.3 36.3S0 365.6 0 345.6s16.2-36.3 36.3-36.3z"/><path d="M902.6 681.9c-4.1-1.3-8.3-1.8-12.6-1.3-5.2.6-4.4 8.4.8 8.1 2.6-.2 5.2-.7 7.7-1.4l4.1-5.4zm1.6.1c1.9 3.8 2.9 8 3.1 12.3.2 5.2-7.7 5.6-8.1.4-.2-2.6 0-5.2.3-7.8l4.7-4.9zm11.8-16.9s-2.5-7.9-18-4.9c-7 1.4-6.8 11.4.2 12.5h.3c10.2 1.5 13.7-2.6 17.5-7.6zm1.6-.4s8.3.7 8.8 16.4c.2 7.1-9.6 9.2-12.2 2.7 0-.1-.1-.2-.1-.3-3.7-9.7-.5-14 3.5-18.8zm11.1-20.3c-1.2-5.9-5.5-10.6-11.2-12.5-10.5-3.3-16 12.4-5.8 16.3 4.2 1.5 8.7 2.2 13.2 1.9l3.8-5.7zm12.8-26.2s-4.2-10-15.2-12c-11.6-2.1-15.2 15.3-3.7 18.1 5.2 1.1 10.5 1.2 15.7.1l3.2-6.2zm7.7-25.7c-3.6-5.7-9.4-9.7-16-11-10-1.9-13.4 13.1-3.5 15.7 6.2 1.5 12.6 1.4 18.7-.3l.8-4.4zm7.2-25.1c-3.2-5.3-8.2-9.2-14-11.1-10-3.1-14.9 12.1-5 15.4 5.9 2 12.3 1.9 18.1-.1l.9-4.2zm3.1-22.9s-4-9.4-12.2-14.3c-9.1-5.5-17.7 8-9 14.1 5.4 3.8 12.3 6.4 20.3 4.6l.9-4.4zm1.5-27.1s-4.4-9.5-12.9-14c-9.5-5-17.7 8.8-8.8 14.8 5.8 3.9 13.1 6.4 20.8 3.4l.9-4.2zm-.9-24.8c-3.3-5.1-7.3-9.7-12-13.6-6.6-5.4-15 4.3-8.7 10.1 5.8 5.3 13 9.8 20.5 9.4l.2-5.9zm-2.5-23.7c-3.8-6.4-8.3-12.3-13.6-17.5-5.2-5-12.8 2.6-8 7.9 5.6 6 13.1 12.2 22.2 14.9l-.6-5.3zm-4.9-27.9c-3.1-4.8-6.7-9.3-10.8-13.4-5.2-5.1-13.1 2.6-8.1 7.9 5.3 5.6 12.2 10.9 20.3 12.7l-1.4-7.2zm-4.2-26.1c-3.2-4.3-6.7-8.5-10.4-12.4-4.2-4.3-10.9 1.8-6.9 6.3 4.6 5.3 10.6 10.1 17.4 10.8l-.1-4.7zm-4.4-24.1c-2.9-5.7-6.3-11.2-10-16.5-3.1-4.3-9.7.3-6.7 4.7 3.9 5.8 9.2 11.5 16.3 14.2l.4-2.4zm-3.7-32.1s-2.5-4.2-6-9.1c-3.3-4.5-10.1.1-7.1 4.8 3.4 5.2 7.7 9.6 12.6 10.5l.5-6.2zm-1.7-21.3l-3.1-15.6c-.8-4.1-7-3.1-6.5 1 1.1 8.4 4 16.8 10.3 22.3l-.7-7.7zm1.9-44.5c-.7-1.6-2.5-2.3-4-1.6-1.3.5-2.1 1.9-1.8 3.3.7 4.3 1.8 8.6 3.2 12.8l2.6-14.5zm-11.2 351.2c5.7-1.9 11.9-.5 16.4 3.5 8 7.5-2.8 20-11.3 13.1-3.4-2.9-6.2-6.5-8.2-10.5l3.1-6.1zm12.8-26.8s10.5-2.5 18.7 5.1c8.6 8.1-3.3 21.3-12.4 13.7-4-3.5-7.2-7.7-9.4-12.5l3.1-6.3zm7.7-23.1c5.5-3.9 12.4-5.5 19-4.2 10 2 7.5 17.1-2.6 15.8-6.3-.9-12.2-3.4-17.3-7.3l.9-4.3zm7-26.7c4.9-3.7 11-5.5 17.1-5.1 10.5.9 9.3 16.8-1.1 16.1-6.2-.4-12.1-2.8-16.8-6.8l.8-4.2zm2.5-22.3s5.5-8.6 14.4-12.1c9.8-3.9 16.1 10.8 6.6 15.4-6 2.8-13.2 4.3-20.9 1.2l-.1-4.5zm.3-28.2s5.6-8.8 14.6-12.2c10-3.8 16.4 11.1 6.8 15.8-6.3 3.1-13.8 4.6-21.1.6l-.3-4.2zm-1.9-24.6c2.1-5.7 5.1-11.1 8.8-15.9 5.3-6.7 15.6 1 10.7 8-4.5 6.4-10.6 12.3-18 13.6l-1.5-5.7zm-.7-23.5c1.8-7.2 4.6-14.1 8.1-20.7 3.6-6.2 13.1-1.1 9.8 5.4-3.7 7.4-9.2 15.4-17.1 20.5l-.8-5.2zm-5.8-29.2c2.2-5.5 4.9-10.8 8.3-15.8 4.1-6 13.3-.1 9.5 6.1-4.1 6.8-9.9 13.6-17.6 17l-.2-7.3zm-4.7-24.9c1.1-5.3 2.6-10.5 4.3-15.6 2-5.7 10.6-2.9 8.9 2.8-2 6.8-5.4 13.5-11.3 17.1l-1.9-4.3zm-3.2-24.5c1.5-6.2 3.5-12.4 6-18.3 2.1-4.9 9.5-1.9 7.6 3-2.4 6.5-6.4 13.3-12.6 17.6l-1-2.3zm-4.8-29.4s.9-4.8 2.7-10.5c1.6-5.3 9.6-3.2 8.3 2.2-1.5 6-4 11.6-8.4 14.1l-2.6-5.8zm1.1-24.6l5.4-15c1.4-4 7.4-2.1 6.3 2-2.3 8.1-6.4 16-13.5 20.5l1.8-7.5zm6.8-41.8s.8-.7 2.2-1.8c2.7-2.2 6.1 1.6 3.6 4-4.4 4-9.4 7.1-14.8 9.4l9-11.6zm-.3-8.7c3.3-6.6 6.9-13.1 10.8-19.3.5-1 .1-2.2-.8-2.7-.8-.4-1.8-.3-2.4.4-3.2 4.4-6.3 10.8-8.7 20.2l1.1 1.4z"/><path fill="#444053" d="M940 365.2l1.2-.1c-5-46.6-2.9-75.4 5.8-80.9l-.6-1c-9.3 5.9-11.5 34.2-6.4 82zm17.2 110.2l1.7-.3c-.7-4.3-1.4-8.7-2.2-13-7.3-37.8-12.9-72.8-15.8-99.4l-1.3-1c2.8 26.6 8 62.8 15.3 100.7.9 4.3 1.6 8.7 2.3 13zm-81 235.6c.3-.2 26.9-20.6 50.3-59.7 13.7-22.9 23.7-47.8 29.6-73.8 7.4-32.5 7.6-70.4 2.3-105.8l-1.6 1.3c12 79.6-10.9 141.4-32.3 177.1-23.2 38.7-49.5 58.9-49.8 59.1l1.5 1.8z"/><ellipse cx="194" cy="698" rx="66.6" ry="12.8"/><ellipse fill="#3F3D56" cx="192.9" cy="692.5" rx="7.8" ry="10.1"/><ellipse fill="#3F3D56" cx="192.9" cy="680.1" rx="7.8" ry="10.1"/><ellipse fill="#3F3D56" cx="192.9" cy="667.7" rx="7.8" ry="10.1"/><ellipse fill="#3F3D56" cx="192.9" cy="655.3" rx="7.8" ry="10.1"/><ellipse fill="#3F3D56" cx="192.9" cy="642.9" rx="7.8" ry="10.1"/><ellipse fill="#3F3D56" cx="192.9" cy="630.5" rx="7.8" ry="10.1"/><ellipse fill="#3F3D56" cx="192.9" cy="618.2" rx="7.8" ry="10.1"/><path d="M221.9 533.3c1.1-1.3 2-2.8 2.9-4.3l-20.4-3.3 22 .2c4.3-9.3 4.5-19.9.7-29.4l-29.5 15.3 27.2-20c-10.2-17.8-32.9-23.9-50.7-13.6-17.8 10.2-23.9 32.9-13.6 50.7.9 1.6 1.9 3.1 3 4.5-1.6 2.1-3.1 4.4-4.2 6.8l26.4 13.7-28.2-9.5c-4 11.9-1.8 25 6 34.8-12.7 16.1-9.9 39.4 6.2 52.1s39.4 9.9 52.1-6.2a37.1 37.1 0 0 0 0-45.9c10.7-13.4 10.7-32.4.1-45.9z"/><path opacity=".1" d="M155.6 556.3c0 8.3 2.8 16.4 7.9 22.9-12.7 16.1-9.9 39.4 6.2 52.1s39.4 9.9 52.1-6.2a37.1 37.1 0 0 0 0-45.9c5.1-6.3-66.2-27.1-66.2-22.9z"/><path fill="#FFF" d="M232 261.2v441.7c0 8.5 6.9 15.4 15.4 15.4h633.9c8.5 0 15.4-6.9 15.4-15.4V261.2H232z"/><path opacity=".1" d="M293.2 300.8h141.6c4.8 0 8.6 3.9 8.6 8.6v76c0 4.8-3.9 8.6-8.6 8.6H293.2c-4.8 0-8.6-3.9-8.6-8.6v-76c0-4.7 3.8-8.6 8.6-8.6zm200.3 0h141.6c4.8 0 8.7 3.9 8.7 8.6v76c0 4.8-3.9 8.6-8.7 8.6H493.5c-4.8 0-8.6-3.9-8.6-8.6v-76c0-4.7 3.9-8.6 8.6-8.6zm339.7 91.9H696.1c-4.8 0-8.7-3.9-8.7-8.6v-73.3c0-4.8 3.9-8.6 8.7-8.6h137.1c4.8 0 8.7 3.9 8.7 8.6v73.3c-.1 4.8-3.9 8.6-8.7 8.6zM295.4 433h137.1c4.8 0 8.6 3.9 8.6 8.6V515c0 4.8-3.9 8.7-8.6 8.7H295.4c-4.8 0-8.6-3.9-8.6-8.7v-73.3c0-4.8 3.9-8.7 8.6-8.7zm537.8 90.7H696.1c-4.8 0-8.7-3.9-8.7-8.6v-73.3c0-4.8 3.9-8.7 8.7-8.7h137.1c4.8 0 8.7 3.9 8.7 8.7V515c-.1 4.8-3.9 8.7-8.7 8.7zm-200.3 0H495.8c-4.8 0-8.7-3.9-8.7-8.6v-73.3c0-4.8 3.9-8.7 8.7-8.7h137.1c4.8 0 8.7 3.9 8.7 8.7V515c-.1 4.8-3.9 8.7-8.7 8.7zM295.4 564h137.1c4.8 0 8.6 3.9 8.6 8.7V646c0 4.8-3.9 8.7-8.6 8.7H295.4c-4.8 0-8.6-3.9-8.6-8.7v-73.3c0-4.9 3.9-8.7 8.6-8.7zm537.8 90.6H696.1c-4.8 0-8.7-3.9-8.7-8.7v-73.3c0-4.8 3.9-8.7 8.7-8.7h137.1c4.8 0 8.7 3.9 8.7 8.7V646c-.1 4.7-3.9 8.6-8.7 8.6zm-200.3 0H495.8c-4.8 0-8.7-3.9-8.7-8.7v-73.3c0-4.8 3.9-8.7 8.7-8.7h137.1c4.8 0 8.7 3.9 8.7 8.7V646c-.1 4.7-3.9 8.6-8.7 8.6z"/><path d="M295.4 302.1h137.1c4.8 0 8.6 3.9 8.6 8.6V384c0 4.8-3.9 8.6-8.6 8.6H295.4c-4.8 0-8.6-3.9-8.6-8.6v-73.3c0-4.7 3.9-8.6 8.6-8.6zm337.5 90.6H495.8c-4.8 0-8.7-3.9-8.7-8.6v-73.3c0-4.8 3.9-8.6 8.7-8.6h137.1c4.8 0 8.7 3.9 8.7 8.6v73.3c-.1 4.8-3.9 8.6-8.7 8.6zM232 183.2v80.3h664.7v-80.3c0-8.5-6.9-15.4-15.4-15.4H247.4c-8.5 0-15.4 6.9-15.4 15.4zM396.5 207c-6.8 0-12.3-5.5-12.3-12.3s5.5-12.3 12.3-12.3c6.8 0 12.3 5.5 12.3 12.3 0 6.8-5.5 12.3-12.3 12.3zm335.7 0c-6.8 0-12.3-5.5-12.3-12.3s5.5-12.3 12.3-12.3c6.8 0 12.3 5.5 12.3 12.3 0 6.8-5.5 12.3-12.3 12.3z"/><path opacity=".1" d="M396.5 180.1c-8 0-14.6 6.5-14.6 14.5s6.5 14.6 14.5 14.6 14.6-6.5 14.6-14.5c0-8.1-6.5-14.6-14.5-14.6zm0 26.9c-6.8 0-12.3-5.5-12.3-12.3s5.5-12.3 12.3-12.3c6.8 0 12.3 5.5 12.3 12.3 0 6.8-5.5 12.3-12.3 12.3zm335.7-26.9c-8 0-14.5 6.5-14.5 14.5s6.5 14.6 14.5 14.6 14.5-6.5 14.5-14.5c0-8.1-6.5-14.6-14.5-14.6zm0 26.9c-6.8 0-12.3-5.5-12.3-12.3s5.5-12.3 12.3-12.3c6.8 0 12.3 5.5 12.3 12.3 0 6.8-5.5 12.3-12.3 12.3z"/><linearGradient id="a" gradientUnits="userSpaceOnUse" x1="874.266" y1="-57.488" x2="874.266" y2="386.99" gradientTransform="matrix(1 0 0 -1 -35.84 729.26)"><stop offset="0" stop-color="gray" stop-opacity=".25"/><stop offset=".54" stop-color="gray" stop-opacity=".12"/><stop offset="1" stop-color="gray" stop-opacity=".1"/></linearGradient><path fill="url(#a)" d="M925.6 740.4c-2.3-1.7-4.8-3.1-7.4-4.2-.2-.1-.4-.2-.7-.2-5.5-3.9-10.6-8.3-15.3-13.2 1-.8 1.9-1.6 2.9-2.3-6-2.9-9.3-9.4-12.6-15.3-8.6-15.7-19.9-29.8-33.3-41.5-.3-1.3-2.3-1-3.3-1.8-.7-.7-1-1.6-.7-2.5.2-.9.6-1.8.8-2.7.5-2.1.1-4.3-.2-6.5s-.1-4.6 1.3-6.2c.5-.5 1-.9 1.5-1.5 1-1.3 1.3-2.9 1-4.5-.1-1.6-.4-3.1-1-4.5 4.9-13.3 9.8-26.7 14.7-40.1 3.4-9.3 6.9-18.9 7.2-28.8.3-8-1.8-16.3-6.6-22.4.9-.2 1.8-.4 2.6-.7-5.7-7.6-6.3-17.6-6.5-27.2-.1-4.8-.2-9.5-.5-14.3 1.7.7 3.3 1.4 5.1 1.9l1.6.5c2.6.8 5.2 1.3 7.9 1.7 1.2.2 2.4.3 3.6.4-1.7-4.3-3.4-8.6-5.2-12.9-.9-1.9-1.4-4-1.6-6.1v-1.2c.1-.6.2-1.1.4-1.7.1-.3.2-.5.3-.8.4-.8.8-1.5 1.3-2.3.4-.5.8-1.1 1.2-1.6 1.5-1.7 2.7-3.7 3.6-5.8.4-1.1.5-2.2.5-3.3 0-1.1-.1-2.3-.3-3.4-.1-.7-.3-1.5-.5-2.2-.1-.5-.3-.9-.4-1.3l-.1-.4c-.1-.3-.2-.7-.3-1l-.1-.3c-.1-.4-.3-.7-.4-1.1l-.1-.2c-1.9-4.9-4.5-9.6-6-14.6-.4-1.3-.7-2.7-1-4.1-.1-.4-.1-.7-.2-1.1s-.1-.6-.1-.9-.1-.7-.1-1l-.1-1c0-.3 0-.6-.1-1 0-.6-.1-1.2-.1-1.8v-2.8c0-.5.1-.9.1-1.4 0-.2 0-.4.1-.6.1-.7.2-1.3.3-2l.3-1.8c.4-1.6.5-3.3.6-5 0-.3 0-.6-.1-1s-.1-.5-.1-.8v-.2c0-.2-.1-.4-.1-.5s0-.2-.1-.3-.1-.4-.2-.5 0-.1-.1-.2-.1-.4-.2-.5l-.1-.2-.3-.6c-.4-.7-.8-1.4-1.3-2.1-3.3-4.3-8.8-7.6-11.8-12.4-1.8-3.1-2.9-6.5-3.4-10-.2-.8-.3-1.6-.4-2.4s-.3-1.6-.4-2.4c-.1-.5-.2-1-.3-1.4l-.1-.3c-.1-.4-.2-.8-.3-1.1l-.1-.3-.3-1.2-.1-.2c-.1-.4-.2-.8-.3-1.3v-.1c-.1-.4-.3-.9-.4-1.3v-.1c-.3-.9-.6-1.8-.9-2.8-.2-.5-.3-.9-.5-1.4-1.3-3.2-3-6.3-5.1-9-4.6-5.9-11.7-10.1-19-9.8-3.9.1-7.7 1.5-11.4 2.9l-9.6 3.5 2.7-1.2c-2.8.3-5.7.5-8.2 1.8s-4.7 3.7-4.8 6.5c0 1.6.6 3.3.4 4.9-.3 2.7-2.8 4.5-4.1 7-.8 1.4-1.1 3.1-1 4.7v1.1c-4-1.7-8-3.5-12-5.5-6.6-3.3-13.3-7.1-17.4-13.2-1.3-2-2.3-4.2-3.7-6.1-1.5-2.1-3.2-4.1-5-6l-12.3-13.3c-.9 1.8.3 3.9 1.2 5.6 1 1.8 1.8 3.8 2.3 5.9.2.7.2 1.4-.1 2-.4.5-1 .9-1.7 1.2-2.3 1.5-3.3 4.3-2.5 6.9.9 2.5 3 4.4 5.7 4.9.9.1 1.7.3 2.5.6 1.5.7 2.2 2.4 3.2 3.7 1.9 2.3 5 3.2 7.9 4 4.5 5.2 9.3 10.3 13.8 15.5 6.9 7.9 13.9 16 22.9 21.4.9.6 1.9 1.1 2.8 1.6v.5c-.3 1.2-.1 2.4.4 3.5.8 1.3 2.5 1.6 3.9 1.9l6.8 1.2c-.1.9-.2 1.8-.3 2.6-.1.5-.2 1-.3 1.6l-.1.7v.1s0 .4-.1.5 0 .1 0 .2v1.3c.2 2.7 2 4.9 3.8 6.9l1 1.1c-1.5 1.9-2.6 4.1-3.1 6.5-.3 1.5-.4 3-.4 4.5-.9.9-1.6 1.9-2 3.1-.5 1.6-.7 3.3-.5 5v2c-.1 2.4.3 4.8 1.2 7 .1.2.2.3.3.5-1.5 2.9-4 5.2-5.8 8-3.7 6.3-3.1 14.2 1.6 19.9 1.4 1.6 3.1 3.1 3.3 5.2 0 1-.1 1.9-.3 2.8-.2 2.3.9 4.4 1.4 6.6.5 1.8.5 4-.5 5.5-1.1 1.5-1.5 3.4-1.4 5.2.5 2.8-.7 5.7-.9 8.5-.1 1.2 0 2.5-.1 3.7-.1 1.2-.4 2.3-.7 3.5 0 .1-.1.3-.1.4-2.5 1.1-4.9 2.2-7.3 3.5-1.3.6-2.3 1.5-3 2.8-.4 1.2-.5 2.5-.2 3.8l2.1 14.8-.4-.2c.2 2.4.3 4.9.5 7.3.1 1.8.3 3.8 1.4 5.3.6.6 1.1 1.2 1.5 1.9.8 1.7-.2 3.7-.9 5.4s-1 4.2.6 5.2c.9.6 1.8 1.1 2.7 1.5-2 8.3-.2 17.1 1.7 25.5 1.4 6.4 2.8 12.8 4.3 19.2.6 2.7.9 5.5.9 8.2v1.2c.2 3.8.9 7.6 2 11.2 2.2 7.5.1 16.5.8 24.6.5 3.9 1.2 7.8 2.3 11.6 4.8 19.2 9.1 37.9 10.8 57.6 1.8 2.3 4.2 3.9 6.9 4.8-.2 2.4.1 5.2 0 6.6 0 1.2-.2 2.3-.5 3.4-.8 2.2-3 3.7-5.2 4.5l-2.1.6.8-.7c-4.6-1-9.4-.2-13.3 2.3-1.3.6-2.2 1.8-2.6 3.1-.2 1.3.2 2.6.9 3.6 2.2 3.2 5.5 5.6 9.3 6.6 3.7 1 7.6 1.5 11.4 1.6l7.1.4c-.5.8-.3 1.9.5 2.5.8.6 1.7.9 2.6.9 2.9.4 5.8.5 8.7.1.7 0 1.4-.3 2-.7.5-.5.6-1.3.1-1.8l-.1-.1c.9 0 1.6-.6 1.9-1.4.3-.8.4-1.7.3-2.5-.2-3.3-.5-8.1-2.2-11-.6-1.1-1.9-1.7-3.1-1.4-1.1-5.9-1.8-11.8-2-17.7 1.8-.7 3.5-1.4 5.1-2.3-4.9-7.9-5-18-3.5-27.2.6-2.9 1-5.9 1.3-8.8.3-5.9-.6-12.6-3.8-17.5 6 3.8 11.2 8.6 15.6 14.1 6.9 9 11.1 19.9 19.6 27.4 1.1-1.1 2.2-2.2 3.4-3.2 1.8 3 3.5 6.1 5.1 9.3 1.3 2.3 2.2 4.8 2.9 7.3.8 3.9.9 7.9.3 11.8-.2 2.1-.5 4.2-.8 6.2-.1.9-.3 1.8-.6 2.6 0-.3-.1-.5-.2-.8-.5-.9-2-.5-2.8.1-1.4 1.1-2.6 2.4-3.5 4-.5.8-.7 1.7-.6 2.5.3 1.1 1 2 2 2.5 3.7 2.2 8.4.6 12.3-1 1.1-.4 2.1-.9 3.1-1.6 2-1.4 3.1-3.8 5.1-5.2 1.1-.6 2.1-1.2 3.1-1.9 1.8-1.7 2-4.5 3.3-6.7 2.2-3.7 7.3-4.6 9.2-8.5 2.5-4.4-.1-9.8-3.6-12.6z"/><path fill="#A1616A" d="M839.4 758c0 1.2-.2 2.3-.5 3.4-.8 2.2-3 3.6-5.2 4.4s-4.6 1-6.8 1.7c-1 .2-1.9.7-2.7 1.4-2 2-.8 5.6 1.5 7.1s5.3 1.4 8.1 1.3c5.9-.3 11.8-1.2 17.5-2.5 2.1-.5 4.5-1.5 4.8-3.6.1-.7 0-1.3-.2-2-1.4-7.2-2.2-14.4-2.3-21.7 0-.5-11.6-.8-12.7-.1-2.2 1.5-1.3 8.1-1.5 10.6zm51.8-25.5c1.9 3.2 3.7 6.4 5.4 9.7 1.2 2.3 2.2 4.7 2.9 7.2.8 3.8.9 7.8.3 11.6-.2 2-.5 4.1-.9 6.1-.3 2-.9 4.3-2.6 5.4 1.5.9 3.4 1.1 5.1.5 1.7-.6 3.2-1.6 4.5-2.8 8.6-7.1 15-17.3 15.3-28.5.1-.9-.1-1.7-.5-2.5-.4-.5-.9-1-1.5-1.3-6.4-4.4-12.3-9.3-17.7-14.9-.3-.4-.8-.7-1.3-.8-.4 0-.8.1-1.2.3-3.3 1.7-8.8 4-10.2 7.8 1.1.5 1.8 1.3 2.4 2.2z"/><path fill="#3F3D56" d="M851.2 769.6c-7.2 3-15 4.1-22.8 5.1-1 .1-2.1.2-2.7-.5-.5-.7-.6-1.6-.2-2.3.4-.7 1-1.3 1.7-1.8l5.2-4.3c-4.5-1-9.2-.1-13.1 2.3-1.2.6-2.2 1.7-2.6 3-.2 1.3.2 2.5.9 3.5 2.2 3.2 5.5 5.5 9.2 6.5 3.7 1 7.5 1.5 11.4 1.6l7 .4c-.5.8-.3 1.9.5 2.5.8.6 1.7.9 2.6 1 2.9.4 5.8.5 8.7.1.7 0 1.4-.3 2-.7.5-.5.6-1.3.1-1.8l-.1-.1c.9 0 1.6-.6 1.9-1.4.3-.8.4-1.7.3-2.5-.2-3.2-.5-8-2.2-10.8s-5.4-.8-7.8.2zm74.3-28.6c-2.3-1.7-4.8-3.1-7.4-4.1-.4-.3-.9-.2-1.2.2 0 .1-.1.1-.1.2-4.7 6.4-8.4 13.5-10.9 21.1-1.4 4.3-2.6 8.9-5.5 12.4-.4.5-1 .9-1.5.7-.8-.4-.3-1.6-.7-2.3-.5-.9-1.9-.5-2.8.1-1.4 1.1-2.6 2.4-3.4 4-.5.7-.7 1.6-.6 2.5.3 1.1 1 2 2 2.5 3.7 2.2 8.4.6 12.3-1 1.1-.4 2.1-.9 3.1-1.5 2-1.4 3.1-3.8 5.1-5.1 1.1-.6 2.1-1.2 3.1-1.9 1.8-1.7 2-4.5 3.3-6.6 2.2-3.6 7.3-4.6 9.2-8.4 2-4.6-.6-10-4-12.8zm-55.8-199.8c7.9 5.9 11.2 16.4 10.8 26.2s-3.8 19.2-7.2 28.5c-4.9 13.2-9.8 26.4-14.7 39.5.5 1.4.9 3 1 4.5.3 1.5-.1 3.2-1 4.4-.5.5-1 .9-1.5 1.5-1.4 1.6-1.5 4-1.3 6.1s.7 4.3.2 6.4c-.2.9-.7 1.7-.8 2.6-.2.9.1 1.9.7 2.5 1 .8 3 .5 3.3 1.8 13.4 11.6 24.7 25.5 33.3 41 3.2 5.8 6.5 12.3 12.6 15.1-5.9 4.7-11.5 9.6-16.9 14.9-8.5-7.4-12.7-18.2-19.6-27-4.4-5.5-9.6-10.2-15.6-13.9 3.3 4.8 4.2 11.4 3.8 17.2-.3 2.9-.7 5.8-1.3 8.7-1.5 9.1-1.4 19 3.5 26.9-5.2 2.7-11.3 4.7-17.1 3.9-3.7-.5-7-2.4-9.3-5.3-1.7-19.4-6-38-10.8-56.9-1.1-3.8-1.9-7.6-2.3-11.5-.7-8 1.4-16.9-.8-24.3-1.1-3.6-1.8-7.3-2-11.1v-1.2c-.1-2.7-.4-5.4-.9-8.1l-4.3-18.9c-1.9-8.3-3.7-16.9-1.7-25.1-1-.4-1.9-.9-2.7-1.4-1.6-.9-1.4-3.4-.6-5.1s1.7-3.7.9-5.3c-.4-.7-.9-1.3-1.5-1.9-1.1-1.5-1.3-3.4-1.4-5.2l-.5-7.2c3 1.2 5.5 3.4 7.1 6.2-3.9-6.1-2-14.8.9-21.5 1.1-4.2 4.8-7.1 9.2-7.3 15.9-2.7 35.4-9.5 48.5.3z"/><path opacity=".1" d="M862.3 582.3s-7.9 5.3-7.9 9.2-2 39.4-2 39.4v25s1.3 13.1 0 16.4 0 18.4 0 20.4 2-20.4 2-20.4v-23.7l2-53.9 5.9-12.4z"/><path fill="#A1616A" d="M818.4 400.2l-4.6-1.8c-9.4-3.8-18.8-7.5-27.8-11.9-6.6-3.2-13.3-7-17.4-13-1.3-2-2.3-4.1-3.7-6.1-1.5-2.1-3.2-4.1-5-5.9l-12.3-13.1c-.9 1.8.3 3.8 1.2 5.5 1 1.8 1.8 3.8 2.3 5.8.2.7.2 1.4-.1 2-.4.5-1 .9-1.7 1.2-2.3 1.4-3.3 4.2-2.5 6.8.9 2.5 3 4.4 5.7 4.9.9.1 1.7.3 2.5.6 1.5.7 2.2 2.4 3.2 3.6 1.9 2.3 5 3.2 7.9 3.9 4.5 5.2 9.3 10.1 13.8 15.3 6.9 7.8 13.9 15.8 22.8 21.1 3.2 1.9 6.7 3.3 10.3 4.1 1.4-7.9 3.1-15.5 5.4-23z"/><path opacity=".15" d="M818.4 400.2l-4.6-1.8c-9.4-3.8-18.8-7.5-27.8-11.9-6.6-3.2-13.3-7-17.4-13-1.3-2-2.3-4.1-3.7-6.1-1.5-2.1-3.2-4.1-5-5.9l-12.3-13.1c-.9 1.8.3 3.8 1.2 5.5 1 1.8 1.8 3.8 2.3 5.8.2.7.2 1.4-.1 2-.4.5-1 .9-1.7 1.2-2.3 1.4-3.3 4.2-2.5 6.8.9 2.5 3 4.4 5.7 4.9.9.1 1.7.3 2.5.6 1.5.7 2.2 2.4 3.2 3.6 1.9 2.3 5 3.2 7.9 3.9 4.5 5.2 9.3 10.1 13.8 15.3 6.9 7.8 13.9 15.8 22.8 21.1 3.2 1.9 6.7 3.3 10.3 4.1 1.4-7.9 3.1-15.5 5.4-23z"/><path d="M810 426.3c-1.5-.3-3.1-.6-3.9-1.9-.5-1.1-.7-2.3-.4-3.5.8-7.5 2.5-15 5-22.1 2.2 4.1 6.6 6.5 10.8 8.7 3.7 2.1 7.6 3.8 11.6 5.3-1-.3-3.5 15.1-4.8 16-1.7 1.2-5.9-.4-7.9-.8l-10.4-1.7z"/><circle fill="#A1616A" cx="820.7" cy="400.7" r="21"/><path fill="#FBBEBE" d="M816.4 418.1s13.8 11.8 7.9 19.7-9.2 13.1-1.3 13.8 34.2-13.1 34.2-13.1-24.3-19.7-20.4-31.5-20.4 11.1-20.4 11.1z"/><path d="M829.6 436.6c-6 1.4-10.7 6.1-12.1 12.1-1.5 7.1 1.7 15-1.4 21.5-1.5 3.1-4.2 5.4-6 8.3-3.7 6.2-3.1 14.1 1.6 19.6 1.4 1.6 3.1 3.1 3.3 5.1 0 .9-.1 1.9-.3 2.8-.2 2.2.9 4.4 1.4 6.5.5 1.8.5 3.9-.5 5.4-1 1.5-1.5 3.3-1.4 5.2.5 2.8-.7 5.6-.9 8.4-.1 1.2 0 2.4-.1 3.7-.1 1.2-.4 2.3-.7 3.4l-1.8 6.5c9.5 4.1 19.7 5.5 30 5.4 9.2-.2 18.3-2.1 27.4-4 2.8-.6 5.5-1.2 8.2-1.9-5.7-7.5-6.3-17.4-6.5-26.8-.2-15.7-1.4-31.3-3.5-46.9 2.8-5.2 4-11.1 5.1-16.9.5-2.3.7-4.7.6-7.1-.3-5-2.6-9.8-4.8-14.3-2.1-4.1-4.3-8.5-8.9-10.3-2.3-.9-4.8-.7-6.8.8-3.5 2.6-2.4 7.1-3.3 11-1.2 5-5.8 8.6-10.7 10-3.7 1-7.5 1.3-11.2 1-1.1-.1-1.9-1-1.9-2.1 0-.4.2-.8.5-1.2 1.7-1.7 3.3-3.5 4.7-5.2z"/><path fill="#A1616A" d="M845.9 517.9c-7.8 6.4-15.7 12.8-24.6 17.3-5.3 2.6-10.9 4.6-16 7.4-1.3.6-2.3 1.5-3 2.7-.4 1.2-.5 2.5-.2 3.8l2.3 15.7c.6 4.3 4.7 7 8 9.7-.2-1.4-.5-2.5.2-3.8.2-.4.5-.8.8-1.2 1.4-2.1 1.5-4.9 1.1-7.4s-1-5-.9-7.6c-.1-.9.3-1.7 1.1-2.2 11.2-5.4 23.2-9.5 34.5-14.6 3-1.2 5.8-2.8 8.4-4.8 2.6-2 4.3-4.9 4.9-8.1.1-.4 0-.9-.2-1.2-.2-.2-.5-.4-.8-.5-5.2-1.7-10.6-3.4-15.6-5.2z"/><path opacity=".1" d="M824.3 451.9c-3.9.6-7.9 2.6-9.2 6.4-.5 1.6-.6 3.3-.5 5-.1 2.4.3 4.7 1.2 6.9.7 1.2 1.4 2.4 2.3 3.4 9.2 11.8 13.9 26.7 22.9 38.7.8 1.1 2.3 2.4 1.8 3.7-.2.3-.3.7-.4 1-.1.7.2 1.3.7 1.8.5.4.9 1 1.1 1.6.2.6-.3 1.5-.9 1.4 1.1 3.3 4.4 5.3 7.5 6.9 5.2 2.6 11 4.7 16.8 4.1 1.1-4.4 2.6-9.3 2-13.8-.6-3.4-1.8-6.7-3.3-9.8l-3.9-8.5c-3.3-7.3-6.7-14.6-11.3-21.2-1.7-2.1-3.1-4.3-4.2-6.8-1.2-3.1-4.5-5.3-6.4-7.9-2.9-4-6-8-9.9-10.9-1.8-1.1-4.4-2.3-6.3-2z"/><path d="M824.3 449.9c-3.9.6-7.9 2.6-9.2 6.3-.5 1.6-.6 3.3-.5 5-.1 2.4.3 4.7 1.2 6.9.7 1.2 1.4 2.4 2.3 3.4 9.2 11.8 13.9 26.7 22.9 38.7.8 1.1 2.3 2.4 1.8 3.7-.2.3-.3.7-.4 1-.1.7.2 1.3.7 1.8.5.4.9 1 1.1 1.6.2.6-.3 1.5-.9 1.4 1.1 3.3 4.4 5.3 7.5 6.9 5.2 2.6 11 4.7 16.8 4.1 1.1-4.4 2.6-9.3 2-13.8-.6-3.4-1.8-6.7-3.3-9.8l-3.9-8.5c-3.3-7.3-6.7-14.6-11.3-21.2-1.7-2.1-3.1-4.3-4.2-6.8-1.2-3.1-4.5-5.3-6.4-7.9-2.9-4-6-8-9.9-10.9-1.8-1-4.4-2.2-6.3-1.9z"/><path fill="#3F3D56" d="M815.5 366.2c-2.8.2-5.7.5-8.2 1.7s-4.7 3.6-4.8 6.4c0 1.6.6 3.3.4 4.9-.3 2.7-2.8 4.5-4.1 6.9-2.2 4.1-.5 9.4 2.4 13s6.8 6.4 9.8 10.1c4.8 5.9 6.7 13.5 5.4 20.9-.4 1.4-.5 2.9-.5 4.4.2 2.6 2 4.8 3.8 6.8 8.6 10 16.5 20.6 23.7 31.6 2.2 3.2 4.1 6.5 5.8 10 1.7 3.6 3 7.4 5.4 10.6 2.2 2.7 4.8 5 7.9 6.8 7.6 4.7 16.3 7.5 25.2 8.1l-5.2-12.8c-.9-2.3-1.8-4.7-1.5-7.1.6-4.6 5.2-7.6 6.7-12 1-2.8.5-5.9-.3-8.8-1.8-6.5-5.5-12.3-7.4-18.7-1.7-5.6-2.1-11.6-1.1-17.4.4-2.6 1.1-5.1.8-7.7-1-7.8-10.1-11.6-14.4-18.2-2.7-4.3-3.3-9.5-4.2-14.5-1.3-7.3-3.7-14.5-8.3-20.3s-11.6-10-19-9.7c-3.9.1-7.7 1.5-11.4 2.9l-9.6 3.5"/><path opacity=".1" d="M858.5 382.5c.8 4.5 1.3 9.2 3.5 13.2-.3-1.6-.5-3.1-.8-4.7-.7-3.9-1.8-7.8-3.2-11.5.2 1.1.3 2 .5 3zm17.7 40.4c-1 5.8-.6 11.8 1.1 17.4.5 1.5 1 3 1.6 4.5-.8-4.4-.9-8.9-.1-13.4.4-2.6 1.1-5.1.8-7.7-.3-2.2-1.2-4.3-2.6-6-.1 1.8-.5 3.5-.8 5.2zm11.2 44.7c-.6-1.9-1.2-3.7-2-5.5.3 1.9.2 3.9-.4 5.8-1.5 4.4-6.2 7.4-6.7 12-.3 2.4.6 4.8 1.5 7.1.3.9.7 1.7 1 2.6v-1.1c.6-4.6 5.2-7.6 6.7-12 1.2-3 .7-6.1-.1-8.9zm-27.6 23.9c-3-1.7-5.7-4-7.9-6.8-2.4-3.2-3.7-7-5.4-10.6-1.7-3.5-3.7-6.8-5.8-10-7.2-11-15.2-21.6-23.7-31.6-.3-.4-.6-.7-.9-1.1-.2.9-.3 1.9-.2 2.8.2 2.6 2 4.8 3.8 6.8 8.6 10 16.5 20.6 23.7 31.6 2.2 3.2 4.1 6.5 5.8 10 1.7 3.6 3 7.4 5.4 10.6 2.2 2.7 4.8 5 7.9 6.8 7.6 4.7 16.3 7.5 25.2 8.1l-3.5-8.6c-8.7-.7-17-3.4-24.4-8zm-51.4-90.9c-3-3.6-6.9-6.4-9.8-10-.3-.3-.5-.7-.8-1.1-.1 3.5 1.1 6.9 3.4 9.6 2.9 3.7 6.8 6.4 9.8 10.1 1.2 1.4 2.2 2.9 3 4.6-.6-4.9-2.5-9.4-5.6-13.2z"/><path fill="#3ACC6C" d="M418 298l-7.3-7.3c-1.5-1.5-3.9-1.5-5.4 0l-45.5 45.1-19.3-19.4c-1.5-1.5-3.9-1.5-5.4 0l-7.3 7.3c-1.5 1.5-1.5 4 0 5.5l29.3 29.5c1.5 1.5 3.9 1.5 5.5 0l55.6-55.1c1.4-1.7 1.4-4.1-.2-5.6.1 0 0 0 0 0zm201 0l-7.3-7.3c-1.5-1.5-3.9-1.5-5.4 0l-45.5 45.1-19.3-19.4c-1.5-1.5-3.9-1.5-5.4 0l-7.3 7.3c-1.5 1.5-1.5 4 0 5.5l29.3 29.5c1.5 1.5 3.9 1.5 5.5 0l55.6-55.1c1.4-1.7 1.4-4.1-.2-5.6.1 0 0 0 0 0z"/></svg>