<svg xmlns="http://www.w3.org/2000/svg" viewBox="0 0 1000.8 738.8"><path opacity=".1" d="M27.7 463.9c-12 2-27 7.5-26.9 20.5.1 6.6 4.4 12.2 8.7 17 18.1 20.6 38.7 38.8 61.3 54.2 10.8 7.3 22.4 14.3 29.6 25.7s9 25.8 9.6 39.5c1.4 32.5-2.4 65-11.3 96.3 35.2 6.7 74.5 12.6 103.9-8.6 17.6-12.7 29.5-34 49.1-42.8 13.1-5.9 27.9-5.4 42.1-4.6 67.5 3.6 134.8 10.2 202 20 28.1 4.1 56.8 8.7 84.6 3.4s55.2-22.6 65.5-50.6c1.6-4.3 3-9.1 6.5-11.7 3.2-2.3 7.4-2.3 11.3-2.1l235.1 8.1c12.9.4 26.2.8 38-4.5 11.4-5.1 20.2-15 28.7-24.7 19.3-22.1 40.2-49.2 34.5-79.1-4.5-24-24.9-40.8-45.1-52.5s-42.4-21.4-57.2-40.1c-22.5-28.6-21.7-69.5-23.1-106.5-1.3-33.6-5.4-67-12.3-99.8-6.1-28.9-14.6-57.8-30.5-82.2S791.4 94.6 763.9 91c-35.9-4.7-72.1 17.7-107.2 8.2-29.7-8-50.1-36.4-74.8-56.1C538.2 8.1 480.8.8 426.6.1c-57.5-.7-116.5 5.1-167.8 32.1-11.7 6.2-23.2 13.7-31.4 24.6C215 73.5 212 96 203.9 115.6 171 194.4 64.2 211.4 29.5 289.4c-12.3 27.7-12.2 59.9-3.2 89 9.6 31.3 36.8 48.5 47.6 75.8-11.6 7.5-32.2 7.4-46.2 9.7z"/><g opacity=".2"><path fill="none" stroke="#535461" stroke-width="2" stroke-miterlimit="10" d="M885.5 370.9s4.8-63.8 40.8-98.4c15.2-14.4 25.3-33.4 28.8-54.1 1.6-9.8 2.2-19.8 2-29.7"/><path d="M979.8 166.7c-2.7 7-23.1 22.6-23.1 22.6s-5-25.2-2.4-32.2c2.6-7 10.5-10.6 17.5-8 7 2.6 10.6 10.5 8 17.5.1 0 .1.1 0 .1zm6.4 46.9c-6 4.5-31.7 6.4-31.7 6.4s9.5-23.9 15.5-28.4c6.1-4.5 14.6-3.2 19 2.9 4.5 6.1 3.2 14.7-2.8 19.1zm-26.1 66.2c-7.5.8-30.6-10.5-30.6-10.5s20.3-15.8 27.7-16.6c7.5-.8 14.2 4.6 15 12s-4.6 14.2-12 15c0 .1-.1.1-.1.1zM929 325.5c-7.2 2-31.9-5.1-31.9-5.1s17.3-19 24.5-21.1c7.2-2 14.8 2.2 16.8 9.4 2.1 7.2-2.1 14.8-9.4 16.8zm-1.8-114.2c3.2 6.8 24.8 20.8 24.8 20.8s3.1-25.5-.1-32.3c-3.2-6.8-11.3-9.7-18.1-6.5-6.8 3.1-9.8 11.2-6.6 18zm-35.6 53.9c5.1 5.5 29.8 12.4 29.8 12.4s-4.7-25.3-9.8-30.8c-5.1-5.5-13.7-5.9-19.2-.8s-5.9 13.6-.8 19.2zm-27.4 57.1c4.1 6.3 27.3 17.3 27.3 17.3s-.4-25.7-4.4-32c-4.1-6.3-12.5-8.1-18.8-4.1s-8.2 12.4-4.1 18.8z"/></g><linearGradient id="a" gradientUnits="userSpaceOnUse" x1="534.54" y1="191.06" x2="534.54" y2="652.06" gradientTransform="matrix(1 0 0 -1 0 739.89)"><stop offset="0" stop-color="gray" stop-opacity=".25"/><stop offset=".54" stop-color="gray" stop-opacity=".12"/><stop offset="1" stop-color="gray" stop-opacity=".1"/></linearGradient><path fill="url(#a)" d="M164.1 87.8v461h740.8v-461H164.1z"/><path fill="#F6F7F9" d="M172 92.7h725.2v35.2H172V92.7z"/><path opacity=".2" d="M172 92.7h725.2v35.2H172V92.7z"/><path fill="#F6F7F9" d="M172 127.9h725.2v416H172v-416z"/><circle fill="#F6F7F9" cx="189.4" cy="110.1" r="7.8"/><circle fill="#F6F7F9" cx="210.2" cy="110.1" r="7.8"/><circle fill="#F6F7F9" cx="231.1" cy="110.1" r="7.8"/><path opacity=".2" d="M197.2 179.6h373v26.9h-373v-26.9zm468.6 0h195.6v26.9H665.8v-26.9zm-396 254.8h26.1v86.1h-26.1v-86.1zm50.4-61.7h26.1v147.8h-26.1V372.7zm50.4-61.8h26.1v209.5h-26.1V310.9zm50.5 20h26.1v189.5h-26.1V330.9zm50.4 59.2h26.1v130.4h-26.1V390.1zm193.9-124.4H861v240.4H665.4V265.7z"/><linearGradient id="b" gradientUnits="userSpaceOnUse" x1="1028.822" y1="-75.662" x2="1028.822" y2="332.501" gradientTransform="matrix(1 0 0 -1 -99.6 659.3)"><stop offset="0" stop-color="gray" stop-opacity=".25"/><stop offset=".54" stop-color="gray" stop-opacity=".12"/><stop offset="1" stop-color="gray" stop-opacity=".1"/></linearGradient><path fill="url(#b)" d="M997.8 436.8c-1.3-6.4-3.7-12.6-3.7-19.1-.1-10.5 5.5-22.7-1.8-30.5-1.7-1.8-3.9-3.1-5.2-5.2-.9-1.8-1.4-3.8-1.3-5.8-.1-12.3 6.6-24.7 2.6-36.4-.8-2.6-2.4-4.9-4.6-6.5-2.3-1.5-5-1.8-7.9-1.8-2.6 0-5.3.3-8 .3-1.5 0-3-.2-4.5-.6-3.1-.9-5.7-2.9-8.8-3.9-1.6-.5-3.3-.8-5-.7-6.7-.2-12.9 4.3-17.6 8.6-2.4 2-4.9 3.8-7.6 5.5.4-.3-9.3 6.4-5.7 6.5 2.6.1 5.1 1 7.2 2.5-4.5 7-4.1 16.1 1 22.7-1.6-1.6-3.3-3.3-5.2-5-5.4-5.3-12.8-12.3-16.4-14.3-5.8-3.1-14.1-9.9-14.1-9.9s-10.8 6-7.4 14.3c1.6.5 3.1 1.1 4.6 1.8 0 1.1.2 2.2.6 3.2 3.4 1.1 6.6 2.7 9.5 4.7.3.5.6.9.9 1.4 1.4 2.5 5.9 7 11.3 12.1 3.8 3.8 8.8 8.4 13.9 12.8-1.5 3-3.1 6-3.4 9-.4-.2-.8-.3-1.1-.5-7.4-4-24.8-3.6-24.8-3.6s-14.5-7.6-17.4-24.7c0 0-2.9-10.4-2.1-13.1l.4-.1 3.5-6.3c.7-1.4.2-3-1.1-3.8-.3-.2-.7-.3-1.1-.3-16.9-1.5-17.7 14-17.7 14h.2v.1c2.1 10 3.7 9.1 3.3 17.1l6.6 17.5s.4 6 12.4 13.9 25.6 20.3 25.6 20.3-7.2 3.8-4.5 21.1c3.3 21.2-1.7 51.3-1.7 51.3v19.5l.9-.3c-.1.7-.2 1.3-.3 2.1-1.5 9.8-1.7 19.8-.6 29.6 2.5 20.7 12.4 49 12.4 49s3.7 10 4.5 17.9c.1 1.6.5 3.1 1.1 4.6 1.9 4.4 2.8 9.1 2.9 13.8 0 11.9 2.1 23.8 6.4 34.9 4.2 10.6 5.8 16.9 6.2 20.5-3 3.9-6.9 8.1-9.9 8.5-5.8.8-17 1.6-9.5 11.1.3.3.5.6.9.9-5.7.9-11.9 2.9-5.8 10.6 7.4 9.5 51.3 5.2 51.3 5.2s.3-5.3 0-11.1c3.1-.2 5-.4 5-.4s1.2-23.1-4.1-25.9c-1 .1-2 .3-2.9.7-.6-3.2-1-7.2-1.3-10.1l2.1-.2v-.2h.1v-34.8s-2.5-21.5-11.6-31c-1.2-1.2-2.2-2.5-3-4l-.1-.3c.1-2.7.1-6.4 0-10.6l.1-.2c.2-.3.3-.5.5-.7.2-.3.4-.5.7-.8l.1-.2s5-6 21.9-43.8c10.3-23.1 7.6-36 3.9-42.7-.8-3-2.4-9.7-4.4-21.2-.8-4.9-1.2-9.8-1.2-14.8 2.6.6 5.2.9 7.8.9 4.1.1 8.3-.8 12-2.6-2.7-3.9-5.5-8.6-4.2-13.1 1.5-5.2 7.6-7.5 11.2-11.7 4.2-4.1 4.3-11.3 3-17.7z"/><path fill="#797C9C" d="M893.1 347.7s-10.3 5.9-7.1 14.2c0 0 10.7 3.2 15 11s37.9 36.3 37.9 36.3l24.5-12.2s-8.5-11.4-35.4-19.3c0 0-15.9-17-21.4-20.2s-13.5-9.8-13.5-9.8z"/><path opacity=".05" d="M898.1 352.7s-10.3 5.9-7.1 14.2c0 0 10.7 3.2 15 11s37.9 36.3 37.9 36.3l24.5-12.2s-8.5-11.4-35.4-19.3c0 0-15.9-17-21.4-20.2s-13.5-9.8-13.5-9.8z"/><path d="M15.6 643.8s-57.7 34.8 48.6 88.3c0 0 23.4-43.5-2.5-78.9-10.4-14.3-29.9-18.6-45.3-9.9l-.8.5z"/><path stroke="#535461" stroke-miterlimit="10" d="M16.3 643.1s49.3 37.8 48 89.1"/><path fill="none" stroke="#535461" stroke-width="2" stroke-miterlimit="10" d="M67 732.8s-18.1-61.4 3.4-106.5c9.1-18.9 11.9-40.2 7.8-60.8-2-9.8-4.9-19.3-8.6-28.5"/><path d="M83 508.4c0 7.5-13.6 29.3-13.6 29.3s-13.6-21.8-13.6-29.3 6.1-13.6 13.6-13.6S83 500.9 83 508.4zm22.5 41.7c-4.1 6.3-27.4 17.2-27.4 17.2s.4-25.7 4.5-32c4.1-6.3 12.5-8.1 18.8-4 6.4 4.1 8.2 12.5 4.1 18.8zm-1 71.2c-6.7 3.4-32.3 1-32.3 1s13.3-22 20.1-25.4c6.7-3.4 14.9-.7 18.3 6 3.3 6.7.6 14.9-6.1 18.4zm-12.8 53.6c-6 4.5-31.7 6.5-31.7 6.5s9.4-23.9 15.5-28.4c6-4.5 14.6-3.2 19 2.8 4.5 6.1 3.2 14.7-2.8 19.1zM49.6 568.8c5.4 5.2 30.5 10.7 30.5 10.7s-6.2-25-11.6-30.2c-5.4-5.3-14-5.2-19.3.1s-5.2 14 .1 19.3c.2 0 .2 0 .3.1zm-14.3 62.9c6.7 3.4 32.3 1 32.3 1s-13.3-22-20-25.4c-6.7-3.4-14.9-.7-18.3 6-3.4 6.8-.7 15 6 18.4zm-5.4 63.1c6 4.5 31.7 6.5 31.7 6.5s-9.4-23.9-15.5-28.4c-6-4.5-14.6-3.2-19 2.9-4.6 6-3.3 14.6 2.8 19z"/><path opacity=".25" d="M83 508.4c0 7.5-13.6 29.3-13.6 29.3s-13.6-21.8-13.6-29.3 6.1-13.6 13.6-13.6S83 500.9 83 508.4zm22.5 41.7c-4.1 6.3-27.4 17.2-27.4 17.2s.4-25.7 4.5-32c4.1-6.3 12.5-8.1 18.8-4 6.4 4.1 8.2 12.5 4.1 18.8zm-1 71.2c-6.7 3.4-32.3 1-32.3 1s13.3-22 20.1-25.4c6.7-3.4 14.9-.7 18.3 6 3.3 6.7.6 14.9-6.1 18.4zm-12.8 53.6c-6 4.5-31.7 6.5-31.7 6.5s9.4-23.9 15.5-28.4c6-4.5 14.6-3.2 19 2.8 4.5 6.1 3.2 14.7-2.8 19.1zM49.6 568.8c5.4 5.2 30.5 10.7 30.5 10.7s-6.2-25-11.6-30.2c-5.4-5.3-14-5.2-19.3.1s-5.2 14 .1 19.3c.2 0 .2 0 .3.1zm-14.3 62.9c6.7 3.4 32.3 1 32.3 1s-13.3-22-20-25.4c-6.7-3.4-14.9-.7-18.3 6-3.4 6.8-.7 15 6 18.4zm-5.4 63.1c6 4.5 31.7 6.5 31.7 6.5s-9.4-23.9-15.5-28.4c-6-4.5-14.6-3.2-19 2.9-4.6 6-3.3 14.6 2.8 19z"/><path fill="none" stroke="#535461" stroke-width="2" stroke-miterlimit="10" d="M108.8 734s-18.1-61.3 3.4-106.5c9.1-18.9 11.9-40.2 7.8-60.8-2-9.8-4.9-19.3-8.6-28.5"/><path d="M124.8 509.6c0 7.5-13.6 29.3-13.6 29.3s-13.6-21.8-13.6-29.3 6.1-13.6 13.6-13.6 13.6 6.1 13.6 13.6zm22.5 41.7c-4.1 6.3-27.4 17.2-27.4 17.2s.4-25.7 4.5-32c4.1-6.3 12.5-8.1 18.8-4 6.4 4 8.2 12.5 4.1 18.8zm-1 71.1c-6.7 3.4-32.3 1-32.3 1s13.3-22 20.1-25.4c6.7-3.4 14.9-.8 18.4 5.9 3.4 6.7.8 14.9-5.9 18.4-.1 0-.2.1-.3.1zm-12.8 53.7c-6 4.5-31.7 6.5-31.7 6.5s9.4-23.9 15.5-28.4c6-4.5 14.6-3.2 19 2.8 4.5 6.1 3.2 14.6-2.8 19.1zM91.4 569.9c5.4 5.2 30.5 10.7 30.5 10.7s-6.2-25-11.6-30.2c-5.4-5.3-14-5.2-19.3.1s-5.2 14 .1 19.3c.2 0 .2.1.3.1zm-14.3 63c6.7 3.4 32.3 1 32.3 1s-13.3-22-20.1-25.4c-6.7-3.4-14.9-.7-18.3 6-3.3 6.8-.6 15 6.1 18.4zM71.7 696c6 4.5 31.7 6.5 31.7 6.5s-9.4-23.9-15.5-28.4c-6-4.5-14.6-3.2-19 2.8-4.6 6.1-3.3 14.6 2.8 19.1zm-47.2 35.8h953v7h-953v-7z"/><linearGradient id="c" gradientUnits="userSpaceOnUse" x1="799.215" y1="150.86" x2="799.215" y2="399.06" gradientTransform="matrix(1 0 0 -1 0 739.89)"><stop offset="0" stop-color="gray" stop-opacity=".25"/><stop offset=".54" stop-color="gray" stop-opacity=".12"/><stop offset="1" stop-color="gray" stop-opacity=".1"/></linearGradient><path fill="url(#c)" d="M698.2 340.8h202V589h-202V340.8z"/><path d="M701.4 344.7H897v240.4H701.4V344.7z"/><path fill="#E8EAF1" d="M714.5 365.8h40v40h-40v-40zm20 64h142v8h-142v-8zm0 17h142v8h-142v-8zm0 17h142v8h-142v-8zm0 17h142v8h-142v-8zm0 17h142v8h-142v-8zm0 17h142v8h-142v-8zm0 17h142v8h-142v-8z"/><path fill="#FFB9B9" d="M957 684.3s1.2 17.4 3.2 19.3-17.8 3.2-17.8 3.2l2.8-22.5H957z"/><path opacity=".05" d="M957 684.3s1.2 17.4 3.2 19.3-17.8 3.2-17.8 3.2l2.8-22.5H957z"/><path fill="#E4E2F3" d="M961.4 697.7s-2.8 0-12.6 5.1c0 0-6.7-1.2-9.5-10.7 0 0-8.3 14.2-13.8 15s-16.2 1.6-9.1 11 48.9 5.1 48.9 5.1 1.2-22.7-3.9-25.5z"/><path opacity=".05" d="M961.4 697.7s-2.8 0-12.6 5.1c0 0-6.7-1.2-9.5-10.7 0 0-8.3 14.2-13.8 15s-16.2 1.6-9.1 11 48.9 5.1 48.9 5.1 1.2-22.7-3.9-25.5z"/><path fill="#FFB9B9" d="M955.5 711.1l-2.8 7.5-18.2-5.1 1-7.4.3-1.8.7-5s15.4-4 15.4-2c.2 1.6.5 3.2 1 4.8.6 2.4 1.4 5.2 2 7 .3 1.3.6 2 .6 2z"/><path fill="#4C4C78" d="M945.6 608.2c-2 3.4-2 7.6 0 11 .8 1.4 1.7 2.7 2.8 3.9 8.7 9.5 11 30.8 11 30.8v34.3l-5.9.5-9.5.7-14.1-58.4s-8.3-42.6-4.3-50.1 7.5-54.5 7.5-54.5l3.3-3.4 7.8-8h22.5c1.8 1.3 3.3 3 4.4 4.9 3.8 6.3 7.2 19.3-3.2 43.3-16.2 37.5-20.9 43.4-20.9 43.4-.7.5-1.1 1-1.4 1.6z"/><path opacity=".05" d="M945.7 608c-2 3.4-2 7.6 0 11 .8 1.4 1.7 2.7 2.8 3.9 8.7 9.5 11 30.8 11 30.8V688l-5.9.5-9.5.7-14.1-58.3s-8.3-42.6-4.3-50.1 7.5-54.5 7.5-54.5l3.3-3.4 7.8-8h22.5c1.8 1.3 3.3 3 4.4 4.9 3.8 6.3 7.2 19.3-3.2 43.3-16.2 37.5-20.9 43.4-20.9 43.4-.6.4-1.1.9-1.4 1.5z"/><path opacity=".1" d="M952.9 702.1l-17.1 2.1.7-5s15.4-4 15.4-2c.2 1.7.6 3.3 1 4.9z"/><path fill="#4C4C78" d="M944.4 557.6s1 31.1 1.1 50.6v11c0 1.5-.1 2.9-.3 4.3-1.2 3.5 1.2 11.4 1.2 11.4 5.9 15.6 8.3 32.3 7.1 48.9v17.4l-18.9 2.4s3.2-2.4-5.5-25.3c-4.1-11.1-6.1-22.8-6.1-34.6 0-4.7-1-9.4-2.8-13.7-.5-1.5-.9-3-1-4.6-.8-7.9-4.3-17.8-4.3-17.8s-9.5-28-11.8-48.5c-1.1-9.8-.9-19.6.5-29.4.3-2.5.8-4.9 1.4-7.3 0 0 38.6-24.3 53.2-7.5 1.4 1.6 2.5 3.5 3.3 5.5.8 2 1.4 4 1.9 6.2 4.4 22.3-19 31-19 31z"/><circle fill="#FFB9B9" cx="943.2" cy="364.6" r="20.1"/><path fill="#FFB9B9" d="M932.2 377.3s8.3 23.3 0 35.5 26.4 8.3 26.4 8.3l13.4-16.2s-15.8 0-16.6-27.6-23.2 0-23.2 0z"/><path opacity=".1" d="M972 524.5c-2.9 1-5.8 1.7-8.8 2.2-4.9.8-10.7.8-14.1-2.2-2-1.8-7-2-12.9-1.4-12.5 1.2-29.5 5.9-32.7 6.8.3-2.5.8-4.9 1.4-7.3 0 0 38.6-24.3 53.2-7.5h8.4c1.8 1.3 3.3 3 4.4 4.9.7 3 1.1 4.5 1.1 4.5zm-16.5 186.6l-2.8 7.5-18.2-5.1 1-7.4c3.1 6.9 8.4 7.8 8.4 7.8 3.5-1.9 7.1-3.5 10.9-4.8.4 1.2.7 2 .7 2z"/><path fill="#E4E2F3" d="M956.7 709.2s-2.8 0-12.6 5.1c0 0-6.7-1.2-9.5-10.7 0 0-8.3 14.2-13.8 15s-16.2 1.6-9.1 11 48.9 5.1 48.9 5.1 1.2-22.8-3.9-25.5z"/><path fill="#FFB9B9" d="M863 368.5s.8-15.4 16.9-13.9c1.5.2 2.6 1.5 2.5 3 0 .3-.1.7-.3 1l-3.3 6.2-15.8 3.7z"/><path fill="#797C9C" d="M956.3 409.6s-19.3-3.2-24.5-7.1c0 0-4 7.5-11 3.5s-23.7-3.5-23.7-3.5c-8.8-5.4-14.8-14.3-16.6-24.5 0 0-2.8-10.3-2-13 0 0-10.3-10.7-15.4 3.5 2 9.9 3.5 9.1 3.2 17l6.3 17.4s.4 5.9 11.8 13.8 24.5 20.1 24.5 20.1-6.9 3.8-4.3 20.9c3.1 21-1.6 50.9-1.6 50.9v19.3s39.5-11.4 46.2-5.5 22.9 0 22.9 0-2-6.7-4.7-22.9.4-32 .4-32 10.3-27.2 15-38.3-3.5-26-11.8-31.6-11.4-2.2-11.4-2.2 14.4 10.7-3.3 14.2z"/><path opacity=".05" d="M905.5 466.6s3.2-.8 18.9-3.1 43.4 3.2 43.4 3.2"/><path opacity=".1" d="M919.2 351.6c9 .2 15.7 11.3 11.7 19.3-1.8 3.5-5.1 6.6-4.8 10.5.2 1.8 1.1 3.4 1.5 5.1 1.9 8-7.7 15.5-5.5 23.4.7 2.1 1.9 4.1 3.4 5.7l16.6 20.9c1 1.2 1.8 2.4 2.5 3.8.6 2 .9 4.1.7 6.1-.1 10 .6 20.7 6.5 28.8 7.1 9.7 21.5 13.2 32.3 7.8-2.6-3.9-5.3-8.5-4-13 1.5-5.1 7.3-7.5 10.7-11.6 4.1-5 4.2-12.1 3-18.4s-3.5-12.5-3.5-18.9c-.1-10.4 5.3-22.5-1.8-30.3-1.6-1.8-3.8-3.1-5-5.1-.9-1.8-1.3-3.8-1.2-5.8-.1-12.2 6.3-24.5 2.5-36.1-.7-2.6-2.3-4.8-4.4-6.4-5.5-3.7-13.1-.1-19.4-2-3-.9-5.5-2.9-8.4-3.9-7.9-2.7-15.2 2.7-20.7 7.8-2.3 2-4.7 3.8-7.2 5.4.3.2-9 6.8-5.5 6.9z"/><path fill="#B36362" d="M920.2 351.6c9 .2 15.7 11.3 11.7 19.3-1.8 3.5-5.1 6.6-4.8 10.5.2 1.8 1.1 3.4 1.5 5.1 1.9 8-7.7 15.5-5.5 23.4.7 2.1 1.9 4.1 3.4 5.7l16.6 20.9c1 1.2 1.8 2.4 2.5 3.8.6 2 .9 4.1.7 6.1-.1 10 .6 20.7 6.5 28.8 7.1 9.7 21.5 13.2 32.3 7.8-2.6-3.9-5.3-8.5-4-13 1.5-5.1 7.3-7.5 10.7-11.6 4.1-5 4.2-12.1 3-18.4s-3.5-12.5-3.5-18.9c-.1-10.4 5.3-22.5-1.8-30.3-1.6-1.8-3.8-3.1-5-5.1-.9-1.8-1.3-3.8-1.2-5.8-.1-12.2 6.3-24.5 2.5-36.1-.7-2.6-2.3-4.8-4.4-6.4-5.5-3.7-13.1-.1-19.4-2-3-.9-5.5-2.9-8.4-3.9-7.9-2.7-15.2 2.7-20.7 7.8-2.3 2-4.7 3.8-7.2 5.4.3.2-9 6.8-5.5 6.9z"/><linearGradient id="d" gradientUnits="userSpaceOnUse" x1="2225.357" y1="-77.657" x2="2225.357" y2="316.732" gradientTransform="matrix(1 0 0 -1 -1655.6 659.3)"><stop offset="0" stop-color="gray" stop-opacity=".25"/><stop offset=".54" stop-color="gray" stop-opacity=".12"/><stop offset="1" stop-color="gray" stop-opacity=".1"/></linearGradient><path fill="url(#d)" d="M618.1 541.9c-2.3-2.1-4.3-4.6-5.9-7.3-3.5-5.4-9.3-8.4-13.2-9.8V523h.2l-.1-1.6h.1l-.3-4.3-1.4-21.7s-5.1-14.5 3.9-27.8.6-26.1-7.9-31c0 0-4-21.1-.6-26.1-4.6-2.7-9.3-5.1-14.2-7.2-.1-.3-.1-.5-.2-.8-.1-2-.2-3.9-.3-5.9.1-1 .3-2 .6-3 .1-.4.2-.8.4-1.3 8.3-3.2 13.8-11.2 13.8-20.1 0-2.5-.5-5.1-1.3-7.4.4-.7.8-1.5 1-2.4.4-2.4 0-4.9-1.3-6.9-2.2-5-7.9-9.6-12-11.2-5.9-2.4-14.7-1.8-20.8-1.1-3.4.4-7.3 1.6-8.6 4.7-.3 1.2-.6 2.4-.8 3.6-1.3 4.8-6.8 7.1-10.3 10.8-3 3.3-4.4 7.7-5.3 12-2.8 12.4-3.5 25.1-2 37.7.3 2.9.8 5.8 1.3 8.7-2.1 2.9-3.9 8-3.1 17l-6.8 32.2-2.8 18.8c-.8 5.3 1.1 10.7 5.1 14.4 4.3 4.2 9.6 11.4 12.8 16.1-1.4 4.1-2.1 8.4-2.1 12.8.1 2 .2 3.9.3 5.7.3 3.8 1 7.6 2.2 11.3.8 7.7 2.4 17.6 5.4 24l1.1 33.8s-1.7 31-5.1 37.2 7.3 57.7 7.3 57.7v7.2l-1.8 5.3-.5-.3c-8.5 10.5 0 14.4 0 14.4s2.3.1 6 .3c-.6 3 .8 6.1 3.6 7.5 0 0 48 2.2 56.5 0s6.2-10 1.7-9.4c-2.3.1-4.6-.2-6.8-.9 2.6-3.1.5-7.3-2.8-6.9-4.5.5-14.7-3.5-14.7-3.5v.1c-.3-.1-.7-.2-1-.3-3.8-.9-7.5-1.9-11.2-3.2-2.2-4.7-7.2-17.2-3.6-27 1.6-4.4 2.2-10.3 2.2-15.9.1-17.1 2.6-34.2 7.4-50.6l6.8-23.3s9.6-28.3 10.2-36l-.1-11.3c7.9 5.1 14.2 3.6 18.3 1.2 2.1-1.2 2.8-3.8 1.6-5.9-.2-.5-.6-.9-.9-1.3zm-75.4-58.8c.2-.8.3-1.7.5-2.6h4c1.7 3.4 2.3 7.2 2 10.9-3-1-7.6-3.4-6.5-8.3z"/><path fill="#DB8B8B" d="M548.1 706.3l-2.2 6.5 7.1 7.1 23.4 5.4 16.8-1.6-1.1-6c-.7-2.6-2.7-4.6-5.3-5.3-6.9-1.6-20.1-5.3-22.9-10.5l-15.8 4.4z"/><path opacity=".1" d="M548.1 706.3l-2.2 6.5 7.1 7.1 23.4 5.4 16.8-1.6-1.1-6c-.7-2.6-2.7-4.6-5.3-5.3-6.9-1.6-20.1-5.3-22.9-10.5l-15.8 4.4z"/><path fill="#474463" d="M587.8 722l-3.3-4.3 3.3-5s9.8 4 14.1 3.4 6.5 7.1-1.6 9.2-54.3 0-54.3 0-8.2-3.8 0-14.1l7.1 5.4s12 6.5 17.9 5.4h16.8z"/><path fill="#DB8B8B" d="M602.4 731.3l-16.8 1.6-23.3-5.5-7.1-7 .6-1.7.8-2.4.8-2.4 15.8-4.3c.8 1.3 1.9 2.4 3.2 3.2 5.1 3.5 14.3 6 19.7 7.3.2.1.5.1.7.2 2.3.8 4.1 2.7 4.7 5.1l.9 5.9z"/><path opacity=".1" d="M602.4 731.3l-16.8 1.6-23.3-5.5-7.1-7 .6-1.7 6.5 5s12 6.5 17.9 5.4H597l-3.3-4.3 2.9-4.5c2.3.8 4.1 2.7 4.7 5.1l1.1 5.9z"/><path fill="#474463" d="M597 729.6l-3.3-4.3 3.3-5s9.8 4 14.1 3.4 6.5 7.1-1.6 9.2-54.3 0-54.3 0-8.2-3.8 0-14.1l7.1 5.4s12 6.5 17.9 5.4H597z"/><path fill="#DB8B8B" d="M583.4 414.5s-26.1 2.7-22.3-8.1c1.1-3.1 1.3-6.4.8-9.6-.7-4-2.3-7.8-4.6-11l24.5 3.8c-1.5 2.4-2.6 5.1-3.3 7.9-2.9 11.4 4.9 17 4.9 17z"/><path fill="#474463" d="M538.9 538.4s.5 23.4 6 34.8l1.1 33.1s-1.6 30.4-4.9 36.4 7.1 56.5 7.1 56.5v8.7s17.4 6.5 22.3-1.1l-4.9-64.7 2.2-89.6-28.9-14.1z"/><path opacity=".1" d="M538.9 538.4s.5 23.4 6 34.8l1.1 33.1s-1.6 30.4-4.9 36.4 7.1 56.5 7.1 56.5v8.7s17.4 6.5 22.3-1.1l-4.9-64.7 2.2-89.6-28.9-14.1z"/><path fill="#CBCDDA" d="M528 463.4l-3.3 8.7-2.7 18.5c-.7 5.2 1.1 10.5 4.9 14.1 6.5 6.5 15.2 20.1 15.2 20.1l10.3-31s-10.3-1.6-8.7-8.7 1.1-20.1 1.1-20.1l-16.8-1.6z"/><path opacity=".05" d="M528 462.4l-3.3 8.7-2.7 18.5c-.7 5.2 1.1 10.5 4.9 14.1 6.5 6.5 15.2 20.1 15.2 20.1l10.3-31s-10.3-1.6-8.7-8.7 1.1-20.1 1.1-20.1l-16.8-1.6z"/><path opacity=".1" d="M576.3 712.7c-7 11-17.8 4.8-19.7 3.5l.8-2.4 15.8-4.3c.7 1.3 1.8 2.4 3.1 3.2z"/><path fill="#474463" d="M598.1 559.6c-.5 7.6-9.8 35.3-9.8 35.3l-6.5 22.8c-4.7 16.1-7.1 32.8-7.2 49.6 0 5.6-.5 11.3-2.1 15.6-4.3 12 4.3 28.3 4.3 28.3-7.6 13.6-20.6 4.3-20.6 4.3v-8.7s-10.3-47.3-7.6-56.5 3.8-34.2 3.8-34.2V571c-8.7-8.7-14-20.2-14.9-32.4-.1-1.8-.2-3.7-.3-5.6-.4-12.3 7.9-26.6 11.2-31.8.8-1.2 1.3-1.9 1.3-1.9l48 19h.1v6l.3 35.3z"/><path opacity=".1" d="M581.8 389.5c-1.5 2.4-2.6 5.1-3.3 7.9-5.4 2-11.3 1.8-16.5-.6-.7-4-2.3-7.8-4.6-11l24.4 3.7z"/><circle fill="#DB8B8B" cx="570.9" cy="376.5" r="21.2"/><path opacity=".1" d="M598.1 524.3h-.2c-22.8 4.7-51.4-19.1-51.4-19.1.8-1.3 1.4-2.6 2-4 .8-1.2 1.3-1.9 1.3-1.9l48 19 .1 1.9.2 4.1z"/><path fill="#CBCDDA" d="M592.1 414s-30.4-18.5-40.2-10.9l-13.6 17.4s-8.7 2.7-7.1 20.1l-6.5 31.5 19.6 4.9s11.4 10.9 2.2 26.6c0 0 28.8 23.9 51.6 19l-1.7-25.5s-4.9-14.1 3.8-27.2.5-25.5-7.6-30.4c0 0-3.8-20.6-.5-25.5z"/><path fill="#DB8B8B" d="M593.7 524.8s11.4 2.2 16.8 10.9c1.6 2.6 3.5 5 5.7 7.1 1.8 1.6 1.9 4.3.3 6.1-.3.3-.6.6-1 .8-4.3 2.6-11.3 4.2-20.2-3.1-15.1-12.6-1.6-21.8-1.6-21.8z"/><path opacity=".1" d="M576.9 424.3s-10.9-1.1-13.6 27.2-7.1 34.8-7.1 34.8-2.7 14.7 3.8 23.4 19 27.2 19 27.2 13.6 3.8 16.3-9.8l-16.8-31.5s-2.7-10.9 3.8-18.5 11.4-58.2-5.4-52.8z"/><path fill="#CBCDDA" d="M578 422.7s-10.9-1.1-13.6 27.2-7.1 34.8-7.1 34.8-2.7 14.7 3.8 23.4 19 27.2 19 27.2 13.6 3.8 16.3-9.8L579.6 494s-2.7-10.9 3.8-18.4 11.4-58.4-5.4-52.9z"/><path opacity=".1" d="M586.9 443s1.1 16.8-3.8 26.1-4.9 21.2 0 27.7m6.6-74.4s-4.3-4.4-16.8-4.9-17.9-4.4-17.9-4.4"/><path opacity=".1" d="M559.4 349.1c-3.3.4-7.1 1.5-8.3 4.6-.3 1.2-.6 2.4-.8 3.6-1.2 4.8-6.6 7-9.9 10.6-2.9 3.2-4.2 7.5-5.1 11.8-2.7 12.1-3.4 24.6-1.9 36.9 1.1 9 3.2 17.9 3.8 26.9s-.5 18.6-5.5 26.2c-2.1 3.3-4.9 6.1-6.4 9.7 3.1 2.5 7.4 2.9 11.4 3 4.7.2 9.3.2 14 0 2.5-.1 5-.2 7.1-1.5 1.6-1 2.9-2.4 3.7-4 2.7-4.5 3.3-10 3.2-15.3s-1-10.5-1-15.8c0-2.9.2-5.9 1.8-8.3 1.2-1.7 3-2.8 4.5-4.2 5.8-5.1 7.8-13.4 8-21.2s-1.1-15.5-.4-23.3c.3-3 1.4-6.7 4.4-7.3 1 0 1.9-.2 2.8-.4 2.4-.9 2.2-4.3 2.8-6.8.8-2.8 3.1-4.9 3.8-7.7 1.6-6.6-6.8-14.4-12.3-16.7-5.3-2.1-13.8-1.5-19.7-.8z"/><path fill="#472727" d="M558.9 348c-3.3.4-7.1 1.5-8.3 4.6-.3 1.2-.6 2.4-.8 3.6-1.2 4.8-6.6 7-9.9 10.6-2.9 3.2-4.2 7.5-5.1 11.8-2.7 12.1-3.4 24.6-1.9 36.9 1.1 9 3.2 17.9 3.8 26.9s-.5 18.6-5.5 26.2c-2.1 3.3-4.9 6.1-6.4 9.7 3.1 2.5 7.4 2.9 11.4 3 4.7.2 9.3.2 14 0 2.5-.1 5-.2 7.1-1.5 1.6-1 2.9-2.4 3.7-4 2.7-4.5 3.3-10 3.2-15.3s-1-10.5-1-15.8c0-2.9.2-5.9 1.8-8.3 1.2-1.7 3-2.8 4.5-4.2 5.8-5.1 7.8-13.4 8-21.2s-1.1-15.5-.4-23.3c.3-3 1.4-6.7 4.4-7.3 1 0 1.9-.2 2.8-.4 2.4-.9 2.2-4.3 2.8-6.8.8-2.8 3.1-4.9 3.8-7.7 1.6-6.6-6.8-14.4-12.3-16.7-5.3-2.1-13.8-1.5-19.7-.8z"/></svg>