<svg version="1.1" id="图层_1" xmlns="http://www.w3.org/2000/svg" x="0" y="0" viewBox="0 0 1144 617.3" xml:space="preserve"><style>.st5{fill:#767d9f}.st6{fill:#ae6e79}.st7{fill:#4c4981}.st9{fill:#9c9ca1}.st11{opacity:.1}.st12{fill:#fff}</style><path d="M1144 396.2c0 16.8-2.3 33.5-6.8 49.6-4.4 15.6-10.9 30.5-19.3 44.3 0 50.1-33.8 93.4-82.9 114-20.5 8.5-42.5 12.9-64.7 12.8H217.2c-40.3 0-77.6-10.9-108.1-29.4-8.8-5.3-17.1-11.3-24.8-17.9-34-29.2-55.1-69.6-55.1-114.2C10 426.1-.1 391.8 0 356.7c0-73.4 43.4-136.4 105.6-164.3 8.3-3.7 16.8-6.7 25.5-9.1 3.1-.8 6.2-1.6 9.4-2.3 8.4-1.8 16.9-3 25.5-3.5 3.1-.2 6.2-.3 9.4-.3h1.7c3.5 0 6.9.1 10.3.3l1.1-1.9c1.4-2.3 2.8-4.6 4.2-6.8 2.6-4.1 5.3-8.1 8.2-12.1 3-4.2 6.1-8.3 9.4-12.4l.8-1c1.8-2.3 3.7-4.6 5.6-6.8 6-7 12.3-13.8 19-20.3C307.8 45.5 420.7 0 547.7 0 646.5 0 736.9 27.5 806 73.1c26.2-14.8 55.8-22.6 85.9-22.6 97.7 0 177 80.4 177 179.5 0 6.3-.3 12.5-1 18.8 47.9 33.9 76.3 88.9 76.1 147.4z" opacity=".1"/><path d="M349.6 272.6h25.5v25.5h-25.5v-25.5zm34.9 0H410v25.5h-25.5v-25.5zm34.9 0h25.5v25.5h-25.5v-25.5zM235.7 116.2v20.3h-19c5.9-7 12.2-13.7 19-20.3zm9.3-5.2h25.5v25.5H245V111zm34.9 0h25.5v25.5h-25.5V111zm34.9 0h25.5v25.5h-25.5V111zm34.8 0h25.5v25.5h-25.5V111zm34.9 0H410v25.5h-25.5V111zm69.7 0h25.5v25.5h-25.5V111zm34.9 0h25.5v25.5h-25.5V111zm34.8 0h25.5v25.5h-25.5V111zm69.8 0h25.5v25.5h-25.5V111zm34.8 0H654v25.5h-25.5V111zm34.9 0h25.5v25.5h-25.5V111zm34.9 0h25.5v25.5h-25.5V111zm34.8 0h25.5v25.5h-25.5V111zm34.9 0h25.5v25.5H768V111zm104.6 0h25.5v25.5h-25.5V111zm34.9 0H933v25.5h-25.5V111zm-697.4 32.3h25.5v25.5h-25.5v-25.5zm69.8 0h25.5v25.5h-25.5v-25.5zm69.7 0h25.5v25.5h-25.5v-25.5zm139.5 0h25.5v25.5h-25.5v-25.5zm174.3 0h25.5v25.5h-25.5v-25.5zm104.6 0h25.5v25.5H768v-25.5zm34.9 0h25.5v25.5h-25.5v-25.5zm69.7 0h25.5v25.5h-25.5v-25.5zm-741.5 40v17.8h-25.5v-8.7c8.2-3.6 16.7-6.7 25.5-9.1zm34.8-5.7v23.6h-25.5v-20.1l25.5-3.5zm183.7-2h25.5v25.5h-25.5v-25.5zm139.5 0h25.5v25.5h-25.5v-25.5zm104.6 0h25.5v25.5h-25.5v-25.5zm278.9 0h25.5v25.5h-25.5v-25.5zm-767 32.4h25.5v25.5h-25.5V208zm34.8 0h25.5v25.5h-25.5V208zm34.9 0h25.5v25.5h-25.5V208zm34.8 0h25.5v25.5h-25.5V208zm139.5 0h25.5v25.5h-25.5V208zm34.9 0H410v25.5h-25.5V208zm139.4 0h25.5v25.5h-25.5V208zm174.4 0h25.5v25.5h-25.5V208zm34.8 0h25.5v25.5h-25.5V208zm34.9 0h25.5v25.5H768V208zm34.9 0h25.5v25.5h-25.5V208zm139.4 0h25.5v25.5h-25.5V208zm-836.7 32.3h25.5v25.5h-25.5v-25.5zm34.8 0h25.5v25.5h-25.5v-25.5zm69.7 0h25.5v25.5h-25.5v-25.5zm34.9 0h25.5v25.5H245v-25.5zm104.6 0h25.5v25.5h-25.5v-25.5zm34.9 0H410v25.5h-25.5v-25.5zm104.6 0h25.5v25.5h-25.5v-25.5zm139.4 0H654v25.5h-25.5v-25.5zm69.8 0h25.5v25.5h-25.5v-25.5zm34.8 0h25.5v25.5h-25.5v-25.5zm34.9 0h25.5v25.5H768v-25.5zm34.9 0h25.5v25.5h-25.5v-25.5zm34.8 0h25.5v25.5h-25.5v-25.5zm69.8 0H933v25.5h-25.5v-25.5zm34.8 0h25.5v25.5h-25.5v-25.5zm-836.7 32.3h25.5v25.5h-25.5v-25.5zm34.8 0h25.5v25.5h-25.5v-25.5zm34.9 0h25.5v25.5h-25.5v-25.5zm69.7 0h25.5v25.5H245v-25.5zm34.9 0h25.5v25.5h-25.5v-25.5zm0 32.3h25.5v25.5h-25.5v-25.5zm34.9 0h25.5v25.5h-25.5v-25.5zm34.8 0h25.5v25.5h-25.5v-25.5zm34.9 0H410v25.5h-25.5v-25.5zm34.9 0h25.5v25.5h-25.5v-25.5zm34.8 0h25.5v25.5h-25.5v-25.5zm69.7 0h25.5v25.5h-25.5v-25.5zm34.9 0h25.5v25.5h-25.5v-25.5zm34.9 0h25.5v25.5h-25.5v-25.5zm69.7 0h25.5v25.5h-25.5v-25.5zm34.9 0h25.5v25.5h-25.5v-25.5zm34.8 0h25.5v25.5h-25.5v-25.5zm34.9 0h25.5v25.5H768v-25.5zm34.9 0h25.5v25.5h-25.5v-25.5zm34.8 0h25.5v25.5h-25.5v-25.5zm34.9 0h25.5v25.5h-25.5v-25.5zm34.9 0H933v25.5h-25.5v-25.5zm34.8 0h25.5v25.5h-25.5v-25.5zm-348.6-32.3h25.5v25.5h-25.5v-25.5zm34.8 0H654v25.5h-25.5v-25.5zm34.9 0h25.5v25.5h-25.5v-25.5zm34.9 0h25.5v25.5h-25.5v-25.5zm34.8 0h25.5v25.5h-25.5v-25.5zm34.9 0h25.5v25.5H768v-25.5zm34.9 0h25.5v25.5h-25.5v-25.5zm34.8 0h25.5v25.5h-25.5v-25.5zm34.9 0h25.5v25.5h-25.5v-25.5zm34.9 0H933v25.5h-25.5v-25.5zm-418.4 0h25.5v25.5h-25.5v-25.5z" opacity=".2"/><path d="M384.5 143.3H410v25.5h-25.5v-25.5zm69.7 0h25.5v25.5h-25.5v-25.5zm69.7 0h25.5v25.5h-25.5v-25.5zm69.8 0h25.5v25.5h-25.5v-25.5zm34.8 0H654v25.5h-25.5v-25.5zm69.8 0h25.5v25.5h-25.5v-25.5zm34.8 0h25.5v25.5h-25.5v-25.5zm104.6 0h25.5v25.5h-25.5v-25.5zm-453.2 32.3H410v25.5h-25.5v-25.5zm34.9 0h25.5v25.5h-25.5v-25.5zm104.5 0h25.5v25.5h-25.5v-25.5zm104.6 0H654v25.5h-25.5v-25.5zm209.2 0h25.5v25.5h-25.5v-25.5zM419.4 208h25.5v25.5h-25.5V208zm34.8 0h25.5v25.5h-25.5V208zm104.6 0h25.5v25.5h-25.5V208zm34.9 0h25.5v25.5h-25.5V208zm34.8 0H654v25.5h-25.5V208zm34.9 0h25.5v25.5h-25.5V208zm244.1 0H933v25.5h-25.5V208zm-732.2 32.3h25.5v25.5h-25.5v-25.5zm244.1 0h25.5v25.5h-25.5v-25.5zm-209.3 32.3h25.5v25.5h-25.5v-25.5zm732.2 0h25.5v25.5h-25.5v-25.5z" opacity=".4"/><path d="M314.8 143.3h25.5v25.5h-25.5v-25.5zm-104.7 32.3h25.5v25.5h-25.5v-25.5zm69.8 0h25.5v25.5h-25.5v-25.5zm34.9 0h25.5v25.5h-25.5v-25.5zM105.6 304.9h25.5v25.5h-25.5v-25.5zm34.8 0h25.5v25.5h-25.5v-25.5zm34.9 0h25.5v25.5h-25.5v-25.5zm34.8 0h25.5v25.5h-25.5v-25.5zm34.9 0h25.5v25.5H245v-25.5zm34.9-96.9h25.5v25.5h-25.5V208zm34.9 0h25.5v25.5h-25.5V208zM768 175.6h25.5v25.5H768v-25.5zm34.9 0h25.5v25.5h-25.5v-25.5zm34.8 32.4h25.5v25.5h-25.5V208zm34.9 0h25.5v25.5h-25.5V208zm-592.7 32.3h25.5v25.5h-25.5v-25.5zm34.9 0h25.5v25.5h-25.5v-25.5zm557.8 0h25.5v25.5h-25.5v-25.5zm-557.8 32.3h25.5v25.5h-25.5v-25.5z" opacity=".7"/><path class="st4" d="M419.4 111h25.5v25.5h-25.5V111zm139.4 0h25.5v25.5h-25.5V111zm244.1 0h25.5v25.5h-25.5V111zm34.8 0h25.5v25.5h-25.5V111zm104.6 0h25.5v25.5h-25.5V111zm34.9 0h25.5v25.5h-25.5V111zm-776.4 45.7v12.1h-8.2c2.6-4.1 5.3-8.1 8.2-12.1zm44.2-13.4h25.5v25.5H245v-25.5zm174.4 0h25.5v25.5h-25.5v-25.5zm139.4 0h25.5v25.5h-25.5v-25.5zm348.7 0H933v25.5h-25.5v-25.5zm34.8 0h25.5v25.5h-25.5v-25.5zm34.9 0h25.5v25.5h-25.5v-25.5zm-801.9 32.3h25.5v25.5h-25.5v-25.5zm69.7 0h25.5v25.5H245v-25.5zm209.2 0h25.5v25.5h-25.5v-25.5zm104.6 0h25.5v25.5h-25.5v-25.5zm139.5 0h25.5v25.5h-25.5v-25.5zm209.2 0H933v25.5h-25.5v-25.5zm34.8 0h25.5v25.5h-25.5v-25.5zm34.9 0h25.5v25.5h-25.5v-25.5zM245 208h25.5v25.5H245V208zm244.1 0h25.5v25.5h-25.5V208zm488.1 0h25.5v25.5h-25.5V208zm-523 32.3h25.5v25.5h-25.5v-25.5zm69.7 0h25.5v25.5h-25.5v-25.5zm34.9 0h25.5v25.5h-25.5v-25.5zm34.9 0h25.5v25.5h-25.5v-25.5zm69.7 0h25.5v25.5h-25.5v-25.5zm313.8 0h25.5v25.5h-25.5v-25.5zm-523 32.3h25.5v25.5h-25.5v-25.5zm69.7 0h25.5v25.5h-25.5v-25.5zm34.9 0h25.5v25.5h-25.5v-25.5zm418.4 0h25.5v25.5h-25.5v-25.5zm-488.1 32.3h25.5v25.5h-25.5v-25.5zm139.4 0H654v25.5h-25.5v-25.5zm348.7 0h25.5v25.5h-25.5v-25.5z"/><circle class="st5" cx="734.5" cy="363.9" r="34.9"/><path class="st6" d="M732.7 319.5c3.5 15.2 6.4 30.5 8.9 45.9.7 4.6 1.4 9.4-.3 13.7-1.4 3.6-4.2 6.4-6.4 9.6s-3.9 7.2-2.5 10.8 5.3 5.6 9 6.6c10.8 2.9 22.2.8 32.9-2.4 4.8-1.2 9.5-3.2 13.8-5.7 4.5-2.9 8.3-6.9 11.7-11 15.6-18.9 25.8-41.6 35.5-64.2-12.5 1.1-24.9-3.8-33.1-13.3-3.9-4.6-6.8-11.1-4.6-16.7-6.5 3.6-14.2 3.8-21.3 6.3-4.3 1.7-8.5 3.7-12.5 6.1-4.8 2.8-9.5 5.6-14.3 8.5-5.4 3.2-10.5 6.1-16.8 5.8z"/><path class="st5" d="M805.6 345.7c-6.1 11.9-14.1 23.3-25.4 30.4s-26.6 9-38 2c-5.6-3.4-9.8-8.6-14.7-13s-11-8.1-17.6-7.6c-7.2.6-12.9 6.3-17.8 11.7-7.4 8.2-14.5 16.8-19.7 26.5-10 18.7-12.4 40.6-11.9 61.8s3.5 42.3 3.6 63.5c.1 26.1-4.3 52-8.8 77.6 41.1-5.1 82.3 6 123.4 10.2 26.4 2.7 52.9 2.7 79.4 2.6 4.7 0 9.6-.1 13.5-2.7 2.4-1.7 4.3-4 5.6-6.6 3.7-6.8 5.1-14.5 6.2-22.1 2.6-19.2 2.7-38.7 2.7-58.1.2-47 .3-94.2-5.6-140.8-1.5-11.5-3.3-23-7.8-33.7s-11.6-20.6-21.6-26.4c-6.5-3.7-21.4-10.1-29-6.4-8.4 4.2-12.4 23.2-16.5 31.1z"/><path class="st7" d="M808.7 478.4c-1.5-29-7.9-60 5.6-85.7 3.3-6.3-8.5-14.2-4.9-20.3 4.5-7.5 7.9-15.5 10.1-23.9.8-2.9 1.4-6 .7-8.9-1.3-5.3-6.6-8.4-11-11.7-4.9-3.6-7.4-14.4-9-20.3s12.6 1.2 18.3-.9c7.9-2.9 17.9-1.1 25.8 1.9 4.4 1.6 9.2 1.8 13.9 1.9 9.1.2 18.3.5 27.3-.6 4.1-.5 8.1-1.3 12.2-1 10.4.6 19.5 7.7 25.6 16.1s10.1 18.2 15.1 27.4c4.2 7.6 9.2 14.8 12.8 22.7 3.2 7 5.2 14.5 7.2 22l5.1 19.2c.9 2.7 1.3 5.6 1.3 8.5-.3 3.1-1.6 5.9-3 8.7-5.2 10.1-11.5 19.7-18.7 28.5-10.8 13.2-23.9 25.2-30.3 41-2.5 6.2-3.9 12.7-5.2 19.3-5.1 26.2-8.8 52.6-10.9 79.2-11.7-5.4-23.9-9.5-36.5-12.2-6.3-1.3-12.6-2.3-19-3-5.6-.6-12.8.5-18.1-1-8.9-2.5-9.9-17.6-11.2-25.5-2.2-12.5-2.6-25.3-2.7-38-.2-14.6.3-29-.5-43.4zm-195.5-54.2c4.2 24 8.8 48.1 18 70.6-.2.2-.5.4-.7.6-.8.7-1.7 1.3-2.5 2-2 1.4-4.3 2.7-6 4.5-.6.7-1.2 1.5-1.5 2.5-.6 1.4-.6 3 0 4.5-4.8 2.1-10.3 1.5-15.7 1.3-4.6-.2-9.1 0-12.8 2.5-5.1 3.5-6.7 10.3-7.5 16.5-.3 2.3-.6 4.5-.8 6.8-.2 2.1-.4 4.2-.5 6.3-.5 7-.5 14-.2 21 .1 1.3.1 2.6.2 3.8-16.3-.4-31.2-8.9-45.3-17.2-3.2-1.9-6.5-3.9-8.6-7-1.9-3.1-2.7-6.7-2.3-10.3 0-.5.1-1 .2-1.5.4-3 1.2-5.9 2.3-8.7 4.4-11.9 10.9-23 19.2-32.6 3.6-4.2 7.6-8.3 9.3-13.5.7-2.3 1-4.7 1.7-7 3.3-9.9 15.3-14.5 19.4-24.1 1-2.3 1.5-4.8 2.7-7 1.1-1.8 2.6-3.4 4.3-4.8.7-.6 1.5-1.2 2.2-1.8 7-5.5 13.8-11.3 20.3-17.5 1.2-1.1 2.4-2.3 3.6-3.5-.2 4.6.2 9.2 1 13.6z"/><path class="st7" d="M714 353.2c-1.4 1.5-3 3-4.5 4.4l-.4.4-1.6 1.5c-2.9 2.5-5.5 5.5-7.5 8.8l-.2.3c-5.1 9.1-3.2 20.4-1.8 30.7 1.8 12.9 2.6 26 2.4 39-.3 18-2.4 35.9-2.4 53.9 0 4.1.1 8.1.3 12.2.3 6.6.8 13.2 1.4 19.9.7 7.3 1.4 14.5 2.2 21.8.6 5.6 1.1 11.2 1.6 16.8.2 2.9.5 5.8.6 8.7.2 3.4.4 6.8.5 10.2.1 2.2.1 4.3.1 6.5v3.7c0 2.3-.1 4.7-.2 7-.1 3-.3 6-.6 9-.3 3.3-.9 6.8-3.2 9.1l-.4.4-3.2-.4c-22.3-2.7-44.9-3.1-67.3-1.2.5-3.4.9-6.8 1.4-10.1l.6-4.8c.2-1.8.4-3.7.6-5.5l.6-6c.5-5.2 1-10.3 1.4-15.5.6-7.5 1-15.1 1.3-22.6.1-3.6.3-7.2.3-10.8.1-4.5.2-9 .2-13.5 0-4.4 0-8.7-.1-13.1 0-1.4-.1-2.9-.2-4.3-.1-1.3-.3-2.6-.5-3.8-.7-2.9-1.7-5.7-3-8.5l-.6-1.5c-.1-.3-.2-.5-.3-.8 5.8-5.1 9.9-12 13.8-18.8 6.4-10.9 12.9-22.3 14-34.8s-5.2-26.7-17.2-30.5c-3.3-1-6.7-1.3-10.1-1.9-3.2-.6-9.8-1.8-13.5-4.1-2 2.1-4 4.1-6 6 .1-3 .9-6 2.2-8.7l1.4.1c-.1-.3-.2-.7-.2-1 0-1.1.7-2.3 2.3-3.6 4.7-4 12.1-4.9 15.1-10.3 1.2-2.3 1.5-4.9 2.5-7.3 2.9-6.7 11.1-9.2 16.1-14.6s6.2-13 10.2-19c3-4.4 7.2-7.8 12-10 .4-.2.8-.4 1.2-.5 8.3-3.5 18.2-4.4 26.8-4.3 3.3 0 12 .1 16.2 1.8.7.2 1.3.6 1.8 1.1 4.3 4.6-2.8 15-6.1 18.5z"/><path class="st7" d="M614.7 401.4c15.6-4.7 32.4-2.9 46.7 4.9 7.2 4 13.7 9.6 17.6 16.8 6 10.8 5.7 23.8 5.3 36.1-.2 6.2-.5 12.6-3.2 18.1-3.2 6.4-9.1 10.8-15.2 14.4-3.8 2.4-8 4.2-12.3 5.3-6.7 1.5-13.7.2-20.5-1-7.4-1.4-15.3-3-20.4-8.5-3-3.2-4.6-7.3-6.3-11.4-2.3-5.8-4.7-11.7-7-17.5-4-10.1-5.4-18.5-.1-28.4 2.4-4.5 5.4-8.7 7.8-13.2 1.4-2.2 5.7-15.1 7.6-15.6z"/><path d="M1035 574.2v29.9c-20.5 8.5-42.5 12.9-64.7 12.8H700.6l-.4.4-3.2-.4H217.2c-40.3 0-77.6-10.9-108.1-29.4v-45.7l230.7-26.6h.2l134.4 11.4 34.8 3 18.1 1.5 37.4 3.2 19.2 1.6 28 2.4 3.9.3 20.2 1.7 27.4 2.3 38.5 3.3 64.2 5.5 45.2 3.8 74.1 6.3 14.1 1.2 1.5.1 1.3.1 18.6 1.6 20.4 1.7 2.4.2 91.3 7.8z" fill="#504f60"/><path class="st9" d="M764 573.1l-289.1-49.3-11.2 56.7 132.5 15.9 40.8 5.1 112.3-22.1 14.7-6.3z"/><path class="st9" d="M614.3 598.6l144.9-27.2c2.7-.5 5.3 1.3 5.9 4 .1.3.1.6.1 1 0 2.4-1.7 4.5-4.1 4.9l-141.5 26.5-5.3-9.2z"/><path class="st6" d="M677.2 513c4.5-.4 9.1-1.1 13.1-3.1 5-2.5 8.9-6.8 13.5-9.9 10.2-7 23.8-7.9 35.5-3.9s21.4 12.6 28.2 22.9c4.5 6.8 7.9 15.6 4.7 23.2-1.1 2.3-2.5 4.5-4.1 6.4l-8.3 10.9c-1.6 2.3-3.5 4.3-5.7 6.1-3.1 2.3-7 3.2-10.8 3.8-10.2 1.5-20.5.6-30.7 1.3-17.6 1.2-34.7 6.8-52.3 6.6-10.1-.1-20.1-2.2-30-4.2l-43.8-9c-7.6-1.6-16.2-3.8-19.8-10.8-1.6-3.1-1.9-6.7-2.1-10.2-.5-9.6 0-20.4 6.7-27.3 6.3-6.5 16.2-8.6 23.7-13.4 9.2-5.9 12.2-4 21.9.4 18.8 8.5 39.6 12 60.3 10.2z"/><path d="M677.2 513c4.5-.4 9.1-1.1 13.1-3.1 5-2.5 8.9-6.8 13.5-9.9 10.2-7 23.8-7.9 35.5-3.9s21.4 12.6 28.2 22.9c4.5 6.8 7.9 15.6 4.7 23.2-1.1 2.3-2.5 4.5-4.1 6.4l-8.3 10.9c-1.6 2.3-3.5 4.3-5.7 6.1-3.1 2.3-7 3.2-10.8 3.8-10.2 1.5-20.5.6-30.7 1.3-17.6 1.2-34.7 6.8-52.3 6.6-10.1-.1-20.1-2.2-30-4.2l-43.8-9c-7.6-1.6-16.2-3.8-19.8-10.8-1.6-3.1-1.9-6.7-2.1-10.2-.5-9.6 0-20.4 6.7-27.3 6.3-6.5 16.2-8.6 23.7-13.4 9.2-5.9 12.2-4 21.9.4 18.8 8.5 39.6 12 60.3 10.2z" opacity=".05"/><path class="st6" d="M852.9 499.3c-12.3 4.8-24.6 9.5-37.5 12.4-21.6 4.7-44.1 4-65.5 9.4-11.3 2.9-22.5 7.5-34.1 6.6-5.2-.4-10.2-2-15.3-3.2-28.4-7-60.6-4.7-83.7 13.3-7.9 6.2-14.3 13.8-20.2 22-4.7 6.6-3.1 15.8 3.5 20.5.8.5 1.6 1 2.4 1.4 9 4.1 18.6 6.7 28.4 7.6 13.1 1.2 26.3-.7 39.4-2.6 19.4-2.8 38.8-5.5 58.1-8.6 6.9-1.1 13.9-2.3 20.9-3.1 50.2-6.3 101.4 1.4 151.7-3.9 5.1-.5 10.3-1.2 14.9-3.4 11.7-5.5 17.5-20 15.1-32.7s-11.8-23.3-23-29.8c-9.4-5.5-19.6-7.7-30.1-10-9.6-2.5-15.6.5-25 4.1z"/><path class="st11" d="M960.7 423.1c5.5 7.3 6.7 17 6.1 26.1s-2.8 18.1-3.1 27.2c-.4 12.5 2.6 25 2.1 37.5-.4 8.7-2.4 17.3-4.9 25.7-2.9 9.9-7.1 20.5-16.2 25.3-12.1 6.3-37.5 2.8-50.3 7.7 1.2-7.2 12.3-17.7 13.4-24.9.8-5 1.6-10.1.8-15.2-1.1-6.4-4.8-12.1-9.3-16.8-7.1-7.5-16.3-13.2-26.5-15s-35-.3-43.1 6.1c-1-6.6 17.6-13 24.1-14.4 3.3-.7 7-.3 9.6-2.4 5-3.9 1.4-11.7 1.6-18 .2-5 3.1-9.6 3.7-14.6 1-8-4.2-16.1-2.2-24 .8-2.9 2.5-5.5 3.6-8.2 3.6-8.5 2-18.1.1-27.1-1.2-5.6-2.3-12 .8-16.8 2.9-4.5 11.2 11.5 16.5 10.8 17.5-2.5 33.3-15.4 47.4-4.8 7.2 5.4 8.1 11 11 18.7 2.9 7.3 10.1 11 14.8 17.1z"/><path class="st7" d="M963.7 423.1c5.5 7.3 6.7 17 6.1 26.1s-2.8 18.1-3.1 27.2c-.4 12.5 2.6 25 2.1 37.5-.4 8.7-2.4 17.3-4.9 25.7-2.9 9.9-7.1 20.5-16.2 25.3-12.1 6.3-37.5 2.8-50.3 7.7 1.2-7.2 12.3-17.7 13.4-24.9.8-5 1.6-10.1.8-15.2-1.1-6.4-4.8-12.1-9.3-16.8-7.1-7.5-16.3-13.2-26.5-15s-35-.3-43.1 6.1c-1-6.6 17.6-13 24.1-14.4 3.3-.7 7-.3 9.6-2.4 5-3.9 1.4-11.7 1.6-18 .2-5 3.1-9.6 3.7-14.6 1-8-4.2-16.1-2.2-24 .8-2.9 2.5-5.5 3.6-8.2 3.6-8.5 2-18.1.1-27.1-1.2-5.6-2.3-12 .8-16.8 2.9-4.5 8.6-6.2 13.9-6.9 17.7-2.4 35.7 2.2 50 12.9 7.2 5.4 8.1 11 11 18.7 2.9 7.3 10.1 11 14.8 17.1z"/><path class="st9" d="M302 375.7l54.4 200.9c1.4 5 5.7 8.7 10.9 9.2L612 609.4c6.9.7 13-4.4 13.7-11.3.1-1.4 0-2.8-.3-4.2l-59.5-242.4c-1.5-5.9-7-10-13.1-9.5l-239.6 17.9c-6.9.5-12.1 6.6-11.5 13.5 0 .8.1 1.6.3 2.3z"/><ellipse class="st12" cx="787.1" cy="387.7" rx="26.9" ry="27.3"/><path class="st12" d="M809.2 338s5.7 16.9-11.1 24l-2.1 3.7 10.5 10.3s12.9-23.6 11.5-31.9c0 0-2-8.5-8.8-6.1z"/><circle class="st4" cx="790.2" cy="389" r="25.9"/><path class="st4" d="M818.1 347.9l-4.1-6.8-6-.9c1.3-22.4-4.5-29.1-4.5-29.1l-1.3-.1-5.9-.6-11.1-11.4v-3.3c15.5 1.9 24.1 9.2 28.8 17.9 8.2 15.2 4.1 34.3 4.1 34.3z"/><path d="M802.2 306.9v4.1l-5.9-.6-11.1-11.4s17.1 3.8 17 7.9zm15.9 41l-4.1-6.8v-27.4c8.2 15.1 4.1 34.2 4.1 34.2h0z" opacity=".1" stroke="#4c4981" stroke-miterlimit="10"/><ellipse transform="rotate(-30 729.08 376.89)" class="st12" cx="729.1" cy="376.9" rx="14.4" ry="26.3"/><path class="st4" d="M733 374.7c7.3 12.6 16.2 21 9.3 25s-27 2-34.3-10.6-.7-30 6.2-34 11.5 6.9 18.8 19.6z"/><path class="st11" d="M797.7 284c0 40.2-27.5 79-67.8 79-40.2 0-72.8-32.6-72.8-72.9s32.6-72.8 72.8-72.8c40.3 0 67.8 26.4 67.8 66.7z"/><circle class="st6" cx="730" cy="288.1" r="72.8"/><path d="M723.6 255.9c8.7 3.2 13.8 12.1 21.6 17.1 11 7 25.3 5.2 37.9 1.7 7-1.9 14.3-4.2 21.2-2.1 1 .4 2.1.6 3.2.5 1.5-.4 2.2-2.1 2.7-3.6 8.5-25.4 4.7-54.2-8.2-77.7-3.3-6.1-7.3-11.9-12.8-16.1-4.3-3.3-9.4-5.5-14.5-7.3-9.4-3.4-19-5.7-28.9-7.1-1.7-.3-3.5-.4-5.3-.2-2.4.4-4.6 1.7-6.7 2.9-9.2 4.9-19.4 7.7-29.9 8.1-14 .5-30-2.8-40.8 6.2-13 10.8-9.8 31.8-18.2 46.4-5.6 9.7-16.3 16.7-18.1 27.7-.5 3.4-.2 6.8.6 10.1 4.1 16.9 20.5 30.1 38 30.4 2.7.2 5.4-.3 7.8-1.6 1.6-1.1 2.9-2.4 4.1-3.9 11.5-13.6 24.6-39.5 46.3-31.5z" fill="#444053"/><path class="st11" d="M810.2 262.1c-.5 1.5-1.2 3.1-2.7 3.6-1.1.1-2.2 0-3.2-.5-6.9-2.1-14.3.2-21.2 2.1-12.6 3.5-26.9 5.3-37.9-1.7-7.8-5-12.9-14-21.6-17.1-21.6-8-34.7 17.9-46.2 31.4-1.1 1.5-2.5 2.8-4.1 3.9-2.4 1.2-5.1 1.8-7.8 1.6-17.4-.3-33.8-13.4-38-30.4l-.6-3v.3c-.5 3.4-.2 6.8.6 10.1 4.1 16.9 20.5 30.1 38 30.4 2.7.2 5.4-.3 7.8-1.6 1.6-1.1 2.9-2.4 4.1-3.9 11.5-13.6 24.6-39.4 46.2-31.4 8.7 3.2 13.8 12.1 21.6 17.1 11 7 25.3 5.2 37.9 1.7 7-1.9 14.3-4.2 21.2-2.1 1 .4 2.1.6 3.2.5 1.5-.4 2.2-2.1 2.7-3.6 3.4-10.4 5-21.3 4.5-32.3-.3 8.5-1.8 16.9-4.5 24.9z"/></svg>