<svg version="1.1" id="图层_1" xmlns="http://www.w3.org/2000/svg" x="0" y="0" viewBox="0 0 1009.5 718" xml:space="preserve"><style>.st4{opacity:.1}.st5{fill:#35323e}.st6{fill:#fff}.st7{opacity:3.000000e-02}.st8{fill:#464353}.st11{fill:#be6f72}.st16{fill:#efb7b9}.st17{fill:#f86d70}.st19{fill:#ff6484}.st21{fill:#444053}</style><path d="M586.5 111.4c-64.7-2.3-126.4-23.1-185.2-46S284.2 17.2 221 5.1C180.4-2.7 133.9-3.8 101.2 18 69.7 39 59.5 75.1 54 108.7c-4.1 25.3-6.5 51.8 4.7 75.5 7.8 16.4 21.7 30.2 31.4 45.9 33.5 54.7 9.8 122.2-26.5 175.6-17 25.1-36.8 49-49.9 75.7S-5.5 538.7 6 565.9c11.4 27 38.5 47.2 67.9 61.5 59.7 28.9 130 37.2 198.6 41.9 151.8 10.4 304.5 5.9 456.7 1.4 56.3-1.7 112.9-3.4 168.3-12.1 30.8-4.8 62.5-12.5 84.9-31 28.4-23.5 35.4-63.4 16.4-92.9-31.9-49.5-120-61.8-142.3-114.9-12.3-29.2.3-61.8 18.2-88.9 38.2-58.2 102.3-109.2 105.7-175.7 2.3-45.7-28.5-91.4-76.1-113-49.9-22.6-119.2-19.8-156 17.7-37.9 38.6-104.6 53.5-161.8 51.5z" opacity=".1"/><path d="M88.8 456.4c-2.6-1.2-5.2-2.5-7.6-4l27.6-21-32.6 17.5c-13.6-10.5-22.4-26.1-24.1-43.1l55.9-.4-56.2-8.4c1.3-34.4 30.3-61.3 64.7-60s61.3 30.3 60 64.7c-.1 3-.4 6-1 8.9 4.1 1.8 8 4.1 11.6 6.7l-28.5 41.1 34.4-36.2c15.3 14.5 22.2 35.8 18.5 56.5 31.5 14 45.7 50.9 31.7 82.3-14 31.5-50.9 45.7-82.3 31.7-26.3-11.7-41.2-39.9-36-68.2-26.3-11.6-41.2-39.8-36.1-68.1zm790.5-225.2c3.4-2.1 6.6-4.4 9.7-7l-42-23.6 48.2 17.9c16.8-17 25.8-40.1 25-63.9l-77 10.1 75.7-22.2c-8.4-47.1-53.3-78.5-100.4-70.1-47.1 8.4-78.5 53.3-70.1 100.4.7 4.1 1.7 8.1 3 12-5.3 3.3-10.2 7.1-14.7 11.5l47 51.2-54.3-43.2c-18.3 22.9-23.8 53.4-14.6 81.2-40.6 25.3-53.1 78.7-27.8 119.3s78.7 53.1 119.3 27.8c33.9-21.1 49-62.7 36.5-100.6 33.9-21.3 49-62.9 36.5-100.8z" opacity=".1"/><path class="st2" d="M847.5 685.6c18.7 0 33.8 2.9 33.8 6.5s-15.1 6.5-33.8 6.5-33.8-2.9-33.8-6.5 15.1-6.5 33.8-6.5zm-667-56.1c37.2 0 67.3 5.8 67.3 12.9s-30.1 12.9-67.3 12.9-67.3-5.8-67.3-12.9 30.1-12.9 67.3-12.9z"/><path d="M846.9 684.2c2.2 0 3.9 2.3 3.9 5.2s-1.8 5.2-3.9 5.2-3.9-2.3-3.9-5.2 1.7-5.2 3.9-5.2zm0-6.3c2.2 0 3.9 2.3 3.9 5.2s-1.8 5.2-3.9 5.2-3.9-2.3-3.9-5.2 1.7-5.2 3.9-5.2zm0-6.3c2.2 0 3.9 2.3 3.9 5.2s-1.8 5.2-3.9 5.2-3.9-2.3-3.9-5.2 1.7-5.2 3.9-5.2zm0-6.3c2.2 0 3.9 2.3 3.9 5.2s-1.8 5.2-3.9 5.2-3.9-2.3-3.9-5.2 1.7-5.2 3.9-5.2zm0-6.3c2.2 0 3.9 2.3 3.9 5.2s-1.8 5.2-3.9 5.2-3.9-2.3-3.9-5.2 1.7-5.2 3.9-5.2zm-667.6-32.3c4.3 0 7.8 4.6 7.8 10.3s-3.5 10.3-7.8 10.3-7.8-4.6-7.8-10.3 3.5-10.3 7.8-10.3zm0-12.5c4.3 0 7.8 4.6 7.8 10.3s-3.5 10.3-7.8 10.3-7.8-4.6-7.8-10.3 3.5-10.3 7.8-10.3zm0-12.6c4.3 0 7.8 4.6 7.8 10.3s-3.5 10.3-7.8 10.3-7.8-4.6-7.8-10.3 3.5-10.3 7.8-10.3zm0-12.5c4.3 0 7.8 4.6 7.8 10.3s-3.5 10.3-7.8 10.3-7.8-4.6-7.8-10.3 3.5-10.3 7.8-10.3zm0-12.5c4.3 0 7.8 4.6 7.8 10.3s-3.5 10.3-7.8 10.3-7.8-4.6-7.8-10.3 3.5-10.3 7.8-10.3z" fill="#3f3d56"/><path class="st2" d="M861.6 608.5c.5-.7 1-1.4 1.5-2.2l-10.3-1.7 11.2.1c2.2-4.7 2.3-10.1.4-14.9l-15 7.8 13.8-10.2c-5.2-9-16.8-12-25.8-6.8s-12 16.8-6.8 25.8c.4.7.9 1.4 1.4 2.1-.8 1.1-1.6 2.2-2.2 3.4l13.4 7-14.3-4.8c-2 6-.9 12.7 3 17.7-6.4 8.2-5 20 3.2 26.5 8.2 6.4 20 5 26.5-3.2 5.4-6.8 5.4-16.5 0-23.3 5.4-6.8 5.4-16.4 0-23.3zM208.7 476c1.1-1.4 2-2.8 2.9-4.3l-20.6-3.4 22.3.2c4.3-9.4 4.6-20.1.7-29.7l-29.9 15.5 27.6-20.2c-10.4-18-33.3-24.1-51.3-13.7s-24.1 33.3-13.7 51.3c.9 1.6 1.9 3 3 4.5-1.7 2.1-3.1 4.4-4.3 6.8l26.7 13.9-28.5-9.6c-4.1 12-1.8 25.3 6.1 35.2-12.8 16.3-10 39.9 6.3 52.7 16.3 12.8 39.9 10 52.7-6.3 10.7-13.6 10.7-32.8 0-46.4 10.7-13.7 10.7-32.9 0-46.5z"/><path class="st4" d="M828 620.2c0 4.2 1.4 8.3 4 11.7-6.4 8.2-5 20 3.2 26.5 8.2 6.4 20 5 26.5-3.2 5.4-6.8 5.4-16.5 0-23.3 2.5-3.3-33.7-13.9-33.7-11.7zM141.6 499.1c0 8.4 2.8 16.6 8 23.2-12.8 16.3-10 39.9 6.3 52.7 16.3 12.8 39.9 10 52.7-6.3 10.7-13.6 10.7-32.8 0-46.4 5.1-6.3-67-27.3-67-23.2z"/><path class="st5" d="M275.8 178.4h468.8c4.1 0 7.4 3.3 7.4 7.4v89.5c0 4.1-3.3 7.4-7.4 7.4H275.8c-4.1 0-7.4-3.3-7.4-7.4v-89.5c0-4.1 3.3-7.4 7.4-7.4z"/><path class="st6" d="M309.3 52.2s6.9 186.8-5.3 208.7h411.7s-17.5-143.7 0-208.7H309.3z"/><path class="st7" d="M309.3 52.2s6.9 186.8-5.3 208.7h411.7s-17.5-143.7 0-208.7H309.3z"/><path class="st5" d="M351.5 252.9h301.8v37.5H351.5v-37.5z"/><path class="st8" d="M787.7 694.2H228.3c-16.5 0-29.8-13.3-29.8-29.8 0-1.1.1-2.2.2-3.3L210.1 558c.8-6.9 1.3-13.7 1.6-20.6l2.1-69.9c.5-15.8 1.6-31.5 3.2-47.3.9-8.1 1.9-16.3 3-24.4l14.7-102.5c3.9-26.5 26.6-46.2 53.4-46.2h22.3c11.3 0 22.4 3.7 31.4 10.6 23.1 17.3 88.9 29.7 166.4 29.7s143.3-12.5 166.4-29.8c9.1-6.8 20.1-10.5 31.4-10.6h36.2c15.7 0 29.1 11.3 31.9 26.7l19.8 112c2 11.4 3.7 22.8 5.1 34.3 2.3 19.1 3.8 38.3 4.4 57.5l2 64.9c.4 13.5 1.6 27.1 3.5 40.5l10.6 74.3c2.5 17.6-9.7 33.9-27.3 36.5-1.4.4-3 .5-4.5.5z"/><path class="st4" d="M261.5 434.9h494.3c11 0 20 8.9 20 20v189.7c0 11-8.9 20-20 20H261.5c-11 0-20-8.9-20-20V454.8c.1-11 9-19.9 20-19.9z"/><ellipse class="st5" cx="294" cy="506.4" rx="15.3" ry="12.8"/><ellipse class="st4" cx="294" cy="506.4" rx="15.3" ry="12.8"/><ellipse class="st5" cx="294" cy="503.6" rx="15.3" ry="12.8"/><ellipse class="st5" cx="304" cy="551.1" rx="15.3" ry="12.8"/><ellipse class="st4" cx="304" cy="551.1" rx="15.3" ry="12.8"/><ellipse class="st5" cx="304" cy="548.3" rx="15.3" ry="12.8"/><ellipse class="st5" cx="265.3" cy="556.4" rx="15.3" ry="12.8"/><ellipse class="st4" cx="265.3" cy="556.4" rx="15.3" ry="12.8"/><ellipse class="st5" cx="265.3" cy="553.6" rx="15.3" ry="12.8"/><ellipse class="st5" cx="322.8" cy="595.8" rx="15.3" ry="12.8"/><ellipse class="st4" cx="322.8" cy="595.8" rx="15.3" ry="12.8"/><ellipse class="st5" cx="322.8" cy="593" rx="15.3" ry="12.8"/><ellipse class="st5" cx="271.5" cy="597.3" rx="15.3" ry="12.8"/><ellipse class="st4" cx="271.5" cy="597.3" rx="15.3" ry="12.8"/><ellipse class="st5" cx="271.5" cy="594.5" rx="15.3" ry="12.8"/><ellipse class="st5" cx="365" cy="595.8" rx="15.3" ry="12.8"/><ellipse class="st4" cx="365" cy="595.8" rx="15.3" ry="12.8"/><ellipse class="st5" cx="365" cy="593" rx="15.3" ry="12.8"/><ellipse class="st5" cx="409.6" cy="595.8" rx="15.3" ry="12.8"/><ellipse class="st4" cx="409.6" cy="595.8" rx="15.3" ry="12.8"/><ellipse class="st5" cx="409.6" cy="593" rx="15.3" ry="12.8"/><ellipse class="st5" cx="450.9" cy="595.8" rx="15.3" ry="12.8"/><ellipse class="st4" cx="450.9" cy="595.8" rx="15.3" ry="12.8"/><ellipse class="st5" cx="450.9" cy="593" rx="15.3" ry="12.8"/><ellipse class="st5" cx="496.5" cy="595.8" rx="15.3" ry="12.8"/><ellipse class="st4" cx="496.5" cy="595.8" rx="15.3" ry="12.8"/><ellipse class="st5" cx="496.5" cy="593" rx="15.3" ry="12.8"/><ellipse class="st5" cx="537.7" cy="595.8" rx="15.3" ry="12.8"/><ellipse class="st4" cx="537.7" cy="595.8" rx="15.3" ry="12.8"/><ellipse class="st5" cx="537.7" cy="593" rx="15.3" ry="12.8"/><ellipse class="st5" cx="578.6" cy="595.8" rx="15.3" ry="12.8"/><ellipse class="st4" cx="578.6" cy="595.8" rx="15.3" ry="12.8"/><ellipse class="st5" cx="578.6" cy="593" rx="15.3" ry="12.8"/><ellipse class="st5" cx="623" cy="595.8" rx="15.3" ry="12.8"/><ellipse class="st4" cx="623" cy="595.8" rx="15.3" ry="12.8"/><ellipse class="st5" cx="623" cy="593" rx="15.3" ry="12.8"/><ellipse class="st5" cx="664.5" cy="595.8" rx="15.3" ry="12.8"/><ellipse class="st4" cx="664.5" cy="595.8" rx="15.3" ry="12.8"/><ellipse class="st5" cx="664.5" cy="593" rx="15.3" ry="12.8"/><ellipse class="st5" cx="710.5" cy="595.8" rx="15.3" ry="12.8"/><ellipse class="st4" cx="710.5" cy="595.8" rx="15.3" ry="12.8"/><ellipse class="st5" cx="710.5" cy="593" rx="15.3" ry="12.8"/><ellipse class="st5" cx="757.7" cy="595.8" rx="15.3" ry="12.8"/><ellipse class="st4" cx="757.7" cy="595.8" rx="15.3" ry="12.8"/><ellipse class="st5" cx="757.7" cy="593" rx="15.3" ry="12.8"/><ellipse class="st5" cx="346.5" cy="551.1" rx="15.3" ry="12.8"/><ellipse class="st4" cx="346.5" cy="551.1" rx="15.3" ry="12.8"/><ellipse class="st5" cx="346.5" cy="548.3" rx="15.3" ry="12.8"/><ellipse class="st5" cx="389" cy="551.1" rx="15.3" ry="12.8"/><ellipse class="st4" cx="389" cy="551.1" rx="15.3" ry="12.8"/><ellipse class="st5" cx="389" cy="548.3" rx="15.3" ry="12.8"/><ellipse class="st5" cx="432.7" cy="551.1" rx="15.3" ry="12.8"/><ellipse class="st4" cx="432.7" cy="551.1" rx="15.3" ry="12.8"/><ellipse class="st5" cx="432.7" cy="548.3" rx="15.3" ry="12.8"/><ellipse class="st5" cx="474.6" cy="551.1" rx="15.3" ry="12.8"/><ellipse class="st4" cx="474.6" cy="551.1" rx="15.3" ry="12.8"/><ellipse class="st5" cx="474.6" cy="548.3" rx="15.3" ry="12.8"/><ellipse class="st5" cx="517.4" cy="551.1" rx="15.3" ry="12.8"/><ellipse class="st4" cx="517.4" cy="551.1" rx="15.3" ry="12.8"/><ellipse class="st5" cx="517.4" cy="548.3" rx="15.3" ry="12.8"/><ellipse class="st5" cx="558.3" cy="551.1" rx="15.3" ry="12.8"/><ellipse class="st4" cx="558.3" cy="551.1" rx="15.3" ry="12.8"/><ellipse class="st5" cx="558.3" cy="548.3" rx="15.3" ry="12.8"/><ellipse class="st5" cx="602.7" cy="551.1" rx="15.3" ry="12.8"/><ellipse class="st4" cx="602.7" cy="551.1" rx="15.3" ry="12.8"/><ellipse class="st5" cx="602.7" cy="548.3" rx="15.3" ry="12.8"/><ellipse class="st5" cx="644.9" cy="551.1" rx="15.3" ry="12.8"/><ellipse class="st4" cx="644.9" cy="551.1" rx="15.3" ry="12.8"/><ellipse class="st5" cx="644.9" cy="548.3" rx="15.3" ry="12.8"/><ellipse class="st5" cx="688" cy="551.1" rx="15.3" ry="12.8"/><ellipse class="st4" cx="688" cy="551.1" rx="15.3" ry="12.8"/><ellipse class="st5" cx="688" cy="548.3" rx="15.3" ry="12.8"/><ellipse class="st5" cx="731.1" cy="551.1" rx="15.3" ry="12.8"/><ellipse class="st4" cx="731.1" cy="551.1" rx="15.3" ry="12.8"/><ellipse class="st5" cx="731.1" cy="548.3" rx="15.3" ry="12.8"/><ellipse class="st5" cx="337.1" cy="506.4" rx="15.3" ry="12.8"/><ellipse class="st4" cx="337.1" cy="506.4" rx="15.3" ry="12.8"/><ellipse class="st5" cx="337.1" cy="503.6" rx="15.3" ry="12.8"/><ellipse class="st5" cx="380.3" cy="506.4" rx="15.3" ry="12.8"/><ellipse class="st4" cx="380.3" cy="506.4" rx="15.3" ry="12.8"/><ellipse class="st5" cx="380.3" cy="503.6" rx="15.3" ry="12.8"/><ellipse class="st5" cx="421.8" cy="506.4" rx="15.3" ry="12.8"/><ellipse class="st4" cx="421.8" cy="506.4" rx="15.3" ry="12.8"/><ellipse class="st5" cx="421.8" cy="503.6" rx="15.3" ry="12.8"/><ellipse class="st5" cx="463.4" cy="506.4" rx="15.3" ry="12.8"/><ellipse class="st4" cx="463.4" cy="506.4" rx="15.3" ry="12.8"/><ellipse class="st5" cx="463.4" cy="503.6" rx="15.3" ry="12.8"/><ellipse class="st5" cx="505.2" cy="506.4" rx="15.3" ry="12.8"/><ellipse class="st4" cx="505.2" cy="506.4" rx="15.3" ry="12.8"/><ellipse class="st5" cx="505.2" cy="503.6" rx="15.3" ry="12.8"/><ellipse class="st5" cx="546.5" cy="506.4" rx="15.3" ry="12.8"/><ellipse class="st4" cx="546.5" cy="506.4" rx="15.3" ry="12.8"/><ellipse class="st5" cx="546.5" cy="503.6" rx="15.3" ry="12.8"/><ellipse class="st5" cx="590.2" cy="506.4" rx="15.3" ry="12.8"/><ellipse class="st4" cx="590.2" cy="506.4" rx="15.3" ry="12.8"/><ellipse class="st5" cx="590.2" cy="503.6" rx="15.3" ry="12.8"/><ellipse class="st5" cx="631.4" cy="506.4" rx="15.3" ry="12.8"/><ellipse class="st4" cx="631.4" cy="506.4" rx="15.3" ry="12.8"/><ellipse class="st5" cx="631.4" cy="503.6" rx="15.3" ry="12.8"/><ellipse class="st5" cx="675.5" cy="506.4" rx="15.3" ry="12.8"/><ellipse class="st4" cx="675.5" cy="506.4" rx="15.3" ry="12.8"/><ellipse class="st5" cx="675.5" cy="503.6" rx="15.3" ry="12.8"/><ellipse class="st5" cx="718.6" cy="506.4" rx="15.3" ry="12.8"/><ellipse class="st4" cx="718.6" cy="506.4" rx="15.3" ry="12.8"/><ellipse class="st5" cx="718.6" cy="503.6" rx="15.3" ry="12.8"/><ellipse class="st5" cx="315.9" cy="461.7" rx="15.3" ry="12.8"/><ellipse class="st4" cx="315.9" cy="461.7" rx="15.3" ry="12.8"/><ellipse class="st5" cx="315.9" cy="458.9" rx="15.3" ry="12.8"/><ellipse class="st5" cx="358.4" cy="461.7" rx="15.3" ry="12.8"/><ellipse class="st4" cx="358.4" cy="461.7" rx="15.3" ry="12.8"/><ellipse class="st5" cx="358.4" cy="458.9" rx="15.3" ry="12.8"/><ellipse class="st5" cx="399.3" cy="461.7" rx="15.3" ry="12.8"/><ellipse class="st4" cx="399.3" cy="461.7" rx="15.3" ry="12.8"/><ellipse class="st5" cx="399.3" cy="458.9" rx="15.3" ry="12.8"/><ellipse class="st5" cx="441.5" cy="461.7" rx="15.3" ry="12.8"/><ellipse class="st4" cx="441.5" cy="461.7" rx="15.3" ry="12.8"/><ellipse class="st5" cx="441.5" cy="458.9" rx="15.3" ry="12.8"/><ellipse class="st5" cx="483" cy="461.7" rx="15.3" ry="12.8"/><ellipse class="st4" cx="483" cy="461.7" rx="15.3" ry="12.8"/><ellipse class="st5" cx="483" cy="458.9" rx="15.3" ry="12.8"/><ellipse class="st5" cx="525.5" cy="461.7" rx="15.3" ry="12.8"/><ellipse class="st4" cx="525.5" cy="461.7" rx="15.3" ry="12.8"/><ellipse class="st5" cx="525.5" cy="458.9" rx="15.3" ry="12.8"/><ellipse class="st5" cx="567.1" cy="461.7" rx="15.3" ry="12.8"/><ellipse class="st4" cx="567.1" cy="461.7" rx="15.3" ry="12.8"/><ellipse class="st5" cx="567.1" cy="458.9" rx="15.3" ry="12.8"/><ellipse class="st5" cx="609.3" cy="461.7" rx="15.3" ry="12.8"/><ellipse class="st4" cx="609.3" cy="461.7" rx="15.3" ry="12.8"/><ellipse class="st5" cx="609.3" cy="458.9" rx="15.3" ry="12.8"/><ellipse class="st5" cx="652.7" cy="461.7" rx="15.3" ry="12.8"/><ellipse class="st4" cx="652.7" cy="461.7" rx="15.3" ry="12.8"/><ellipse class="st5" cx="652.7" cy="458.9" rx="15.3" ry="12.8"/><ellipse class="st5" cx="695.2" cy="461.7" rx="15.3" ry="12.8"/><ellipse class="st4" cx="695.2" cy="461.7" rx="15.3" ry="12.8"/><ellipse class="st5" cx="695.2" cy="458.9" rx="15.3" ry="12.8"/><path class="st2" d="M275.9 448.9c8.5 0 15.3 5.7 15.3 12.8s-6.9 12.8-15.3 12.8-15.3-5.7-15.3-12.8 6.9-12.8 15.3-12.8zm460.8 0c8.5 0 15.3 5.7 15.3 12.8s-6.9 12.8-15.3 12.8-15.3-5.7-15.3-12.8 6.9-12.8 15.3-12.8z"/><path class="st4" d="M275.9 448.9c8.5 0 15.3 5.7 15.3 12.8s-6.9 12.8-15.3 12.8-15.3-5.7-15.3-12.8 6.9-12.8 15.3-12.8zm460.8 0c8.5 0 15.3 5.7 15.3 12.8s-6.9 12.8-15.3 12.8-15.3-5.7-15.3-12.8 6.9-12.8 15.3-12.8z"/><path class="st2" d="M275.9 446.1c8.5 0 15.3 5.7 15.3 12.8s-6.9 12.8-15.3 12.8-15.3-5.7-15.3-12.8 6.9-12.8 15.3-12.8zm460.8 0c8.5 0 15.3 5.7 15.3 12.8s-6.9 12.8-15.3 12.8-15.3-5.7-15.3-12.8 6.9-12.8 15.3-12.8z"/><path class="st5" d="M285 625.8h449.5c5 0 9.1 4.1 9.1 9.1v6.5c0 5-4.1 9.1-9.1 9.1H285c-5 0-9.1-4.1-9.1-9.1v-6.5c0-5.1 4.1-9.1 9.1-9.1z"/><path class="st4" d="M285 625.8h449.5c5 0 9.1 4.1 9.1 9.1v6.5c0 5-4.1 9.1-9.1 9.1H285c-5 0-9.1-4.1-9.1-9.1v-6.5c0-5.1 4.1-9.1 9.1-9.1z"/><path class="st5" d="M285 623.9h449.5c5 0 9.1 4.1 9.1 9.1v6.5c0 5-4.1 9.1-9.1 9.1H285c-5 0-9.1-4.1-9.1-9.1V633c0-5 4.1-9.1 9.1-9.1z"/><path class="st4" d="M679.9 331.5c0 26.4-83.6 54.7-177.8 54.7s-164-30.5-164-56.9 69.8-38.7 164-38.7 177.8 14.5 177.8 40.9z"/><ellipse class="st8" cx="762.6" cy="228.5" rx="10.3" ry="25.5"/><ellipse class="st8" cx="257.8" cy="228.5" rx="10.3" ry="25.5"/><path class="st4" d="M265.3 222.4h497.4v7.5H265.3v-7.5z"/><path class="st8" d="M265.3 221.2h497.4v7.5H265.3v-7.5zm256.5 9.4c-4.1-1.3-11.6 23.4-11.6 23.4H533s-7.2-22.2-11.2-23.4zm-.3 3.1c1.2 0 2.2 1 2.2 2.2 0 1.2-1 2.2-2.2 2.2-1.2 0-2.2-1-2.2-2.2 0-1.2 1-2.2 2.2-2.2zm.2 7c2.7.6 7.4 12.3 7.4 12.3h-15s5-12.9 7.6-12.3z"/><path d="M799.1 420.2h-582c.9-8.1 1.9-16.3 3-24.4l14.7-102.5c3.9-26.5 26.6-46.2 53.4-46.2h22.3c11.3 0 22.4 3.7 31.4 10.6 23.1 17.3 88.9 29.7 166.4 29.7s143.3-12.4 166.5-29.7c9.1-6.8 20.1-10.5 31.4-10.6h36.2c15.7 0 29.1 11.3 31.9 26.7l19.8 112c1.9 11.5 3.6 22.9 5 34.4z" opacity=".03" fill="#fff"/><linearGradient id="SVGID_1_" gradientUnits="userSpaceOnUse" x1="554.857" y1="-89" x2="554.857" y2="171.571" gradientTransform="matrix(1 0 0 -1 -95.23 628.98)"><stop offset="0" stop-color="gray" stop-opacity=".25"/><stop offset=".54" stop-color="gray" stop-opacity=".12"/><stop offset="1" stop-color="gray" stop-opacity=".1"/></linearGradient><path d="M490.5 548s-11.5-21-9.5-24.4c1.4-2.7 2.5-5.5 3.3-8.3 0 0 4.2-2.9 4.2-4.1 0-1.2 3.3-3.9 5.1-5.1s.9-6.8 0-7.5c-.9-.9-1.7-2-2.3-3.1 0 0 1.2-3.4 0-4.4s.2-2 0-3.1c-.1-1.6-.1-3.2 0-4.8-1-1.6-2.7-2.8-4.5-3.3l-.1-.5-.8-3.2s3.7-7-2.3-10.7c-.4-.3-.9-.5-1.3-.7v-.5c-.1-1.8-.4-3.6-.9-5.4-.3-1-.7-1.7-1.2-1.5-.1 0-.2.1-.3.2-.2.2-.5.5-.6.8-.7 1.2-1.1 2.5-1.4 3.9-.2.8-.3 1.6-.4 2.5-.3.5-.5 1-.7 1.5-.7 1.9-1.6 5.1 0 7.5 1.3 2 3.1 4.8 4.3 6.9v.1l.1.1-.1.1v.3l.1 1.7 1 14.8c-.3-.1-.6-.1-.9-.2-.4-.1-.9-.1-1.3-.1-.9-3.4-3.2-6.5-3.7-10.1 0-.4-.1-.7-.1-1.1 0-2.2.6-4.5.5-6.7v-1.5c-.4-3.3-2.5-6.1-5.5-7.6-1-.5-2.1-.8-3.1-1.4-2.3-1.3-3.8-3.6-5.9-5.2-1.6-1.3-3.7-1.7-5.6-1.2-.9.1-1.8.3-2.7.6-2.2.6-4.3 1.4-6.3 2.6-.3.2-.5.3-.8.5-.6.4-1 .9-1.3 1.5-.2.5-.2 1.1-.2 1.6v1.2c-.1 6.5-7.2 11.6-7.7 18v1.7c.1 2.8 1.5 5.4 1.8 8.2v.7c0 1.3-.3 2.5-.7 3.8-.9.2-1.7.6-2.5 1-2.1 1.4-6 3.8-7.4 8.3-.4 1.2-.5 2.4-.5 3.6 0 4.4-.4 8.7-1.2 13-.2 1.1-.4 2.2-.8 3.2v.3l-.8 11-.2 1.9-.2 2.8s.1.2.2.5.2.8.3 1.3c.2.9.3 1.9.1 2.9-.1.4-.3.7-.6 1l-.1.1c-.4.9-.6 1.8-.6 2.8-.1.6-.1 1.2-.2 1.9-.4 4.3-.7 10.8-.8 16.2s-.2 9.5-.2 9.5c.7.4 1.4.8 2.2 1.1-.1.1-.1.3-.2.5-.7 1.8-1.1 3.7-1.3 5.6-.3 4 .8 8.5 6.4 10.8.4.1.7.3 1.1.4.9.3 1.9.3 2.8-.2v.7c.1 1 .1 1.9.1 2.7.2 4.8 1.4 13.1 1.4 13.1s.4 3.4 0 4.4 0 5.1 0 5.1 1.2 2 0 3.1-1.6 6.1-1.2 6.8v.1c.3 1.7-1.3 26.9-1.3 26.9s-1.4 3.8-2.6 7.8-2 7.9-.9 8.7c1 .5 2.1.8 3.2.9v.5c0 1.4-.3 2.9-.7 4.2-.5.7-1 6.1-1.3 9v.3c-.5 1.2-1 2.5-1.3 3.8 0 0-3.9 9.8-2.6 12.3.1.2.3.4.5.6l.1.1c1.9 1.5 6.6 1.8 8.3 1.9l-.1 2.4v.2h2.2v-.1c0-.3 0-1.7.1-3.6v-1.9c.7-1.7 1-3.6 1-5.5 0-2.1.3-4.3.9-6.3.3-1.1.7-2.1 1.1-3.1.4-2.1.3-4.2-.3-6.3-.2-.5-.4-1-.8-1.4v-.9c0-1.8.1-3.5.5-5.2v-.1c0-.2.1-.3.1-.4v-.1h.7c2.2.1 3.8.1 3.8.1s1.8-9 1.6-13v-.5c.1-3.1.4-6.2 1.1-9.2l1.4-13.8c-.4-1.3-.4-2.8 0-4.1.4-1 1.3-3 2-4.3.3-.6.5-1.1.6-1.3v-.2l-.6-.3c-.6-.4-1.1-1.1.6-2.2 2.7-1.7 1.8-6 1.8-6-.4-.9-.4-2 .1-2.9.9-1.4 0-6.5 0-6.5.8-1.3 1.4-2.8 1.8-4.3.7-2 2.3-12 3.1-16.8.3-1.6.4-2.6.4-2.6v.5l.2 2.3v.3l.4 4.3s.8 11.3.3 15.7v.1c0 .5-.1.9-.3 1.3-.9 2.1-.8 10.6-.7 12.4v.4c-.4.9-.6 1.9-.5 2.9 0 .3.1.6.3.9.2.4.4.9.3 1.3v.6c-.1.8-.3 1.6-.6 2.3 0 0-1 2.5-.6 3.8 0 .2.1.3.2.5s.1.3.1.5c.3 2.8-.5 14.9-1 21.5-.2 2.6-.3 4.4-.3 4.4l-1.4 14.5.1.1c.2.1.5.3.9.5l-.1.4c-.2 1.4-.5 3-.8 4.3 0 .1-.1.2-.1.3-.5.1-1 .3-1.5.6-3 5.3-1.7 9.5 0 10.7.6.7.9 1.6 1 2.5l.4 5.3v.6c0 .2 0 .3.1.5l.1 1.6.2 2.2h1.3V713h.1c2.1.1 5.6.2 7.1 0h.4c.1 0 .2 0 .2-.1.8-.4 2.8-6 1-7.3s-2.2-4.9-2.2-4.9c-.2-.5-.3-.9-.5-1.4v-.3c-.1-1.6 0-3.1.2-4.7.3-1.8.5-3.7.5-5.6v-.5l.9-.3h.1c.5-.2 1.1-.5 1.5-.9l5-22.2.5-2.6 3-14.7s-1-5.1 0-6c.4-.3.5-1.6.5-3.2 0-2.7-.5-6-.5-6s1.4-2.2 2.1-3.6 0-4.9 0-4.9l1.4-8.2c1.1-6.2 2.9-12.2 5.5-17.9 2.9-6 1-22.3-.8-30.9l-.2-.7 3.1-1.5.4-.2c1.5-.7 3-1.4 4.4-2h.1c1-.4 2-.8 3-1.1.3-.1.6-.2.9-.2 3.2-.2-4.2-13.1-4.2-13.1zm-55.2 27.7h.7c-.1.2-.2.3-.3.5-.1.1-.1.2-.1.3-.3.5-.5 1.1-.7 1.7.1-.6.2-1.3.3-2l.1-.5zm-2 10.7c0-.1 0-.2-.1-.3l-.1-.4c.3-.1.5-.2.8-.3s0 .1 0 .1 0 .4-.1.6 0 0 0 .1v.5c0 .2-.1.6-.1.8l-.2-.8c-.1-.1-.2-.2-.2-.3z" fill="url(#SVGID_1_)"/><path class="st11" d="M486.3 482.5l-4.4 1.6-1.6-2.7c-1.2-2-2.9-4.8-4.2-6.9-2.2-3.6.7-9 .7-9s.5-5.4 2.4-7.1 2.4 7.1 2.4 7.1C489 469 485 477 485 477l.7 3.2.6 2.3z"/><path class="st4" d="M486.3 482.5l-4.4 1.6-1.6-2.7v-.2c1.6-1 3.6-1.4 5.5-1.1l.5 2.4z"/><path class="st11" d="M431.4 602.5c-8.2-3.5-6.4-12-4.9-16.3.3-.9.7-1.7 1.1-2.5l4.6-2.8s.9 2.4 2 5.6c2.3 7.5 5 19.4-2.8 16zm11.3 77.9c-.6 1.1-1 2.2-1.2 3.4-.4 1.9-.6 3.9-.5 5.8 0 .8.1 1.5.1 2.3l-9.2 6.3s0-.7.1-1.8c.2-2.9.7-8.3 1.2-8.9.4-1.4.7-2.8.7-4.2.1-1.8.2-3.4.2-3.4s11.1-4.1 8.6.5zm21.7 4.6s0 1.8-.1 3.8c0 1.9-.2 3.7-.4 5.6-.2 1.5-.3 3.1-.2 4.7.1 2 .2 3.9.2 3.9s-9.4-8.8-8.4-9.5c.4-.6.7-1.3.8-2 .3-1.2.5-2.9.7-4.3.2-1.7.4-3 .4-3l7 .8z"/><path class="st4" d="M442.7 680.4c-.6 1.1-1 2.2-1.2 3.4-2.5-.1-5-.3-7.5-.6.1-1.8.2-3.4.2-3.4s11-4 8.5.6zm21.7 4.6s0 1.8-.1 3.8c-2.9.7-5.9-.8-7.4-1.7.2-1.7.4-3 .4-3l7.1.9z"/><path class="st2" d="M483.5 598.1c-2.5 5.7-4.2 11.7-5.3 17.8l-1.4 8.2s.7 3.6 0 4.9-2 3.6-2 3.6 1 8.3 0 9.2 0 5.9 0 5.9l-3.4 17.2-4.8 22.1c-4.6 3.7-10.7-1-10.7-1l1.4-14.5s2-25.3 1.2-26.3.3-4.2.3-4.2 1.2-3.1.3-4.3.2-3.7.2-3.7-.3-10.4.7-12.8 0-17.1 0-17.1l-.4-4.6-.2-2.5v-.3l-.4 2.6c-.8 4.8-2.4 14.7-3 16.8-.4 1.5-1 2.9-1.8 4.2 0 0 .9 5.1 0 6.5-.5.9-.6 2-.1 2.9 0 0 .9 4.3-1.7 6s0 2.5 0 2.5-1.9 4.1-2.5 5.8c-.4 1.3-.4 2.7 0 4.1l-1.4 13.8c-.6 3.2-1 6.4-1 9.7.2 3.9-1.5 12.9-1.5 12.9s-13.1 0-15.1-1.5 3.4-16.5 3.4-16.5 1.5-26.2 1.2-26.8 0-5.8 1.2-6.8 0-3.1 0-3.1-.3-4.1 0-5.1c.2-1.5.1-3-.1-4.4 0 0-1.1-8.3-1.3-13.1s-1-15.5-1-15.5.9-6.6 1-9.8c.2-1.4.6-2.8 1.2-4 .7-1.5 1.6-3 2.5-4.5 0 0 40.3-11.9 42-10.7.4.3 1.1 2.4 1.7 5.5 1.8 8.8 3.6 24.9.8 30.9z"/><path d="M483.5 598.1c-2.5 5.7-4.2 11.7-5.3 17.8l-1.4 8.2s.7 3.6 0 4.9-2 3.6-2 3.6 1 8.3 0 9.2 0 5.9 0 5.9l-3.4 17.2-4.8 22.1c-4.6 3.7-10.7-1-10.7-1l1.4-14.5s2-25.3 1.2-26.3.3-4.2.3-4.2 1.2-3.1.3-4.3.2-3.7.2-3.7-.3-10.4.7-12.8 0-17.1 0-17.1l-.4-4.6-.2-2.5v-.3l-.4 2.6c-.8 4.8-2.4 14.7-3 16.8-.4 1.5-1 2.9-1.8 4.2 0 0 .9 5.1 0 6.5-.5.9-.6 2-.1 2.9 0 0 .9 4.3-1.7 6s0 2.5 0 2.5-1.9 4.1-2.5 5.8c-.4 1.3-.4 2.7 0 4.1l-1.4 13.8c-.6 3.2-1 6.4-1 9.7.2 3.9-1.5 12.9-1.5 12.9s-13.1 0-15.1-1.5 3.4-16.5 3.4-16.5 1.5-26.2 1.2-26.8 0-5.8 1.2-6.8 0-3.1 0-3.1-.3-4.1 0-5.1c.2-1.5.1-3-.1-4.4 0 0-1.1-8.3-1.3-13.1s-1-15.5-1-15.5.9-6.6 1-9.8c.2-1.4.6-2.8 1.2-4 .7-1.5 1.6-3 2.5-4.5 0 0 40.3-11.9 42-10.7.4.3 1.1 2.4 1.7 5.5 1.8 8.8 3.6 24.9.8 30.9z" opacity=".15"/><circle cx="458.7" cy="482.5" r="11.7" fill="#a1616a"/><path class="st4" d="M482.8 567.3c-1.4.7-2.3 1.2-2.3 1.2s-19 9-24.5 8.5c-4.2-.4-14.9-.2-19.5-.1.7-1.5 1.6-3 2.5-4.5 0 0 40.3-11.9 42-10.7.4.4 1.1 2.5 1.8 5.6z"/><path class="st2" d="M479.1 500.4l2.2-1.9-1.1-16.8c3.2-2.2 7.6-1.3 9.7 1.9.1.1.2.2.2.4-.1 1.6-.1 3.2 0 4.8.2 1-1.2 2 0 3s0 4.4 0 4.4c.6 1.1 1.3 2.1 2.2 3.1.9.7 1.7 6.3 0 7.5s-4.9 3.9-4.9 5.1-4.1 4.1-4.1 4.1l-3.6-4.7-.6-10.9z"/><path class="st2" d="M450.6 501.3s-10.9 1.7-13.4 3.4-7.6 4.9-7.6 11.9c0 5.4-.6 10.9-1.9 16.2-.7 2 10.7 18.5 10.7 18.5l-4.1 25s16.3-.5 21.8 0 24.5-8.5 24.5-8.5 11.2-5.9 13.6-6.1-4.8-13.1-4.8-13.1-11-20.9-9.2-24.3c1.3-2.7 2.4-5.5 3.2-8.3l-2-17.3c-1.9-.6-4-.3-5.6.9-2.5 1.9-11.2.9-11.2.9l-14 .8z"/><path class="st2" d="M431.9 531.5l-4.3 1.2-1.2 16s1.5 4.3 0 5.6-1.9 30.4-1.9 30.4c3.2 2.1 7.2 2.4 10.7.8 0 0-.9-3.2 1.7-15s2.5-17.6 2.5-17.6 0-14.6 1.2-17 0-8.3 0-8.3-2.4-3.2-2.2-4.4-6.5 8.3-6.5 8.3z"/><path class="st4" d="M432.1 531.5l-4.3 1.2-1.2 16s1.5 4.3 0 5.6-1.9 30.4-1.9 30.4c3.2 2.1 7.2 2.4 10.7.8 0 0-.9-3.2 1.7-15s2.5-17.6 2.5-17.6 0-14.6 1.2-17 0-8.3 0-8.3-2.4-3.2-2.2-4.4-6.5 8.3-6.5 8.3z"/><path class="st4" d="M434.2 586.5c-2.5.8-5.2.7-7.7-.3.3-.9.7-1.7 1.1-2.5l4.6-2.8s1 2.4 2 5.6zm41.2-52.4s-2.2 19-8.7 22.6c.1 0 14.5-4.1 8.7-22.6zm-32.5 1.7s8 3.9 6.1 6.6-6.1-6.6-6.1-6.6zm0 7.8s5.1 5.3 4.1 7.1-4.1-7.1-4.1-7.1zm41.2-43.7s2 3.4 2.2 5.6-2.2-5.6-2.2-5.6zm0-4.6s1-.9 3.6 0-3.6 0-3.6 0zm-9.9 99.4c-4.2.6-8.5.1-12.4-1.6l-2.1 5.5-.2-2.5c.4-2.1 1-4.4 2.4-5 3.6 2.4 7.9 3.7 12.3 3.6zm-34.8 7.1s10.5 2.2 13.4 1.8l-13.4-1.8zm1.1 2.7s4.5-.2 6.7.7l-6.7-.7zm.5 1.9c2 .4 4.1.7 6.2.8l-6.2-.8zm-.2 23.4c.2-.1 8.9-2.2 10-.7l-10 .7zm0 2.6s7.6-.9 7.8 0-7.8 0-7.8 0zm0 2.5s8.1-1.7 9-1.3-9 1.3-9 1.3zm.3 57.1l-9.2 6.3s0-.7.1-1.8c1.1-2.8 2.7-5.4 4.7-7.7 2.1-.5 3.4 0 4.2.9.1.8.1 1.5.2 2.3z"/><path class="st5" d="M442 697.6c-1.3 3-1.9 6.1-1.9 9.4 0 2.7-.7 5.3-2 7.5l-.6.9s-6.4 0-8.6-1.9c-.2-.2-.4-.4-.6-.7-1.3-2.5 2.5-12.3 2.5-12.3 1-4.3 3.1-8.2 6-11.5 7.1-1.8 5.2 8.6 5.2 8.6z"/><path class="st4" d="M438.1 714.5l-.6.9s-6.4 0-8.6-1.9c1.1-3.6 4.6-14.6 6.2-12.8s2.7 10.3 3 13.8z"/><path class="st5" d="M437.3 701.5l-.4 16.5h2.1s.3-14.4 1.3-16.5-3 0-3 0z"/><path class="st4" d="M463.9 702.8s-9.4-8.8-8.4-9.5c.4-.6.7-1.3.8-2 1.8-.3 4.9.4 7.5 7.6-.1 2.1.1 3.9.1 3.9z"/><path class="st5" d="M465.3 712.7c-.1 0-.2.1-.2.1-2.5.1-5 .1-7.4 0-.9 0-1.6-.7-1.6-1.6V709c-.1-2.5-.4-5.5-1.3-6.2-1.6-1.2-2.9-5.4 0-10.6 0 0 5.5-4.2 9.4 8.4 0 0 .4 3.6 2.1 4.9s-.3 6.9-1 7.2z"/><path class="st4" d="M465 712.8c-2.5.1-5 .1-7.4 0-.9 0-1.6-.7-1.6-1.6V709c.7-3 1.7-6.2 3-6.9 0 0 3.8-.4 6 10.7z"/><path class="st5" d="M455.4 701.8l1 13.7h1.3v-14.9l-2.3 1.2z"/><path class="st4" d="M458.6 463.9c-3.7.3-7.3 1.4-10.5 3.4-.9.4-1.6 1.1-2 2-.2.8-.3 1.6-.2 2.4.1 7-7.7 12.4-7.5 19.4.1 2.8 1.5 5.4 1.8 8.2.4 4.6-2.3 8.9-4.9 12.7 2.7.2 5.4-.7 7.5-2.5 2.8 9.3 3.1 19.1 1 28.5h3.8c.4 0 .7 0 1.1.1.3.2.6.4.9.7 3.5 3.5 5.9 8.7 4.5 13.4l8-3c1.9-.6 3.8-1.5 5.5-2.6 1.7-1.1 3-2.9 3.4-4.9.2-1.2.1-2.7 1.1-3.4.5-.3 1-.5 1.6-.6 2.2-.8 3.2-3.3 3.6-5.6.5-2.8.7-5.7.5-8.5-.4-4.8-1.8-9.6-.6-14.3.7-2.6 2.1-5 2.2-7.8.2-4.5-3.3-8.3-3.8-12.7-.4-3.1.8-6.2.4-9.3-.4-3.2-2.4-6.1-5.3-7.6-1-.5-2.1-.9-3-1.4-2.2-1.3-3.6-3.6-5.6-5.2s-5.4-2.2-6.9-.1l3.4-1.3z"/><path d="M458.6 463.4c-3.7.3-7.3 1.4-10.5 3.4-.9.4-1.6 1.1-2 2-.2.8-.3 1.6-.2 2.4.1 7-7.7 12.4-7.5 19.4.1 2.8 1.5 5.4 1.8 8.2.4 4.6-2.3 8.9-4.9 12.7 2.7.2 5.4-.7 7.5-2.4 2.8 9.3 3.1 19.1 1 28.5h3.8c.4 0 .7 0 1.1.1.3.2.6.4.9.7 3.5 3.5 5.9 8.7 4.5 13.4l8-3c1.9-.6 3.8-1.5 5.5-2.6 1.7-1.1 3-2.9 3.4-4.9.2-1.2.1-2.7 1.1-3.4.5-.3 1-.5 1.6-.6 2.2-.8 3.2-3.3 3.6-5.6.5-2.8.7-5.7.5-8.5-.4-4.8-1.8-9.6-.6-14.3.7-2.6 2.1-5 2.2-7.8.2-4.5-3.3-8.3-3.8-12.7-.4-3.1.8-6.2.4-9.3-.4-3.2-2.4-6.1-5.3-7.6-1-.5-2.1-.9-3-1.4-2.2-1.3-3.6-3.6-5.6-5.2s-5.4-2.2-6.9-.1l3.4-1.4z" fill="#a26565"/><path d="M446 469.4zm29.6 16.4c.3-2.1.5-4.3.5-6.5-.3 2.1-.5 4.3-.5 6.5zm-35.3 10.7c-.2-2.5-1.4-4.9-1.7-7.4-.1.5-.1.9-.1 1.4.1 2.8 1.5 5.3 1.7 8.1.1-.7.1-1.4.1-2.1zm37 10.1c-.4 1.7-.5 3.4-.4 5.1 0-1 .2-2 .4-2.9.7-2.6 2.1-5 2.2-7.8 0-.5 0-1-.1-1.4-.3 2.4-1.6 4.6-2.1 7zm-34.5.2c-1.7 1.4-3.8 2.3-6 2.5-.5.7-1 1.4-1.4 2.1 2.7.2 5.4-.7 7.4-2.4 1.5 5 2.3 10.1 2.4 15.3.1-6-.7-11.8-2.4-17.5zm34.6 22.6c-.5 2.3-1.4 4.8-3.6 5.6-.6.1-1.1.3-1.6.6-1 .7-.9 2.2-1.1 3.4-.5 2-1.7 3.8-3.4 4.9-1.7 1.1-3.6 2-5.5 2.6l-7.6 2.9c0 .8-.2 1.5-.4 2.3l8-3c1.9-.6 3.8-1.5 5.5-2.6 1.7-1.1 3-2.9 3.4-4.9.2-1.2.1-2.7 1.1-3.4.5-.3 1-.5 1.6-.6 2.2-.8 3.2-3.3 3.6-5.6.5-2.4.7-4.8.6-7.2-.1 1.6-.3 3.3-.6 5zm-27.9 6.7c-.2-.3-.5-.5-.9-.7-.4-.1-.7-.2-1.1-.1h-3.3c-.1.7-.3 1.4-.4 2.1h3.8c.4 0 .7 0 1.1.1.3.2.6.4.9.7 2.7 2.5 4.4 5.9 4.9 9.5.3-4.2-1.9-8.6-5-11.6z"/><path class="st4" d="M430.9 550s3-1.3 3.7 0-3.7 0-3.7 0zm1 2.1s3-1.3 3.7 0-3.7 0-3.7 0z"/><path class="st16" d="M216.6 58.8l.3 2.1 9.1 1.3s.8-.6 1.9-1.3c2.2-1.4 5.8-3.5 8.9-4.1 4.8-.9 20-7.8 15.1-8.2s-4.4.6-4.4.6-5.4-5.3-11-.5c-4.2 3.7-13.5 7.6-17.8 9.3l-2.1.8z"/><path class="st17" d="M253 34.6c1.4-.6 2.9-1 4.4-1.1 1.5-.2 3 .4 4.2 1.4.6.6 1 1.4 1.5 2 2.8 3 8.2.8 11.5 3.1 2.1 1.4 2.7 4.1 3.4 6.5s2.1 5 4.5 5.6c1.2.1 2.4.1 3.6-.1 1.2-.2 2.4.3 3.2 1.2 1.1 1.7-.4 4.6 1.2 5.8 1.5 1.1 4.1-.4 5.2 1.1.4.8.3 1.8-.4 2.5-.6.7-1.2 1.4-1.7 2.1-.8 1.6-.2 3.5 1.3 4.3.6.3 1.2.4 1.8.4 1-.1 2.1-.7 3.1-.2.6.4.9 1 .9 1.7.2 2.4-1.6 4.5-4 4.8-1.8.1-3.4-.8-5-1.7s-3.4-1.5-5.1-.8c-.8.4-1.4.9-2 1.4-1.9 1.6-4 2.8-6.3 3.7-2 .8-4.4 1.3-6.3.3-2.2-1.1-3.3-3.8-5.6-4.6s-4.9.7-7.1 2-5.1 2.4-7.1.8-1.5-5.2-2.8-7.6c-.5-.9-1.2-1.7-2.1-2.3-1.5-1.1-3.1-2-4.6-3.1-1.6-1-2.7-2.6-3.2-4.4-.4-2.2.6-4.4 1.8-6.3s2.6-3.8 3-5.9c.3-1.6 0-3.3.4-5 .5-2 2-3.6 4-4.2 1.1-.4 1.3-.3 1.8-1.2.6-1.2 1.5-1.9 2.5-2.2z"/><path d="M289.6 53.7c.2 1 .3 2 .2 2.9-.2-.9-.3-1.9-.2-2.9zm4.2 11.1c-.2.3-.3.7-.3 1.1-.4-.9-.3-1.9.1-2.7.5-.7 1.1-1.4 1.7-2.1.2-.3.4-.6.5-1 0 0 0 .1.1.1.4.8.3 1.8-.4 2.5-.7.6-1.2 1.3-1.7 2.1zm-51.2-2.6c1.5 1.1 3.1 2 4.6 3.1.8.6 1.6 1.4 2.1 2.3 1.3 2.4.6 5.9 2.8 7.6s4.9.5 7.1-.8 4.7-2.9 7.1-2 3.4 3.5 5.6 4.6c1.9 1 4.3.5 6.3-.3 2.3-.9 4.4-2.2 6.3-3.7.6-.6 1.3-1.1 2-1.4 1.6-.7 3.5 0 5.1.8s3.2 1.8 5 1.7c2.1-.2 3.8-1.9 4-4 .1.3.2.6.2.9.2 2.4-1.6 4.5-4 4.8-1.8.1-3.4-.8-5-1.7s-3.5-1.5-5.1-.8c-.7.4-1.4.9-2 1.4-1.9 1.6-4 2.8-6.3 3.7-2 .8-4.4 1.3-6.3.3-2.2-1.1-3.3-3.8-5.6-4.6s-4.9.7-7.1 2-5.1 2.4-7.1.8c-2.1-1.7-1.5-5.2-2.8-7.6-.5-.9-1.2-1.7-2.1-2.3-1.5-1.1-3.1-2-4.6-3.1-1.6-1-2.7-2.6-3.1-4.4-.1-.4-.1-.8-.1-1.2.6 1.5 1.6 2.9 3 3.9z"/><path d="M246.5 112.3l-3.3.7s3.3 5.4 8.3 1.8-5-2.5-5-2.5z" fill="#4c4981"/><path class="st4" d="M246.5 112.3l-3.3.7s3.3 5.4 8.3 1.8-5-2.5-5-2.5z"/><path class="st16" d="M318.4 162.3s4.6 2.4 8.9 5.1c3.1 2 6 4.1 6.9 5.7 2.3 3.9 13.4 8.1 13.4 8.1l11 8.4c2.6.9 5.1 4 6.1 5.4.3.4.5.7.5.7l4.4-.6 2.3-3s.6-6.6-4-6.6c-.9 0-1.8-.3-2.6-.7-4.9-2.2-11.8-9-11.8-9s-11.7-14.6-15.2-15.1c-.4-.1-.7-.2-1.1-.3-3.6-1.3-8.7-5.8-8.7-5.8l-10.1 7.7zM273 204.6c1.2 7 6.5 20.4 8.2 23.2 2.1 3.5 3.2 10.4 3.2 10.4l.6 4.8c.1.7.3 1.3.7 1.9.2.3.4.7.6 1l8.8-2.7s-.5-2-1.3-4.4-1.9-5.3-3-6.3c-2.1-2.1-2.5-9.6-2.5-9.6s-1.8-14.4-2.3-16.2c-.5-1.7-.9-3.5-1-5.3-.1-1-.1-2.1-.1-3.3-.2-3.6-.6-7.1-1.4-10.7l-10.3 1.9-.3 11.5c-.2 1.3-.2 2.6.1 3.8z"/><path class="st4" d="M364.7 195c.3.4.5.7.5.7l4.4-.6 2.3-3s.6-6.6-4-6.6c-.9 0-1.8-.3-2.6-.7-.4 2 1.9 3.6 1.9 3.6s.9.7.7 3.8c-.1 2.2-2 2.7-3.2 2.8z"/><path class="st19" d="M364.2 195.4c.3 1.1 3.1 2.6 5 3.6 1 .5 1.7.8 1.8.9.5.2 2.8-2.4 3.1-4.5s5.9-8.6 5.9-8.6c1.2-2.6 1.9-5.3 2.1-8.2.2-2.9-1-3.1-2.4-2.4-1 .5-1.9 1.2-2.6 2.1-1 .9-2.1 1.5-3.4 1.8-1.7.4-3.4 1.1-4.9 2.1-1.4.9-2.7 1.9-2.9 2.9-.5 2.1 1.8 3.8 1.8 3.8s.9.7.7 3.8-4.2 2.6-4.2 2.7z"/><path class="st4" d="M369.2 199c1 .5 1.7.8 1.8.9.5.2 2.8-2.4 3.1-4.5s5.9-8.6 5.9-8.6c1.2-2.6 1.9-5.3 2.1-8.2.2-2.9-1-3.1-2.4-2.4-.2 2.3-.8 6.6-2 8.9-1.3 2.8-6.9 11.6-8.5 13.9zm-83.3 45.8c0 .1 0 .1-.1.2.2.3.4.7.6 1l8.8-2.7s-.5-2-1.3-4.4c-3.5-1-8.5 5.1-8.5 5.1l.5.8z"/><path class="st19" d="M285.3 251.3s7.4 2.6 10.7 2.2c2.5-.3 2.6-1.5 2.5-3.9-.1-.8-.1-1.6-.2-2.7-.2-4.3-1.9-5.1-1.9-5.1-2.8-7.4-10.9 2.5-10.9 2.5l.4.8c-.6 1.2-.9 2.6-.8 4 0 .8.1 1.5.2 2.2z"/><path class="st4" d="M285.3 251.3s7.4 2.6 10.7 2.2c2.5-.3 2.6-1.5 2.5-3.9-1.7 1.4-3.8 2-6 1.7-2.5-.3-5-1.1-7.3-2.2-.1.8 0 1.5.1 2.2z"/><path class="st16" d="M248.8 72.8l2.9 12.6.6 2.6 5.3.7 5.5.7 6-2.2s1.7-5.7.3-9.9c-.4-1.5-1.4-2.8-2.8-3.6-.4-.2-.8-.6-1.1-.9-.4-.4-.8-.9-1-1.4-.3-.6-.5-1.3-.5-2-.3-3.4 1.9-7.1 1.9-7.1s-12.7-4.3-11.7-1.5c.6 1.8-1.1 5-2.5 6.9-.7 1.1-1.3 1.8-1.3 1.8l-1.6 3.3z"/><ellipse transform="rotate(-76.714 260.24 57.017)" class="st4" cx="260.2" cy="57" rx="11" ry="11"/><circle class="st16" cx="260.2" cy="56.6" r="11"/><path class="st19" d="M249.6 114.6c.5 2.4 2.9 6.2 2.9 6.2l15.3 3.8 11-11.4v-.1c-.3-1.1-4.5-14.6-1.5-17.9s2-13.2 2-13.2-5.5-6.3-6.6-7.8-8.2-2.7-8.2-2.7c.4.5.7.9 1 1.4.8 1.1 1.4 2.4 1.8 3.7.5 1.3.4 2.7-.1 4-.2.3-.3.7-.4 1-1.2 5.3-6.7 4.5-8.8 4-.6-.1-.9-.3-.9-.3l-5.2.2-3.3.1s1.5 25.9 1.1 27.9c-.1.3-.2.7-.1 1.1z"/><path d="M248.4 86.8l9.5-1.3h-.2l-.9-.3-5.2.2-3.3.1c.1.1.1.5.1 1.3zm10.7 35.7l4.1 1 6.5-.8 1.7-1.8-12.3 1.6zm6.9 1.7l1.9.5.8-.8-2.7.3z" fill="#925978"/><path class="st4" d="M249.6 114.6c2.4.3 4.7.4 4.7.4l12.6-.5v-13.2c-1.5-1.4-3.2-2.5-5.1-3.4-2.2-.8-4.8-3.1-4.3-9.3 0-.3.1-.7.1-1.1.1-.7.1-1.4.1-2.1 0-3.1-1.3-6-3.5-8.1l-.2-.2-2.1-9.6c-.1 0-.3 0-.4.1-.7 1.1-1.3 1.8-1.3 1.8l-1.5 3.3 2.9 12.6-3.3.1s1.5 25.9 1.1 27.9c0 .5.1.9.2 1.3z"/><path class="st21" d="M253.9 115l12.6-.5v-13.2c-1.5-1.4-3.2-2.5-5.1-3.4-2.3-.8-5.1-3.4-4.2-10.4.6-3.8-.6-7.6-3.4-10.2l-.2-.2-2.1-9.6c-1.3.1-2.5.8-3.3 1.9-.2.4-.5.7-.8 1.1-.5.9-1.6 1.2-2.5.8-1.3-.6-7.1-3-8.4-.6S235 87.2 235 87.2c1.9 1.6 3.2 3.7 3.7 6.1.9 4 2.4 4.1 2.4 4.1l1.6 11.6s1.4 2.5.4 3.9"/><path class="st21" d="M247.6 70.6l2.1 6.4 4.1.4-.2-.2-2.1-9.6c-1.3.1-2.5.8-3.3 1.9-.1.4-.3.8-.6 1.1z"/><path class="st4" d="M216.6 58.8l.3 2.1 9.1 1.3s.8-.6 1.9-1.3c-1-.2-5.5-1.2-7.9-2-.9-.3-1.5-.5-1.5-.7s.1-.2.2-.3l-2.1.9z"/><path class="st21" d="M205.9 72.4s10.3 7.8 16.8 9.1c0 0 9 2.7 12.6 5.8l3.9-14.9-2.3-1.6s-2.8 1.8-5.3 1.2-5.1-.9-5.1-.9c-2.1-.8-4.3-1.4-6.6-1.8-1.7-.1-1-2.4.7-3.6.2-.2.5-.3.7-.4.7.9 1.9 1.2 2.9.7.7-.4 1.2-1 1.7-1.6.7-.9 1.4-1.9 1.9-2.9 0 0-5.4-1.2-8.1-2-.9-.3-1.5-.5-1.5-.7-.1-.6 4.8-2.6 4.8-2.6s-4.2-2-5.9-.6c0 0 1.1.8.2 1.6s-11.6 9.1-11.6 9.1-5.3 2.6.2 6.1z"/><path class="st4" d="M214.8 64.8l5.7.8c.2-.2.5-.3.7-.4.7.9 1.9 1.2 2.9.7.7-.4 1.2-1 1.7-1.6.6-.8 1.1-1.6 1.6-2.4 0 0-5.4-1.2-8.1-2l-4.5 4.9z"/><path class="st21" d="M215.1 64.3l6.1.9c.7.9 1.9 1.2 2.9.7 1.8-1 3.6-4.5 3.6-4.5s-5.4-1.2-8.1-2l-4.5 4.9z"/><path class="st4" d="M328.6 154.6l-10.1 7.7s4.6 2.4 8.9 5.1c3.7-2.5 7.3-4.9 9.9-7-3.6-1.2-8.7-5.8-8.7-5.8zm-55.6 50c2.5-.3 5-.9 7.4-1.8 0 0 1.9-.4 4.6-1.3-.1-1-.1-2.1-.1-3.3-.2-3.6-.6-7.1-1.4-10.7l-10.3 1.9-.3 11.5c-.2 1.2-.2 2.5.1 3.7z"/><path class="st19" d="M254.7 157.9c2.1 3.1 7.7 16.1 7.7 16.1 1.3 2.3 2.7 4.5 4.3 6.6 2.3 2.8 3.8 9.2 5.5 14.3s-.5 4.1-.3 6.8 9.9-.8 9.9-.8 19.8-4.4 25.8-16.4 30.1-23 35-29.8-1.4-4-1.1-7.7-2.5-6.8-2.5-6.8-9.1-2.6-10.6-4.4-8.7-6.3-8.7-6.3-6.8-3-7.7-4-9-4.2-11.5-4.9-4.9-4.2-4.9-4.2-1.5.2-3.8-2-11.8-4.1-11.8-4.1c-16.3 11.9-27.5 10.2-27.5 10.2l-.3 2.3c-8.6 11.6.4 32.1 2.5 35.1z"/><path class="st4" d="M252.2 123.1s14 4.6 27.8-12.5c-16.3 11.9-27.5 10.2-27.5 10.2l-.3 2.3zm24.2 8s18.9 27.2 20 28.2-19-28.5-20-28.2zm-8.7-2.1s13.1 20.3 12.8 23c0 0-12.6-19.5-12.8-23zm-7.6 5.6s2.4 11.4-1.2 17.8l1.2-17.8zm-5 .7s-.2 9.8-1.3 11.8l1.3-11.8zm32-8.8l17.4 6.8-6.4.8-11-7.6zm-34.2-76c.9.6 1.6 1.5 2.6 1.6.7 0 1.5-.2 2.1-.5 1.7-.8 3.7-1.3 5.5-.7 2.5.8 4 3.8 6.5 4.7 1.3.4 2.7.3 3.8-.4 1-.6 1.7-1.6 2-2.8.3-2-.4-4.1-2-5.3-1.6-1.3-3.4-2.1-5.4-2.5-5.1-1.1-10.4-.8-15.6-.4-.4 0-.9.1-1.2.3-.8.6-2.1 3.6-1.9 4.6.5 1.3 3.5.3 3.6 1.4z"/><path class="st17" d="M252.9 50.1c.9.6 1.6 1.5 2.6 1.6.7 0 1.5-.2 2.1-.5 1.7-.8 3.7-1.3 5.5-.7 2.5.8 4 3.8 6.5 4.7 1.3.4 2.7.3 3.8-.4 1-.6 1.7-1.6 2-2.8.3-2-.4-4.1-2-5.3-1.6-1.3-3.4-2.1-5.4-2.5-5.1-1.1-10.4-.8-15.6-.4-.4 0-.9.1-1.2.3-.8.6-2.1 3.6-1.9 4.6.4 1.3 3.4.3 3.6 1.4z"/><path class="st16" d="M320 58.2l1.7 6.7 2.2-1.3 11.7-7.1s8.9-.3 9.5-7.5-9.9-.1-10.4.5-1.8 1.5-1.8 1.5L322 57.1l-2 1.1z"/><path class="st4" d="M320 58.2l1.7 6.7 2.2-1.3c-.5-3-1.2-5.8-1.9-6.5l-2 1.1zm-57.7 43.9l2.4 14 14.1-3c-.3-1.1-4.5-14.6-1.5-17.9s2-13.2 2-13.2-5.5-6.3-6.6-7.8-8.2-2.7-8.2-2.7c-.3-.6-.5-1.3-.5-2-.2.5-.4 1-.5 1.5 0 2.6 1 4.3 3.8 5.6l.8.3c.4.2.9.3 1.4.5l.2.1c4.5 1.3 5.5 4.1 5.5 4.1 1.6 2.1 2.3 4.7 2.1 7.3-.6 4.2-15 13.2-15 13.2z"/><path class="st21" d="M263.1 102l2.4 14 15.9-3.3s-.5-5.3-1.6-7.4-.9-10.5-.9-10.5c6.8-7.3 3.2-13.2 3.2-13.2s19.9-3.2 20.2-3.8 7-4.2 7-4.2 7.2-1.8 8.2-2.9c.4-.4.8-.7 1.2-1.1.1-.1.3-.2.4-.3l.5 4.6h.2c1.2-.1 2.3-.6 3.2-1.3 1.6-1.3-.4-15-2-15.5-.3-.1-.6-.1-.9 0-1.3.4-2.4 1-3.4 1.8l-.3.2-.1.1s-9 3.5-10.8 5.2-15.8 3.7-15.8 3.7-6.3 1.5-7.1.6-10.4-2.4-11.2-1-3 1.2-3 1.2c-1.6-1.8-2.7-1.1-3.3-.1-.4.6-.7 1.3-.8 2 0 2.8 1.2 4.6 4.5 5.9.5.2 1 .4 1.6.6 4.5 1.3 5.5 4.1 5.5 4.1 1.6 2.1 2.3 4.7 2.1 7.3-.5 4.3-14.9 13.3-14.9 13.3z"/><path class="st4" d="M320 57.1h.5c1.6.5 3.7 14.3 2 15.5-.8.6-1.8 1-2.8 1.2h-.2l-.5-4.6c-.1.1-.3.2-.4.3v-.2c.8-3.6 0-7.3-2.3-10.2l3.7-2z"/><path class="st21" d="M319 69.3l.5 4.6c1.2-.1 2.4-.5 3.4-1.3 1.6-1.3-.4-15-2-15.5-1.3-.4-3.5 1.2-4.4 1.8 2.5 2.9 3.4 6.8 2.5 10.4zm-50.2 7.4l2.3-2.2-6-5.8c-.4.6-.7 1.3-.8 2-.1 2.9 1.1 4.7 4.5 6z"/><path class="st4" d="M252.8 49.3c.9.6 1.6 1.5 2.6 1.6.7 0 1.5-.2 2.1-.5 1.7-.8 3.7-1.3 5.5-.7 2.5.8 4 3.8 6.5 4.7 1.3.4 2.7.3 3.8-.4 1-.6 1.7-1.6 2-2.8.1-.4.1-.8.1-1.2.1.7.1 1.3 0 2-.4 1.7-1.7 2.9-3.4 3.3-.8.2-1.6.1-2.4-.1-2.5-.9-4-3.8-6.5-4.7-1.8-.6-3.8 0-5.5.7-.6.4-1.4.6-2.1.5-1-.1-1.8-1.1-2.6-1.6-.1-1.1-3.2-.1-3.5-1.4v-.6c.5 1 3.2.1 3.4 1.2zm9.3 31.6s-1.3 3.6.3 4.8c0 0-1.8-4.7-2.8-4.6"/><path class="st16" d="M340.8 46.3s-8.2 7.1-2.3 8.2 2.3-8.2 2.3-8.2z"/><path class="st6" d="M308.9 52.2l1.6 41.3L356 52.2h-47.1z"/><path class="st7" d="M308.9 52.2l1.6 41.3L356 52.2h-47.1z"/></svg>