<svg xmlns="http://www.w3.org/2000/svg" viewBox="0 0 1143.1 862.9"><path opacity=".1" d="M1023.8 809.3c55.3 0 100.1 11.1 100.1 24.7s-44.8 24.7-100.1 24.7-100.1-11.1-100.1-24.7 44.8-24.7 100.1-24.7zM140 813.5c55.3 0 100.1 11.1 100.1 24.7s-44.8 24.7-100.1 24.7-100.1-11.1-100.1-24.7 44.9-24.7 100.1-24.7zm452-676c-71.4 11.9-142.9 5.5-211.8-3.4s-137.5-20.2-209.1-18c-46 1.4-97.2 10.5-129 38.2-30.6 26.7-35 63.2-34.7 96.2.3 24.8 2.6 50.5 19.4 70.5 11.7 13.9 29.5 23.9 43 36.7 47 44.6 33.7 113.6 3.9 172.1-14 27.4-31.1 54.4-40.5 82.5s-10.3 58.4 7.4 81.7c17.5 23.1 51.1 36.4 86 43.5 70.9 14.5 149.6 7 225.7-3.4 168.4-23.1 335-60.5 501.1-97.8 61.5-13.8 123.2-27.7 182.3-48 32.8-11.3 66.3-25.4 87.3-47.8 26.7-28.5 26.9-67.7.6-91.5-44.2-40-143.2-32.5-177.6-78-18.9-25-11.2-58.6 3.2-88.2 31-63.4 91.8-125.7 83-189.4-6-43.8-48.4-80.4-104.7-90.5-59-10.6-134.4 7.1-167.8 50.6-34.4 45-104.7 73.5-167.7 84zm121.6 611.1c34.2 0 62 4.3 62 9.5s-27.8 9.5-62 9.5-62-4.3-62-9.5 27.8-9.5 62-9.5z"/><path d="M684.7 232.9s-14.1-5.7-58.8 14.8c-44.7 20.5-50.4 17.9-61.9 14.8s-18-3.9-30.5-21c0 0-8.8-47.5-17.2-54.8s-44.5 4.2-44.5 4.2-43.2 9.9-51.4-47.8c0 0 5.8-43.5-2.1-56.9 0 0 16 6.9 42.5-4.3s47.7 12 47.7 12 6.7 17.3 6 27.6 3.5 14.2 16.2 9.2c0 0 6.2-8.8-2.6-23.4S513 81.8 515.5 70.5s9.5-27 32.2-34.9 53.4-9.4 68.2-15.5S634.2 10 634.2 10s-9.1 9.1 12.3 47.8 7.8 55.4 7.8 55.4-11.4 27.2-61.7 25c0 0-48.5 1.8-22 22.3 0 0 16.9-3.4 42.2-11.5s43.6 25.1 48.1 48.3 23.8 35.6 23.8 35.6z"/><path fill="#444053" d="M619.6 39.2l.3-.1c1.9 7.4-19.7 37-38.2 60.5l-.2-.2c26-33.1 39.6-54.5 38.1-60.2z"/><path fill="#444053" d="M581.8 99l.1.3c-14.8 18.8-33.4 41.2-48.3 57.9-1.4 1.6-2.8 3.3-4.2 4.9l-.4-.4c1.4-1.7 2.8-3.4 4.2-5 14.9-16.5 33.8-38.9 48.6-57.7z"/><path fill="#444053" d="M529.3 161.3l.3.5c-27.1 33.8-28.9 86.4-29 86.8l-5.7-6.6c.1-.4 7.2-46.6 34.4-80.7z"/><path stroke="#444053" stroke-miterlimit="10" d="M653.3 214.5s-32-16.6-56.8-10.6-81-21.1-81-21.1-23.8-9.7-28.6-20.7c0 0-16.3-17.3-17.3-26.2s-16.8-31.4-27.2-32.3m206.3 126.9s-16.1-10.8-14.2-23.5M624 244.5s-23-8.4-25.3-41.1M586.9 253s-22-18.3-14.7-50.1m-29.9 41.2s-14.7-30.7-1.6-50.7m113 .9s-16.7 5.3-13.1 14m-7-44.2s-22.3 7.1-22.8 38.6m-8.2-45.9s-20.3 25-18.8 47.8m-16.8-38s-20.1 19.2-17.6 29.9m5.5-36.7s-18.9 3.4-21.5-2.8m-3-20s9.5 12.6 12 9.8m82.5-17.8s-47.6 3.4-58.4-10.9m-46.1-44.7s22.3 47.9 38.5 54m-15.1-76.9s13.7 44.1 30.7 57.8"/><path stroke="#444053" stroke-width=".75" stroke-miterlimit="10" d="M645 92.6s-36.2 15.5-57.9-.2M576 41.1s8.3 32.4 19.4 40.2m44.1-25s-20.3 7.7-27.9 1.8"/><path stroke="#444053" stroke-miterlimit="10" d="M513 147.6s0 28.3-7.7 30.3m-55.2 6.3s30.5 2.6 44.6-13.1m10.4-56.9s-7.4 28.6-27.8 36.4m-45.5 3.4s21.6 7.5 40.2-11.6m9-52.8s-2 24.3-15.3 35.7m-33.1-8.4s17.9.1 22.1-5.7"/><linearGradient id="a" gradientUnits="userSpaceOnUse" x1="551.455" y1="173.45" x2="551.455" y2="711.78" gradientTransform="matrix(1 0 0 -1 0 861.89)"><stop offset="0" stop-color="gray" stop-opacity=".25"/><stop offset=".54" stop-color="gray" stop-opacity=".12"/><stop offset="1" stop-color="gray" stop-opacity=".1"/></linearGradient><path fill="url(#a)" d="M88.8 150.1h925.3c6.9 0 12.5 5.6 12.5 12.5V676c0 6.9-5.6 12.5-12.5 12.5H88.8c-6.9 0-12.5-5.6-12.5-12.5V162.6c0-6.9 5.6-12.5 12.5-12.5z"/><path fill="#FFF" d="M90.3 157.7h922.4c6.9 0 12.5 5.6 12.5 12.5v504c0 6.9-5.6 12.5-12.5 12.5H90.3c-6.9 0-12.5-5.6-12.5-12.5v-504c0-6.9 5.6-12.5 12.5-12.5z"/><path fill="#FFF" d="M90.3 157.7h922.4c6.9 0 12.5 5.6 12.5 12.5v504c0 6.9-5.6 12.5-12.5 12.5H90.3c-6.9 0-12.5-5.6-12.5-12.5v-504c0-6.9 5.6-12.5 12.5-12.5z"/><path opacity=".04" fill="#5A5773" d="M90.3 157.7h922.4c6.9 0 12.5 5.6 12.5 12.5v504c0 6.9-5.6 12.5-12.5 12.5H90.3c-6.9 0-12.5-5.6-12.5-12.5v-504c0-6.9 5.6-12.5 12.5-12.5z"/><path fill="#5A5773" d="M1020.4 151.6H82.6c-2.7 0-4.8 2.2-4.8 4.8v20.3h947.4v-20.3c0-2.6-2.1-4.8-4.8-4.8z"/><g fill="#FFF"><circle cx="96.7" cy="164.2" r="6.5"/><circle cx="114.2" cy="164.2" r="6.5"/><circle cx="131.7" cy="164.2" r="6.5"/></g><path fill="#FFF" d="M151.4 293.9H921c5.6 0 10.2 4.6 10.2 10.2v372.4c0 5.6-4.6 10.2-10.2 10.2H151.4c-5.6 0-10.2-4.6-10.2-10.2V304c0-5.6 4.6-10.1 10.2-10.1z"/><path opacity=".2" fill="#5A5773" d="M111.6 203.4h219.5c2.1 0 3.9 1.7 3.9 3.9v16.1c0 2.1-1.7 3.9-3.9 3.9H111.6c-2.1 0-3.9-1.7-3.9-3.9v-16.1c0-2.1 1.7-3.9 3.9-3.9z"/><path opacity=".2" d="M540.1 339.5h219.5c2.1 0 3.9 1.7 3.9 3.9v16.1c0 2.1-1.7 3.9-3.9 3.9H540.1c-2.1 0-3.9-1.7-3.9-3.9v-16.1c0-2.2 1.7-3.9 3.9-3.9zm0 66.7h347.1c2.1 0 3.9 1.7 3.9 3.9v16.1c0 2.1-1.7 3.9-3.9 3.9H540.1c-2.1 0-3.9-1.7-3.9-3.9v-16.1c0-2.1 1.7-3.9 3.9-3.9zm0 39h347.1c2.1 0 3.9 1.7 3.9 3.9v16.1c0 2.1-1.7 3.9-3.9 3.9H540.1c-2.1 0-3.9-1.7-3.9-3.9v-16.1c0-2.1 1.7-3.9 3.9-3.9zm0 39h347.1c2.1 0 3.9 1.7 3.9 3.9v16.1c0 2.1-1.7 3.9-3.9 3.9H540.1c-2.1 0-3.9-1.7-3.9-3.9v-16.1c0-2.1 1.7-3.9 3.9-3.9zm0 39h347.1c2.1 0 3.9 1.7 3.9 3.9v16.1c0 2.1-1.7 3.9-3.9 3.9H540.1c-2.1 0-3.9-1.7-3.9-3.9v-16.1c0-2.1 1.7-3.9 3.9-3.9zm-352.2 43h699.3c2.1 0 3.9 1.7 3.9 3.9v16.1c0 2.1-1.7 3.9-3.9 3.9H187.9c-2.1 0-3.9-1.7-3.9-3.9v-16.1c.1-2.1 1.8-3.9 3.9-3.9zm0 39h699.3c2.1 0 3.9 1.7 3.9 3.9v16.1c0 2.1-1.7 3.9-3.9 3.9H187.9c-2.1 0-3.9-1.7-3.9-3.9v-16.1c.1-2.1 1.8-3.9 3.9-3.9zm0 39h699.3c2.1 0 3.9 1.7 3.9 3.9v16.1c0 2.1-1.7 3.9-3.9 3.9H187.9c-2.1 0-3.9-1.7-3.9-3.9v-16.1c.1-2.1 1.8-3.9 3.9-3.9zm4.7-318h285c4.7 0 8.5 3.8 8.5 8.5v204.5c0 4.7-3.8 8.5-8.5 8.5h-285c-4.7 0-8.5-3.8-8.5-8.5V334.7c0-4.7 3.8-8.5 8.5-8.5z"/><path opacity=".1" d="M729.3 660c.5.7.9 1.6 1.2 2.4 10.4 12.2 15.9 23.6 5.9 23.9-9.3.3-20.5 16.9-23.1 21.1.1.3.2.7.3 1 0 0 13.1-21.7 23.7-22s3.7-13.3-8-26.4zm-31.3 0c-.5.7-.9 1.6-1.2 2.4-10.4 12.2-15.9 23.6-5.9 23.9 9.3.3 20.5 16.9 23.1 21.1-.1.3-.2.7-.3 1 0 0-13.1-21.7-23.7-22s-3.7-13.3 8-26.4z"/><path d="M729.3 660s5.9 7.8-2.7 19.5-15.8 21.6-12.9 28.9c0 0 13.1-21.7 23.7-22s3.6-13.3-8.1-26.4zm-31.3 0s-5.9 7.8 2.7 19.5 15.8 21.6 12.9 28.9c0 0-13.1-21.7-23.7-22s-3.6-13.3 8.1-26.4z"/><path fill="#FFD037" d="M740.3 669.9c0 2.7-.3 4.9-.7 4.9s-.7-2.2-.7-4.9.4-1.4.8-1.4.6-1.3.6 1.4zm3.8 3.2c-2.4 1.3-4.5 2.1-4.7 1.8s1.6-1.7 4-3 1.5-.4 1.6 0 1.5-.1-.9 1.2zm-57.1-3.2c0 2.7.3 4.9.7 4.9s.7-2.2.7-4.9-.4-1.4-.8-1.4-.6-1.3-.6 1.4zm-3.8 3.2c2.4 1.3 4.5 2.1 4.7 1.8s-1.6-1.7-4-3-1.5-.4-1.6 0-1.5-.1.9 1.2z"/><path fill="#65617D" d="M745.6 697.9l-.3 2.4-.4 3.4-.2 1.4-.4 3.4-.2 1.4-.4 3.4-4.7 38.9c-.4 3.5-6.1 6.2-13 6.2h-24.6c-6.8 0-12.5-2.7-12.9-6.2l-4.8-38.9-.4-3.4-.2-1.4-.4-3.4-.2-1.4-.4-3.4-.3-2.4c-.2-2 2.8-3.6 6.7-3.6h50.4c3.8 0 6.9 1.6 6.7 3.6z"/><path fill="#9D9CB5" d="M745.3 700.3l-.4 3.4h-62.4l-.4-3.4h63.2zm-.6 4.9l-.4 3.4H683l-.4-3.4h62.1zm-.6 4.8l-.4 3.4h-60l-.4-3.4h60.8z"/><linearGradient id="b" gradientUnits="userSpaceOnUse" x1="1059.415" y1="5.25" x2="1059.415" y2="392.851" gradientTransform="matrix(1 0 0 -1 -28.43 843.35)"><stop offset="0" stop-color="gray" stop-opacity=".25"/><stop offset=".54" stop-color="gray" stop-opacity=".12"/><stop offset="1" stop-color="gray" stop-opacity=".1"/></linearGradient><path fill="url(#b)" d="M1125 572.6c.4-1-2.4-6.7-2.4-7s-2.9-3.5-2.9-5.2-3.8-5.6-3.8-5.6-5.2-2.1-5.7-6.8-6.2-4.8-6.2-4.8v-1.1c.1-1.8-.1-3.7-.7-5.5-.7-1.3-1.8-2.3-3.2-2.7 0 0-.6-3.6-1.7-4.8-1.3-1.3-1.8-3.2-1.3-5 .6-1.8-.8-6.2-3.5-6.9s-5.8-1.7-5.8-1.7l-.8.1-.4-.1c-.7.1-1.3.2-2 .3-.6 0-1.1-.2-1.6-.5-.9-1-8.6-3-10-3s-5.4-1.9-5.4-1.9-2.8-2.1-4-3.1-3.2-4.3-3.5-4.9v-.1c-.3-.8-.6-1.6-.8-2.5 1.4-1.4 2.5-3.1 3.5-4.8.1-.2.2-.4.3-.5.2 0 .4 0 .6-.1l.3-.1c1-.5 1.7-1.4 2-2.4.1-.2.1-.4.2-.6v-.2l.1-.4v-.2l.1-.4v-.1c0-.2 0-.4.1-.5.1-.7.2-1.3.3-2 .6-2.5 2.1-4.7 3.2-7 .2-.3.3-.7.4-1s.3-.8.4-1.1l.1-.4c.1-.3.1-.6.2-.8s0-.3.1-.4c.1-.4.1-.8.2-1.2.2-2.2-.2-4.5-1-6.5-.7-1.8-1.8-3.3-2.5-5.1-1.1-2.6-1.4-5.7-2.7-8.2-2.2-4.2-7.2-6.3-11.7-4.8-2 .8-3.8 2.2-5.9 2.9-2.8.9-5.7.2-8.6-.2s-6-.4-8.4 1.4c-2.7 2.2-3.4 6.2-5.9 8.6-1 1-2.3 1.6-3.5 2.5-.8.6-1.4 1.4-1.7 2.4l-.1.2c0 .1 0 .2-.1.3 0 .1 0 .2-.1.3v.7c0 .2 0 .3.1.5v.1c0 .1.1.3.1.4v.1c0 .1.1.3.2.4l.1.2c0 .1 0 .1.1.2.4.7.6 1.4.9 2.2.1.5.1 1-.1 1.4-.2.5-.6 1-1 1.4-1.9 1.9-3.3 4.3-4.2 6.8l-.3.9h.1c.3.1.5.1.8.2h.5c.6 0 1.3 0 1.9-.1l.5-.1c.7-.2 1.3-.4 1.9-.7v.9c0 8.4 4.8 16.1 12.3 19.8 0 .2.1.4.1.6l.1.5-.3-.2s-1.7-.8-3.3 1.6c-1.2 1.6-2.8 2.8-4.6 3.5 0 0-17.1 2.7-17.8 4.9l-8 .5s-2.8.4-3.1 6.3-1.8 6.4-1.8 6.4-3.3 5.8-3 8.8c.1 1.9-.9 3.6-2.5 4.5l-.4 5.3s-3.1-.5-4 3.2c-.4 1.9-1.2 3.7-2.3 5.3 0 0-5.2 4.3-5.5 7.9l-3.2 2s-7.4-1.7-9.1-4.7l-.5-.5v-.1c-1.1-1-3.5-3.2-3.1-2.7.2.5.3 1 .2 1.5l-.5-.6-1.5-1.6s-12-11.2-19-12.1c-.1-.2-.5-2-1.8-.8-4 3.7-4.2 9.9-.6 13.8.2.2.3.4.5.5l11.2 10.5.3.2 2.4 3.1c-.4 1-.8 1.9-1 2.8v.1l-.2.5v.2c-.1.2-.1.3-.2.5l-.1.3v.2c-.3.9-.4 1.7-.5 2.1l-.6-.2.6.3v.3l.6.3c3.3 1.4 19.7 8.6 20.5 9.7s7.1 4.8 12.8 1.8 6.8-7.5 6.8-7.5 5.4-7.6 5.6-8.7 4.4-2.4 4.4-2.4.4 12.5-1.8 17.1-6.2 24.8-6.2 24.8h.8l-.2 1.2c.3-.1.7-.1 1 0-.3 2.3-2 13-2 13s-.6 4.8-1.5 6.5-1 10.5-1 10.5l-1.5 6.3s.2.4.6 1.1c1 2.2 2.5 4.1 4.3 5.6-.1 1-.4 2-.8 2.9-.6 1.4-.8 2.9-.8 4.5 0 0-1.6 7.2-1.4 9.2s-1 7.1-1 7.1l-1.7 16.2s-1.1 14.1-.6 17.9c.3 3 .1 6-.4 9 0 0 1.1 11.1.8 12.3s-1.7 6.4-.8 9.3.4 10.8.4 10.8.6 10.5 1.2 13.8c.4 2.5.3 5.1-.2 7.7 0 0-.7 7.2-.9 7.2s-2.7 4.9 2.3 9.8 1.9 4.1 1.9 4.1-4-2-3.5 2.1c.4 3.8 1.1 2.8 1.1 2.7l-.9 3.1.7.1-.5.7c-.6.7-1.2 1.4-1.9 2-.7.7-1.2 1.7-1.2 2.7 0 0-7 7.6-13.4 11.4-3.4 2-6.3 3.7-7.6 5.1-1.2 1.3-1 2.3 1.4 3.1 5.1 1.7 14 2.5 20.4.4 3.8-1.3 7.3-3.5 10-6.4 0 0 4-2.1 8-1.3s11.8-4.4 11.8-4.4l-.2-1.3-.4-3.8c-.5-.6-.8-1.5-.7-2.3 0-1.1-.1-2.3-.3-3.4-.1-.4-.1-.7-.2-1.1l.7-.1s-.9-4.8.8-5.7 1.2-13.2 1.2-13.2-2.2-2.8-3.3-3.3-.1-6.3.1-7 1.7-15.2 1.7-15.2-.6-4.6.2-6.5-.9-9.5-.9-9.5c-.3-.7-.1-1.5.5-2 1-1.1.7-11.1.7-11.1s-.1-5-.1-6.3 1.1-6.1 2.2-7.6.4-6.5.4-6.5l.1-.4c0-.1 0-.3.1-.5l.1-.5c.5-2.7 1.1-5.4 1.8-8.1 1.2-3.9 2.6-10.8 2.6-10.8l8.7-22.8.1-.3s4 7.5 4 14.4c0 0 1 8.3.8 10.5s.6 12.8.6 12.8 1.2 15.1 1.2 15.8 1.5 12.3 2.4 14.1-.9 7.2-1.5 7.7.2 14.3.2 14.3-1.4 10.8-1.7 13.1-1.4 10.8-.5 14.2.6 3.8.6 3.8 3.4 3.5 1.4 3.7c-2.8.6-4.6 3.4-3.9 6.2 0 .2.1.4.2.6 1.2 3.4 2.6 6.8 4.1 10l1.6-.3v1.1l.1 5.6s.7 5.3.3 6.5c-.3.9-.7 5.1-.8 7.3-.1.8-.1 1.3-.1 1.3s0 4.9 10.4 3.5 12.3-5.6 12.3-5.6l.1-.5c.2-.9.5-2.9.8-4.1.4-1.5-3-8.2-3-8.2s-.6-4.6-1.5-5.6c-.4-.6-.7-1.3-.8-2-.1-.4-.2-.8-.2-1.2.2 0 .5.1.7.1 0 0-.6-3.3 1.6-4.3s1.6-3.2 1.3-4.1.8-6.2.8-6.2c-.3-1.1 0-2.2.8-3 1.3-1.3 2.3-10.5 2.3-10.5l.2-35.3s.7-6.3-.1-8.8-1.5-7.4-.5-8.7.1-7.4.1-7.4 0-12.8 1.4-16 .9-23.2.9-23.2l.4-13.2s3.1-2.9 2.3-18c3.3-.2 7-.3 7.5.1 1 .8 7.7 5.1 11.7 2.4 1.6-1.1 3.2-2.3 4.7-3.6l-1.7-28 1.7 2.6c0-3.9 11.1-16.6 11.1-16.6s10.3-13.3 12.6-14.9 6.7-10 6.7-10c.7-1.6 1.4-3.2 2.3-4.7.7-2.1-2.7-6.6-2.4-7.6zm-24.2 9.8c-2.8.3-8.7 6.7-8.8 8.1-.2.9-.6 1.8-1.3 2.5 0-.6-.1-1.1-.1-1.7-.7-8.3-1.4-18.3-1-19.3.6-1.7.4-9.2.4-9.2l.1-.2c1.9 5.9 7.8 12.8 7.8 12.8s1 3 2.3 3.1.6 3.9.6 3.9z"/><path fill="#65617D" d="M950.2 580.3s3.4-18 14.4-18l8.1 16.6-5.4 3.7c0-.1-11.6.3-17.1-2.3z"/><path opacity=".1" d="M972.7 578.8l-5.4 3.7s-8.2.3-14.1-1.2c-1-.2-2.1-.6-3-1l.1-.3c.5-2.3 1.2-4.5 2.1-6.6.3-.8.7-1.6 1.1-2.5 1.6-3.1 3.9-6.2 7-7.7 1.1-.6 2.4-.9 3.7-1h.5l.2.4 2.7 5.6 5.1 10.6z"/><path fill="#65617D" d="M1064.2 653.4s11.6-1.1 12.6-.3 7.6 5.1 11.5 2.4 1.3-12 1.3-12.4-.4-13.6-.4-13.6l-6.9-9.3-8.7-16.4-17.8-1.8.5 26-.1 13.3 8 12.1z"/><path opacity=".1" d="M1064.2 653.4s11.6-1.1 12.6-.3 7.6 5.1 11.5 2.4 1.3-12 1.3-12.4-.4-13.6-.4-13.6l-6.9-9.3-8.7-16.4-17.8-1.8.5 26-.1 13.3 8 12.1z"/><path fill="#FBBEBE" d="M962.3 561.8s-.9 11.3-8 11.5c0 0-2-1.2-4.7-3.2-6.2-4.6-16-13.5-13.3-21.8 3.9-11.8 22.8 10 22.8 10l1.5 1.6 1.7 1.9z"/><path opacity=".1" d="M962.3 561.8s-.9 11.3-8 11.5c0 0-2-1.2-4.7-3.2l-.6-.8c1.2.6 2.5 1 3.9 1 2.2.1 4.2-1.2 5-3.2.8-1.5 1.4-3 2-4.5.3-.9.6-1.8.7-2.8l1.7 2z"/><path fill="#E7EFFD" d="M959.3 582.2l-1.6-2-5.3-6.9-2.7-3.5c1.2.6 2.5 1 3.8 1 2.2.1 4.2-1.2 5-3.2.7-1.5 1.4-2.9 2-4.5.9-2.5.9-3.8.5-4.2s2 1.7 3.1 2.7l.5.5.2.4 2.8 5.4v.2c.2 1.8 1.1 12.6-8.3 14.1z"/><path fill="#65617D" d="M1014.8 820.5s-7.8 5.1-11.7 4.3c-2.7-.3-5.4.1-7.9 1.3-2.7 2.9-6.1 5.1-9.8 6.4-6.3 2.1-15.1 1.3-20.1-.4-2.4-.8-2.5-1.8-1.4-3.1s4.2-3.1 7.5-5.1c6.4-3.8 13.2-11.3 13.2-11.3 0-1 .5-2 1.2-2.7.7-.6 1.3-1.3 1.9-2 1-1.2 1.9-2.4 1.9-2.4l22.9.9s.4 1.7.7 3.3c.3 1.1.4 2.2.3 3.3-.1.8.1 1.7.7 2.3l.4 3.8.2 1.4zm47.8 6.4c-.3 1.1-.6 3.1-.8 4 0 .3-.1.5-.1.5s-1.8 4.1-12.1 5.5-10.3-3.4-10.3-3.4l.1-1.3c.2-2.2.6-6.3.8-7.2.4-1.2-.3-6.5-.3-6.5l-.1-5.5-.1-3.8 17-1.8c.1 1.3.3 2.5.6 3.8.1.7.4 1.4.8 2 .9 1 1.5 5.5 1.5 5.5s3.4 6.7 3 8.2z"/><path opacity=".1" d="M1012.6 806.5s.4 1.7.7 3.3c-2.5.5-13.3 2.3-16 1-3.1-1.5-9.6-2.3-9.6-2.3l.1-.4c1-1.2 1.9-2.4 1.9-2.4l22.9.8zm44.8 4.7c-4.3-.7-13.8 1-17.5 1.8l-.1-3.8 17-1.8c.1 1.3.3 2.6.6 3.8z"/><path fill="#3F3D56" d="M1067 670.9l-.4 13s.5 19.9-.9 23-1.4 15.8-1.4 15.8.9 6-.1 7.3-.3 6.1.5 8.6.1 8.7.1 8.7l-.2 35s-1 9.1-2.3 10.4c-.8.8-1.1 1.9-.7 3 0 0-1.1 5.2-.8 6.1s.8 3-1.3 4.1-1.6 4.3-1.6 4.3c-5.1-1.2-19.5 2-19.5 2-1.6-3.2-2.9-6.5-4.1-9.9-1-2.7.4-5.6 3.1-6.6.2-.1.4-.1.6-.2 1.9-.3-1.4-3.7-1.4-3.7s.4-.5-.6-3.8.2-11.8.5-14.1l1.7-13s-.7-13.6-.2-14.2 2.4-5.9 1.5-7.7-2.4-13.3-2.4-14-1.2-15.7-1.2-15.7-1.1-10.5-.8-12.7-.8-10.5-.8-10.5c0-6.8-4-14.3-4-14.3l-.1.3-8.6 22.8s-1.4 6.8-2.6 10.7c-.8 2.6-1.4 5.3-1.8 8l-.1.5-.1.5-.1.4s.6 4.9-.4 6.5c-1.1 2.4-1.9 5-2.1 7.6 0 1.3.1 6.3.1 6.3s.4 9.9-.7 11c-.6.5-.8 1.3-.5 2 0 0 1.7 7.5.9 9.4s-.2 6.5-.2 6.5-1.5 14.3-1.7 15.1-1.2 6.5-.1 6.9 3.2 3.2 3.2 3.2.5 12.1-1.2 13-.8 5.7-.8 5.7-13.4 2.6-16.5 1.1-9.6-2.3-9.6-2.3l.9-3c-.1.1-.7 1.1-1.1-2.7-.5-4 3.4-2 3.4-2s3.1.7-1.8-4.1-2.5-9.7-2.2-9.7.9-7.1.9-7.1c.5-2.5.5-5.1.2-7.6-.7-3.3-1.2-13.7-1.2-13.7s.5-7.9-.4-10.7.6-8 .8-9.3-.8-12.2-.8-12.2c.5-3 .6-6 .4-9-.6-3.8.5-17.8.5-17.8l1.7-16.1s1.2-5 1-7 1.4-9.2 1.4-9.2c-.1-1.5.2-3 .7-4.5.9-1.8 1.3-8 1.3-8l8.9-20.4 4.3-18 58.8-.6s.2 1.6.6 4.4.9 7 1.4 12.2c.5 4.7 1.1 10.2 1.6 16.4 2.1 20.1-1.6 23.6-1.6 23.6z"/><path fill="#FBBEBE" d="M1061.6 508.8l-13.7 14.7s-17.6-7-15.7-9.5c.7-.9.6-3.9.2-7.1-.7-5.1-2-11-2-11s30.7-5 28.1.2c-.8 2-.9 4.1-.2 6.1.7 2.4 1.8 4.6 3.3 6.6z"/><path opacity=".1" d="M1058.4 496c-.9 1.9-1.4 2.1-.8 4.1-4 4.3-9.1 9-15.5 9-3.4 0-6.8-.8-9.8-2.3-.7-5.1-2-11-2-11s30.7-4.9 28.1.2z"/><path fill="#FBBEBE" d="M1064.2 486.6c0 12.2-9.9 22-22 22-12.2 0-22-9.9-22-22v-.3c.1-12.2 10-22 22.2-21.9s21.9 10 21.8 22.2z"/><path opacity=".1" d="M1067.4 631.9c-2.9 0-12.6.1-23.5.3h-.1l-3.6.1h-.1c-12.9.2-25.6-2.3-30.7-1.8-10.8 1 3.9-10 3.9-10 8.1 2 16.4 2.8 24.7 2.5l3.1-.2c9.8-.6 19.7-1.5 24.9-3 .3 2.8.8 7 1.4 12.1z"/><path fill="#5F5D7E" d="M1067.4 631.4c-2.9 0-12.6.1-23.5.3h-.1l-3.6.1h-.1c-12.9.2-25.6-2.3-30.7-1.8-10.8 1 3.9-10 3.9-10 8.1 2 16.4 2.8 24.7 2.5l3.1-.2c9.8-.5 19.7-1.5 24.9-3 .3 2.8.8 6.9 1.4 12.1z"/><path opacity=".1" d="M1036.2 514.9l-17 8-13.2 101.6s7.8-3.5 12.2-1.3 18.1.2 18.1.2 10-.6 11.5.6 18.9-4.6 18.9-4.6 3.2-7 .7-8.2.7-12 .7-12l-1.5-73.3-3-9.4-8-4.8-8.1 6.5-3.9.6-7.4-3.9z"/><path fill="#E7EFFD" d="M1036.2 513.8l-17 8-13.2 101.7s7.8-3.5 12.2-1.3 18.1.2 18.1.2 10-.6 11.5.5 18.9-4.6 18.9-4.6 3.2-7 .7-8.2.7-12 .7-12l-1.5-73.3-3-9.4-8-4.8-8.1 6.5-3.9.6-7.4-3.9z"/><path opacity=".1" d="M1035.9 518.5s4.9 5.8 4.8 7-.3 4.1-.3 4.1l-3.7 7.5s-2 9.3-2 11.3-3.2 18.8-3.2 18.8l-4 26-4.9 34 5 8.6 5.9-5 7.9-60.5 1.7-11.9s1.8-21.5 1.8-23.7c-.2-2.7-.5-5.4-1-8 0 0 1.2-5.6 6.2-6.8s-.4-.3-.4-.3l-2.9-2.3-2.5 1c0-.2-6.9-2.4-8.4.2z"/><path d="M1035.4 518s4.9 5.8 4.8 7-.3 4.1-.3 4.1l-3.7 7.5s-2 9.3-2 11.3-3.2 18.8-3.2 18.8l-3.9 25.9-4.9 34 5 8.6 5.9-5 7.9-60.5 1.7-11.9s1.8-21.5 1.8-23.7c-.2-2.7-.5-5.4-1-8.1 0 0 1.2-5.5 6.2-6.8s-.4-.3-.4-.3l-2.9-2.3-2.5 1c0-.1-7-2.2-8.5.4z"/><path opacity=".1" d="M1032.2 508.3s-.7.6-.9 4.3-2.8 12-2.8 12 9.6-6.7 14.4-5.9l-10.7-10.4z"/><path fill="#E7EFFD" d="M1032.2 507.1s-.7.6-.9 4.3-2.8 12-2.8 12 9.6-6.7 14.4-5.9l-10.7-10.4z"/><path opacity=".1" d="M1058.4 505.3l-15.2 13.3s12.8 7.6 14.4 9.4 3.3-18.1 3.3-18.1l-2.5-4.6z"/><path fill="#E7EFFD" d="M1059 504.2l-15.2 13.3s12.8 7.6 14.4 9.4 3.3-18.1 3.3-18.1l-2.5-4.6z"/><path opacity=".1" d="M1032.7 508.3s-1.7-.8-3.2 1.6c-1.2 1.6-2.7 2.8-4.5 3.5 0 0-16.8 2.7-17.5 4.9l-7.9.5s-2.8.4-3 6.2-1.8 6.4-1.8 6.4-3.2 5.7-3 8.7c.1 1.8-.9 3.6-2.5 4.5l11.6 30.1s.4 12.4-1.8 16.9-6.1 24.6-6.1 24.6 1.7-.4 1.6.7-2 13.2-2 13.2-.6 4.8-1.5 6.5-1 10.4-1 10.4l-1.5 6.3s3.5 7.9 8.9 6.8 15.1-22.1 15.1-22.1l6.2-22.7 4.8-22.4 1.4-15.2 2.2-33.6 3.2-22.2c0-.1 3.6-12.1 2.3-13.6z"/><path fill="#65617D" d="M1032.2 507.1s-1.7-.8-3.2 1.6c-1.2 1.6-2.7 2.8-4.5 3.5 0 0-16.8 2.7-17.5 4.9l-7.9.5s-2.8.4-3.1 6.2-1.8 6.4-1.8 6.4-3.2 5.7-3 8.7c.1 1.8-.9 3.6-2.5 4.5l11.6 30.1s.4 12.4-1.8 16.9-6.1 24.6-6.1 24.6 1.7-.4 1.6.7-2 13.2-2 13.2-.5 4.8-1.5 6.5-1 10.4-1 10.4l-1.5 6.3s3.5 7.9 8.9 6.8 15.1-22.1 15.1-22.1l6.2-22.7 4.8-22.4 1.3-15.2 2.2-33.6 3.2-22.2c.1-.1 3.7-12 2.5-13.6z"/><path opacity=".1" d="M972.7 578.8l-5.4 3.7s-8.2.3-14.1-1.2l-3-1.3-.6-.3.6.2c2.4.8 5 .9 7.4.3 7.6-2.6 6.8-15.1 6.5-17.9 0-.3 0-.5-.1-.5v.1c.1.2.2.3.3.5l.3.4 2.8 5.3v.2l5.3 10.5z"/><path fill="#65617D" d="M991.3 542.6l-2.6.7-.4 5.3s-3-.5-3.9 3.2c-.4 1.9-1.1 3.7-2.3 5.3 0 0-5.1 4.3-5.4 7.9l-3.2 1.9s-7.3-1.7-9-4.6c0 0 3.3 23.9-14.4 18 0 0 19.9 8.7 20.8 9.9s7 4.7 12.6 1.8 6.8-7.5 6.8-7.5 5.4-7.5 5.5-8.6 4.3-2.4 4.3-2.4l8-19.3-16.8-11.6z"/><path opacity=".1" d="M1056.3 516.4l2.7-12.2s1.2 4 2.4 4.9l4 3s4 1.8 5.4 1.8 8.9 2 9.8 3 4.6.3 4.6.3 3.1 1 5.7 1.7 4 5.1 3.4 6.8c-.5 1.8 0 3.7 1.3 5 1.1 1.1 1.7 4.7 1.7 4.7 1.4.4 2.5 1.4 3.1 2.7.9 2 .7 6.5.7 6.5l-13.8 19.4s.2 7.5-.4 9.2 1.9 30 1.9 30l2.9 48.7c-1.5 1.3-3 2.5-4.6 3.6-.8.4-1.7-17.2-1.7-17.9s-21.4-32-21.4-32-2.9-4.6-2.9-5.7-2.7-10.4-2.7-10.4l-4.1-18 2-55.1z"/><path fill="#65617D" d="M1102.3 543.6v1.1l-13.8 19.4s.2 7.5-.4 9.2c-.3 1 .4 10.9 1 19.1.5 5.9.9 10.9.9 10.9l1.2 20.7 1.7 28c-1.5 1.3-3 2.5-4.6 3.6-.8.4-1.7-17.2-1.7-17.9s-21.4-32-21.4-32-2.9-4.6-2.9-5.7-2.7-10.4-2.7-10.4l-4.1-18 1.8-55.2 1.6-12.2s2.3 4 3.5 4.9l4 3.1s4 1.8 5.4 1.8 8.9 2 9.8 3 4.6.3 4.6.3 3.1 1 5.7 1.7 4 5.1 3.4 6.8c-.5 1.8 0 3.7 1.3 5 1.1 1.1 1.7 4.7 1.7 4.7 1.4.4 2.5 1.4 3.1 2.7.7 1.7 1 3.6.9 5.4z"/><path opacity=".1" d="M989.1 790.2c.5 0 19.9.7 19.5 3.9s-19.5-3.9-19.5-3.9zm4.3 5.3s13 2.1 9.6 4.1-9.6-4.1-9.6-4.1zm48.6-7.3s21.7 1.8 18.4 4.3-10.9 2.8-11.3 2.9-7.1-7.2-7.1-7.2zm-2.6 9.5s12 2 12.4 4.3-12.4-4.3-12.4-4.3zm6.6-55.7s11 2.6 11.7 4.3L1046 742zm-42.4 8s-5.7 1.7-.2 5 .2-5 .2-5zm25.4-89c.7 0 10.7-3.3 14.3-1.8 2.5.9 5.2 1.4 7.9 1.5l-22.2.3zm1.3 10.5l-.1.9-8.6 22.6s-1.4 6.8-2.6 10.7c-.8 2.6-1.4 5.3-1.8 8l7.6-47.4 5.5 5.2z"/><path fill="#3F3D56" d="M1043.7 631.7l-3.6.1h-.1l-2.1-9.3 3.1-.2 2.7 9.4z"/><path fill="#FBBEBE" d="M1087.4 620.4l-2.3 1.9-7.7 6.3s-20.8 11.1-26.6.6c-5.1-9.3 18.6-15.9 24.2-17.4l1.2-.3 11.2 8.9z"/><path opacity=".1" d="M998.5 529.4s4.1 1.8 5 4.4-5-4.4-5-4.4zm-12.6 27.7s-5.9 7.2-3.5 10 3.5-10 3.5-10zm105.9-23.6s-5.6.6-5.7 5.4l5.7-5.4zm-51.5 75.8c.6-.6 13.3-19.4 16.3-17.8l-16.3 17.8zm23.9-122.7c0 3.6-.9 7.2-2.6 10.4h-.2c-1.4-.3-2.1-1.9-3.2-2.9-1.3-1.3-3.4-1.6-5-.7-1.7 1-2.6 2.8-2.5 4.8-.7-3-.5-6.1-1.2-9.1s-2.8-6-5.6-6c-1.2 0-2.7.5-3.5-.5-.5-.5-.6-1.4-1-2.1-2-3.3-8.2-1.6-10.7.1s-5.5 4.4-8.6 5.8c.1-12.2 10-22 22.2-21.9s22 10 21.9 22.1z"/><path fill="#7C5C5C" d="M1039.4 479.8c.4.7.5 1.5 1 2.1.9.9 2.3.4 3.5.5 2.8 0 4.9 3.1 5.6 6s.5 6.1 1.2 9.1c-.2-1.9.8-3.8 2.4-4.7 1.6-.9 3.7-.6 5 .7 1.1 1 1.8 2.6 3.2 2.9s2.7-1 3.2-2.5c.4-1.5.6-3.1.8-4.6.6-2.9 2.5-5.3 3.6-8 1.2-3.3 1.2-7-.1-10.3-.7-1.7-1.7-3.3-2.4-5-1.1-2.6-1.3-5.6-2.7-8.1-2.2-4.2-7-6.2-11.5-4.7-2 .8-3.8 2.2-5.8 2.9-2.7.9-5.7.2-8.5-.2s-6-.4-8.2 1.4c-2.6 2.1-3.3 6.2-5.8 8.5-1 1-2.3 1.6-3.4 2.5-1.2.9-1.9 2.3-1.9 3.8.2 1.9 2 3.7 1.3 5.4-.2.5-.6 1-1 1.4-2.1 2.2-3.6 4.8-4.5 7.6 5 1.5 10.3-3.9 14.2-6.5 2.6-1.8 8.8-3.4 10.8-.2z"/><path opacity=".1" d="M1087.4 620.4l-2.3 1.9c-2-3.4-10.4-10.2-10.4-10.2l.4-.3 1.2-.3 11.1 8.9z"/><path fill="#E7EFFD" d="M1089.6 616.9s-.8 2.1-1.7 3.8-1.8 3.4-1.8 2.1c-.1-2.6-10.8-11.3-10.8-11.3l1.4-1.4 1.7-1.6 11.2 8.4z"/><path opacity=".1" d="M1090 603.2l1.2 20.7c-2.9-4.5-10.8-15.9-15.8-15.6l12.3-14.2c.5-.6 1-1.2 1.4-1.8.5 6 .9 10.9.9 10.9z"/><path opacity=".1" d="M1089.6 616.9s-.8 2.1-1.7 3.8c-3.2-4.4-7.7-9.7-11.2-10.6l1.7-1.6 11.2 8.4z"/><path fill="#65617D" d="M1098.9 542l3.3 2.6s5.6.1 6.1 4.7 5.7 6.8 5.7 6.8 3.8 3.8 3.8 5.6 2.9 4.9 2.9 5.2 2.8 5.9 2.4 6.9 3 5.5 1.9 7.1c-.8 1.5-1.6 3-2.2 4.6 0 0-4.3 8.3-6.6 9.9s-12.4 14.8-12.4 14.8-10.9 12.6-10.9 16.5c0 0-10.6-17.8-16.9-17.3l12.3-14.2s2.1-2.3 2.2-3.7 5.9-7.8 8.7-8.1c0 0 .5-3.8-.7-3.9s-2.2-3-2.2-3-8.2-9.6-8.2-15.7 10.8-18.8 10.8-18.8z"/><path opacity=".1" d="M1103.8 550.8s-7.8 5.7-6.1 7.6 6.1-7.6 6.1-7.6zm.4 23.7s14.4-4.6 15.9 0h-15.9zm-89.4 246s-7.8 5.1-11.7 4.3c-2.7-.3-5.4.1-7.9 1.3-2.7 2.9-6.1 5.1-9.8 6.4-6.3 2.1-15.1 1.3-20.1-.4-2.4-.8-2.5-1.8-1.4-3.1 5.4 1.1 17.6 3.2 20.8 1.7 3.6-1.9 7.1-4.1 10.4-6.5 0 0 8-1.1 9.1-1.1.8 0 6.9-2.5 10.4-4l.2 1.4zm47 10.4c0 .3-.1.5-.1.5s-1.8 4.1-12.1 5.5-10.3-3.4-10.3-3.4l.1-1.3c3.3 1.3 10.4 2.6 22.4-1.3zm-59.5-281.2s0 21.1-1.8 23.2 1.8-23.2 1.8-23.2zm83.4 6.8l2.7 7.5c0 .1 1.1-7.3-2.7-7.5zm-65.4-80.9c.7-1.7-1.1-3.4-1.3-5.3-.2.5-.3 1.1-.3 1.7.1 1.4 1.2 2.7 1.4 4 .1-.1.1-.3.2-.4zm30.7 20c-.7-2.9-.5-6-1.1-8.9s-2.8-6-5.6-6c-1.2 0-2.7.4-3.5-.5-.5-.5-.6-1.4-1-2.1-2-3.3-8.2-1.6-10.7.1-3.8 2.5-9 7.8-13.8 6.6-.2.6-.5 1.1-.6 1.7 5 1.5 10.3-3.9 14.2-6.5 2.5-1.7 8.7-3.3 10.7-.1.4.7.5 1.5 1 2.1.9.9 2.3.4 3.5.5 2.8 0 4.9 3.1 5.6 6s.5 6.1 1.2 9.1c-.2-.8-.1-1.4.1-2zm13.9-3.5c-.5 1.5-1.8 2.8-3.3 2.5s-2.1-1.9-3.2-2.9c-1.3-1.3-3.4-1.6-5-.7-1.6.9-2.5 2.7-2.5 4.5.4-1.1 1.1-2.1 2.2-2.7 1.6-.9 3.7-.6 5 .7 1.1 1 1.8 2.6 3.2 2.9s2.7-1 3.2-2.5c.3-.9.4-1.8.5-2.7.1.3 0 .6-.1.9zm4.4-12.6c-1 2.7-2.9 5.1-3.6 8l-.3 1.8c.6-2.9 2.5-5.2 3.6-8 .5-1.2.8-2.5.8-3.8-.1.6-.3 1.3-.5 2z"/><circle fill="#E6E8EC" cx="935.5" cy="546.3" r=".2"/><path fill="#FFF" d="M855.7 551.4h168c3.7 0 6.6 3 6.6 6.6v195c0 3.7-3 6.6-6.6 6.6h-168c-3.7 0-6.6-3-6.6-6.6V558c0-3.6 3-6.6 6.6-6.6z"/><path opacity=".1" fill="#5A5773" d="M855.7 551.4h168c3.7 0 6.6 3 6.6 6.6v195c0 3.7-3 6.6-6.6 6.6h-168c-3.7 0-6.6-3-6.6-6.6V558c0-3.6 3-6.6 6.6-6.6z"/><path fill="#FFF" d="M865 562h149.5c3.7 0 6.6 3 6.6 6.6v173.8c0 3.7-3 6.6-6.6 6.6H865c-3.7 0-6.6-3-6.6-6.6V568.6c0-3.6 2.9-6.6 6.6-6.6zM6.6 482.6H420c3.7 0 6.6 3 6.6 6.6v195c0 3.7-3 6.6-6.6 6.6H6.6c-3.7 0-6.6-3-6.6-6.6v-195c0-3.7 3-6.6 6.6-6.6z"/><path opacity=".1" fill="#5A5773" d="M6.6 482.6H420c3.7 0 6.6 3 6.6 6.6v195c0 3.7-3 6.6-6.6 6.6H6.6c-3.7 0-6.6-3-6.6-6.6v-195c0-3.7 3-6.6 6.6-6.6z"/><path fill="#FFF" d="M28.4 493.2h369.9c3.7 0 6.6 3 6.6 6.6v173.8c0 3.7-3 6.6-6.6 6.6H28.4c-3.7 0-6.6-3-6.6-6.6V499.8c0-3.6 2.9-6.6 6.6-6.6z"/><path d="M888.1 599.5h99.6c3.3 0 6 2.7 6 6V632c0 3.3-2.7 6-6 6h-99.6c-3.3 0-6-2.7-6-6v-26.5c-.1-3.3 2.6-6 6-6zm-2 52.7h103.4v7.9H886.1v-7.9zm-17.6 16.5h142.3v7.9H868.5v-7.9zm0 17.5h142.3v7.9H868.5v-7.9zm0 17.5h142.3v7.9H868.5v-7.9zm-785-173h250.8c3.3 0 6 2.7 6 6v26.5c0 3.3-2.7 6-6 6H83.5c-3.3 0-6-2.7-6-6v-26.5c0-3.3 2.7-6 6-6zm3.7 52.6h243.5v7.9H87.2v-7.9zm-41.4 16.6h335.1v7.9H45.8v-7.9zm0 17.5h335.1v7.9H45.8v-7.9zm0 17.4h335.1v7.9H45.8v-7.9z"/><linearGradient id="c" gradientUnits="userSpaceOnUse" x1="1361.007" y1="-30.409" x2="1361.007" y2="353.943" gradientTransform="rotate(-180 786.619 422.068)"><stop offset="0" stop-color="gray" stop-opacity=".25"/><stop offset=".54" stop-color="gray" stop-opacity=".12"/><stop offset="1" stop-color="gray" stop-opacity=".1"/></linearGradient><path fill="url(#c)" d="M104.3 840.6c1.2-4.3 2-8.2 2-8.2 0-2.9.8-5.7 2.2-8.3V823l.3-8.8c-.5-1.6-1.2-3.2-2-4.7-1.5-2.8.5-12.9.5-12.9s6.4-14.1 5.4-23.2 13.6-39.8 13.6-39.8c0-3-.3-6-.9-9-.1-.6-.2-1.2-.1-1.9v-.2.1c.4-6 5.6-17 5.6-17l.2-21.4s-2.5-12.7 3-29.5c1.9-5.8 3.2-10.5 4.1-14.1l.3-1.2c-10.1-1.9-17.8-3.5-17.8-3.5s6.8-24.4 11-28.5c4.2-4.2 7.8-17.6 7.8-17.6s2.7-17.3-.4-22.5c-3.1-5.2-3.3-14-3.3-14s-7.4-5.8-8.3-8.3c-.9-2.5-2.2-8.1-2.1-11s1.2-5.5.9-7 2.5-7.3 1.3-10.1c-.3-.9-.4-1.8-.4-2.7v-.2c.1-2.4.4-4.8.9-7.2 2.3-1.8 4.9-3.1 7.7-3.7l.2-.7.5-1.7c.2-.2.5-.3.8-.4l.1-.6.2-2.5-1-5.7c-2-9.9 11.1-10.8 11.1-10.8.8-1.5 2.2-2.6 3.8-3.1 2.7-.8-.1 14.7-1.4 15.7-1 .7-4 5.5-5.4 7.8l-.2.4c.2.2.4.4.6.7l-.6 3.4-.1.5c.8 1.1 1.5 2.3 1.9 3.6 0 0-2.5 2.5-2.1 5.5.1 2.3-.2 4.6-1 6.7.1-.2 1.9-1.9 3.6-1.4s6.3 2.1 6.3 2.1 3.5.8 3.1 1.5 2.2 4.2 2.2 4.2l9.7-8.5c.1-.3.2-.5.3-.8.4-1.3.8-2.6 1-3.9-1-.3-2-.6-3-1.1-1-.4-1.8-1-2.5-1.8-.9-1.2-1-2.7-1.4-4.1-.6-2.8-2.1-5.3-3.2-7.9-1.8-4.4-2.2-9.3-1.3-14 .2-1.4.8-2.8 1.6-4 1.6-2 4.4-2.8 6.5-4.4 2.1-1.6 3.5-4.1 5.9-5.3 2.2-1.1 4.8-.8 7.2-.3 4.6.9 9.1 2.7 13.1 5.3 1.3.9 2.8 1.9 4.4 1.6 1.3-.4 2.5-1.1 3.3-2.2v-.1l.1-.1c.9 2.2 1.3 4.7 1.2 7.1 0 .4 0 .8-.1 1.1v.7c0 .2 0 .3.1.5.2.5.5.9.8 1.3.3.3.5.7.7 1.1 0-.1-.1-.3-.1-.4.6.9.9 1.9.9 3 0 .8-.3 1.5-.8 2.1-.5.4-1 .8-1.6 1.2 1 7.4-2.7 14.7-9.3 18.3-.1.3-.2.5-.4.8-1.5 3.2-2.2 6.7-2.1 10.2 0 .3 0 .5.1.8.1.3.2.3.3.4s15.5.8 19.3-2.4 8.9 8.4 8.9 8.4 5.5 1.3 6.7.3 7.6.1 7.6.1c2.8-2.3 6.3-3.4 9.8-3.2 2.2-1.6 4.7-2.8 7.3-3.7l.2-.1c1.1-.4 2.3-.5 3.5-.3 0 0 7.9-6 10.2-9.3 2.4-3.3 13.4-15.4 13.4-15.5l.1-.6.2-1.8c.3.1.6.1.9.1l.2-.6c.7-1.8 1.5-3.5 2.5-5.1 0 0 .1-2.3-.6-2.9s.6-9 .6-9 7.5-15.8 13.2-3.6c0 0 11.3 8.2 1.2 16.9 0 0-4 1.7-4.6 3.2-.4 1-1.8 3.6-2.8 5.4l-.4.8.1.1-.2 1.5-.1.6c1.8 1.1 3 2.2 2.7 3-.6 1.3-1 2.7-1.3 4.1 0 0-14.1 16.3-16.2 23.5 0 0-37.1 20.1-49 21.2l1.6 10.8c.2 2.9.2 5.9.1 8.8-.3 2.3.9 12.8.9 12.8s1.5 15.5 3.1 17.7c1.7 2.2 1 11.4 1 11.4.3 4.4.9 8.8 1.9 13.2 1.5 5.9 0 13.1 0 13.1s5.5 14.1-8.6 4.1c0 0-7.1-.7-15.2-1.3v.8c0 1.1 0 2.2-.1 3.4-.2 7.9-.6 18.8-1.3 27.1-1.2 14.6-6.8 43.3-6.8 43.3l-.6 14.5c.2 1.4.3 2.8.3 4.2-.1 5.1-1.6 10.1-4.5 14.4l-1.5 9.7s-2.9 6.3-3 10.1c0 .3 0 .6.1.9.1.5.1 1 .1 1.5 0 4.4-3.1 14.8-3.1 14.8s-.6 10.6-2.2 11.2c-1.4.5 1.6 6.2 2.5 7.8 0-.1.1-.2.1-.3l.2.3c.3.9.4 1.8.4 2.7.1 1.5-.6 2.9-1.9 3.7-3.1 1.7-4.8 3.2-2.2 3.9.9.2 1.9.4 2.8.7l.1-.3c.7.3 1.2 1.1 1 1.9-.1 1.3-.4 2.5-1.1 3.6-1.2 2.7-2.8 5.3-4.6 7.7l-1.2-.2c.2.5.4.9.7 1.3.4.7 1 1.3 1.7 1.7.6.4 1.4.7 2.1.8 1.7.1 3.3 1 4.4 2.4 1.5 2.1 2.4 4.9-.8 7.3l-11.5 3.5s-19.6 1.8-18.4-2.5c1.2-4.3 2-8.2 2-8.2 0-2.7.7-5.3 1.9-7.7.2-.4.5-.8.7-1.1l-.7-.1s-1.1-9.8-3-11.6c-.4-.5-.5-.8-.4-1-.2-.5.3-.8 1-1 0 .1.1.3.1.4.6-.1 1.3-.1 1.9-.1 0 0 .8-5-1.2-7-.3-.4-.4-1-.3-1.5 0-.7.1-1.4.3-2.1 0 0 0 .1.1.1 1.2-4.6 5-11.7 5-11.7s.3-4.6-.9-6.5c-1.2-1.9 1.1-25.1 1.1-25.1s-.1-11.2 1.6-16.4-1.3-11.5-1.3-11.5 0-.1.1-.3v-.1s.1-.7.3-1.8v.1c.4-3 1.3-8.3 1.8-10.8.8-3.5.6-20.5.6-20.5l-2.6-7.3-5.6 12.3-6 16.4s-2.8 3.4-3 7v1.6c0 2.1-.6 4.1-1.9 5.8 0 0-1.7 7.8-4 9.7-2.3 1.9-2.5 5.8-2.5 5.8s-3.1 11.3-4.5 13.2c-1.1 1.6-1.4 6.3-1.4 7.7v.4s-.5 4.1-.6 7.5v1.1c0 .9 0 1.9.2 2.8v.2-.6c.5 2.3.7 4.7.5 7.1-.1 4.1-.9 8.9-3.5 11.7-4.5 4.8-7.1 4-7.1 4s1.8 6.2 4.3 7.6c.1.1.2.1.3.2 0-.1 0-.2.1-.3.5.6.8 1.5.7 2.3.1 2.7-1.8 7-3.5 9-.6.6-1.4 1-2.2 1.2.1.1.3.2.4.3.3.2.6.3.9.4.4.2.8.3 1.3.4 1.7.1 3.4 1 4.4 2.4 1.5 2.1 2.4 4.9-.8 7.3l-11.5 3.5c0-.5-19.7 1.3-18.5-3.1z"/><path fill="#2D293D" d="M178.6 850.8l11.1-3.5c3.1-2.3 2.3-5.2.8-7.3-1-1.4-2.6-2.2-4.3-2.3-.7-.1-1.5-.4-2.1-.8-.7-.4-1.3-1-1.7-1.7-.8-1.3-1.1-2.8-1.1-4.3 0 0-11.9-4-15.4-.6-.6.6-1.1 1.3-1.5 2.1-1.2 2.4-1.8 5-1.8 7.7 0 0-.8 3.8-1.9 8.2s17.9 2.5 17.9 2.5zm-53.6-7.5l11.1-3.5c3.1-2.3 2.3-5.2.8-7.3-1-1.4-2.6-2.2-4.3-2.4-.4-.1-.9-.2-1.2-.4-.3-.1-.6-.3-.8-.5-3-1.8-2.8-6-2.8-6s-11.9-4-15.4-.6c-.5.5-.9 1-1.2 1.5-1.4 2.5-2.1 5.4-2.2 8.3 0 0-.8 3.8-1.9 8.2s17.9 2.7 17.9 2.7z"/><path opacity=".1" d="M166.1 830.3c-.6.6-1.1 1.3-1.5 2.1l18 2.8c-.8-1.3-1.1-2.8-1.1-4.3 0 0-11.9-4-15.4-.6zm-54.8-6l-.1 3.4c2.6 4.8 16.3 4.3 20.3 2.1-.3-.1-.6-.3-.8-.5-3-1.8-2.8-6-2.8-6s-11.9-4-15.4-.6c-.5.5-.9 1-1.2 1.6z"/><path fill="#575988" d="M109.7 809.6c.8 1.5 1.5 3.1 2 4.7l-.5 12.1c2.9 5.2 18.9 4.1 21.2 1.4s4.8-9.8 2.4-11.2-4.2-7.6-4.2-7.6 2.6.7 6.9-4 3.5-15.7 2.9-18.4.4-11.4.4-11.4.1-6.2 1.4-8.1 4.4-13.2 4.4-13.2.1-3.8 2.4-5.8 3.9-9.7 3.9-9.7c1.3-1.9 2-4.2 1.8-6.5-.3-3.9 2.9-7.9 2.9-7.9l5.9-16.4 5.4-12.3 2.5 7.3s.1 17-.6 20.5-2 12.9-2 12.9 2.8 6.3 1.3 11.5-1.6 16.4-1.6 16.4-2.3 23.2-1.1 25.1.8 6.5.8 6.5-6.8 13.3-4.9 15.2 1.1 7 1.1 7-4.3-.2-2.5 1.8 2.7 11.6 2.7 11.6l18.5 2.9c1.8-2.4 3.3-5 4.5-7.7 2.7-5.6-.3-5.1-2.7-5.8s-.8-2.2 2.2-3.9 1.5-6 1.5-6-4.2-7.7-2.6-8.3 2.1-11.2 2.1-11.2 3.6-12.5 2.9-15.9 2.9-11.4 2.9-11.4l1.4-9.6c3.5-5.4 5-11.8 4.1-18.2l.6-14.9s5.4-28.7 6.7-43.3c.8-9.3 1.1-22.1 1.3-30.1.1-4.5.1-7.4.1-7.4l-66.2-9.5c-.2 3.3-.8 6.6-1.6 9.8-.8 3.6-2.1 8.3-4 14.2-5.4 16.7-3 29.5-3 29.5l-.2 21.4s-6.4 14.1-5.3 19c.6 3 .9 6 .9 9 0 0-14.2 30.7-13.2 39.8s-5.2 23.2-5.2 23.2-2.1 10.1-.6 12.9z"/><path opacity=".05" d="M150.7 731l-20.1-3.5s11 12.1 20.1 3.5z"/><path opacity=".1" d="M134.3 707.8s-1 7.1 3.3 10c0 0-7.8-1.5-3.3-10zm2.1-22.7s16.4 14.6 22.6 13.7-22.6-13.7-22.6-13.7zm39.2 53.4s12.7 3.4 12.9 8.6-12.9-8.6-12.9-8.6z"/><path opacity=".05" d="M170.3 802.5s18 4.1 12.8 6.2-13.8 3.6-13.8 3.6-5.9.1 1-9.8zm16.3 10c.9-.5 1.6-1.5 1.8-2.6l.2.3s1.5 4.2-1.5 6c-.3.2-.7.4-1 .6-.5-.1-1.1-.2-1.7-.4-2.5-.7-.8-2.2 2.2-3.9zm-23.4-2.2c-.5-.5-.4-1.7 0-3.2.7 1.4 1 2.9.9 4.5-.2-.4-.5-.9-.9-1.3zm5.8-76.4c.6 1.8.9 3.8 1 5.7-.3-1.4-.7-2.7-1.3-3.9 0 0 .1-.7.3-1.8zm-41.3-9.6c-.1-.6-.1-1.1-.1-1.7.2 1.2.3 2.2.4 3.2l-.3-1.5zm39.6 64.3c-.3-1.1-.4-2.3-.3-3.4.5 1.4.8 2.9.7 4.3-.1-.3-.2-.6-.4-.9zm-4.9 28.9c.8 3.1 1.4 6.3 1.8 9.5l18.5 2.9c1.8-2.4 3.3-5 4.5-7.7.2-.5.4-.9.6-1.3 1.1.5 1.5 1.7-.1 5-1.2 2.7-2.7 5.3-4.5 7.7l-18.6-2.8s-1-9.7-2.8-11.7c-.9-1-.2-1.4.6-1.6zm25.6-26.7s-.6 10.6-2.1 11.2c-.7-1.8-1.2-3.5-.5-3.7 1.6-.6 2.1-11.2 2.1-11.2s3.6-12.5 2.9-15.9 2.9-11.4 2.9-11.4l1.4-9.7c3.5-5.4 5-11.8 4.1-18.2l.6-14.9s5.4-28.7 6.6-43.3c.8-9.3 1.1-22.1 1.3-30.1 0-1.4.1-2.7.1-3.8l.5.1s0 3-.1 7.4c-.2 8-.6 20.8-1.3 30.1-1.2 14.6-6.6 43.3-6.6 43.3l-.6 14.9c.9 6.4-.6 12.8-4.1 18.2l-1.5 9.7s-3.6 8-2.9 11.4-2.8 15.9-2.8 15.9zm-56.1 33c1.6-2.1 2.7-4.6 3.2-7.2 1.8 1.8-.6 8.3-2.8 10.9s-18.3 3.8-21.2-1.4l.1-2.9c4.1 4.2 18.6 3.1 20.7.6zm-22.7-18.3c.8 1.5 1.5 3.1 2 4.7l-.1 2.2c-.4-1.1-.9-2.1-1.4-3.1-.4-1.2-.6-2.5-.5-3.8zm22.4 3.3c-.5-1.2-1-2.4-1.4-3.7 0 0 2.6.7 6.9-4 3.2-3.5 3.6-10.2 3.3-14.7.7 2.7 1.5 13.6-2.9 18.4-2.8 3.1-4.9 3.8-5.9 4zm9.3-33.8c-.4 3-.6 6.1-.7 9.1-.1-.5-.1-1-.3-1.4-.7-2.7.4-11.4.4-11.4s.1-6.2 1.4-8.1 4.4-13.2 4.4-13.2.1-3.8 2.4-5.8 3.9-9.7 3.9-9.7c1.3-1.9 2-4.2 1.8-6.5-.3-3.9 2.9-7.9 2.9-7.9l5.9-16.4 5.4-12.3 2.5 7.3v2.3l-2-6-5.4 12.3-5.9 16.4s-3.2 4-2.9 7.9c.2 2.3-.5 4.6-1.8 6.5 0 0-1.7 7.8-3.9 9.7s-2.4 5.8-2.4 5.8-3.1 11.3-4.4 13.2-1.3 8.2-1.3 8.2z"/><path fill="#FFCDD3" d="M138.9 491.6l.9 5.7-.2 2.5-.1 1.8 6.4.9.8-1.3c1.4-2.4 4.4-7.1 5.3-7.9 1.2-1 3.9-16.5 1.4-15.7-1.6.5-2.9 1.6-3.7 3.1-.1.1-12.7 1-10.8 10.9z"/><path opacity=".1" d="M139.5 501.6l6.4.9.8-1.3c-1.7-2.1-4.6-2.7-7-1.4l-.2 1.8z"/><path fill="#DCE6F2" d="M137.8 504.5l8.4 2.3.2-1.3.6-3.4c-1.8-2.6-5.5-3.3-8.1-1.5l-.5 1.7-.6 2.2z"/><path fill="#FFCDD3" d="M275.3 497.5l8.8 5.2s.4-.7.9-1.7c.9-1.8 2.3-4.4 2.7-5.4.6-1.5 4.4-3.2 4.4-3.2 9.8-8.7-1.2-16.9-1.2-16.9-5.5-12.2-12.8 3.6-12.8 3.6s-1.3 8.4-.6 9 .5 2.9.5 2.9c-.9 1.6-1.7 3.3-2.4 5.1-.1.8-.3 1.4-.3 1.4z"/><path opacity=".1" d="M275.3 497.5l8.8 5.2s.4-.7.9-1.7c-1.2-1.1-5.6-5-7.1-4.8-.7.1-1.4.1-2.1 0-.3.7-.5 1.3-.5 1.3z"/><path fill="#DCE6F2" d="M274.3 500.1l10 5.4.3-2.2.2-1.5s-5.7-5.3-7.4-5.1c-.9.1-1.8.1-2.7-.1l-.2 1.8-.2 1.7z"/><path fill="#FFCDD3" d="M162 529.8s44.1 6.7 35.9 3.7c-5.7-2.1-7.8-5.8-8.2-9.9-.1-3.5.6-7 2-10.2 1.2-2.7 2.6-5.4 4.3-7.8 0 0-33.1-19.9-27-2.7.9 2.6 1.5 5.3 1.6 8.1.1 2.7-.3 5.5-1.2 8.1-1.4 4.1-4 7.9-7.4 10.7z"/><path opacity=".1" d="M169.1 502.8c.9 2.6 1.5 5.3 1.6 8.1 3.1 2.8 6.6 2.8 11.1 2.9 3.4.1 7.2 1.1 10-.4 1.2-2.7 2.6-5.4 4.3-7.8-.1 0-33.1-20-27-2.8z"/><circle fill="#FFCDD3" cx="183" cy="496.7" r="18.3"/><path opacity=".1" d="M162 529.8s44.1 6.7 35.9 3.7c-5.7-2.1-7.8-5.8-8.2-9.9-2.1-2.5-6.5-4.4-9.3-5.4-2.6-1-5.4-1.1-8-.4-1.1.3-2.1.7-3 1.3-1.4 4.1-3.9 7.9-7.4 10.7zm-24.2-25.3l8.4 2.3.2-1.3c-1.8-2.6-4.9-3.8-8-3.1l-.6 2.1zm136.5-4.4l10 5.4.3-2.2c-3.2-1.9-6.6-3.5-10.1-4.9l-.2 1.7zM140.2 640.6c17 3.4 41.3 7.8 45.2 6.8 3.3-.8 13.5-.3 22.4.3.1-4.5.1-7.4.1-7.4l-66.2-9.5c-.1 3.3-.7 6.6-1.5 9.8z"/><path fill="#656691" d="M123.3 636s56.1 11.9 62.2 10.3 37.2 1.6 37.2 1.6c13.6 9.9 8.3-4.1 8.3-4.1s1.5-7.2 0-13.1c-1-4.3-1.6-8.7-1.8-13.2 0 0 .7-9.2-.9-11.4s-3-17.7-3-17.7-1.1-10.5-.9-12.8-.1-8.8-.1-8.8l-1.6-10.8c11.6-1.1 47.5-21.3 47.5-21.3 2-7.2 15.7-23.6 15.7-23.6.2-1.4.7-2.8 1.2-4.1 1-2.4-12.6-7.9-12.6-7.9s-10.8 12.2-13 15.5-9.9 9.3-9.9 9.3c-1.1-.2-2.3-.1-3.4.3h-.2c-2.5.9-4.9 2.1-7 3.7-3.5-.2-6.9.9-9.5 3.2 0 0-6.3-1.2-7.4-.1s-6.5-.3-6.5-.3-5-11.6-8.6-8.4-18.7 2.4-18.7 2.4c-1.9-2.7-6.7-4.8-9.7-5.9-2.6-1-5.4-1.1-8-.4-1.1.3-2.2.8-3.2 1.4l-9.4 8.6s-2.5-3.5-2.1-4.2-3-1.5-3-1.5-4.4-1.6-6.1-2.1-3.3 1.2-3.4 1.4c.8-2.2 1.1-4.4 1-6.7-.4-2.9 2.1-5.5 2.1-5.5-4.9-13.4-17.4-2.8-17.4-2.8s-1.7 7.2-.5 10-1.6 8.6-1.3 10.1-.8 4.1-.9 7 1.2 8.5 2 11 8 8.3 8 8.3.1 8.8 3.2 14 .4 22.5.4 22.5-3.6 13.4-7.6 17.6-11.1 28.5-11.1 28.5z"/><path opacity=".1" d="M209.4 537.9s1.9-5 3.4-5.4c1.6-.5 3.1-1.1 4.5-1.8l-.9-1.9s-5.8 1.4-6.8 3-.2 6.1-.2 6.1zm31.4-10c.3 1.5 13.9 3.5 13.9 3.5l-6.6-7.2h-.2c-2.6.9-5 2.1-7.1 3.7z"/><circle fill="#575988" cx="281.2" cy="508.3" r="1.2"/><circle fill="#575988" cx="279.5" cy="510.7" r="1.2"/><path fill="#575988" d="M277.9 511.7c.7 0 1.2.6 1.2 1.2s-.6 1.2-1.2 1.2-1.2-.6-1.2-1.2.5-1.2 1.2-1.2z"/><circle fill="#575988" cx="276.2" cy="515.3" r="1.2"/><circle fill="#575988" cx="131.3" cy="509.6" r="1"/><circle fill="#575988" cx="131" cy="511.9" r="1"/><circle fill="#575988" cx="130.8" cy="514.1" r="1"/><path opacity=".1" d="M207.8 579.6c.1-.2-36.2 42.3-62.1 15.9-.1 0 42.2 7.5 62.1-15.9zm19 23.5s-20.8-.2-23.2 5.7l-.2 6.2c1.2.7 2.6.8 3.9.2 2.1-1 14.9-6.9 19.2-3.7l.3-8.4z"/><path fill="#656691" d="M226.4 603.1s-19.9-.2-22.1 5.4l-.2 5.9c1.1.7 2.5.7 3.7.1 2-1 14.3-6.6 18.4-3.5l.2-7.9z"/><path opacity=".1" d="M217.2 557.7c-2.3 4.8-5.2 9.3-8.6 13.5-3.7 4.6-8.1 8.5-13.1 11.7.1-.1 21.3-22.4 21.7-25.2zm7.7-23.9s-4 14.8-13.1 19.5l13.1-19.5zm5.3 1.7c.1-.3 2.6 11.9-12.2 18.1 0 0 6.2-1.9 12.2-18.1zM140 522c.2 0-7.4 4.5-9.5 6.6.1 0 5.1-7.1 9.5-6.6z"/><path fill="#2D293D" d="M187.3 513.5c-.2 1-.7 1.8-1.5 2.4-.5.2-1.1.3-1.7.3-5.6.1-11.4.2-16.5-2.2-.9-.4-1.8-1-2.4-1.8-.9-1.2-1-2.7-1.3-4.1-.6-2.8-2.1-5.3-3.1-7.9-1.7-4.5-2.1-9.3-1.3-14 .2-1.4.7-2.8 1.6-4 1.6-2 4.3-2.8 6.3-4.4s3.4-4.1 5.7-5.3c2.1-1.1 4.6-.8 6.9-.3 4.5 1 8.8 2.8 12.7 5.3 1.3.9 2.7 1.9 4.3 1.6 1.3-.4 2.5-1.2 3.3-2.3 1 2.5 1.4 5.3 1.1 8-.1.4-.1.8 0 1.2.2.5.4.9.8 1.3 1.3 1.6 2.1 4.2.7 5.8-.6.7-1.6 1-2.1 1.7-1.1 1.2-.8 3.1-.9 4.8 0 .6-.1 1.1-.5 1.6-.6.5-1.5.7-2.3.5-.8-.3-1.6-.4-2.4-.3-.9.2-1.6.8-2.1 1.5-2.9 3.1-4 6.7-5.3 10.6z"/><path opacity=".1" d="M164.6 510.9c.7.8 1.5 1.4 2.4 1.8 5.1 2.3 10.9 2.3 16.5 2.2.6 0 1.2-.1 1.7-.3.8-.6 1.3-1.4 1.5-2.4 1.2-3.9 2.4-7.5 5.1-10.6.5-.7 1.3-1.3 2.1-1.5.8 0 1.6.1 2.4.3.8.3 1.7.1 2.3-.5.3-.5.5-1 .5-1.6 0-1.6-.2-3.5.9-4.8.6-.7 1.5-1 2.1-1.7.8-1 1-2.4.5-3.7.9 1.6 1.3 3.6.1 4.9-.6.7-1.5 1-2.1 1.7-1.1 1.2-.8 3.1-.8 4.8 0 .6-.1 1.1-.5 1.6-.6.5-1.5.7-2.3.5-.8-.3-1.6-.4-2.4-.3-.9.3-1.6.8-2.2 1.5-2.7 3.2-3.8 6.7-5.1 10.6-.1 1.6-1.4 2.8-3 2.8h-.2c-5.6.1-11.4.2-16.5-2.2-.9-.4-1.8-1-2.4-1.8-.3-.5-.6-1-.7-1.5-.1 0 0 .1.1.2zm36.6-25.3c-.2-.3-.4-.6-.5-1-.1-.4-.1-.8 0-1.2.2-2.2 0-4.5-.6-6.7l.1-.1c1 2.5 1.4 5.3 1.1 8-.1.3-.1.6-.1 1zm-11 39.1s-23 2.2-24.9-1.4m-19.2-9.7s-12.7-.5-15.7 4.2"/></svg>