<svg xmlns="http://www.w3.org/2000/svg" viewBox="0 0 355.7 32.1"><path d="M14.3 23.4c-.5-.2-1-.5-1.3-.9-.4-.6-.6-1.6-.7-3 0-.3 0-.8-.1-1.4 0-.6-.1-1.1-.1-1.4 0-.9-.2-1.6-.5-1.9-.3-.5-.9-.8-1.7-.8-.2 0-.9 0-1.9.1-.8.1-1.4-.1-2.1-.4-.7-.3-1-.8-1-1.4 0-.3.2-.7.4-1 .2-.3.6-.5.9-.6.5-.1 1.2-.2 2.2-.1.3 0 .7.1 1.3.1.6.1 1 .1 1.3.1-.3-2.6-1.1-5.1-2.3-7.5-.3-.3-.5-.6-.8-.6-.3-.2-.6-.1-.9.2-.2.2-.4.5-.6 1-2.3 5.4-3.5 11-3.8 16.8 0 .8-.1 1.4-.3 1.8-.1.3-.4.5-.6.6-.3.2-.6.2-.8.1-.7-.2-1-1-.9-2.2.6-6.2 2.1-12.2 4.4-18C5 1.5 5.7.5 6.6.2c.7-.3 1.5-.2 2.5.1 1.4.5 2.6 1.4 3.6 2.8.8 1.3 1.3 2.8 1.3 4.3 0 .5.1 1.1.4 1.5s.7.8 1.2 1.1c.5.2 1 .3 1.6.2.6-.1 1.1-.2 1.5-.6.1.8-.1 1.4-.4 2-.2.4-.6.7-1.2 1.1-.8.5-1.2.8-1.2.7-.4.3-.5.6-.5.9l.8 6.1c.2 1.3 0 2.2-.5 2.7-.3.4-.8.5-1.4.3zm17.4-10.6c.3 1.6.5 2.8.6 3.6.1.4.2 1.2.5 2.5.3 1.2.4 2.1.5 2.5-.1.3-.4.6-.8.7-.4.1-.8 0-1.1-.2-.5-.3-.9-.9-1.2-1.9-.5-1.7-.7-3.5-.6-5.6.2-2.2.7-4 1.5-5.3.1.9.3 2.1.6 3.7zm.5-.5c-.5-.5-.8-.9-1-1.2-.2-.4-.1-.7.2-.9 1.3 1 2.8 1.6 4.5 1.9 2.2.4 4.1 0 5.8-1 1.1-1.3 2.4-1.6 3.8-1 1.1.5 2.1 1.4 3 2.7.7 1 1.1 2.3 1.1 3.7 0 1.3-.3 2.6-.9 3.8-.3.7-.8 1.1-1.4 1.5-.6.4-1.2.4-1.7.1-.1-.4-.1-1.1-.2-2-.1-.9-.2-1.6-.2-2-.1-1.1-.3-1.9-.5-2.5-.3-.9-.9-1.5-1.5-1.8-.6-.3-1.3-.3-2.1-.1-.7.2-1.3.7-1.7 1.3-.8 1.1-.9 2.5-.5 4.2.1.5-.1.9-.6 1.2-.6.3-1.1.4-1.5.1-.8-.5-1.3-1.4-1.3-2.8-.1-2-.1-3.1-.2-3.2-1.1-.3-2.1-1-3.1-2zM55 18.5c.5-.1.9-.4 1.3-.8.5-.5.9-1.1 1.3-1.8.4-.8.7-1.5.7-2.1.1-.6.3-.8.7-.7.4.1.7.4 1.1.9.3.4.2.9-.1 1.5-.5.9-.8 1.4-.9 1.6-.1.2 0 .5.3.8.3.2.6.5 1.1.6 1 .4 1.8.6 2.4.5-.2.4-.5.7-.9 1-.4.2-.8.4-1.3.4-.5.1-.9 0-1.3-.2-.5-.2-.8-.4-1.1-.8-.1-.2-.3-.4-.7-.4-.3 0-.6 0-.9.2l-.8.4c-.3.2-.6.3-.8.4-.9.3-1.7.1-2.5-.5s-1.3-1.4-1.4-2.4c-.2-1.5.4-3.2 1.8-5.1.7-.9 1.3-1.5 2-1.8.5-.2 1.1-.3 1.8-.2.8.1 1.3.3 1.5.7-1.7.4-3 1.3-3.9 2.5-.7 1-1.1 2.2-1.1 3.7 0 .7.1 1.1.4 1.4.3.3.8.4 1.3.2zm21.9 5.6c.1 1.6 0 2.9-.2 3.8-.3 1.4-.9 2.4-1.9 3.1-.5.4-1.2.7-2.1.9-1 .2-2 .3-2.8.1-1-.2-1.7-.7-2.1-1.4-.6-1.2-.4-2.7.8-4.7 1-1.7 2.3-3.1 3.7-4.4 1.6-1.5 2.2-2.6 1.6-3.5l-2.3 1.9c-1.5 1.2-2.7 1.8-3.6 1.8-.7 0-1.3-.2-1.9-.6-.6-.4-1-.9-1.3-1.6-.5-1-.6-2.4-.4-4.1.2-2 .7-3.7 1.5-4.9.5-.8 1.1-1.4 1.9-1.9.8-.5 1.6-.8 2.4-.9.9-.1 1.7.2 2.4.7.7.5 1.2 1.2 1.3 2 0 .4 0 .7-.1 1-.1.3-.3.6-.6.8-.3.2-.6.1-.9-.1-.3-.2-.4-.5-.3-.8.2-.6.1-1.1-.5-1.5-.5-.4-1.1-.5-1.7-.3-1 .3-1.8 1.2-2.3 2.7-.8 2.1-.9 4.3-.3 6.4.1.5.4.9.6 1 .2.1.5.1.8 0 1.2-.2 2.4-.8 3.4-1.7 1-.9 1.7-1.9 2.1-3.1.2-.7.5-1.3.7-1.6.4-.5.8-.8 1.2-.7.4.1.7.4.8.9.1.3.1.8.1 1.5 0 .5.2 1 .5 1.4.4.4.7.5 1.1.2 1.3-1.1 2.4-1.8 3.3-2.2 1.3-.6 2.5-.8 3.6-.5-.7.4-1.7 1-3.1 1.8-1.3.8-2.3 1.4-3 1.8-1.7 1-2.5 3.2-2.4 6.7zm-5.4 1.8c-.6 1-1 1.7-1.3 2.2-.3.5-.4.8-.5 1.1-.1.5.1.9.4 1.2.7.1 1.5-.2 2.1-.7.7-.5 1.1-1.1 1.4-1.9.4-1 .5-2.5.4-4.6-.1-.2-.3-.3-.6-.1-.3.1-.5.4-.7.6-.2.5-.7 1.2-1.2 2.2zM83.3 4.7c-.3 0-.7.1-1.3.4-.6.3-1 .4-1.3.3-.2-.1-.4-.2-.5-.5-.2-.1-.2-.4-.1-.7.1-.7.5-1 1-1.2.8-.2 1.8.1 3 1-.2.3-.5.5-.7.8l-.1-.1zm.8 16.8c-.4.4-.9.6-1.5.5-.3 0-.5-.1-.7-.3-.2-.2-.3-.4-.3-.6 0-.8-.1-2.1-.2-3.7s-.2-2.9-.2-3.7c-.1-1.1.1-1.9.5-2.4.3-.3.7-.5 1.1-.4.5.1.8.3.8.7.1.7.2 1.8.5 3.4.2 1.5.4 2.6.5 3.4.1 1.4-.1 2.4-.5 3.1zm5.5.4c-1.4-.3-2.5-1.2-3.3-2.7-.7-1.4-.9-2.9-.4-4.3.5-1.5 1.4-2.9 2.8-4.1 1.4-1.3 2.9-2 4.3-2 .4.6.3 1.3-.2 2 0 .1-.7.8-1.9 2.1-.9.9-1.4 1.8-1.6 2.5-.3 1 0 2.1.8 3.3.4.5 1 .8 1.7.8s1.4-.2 2.1-.5c0 0 .6-.4 1.8-1.1.7-.5 1.3-.8 1.9-.9.4.5.4 1 0 1.7-.3.5-.8 1-1.5 1.4-2.6 1.6-4.7 2.2-6.5 1.8zm13.5-3.4c.5-.1.9-.4 1.3-.8.5-.5.9-1.1 1.3-1.8.4-.8.7-1.5.7-2.1.1-.6.3-.8.7-.7.4.1.7.4 1.1.9.3.4.2.9-.1 1.5-.5.9-.8 1.4-.9 1.6-.1.2 0 .5.3.8.3.2.6.5 1.1.6 1 .4 1.8.6 2.4.5-.2.4-.5.7-.9 1-.4.2-.8.4-1.3.4-.5.1-.9 0-1.3-.2-.5-.2-.8-.4-1.1-.8-.2-.2-.4-.4-.8-.4-.3 0-.6 0-.9.2l-.8.4c-.3.2-.6.3-.8.4-.9.3-1.7.1-2.5-.5s-1.3-1.4-1.4-2.4c-.2-1.5.4-3.2 1.8-5.1.7-.9 1.3-1.5 2-1.8.5-.2 1.1-.3 1.8-.2.8.1 1.3.3 1.5.7-1.7.4-3 1.3-3.9 2.5-.7 1-1.1 2.2-1.1 3.7 0 .7.1 1.1.4 1.4.4.3.8.4 1.4.2zm13.8-11c-.1 1.2-.1 2.3-.1 3.2.1 3.7.2 6.6.2 8.5 0 1.5.3 2.5.8 3-.3.3-.7.5-1.2.5s-.9-.2-1.2-.5c-.4-.4-.7-1.3-.9-2.6-1.1-6.7-1.1-11.3.2-13.8.2-.6.4-1.1.6-1.3.2-.2.4-.3.7-.3.3 0 .5 0 .6.2.1.2.2.4.2.8 0 .8.1 1.6.1 2.3zM138.7 9c-1.1 3.6-2.2 7.1-3.4 10.7-.2.6-.7 1-1.5 1.2-.7.2-1.4 0-2-.3-.8-.5-1.6-1.6-2.3-3.3-.5-1.1-.7-2-.8-2.9-.1-1.1.3-1.9 1-2.4.6 2.3 1.6 4.4 3 6.3.5-.8 1.2-2.1 2.1-3.8s1.6-3 2.1-3.8c.6-1 1.2-1.6 1.8-1.7zm1.1 4.3c0-.7.1-1.1.3-1.5.1-.2.3-.4.6-.4.2-.1.5-.1.7.1.2.1.4.4.5.9.6 2 1.1 3.6 1.5 5 .1.2.2.4.5.5.2.1.5.1.7 0 .3-.1.7-.4 1.1-.9 1.2-1.5 2-3.3 2.6-5.2.2-.9.6-1.3.9-1.4.3-.1.7.1 1 .4.2.3.4.7.5 1.2.9 3.1 1.6 6.3 2.2 9.5.1.6.1 1-.1 1.3-.1.2-.3.3-.6.3-.2 0-.5 0-.7-.2-.3-.2-.6-.6-.9-1.2-.3-.5-.7-1.3-1.3-2.4-.3-1.2-.6-2-.9-2.6-.8 1.2-1.4 2.1-1.9 2.7-.7.8-1.5 1.3-2.3 1.3-.7 0-1.3-.2-1.9-.7-.5-.4-1-1-1.4-1.8-.7-1.5-1.1-3.1-1.1-4.9zm14.3-1.6c.7-1.1 1.7-1.9 2.9-2.3 1.3-.5 2.6-.4 3.9.3.6.3 1.1.7 1.4 1.2.4.5.5 1 .5 1.6-1.6 2.4-3.8 4.3-6.6 5.8.3.6.9 1.1 1.8 1.4.8.2 1.6.3 2.5.1 1.3-.3 2.8-1.1 4.7-2.5-.4 1.8-1 2.9-1.8 3.5-1.5 1.1-3.2 1.6-5.1 1.6-1.7-.1-3.1-.8-4.2-2.4-1-1.4-1.4-3-1.2-4.7.2-1.4.6-2.6 1.2-3.6zm5.8 1.7c.3-.5.2-1-.2-1.6-.4-.5-.9-.8-1.5-.8-1 1.2-1.4 2.5-1.4 3.9.6 0 1.1-.2 1.7-.5s.9-.7 1.1-1.2l.3.2zm21.6 5.1c.5-.1.9-.4 1.3-.8.5-.5.9-1.1 1.3-1.8.4-.8.7-1.5.7-2.1.1-.6.3-.8.7-.7.4.1.7.4 1.1.9.3.4.2.9-.1 1.5-.5.9-.8 1.4-.9 1.6-.1.2 0 .5.3.8.3.2.6.5 1.1.6 1 .4 1.8.6 2.4.5-.2.4-.5.7-.9 1-.4.2-.8.4-1.3.4-.5.1-.9 0-1.3-.2-.5-.2-.8-.4-1.1-.8-.2-.2-.4-.4-.8-.4-.3 0-.6 0-.9.2l-.8.4c-.3.2-.6.3-.8.4-.9.3-1.7.1-2.5-.5s-1.3-1.4-1.4-2.4c-.2-1.5.4-3.2 1.8-5.1.7-.9 1.3-1.5 2-1.8.5-.2 1.1-.3 1.8-.2.8.1 1.3.3 1.5.7-1.7.4-3 1.3-3.9 2.5-.7 1-1.1 2.2-1.1 3.7 0 .7.1 1.1.4 1.4.4.3.8.4 1.4.2zM200.1 8c.2-.6.4-1.4.5-2.6.1-.9.4-1.8.9-2.5.6-.8 1.2-1.2 2-1 .1 3.3.4 8.8.7 16.6.1 1-.1 1.8-.3 2.2-.2.4-.5.6-.9.8-.4.2-.8.2-1.1 0-.6-.4-1.5-.4-2.6 0-2 .6-2.9 1-2.8.9-.8.2-1.5.1-2.3-.2-.7-.3-1.3-.8-1.8-1.4-.5-.6-.8-1.3-1-2.1-.2-.8-.2-1.6 0-2.4.4-1.5 1.2-2.9 2.6-4.1 1.2-1.1 2.7-2 4.4-2.6.8-.1 1.4-.6 1.7-1.6zm.5 10.4c.2-1 .2-2.2 0-3.5l-.6-3.5c-1.3.9-2.3 1.7-3 2.4-1 1-1.7 2-2 3-.2.6-.2 1.2 0 1.8.1.6.4 1.1.8 1.6s.8.8 1.3.9c.5.2 1.1.1 1.7-.1 1-.5 1.6-1.3 1.8-2.6zm8.5-5.6c.3 1.6.5 2.8.6 3.6.1.4.2 1.2.5 2.5.3 1.2.4 2.1.5 2.5-.1.3-.4.6-.8.7-.4.1-.8 0-1.1-.2-.5-.3-.9-.9-1.2-1.9-.5-1.7-.7-3.5-.6-5.6.2-2.2.7-4 1.5-5.3.2.9.4 2.1.6 3.7zm.5-.5c-.5-.5-.8-.9-1-1.2-.2-.4-.1-.7.2-.9 1.3 1 2.8 1.6 4.5 1.9 2.2.4 4.1 0 5.8-1 1.1-1.3 2.4-1.6 3.8-1 1.1.5 2.1 1.4 3 2.7.7 1 1.1 2.3 1.1 3.7 0 1.3-.3 2.6-.9 3.8-.3.7-.8 1.1-1.4 1.5-.6.4-1.2.4-1.7.1-.1-.4-.1-1.1-.2-2-.1-.9-.2-1.6-.2-2-.1-1.1-.3-1.9-.5-2.5-.3-.9-.9-1.5-1.5-1.8-.6-.3-1.3-.3-2.1-.1-.7.2-1.3.7-1.7 1.3-.8 1.1-.9 2.5-.5 4.2.1.5-.1.9-.6 1.2-.5.3-1.1.4-1.5.1-.8-.5-1.3-1.4-1.3-2.8-.1-2-.1-3.1-.2-3.2-1.1-.3-2-1-3.1-2zm21.2-7.6c-.3 0-.7.1-1.3.4-.5.3-1 .4-1.3.3-.2-.1-.4-.2-.5-.5-.1-.2-.1-.5-.1-.7.1-.7.5-1 1-1.2.8-.2 1.8.1 3 1-.2.3-.5.5-.7.8l-.1-.1zm.8 16.8c-.4.4-.9.6-1.5.5-.3 0-.5-.1-.7-.3-.2-.2-.3-.4-.3-.6 0-.8-.1-2.1-.2-3.7s-.2-2.9-.2-3.7c-.1-1.1.1-1.9.5-2.4.3-.3.7-.5 1.1-.4.5.1.8.3.8.7.1.7.3 1.8.5 3.4.2 1.5.4 2.6.5 3.4.1 1.4-.1 2.4-.5 3.1zm4-1.7c-.3-.1-.5-.2-.6-.4-.2-.3-.4-.7-.5-1.3-.4-2.3-.6-4.5-.6-6.8.3-.2.6-.1.9.2.3.3.4.7.4 1.1 0 .6 0 1 .1 1.2.1.4.3.7.6.8.6-1.7 1.4-2.7 2.4-3.1 1-.4 2-.3 3 .4 1 .6 1.6 1.5 1.8 2.6.2 1 .1 2-.3 3.1-.4 1-1 1.9-1.8 2.7-.5-.6-.7-1.5-.8-2.9 0-1.5-.1-2.6-.4-3.1-.1-.3-.3-.6-.6-.8-.3-.2-.6-.3-.9-.3-.4.1-.8.4-1.1 1-1 1.7-1.3 3.6-1 5.5-.1.1-.3.2-.6.1zm25.4-5.7c-.1 1.6-.1 2.9 0 3.8.2 1.4.6 2.5 1.4 3.4.4-.4 1-.6 1.6-.7.6-.1 1.2 0 1.8.2-.9.9-1.9 1.4-3 1.5-.6.1-1.2 0-1.7-.2-.6-.2-1.1-.5-1.5-.9-.8-.8-1.2-2.2-1.3-4.1 0-.9 0-1.8.1-2.7v-1.5c-.1-.6-.4-1-.7-1.2 0 0-.4-.1-1.3-.5-.2-.1-.4-.2-.6-.4-.2-.2-.3-.4-.2-.6.1-.3.3-.5.7-.7.2-.1.6-.2 1-.3.4-.1.7-.2 1-.3.3-.2.5-.5.5-.8V5.7c0-.8.1-1.3.2-1.7.1-.3.3-.5.5-.7.3-.2.5-.2.8-.2.4.1.7.3.9.7.2.3.3.7.3 1.2 0 .2 0 .6-.1 1.2-.1.5-.1.9 0 1.2.1.4.3.8.6 1.1.3.3.7.4 1 .3.3-.1.7-.1 1 0 .3.1.6.3.9.5-.3.5-.9 1-1.9 1.7-.9.6-1.5 1.2-1.7 1.8-.2.2-.3.7-.3 1.3zm6.7-2.4c.7-1.1 1.7-1.9 2.9-2.3 1.3-.5 2.6-.4 3.9.3.6.3 1.1.7 1.4 1.2.4.5.5 1 .5 1.6-1.6 2.4-3.8 4.3-6.6 5.8.3.6.9 1.1 1.8 1.4.8.2 1.6.3 2.5.1 1.3-.3 2.8-1.1 4.7-2.5-.4 1.8-1 2.9-1.8 3.5-1.5 1.1-3.2 1.6-5.1 1.6-1.7-.1-3.1-.8-4.2-2.4-1-1.4-1.4-3-1.2-4.7.1-1.4.5-2.6 1.2-3.6zm5.7 1.7c.3-.5.2-1-.2-1.6-.4-.5-.9-.8-1.5-.8-1 1.2-1.4 2.5-1.4 3.9.6 0 1.1-.2 1.7-.5s.9-.7 1.1-1.2l.3.2zm9.1-.6c.3 1.6.5 2.8.6 3.6.1.4.2 1.2.5 2.5.3 1.2.4 2.1.5 2.5-.1.3-.4.6-.8.7-.4.1-.8 0-1.1-.2-.5-.3-.9-.9-1.2-1.9-.5-1.7-.7-3.5-.6-5.6.2-2.2.7-4 1.5-5.3.1.9.3 2.1.6 3.7zm.4-.5c-.5-.5-.8-.9-1-1.2-.2-.4-.1-.7.2-.9 1.3 1 2.8 1.6 4.5 1.9 2.2.4 4.1 0 5.8-1 1.1-1.3 2.4-1.6 3.8-1 1.1.5 2.1 1.4 3 2.7.7 1 1.1 2.3 1.1 3.7 0 1.3-.3 2.6-.9 3.8-.3.7-.8 1.1-1.4 1.5-.6.4-1.2.4-1.7.1-.1-.4-.1-1.1-.2-2-.1-.9-.2-1.6-.2-2-.1-1.1-.3-1.9-.5-2.5-.3-.9-.9-1.5-1.5-1.8-.6-.3-1.3-.3-2.1-.1-.7.2-1.3.7-1.7 1.3-.8 1.1-.9 2.5-.5 4.2.1.5-.1.9-.6 1.2-.5.3-1.1.4-1.5.1-.8-.5-1.3-1.4-1.3-2.8-.1-2-.1-3.1-.2-3.2-1-.3-2-1-3.1-2zm28.5-1.8c.5 1 .7 2 .3 3.1-.5 1.6-2.6 3.6-6.4 6-.2-.4.1-1 .7-1.8 0-.2.7-1.2 2-3.2.1-.4.1-.7.1-.9.1-.6-.1-1.2-.3-1.7-.3-.6-.9-.6-1.8-.2-.6 0-1.1.3-1.5 1-.3.6-.5 1.2-.5 2-.2 4.2.2 8.4 1.3 12.5.1.3 0 .6-.1.8-.1.2-.4.4-.7.5-.7.3-1.3.3-1.8-.1-.7-.5-1.2-1.7-1.3-3.4-.3-2.9-.5-5.1-.6-6.7-.2-1.8-.2-3.1 0-4.2.2-1.5.7-2.7 1.6-3.6.8-.8 1.8-1.3 3.1-1.6 1-.2 2.2-.3 3.7-.2.9.1 1.6.6 2.2 1.7zm5.4-3c-.1 1.2-.1 2.3-.1 3.2.1 3.7.2 6.6.2 8.5 0 1.5.3 2.5.8 3-.3.3-.7.5-1.2.5s-.9-.2-1.2-.5c-.4-.4-.7-1.3-.9-2.6-1.1-6.7-1.1-11.3.2-13.8.2-.6.4-1.1.6-1.3.2-.2.4-.3.7-.3.3 0 .5 0 .6.2.1.2.2.4.2.8 0 .8.1 1.6.1 2.3zm6 11c.5-.1.9-.4 1.3-.8.5-.5.9-1.1 1.3-1.8.4-.8.7-1.5.7-2.1.1-.6.3-.8.7-.7.4.1.7.4 1.1.9.3.4.2.9-.1 1.5-.5.9-.8 1.4-.9 1.6-.1.2 0 .5.3.8.3.2.6.5 1.1.6 1 .4 1.8.6 2.4.5-.2.4-.5.7-.9 1-.4.2-.8.4-1.3.4-.5.1-.9 0-1.3-.2-.5-.2-.8-.4-1.1-.8-.2-.2-.4-.4-.8-.4-.3 0-.6 0-.9.2l-.8.4c-.3.2-.6.3-.8.4-.9.3-1.7.1-2.5-.5s-1.3-1.4-1.4-2.4c-.2-1.5.4-3.2 1.8-5.1.7-.9 1.3-1.5 2-1.8.5-.2 1.1-.3 1.8-.2.8.1 1.3.3 1.5.7-1.7.4-3 1.3-3.9 2.5-.7 1-1.1 2.2-1.1 3.7 0 .7.1 1.1.4 1.4.4.3.8.4 1.4.2zm15-4.4c-.1 1.6-.1 2.9 0 3.8.2 1.4.6 2.5 1.4 3.4.4-.4 1-.6 1.6-.7.6-.1 1.2 0 1.8.2-.9.9-1.9 1.4-3 1.5-.6.1-1.2 0-1.7-.2-.6-.2-1.1-.5-1.5-.9-.8-.8-1.2-2.2-1.3-4.1 0-.9 0-1.8.1-2.7v-1.5c-.1-.6-.4-1-.7-1.2 0 0-.4-.1-1.3-.5-.2-.1-.4-.2-.6-.4-.2-.2-.3-.4-.2-.6.1-.3.3-.5.7-.7.2-.1.6-.2 1-.3.4-.1.7-.2 1-.3.3-.2.5-.5.5-.8V5.7c0-.8.1-1.3.2-1.7.1-.3.3-.5.5-.7.3-.2.5-.2.8-.2.4.1.7.3.9.7.2.3.3.7.3 1.2 0 .2 0 .6-.1 1.2-.1.5-.1.9 0 1.2.1.4.3.8.6 1.1.3.3.7.4 1 .3.3-.1.7-.1 1 0 .3.1.6.3.9.5-.3.5-.9 1-1.9 1.7-.9.6-1.5 1.2-1.7 1.8-.2.2-.2.7-.3 1.3zm6.8-2.4c.7-1.1 1.7-1.9 2.9-2.3 1.3-.5 2.6-.4 3.9.3.6.3 1.1.7 1.4 1.2.4.5.5 1 .5 1.6-1.6 2.4-3.8 4.3-6.6 5.8.3.6.9 1.1 1.8 1.4.8.2 1.6.3 2.5.1 1.3-.3 2.8-1.1 4.7-2.5-.4 1.8-1 2.9-1.8 3.5-1.5 1.1-3.2 1.6-5.1 1.6-1.7-.1-3.1-.8-4.2-2.4-1-1.4-1.4-3-1.2-4.7.1-1.4.5-2.6 1.2-3.6zm5.7 1.7c.3-.5.2-1-.2-1.6-.4-.5-.9-.8-1.5-.8-1 1.2-1.4 2.5-1.4 3.9.6 0 1.1-.2 1.7-.5s.9-.7 1.1-1.2l.3.2z"/></svg>