<?xml version="1.0" encoding="utf-8"?>
<!-- Generator: Adobe Illustrator 22.1.0, SVG Export Plug-In . SVG Version: 6.00 Build 0)  -->
<svg version="1.1" id="图层_1" xmlns="http://www.w3.org/2000/svg" xmlns:xlink="http://www.w3.org/1999/xlink" x="0px" y="0px"
	 viewBox="0 0 1150.4 866.5" style="enable-background:new 0 0 1150.4 866.5;" xml:space="preserve">
<style type="text/css">
	.st0{opacity:0.1;enable-background:new;}
	.st1{fill:none;stroke:#535461;stroke-width:2;stroke-miterlimit:10;}
	.st2{}
	.st3{opacity:0.25;enable-background:new;}
	.st4{fill:#C8CAD7;}
	.st5{opacity:0.1;enable-background:new;}
	.st6{fill:#474157;}
	.st7{fill:#F4F4F7;}
	.st8{fill:#FFFFFF;}
	.st9{fill:#EDEDF4;}
	.st10{fill:#65617D;}
	.st11{opacity:0.2;fill:#5A5773;}
	.st12{fill:url(#SVGID_1_);}
	.st13{fill:#FBBEBE;}
	.st14{fill:#E7EFFD;}
	.st15{fill:#3F3D56;}
	.st16{fill:#E3A79F;}
	.st17{opacity:0.1;}
</style>
<path class="st0" d="M1119.6,593.6c-1.1,0.7-2.2,1.4-3.3,2.1c-4.2,2.6-8.5,4.9-12.9,6.9c-23.5,10.8-52.4,16.2-80.5,19.8
	c-63.2,8.1-127.6,9.7-191.8,11.2c-173.5,4.2-347.4,8.3-520.4-1.3c-68.4-3.8-138.3-10.2-200.2-29.7c-8.9-2.8-17.6-5.9-26.1-9.2
	c-17.3-6.8-33.8-15.1-47.6-25c-13-9.3-23.5-19.9-29.8-32.1c-13.1-25.2-6.2-53.6,8.8-78.3c6.3-10.1,13.3-19.7,21-28.8
	c11.5-13.9,24.2-27.5,35.8-41.3c41.3-49.5,68.3-112.1,30.1-162.9c-11-14.6-26.8-27.4-35.7-42.6c-11.4-19.5-10.5-41.1-6.9-62.1
	c0.5-2.7,1-5.3,1.5-7.9c6.2-31.1,17.9-64.6,53.7-84.1c37.3-20.2,90.3-19.2,136.6-12c72,11.2,138.4,34.7,205.5,55.9
	s137.3,40.6,211.1,42.7c65.1,1.8,141.1-11.9,184.3-47.7c42-34.8,120.9-37.4,177.8-16.4c39,14.4,68.2,40.4,80.4,69.6
	c2.5,5.8,4.3,11.9,5.4,18.1c1,5.6,1.3,11.4,1,17.1c-0.2,2.8-0.5,5.6-1,8.4c-9.5,57.6-77.9,103.1-119.5,154.5
	c-20.3,25.1-34.7,55.3-20.7,82.5c21.3,41.3,95.4,56,140.2,86.7c8.6,5.9,16.1,12.4,22,19.8C1160,534.8,1152,571.8,1119.6,593.6z
	 M640,832.8c185,0,335,7.5,335,16.8s-150,16.8-335,16.8s-335-7.5-335-16.8S455,832.8,640,832.8z M237,849.6
	c16.5,0,29.9,2.3,29.9,5.1s-13.4,5.1-29.9,5.1s-29.9-2.3-29.9-5.1S220.5,849.6,237,849.6z M175.7,837.1c9.3,0,16.9,1.3,16.9,2.8
	s-7.6,2.8-16.9,2.8s-16.9-1.3-16.9-2.8S166.4,837.1,175.7,837.1z M217.6,805.5c11.3,0,20.4,1.5,20.4,3.4s-9.1,3.4-20.4,3.4
	s-20.4-1.5-20.4-3.4S206.4,805.5,217.6,805.5z"/>
<g>
	<path class="st1" d="M294.9,324.9c0,0-46-81.5-115.3-105c-29.1-9.9-54.5-28.4-71.8-53.7c-8.2-12-15.3-24.8-21.2-38.1"/>
	<path class="st1" d="M292.3,323.2c0,0-9-93.2-62.9-142.7c-22.6-20.8-38.3-48.1-43.9-78.2c-2.6-14.3-3.9-28.9-3.9-43.5"/>
	<path class="st2" d="M43,112.9c7.9,7.7,44.7,15.6,44.7,15.6s-9-36.5-16.9-44.2c-8-7.6-20.6-7.2-28.2,0.8
		C35.1,92.9,35.3,105.3,43,112.9z M63.8,179c10.8,2.1,46-11.2,46-11.2s-27.4-25.8-38.2-27.9c-10.8-1.9-21.2,5.3-23.1,16.2
		C46.6,166.6,53.4,176.7,63.8,179L63.8,179z M139.5,250.5c10.4-3.6,34-32.9,34-32.9s-36.7-8.4-47.1-4.8
		c-10.5,3.3-16.4,14.4-13.1,24.9c3.3,10.5,14.4,16.4,24.9,13.1C138.7,250.8,139.1,250.7,139.5,250.5L139.5,250.5z M140.4,139.3
		c0,11-19.9,42.9-19.9,42.9s-19.9-31.9-20-42.9c-0.2-11,8.5-20.1,19.5-20.4s20.1,8.5,20.4,19.5C140.4,138.7,140.4,139,140.4,139.3
		L140.4,139.3z M147.8,27.4c4.1,10.2,34.5,32.4,34.5,32.4s6.6-37,2.4-47.3c-4.2-10.2-15.8-15.1-26-10.9
		C148.7,5.7,143.7,17.2,147.8,27.4L147.8,27.4z M140.1,96.2c9,6.3,46.6,8.4,46.6,8.4S172,70,163,63.6c-9.1-6.2-21.5-3.9-27.7,5.2
		C129.2,77.7,131.3,89.9,140.1,96.2L140.1,96.2z M180.3,192.3c11,0.9,44.4-16.3,44.4-16.3s-30.1-22.5-41.1-23.4
		c-10.9-1.2-20.8,6.8-21.9,17.7c-1.2,10.9,6.8,20.8,17.7,21.9C179.7,192.3,180,192.3,180.3,192.3L180.3,192.3z M226.2,91
		c-4.4,10.1-35.6,31.2-35.6,31.2s-5.3-37.3-0.9-47.3c4.7-10,16.5-14.3,26.5-9.6C225.9,69.8,230.3,81.1,226.2,91z"/>
	<path class="st3" d="M43,112.9c7.9,7.7,44.7,15.6,44.7,15.6s-9-36.5-16.9-44.2c-8-7.6-20.6-7.2-28.2,0.8
		C35.1,92.9,35.3,105.3,43,112.9z M63.8,179c10.8,2.1,46-11.2,46-11.2s-27.4-25.8-38.2-27.9c-10.8-1.9-21.2,5.3-23.1,16.2
		C46.6,166.6,53.4,176.7,63.8,179L63.8,179z M139.5,250.5c10.4-3.6,34-32.9,34-32.9s-36.7-8.4-47.1-4.8
		c-10.5,3.3-16.4,14.4-13.1,24.9c3.3,10.5,14.4,16.4,24.9,13.1C138.7,250.8,139.1,250.7,139.5,250.5L139.5,250.5z M140.4,139.3
		c0,11-19.9,42.9-19.9,42.9s-19.9-31.9-20-42.9c-0.2-11,8.5-20.1,19.5-20.4s20.1,8.5,20.4,19.5C140.4,138.7,140.4,139,140.4,139.3
		L140.4,139.3z"/>
</g>
<path class="st4" d="M677,826.8v7.8H445.7v-6.3c39.4-14.6,59.4-58.3,44.9-97.7c-7-18.9-21.3-34.3-39.6-42.7h224.5
	c-20.9,9.6-36.3,28.1-42,50.4c-7.7,30.3,4,62.2,29.4,80.5C667.2,821.9,672,824.6,677,826.8L677,826.8z"/>
<path class="st5" d="M675.4,687.9c-20.9,9.6-36.3,28.1-42,50.4H493c-5.7-22.3-21.1-40.8-42-50.4H675.4z"/>
<path class="st4" d="M180.9,648.1V692c0,24.2,17.7,43.9,39.6,43.9h680.4c21.9,0,39.6-19.7,39.6-43.9v-43.9H180.9z"/>
<path class="st5" d="M677,826.8v7.8H445.7v-6.3c6.3-2.4,12.3-5.6,17.8-9.5h199.2C667.2,822,672,824.6,677,826.8L677,826.8z"/>
<path class="st4" d="M378.8,821.2h365.1c5.2,0,9.5,4.3,9.5,9.5v4.2c0,5.2-4.3,9.5-9.5,9.5H378.8c-5.2,0-9.5-4.3-9.5-9.5v-4.2
	C369.3,825.5,373.6,821.2,378.8,821.2z"/>
<path class="st6" d="M940.6,167c0-21.9-17.7-39.6-39.6-39.6l0,0H220.6c-21.9,0-39.6,17.7-39.6,39.6l0,0v489.6h759.6V167z"/>
<path class="st7" d="M919.8,184.8v420.6c0,10.8-8.7,19.5-19.5,19.5c0,0,0,0,0,0H221.1c-10.8,0-19.5-8.7-19.5-19.5c0,0,0,0,0,0V184.8
	c0-10.8,8.7-19.5,19.5-19.5h679.2C911.1,165.3,919.8,174,919.8,184.8L919.8,184.8L919.8,184.8z"/>
<circle class="st8" cx="560.7" cy="146.3" r="9.2"/>
<circle class="st8" cx="560.7" cy="693.8" r="22.6"/>
<path class="st8" d="M919.8,184.8H201.6c0-10.8,8.7-19.5,19.5-19.5c0,0,0,0,0,0h679.2C911.1,165.2,919.8,174,919.8,184.8
	C919.8,184.7,919.8,184.8,919.8,184.8L919.8,184.8z"/>
<circle class="st9" cx="221.1" cy="175" r="4.9"/>
<circle class="st9" cx="235.8" cy="175" r="4.9"/>
<circle class="st9" cx="250.4" cy="175" r="4.9"/>
<path class="st8" d="M269.3,238.8h579.6v338.7H269.3V238.8z"/>
<path class="st10" d="M368.3,525h21.4v4h-21.4V525z M379,514.3c1.5,0,2.7-1.2,2.7-2.7c0-1.5-1.2-2.7-2.7-2.7c-0.2,0-0.5,0-0.7,0.1
	l-5.6-4.1l-0.3,0.3l4.1,5.6c-0.1,0.3-0.1,0.5-0.1,0.8C376.3,513.1,377.5,514.3,379,514.3C379,514.3,379,514.3,379,514.3L379,514.3z"
	/>
<path class="st10" d="M379,494.3c-9.6,0-17.4,7.8-17.4,17.4c0,3.9,1.3,7.6,3.7,10.7h4.9l0.3-0.3l1.8-1.8l-1.9-1.9l-1.8,1.8
	c-1.7-2-2.7-4.5-2.9-7.1h2.6v-2.7h-2.6c0.3-2.6,1.3-5.1,2.9-7.1l1.8,1.8l1.9-1.9l-1.8-1.8c2-1.7,4.5-2.7,7.1-2.9v2.6h2.7v-2.6
	c2.6,0.3,5.1,1.3,7.1,2.9l-1.8,1.8l1.9,1.9l1.8-1.8c1.7,2,2.7,4.5,2.9,7.1h-2.6v2.7h2.6c-0.3,2.6-1.3,5.1-2.9,7.1l-1.8-1.8l-1.9,1.9
	l1.9,1.8l0.3,0.3h4.9c5.9-7.6,4.6-18.5-3-24.4C386.6,495.6,382.8,494.3,379,494.3L379,494.3z M379,421.4c-1.2-0.1-2.5-0.4-3.6-0.9
	c-0.3-0.2-0.7,0-0.9,0.3c0,0.1-0.1,0.2-0.1,0.3l0.3,4.3c0,0.2,0.2,0.3,0.4,0.3c0.1,0,0.1,0,0.2-0.1l1.2-0.9c0.1-0.1,0.4-0.1,0.5,0.1
	c0,0,0,0,0,0l1.7,2.7c0.1,0.2,0.3,0.2,0.5,0.1c0,0,0.1-0.1,0.1-0.1l1.7-2.7c0.1-0.1,0.3-0.2,0.5-0.1c0,0,0,0,0,0l1.2,0.9
	c0.1,0.1,0.4,0.1,0.5-0.1c0,0,0.1-0.1,0.1-0.2l0.3-4.3c0-0.4-0.3-0.7-0.6-0.7c-0.1,0-0.2,0-0.3,0.1
	C381.4,421.1,380.2,421.4,379,421.4L379,421.4z"/>
<path class="st10" d="M390.8,410.7l-4-4.1c0-13.2-7.8-19-7.8-19s-7.9,5.9-7.9,19l-4,4.1c-0.2,0.2-0.2,0.4-0.2,0.6l1.5,9.3
	c0,0.4,0.4,0.6,0.7,0.6c0.1,0,0.2,0,0.3-0.1l5.6-3.8c1.1,1,2.5,1.6,3.9,1.7c1.4-0.1,2.8-0.7,3.9-1.7l5.6,3.8
	c0.3,0.2,0.7,0.1,0.9-0.2c0.1-0.1,0.1-0.2,0.1-0.3l1.5-9.3C391.1,411,391,410.8,390.8,410.7z M379,402.3c-1.5,0.1-2.7-1.1-2.8-2.6
	c-0.1-1.5,1.1-2.7,2.6-2.8c1.5-0.1,2.7,1.1,2.8,2.6c0,0,0,0.1,0,0.1C381.6,401,380.5,402.2,379,402.3z M392.3,319.3h-0.4
	c-0.5,0-1-0.1-1.1-0.6c-1.2-11.3-8.4-11.6-8.4-14.2s7.2-2.9,8.4-14.2c0.1-0.5,0.5-0.6,1.1-0.6h0.4c0.6,0,1.2-0.5,1.2-1.1
	c0-0.7-0.5-1.2-1.1-1.2c0,0,0,0,0,0h-26.7c-0.6,0-1.2,0.5-1.2,1.1c0,0.6,0.5,1.2,1.1,1.2c0,0,0,0,0.1,0h0.5c0.5,0,1,0.1,1.1,0.6
	c1.2,11.3,8.4,11.6,8.4,14.2s-7.2,2.9-8.4,14.2c-0.1,0.5-0.5,0.6-1.1,0.6h-0.4c-0.6,0-1.2,0.5-1.2,1.1c0,0.6,0.5,1.2,1.1,1.2
	c0,0,0,0,0.1,0h26.7c0.6,0,1.2-0.5,1.2-1.2c0,0,0,0,0-0.1C393.5,319.8,392.9,319.3,392.3,319.3z M371.2,316.4
	c2.4-6.7,6.6-5.9,6.6-8.5v-4.6c0-1.6-3.1-2.8-5-5.4c-0.2-0.3-0.1-0.7,0.2-0.9c0.1-0.1,0.2-0.1,0.3-0.1h11.1c0.4,0,0.7,0.3,0.7,0.6
	c0,0.1,0,0.3-0.1,0.4c-1.9,2.6-5,3.8-5,5.4v4.6c0,2.6,4.1,1.9,6.7,8.5c0.2,0.6,0.1,1.3-0.6,1.3h-14.4
	C371.2,317.8,371,317,371.2,316.4L371.2,316.4z"/>
<path class="st11" d="M756.5,304.4c0,6.1-5,11.1-11.1,11.1H459.7c-6.2,0.2-11.3-4.7-11.5-10.8c-0.2-6.2,4.7-11.3,10.8-11.5
	c0.2,0,0.4,0,0.7,0h285.8C751.6,293.3,756.5,298.3,756.5,304.4z M756.5,407.6c0,6.1-5,11.1-11.1,11.2h0H459.7
	c-6.2-0.2-11-5.3-10.8-11.5c0.2-5.9,4.9-10.6,10.8-10.8h285.8C751.6,396.5,756.5,401.5,756.5,407.6z M756.5,511.6
	c0,6.1-5,11.1-11.1,11.1H459.7c-6.2,0.2-11.3-4.7-11.5-10.8c-0.2-6.2,4.7-11.3,10.8-11.5c0.2,0,0.4,0,0.7,0h285.8
	C751.6,500.5,756.6,505.5,756.5,511.6z"/>
<path class="st2" d="M266.2,817.4c0,0-42.3-2.5-37.3,27.1c0,0-1,5.2,3.8,7.6c0,0,0.1-2.2,4.3-1.5c1.5,0.3,3.1,0.3,4.6,0.2
	c2.1-0.1,4-1,5.6-2.3c0,0,11.9-4.9,16.5-24.3c0,0,3.4-4.2,3.3-5.3l-7.1,3c0,0,2.4,5.1,0.5,9.4c0,0-0.2-9.2-1.6-9
	c-0.3,0-3.7,1.8-3.7,1.8s4.2,9,1,15.5c0,0,1.2-11-2.3-14.8l-5,2.9c0,0,4.9,9.3,1.6,16.8c0,0,0.9-11.6-2.6-16.1l-4.6,3.5
	c0,0,4.6,9.1,1.8,15.4c0,0-0.4-13.5-2.8-14.5c0,0-4,3.5-4.6,5c0,0,3.1,6.6,1.2,10.1c0,0-1.2-9-2.2-9c0,0-4,6-4.4,10
	c0,0,0.2-6.1,3.4-10.6c-2.3,0.4-4.4,1.5-6.1,3.1c0,0,0.6-4.2,7.1-4.6c0,0,3.3-4.5,4.1-4.8c0,0-6.4-0.5-10.3,1.2c0,0,3.4-4,11.5-2.2
	l4.5-3.7c0,0-8.4-1.2-12,0.1c0,0,4.1-3.5,13.2-1l4.9-2.9c0,0-7.2-1.5-11.5-1c0,0,4.5-2.4,12.9,0.2l3.5-1.6c0,0-5.3-1-6.8-1.2
	s-1.6-0.6-1.6-0.6c3.3-0.6,6.8-0.2,9.9,1.1C258.8,820.6,266.3,817.8,266.2,817.4L266.2,817.4z M192.1,819c0,0-23.8-1.4-21,15.3
	c-0.3,1.7,0.6,3.5,2.1,4.3c0,0,0-1.2,2.4-0.8c0.9,0.1,1.7,0.2,2.6,0.1c1.2-0.1,2.3-0.5,3.2-1.3c0,0,6.7-2.8,9.3-13.7
	c0,0,1.9-2.4,1.9-3l-4,1.7c0,0,1.4,2.9,0.3,5.3c0,0-0.1-5.2-0.9-5.1c-0.2,0-2.1,1-2.1,1s2.4,5.1,0.6,8.7c0,0,0.7-6.2-1.3-8.4
	l-2.9,1.7c0,0,2.8,5.2,0.9,9.5c0,0,0.5-6.5-1.5-9.1l-2.6,2c0,0,2.6,5.1,1,8.7c0,0-0.2-7.6-1.6-8.2c-1,0.8-1.8,1.8-2.6,2.8
	c0,0,1.8,3.7,0.7,5.7c0,0-0.7-5.1-1.2-5.1c0,0-2.2,3.4-2.5,5.7c0.1-2.1,0.8-4.2,1.9-6c-1.3,0.2-2.5,0.9-3.4,1.8c0,0,0.4-2.4,4-2.6
	c0,0,1.9-2.5,2.3-2.7c0,0-3.6-0.3-5.8,0.7c0,0,1.9-2.2,6.4-1.2l2.5-2.1c0,0-4.8-0.7-6.8,0.1c0,0,2.3-2,7.4-0.5l2.8-1.7
	c-2.1-0.5-4.3-0.7-6.5-0.6c0,0,2.6-1.4,7.3,0.1l2-0.9c0,0-3-0.6-3.8-0.7s-0.9-0.3-0.9-0.3c1.9-0.3,3.8-0.1,5.6,0.6
	C188,820.8,192.2,819.2,192.1,819L192.1,819z M237.4,783.5c0,0-28.8-1.7-25.4,18.4c-0.4,2.1,0.7,4.2,2.6,5.2c0,0,0.1-1.5,3-1
	c1,0.2,2.1,0.2,3.1,0.2c1.4-0.1,2.7-0.6,3.8-1.5c0,0,8.1-3.3,11.2-16.6c0,0,2.3-2.9,2.2-3.6l-4.9,2.1c0,0,1.6,3.5,0.4,6.4
	c0,0-0.2-6.3-1.1-6.1c-0.2,0-2.5,1.2-2.5,1.2s2.9,6.1,0.7,10.5c0,0,0.8-7.5-1.6-10.1l-3.4,2c0,0,3.3,6.3,1.1,11.5
	c0,0,0.6-7.9-1.8-11l-3.1,2.4c0,0,3.1,6.2,1.2,10.5c0,0-0.3-9.2-1.9-9.9c0,0-2.7,2.4-3.1,3.4c0,0,2.1,4.5,0.8,6.9
	c0,0-0.8-6.1-1.5-6.2c0,0-2.7,4.1-3,6.8c0.1-2.6,0.9-5.1,2.3-7.2c-1.6,0.3-3,1-4.1,2.2c0,0,0.4-2.9,4.8-3.1c0,0,2.2-3.1,2.8-3.3
	c0,0-4.4-0.4-7,0.8c0,0,2.3-2.7,7.8-1.5l3.1-2.5c0,0-5.7-0.8-8.2,0.1c0,0,2.8-2.4,9-0.6l3.3-2c0,0-4.9-1-7.8-0.7
	c0,0,3.1-1.7,8.8,0.1l2.4-1.1c0,0-3.6-0.7-4.6-0.8s-1.1-0.4-1.1-0.4c2.3-0.4,4.6-0.1,6.7,0.8C232.5,785.7,237.6,783.9,237.4,783.5
	L237.4,783.5z M699.2,293.3v22.3H459.7c-6.2,0.2-11.3-4.7-11.5-10.8c-0.2-6.2,4.7-11.3,10.8-11.5c0.2,0,0.4,0,0.7,0H699.2z
	 M741.7,396.5v22.3h-282c-6.2-0.2-11-5.3-10.8-11.5c0.2-5.9,4.9-10.6,10.8-10.8L741.7,396.5z M637.2,500.5v22.3H459.7
	c-6.2,0.2-11.3-4.7-11.5-10.8c-0.2-6.2,4.7-11.3,10.8-11.5c0.2,0,0.4,0,0.7,0L637.2,500.5z"/>
<linearGradient id="SVGID_1_" gradientUnits="userSpaceOnUse" x1="296.5025" y1="-5.648" x2="296.5025" y2="559.2449" gradientTransform="matrix(1 0 0 -1 605.84 850.76)">
	<stop  offset="0" style="stop-color:#808080;stop-opacity:0.25"/>
	<stop  offset="0.54" style="stop-color:#808080;stop-opacity:0.12"/>
	<stop  offset="1" style="stop-color:#808080;stop-opacity:0.1"/>
</linearGradient>
<path class="st12" d="M1038,469.6c0.6-1.5-3.6-9.8-3.6-10.2s-4.3-5-4.3-7.6s-5.6-8.2-5.6-8.2s-7.5-3.1-8.3-9.9s-9-6.9-9-6.9v-1.6
	c0-2.1-0.1-5.9-1-8c-1-1.9-2.6-3.3-4.7-3.9c0,0-0.8-5.3-2.5-6.9c-1.9-2-2.6-4.7-1.9-7.3c0.8-2.6-1.1-9.1-5.1-10s-8.5-2.5-8.5-2.5
	s-0.5,0.1-1.1,0.2l-0.5-0.2c-0.9,0.2-1.9,0.3-2.9,0.4c-0.8,0-1.7-0.2-2.3-0.8c-1.4-1.5-12.4-4.4-14.5-4.4s-8-2.7-8-2.7l-5.9-4.5
	c-1.7-1.3-4.7-6.4-5.1-7.1l-0.1-0.1c-0.5-1.2-0.9-2.4-1.2-3.6c2-2.1,3.7-4.5,5.1-7c0.1-0.3,0.3-0.5,0.4-0.8c0.3,0,0.6,0,0.9-0.1
	l0.4-0.1c1.4-0.7,2.4-2,2.9-3.5c0.1-0.3,0.2-0.6,0.3-0.9l0.1-0.3c0-0.2,0.1-0.4,0.1-0.6l0.1-0.4c0-0.2,0.1-0.4,0.1-0.6s0-0.2,0-0.3
	s0.1-0.5,0.1-0.8c0.1-1,0.2-1.9,0.4-2.9c0.8-3.7,3-6.8,4.6-10.2c0.2-0.5,0.4-1,0.6-1.5s0.4-1.1,0.5-1.6c0-0.2,0.1-0.3,0.1-0.5
	c0.1-0.4,0.2-0.8,0.3-1.2c0-0.2,0.1-0.4,0.1-0.5c0.1-0.6,0.2-1.1,0.2-1.7c0.3-3.2-0.2-6.5-1.4-9.5c-1-2.5-2.5-4.9-3.6-7.4
	c-1.6-3.9-2-8.3-3.9-11.9c-3.2-6.2-10.8-9.3-17-7c-3,1.1-5.5,3.3-8.6,4.2c-4,1.3-8.4,0.3-12.6-0.3s-8.8-0.6-12.2,2.1
	c-3.9,3.1-4.9,9.1-8.6,12.5c-1.5,1.5-3.4,2.4-5,3.7c-1.1,0.9-2,2.1-2.5,3.5c0,0.1-0.1,0.2-0.1,0.3c0,0.1-0.1,0.2-0.1,0.4
	c0,0.1,0,0.3-0.1,0.4s0,0.2,0,0.3c0,0.2,0,0.5,0,0.7c0,0.2,0.1,0.5,0.1,0.7v0.2c0,0.1,0.1,0.4,0.2,0.6v0.1c0.1,0.2,0.2,0.4,0.2,0.6
	s0.1,0.2,0.1,0.3c0,0.1,0.1,0.2,0.1,0.3c0.5,1,1,2.1,1.3,3.2c0.2,0.7,0.1,1.4-0.1,2.1c-0.4,0.8-0.9,1.4-1.5,2
	c-2.7,2.8-4.8,6.2-6.2,9.9c-0.2,0.4-0.3,0.8-0.4,1.3l0.2,0c0.4,0.1,0.8,0.2,1.2,0.3c0.2,0,0.5,0.1,0.7,0.1c0.9,0.1,1.9,0,2.8-0.2
	l0.7-0.2c0.9-0.3,1.9-0.6,2.8-1v1.3c0,12.3,7,23.5,18,28.9l0.1,0.9l0.1,0.7l-0.4-0.4c0,0-2.5-1.2-4.8,2.3c-1.7,2.3-4,4.1-6.7,5.2
	c0,0-24.9,3.9-25.9,7.2l-11.6,0.7c0,0-4.1,0.5-4.5,9.1s-2.6,9.4-2.6,9.4s-4.8,8.4-4.4,12.8s-3.8,6.5-3.8,6.5l-0.5,7.8
	c0,0-4.5-0.7-5.8,4.6s-3.4,7.8-3.4,7.8s-7.5,6.3-7.9,11.5l-4.7,2.9c0,0-10.8-2.5-13.3-6.8l-0.8-0.7c0,0,0-0.1-0.1-0.1
	c-1.6-1.5-5-4.7-4.5-4c0.3,0.7,0.4,1.5,0.2,2.2l-0.8-0.9l-2.2-2.3c0,0-16.1-18.5-26.3-19.8c-2.2,0.6-4,2.3-4.6,4.5
	c-1.3,4.4-2.7,11.7,0.7,15.3l16.2,17.3l0.4,0.3l3.5,4.5c-0.6,1.4-1.1,2.8-1.5,4v0.1c-0.1,0.3-0.2,0.5-0.3,0.8l-0.1,0.3
	c-0.1,0.3-0.2,0.5-0.2,0.8s-0.1,0.3-0.1,0.5s0,0.2-0.1,0.3c-0.4,1.4-0.6,2.4-0.8,3l-0.9-0.3l0.9,0.4c0,0,0,0.1,0,0.1
	c0,0.1,0,0.2-0.1,0.3c0.3,0.1,0.5,0.3,0.8,0.4c4.8,2.1,28.7,12.6,30,14.2c1.4,1.8,10.4,6.9,18.6,2.6s10-11,10-11s7.9-11,8.2-12.6
	s6.4-3.5,6.4-3.5s0.5,18.2-2.6,24.9c-3.1,6.7-9,36.2-9,36.2c0.4-0.1,0.8-0.1,1.2-0.1l-0.3,1.7c0.5-0.1,1-0.1,1.5,0
	c-0.4,3.3-3,18.9-3,18.9s-0.8,7.1-2.2,9.5s-1.5,15.2-1.5,15.2l-2.2,9.2c0,0,0.3,0.6,0.8,1.6s2.3,5.2,6.3,8.1
	c-0.2,1.4-0.6,2.9-1.1,4.2c-0.9,2.1-1.2,4.3-1.1,6.5c0,0-2.3,10.5-2,13.5s-1.5,10.3-1.5,10.3l-2.5,23.7c0,0-1.6,20.5-0.8,26.1
	s-0.5,13.2-0.5,13.2s1.6,16.2,1.2,17.9s-2.5,9.4-1.2,13.6s0.5,15.8,0.5,15.8s0.8,15.2,1.8,20.1s-0.3,11.2-0.3,11.2s-1,10.5-1.4,10.5
	s-4,7.2,3.3,14.3s2.8,6,2.8,6s-5.8-2.8-5.1,3c0.7,5.6,1.5,4.1,1.6,4l-1.4,4.5l1,0.1c-0.3,0.3-0.5,0.6-0.8,1c-0.8,1-1.7,2-2.8,2.9
	c-1.7,1.2-1.8,3.9-1.8,3.9s-10.1,11-19.6,16.6c-5,2.9-9.3,5.4-11.1,7.5c-1.7,1.8-1.4,3.3,2.1,4.5c7.4,2.5,20.4,3.7,29.7,0.5
	c5.5-1.9,10.5-5.1,14.5-9.4c0,0,5.9-3,11.6-1.9s17.3-6.4,17.3-6.4l-0.2-1.9l-0.6-5.6c-0.8-0.9-1.2-2.2-1-3.4
	c0.1-1.6-0.1-3.3-0.5-4.9c-0.1-0.5-0.2-1.1-0.3-1.6l1-0.2c0,0-1.4-6.9,1.1-8.3s1.8-19.2,1.8-19.2s-3.1-4.1-4.8-4.8
	s-0.1-9.1,0.1-10.2s2.3-22.3,2.3-22.3s-0.8-6.7,0.3-9.5s-1.4-13.9-1.4-13.9s-0.8-1.4,0.7-3s1-16.2,1-16.2s-0.1-7.3-0.1-9.3
	s1.6-8.8,3.1-11.1s0.5-9.5,0.5-9.5l0.1-0.5c0-0.2,0.1-0.5,0.1-0.8l0.1-0.7c0.7-4,1.6-7.9,2.7-11.8c1.8-5.7,3.8-15.8,3.8-15.8
	l12.7-33.3l0.1-0.4c0,0,5.9,10.9,5.9,20.9c0,0,1.5,12.1,1.1,15.3s1.2,18.6,1.2,18.6s1.8,22,1.8,23s2.2,17.9,3.6,20.5
	s-1.4,10.5-2.2,11.3s0.3,20.8,0.3,20.8s-2,15.8-2.5,19s-2,15.8-0.7,20.7s0.8,5.6,0.8,5.6s4.9,5,2,5.4c-4.1,0.9-6.6,4.9-5.8,9
	c0.1,0.3,0.2,0.6,0.3,0.9c1.7,5,3.7,9.8,6,14.5l2.3-0.5v1.6l0.2,8.1c0,0,1,7.8,0.4,9.5c-0.6,3.5-0.9,7-1.1,10.6
	c-0.1,1.2-0.2,1.9-0.2,1.9s0,7.2,15.2,5s18-8.1,18-8.1s0-0.3,0.1-0.8c0.2-1.4,0.7-4.3,1.1-5.9c0.5-2.2-4.4-12-4.4-12
	s-0.8-6.7-2.2-8.2c-0.6-0.9-0.9-1.8-1.1-2.8c-0.1-0.5-0.2-1.1-0.3-1.7c0.4,0.1,0.7,0.1,1,0.2c0.5,0.1-0.8-4.8,2.3-6.3s2.3-4.6,1.9-6
	s1.2-9,1.2-9c-0.4-1.5,0-3.2,1.1-4.3c1.9-1.9,3.4-15.2,3.4-15.2l0.3-51.4c0,0,1-9.1-0.1-12.8s-2.2-10.7-0.7-12.6s0.1-10.7,0.1-10.7
	s0-18.6,2-23.2s1.4-33.8,1.4-33.8l0.5-19.2c0,0,4.5-4.2,3.4-26.3c4.8-0.3,10.2-0.5,11,0.2c1.5,1.2,11.2,7.5,17,3.5
	c1.2-0.5,6.8-5.3,6.8-5.3l-2.4-40.8c1.5,2.3,2.4,3.8,2.4,3.8c0-5.7,16.2-24.2,16.2-24.2s15-19.4,18.3-21.8s9.7-14.5,9.7-14.5
	c1-2.3,2.1-4.6,3.3-6.8C1042.4,477.6,1037.4,471.1,1038,469.6L1038,469.6z M1002.7,483.9c-4.1,0.4-12.7,9.8-12.9,11.8
	c-0.3,1.3-0.9,2.6-1.8,3.7c-0.1-0.8-0.1-1.7-0.2-2.5c-1-12-2-26.6-1.5-28.1c0.8-2.4,0.5-13.5,0.5-13.5l0.2-0.2
	c2.8,8.5,11.3,18.6,11.3,18.6s1.5,4.4,3.3,4.5S1002.7,483.9,1002.7,483.9z"/>
<path class="st10" d="M783.3,480.8c0,0,5-26.2,21-26.3l11.7,24.1l-7.8,5.4C808.2,484,791.2,484.5,783.3,480.8L783.3,480.8z"/>
<path class="st5" d="M816,478.6l-7.8,5.4c0,0-12,0.4-20.5-1.7c-1.5-0.4-3-0.9-4.5-1.5c0,0,0-0.1,0.1-0.4c0,0,0-0.1,0-0.1
	c0.7-3.3,1.7-6.5,3-9.6c0.5-1.2,1-2.4,1.7-3.6c2.3-4.5,5.7-9,10.2-11.1c1.7-0.8,3.5-1.3,5.3-1.4h0.7l0.3,0.5l4,8.2L816,478.6z"/>
<path class="st10" d="M949.3,587.3c0,0,16.9-1.6,18.3-0.4s11.1,7.4,16.7,3.5s1.9-17.5,1.9-18.1s-0.5-19.8-0.5-19.8l-10.1-13.6
	L962.9,515l-25.9-2.6l0.7,37.9l-0.1,19.4L949.3,587.3z"/>
<path class="st5" d="M949.3,587.3c0,0,16.9-1.6,18.3-0.4s11.1,7.4,16.7,3.5s1.9-17.5,1.9-18.1s-0.5-19.8-0.5-19.8l-10.1-13.6
	L962.9,515l-25.9-2.6l0.7,37.9l-0.1,19.4L949.3,587.3z"/>
<path class="st13" d="M800.9,453.8c0,0-1.3,16.5-11.6,16.7c0,0-2.9-1.8-6.8-4.7c-9-6.8-23.3-19.7-19.3-31.8
	c5.7-17.3,33.2,14.6,33.2,14.6l2.1,2.4L800.9,453.8z"/>
<path class="st5" d="M800.9,453.8c0,0-1.3,16.5-11.6,16.7c0,0-2.9-1.8-6.8-4.7l-0.9-1.1c1.7,0.9,3.7,1.4,5.6,1.5
	c3.2,0.1,6.1-1.7,7.3-4.6c1.1-2.1,2-4.3,2.8-6.5c0.5-1.3,0.8-2.7,1-4L800.9,453.8z"/>
<path class="st14" d="M796.4,483.6l-2.3-3l-7.8-10l-4-5.1c1.7,0.9,3.7,1.4,5.6,1.5c3.2,0.1,6.1-1.7,7.3-4.6c1.1-2.1,2-4.3,2.8-6.5
	c1.3-3.6,1.3-5.5,0.8-6.1s2.9,2.4,4.5,4l0.1,0.1l0.8,0.7l0.3,0.5l3.9,7.8v0.3C808.8,465.6,810.2,481.3,796.4,483.6L796.4,483.6z"/>
<path class="st10" d="M877.3,830.8c0,0-11.3,7.4-17,6.3s-11.5,1.9-11.5,1.9c-3.9,4.3-8.8,7.5-14.3,9.3c-9.2,3.1-22,1.9-29.3-0.5
	c-3.5-1.2-3.7-2.6-2.1-4.5c1.8-2,6.1-4.5,11-7.4c9.3-5.5,19.3-16.4,19.3-16.4s0.1-2.7,1.8-3.9c1-0.9,1.9-1.8,2.7-2.8
	c1.5-1.7,2.8-3.5,2.8-3.5l33.3,1.1c0,0,0.6,2.4,1,4.8c0.4,1.6,0.5,3.2,0.5,4.9c-0.2,1.2,0.2,2.4,1,3.4l0.6,5.5L877.3,830.8z
	 M947,840.1c-0.4,1.6-0.9,4.5-1.1,5.9c-0.1,0.5-0.1,0.8-0.1,0.8s-2.7,5.9-17.7,8.1s-15-5-15-5s0.1-0.8,0.2-1.9
	c0.2-3.5,0.6-7,1.2-10.5c0.5-1.8-0.4-9.5-0.4-9.5l-0.2-8l-0.1-5.6l24.8-2.6c0.2,1.9,0.4,3.7,0.8,5.5c0.2,1,0.5,2,1.1,2.8
	c1.4,1.5,2.2,8.1,2.2,8.1S947.6,837.9,947,840.1L947,840.1z"/>
<path class="st5" d="M874,810.3c0,0,0.6,2.4,1,4.8c-3.6,0.7-19.3,3.4-23.3,1.5c-4.5-2.2-14-3.4-14-3.4l0.2-0.5
	c1.5-1.7,2.8-3.5,2.8-3.5L874,810.3z M939.4,817.3c-6.3-1.1-20.1,1.5-25.5,2.6l-0.1-5.6l24.8-2.6
	C938.8,813.6,939.1,815.5,939.4,817.3L939.4,817.3z"/>
<path class="st15" d="M953.5,612.8l-0.5,19c0,0,0.7,29-1.3,33.6s-2,23.1-2,23.1s1.3,8.8-0.1,10.7s-0.4,8.9,0.7,12.5
	s0.1,12.7,0.1,12.7l-0.3,51c0,0-1.5,13.2-3.4,15.1c-1.1,1.1-1.5,2.8-1.1,4.3c0,0-1.6,7.5-1.2,8.9s1.2,4.5-1.9,5.9s-2.3,6.2-2.3,6.2
	c-7.4-1.8-28.5,3-28.5,3c-2.3-4.7-4.3-9.5-5.9-14.4c-1.4-3.9,0.6-8.2,4.5-9.6c0.3-0.1,0.6-0.2,0.9-0.3c2.8-0.4-2-5.4-2-5.4
	s0.5-0.7-0.8-5.5s0.3-17.3,0.7-20.5s2.4-18.9,2.4-18.9s-1.1-19.8-0.3-20.6s3.5-8.6,2.2-11.2s-3.5-19.4-3.5-20.4s-1.8-22.8-1.8-22.8
	s-1.6-15.2-1.2-18.4s-1.1-15.3-1.1-15.3c0-10-5.8-20.8-5.8-20.8l-0.2,0.4l-12.5,32.9c0,0-2,10-3.8,15.6c-1.1,3.9-2,7.8-2.6,11.7
	l-0.1,0.7c0,0.3-0.1,0.6-0.1,0.8l-0.1,0.5c0,0,0.9,7.2-0.5,9.5s-3.1,9.2-3.1,11.1s0.1,9.2,0.1,9.2s0.5,14.4-0.9,16
	c-0.9,0.7-1.2,2-0.7,3c0,0,2.4,10.9,1.3,13.8s-0.3,9.4-0.3,9.4s-2.2,20.9-2.4,22s-1.8,9.4-0.1,10.1s4.7,4.7,4.7,4.7s0.7,17.7-1.8,19
	s-1.1,8.2-1.1,8.2s-19.6,3.8-24,1.6s-14-3.4-14-3.4l1.3-4.4c-0.1,0.2-1,1.6-1.6-3.9c-0.7-5.8,5-3,5-3s4.5,1.1-2.7-5.9
	s-3.6-14.2-3.2-14.2s1.3-10.4,1.3-10.4s1.2-6.2,0.3-11.1s-1.8-20-1.8-20s0.7-11.5-0.5-15.7s0.8-11.7,1.2-13.5s-1.2-17.8-1.2-17.8
	s1.3-7.5,0.5-13.1s0.8-25.9,0.8-25.9l2.4-23.5c0,0,1.8-7.3,1.5-10.3s2-13.3,2-13.3c-0.1-2.2,0.2-4.4,1.1-6.5
	c1.3-2.7,1.9-11.6,1.9-11.6l12.9-29.7l6.4-26.1l85.7-0.8c0,0,0.3,2.3,0.8,6.4s1.3,10.2,2.1,17.8c0.8,6.8,1.6,14.9,2.4,23.9
	C958.9,607.7,953.5,612.8,953.5,612.8L953.5,612.8z"/>
<path class="st13" d="M945.5,376.6l-20,21.3c0,0-25.6-10.3-22.9-13.8c1-1.4,0.9-5.6,0.3-10.4c-1-7.5-3-16.1-3-16.1s44.8-7.3,41,0.3
	c-1.4,2.8-1.1,6-0.3,9C941.7,370.4,943.4,373.7,945.5,376.6z"/>
<path class="st5" d="M941,358c-1.4,2.8-2,3-1.2,6c-5.8,6.3-13.3,13.1-22.6,13.1c-5,0-9.9-1.2-14.3-3.4c-1-7.5-3-16.1-3-16.1
	S944.7,350.4,941,358L941,358z"/>
<path class="st13" d="M949.3,344.2c0,17.7-14.4,32.1-32.1,32.1c-17.7,0-32.1-14.4-32.1-32.1v-0.5c0.4-17.7,15.1-31.8,32.8-31.4
	C935.3,312.8,949.2,326.9,949.3,344.2L949.3,344.2z"/>
<path class="st5" d="M954,556c-4.3,0-18.4,0.2-34.2,0.4h-0.2l-5.2,0.1h-0.2c-18.8,0.3-37.3-3.4-44.7-2.7
	c-15.8,1.5,5.7-14.6,5.7-14.6c11.8,2.9,23.9,4.1,36,3.6l4.5-0.2c14.3-0.8,28.8-2.2,36.3-4.4C952.4,542.4,953.2,548.5,954,556
	L954,556z"/>
<path class="st16" d="M954,555.2c-4.3,0-18.4,0.2-34.2,0.4h-0.2l-5.2,0.1h-0.2c-18.8,0.3-37.3-3.4-44.7-2.7
	c-15.8,1.5,5.7-14.6,5.7-14.6c11.8,2.9,23.9,4.1,36,3.6l4.5-0.2c14.3-0.8,28.8-2.2,36.3-4.4C952.4,541.6,953.2,547.7,954,555.2
	L954,555.2z"/>
<path class="st5" d="M908.6,385.5l-24.8,11.6l-19.2,148.1c0,0,11.3-5.1,17.8-1.9s26.4,0.3,26.4,0.3s14.6-0.8,16.7,0.8
	s27.5-6.8,27.5-6.8s4.6-10.3,1.1-11.9s1.1-17.5,1.1-17.5l-2.2-106.8l-4.3-13.8l-11.6-7l-11.9,9.4l-5.7,0.8L908.6,385.5z"/>
<path class="st14" d="M908.6,383.9l-24.8,11.6l-19.2,148.1c0,0,11.3-5.1,17.8-1.8s26.4,0.3,26.4,0.3s14.6-0.8,16.7,0.8
	s27.5-6.7,27.5-6.7s4.6-10.3,1.1-11.9s1.1-17.5,1.1-17.5l-2.2-106.8l-4.3-13.8l-11.6-7l-11.9,9.4l-5.7,0.8L908.6,383.9z"/>
<path class="st5" d="M908.2,390.8c0,0,7.2,8.5,7,10.3s-0.4,5.9-0.4,5.9l-5.3,11c0,0-3,13.6-3,16.5s-4.7,27.4-4.7,27.4l-5.7,37.8
	l-7.2,49.5l7.3,12.5l8.6-7.3l11.5-88.2l2.4-17.4c0,0,2.6-31.3,2.6-34.5s-1.5-11.7-1.5-11.7s1.8-8.1,9-10s-0.5-0.4-0.5-0.4l-4.2-3.4
	l-3.6,1.5C920.4,390.1,910.3,387,908.2,390.8L908.2,390.8z"/>
<path class="st15" d="M907.4,390c0,0,7.2,8.5,7,10.3s-0.4,5.9-0.4,5.9l-5.4,10.9c0,0-3,13.6-3,16.5s-4.7,27.4-4.7,27.4l-5.7,37.8
	l-7.2,49.5l7.3,12.6l8.6-7.3l11.5-88.2l2.4-17.4c0,0,2.6-31.3,2.6-34.5s-1.5-11.7-1.5-11.7s1.8-8.1,9-10s-0.5-0.4-0.5-0.4l-4.2-3.4
	l-3.6,1.5C919.6,389.3,909.5,386.2,907.4,390L907.4,390z"/>
<path class="st5" d="M902.6,375.8c0,0-1.1,0.8-1.3,6.2s-4,17.5-4,17.5s14-9.7,21-8.6L902.6,375.8z"/>
<path class="st14" d="M902.6,374.2c0,0-1.1,0.8-1.3,6.2s-4,17.5-4,17.5s14-9.7,21-8.6L902.6,374.2z"/>
<path class="st5" d="M941,371.5l-22.1,19.4c0,0,18.6,11.1,21,13.8s4.9-26.4,4.9-26.4L941,371.5z"/>
<path class="st14" d="M941.8,369.9l-22.1,19.4c0,0,18.6,11.1,21,13.8s4.9-26.4,4.9-26.4L941.8,369.9z"/>
<path class="st5" d="M903.4,375.8c0,0-2.4-1.2-4.7,2.3c-1.7,2.3-4,4.1-6.6,5.1c0,0-24.5,3.9-25.5,7.1l-11.5,0.7c0,0-4,0.5-4.5,9
	s-2.6,9.3-2.6,9.3s-4.7,8.4-4.3,12.8s-3.6,6.5-3.6,6.5l16.9,43.8c0,0,0.5,18.1-2.6,24.7s-8.9,35.9-8.9,35.9s2.4-0.5,2.3,1.1
	s-3,19.3-3,19.3s-0.8,7-2.2,9.4s-1.5,15.1-1.5,15.1l-2.2,9.2c0,0,5.1,11.5,13,9.8s22-32.2,22-32.2l9-33l7-32.6l2-22.1l3.2-49
	l4.7-32.4C900,395.5,905.3,378.1,903.4,375.8L903.4,375.8z"/>
<path class="st10" d="M902.6,374.2c0,0-2.4-1.2-4.7,2.3c-1.7,2.3-4,4.1-6.6,5.1c0,0-24.5,3.9-25.5,7.1l-11.5,0.7c0,0-4,0.5-4.5,9
	s-2.6,9.3-2.6,9.3s-4.7,8.4-4.3,12.7s-3.6,6.5-3.6,6.5l16.9,43.8c0,0,0.5,18.1-2.6,24.7s-8.9,35.9-8.9,35.9s2.4-0.5,2.3,1.1
	s-3,19.3-3,19.3s-0.8,7-2.2,9.5s-1.5,15.1-1.5,15.1l-2.2,9.2c0,0,5.1,11.5,13,9.8s22-32.2,22-32.2l9-33l7-32.6l2-22.1l3.2-49
	l4.7-32.4C899.2,393.9,904.5,376.5,902.6,374.2L902.6,374.2z"/>
<path class="st5" d="M816,478.6l-7.8,5.4c0,0-12,0.4-20.5-1.7l-4.4-1.9l-0.9-0.4l0.9,0.3c4.5,1.3,8,1.3,10.8,0.4
	c11.1-3.7,9.8-22,9.4-26.1c0-0.4-0.1-0.7-0.1-0.8c0,0,0,0.1,0.1,0.1c0.2,0.2,0.3,0.5,0.5,0.7c0.2,0.2,0.3,0.4,0.5,0.5l3.9,7.8v0.3
	L816,478.6z"/>
<path class="st10" d="M843.2,425.9l-3.8,1.1l-0.5,7.7c0,0-4.5-0.7-5.7,4.6s-3.4,7.7-3.4,7.7s-7.4,6.2-7.8,11.5l-4.5,2.8
	c0,0-10.7-2.4-13.1-6.7c0,0,4.8,34.8-21,26.3c0,0,29,12.7,30.3,14.4s10.3,6.9,18.3,2.6s9.8-10.9,9.8-10.9s7.8-10.9,8.1-12.5
	s6.3-3.5,6.3-3.5l11.5-28L843.2,425.9z"/>
<path class="st5" d="M937.8,387.7l3.9-17.8c0,0,1.8,5.8,3.5,7.1l5.8,4.5c0,0,5.8,2.7,7.8,2.7s13,2.8,14.3,4.3s6.8,0.4,6.8,0.4
	s4.5,1.5,8.4,2.4s5.8,7.4,5,10c-0.7,2.6,0,5.3,1.9,7.3c1.6,1.6,2.4,6.9,2.4,6.9c2,0.7,3.6,2.1,4.6,3.9c1.3,3,1,9.5,1,9.5l-20.1,28.3
	c0,0,0.3,10.9-0.5,13.4s2.8,43.7,2.8,43.7l4.2,71c0,0-5.5,4.7-6.7,5.3s-2.4-25.1-2.4-26s-31.2-46.7-31.2-46.7s-4.2-6.7-4.2-8.2
	s-3.9-15.1-3.9-15.1l-5.9-26.3L937.8,387.7z"/>
<path class="st10" d="M1004.8,427.3v1.5l-20.1,28.3c0,0,0.3,10.9-0.5,13.4c-0.5,1.4,0.6,15.9,1.5,27.9c0.7,8.6,1.3,15.9,1.3,15.9
	l1.8,30.1l2.4,40.9c0,0-5.5,4.7-6.7,5.3s-2.4-25.1-2.4-26s-31.2-46.6-31.2-46.6s-4.2-6.8-4.2-8.2s-3.9-15.1-3.9-15.1l-5.9-26.3
	l2.7-80.4l2.3-17.8c0,0,3.4,5.8,5.1,7.1s5.8,4.5,5.8,4.5s5.8,2.7,7.8,2.7s13,2.8,14.3,4.3s6.8,0.4,6.8,0.4s4.5,1.5,8.4,2.4
	s5.8,7.4,5,10c-0.7,2.6,0,5.3,1.9,7.3c1.6,1.6,2.4,6.9,2.4,6.9c2,0.7,3.6,2.1,4.6,3.9C1004.8,421.4,1004.8,425.2,1004.8,427.3
	L1004.8,427.3z"/>
<path class="st5" d="M839.9,786.7c0.7,0,29,1.1,28.5,5.7S839.9,786.7,839.9,786.7z M846.3,794.4c0,0,19,3.1,14,5.9
	S846.3,794.4,846.3,794.4z M916.9,783.8c0,0,31.6,2.7,26.8,6.2s-15.9,4-16.5,4.2S916.9,783.8,916.9,783.8L916.9,783.8z M913.2,797.6
	c0,0,17.5,3,18.1,6.3S913.2,797.6,913.2,797.6z M922.9,716.4c0,0,16,3.8,17,6.3L922.9,716.4z M861,728c0,0-8.4,2.4-0.3,7.3
	S861,728,861,728z M898.1,598.4c0.9,0,15.6-4.9,20.8-2.7c3.7,1.4,7.6,2.1,11.5,2.2L898.1,598.4z M900,613.8l-0.2,1.3L887.3,648
	c0,0-2,10-3.8,15.6c-1.1,3.9-2,7.8-2.6,11.7l11.1-69L900,613.8z"/>
<path class="st15" d="M919.5,555.6l-5.2,0.1h-0.2l-3.1-13.6l4.5-0.2L919.5,555.6z"/>
<path class="st13" d="M983.2,539.2l-3.3,2.8l-11.2,9.2c0,0-30.4,16.2-38.7,0.8c-7.4-13.5,27-23.2,35.3-25.3l1.8-0.4L983.2,539.2z"/>
<path class="st5" d="M853.5,406.6c0,0,5.9,2.7,7.3,6.5S853.5,406.6,853.5,406.6z M835.2,447c0,0-8.6,10.5-5.1,14.6
	S835.2,447,835.2,447z M989.5,412.5c0,0-8.1,0.8-8.4,7.8L989.5,412.5z M914.5,523.1c0.8-0.8,19.4-28.3,23.7-25.9L914.5,523.1z
	 M949.3,344.2c0,5.3-1.3,10.5-3.8,15.2h-0.2c-2-0.4-3.1-2.8-4.7-4.3c-2-1.9-4.9-2.3-7.3-1c-2.4,1.4-3.8,4.1-3.6,6.9
	c-1-4.3-0.7-8.9-1.7-13.2s-4-8.7-8.2-8.8c-1.8,0-3.9,0.7-5.2-0.7c-0.8-0.8-0.9-2.1-1.5-3c-3-4.8-12-2.4-15.6,0.1s-7.9,6.4-12.5,8.5
	c0.4-17.7,15.1-31.8,32.8-31.4C935.3,312.9,949.2,327,949.3,344.2L949.3,344.2z"/>
<path class="st15" d="M913.2,334.4c0.6,1,0.7,2.3,1.5,3c1.3,1.3,3.4,0.6,5.2,0.7c4.1,0.1,7.2,4.5,8.2,8.8s0.7,8.9,1.7,13.3
	c-0.2-2.8,1.2-5.5,3.6-6.9c2.4-1.3,5.3-0.8,7.3,1c1.6,1.5,2.6,3.9,4.7,4.3s4-1.5,4.7-3.7s0.7-4.5,1.2-6.7c0.9-4.2,3.7-7.7,5.2-11.7
	c1.8-4.9,1.8-10.2-0.1-15.1c-1-2.5-2.5-4.8-3.5-7.3c-1.5-3.9-2-8.2-3.8-11.9c-3.2-6.1-10.7-9.2-16.8-6.9c-2.9,1.1-5.5,3.2-8.5,4.2
	c-4,1.3-8.3,0.3-12.4-0.3s-8.7-0.6-12,2.1c-3.8,3.1-4.9,9-8.5,12.4c-1.5,1.4-3.4,2.4-5,3.7s-3,3.3-2.8,5.5c0.2,2.8,3,5.3,2,7.9
	c-0.4,0.8-0.9,1.4-1.5,2c-3,3.1-5.2,7-6.5,11.1c7.2,2.3,15-5.7,20.7-9.5C901.3,332,910.3,329.6,913.2,334.4L913.2,334.4z"/>
<path class="st5" d="M983.2,539.2l-3.3,2.8c-3-4.9-15.1-14.8-15.1-14.8l0.5-0.5l1.8-0.4L983.2,539.2z"/>
<path class="st14" d="M986.4,534.2c0,0-1.2,3-2.5,5.6s-2.6,5-2.7,3c-0.1-3.8-15.8-16.5-15.8-16.5l2.1-2.1l2.5-2.4L986.4,534.2z"/>
<path class="st5" d="M987,514.2l1.8,30.1c-4.2-6.5-15.7-23.2-23.1-22.7l17.9-20.6c0.7-0.8,1.4-1.7,2-2.6
	C986.3,506.9,987,514.2,987,514.2L987,514.2z"/>
<path class="st5" d="M986.4,534.2c0,0-1.2,3-2.5,5.6c-4.7-6.5-11.2-14.1-16.3-15.5l2.5-2.4L986.4,534.2z"/>
<path class="st10" d="M999.9,425l4.9,3.8c0,0,8.1,0.1,8.9,6.9s8.2,9.8,8.2,9.8s5.5,5.5,5.5,8.1s4.2,7.1,4.2,7.5s4,8.6,3.5,10.1
	s4.3,8,2.8,10.4c-1.2,2.2-2.3,4.4-3.2,6.8c0,0-6.3,12.1-9.6,14.4s-18.1,21.6-18.1,21.6s-15.9,18.3-15.9,24c0,0-15.5-25.9-24.7-25.2
	l18-20.6c0,0,3.1-3.4,3.2-5.4s8.6-11.3,12.7-11.7c0,0,0.7-5.5-1.1-5.7s-3.2-4.5-3.2-4.5s-11.9-14-12-22.9S999.9,425,999.9,425
	L999.9,425z"/>
<path class="st5" d="M1007,437.9c0,0-11.3,8.4-8.9,11.1S1007,437.9,1007,437.9z M1007.6,472.4c0,0,21-6.8,23.2,0H1007.6z
	 M877.3,830.8c0,0-11.3,7.4-17,6.3s-11.5,1.9-11.5,1.9c-3.9,4.3-8.8,7.5-14.3,9.3c-9.2,3.1-22,1.9-29.3-0.5
	c-3.5-1.2-3.7-2.6-2.1-4.5c7.9,1.6,25.6,4.7,30.4,2.4c6.2-3,15.1-9.4,15.1-9.4s11.6-1.5,13.2-1.5c1.2,0,10.1-3.7,15.2-5.8
	L877.3,830.8z M945.9,846c-0.1,0.5-0.1,0.8-0.1,0.8s-2.7,5.9-17.7,8.1s-15-5-15-5s0.1-0.8,0.2-1.9C918,849.7,928.4,851.7,945.9,846
	L945.9,846z M859.1,436.2c0,0,0,30.8-2.6,33.8S859.1,436.2,859.1,436.2z M980.8,446.1l3.9,11C984.7,457.1,986.2,446.4,980.8,446.1z"
	/>
<g class="st17">
	<path d="M885.4,328.2c1-2.5-1.6-5-1.9-7.7c-0.3,0.8-0.5,1.6-0.4,2.4c0.2,2,1.7,4,2.1,5.8C885.2,328.6,885.3,328.4,885.4,328.2
		L885.4,328.2z M930.1,357.3c-1-4.3-0.7-8.8-1.7-13s-4-8.7-8.2-8.8c-1.8,0-3.9,0.7-5.2-0.7c-0.8-0.8-0.9-2.1-1.5-3
		c-3-4.8-11.9-2.4-15.6,0.1c-5.5,3.7-13.1,11.3-20.2,9.6c-0.3,0.8-0.7,1.6-0.9,2.5c7.2,2.3,15-5.7,20.7-9.5
		c3.7-2.5,12.7-4.9,15.6-0.1c0.6,1,0.7,2.3,1.5,3c1.3,1.3,3.4,0.6,5.2,0.7c4.1,0.1,7.2,4.5,8.2,8.8s0.7,8.9,1.7,13.3
		C929.7,359.2,929.8,358.2,930.1,357.3L930.1,357.3z M950.4,352.2c-0.7,2.1-2.7,4.1-4.7,3.7s-3.1-2.8-4.6-4.3c-2-1.8-4.9-2.3-7.3-1
		c-2.3,1.4-3.7,3.9-3.6,6.5c0.5-1.6,1.7-3,3.2-3.9c2.4-1.3,5.3-0.8,7.3,1c1.6,1.5,2.6,3.9,4.7,4.3s4-1.5,4.7-3.7
		c0.4-1.3,0.6-2.6,0.7-3.9C950.7,351.4,950.6,351.8,950.4,352.2L950.4,352.2z M956.8,333.9c-1.5,4-4.3,7.5-5.2,11.7
		c-0.2,0.9-0.3,1.7-0.4,2.6c0.9-4.2,3.7-7.6,5.2-11.6c0.7-1.8,1.1-3.7,1.3-5.6C957.4,331.9,957.1,332.9,956.8,333.9z"/>
</g>
</svg>
