<?xml version="1.0" encoding="utf-8"?>
<!-- Generator: Adobe Illustrator 22.1.0, SVG Export Plug-In . SVG Version: 6.00 Build 0)  -->
<svg version="1.1" id="图层_1" xmlns="http://www.w3.org/2000/svg" xmlns:xlink="http://www.w3.org/1999/xlink" x="0px" y="0px"
	 viewBox="0 0 1145.6 819.9" style="enable-background:new 0 0 1145.6 819.9;" xml:space="preserve">
<style type="text/css">
	.st0{opacity:0.1;}
	.st1{fill:url(#SVGID_1_);}
	.st2{fill:#FFFFFF;}
	.st3{opacity:4.000000e-02;fill:#FFFFFF;}
	.st4{fill:#5A5773;}
	.st5{opacity:0.2;}
	.st6{opacity:0.1;fill:#5A5773;}
	.st7{opacity:0.1;}
	.st8{}
	.st9{fill:url(#SVGID_2_);}
	.st10{fill:#C37098;}
	.st11{fill:#3F3D56;}
	.st12{opacity:0.1;stroke:#FF6347;stroke-miterlimit:10;}
	.st13{opacity:0.1;}
	.st14{fill:#535461;}
	.st15{fill:#9D9CB5;}
	.st16{stroke:#535461;stroke-width:2;stroke-miterlimit:10;}
</style>
<path class="st0" d="M1127.4,551.2c-26.6,54.8-80.5,91.5-136.4,115.6c-75.3,32.5-158.2,45.5-239.9,40c-14.3-1-28.6-2.5-42.8-4.6
	c-49.5-7.2-97.7-21.3-143.3-41.7c-13.2-5.9-26.1-12.4-38.7-19.4c-21.1-11.7-41.3-24.9-60.5-39.5c-4.8-3.7-9.6-7.5-14.3-11.3
	c-3.3-2.7-6.5-5.4-9.7-8.1c-6.9-5.6-14-10.9-21.9-14.9c-2.4-1.2-4.8-2.3-7.3-3.2c-25.1-9.5-54-5.9-80.1,1.5
	c-19.9,5.7-39.2,13.4-59.1,18.9c-8.8,2.5-17.8,4.4-26.9,5.7c-20.3,2.6-40.9,0.8-60.5-5.3l-1.7-0.5c-2.8-0.9-5.6-1.8-8.3-2.9
	l-1.7-0.6c-2.7-1-5.3-2.1-7.8-3.3l-1.7-0.8c-2.7-1.2-5.3-2.5-7.8-3.9c-0.9-0.5-1.8-1-2.7-1.5c-14.5-8.1-27.7-18.4-39.2-30.5
	c-0.3-0.3-0.6-0.7-1-1c-1.6-1.7-3.2-3.5-4.7-5.3c-0.6-0.7-1.1-1.3-1.7-2c-1.8-2.2-3.5-4.4-5.2-6.7c-0.3-0.3-0.5-0.7-0.7-1
	c-6.8-9.4-12.5-19.7-16.9-30.5c-0.1-0.3-0.3-0.7-0.4-1c-1.3-3.4-2.6-6.9-3.7-10.5c-0.4-1.5-0.9-3-1.3-4.5c-0.1-0.4-0.3-0.9-0.4-1.3
	c-5.5-21.7-6.2-44.3-6.2-66.8v-7.9c0.2-36.3,0.7-73.3,6.1-109.1c0-0.3,0.1-0.5,0.1-0.7c1.8-12.1,4.2-24,7.3-35.8
	c3.2-12.4,7.3-24.5,12.3-36.3c12.3-29,30.3-55.4,50.2-79.8C199.4,79.1,265.1,27.5,342.1,8.1C425-12.7,517.2,7.2,584.2,60.5
	c20.4,16.2,38.7,35.5,61.6,47.9c20,10.8,43.4,15.3,64.8,6.8c17.7-7.1,29.2-10.6,49.1-9.5c41.2,2.3,81.7,10.8,120.4,25.2
	c1.6,0.6,3.1,1.2,4.7,1.8C985.5,171.2,1072,247.8,1117,346.2c1.2,2.6,2.3,5.2,3.5,7.9C1147.3,416.7,1157,490.1,1127.4,551.2z
	 M120.3,714.6c48.8,0,88.3,6.3,88.3,14.2S169.1,743,120.3,743S32,736.6,32,728.8S71.5,714.6,120.3,714.6z M912.3,789.5
	c86.4,0,156.5,6.8,156.5,15.2s-70.1,15.2-156.5,15.2s-156.5-6.8-156.5-15.2S825.8,789.5,912.3,789.5z"/>
<linearGradient id="SVGID_1_" gradientUnits="userSpaceOnUse" x1="591.305" y1="173.92" x2="591.305" y2="712.25" gradientTransform="matrix(1 0 0 -1 0 820)">
	<stop  offset="0" style="stop-color:#808080;stop-opacity:0.25"/>
	<stop  offset="0.54" style="stop-color:#808080;stop-opacity:0.12"/>
	<stop  offset="1" style="stop-color:#808080;stop-opacity:0.1"/>
</linearGradient>
<path class="st1" d="M128.6,107.8H1054c6.9,0,12.5,5.6,12.5,12.5v513.4c0,6.9-5.6,12.5-12.5,12.5H128.6c-6.9,0-12.5-5.6-12.5-12.5
	V120.2C116.1,113.3,121.7,107.8,128.6,107.8z"/>
<path class="st2" d="M130.1,115.3h922.4c6.9,0,12.5,5.6,12.5,12.5v504c0,6.9-5.6,12.5-12.5,12.5H130.1c-6.9,0-12.5-5.6-12.5-12.5
	v-504C117.7,120.9,123.2,115.3,130.1,115.3z"/>
<path class="st2" d="M130.1,115.3h922.4c6.9,0,12.5,5.6,12.5,12.5v504c0,6.9-5.6,12.5-12.5,12.5H130.1c-6.9,0-12.5-5.6-12.5-12.5
	v-504C117.7,120.9,123.2,115.3,130.1,115.3z"/>
<path class="st3" d="M130.1,115.3h922.4c6.9,0,12.5,5.6,12.5,12.5v504c0,6.9-5.6,12.5-12.5,12.5H130.1c-6.9,0-12.5-5.6-12.5-12.5
	v-504C117.7,120.9,123.2,115.3,130.1,115.3z"/>
<path class="st4" d="M1060.3,109.3H122.5c-2.7,0-4.8,2.2-4.8,4.8v20.3H1065v-20.3C1065,111.4,1062.9,109.3,1060.3,109.3z"/>
<g>
	<circle class="st2" cx="136.6" cy="121.8" r="6.5"/>
	<circle class="st2" cx="154.1" cy="121.8" r="6.5"/>
	<circle class="st2" cx="171.6" cy="121.8" r="6.5"/>
</g>
<path class="st5" d="M195.7,181.7h254.3v21.6H195.7V181.7z"/>
<path class="st6" d="M195.7,268.2H987v332H195.7V268.2z"/>
<path class="st7" d="M659,289.9h-13.5v-26.3c0-29.7-23.7-54.4-53.4-54.8c-30-0.3-54.5,23.7-54.8,53.7c0,0.1,0,0.3,0,0.4v27h-13.5
	c-12.4,0-22.5,10.1-22.5,22.5v108.2c0,12.4,10.1,22.5,22.5,22.5H659c12.4,0,22.5-10.1,22.5-22.5V312.4
	C681.5,300,671.5,289.9,659,289.9z M599.3,360.2V399c0,4.3-3.3,7.8-7.5,8.1c-4.4,0.2-8.1-3.2-8.3-7.5c0-0.1,0-0.2,0-0.4v-39
	c-8.9-4.4-12.6-15.1-8.3-24.1c4.4-8.9,15.1-12.6,24.1-8.3s12.6,15.1,8.3,24.1C605.8,355.5,602.9,358.4,599.3,360.2L599.3,360.2z
	 M629.7,289.9H553v-27.1c0-21.2,17.2-38.3,38.3-38.3s38.3,17.2,38.3,38.3L629.7,289.9z"/>
<path class="st8" d="M659,287.9h-13.5v-26.3c0-29.7-23.7-54.4-53.4-54.8c-30-0.3-54.5,23.7-54.8,53.7c0,0.1,0,0.3,0,0.4v27h-13.5
	c-12.4,0-22.5,10.1-22.5,22.5v108.2c0,12.4,10.1,22.5,22.5,22.5H659c12.4,0,22.5-10.1,22.5-22.5V310.4
	C681.5,298,671.5,287.9,659,287.9z M599.3,358.2V397c0,4.3-3.3,7.8-7.5,8.1c-4.4,0.2-8.1-3.2-8.3-7.5c0-0.1,0-0.2,0-0.4v-39
	c-8.9-4.4-12.6-15.1-8.3-24.1c4.4-8.9,15.1-12.6,24.1-8.3s12.6,15.1,8.3,24.1C605.8,353.5,602.9,356.4,599.3,358.2L599.3,358.2z
	 M629.7,287.9H553v-27.1c0-21.2,17.2-38.3,38.3-38.3s38.3,17.2,38.3,38.3L629.7,287.9z"/>
<path class="st6" d="M906.9,236.3H987v18.9h-80.1V236.3z"/>
<linearGradient id="SVGID_2_" gradientUnits="userSpaceOnUse" x1="944.341" y1="-34.625" x2="944.341" y2="530.72" gradientTransform="matrix(1 0 0 -1 -26.97 779.96)">
	<stop  offset="0" style="stop-color:#808080;stop-opacity:0.25"/>
	<stop  offset="0.54" style="stop-color:#808080;stop-opacity:0.12"/>
	<stop  offset="1" style="stop-color:#808080;stop-opacity:0.1"/>
</linearGradient>
<path class="st9" d="M1014.3,809.3c-0.5-2.7-1.4-5.2-2.7-7.6l-12-17.9h0.1c0,0-1.9-9,0-13.4s-6.7-15.3-6.7-15.3s-1-2.7,1.7-6.1
	c2.7-3.4-1.7-13.2-1.7-13.2s-2.1-20.5-2.3-23.7s-1.9-20.5-1.9-20.5l-4-36.9l-7.1-97.8l-0.1-1.8c0.9-0.4,1.3-0.7,1.3-0.7l-1.4-54.1
	l1.2-1.1c10.7-9.7,35.5-32.2,35.3-32.7s-3-37.6-3.3-46.9c-0.3-6.6-1.7-13.1-4.3-19.2c-0.6-1.2-2.4-9.3-3.2-12.8
	c-0.2-0.9-0.3-1.5-0.3-1.5s-7.3-13.8-6.6-20.1s1.9-11-13.6-13.2c0,0-13-1.9-20.7-7.2c-4.6-3.2-9.6-5.7-14.9-7.4c0,0-4.3-8-7.4-5.3
	c-1.3-2.9-2.2-5.8-2.8-8.9l-0.1-0.6c5.7-4,9.9-9.9,11.6-16.7c0.1-0.4,0.2-0.8,0.3-1.1c0.3,0.1,0.6,0.2,0.9,0.2
	c2.6,0,4.3-2.9,6.7-3.9c1-0.4,2.2-0.5,3-1.2c0.5-0.6,0.8-1.4,0.7-2.2c0-0.3,0-0.5,0-0.8c0-0.1,0-0.2,0-0.3v0.1
	c-0.7-3.6-3.5-6.9-3.2-10.6c0.3-3.5,3.4-6.5,3.1-9.9c0-0.3,0-0.5-0.1-0.8v0.1c-0.4-1.3-1.1-2.5-2-3.5c-1.1-1.5-2.5-2.7-4.1-3.5
	c-1.4-0.6-3-0.8-4.3-1.5c-3.8-2.1-3.8-7.5-6.1-11.2c-2-3.1-5.6-4.9-9.3-4.6c-2.8,0.3-5.4,1.8-8.2,2.3c-3.8,0.7-7.8-0.6-11.4-2
	s-7.3-3-11.2-3s-8.1,2-9.3,5.7c-0.6,2-0.3,4.1-0.8,6.2c-0.9,3.6-4,6.1-7.3,7.9c-2,1.1-4.4,2.4-5,4.5v-0.2c0,0.2-0.1,0.3-0.1,0.5
	c0,0.2,0,0.4,0,0.7c0,1.4,0.8,2.8,1.3,4.2c1,2.6,0.9,5.5-0.1,8.1c-0.7,1.9-2,3.6-2.7,5.5c-0.3,0.9-0.6,1.8-0.7,2.7v-0.2
	c0,0.4,0,0.9,0,1.3c0,1.5,0.3,2.9,1,4.2c0.9,1.8,2.5,3.2,4.5,3.8c2,0.5,3.3-1.5,5.4-1c0.4,0.1,0.7,0.2,1.1,0.4
	c0.1,0.5,0.1,0.9,0.2,1.3c1.3,6.7,4.9,12.8,10.1,17.2c0,0.2,0.1,0.5,0.1,0.7c0.6,4,0.9,8,0.8,12.1c0,0-3.2-4.6-7.5,4.3
	c0,0-11.3,6.5-15.2,7.2s-17.7,5.5-17.7,5.5c-2.1,1.5-4.6,2.3-7.2,2.3c-4.3,0-7.9,9.4-7.4,14.6s-0.3,8.9-4.3,9.1s-1.8,8.3-1.8,8.5
	l-0.4,1.8c-0.8,3.6-2.5,11.3-3.1,12.5c-2.5,6.1-4,12.6-4.3,19.2c-0.3,9.3-3,46.2-3.3,46.9c-0.2,0.4,16.8,15.9,28.7,26.8l1.7,1.6
	l-5.5,51.3c0.3,4,2.4,7.7,5.6,10c0,0.6,0,1.2-0.1,1.8c-0.2,6-0.7,13.3-1.7,15.2c-1.7,3.4-1.3,21.4-1.3,21.4s-1.7,36.7-3.8,40.7
	s-2.5,12.4-1.9,14s-2.1,45.7-2.1,45.7l-2.1,19.7c0,0,0.6,18.9-1.3,19.3s-3,13.4-3,13.4s-6.7,9.2-3.8,12.6s-0.4,4.8-0.7,5.7
	s-6.4,4-2,15.7c0,0.1,0.1,0.2,0.1,0.3c-4.1,5.8-17.3,24.3-16.5,27.1c0.6,1.8,1.8,3.3,3.5,4.2c3.1,1.8,8.4,2.7,16.8,0
	c14-4.5,13-7.8,13-7.8c0.1-3.2,2.7-5.6,5.9-5.7c5.8-0.4,10.1-5.8,10.1-5.8l-0.7-2.5l-0.9-3.5c0.1-1,0.8-2.8,4-3.7
	c4.8-1.5,3.6-10.7,3.6-10.7s-0.4-9.6,1.7-10.9s1.3-17.2,1.3-17.2s2.3-11.5,5.7-19.3s7.4-53.9,7.4-53.9s2.7-22.6,5.3-29.1
	s4.8-24.7,4.8-24.7s15.6-30.2,15.8-36.9c0,0,2-6.3,4,0.6s7.6,23.5,7.6,23.5l5.5,20.3l6.5,30.4l4.2,25.6c0,0-0.6,9.6,1,13
	s4,11.1,2.7,12.6s2.5,8.4,3.6,9.8s0,32.5,0,32.5s4.8,26.4,11.8,31c0.5,0.3,1,0.6,1.5,0.8c-0.1,2.9-0.2,6.7-0.1,8.7
	c0,0.4,0.1,0.9,0.2,1.3c0.6,0.8,7.8,6.5,9.3,6.5s6.7,3.7,7,5.5s15.4,9.3,17.5,9.5s12.6,2.1,14-0.8
	C1014.4,811.1,1014.5,810.2,1014.3,809.3L1014.3,809.3z M977,431.6l1.1,0.9c0,0,1.1,8.6,1.9,11.2s-0.2,7.6-0.2,7.6
	c0.1,1.9,0.4,3.7,1.1,5.5c0.9,1.9-1.9,6-1.9,6h-2.5l-0.8-32.4L977,431.6z M901.8,334.9v-0.2C901.8,334.8,901.8,334.8,901.8,334.9
	L901.8,334.9z M863,459.5c-0.4-0.8-0.4-1.8-0.2-2.7c0.2-0.5,0.4-1,0.5-1.5c0.3-1.3,0.5-2.7,0.6-4c0,0,0,0,0,0
	c-0.1-0.5-0.9-5.1-0.2-7.6s1.9-11.2,1.9-11.2l0.7-0.6l1.7-1.5c0,0,0-0.5,0.1-1.4c0.3,7.6,0.6,16,0.2,16.4c-0.8,0.8-3.9,9-3.2,9.3
	c0.2,0.1-0.1,3.4-0.7,7.8C863.9,461.6,863.4,460.6,863,459.5L863,459.5z"/>
<path class="st10" d="M943.5,342.9v12.4L918,368.1c0,0-25.3-15.3-19.1-21.4c4-3.9,3.2-14.5,2.2-21.8c-0.6-4.2-1.4-7.4-1.4-7.4
	s45.5-13,38.6-3.1c-2.3,3.3-2.5,7.6-1.7,11.8C938.2,334.7,943.5,342.9,943.5,342.9L943.5,342.9z"/>
<path class="st11" d="M873.6,464.5l-3.3,40.5c0,0-4.9-4.5-11.3-10.3c-11.8-10.8-28.6-26.2-28.4-26.6c0.3-0.6,3-37.4,3.3-46.6
	c0.3-6.6,1.7-13,4.2-19.1c0.6-1.2,2.3-8.8,3-12.4c0.2-1.1,0.4-1.8,0.4-1.8l5.5-2.2c0,0,23,25.7,23,26.1s-1.6,20.2-1.6,20.2l-1.6,1.4
	l-0.7,0.6c0,0-1.1,8.6-1.9,11.2s0.1,7.1,0.2,7.5c-0.1,1.3-0.3,2.7-0.6,4c-0.1,0.5-0.3,1-0.5,1.5c-0.3,0.9-0.2,1.8,0.2,2.7
	c0.4,1.2,1,2.3,1.7,3.3L873.6,464.5z M1013,468.1c0.2,0.5-24.3,22.9-34.9,32.5l-4.8,4.4l-3.3-40.5h8.5c0,0,2.8-4.1,1.9-6
	c-0.7-1.8-1-3.6-1.1-5.5c0,0,0.9-5,0.2-7.6s-1.9-11.2-1.9-11.2l-1.1-0.9l-1.3-1.1c0,0-1.6-19.7-1.6-20.2s23-26.1,23-26.1l5.5,2.2
	c0,0,0.1,0.6,0.3,1.5c0.7,3.4,2.5,11.5,3.1,12.7c2.5,6.1,3.9,12.5,4.2,19.1C1010,430.7,1012.7,467.5,1013,468.1L1013,468.1z
	 M1013.1,812.1c-1.5,2.9-11.8,1-13.9,0.8s-17.2-7.7-17.4-9.5s-5.4-5.4-6.9-5.4s-8.5-5.6-9.2-6.5c-0.2-0.4-0.2-0.9-0.2-1.3
	c-0.2-3.4,0.2-12.3,0.2-12.3l30.3,1.7l14.7,22.1c1.2,2.4,2.1,4.9,2.7,7.6C1013.6,810.2,1013.5,811.2,1013.1,812.1L1013.1,812.1z"/>
<path class="st7" d="M1013.1,812.1c-1.5,2.9-11.8,1-13.9,0.8s-17.2-7.7-17.4-9.5s-5.4-5.4-6.9-5.4s-8.5-5.6-9.2-6.5
	c-0.2-0.4-0.2-0.9-0.2-1.3c-0.2-3.4,0.2-12.3,0.2-12.3l30.3,1.7l14.7,22.1c1.2,2.4,2.1,4.9,2.7,7.6
	C1013.6,810.2,1013.5,811.2,1013.1,812.1L1013.1,812.1z"/>
<path class="st7" d="M1013.1,812.1c-1.5,2.9-11.8,1-13.9,0.8s-17.2-7.7-17.4-9.5s-5.4-5.4-6.9-5.4s-8.5-5.6-9.2-6.5
	c-0.2-0.4-0.2-0.9-0.2-1.3l9.8,6.2c0,0,6.3,4,7.9,6.4s14.8,7.3,15.9,7.4c0.8,0.1,9.5-1.6,14.2-0.9
	C1013.6,810.2,1013.5,811.2,1013.1,812.1L1013.1,812.1z"/>
<path class="st11" d="M870.1,793.8c0,0-4.3,5.3-10,5.7c-3.1,0-5.7,2.5-5.8,5.6c0,0,1,3.2-12.8,7.7c-8.3,2.7-13.6,1.8-16.7,0
	c-1.6-0.9-2.9-2.4-3.5-4.2c-0.9-3.3,17.5-28.7,17.5-28.7l16.8-1l12,5.4l1.8,6.9L870.1,793.8z"/>
<path class="st7" d="M870.1,793.8c0,0-4.3,5.3-10,5.7c-3.1,0-5.7,2.5-5.8,5.6c0,0,1,3.2-12.8,7.7c-8.3,2.7-13.6,1.8-16.7,0
	c-1.6-0.9-2.9-2.4-3.5-4.2c-0.9-3.3,17.5-28.7,17.5-28.7l16.8-1l12,5.4l1.8,6.9L870.1,793.8z"/>
<path class="st8" d="M870.1,793.8c0,0-4.3,5.3-10,5.7c-3.1,0-5.7,2.5-5.8,5.6c0,0,1,3.2-12.8,7.7c-8.3,2.7-13.6,1.8-16.7,0
	c7.9-0.8,25.3-5.8,27-7.5c2.1-2.1,4.7-7.8,6.5-7.9c1.2-0.1,7.5-3.8,11.2-6.2L870.1,793.8z"/>
<path class="st7" d="M870.1,793.8c0,0-4.3,5.3-10,5.7c-3.1,0-5.7,2.5-5.8,5.6c0,0,1,3.2-12.8,7.7c-8.3,2.7-13.6,1.8-16.7,0
	c7.9-0.8,25.3-5.8,27-7.5c2.1-2.1,4.7-7.8,6.5-7.9c1.2-0.1,7.5-3.8,11.2-6.2L870.1,793.8z"/>
<path class="st11" d="M998.9,770.6c-1.9,4.4,0,13.3,0,13.3s-28,1.5-34.8-3.1s-11.7-30.9-11.7-30.9s1-30.9,0-32.3s-4.8-8.3-3.5-9.8
	s-1-9.2-2.7-12.5s-1-12.9-1-12.9l-4.2-25.5l-6.5-30.2l-5.5-20.2c0,0-5.6-16.5-7.5-23.4s-3.9-0.6-3.9-0.6
	c-0.2,6.7-15.6,36.7-15.6,36.7s-2.3,18.2-4.8,24.6s-5.2,29-5.2,29s-4,45.9-7.3,53.6s-5.6,19.2-5.6,19.2s0.8,15.9-1.3,17.1
	s-1.8,10.8-1.8,10.8s1.3,9.2-3.5,10.6s-4,4.6-4,4.6s-26.7,4.4-31.1-7.3s1.7-14.8,2-15.6s3.7-2.3,0.7-5.6s3.8-12.5,3.8-12.5
	s1-12.9,2.9-13.3s1.3-19.2,1.3-19.2l2.1-19.6c0,0,2.7-43.8,2.1-45.5s-0.2-10,1.9-14s3.8-40.5,3.8-40.5s-0.4-17.9,1.3-21.3
	c1-1.9,1.4-9.2,1.7-15.1c0.2-4.5,0.2-8.3,0.2-8.3l23.4-8.8l30-9.6l25.2,12.1l36.9,7.1l0.5,6.4l7,97.3l4,36.7c0,0,1.7,17.3,1.9,20.4
	s2.3,23.6,2.3,23.6s4.4,9.8,1.7,13.1s-1.7,6-1.7,6S1000.8,766.2,998.9,770.6L998.9,770.6z"/>
<path class="st7" d="M938.4,314.5c-2.3,3.3-2.5,7.6-1.7,11.8c-10.8,7.6-25.4,7.1-35.6-1.3c-0.6-4.2-1.4-7.4-1.4-7.4
	S945.3,304.6,938.4,314.5z"/>
<path class="st10" d="M949,301.7c0,16.2-13.1,29.3-29.3,29.3s-29.3-13.1-29.3-29.3s13.1-29.3,29.3-29.3l0,0
	c16.1-0.1,29.2,12.9,29.3,29C949,301.5,949,301.6,949,301.7z"/>
<path class="st8" d="M955.1,351.7l-9.6,170.9l-52.2-11L883,443.1l10.2-92l7.7,1l13.6,1.7l13.5,0.8l14.6-1.6L955.1,351.7z"/>
<path class="st11" d="M912.3,356.3l18.8,0.6l-5.3,7.4c0,0,0.4,14.9,2.9,19.2s1.8,70.4,1.8,70.4l-5,9.5l-8.5-10.6l0.1-87.3
	L912.3,356.3z"/>
<path class="st7" d="M912.3,356.3l18.8,0.6l-5.3,7.4c0,0,0.4,14.9,2.9,19.2s1.8,70.4,1.8,70.4l-5,9.5l-8.5-10.6l0.1-87.3
	L912.3,356.3z"/>
<path class="st7" d="M941.7,336.9l-17.5,19.4l10,10.4l16.6-16.2L941.7,336.9L941.7,336.9z M916.8,355.3L899,337.6l-1.7,9.3l8.1,20.3
	L916.8,355.3L916.8,355.3z"/>
<path class="st8" d="M941.7,335.6L924.1,355l10,10.4l16.6-16.2L941.7,335.6L941.7,335.6z M917.4,354.1l-17.7-17.7l-1.7,9.3l8.1,20.3
	L917.4,354.1L917.4,354.1z"/>
<path class="st7" d="M977.1,558.1c-8.5,4.1-17.6,6.7-27,7.8c-17.2,2.2-28.5-19.7-28.5-19.7l-6.6,8.5c-2.1,9.1-33.9,11.4-46.8,7.9
	c-2.7-0.7-5.2-1.9-7.4-3.5c0.2-4.5,0.2-8.3,0.2-8.3l23.4-8.8l30-9.6l25.2,12.1l36.9,7.1L977.1,558.1z M955.1,351.7l-9.6,170.9
	l-52.2-11L883,443.1l10.2-92l7.7,1c-0.2,3.4-0.6,6.7-1.1,10c-1.3,5.9,6.5,47.4,6.5,47.4s14.7,46.5,21.3,39.8s16-42.1,16-42.1
	c6.4-13.1,0.1-50-0.4-50.7c-0.3-1.1-0.5-2.2-0.6-3.4L955.1,351.7z M977.7,484l0.4,16.8l-4.8,4.4l-3.3-40.5h7.2L977.7,484z
	 M864.4,453.1c-0.1,1.3-0.3,2.7-0.6,4c0-0.4,0-0.6-0.1-0.6C863.5,456.4,863.8,454.8,864.4,453.1z M873.6,464.5l-3.3,40.5
	c0,0-4.9-4.5-11.3-10.3l0.8-7.2c0,0,2.7-17.6,3.7-26.3c0.4,1.2,1,2.3,1.7,3.3H873.6z"/>
<path class="st11" d="M901.9,337c0,0-3.1-4.6-7.4,4.3c0,0-11.2,6.5-15,7.2S862,354,862,354c-2.1,1.5-4.5,2.3-7.1,2.3
	c-4.3,0-7.8,9.4-7.3,14.5s-0.3,8.9-4.3,9.1s-1.8,8.4-1.8,8.4l26.4,30.3c0,0,1.7,27.9,0.8,28.7s-3.9,9-3.1,9.3s-4,31.1-4,31.1
	l-6.4,59.8c0,0,0,10,12.9,13.5s44.8,1.2,46.8-7.9l6.6-8.6c0,0,11.3,21.9,28.5,19.7s28.2-8.5,28.2-8.5l-1.9-71.6l-1.3-51.6l26.9-44.1
	c0,0-7.2-13.8-6.6-20s1.9-11-13.5-13.1c0,0-12.9-1.9-20.5-7.2c-4.5-3.1-9.5-5.6-14.7-7.4c0,0-4.3-8-7.3-5.3c0,0,3,11.3,2.8,13
	s0.5,9.3,0.9,10.1s6.7,37.6,0.4,50.7c0,0-9.3,35.4-16,42.1s-21.3-39.8-21.3-39.8s-7.7-41.5-6.5-47.4S901.9,337,901.9,337L901.9,337z
	"/>
<circle class="st11" cx="924.3" cy="469.1" r="4.6"/>
<circle class="st11" cx="924.3" cy="490.8" r="4.6"/>
<circle class="st7" cx="924.3" cy="469.1" r="4.6"/>
<circle class="st7" cx="924.3" cy="490.8" r="4.6"/>
<path class="st12" d="M965.5,764.3c0,0,18.8,1.5,20.7,2.9S965.5,764.3,965.5,764.3z M853.3,749.5c0,0,4,5,2.3,7.3
	S853.3,749.5,853.3,749.5z M858.1,767.5c0,0,7.3-4.8,10.2-1.6S858.1,767.5,858.1,767.5z"/>
<path class="st7" d="M949,301.7c0,2.5-0.3,5-0.9,7.4c-1.3-0.6-2-1.9-1.9-3.3c0.1-1.2,0.9-2.3,0.8-3.5c-0.3-1.8-2.5-2.6-3.6-4
	c-1.4-1.7-1.1-4.3-1-6.5s-0.5-5-2.6-5.8c-0.6-0.2-1.3-0.3-1.9-0.5c-1.7-0.7-2.2-2.8-3.3-4.2c-2.2-2.9-6.6-2.8-10-1.4
	c-1.5,0.7-3,1.3-4.5,1.9c-1.5,0.5-3.3,0.4-4.7-0.4c-0.7-0.4-1.2-1-1.9-1.4c-2.3-1.4-5.2,0-7.2,1.8s-3.5,4.1-6,5.2
	c-1.1,0.5-2.5,0.8-3,1.9c-0.3,0.6-0.4,1.2-0.3,1.9c0,3.9,0.5,7.8-0.3,11.6c-0.5,2.5-2.2,5.2-4.7,4.9c-0.3,0-0.6-0.1-0.9-0.2
	c-3-15.9,7.5-31.2,23.4-34.2c15.9-3,31.2,7.5,34.2,23.4C948.9,298.1,949,299.9,949,301.7L949,301.7z"/>
<path class="st11" d="M889.6,305.5c0.8,0.2,1.5,0.6,2.2,0.7c2.5,0.3,4.2-2.5,4.7-4.9c0.8-3.8,0.4-7.8,0.4-11.6
	c-0.1-0.6,0.1-1.3,0.3-1.9c0.6-1.1,1.9-1.4,3-1.9c2.4-1.1,4-3.4,6-5.2s4.9-3.1,7.2-1.8c0.7,0.4,1.2,1,1.9,1.4
	c1.5,0.8,3.2,0.9,4.7,0.4c1.5-0.5,3-1.3,4.5-1.9c3.3-1.4,7.8-1.4,10,1.4c1.1,1.4,1.6,3.5,3.3,4.2c0.6,0.3,1.3,0.3,1.9,0.5
	c2.1,0.8,2.7,3.5,2.6,5.8s-0.4,4.8,1,6.5c1.2,1.4,3.4,2.2,3.6,4c0.2,1.2-0.6,2.3-0.8,3.5c-0.1,1.8,1.3,3.4,3.1,3.5c0,0,0,0,0,0
	c2.6,0,4.2-2.9,6.6-3.8c1-0.4,2.2-0.5,3-1.2c0.6-0.8,0.8-1.8,0.6-2.7c-0.5-3.8-3.6-7.2-3.2-11c0.3-3.7,3.7-6.9,3-10.5
	c-0.4-1.3-1.1-2.6-2-3.6c-1.1-1.5-2.5-2.6-4.1-3.5c-1.4-0.6-3-0.7-4.3-1.5c-3.8-2.1-3.8-7.5-6-11.1c-2-3.1-5.5-4.9-9.1-4.5
	c-2.8,0.3-5.4,1.8-8.1,2.3c-3.8,0.7-7.7-0.6-11.3-2s-7.3-3-11.1-3s-8.1,2-9.2,5.7c-0.6,2-0.3,4.1-0.8,6.1c-0.8,3.6-4,6.1-7.2,7.9
	c-2.2,1.2-4.8,2.6-5.1,5.1c-0.2,1.6,0.7,3,1.3,4.5c0.9,2.6,0.9,5.4-0.1,8c-0.7,1.9-2,3.5-2.7,5.4c-1.1,2.6-1,5.5,0.3,8
	c0.9,1.8,2.6,3.2,4.6,3.8C886.3,307,887.5,305,889.6,305.5L889.6,305.5z"/>
<g class="st13">
	<path d="M896.6,299c-0.5,2.5-2.3,5.2-4.7,4.9c-0.8-0.1-1.5-0.5-2.2-0.7c-2.1-0.5-3.3,1.5-5.3,1c-2-0.6-3.6-1.9-4.6-3.8
		c-0.5-1-0.8-2.1-0.9-3.3c-0.2,1.8,0.1,3.6,0.9,5.1c0.9,1.8,2.6,3.2,4.6,3.8c2,0.5,3.2-1.5,5.3-1c0.7,0.3,1.5,0.5,2.2,0.6
		c2.5,0.3,4.2-2.5,4.7-4.9c0.4-2.2,0.6-4.4,0.5-6.6C897.1,295.9,896.9,297.5,896.6,299L896.6,299z M882.9,284
		c0.1-1.6-0.1-3.3-0.7-4.8c-0.5-1-0.8-2.1-1.2-3.2c0,0.2-0.1,0.3-0.1,0.5c-0.2,1.6,0.7,3,1.3,4.5C882.6,282,882.8,283,882.9,284
		L882.9,284z M959.3,278.7c-0.5,2.8-2.8,5.5-3,8.5c-0.1,0.5-0.1,1,0,1.5C956.8,285.2,959.9,282.2,959.3,278.7z M959.5,299.8
		c-0.1,0.4-0.3,0.8-0.6,1.1c-0.7,0.8-2,0.9-3,1.2c-2.4,0.9-4,3.9-6.6,3.8c-1.4-0.1-2.6-1-3-2.3c-0.1,0.2-0.1,0.4-0.1,0.7
		c-0.1,1.8,1.3,3.4,3.1,3.5c0,0,0,0,0,0c2.6,0,4.2-2.9,6.6-3.8c1-0.4,2.2-0.5,3-1.2c0.6-0.8,0.8-1.8,0.6-2.7
		C959.5,300,959.5,299.9,959.5,299.8z M946.9,299c-0.3-1.8-2.5-2.6-3.6-4c-0.7-0.9-1.1-2.1-1.1-3.3c-0.1,1.9,0,3.8,1.1,5.2
		s2.9,2,3.5,3.4C946.9,299.9,947,299.4,946.9,299L946.9,299z M942.3,288.5c0.1-2.3-0.5-5-2.6-5.8c-0.6-0.2-1.3-0.3-1.9-0.5
		c-1.7-0.7-2.2-2.8-3.3-4.2c-2.2-2.9-6.6-2.8-10-1.4c-1.5,0.6-2.9,1.4-4.5,1.9c-1.5,0.5-3.3,0.4-4.7-0.4c-0.7-0.4-1.2-1-1.9-1.4
		c-2.3-1.4-5.2,0-7.2,1.8s-3.5,4.1-6,5.2c-1.1,0.5-2.5,0.8-3.1,1.9c-0.3,0.6-0.4,1.2-0.3,1.9v1.2c0-0.4,0.1-0.8,0.3-1.2
		c0.6-1.1,1.9-1.4,3.1-1.9c2.4-1.1,4-3.4,6-5.2s4.9-3.1,7.2-1.8c0.7,0.4,1.2,1,1.9,1.4c1.5,0.8,3.2,0.9,4.7,0.4
		c1.5-0.5,3-1.2,4.5-1.9c3.3-1.4,7.8-1.4,10,1.4c1.1,1.4,1.6,3.5,3.3,4.2c0.6,0.3,1.3,0.3,1.9,0.5c1.7,0.6,2.4,2.6,2.5,4.5
		L942.3,288.5z"/>
</g>
<g class="st13">
	<path d="M893,299c0.1-3.4,2.5-6.3,5.8-7.2c4.5-1.1,9.1-0.9,13.5,0.6c9.5,3.1-1.2,14.4-1.2,14.4s-7.1,7-13.7,2.1
		c-2-1.5-3.3-3.6-3.9-6C893.2,301.6,893,300.3,893,299L893,299z M945.2,299c-0.1-3.4-2.5-6.3-5.8-7.2c-4.5-1.1-9.1-0.9-13.5,0.6
		c-9.5,3.1,1.2,14.4,1.2,14.4s7.1,7,13.7,2.1c2-1.5,3.3-3.6,3.9-6C945.1,301.6,945.2,300.3,945.2,299L945.2,299z"/>
	<path d="M910.5,291.5v0.5h17.3v-0.6L910.5,291.5z M916,296.5h0.5v-1.6c0,0,1.8-1.4,4.7,0v1.4h1v-0.9h-0.5c0,0,0.2-1.9-3.1-1.6
		c0,0-2.6-0.3-2.6,1.4h-0.6L916,296.5z"/>
</g>
<path class="st8" d="M893,298.3c0.1-3.4,2.5-6.3,5.8-7.2c4.5-1.1,9.1-0.9,13.5,0.6c9.5,3.1-1.2,14.4-1.2,14.4s-7.1,7-13.7,2.1
	c-2-1.5-3.3-3.6-3.9-6C893.2,301,893,299.7,893,298.3L893,298.3z M945.2,298.3c-0.1-3.4-2.5-6.3-5.8-7.2c-4.5-1.1-9.1-0.9-13.5,0.6
	c-9.5,3.1,1.2,14.4,1.2,14.4s7.1,7,13.7,2.1c2-1.5,3.3-3.6,3.9-6C945.1,301,945.2,299.7,945.2,298.3L945.2,298.3z M910.5,290.9v0.5
	h17.3v-0.6L910.5,290.9z M916,295.9h0.5v-1.6c0,0,1.8-1.4,4.7,0v1.4h1v-0.9h-0.5c0,0,0.2-1.9-3.1-1.6c0,0-2.6-0.2-2.6,1.4h-0.6
	L916,295.9z"/>
<path class="st14" d="M117.5,457.2h5.7v127.9h-5.7V457.2z"/>
<path class="st11" d="M158.8,584.7l-0.4,5.8l-0.5,8.1l-0.2,3.4l-0.5,8.1l-0.2,3.4l-0.5,8.1l-5.7,92.5c-0.5,8.3-7.4,14.7-15.6,14.7
	h-29.8c-8.3,0-15.1-6.4-15.6-14.7L84,621.6l-0.5-8.1l-0.2-3.4l-0.5-8.2l-0.2-3.4l-0.5-8.1l-0.4-5.8c-0.3-4.5,3.1-8.3,7.6-8.6
	c0.2,0,0.3,0,0.5,0h60.9c4.5,0,8.1,3.6,8.1,8.1C158.9,584.3,158.9,584.5,158.8,584.7L158.8,584.7z"/>
<path class="st15" d="M158.5,590.5l-0.5,8.1H82.6l-0.5-8.1H158.5L158.5,590.5z M157.8,602l-0.5,8.1H83.3l-0.5-8.1H157.8L157.8,602z
	 M157.1,613.5l-0.5,8.1H84.1l-0.5-8.1H157.1z"/>
<path class="st8" d="M73.4,505.1c33.1,23.9,46.9,61.4,46.9,61.4s-39.9-1.4-73-25.3S0.4,479.8,0.4,479.8S40.3,481.2,73.4,505.1
	L73.4,505.1z M94.8,457c18,13,25.5,33.4,25.5,33.4s-21.7-0.7-39.7-13.8s-25.5-33.4-25.5-33.4S76.8,443.9,94.8,457z M146.5,489.3
	c-20.7,22.7-25.1,52.4-25.1,52.4s29.2-7.2,49.8-29.9s25.1-52.4,25.1-52.4S167.1,466.5,146.5,489.3L146.5,489.3z"/>
<path class="st16" d="M0.5,479.8c0,0,41.4,23,54.7,42c13.3,19,65.2,44.7,65.2,44.7 M55.1,443.1c0,0,22.5,12.5,29.7,22.9
	s35.5,24.3,35.5,24.3 M196.3,459.4c0,0-26.9,23.3-33.8,39.4s-41.1,43-41.1,43"/>
</svg>
