<svg version="1.1" id="图层_1" xmlns="http://www.w3.org/2000/svg" x="0" y="0" viewBox="0 0 1085 822.8" xml:space="preserve"><style>.st0{opacity:.1}.st2{fill:#444053}.st3{stroke:#444053;stroke-miterlimit:10}.st6{fill:#fff}.st8{fill:#5a5773}.st10,.st9{opacity:.2;stroke:#5a5773;stroke-miterlimit:10}.st9{fill:#f4f4f7}.st10{stroke-dasharray:12}.st16{fill:#2d293d}.st17{opacity:.1}.st18{fill:#575988}.st19{opacity:5.000000e-02}.st21{fill:#ffcdd3}.st22{fill:#dce6f2}.st23{fill:#656691}</style><path class="st0" d="M511.3 197.4C456.4 225 396.4 237 337.9 246.3s-117.6 16.4-175.2 35.8c-37.1 12.5-76.3 32.7-94.6 64.1-17.6 30.1-11.1 62.3-1.8 90.3 7 21.1 16 42.4 35.2 55.3 13.3 8.9 30.6 13.1 45.1 20.7 50.5 26.5 58.7 88.5 50.6 145.6-3.8 26.8-10.4 53.9-10.3 80.1s7.7 52.2 28.5 67.7c20.6 15.4 51.6 18.5 82 16 61.7-5 123.8-30.6 182.9-58.1C611.1 703 736.4 630.5 861.5 558.1c46.3-26.8 92.7-53.7 135.3-85.4 23.7-17.6 47-37.9 57.9-62.1 13.9-30.7 3.3-64.2-24.7-78.1-47-23.2-125.6 7.4-166.1-22.9-22.4-16.7-25.3-47.2-21.7-75.9 7.8-61.6 40.1-129.4 15.5-181.5C840.8 16.5 796.2-4.4 747.5.8c-51 5.4-107.5 38.9-122.7 84.1-15.6 46.6-65.1 88-113.5 112.5zm131.5 539.2c55.3 0 100.1 11.1 100.1 24.7S698.1 786 642.8 786s-100.1-11-100.1-24.7 44.9-24.7 100.1-24.7zm375.4-9.6c34.2 0 62 4.3 62 9.5s-27.8 9.5-62 9.5-62-4.3-62-9.5 27.8-9.5 62-9.5z"/><path class="st1" d="M214.1 8.4s-3.8 14.7 22.6 56.3 24.5 47.5 23 59.4-1.4 18.4-16.7 33c0 0-45.9 15.1-52 24.4s10.1 43.5 10.1 43.5 15.6 41.5-40.5 57.4c0 0-43.9.1-56.1 9.7 0 0 4.7-16.8-9.9-41.6s5.5-48.9 5.5-48.9 16.2-8.9 26.5-9.6 13.6-5.4 6.9-17.3c0 0-9.6-5-22.9 5.7s-23 18.4-34.6 17.5-28.1-5.8-38.9-27.2-16.5-51.7-24.6-65.5S0 88.4 0 88.4s10.3 7.8 45.6-18.6 53.9-15.1 53.9-15.1 28.4 7.6 33 57.8c0 0 8.3 47.8 25.1 18.8 0 0-5.7-16.3-17.1-40.3s19.1-46.6 41.3-54.2 32.3-28.4 32.3-28.4z"/><path class="st2" d="M31 99l-.1-.3c7-2.9 39.3 14.6 65.1 29.8l-.1.2C59.4 107.3 36.4 96.7 31 99z"/><path class="st2" d="M95.3 128.4l.3-.1c20.6 12.1 45.4 27.6 63.9 40.1 1.8 1.2 3.6 2.4 5.5 3.5l-.3.5c-1.9-1.1-3.7-2.3-5.5-3.5-18.5-12.6-43.3-28.4-63.9-40.5z"/><path class="st2" d="M164.1 172l.5-.4c37.2 22.3 89.5 17 89.9 17l-5.8 6.6c-.4 0-47.1-.8-84.6-23.2z"/><path class="st3" d="M200.2 42s-12.2 33.9-2.9 57.8-10 83-10 83-6.4 24.9-16.7 31.1c0 0-14.9 18.5-23.6 20.6s-28.8 20.9-28.3 31.3m97.9-221.4s-8.6 17.4-21.4 17.3m38.6 5.3s-5.2 23.9-37.3 30.6m50.7 5.1s-15.1 24.2-47.7 21.3m44.9 24.1s-28.5 18.6-50 8.4M180.1 44.4s7.4 15.7 15.7 11m-43 12.9s10 21.1 41.3 17.4m-44.3 14.4s27.5 16.7 49.8 12.2m-35.3 21.6s21.8 17.4 32 13.4m-37.1-.4s5.9 18.3.1 21.7m-19.4 5.6s11.2-11.1 8.1-13.2m-28.7-79.4s9.8 46.7-2.9 59.3m-38.2 51.8s44.5-28.6 48.4-45.4m-74.2 25.3s41.8-19.5 53.2-38.2"/><path d="M80.5 66.6s20.3 33.8 7.6 57.4m-49.3 17.9s31-12.6 37.3-24.6M45.3 76.9s10.4 19.1 5.5 27.4" stroke="#444053" stroke-width=".75" stroke-miterlimit="10"/><path class="st3" d="M152.7 190.1s28-3.8 31 3.6m13.8 53.7s-1.5-30.6-19-42.5m-57.8-2.5s29.4 3.5 39.8 22.6m9.5 44.6s4.5-22.4-16.9-38.3m-53.5-1.8s24.4-1.3 37.4 10.3m-3.9 34s-2.3-17.8-8.6-21.2"/><linearGradient id="SVGID_1_" gradientUnits="userSpaceOnUse" x1="609.825" y1="147.96" x2="609.825" y2="686.29" gradientTransform="matrix(1 0 0 -1 0 822)"><stop offset="0" stop-color="gray" stop-opacity=".25"/><stop offset=".54" stop-color="gray" stop-opacity=".12"/><stop offset="1" stop-color="gray" stop-opacity=".1"/></linearGradient><path d="M147.2 135.7h925.3c6.9 0 12.5 5.6 12.5 12.5v513.4c0 6.9-5.6 12.5-12.5 12.5H147.2c-6.9 0-12.5-5.6-12.5-12.5V148.2c0-6.9 5.6-12.5 12.5-12.5z" fill="url(#SVGID_1_)"/><path class="st6" d="M148.7 143.3h922.4c6.9 0 12.5 5.6 12.5 12.5v504c0 6.9-5.6 12.5-12.5 12.5H148.7c-6.9 0-12.5-5.6-12.5-12.5v-504c0-6.9 5.6-12.5 12.5-12.5z"/><path class="st6" d="M148.7 143.3h922.4c6.9 0 12.5 5.6 12.5 12.5v504c0 6.9-5.6 12.5-12.5 12.5H148.7c-6.9 0-12.5-5.6-12.5-12.5v-504c0-6.9 5.6-12.5 12.5-12.5z"/><path d="M148.7 143.3h922.4c6.9 0 12.5 5.6 12.5 12.5v504c0 6.9-5.6 12.5-12.5 12.5H148.7c-6.9 0-12.5-5.6-12.5-12.5v-504c0-6.9 5.6-12.5 12.5-12.5z" opacity=".04" fill="#5a5773"/><path class="st8" d="M1078.8 137.2H141c-2.7 0-4.8 2.2-4.8 4.8v20.4h947.4V142c0-2.6-2.2-4.8-4.8-4.8z"/><circle class="st6" cx="155.1" cy="149.8" r="6.5"/><circle class="st6" cx="172.6" cy="149.8" r="6.5"/><circle class="st6" cx="190.1" cy="149.8" r="6.5"/><path class="st0" d="M209.8 279.5h769.6c5.6 0 10.2 4.6 10.2 10.2v283.6c0 5.6-4.6 10.2-10.2 10.2H209.8c-5.6 0-10.2-4.6-10.2-10.2V289.7c0-5.7 4.6-10.2 10.2-10.2z"/><path class="st6" d="M229 250l769.4 19.6c5.6.1 10.1 4.8 9.9 10.4l-7.2 283.5c-.1 5.6-4.8 10.1-10.4 9.9l-769.4-19.6c-5.6-.1-10.1-4.8-9.9-10.4l7.2-283.5c.1-5.6 4.8-10 10.4-9.9z"/><path class="st9" d="M337 314.3l550.3 14m-551.4 29l550.3 14m-551.4 28.9l550.3 14m-551.4 29l550.3 14"/><path class="st10" d="M383.8 432.8l-1.4 54.6"/><path class="st9" d="M332.6 486.2l550.3 14"/><path class="st10" d="M444.6 489l2.1-81.5"/><path d="M808.7 401.1c-9.8.9-19.4-4.6-25.3-10.4-6.1-6-10.5-13.4-14.8-20.6-1.4-2.3-2.7-4.6-4.2-6.9-7.4-11.8-14.8-19.7-23.3-24.9-3.1-1.9-6.4-3.4-9.9-4.5-.3.8-.8 1.5-1.4 2.1-1.3 1.3-3 2.1-4.9 2.1h-.3c-3.4-.1-6.3-2.7-6.8-6.1-3.1.1-6.3.8-9.2 1.9-8.7 3.3-15.4 10.4-21.4 17.3-7.3 8.4-14.3 17.3-20.9 26.3-1.3 1.8-2.7 3.6-4 5.5-7.1 9.9-14.5 20.2-24 28.2-12.8 10.8-28.2 15.5-41.1 12.5-15.6-3.6-26.7-17.4-34.6-28.9-1-1.5-2-3-3.1-4.5-7.4-11-15.1-22.4-26.4-29-14.9-8.8-35.5-7.2-49 3.6-6.6 5.3-11.5 12.4-16.3 19.4-1.6 2.4-3.3 4.8-5.1 7.2-9 12.1-18.1 18.6-27.9 20.1-3.9.4-7.8.4-11.7 0-2.6-.2-5.3-.4-7.9-.3-13.2.6-25.2 8-31.6 19.7l-1.4 57.6 432.3 11 2.4-95.2c-2.9 1.6-6.6.5-8.1-2.4 0-.3-.1-.5-.1-.8z" opacity=".2"/><path class="st10" d="M512 355.6l-3.4 135.1m63.6-83.4l-2.2 85m62.2-75.1l-1.9 76.5m60.1-144.9l-3.7 146.5m62.9-151.7l-3.9 153.1m69.5-95.5l-2.5 97.2"/><path class="st1" d="M730.6 327.1c-1.3-1.3-3.1-2-5-2-3.4.1-6.3 2.6-6.8 5.9-.1.4-.1.8-.1 1.2 0 .3 0 .5.1.8.2 1.6.9 3 2.1 4.1 1.2 1.2 2.9 2 4.7 2h.3c1.9 0 3.6-.8 4.9-2.1.6-.6 1.1-1.3 1.4-2.1.3-.6.4-1.3.5-2v-.9c0-1.9-.8-3.6-2.1-4.9zm-.3 7.2c-.2.5-.5.9-.9 1.3-1.9 2-5.1 2-7.1.1-.7-.7-1.3-1.7-1.4-2.7-.1-.3-.1-.5-.1-.8 0-.4 0-.8.1-1.2.5-2.2 2.5-3.9 4.8-3.9h.2c2.7.1 4.8 2.2 4.9 4.9v.3c-.1.7-.2 1.4-.5 2z"/><path d="M338.1 305.3l18.6.5c.5 0 .9.4.9.9l-.2 7.2c0 .5-.4.9-.9.9l-18.6-.5c-.5 0-.9-.4-.9-.9l.2-7.2c0-.5.4-.9.9-.9zm-2.2 86l18.6.5c.5 0 .9.4.9.9l-.2 7.2c0 .5-.4.9-.9.9l-18.6-.5c-.5 0-.9-.4-.9-.9l.2-7.2c0-.5.4-.9.9-.9zm-1.1 43l18.6.5c.5 0 .9.4.9.9l-.2 7.2c0 .5-.4.9-.9.9l-18.6-.5c-.5 0-.9-.4-.9-.9l.2-7.2c0-.5.4-.9.9-.9zm-1.1 43l18.6.5c.5 0 .9.4.9.9l-.2 7.2c0 .5-.4.9-.9.9l-18.6-.5c-.5 0-.9-.4-.9-.9l.2-7.2c0-.6.4-1 .9-.9zm37.9 18.9l18.6.5c.5 0 .9.4.9.9l-.2 7.2c0 .5-.4.9-.9.9l-18.6-.5c-.5 0-.9-.4-.9-.9l.2-7.2c0-.5.4-.9.9-.9zm63.5 1.6l18.6.5c.5 0 .9.4.9.9l-.2 7.2c0 .5-.4.9-.9.9l-18.6-.5c-.5 0-.9-.4-.9-.9l.2-7.2c-.1-.5.4-.9.9-.9zm125.4 3.2l18.6.5c.5 0 .9.4.9.9l-.2 7.2c0 .5-.4.9-.9.9l-18.6-.5c-.5 0-.9-.4-.9-.9l.2-7.2c0-.5.4-.9.9-.9z" opacity=".5"/><path d="M620.7 502.6l18.6.5c.5 0 .9.4.9.9l-.2 7.2c0 .5-.4.9-.9.9l-18.6-.5c-.5 0-.9-.4-.9-.9l.2-7.2c0-.5.4-.9.9-.9z" opacity=".5" fill="tomato"/><path class="st1" d="M980.9 605.5c5.5 0 9.9 4.4 9.9 9.9s-4.4 9.9-9.9 9.9-9.9-4.4-9.9-9.9c0-2.6 1-5.1 2.9-7 1.8-1.9 4.3-2.9 7-2.9m0-1.5c-6.3 0-11.5 5.1-11.4 11.5 0 6.3 5.1 11.5 11.5 11.5 6.3 0 11.5-5.1 11.4-11.5-.1-6.4-5.2-11.6-11.5-11.5z"/><path class="st1" d="M815.3 393.9c3.3 0 6 2.7 6 6s-2.7 6-6 6-6-2.7-6-6 2.6-6 6-6zm-94.5-61.7c0 .3 0 .5.1.8h-2c-3.2.2-6.3.8-9.2 1.9-8.7 3.3-15.4 10.4-21.4 17.3-7.3 8.4-14.3 17.3-20.9 26.3-1.3 1.8-2.6 3.7-4 5.5-7.1 9.9-14.5 20.2-24 28.2-12.8 10.8-28.2 15.5-41.2 12.5-15.5-3.6-26.7-17.4-34.7-28.9-1-1.5-2.1-3-3.1-4.5-7.4-11-15.1-22.4-26.4-29-14.9-8.8-35.5-7.2-49 3.6-6.5 5.3-11.5 12.4-16.3 19.3-1.6 2.4-3.4 4.9-5.1 7.2-9 12.1-18.1 18.6-27.9 20.1-3.9.4-7.8.4-11.7 0-2.6-.2-5.2-.3-7.9-.3-14.2.6-26.9 9.1-32.8 22.1l-1.8-.8c6.2-13.7 19.6-22.7 34.6-23.3 2.7 0 5.4.1 8.1.3 3.7.4 7.5.4 11.2 0 9.2-1.3 17.9-7.6 26.5-19.3 1.7-2.3 3.4-4.8 5.1-7.1 4.9-7 9.9-14.3 16.7-19.8 14.7-11.5 35-13 51.3-3.7 11.7 6.9 19.5 18.4 27.1 29.6 1 1.5 2 3 3.1 4.5 7.8 11.3 18.5 24.7 33.5 28.1 12.4 2.9 27.1-1.6 39.4-12.1 9.3-7.9 16.6-18 23.7-27.9 1.3-1.8 2.6-3.7 4-5.5 6.6-9 13.7-17.9 21-26.4 6.2-7.2 13-14.4 22.2-17.9 3.2-1.2 6.5-1.9 9.9-2 .7 0 1.4-.1 2 0-.1.4-.2.8-.1 1.2zm94.8 68.6c-11.7 4.4-24.1-2.2-31.2-9.1-6.1-6-10.5-13.4-14.8-20.6-1.3-2.3-2.8-4.6-4.2-6.9-7.4-11.8-14.8-19.7-23.3-24.9-3.1-1.9-6.4-3.4-9.9-4.5-.6-.2-1.3-.4-2-.6.3-.6.5-1.3.5-2 .7.2 1.3.4 2 .6 3.7 1.2 7.2 2.8 10.5 4.8 8.8 5.4 16.4 13.5 24 25.6l4.2 6.9c4.2 7.1 8.5 14.4 14.4 20.1 6.6 6.5 18.2 12.7 29.1 8.7l.7 1.9zM337 348.3l18.6.5c.5 0 .9.4.9.9l-.2 7.2c0 .5-.4.9-.9.9l-18.6-.5c-.5 0-.9-.4-.9-.9l.2-7.2c0-.5.4-.9.9-.9zm175.8 137.2h18.6c.5 0 .9.4.9.9v7.2c0 .5-.4.9-.9.9h-18.6c-.5 0-.9-.4-.9-.9v-7.2c0-.5.5-.9.9-.9zM677.1 504l18.6.5c.5 0 .9.4.9.9l-.2 7.2c0 .5-.4.9-.9.9l-18.6-.5c-.5 0-.9-.4-.9-.9l.2-7.2c0-.5.4-.9.9-.9zm59.5 1.5l18.6.5c.5 0 .9.4.9.9l-.2 7.2c0 .5-.4.9-.9.9l-18.6-.5c-.5 0-.9-.4-.9-.9l.2-7.2c0-.5.4-.9.9-.9zm81.3-20h17.6c.8 0 1.4.6 1.4 1.4v6.2c0 .8-.6 1.4-1.4 1.4h-17.6c-.8 0-1.4-.6-1.4-1.4v-6.2c0-.8.6-1.4 1.4-1.4zm159.9 133.3l.6-.8c.6.6 1.4.9 2.2.9 1 0 1.8-.5 1.8-1.3s-.7-1.5-2.8-1.5v-.9c1.8 0 2.5-.6 2.5-1.4s-.6-1.2-1.5-1.2c-.7 0-1.4.3-1.9.8l-.6-.8c.7-.6 1.6-1 2.6-1 1.5 0 2.7.8 2.7 2.1 0 .9-.7 1.5-1.7 1.9 1 .1 1.9 1 1.9 2 0 1.4-1.3 2.3-2.9 2.3-1.1 0-2.1-.4-2.9-1.1z"/><path class="st8" d="M1028.2 606.2c5.5 0 9.9 4.4 9.9 9.9s-4.4 9.9-9.9 9.9-9.9-4.4-9.9-9.9c0-2.6 1-5.1 2.9-7 1.8-1.9 4.3-2.9 7-2.9m0-1.6c-6.3 0-11.5 5.1-11.5 11.4 0 6.3 5.1 11.5 11.4 11.5 6.3 0 11.5-5.1 11.5-11.4 0-6.3-5.1-11.5-11.4-11.5z"/><path class="st8" d="M1028.3 614.9c0-.5 0-1.1.1-1.6h-.1c-.3.4-.6.9-.9 1.3l-2 2.6h5.4v1h-6.8v-.8l4.1-5.3h1.5v8.5h-1.2l-.1-5.7zm-26.2-5.4c.4-.4 1.1-.4 1.5 0l5.2 5.2c.4.4.4 1 0 1.4l-5.1 5.1c-.4.4-1 .4-1.4.1l-.1-.1c-.4-.4-.4-1-.1-1.4l.1-.1 4.4-4.4-4.4-4.4c-.5-.3-.6-.9-.1-1.4-.1.1-.1 0 0 0z"/><path class="st8" d="M993.3 615.4c0 6.2 5 11.3 11.2 11.3s11.3-5 11.3-11.2-5-11.3-11.2-11.3c-6.3 0-11.3 5-11.3 11.2zm1.7 0c0-5.3 4.2-9.5 9.5-9.5s9.5 4.2 9.5 9.5-4.2 9.5-9.5 9.5c-2.5 0-5-1-6.8-2.8-1.7-1.8-2.7-4.2-2.7-6.7z"/><path d="M169.9 189.1h219.5c2.1 0 3.9 1.7 3.9 3.9v16c0 2.1-1.7 3.9-3.9 3.9H169.9c-2.1 0-3.9-1.7-3.9-3.9v-16.1c.1-2.1 1.8-3.8 3.9-3.8z" opacity=".2" fill="#5a5773"/><linearGradient id="SVGID_2_" gradientUnits="userSpaceOnUse" x1="630.652" y1="15.905" x2="630.652" y2="548.287" gradientTransform="matrix(.9993 -.03839 -.03839 -.9993 -47.207 813.135)"><stop offset="0" stop-color="gray" stop-opacity=".25"/><stop offset=".54" stop-color="gray" stop-opacity=".12"/><stop offset="1" stop-color="gray" stop-opacity=".1"/></linearGradient><path d="M707.2 757.1c-1.7-6-2.7-11.3-2.7-11.3s.1-6.6-3.1-11.5l-.1-1.7-.5-12.2c.8-2.2 1.7-4.4 2.8-6.5 2.1-3.9-.7-17.9-.7-17.9s-8.9-19.5-7.4-32.1-18.9-55.2-18.9-55.2c0-4.2.4-8.3 1.3-12.4.2-.9.2-1.7.1-2.6v-.3.1c-.6-8.3-7.7-23.5-7.7-23.5l-.3-29.6s3.5-17.6-4.2-40.8c-2.7-8.1-4.5-14.6-5.6-19.6-.1-.6-.3-1.1-.4-1.6 14-2.7 24.6-4.9 24.6-4.9s-9.5-33.8-15.2-39.5-10.9-24.3-10.9-24.3-3.8-24 .6-31.2 4.5-19.4 4.5-19.4 10.3-8.1 11.5-11.5 3.1-11.2 2.9-15.3-1.6-7.6-1.3-9.8-3.5-10.1-1.9-14c.4-1.2.6-2.5.6-3.7v-.1c-.1-3.4-.6-6.7-1.3-10-3.1-2.5-6.8-4.2-10.7-5.2l-.3-.9-.7-2.4c-.4-.2-.7-.4-1.1-.6l-.1-.9-.2-3.5 1.3-7.8c2.7-13.6-15.4-15-15.4-15-1.2-2-3.1-3.6-5.3-4.3-3.7-1.1.2 20.4 1.9 21.7 1.3 1 5.5 7.6 7.5 10.9l.3.5c-.3.3-.5.6-.8.9l.9 4.7.1.7c-1.1 1.5-2 3.2-2.7 5 0 0 3.4 3.5 2.9 7.6s1.4 9 1.5 9.3c-.2-.2-2.6-2.6-4.9-1.9s-8.7 2.9-8.7 2.9-4.8 1-4.3 2.1-3.1 5.9-3.1 5.9l-13-11.7c-.1-.4-.3-.7-.4-1.1-.6-1.7-1.1-3.5-1.3-5.4 1.4-.4 2.8-.9 4.1-1.5 1.3-.5 2.6-1.4 3.5-2.4 1.3-1.6 1.4-3.7 1.9-5.7.9-3.8 3-7.3 4.4-10.9 2.4-6.1 3.1-12.9 1.8-19.4-.3-2-1-3.9-2.2-5.6-2.2-2.8-6.1-3.9-9-6.1s-4.8-5.7-8.2-7.3c-3-1.5-6.6-1.1-9.9-.5-6.5 1.3-12.7 3.8-18.2 7.4-1.8 1.2-3.9 2.6-6.1 2.3-1.9-.3-3.3-1.7-4.6-3.1v-.2l-.2-.2c-1.3 3.1-1.8 6.5-1.6 9.8 0 .5 0 1 .1 1.6v1c0 .2 0 .5-.1.7-.2.7-.6 1.3-1.2 1.8-.4.5-.7 1-1 1.5 0-.2.1-.4.2-.5-.8 1.2-1.2 2.7-1.2 4.1 0 1.1.4 2.1 1.1 2.9.7.6 1.4 1.2 2.2 1.6-.2 1.4-.3 2.9-.2 4.4.4 8.8 5.3 16.8 13.1 21l.5 1.1c1.8 4.3 3.3 9.4 2.9 14.1 0 .4-.1.7-.1 1-.2.2-.3.4-.5.6s-21.5 1-26.7-3.4S550 328 550 328s-7.6 1.8-9.2.4-10.6.2-10.6.2c-3.8-3.1-8.7-4.7-13.6-4.4-3.1-2.2-6.5-3.9-10-5.1l-.2-.1c-1.6-.5-3.2-.7-4.9-.4 0 0-10.9-8.3-14.2-12.9s-18.6-21.4-18.7-21.5l-.1-.9-.3-2.5c-.4.1-.9.1-1.3.2-.1-.2-.2-.5-.3-.9-.9-2.4-2.1-4.8-3.4-7 0 0-.1-3.2.8-4s-.9-12.5-.9-12.5-10.4-21.9-18.3-4.9c0 0-15.7 11.4-1.7 23.4 0 0 5.5 2.4 6.3 4.4.5 1.3 2.5 5 3.9 7.5l.6 1.1-.1.1.3 2.1.1.8c-2.5 1.5-4.2 3-3.7 4.1.8 1.8 1.4 3.7 1.8 5.7 0 0 19.6 22.7 22.4 32.6 0 0 51.3 27.9 67.9 29.4l-2.3 15s-.5 9-.2 12.2-1.3 17.8-1.3 17.8-2 21.4-4.3 24.5-1.4 15.8-1.4 15.8c-.3 6.1-1.2 12.2-2.6 18.2-2.1 8.2 0 18.1 0 18.1s-7.6 19.5 11.9 5.7c0 0 9.8-1 21.1-1.8v1.1c0 1.5.1 3 .1 4.7.3 11 .8 26.1 1.7 37.5 1.7 20.2 9.4 60 9.4 60l.8 20.1c-.3 1.9-.4 3.8-.3 5.8.1 7.1 2.3 14 6.2 19.9l2.1 13.4s4 8.7 4.2 14c0 .4 0 .9-.1 1.3-.1.7-.1 1.4-.1 2.1 0 6.1 4.3 20.5 4.3 20.5s.8 14.7 3 15.5c1.9.7-2.2 8.6-3.4 10.8 0-.1-.1-.3-.1-.4l-.3.5c-.4 1.2-.6 2.5-.5 3.7-.2 2.1.9 4 2.6 5.1 4.3 2.4 6.6 4.4 3.1 5.4-1.3.3-2.6.6-3.8 1l-.2-.5c-.9.5-1.5 1.5-1.3 2.5-.1 1.1.4 2.6 1.5 4.9 3.8 7.7 6.4 10.6 6.4 10.6l1.7-.3c-.2.7-.5 1.3-.9 1.9-.6.9-1.4 1.7-2.4 2.3-.9.6-1.9 1-3 1.2-2.4.2-4.6 1.4-6.1 3.3-2.1 2.9-3.3 6.8 1.2 10.1l15.9 4.8s27.2 2.5 25.5-3.5-2.7-11.3-2.7-11.3c0-3.7-.9-7.4-2.6-10.7-.3-.5-.6-1.1-1-1.5l1-.2s1.5-13.5 4-16.1c.6-.6.7-1.1.5-1.4.2-.7-.5-1.1-1.4-1.3-.1.2-.1.3-.2.5-.8-.1-1.7-.2-2.6-.2 0 0-1.2-7 1.6-9.7.4-.6.6-1.4.5-2.1 0-1-.1-1.9-.4-2.8 0 0-.1.1-.1.2-1.7-6.3-7-16.3-7-16.3s-.5-6.4 1.2-9-1.6-34.7-1.6-34.7.1-15.6-2.2-22.7 1.8-15.8 1.8-15.8 0-.2-.1-.5v-.1s-.1-1-.3-2.4v.2c-.6-4.1-1.7-11.5-2.5-14.9-1.1-4.9-.9-28.3-.9-28.3l3.6-10.2 7.7 17 8.4 22.7s3.9 4.7 4.2 9.6v2.3c0 2.9.9 5.8 2.6 8.1 0 0 2.4 10.8 5.6 13.4s3.4 8 3.4 8 4.3 15.6 6.2 18.3c1.6 2.3 1.9 8.7 2 10.7v.6s.7 5.6.9 10.3v1.6c0 1.3-.1 2.6-.3 3.8 0 .1 0 .1-.1.2v-.8c-.7 3.2-.9 6.6-.8 9.9.1 5.7 1.2 12.3 4.8 16.2 6.2 6.6 9.9 5.6 9.9 5.6s-2.5 8.6-6 10.5c-.1.1-.3.2-.4.3 0-.2-.1-.3-.1-.5-.7.9-1.1 2.1-.9 3.2-.1 3.8 2.5 9.8 4.8 12.5.9.8 1.9 1.3 3 1.6-.2.1-.4.3-.5.4l-1.2.6c-.6.3-1.2.5-1.8.5-2.4.2-4.6 1.4-6.1 3.3-2.1 2.9-3.3 6.8 1.2 10.1l16 4.8c-.1-.5 27.1 2 25.4-4.1z" fill="url(#SVGID_2_)"/><path class="st16" d="M604.2 771.2l-15.4-4.8c-4.3-3.2-3.2-7.2-1.1-10.1 1.4-1.9 3.6-3.1 5.9-3.3 1-.2 2-.6 2.9-1.1 1-.6 1.8-1.4 2.3-2.3 1-1.8 1.6-3.9 1.5-6 0 0 16.5-5.5 21.3-.8.9.9 1.6 1.8 2.1 2.9 1.6 3.3 2.5 7 2.5 10.7 0 0 1 5.3 2.7 11.3s-24.7 3.5-24.7 3.5zm74.3-10.4l-15.4-4.8c-4.3-3.2-3.1-7.2-1.1-10.1 1.4-1.9 3.6-3.1 5.9-3.3.6-.1 1.2-.3 1.7-.5l1.2-.6c4.2-2.5 3.8-8.3 3.8-8.3s16.5-5.5 21.3-.8c.6.6 1.2 1.3 1.7 2.1 3.1 4.8 3 11.5 3 11.5s1.1 5.3 2.7 11.3-24.8 3.5-24.8 3.5z"/><path class="st17" d="M621.6 742.8c.9.9 1.6 1.8 2.1 2.9l-24.9 3.9c1-1.8 1.6-3.9 1.5-6 0 0 16.5-5.5 21.3-.8zm75.9-8.3l.2 4.7c-3.6 6.6-22.5 5.9-28.2 2.9l1.2-.6c4.2-2.5 3.8-8.3 3.8-8.3s16.5-5.5 21.3-.8c.7.7 1.2 1.4 1.7 2.1z"/><path class="st18" d="M699.7 714.2c-1.1 2.1-2 4.3-2.7 6.5l.7 16.8c-4 7.2-26.2 5.7-29.4 2s-6.7-13.6-3.4-15.4 5.8-10.5 5.8-10.5-3.6 1-9.6-5.6-4.9-21.8-4-25.4-.6-15.8-.6-15.8-.1-8.5-1.9-11.2-6-18.3-6-18.3-.2-5.3-3.3-8-5.4-13.4-5.4-13.4c-1.8-2.6-2.7-5.9-2.5-9.1.4-5.3-4-10.9-4-10.9l-8.1-22.7-7.5-17-3.5 10.2s-.2 23.5.9 28.3 2.8 17.8 2.8 17.8-3.9 8.7-1.7 15.8 2.2 22.7 2.2 22.7 3.2 32.1 1.5 34.7-1.1 9-1.1 9 9.5 18.4 6.8 21.1-1.5 9.7-1.5 9.7 6-.2 3.5 2.4-3.8 16.1-3.8 16.1l-25.6 4s-2.5-2.9-6.2-10.6.4-7 3.8-8 1.2-3-3-5.4-2-8.2-2-8.2 5.8-10.7 3.6-11.4-2.9-15.5-2.9-15.5-4.9-17.3-4-22-4-15.8-4-15.8l-2-13.4c-8.3-13-5.8-25.2-5.8-25.2l-.8-20.7s-7.5-39.8-9.1-60c-1-12.9-1.6-30.6-1.8-41.7-.1-6.2-.2-10.3-.2-10.3l91.6-13.1s.1 4.3 2.2 13.6c1.1 5 2.9 11.5 5.5 19.6 7.5 23.2 4.1 40.8 4.1 40.8l.3 29.6s8.8 19.5 7.4 26.4c-.9 4.1-1.2 8.2-1.2 12.4 0 0 19.8 42.5 18.3 55.2s7.2 32.1 7.2 32.1 2.4 13.9.4 17.8z"/><path class="st19" d="M642.8 605.3l27.9-4.8s-15.2 16.8-27.9 4.8z"/><path class="st17" d="M665.6 573.3s1.3 9.9-4.6 13.8c0 0 10.8-2.1 4.6-13.8zm-2.9-31.5S640 562 631.5 560.7s31.2-18.9 31.2-18.9zm-54.2 73.9s-17.6 4.7-17.9 11.9 17.9-11.9 17.9-11.9z"/><path class="st19" d="M615.8 704.3s-24.9 5.7-17.7 8.6 19.1 5 19.1 5 8.1.1-1.4-13.6z"/><path d="M593.2 718.1c-1.3-.8-2.2-2.1-2.4-3.5l-.2.5s-2.1 5.8 2 8.2c.5.3.9.5 1.3.8.7-.2 1.5-.3 2.3-.5 3.4-1 1.2-3.1-3-5.5zm32.3-2.9c.7-.7.6-2.3.1-4.4-1.1 1.7-1.3 4.3-1.2 6.2.2-.7.6-1.3 1.1-1.8zm-7.9-105.8c-.8 2.6-1.3 5.2-1.4 7.9.4-1.9 1-3.7 1.7-5.5 0 0-.1-.9-.3-2.4zm57.1-13.4c.1-.8.2-1.6.2-2.3-.2 1.5-.4 2.9-.5 4.4 0-.7.1-1.4.3-2.1zm-54.8 89.1c.3-.5.5-2.3.5-4.8-.7 1.9-1.1 4-1 6 .1-.4.3-.8.5-1.2zm6.8 40c-1.6 4.9-2.4 13.2-2.4 13.2l-25.6 4s-2.5-2.9-6.2-10.7c-.3-.7-.6-1.3-.8-1.8-1.5.8-2.1 2.4.2 7 3.7 7.8 6.2 10.6 6.2 10.6l25.6-4s1.4-13.5 3.9-16.2c1.1-1.2.3-1.8-.9-2.1zm-35.5-36.9s.8 14.7 2.9 15.5c1-2.5 1.6-4.8.6-5.2-2.2-.8-2.9-15.5-2.9-15.5s-4.9-17.3-4-22-4-15.8-4-15.8l-2-13.3c-8.2-12.9-5.7-25.2-5.7-25.2l-.8-20.7s-7.5-39.8-9.1-60c-1-12.9-1.6-30.6-1.8-41.7 0-2-.1-3.8-.1-5.3l-.7.1s0 4.1.2 10.3c.3 11 .8 28.7 1.8 41.7 1.6 20.2 9.1 60 9.1 60l.7 20.6s-2.5 12.3 5.7 25.2l2 13.4s4.9 11.1 4 15.8 4.1 22.1 4.1 22.1zm77.7 45.6c-2.2-2.9-3.7-6.3-4.5-10-2.5 2.5.8 11.6 3.8 15.1 3.1 3.7 25.4 5.2 29.3-2l-.2-4.1c-5.4 6-25.4 4.5-28.4 1zm31.4-25.3c-1.1 2.1-2 4.3-2.7 6.5l.1 3c.4-1.1 1.1-2.6 2-4.3.6-1.7.9-3.5.7-5.3l-.1.1zm-30.9 4.5c.7-1.7 1.4-3.4 1.9-5.1 0 0-3.6 1-9.6-5.6-4.4-4.8-5-14.2-4.6-20.3-.9 3.7-2 18.8 4 25.4 3.9 4.3 6.8 5.4 8.3 5.6zm-12.9-46.8c.5 4.2.8 8.4.9 12.6.1-.7.2-1.3.4-2 .9-3.7-.6-15.8-.6-15.8s-.1-8.5-1.9-11.2-6-18.3-6-18.3-.2-5.3-3.3-8-5.4-13.4-5.4-13.4c-1.9-2.6-2.7-5.9-2.5-9.1.4-5.3-4-10.9-4-10.9l-8.2-22.8-7.5-17-3.5 10.2v3.2l2.8-8.3 7.5 17 8.1 22.7s4.5 5.6 4 10.9c-.2 3.2.6 6.4 2.5 9.1 0 0 2.3 10.8 5.4 13.4s3.3 8 3.3 8 4.2 15.6 6 18.3 2 11.4 2 11.4z" opacity=".05"/><path class="st21" d="M659.3 273.8l-1.3 7.8.2 3.5.2 2.5-8.8 1.3-1.1-1.8c-2-3.3-6-9.9-7.3-10.9-1.7-1.3-5.5-22.8-1.9-21.7 2.2.7 4 2.3 5.1 4.3 0 0 17.5 1.4 14.9 15z"/><path class="st17" d="M658.4 287.6l-8.8 1.3-1.1-1.8c2.4-2.9 6.4-3.7 9.8-2l.1 2.5z"/><path class="st22" d="M660.8 291.8l-11.6 3.2-.3-1.7-.8-4.7s4.4-6.4 11.3-2l.7 2.4.7 2.8z"/><path class="st21" d="M470.4 281.9l-12.2 7.2s-.5-1-1.2-2.3c-1.3-2.5-3.2-6.1-3.7-7.5-.8-2-6.1-4.5-6.1-4.5-13.6-12 1.6-23.4 1.6-23.4 7.6-16.9 17.7 5 17.7 5s1.7 11.7.9 12.5-.8 4-.8 4c1.3 2.2 2.4 4.6 3.3 7 .2 1.3.5 2 .5 2z"/><path class="st17" d="M470.4 281.9l-12.2 7.2s-.5-1-1.2-2.3c1.7-1.5 7.8-6.9 9.8-6.7 1 .1 2 .1 3 0 .3 1.1.6 1.8.6 1.8z"/><path class="st22" d="M471.8 285.7l-13.8 7.5-.4-3-.3-2.1s7.9-7.3 10.3-7.1c1.2.1 2.5.1 3.7-.1l.3 2.5.2 2.3z"/><path class="st21" d="M627.2 326.8s-61 9.3-49.7 5.1c7.9-2.9 10.8-8.1 11.3-13.7.4-4.7-1-9.8-2.8-14.1-1.6-3.8-3.6-7.4-5.9-10.9 0 0 45.8-27.6 37.4-3.8-1.3 3.6-2.1 7.4-2.2 11.2-.1 3.8.4 7.6 1.6 11.2 2 5.8 5.6 11 10.3 15z"/><path class="st17" d="M617.5 289.4c-1.3 3.6-2.1 7.4-2.2 11.2-4.3 3.9-9.1 3.8-15.3 4.1-4.8.2-10 1.5-13.9-.6-1.6-3.8-3.6-7.4-5.9-10.9-.1 0 45.7-27.6 37.3-3.8z"/><circle class="st21" cx="598.2" cy="281" r="25.4"/><path class="st17" d="M627.2 326.8s-61 9.3-49.7 5.1c7.9-2.9 10.8-8.1 11.3-13.7 2.9-3.4 9-6 12.8-7.5 3.5-1.3 7.4-1.6 11.1-.6 1.4.4 2.8.9 4.1 1.7 2.1 5.8 5.7 11 10.4 15zm33.6-35l-11.6 3.2-.3-1.7c2.4-3.6 6.9-5.3 11.1-4.3l.8 2.8zm-189-6.1l-13.8 7.5-.4-3c4.9-3.2 13.2-6.5 13.9-6.8l.3 2.3zm185.6 194.5c-23.6 4.7-57.2 10.8-62.6 9.4-4.5-1.2-18.7-.5-31 .4-.1-6.2-.2-10.3-.2-10.3l91.6-13.1s.1 4.3 2.2 13.6z"/><path class="st23" d="M680.9 473.8s-77.6 16.4-86.1 14.2-51.4 2.2-51.4 2.2c-18.9 13.7-11.5-5.7-11.5-5.7s-2.1-9.9-.1-18.1c1.3-6 2.2-12.1 2.5-18.2 0 0-.9-12.8 1.3-15.8s4.2-24.5 4.2-24.5 1.6-14.6 1.2-17.8.2-12.2.2-12.2l2.2-15c-16-1.5-65.7-29.5-65.7-29.5-2.7-9.9-21.7-32.6-21.7-32.6-.3-2-.9-3.9-1.7-5.7-1.4-3.4 17.5-10.9 17.5-10.9s14.9 16.9 18.1 21.5 13.7 12.9 13.7 12.9c1.6-.2 3.2-.1 4.7.4.1 0 .2 0 .3.1 3.5 1.2 6.8 2.9 9.7 5.1 7.6-.7 13.2 4.4 13.2 4.4s8.7-1.6 10.2-.2 8.9-.3 8.9-.3 6.8-16 11.9-11.7 25.8 3.4 25.8 3.4c2.6-3.8 9.3-6.7 13.4-8.2 3.5-1.3 7.4-1.6 11.1-.6 1.6.4 3.1 1.1 4.5 2l13.1 11.9s3.4-4.8 3-5.9 4.2-2.1 4.2-2.1 6.1-2.2 8.4-2.9 4.6 1.7 4.8 1.9c-.1-.3-1.9-5.4-1.4-9.3s-2.8-7.6-2.8-7.6c6.8-18.6 24.2-3.9 24.2-3.9s2.3 9.9.7 13.8 2.2 11.9 1.8 14 1.1 5.7 1.2 9.8-1.7 11.7-2.9 15.2-11 11.5-11 11.5-.2 12.2-4.4 19.4-.5 31.2-.5 31.2 5 18.6 10.5 24.3 14.7 39.5 14.7 39.5z"/><path class="st17" d="M561.5 338s-2.6-6.9-4.8-7.5c-2.1-.7-4.2-1.5-6.3-2.5l1.3-2.7s8.1 1.9 9.5 4.2.3 8.5.3 8.5zm-43.3-13.9c-.3 2.1-19.2 4.8-19.2 4.8l9.2-10 .2.1c3.5 1.2 6.8 3 9.8 5.1z"/><circle class="st18" cx="462.2" cy="297" r="1.7"/><circle class="st18" cx="464.5" cy="300.3" r="1.7"/><circle class="st18" cx="466.8" cy="303.4" r="1.7"/><circle class="st18" cx="469.1" cy="306.7" r="1.7"/><circle class="st18" cx="669.8" cy="298.8" r="1.4"/><circle class="st18" cx="670.2" cy="301.9" r="1.4"/><circle class="st18" cx="670.5" cy="305.1" r="1.4"/><path class="st17" d="M563.9 395.7c-.2-.3 50.1 58.5 86 22.1 0 0-58.6 10.2-86-22.1zm-26.4 32.6s28.8-.3 32.1 7.8l.3 8.6c-1.6 1-3.6 1.1-5.3.2-3-1.5-20.7-9.6-26.6-5.1l-.5-11.5z"/><path class="st23" d="M538 428.3s27.5-.3 30.7 7.5l.3 8.2c-1.6.9-3.5 1-5.1.2-2.8-1.4-19.8-9.2-25.5-4.9l-.4-11z"/><path class="st17" d="M550.8 365.4c3.2 6.7 7.2 12.9 11.9 18.7 5.1 6.3 11.2 11.8 18.1 16.2 0-.1-29.4-31-30-34.9zm-10.7-33.1s5.6 20.5 18.2 27l-18.2-27zm-7.3 2.4c-.1-.4-3.6 16.5 16.9 25 .1 0-8.6-2.6-16.9-25zM657.7 316c-.3 0 10.2 6.2 13.1 9.1 0 0-7-9.7-13.1-9.1z"/><path class="st16" d="M592.2 304.2c.4 1.3.9 2.7 2.1 3.3.8.3 1.6.5 2.4.4 7.7.2 15.8.2 22.8-3 1.3-.5 2.5-1.4 3.4-2.5 1.2-1.6 1.4-3.7 1.8-5.7.8-3.8 2.9-7.3 4.3-10.9 2.4-6.2 3-12.9 1.8-19.4-.3-2-1-3.9-2.2-5.6-2.2-2.9-5.9-3.9-8.7-6.1s-4.7-5.7-7.9-7.4c-2.9-1.5-6.4-1.1-9.6-.5-6.3 1.3-12.3 3.8-17.6 7.4-1.8 1.2-3.8 2.6-5.9 2.3-1.9-.3-3.3-1.8-4.5-3.2-1.4 3.5-1.9 7.3-1.5 11.1.1.6.1 1.1 0 1.7-.2.7-.6 1.3-1.1 1.8-1.8 2.3-2.9 5.8-.9 8 .9.9 2.1 1.4 3 2.4 1.5 1.7 1.1 4.3 1.2 6.6-.1.8.2 1.6.7 2.2.9.7 2.1 1 3.2.6s2.2-.5 3.3-.5c1.2.3 2.3 1.1 3 2.1 3.6 4.6 5.2 9.5 6.9 14.9z"/><path d="M623.7 300.5c-.9 1.1-2.1 1.9-3.4 2.4-7 3.3-15.1 3.2-22.8 3-.8 0-1.7-.1-2.4-.4-1.2-.6-1.7-2.1-2.1-3.4-1.7-5.4-3.3-10.3-7-14.7-.7-1-1.8-1.8-3-2.1-1.1-.1-2.3.1-3.3.4-1.1.4-2.3.1-3.2-.6-.5-.6-.7-1.4-.7-2.2 0-2.3.3-4.9-1.2-6.6-.8-1-2.1-1.4-3-2.4-1.1-1.4-1.4-3.4-.7-5.1-1.3 2.2-1.8 5-.1 6.8.8.9 2.1 1.4 3 2.4 1.5 1.7 1.1 4.3 1.2 6.6-.1.8.2 1.6.7 2.2.9.7 2.1 1 3.2.6s2.2-.5 3.3-.5c1.2.3 2.3 1.1 3 2.1 3.8 4.4 5.3 9.3 7 14.7.4 1.3.9 2.7 2.1 3.4.8.3 1.6.5 2.4.4 7.7.2 15.8.2 22.8-3 1.3-.5 2.5-1.4 3.4-2.4.4-.6.8-1.3 1-2.1 0 .3-.1.4-.2.5zm-50.7-35c.3-.4.6-.8.7-1.3.1-.5.1-1.1 0-1.7-.3-3.1-.1-6.2.8-9.2l-.2-.2c-1.4 3.5-1.9 7.3-1.5 11.1.2.5.2.9.2 1.3z" opacity=".1"/><path class="st17" d="M588.3 319.7s31.8 3 34.5-1.9m26.5-13.5s17.6-.6 21.7 5.8"/><path class="st1" d="M1033.9 638.4s5.9 7.8-2.7 19.5-15.8 21.6-12.9 28.9c0 0 13.1-21.7 23.7-22s3.6-13.4-8.1-26.4zm-31.3 0s-5.9 7.8 2.7 19.5 15.8 21.6 12.9 28.9c0 0-13.1-21.7-23.7-22s-3.6-13.4 8.1-26.4z"/><path class="st17" d="M1033.9 638.4c.5.7.9 1.6 1.2 2.4 10.4 12.2 15.9 23.6 5.9 23.9-9.3.3-20.5 16.9-23.1 21.1.1.3.2.7.3 1 0 0 13.1-21.7 23.7-22s3.7-13.4-8-26.4zm-31.3 0c-.5.7-.9 1.6-1.2 2.4-10.4 12.2-15.9 23.6-5.9 23.9 9.3.3 20.5 16.9 23.1 21.1-.1.3-.2.7-.3 1 0 0-13.1-21.7-23.7-22s-3.7-13.4 8-26.4z"/><path d="M1044.9 648.3c0 2.7-.3 4.9-.7 4.9s-.7-2.2-.7-4.9.4-1.4.8-1.4.6-1.4.6 1.4zm3.8 3.2c-2.4 1.3-4.5 2.1-4.7 1.8s1.6-1.7 4-3 1.4-.4 1.6 0 1.5-.1-.9 1.2zm-57.1-3.2c0 2.7.3 4.9.7 4.9s.7-2.2.7-4.9-.4-1.4-.8-1.4-.6-1.4-.6 1.4zm-3.8 3.2c2.4 1.3 4.5 2.1 4.7 1.8s-1.6-1.7-4-3-1.5-.4-1.6 0-1.5-.1.9 1.2z" fill="#ffd037"/><path d="M1050.2 676.3l-.3 2.4-.4 3.4-.2 1.4-.4 3.4-.2 1.4-.4 3.4-4.7 38.9c-.4 3.5-6.1 6.2-12.9 6.2H1006c-6.8 0-12.5-2.7-12.9-6.2l-4.8-38.9-.4-3.4-.2-1.4-.4-3.4-.2-1.4-.4-3.4-.3-2.4c-.2-2 2.8-3.6 6.7-3.6h50.5c3.7 0 6.8 1.6 6.6 3.6z" fill="#65617d"/><path d="M1049.9 678.7l-.4 3.4H987l-.4-3.4h63.3zm-.6 4.8l-.4 3.4h-61.2l-.4-3.4h62zm-.6 4.9l-.4 3.4h-60l-.4-3.4h60.8z" fill="#9d9cb5"/></svg>