<svg xmlns="http://www.w3.org/2000/svg" viewBox="0 0 1167.5 754.1"><g opacity=".2"><path d="M1049.3 538.5c-.4-2.3-.7-4.7-.8-7l27 9.1-27-14c.8-14.1 7.4-27.3 18.2-36.5l26.2 37.8-20.3-42.1c24-15 55.7-7.7 70.7 16.3s7.7 55.7-16.3 70.7c-2 1.3-4.1 2.4-6.3 3.4.7 3.6.9 7.3.8 11l-41.2-.3 40.5 6.7c-2.8 17.1-14 31.7-29.8 38.7 5.1 27.9-13.4 54.6-41.3 59.6-27.9 5.1-54.6-13.4-59.6-41.3-4.2-23.3 8-46.4 29.7-56-4.3-23.3 8-46.5 29.5-56.1z"/><path opacity=".1" d="M1115.4 609.4c-5.4 10.2-14 18.2-24.5 22.9 5.1 27.9-13.4 54.6-41.3 59.6-27.9 5.1-54.6-13.4-59.6-41.3-4.2-23.3 8-46.4 29.7-56-2-11 98.4 9.7 95.7 14.8z"/></g><g opacity=".2"><path d="M1005.3 113.7c-1.1-3.7-2-7.4-2.7-11.2l45.2 9.2-46.2-17.2c-1.5-22.8 6.4-45.2 21.9-62l49.6 55.5-41-63.5c35.7-28.8 87.9-23.2 116.7 12.4s23.2 87.9-12.4 116.7c-2.9 2.4-6 4.5-9.2 6.5 1.8 5.7 2.9 11.6 3.5 17.5l-66.2 7.7 66.4 2.6c-1.1 28-16.2 53.7-40.2 68.1 13.6 43.8-10.8 90.3-54.5 103.9-43.8 13.6-90.3-10.8-103.9-54.5-11.4-36.5 3.7-76.1 36.5-95.8-11.5-36.6 3.6-76.2 36.5-95.9z"/><path opacity=".1" d="M1125.6 214.4c-6.6 17.4-18.9 32.1-34.9 41.6 13.6 43.8-10.8 90.3-54.5 103.9-43.8 13.6-90.3-10.8-103.9-54.5-11.4-36.5 3.7-76.1 36.5-95.8-5.4-17.1 160.1-3.9 156.8 4.8z"/></g><g opacity=".2"><path d="M188.6 139.6c1.9-4.1 3.5-8.4 4.8-12.8l-54.7 4.2 57-13.5c5.2-26.7-.9-54.3-16.7-76.4l-66.7 58.2L170 30.4C132.3-8.9 69.8-10.2 30.4 27.6s-40.6 100.3-2.8 139.6c3.2 3.3 6.6 6.4 10.2 9.2-2.9 6.5-5.2 13.2-6.7 20.1l76.9 18.8-78.8-6.7C26.4 242 40.5 274.4 66.8 295c-22.6 49.6-.7 108.2 49 130.7s108.2.7 130.7-49c18.9-41.5 6.9-90.5-28.9-118.6 18.8-41.3 6.8-90.4-29-118.5z"/><path opacity=".1" d="M31.8 240.7c5.2 21.5 17.5 40.7 35 54.3-22.6 49.6-.7 108.2 49 130.7s108.2.7 130.7-49c18.9-41.5 6.9-90.5-28.9-118.6 8.8-19.3-188.5-28.1-185.8-17.4z"/></g><linearGradient id="a" gradientUnits="userSpaceOnUse" x1="588.17" y1="-51.8" x2="588.17" y2="567.2" gradientTransform="matrix(1 0 0 -1 -16.24 680.92)"><stop offset="0" stop-color="gray" stop-opacity=".25"/><stop offset=".54" stop-color="gray" stop-opacity=".12"/><stop offset="1" stop-color="gray" stop-opacity=".1"/></linearGradient><path fill="url(#a)" d="M1056.3 113.7H87.6c-4.8 0-8.6 3.9-8.6 8.6v592.9c0 9.6 7.8 17.4 17.4 17.5h951.2c9.6 0 17.4-7.8 17.4-17.5V122.4c-.1-4.8-3.9-8.7-8.7-8.7z"/><path fill="#FFF" d="M1061 150.5v561.2c0 9.5-7.7 17.3-17.3 17.3H100.3c-9.5 0-17.3-7.7-17.3-17.3V150.5h978z"/><path fill="#D7D9E1" d="M211.9 143.7V729H100.3c-9.5 0-17.3-7.7-17.3-17.3v-568h128.9z"/><path fill="#EDEDF4" d="M1061 125.6v24.9H83v-24.9c0-4.7 3.8-8.6 8.6-8.6h960.9c4.7 0 8.5 3.9 8.5 8.6z"/><circle opacity=".8" fill="#FA5959" cx="98.5" cy="133.5" r="4"/><circle opacity=".8" fill="#FED253" cx="109.5" cy="133.5" r="4"/><circle opacity=".8" fill="#8CCF4D" cx="120.5" cy="133.5" r="4"/><path fill="#EDEDF4" d="M371.9 199.7h94v10h-94v-10zm0 29h528v10h-528v-10zm0 29h528v10h-528v-10zm0 29h528v10h-528v-10zm0 29h528v10h-528v-10zm-276-116h94v10h-94v-10zm0 29h94v10h-94v-10zm0 29h94v10h-94v-10zm0 29h94v10h-94v-10zm0 29h94v10h-94v-10z"/><linearGradient id="b" gradientUnits="userSpaceOnUse" x1="898.69" y1="-667.94" x2="898.69" y2="-661.94" gradientTransform="matrix(0 1 1 0 1290.87 -797.97)"><stop offset="0" stop-color="gray" stop-opacity=".25"/><stop offset=".54" stop-color="gray" stop-opacity=".12"/><stop offset="1" stop-color="gray" stop-opacity=".1"/></linearGradient><path fill="url(#b)" d="M628.9 98.7v4h-6v-4h6z"/><path fill="#3F3D56" d="M913 628.2c-.1-.6-.4-1.2-1-1.5-1-.4-2.1 0-2.5 1v.1l-9.2 19.4-2.1 76.3h3.3l1.2-76.1 10.1-17.9c.2-.5.3-.9.2-1.3z"/><linearGradient id="c" gradientUnits="userSpaceOnUse" x1="995.667" y1="-68.472" x2="995.667" y2="131.65" gradientTransform="matrix(1 0 0 -1 -16.24 680.92)"><stop offset="0" stop-color="gray" stop-opacity=".25"/><stop offset=".54" stop-color="gray" stop-opacity=".12"/><stop offset="1" stop-color="gray" stop-opacity=".1"/></linearGradient><path fill="url(#c)" d="M1052.8 746.9c0 .1-.1.1-.2.2-.3.3-.7.5-1.1.6-.8.2-1.7.4-2.6.4h-1.8c-.4 0-.7-.1-1.1-.1-.5.1-1 .2-1.6.4-1.1.3-2.3.5-3.4.5h-5c-2.2 0-4.5.4-6.7.5h-.7c-2.2 0-4.4-.6-6.2-1.8-.3-.2-.6-.6-.8-.9-.1-.4-.2-.8-.2-1.2 0-.8.2-1.5.8-2.1.4-.3.8-.5 1.2-.6l2.3-.7 2.4-.7h.2l.5-.1.3-.1c.4-.1.7-.3 1-.5.4-.3.7-.6 1-1 0-.1.1-.2.1-.2v-.2c-.1-.5-.1-1-.2-1.6-1.2-.3-2.2-.9-3.1-1.7-.7-.7-1.3-1.5-1.8-2.4-.9-2-1.7-4.1-2.3-6.2-1.3-3.1-2.8-6.1-4.6-8.9-1.6-2.7-3.2-5.3-5-7.8-1.2-1.7-2.5-3.2-3.7-4.9-3.4-4.6-5.8-9.9-7.1-15.5-.2-1.1-.5-2.1-.9-3.1-.7-1.7-2-3.2-3-4.8-1.1-1.7-1.8-3.6-2.2-5.6-.2-1.1-.6-2.4-1.7-2.5l-.1.2c-2.3 4.6-4.8 9.2-8.3 12.9-.6.5-1.1 1.1-1.5 1.8-.4.6-.7 1.3-1 1.9-.6 1.2-1.3 2.3-2.2 3.2-.3.3-.6.5-.9.7-.4.3-.9.5-1.4.7-.2.1-.4.1-.6.1v.3c.6 3.3.3 6.7-.8 9.9 0 .1-.1.2-.1.3-.2.5-.4.9-.6 1.4-.5 1.1-1.1 2.2-1.6 3.3-.1.2-.2.4-.2.6-1.7 4.4-1.3 9.4-1.5 14.2 0 1-.1 2.1-.4 3.1-.3 1.2-.7 2.3-1 3.5-.2.9-.2 1.8 0 2.7h-.1c-.5.2-.9.3-1.3.5v.1c.2.9.3 1.9.5 2.8.1.8.4 1.6.9 2.2l.4.4c.3.5 0 1.2.1 1.8.1.9.9 1.6.8 2.5-.1.5-.5 1-1 1.2-.2.1-.4.2-.6.2h-.1l-.8.1c-3.1.4-6.2.5-9.3.1l-1.8-.3c-.8 0-1.6 0-2.3.1-5.7.5-11.4.6-17.1.3-1.5-.1-3.2-.3-4-1.6-.5-1.1-.5-2.4-.1-3.6.1-.4.3-.9.5-1.3l.1-.1c.8-.9 2.2-1 3.4-1l4 .1c.4 0 .8 0 1.2-.1.6-.3 1.2-.6 1.8-1 .8-.4 1.7-.4 2.3-1l.1-.1c.1-.1.2-.3.3-.4l.1-.1v-.1c.5-.7 1.4-.9 2.1-1.3.1-.1.2-.1.3-.2l.1-.1c-.8-.6-1.4-1.2-2-2-.2-.2-.4-.5-.5-.8v-.7c0-.1 0-.1.1-.2.3-.6.9-1.1 1.2-1.6.5-.9.5-2-.1-2.8.3-5.5 1.8-10.8 2.2-16.2.1-2.2.1-4.3.2-6.5s.3-4.3.6-6.4c.5-4.9 1.9-9.7 1.7-14.6v-1.5c.1-1 .4-2 .9-2.9.6-1 1.3-2 2-2.9 2.5-3.3 5.6-6.6 6.5-10.7.6-2.1 1.4-4.1 2.5-5.9.5-1.2 1.3-2.2 2.2-3.1.5-.4 1-.8 1.5-1.3.7-.9.7-2.1 1.1-3.1.2-.5.5-1 .7-1.6v-.2c.1-.6.1-1.1.1-1.7v-.5c.2-1.6.7-3.2 1.4-4.7l.3-.6c-1.9-1.1-3.6-2.6-5-4.3-.5-.6-.9-1.2-1.2-1.8-.7-1.8-1.2-3.6-1.5-5.5-1-4.4-3.2-8.6-3.5-13.1 0-1.4-.1-2.8-.5-4.1-.1-.3-.3-.7-.5-1-.1-.1-.2-.3-.2-.4 0-.1-.1-.1-.1-.2l-.2-.4-.3.3c-8.5 6.6-17.4 12.7-26.6 18.2l-.8.5c-.4.2-.7.5-1 .9l-.1.2c-.2.4-.2.8-.4 1.3-.4.9-1.3 1.6-2.3 1.8-1.8.5-3.6.2-5.2-.7l-.6-.3c-.2.1-.4.2-.7.3l-.9.3c-1.7.4-3.4.5-5.1.5-1.7-.1-3.4.1-5.1.6-1 .5-2.1.8-3.3 1h-.4c-.6-.1-1.3-.3-1.8-.5l-.3-.2c-.2-.1-.3-.2-.5-.3-.2-.1-.3-.2-.5-.4s-.4-.5-.5-.8c-.1-.2-.1-.4 0-.7 0-.1.1-.2.1-.3.1 0 .2-.1.2-.1.5 0 1 0 1.4.1h1c.5 0 1-.3 1.3-.7 0-.1.1-.1.1-.2.1-.1.1-.2.1-.4v-.1c-.2-.1-.3-.2-.5-.3l-.3-.2c-.2-.1-.3-.2-.4-.3-.1-.1-.2-.2-.2-.3-.1-.2-.2-.3-.3-.5-.3-.1-.7-.1-1 0-.5.1-.9.4-1.4.5-.2.1-.5.1-.7 0-.7-.2-.9-1-1-1.7 0-.1 0-.3-.1-.4v-.8c.2-.6.6-1.1 1.1-1.4l1.4-1.1.1-.1c0-.1 0-.2-.1-.3v-.8c.2-.6.6-1.1 1.1-1.4l3-2.5c.5-.5 1.2-.9 1.9-1 1.1-.1 2 .8 2.8 1.5 1 1 2.3 1.6 3.6 1.8.7 0 1.3-.1 1.9-.3l.3-.1c-.1-.2-.2-.3-.2-.5s-.2-.5-.3-.8c1.8-.2 3.4-1 4.7-2.3 1.3-1.2 2.5-2.5 3.8-3.7s3.1-2.2 4.6-3.4c3.4-2.8 5.7-6.9 9.4-9.3 1.3-.9 2.8-1.5 3.6-2.8.3-.4.5-.8.8-1.2.9-1.2 2.4-1.8 3.6-2.7 1.3-1 2.4-2.1 3.3-3.3.7-.9 1.5-1.7 2.1-2.6l1.8-3.6c.6-1 1.2-1.9 2-2.8.2-.3.3-.7.5-1s.3-.5.5-.8.3-.4.4-.5c-.4-.7-.7-1.3-.9-1.5l-.1-.1c-.4-.4-.8-.8-1.2-1.1-.4-.1-.9-.2-1.3-.3-5.3-1.4-8.9-6.2-8.9-11.7 0-1.9.5-3.8 1.3-5.5.2-.3.4-.7.6-1-.2-.1-.4-.1-.5-.2-.3-.1-.6-.4-.8-.6-.2-.2-.3-.5-.3-.8-.1-.7 0-1.4.3-2 .1-.3.2-.6.4-.9 1.9-3.7 5.6-6 9.8-6.2 4.3-.2 8.4 1.8 11.8 4.7 1.1.8 2 1.7 2.9 2.7 1.7 2.6 2.6 5.6 2.8 8.6.1 1 .1 1.9 0 2.9 0 .3-.1.7-.2 1-.1.2-.1.4-.2.6-.1.1-.1.3-.2.4-.1.1-.1.3-.2.4l-.1.1.1.2c0 .1.1.1.1.2l2.4.3c.4 0 .8.1 1.2.2.8.3 1.5.8 2.2 1.3 1.7 1.2 3.8 1.8 5.5 3 2.5 1.9 3.8 4.9 5.2 7.7 2 3.7 5.2 6.8 6.7 10.8l2 5.3c1.2 3.5 2.6 7 4.3 10.3 2.4 4.6 5.7 8.7 7.6 13.5.2.5.5.9 1 1.1 2.6 3.7 5 7.6 7 11.7 1.1 2.1 2 4.4 2.4 6.8.2 2.1.1 4.3-.5 6.3-.3 1.2-.7 2.4-1.2 3.6-.2.4-.3.8-.4 1.3v.1c0 .8.1 1.6.3 2.4.1.6 0 1.3-.2 1.9 0 .1-.1.2-.1.3-.3.5-.5 1-.7 1.5v.2c0 .9.1 1.8.4 2.7.6 3.3.7 6.6.4 9.9-.1 1.7 1.2 3 2.4 4.2 2 2.4 3.8 4.9 5.3 7.6.9 1.4 1.6 2.8 2.2 4.3.5 1.7.9 3.5 1.2 5.3 1.1 5.5 4.5 10.3 5.4 15.8.4 2.5 1.5 4.9 3.2 6.8.5.5 1 1.1 1.4 1.7.3.5.5 1 .7 1.5.4 1.2.6 2.5.6 3.8-.1.6 0 1.2.1 1.8.4 1.3 1.8 2 2.4 3.2s.2 2.7.4 4.1c.2 1.1.8 2.1 1.6 2.8-.3.3-.7.6-1 .8l.9.9c.2.2.3.5.4.7.6 1.3.6 2.8 1 4.1.3.5.4 1.1.3 1.7-.1.2-.1.3-.1.5 0 .4.4.6.5 1 .1.4 0 .8-.2 1z"/><path fill="#FBBEBE" d="M965 585.3c2.5-.8 4.9-2 7-3.5l7.7-4.9c-2.1-.3-4-1.6-5-3.5s-1.6-3.9-1.9-6c-3.3 1.4-6.3 3.4-8.9 5.8-1.1.9-3.3 2.3-3.7 3.7s1.8 2.6 2.6 3.5c.4.5 3 4.7 2.2 4.9z"/><path opacity=".1" d="M965 585.3c2.5-.8 4.9-2 7-3.5l7.7-4.9c-2.1-.3-4-1.6-5-3.5s-1.6-3.9-1.9-6c-3.3 1.4-6.3 3.4-8.9 5.8-1.1.9-3.3 2.3-3.7 3.7s1.8 2.6 2.6 3.5c.4.5 3 4.7 2.2 4.9z"/><path fill="#FBBEBE" d="M922.9 625.9c-1.3.8-2.8 1.3-4.3 1.3-1.4-.2-2.6-.8-3.6-1.7-.8-.7-1.7-1.6-2.8-1.5-.7.1-1.4.5-1.9 1l-3 2.5c-.9.5-1.4 1.6-1 2.6.1.7.4 1.5 1 1.7s1.3-.3 2-.5c.9-.2 1.8 0 2.3.7.2.2.4.6.4.9 0 .8-.8 1.2-1.6 1.3s-1.5-.2-2.3-.2c-.1 0-.2 0-.2.1-.1.1-.1.1-.1.2-.1.5.1 1.1.5 1.5.4.4.9.6 1.3.8.6.3 1.2.5 1.8.5 1.3.1 2.4-.6 3.7-1 1.7-.5 3.4-.6 5.1-.6 1.7.1 3.4-.1 5.1-.5 1.7-.4 3.1-1.6 3.9-3.1.1-.1.1-.3.1-.5-.1-.2-.2-.3-.3-.4-2.3-1.7-3.3-3.8-5.8-5l-.3-.1z"/><path opacity=".1" d="M922.9 625.9c-1.3.8-2.8 1.3-4.3 1.3-1.4-.2-2.6-.8-3.6-1.7-.8-.7-1.7-1.6-2.8-1.5-.7.1-1.4.5-1.9 1l-3 2.5c-.9.5-1.4 1.6-1 2.6.1.7.4 1.5 1 1.7s1.3-.3 2-.5c.9-.2 1.8 0 2.3.7.2.2.4.6.4.9 0 .8-.8 1.2-1.6 1.3s-1.5-.2-2.3-.2c-.1 0-.2 0-.2.1-.1.1-.1.1-.1.2-.1.5.1 1.1.5 1.5.4.4.9.6 1.3.8.6.3 1.2.5 1.8.5 1.3.1 2.4-.6 3.7-1 1.7-.5 3.4-.6 5.1-.6 1.7.1 3.4-.1 5.1-.5 1.7-.4 3.1-1.6 3.9-3.1.1-.1.1-.3.1-.5-.1-.2-.2-.3-.3-.4-2.3-1.7-3.3-3.8-5.8-5l-.3-.1z"/><path d="M971.4 581.7c-1.3-.8-2.9-1-4.4-.5-1.4.5-2.7 1.4-3.8 2.5-1 1.1-1.9 2.2-2.7 3.5-.7 1.2-1.3 2.5-2 3.8-1.3 2.2-2.8 4.2-4.5 6.1-1 1.3-2.1 2.4-3.3 3.3-1.2.9-2.8 1.4-3.6 2.7-.3.4-.5.8-.8 1.2-.9 1.3-2.3 1.9-3.6 2.8-3.7 2.5-6 6.5-9.4 9.3-1.5 1.2-3.2 2.1-4.6 3.3s-2.5 2.5-3.8 3.6c-1.3 1.2-2.9 2-4.7 2.2 1.1 2.7 2.6 5.1 4.6 7.2 2 2 5 3.3 7.8 2.5 1-.2 1.9-.9 2.3-1.8.1-.5.3-1 .5-1.4.3-.4.6-.7 1-.8 11.1-6.5 21.6-13.8 31.5-21.9 2.7-2.2 5.3-4.1 8-6.2 1-.7 1.9-1.5 2.7-2.4 2.3-2.8 2.8-6.7 1.1-9.9-.7-1.2-1.6-2.4-2.5-3.4-1.6-2.1-3.6-4-5.8-5.7z"/><path opacity=".1" d="M971.4 581.7c-1.3-.8-2.9-1-4.4-.5-1.4.5-2.7 1.4-3.8 2.5-1 1.1-1.9 2.2-2.7 3.5-.7 1.2-1.3 2.5-2 3.8-1.3 2.2-2.8 4.2-4.5 6.1-1 1.3-2.1 2.4-3.3 3.3-1.2.9-2.8 1.4-3.6 2.7-.3.4-.5.8-.8 1.2-.9 1.3-2.3 1.9-3.6 2.8-3.7 2.5-6 6.5-9.4 9.3-1.5 1.2-3.2 2.1-4.6 3.3s-2.5 2.5-3.8 3.6c-1.3 1.2-2.9 2-4.7 2.2 1.1 2.7 2.6 5.1 4.6 7.2 2 2 5 3.3 7.8 2.5 1-.2 1.9-.9 2.3-1.8.1-.5.3-1 .5-1.4.3-.4.6-.7 1-.8 11.1-6.5 21.6-13.8 31.5-21.9 2.7-2.2 5.3-4.1 8-6.2 1-.7 1.9-1.5 2.7-2.4 2.3-2.8 2.8-6.7 1.1-9.9-.7-1.2-1.6-2.4-2.5-3.4-1.6-2.1-3.6-4-5.8-5.7z"/><path fill="#3F3D56" d="M953.6 735.4c-.8.3-1.5.8-2.1 1.3-.2.2-.3.5-.5.7-.5.7-1.5.7-2.3 1-.6.4-1.2.7-1.8 1-.4.1-.8.1-1.2.1l-4-.1c-1.3 0-2.8 0-3.5 1.1-.2.4-.4.8-.5 1.3-.5 1.2-.4 2.4.1 3.6.8 1.3 2.5 1.5 4 1.6 5.7.3 11.3.2 17-.3.8-.1 1.5-.1 2.3-.1l1.8.3c3.1.4 6.2.3 9.3-.1.5 0 1-.1 1.5-.3.5-.2.9-.6 1-1.1.1-.9-.7-1.6-.8-2.4-.1-.6.2-1.3-.1-1.8-.1-.2-.3-.3-.4-.4-.5-.6-.8-1.4-.8-2.2l-.8-4.3c0-.3-.1-.6-.3-.8-.2-.1-.3-.2-.5-.2-3.2-.7-6.4-.1-9.5.3-1.6.2-3.2.3-4.9.2-.7 0-1-.1-1.5.3s-.9.9-1.5 1.3zm76.2 5.2c-.6.3-1.1.5-1.8.7-1.6.5-3.3 1-4.9 1.5-.4.1-.8.3-1.2.6-.5.6-.8 1.3-.8 2 0 .4 0 .8.2 1.2.2.4.5.7.8.9 1.9 1.3 4.3 2 6.6 1.8 2.3 0 4.6-.4 7-.5 2.8-.1 5.7.3 8.4-.5.5-.2 1.1-.3 1.6-.4.4 0 .7 0 1.1.1 1.4.1 2.9 0 4.3-.4.4-.1.8-.3 1.2-.6.3-.3.5-.8.3-1.2-.2-.3-.5-.6-.5-1 0-.2.1-.3.1-.5.1-.6 0-1.2-.3-1.7-.5-1.6-.4-3.4-1.4-4.8-1.1-1.3-2.7-2.1-4.4-2.2-1.4-.2-2.7-.1-4.1.1-1.5.3-2.9 1-4.4 1.4-1.7.5-3.5.7-5.3.5-1.2-.1-.8.1-1.2 1.1-.1.9-.6 1.5-1.3 1.9z"/><circle fill="#FBBEBE" cx="963.6" cy="567.6" r="12"/><path d="M1050.8 736.3c-3.7 3.2-8.8 4.6-13.7 4.7-2.1.1-4.2-.3-6-1.3l-.3-2.1c-2.1-.6-3.9-2.1-4.8-4.1-.9-2-1.7-4-2.3-6.1-1.3-3.1-2.8-6-4.6-8.8-1.6-2.6-3.2-5.3-5-7.7-1.2-1.7-2.5-3.2-3.7-4.9-3.4-4.6-5.8-9.8-7.1-15.4-.2-1.1-.5-2.1-.9-3.1-.9-1.7-1.9-3.2-3-4.7-1.1-1.7-1.8-3.6-2.2-5.6-.2-1.1-.5-2.3-1.7-2.5-2.4 4.6-4.8 9.3-8.4 13.1-.6.5-1.1 1.1-1.5 1.8-.4.6-.7 1.3-1 1.9-.6 1.2-1.3 2.3-2.2 3.2-.8.8-1.7 1.3-2.8 1.5.8 4 .3 8.1-1.4 11.8-.5 1.1-1.1 2.1-1.6 3.3-1.9 4.5-1.5 9.7-1.7 14.6 0 1-.1 2.1-.4 3.1-.5 2-1.5 4.2-1 6.2-5.2 2-11 1.9-16.5 1-1.1-.1-2.1-.4-3.1-.9-.8-.6-1.4-1.2-2-2-.2-.2-.4-.5-.5-.8-.2-1 .8-1.6 1.3-2.5.5-.9.5-2-.1-2.8.3-5.4 1.8-10.7 2.2-16.2.1-2.2.1-4.3.2-6.5s.3-4.3.6-6.4c.5-4.8 1.9-9.6 1.7-14.5-.1-1.5.3-3 1-4.3.6-1 1.3-2 2-2.8 2.5-3.3 5.6-6.6 6.5-10.6.6-2.1 1.4-4.1 2.5-5.9.5-1.2 1.3-2.2 2.2-3.1.5-.4 1-.8 1.5-1.3.7-.9.7-2.1 1.1-3.1.2-.5.5-1 .7-1.6.1-.6.2-1.2.2-1.9.2-2 .8-4 1.7-5.8-1.9-1.1-3.6-2.6-5-4.3-.5-.6-.9-1.2-1.2-1.8-.7-1.7-1.2-3.6-1.5-5.4-1-4.4-3.2-8.5-3.5-13 0-1.4-.1-2.8-.5-4.1-.2-.5-.5-1.1-.8-1.6-.3-.5-.5-1-.7-1.6-.3-1.2.1-2.5 0-3.7-.2-1.1-.5-2.2-.8-3.2-.2-1.4-.3-2.8-.1-4.2.2-1.7.3-3.3.3-5-.4-5.5 1.5-10.9 5.3-14.9l.1-.1c.8-.8 1.7-1.6 2.4-2.4 1-1.2 1.7-2.6 2.7-3.7.5-.5 1-1 1.4-1.5.4-.5.9-1 1.3-1.5.5-.5 1.2-.7 1.9-.5.1.6.3 1.2.6 1.8.9.1 1.6.2 2.5.3.4 0 .8.1 1.2.2.8.3 1.5.8 2.2 1.3 1.7 1.2 3.8 1.8 5.5 3 2.5 1.8 3.8 4.9 5.2 7.6 2 3.7 5.2 6.8 6.7 10.7.7 1.8 1.3 3.6 1.9 5.3 1.2 3.5 2.6 6.9 4.3 10.2 2.4 4.5 5.7 8.7 7.6 13.4.2.5.5.9 1 1.1 2.6 3.7 5 7.6 7 11.6 1.1 2.1 2 4.4 2.4 6.7.5 3.3-.5 6.7-1.7 9.8-.2.4-.4.9-.4 1.4 0 .8.1 1.6.3 2.4.1.7 0 1.5-.3 2.2-.3.5-.5 1-.7 1.5-.1 1 0 2 .4 2.9.6 3.3.7 6.6.4 9.9-.1 1.6 1.3 3 2.4 4.2 2 2.3 3.8 4.9 5.3 7.6.8 1.3 1.6 2.8 2.1 4.3.5 1.7.9 3.5 1.2 5.3 1 5.4 4.5 10.2 5.4 15.7.4 2.5 1.5 4.8 3.2 6.7.5.5 1 1.1 1.4 1.7.3.5.5 1 .7 1.5.4 1.2.6 2.5.6 3.8-.1.6 0 1.2.1 1.8.4 1.3 1.8 2 2.3 3.2s.2 2.7.4 4.1c.1.7.7 1.7 1.6 2.4z"/><path fill="#FBBEBE" d="M925.3 622.2c-1.3.8-2.8 1.3-4.3 1.3-1.4-.2-2.7-.8-3.6-1.7-.8-.7-1.7-1.6-2.8-1.5-.7.1-1.4.5-1.9 1l-3 2.5c-.5.3-.9.8-1.1 1.4-.1.4 0 .8.1 1.2.1.7.4 1.5 1 1.7s1.3-.3 2-.5c.9-.2 1.8 0 2.3.7.2.2.4.6.4.9 0 .8-.8 1.3-1.6 1.3s-1.5-.2-2.2-.2c-.1 0-.2 0-.3.1-.1.1-.1.1-.1.2-.1.6.1 1.1.5 1.5.4.4.9.6 1.4.8.6.3 1.2.5 1.8.5 1.3.1 2.5-.6 3.7-1 1.7-.5 3.4-.7 5.1-.6 1.7.1 3.4-.1 5.1-.5 1.7-.4 3.1-1.6 3.8-3.1.1-.1.1-.3.1-.5-.1-.2-.2-.3-.3-.4-2.3-1.7-3.3-3.8-5.9-5l-.2-.1z"/><path fill="#3F3D56" d="M957.8 560.2c-.7.2-1.4.5-2 .9-.9.4-2 .3-2.8-.2-.3-.1-.6-.4-.8-.6-.5-.9-.5-1.9 0-2.8 1.7-4.2 5.7-6.9 10.2-7.1 4.3-.2 8.4 1.8 11.7 4.7 1 .8 1.9 1.8 2.7 2.8 1.7 2.6 2.6 5.5 2.8 8.6.1 1.3 0 2.6-.3 3.8-.3 1.2-1.1 2.3-2.2 2.9-1.2.5-2.6.5-3.8-.2-1.2-.6-2.3-1.4-3.3-2.4-.5-.4-1-.8-1.6-1-.6-.2-1.3-.1-1.8.4-.5.7-.4 1.8-.9 2.5-.6.7-1.5 1-2.4.8-.9.1-1.7-.2-2.3-.8-.4-.7-.5-1.6-.2-2.4.3-.8.4-1.6.4-2.4-.2-1.6-1.6-2.7-2.1-4.2-.3-1 .4-1.4.3-2.3-.1-.7-.7-1.2-1.5-1.1l-.1.1z"/><path opacity=".1" d="M995.5 674.5c-2.4 4.7-4.8 9.4-8.4 13.2-.6.5-1.1 1.1-1.5 1.8-.4.6-.7 1.3-1 1.9-.6 1.2-1.3 2.3-2.2 3.2l-3 1.5 9.5-49.7 6.6 28.1zm-13.8-75.3c-.8.9-1.7 1.7-2.7 2.4-2.7 2.1-5.4 4-8 6.2-2.2 1.8-4.3 3.5-6.5 5.1-.3-.5-.5-1-.7-1.6-.3-1.2.1-2.5 0-3.7-.2-1.1-.5-2.2-.8-3.2-.2-1.4-.3-2.8-.1-4.2.2-1.7.3-3.3.3-5-.4-5.5 1.5-10.9 5.3-14.9l.1-.1c.4-.3.9-.5 1.4-.6 1.5-.5 3.1-.3 4.4.5 2.3 1.7 4.3 3.6 6 5.9.9 1.1 1.8 2.2 2.5 3.4 1.6 3.1 1.1 7.1-1.2 9.8z"/><path d="M973.9 578c-1.3-.8-2.9-1-4.4-.5-1.4.5-2.7 1.4-3.8 2.5-1 1.1-1.9 2.2-2.7 3.5-.7 1.2-1.3 2.5-1.9 3.8-1.3 2.2-2.8 4.2-4.5 6.1-1 1.3-2.1 2.4-3.3 3.3-1.3.9-2.8 1.4-3.6 2.7-.3.4-.5.8-.8 1.2-.9 1.3-2.3 1.9-3.6 2.8-3.7 2.5-6 6.5-9.4 9.3-1.5 1.2-3.2 2.1-4.6 3.3s-2.5 2.5-3.8 3.6c-1.3 1.2-2.9 2-4.7 2.2 1.1 2.7 2.6 5.1 4.6 7.2 2 2 5 3.3 7.8 2.5 1-.2 1.9-.9 2.3-1.8.1-.5.3-1 .5-1.4.3-.4.6-.7 1-.8 11.1-6.5 21.6-13.8 31.5-21.9 2.7-2.2 5.3-4.1 8-6.2 1-.7 1.9-1.5 2.7-2.4 2.3-2.8 2.8-6.7 1.1-9.9-.7-1.2-1.6-2.3-2.5-3.4-1.7-2.1-3.7-4.1-5.9-5.7z"/><path opacity=".1" d="M964.1 571.7c-.9.1-1.7-.2-2.3-.8-.4-.7-.5-1.6-.2-2.4.3-.8.4-1.6.4-2.4-.2-1.7-1.6-2.7-2.1-4.2-.3-1 .4-1.4.3-2.3-.1-.7-.8-1.2-1.5-1.1-.7.2-1.4.5-2 .9-.9.4-2 .3-2.8-.2-.3-.2-.6-.4-.8-.6-.5-.9-.5-1.9 0-2.8v-.1c-.3.6-.6 1.1-.9 1.8-.5.9-.5 1.9 0 2.8.2.3.5.5.8.6.9.5 1.9.5 2.8.1.6-.4 1.3-.7 2-.9.7-.1 1.4.3 1.5 1v.1c.1.9-.6 1.3-.3 2.3.5 1.5 1.9 2.6 2.1 4.2 0 .8-.1 1.6-.4 2.4-.3.8-.2 1.6.2 2.4.6.6 1.5.9 2.3.8.9.1 1.8-.2 2.4-.8.2-.4.4-.8.5-1.3-.6.4-1.3.6-2 .5zm13.8-.2c-1.2.5-2.6.5-3.8-.2-1.2-.6-2.3-1.4-3.3-2.4-.5-.4-1-.8-1.6-1-.6-.2-1.3-.1-1.8.4-.3.4-.5.9-.5 1.4.4-.3 1-.3 1.5-.2.6.2 1.1.6 1.6 1 1 .9 2.1 1.7 3.3 2.4 1.2.6 2.6.7 3.8.2 1.1-.6 1.8-1.6 2.1-2.8-.4.6-.8 1-1.3 1.2z"/><circle fill="#3F3D56" cx="874.7" cy="737.3" r="12.4"/><circle opacity=".1" cx="874.7" cy="737.3" r="12.4"/><circle fill="#65617D" cx="874.7" cy="737.3" r="7.9"/><circle opacity=".1" cx="874.7" cy="737.3" r="7.9"/><path fill="#3F3D56" d="M865.2 717.8l8.2 18.4c.3.8 1.3 1.2 2.1.8.3-.2.6-.4.8-.8l9.7-19.8-20.8 1.4z"/><path opacity=".1" d="M865.2 717.8l8.2 18.4c.3.8 1.3 1.2 2.1.8.3-.2.6-.4.8-.8l9.7-19.8-20.8 1.4z"/><circle fill="#3F3D56" cx="797.2" cy="737.3" r="12.4"/><circle opacity=".1" cx="797.2" cy="737.3" r="12.4"/><circle fill="#65617D" cx="797.2" cy="737.3" r="7.9"/><circle opacity=".1" cx="797.2" cy="737.3" r="7.9"/><path fill="#3F3D56" d="M787.7 717.8l8.2 18.4c.3.8 1.3 1.2 2.1.8.3-.2.6-.4.8-.8l9.7-19.8-20.8 1.4z"/><path opacity=".1" d="M787.7 717.8l8.2 18.4c.3.8 1.3 1.2 2.1.8.3-.2.6-.4.8-.8l9.7-19.8-20.8 1.4z"/><path fill="#3F3D56" d="M915.1 629c-.1-.6-.4-1.2-1-1.5-1-.4-2.1 0-2.5 1v.1l-7.1 17.7-2.1 79.6h3.3l1.2-79.4 8.1-16.3c.1-.3.2-.8.1-1.2z"/><path d="M768.4 719.7l11.2-7 120.8-1 3.1 8.1-135.1-.1z"/><path fill="#3F3D56" d="M768.4 727.1v-7.5l137.3-1.3-.1 5H770.9v3.7l-2.5.1z"/><circle fill="#3F3D56" cx="785.8" cy="741.6" r="12.4"/><circle fill="#65617D" cx="785.8" cy="741.6" r="7.9"/><path fill="#3F3D56" d="M776.3 722.2l8.2 18.4c.3.8 1.3 1.2 2.1.8.3-.2.6-.4.8-.8l9.7-19.7-20.8 1.3z"/><circle fill="#3F3D56" cx="882.4" cy="741.6" r="12.4"/><circle fill="#65617D" cx="882.4" cy="741.6" r="7.9"/><path fill="#3F3D56" d="M872.9 722.2l8.2 18.4c.3.8 1.3 1.2 2.1.8.3-.2.6-.4.8-.8l9.7-19.7-20.8 1.3z"/><path fill="#EDEDF4" d="M787.9 633.7h82v82h-82v-82z"/><path fill="#D7D9E1" d="M801.9 551.7h82v82h-82v-82z"/><path opacity=".1" d="M373.9 362.7h82v82h-82v-82z"/><path fill="#EDEDF4" d="M371.9 360.7h82v82h-82v-82z"/><path opacity=".1" d="M817.9 361.7h82v82h-82v-82z"/><path fill="#EDEDF4" d="M815.9 359.7h82v82h-82v-82z"/><path opacity=".1" d="M595.9 365.7h82v82h-82v-82z"/><path fill="#EDEDF4" d="M593.9 363.7h82v82h-82v-82z"/><path opacity=".1" d="M561.9 494.7h82v82h-82v-82z"/><path fill="#EDEDF4" d="M554.9 488.7h82v82h-82v-82z"/><path d="M605.7 515.1l5.6 5.6-11.9 11.9-9.7-9.7-18 18 3.4 3.4 14.6-14.6 9.7 9.7 15.3-15.3 5.6 5.6v-14.6h-14.6z"/><linearGradient id="d" gradientUnits="userSpaceOnUse" x1="927.353" y1="-70.521" x2="927.353" y2="150.264" gradientTransform="rotate(180 760.38 340.46)"><stop offset="0" stop-color="gray" stop-opacity=".25"/><stop offset=".54" stop-color="gray" stop-opacity=".12"/><stop offset="1" stop-color="gray" stop-opacity=".1"/></linearGradient><path fill="url(#d)" d="M541.5 747c.6-2.5 1-4.7 1-4.7-.1-1.7.3-3.3 1.1-4.8v-5.8c-.3-.9-.8-1.8-1.3-2.7-.9-1.6 0-7.4 0-7.4s3.4-8.2 2.5-13.4 6.9-23.2 6.9-23.2c0-1.7-.3-3.4-.7-5.1-.1-.4-.1-.7-.1-1.1v-.1c.1-3.4 2.8-9.9 2.8-9.9l-.4-12.3s-1.7-7.3 1.1-17c1-3.4 1.6-6.1 2-8.2 0-.2.1-.5.1-.7l-10.3-1.6s3.4-14.1 5.7-16.6 4.1-10.3 4.1-10.3 1.2-10-.7-12.9-2.2-8-2.2-8-4.4-3.2-4.9-4.6c-.8-2-1.3-4.1-1.5-6.3 0-1.7.5-3.2.4-4.1s1.3-4.2.5-5.8c-.2-.5-.3-1-.3-1.5v.1c0-1.4.1-2.8.4-4.2 1.3-1.1 2.7-1.9 4.3-2.3l.1-.4.3-1c.1-.1.3-.2.4-.3V549l-.7-3.2c-1.3-5.6 6.1-6.5 6.1-6.5.5-.9 1.2-1.5 2.1-1.9 1.5-.5.3 8.4-.5 9-1.1 1.5-2.1 3-3 4.6l-.1.2.3.3-.3 2v.3c.5.6.9 1.3 1.2 2-.8.9-1.2 2-1.1 3.2.1 1.3 0 2.6-.5 3.9.1-.1 1-1.1 2-.9s3.7 1.1 3.7 1.1 2 .3 1.8.8 1.4 2.4 1.4 2.4l5.4-5.1c0-.2.1-.3.2-.5.2-.7.4-1.5.5-2.2-.6-.1-1.2-.3-1.7-.5-.6-.2-1.1-.5-1.5-1-.5-.7-.7-1.5-.9-2.3-.6-1.5-1.2-3-2-4.5-1.1-2.5-1.5-5.3-1.1-8 .1-.8.4-1.6.8-2.3.9-1.2 2.5-1.7 3.6-2.7s1.9-2.4 3.3-3.2c1.3-.6 2.7-.7 4.1-.3 2.7.4 5.3 1.4 7.7 2.8.7.6 1.6.9 2.6.8.8-.2 1.4-.7 1.8-1.3l.1-.1c.6 1.3.9 2.6.8 4v1.4c.1.3.3.5.5.7.2.2.3.4.4.6 0-.1 0-.2-.1-.2.3.5.5 1.1.6 1.7 0 .4-.1.9-.4 1.2-.3.3-.6.5-.9.7.1.6.2 1.2.2 1.8 0 3.7-2 7-5.1 8.9l-.2.5c-.8 1.9-1.1 3.9-1 5.9 0 .1 0 .3.1.4l.2.2s8.9.1 11-1.8 5.3 4.6 5.3 4.6 3.2.6 3.8 0 4.4-.1 4.4-.1c1.5-1.4 3.5-2.1 5.6-2 1.2-.9 2.6-1.7 4.1-2.3h.1c.6-.2 1.3-.3 2-.3 0 0 4.4-3.6 5.7-5.6s7.4-9.2 7.4-9.2v-.3l.1-1.1h.5c0-.1.1-.2.1-.4.3-1 .8-2 1.3-3 0 0 0-1.3-.4-1.7s.2-5.2.2-5.2 4-9.2 7.5-2.3c0 0 6.7 4.5 1.1 9.7 0 0-2.2 1.1-2.6 1.9-.2.6-1 2.1-1.5 3.2l-.2.5h.1l-.1.9v.3c1.1.6 1.8 1.2 1.6 1.7-.3.8-.5 1.6-.6 2.4 0 0-7.8 9.7-8.8 13.9 0 0-20.8 12.4-27.7 13.3l1.2 6.2s.4 3.7.3 5 .8 7.3.8 7.3 1.2 8.8 2.2 10.1.8 6.5.8 6.5c.2 2.5.7 5.1 1.4 7.5.6 2.5.7 5 .3 7.5 0 0 3.5 8-4.8 2.6 0 0-4.1-.3-8.8-.4v2.4c.1 4.5.1 10.8-.1 15.6-.4 8.4-2.9 25-2.9 25v8.3c.2.8.2 1.6.2 2.4.1 2.9-.7 5.8-2.3 8.4l-.6 5.6c-.8 1.9-1.3 3.8-1.5 5.9 0 .2 0 .4.1.5.1.3.1.6.1.8.1 2.5-1.4 8.6-1.4 8.6s-.1 6.1-1 6.5 1 3.5 1.6 4.4v-.2l.1.2c.2.5.3 1 .3 1.5.1.8-.3 1.7-1 2.1-1.7 1.1-2.7 1.9-1.2 2.3.5.1 1.1.2 1.6.3 0-.1.1-.1.1-.2.4.2.7.6.6 1.1 0 .7-.2 1.4-.5 2.1-.6 1.6-1.5 3.1-2.5 4.5l-.7-.1c.1.3.2.5.4.8.3.4.6.7 1 .9.4.2.8.4 1.3.4 1 0 1.9.5 2.6 1.3.9 1.2 1.5 2.8-.3 4.2l-6.5 2.3s-11.2 1.5-10.6-1.1 1-4.7 1-4.7c0-1.5.3-3.1.9-4.5.1-.2.3-.4.4-.7h-.4s-.8-5.6-1.9-6.6c-.3-.3-.3-.4-.3-.6-.1-.3.2-.5.5-.6 0 .1.1.1.1.2.4-.1.7-.1 1.1-.1 0 0 .4-2.9-.8-4-.2-.2-.3-.6-.2-.9 0-.4 0-.8.1-1.2v.1c.7-2.4 1.6-4.6 2.6-6.8 0 0 .1-2.7-.6-3.7s.1-14.4.1-14.4-.3-6.5.5-9.5-1-6.5-1-6.5v-.2s0-.4.1-1v.1c.2-1.7.5-4.8.8-6.2.4-2-.1-11.8-.1-11.8l-1.5-4.1-2.9 7.2-3.1 9.5c-.9 1.2-1.4 2.6-1.6 4.1v.9c0 1.2-.3 2.4-1 3.4 0 0-.8 4.5-2.1 5.7-.8.9-1.3 2.1-1.3 3.4 0 0-1.5 6.5-2.3 7.7-.6 1-.6 3.6-.6 4.5v.2s-.2 2.3-.2 4.3v.7c0 .5.1 1.1.2 1.6v.1-.3c.3 1.3.5 2.7.5 4.1 0 2.3-.3 5.1-1.7 6.8-2.5 2.8-4 2.5-4 2.5s1.2 3.5 2.7 4.3c.1 0 .1.1.2.1v-.2c.3.4.5.8.4 1.3-.1 1.9-.7 3.7-1.8 5.2-.3.3-.8.6-1.2.7l.2.1c.2.1.3.2.5.2.2.1.5.2.7.2 1 0 1.9.5 2.6 1.3.9 1.2 1.5 2.8-.3 4.2l-6.5 2.3c-.3-.2-11.4 1.2-10.8-1.3z"/><path fill="#3F3D56" d="M584.4 751.2l6.3-2.3c1.8-1.4 1.2-3 .3-4.2-.6-.8-1.5-1.2-2.5-1.3-.4-.1-.8-.2-1.2-.4-.4-.2-.7-.5-1-.9-.5-.7-.7-1.6-.7-2.4 0 0-6.9-2-8.8 0-.3.4-.6.8-.8 1.2-.6 1.4-.9 2.9-.9 4.5 0 0-.3 2.2-.9 4.7s10.2 1.1 10.2 1.1zm-31-3.1l6.3-2.3c1.7-1.4 1.2-3 .3-4.2-.6-.8-1.5-1.2-2.5-1.3-.3 0-.5-.1-.7-.2-.2-.1-.3-.2-.5-.2-1.8-1-1.7-3.4-1.7-3.4s-6.9-2-8.8 0c-.3.3-.5.6-.7.9-.7 1.5-1.1 3.1-1.1 4.8 0 0-.4 2.2-.9 4.7s10.3 1.2 10.3 1.2z"/><path fill="#65617D" d="M543.9 729.1c.5.8.9 1.7 1.2 2.7v7c1.8 2.9 11 1.9 12.2.3s2.6-5.8 1.2-6.5-2.6-4.3-2.6-4.3 1.5.4 3.9-2.5 1.7-9.1 1.2-10.6 0-6.5 0-6.5-.1-3.5.6-4.7 2.2-7.7 2.2-7.7c0-1.2.4-2.4 1.2-3.4 1.2-1.2 2-5.7 2-5.7.7-1.1 1-2.5.9-3.8-.3-2.2 1.5-4.6 1.5-4.6l3-9.5 2.8-7.2 1.6 4.2s.5 9.7.1 11.8-.9 7.4-.9 7.4 1.8 3.5 1 6.5-.5 9.5-.5 9.5-.8 13.3-.1 14.4.6 3.7.6 3.7-3.6 7.8-2.5 8.8.8 4 .8 4-2.5 0-1.4 1.1 1.8 6.6 1.8 6.6l10.7 1.2c1-1.4 1.8-2.9 2.4-4.5 1.4-3.3-.3-2.9-1.7-3.3s-.5-1.2 1.2-2.3.7-3.5.7-3.5-2.6-4.3-1.7-4.7 1-6.5 1-6.5 1.8-7.3 1.3-9.2 1.4-6.6 1.4-6.6l.6-5.6c1.9-3.2 2.6-6.9 1.9-10.5V676s2.5-16.6 2.8-25c.2-5.4.2-12.7.1-17.3 0-2.6-.1-4.3-.1-4.3l-38.2-4c-.1 1.9-.3 3.8-.7 5.7-.4 2.1-1 4.8-2 8.2-1.7 5.5-2 11.3-1.1 17l.3 12.3s-3.4 8.2-2.7 11c.4 1.7.7 3.4.7 5.1 0 0-7.5 17.9-6.7 23.2s-2.5 13.4-2.5 13.4-.4 6.2.5 7.8z"/><path opacity=".05" d="M588.1 729c.5-.3.9-.9 1-1.5l.1.2s1 2.4-.7 3.5l-.5.4c-.3-.1-.7-.1-1-.2-1.5-.4-.6-1.3 1.1-2.4zm-13.4-.7c-.3-.3-.3-.9-.1-1.8.4.8.6 1.7.6 2.6-.2-.3-.3-.6-.5-.8zm1.6-44c.4 1 .6 2.1.7 3.3-.2-.8-.5-1.5-.8-2.2 0 0 0-.4.1-1.1zm-23.9-4.6c-.1-.3-.1-.7-.1-1 .1.7.2 1.3.3 1.8-.1-.2-.2-.5-.2-.8zm24.1 36.1c-.2-.6-.3-1.3-.3-2 .3.8.5 1.6.5 2.5 0-.2-.1-.4-.2-.5zm11.9.8s-.1 6.1-1 6.5c-.5-1-.8-2-.3-2.1.9-.4 1-6.5 1-6.5s1.8-7.3 1.3-9.2 1.4-6.6 1.4-6.6l.6-5.6c1.9-3.2 2.6-6.9 1.9-10.5V674s2.5-16.6 2.8-25c.2-5.4.2-12.7.1-17.3v-2.2h.3s0 1.7.1 4.3c.1 4.6.1 11.9-.1 17.3-.4 8.4-2.8 25-2.8 25v8.6c.6 3.6-.1 7.4-2 10.5l-.6 5.6s-1.8 4.7-1.4 6.6-1.3 9.2-1.3 9.2zm-44.9 10.1c.5.8.9 1.7 1.2 2.7v1.2c-.2-.5-.5-1-.9-1.8-.2-.6-.3-1.4-.3-2.1zm12.9 1.4l-.9-2.1s1.5.4 3.9-2.5c1.7-2.1 1.8-6 1.6-8.5.5 1.5 1.2 7.8-1.2 10.6-1.6 1.9-2.7 2.4-3.4 2.5zm4.6-19.6c-.2 1.7-.2 3.5-.2 5.2 0-.3-.1-.6-.2-.8-.4-1.5 0-6.5 0-6.5s-.1-3.5.6-4.7 2.2-7.7 2.2-7.7c0-1.2.4-2.4 1.2-3.4 1.2-1.2 2-5.7 2-5.7.7-1.1 1-2.5.9-3.8-.3-2.2 1.5-4.6 1.5-4.6l3-9.5 2.8-7.2 1.6 4.2v1.3l-1.2-3.4-2.8 7.2-3 9.5s-1.8 2.4-1.5 4.6c.2 1.3-.2 2.7-.9 3.8 0 0-.8 4.5-2 5.7-.8.9-1.2 2.1-1.2 3.4 0 0-1.5 6.5-2.2 7.7s-.6 4.7-.6 4.7z"/><path fill="#FFCDD3" d="M553.6 545.9l.7 3.2v2.5l3.7.4.4-.8c.8-1.6 1.8-3.2 2.9-4.6.7-.6 1.9-9.5.4-9-.9.3-1.6 1-2 1.9-.1-.1-7.4.8-6.1 6.4z"/><path opacity=".1" d="M554.2 551.6l3.7.4.4-.8c-1-1.2-2.7-1.5-4.1-.7v1.1z"/><path fill="#DCE6F2" d="M553.3 553.3l4.9 1.1.1-.7.3-2c-1.1-1.5-3.2-1.8-4.7-.7l-.2 1-.4 1.3z"/><path fill="#FFCDD3" d="M632.1 546.2l5.2 2.8.5-1c.5-1 1.2-2.6 1.4-3.2.3-.9 2.5-2 2.5-2 5.4-5.2-1-9.7-1-9.7-3.4-6.9-7.2 2.3-7.2 2.3s-.5 4.9-.2 5.2.4 1.7.4 1.7c-.5 1-.9 2-1.3 3l-.3.9z"/><path opacity=".1" d="M632.1 546.2l5.2 2.8.5-1c-.7-.6-3.3-2.7-4.2-2.6h-1.2c-.2.5-.3.8-.3.8z"/><path fill="#DCE6F2" d="M631.5 547.8l5.8 2.9.1-1.3.1-.9s-3.4-2.9-4.4-2.8c-.5.1-1 .1-1.5 0l-.1 1v1.1z"/><path fill="#FFCDD3" d="M567.8 567.3s25.4 2.9 20.7 1.3c-3.3-1.1-4.6-3.2-4.9-5.5-.1-2 .2-4 .9-5.9.6-1.6 1.4-3.1 2.3-4.6 0 0-19.5-10.7-15.6-1 .6 1.5 1 3 1.1 4.6.1 1.6 0 3.2-.5 4.7-.7 2.5-2.1 4.7-4 6.4z"/><path opacity=".1" d="M571.2 551.7c.6 1.5 1 3 1.1 4.6 1.8 1.5 3.8 1.4 6.4 1.4 2 0 4.2.5 5.8-.5.6-1.6 1.4-3.1 2.3-4.6 0 0-19.5-10.7-15.6-.9z"/><circle fill="#FFCDD3" cx="579.1" cy="547.9" r="10.5"/><path opacity=".1" d="M567.8 567.3s25.4 2.9 20.7 1.3c-3.3-1.1-4.6-3.2-4.9-5.5-1.3-1.4-3.8-2.4-5.5-2.9-1.5-.5-3.1-.5-4.6-.1-.6.2-1.2.4-1.7.8-.7 2.5-2.1 4.7-4 6.4zm-14.5-14l4.9 1.1.1-.7c-1.1-1.5-2.9-2.1-4.7-1.6l-.3 1.2zm78.2-5.5l5.8 2.9.1-1.3c-1.9-1-3.9-1.9-5.9-2.6v1zm-73.8 83.6c9.8 1.6 23.9 3.6 26.1 2.9 1.8-.6 7.7-.5 12.9-.3 0-2.6-.1-4.3-.1-4.3l-38.2-4c-.1 1.9-.3 3.8-.7 5.7z"/><path fill="#3F3D56" d="M547.9 629.1s32.4 5.6 35.9 4.5 21.3.1 21.3.1c8 5.4 4.7-2.6 4.7-2.6.4-2.5.3-5-.3-7.5s-1.1-5-1.3-7.5c0 0 .2-5.3-.8-6.5s-2.1-10.1-2.1-10.1-.9-6-.8-7.3-.3-5-.3-5L603 581c6.6-.9 26.8-13.3 26.8-13.3 1-4.2 8.5-13.9 8.5-13.9.1-.8.3-1.6.6-2.4.5-1.4-7.4-4.2-7.4-4.2s-5.9 7.3-7.2 9.2-5.5 5.6-5.5 5.6c-.7-.1-1.4 0-2 .3h-.1c-1.4.6-2.8 1.3-4 2.3-2-.1-3.9.7-5.4 2 0 0-3.6-.5-4.2.1s-3.7 0-3.7 0-3.1-6.5-5.1-4.7-10.6 1.9-10.6 1.9c-1.2-1.5-4-2.6-5.7-3.2-1.5-.5-3.1-.5-4.6-.1-.7.2-1.3.5-1.8.9l-5.2 5.1s-1.5-2-1.3-2.4-1.8-.8-1.8-.8-2.6-.8-3.5-1.1-1.9.8-1.9.9c.4-1.3.5-2.6.4-3.9-.1-1.2.3-2.3 1.1-3.2-3.1-7.6-10.1-1.2-10.1-1.2s-.8 4.2-.1 5.7-.7 5-.5 5.8-.3 2.4-.3 4.1c.2 2.1.7 4.3 1.4 6.3.5 1.4 4.8 4.6 4.8 4.6s.3 5 2.1 8 .7 12.9.7 12.9-1.8 7.8-4 10.3-5.5 16.5-5.5 16.5z"/><path fill="#2D293D" d="M581.9 557.4c-.1.6-.4 1.1-.8 1.4-.3.2-.7.2-1 .2-3.2.2-6.5.3-9.5-.9-.6-.2-1-.6-1.4-1-.4-.7-.7-1.5-.8-2.3-.5-1.5-1.2-3-1.9-4.5-1.1-2.5-1.4-5.3-1-8 .1-.8.4-1.6.8-2.3.8-1.2 2.4-1.7 3.5-2.7s1.8-2.5 3.2-3.2c1.3-.6 2.7-.7 4-.3 2.6.4 5.1 1.4 7.4 2.8.7.6 1.6.9 2.5.8.7-.2 1.4-.7 1.8-1.4.6 1.4.9 3 .8 4.6v.7c.1.3.3.5.5.7.8.9 1.3 2.4.5 3.3-.3.4-.9.6-1.2 1-.6.7-.4 1.8-.4 2.8 0 .3-.1.7-.2.9-.3.3-.8.4-1.3.3-.5-.1-.9-.2-1.4-.1-.5.2-.9.5-1.2.9-1.5 1.9-2.4 4-2.9 6.3z"/><path opacity=".1" d="M583.8 563.8s-13.2 1.7-14.3-.2"/><path fill="#3F3D56" d="M409.9 667.7h-10c-.6 0-1 .4-1 1s.4 1 1 1h2v13.4h-34.3c-.2-.2-.5-.4-.8-.4h-10c-.6 0-1 .4-1 1s.4 1 1 1h2v13.7h-33.1c-.1-.4-.5-.7-.9-.7h-10c-.6 0-1 .4-1 1s.4 1 1 1h1v14.1h-33.6c-.1-.1-.3-.1-.4-.1h-10c-.6 0-1 .4-1 1s.4 1 1 1h1v13.5h-33.2c-.2-.3-.5-.4-.8-.5h-10c-.6 0-1 .4-1 1s.4 1 1 1h1v15h226v-78h-45.9z"/><linearGradient id="e" gradientUnits="userSpaceOnUse" x1="1032.822" y1="49.537" x2="1032.822" y2="245.197" gradientTransform="matrix(-.98 .22 -.22 -.98 1257.876 556.512)"><stop offset="0" stop-color="gray" stop-opacity=".25"/><stop offset=".54" stop-color="gray" stop-opacity=".12"/><stop offset="1" stop-color="gray" stop-opacity=".1"/></linearGradient><path fill="url(#e)" d="M174.3 729.2c.7 1.6 1.9 2.9 3.4 3.7 1.5.8 2.9 1.8 4.3 2.9 1.5 1.5 2.5 3.5 4.4 4.6.7.4 1.4.7 2.2.9.9.3 1.8.5 2.7.5 2.4 0 4.8-.4 7-1.2.7-.2 1.5-.5 2.1-.9.3-.2.6-.5.8-.8.5-.5.9-1.1 1.1-1.7.1-.3.1-.7-.1-1-.2-.4-.5-.6-.9-.8-.6-.4-1.3-.8-2-1.1-.9-.3-1.8-.8-2.6-1.4-.5-.5-1-1.1-1.3-1.7-.6-1.1-1.1-2.2-1.4-3.5-.2-.8-.4-1.6-.8-2.3-.4-.8-1.1-1.5-1.6-2.2.2 0 .5 0 .7-.1.1-1.2-.2-2.5-.8-3.5 1 .1 1.5-1.2 1.3-2.2s-.6-2-.2-2.9c.3-.5.7-.9 1.1-1.3 1.6-1.7 1.5-4.2 2.2-6.4.4-1.2 1-2.4 1.6-3.6 1.9-3.5 2.8-7.8 5.9-10.3l2.8-2.2c.2-.1.3-.3.4-.5.2-.4-.2-.9-.2-1.3.1-.8 1.1-1.1 1.5-1.9.1-.4.2-.7.3-1.1.3-1.3 1.5-2.1 2.4-3 1.4-1.5 2-3.5 1.8-5.4-.1-.5-.1-1-.1-1.5.1-.3.2-.7.4-1 .3-1.1.4-2.1.3-3.2.1-1.7.3-3.5.6-5.2l13.7-3.1.3.3c1.2 1.2 1.8 3 3 4.3l1.6 1.7c.3.3.6.8.4 1.2s-.4.4-.6.6c-.3.5-.2 1.1.3 1.5.2.1.4.2.7.2-.6.9-.4 2.2.6 2.9.2.1.3.2.5.2-.3.6-.7 1.2-1.1 1.7.2.3.3.6.3.9-.1.2-.1.4-.2.6-.1.4 0 .9.1 1.3.9 3.2.9 6.6 0 9.8-.1.4-.2.9-.3 1.3 0 .4.1.8.2 1.1.5 1.7 1.4 3.4.7 5-.2.4-.4.8-.5 1.2-.4 1.2.5 2.4.9 3.5.5 1.6.6 3.3.4 5l-.3 6.9c-.1.4 0 .8.1 1.3.3.5.8.9 1.4 1.1-.1.5-.3.9-.4 1.4-.2-.4-.7-.5-1.1-.3-.1.1-.2.1-.3.2-.1.2-.2.4-.2.7 0 1.7.3 3.3.8 4.9.1.3.1.5.1.8-.1.3-.2.5-.3.8 0 .1 0 .1-.1.2-.1.8 0 1.6.2 2.4.1.5.3.9.7 1.3.3.2.6.3.9.3 4.8.5 9.4-2.6 14.2-2 1 .1 1.9.4 2.9.5 1.2.1 2.3 0 3.5-.2 1.6-.2 3.2-.5 4.8-.8 1.2-.2 2.4-.6 3.5-1.1 1.1-.6 1.9-1.5 2.2-2.7.1-.5.1-1.1-.2-1.5-.1-.2-.2-.3-.4-.4-.4-.3-.8-.5-1.2-.6l-1.9-.7c-.9-.4-1.8-.6-2.8-.7-.7-.1-1.4 0-2.1 0-2.4-.1-4.6-1.5-6.6-2.9l-2.7-1.8c-.5-.5-1.2-.6-1.9-.3l-.4.1 1.7-.9c.1-8.2.1-16.5-.1-24.7 0-2-.1-4.1-.6-6.1-.3-1.1-.6-2.6.4-3.3.3-.9-.3-1.8-.5-2.7s.1-2.2 1-2.2c-.9-1.6-.9-3.6-.9-5.4 0-1.5-.1-3-.3-4.6-.1-1.9-.7-3.7-1.6-5.4l13.5-3.1-.4-2 2-.5-10.9-47.8c.5-.2.8-.6.8-1.1 0-.5-.5-.9-.4-1.3.1-.3.4-.4.5-.7.3-.6.3-1.3-.2-1.8-.1-.1-.2-.3-.2-.4 0-.1 0-.2.1-.3.4-1 .2-2.1-.7-2.8-.1-.1-.2-.2-.4-.2-.3 0-.6.1-.9 0s-.3-.3-.7-.3h-.1L244 579c.3-.9.5-1.8.7-2.7.3-1.6.2-3.3-.4-4.8.9-.5 1.7-1.1 2.4-1.8.5-.4.6-1.1.3-1.7-.8-2.2-2.2-4.1-4-5.5-.6-.4-1.9-1.6-2.8-1.3.2-.3.4-.6.7-.9.5-.5.9-1 1.3-1.6 5.1-2.1 8-7.6 6.8-13 0-.2-.1-.3-.1-.5.6.1 1.1-.1 1.5-.6.4-.6.5-1.3.2-2-.3-.6-.6-1.2-1-1.8-.8-1.4-.6-3.1-1.3-4.4-.8-1.1-1.7-2.1-2.7-3-2.1-1.6-4.7-2.2-7.3-1.7-2.5.6-4.9 1.7-6.9 3.4-.6.5-1.2 1-1.9 1.3-1.1.5-2.5.5-3.5 1.3-1.3 1.1-1.1 3-.6 4.6s1.2 3.2.6 4.8c-.2.5-.4.9-.6 1.4-.1.9.2 1.8.7 2.6l.3-.6v.1c.1.3.1.5.2.8-.1 0-.2 0-.3.1-.5.2-.7.8-1.1 1.1s-1.4.6-1.6 1.2c-.1.3 0 .6-.1.9-.2.6-1.1.6-1.5 1-.3.4-.4.9-.3 1.3.1.2.2.5.3.7-.1.3 0 .6.1.9l-5.6 1.3c-.9.2-1.8.5-2.6.8-.8.4-1.5 1-1.9 1.9 0 .1-.1.2-.2.3h-.3c-1-.2-2-.2-2.9.1-2.9 1-5.5 2.9-7.4 5.4-.4.4-.6.9-.7 1.4-.1.6.3 1.3 0 1.8l-.3.1c-.8.3-1.6.6-2.4 1-.8.5-1.5 1.1-2.3 1.7-3.1 2.3-7.2 3.4-9.4 6.6-.7 1-1.2 2.3-2.3 2.9-.5.2-1 .5-1.5.8-.9.7-1 1.9-1.2 3.1l-19.6 4.5.4 1.9-2 .5 18.2 79.9 16.8-3.8c0 .4.1.8.2 1.1.2 1.2.6 2.3 1.1 3.3-.8.3-1.3 1-1.3 1.8-.1.8.1 1.6-.1 2.3-.3 1.4-1.5 2.3-2.5 3.3-4.5 4.6-5.4 11.3-7.7 17.3-1.1 2.8-2.5 5.4-3.2 8.3-.8 3.3-.9 7-3.4 9.3-.2.2-.4.4-.6.7-.1.2-.1.4 0 .6.2.6.5 1.1.9 1.5l-.1.2h-.3c-.5 0-.8.7-1 1.1-.7 1.4-1.2 2.9-1.3 4.5h-.4c-.6.1-1.1.5-1.4 1.1.2.6.2 1.3.5 2zm65.1-165.9h-.2c.2-.5.4-.9.6-1.4-.2.5-.3.9-.4 1.4zM185.9 723c-.1.3-.3.6-.6.9h-.1c0-.1.1-.2.1-.3l.2-.6h.4z"/><path fill="#3F3D56" d="M244.4 719c-3 1.1-6.2 2.1-9.4 1.8-.5 0-1.1-.2-1.1-.7 0-.2 0-.3.1-.5.7-1.9 1.3-3.9 1.6-6 0-.1.1-.2.1-.3.1-.1.2-.1.3-.1 1.5 0 2.9.7 4.3.7.7 0 1.5-.1 2.2-.3.6-.2 1.3-.9 1.9-1 .1 2.2-.2 4.3 0 6.4zm-60.1 8.2c-2.4-.9-4.8-1.9-6.5-3.8-.1-.1-.2-.2-.2-.4s0-.3.1-.5c.7-2.1 1.9-4 3.3-5.7 1.1.4 2.1 1 3 1.7.6.4 2.3 1 2.5 1.8.1.5-.3 1.1-.5 1.6l-.6 1.8c-.6 1.1-.9 2.3-1.1 3.5z"/><path fill="#65617D" d="M233.6 728c.1.5.3.9.7 1.3.3.2.6.3.9.3 4.7.6 9.3-2.5 14-2 1 .1 1.9.4 2.9.5 1.1.1 2.3 0 3.4-.2 1.6-.2 3.1-.5 4.7-.8 1.2-.2 2.3-.5 3.4-1.1 1.1-.6 1.9-1.6 2.2-2.7.1-.5 0-1.1-.2-1.5-.1-.2-.2-.3-.4-.4-.4-.3-.8-.5-1.2-.6l-1.8-.7c-.9-.4-1.8-.6-2.7-.7-.7-.1-1.4 0-2.1 0-2.4-.2-4.5-1.5-6.5-2.9l-2.7-1.8c-.3-.2-.6-.4-.9-.4-.3 0-.6 0-.9.1-2.1.6-4 1.8-5.5 3.3-.4.4-.8.8-1.3 1.2-1.3.7-2.8.9-4.2.4-.6-.2-.5-.4-.9-.8s-1-.7-1.4-.1c-.1.2-.2.4-.2.7 0 1.7.3 3.3.8 4.9.1.3.1.5.1.8-.1.3-.2.5-.3.8 0 .1 0 .1-.1.2-.1.7 0 1.5.2 2.2z"/><path fill="#3F3D56" d="M233.6 728c.1.5.3.9.7 1.3.3.2.6.3.9.3 4.7.6 9.3-2.5 14-2 1 .1 1.9.4 2.9.5 1.1.1 2.3 0 3.4-.2 1.6-.2 3.1-.5 4.7-.8 1.2-.2 2.3-.5 3.4-1.1 1.1-.6 1.9-1.6 2.2-2.7.1-.5 0-1.1-.2-1.5-.1-.2-.2-.3-.4-.4-.1.6-.2 1.3-.3 1.6-.3.9-.9 1.6-1.7 1.9-.6.2-1.3.2-1.9.2-4.2-.1-8.4.9-12.5.2-1.4-.3-2.8-.5-4.3-.6-1.4.1-2.9.3-4.3.6-2.3.3-4.6.1-6.9.3 0 .8.1 1.7.3 2.4z"/><path fill="#65617D" d="M174.3 729.2c.7 1.6 1.9 2.9 3.4 3.7 1.5.8 2.9 1.8 4.2 2.9 1.5 1.5 2.5 3.5 4.3 4.6.7.4 1.4.7 2.2.9.9.3 1.8.5 2.7.6 2.4.1 4.7-.3 6.9-1.2.7-.2 1.4-.5 2.1-.9.3-.2.5-.5.7-.8.5-.5.9-1.1 1.1-1.7.1-.3.1-.7-.1-1-.2-.4-.5-.6-.9-.8-.6-.4-1.3-.8-2-1.1-.9-.3-1.8-.8-2.6-1.4-.5-.5-.9-1.1-1.3-1.7-.6-1.1-1.1-2.3-1.4-3.5-.2-.8-.4-1.6-.8-2.3-.6-1.2-1.8-2.1-2-3.4 0-.2-.1-.4-.2-.5-.1-.1-.3-.2-.5-.2-.8-.1-1.6-.1-2.4 0-.8.1-1.5.6-1.9 1.3-.2.5-.3 1-.8 1.3-.2.1-.5.2-.7.2-1.2.3-2.4.2-3.5-.3-1-.6-1.8-1.5-2.1-2.7-.1-.4 0-.9-.7-.9s-.8.7-1 1.1c-.7 1.4-1.2 2.9-1.3 4.5h-.4c-.6.1-1.1.5-1.3 1.1-.1.7 0 1.5.3 2.2z"/><path fill="#3F3D56" d="M174.3 729.2c.7 1.6 1.9 2.9 3.4 3.7 1.5.8 2.9 1.8 4.2 2.9 1.5 1.5 2.5 3.5 4.3 4.6.7.4 1.4.7 2.2.9.9.3 1.8.5 2.7.6 2.4.1 4.7-.3 6.9-1.2.7-.2 1.4-.5 2.1-.9.3-.2.5-.5.7-.8.5-.5.9-1.1 1.1-1.7-.5-.1-1-.1-1.5 0-1 .3-1.5 1.4-2.4 1.9-1.3.7-2.9.1-4.4.1-1 0-1.9.3-2.9.2-.8-.1-1.6-.4-2.4-.8-1-.4-1.9-1-2.7-1.6-.7-.7-1.3-1.5-1.9-2.3-1.1-1.6-2.4-3-3.8-4.4-.2-.2-.4-.4-.7-.6-.3-.1-.6-.2-.8-.3-1-.6-1.9-1.5-2.3-2.7l-.6-.9c-.6.1-1.1.5-1.3 1.1-.3.7-.2 1.5.1 2.2z"/><path fill="#A1616A" d="M239.5 560.3c-1 1.1-1.7 2.5-2.1 3.9-.4 1.4-1.9 12.3-1.3 13.7-1.5-1-6.5-.1-8-1-.6-.4-4-2.4-4.6-2.9s-4-1.1-4.5-1.6c-1.8-2 6.6-13.1 4.8-15-.2-.1-.3-.4-.1-.6v-.1c.7-1 1.6-1.9 2.5-2.7.9-.8 1.5-2 1.7-3.3 1.1.2 2.1.6 3.1 1.2 2.3 1.2 4.5 2.4 6.8 3.7.9.5 2.5 1.1 3 1.9s-.7 2.1-1.3 2.8z"/><path fill="#D7D9E1" d="M221.9 560.4c1.8.7 3.6 1.6 5.3 2.6 1.7.9 3 2.2 3.9 3.9.3.7.4 1.4.7 2.1 1.2 3 4.3 4.6 6.2 7.2.5.8 1 1.7 1.4 2.6.7 1.7 1.3 3.5 1.8 5.3.4 1.8-1 3.3-1.3 5.1-.2 1.7-.2 3.5 0 5.2 0 3.3-.2 6.6-.7 9.9-.9 6.9-4.4 26.3-5.2 33.3-7.5-.2-27.3 0-34.5-2.3-2.4-.8 11-18.7 8.6-19.1-.5 0-.9-.3-.9-.8v-.2c0-10.3 5.2-20 6.2-30.2.4-3.6 1.7-6.8 2.5-10.3.7-3.2.7-6.5 1.7-9.6.2-.6.5-1.2.9-1.8.3-.4.7-.8 1.1-1.1.7-.7 1.5-1.2 2.3-1.8z"/><circle fill="#A1616A" cx="236.4" cy="548.2" r="11.4"/><path fill="#3F3D56" d="M226.3 555.9c-1.4-.8-3.1-.7-4.3.3-.7.5-1 1.4-.8 2.3l-5.5 1.3c-.9.2-1.7.5-2.6.8-.8.4-1.5 1-1.9 1.9-.1.1-.1.2-.2.3s-.2 0-.3 0c-.9-.2-1.9-.2-2.9.1-2.9 1-5.4 2.9-7.3 5.4-.4.4-.6.9-.7 1.4 0 .7.4 1.4 0 2 1.2 5.2.5 10.4.5 15.7-.2 1-.5 1.9-1.1 2.8-.6 1-1 2-1.2 3.1-.4 2.8 1.7 5.6 1.3 8.4-.3 1.2-.7 2.3-1.2 3.4-.6 1.3-.9 2.8-.7 4.2.1.6.3 1.3.4 1.9.1.9.2 1.7.1 2.6 0 1.6-.1 3.2-.2 4.8-.1 2.6-.5 5.5-2.4 7.3 5.5-.3 11.3-.7 15.9-3.7.6-.4 1.2-.9 1.8-1.4 1.5-1.7 1.9-4.1 2.2-6.4.5-2.5.6-5.1.3-7.7-.2-.8-.3-1.6-.2-2.4.2-1.5 1.4-2.6 2.4-3.7 1.2-1.1 2.3-2.4 3.1-3.8.8-1.4 1-3.1.5-4.7-.3-.8-.7-1.4-1-2.2-.3-.8 0-1.6.6-2.1 3.6-2 4.4-7 4.4-11.1-.1-2.1-.4-4.2-.9-6.3l-.9-4c.8-1.2 1.2-2.7.9-4.2-.1-.4-.2-.8-.3-1.3.1-.6.3-1.1.6-1.5.7-1.1 1.2-2.2 1.6-3.5zM241 566c.3 1.3.6 2.5 1 3.7.2.5.5.8.7 1.3.8 1.7 1.1 3.5.7 5.3-.4 1.8-.9 3.5-1.6 5.2-.2.6-.4 1.2-.5 1.8 0 .6 0 1.3.1 1.9.3 2.5.4 5.1.4 7.7.1 2.2-.3 4.5-1.3 6.5-.2.4-.5.8-.9 1-.3.1-.6.1-.9 0l-3.1-.4c-.3 0-.5-.1-.7-.2-.3-.2-.6-.6-.6-1-.6-2.3-.7-4.7-.3-7 .8-7.1 2.4-14.1 2.4-21.2 0-2-.4-4.9.6-6.7.4-.8.3-.4 1-.3.4.1.7.2 1.1.3.8.3 1.6 1.1 1.9 2.1z"/><path fill="#65617D" d="M233.8 636.6c-.1 2.5 1.4 4.8 2.6 6.9 1.9 3.3 3.5 6.7 4.7 10.3.3.9.6 1.8 1.2 2.6.6.7 1.2 1.3 1.8 1.9 1.6 1.7 2.1 4.1 2.3 6.4.2 1.5.3 3 .3 4.6.1 1.9 0 3.8.9 5.5-.9 0-1.3 1.3-1 2.2s.8 1.8.5 2.7c-1 .6-.7 2.1-.4 3.3.4 2 .6 4 .6 6.1.1 8.2.2 16.5.1 24.7-3.7 2.1-8 4.5-12.2 3.6-.8-.1-1.5-.5-1.9-1.2-.1-.4-.2-.8-.1-1.2l.3-6.9c.2-1.7 0-3.4-.4-5-.4-1.2-1.3-2.3-.9-3.5.1-.4.4-.8.5-1.2.6-1.6-.3-3.3-.7-5-.1-.4-.2-.8-.2-1.1 0-.5.1-.9.3-1.3.8-3.2.8-6.6-.1-9.8-.1-.4-.2-.8-.1-1.3.1-.2.1-.4.2-.6 0-.3-.1-.6-.3-.9.4-.5.8-1.1 1.1-1.7-1.1-.4-1.7-1.6-1.3-2.6.1-.2.1-.3.2-.4-.6 0-1.1-.5-1.1-1.1 0-.2.1-.4.2-.6.2-.2.5-.4.6-.6s-.1-.8-.4-1.2l-1.5-1.7c-1.1-1.3-1.8-3.1-2.9-4.3-1.7-1.8-3.1-3.8-4.4-5.9l-5.1-8-1.7 2.3c-.6.7-1 1.5-1.3 2.4-.1.8-.1 1.7 0 2.5.3 4.9-1.8 9.7-1.8 14.6.1 1.1 0 2.2-.3 3.3-.2.3-.3.7-.4 1-.1.5 0 1 .1 1.5.2 2-.4 4-1.7 5.4-.9 1-2.1 1.8-2.4 3 0 .4-.1.8-.3 1.1-.4.7-1.4 1-1.5 1.9 0 .5.3.9.2 1.3-.1.2-.2.4-.4.5l-2.7 2.2c-3 2.5-3.9 6.8-5.8 10.3-.7 1.1-1.2 2.3-1.6 3.6-.6 2.2-.6 4.8-2.1 6.4-.4.4-.8.8-1.1 1.3-.4.9.1 1.9.2 2.9s-.3 2.3-1.3 2.2c.6 1.1.9 2.3.8 3.5-4 .7-8.2 0-11.8-1.9-1.1-.5-2-1.4-2.4-2.6-.1-.2-.1-.4 0-.6.1-.3.3-.5.6-.7 2.5-2.2 2.6-6 3.3-9.2.7-2.9 2-5.5 3.1-8.3 2.2-5.9 3.1-12.7 7.5-17.2 1-1 2.1-2 2.4-3.3.2-.8 0-1.6.1-2.3 0-.8.5-1.5 1.3-1.8-.6-1-1-2.2-1.1-3.3-.1-.5-.2-1-.2-1.5.1-.6.2-1.1.4-1.6.8-2.6.9-5.4.2-8-.5-1.3-.8-2.7-.8-4.1.1-.7.3-1.4.4-2.1.1-1.2 0-2.5-.2-3.7l-.7-4.6c-.3-1.5-.4-3.1-.4-4.6.1-3.7-2.3-18.6.6-21s10.9 7.7 14.6 7.1c1.6-.3 3.3-.4 4.9-.2 2.6.5 5.1 1.4 7.4 2.8l7.9 4.1c1.3.4 2.9 1.1 4.6 1.7z"/><path fill="#3F3D56" d="M244 533.4c-2-1.6-4.7-2.2-7.2-1.7-2.5.6-4.8 1.7-6.7 3.4-.6.5-1.2 1-1.9 1.3-1.1.5-2.5.5-3.4 1.3-1.2 1.1-1.1 3-.6 4.6s1.2 3.2.6 4.8c-.2.5-.4.9-.5 1.4-.1.9.2 1.8.7 2.6.4-.6.7-1.3 1-2 .4-.7 1.1-1.2 1.8-1s.9 1 1 1.7.5 1.4 1.2 1.5c.6 0 1.1-.3 1.3-.9.8-1.5-.1-3.6.6-5.1.4-.9 1.4-1.5 1.8-2.4.3-.7.2-1.5.5-2.3s1-1.5 1.7-1.1c.2.2.5.3.6.6 1 .9 2.5 1 3.7.3.4-.4.8-.7 1.3-1 .7-.2 1.4 0 1.9.5s.8 1.2.9 1.9c.1 1 .4 1.9 1 2.6.3.2.6.4 1 .5.9.4 1.9.3 2.7-.3.4-.6.5-1.4.2-2-.3-.6-.6-1.2-1-1.8-.8-1.4-.6-3.1-1.3-4.4-.9-1.1-1.9-2.1-2.9-3z"/><path d="M235.2 580.3c.1 4.2.3 8.3.4 12.5l-11.7-.4c-.2-1.2-.1-2.4.2-3.5.4-2.8-.2-5.6 0-8.3.2-2.1.8-4.2 1-6.3.1-1.2 0-2.5 0-3.7.1-1.2.3-2.4.5-3.7.3-1.7.7-3.4 1.4-5 1.5.2 3.2.5 4.3 1.6.6.6 1 1.4 1.2 2.2.8 2.4.4 5.1 1.3 7.5.9 2.3 1.4 4.7 1.4 7.1zm10.4-12.4c.1.3.2.7.1 1-.1.3-.2.5-.4.7-1.4 1.3-3 2.3-4.9 2.9-.3.1-.5.2-.7.3-.3.5-.3 1.1 0 1.5.3.4.6.9.7 1.5.1 1-1 1.7-1.9 2.1-1.3.6-2.8.6-4.1.1-.9-.5-1.6-1.2-2.2-2.1-4.1-5.6-6.6-12.2-10.8-17.8-.3-.4-.5-.8-.7-1.2-.2-.4-.1-.9.2-1.3.4-.4 1.3-.4 1.5-1 .1-.3 0-.6.1-.9.2-.6 1-.8 1.5-1.2s.6-.9 1-1.1c.5-.1 1 0 1.4.3 2 1.1 3.3 3.1 4.6 4.9 2.1 2.8 4.3 5.3 6.8 7.8-.3-.3.4-3.1.8-3.3.8-.4 2.2.9 2.8 1.3 2 1.4 3.4 3.4 4.2 5.5z"/><path opacity=".1" d="M258.2 656.2l-80 18.2-18.2-80 80-18.2 18.2 80z"/><path fill="#EDEDF4" d="M259.7 653.8l-80 18.2-18.2-80 80-18.2 18.2 80z"/><path d="M804.6 669.5h13.9v20.8h-13.9v-20.8zm17.4-10.4h13.9v31.3H822v-31.3zm17.3 17.4h13.9v13.9h-13.9v-13.9zM829 610.1h27.8v5.2H829v-5.2zm13.9-13.9c1.9-.1 3.4-1.7 3.3-3.7-.1-1.8-1.5-3.2-3.3-3.3-.3 0-.7 0-1 .1l-7.2-5.3-.4.4 5.3 7.2c-.1.3-.2.7-.2 1 .1 2 1.6 3.6 3.5 3.6zm0-26.1c-12.5 0-22.6 10.1-22.6 22.6 0 5 1.7 9.9 4.8 13.9h6.4l.4-.4 2.4-2.4-2.5-2.5-2.4 2.4c-2.2-2.6-3.5-5.8-3.8-9.2h3.4V591h-3.4c.3-3.4 1.7-6.6 3.8-9.2l2.4 2.4 2.5-2.5-2.4-2.4c2.6-2.2 5.8-3.5 9.2-3.8v3.4h3.5v-3.4c3.4.3 6.6 1.7 9.2 3.8l-2.4 2.4 2.5 2.5 2.4-2.4c2.2 2.6 3.5 5.8 3.8 9.2h-3.4v3.5h3.4c-.3 3.4-1.7 6.6-3.8 9.2l-2.4-2.4-2.5 2.5 2.4 2.4.4.4h6.4c7.7-9.8 5.9-24-3.9-31.7-3.8-3-8.7-4.7-13.8-4.8zM404.2 380.9h7v41.7h-7v-41.7zm-10.4 29.5h6.9v12.2h-7l.1-12.2zm20.9-7h7v19.1h-7v-19.1zm10.4-10.4h7v29.5h-7V393zm445.2-.7l-9.5 14.5c.8.9 1.2 2.1 1.2 3.3 0 2.9-2.3 5.2-5.2 5.2-2.9 0-5.2-2.3-5.2-5.2 0-.3 0-.7.1-1l-6.3-3.6c-1.7 1.6-4.2 1.9-6.2.8l-6.7 6.2v6.2c0 2.6 2.1 4.6 4.6 4.6h39.4c2.6 0 4.6-2.1 4.6-4.6v-23l-6.4-4.2c-1.1.9-2.8 1.2-4.4.8zm-28.5 4.2c2.9 0 5.2 2.3 5.2 5.2v.7l6.5 3.6c.9-.8 2.1-1.2 3.3-1.2.4 0 .8 0 1.1.1l9.5-14.7c-.6-.9-1-1.9-1-3 0-2.9 2.3-5.2 5.2-5.2 2.9 0 5.2 2.3 5.2 5.2 0 .4 0 .8-.1 1.2l4.5 3v-8.7c0-2.6-2.1-4.6-4.6-4.6h-39.4c-2.6 0-4.6 2.1-4.6 4.6v24.9l4.3-4.2c-1-2.7.4-5.7 3.1-6.7.6-.1 1.2-.2 1.8-.2zM621 422.1h27.8v5.2H621v-5.2zm13.9-13.9c1.9 0 3.5-1.6 3.5-3.5s-1.6-3.5-3.5-3.5c-.3 0-.7 0-1 .1l-7.2-5.2-.4.4 5.3 7.2c-.1.3-.2.7-.2 1 .1 1.9 1.6 3.5 3.5 3.5zm0-26.1c-12.5 0-22.6 10.1-22.6 22.6 0 5 1.7 9.9 4.8 13.9h6.4l.4-.4 2.4-2.4-2.5-2.5-2.4 2.4c-2.2-2.6-3.5-5.8-3.8-9.2h3.4V403h-3.4c.3-3.4 1.7-6.6 3.8-9.2l2.4 2.4 2.5-2.5-2.4-2.4c2.6-2.2 5.8-3.5 9.2-3.8v3.4h3.5v-3.4c3.4.3 6.6 1.7 9.2 3.8l-2.4 2.4 2.5 2.5 2.4-2.4c2.2 2.6 3.5 5.8 3.8 9.2h-3.4v3.5h3.4c-.3 3.4-1.7 6.6-3.8 9.2l-2.4-2.4-2.5 2.5 2.4 2.4.4.4h6.4c7.7-9.8 5.9-24-3.9-31.7-3.8-3-8.7-4.7-13.8-4.8zm-401 233.8c-2.8-12.1-14.9-19.8-27-17-.6.1-1.2.3-1.7.5l5.4 23.6 23.6-5.4c0-.6-.1-1.2-.3-1.7zm-2.3 5.8l-23.6 5.4-5.4-23.6c-11.9 3.7-18.6 16.3-14.9 28.2 3.7 11.9 16.3 18.6 28.2 14.9 10.7-3.3 17.4-13.9 15.7-24.9z"/><path fill="#A1616A" d="M195.6 619.5c1.1.6 2.2 1.3 3.1 2.1 1 .8 1.7 1.9 1.9 3.2.1.4 0 .7-.1 1.1-.2.3-.5.5-.9.5l-.6-.3c-.6-.5-1.3-.9-2-1.3-.3-.2-.6-.3-.8-.2l-.3.3c-.3.3-.4.8-.4 1.2.1.8.5 1.4 1.2 1.8.6.4 1.2.9 1.6 1.5.1.2.2.4.1.6-.1.2-.2.3-.3.4-1.2 1.1-2.8 1.5-4.4 1.3-1-.2-2-.6-3.1-.8-.4 0-.9-.1-1.3-.2-.6-.2-1.2-.7-1.4-1.4-.3-.6-.5-1.3-.5-2-.5-2.6-.5-5.2-.1-7.8 0-.2.1-.3.2-.5.1-.1.3-.2.4-.2 1.2-.4 3-1.5 4.3-1.3.5.1.9.4 1.2.7.5.2 2.1 1 2.2 1.3z"/><path fill="#3F3D56" d="M195.8 618.4c-.2-1.2.5-4.2-1.8-3.9-.3-1.2 1.3-2.4.7-3.6-.2-.4-.6-.7-.8-1.1-.4-1.2 1.7-2.4 1-3.5-.3-.4-.8-.6-1-1-.5-1 1.3-2 1.1-3.1-.1-.4-.4-.7-.4-1.1 0-.5.1-.9.4-1.4.4-1.2-.3-2.7.6-3.5-.7.2-1.2-.8-1-1.5s.6-1.4.5-2.1c-.1-.3-.2-.5-.2-.8 0-.7 1.1-1 1.2-1.8 0-.3-.1-.5-.1-.8 0-.6.4-1.1.9-1.3.5-.2 1-.5 1.4-.9.3-.3.6-.8 1-.7.1 0 .3.2.4.3.5.4 1.3 0 1.7-.5 1.2-1.5 1.8-3.5 1.6-5.5-.1-2-.5-3.9-.5-5.8 0-.6 0-1.2.1-1.8.2-.6.3-1.2.4-1.9-.2-1.1-2.2.2-3.1.5-.8.3-1.6.6-2.3 1-.8.5-1.5 1.1-2.2 1.7-3.1 2.3-7.1 3.4-9.3 6.5-.7 1-1.2 2.3-2.3 2.9-.5.2-1 .5-1.5.8-1.2.9-1 2.7-1.4 4.1-.1.4-.3.8-.4 1.2 0 .5 0 .9.1 1.4l.6 3.3c1 5.5 2.3 11 4 16.3.7 1.7 1.1 3.5 1.2 5.4 0 .5-.1 1-.1 1.5 0 .6.1 1.2.2 1.7l.4 2.1c0 .2.1.3.2.5.2.1.4.1.6 0 2.9-.9 5.5-3.3 8.5-2.9"/><path fill="#A1616A" d="M248.5 597.3c.1 0 .3.1.4.2.8.7 1.1 1.8.7 2.8-.1.1-.1.2-.1.3 0 .2.1.3.2.4.4.5.5 1.2.2 1.8-.2.2-.4.4-.5.6-.1.5.3.9.4 1.3.1.6-.6 1.1-1.2 1.3-.4.2-1 .2-1.4 0-.3-.3-.4-.8-.3-1.2.2-.4.4-.8.7-1.1-.7.1-1.4-.3-1.6-.9-.2-.7-.1-1.4.4-1.9.1-.1.2-.3.2-.4 0-.2-.2-.4-.4-.5-.8-.5-1.8-2.1-.5-2.8.4-.2.9-.3 1.4-.3.4 0 .4.2.7.3s.4.1.7.1z"/><path opacity=".1" d="M224.2 553c.7-.1 1.4 0 1.9.5.6.6 1 1.4 1.3 2.2 1 2.5 2.5 4.9 4.5 6.8m-9.6-7c1-.2 1.9.1 2.6.8.5.7.8 1.4 1.1 2.2.8 1.7 2 3.2 3.4 4.4"/></svg>