<svg xmlns="http://www.w3.org/2000/svg" viewBox="0 0 965.6 800.8"><path opacity=".1" d="M901.9 442.5c-37.1 60-30.1 141.7-13.8 206.2 5.5 21.6 11.7 44.4 7.1 68.5-5.7 29.5-26.5 52.7-47.5 66-38.3 24.2-82.1 23.5-114-1.8-27.5-21.8-45.7-59.8-73.8-80.5-47-34.5-111.5-13.6-167.6 18.7-39.6 22.8-83.3 51.8-119.9 35.4-25.8-11.5-41.8-44.1-49.3-79.5-3.6-17.1-5.8-35.8-14.1-48.8-4.9-7.7-11.7-12.9-18.8-17.2-64.3-38.7-151.2-6.3-213.2-50.1-41.8-29.6-65.6-90.8-73.5-156.2s-1.4-135.4 6.7-204.3c5.7-49 13.5-101.4 39.2-141.3 27.2-42.2 70.1-61 107.4-57s69.6 27.6 97.6 56.5c34.9 36.1 66.3 82.2 111.4 93.8 30.7 7.9 64.3-1.3 97-6.4 54.6-8.7 108.4-6.2 161.8-2.9 51.2 3.1 102.6 7 150.3 25 33.7 12.8 59.6 39.3 91.1 56.6 20.5 11.3 43.7 12.7 62.8 27.7 23.5 18.5 43.9 52.6 34.5 95.7-9 40.8-41.7 64.1-61.4 95.9z"/><path fill="none" stroke="#535461" stroke-width="2" stroke-miterlimit="10" d="M664.5 306.9s101-84.6 123.5-127.3 51-79.4 51-79.4"/><path fill="tomato" d="M825.7 195.5l-43.7-9.9c0 .1 10.3 46.2 43.7 9.9z"/><path d="M759 148.5l25.1 37.7c0-.1-49.1 3.5-25.1-37.7zm83.9 11.6l-39.9-7s25.1 38.2 39.9 7zm-59.1-33.6l19.7 25.8c0-.1-34.8 3.2-19.7-25.8zm39.8-5.1s34 1.6 38 4.9c4 3.3-5.1 22.3-18 19.2s-20-24.1-20-24.1zM810 91s13.9 25.3 13.4 30.1-21.2 10.2-25.3-8S810 91 810 91z"/><ellipse transform="rotate(-72.476 844.194 107.461)" fill="#FFD037" cx="844.2" cy="107.5" rx="9.5" ry="9.5"/><ellipse transform="rotate(-72.476 829.394 97.732)" fill="#FFD037" cx="829.4" cy="97.7" rx="9.5" ry="9.5"/><path d="M349.5 638.6s16.2-48.2-86.6-106.3c0 0-104.3-30.4-93.7-134.9 0 0-120.3 88.1-38.9 200.4S282 685.5 282 685.5l67.5-46.9z"/><path stroke="#535461" stroke-width="2" stroke-miterlimit="10" d="M318.1 660.4s-50.1-54.2-98.2-75.1c-9.6-4.3-18.4-10.2-26.1-17.4-30.6-28-44-70.3-36.1-111l11.6-59.5"/><linearGradient id="a" gradientUnits="userSpaceOnUse" x1="478.375" y1="106.16" x2="478.375" y2="768.69" gradientTransform="matrix(1 0 0 -1 0 801.89)"><stop offset="0" stop-color="gray" stop-opacity=".25"/><stop offset=".54" stop-color="gray" stop-opacity=".12"/><stop offset="1" stop-color="gray" stop-opacity=".1"/></linearGradient><path fill="url(#a)" d="M193.1 33.2h570.6v662.5H193.1V33.2z"/><path fill="#F7F7FD" d="M199.7 40.9H757V688H199.7V40.9z"/><path fill="#E2E2EC" d="M233.4 113.8h140.9V125H233.4v-11.2zm0 27.5H474v11.2H233.4v-11.2z"/><path fill="#FFF" d="M630.4 103.1h100v86.3h-100v-86.3z"/><path fill="#E2E2EC" d="M729.8 103.6v85.3h-99v-85.3h99m1-1h-101v87.3h101v-87.3z"/><path fill="#FFF" d="M529.4 103.1h100v86.3h-100v-86.3z"/><path fill="#E2E2EC" d="M628.8 103.6v85.3h-99v-85.3h99m1-1h-101v87.3h101v-87.3z"/><path fill="#FFF" d="M630.4 190.4h100v86.3h-100v-86.3z"/><path fill="#E2E2EC" d="M729.8 190.9v85.3h-99v-85.3h99m1-1h-101v87.3h101v-87.3z"/><path fill="#FFF" d="M529.4 190.4h100v86.3h-100v-86.3z"/><path fill="#E2E2EC" d="M628.8 190.9v85.3h-99v-85.3h99m1-1h-101v87.3h101v-87.3z"/><path fill="#FFF" d="M428.4 190.4h100v86.3h-100v-86.3z"/><path fill="#E2E2EC" d="M527.9 190.9v85.3h-99v-85.3h99m1-1h-101v87.3h101v-87.3z"/><path fill="#FFF" d="M327.4 190.4h100v86.3h-100v-86.3z"/><path fill="#E2E2EC" d="M426.9 190.9v85.3h-99v-85.3h99m1-1h-101v87.3h101v-87.3z"/><path fill="#FFF" d="M226.4 190.4h100v86.3h-100v-86.3z"/><path fill="#E2E2EC" d="M325.9 190.9v85.3h-99v-85.3h99m1-1h-101v87.3h101v-87.3z"/><path fill="#FFF" d="M630.4 277.7h100V364h-100v-86.3z"/><path fill="#E2E2EC" d="M729.8 278.2v85.3h-99v-85.3h99m1-1h-101v87.3h101v-87.3z"/><path fill="#FFF" d="M529.4 277.7h100V364h-100v-86.3z"/><path fill="#E2E2EC" d="M628.8 278.2v85.3h-99v-85.3h99m1-1h-101v87.3h101v-87.3z"/><path fill="#FFF" d="M428.4 277.7h100V364h-100v-86.3z"/><path fill="#E2E2EC" d="M527.9 278.2v85.3h-99v-85.3h99m1-1h-101v87.3h101v-87.3z"/><path fill="#FFF" d="M327.4 277.7h100V364h-100v-86.3z"/><path fill="#E2E2EC" d="M426.9 278.2v85.3h-99v-85.3h99m1-1h-101v87.3h101v-87.3z"/><path fill="#FFF" d="M226.4 277.7h100V364h-100v-86.3z"/><path fill="#E2E2EC" d="M325.9 278.2v85.3h-99v-85.3h99m1-1h-101v87.3h101v-87.3z"/><path fill="#FFF" d="M630.4 365h100v86.3h-100V365z"/><path fill="#E2E2EC" d="M729.8 365.5v85.3h-99v-85.3h99m1-1h-101v87.3h101v-87.3z"/><path fill="#FFF" d="M529.4 365h100v86.3h-100V365z"/><path fill="#E2E2EC" d="M628.8 365.5v85.3h-99v-85.3h99m1-1h-101v87.3h101v-87.3z"/><path fill="#FFF" d="M428.4 365h100v86.3h-100V365z"/><path fill="#E2E2EC" d="M527.9 365.5v85.3h-99v-85.3h99m1-1h-101v87.3h101v-87.3z"/><path fill="#FFF" d="M327.4 365h100v86.3h-100V365z"/><path fill="#E2E2EC" d="M426.9 365.5v85.3h-99v-85.3h99m1-1h-101v87.3h101v-87.3z"/><path fill="#FFF" d="M226.4 365h100v86.3h-100V365z"/><path fill="#E2E2EC" d="M325.9 365.5v85.3h-99v-85.3h99m1-1h-101v87.3h101v-87.3z"/><path fill="#FFF" d="M630.4 452.2h100v86.3h-100v-86.3z"/><path fill="#E2E2EC" d="M729.8 452.7V538h-99v-85.3h99m1-1h-101V539h101v-87.3z"/><path fill="#FFF" d="M529.4 452.2h100v86.3h-100v-86.3z"/><path fill="#E2E2EC" d="M628.8 452.7V538h-99v-85.3h99m1-1h-101V539h101v-87.3z"/><path fill="#FFF" d="M428.4 452.2h100v86.3h-100v-86.3z"/><path fill="#E2E2EC" d="M527.9 452.7V538h-99v-85.3h99m1-1h-101V539h101v-87.3z"/><path fill="#FFF" d="M327.4 452.2h100v86.3h-100v-86.3z"/><path fill="#E2E2EC" d="M426.9 452.7V538h-99v-85.3h99m1-1h-101V539h101v-87.3z"/><path fill="#FFF" d="M226.4 452.2h100v86.3h-100v-86.3z"/><path fill="#E2E2EC" d="M325.9 452.7V538h-99v-85.3h99m1-1h-101V539h101v-87.3z"/><path fill="#FFF" d="M630.4 539.5h100v86.3h-100v-86.3z"/><path fill="#E2E2EC" d="M729.8 540v85.3h-99V540h99m1-1h-101v87.3h101V539z"/><path fill="#FFF" d="M529.4 539.5h100v86.3h-100v-86.3z"/><path fill="#E2E2EC" d="M628.8 540v85.3h-99V540h99m1-1h-101v87.3h101V539z"/><path fill="#FFF" d="M428.4 539.5h100v86.3h-100v-86.3z"/><path fill="#E2E2EC" d="M527.9 540v85.3h-99V540h99m1-1h-101v87.3h101V539z"/><path fill="#FFF" d="M327.4 539.5h100v86.3h-100v-86.3z"/><path fill="#E2E2EC" d="M426.9 540v85.3h-99V540h99m1-1h-101v87.3h101V539z"/><path fill="#FFF" d="M226.4 539.5h100v86.3h-100v-86.3z"/><path fill="#E2E2EC" d="M325.9 540v85.3h-99V540h99m1-1h-101v87.3h101V539z"/><path d="M436.4 704.9c2.9-2.2 5.5-4.7 6.4-7.8.9-3.4-1.1-6.9-4.5-8-4.1-1.3-8.5 1-11.8 3.4s-7.1 5-11.5 4.5c4.5-3.3 6.6-8.5 5.4-13.3-.2-1-.7-2-1.5-2.7-2.3-2-6.4-1.1-9.1.4-8.6 5-11.1 14.5-11.1 23.2-.9-3.1-.1-6.3-.2-9.5s-1.1-6.7-4.4-8.5c-2.1-.9-4.4-1.4-6.7-1.3-3.9-.1-8.2.2-10.9 2.5-3.3 2.9-2.4 7.7.4 10.9s7.2 5.2 11.3 7.3c3.1 1.7 6.2 3.6 8 6.3.2.3.4.7.6 1.1h24.4c5.5-2.2 10.6-5.1 15.2-8.5z"/><circle fill="#FC6681" cx="239.6" cy="203.5" r="5.7"/><circle fill="#FFD037" cx="253.8" cy="203.5" r="5.7"/><path d="M440.9 282.3c3.1 0 5.7 2.6 5.7 5.7s-2.6 5.7-5.7 5.7-5.7-2.6-5.7-5.7 2.5-5.7 5.7-5.7zm14.2 0c3.1 0 5.7 2.6 5.7 5.7s-2.6 5.7-5.7 5.7-5.7-2.6-5.7-5.7 2.6-5.7 5.7-5.7zm290.5 163.3c3.1 0 5.7 2.6 5.7 5.7s-2.6 5.7-5.7 5.7-5.7-2.6-5.7-5.7 2.6-5.7 5.7-5.7zm2.9-6.6c3.1 0 5.7 2.6 5.7 5.7s-2.6 5.7-5.7 5.7-5.7-2.6-5.7-5.7 2.5-5.7 5.7-5.7zm2.8-5.7c3.1 0 5.7 2.6 5.7 5.7s-2.6 5.7-5.7 5.7-5.7-2.6-5.7-5.7 2.6-5.7 5.7-5.7zM645 197.8c3.1 0 5.7 2.6 5.7 5.7s-2.6 5.7-5.7 5.7-5.7-2.6-5.7-5.7 2.6-5.7 5.7-5.7zm14.2 0c3.1 0 5.7 2.6 5.7 5.7s-2.6 5.7-5.7 5.7-5.7-2.6-5.7-5.7 2.6-5.7 5.7-5.7zm14.3 0c3.1 0 5.7 2.6 5.7 5.7s-2.6 5.7-5.7 5.7-5.7-2.6-5.7-5.7 2.5-5.7 5.7-5.7zm14.2 0c3.1 0 5.7 2.6 5.7 5.7s-2.6 5.7-5.7 5.7-5.7-2.6-5.7-5.7 2.6-5.7 5.7-5.7zM645 374.4c3.1 0 5.7 2.6 5.7 5.7s-2.6 5.7-5.7 5.7-5.7-2.6-5.7-5.7 2.6-5.7 5.7-5.7zm14.2 0c3.1 0 5.7 2.6 5.7 5.7s-2.6 5.7-5.7 5.7-5.7-2.6-5.7-5.7 2.6-5.7 5.7-5.7zm14.3 0c3.1 0 5.7 2.6 5.7 5.7s-2.6 5.7-5.7 5.7-5.7-2.6-5.7-5.7 2.5-5.7 5.7-5.7zm14.2 0c3.1 0 5.7 2.6 5.7 5.7s-2.6 5.7-5.7 5.7-5.7-2.6-5.7-5.7 2.6-5.7 5.7-5.7z"/><circle fill="#FFD037" cx="340.2" cy="288" r="5.7"/><circle fill="#FC6681" cx="239.6" cy="374.4" r="5.7"/><linearGradient id="b" gradientUnits="userSpaceOnUse" x1="2204.237" y1="-4.969" x2="2204.237" y2="606.903" gradientTransform="rotate(180 1509.41 376.15)"><stop offset="0" stop-color="gray" stop-opacity=".25"/><stop offset=".54" stop-color="gray" stop-opacity=".12"/><stop offset="1" stop-color="gray" stop-opacity=".1"/></linearGradient><path fill="url(#b)" d="M740.7 465.6c6.3 3.7 16 6.1 28.3-1.8l-.1 17.6c.9 12 15.8 55.9 15.8 55.9l10.5 36.1c7.5 25.5 11.4 51.9 11.5 78.5 0 8.8.8 17.9 3.3 24.7 5.6 15.1-2.2 34.6-5.6 41.8-5.7 1.9-11.5 3.6-17.3 4.9-.5.1-1 .3-1.5.5l-.1-.1s-15.8 6.3-22.8 5.4c-5.2-.6-8.5 5.9-4.4 10.7-3.9 1-7.8 1.7-10.5 1.4-7-.9-10.5 11.2 2.6 14.6s87.6 0 87.6 0c4.3-2.2 6.6-7 5.6-11.7 5.7-.2 9.3-.4 9.3-.4s13.1-6 0-22.4l-.7.5-2.8-8.3v-11.2s16.6-80 11.4-89.5-7.9-57.6-7.9-57.6l1.8-52.5c4.8-9.8 7.2-25.2 8.4-37.2 1.8-5.7 2.9-11.6 3.4-17.6.2-2.8.4-5.8.5-8.9 0-6.7-1.1-13.4-3.3-19.8 5-7.2 13.1-18.3 19.8-24.9 10.5-10.3 7.9-22.4 7.9-22.4l-4.4-29.3-10.3-49.6c1.3-13.8-1.6-21.8-4.8-26.3.8-4.5 1.5-8.9 2-13.4 2.3-19.5 1.3-39.3-3.1-58.5-1.5-6.7-3.6-13.6-8.3-18.6-5.3-5.7-13.9-9.2-15.9-16.8-.5-1.9-.5-3.9-1.2-5.7-1.9-4.9-8-6.7-13.3-7.4-9.5-1.1-23.2-2-32.3 1.7-6.4 2.6-15.1 9.8-18.6 17.4-2 3.5-2.9 7.2-2.1 10.7.3 1.3.8 2.5 1.5 3.7-1.4 3.7-2 7.6-2 11.5.1 13.8 8.6 26.1 21.4 31.1.2.7.4 1.3.6 2 .4 1.5.7 3.1.9 4.7-.2 3-.4 6.1-.5 9.1l-.3 1.2c-7.5 3.3-14.9 7.1-22 11.2 5.3 7.7-.9 40.4-.9 40.4-13.1 7.7-26.3 27.5-12.3 48.2s6.1 43 6.1 43l-2.2 33.6v.1l-.4 6.7h.2l-.2 2.5.4.1v2.7c-6.2 2.3-15.1 6.8-20.5 15.3-2.5 4.1-5.6 7.9-9.2 11.3-2.8 2.4-3.1 6.7-.7 9.5.5.8 1.1 1.3 1.7 1.6zm105.8-89.3c-.5-5.8.5-11.7 3.1-16.9 2.1 0 4.1.1 6.2.1.2 1.5.5 2.8.8 4.1 1.7 7.5-5.4 11.1-10.1 12.7z"/><path fill="#DB8B8B" d="M848.2 709.7l3.4 10.1-11 11-36.2 8.4-26.1-2.5 1.7-9.3c1-4.1 4.2-7.2 8.3-8.2 10.7-2.5 31.2-8.3 35.5-16.3l24.4 6.8z"/><path opacity=".1" d="M848.2 709.7l3.4 10.1-11 11-36.2 8.4-26.1-2.5 1.7-9.3c1-4.1 4.2-7.2 8.3-8.2 10.7-2.5 31.2-8.3 35.5-16.3l24.4 6.8z"/><path fill="#2E3037" d="M786.7 734.1l5.1-6.7-5.1-7.8s-15.2 6.1-21.9 5.3-10.1 11 2.5 14.3 84.3 0 84.3 0 12.6-5.9 0-21.9l-11 8.4s-18.5 10.1-27.8 8.4h-26.1z"/><path fill="#DB8B8B" d="M763.9 748.4l26.1 2.5 36.2-8.4 11-11-.9-2.7-1.3-3.8-1.3-3.7-24.4-6.7c-1.2 2-3 3.8-5 5-7.9 5.4-22.2 9.3-30.6 11.3-.3.1-.7.2-1 .3-3.6 1.2-6.3 4.2-7.3 7.9l-1.5 9.3z"/><path opacity=".1" d="M763.9 748.4l26.1 2.5 36.2-8.4 11-11-.9-2.7-10.1 7.7s-18.5 10.1-27.8 8.4h-26.2l5.1-6.7-4.5-7c-3.6 1.2-6.3 4.2-7.3 7.9l-1.6 9.3z"/><path fill="#2E3037" d="M772.3 745.9l5.1-6.7-5.1-7.8s-15.2 6.1-21.9 5.3-10.1 11 2.5 14.3 84.3 0 84.3 0 12.6-5.9 0-21.9l-11 8.4s-18.5 10.1-27.8 8.4h-26.1z"/><path fill="#DB8B8B" d="M793.4 257.1s40.5 4.2 34.6-12.6c-1.6-4.8-2.1-9.9-1.3-14.9 1-6.2 3.5-12 7.2-17.1l-37.9 5.9c2.3 3.8 4 7.9 5.1 12.2 4.5 17.8-7.7 26.5-7.7 26.5z"/><path fill="#474463" d="M862.5 449.2s-.8 36.2-9.3 53.9l-1.7 51.4s2.5 47.2 7.6 56.5-11 87.7-11 87.7v13.5s-27 10.1-34.6-1.7l7.6-100.3-3.4-139.1 44.8-21.9z"/><path opacity=".1" d="M862.5 449.2s-.8 36.2-9.3 53.9l-1.7 51.4s2.5 47.2 7.6 56.5-11 87.7-11 87.7v13.5s-27 10.1-34.6-1.7l7.6-100.3-3.4-139.1 44.8-21.9z"/><path fill="#FC6681" d="M879.4 332.9l5.1 13.5 4.2 28.7c1.2 8.1-1.7 16.3-7.6 21.9-10.1 10.1-23.6 31.2-23.6 31.2l-16-48s16-2.5 13.5-13.5-1.7-31.3-1.7-31.3l26.1-2.5z"/><path opacity=".05" d="M879.4 332.9l5.1 13.5 4.2 28.7c1.2 8.1-1.7 16.3-7.6 21.9-10.1 10.1-23.6 31.2-23.6 31.2l-16-48s16-2.5 13.5-13.5-1.7-31.3-1.7-31.3l26.1-2.5z"/><path opacity=".1" d="M804.5 719.7c10.8 17 27.6 7.4 30.6 5.5l-1.2-3.7-24.4-6.7c-1.3 1.9-3 3.6-5 4.9z"/><path fill="#474463" d="M770.7 482.1c.8 11.8 15.2 54.8 15.2 54.8l10.1 35.4c7.2 25 11 50.9 11.1 76.9 0 8.6.8 17.5 3.2 24.2 6.7 18.5-6.7 43.8-6.7 43.8 11.8 21.1 32 6.7 32 6.7v-13.5s16-73.3 11.8-87.7-5.9-53.1-5.9-53.1v-70c13.5-13.5 21.7-31.3 23.1-50.3.2-2.8.4-5.7.5-8.7.7-19-12.3-41.3-17.4-49.3-1.2-1.9-2-3-2-3L771.2 418l-.2.1v9.3l-.3 54.7z"/><path opacity=".1" d="M796 218.3c2.3 3.8 4 7.9 5.1 12.2 8.3 3.2 17.6 2.8 25.6-.9 1.1-6.2 3.5-12 7.2-17.1l-37.9 5.8z"/><circle fill="#DB8B8B" cx="812.8" cy="198.1" r="32.9"/><path opacity=".1" d="M770.7 427.3l.4.1c35.3 7.3 79.7-29.6 79.7-29.6-1.2-2-2.2-4.1-3.1-6.3-1.2-1.9-2-3-2-3L771.3 418l-.2 3-.4 6.3z"/><path fill="#FC6681" d="M779.9 256.2s47.2-28.7 62.4-16.9l21.1 27s13.5 4.2 11 31.2l10.1 48.9-30.3 7.6s-17.7 16.9-3.4 41.3c0 0-44.7 37.1-80.1 29.5l2.5-39.6s7.6-21.9-5.9-42.1-.8-39.6 11.8-47.2c0-.1 5.9-32.1.8-39.7z"/><path fill="#DB8B8B" d="M777.4 428.2s-17.7 3.4-26.1 16.9c-2.4 4-5.4 7.7-8.8 11-2.7 2.5-2.9 6.7-.5 9.4.4.5.9.9 1.5 1.2 6.7 4 17.6 6.5 31.4-4.8 23.6-19.4 2.5-33.7 2.5-33.7z"/><path opacity=".1" d="M803.5 272.2s16.9-1.7 21.1 42.1 11 53.9 11 53.9 4.2 22.8-5.9 36.2-29.5 42.1-29.5 42.1-21.1 5.9-25.3-15.2l26.1-48.9s4.2-16.9-5.9-28.7-17.7-89.9 8.4-81.5z"/><path fill="#FC6681" d="M801.8 269.7s16.9-1.7 21.1 42.1 11 53.9 11 53.9 4.2 22.8-5.9 36.2-29.5 42.1-29.5 42.1-21.1 5.9-25.3-15.2l26.1-48.9s4.2-16.9-5.9-28.7-17.7-89.9 8.4-81.5z"/><path opacity=".1" d="M787.9 301.3s-1.7 26.1 5.9 40.5 7.6 32.9 0 43m-10.1-115.5s6.7-6.7 26.1-7.6 27.8-6.7 27.8-6.7"/><path opacity=".1" d="M830.6 155.6c5.1.6 11 2.4 12.8 7.2.7 1.8.7 3.7 1.2 5.6 1.9 7.4 10.2 10.8 15.3 16.4 4.5 5 6.5 11.7 8 18.2 4.2 18.8 5.2 38.1 3 57.3-1.6 14-5 27.7-5.9 41.8s.8 28.8 8.5 40.6c3.3 5.1 7.7 9.5 10 15.1-4.8 3.9-11.5 4.5-17.7 4.7-7.2.2-14.5.2-21.8 0-3.8-.1-7.8-.4-11-2.3-2.4-1.6-4.4-3.7-5.8-6.2-4.2-7-5.2-15.5-5-23.7s1.5-16.3 1.6-24.5c.1-4.5-.3-9.2-2.8-12.8-1.8-2.6-4.7-4.4-7.1-6.5-9-8-12.1-20.8-12.4-32.9-.3-12 1.7-24.1.7-36.1-.4-4.7-2.2-10.4-6.8-11.3-1.5-.3-3 0-4.4-.6-3.7-1.4-3.3-6.7-4.4-10.5-1.2-4.3-4.9-7.6-5.9-12-2.4-10.2 10.5-22.4 19.1-25.9 8.5-3.6 21.7-2.7 30.8-1.6z"/><path fill="#472727" d="M831.5 153.9c5.1.6 11 2.4 12.8 7.2.7 1.8.7 3.7 1.2 5.6 1.9 7.4 10.2 10.8 15.3 16.4 4.5 5 6.5 11.7 8 18.2 4.2 18.8 5.2 38.1 3 57.3-1.6 14-5 27.7-5.9 41.8s.8 28.8 8.5 40.6c3.3 5.1 7.7 9.5 10 15.1-4.8 3.9-11.5 4.5-17.7 4.7-7.2.2-14.5.2-21.8 0-3.8-.1-7.8-.4-11-2.3-2.4-1.6-4.4-3.7-5.8-6.2-4.2-7-5.2-15.5-5-23.7s1.5-16.3 1.6-24.5c.1-4.5-.3-9.2-2.8-12.8-1.8-2.6-4.7-4.4-7.1-6.5-9-8-12.1-20.8-12.4-32.9-.3-12 1.7-24.1.7-36.1-.4-4.7-2.2-10.4-6.8-11.3-1.5-.3-3 0-4.4-.6-3.7-1.4-3.3-6.7-4.4-10.5-1.2-4.3-4.9-7.6-5.9-12-2.4-10.2 10.5-22.4 19.1-25.9 8.4-3.6 21.6-2.7 30.8-1.6z"/></svg>