<svg xmlns="http://www.w3.org/2000/svg" viewBox="0 0 1167.7 718.4"><path opacity=".1" d="M1145.8 229.9c-11.2-25.6-26.3-49.3-44.8-70.2l-621.9-6 512-70.7C958 70 922.9 63.1 887.3 62.7 838 23.5 774.6 0 705.5 0c-62 0-119.3 19-166.1 51.1-41.3-20.8-86.9-31.6-133.1-31.5-138.2 0-253.3 94.1-279.1 218.9l1018.6-8.6zM736.5 338.6l67.8 10.4 2.3.3 1.5.3 2.8.4 11.3 1.7 120.9 18.4 39.5 6 175.9 26.8c-23.3 86.1-89.7 155.6-175.9 186.4-3.7 1.3-7.4 2.6-11.2 3.8-26.8 53.9-71.5 98-126.8 125.3H583.8c-19-9.4-36.9-20.8-53.4-34.2-3.3-2.7-6.6-5.4-9.7-8.2l-3.6-3.3c-1.6 1.4-3.2 2.9-4.8 4.3-3.8 3.3-7.7 6.5-11.7 9.5-16 12.4-33.4 23.1-51.6 31.9H194.2c-12.4-5.9-24.3-12.7-35.7-20.3C90.2 652.3 43.8 578.6 37.7 494.3l120.7-12.6 33.9-3.5 102.5-10.7 84.2-8.8-118.8-17.4-72.9-10.7-28.9-4.3-113.1-16.6c5.7-21.9 14.2-43 25.3-62.7l87.8-9.1 72.5-7.5 72.8-7.5 124.2-12.8 1.7-.2 370.7-38.3 16.6-1.8 165.8-17.1 165.6-17.1c12.8 31.4 19.4 64.9 19.4 98.8v4l-431.2.2z"/><path d="M1141.8 579.4s-14-5.7-58.8 14.8-50.3 17.9-61.9 14.8-18-3.9-30.5-21c0 0-8.8-47.5-17.2-54.8s-44.5 4.2-44.5 4.2-43.2 9.9-51.4-47.8c0 0 5.8-43.5-2.1-56.9 0 0 16 6.9 42.5-4.3s47.7 12 47.7 12 6.7 17.3 6 27.6 3.5 14.2 16.2 9.2c0 0 6.2-8.8-2.6-23.4s-15.1-25.5-12.6-36.8 9.5-27 32.2-34.9c22.7-7.9 53.4-9.4 68.2-15.5s18.3-10.2 18.3-10.2-9.1 9.1 12.3 47.7 7.8 55.4 7.8 55.4-11.4 27.1-61.7 25c0 0-48.5 1.8-22.1 22.3 0 0 16.9-3.4 42.2-11.5s43.6 25.2 48.1 48.3 23.9 35.8 23.9 35.8z"/><path fill="#444053" d="M1076.7 385.8l.3-.1c2 7.4-19.7 37-38.2 60.5l-.2-.2c26-33.2 39.6-54.6 38.1-60.2z"/><path fill="#444053" d="M1038.9 445.6l.1.3c-14.8 18.8-33.4 41.3-48.3 57.9-1.4 1.6-2.8 3.3-4.2 4.9l-.4-.3c1.4-1.7 2.8-3.4 4.2-5 14.9-16.6 33.8-39.1 48.6-57.8z"/><path fill="#444053" d="M986.5 507.9l.3.5c-27.1 33.8-28.9 86.4-28.9 86.8l-5.7-6.6c0-.5 7-46.6 34.3-80.7z"/><path stroke="#444053" stroke-miterlimit="10" d="M1110.4 561.1s-31.9-16.6-56.8-10.7-81-21.1-81-21.1-23.8-9.7-28.6-20.7c0 0-16.3-17.3-17.3-26.2s-16.8-31.4-27.2-32.3m206.3 127s-16.1-10.8-14.2-23.5m-10.5 37.5s-23-8.3-25.3-41.1m-11.8 49.5s-22-18.2-14.7-50.1m-29.9 41.2s-14.7-30.7-1.6-50.7m113.1.9s-16.6 5.3-13.1 14m-7.1-44.2s-22.3 7.1-22.8 38.6m-8.2-45.9s-20.3 25-18.8 47.8m-16.7-37.9s-20.1 19.2-17.6 29.9m5.4-36.7s-18.9 3.4-21.5-2.8m-3-20s9.5 12.6 12 9.8m82.6-17.8s-47.6 3.5-58.3-10.9m-46.3-44.8s22.3 47.9 38.5 54m-15.1-76.8s13.7 44.1 30.7 57.8"/><path stroke="#444053" stroke-width=".75" stroke-miterlimit="10" d="M1102.1 439.2s-36.2 15.5-57.9-.2m-11-51.3s8.3 32.4 19.4 40.2m44-25s-20.3 7.7-27.9 1.8"/><path stroke="#444053" stroke-miterlimit="10" d="M970.1 494.2s0 28.3-7.7 30.3m-55.2 6.3s30.5 2.6 44.6-13.2m10.4-56.8s-7.4 28.7-27.8 36.4m-45.6 3.4s21.6 7.5 40.2-11.6m9.2-52.8s-2 24.3-15.3 35.7m-33.2-8.4s17.9.1 22.1-5.7"/><path fill="#4C4C78" d="M982.7 213.2V696c0 12.4-10 22.4-22.4 22.4H180.9c-11.6 0-21.2-8.8-22.3-20.3-.1-.7-.1-1.4-.1-2.1V213.2c0-.5 0-1 .1-1.4h824.1v1.4z"/><path d="M960.3 191.8H180.9c-8 0-15.4 4.3-19.4 11.2-1.7 3-2.7 6.3-2.9 9.8h824.1c-.8-11.8-10.6-21-22.4-21z"/><circle fill="#EDEDF4" cx="180.8" cy="203" r="5.6"/><circle fill="#EDEDF4" cx="197.6" cy="203" r="5.6"/><circle fill="#EDEDF4" cx="214.4" cy="203" r="5.6"/><path d="M187.4 230.6h116.3v10.7H187.4v-10.7z"/><path opacity=".5" d="M187.4 282.8h116.3v10.7H187.4v-10.7zm0 36.9h116.3v10.7H187.4v-10.7zm0 37h116.3v10.7H187.4v-10.7zm0 36.9h116.3v10.7H187.4v-10.7zm0 36.9h116.3v10.7H187.4v-10.7zm0 36.9h116.3v10.7H187.4v-10.7zm0 36.9h116.3V515H187.4v-10.7z"/><path opacity=".5" fill="#DCE0ED" d="M427.8 270h515.3v1.7H427.8V270zm0 40h515.3v1.7H427.8V310zm0 39.9h515.3v1.7H427.8v-1.7zm0 40h515.3v1.7H427.8v-1.7zm0 40h515.3v1.7H427.8v-1.7z"/><path opacity=".5" d="M943.2 431.6h-516V353l47.3 23.3 49 6.6 43-13 51.8-40.2 26.1-15.1 19.1-3.7 18.2 1 30 14.8 40.8 26 32 4.1 25.4-8.8 53.8-44 27.5-9.8 28.7 4.4 23.4 13.5-.1 119.5z"/><path d="M517.1 383c-46.5 0-89.4-28.4-89.9-28.8l1.3-1.9c.7.4 66.8 44.2 122.9 22.3 20.5-8 35.1-20.4 49.2-32.4 14.7-12.5 28.6-24.4 47.6-29.5 21.8-5.9 45.5-.6 63.6 14.3 15.4 12.7 46.2 33 78.6 27 16.6-3.1 30.5-15.2 45.3-28 28.3-24.6 57.6-50 108.3-13.5l-1.4 1.9c-49.2-35.4-77.8-10.6-105.4 13.4-15 13-29.2 25.3-46.3 28.5-33.4 6.3-64.8-14.5-80.5-27.4-17.5-14.4-40.5-19.5-61.5-13.8-18.5 5-32.2 16.7-46.7 29.1-14.3 12.1-29 24.7-49.8 32.8-11.4 4-23.3 6.1-35.3 6z"/><circle cx="675.8" cy="310.8" r="12.8"/><path opacity=".5" fill="#DCE0ED" d="M473.4 521.2h75.8v16.1h-75.8v-16.1zm173.9 0H723v16.1h-75.8v-16.1zm173.9 0H897v16.1h-75.8v-16.1z"/><path opacity=".5" d="M512 581.2v10.7c23.5.1 42.4 19.3 42.3 42.8-.1 23.5-19.3 42.4-42.8 42.3-10-.1-19.7-3.6-27.3-10.1l-7.6 7.6c22.1 19.3 55.7 17.1 75.1-5 19.3-22.1 17.1-55.7-5-75.1-9.6-8.5-22-13.1-34.7-13.2zm348.8 10.2c23.5 0 41.5 19.1 41.5 42.5v.3H913v-.3c0-29.3-22.8-53.2-52.2-53.2-15.3 0-29.9 6.7-40 18.2l7.6 7.6c8.1-9.6 19.9-15.1 32.4-15.1z"/><path d="M468 633.4c0-23.5 19.1-41.5 42.5-41.5h.3v-10.7h-.3c-29.4 0-53.2 22.8-53.2 52.2 0 15.4 6.6 30 18.2 40.1l7.6-7.6c-9.6-8.1-15.1-20-15.1-32.5zM913 635.3h-10.7c-.1 23.5-19.3 42.4-42.8 42.3-23.5-.1-42.4-19.3-42.3-42.8.1-10 3.6-19.7 10.1-27.3l-7.6-7.6c-19.3 22.1-17.1 55.7 5 75.1 22.1 19.3 55.7 17.1 75.1-5 8.5-9.6 13.2-21.9 13.2-34.7z"/><path opacity=".5" d="M706.2 584.4l-2.1 10.6c15.6 6.3 25.6 21.6 25.6 39.5 0 23.5-19.1 42.5-42.6 42.5s-42.5-19.1-42.5-42.6c0-16.9 10-32.2 25.5-39l-4.8-9.5c-26.8 12.1-38.8 43.6-26.7 70.4 12.1 26.8 43.6 38.8 70.4 26.7 19.1-8.6 31.4-27.6 31.4-48.5 0-23.1-13.7-42.7-34.2-50.1z"/><path d="M688.5 591.3c5.1 0 10.1 1 14.8 3.1l2.1-10.6c-5.4-2.1-11.1-3.1-16.9-3.1-7.5 0-15 1.6-21.8 4.7l4.8 9.6c5.3-2.5 11.1-3.7 17-3.7z"/><linearGradient id="a" gradientUnits="userSpaceOnUse" x1="151.202" y1="-88.7" x2="151.202" y2="384.898" gradientTransform="matrix(1 0 0 -1 -16.15 627.09)"><stop offset="0" stop-color="gray" stop-opacity=".25"/><stop offset=".54" stop-color="gray" stop-opacity=".12"/><stop offset="1" stop-color="gray" stop-opacity=".1"/></linearGradient><path fill="url(#a)" d="M233.7 383.6c2.9-7.7-2.2-15.8-2.2-15.8l-.4-17.6c2.3-4.6-5.5-16.2-5.5-16.2s-1.8-8.7-3.5-9.5-3.5-4.4-3.5-4.4c0-1-.6-2-1.6-2.4-2.9-5.2-5.4-10.7-7.4-16.3-1.1-3.1-2.1-6.5-1.5-9.7.2-.8.4-1.6.7-2.4l.2-.5.1-.2.1-.2c.8-1.6 1.2-3.4 1.2-5.2-.2-3.8-3.7-6.5-7.1-8.1s-7.3-2.6-10-5.3c-3.4-3.3-4.2-8.4-4.9-13s-2-9.7-5.8-12.5c-3.4-2.5-8-2.5-12.1-1.8-5.6 1-10.9 3.1-15.6 6.2-4.6 3-8.6 7.1-13.9 8.7-1.9.6-4 .8-5.9 1.5-4.1 1.5-7.3 4.7-8.8 8.8-.1.2-.1.4-.2.6s-.2.5-.2.7l-.1.6c-.1.2-.1.5-.1.7s-.1.4-.1.6-.1.5-.1.7 0 .4-.1.6 0 .5 0 .8c-2.2 2.1-4.1 4.4-5.6 7-6.7 10.6-15.1 26.1-18.8 33l-.2.3v-.2s-16.4 16.5-6.8 14.3c.7-.2 1.4-.3 2-.4l-.1 1.8c-1.5 1.9-8.2 8.6 4.2 13.5 10.2 4.1 31.1 5.1 38 5.4l-.6 2.9c-10.6 8.7-6.5 18.6-6.7 25.1s-1.2 14.2-1.2 14.2-4.5 7.4-4 11.2-3.3 10.1-3.3 10.1-5.7 6.3-5.1 10.3c.6 4-1 9.3-1 9.3s-3.9 7.1-2.3 11.1.8 6.3.8 6.3-8.4 1.2-9 5.7-8.2 6.1-8.2 6.1-13.4 4.8-16.7 7.1-20.6 18.4-20.6 18.4-17.4 17.7-18.3 19.5c-.9 1.8-11.2 9.6-6.4 16.8.2.4.5.7.7 1.1 4.9 7.2 11.4 13.3 18.8 17.8 3.3 2 6.6 4.3 7.5 5.8 2.1 3.3 37.9 26.2 37.9 26.2s15.7 13.8 25.9 23.4l.8 4.6c-.1.2-.3.4-.4.7-.2 1 .2 2.1.9 2.7l.1.8s4.1 34.4 7.8 50.4c2.4 10.6.7 18.7-.7 22.9-3.8-4.2-4.3-5.7-4.3-5.7-1.1 2.7-2 5.6-2.6 8.5-.1.4-.1.8-.1 1.2-.1 0-.2 0-.3.1l-1.4 2c-1.6 2.2-2.9 4.4-4.3 6.7-3.2 5.2-13.3 7.6-13.3 7.6-.8.4-1.8.8-2.7.9-2.8.5-5.7.6-8.6.3-.9.1-1.7.3-2.5.6-.7.2-1.3.5-1.9.9-4.4 2.8-2.8 8.1-2.8 8.1l.1.1.1.1.2.1.3.2.2.1.3.1.2.1.3.2.3.1.7.4.3.2.4.2.3.2.5.2.5.2.8.4.5.2.5.2.5.2.5.2 1 .4.5.2.7.2.5.2.8.2.4.1 1.3.3.4.1 1 .2h.5l1.1.2h.3c.5.1 1 .1 1.4.2h.3l1.2.1h2l1.5-.1h.3l1.2-.1.5-.1 1.1-.2.5-.1c.5-.1 1-.2 1.6-.4 11.4-3.1 23.2-4.1 35-3 9 .8 11.3-2.3 11.3-2.3.2-.2.3-.5.5-.8.1-.1.1-.2.1-.3.1-.2.2-.4.2-.6 0-.1.1-.3.1-.4s.1-.4.1-.6 0-.3.1-.4 0-.2 0-.2 0-.4.1-.6c.1-1.7 0-3.5-.4-5.2-.7-3.8-1.8-7.4-3.3-11l-.6.5c-.1-.3-.1-.7-.2-1.1-2.2-11.8-3-40.3-3.1-43.3 1.2 0 2.4-.4 3.4-1.2.1-.1.2-.1.3-.2 7.6-6.2 3.9-34.6 1.4-38.5s-3-24.2-3.9-30.6c-.4-3.1-2.1-4-4.1-4h-.9c-.3-6 .6-20.1 1.3-29.7 0-.6.1-1.2.1-1.8l1.9.1 2.9-17s1.6-6.3 11.6-24.1 11-37.2 11-37.2 3.1-5.9 2.2-8.5c-.2-.7-.6-2.6-.9-5.1 3.4-2.1 7-3.8 10.7-5.2 10.7-4.3 18.7-12.4 22.4-16.4l.6-.6c.9 1.4 1.8 2.8 2.5 4.3 0 0 8.8-6.1 13.3-11.3.5-.6.9-1.3 1.1-2 2.7-6.7-.1-21.1-.1-21.1 3.8-5.8-.6-11.5-.6-11.5z"/><linearGradient id="b" gradientUnits="userSpaceOnUse" x1="198.163" y1="224.105" x2="225.474" y2="224.105" gradientTransform="matrix(1 0 0 -1 -16.15 627.09)"><stop offset="0" stop-color="gray" stop-opacity=".25"/><stop offset=".54" stop-color="gray" stop-opacity=".12"/><stop offset="1" stop-color="gray" stop-opacity=".1"/></linearGradient><path opacity=".1" fill="url(#b)" d="M189.6 424.5c-.4.7-3.4 2.5-6.9 4.4-.3-2.6-.6-4.6-.6-5.2-.2-2.2 4.6-12.2 4.6-12.2s9.1-12.2 8.9-14.1 3.5-7.1 3.5-7.1l8.3-13.4c-.9 2.1-.6 4.5.9 6.3 2.5 3.3.4 9.8.4 9.8l.5 8.2.1.8c-.3.3-1.6 1.6-4.6 4.2-2.7 2.5-2.2 3.2-1.9 3.4-.6 1.1.1 1.3.1 1.3h.7l-.6.6c-5.3 4.8-12.7 11.7-13.4 13z"/><path fill="#985C7E" d="M135 273c-2.5 2.6.3 6.2-1.6 9-1.1 1.6-3.5 2.5-4.9 4-2.7 2.9-.7 6.6.6 9.8 4.7 12-2.3 25.6-17 33 6.3 2.8 13.4 3.4 20.2 1.6 6.6-1.8 11.6-5.8 12.9-10.5.9-3.3.1-6.8 1.8-10 2.6-4.9 10.7-7.9 13.1-12.8 1.9-3.9-.2-8.1-2.5-11.8-3-4.7-6.4-9.1-10.2-13.2-2.3-2.5-2.3-3.5-6-2.8-2.4.8-4.6 2-6.4 3.7z"/><path fill="#985C7E" d="M156.9 308c-.3 3.5-1.1 7-2.4 10.4-1.4 4.3-2.8 8.5-5.3 12.3s-5.9 7-10.3 8.1c2.9 2.6 6.8 3.8 10.7 3.1 2.7-.5 5.5-1.9 8.2-1 1.2.5 2.4 1.2 3.5 1.9 3.9 2 9 .5 11.8-2.9 2.7-3.5 3.5-8.2 2.1-12.4-.8-2.5-2.2-4.9-3-7.4-1.1-3.8-.7-8-2.5-11.5-2.7-5-10.1-8-15.1-10-.1 2.7 2.4 6.2 2.3 9.4z"/><path opacity=".1" d="M149.9 298.7c-.3 3.5-1.1 7-2.4 10.4-1.4 4.3-2.8 8.5-5.3 12.3s-5.9 7-10.3 8.1c2.9 2.6 6.8 3.7 10.7 3.1 2.8-.5 5.5-1.9 8.2-1 1.2.5 2.4 1.2 3.5 1.9 3.9 2 9 .5 11.8-2.8 2.7-3.5 3.5-8.2 2.1-12.4-.8-2.5-2.2-4.9-3-7.4-1.1-3.8-.7-8-2.5-11.5-2.7-5-10.1-8-15.1-10 0 2.6 2.4 6 2.3 9.3z"/><path fill="#ECB4B6" d="M154.9 531.9s-3 36.7-1.7 41.6 3.5 71.3 3.5 71.3.9 38.7 3.9 46.8-20.4 5.8-21.1 5.7-6.6-16.5-6.6-16.5 5.7-10 2.1-26-7.6-50-7.6-50l-6.6-40.1s.9-9.4-2.6-14.7-8-40.1-7-43.1 24.8-9.6 24.8-9.6l10.3 13.4 8.6 21.2z"/><path opacity=".07" d="M111.4 514.5l.1.7c.1.7.1 1.4.2 2.1 1.3 11.6 4.1 29 6.5 32.6s2.7 9.2 2.7 12.3v1c0 .9-.1 1.4-.1 1.4l5.1 30.8.2 1.3 1.3 8s4 34.1 7.6 50c1.8 7.2 1.6 14.7-.4 21.8l-.3.9c-.4 1.1-.8 2.2-1.4 3.2 0 0 .8 2.3 1.9 5.2.2.7.5 1.3.7 2l.4 1.1c1.6 4.1 3.2 8.2 3.6 8.2.8.1 24.2 2.4 21.1-5.7-.4-1.2-.7-2.4-.9-3.6-2.3-12.4-3-43.2-3-43.2s-2.2-66.3-3.5-71.3c-.9-3.3.2-20.6 1-31.8.4-5.6.7-9.7.7-9.7l-8.7-21.3-10.3-13.4s-17.1 4.8-22.9 8l-.2.1c-1 .5-1.6 1.1-1.7 1.5-.2.9 0 3.9.3 7.8z"/><path opacity=".05" d="M126.9 560.9s11.3 3 10.3 6.3l-10.3-6.3z"/><path opacity=".1" d="M132.9 680.8s1.2 3.5 2.6 7.2c1.6.8 2.8 1.2 2.8 1.2s4.4-4.1-1.4-10c-.9-1-1.7-1.8-2.4-2.6-.3 1.5-.9 2.8-1.6 4.2z"/><path fill="#CC8294" d="M127.4 682.7c.4 2.4 5.7 5.1 8.6 6.3 1.1.5 1.8.8 1.8.8.5-.5.9-1.2 1.2-1.9.7-1.8.8-4.6-2.6-8.1-.8-.8-1.5-1.6-2.1-2.3-3.8-4.2-4.3-5.8-4.3-5.8-1.1 2.7-2 5.5-2.6 8.4-.1.9-.1 1.8 0 2.6z"/><path opacity=".1" d="M127.4 682.7c.4 2.4 5.7 5.1 8.6 6.3 1.6 4.1 3.2 8.2 3.6 8.2.8.1 24.2 2.4 21.1-5.7-.4-1.2-.7-2.4-.9-3.6-1.4.9-4.1 2.9-6.5 4.6-3.3 2.3-8.3.6-8.3.6l-6.1-5.2-1.5-1.3c-.9-.1-1.8-.3-2.6-.6-2.1-.9-3.9-2.4-5.2-4.2-1.1-1.2-1.8-1.6-2.2-1.6-.1.8-.1 1.7 0 2.5z"/><path fill="#CC8294" d="M90.2 708.4c4.4 2.8 9.2 4.7 14.3 5.7 4.3.9 8.8.8 13.1-.4 11.2-3.1 22.8-4.1 34.4-3 8.8.8 11.1-2.3 11.1-2.3 1.5-2 1.4-5.5.8-9-.7-3.7-1.8-7.4-3.2-10.9 0 0-4 2.8-7.3 5.2s-8.3.6-8.3.6l-7.6-6.5c-4.8-.3-7.9-4.8-7.9-4.8-2.1-2.3-2.5-1.5-2.5-1.5l-1.4 1.9c-1.5 2.1-2.9 4.4-4.3 6.7-3.2 5.2-13 7.6-13 7.6-.8.4-1.7.8-2.7.9-2.8.5-5.6.6-8.4.3-1.5.2-2.9.7-4.2 1.4-4.5 2.8-2.9 8.1-2.9 8.1z"/><circle fill="#4B4B5B" cx="135.9" cy="692.1" r=".8"/><circle fill="#4B4B5B" cx="126.3" cy="696.2" r=".8"/><circle fill="#4B4B5B" cx="130.1" cy="702" r=".8"/><circle fill="#4B4B5B" cx="116.9" cy="700" r=".8"/><circle fill="#4B4B5B" cx="131.7" cy="694.6" r=".8"/><circle fill="#4B4B5B" cx="135.4" cy="701.6" r=".8"/><circle fill="#4B4B5B" cx="121.7" cy="698.4" r=".8"/><circle fill="#4B4B5B" cx="111.7" cy="701.2" r=".8"/><path opacity=".1" d="M90.2 708.4s13.4 9.2 27.4 5.4c11.2-3.1 22.8-4.1 34.4-3 8.8.8 11.1-2.3 11.1-2.3.6-1 1-2.1 1.1-3.3 0-.2 0-.5.1-.7.1-1.7 0-3.4-.4-5-1.8 1.4-5.6 3-13.4 3.3-13.3.4-30.9 3.8-30.9 3.8l-17-.7s-9.5-2.1-9.5-5.6c-4.5 2.8-2.9 8.1-2.9 8.1z"/><path fill="#CC8294" d="M114 711.7c.3 0 .6.1.8.1 3 0 10.2-1.6 14.6-2.6 1.2-.3 2.5-.5 3.7-.5 4-.2 13.8-.7 19.3-.6h.1c4-.1 7.9-1.1 11.6-2.8 0-.2 0-.5.1-.7-3.7 1.8-7.7 2.8-11.8 2.9-5.5 0-15.4.4-19.3.6-1.3.1-2.6.3-3.8.5-3.8.9-13 3-15.2 2.5l-.1.6z"/><path opacity=".03" d="M120.9 563.3c0 .9-.1 1.4-.1 1.4l5.1 30.8 2.6 2.5c2.6 2.3 4.9 4.8 7.1 7.5 3 4.7 13.6 2.3 13.4 1.8s-4.6-22.4-4.6-22.4l-3.5-8.9s-3.6 2.3-7.1-1.5c-2.2-2.4-7.2-7-10.6-10.1l-2.4-2.2c.1.5.1.8.1 1.1z"/><path opacity=".05" d="M111.4 514.6l.1.6c.1.7.1 1.4.2 2.1.7-.3 1.5-.6 2.2-.9.3-.2.7-.3 1-.5 3.3-1.6 6.4-3.5 9.3-5.8l-8.7-3.7-2.6-1.1c-1 .5-1.6 1.1-1.7 1.5-.3.9-.1 3.8.2 7.8z"/><path fill="#ECB4B6" d="M36.6 522.3c.2.4.5.7.7 1.1 4.9 7.1 11.2 13.1 18.5 17.7 3.2 2 6.4 4.3 7.4 5.8 2.1 3.3 37.3 26 37.3 26s16.4 14.5 26.3 24.1l1.3 1.2.6.6 2 2c.9.9 1.6 1.7 2.2 2.3.2.2.4.5.6.7s.4.5.5.7c3 4.7 13.6 2.3 13.4 1.8s-4.6-22.4-4.6-22.4l-3.5-8.9c-1.4.8-3.1.9-4.6.3-1-.4-1.9-1-2.6-1.8-2.2-2.4-7.2-7-10.6-10.1-2-1.8-3.4-3.1-3.4-3.1l-11.3-12.8S92.4 528.7 81.5 524c0 0 12.2-5 20.9-6.3 3.3-.4 6.6-1.2 9.7-2.3.3-.2.7-.3 1-.5 3.3-1.6 6.4-3.5 9.3-5.8l-8.7-3.8-45.8-19.7c-.3 0-2.9.2-4.9.3l-2.1.1s-17.1 17.7-18 19.5-11 9.5-6.3 16.8z"/><path opacity=".03" d="M87.1 514s-19.7 2.4-23.6 6.5c0 0 17.3 1.2 18 3.5 0 0-9.9-6.7-12.6-5l18.2-5z"/><path opacity=".05" d="M128 598.1l.6.6 2 2c.9.9 1.6 1.7 2.2 2.3l2.6-3.3c-.9-.7-1.8-1.3-2.9-1.8-1.5-.6-3.1-.6-4.5.2z"/><path fill="#CC8294" d="M129.2 605.4l2.1.9 2-2.6 2.6-3.4c-.9-.7-1.8-1.3-2.9-1.8-1.4-.6-3-.6-4.4.1-1 .6-1.8 1.5-2.3 2.6-.1 0-.8 2.3 2.9 4.2z"/><path opacity=".05" d="M128.9 605l.4.4 2.1.9 2-2.6c.2.3.4.5.5.7 3 4.7 13.6 2.3 13.4 1.8s-4.6-22.4-4.6-22.4l-3.5-8.9c-1.4.8-3.1.9-4.6.3-.8.8-.9 1.8 0 3.2 2 3 3.1 6.4 3.4 10 1.4 3.7-2.8 8.3-5.1 10.2-.4.3-.8.6-1.3.8-.5.3-.9.8-1.1 1.3-.6 1.4-1.2 2.8-1.6 4.3z"/><path fill="#CC8294" d="M130 605l4.6 4.6c6.4 4 11.2 10.1 13.8 17.2.5 1.4 1 2.7 1.6 4 .7 1.8 1.1 3.7 1.2 5.6.1 1.2.2 2.3.2 3.3 0 1.3.5 2.5 1.4 3.5l.1.1c1.9 2.1 5.1 2.4 7.4.6.1-.1.2-.1.3-.2 7.5-6.2 3.8-34.3 1.4-38.2s-2.9-24-3.8-30.4c-.4-3-2-3.9-4.1-4s-4.8.8-7.1 1.1h-.4c-4.7.4-13.6 1.8-10.5 6.1 2 3 3.1 6.4 3.4 10 1.7 4.6-4.9 10.5-6.4 11S130 605 130 605z"/><circle fill="#4B4B5B" cx="136.6" cy="602.2" r="1.3"/><circle fill="#4B4B5B" cx="138.6" cy="607.2" r="1.3"/><circle fill="#4B4B5B" cx="144.9" cy="615.2" r="1.3"/><circle fill="#4B4B5B" cx="141.8" cy="611" r="1.3"/><circle fill="#4B4B5B" cx="147.5" cy="619.9" r="1.3"/><path opacity=".1" d="M152.8 624s1.1 13 0 19.1c1.9 2.2 5.2 2.5 7.4.7.1-.1.2-.1.3-.2 7.5-6.2 3.8-34.3 1.4-38.2s-2.9-24-3.8-30.4c-.4-3-2-3.9-4.1-4s-4.8.8-7.1 1.1c0 6.4.4 21 2 25.9 2.1 6.3 3.9 26 3.9 26z"/><path opacity=".1" d="M156.1 597.5c1.4 4.9 3.5 18.5 3.3 25.7-.1 5.3.5 15.6.8 20.7.1-.1.2-.1.3-.2 7.5-6.2 3.8-34.3 1.4-38.2s-2.9-24-3.8-30.4c-.4-3-2-3.9-4.1-4 .2 6.5 1 22.5 2.1 26.4z"/><path fill="#CC8294" d="M151 571.5c.3 5.1 1.1 18.8 2.5 22.7 1.7 4.9 3.5 28.3 3.6 29.3h-.6c0-.2-1.9-24.4-3.6-29.2-1.4-4-2.2-17.6-2.5-22.8h.6z"/><path fill="#FF718D" d="M146.6 318.9s-9.7 1.7-15.2 3.8-6.3 3.1-6.3 3.1l-5.7.9v-6.1s-20.5 1.5-22.5.7c0 0-.1 0-.1-.1-1-1 .6 7.9-.9 9.8s-8 8.5 4.1 13.4 39.6 5.4 39.6 5.4l7.8-15.4-.8-15.5z"/><path fill="#ECB4B6" d="M177.3 348.3l-21.6-4.6c3-5.1 5.1-10.7 6.3-16.5.8-4.6.7-9.6-1.5-13.9-6.2-12.6 16.8-19.2 16.8-19.2s8.4 13 16 19.6c2.5 2.2 5 3.7 7 3.7 8.1-.1-23 30.9-23 30.9z"/><path opacity=".1" d="M60.8 487.8s9.4 22.3 18 22.6c5.2.2 21.2 2.5 33.1 4.2l1.1.2c3.3-1.6 6.4-3.5 9.3-5.8l-8.7-3.8-45.8-19.7c-.3 0-2.9.2-4.9.3l-2.1 2z"/><path opacity=".1" d="M128.2 507.3c8.2 1.2-2.2 9.4-2.2 9.4s4 3 8.6 14 6.8 10.2 6.8 10.2l12.8.7c.4-5.6.7-9.7.7-9.7l-8.7-21.3-10.2-13.4s-17.1 4.8-22.9 8l-.2.1c-1 .5-1.6 1.1-1.7 1.5-.3.8 16.7-3.5 17 .5zm49.1-159l-21.6-4.6c3-5.1 5.1-10.7 6.3-16.5l6.8 6.5c3.3 0 6.5-.9 9.3-2.7 1.2-.8 2.3-1.8 3.1-2.9 4.8-6 10.6-13.8 10.6-13.8s.7-.3 1.6-.6c2.5 2.2 5 3.7 7 3.7 8-.1-23.1 30.9-23.1 30.9z"/><path fill="#FF718D" d="M60.8 486s9.4 22.3 18 22.6 47.1 6.2 47.1 6.2 4 3 8.6 14 6.8 10.2 6.8 10.2l14.8.8 2.8-16.8s1.6-6.2 11.4-23.9 10.8-36.9 10.8-36.9 3-5.8 2.2-8.4-3.4-23.3-3.6-25.5 4.4-12 4.4-12 8.8-12 8.6-13.8 3.4-7 3.4-7l8-13.2c-.9 2.1-.6 4.4.8 6.2 2.4 3.2.4 9.6.4 9.6l.5 8.1.1 1.9s-1.2 1.2-4.5 4.2-1.7 3.4-1.7 3.4c10.2-1.4 18.2 15.2 18.2 15.2s8.6-6 13-11.2c.5-.6.8-1.2 1.1-1.9 2.6-6.7-.1-20.9-.1-20.9 3.5-6.2-.9-11.8-.9-11.8 2.8-7.6-2.2-15.6-2.2-15.6l-.3-17.4c2.2-4.6-5.4-16-5.4-16s-1.8-8.6-3.4-9.4-3.4-4.4-3.4-4.4c.2-4-10.4-4.4-11.4-4.6-1.3-.6-2.5-1.3-3.6-2.1-1-.7-2.1-1.3-3.2-1.9-1.8-.8-6.6 1.4-6.6 1.4s-5.8 7.8-10.6 13.8c-.9 1.1-2 2.1-3.1 2.9-2.8 1.8-6 2.7-9.3 2.7l-6.9-6.7-20.4 1.2-4.8 23.5c-10.4 8.6-6.4 18.4-6.6 24.9s-1.2 14-1.2 14-4.4 7.2-3.8 11-3.2 10-3.2 10-5.6 6.2-5 10.2-1 9.2-1 9.2-3.8 7-2.2 11 .8 6.2.8 6.2-8.2 1.2-8.8 5.6-8 6-8 6-13.2 4.8-16.4 7S60.9 486 60.8 486z"/><path opacity=".1" d="M229.2 388s-15 1.8-16.8 4 15 2.4 15 2.4l1.8-6.4zM207 399.9s11-3.9 11.3-2.7S207 405 207 405v-5.1zm-4.6-21.3c-1.9 3-17.7 22.4-17.7 22.4l17-24.8.7 2.4zm-2.3-5.3c-1.2 1.6-13.9 22.4-13.9 22.4l12.8-23.5 1.1 1.1zm26.6-25s-4.9-6.9-9.7-2.5 9.7 2.5 9.7 2.5zm-34.3-5.9s-12.5 0-18.6 2.8 5.3-8.4 18.6-2.8zM178 333h1.9s4.3-1.6 5.4-4.9 9.8-.3 9.8-.3 1.3.9.2-.6 3.8-6.4 6-9.6c.2-.2.3-.5.4-.8-1-.7-2.1-1.3-3.2-1.9-1.8-.8-6.6 1.4-6.6 1.4s-5.8 7.8-10.6 13.8c-1.1 1.1-2.1 2.1-3.3 2.9z"/><path fill="#FF718D" d="M178 331.8h1.9s4.3-1.6 5.4-4.9 9.8-.3 9.8-.3 1.3 1 .2-.6 3.8-6.4 6-9.6c.2-.2.3-.5.4-.8-1-.7-2.1-1.3-3.2-1.9-1.8-.8-6.6 1.4-6.6 1.4s-5.8 7.8-10.6 13.8c-1.1 1.1-2.1 2.1-3.3 2.9z"/><circle fill="#E7C7CA" cx="163.2" cy="344.4" r="1.3"/><circle fill="#E7C7CA" cx="140.3" cy="375.5" r="1.3"/><circle fill="#E7C7CA" cx="148.6" cy="355.8" r="1.3"/><circle fill="#E7C7CA" cx="136.6" cy="395.7" r="1.3"/><circle fill="#E7C7CA" cx="119.7" cy="430.5" r="1.3"/><circle fill="#E7C7CA" cx="118.4" cy="448.4" r="1.3"/><path fill="#ECB4B6" d="M99 318.9l2.7 8.7 8.5-.6 7.6-8.1s.5-1.5 1.3-3.6c1.9-5.4 5.6-15.1 7.5-18.1 2.8-4.2 4.6-21.6 4.6-21.6s-3.1-7-11.9 7c-6.6 10.6-14.8 25.9-18.5 32.7l-1.8 3.6zm37.6 122c0 2.1 9 3.1 13.2 3.5 1.3.1 2.2.2 2.2.2-1 2.3 4.3 19.5 4.3 19.5.5 0 .9-.1 1.3-.2 7-1.4 20.8-11 20.8-11s.3-3.3 14.6-9.1c10.5-4.3 18.4-12.3 22.1-16.3.7-.8 1.5-1.6 2.3-2.4L204.8 412s-2.1 1.9-4.8 4.5c-4.9 4.7-12.1 11.5-12.8 12.8-1.1 2-20.9 11.7-20.9 11.7-4.4-3.8-13.9-4.6-13.9-4.6s-15.7 1.7-15.8 4.5z"/><path opacity=".1" d="M160.2 395.7c-.6 1.2-27.8 19.3-32.4 19.5s4.3-8.6 4.6-8.7 27.8-10.8 27.8-10.8zM13.7 682.1l-1-.2 1 .2z"/><path opacity=".3" fill="#FFF" d="M92.9 700.3c1.3-.8 2.7-1.2 4.2-1.4 2.8.3 5.6.2 8.4-.3-.7 2.4-.9 4.9-.6 7.4l-2.6-.1c.1.1-9.4-2-9.4-5.6z"/><path opacity=".1" d="M14.3 682.3l-.5-.1.5.1zm-.4-.1h-.1.1z"/><path opacity=".3" fill="#FFF" d="M151.2 636.4c.1 1.2.2 2.3.2 3.3 0 1.3.5 2.5 1.4 3.5l.1.1c.3-2.4.5-4.8.4-7.1-.2.2-1.1.3-2.1.2z"/><path opacity=".1" d="M200 416.4c6.5-.4 12.1 6.4 15.1 11 .7-.8 1.5-1.6 2.3-2.4l-12.6-13.1s-2.1 2-4.8 4.5z"/><path opacity=".1" d="M200 414.7c10.2-1.4 18.2 15.2 18.2 15.2s8.6-6 13-11.2c.5-.6.8-1.2 1.1-1.9-2.4-5.7-8.9-15.3-26.3-11.6l.1 1.9s-1.2 1.2-4.5 4.2-1.6 3.4-1.6 3.4z"/><path fill="#FF718D" d="M200 415.9c10.2-1.4 18.2 15.2 18.2 15.2s8.6-6 13-11.2c.5-.6.8-1.2 1.1-1.9-2.4-5.7-8.9-15.3-26.3-11.6l.1 1.9s-1.2 1.2-4.5 4.2-1.6 3.4-1.6 3.4z"/><path opacity=".1" fill="#FFF" d="M200 415.9c10.2-1.4 18.2 15.2 18.2 15.2s8.6-6 13-11.2c.5-.6.8-1.2 1.1-1.9-2.4-5.7-8.9-15.3-26.3-11.6l.1 1.9s-1.2 1.2-4.5 4.2-1.6 3.4-1.6 3.4z"/><path opacity=".1" d="M99 318.9l2.7 8.7 8.5-.6 7.6-8.1s.5-1.5 1.3-3.6c-1.1.6-8.4 4.7-12.9 4.9-3.5.2-4.8-3.1-5.3-4.9-1.2 2.2-1.9 3.6-1.9 3.6z"/><path opacity=".1" d="M96.3 321.9l.6-.6c2-2.3 3.8-4.1 3.8-4.1.2 1.6.8 3 1.7 4.3.9 1.1 2.3 1.8 3.8 1.7 2.6-.3 5.1-1.1 7.5-2.2 3.1-1.3 5.6-2.8 5.6-2.8v2.4l.1 2.4v5.5s2.1 14.6-17.3 6.8c0 0 1.2-5.4-6.2-4.4l.4-9z"/><path fill="#FF718D" d="M119.2 316.4l.1 4.8v5.5s2.1 14.6-17.3 6.8c0 0 1.4-6.2-8-4s6.7-14.1 6.7-14.1.7 6.2 5.5 6 13-5 13-5z"/><path opacity=".1" fill="#FFF" d="M119.2 316.4l.1 4.8v5.5s2.1 14.6-17.3 6.8c0 0 1.4-6.2-8-4s6.7-14.1 6.7-14.1.7 6.2 5.5 6 13-5 13-5z"/><path opacity=".1" d="M156.3 469.5c-.2-.3-1-24.3-4.1-24.9s-10.8 2.6-10.8 2.6l1.4 19.1 13.5 3.2z"/><path opacity=".1" d="M152.1 444.6c-1 2.3 4.3 19.5 4.3 19.5.5 0 .9-.1 1.3-.2-.5-7.1-1.5-19.4-3.8-19.9-1.4-.1-2.8 0-4.1.4 1.4.1 2.3.2 2.3.2z"/><path fill="#FF718D" d="M157.5 468.9c-.2-.3-1-24.3-4.1-24.9s-10.8 2.6-10.8 2.6l1.4 19.1 13.5 3.2z"/><path opacity=".1" fill="#FFF" d="M157.5 468.9c-.2-.3-1-24.3-4.1-24.9s-10.8 2.6-10.8 2.6l1.4 19.1 13.5 3.2z"/><path fill="#985C7E" d="M129.7 326.6c2.4-3.8 3.9-8.1 5.3-12.3.7-2 1.3-4.1 1.8-6.2 3.9 5.7 10.1 9.6 17 10.6.7 1.6 1.4 3.1 2 4.8 1.4 4.2.6 8.9-2.1 12.4-2.8 3.4-7.9 4.8-11.8 2.9-1.1-.7-2.3-1.4-3.5-1.9-2.7-.8-5.4.5-8.2 1-3.9.6-7.8-.5-10.7-3.1 4.4-1.2 7.8-4.4 10.2-8.2z"/><circle opacity=".1" cx="157.5" cy="295.6" r="24.9"/><circle fill="#ECB4B6" cx="157.5" cy="294" r="24.9"/><path fill="#985C7E" d="M139.1 286.3c-2.9-2-7.2-.4-10.3-2.2-1.5-1-2.6-2.4-3.1-4.1-2.7-7.1 1.5-16 8.7-18.4 1.9-.6 3.9-.9 5.8-1.4 5.2-1.6 9.2-5.6 13.6-8.6 4.6-3.1 9.9-5.2 15.4-6.2 4.1-.7 8.6-.6 11.9 1.8 3.8 2.8 5 7.8 5.7 12.4s1.5 9.6 4.9 12.9c2.6 2.6 6.4 3.7 9.8 5.2s6.8 4.3 7 8c.2 2.9-1.7 5.5-2.2 8.4-.6 3.2.4 6.5 1.5 9.6 3.1 8.7 7.3 16.9 12.4 24.6-6.1 3.4-12.8 5.9-19.7 7.3-2.8.6-5.8.9-8.6 0-3.5-1.1-6.1-4.1-7.8-7.4-1.5-2.9-2.4-6-2.6-9.3-.5-6.5 1.5-13.4-1.3-19.2-.5-1.2-1.4-2.2-2.4-2.9-1.3-.7-2.8-.8-4.2-1.3-2.4-.8-4.3-2.5-6.2-4.2l-6.6-6.2c-1.5-1.6-3.2-2.8-5.1-3.8-3.5-1.5-7.7-.6-11 1.2-2.9 1.6-6.3 4.1-9.3 2.5"/><g opacity=".1"><path d="M137.1 285.7l-1.8-.5c.6.3 1.2.5 1.8.5zm0 0l2 .6c-.4-.2-.7-.4-1.1-.6h-.9z"/><path d="M201.3 332.3c-2.8.6-5.8.9-8.6 0-3.5-1.1-6.1-4.1-7.8-7.4-1.5-2.9-2.4-6-2.6-9.3-.5-6.5 1.5-13.4-1.3-19.2-.5-1.2-1.4-2.2-2.4-2.9-1.3-.8-2.8-.8-4.2-1.3-2.4-.8-4.3-2.5-6.2-4.2l-6.6-6.2c-1.5-1.5-3.2-2.8-5.1-3.8-3.5-1.5-7.7-.6-11 1.2-2.1 1.2-4.4 2.8-6.6 3 .4.1.8.3 1.1.6l-2-.6c-.6 0-1.2-.2-1.8-.5l1.8.5h.9c-2.8-1.1-6.5 0-9.2-1.6-1.5-1-2.6-2.4-3.1-4.1-.8-2.1-1-4.3-.7-6.5-1.2 3.1-1.3 6.6-.1 9.7.5 1.7 1.6 3.1 3.1 4.1 2.7 1.5 6.3.5 9.2 1.6 2.2-.3 4.6-1.8 6.6-3 3.3-1.9 7.5-2.7 11-1.2 1.9.9 3.7 2.2 5.1 3.8l6.6 6.2c1.9 1.7 3.8 3.5 6.2 4.2 1.4.4 2.9.5 4.2 1.3 1.1.7 1.9 1.7 2.4 2.9 2.9 5.8.8 12.7 1.3 19.2.2 3.2 1.1 6.4 2.6 9.3 1.7 3.3 4.3 6.3 7.8 7.4 2.8.9 5.7.5 8.6 0 6.9-1.4 13.5-3.8 19.7-7.3-.4-.7-.9-1.4-1.3-2.1-5.6 3-11.5 5-17.6 6.2zm7.2-45.7c-.6 1.4-1 2.8-1.4 4.2-.1.3-.1.6-.1 1 .7-1.7 1.2-3.4 1.5-5.2z"/></g><path opacity=".1" d="M153.9 333.9c-2.8 3.4-7.9 4.8-11.8 2.9-1.1-.7-2.3-1.3-3.5-1.9-2.7-.9-5.4.5-8.2 1-3.2.5-6.5-.2-9.2-2-.5.2-1 .4-1.5.5 2.9 2.6 6.8 3.7 10.7 3.1 2.8-.5 5.5-1.9 8.2-1 1.2.5 2.4 1.2 3.5 1.9 3.9 2 9 .5 11.8-2.9 2-2.5 3-5.7 2.7-8.9-.1 2.7-1.1 5.3-2.7 7.3z"/></svg>