<?xml version="1.0" encoding="utf-8"?>
<!-- Generator: Adobe Illustrator 22.1.0, SVG Export Plug-In . SVG Version: 6.00 Build 0)  -->
<svg version="1.1" id="图层_1" xmlns="http://www.w3.org/2000/svg" xmlns:xlink="http://www.w3.org/1999/xlink" x="0px" y="0px"
	 viewBox="0 0 1130 868.1" enable-background="new 0 0 1130 868.1" xml:space="preserve">
<path opacity="0.1" enable-background="new    " d="M1108.1,197.7c-11.5-22.4-26.7-42.8-44.8-60.4l-621.9-5.2l512-60.8
	c-33.5-11.2-68.6-17.1-103.9-17.4C800.3,20.2,736.9,0,667.8,0c-62,0-119.3,16.3-166.1,43.9c-39.7-17.3-85-27.1-133.1-27.1
	c-138.2,0-253.3,80.9-279.1,188.2L1108.1,197.7z M1130,287.6c0-29.4-6.7-58.4-19.4-84.9L32.9,298.4C21.9,315,13.4,333.2,7.6,352.3
	l333.8,42.1L0,425c10.3,121.5,133.4,217.4,283.9,217.4c75.7,0,144.5-24.3,195.5-63.9c51.1,40.4,120.6,65.2,197.2,65.2
	c113.6,0,211.6-54.7,257.3-133.7c91.6-24.6,162.7-86.3,187.1-163.5l-422.1-55.3H1130V287.6L1130,287.6z"/>
<ellipse opacity="0.1" enable-background="new    " cx="500" cy="855.2" rx="290" ry="12.9"/>
<path fill="#C8CAD7" d="M672.1,832.4v7.8H440.8v-6.3c39.4-14.6,59.4-58.3,44.9-97.7c-7-18.9-21.3-34.3-39.6-42.7h224.5
	c-38.2,17.5-54.9,62.6-37.5,100.7C640.9,811.3,654.8,824.9,672.1,832.4z"/>
<path opacity="0.1" enable-background="new    " d="M670.5,693.5c-20.9,9.6-36.3,28.1-42,50.4H488.1c-5.7-22.3-21.1-40.8-42-50.4
	H670.5z"/>
<path fill="#C8CAD7" d="M176,653.7v43.9c0,24.2,17.7,43.9,39.6,43.9H896c21.9,0,39.6-19.7,39.6-43.9v-43.9H176z"/>
<path opacity="0.1" enable-background="new    " d="M672.1,832.4v7.8H440.8v-6.3c6.3-2.4,12.3-5.6,17.8-9.5h199.2
	C662.3,827.5,667.1,830.2,672.1,832.4L672.1,832.4z"/>
<path fill="#C8CAD7" d="M373.9,826.8H739c5.2,0,9.5,4.3,9.5,9.5v4.2c0,5.2-4.3,9.5-9.5,9.5H373.9c-5.2,0-9.5-4.3-9.5-9.5v-4.2
	C364.4,831.1,368.7,826.8,373.9,826.8z"/>
<path fill="#474157" d="M935.7,172.6c0-21.9-17.8-39.6-39.6-39.6H215.7c-21.9,0-39.6,17.7-39.7,39.6v489.6h759.7V172.6z"/>
<path fill="#4C4C78" d="M915,190.3V611c0,10.8-8.7,19.5-19.5,19.5c0,0,0,0,0,0H216.3c-10.8,0-19.5-8.7-19.5-19.5c0,0,0,0,0,0V190.3
	c0-10.8,8.7-19.5,19.5-19.5h679.2C906.2,170.8,915,179.5,915,190.3C915,190.3,915,190.3,915,190.3z"/>
<circle fill="#FFFFFF" cx="555.8" cy="151.9" r="9.2"/>
<circle fill="#FFFFFF" cx="555.8" cy="699.4" r="22.6"/>
<path fill="#FFFFFF" d="M348.5,180.5v449.9H216.3c-10.8,0-19.5-8.7-19.5-19.5c0,0,0,0,0,0V190.3l0.7-2.6l1.9-7.1H348.5z"/>
<path fill="#4C4C78" d="M365.5,187.6v40.5H196.8v-37.8l0.7-2.6L365.5,187.6L365.5,187.6z"/>
<path fill="#C8CAD7" d="M915,190.3H196.8c0-10.8,8.7-19.5,19.5-19.5c0,0,0,0,0,0h679.2C906.2,170.8,915,179.5,915,190.3
	C915,190.3,915,190.3,915,190.3z"/>
<circle fill="#EDEDF4" cx="216.3" cy="180.5" r="4.9"/>
<circle fill="#EDEDF4" cx="230.9" cy="180.5" r="4.9"/>
<circle fill="#EDEDF4" cx="245.5" cy="180.5" r="4.9"/>
<path d="M222,205.5h101.3v9.3H222V205.5z"/>
<path opacity="0.5" enable-background="new    " d="M222,251h101.3v9.3H222V251z M222,283.1h101.3v9.3H222V283.1z
	 M222,315.3h101.3v9.3H222V315.3z M222,347.5h101.3v9.3H222V347.5z M222,379.7h101.3v9.3H222V379.7z M222,411.8h101.3v9.3H222V411.8
	z M222,444h101.3v9.3H222V444z"/>
<path opacity="0.5" fill="#DCE0ED" enable-background="new    " d="M431.5,239.8h449v1.5h-449V239.8z M431.5,274.6h449v1.5h-449
	V274.6z M431.5,309.5h449v1.5h-449V309.5z M431.5,344.3h449v1.5h-449V344.3z M431.5,379.1h449v1.5h-449V379.1z"/>
<path opacity="0.5" enable-background="new    " d="M880.5,380.6H430.9v-68.5l41.2,20.3l42.7,5.8l37.4-11.3l45.2-35
	l22.7-13.1l16.6-3.2l15.9,0.9l26.1,12.9l35.5,22.6l27.9,3.6l22.1-7.6l46.8-38.4l23.9-8.5l25,3.9l20.4,11.8V380.6z"/>
<path d="M509.3,338.2c-40.5,0-77.9-24.8-78.4-25.1l1.1-1.7c0.6,0.4,58.2,38.5,107.1,19.4c17.9-7,30.5-17.8,42.9-28.2
	c12.8-10.9,25-21.3,41.5-25.7c19-5.1,39.7-0.5,55.4,12.4c13.4,11,40.2,28.8,68.5,23.5c14.4-2.7,26.6-13.2,39.5-24.4
	c24.6-21.4,50.2-43.5,94.3-11.8l-1.2,1.6c-42.8-30.8-67.8-9.2-91.8,11.7c-13.1,11.3-25.4,22-40.4,24.9
	c-29.1,5.5-56.4-12.6-70.2-23.9c-15.2-12.5-35.3-17-53.6-12c-16.1,4.4-28,14.5-40.7,25.3c-12.4,10.6-25.3,21.5-43.4,28.6
	C530.1,336.5,519.7,338.3,509.3,338.2L509.3,338.2z"/>
<circle cx="647.5" cy="275.4" r="11.1"/>
<linearGradient id="SVGID_1_" gradientUnits="userSpaceOnUse" x1="340.5149" y1="-8.7742" x2="340.5149" y2="413.4879" gradientTransform="matrix(1 0 0 -1 -35 849.94)">
	<stop  offset="0" style="stop-color:#808080;stop-opacity:0.25"/>
	<stop  offset="0.54" style="stop-color:#808080;stop-opacity:0.12"/>
	<stop  offset="1" style="stop-color:#808080;stop-opacity:0.1"/>
</linearGradient>
<path fill="url(#SVGID_1_)" d="M368.6,517.2c-15.2-8.8-21-10.9-21-10.9l-0.3-0.2c-1.7-1.3-3-2.9-3.8-4.8v-1v0.1
	c0.3-4.6,3.5-8.9,6.7-12.5c2.7-3.1,5.3-6.3,8-9.4c0.9-1,1.6-2.1,2.1-3.3c0.2-0.7,0.2-1.3,0.2-2v-0.8c0-2.3-0.1-4.7-0.2-7
	c-0.1-2-0.6-4.6-2.6-5c-1.1-0.2-2.5,0.2-3-0.8c-0.2-0.4-0.2-0.8-0.1-1.2v0.1c0,0,0-0.1,0-0.1c0.4-1.6,0.6-3.2,0.8-4.8
	c0-0.8-0.1-1.6-0.3-2.4c-1.2-3.4-5.3-4.8-8.9-5.4s-7.6-1.2-9.9-4c-0.6-0.9-1.3-1.8-2-2.7c-1-0.9-2.3-1.6-3.7-1.8
	c-4.5-1.1-9.2-0.7-13.4,1.2c-1.7,0.8-3.5,1.8-5.4,1.7s-3.7-1.5-5.6-1.8c-3.2-0.5-6.2,1.8-7.8,4.5c-0.9,1.6-1.4,3.5-1.4,5.4v0.3
	c0,2,0.7,4,2.1,5.5c1.4,1.4,3.4,2.4,4,4.3c0.2,0.8,0.2,1.6,0.4,2.3c0,0.1,0.1,0.2,0.1,0.3l-0.1,0.1c-3.2,4.2-5,9.3-5,14.6
	c0.1,10.5,6.9,19.8,17,23v0.7c0.1,3-1.1,6-3.3,8l-21.6,8.7c0,0-13-1.5-17.7,17.5c-0.8,3.2-1,6.4-0.8,9.6c0.2,2.9-0.2,7.9-3.6,14.4
	c-5.3,10.4-4.1,34.4,6.8,36.8c10.3,2.2,14.3,1.3,14.7,1.2v0.4c-0.2,4.5-1.8,43.3-7.7,48c-1.6,1.3-1.3,2.2,0,2.8v0.7
	c-0.2,2.8-1.1,13.6-5.1,19.8c-4.6,7.1-4,48.1-4,48.1l-3.1,24.2c0,0,1.9,14.9,0,17.5c-1.7,2.3-4,57.6-4.5,69.6h-0.2
	c-1.9,0.1-3.7,1.2-4.7,2.8C257.9,833.4,249,841,249,841c-1.9,2.8-9.1,5.4-12.9,6.6c-0.5,0.2-1,0.4-1.5,0.6c-1.4,0.8-2.6,2-3.3,3.4
	c-0.5,0.9-0.6,1.9-0.3,2.8c1,2.4,21.1,4,26.1,1.7c4-1.9,19.8-4.3,26.4-5.3c2.5-0.3,4.4-2.2,4.7-4.7c0.1-0.8-0.1-1.7-0.6-2.3
	c-1.3-1.6-1.9-5.8-2.2-8.6c0.5-0.2,1-0.5,1.5-0.9c-0.5-8.6,0.7-17.3,3.6-25.4c4.8-12.8,6.3-36.5,5.1-51.9c0,0,14.8-63.6,26.4-69.5
	c0.2,0.2,5.8,7.5,6.5,29.9c0.7,22.8,9,37.7,9,37.7s-3.6,38.7,0,53.1l-4.8,22.8c-0.2-0.2-0.4-0.3-0.6-0.5c0,0,0.1,0.6,0.3,1.7
	l-0.1,0.5l0.2,0c0.5,2.8,1.3,7.8,1,10.7c-0.2,1.7-0.6,3.9-1,6.2c-0.5,3.5-0.6,6.9,1.2,7.7c3,1.2,20.8,2.9,23.9-1
	c1.4-1.6,1.7-3.9,0.9-5.9c-0.2-0.5-0.5-1-0.9-1.5c0,0-4.7-7.7-3.4-13.2c0.2-1.1,0-2.2-0.6-3.1c0.7-8.6,2.1-17.2,4.2-25.6
	c3-11.4,9.4-36.4,4.7-52.9c-0.2-0.6-0.4-1.3-0.6-1.9c-2.7-9-3.6-18.4-2.7-27.8c-1.7-8-1.7-16.2,0-24.2c2.9-13.3,4.9-26.3,4.9-26.3
	s1.6-17.5,0.2-28.3l-0.1-0.7l0.8-0.2c0,0-4.1-18.3-5.6-29.9c-0.3-2.8-0.8-6.2-1.3-9.9c1.3-0.2,2.7-0.6,4-1
	c13.1-4.5,17.2-45.3,17.2-45.3v-12.9C379.5,545.8,383.9,526,368.6,517.2L368.6,517.2z M271.2,832.2l-0.6-0.3L271.2,832.2z"/>
<path fill="#65617D" d="M360.7,752.7c5.7,16.3-1,42.8-4,54.6c-2,8.5-3.4,17.2-4,26c-6.9,1.2-14,1-20.8-0.5l5-24.3
	c-3.5-14.4,0-53,0-53s-8-14.9-8.7-37.6c-0.7-22.3-6.2-29.5-6.4-29.8c-11.4,5.9-25.8,69.3-25.8,69.3c1.2,15.4-0.2,39-5,51.8
	c-2.9,8.1-4.1,16.7-3.5,25.3c-1.6,1.4-4,1.6-6.4,1.2c-6.8-1.1-14.8-6.9-14.8-6.9s2.6-69,4.5-71.6s0-17.5,0-17.5l3.1-24.1
	c0,0-0.5-40.9,4-48c3.9-6.1,4.8-16.9,5-19.7v-0.7l6.8-8.2c0,0,66.2-5,71.1,0c1.2,1.2,2,4,2.4,7.5c1.4,10.7-0.2,28.2-0.2,28.2
	s-2,13-4.8,26.2c-1.7,7.9-1.7,16.2,0,24.1C357.2,734.3,358.1,743.7,360.7,752.7L360.7,752.7z"/>
<path fill="#A27772" d="M356.6,856.3c-3,3.9-20.3,2.3-23.3,1c-1.8-0.8-1.7-4.1-1.2-7.6c0.3-2.2,0.8-4.5,0.9-6.2
	c0.5-4.3-1.4-12.9-1.4-12.9s3.9,4.1,4.8,0c0.4-1.6,1.7-2.8,3.4-3.2c2-0.6,4.2-0.5,6.1,0.4c3.1,1.3,8.2,4.2,7.3,8
	c-1.3,5.4,3.3,13.1,3.3,13.1c0.4,0.5,0.6,1,0.9,1.5C358.3,852.4,358,854.7,356.6,856.3L356.6,856.3z"/>
<path opacity="0.1" enable-background="new    " d="M356.6,856.3c-3,3.9-20.3,2.3-23.3,1c-1.8-0.8-1.7-4.1-1.2-7.6
	c1.9,0.9,5,1.6,10.3,1.1c1.2-0.1,2.5-0.2,3.7-0.1c3.8,0.2,7.5,0.1,11.3-0.2C358.3,852.4,358,854.7,356.6,856.3L356.6,856.3z
	 M296,757.4c1.2,15.4-0.2,39-5,51.8c-2.9,8.1-4.1,16.7-3.5,25.3c-1.6,1.4-4,1.6-6.4,1.2c1.4-10,7.5-52.9,11.4-86.9
	c4.4-38.7,25.2-65.2,25.2-65.2l4.1,4.5C310.4,694,296,757.4,296,757.4L296,757.4z"/>
<path fill="#FBBEBE" d="M349.5,509l-2.9,14.2l-14.1,23.8l-17.4-7.5c0,0-23.7-24.8-8.8-28.4c1.8-0.4,3.5-1.1,5-2.2
	c2.9-2.2,3.8-5.4,3.9-8.5c-0.1-3.5-0.9-7-2.4-10.2l30.5-9.6c-1.3,4-2,8.2-2.2,12.4c-0.2,8.3,2.9,12.4,5.4,14.4
	C347.3,508.1,348.3,508.6,349.5,509L349.5,509z"/>
<path opacity="0.1" enable-background="new    " d="M343.1,480.6c-1.3,4-2,8.2-2.2,12.4c-6.3,7.5-16.6,10.4-25.9,7.4
	c-0.1-3.5-0.9-7-2.4-10.2L343.1,480.6z"/>
<path fill="#FBBEBE" d="M346.6,476.7c0,13.3-10.8,24.1-24.1,24.1s-24.1-10.8-24.1-24.1s10.8-24.1,24.1-24.1h0
	c13.3,0,24.1,10.7,24.1,24C346.6,476.6,346.6,476.6,346.6,476.7z"/>
<path opacity="0.1" enable-background="new    " d="M349.5,509l-2.9,14.2l-14.1,23.8l-17.4-7.5c0,0-23.7-24.8-8.8-28.4
	c1.8-0.4,3.5-1.1,5-2.2c-2.7,7.4,8.4,22.8,8.4,22.8c1.3,1.9,4.3,0.7,4.3,0.7c7.1-1.1,20.3-21.6,22.5-25.1
	C347.3,508.1,348.3,508.6,349.5,509L349.5,509z M363.1,646.4c-4.2,1-27.4,6.1-36.2,4.8c-9.7-1.4-28.5-2.4-28.5-2.4s-12,0.6-15.7-1
	v-0.7l6.8-8.2c0,0,66.2-5,71.1,0C362,640.2,362.7,643,363.1,646.4z"/>
<path fill="#FF748E" d="M319.6,532.3c0,0-12.5-17.3-7.8-24l-21.1,8.6c0,0-12.7-1.5-17.3,17.4c-0.7,3.1-1,6.4-0.8,9.6
	c0.2,2.8-0.2,7.9-3.5,14.4c-5.2,10.4-4,34.3,6.6,36.6s14.4,1.2,14.4,1.2s-1.4,43.3-7.6,48.2s15.7,3.8,15.7,3.8s18.8,1,28.5,2.4
	s36.9-5,36.9-5s-4-18.2-5.4-29.8s-4.7-36.2-4.7-36.2l24.1-32.7c0,0,4.3-19.7-10.6-28.5s-20.5-10.9-20.5-10.9s-15,24.4-22.8,25.6
	C323.8,533.1,320.9,534.3,319.6,532.3L319.6,532.3z"/>
<path opacity="0.1" enable-background="new    " d="M291.9,539.2c0,0-0.2,7.8,1.2,10.9s6.6,20.1,6.6,20.1h-11.8
	c0,0,6.4-6.8,5.9-10.2S291.9,539.2,291.9,539.2L291.9,539.2z"/>
<path fill="#FBBEBE" d="M326.9,598c0,0-26.1-6.4-28.5-11.8s-9.1-17.6-9.1-17.6l2.8-3.7l12.7,10c0,0,15.1,12,22.2,13.2
	S326.9,598,326.9,598z"/>
<path opacity="5.000000e-02" enable-background="new    " d="M326.9,598c0,0-26.1-6.4-28.5-11.8s-9.1-17.6-9.1-17.6l2.8-3.7l12.7,10
	c0,0,15.1,12,22.2,13.2S326.9,598,326.9,598z"/>
<path fill="#FBBEBE" d="M349.5,567.3v14.2h-2.3c-11.2,0-22.3,2.9-32.1,8.3l-4.3,2.4l-1.1,0.6l-7.3-16.5l6.9-6.2h0.4
	c1.7,0.2,8.9,0.8,12-0.3s6.5-4.1,15.1-1.9c4.2,1.1,7.9,5.8,12,4.3L349.5,567.3z"/>
<path opacity="0.1" enable-background="new    " d="M372.3,541.6l4.7,5.3v12.9c0,0-4,40.7-16.8,45.2s-35.5-2.6-35.5-2.6
	s-5.9-15.6-3.1-16.5s24.3-6.6,24.3-6.6s-0.3-23.8,4.4-30.9c0,0-3.1-22.2,7.6-22.7S372.3,541.6,372.3,541.6L372.3,541.6z"/>
<path fill="#FF748E" d="M373,541.6l4.7,5.3v12.9c0,0-4,40.7-16.8,45.2s-35.5-2.6-35.5-2.6s-5.9-15.6-3.1-16.5s24.3-6.6,24.3-6.6
	s-0.3-23.8,4.4-30.9c0,0-3.1-22.2,7.6-22.7S373,541.6,373,541.6z"/>
<path opacity="0.1" enable-background="new    " d="M340,486.9c0.2-1.6,0-3.1-0.5-4.6c-0.6-1.5-2.1-2.4-3.7-2.2
	c-2,0.5-2.9,3.1-4.9,3.7c-1.7,0.5-3.5-0.6-4.3-2.2c-0.7-1.6-1-3.4-0.8-5.1v-5.9c0-2.1-0.1-4.5-1.4-6.2c-1.6-2.1-5.5-3-8.1-2.9
	c-1.7,0-3.4,0.7-4.6,1.9c-1.3,1.3-3.1,1.9-4.9,1.7c-1.6-0.2-2.9-1.4-3.4-2.9c0,0,0-0.1,0-0.1c8-10.6,23.2-12.7,33.8-4.7
	c10.6,8,12.7,23.2,4.7,33.8c-0.8,1-1.7,2-2.6,2.9C339.6,491.7,339.9,489.3,340,486.9z"/>
<path fill="#7C5C5C" d="M306.7,464.4c-1.6-0.2-2.9-1.4-3.4-2.9c-0.2-0.8-0.1-1.6-0.4-2.3c-0.5-1.9-2.5-2.8-3.9-4.2
	c-2.7-2.8-2.5-7.5-0.6-10.9c1.5-2.7,4.5-5,7.6-4.5c1.9,0.3,3.6,1.7,5.5,1.8s3.6-0.9,5.3-1.7c4.1-1.9,8.7-2.3,13.1-1.2
	c1.3,0.3,2.6,0.9,3.6,1.8c0.7,0.9,1.3,1.8,1.9,2.7c2.2,2.8,6.1,3.4,9.7,4s7.5,2,8.6,5.4c0.8,2.2,0,4.7-0.4,7c-0.2,0.5-0.1,1,0.1,1.5
	c0.5,0.9,1.9,0.5,3,0.7c2,0.4,2.5,3,2.6,5c0.1,2.3,0.2,4.7,0.2,7c0.1,0.9,0,1.7-0.2,2.6c-0.4,1.2-1.1,2.3-2,3.3l-7.8,9.4
	c-3.5,4.2-7.1,9-6.4,14.4c-1.6,0.7-3.6-0.7-4.1-2.4s-0.1-3.6,0.3-5.3c0.6-3,1-6.1,1.2-9.2c0.2-1.6,0-3.1-0.5-4.6
	c-0.6-1.5-2.2-2.4-3.8-2.2c-2,0.5-2.9,3.1-4.9,3.7c-1.7,0.5-3.5-0.6-4.3-2.2c-0.7-1.6-0.9-3.4-0.8-5.1v-5.9c0-2.1-0.1-4.5-1.4-6.2
	c-1.6-2.1-5.5-3-8.1-2.9c-1.7,0-3.4,0.7-4.6,1.9C310.3,464,308.5,464.6,306.7,464.4L306.7,464.4z"/>
<path opacity="0.1" enable-background="new    " d="M312.1,538.6l7.4,30.4C319.6,569,325.4,569,312.1,538.6z M337.4,533.5
	c0,0-9.7,15.9-5.9,32.3l1.8,0.1C333.3,565.9,330.1,558.3,337.4,533.5L337.4,533.5z M343.6,623.4c0,0,11.9-3.9,12.8,5.2
	C356.4,628.6,354.1,622.3,343.6,623.4z M309.2,570.9c0,0-2.4,16.5,1.9,23.2c-6.7,2.3-13.7,3.3-20.8,2.8l-1.4-26H309.2z"/>
<path opacity="0.1" enable-background="new    " d="M310.8,592.2l-1.1,0.6l-7.3-16.5l6.9-6.2h0.4C309.4,571,307.5,585.2,310.8,592.2
	z"/>
<path fill="#FF748E" d="M309.2,570.2c0,0-2.4,16.5,1.9,23.2c-6.7,2.3-13.7,3.3-20.8,2.8l-8.3-26H309.2z"/>
<path fill="#A27772" d="M288.8,846.2c-0.3,2.4-2.2,4.4-4.6,4.7c-6.4,1-21.9,3.4-25.8,5.3c-5,2.4-24.6,0.7-25.5-1.7
	c-0.3-1-0.1-2,0.3-2.8c0.9-1.9,2.6-3.3,4.6-4c3.7-1.2,10.7-3.8,12.6-6.6c0,0,8.7-7.6,11.2-11.7c0.9-1.6,2.7-2.7,4.5-2.8
	c2.1-0.1,4.4,1,5.3,5.5c0,0,11.3,6.5,14.4,0.8c0,0,0.5,8.7,2.4,11.1C288.7,844.6,288.9,845.4,288.8,846.2L288.8,846.2z"/>
<path opacity="0.1" enable-background="new    " d="M288.8,846.2c-0.3,2.4-2.2,4.4-4.6,4.7c-6.4,1-21.9,3.4-25.8,5.3
	c-5,2.4-24.6,0.7-25.5-1.7c-0.3-1-0.1-2,0.3-2.8c0.7-1.4,1.8-2.6,3.2-3.4c3.2,2.1,10.3,4.2,25.9,1.8c14.9-2.3,22.3-4.6,25.9-6.2
	C288.7,844.6,288.9,845.4,288.8,846.2z M353.3,459.7c0,0,0-0.1,0-0.1c0.5-1.7,0.7-3.5,0.7-5.4c-0.2,1.4-0.4,2.9-0.7,4.3
	C353.2,458.9,353.2,459.3,353.3,459.7z M339.5,481.8c0.4,0.9,0.6,1.8,0.6,2.7c0.1-1.3-0.1-2.6-0.6-3.8c-0.6-1.5-2.2-2.4-3.8-2.2
	c-2,0.5-2.9,3.1-4.9,3.7c-1.7,0.5-3.5-0.7-4.3-2.2c-0.7-1.6-1-3.4-0.8-5.1v-5.9c0-2.1-0.1-4.5-1.4-6.2c-1.6-2.1-5.5-3-8.1-2.9
	c-1.7,0-3.4,0.7-4.6,1.9c-1.3,1.3-3.1,1.9-4.9,1.7c-1.6-0.2-2.9-1.4-3.4-2.9c-0.2-0.8-0.1-1.6-0.4-2.3c-0.5-1.9-2.5-2.8-3.9-4.2
	c-1.2-1.4-1.9-3.1-2-5c-0.2,2.2,0.5,4.4,2,6.1c1.3,1.4,3.3,2.4,3.9,4.2c0.2,0.8,0.2,1.6,0.4,2.3c0.5,1.6,1.8,2.7,3.4,2.9
	c1.8,0.2,3.6-0.5,4.9-1.7c1.3-1.2,2.9-1.8,4.6-1.9c2.6-0.1,6.5,0.8,8.1,2.9c1.3,1.7,1.4,4,1.4,6.2v5.9c-0.1,1.8,0.1,3.5,0.8,5.1
	c0.8,1.6,2.6,2.7,4.3,2.2c2-0.6,2.9-3.3,4.9-3.7C337.3,479.5,338.8,480.4,339.5,481.8L339.5,481.8z M358.9,475.3
	c-0.4,1.2-1.1,2.3-2,3.3c-2.6,3.1-5.2,6.2-7.8,9.4c-3.3,4-6.8,8.5-6.5,13.6c0.2-4.6,3.5-8.8,6.5-12.5l7.8-9.4c0.9-0.9,1.6-2,2-3.3
	c0.2-0.9,0.3-1.7,0.2-2.6C359.1,474.3,359,474.8,358.9,475.3z M338.5,499.9c-0.1-0.4-0.2-0.8-0.2-1.3c-0.1,0.8,0,1.6,0.2,2.3
	c0.5,1.7,2.5,3.1,4.1,2.4c0-0.4-0.1-0.7-0.1-1C340.9,503,339,501.6,338.5,499.9z M260,831.5c0,0,2.5,4.3,11.4,0.5 M335.6,832.5
	c0,0,7.7,9.1,17.5,3 M358.1,725c0,0-5.5,3.4-5.6,5.4s2.8-1.4,2.8-1.4L358.1,725z M360.3,751.1c-1.9,1.6-4.3,2.5-6.7,2.6
	c-4.1,0.2-3.7,5.5-1.1,3.9S360.3,751.1,360.3,751.1z M361.3,754.5c0,0-2.6,12.9-4.8,10.4"/>
<path opacity="0.5" fill="#DCE0ED" enable-background="new    " d="M471.2,458.6h66v14h-66L471.2,458.6z M622.7,458.6h66v14h-66
	V458.6z M774.3,458.6h66v14h-66V458.6z"/>
<ellipse opacity="0.1" enable-background="new    " cx="952.7" cy="801.3" rx="26.9" ry="4.5"/>
<ellipse opacity="0.1" enable-background="new    " cx="115.2" cy="858.7" rx="26.9" ry="4.5"/>
<ellipse cx="893.8" cy="850" rx="40.2" ry="6.8"/>
<path d="M910.4,838.9c1.8-1.5,3.2-3.5,3.8-5.8c0.5-2.3-0.5-5-2.7-5.9c-2.5-0.9-5.1,0.8-7.1,2.5s-4.3,3.7-6.9,3.3
	c2.7-2.5,4-6.2,3.2-9.8c-0.1-0.7-0.4-1.4-0.9-2c-1.4-1.5-3.8-0.8-5.5,0.3c-5.2,3.7-6.7,10.7-6.7,17.1c-0.5-2.3-0.1-4.7-0.1-7
	s-0.7-5-2.6-6.2c-1.2-0.7-2.6-1-4-0.9c-2.3-0.1-5,0.1-6.5,1.8c-2,2.1-1.5,5.7,0.3,8s4.4,3.8,6.8,5.4c1.9,1.2,3.6,2.7,4.8,4.6
	c0.1,0.3,0.3,0.5,0.3,0.8h14.7C904.7,843.5,907.7,841.4,910.4,838.9z M116.4,791.2c0,0,5.5,7.2-2.5,18s-14.7,20-12,26.8
	c0,0,12.1-20.2,22-20.4S127.3,803.4,116.4,791.2z"/>
<path opacity="0.1" enable-background="new    " d="M116.4,791.2c0.5,0.7,0.9,1.5,1.1,2.3c9.6,11.3,14.7,21.8,5.5,22.1
	c-8.6,0.3-18.9,15.7-21.4,19.5c0.1,0.3,0.2,0.6,0.3,0.9c0,0,12.1-20.2,22-20.4S127.3,803.4,116.4,791.2z"/>
<path fill="#FFD037" d="M126.7,800.4c0,2.5-0.3,4.6-0.6,4.6s-0.6-2-0.6-4.6s0.3-1.3,0.7-1.3S126.7,797.9,126.7,800.4z"/>
<path fill="#FFD037" d="M130.2,803.4c-2.2,1.2-4.2,1.9-4.3,1.6s1.5-1.5,3.7-2.8s1.4-0.3,1.5,0S132.4,802.2,130.2,803.4z"/>
<path d="M87.4,791.2c0,0-5.5,7.2,2.5,18s14.7,20,12,26.8c0,0-12.1-20.2-22-20.4S76.6,803.4,87.4,791.2z"/>
<path opacity="0.1" enable-background="new    " d="M87.4,791.2c-0.5,0.7-0.9,1.5-1.1,2.3c-9.6,11.3-14.7,21.8-5.5,22.1
	c8.6,0.3,18.9,15.7,21.4,19.5c-0.1,0.3-0.2,0.6-0.3,0.9c0,0-12.1-20.2-22-20.4S76.6,803.4,87.4,791.2z"/>
<path fill="#FFD037" d="M77.2,800.4c0,2.5,0.3,4.6,0.6,4.6s0.6-2,0.6-4.6s-0.3-1.3-0.7-1.3S77.2,797.9,77.2,800.4z"/>
<path fill="#FFD037" d="M73.7,803.4c2.2,1.2,4.2,1.9,4.3,1.6s-1.5-1.5-3.7-2.8s-1.3-0.3-1.5,0S71.5,802.2,73.7,803.4z"/>
<path fill="#A8A8A8" d="M79,835.1c0,0,15.4-0.5,20-3.8s23.6-7.2,24.8-2s23.1,26.3,5.7,26.4s-40.3-2.7-44.9-5.5S79,835.1,79,835.1z"
	/>
<path opacity="0.2" enable-background="new    " d="M129.8,854c-17.3,0.1-40.3-2.7-44.9-5.5c-3.5-2.2-4.9-9.8-5.4-13.4H79
	c0,0,1,12.4,5.6,15.2s27.6,5.7,44.9,5.5c5,0,6.7-1.8,6.6-4.5C135.4,852.9,133.5,853.9,129.8,854z"/>
<path opacity="0.5" enable-background="new    " d="M504.8,511v9.3c20.5,0.1,37,16.8,36.8,37.3
	c-0.1,20.5-16.8,37-37.3,36.8c-8.7-0.1-17.1-3.2-23.7-8.8l-6.6,6.6c19.3,16.9,48.6,14.9,65.4-4.4c16.9-19.3,14.9-48.6-4.4-65.4
	C526.6,515.1,515.9,511.1,504.8,511L504.8,511z M808.8,519.8c20.4,0,36.1,16.6,36.1,37.1v0.3h9.3v-0.3c0-25.6-19.9-46.4-45.4-46.4
	c-13.4,0-26.1,5.8-34.9,15.9l6.6,6.6C787.5,524.6,797.9,519.8,808.8,519.8L808.8,519.8z M674,513.7l-1.8,9.3
	c13.6,5.5,22.3,18.8,22.3,34.4c0,20.5-16.6,37.1-37.1,37.1c-20.5,0-37.1-16.6-37.1-37.1c0-14.7,8.7-28.1,22.2-34l-4.1-8.3
	c-23.3,10.5-33.8,38-23.2,61.3c10.5,23.3,38,33.8,61.3,23.2c16.6-7.5,27.3-24,27.3-42.2C703.8,537.3,691.9,520.2,674,513.7
	L674,513.7z"/>
<path d="M466.5,556.4c0-20.4,16.6-36.1,37.1-36.1h0.3V511h-0.3c-25.6,0-46.4,19.9-46.4,45.4c0,13.4,5.8,26.1,15.9,34.9
	l6.6-6.6C471.3,577.7,466.5,567.3,466.5,556.4L466.5,556.4z M854.2,558.1h-9.3c-0.1,20.5-16.8,37-37.3,36.8
	c-20.5-0.1-37-16.8-36.8-37.3c0.1-8.7,3.2-17.1,8.8-23.7l-6.6-6.6c-16.9,19.3-14.9,48.6,4.4,65.4c19.3,16.9,48.6,14.9,65.4-4.4
	C850.1,580,854.2,569.2,854.2,558.1L854.2,558.1z M658.6,519.7c4.4,0,8.8,0.9,12.9,2.7l1.8-9.3c-4.7-1.8-9.7-2.7-14.8-2.7
	c-6.6,0-13,1.4-19,4.1l4.2,8.3C648.4,520.8,653.5,519.7,658.6,519.7L658.6,519.7z"/>
</svg>
