<?xml version="1.0" encoding="utf-8"?>
<!-- Generator: Adobe Illustrator 22.1.0, SVG Export Plug-In . SVG Version: 6.00 Build 0)  -->
<svg version="1.1" id="图层_1" xmlns="http://www.w3.org/2000/svg" xmlns:xlink="http://www.w3.org/1999/xlink" x="0px" y="0px"
	 viewBox="0 0 1167.7 718.4" enable-background="new 0 0 1167.7 718.4" xml:space="preserve">
<path opacity="0.1" enable-background="new    " d="M1145.8,229.9c-11.2-25.6-26.3-49.3-44.8-70.2l-621.9-6l512-70.7
	C958,70,922.9,63.1,887.3,62.7C838,23.5,774.6,0,705.5,0c-62,0-119.3,19-166.1,51.1c-41.3-20.8-86.9-31.6-133.1-31.5
	c-138.2,0-253.3,94.1-279.1,218.9L1145.8,229.9z M736.5,338.6l67.8,10.4l2.3,0.3l1.5,0.3l2.8,0.4l11.3,1.7l120.9,18.4l39.5,6
	l175.9,26.8c-23.3,86.1-89.7,155.6-175.9,186.4c-3.7,1.3-7.4,2.6-11.2,3.8c-26.8,53.9-71.5,98-126.8,125.3H583.8
	c-19-9.4-36.9-20.8-53.4-34.2c-3.3-2.7-6.6-5.4-9.7-8.2c-1.2-1.1-2.4-2.2-3.6-3.3c-1.6,1.4-3.2,2.9-4.8,4.3
	c-3.8,3.3-7.7,6.5-11.7,9.5c-16,12.4-33.4,23.1-51.6,31.9H194.2c-12.4-5.9-24.3-12.7-35.7-20.3C90.2,652.3,43.8,578.6,37.7,494.3
	l120.7-12.6l33.9-3.5l102.5-10.7l84.2-8.8l-118.8-17.4l-72.9-10.7l-28.9-4.3L45.3,409.7c5.7-21.9,14.2-43,25.3-62.7l87.8-9.1
	l72.5-7.5l72.8-7.5l124.2-12.8l1.7-0.2l370.7-38.3l16.6-1.8l165.8-17.1l165.6-17.1c12.8,31.4,19.4,64.9,19.4,98.8v4L736.5,338.6z"/>
<path d="M1141.8,579.4c0,0-14-5.7-58.8,14.8s-50.3,17.9-61.9,14.8s-18-3.9-30.5-21c0,0-8.8-47.5-17.2-54.8
	s-44.5,4.2-44.5,4.2s-43.2,9.9-51.4-47.8c0,0,5.8-43.5-2.1-56.9c0,0,16,6.9,42.5-4.3s47.7,12,47.7,12s6.7,17.3,6,27.6
	s3.5,14.2,16.2,9.2c0,0,6.2-8.8-2.6-23.4s-15.1-25.5-12.6-36.8s9.5-27,32.2-34.9c22.7-7.9,53.4-9.4,68.2-15.5s18.3-10.2,18.3-10.2
	s-9.1,9.1,12.3,47.7s7.8,55.4,7.8,55.4s-11.4,27.1-61.7,25c0,0-48.5,1.8-22.1,22.3c0,0,16.9-3.4,42.2-11.5s43.6,25.2,48.1,48.3
	S1141.8,579.4,1141.8,579.4L1141.8,579.4z"/>
<path fill="#444053" d="M1076.7,385.8l0.3-0.1c2,7.4-19.7,37-38.2,60.5l-0.2-0.2C1064.6,412.8,1078.2,391.4,1076.7,385.8
	L1076.7,385.8z"/>
<path fill="#444053" d="M1038.9,445.6l0.1,0.3c-14.8,18.8-33.4,41.3-48.3,57.9c-1.4,1.6-2.8,3.3-4.2,4.9l-0.4-0.3
	c1.4-1.7,2.8-3.4,4.2-5C1005.2,486.8,1024.1,464.3,1038.9,445.6z"/>
<path fill="#444053" d="M986.5,507.9l0.3,0.5c-27.1,33.8-28.9,86.4-28.9,86.8l-5.7-6.6C952.2,588.1,959.2,542,986.5,507.9
	L986.5,507.9z"/>
<path stroke="#444053" stroke-miterlimit="10" d="M1110.4,561.1c0,0-31.9-16.6-56.8-10.7s-81-21.1-81-21.1
	s-23.8-9.7-28.6-20.7c0,0-16.3-17.3-17.3-26.2s-16.8-31.4-27.2-32.3 M1105.8,577.1c0,0-16.1-10.8-14.2-23.5 M1081.1,591.1
	c0,0-23-8.3-25.3-41.1 M1044,599.5c0,0-22-18.2-14.7-50.1 M999.4,590.6c0,0-14.7-30.7-1.6-50.7 M1110.9,540.8c0,0-16.6,5.3-13.1,14
	 M1090.7,510.6c0,0-22.3,7.1-22.8,38.6 M1059.7,503.3c0,0-20.3,25-18.8,47.8 M1024.2,513.2c0,0-20.1,19.2-17.6,29.9 M1012,506.4
	c0,0-18.9,3.4-21.5-2.8 M987.5,483.6c0,0,9.5,12.6,12,9.8 M1082.1,475.6c0,0-47.6,3.5-58.3-10.9 M977.5,419.9c0,0,22.3,47.9,38.5,54
	 M1000.9,397.1c0,0,13.7,44.1,30.7,57.8"/>
<path stroke="#444053" stroke-width="0.75" stroke-miterlimit="10" d="M1102.1,439.2c0,0-36.2,15.5-57.9-0.2
	 M1033.2,387.7c0,0,8.3,32.4,19.4,40.2 M1096.6,402.9c0,0-20.3,7.7-27.9,1.8"/>
<path stroke="#444053" stroke-miterlimit="10" d="M970.1,494.2c0,0,0,28.3-7.7,30.3 M907.2,530.8
	c0,0,30.5,2.6,44.6-13.2 M962.2,460.8c0,0-7.4,28.7-27.8,36.4 M888.8,500.6c0,0,21.6,7.5,40.2-11.6 M938.2,436.2
	c0,0-2,24.3-15.3,35.7 M889.7,463.5c0,0,17.9,0.1,22.1-5.7"/>
<path fill="#4C4C78" d="M982.7,213.2V696c0,12.4-10,22.4-22.4,22.4H180.9c-11.6,0-21.2-8.8-22.3-20.3c-0.1-0.7-0.1-1.4-0.1-2.1
	V213.2c0-0.5,0-1,0.1-1.4h824.1C982.7,212.2,982.7,212.7,982.7,213.2z"/>
<path d="M960.3,191.8H180.9c-8,0-15.4,4.3-19.4,11.2c-1.7,3-2.7,6.3-2.9,9.8h824.1C981.9,201,972.1,191.8,960.3,191.8
	L960.3,191.8z"/>
<circle fill="#EDEDF4" cx="180.8" cy="203" r="5.6"/>
<circle fill="#EDEDF4" cx="197.6" cy="203" r="5.6"/>
<circle fill="#EDEDF4" cx="214.4" cy="203" r="5.6"/>
<path d="M187.4,230.6h116.3v10.7H187.4L187.4,230.6z"/>
<path opacity="0.5" enable-background="new    " d="M187.4,282.8h116.3v10.7H187.4L187.4,282.8z M187.4,319.7h116.3
	v10.7H187.4L187.4,319.7z M187.4,356.7h116.3v10.7H187.4L187.4,356.7z M187.4,393.6h116.3v10.7H187.4L187.4,393.6z M187.4,430.5
	h116.3v10.7H187.4L187.4,430.5z M187.4,467.4h116.3v10.7H187.4L187.4,467.4z M187.4,504.3h116.3V515H187.4L187.4,504.3z"/>
<path opacity="0.5" fill="#DCE0ED" enable-background="new    " d="M427.8,270h515.3v1.7H427.8V270z M427.8,310h515.3v1.7H427.8V310
	z M427.8,349.9h515.3v1.7H427.8V349.9z M427.8,389.9h515.3v1.7H427.8V389.9z M427.8,429.9h515.3v1.7H427.8V429.9z"/>
<path opacity="0.5" enable-background="new    " d="M943.2,431.6h-516V353l47.3,23.3l49,6.6l43-13l51.8-40.2l26.1-15.1
	l19.1-3.7l18.2,1l30,14.8l40.8,26l32,4.1l25.4-8.8l53.8-44l27.5-9.8l28.7,4.4l23.4,13.5L943.2,431.6L943.2,431.6z"/>
<path d="M517.1,383c-46.5,0-89.4-28.4-89.9-28.8l1.3-1.9c0.7,0.4,66.8,44.2,122.9,22.3c20.5-8,35.1-20.4,49.2-32.4
	c14.7-12.5,28.6-24.4,47.6-29.5c21.8-5.9,45.5-0.6,63.6,14.3c15.4,12.7,46.2,33,78.6,27c16.6-3.1,30.5-15.2,45.3-28
	c28.3-24.6,57.6-50,108.3-13.5l-1.4,1.9c-49.2-35.4-77.8-10.6-105.4,13.4c-15,13-29.2,25.3-46.3,28.5c-33.4,6.3-64.8-14.5-80.5-27.4
	c-17.5-14.4-40.5-19.5-61.5-13.8c-18.5,5-32.2,16.7-46.7,29.1c-14.3,12.1-29,24.7-49.8,32.8C541,381,529.1,383.1,517.1,383
	L517.1,383z"/>
<circle cx="675.8" cy="310.8" r="12.8"/>
<path opacity="0.5" fill="#DCE0ED" enable-background="new    " d="M473.4,521.2h75.8v16.1h-75.8V521.2z M647.3,521.2H723v16.1
	h-75.8V521.2z M821.2,521.2H897v16.1h-75.8V521.2z"/>
<path opacity="0.5" enable-background="new    " d="M512,581.2v10.7c23.5,0.1,42.4,19.3,42.3,42.8
	c-0.1,23.5-19.3,42.4-42.8,42.3c-10-0.1-19.7-3.6-27.3-10.1l-7.6,7.6c22.1,19.3,55.7,17.1,75.1-5c19.3-22.1,17.1-55.7-5-75.1
	C537.1,585.9,524.7,581.3,512,581.2z M860.8,591.4c23.5,0,41.5,19.1,41.5,42.5v0.3H913v-0.3c0-29.3-22.8-53.2-52.2-53.2
	c-15.3,0-29.9,6.7-40,18.2l7.6,7.6C836.5,596.9,848.3,591.4,860.8,591.4L860.8,591.4z"/>
<g>
	<path d="M468,633.4c0-23.5,19.1-41.5,42.5-41.5h0.3v-10.7h-0.3c-29.4,0-53.2,22.8-53.2,52.2c0,15.4,6.6,30,18.2,40.1
		l7.6-7.6C473.5,657.8,468,645.9,468,633.4z"/>
	<path d="M913,635.3h-10.7c-0.1,23.5-19.3,42.4-42.8,42.3c-23.5-0.1-42.4-19.3-42.3-42.8c0.1-10,3.6-19.7,10.1-27.3
		l-7.6-7.6c-19.3,22.1-17.1,55.7,5,75.1c22.1,19.3,55.7,17.1,75.1-5C908.3,660.4,913,648.1,913,635.3L913,635.3z"/>
	<path opacity="0.5" enable-background="new    " d="M706.2,584.4l-2.1,10.6c15.6,6.3,25.6,21.6,25.6,39.5
		c0,23.5-19.1,42.5-42.6,42.5s-42.5-19.1-42.5-42.6c0-16.9,10-32.2,25.5-39l-4.8-9.5c-26.8,12.1-38.8,43.6-26.7,70.4
		c12.1,26.8,43.6,38.8,70.4,26.7c19.1-8.6,31.4-27.6,31.4-48.5C740.4,611.4,726.7,591.8,706.2,584.4z"/>
	<path d="M688.5,591.3c5.1,0,10.1,1,14.8,3.1l2.1-10.6c-5.4-2.1-11.1-3.1-16.9-3.1c-7.5,0-15,1.6-21.8,4.7l4.8,9.6
		C676.8,592.5,682.6,591.3,688.5,591.3z"/>
</g>
<linearGradient id="SVGID_1_" gradientUnits="userSpaceOnUse" x1="151.2025" y1="-88.7" x2="151.2025" y2="384.8982" gradientTransform="matrix(1 0 0 -1 -16.15 627.09)">
	<stop  offset="0" style="stop-color:#808080;stop-opacity:0.25"/>
	<stop  offset="0.54" style="stop-color:#808080;stop-opacity:0.12"/>
	<stop  offset="1" style="stop-color:#808080;stop-opacity:0.1"/>
</linearGradient>
<path fill="url(#SVGID_1_)" d="M233.7,383.6c2.9-7.7-2.2-15.8-2.2-15.8l-0.4-17.6c2.3-4.6-5.5-16.2-5.5-16.2s-1.8-8.7-3.5-9.5
	s-3.5-4.4-3.5-4.4c0-1-0.6-2-1.6-2.4c-2.9-5.2-5.4-10.7-7.4-16.3c-1.1-3.1-2.1-6.5-1.5-9.7c0.2-0.8,0.4-1.6,0.7-2.4l0.2-0.5l0.1-0.2
	l0.1-0.2c0.8-1.6,1.2-3.4,1.2-5.2c-0.2-3.8-3.7-6.5-7.1-8.1s-7.3-2.6-10-5.3c-3.4-3.3-4.2-8.4-4.9-13s-2-9.7-5.8-12.5
	c-3.4-2.5-8-2.5-12.1-1.8c-5.6,1-10.9,3.1-15.6,6.2c-4.6,3-8.6,7.1-13.9,8.7c-1.9,0.6-4,0.8-5.9,1.5c-4.1,1.5-7.3,4.7-8.8,8.8
	c-0.1,0.2-0.1,0.4-0.2,0.6s-0.2,0.5-0.2,0.7l-0.1,0.6c-0.1,0.2-0.1,0.5-0.1,0.7s-0.1,0.4-0.1,0.6s-0.1,0.5-0.1,0.7s0,0.4-0.1,0.6
	s0,0.5,0,0.8c-2.2,2.1-4.1,4.4-5.6,7c-6.7,10.6-15.1,26.1-18.8,33l-0.2,0.3v-0.2c0,0-16.4,16.5-6.8,14.3c0.7-0.2,1.4-0.3,2-0.4
	l-0.1,1.8v0c-1.5,1.9-8.2,8.6,4.2,13.5c10.2,4.1,31.1,5.1,38,5.4l-0.6,2.9c-10.6,8.7-6.5,18.6-6.7,25.1s-1.2,14.2-1.2,14.2
	s-4.5,7.4-4,11.2s-3.3,10.1-3.3,10.1s-5.7,6.3-5.1,10.3c0.6,4-1,9.3-1,9.3s-3.9,7.1-2.3,11.1s0.8,6.3,0.8,6.3s-8.4,1.2-9,5.7
	s-8.2,6.1-8.2,6.1s-13.4,4.8-16.7,7.1s-20.6,18.4-20.6,18.4S42.8,503.2,41.9,505c-0.9,1.8-11.2,9.6-6.4,16.8
	c0.2,0.4,0.5,0.7,0.7,1.1c4.9,7.2,11.4,13.3,18.8,17.8c3.3,2,6.6,4.3,7.5,5.8c2.1,3.3,37.9,26.2,37.9,26.2s15.7,13.8,25.9,23.4
	l0.8,4.6c-0.1,0.2-0.3,0.4-0.4,0.7c-0.2,1,0.2,2.1,0.9,2.7l0.1,0.8c0,0,4.1,34.4,7.8,50.4c2.4,10.6,0.7,18.7-0.7,22.9
	c-3.8-4.2-4.3-5.7-4.3-5.7c-1.1,2.7-2,5.6-2.6,8.5c-0.1,0.4-0.1,0.8-0.1,1.2c-0.1,0-0.2,0-0.3,0.1l-1.4,2c-1.6,2.2-2.9,4.4-4.3,6.7
	c-3.2,5.2-13.3,7.6-13.3,7.6c-0.8,0.4-1.8,0.8-2.7,0.9c-2.8,0.5-5.7,0.6-8.6,0.3c-0.9,0.1-1.7,0.3-2.5,0.6c-0.7,0.2-1.3,0.5-1.9,0.9
	v0c-4.4,2.8-2.8,8.1-2.8,8.1l0.1,0.1l0.1,0.1l0.2,0.1l0.3,0.2l0.2,0.1l0.3,0.1l0.2,0.1l0.3,0.2l0.3,0.1l0.7,0.4l0.3,0.2l0.4,0.2
	l0.3,0.2l0.5,0.2l0.5,0.2l0.8,0.4l0.5,0.2l0.5,0.2l0.5,0.2l0.5,0.2l1,0.4l0.5,0.2l0.7,0.2l0.5,0.2l0.8,0.2l0.4,0.1l1.3,0.3l0.4,0.1
	l1,0.2h0.5l1.1,0.2l0.3,0c0.5,0.1,1,0.1,1.4,0.2h0.3l1.2,0.1h2l1.5-0.1h0.3l1.2-0.1l0.5-0.1l1.1-0.2l0.5-0.1c0.5-0.1,1-0.2,1.6-0.4
	c11.4-3.1,23.2-4.1,35-3c9,0.8,11.3-2.3,11.3-2.3c0.2-0.2,0.3-0.5,0.5-0.8c0.1-0.1,0.1-0.2,0.1-0.3c0.1-0.2,0.2-0.4,0.2-0.6
	c0-0.1,0.1-0.3,0.1-0.4s0.1-0.4,0.1-0.6s0-0.3,0.1-0.4s0-0.2,0-0.2s0-0.4,0.1-0.6c0.1-1.7,0-3.5-0.4-5.2c-0.7-3.8-1.8-7.4-3.3-11
	l-0.6,0.5c-0.1-0.3-0.1-0.7-0.2-1.1c-2.2-11.8-3-40.3-3.1-43.3c1.2,0,2.4-0.4,3.4-1.2c0.1-0.1,0.2-0.1,0.3-0.2
	c7.6-6.2,3.9-34.6,1.4-38.5s-3-24.2-3.9-30.6c-0.4-3.1-2.1-4-4.1-4h-0.9c-0.3-6,0.6-20.1,1.3-29.7c0-0.6,0.1-1.2,0.1-1.8l1.9,0.1
	l2.9-17c0,0,1.6-6.3,11.6-24.1c10-17.8,11-37.2,11-37.2s3.1-5.9,2.2-8.5c-0.2-0.7-0.6-2.6-0.9-5.1c3.4-2.1,7-3.8,10.7-5.2
	c10.7-4.3,18.7-12.4,22.4-16.4l0.6-0.6c0.9,1.4,1.8,2.8,2.5,4.3c0,0,8.8-6.1,13.3-11.3c0.5-0.6,0.9-1.3,1.1-2
	c2.7-6.7-0.1-21.1-0.1-21.1C238.1,389.3,233.7,383.6,233.7,383.6L233.7,383.6z"/>
<linearGradient id="SVGID_2_" gradientUnits="userSpaceOnUse" x1="198.1626" y1="224.105" x2="225.474" y2="224.105" gradientTransform="matrix(1 0 0 -1 -16.15 627.09)">
	<stop  offset="0" style="stop-color:#808080;stop-opacity:0.25"/>
	<stop  offset="0.54" style="stop-color:#808080;stop-opacity:0.12"/>
	<stop  offset="1" style="stop-color:#808080;stop-opacity:0.1"/>
</linearGradient>
<path opacity="0.1" fill="url(#SVGID_2_)" enable-background="new    " d="M189.6,424.5c-0.4,0.7-3.4,2.5-6.9,4.4
	c-0.3-2.6-0.6-4.6-0.6-5.2c-0.2-2.2,4.6-12.2,4.6-12.2s9.1-12.2,8.9-14.1s3.5-7.1,3.5-7.1l8.3-13.4c-0.9,2.1-0.6,4.5,0.9,6.3
	c2.5,3.3,0.4,9.8,0.4,9.8l0.5,8.2l0.1,0.8c-0.3,0.3-1.6,1.6-4.6,4.2c-2.7,2.5-2.2,3.2-1.9,3.4c-0.6,1.1,0.1,1.3,0.1,1.3
	c0.2,0,0.5,0,0.7,0l-0.6,0.6C197.7,416.3,190.3,423.2,189.6,424.5L189.6,424.5z"/>
<path fill="#985C7E" d="M135,273c-2.5,2.6,0.3,6.2-1.6,9c-1.1,1.6-3.5,2.5-4.9,4c-2.7,2.9-0.7,6.6,0.6,9.8c4.7,12-2.3,25.6-17,33
	c6.3,2.8,13.4,3.4,20.2,1.6c6.6-1.8,11.6-5.8,12.9-10.5c0.9-3.3,0.1-6.8,1.8-10c2.6-4.9,10.7-7.9,13.1-12.8
	c1.9-3.9-0.2-8.1-2.5-11.8c-3-4.7-6.4-9.1-10.2-13.2c-2.3-2.5-2.3-3.5-6-2.8C139,270.1,136.8,271.3,135,273L135,273z"/>
<path fill="#985C7E" d="M156.9,308c-0.3,3.5-1.1,7-2.4,10.4c-1.4,4.3-2.8,8.5-5.3,12.3s-5.9,7-10.3,8.1c2.9,2.6,6.8,3.8,10.7,3.1
	c2.7-0.5,5.5-1.9,8.2-1c1.2,0.5,2.4,1.2,3.5,1.9c3.9,2,9,0.5,11.8-2.9c2.7-3.5,3.5-8.2,2.1-12.4c-0.8-2.5-2.2-4.9-3-7.4
	c-1.1-3.8-0.7-8-2.5-11.5c-2.7-5-10.1-8-15.1-10C154.5,301.3,157,304.8,156.9,308L156.9,308z"/>
<path opacity="0.1" enable-background="new    " d="M149.9,298.7c-0.3,3.5-1.1,7-2.4,10.4c-1.4,4.3-2.8,8.5-5.3,12.3
	s-5.9,7-10.3,8.1c2.9,2.6,6.8,3.7,10.7,3.1c2.8-0.5,5.5-1.9,8.2-1c1.2,0.5,2.4,1.2,3.5,1.9c3.9,2,9,0.5,11.8-2.8
	c2.7-3.5,3.5-8.2,2.1-12.4c-0.8-2.5-2.2-4.9-3-7.4c-1.1-3.8-0.7-8-2.5-11.5c-2.7-5-10.1-8-15.1-10C147.6,292,150,295.4,149.9,298.7
	L149.9,298.7z"/>
<path fill="#ECB4B6" d="M154.9,531.9c0,0-3,36.7-1.7,41.6s3.5,71.3,3.5,71.3s0.9,38.7,3.9,46.8s-20.4,5.8-21.1,5.7
	s-6.6-16.5-6.6-16.5s5.7-10,2.1-26s-7.6-50-7.6-50l-6.6-40.1c0,0,0.9-9.4-2.6-14.7s-8-40.1-7-43.1s24.8-9.6,24.8-9.6l10.3,13.4
	L154.9,531.9z"/>
<path opacity="7.000000e-02" enable-background="new    " d="M111.4,514.5L111.4,514.5l0.1,0.7c0.1,0.7,0.1,1.4,0.2,2.1
	c1.3,11.6,4.1,29,6.5,32.6s2.7,9.2,2.7,12.3v1c0,0.9-0.1,1.4-0.1,1.4l5.1,30.8l0.2,1.3l1.3,8c0,0,4,34.1,7.6,50
	c1.8,7.2,1.6,14.7-0.4,21.8c-0.1,0.3-0.2,0.6-0.3,0.9c-0.4,1.1-0.8,2.2-1.4,3.2c0,0,0.8,2.3,1.9,5.2c0.2,0.7,0.5,1.3,0.7,2l0.4,1.1
	c1.6,4.1,3.2,8.2,3.6,8.2c0.8,0.1,24.2,2.4,21.1-5.7c-0.4-1.2-0.7-2.4-0.9-3.6c-2.3-12.4-3-43.2-3-43.2s-2.2-66.3-3.5-71.3
	c-0.9-3.3,0.2-20.6,1-31.8c0.4-5.6,0.7-9.7,0.7-9.7l-8.7-21.3l-10.3-13.4c0,0-17.1,4.8-22.9,8l-0.2,0.1c-1,0.5-1.6,1.1-1.7,1.5
	C110.9,507.6,111.1,510.6,111.4,514.5z"/>
<path opacity="5.000000e-02" enable-background="new    " d="M126.9,560.9c0,0,11.3,3,10.3,6.3L126.9,560.9z"/>
<path opacity="0.1" enable-background="new    " d="M132.9,680.8c0,0,1.2,3.5,2.6,7.2c1.6,0.8,2.8,1.2,2.8,1.2s4.4-4.1-1.4-10
	c-0.9-1-1.7-1.8-2.4-2.6C134.2,678.1,133.6,679.4,132.9,680.8L132.9,680.8z"/>
<path fill="#CC8294" d="M127.4,682.7c0.4,2.4,5.7,5.1,8.6,6.3c1.1,0.5,1.8,0.8,1.8,0.8c0.5-0.5,0.9-1.2,1.2-1.9
	c0.7-1.8,0.8-4.6-2.6-8.1c-0.8-0.8-1.5-1.6-2.1-2.3c-3.8-4.2-4.3-5.8-4.3-5.8c-1.1,2.7-2,5.5-2.6,8.4
	C127.3,681,127.3,681.9,127.4,682.7L127.4,682.7z"/>
<path opacity="0.1" enable-background="new    " d="M127.4,682.7c0.4,2.4,5.7,5.1,8.6,6.3c1.6,4.1,3.2,8.2,3.6,8.2
	c0.8,0.1,24.2,2.4,21.1-5.7c-0.4-1.2-0.7-2.4-0.9-3.6c-1.4,0.9-4.1,2.9-6.5,4.6c-3.3,2.3-8.3,0.6-8.3,0.6l-6.1-5.2l-1.5-1.3
	c-0.9-0.1-1.8-0.3-2.6-0.6c-2.1-0.9-3.9-2.4-5.2-4.2c-1.1-1.2-1.8-1.6-2.2-1.6C127.3,681,127.3,681.9,127.4,682.7z"/>
<path fill="#CC8294" d="M90.2,708.4c4.4,2.8,9.2,4.7,14.3,5.7c4.3,0.9,8.8,0.8,13.1-0.4c11.2-3.1,22.8-4.1,34.4-3
	c8.8,0.8,11.1-2.3,11.1-2.3c1.5-2,1.4-5.5,0.8-9c-0.7-3.7-1.8-7.4-3.2-10.9c0,0-4,2.8-7.3,5.2s-8.3,0.6-8.3,0.6l-7.6-6.5
	c-4.8-0.3-7.9-4.8-7.9-4.8c-2.1-2.3-2.5-1.5-2.5-1.5l-1.4,1.9c-1.5,2.1-2.9,4.4-4.3,6.7c-3.2,5.2-13,7.6-13,7.6
	c-0.8,0.4-1.7,0.8-2.7,0.9c-2.8,0.5-5.6,0.6-8.4,0.3c-1.5,0.2-2.9,0.7-4.2,1.4C88.6,703.1,90.2,708.4,90.2,708.4z"/>
<circle fill="#4B4B5B" cx="135.9" cy="692.1" r="0.8"/>
<circle fill="#4B4B5B" cx="126.3" cy="696.2" r="0.8"/>
<circle fill="#4B4B5B" cx="130.1" cy="702" r="0.8"/>
<circle fill="#4B4B5B" cx="116.9" cy="700" r="0.8"/>
<circle fill="#4B4B5B" cx="131.7" cy="694.6" r="0.8"/>
<circle fill="#4B4B5B" cx="135.4" cy="701.6" r="0.8"/>
<circle fill="#4B4B5B" cx="121.7" cy="698.4" r="0.8"/>
<circle fill="#4B4B5B" cx="111.7" cy="701.2" r="0.8"/>
<path opacity="0.1" enable-background="new    " d="M90.2,708.4c0,0,13.4,9.2,27.4,5.4c11.2-3.1,22.8-4.1,34.4-3
	c8.8,0.8,11.1-2.3,11.1-2.3c0.6-1,1-2.1,1.1-3.3c0-0.2,0-0.5,0.1-0.7c0.1-1.7,0-3.4-0.4-5c-1.8,1.4-5.6,3-13.4,3.3
	c-13.3,0.4-30.9,3.8-30.9,3.8l-17-0.7c0,0-9.5-2.1-9.5-5.6C88.6,703.1,90.2,708.4,90.2,708.4L90.2,708.4z"/>
<path fill="#CC8294" d="M114,711.7c0.3,0,0.6,0.1,0.8,0.1c3,0,10.2-1.6,14.6-2.6c1.2-0.3,2.5-0.5,3.7-0.5c4-0.2,13.8-0.7,19.3-0.6
	h0.1c4-0.1,7.9-1.1,11.6-2.8c0-0.2,0-0.5,0.1-0.7c-3.7,1.8-7.7,2.8-11.8,2.9c-5.5,0-15.4,0.4-19.3,0.6c-1.3,0.1-2.6,0.3-3.8,0.5
	c-3.8,0.9-13,3-15.2,2.5L114,711.7z"/>
<path opacity="3.000000e-02" enable-background="new    " d="M120.9,563.3c0,0.9-0.1,1.4-0.1,1.4l5.1,30.8l2.6,2.5
	c2.6,2.3,4.9,4.8,7.1,7.5c3,4.7,13.6,2.3,13.4,1.8s-4.6-22.4-4.6-22.4l-3.5-8.9c0,0-3.6,2.3-7.1-1.5c-2.2-2.4-7.2-7-10.6-10.1
	l-2.4-2.2C120.9,562.7,120.9,563,120.9,563.3z"/>
<path opacity="5.000000e-02" enable-background="new    " d="M111.4,514.6l0.1,0.6c0.1,0.7,0.1,1.4,0.2,2.1c0.7-0.3,1.5-0.6,2.2-0.9
	c0.3-0.2,0.7-0.3,1-0.5c3.3-1.6,6.4-3.5,9.3-5.8l-8.7-3.7l-2.6-1.1c-1,0.5-1.6,1.1-1.7,1.5C110.9,507.7,111.1,510.6,111.4,514.6z"/>
<path fill="#ECB4B6" d="M36.6,522.3c0.2,0.4,0.5,0.7,0.7,1.1c4.9,7.1,11.2,13.1,18.5,17.7c3.2,2,6.4,4.3,7.4,5.8
	c2.1,3.3,37.3,26,37.3,26s16.4,14.5,26.3,24.1l1.3,1.2l0.6,0.6c0.7,0.7,1.4,1.4,2,2c0.9,0.9,1.6,1.7,2.2,2.3
	c0.2,0.2,0.4,0.5,0.6,0.7s0.4,0.5,0.5,0.7c3,4.7,13.6,2.3,13.4,1.8s-4.6-22.4-4.6-22.4l-3.5-8.9c-1.4,0.8-3.1,0.9-4.6,0.3
	c-1-0.4-1.9-1-2.6-1.8c-2.2-2.4-7.2-7-10.6-10.1c-2-1.8-3.4-3.1-3.4-3.1l-11.3-12.8c0,0-14.4-18.8-25.3-23.5c0,0,12.2-5,20.9-6.3
	c3.3-0.4,6.6-1.2,9.7-2.3c0.3-0.2,0.7-0.3,1-0.5c3.3-1.6,6.4-3.5,9.3-5.8l-8.7-3.8l-45.8-19.7c-0.3,0-2.9,0.2-4.9,0.3l-2.1,0.1
	c0,0-17.1,17.7-18,19.5S31.9,515,36.6,522.3L36.6,522.3z"/>
<path opacity="3.000000e-02" enable-background="new    " d="M87.1,514c0,0-19.7,2.4-23.6,6.5c0,0,17.3,1.2,18,3.5
	c0,0-9.9-6.7-12.6-5L87.1,514z"/>
<path opacity="5.000000e-02" enable-background="new    " d="M128,598.1l0.6,0.6c0.7,0.7,1.4,1.4,2,2c0.9,0.9,1.6,1.7,2.2,2.3
	l2.6-3.3c-0.9-0.7-1.8-1.3-2.9-1.8C131,597.3,129.4,597.3,128,598.1L128,598.1z"/>
<path fill="#CC8294" d="M129.2,605.4c0.7,0.3,1.4,0.6,2.1,0.9l2-2.6l2.6-3.4c-0.9-0.7-1.8-1.3-2.9-1.8c-1.4-0.6-3-0.6-4.4,0.1
	c-1,0.6-1.8,1.5-2.3,2.6C126.2,601.2,125.5,603.5,129.2,605.4L129.2,605.4z"/>
<path opacity="5.000000e-02" enable-background="new    " d="M128.9,605l0.4,0.4c0.7,0.3,1.4,0.6,2.1,0.9l2-2.6
	c0.2,0.3,0.4,0.5,0.5,0.7c3,4.7,13.6,2.3,13.4,1.8s-4.6-22.4-4.6-22.4l-3.5-8.9c-1.4,0.8-3.1,0.9-4.6,0.3c-0.8,0.8-0.9,1.8,0,3.2
	c2,3,3.1,6.4,3.4,10c1.4,3.7-2.8,8.3-5.1,10.2c-0.4,0.3-0.8,0.6-1.3,0.8c-0.5,0.3-0.9,0.8-1.1,1.3
	C129.9,602.1,129.3,603.5,128.9,605L128.9,605z"/>
<path fill="#CC8294" d="M130,605l4.6,4.6c6.4,4,11.2,10.1,13.8,17.2c0.5,1.4,1,2.7,1.6,4c0.7,1.8,1.1,3.7,1.2,5.6
	c0.1,1.2,0.2,2.3,0.2,3.3c0,1.3,0.5,2.5,1.4,3.5l0.1,0.1c1.9,2.1,5.1,2.4,7.4,0.6c0.1-0.1,0.2-0.1,0.3-0.2
	c7.5-6.2,3.8-34.3,1.4-38.2s-2.9-24-3.8-30.4c-0.4-3-2-3.9-4.1-4s-4.8,0.8-7.1,1.1h-0.4c-4.7,0.4-13.6,1.8-10.5,6.1
	c2,3,3.1,6.4,3.4,10c1.7,4.6-4.9,10.5-6.4,11S130,605,130,605L130,605z"/>
<circle fill="#4B4B5B" cx="136.6" cy="602.2" r="1.3"/>
<circle fill="#4B4B5B" cx="138.6" cy="607.2" r="1.3"/>
<circle fill="#4B4B5B" cx="144.9" cy="615.2" r="1.3"/>
<circle fill="#4B4B5B" cx="141.8" cy="611" r="1.3"/>
<circle fill="#4B4B5B" cx="147.5" cy="619.9" r="1.3"/>
<path opacity="0.1" enable-background="new    " d="M152.8,624c0,0,1.1,13,0,19.1c1.9,2.2,5.2,2.5,7.4,0.7c0.1-0.1,0.2-0.1,0.3-0.2
	c7.5-6.2,3.8-34.3,1.4-38.2s-2.9-24-3.8-30.4c-0.4-3-2-3.9-4.1-4s-4.8,0.8-7.1,1.1c0,6.4,0.4,21,2,25.9
	C151,604.3,152.8,624,152.8,624L152.8,624z"/>
<path opacity="0.1" enable-background="new    " d="M156.1,597.5c1.4,4.9,3.5,18.5,3.3,25.7c-0.1,5.3,0.5,15.6,0.8,20.7
	c0.1-0.1,0.2-0.1,0.3-0.2c7.5-6.2,3.8-34.3,1.4-38.2s-2.9-24-3.8-30.4c-0.4-3-2-3.9-4.1-4C154.2,577.6,155,593.6,156.1,597.5
	L156.1,597.5z"/>
<path fill="#CC8294" d="M151,571.5c0.3,5.1,1.1,18.8,2.5,22.7c1.7,4.9,3.5,28.3,3.6,29.3l-0.6,0c0-0.2-1.9-24.4-3.6-29.2
	c-1.4-4-2.2-17.6-2.5-22.8L151,571.5z"/>
<path fill="#FF718D" d="M146.6,318.9c0,0-9.7,1.7-15.2,3.8s-6.3,3.1-6.3,3.1l-5.7,0.9v-6.1c0,0-20.5,1.5-22.5,0.7c0,0-0.1,0-0.1-0.1
	c-1-1,0.6,7.9-0.9,9.8s-8,8.5,4.1,13.4s39.6,5.4,39.6,5.4l7.8-15.4L146.6,318.9z"/>
<path fill="#ECB4B6" d="M177.3,348.3l-21.6-4.6c3-5.1,5.1-10.7,6.3-16.5c0.8-4.6,0.7-9.6-1.5-13.9c-6.2-12.6,16.8-19.2,16.8-19.2
	s8.4,13,16,19.6c2.5,2.2,5,3.7,7,3.7C208.4,317.3,177.3,348.3,177.3,348.3L177.3,348.3z"/>
<path opacity="0.1" enable-background="new    " d="M60.8,487.8c0,0,9.4,22.3,18,22.6c5.2,0.2,21.2,2.5,33.1,4.2l1.1,0.2
	c3.3-1.6,6.4-3.5,9.3-5.8l-8.7-3.8l-45.8-19.7c-0.3,0-2.9,0.2-4.9,0.3L60.8,487.8z"/>
<path opacity="0.1" enable-background="new    " d="M128.2,507.3c8.2,1.2-2.2,9.4-2.2,9.4s4,3,8.6,14s6.8,10.2,6.8,10.2l12.8,0.7
	c0.4-5.6,0.7-9.7,0.7-9.7l-8.7-21.3L136,497.2c0,0-17.1,4.8-22.9,8l-0.2,0.1c-1,0.5-1.6,1.1-1.7,1.5
	C110.9,507.6,127.9,503.3,128.2,507.3L128.2,507.3z M177.3,348.3l-21.6-4.6c3-5.1,5.1-10.7,6.3-16.5l6.8,6.5c3.3,0,6.5-0.9,9.3-2.7
	c1.2-0.8,2.3-1.8,3.1-2.9c4.8-6,10.6-13.8,10.6-13.8s0.7-0.3,1.6-0.6c2.5,2.2,5,3.7,7,3.7C208.4,317.3,177.3,348.3,177.3,348.3
	L177.3,348.3z"/>
<path fill="#FF718D" d="M60.8,486c0,0,9.4,22.3,18,22.6s47.1,6.2,47.1,6.2s4,3,8.6,14s6.8,10.2,6.8,10.2l14.8,0.8l2.8-16.8
	c0,0,1.6-6.2,11.4-23.9s10.8-36.9,10.8-36.9s3-5.8,2.2-8.4s-3.4-23.3-3.6-25.5s4.4-12,4.4-12s8.8-12,8.6-13.8s3.4-7,3.4-7l8-13.2
	c-0.9,2.1-0.6,4.4,0.8,6.2c2.4,3.2,0.4,9.6,0.4,9.6l0.5,8.1l0.1,1.9c0,0-1.2,1.2-4.5,4.2s-1.7,3.4-1.7,3.4
	c10.2-1.4,18.2,15.2,18.2,15.2s8.6-6,13-11.2c0.5-0.6,0.8-1.2,1.1-1.9c2.6-6.7-0.1-20.9-0.1-20.9c3.5-6.2-0.9-11.8-0.9-11.8
	c2.8-7.6-2.2-15.6-2.2-15.6l-0.3-17.4c2.2-4.6-5.4-16-5.4-16s-1.8-8.6-3.4-9.4s-3.4-4.4-3.4-4.4c0.2-4-10.4-4.4-11.4-4.6
	c-1.3-0.6-2.5-1.3-3.6-2.1c-1-0.7-2.1-1.3-3.2-1.9c-1.8-0.8-6.6,1.4-6.6,1.4s-5.8,7.8-10.6,13.8c-0.9,1.1-2,2.1-3.1,2.9
	c-2.8,1.8-6,2.7-9.3,2.7l-6.9-6.7l-20.4,1.2l-4.8,23.5c-10.4,8.6-6.4,18.4-6.6,24.9s-1.2,14-1.2,14s-4.4,7.2-3.8,11s-3.2,10-3.2,10
	s-5.6,6.2-5,10.2s-1,9.2-1,9.2s-3.8,7-2.2,11s0.8,6.2,0.8,6.2s-8.2,1.2-8.8,5.6s-8,6-8,6s-13.2,4.8-16.4,7S60.9,486,60.8,486
	L60.8,486z"/>
<path opacity="0.1" enable-background="new    " d="M229.2,388c0,0-15,1.8-16.8,4s15,2.4,15,2.4L229.2,388z M207,399.9
	c0,0,11-3.9,11.3-2.7S207,405,207,405V399.9z M202.4,378.6c-1.9,3-17.7,22.4-17.7,22.4l17-24.8L202.4,378.6z M200.1,373.3
	c-1.2,1.6-13.9,22.4-13.9,22.4l12.8-23.5L200.1,373.3z M226.7,348.3c0,0-4.9-6.9-9.7-2.5S226.7,348.3,226.7,348.3z M192.4,342.4
	c0,0-12.5,0-18.6,2.8S179.1,336.8,192.4,342.4z M178,333h1.9c0,0,4.3-1.6,5.4-4.9s9.8-0.3,9.8-0.3s1.3,0.9,0.2-0.6s3.8-6.4,6-9.6
	c0.2-0.2,0.3-0.5,0.4-0.8c-1-0.7-2.1-1.3-3.2-1.9c-1.8-0.8-6.6,1.4-6.6,1.4s-5.8,7.8-10.6,13.8C180.2,331.2,179.2,332.2,178,333
	L178,333z"/>
<path fill="#FF718D" d="M178,331.8h1.9c0,0,4.3-1.6,5.4-4.9s9.8-0.3,9.8-0.3s1.3,1,0.2-0.6s3.8-6.4,6-9.6c0.2-0.2,0.3-0.5,0.4-0.8
	c-1-0.7-2.1-1.3-3.2-1.9c-1.8-0.8-6.6,1.4-6.6,1.4s-5.8,7.8-10.6,13.8C180.2,330,179.2,331,178,331.8L178,331.8z"/>
<circle fill="#E7C7CA" cx="163.2" cy="344.4" r="1.3"/>
<circle fill="#E7C7CA" cx="140.3" cy="375.5" r="1.3"/>
<circle fill="#E7C7CA" cx="148.6" cy="355.8" r="1.3"/>
<circle fill="#E7C7CA" cx="136.6" cy="395.7" r="1.3"/>
<circle fill="#E7C7CA" cx="119.7" cy="430.5" r="1.3"/>
<circle fill="#E7C7CA" cx="118.4" cy="448.4" r="1.3"/>
<path fill="#ECB4B6" d="M99,318.9l2.7,8.7l8.5-0.6l7.6-8.1c0,0,0.5-1.5,1.3-3.6c1.9-5.4,5.6-15.1,7.5-18.1
	c2.8-4.2,4.6-21.6,4.6-21.6s-3.1-7-11.9,7c-6.6,10.6-14.8,25.9-18.5,32.7C99.7,317.5,99,318.9,99,318.9L99,318.9z M136.6,440.9
	c0,2.1,9,3.1,13.2,3.5c1.3,0.1,2.2,0.2,2.2,0.2c-1,2.3,4.3,19.5,4.3,19.5c0.5,0,0.9-0.1,1.3-0.2c7-1.4,20.8-11,20.8-11
	s0.3-3.3,14.6-9.1c10.5-4.3,18.4-12.3,22.1-16.3c0.7-0.8,1.5-1.6,2.3-2.4L204.8,412c0,0-2.1,1.9-4.8,4.5
	c-4.9,4.7-12.1,11.5-12.8,12.8c-1.1,2-20.9,11.7-20.9,11.7c-4.4-3.8-13.9-4.6-13.9-4.6S136.7,438.1,136.6,440.9L136.6,440.9z"/>
<path opacity="0.1" enable-background="new    " d="M160.2,395.7c-0.6,1.2-27.8,19.3-32.4,19.5s4.3-8.6,4.6-8.7
	S160.2,395.7,160.2,395.7z M13.7,682.1l-1-0.2L13.7,682.1z"/>
<path opacity="0.3" fill="#FFFFFF" enable-background="new    " d="M92.9,700.3c1.3-0.8,2.7-1.2,4.2-1.4c2.8,0.3,5.6,0.2,8.4-0.3
	c-0.7,2.4-0.9,4.9-0.6,7.4l-2.6-0.1C102.4,706,92.9,703.9,92.9,700.3z"/>
<path opacity="0.1" enable-background="new    " d="M14.3,682.3l-0.5-0.1L14.3,682.3L14.3,682.3z M13.9,682.2h-0.1H13.9z"/>
<path opacity="0.3" fill="#FFFFFF" enable-background="new    " d="M151.2,636.4c0.1,1.2,0.2,2.3,0.2,3.3c0,1.3,0.5,2.5,1.4,3.5
	l0.1,0.1c0.3-2.4,0.5-4.8,0.4-7.1C153.1,636.4,152.2,636.5,151.2,636.4z"/>
<path opacity="0.1" enable-background="new    " d="M200,416.4c6.5-0.4,12.1,6.4,15.1,11c0.7-0.8,1.5-1.6,2.3-2.4l-12.6-13.1
	C204.8,411.9,202.7,413.9,200,416.4L200,416.4z"/>
<path opacity="0.1" enable-background="new    " d="M200,414.7c10.2-1.4,18.2,15.2,18.2,15.2s8.6-6,13-11.2c0.5-0.6,0.8-1.2,1.1-1.9
	c-2.4-5.7-8.9-15.3-26.3-11.6l0.1,1.9c0,0-1.2,1.2-4.5,4.2S200,414.7,200,414.7L200,414.7z"/>
<path fill="#FF718D" d="M200,415.9c10.2-1.4,18.2,15.2,18.2,15.2s8.6-6,13-11.2c0.5-0.6,0.8-1.2,1.1-1.9
	c-2.4-5.7-8.9-15.3-26.3-11.6l0.1,1.9c0,0-1.2,1.2-4.5,4.2S200,415.9,200,415.9L200,415.9z"/>
<path opacity="0.1" fill="#FFFFFF" enable-background="new    " d="M200,415.9c10.2-1.4,18.2,15.2,18.2,15.2s8.6-6,13-11.2
	c0.5-0.6,0.8-1.2,1.1-1.9c-2.4-5.7-8.9-15.3-26.3-11.6l0.1,1.9c0,0-1.2,1.2-4.5,4.2S200,415.9,200,415.9L200,415.9z"/>
<path opacity="0.1" enable-background="new    " d="M99,318.9l2.7,8.7l8.5-0.6l7.6-8.1c0,0,0.5-1.5,1.3-3.6
	c-1.1,0.6-8.4,4.7-12.9,4.9c-3.5,0.2-4.8-3.1-5.3-4.9C99.7,317.5,99,318.9,99,318.9z"/>
<path opacity="0.1" enable-background="new    " d="M96.3,321.9c0.2-0.2,0.4-0.4,0.6-0.6c2-2.3,3.8-4.1,3.8-4.1
	c0.2,1.6,0.8,3,1.7,4.3c0.9,1.1,2.3,1.8,3.8,1.7c2.6-0.3,5.1-1.1,7.5-2.2c3.1-1.3,5.6-2.8,5.6-2.8v2.4l0.1,2.4v5.5
	c0,0,2.1,14.6-17.3,6.8c0,0,1.2-5.4-6.2-4.4L96.3,321.9z"/>
<path fill="#FF718D" d="M119.2,316.4l0.1,4.8v5.5c0,0,2.1,14.6-17.3,6.8c0,0,1.4-6.2-8-4s6.7-14.1,6.7-14.1s0.7,6.2,5.5,6
	S119.2,316.4,119.2,316.4L119.2,316.4z"/>
<path opacity="0.1" fill="#FFFFFF" enable-background="new    " d="M119.2,316.4l0.1,4.8v5.5c0,0,2.1,14.6-17.3,6.8c0,0,1.4-6.2-8-4
	s6.7-14.1,6.7-14.1s0.7,6.2,5.5,6S119.2,316.4,119.2,316.4L119.2,316.4z"/>
<path opacity="0.1" enable-background="new    " d="M156.3,469.5c-0.2-0.3-1-24.3-4.1-24.9s-10.8,2.6-10.8,2.6l1.4,19.1L156.3,469.5
	z"/>
<path opacity="0.1" enable-background="new    " d="M152.1,444.6c-1,2.3,4.3,19.5,4.3,19.5c0.5,0,0.9-0.1,1.3-0.2
	c-0.5-7.1-1.5-19.4-3.8-19.9c-1.4-0.1-2.8,0-4.1,0.4C151.2,444.5,152.1,444.6,152.1,444.6z"/>
<path fill="#FF718D" d="M157.5,468.9c-0.2-0.3-1-24.3-4.1-24.9s-10.8,2.6-10.8,2.6l1.4,19.1L157.5,468.9z"/>
<path opacity="0.1" fill="#FFFFFF" enable-background="new    " d="M157.5,468.9c-0.2-0.3-1-24.3-4.1-24.9s-10.8,2.6-10.8,2.6
	l1.4,19.1L157.5,468.9z"/>
<path fill="#985C7E" d="M129.7,326.6c2.4-3.8,3.9-8.1,5.3-12.3c0.7-2,1.3-4.1,1.8-6.2c3.9,5.7,10.1,9.6,17,10.6
	c0.7,1.6,1.4,3.1,2,4.8c1.4,4.2,0.6,8.9-2.1,12.4c-2.8,3.4-7.9,4.8-11.8,2.9c-1.1-0.7-2.3-1.4-3.5-1.9c-2.7-0.8-5.4,0.5-8.2,1
	c-3.9,0.6-7.8-0.5-10.7-3.1C123.9,333.6,127.3,330.4,129.7,326.6z"/>
<circle opacity="0.1" enable-background="new    " cx="157.5" cy="295.6" r="24.9"/>
<circle fill="#ECB4B6" cx="157.5" cy="294" r="24.9"/>
<path fill="#985C7E" d="M139.1,286.3c-2.9-2-7.2-0.4-10.3-2.2c-1.5-1-2.6-2.4-3.1-4.1c-2.7-7.1,1.5-16,8.7-18.4
	c1.9-0.6,3.9-0.9,5.8-1.4c5.2-1.6,9.2-5.6,13.6-8.6c4.6-3.1,9.9-5.2,15.4-6.2c4.1-0.7,8.6-0.6,11.9,1.8c3.8,2.8,5,7.8,5.7,12.4
	s1.5,9.6,4.9,12.9c2.6,2.6,6.4,3.7,9.8,5.2s6.8,4.3,7,8c0.2,2.9-1.7,5.5-2.2,8.4c-0.6,3.2,0.4,6.5,1.5,9.6
	c3.1,8.7,7.3,16.9,12.4,24.6c-6.1,3.4-12.8,5.9-19.7,7.3c-2.8,0.6-5.8,0.9-8.6,0c-3.5-1.1-6.1-4.1-7.8-7.4c-1.5-2.9-2.4-6-2.6-9.3
	c-0.5-6.5,1.5-13.4-1.3-19.2c-0.5-1.2-1.4-2.2-2.4-2.9c-1.3-0.7-2.8-0.8-4.2-1.3c-2.4-0.8-4.3-2.5-6.2-4.2l-6.6-6.2
	c-1.5-1.6-3.2-2.8-5.1-3.8c-3.5-1.5-7.7-0.6-11,1.2c-2.9,1.6-6.3,4.1-9.3,2.5"/>
<g opacity="0.1">
	<path d="M137.1,285.7l-1.8-0.5C135.9,285.5,136.5,285.7,137.1,285.7z M137.1,285.7l2,0.6c-0.4-0.2-0.7-0.4-1.1-0.6
		C137.7,285.7,137.4,285.7,137.1,285.7z"/>
	<path d="M201.3,332.3c-2.8,0.6-5.8,0.9-8.6,0c-3.5-1.1-6.1-4.1-7.8-7.4c-1.5-2.9-2.4-6-2.6-9.3c-0.5-6.5,1.5-13.4-1.3-19.2
		c-0.5-1.2-1.4-2.2-2.4-2.9c-1.3-0.8-2.8-0.8-4.2-1.3c-2.4-0.8-4.3-2.5-6.2-4.2l-6.6-6.2c-1.5-1.5-3.2-2.8-5.1-3.8
		c-3.5-1.5-7.7-0.6-11,1.2c-2.1,1.2-4.4,2.8-6.6,3c0.4,0.1,0.8,0.3,1.1,0.6l-2-0.6c-0.6,0-1.2-0.2-1.8-0.5l1.8,0.5
		c0.3,0,0.6,0,0.9,0c-2.8-1.1-6.5,0-9.2-1.6c-1.5-1-2.6-2.4-3.1-4.1c-0.8-2.1-1-4.3-0.7-6.5c-1.2,3.1-1.3,6.6-0.1,9.7
		c0.5,1.7,1.6,3.1,3.1,4.1c2.7,1.5,6.3,0.5,9.2,1.6c2.2-0.3,4.6-1.8,6.6-3c3.3-1.9,7.5-2.7,11-1.2c1.9,0.9,3.7,2.2,5.1,3.8l6.6,6.2
		c1.9,1.7,3.8,3.5,6.2,4.2c1.4,0.4,2.9,0.5,4.2,1.3c1.1,0.7,1.9,1.7,2.4,2.9c2.9,5.8,0.8,12.7,1.3,19.2c0.2,3.2,1.1,6.4,2.6,9.3
		c1.7,3.3,4.3,6.3,7.8,7.4c2.8,0.9,5.7,0.5,8.6,0c6.9-1.4,13.5-3.8,19.7-7.3c-0.4-0.7-0.9-1.4-1.3-2.1
		C213.3,329.1,207.4,331.1,201.3,332.3L201.3,332.3z M208.5,286.6c-0.6,1.4-1,2.8-1.4,4.2c-0.1,0.3-0.1,0.6-0.1,1
		C207.7,290.1,208.2,288.4,208.5,286.6z"/>
</g>
<path opacity="0.1" enable-background="new    " d="M153.9,333.9c-2.8,3.4-7.9,4.8-11.8,2.9c-1.1-0.7-2.3-1.3-3.5-1.9
	c-2.7-0.9-5.4,0.5-8.2,1c-3.2,0.5-6.5-0.2-9.2-2c-0.5,0.2-1,0.4-1.5,0.5c2.9,2.6,6.8,3.7,10.7,3.1c2.8-0.5,5.5-1.9,8.2-1
	c1.2,0.5,2.4,1.2,3.5,1.9c3.9,2,9,0.5,11.8-2.9c2-2.5,3-5.7,2.7-8.9C156.5,329.3,155.5,331.9,153.9,333.9z"/>
</svg>
