<svg version="1.1" id="图层_1" xmlns="http://www.w3.org/2000/svg" x="0" y="0" viewBox="0 0 996.5 828.2" xml:space="preserve"><style>.st0{opacity:.1}.st1{fill:#d48a9b}.st3{opacity:.2;fill:#dda2a6}.st4,.st5{opacity:.1}.st6{fill:#e1dee5}.st7{fill:#a36468}.st8{fill:#d9d6df}.st9{fill:#b8797d}.st12{fill:#efb7b9}.st13{fill:#67647e}.st14{fill:#444053}.st16{fill:#d1d9ec}.st17{fill:#dfe6f5}.st18{fill:#fff}.st20{fill:#746d83}.st22{fill:#d4dfec}</style><path class="st0" d="M994.6 272.5h-91.9v111.4h85.2c.2 1.1.4 2.3.7 3.4h-85.9v89.9l.4-.1 7.2-2.7 1.5-.6c2.5-1 4.9-2.1 7.2-3.2.8-.4 1.7-.8 2.5-1.2 13.2-6.5 25.4-14.9 36.2-25 .3-.3.6-.5.9-.8 1.5-1.4 2.9-2.9 4.3-4.3l1.5-1.6c1.7-1.8 3.2-3.6 4.8-5.5l.7-.8c6.2-7.6 11.5-16 15.6-25 .1-.3.2-.5.4-.8 1.3-2.8 2.4-5.7 3.4-8.6.4-1.2.8-2.5 1.2-3.7.1-.4.2-.7.3-1.1 5.1-17.9 5.7-36.4 5.7-54.9v-6.5c0-7.5-.1-15-.3-22.5 0-1.9-.1-3.9-.1-5.8-.1-5-.3-9.9-.5-14.8-.1-1.4-.1-2.8-.2-4.1 0-.8-.1-1.6-.1-2.4-.3-3.1-.5-5.9-.7-8.7zm-91.9-124.1h50.4c-8.3-11.5-17.2-22.5-26.8-32.8-7.5-8.2-15.4-16.2-23.6-23.8v56.6zm0 3.4V269h91.7c0-.3-.1-.7-.1-1l-.6-6c-.1-1.1-.2-2.4-.4-3.5s-.3-2.4-.4-3.5-.3-2.3-.5-3.5-.3-2.3-.5-3.5c-.1-1-.3-1.9-.4-2.9-.2-1.4-.4-2.7-.7-4.1 0-.2-.1-.4-.1-.6-1.7-9.9-3.9-19.8-6.7-29.4-3-10.2-6.8-20.2-11.4-29.9-4.9-10.2-10.7-20-17.1-29.3h-52.8zM684.3 272.5v111.4h196.4V272.5H684.3zm0 114.8v75.5c22.9-7.3 49-4.4 72.7 1.6 18.3 4.7 36.2 11 54.5 15.6 8.2 2.1 16.5 3.7 24.9 4.7l2.1.2 3 .3 3 .2h2.2l1.6.1c.8 0 1.5 0 2.3.1h6.4c.6 0 1.2 0 1.8-.1.9 0 1.9-.1 2.8-.1l1.8-.1 2.2-.2c1.5-.1 3-.3 4.5-.5.6-.1 1.2-.1 1.8-.2l.9-.1c1.5-.2 3-.4 4.5-.7l3.3-.6v-95.6l-196.3-.1zm146.1-239v3.4H684.3V269h196.4V151.8h-9.8v-3.4h9.8V72.6c-38.2-30.8-82.8-54.9-132.6-66C727.2 2 705.8-.2 684.3 0v148.4l146.1-.1zm-449-.6l.7.7h280.3V1c-49.9 4.2-98.6 20.9-137.8 48.7-18.9 13.3-35.8 29.1-56.9 39.4-11.1 5.5-23.2 8.6-35.6 9.2l-50.7 49.4zm-2-60.5v33.3l27.1-26.4c-10.1-3.4-18-5.8-27.1-6.9zm-.9 419.6h.9v73.1c10.2-.8 20.4-1.8 30.5-3.1 45.3-5.8 89.8-17.4 132.2-34.3 4.6-1.8 9.1-3.7 13.6-5.7 3-1.3 6-2.6 8.9-4 4.4-2 8.8-4.1 13.2-6.3 19.4-9.5 38-20.4 55.9-32.5 1.1-.8 2.2-1.5 3.3-2.3 2.2-1.5 4.4-3.1 6.6-4.6l3.3-2.4 2.2-1.7c2.2-1.7 4.5-3.4 6.7-5 2.1-1.5 4.2-3 6.3-4.4v-86.4h-225c.2-.5.3-1 .5-1.5-.2.5-.3 1-.5 1.5h-57.7v119.5l-.9.1zm.9-355V269h282.9V151.8H379.4zm0 120.6v111.5h282.9V272.5l-282.9-.1zM322.9 90.7l34.6 33.7V87.1c-11.6.7-23.2 1.9-34.6 3.6zM82.2 272.5v111.4h275.2V272.5H82.2zm66.6 275.2c41.7 15.9 85.3 26.2 129.7 30.8h.2c8.4.9 16.8 1.6 25.3 2.1h.3c17.7 1 35.5 1.2 53.2.6V387.3H82.2l1 128.3M6 383.9h54.3V272.5H38.8c-2.2 3.9-4.4 7.9-6.4 11.9-1.1 2.1-2.2 4.3-3.2 6.5C15 320.1 6.1 352.3 6 383.9zm0 3.4c.4 22.6 5.5 44.9 16.7 65.4 9.3 17 22.2 32 37.5 45V387.3H6zM40.8 269h19.5v-29c-7.1 9.3-13.6 19-19.5 29zm121.9-120.6H351l.7-.7-1-1-52.9-51.6c-15.7 3.3-31.2 7.4-46.5 12.4-1.4.5-2.9 1-4.3 1.4-29.5 10.1-57.8 23.3-84.3 39.5zm-80.5 65.4V269h275.2V155l-3.9-3.1H157.2c-27.6 17.3-52.8 38.1-75 61.9z"/><path class="st0" d="M902.7 210.9V269h91.7c0-.3-.1-.7-.1-1l-.6-6c-.1-1.1-.2-2.4-.4-3.5s-.3-2.4-.4-3.5-.3-2.3-.5-3.5-.3-2.3-.5-3.5c-.1-1-.3-1.9-.4-2.9-.2-1.4-.4-2.7-.7-4.1 0-.2-.1-.4-.1-.6-1.7-9.9-3.9-19.8-6.7-29.4l-81.3-.1zm91.9 61.6h-91.9v111.4h85.2c.2 1.1.4 2.3.7 3.4h-85.9v89.9l.4-.1 7.2-2.7 1.5-.6c2.5-1 4.9-2.1 7.2-3.2.8-.4 1.7-.8 2.5-1.2 13.2-6.5 25.4-14.9 36.2-25 .3-.3.6-.5.9-.8 1.5-1.4 2.9-2.9 4.3-4.3l1.5-1.6c1.7-1.8 3.2-3.6 4.8-5.5l.7-.8c6.2-7.6 11.5-16 15.6-25 .1-.3.2-.5.4-.8 1.3-2.8 2.4-5.7 3.4-8.6.4-1.2.8-2.5 1.2-3.7.1-.4.2-.7.3-1.1 5.1-17.9 5.7-36.4 5.7-54.9v-6.5c0-7.5-.1-15-.3-22.5 0-1.9-.1-3.9-.1-5.8-.1-5-.3-9.9-.5-14.8-.1-1.4-.1-2.8-.2-4.1 0-.8-.1-1.6-.1-2.4-.3-3.1-.5-5.9-.7-8.7zm-183-103.9V269h69.1V168.6h-9.8v-34h-40.5v34h-18.8zm0 103.9h69.1v111.4h-69.1V272.5zm69.1 114.8h-69.1V480c8.2 2.1 16.5 3.7 24.9 4.7l2.1.2 3 .3 3 .2h.3c.4 0 .9 0 1.3.1h.5c.5 0 1.1 0 1.6.1.8 0 1.5 0 2.3.1h6.4l1.8-.1c.9 0 1.9-.1 2.8-.1l1.7-.1 2.2-.2c1.5-.1 3-.3 4.5-.5l1.8-.2.9-.1c1.5-.2 3-.4 4.5-.7l3.3-.6.2-95.8zM379.4 156.7h57V269h-57V156.7zm0 115.8v111.4h282.9v-48.1H511.6v28.4h-75.2v-91.7h-57zm-.9 234.3h.9V580c10.2-.8 20.4-1.8 30.5-3.1 45.4-5.9 89.8-17.4 132.3-34.3 12.2-4.9 24.1-10.2 35.7-15.9 19.4-9.5 38-20.4 55.9-32.5 4.5-3 8.8-6.1 13.2-9.3 3-2.2 6-4.5 9-6.6 2.1-1.5 4.2-3 6.3-4.4v-86.4H437.2c.2-.5.3-1 .5-1.5-.2.5-.3 1-.5 1.5h-57.7v119.4l-1-.1zM230.7 148.4h37.1v-10.3h-16.6v-30.6c-1.4.5-2.9 1-4.3 1.4V138h-16.2v10.4zM141.2 269h182.4-.1 33.9V156.7h-9.6v83H304v-49.1h-36.2v-38.8h-37.1v38.8h-36.2v49.1h-53.3V269zm0 3.5v111.4h216.2V272.5H141.2zm7.6 275.2c41.7 15.9 85.3 26.2 129.7 30.8h.2c8.4.9 16.8 1.6 25.3 2.1h.3c17.7 1 35.5 1.2 53.2.6V387.3H141.2v39.5h-59l.3 88.2m-26-127.7H6c.4 22.6 5.6 44.9 16.7 65.4 9.3 17.1 22.2 32 37.5 45v-70.9h-3.8l.1-39.5zM6 383.9h50.5v-93.1H29.2C15 320.1 6.1 352.3 6 383.9z"/><path class="st0" d="M379.4 187.9h30.5v35.2h-30.5v-35.2zm0 73h30.5v8.1h-30.5v-8.1zm0 11.6h30.5v23.6h-30.5v-23.6zm0 61.4h30.5v35.2h-30.5v-35.2zm0 72.9h30.5V442h-30.5v-35.2zm0 100h-.9.9v8.2h30.5v-35.2h-30.5v27zm0 45.9v27.2c10.2-.8 20.4-1.8 30.5-3.1v-24l-30.5-.1zm152.1-171.4h130.9v2.6H531.5v-2.6zm0 6h130.9v9.9H531.5v-9.9zm0 42.4h130.9v15.9H531.5v-15.9zm0 48.4V494h102.4c4.4-3 8.8-6.1 13.2-9.3 3-2.2 6-4.5 9-6.6H531.5zm0 48.5v15.9h10.8c12.2-4.9 24.1-10.2 35.7-15.9h-46.5zM304.3 306.2h-25.8v-22.9h25.8v22.9zm557.8-106.8h-25.8v-22.9h25.8v22.9zm0 53.2h-25.8v-22.9h25.8v22.9zm0 53.2h-25.8v-22.9h25.8v22.9zm0 53.3h-25.8v-22.9h25.8v22.9zm0 53.2h-25.8v-22.9h25.8v22.9zm0 53.2h-25.8v-22.9h25.8v22.9zM205.9 306.2h-25.8v-22.9h25.8v22.9zm98.4 56.5h-25.8v-22.9h25.8v22.9zm-98.4 0h-25.8v-22.9h25.8v22.9zm98.4 56.5h-25.8v-22.9h25.8v22.9zm-98.4 0h-25.8v-22.9h25.8v22.9zm98.4 56.5h-25.8v-22.9h25.8v22.9zm-98.4 0h-25.8v-22.9h25.8v22.9zm98.4 56.5h-25.8v-22.9h25.8v22.9zm-98.4 0h-25.8v-22.9h25.8v22.9zm98.4 48.4v-14.8h-25.8v12.7l25.8 2.1zm598.4-340.2v13.1h88.2v-13.1h-88.2zm79.3.8h7.2v11.5H982v-11.5zm-8.7 0h7.2v11.5h-7.3l.1-11.5zm-8.8 0h7.2v11.5h-7.2v-11.5zm-8.8 0h7.2v11.5h-7.2v-11.5zm-8.8 0h7.3v11.5H947l-.1-11.5zm-8.7 0h7.2v11.5h-7.2v-11.5zm-8.8 0h7.2v11.5h-7.2v-11.5zm-8.8 0h7.2v11.5h-7.2v-11.5zm-8.8 0h7.2v11.5h-7.2v-11.5zm-8.7 0h7.2v11.5h-7.2v-11.5zm-.4 37.3v13.1h88.2v-13.1h-88.2zm79.3.8h7.2v11.5H982v-11.5zm-8.7 0h7.2v11.5h-7.3l.1-11.5zm-8.8 0h7.2v11.5h-7.2v-11.5zm-8.8 0h7.2v11.5h-7.2v-11.5zm-8.8 0h7.3v11.5H947l-.1-11.5zm-8.7 0h7.2v11.5h-7.2v-11.5zm-8.8 0h7.2v11.5h-7.2v-11.5zm-8.8 0h7.2v11.5h-7.2v-11.5zm-8.8 0h7.2v11.5h-7.2v-11.5zm-8.7 0h7.2v11.5h-7.2v-11.5zm-.4 37.4v13.1h88.2v-13.1h-88.2zm79.3.8h7.2V329H982v-11.5zm-8.7 0h7.2V329h-7.3l.1-11.5zm-8.8 0h7.2V329h-7.2v-11.5zm-8.8 0h7.2V329h-7.2v-11.5zm-8.8 0h7.3V329H947l-.1-11.5zm-8.7 0h7.2V329h-7.2v-11.5zm-8.8 0h7.2V329h-7.2v-11.5zm-8.8 0h7.2V329h-7.2v-11.5zm-8.8 0h7.2V329h-7.2v-11.5zm-8.7 0h7.2V329h-7.2v-11.5zm-.4 37.3v13.1h88.2v-13.1h-88.2zm79.3.8h7.2v11.5H982v-11.5zm-8.7 0h7.2v11.5h-7.3l.1-11.5zm-8.8 0h7.2v11.5h-7.2v-11.5zm-8.8 0h7.2v11.5h-7.2v-11.5zm-8.8 0h7.3v11.5H947l-.1-11.5zm-8.7 0h7.2v11.5h-7.2v-11.5zm-8.8 0h7.2v11.5h-7.2v-11.5zm-8.8 0h7.2v11.5h-7.2v-11.5zm-8.8 0h7.2v11.5h-7.2v-11.5zm-8.7 0h7.2v11.5h-7.2v-11.5zm-.4 37.4v13.1h82.9c.1-.3.2-.5.3-.8H982v-11.5h7.2v2.9c.4-1.2.8-2.4 1.2-3.7h-87.7zm70.6.8h7.2v11.5h-7.3l.1-11.5zm-8.8 0h7.2v11.5h-7.2v-11.5zm-8.8 0h7.2v11.5h-7.2v-11.5zm-8.8 0h7.3v11.5H947l-.1-11.5zm-8.7 0h7.2v11.5h-7.2v-11.5zm-8.8 0h7.2v11.5h-7.2v-11.5zm-8.8 0h7.2v11.5h-7.2v-11.5zm-8.8 0h7.2v11.5h-7.2v-11.5zm-8.7 0h7.2v11.5h-7.2v-11.5zm-.4 37.3v13.1h55.1c.3-.3.6-.6.9-.8h-2.9V432h7.2v7.1l1.5-1.6V432h4.8c.2-.3.5-.6.7-.8l-67.3-.1zm44.3.8h7.3v11.5H947v-11.5zm-8.8 0h7.2v11.5h-7.2v-11.5zm-8.8 0h7.2v11.5h-7.2v-11.5zm-8.8 0h7.2v11.5h-7.2v-11.5zm-8.8 0h7.2v11.5h-7.2v-11.5zm-8.7 0h7.2v11.5h-7.2v-11.5zm-.4 37.4v7.9c.1 0 .3-.1.4-.1v-7h7.2v4.3l1.5-.6v-3.6h7.2v.4c.8-.4 1.7-.8 2.5-1.2l-18.8-.1zM323.6 269zm54.9 237.8h.9-.9zm58.6-119.5c.2-.5.3-1 .5-1.5-.1.5-.3 1-.5 1.5zM323.6 269zm506.8-120.6v3.4h40.5v-3.4h-40.5zM378.5 506.8h.9-.9zm58.6-119.5c.2-.5.3-1 .5-1.5-.1.5-.3 1-.5 1.5zM323.6 269zm54.9 237.8h.9-.9zm58.6-119.5c.2-.5.3-1 .5-1.5-.1.5-.3 1-.5 1.5z"/><ellipse class="st0" cx="903" cy="820.6" rx="34.6" ry="3.8"/><path class="st1" d="M668.3 535.3l-17.3-1-1.2-49.6-.3-11.8 18.2-3.4.1 15.2.5 50.6z"/><path class="st1" d="M654.9 526.6l-88.8 55.2-1.9 16.8 9.6.5v-12l58.1-32.6-70.1 86.9v13.4h11.5l-1-14.9 81.1-92.2 10.1 1 85.5 97 1.9 16.3 11.5.5-1.9-16.8-67.7-84.5 45.1 31.2 1 13.4 9.1.5-1-16.3-85.9-66.3-6.2 2.9z"/><path class="st2" d="M543.3 432.2c8.4-10.4 15.4-21.9 20.9-34.1 6.1-13.5 12.8-29.1 13.3-33.8 1-8.6 25.4-25.9 52.3-26.9 17.5-.6 44.8-14.3 61.7-23.8 15.9-9 33.6-14.5 51.8-16 19.8-1.5 38.4 2.4 29 25.3L646.7 475.2s-107.2 18.9-113.8-11.5c-.4-1.5-.9-3-1.5-4.5-1.3-2.8-1.6-10.3 11.9-27z"/><path class="st3" d="M552.8 435.2c8.4-10.5 15.5-22.1 21.1-34.4 5.7-12.6 11.8-26.8 12.2-31.1.9-8.3 24.3-24.8 50.1-25.7 16.8-.6 42.9-13.7 59.1-22.7 15.2-8.6 32.1-13.8 49.6-15.2 18.9-1.4 36.7 2.3 27.8 24.2l-99.7 146s-123 17.5-129.5-11.4c-.4-1.5-.9-3-1.5-4.5-1.3-2.9-1.5-9.9 10.8-25.2z"/><path class="st4" d="M668 484.7c-5.8 0-11.9 0-18.1-.1l-.3-11.8 18.2-3.4.2 15.3z"/><path d="M737.9 589.5l-45.1-31.2 5.2 6.5 40 27.6 1 13.4 9.1.5-.2-2.9-9-.5-1-13.4zm-164.1-5.3v2.9l53.8-30.3 4.3-5.3-58.1 32.7zm-12 67.7v2.9h11.5l-.2-2.9h-11.3zm12-55.7l-9.3-.5-.3 2.9 9.6.5v-2.9zm177.1 62.9l-1.9-16.3-85.5-97-10.1-1-81.1 92.2.2 2.7 81-92 10.1 1 85.5 97L751 662l11.5.5-.3-2.9-11.3-.5z"/><path class="st4" d="M657.8 390.1s22.5 16.4 12.6 16.6-12.6-16.6-12.6-16.6z"/><path class="st2" d="M563.4 480.1s37.2-2.9 51.1-29.8c0 0 28.3-56.2 51.4-62.4s65.8-20.2 83.5-41.8 25.2-38.2 25.2-38.2 4.6 17.5-9.8 38.1-19.7 52.4-29.8 86-13.9 47-32.2 49c-13.8 1.5-86.5.7-121.2 0-11.3-.2-18.2-.9-18.2-.9z"/><path class="st3" d="M563.4 480.1s37.2-2.9 51.1-29.8c0 0 28.3-56.2 51.4-62.4s65.8-20.2 83.5-41.8 25.2-38.2 25.2-38.2 4.6 17.5-9.8 38.1-19.7 52.4-29.8 86-13.9 47-32.2 49c-13.8 1.5-86.5.7-121.2 0-11.3-.2-18.2-.9-18.2-.9z"/><path class="st2" d="M572.8 480.1s35.6-2.8 48.9-28.8c0 0 27.1-54.4 49.1-60.4s62.9-19.5 79.8-40.4 24.1-37 24.1-37 4.3 17-9.4 37-18.8 50.7-28.5 83.2-13.3 45.5-30.7 47.4c-13.1 1.4-82.6.7-115.9 0-10.8-.3-17.4-1-17.4-1z"/><path class="st4" d="M544 466.1s19.4 7.4 30.5 3.4 38.4-16.1 38.4-16.1-46.1 2.9-68.9 12.7z"/><path class="st6" d="M674 815.4s-55.9-3-69.5-11-32.9-8-33-8L349 747.9l-92.5-22-16.5-2.2 54.5-62.4 1.7-.7 80.3-34.8s36 2 43.1 25.5c.5 1.7.8 3.3 1 5.1.7 7.3-1.3 14.6-5.7 20.5-2.8 3.9-6.3 9.4-7.4 14.2-.6 2.7-.5 5.3 1 7.2 3 3 6.3 5.6 9.9 7.9 19.6 13 69.1 34.4 155.6 1.6 0 0 37-36.5 65-21s35 128.6 35 128.6z"/><path class="st4" d="M407.5 691.2c-.6 2.7-.5 5.3 1 7.2 3 3 6.3 5.6 9.9 7.9L250 718.9l46.2-58.3 80.3-34.8s36 2 43.1 25.5c.5 1.7.8 3.3 1 5.1.7 7.3-1.3 14.6-5.7 20.5-2.8 4-6.3 9.5-7.4 14.3z"/><path class="st7" d="M243 461.9l138 3v165.2l-131 88.8-31.5-29 6.5-96-6.5-89.5 24.5-42.5z"/><path class="st8" d="M164.5 434.9l161.1-49.6c2.9-.9 5.9-1.2 9-1l384.9 28.1c32.9 2.3 64.6 13.4 91.7 32.3 24.9 17.6 49.6 44.5 61 85.4 8.3 30.1 7.7 62-1.7 91.8l-34 110s25.5-239-229-251l-443-46z"/><path class="st9" d="M250 458.4v265.3s-44.1-6.2-52-14.8c-6.4-7.1-43.8-27-59.9-47.5-3.6-4.5-6.1-9-7.1-13.5-5.4-24.7-27.5-83-27.5-83l6-57 25-37 48.5-22h37.5l29.5 9.5z"/><path class="st8" d="M180 461.9s-71.8 45-56.1 117.4c1.3 5.9 2.4 11.8 3.1 17.8 2.9 23.4 20.1 90.7 122.9 121.8v7l-43.6-12.2-29.6-16.3-22.6-20.3-27.6-33.7-12.8-27.5-4.7-36.2-2.7-41.3 6.6-35.5 15.6-23.1 19-14.8 32.5-3.1z"/><path class="st4" d="M250 458.4v42.2c-31.3 3.4-128.2 23-111 135l-.9 25.7c-3.6-4.5-6.1-9-7.1-13.5-5.4-24.7-27.5-83-27.5-83l6-57 25-37 48.5-22h37.5l29.5 9.6z"/><path d="M414.9 677c-2.8 3.9-6.3 9.4-7.4 14.2-4.4-5-5.3-10.8 1-15.3 7.9-5.7 10.5-15.7 11.1-24.5.5 1.7.8 3.3 1 5.1.8 7.3-1.3 14.6-5.7 20.5z" opacity=".1" fill="#fff"/><path class="st9" d="M819 703.9l-19 64.5-43 42-54 11-84-15V507.9s14.5-9.5 16-9.5 42 6.5 42 6.5l91.7 65.8 3.8 2.7 41 61 5.5 69.5z"/><path class="st7" d="M619 495.4v311l8.1 1.5V495.4H619z"/><path class="st4" d="M770.5 591.4c-60-49.3-126.7-56.5-151.5-57.5v-26s14.5-9.5 16-9.5 42 6.5 42 6.5l91.7 65.8 1.8 20.7z"/><path class="st6" d="M606.3 475.4l-375.8-41-42.2-2.2c-26.7-1.5-52.6 9.3-70.2 29.4-22 25.3-38.6 69.9-14.3 146.6 0 0 25.3 99.3 148 120.7l356.4 80.8c7.9 1.8 15.7 4 23.4 6.5 32.4 10.6 142 38.2 193.7-55.5 17.7-32.1 23-69.5 16.2-105.6-12.6-66-59.5-177.8-235.2-179.7zm184.1 280.9c-48.2 78.5-147.5 55.2-177.4 45.9-7.3-2.3-14.7-4.2-22.2-5.8L261.6 726c-113.4-18.6-136.9-105.4-136.9-105.4-19.2-57-10.8-93.8 4.7-117.1 16.2-24.4 44.4-38 73.7-36.5l38.9 2 336.2 45c6.8.9 13.7 1.5 20.5 1.7 149.5 5.1 196 87.3 207.8 143.9 6.9 33.1 1.7 67.9-16.1 96.7z"/><linearGradient id="SVGID_1_" gradientUnits="userSpaceOnUse" x1="-541.594" y1="144.288" x2="-541.594" y2="683.526" gradientTransform="rotate(180 -145.795 396.045)"><stop offset="0" stop-color="gray" stop-opacity=".25"/><stop offset=".54" stop-color="gray" stop-opacity=".12"/><stop offset="1" stop-color="gray" stop-opacity=".1"/></linearGradient><path d="M4.2 642.6c12.3 8.2 31 4.3 31 4.3s28.2-13.3 36.5-13.3 28.6-8.3 28.6-8.3l-.7-5.6-2-16.7c12.8 10 27.1 6.5 34.1 5.8 7.5-.8 47.8-24.7 51.7-26.3 1-.4 2.3-1.8 3.5-3.6 2.6-4 4.9-8.1 6.8-12.5 2.5-2.2 4.4-4 4.2-4.4s1-3.3 2.5-6.6c5.7-1 10.6-3.1 12.2-4.4 2.6-2.1 4.1-5.3 4-8.6 0 0 39.3-39.7 34.1-56.1s12.7-16.9 12.7-16.9 27.4-11.8 31.2-18.8c2.4-4.4 22.9-13.9 38.4-20.6l1.9-.8c6 13.1 36.5 3 42.5-2.5 6.4-5.9 25-8.6 25-8.6s.8-77 6.8-86.8c2.8-4.6 3.5-19.9 3.4-34.5v-1.6c8.3-1.6 28.2-5.4 37.4-6.3 5.8-.6 11.9-4.2 16.6-7.8l.5.7c1.6.7 3.3.9 5.1.8 1.5.2 3.1-.1 4.5-.8 3.6-2 16.7-5.9 21.4-7.9s-.8-16.1-4.4-18.9-6-6.3-4-7.9-4.8-5.5-8.7-6.3-15.9-6.3-15.9-6.3-4.4-9-11.5-9-16.7-7.1-16.7-7.1c-.4-3.1-7.9-3.5-7.9-3.5s-28.6-22-33.4-19.2-17.9-4.3-17.9-4.3-16.1 1.8-19.9-1.2c0-1-.4-1.9-1-2.7-.9-2.7-5-6.3-9-9.3.3-1.9.5-3.8.5-5.7 0-.8 0-1.6-.1-2.4v-.4l.6-5.5c0-1.8.5-3.6 1.4-5.2.7-1 1.7-1.9 2.4-2.8.2-.2.3-.5.5-.7l.1-.2.3-.6.1-.2c.2-.5.4-1.1.5-1.7v-.1c0-.3.1-.5.1-.8v-.1c.2-2.3-.1-4.6-.9-6.7-1.2-3.7-3-7.3-3.3-11.2-.1-1.9.2-3.9-.2-5.8-1-4.3-5.4-7-9.6-8.8-5.9-2.5-8.8-5.1-13.5-8.8-4-3.1-10.6-1.5-15.7-1.2-11.5.7-22.9 4.2-33.7 7.8-4.2 1.4-8.5 3-11.8 5.9-2.2 1.9-3.7 4.4-4.3 7.3-.1.7-.2 1.3-.1 2v.2c0 .3 0 .5.1.8v.3c0 .3.1.6.2.9.5 1.4 1.3 2.8 1.8 4.2.1.3.2.7.3 1v.1c.1.3.1.6.2 1 .4 3.6-.9 7.3-1.5 10.9-.1.5-.1 1-.2 1.6-.2 2.1 0 4.2.5 6.3v.1c.1.3.1.5.2.7 0 .1.1.2.1.3.1.2.2.4.2.6l.2.4c.1.2.2.4.3.5s.1.3.2.4c.1.2.2.3.3.5.1.2.2.3.3.5s.2.3.3.4.2.3.4.5l.3.4.4.4.3.3.5.4.3.3c.1.1.4.3.6.4l.3.2c.3.2.7.4 1 .5 2.3 1 5.2 1.4 6.5 3.4.3.5.6 1 .7 1.6v.8c0 1.2.1 2.3.2 3.4 0 .6 0 1.2.1 1.9.1.5.2.9.4 1.4 1.6 7.9 5.8 15 12 20.2.1.6.3 1.3.4 2.1-3.5 2.6-7.4 4.6-11.5 6-9.5 2.8-23 15.7-23 15.7s-6.7 48.3-8.3 54.2-2.8 28.7-2.8 28.7-1.6 9.4-4 14.1c-1.7 3.3-1.4 17.6 3.3 26.3-.8 1.7-1.7 3.3-2.9 4.8-9.5 11-38.1 10.6-47.6 10.6-8.8 0-11.5 5.3-11.9 6.2-17.5 5-74 21.1-80.7 24-7.9 3.5-12.3 37.8-12.3 37.8S70.7 487.5 71.5 495s-5.6 28.2-5.6 28.2 0 23.5-2.7 25.1h-.1c-2.8 1.2-2.4 12.6-2.4 12.6s2.1.6 5.2 1.4c-.9 5.8-4 13.8-6.4 19.5-1.2-1.6-2.4-2.2-3.2-.4-2 5-31.8 40.3-39.3 40.3-3.6 0-9.5 2.9-13.4 6.9-4 4-5.8 9.6.6 14zM140.8 438c33.8 3.1 69.9-2.4 69.9-2.4s-2.8 9.9-5.2 13.8-9.1 26.3-9.1 31c0 4.7-10.7 45.2-13.9 47.1-1.3.8-2.5 2.9-3.5 5-.8 2-1.5 4-2.1 6 0 1 .1 2 .3 2.9-2.4 2.2-4.9 4.5-7.1 6.5s-14.2 7.9-19 12.2-27 9.6-27 9.6c-5.5 2.4-10.8 5.1-16 8.2-6.9 4.2-13.8 9.4-15.6 14.6.8-8.8 2.1-19.3 2.9-26.1h1.3c11.1-.7 9.5-11.3 8.9-13.9-.1-.4-.1-.6-.1-.6 7.9-8.6 25.8-73 23.4-80.1-2.4-7.1 2-13.4 2.9-13.4s2.2-7.9.3-12.2c-2.1-4.3 8.7-8.2 8.7-8.2zm272.9-173.2l-2.1.5v-.5h2.1zm-115.4-59.3c-.3.4-.6.8-1 1.1l-.4.4v-2.2c.5.3 1 .5 1.4.7zm-39.7 76.2l.1 2.2s-.2 1.4-.6 3.7l.5-5.9zM441 259.8l-6.9 1.2c1-.4 2-.8 2.9-1.2.7-.3 1.4-.5 2.2-.6.9.1 1.7.3 2.6.5-.3 0-.6 0-.8.1z" fill="url(#SVGID_1_)"/><path class="st12" d="M206.7 543.2s-8 16.5-7.6 17.7-17.1 15.2-17.1 15.2l-19.1-13.6 2-9.4s21.4-19.3 23-21.5 18.8 11.6 18.8 11.6z"/><path class="st13" d="M97.8 599.1c13.3 12.9 28.8 9 36.2 8.2s46.9-24.5 50.7-26.1c1-.4 2.3-1.8 3.5-3.5 2.5-3.9 4.8-8.1 6.7-12.4-.3.1-13.2 3.8-16.5 0 0 0-5.5-6.7-6.6-6.7s-.1-11.7-.1-11.7-13.9 7.8-18.6 12.1-26.5 9.5-26.5 9.5c-5.4 2.3-10.6 5.1-15.7 8.1-10.3 6.3-20.7 15.2-13.1 22.5z"/><path class="st4" d="M97.8 599.1c13.3 12.9 28.8 9 36.2 8.2s46.9-24.5 50.7-26.1c1-.4 2.3-1.8 3.5-3.5-4.6-2.8-34.7 16.4-43.2 19.9s-29.8 1.5-41.9-3.5c-6-2.5.1-10.3 7.7-17.4-10.2 6.2-20.6 15.1-13 22.4z"/><path class="st12" d="M99.4 558.6s-5.6 41.7-4.1 47.2S60.4 587 60.4 587s12.7-26.1 9-32.1 30 3.7 30 3.7z"/><path class="st14" d="M64.7 559.3s22.6 6.6 35.1 5.8c10.9-.7 9.3-11.2 8.7-13.8-.1-.4-.1-.6-.1-.6 7.8-8.6 25.3-72.5 23-79.5s1.9-13.2 2.9-13.2 2.2-7.8.2-12.1 8.6-8.2 8.6-8.2c33.1 3.1 68.6-2.4 68.6-2.4s-2.7 9.8-5.1 13.7-9 26.1-9 30.8-10.5 44.8-13.6 46.8c-1.3.8-2.5 2.9-3.4 5-.8 2-1.5 4-2.1 6 1.2 26.1 30.8 16 35.1 12.5.6-.5 1.2-1.1 1.7-1.7 1.5-2 2.3-4.4 2.2-6.9 0 0 38.6-39.4 33.5-55.7s12.5-16.8 12.5-16.8 26.9-11.7 30.6-18.7c2.3-4.3 22.5-13.8 37.6-20.4 9.5-4.2 17.1-7.2 17.1-7.2l-6.3-22.7-5-17.9-9.4-3.5-30-11.3-53.8-7.5-4.9.6-52.3 6.8S110.8 389 103 392.5 90.8 430 90.8 430s-16.4 56.5-15.6 63.9-5.5 28-5.5 28 0 23.3-2.7 24.9h-.1c-2.6 1.3-2.2 12.5-2.2 12.5z"/><path class="st4" d="M143 437.8c33.1 3.1 68.6-2.4 68.6-2.4 2.3-7.4 35.1-27.6 35.1-27.6-26.9-6.7-103.7 30-103.7 30z"/><path class="st14" d="M178.5 537.5c1.2 26.1 30.8 16 35.1 12.5.6-.5 1.2-1.1 1.7-1.7-10.4 3.8-28.7 6.8-34.7-16.7-.9 1.9-1.6 3.9-2.1 5.9zM64.7 559.3s22.6 6.6 35.1 5.8c10.9-.7 9.3-11.2 8.7-13.8-11.4-.4-31.1-1.4-41.4-4.5H67c-2.7 1.3-2.3 12.5-2.3 12.5z"/><path class="st4" d="M178.5 537.5c1.2 26.1 30.8 16 35.1 12.5.6-.5 1.2-1.1 1.7-1.7-10.4 3.8-28.7 6.8-34.7-16.7-.9 1.9-1.6 3.9-2.1 5.9zM64.7 559.3s22.6 6.6 35.1 5.8c10.9-.7 9.3-11.2 8.7-13.8-11.4-.4-31.1-1.4-41.4-4.5H67c-2.7 1.3-2.3 12.5-2.3 12.5z"/><path class="st13" d="M9 640.8c12.1 8.2 30.4 4.3 30.4 4.3s27.7-13.2 35.8-13.2 28-8.2 28-8.2l-.7-5.5-3.2-26.4s-30.3-.8-31.6-3.5c0 0-5.5-13.4-7.4-8.5s-31.2 40-38.6 40c-3.5 0-9.4 2.9-13.2 6.9-4.1 4.2-5.9 9.8.5 14.1z"/><path class="st4" d="M113.8 410.5s25.3 16 18.3 19.5-18.3-19.5-18.3-19.5zm-10.6 30.8s21.8 20.7 13.6 21.3-13.6-21.3-13.6-21.3zm-23.3 65.8s11.1 20.8 6.9 24.4-6.9-24.4-6.9-24.4zm122 21.1c-3.9 3.9 37-12.9 27.7-13.6s-27.7 13.6-27.7 13.6z"/><path class="st12" d="M283.7 235.9l1.3-.2c4.8-.7 22.4-3.5 38.2-6.9 3.8-.8 7.6-1.7 11-2.6 12.1-3.2 20.2-6.6 15-9.4-6.8-3.7-10.4-10.4-12.3-16.3-.2-.6-.4-1.1-.5-1.7-.8-2.9-1.4-6-1.6-9 0 0-44-15.6-35.5 0 4.2 7.6 1.4 13.9-2.6 18.3-2.7 2.9-5.9 5.3-9.5 7.1l-3.5 20.7z"/><path class="st4" d="M330.8 223.9s-15.8 11.3-31.8 1.9-37.1 82.6-37.1 82.6L240 362.2s-14.1 11.7 3.5 16.8 56.6-5.1 66.5 9.7 28.7 17.1 30.6 17.1 9.3-55.7 9.3-55.7l1.9-80.7-21-45.5z"/><path d="M244.2 375.8c17.6 5.1 56.6-5.1 66.5 9.7 4.2 6 10 10.7 16.8 13.5 4.4 2 9.1 3.2 13.8 3.7.3 0 .6-1 1-2.8 2.7-11.3 8.3-52.9 8.3-52.9l1.9-80.7-18.5-40.1-2.5-5.5c-2.5 1.7-5.2 3-8 3.9-6.1 2.1-14.9 3.2-23.8-2-4.7-2.7-9.9 3.2-14.8 13.1-11.8 23.6-22.4 69.6-22.4 69.6l-21.8 53.8c-.5.4-1 .9-1.5 1.4-3 3.3-8.8 11.3 5 15.3z" fill="#f3f5f9"/><path class="st4" d="M328.1 378.5c-.9 6.8-1 13.7-.5 20.5.6 9.7 1.9 19.4 3.7 29 .1.6.3 1.2.5 1.8 9.5-4.2 17.1-7.2 17.1-7.2l-6.3-22.7c2.7-11.3 8.3-52.9 8.3-52.9l1.9-80.7-18.5-40.1c12.1-3.2 20.2-6.6 15-9.4-7.5-4.1-11.1-11.8-12.9-17.9-3.2 4.4-6.9 8.4-11 11.9l-.4.2-1.4 13.6-.4 4.2-.9 8.7s4.3 102.5 7.4 108.3 1.6 17.1-1.2 30.4c-.2.8-.3 1.5-.4 2.3z"/><path class="st13" d="M330 374.6c-2.7 13.3-.4 35.1 2.7 51.8s36.2 5.9 42.5 0 24.5-8.6 24.5-8.6.8-76.4 6.6-86.1c2.8-4.6 3.4-19.7 3.4-34.3 0-13.1-.7-25.8-.9-30-.1-1-.1-1.5-.1-1.5s25.3-42.9 24.9-46-7.8-3.5-7.8-3.5-28-21.8-32.7-19.1-17.5-4.3-17.5-4.3-16.3 1.9-19.7-1.3c-.4-.4-.6-.9-.6-1.4.4-5-16.6-15.6-17.1-16 14.3 12.9-8.8 32.7-11.5 34.9l-.2.2-2.7 26.4s4.3 102.5 7.4 108.3 1.6 17.3-1.2 30.5z"/><circle class="st14" cx="331.5" cy="263.3" r="2"/><path class="st4" d="M327.6 210.8l11.8 11.4 17.4-29c-.4-.4-.6-.9-.6-1.4.4-5-16.6-15.6-17.1-16 14.2 13-8.9 32.9-11.5 35z"/><circle class="st4" cx="335.5" cy="325.7" r="2"/><circle class="st14" cx="335.5" cy="324.9" r="2"/><path class="st13" d="M326.8 209.3l11.8 11.4 17.4-29c-.4-.4-.6-.9-.6-1.4.4-5-16.6-15.6-17.1-16 14.3 13-8.9 32.8-11.5 35z"/><path class="st16" d="M339.9 318.9l-23.7-.5c-.9 0-1.7-.8-1.7-1.7l1.2-53.9c0-.9.8-1.7 1.7-1.7l23.7.5c.9 0 1.7.8 1.7 1.7l-1.2 53.9c0 1-.7 1.8-1.7 1.7z"/><path class="st17" d="M340.1 320.2l-23.7-.5c-.9 0-1.7-.8-1.7-1.7l1.2-53.9c0-.9.8-1.7 1.7-1.7l23.7.5c.9 0 1.7.8 1.7 1.7l-1.2 53.9c0 1-.8 1.7-1.7 1.7z"/><circle class="st18" cx="329.6" cy="279.4" r="4.3"/><path class="st4" d="M182.8 371.1c9.7 4.3 73.6-7 83-9.7s23-23.8 16.4-39 2.3-30 2.3-30 14-30 17.1-35.9 9.6-22.9 10.5-25.7c.1-.6-.1-1.3-.5-1.8-2.5-3.8-12.3-10.6-12.3-10.6-2.8 1-3.1-6.9-3-12.7.1-3.2.3-5.8.3-5.8s-1.3 1.3-3.4 3.1c-.8.6-1.6 1.4-2.6 2.1-3.7 2.9-7.8 5.2-12.2 6.7-9.4 2.8-22.6 15.5-22.6 15.5l3.9 59.8s-9 56.3-18.3 67.2-37.4 10.5-46.8 10.5-11.9 6.3-11.8 6.3z"/><path class="st13" d="M182 368.8c9.7 4.3 73.6-7 83-9.8s23-23.8 16.4-39 2.3-30 2.3-30 14-30 17.1-35.9 9.6-22.9 10.5-25.7c.1-.6-.1-1.3-.5-1.8-2.6-3.8-12.3-10.6-12.3-10.6-2.8 1-3.1-6.9-3-12.7.1-3.3.3-5.8.3-5.8s-1.3 1.3-3.4 3.1c-.8.6-1.6 1.4-2.6 2.1-3.7 2.9-7.8 5.2-12.3 6.7-9.4 2.8-22.6 15.5-22.6 15.5l3.9 59.8s-9 56.3-18.3 67.2-37.4 10.5-46.8 10.5-11.7 6.4-11.7 6.4z"/><path class="st4" d="M288 199.1s.4 2.1 1 5.2c2.1 10.7 7.1 34.1 10.7 33.2 2.6-.6 7-5.2 10.4-9.2-2.5-3.9-12.3-10.7-12.3-10.7-2.8 1-3.1-6.9-3-12.7l-3.1-2.7-3.7-3.1z"/><path class="st13" d="M288.7 197.6s.4 2.1 1 5.2c2.1 10.7 7.1 34.1 10.7 33.2 2.6-.6 7-5.2 10.4-9.2-2.6-3.9-12.3-10.6-12.3-10.6-2.8 1-3.1-6.9-3-12.7l-3.1-2.7-3.7-3.2z"/><path class="st12" d="M263.8 312.3s19.5-3.9 24.9-12.5 42.6-16 38-7-38 38.3-38 38.3l-14.5 20.8-19.4-4.9-8.2-15.9 17.2-18.8z"/><path class="st4" d="M309.9 334.5s-18.9 7-21.7 16.4 21.7-16.4 21.7-16.4zm11.6 10.9s1.7 9.7-21.9 9l21.9-9zm102.1-124.7l8.6-.8s9.4 7 16.4 7 11.3 9 11.3 9 11.7 5.5 15.6 6.2 10.5 4.7 8.6 6.2.4 5.1 3.9 7.8 9 16.8 4.3 18.7-17.5 5.8-21 7.8-7.8 0-7.8 0-20.6-26.9-31.2-21.8c-10.5 5.1-25 5-25 5L396 242l27.6-21.3z"/><path class="st13" d="M244.2 349c1.8 2.7 4.2 4.7 7.3 5 7.6.9 15.4.2 22.7-2.1 0 0-39.3-12.5-1.5-42.8h-10.1l-3.4-1.3 1.5-8.1L263 227l-8.2-1.9s-6.6 47.9-8.2 53.8-2.8 28.5-2.8 28.5-1.6 9.4-3.9 14c-1.7 3.4-1.2 19.2 4.3 27.6z"/><path class="st4" d="M245.8 349c1.8 2.7 4.2 4.7 7.3 5 7.6.9 15.4.2 22.7-2.1 0 0-39.3-12.5-1.5-42.8h-10.1l-3.4-1.3c-5.6 9.9-14.3 27.3-15 41.2z"/><path class="st2" d="M244.2 349c1.8 2.7 4.2 4.7 7.3 5 7.6.9 15.4.2 22.7-2.1 0 0-39.3-12.5-1.5-42.8h-10.1l-3.4-1.3c-5.5 9.9-14.2 27.3-15 41.2z"/><path class="st13" d="M244.2 349c1.8 2.7 4.2 4.7 7.3 5 7.6.9 15.4.2 22.7-2.1 0 0-39.3-12.5-1.5-42.8h-10.1l-3.4-1.3c-5.5 9.9-14.2 27.3-15 41.2z"/><path class="st4" d="M296.7 208.2c13.6 6.2 29.7 3.1 40.1-7.6-.2-.6-.4-1.1-.5-1.7-.8-2.9-1.4-6-1.6-9 0 0-44-15.6-35.5 0 4.3 7.7 1.4 13.9-2.5 18.3z"/><path class="st12" d="M275.9 174.4v.4c0 1.1.1 2.3.2 3.4s.3 2.1.5 3.2c3.8 19.2 22.5 31.7 41.7 27.8 12.4-2.5 22.5-11.3 26.6-23.2.2-.7.5-1.4.6-2.1.9-3.1 1.3-6.3 1.3-9.4 0-.8 0-1.6-.1-2.4-1.4-19.5-18.4-34.2-37.9-32.8-18.5 1.1-32.9 16.5-32.9 35.1z"/><path class="st4" d="M275.9 174.7c.2 1.1.3 2.3.2 3.4 0 .6 0 1.2.1 1.9.1.5.2.9.4 1.3 1.4 3.4 6.1 5.5 9.2 3.4 1.2-1 2.1-2.2 2.8-3.6 3.3-6.1 7.8-13.1 15-13.2 3.1-.1 5.9 1.2 8.9 2s6.5.8 8.7-1.2c1.7-1.6 2.5-4.2 4.8-4.7s4.4 1.5 5.4 3.6 1.9 4.4 4 5.5c.9.5 2 .6 3 1.1 4.2 2.3 2.3 10.4 6.7 11.8.1 0 .3.1.4.1.1-.7.1-1.5.2-2.2.4-4 .8-7.9 1.2-11.9-1.4-19.5-18.4-34.2-37.9-32.8-18.5 1.3-32.9 16.7-32.9 35.3l-.2.2z"/><path d="M338.9 121.4c4.2 1.8 8.5 4.5 9.4 8.7.4 1.9.1 3.8.2 5.7.2 3.8 2 7.4 3.2 11.1s1.6 8-.8 11.1c-.7 1-1.7 1.8-2.4 2.8-.9 1.6-1.3 3.4-1.4 5.2l-1.9 19.2c-4.9-.9-2.7-9.5-7.1-11.9-.9-.5-2-.6-3-1.1-2.1-1-2.9-3.4-4-5.5s-3.1-4.1-5.4-3.6-3.1 3.2-4.8 4.7c-2.2 2-5.7 1.9-8.7 1.2s-5.8-2-8.9-2c-7.2.1-11.7 7.1-15 13.2-.6 1.4-1.6 2.7-2.8 3.6-3.5 2.4-9-.6-9.6-4.7-.3-2.3.4-4.8-.9-6.8s-4.2-2.4-6.4-3.4c-5.7-2.6-7.5-9.7-6.5-15.7.7-4.3 2.4-8.7 1-12.9-.5-1.4-1.3-2.7-1.8-4.2-1.3-4 .8-8.4 4-11.3s7.4-4.4 11.6-5.8c10.6-3.6 21.8-7 33.1-7.7 5-.3 11.4-1.9 15.4 1.2 4.8 3.8 7.7 6.5 13.5 8.9z" fill="#585268"/><circle class="st4" cx="329.6" cy="232.5" r="2"/><circle class="st14" cx="329.6" cy="231.8" r="2"/><circle class="st4" cx="342.1" cy="354.9" r="2"/><circle class="st14" cx="342.1" cy="354.1" r="2"/><circle class="st4" cx="335.5" cy="387.2" r="2"/><circle class="st14" cx="335.5" cy="386.5" r="2"/><path class="st4" d="M268.5 263.3s-4.3 29.1 0 34.2 0-34.2 0-34.2zm127.4 54.1s8.2 17.6 0 34.5-13.3 23.8-10.5 34.6 10.5-69.1 10.5-69.1zM9 640.8c12.1 8.2 30.4 4.3 30.4 4.3s27.7-13.2 35.8-13.2 28-8.2 28-8.2l-.7-5.5c-8.1 1.5-26.4 5.3-28.6 7.1-2.7 2.3-36.2 13.6-36.2 13.6S14.9 636 8.6 626.6c-4.2 4.4-6 9.9.4 14.2z"/><path d="M348.5 132.8v-1.3 1.3zm-79.7 33.1c2.2 1 5 1.4 6.4 3.4s.6 4.5.9 6.8c.6 4.1 6.1 7.2 9.6 4.7 1.2-1 2.1-2.2 2.8-3.6 3.3-6.1 7.8-13.1 15-13.2 3.1-.1 5.9 1.2 8.9 2s6.5.8 8.7-1.2c1.7-1.5 2.5-4.2 4.8-4.7s4.4 1.5 5.4 3.6 1.9 4.4 4 5.5c.9.5 2 .6 3 1.1 4.4 2.4 2.2 11 7.1 11.9.7-6.4 1.3-12.8 1.9-19.2 0-1.8.5-3.6 1.4-5.2.7-1 1.6-1.8 2.4-2.8.9-1.2 1.4-2.6 1.6-4.1.4 2.5-.2 5.1-1.6 7.2-.7 1-1.7 1.8-2.4 2.8-.9 1.6-1.3 3.4-1.4 5.2-.7 6.4-1.3 12.8-1.9 19.2-4.9-.9-2.7-9.5-7.1-11.9-.9-.5-2-.6-3-1.1-2.1-1-2.9-3.4-4-5.5s-3.1-4.1-5.4-3.6-3.1 3.2-4.8 4.7c-2.2 2-5.7 1.9-8.7 1.2s-5.8-2-8.9-2c-7.2.1-11.7 7.1-15 13.2-.6 1.4-1.6 2.7-2.8 3.6-3.5 2.4-9-.6-9.6-4.7-.3-2.3.4-4.8-.9-6.8s-4.2-2.4-6.4-3.4c-5.2-2.4-7.1-8.6-6.7-14.1.4 4.6 2.5 9.1 6.7 11zm-7.3-32.7c.5 1.4 1.3 2.7 1.8 4.2.5 1.7.7 3.4.4 5.1-.1-.7-.2-1.4-.4-2-.5-1.4-1.3-2.7-1.8-4.2-.4-1.3-.5-2.7-.2-4.1.1.4.1.7.2 1z"/><path class="st20" d="M481.4 454.1l-80.3-10c-1.7-.2-2.9-1.7-2.7-3.4.1-.7.4-1.3.8-1.8l33.7-35c.7-.7 1.6-1 2.6-.9l61.4 6.9c1.7.2 2.9 1.7 2.7 3.4 0 .3-.1.5-.2.8l-14.8 38.2c-.5 1.2-1.8 2-3.2 1.8z"/><path class="st4" d="M481.4 454.1l-80.3-10c-1.7-.2-2.9-1.7-2.7-3.4.1-.7.4-1.3.8-1.8l33.7-35c.7-.7 1.6-1 2.6-.9l61.4 6.9c1.7.2 2.9 1.7 2.7 3.4 0 .3-.1.5-.2.8l-14.8 38.2c-.5 1.2-1.8 2-3.2 1.8z"/><path class="st20" d="M480.5 453.2l-80.3-10.1c-1.7-.2-2.9-1.8-2.7-3.4.1-.7.4-1.3.8-1.7l33.7-35c.7-.7 1.6-1 2.6-.9L496 409c1.7.2 2.9 1.7 2.7 3.4 0 .3-.1.5-.2.8l-14.8 38.2c-.5 1.2-1.8 2-3.2 1.8z"/><path class="st16" d="M432.6 416.7l24.1 1.9 34.4-2.2h-.6l-31.9-3.1c-7.3-2.7-2.2-18.5-2.2-18.5L432 396l-2 .1c-8.6 20.3 2.6 20.6 2.6 20.6z"/><path class="st4" d="M432.6 416.7l24.1 1.9 34.4-2.2h-.6l-34.8 1.2-23.3-2.5c-6.6-1.7-2.8-13.2-.4-19l-2 .1c-8.6 20.2 2.6 20.5 2.6 20.5z"/><path d="M390.4 273.2l7.4 105.9 1 13.9c.2 3.2 2.9 5.6 6.1 5.6h2.2l111.1-.7c1.7 0 3.1-1.4 3.1-3.2v-.3l-1-13.9-7.8-93.1c-.2-2.5-1.9-4.6-4.3-5.4l-105.9-15.9c-3.6-1.3-7.3-.8-9.6 1.1-1.7 1.6-2.6 3.8-2.3 6z" fill="#4c4c56"/><path class="st17" d="M397.7 379.1l1 13.9c.2 3.2 2.9 5.6 6.1 5.6h2.2l111.1-.7c1.7 0 3.1-1.4 3.1-3.2v-.3l-1-13.9-122.5-1.4z"/><ellipse class="st18" cx="472.2" cy="390.6" rx="1.5" ry="3"/><path class="st16" d="M467.9 430.2s-30.4-11.5-38.6-3.1c0 0-1.3 2.5 4.2 3.1l22.3 1.8s9.1.9 12.1-1.8z"/><path class="st17" d="M467.1 427.2c-6-2.4-23.9-8.8-35.4-1.8 0 0 12.7-1.4 19.7 2.6s16.5 2.1 16.5 2.1l.1-.3c.5-.9.2-2.1-.7-2.6-.1.1-.1.1-.2 0zm-76.7-154l8.3 119.8c.2 3.2 2.9 5.6 6.1 5.6h2.2c-1.5-1.5-2.8-3.1-3.9-5 0 0-8.2-120.3-8.8-123.3-.3-1.1-.8-2.1-1.6-2.9-1.7 1.4-2.6 3.6-2.3 5.8z"/><path class="st4" d="M390.4 273.2l8.3 119.8c.2 3.2 2.9 5.6 6.1 5.6h2.2c-1.5-1.5-2.8-3.1-3.9-5 0 0-8.2-120.3-8.8-123.3-.3-1.1-.8-2.1-1.6-2.9-1.7 1.4-2.6 3.6-2.3 5.8z"/><path class="st4" d="M376 306.4c9-2 30-8.2 30-8.2l3.8-.8c0-13.1-.7-25.8-.9-30h-.1s-17.9 5.9-22.2 9-17.5 2.3-17.5 2.3-20.6 1.1-37.8 20.2 35.8 9.5 44.7 7.5z"/><path class="st12" d="M463.6 271.7c2.6 1.2 3.8 4.3 2.6 6.9-.3.7-.8 1.3-1.4 1.8-4.8 3.9-11.7 8.6-18.3 9.3-11 1.1-37.6 6.4-40.2 7-.1 0-.3.1-.4.1-2.2.6-21.4 6.3-29.8 8.1-9 2-62 11.7-44.8-7.4 15.8-17.6 34.5-20 37.4-20.2h.7c2 .1 13.3.5 17.2-2.4 2-1.3 4.2-2.4 6.4-3.2 8.5-3.5 17.3-6.1 26.4-7.6l18.3-3.2c1-.2 2.1 0 3.1.4l22.8 10.4z"/><path class="st13" d="M425.1 220.7l8.6-.8s9.4 7 16.4 7 11.3 9 11.3 9 11.7 5.5 15.6 6.2 10.5 4.7 8.6 6.2.4 5.1 3.9 7.8 9 16.8 4.3 18.7-17.5 5.8-21 7.8-7.8 0-7.8 0-20.7-26.9-31.2-21.8-24.9 5.1-24.9 5.1l-11.3-23.8 27.5-21.4z"/><path class="st22" d="M880.5 809.9h43.8v11.5h-43.8v-11.5z"/><path class="st22" d="M873.5 772.5h57.2v40.2h-57.2v-40.2z"/><path class="st4" d="M880.5 809.9h43.8v11.5h-43.8v-11.5z"/><path class="st4" d="M873.5 772.5h57.2v40.2h-57.2v-40.2z"/><path class="st22" d="M883.4 809.9h43.8v11.5h-43.8v-11.5z"/><path class="st2" d="M938.2 710.7c-1 1.3-1.7 2.8-2.3 4.3-.2.4-.3.8-.4 1.2-.3-.1-.5-.2-.8-.3-1.2-.3-2.4-.4-3.6-.3 0-.5 0-1 .1-1.5.1-5.3-.5-12.6-5.5-9.5-4.8 3-1.4 8 1.7 11.2l.8.8c-2.8 2-3.4 6.7-3.8 11.6s-4.6 10.3-7.4 13.3c-.3.3-.5.6-.8.8-2.3-1.8-5.2-2.5-8-2.1l-.4-1.3c-2.2-8.1-6.9-22.1-12.8-25.2.3-.3.5-.6.8-1 2.5-3.3 5.3-8.2 1.2-9.4s-4.6 4.3-4.3 8.4c0 .5 0 1 .1 1.5-1.7.1-3.3.9-4.4 2.1l-.6-.8c-3.4-4-9.6-10.4-11.5-5.6-1.8 4.5 3.7 10.3 7.6 13.7l.2.2c-2.6 10.5 8.7 19.1 14.8 22.8l.8.5c-8.4 9.9-13.6 28.5-13.6 28.5l23.5 4.2s15.6-13.5 13.6-26.1h.2c15.6-3.1 19.1-19.7 16.7-29.6l.3-.1c2.8-1.2 5.3-3 7.2-5.5 4.2-5.9-4.9-12.7-9.4-6.8z"/><path class="st2" d="M910.7 744.9l-6.8 3c-1.2-.6-2.5-1.3-3.6-2.1-7.2-4.4-21.7-15.5-12-28.7s17.8 10.4 21 21.9c.9 3.5 1.4 5.9 1.4 5.9zm14 7.9c-.4.1-.8.2-1.2.2-22.9 3.5-7.6-8.9-7.6-8.9s1-1 2.4-2.5c2.8-3 6.9-8.4 7.4-13.3.7-7.4 1.6-14.4 10.3-12.4 8.8 2.1 10.4 32.6-11.3 36.9zm-33.3-35.3l-2.8 8s-1.5-1.1-3.5-2.8c-3.9-3.4-9.3-9.2-7.6-13.7 1.9-4.8 8.1 1.5 11.5 5.6 1.5 1.7 2.4 2.9 2.4 2.9zm5.8-4.6c-.8 1.1-1.7 2.2-2.7 3.2-.2-1.4-.4-2.8-.5-4.2-.2-4.1.2-9.6 4.3-8.4s1.4 6.1-1.1 9.4zm35.5 1.3c-.1 2.7-.3 4.8-.3 4.8-1.2-.9-2.4-2-3.4-3.1-3.1-3.2-6.5-8.2-1.7-11.2 4.9-3.1 5.5 4.2 5.4 9.5zm16.2 3.5c-1.9 2.4-4.4 4.3-7.2 5.5l-2.4.9-3.2-4.5c.3-1.5.8-3 1.3-4.4.5-1.5 1.3-3 2.3-4.3 4.4-6.1 13.6.7 9.2 6.8zm-61.4 57.1s12.8-46 30.8-31.8-7.3 36-7.3 36l-23.5-4.2z"/><path class="st4" d="M883.4 809.9h43.8v4.2h-43.8v-4.2z"/><path class="st22" d="M876.4 772.5h57.2v40.2h-57.2v-40.2z"/><path class="st4" d="M893.9 722.9c.8 0 1.4.6 1.4 1.4s-.6 1.4-1.4 1.4-1.4-.6-1.4-1.4.6-1.4 1.4-1.4zm-.1 6.7c.8 0 1.4.6 1.4 1.4s-.6 1.4-1.4 1.4-1.4-.6-1.4-1.4.6-1.4 1.4-1.4zm41.8-5.4c.8 0 1.4.6 1.4 1.4s-.6 1.4-1.4 1.4-1.4-.6-1.4-1.4.6-1.4 1.4-1.4zM902 758.7c.8 0 1.4.6 1.4 1.4s-.6 1.4-1.4 1.4-1.4-.6-1.4-1.4.6-1.4 1.4-1.4zm30.6-23.3c.8 0 1.4.6 1.4 1.4s-.6 1.4-1.4 1.4-1.4-.6-1.4-1.4.6-1.4 1.4-1.4zm-14.9 14.9c.8 0 1.4.6 1.4 1.4s-.6 1.4-1.4 1.4-1.4-.6-1.4-1.4.6-1.4 1.4-1.4zm-18.9-24.5c.8 0 1.4.6 1.4 1.4s-.6 1.4-1.4 1.4-1.4-.6-1.4-1.4.7-1.4 1.4-1.4zm32.8 2.7c.8 0 1.4.6 1.4 1.4s-.6 1.4-1.4 1.4-1.4-.6-1.4-1.4.6-1.4 1.4-1.4zm-4.9 11.2c.8 0 1.4.6 1.4 1.4s-.6 1.4-1.4 1.4-1.4-.6-1.4-1.4.6-1.4 1.4-1.4zm-15.1 17.9c.8 0 1.4.6 1.4 1.4s-.6 1.4-1.4 1.4-1.4-.6-1.4-1.4.6-1.4 1.4-1.4zm-3.1-7.1c.8 0 1.4.6 1.4 1.4s-.6 1.4-1.4 1.4-1.4-.6-1.4-1.4.6-1.4 1.4-1.4zm-7.5-16c.8 0 1.4.6 1.4 1.4s-.6 1.4-1.4 1.4-1.4-.6-1.4-1.4.6-1.4 1.4-1.4zm12.5 29.6c.8 0 1.4.6 1.4 1.4s-.6 1.4-1.4 1.4-1.4-.6-1.4-1.4.6-1.4 1.4-1.4zm-8.7 1.8c.8 0 1.4.6 1.4 1.4s-.6 1.4-1.4 1.4-1.4-.6-1.4-1.4.7-1.4 1.4-1.4z"/></svg>