<?xml version="1.0" encoding="utf-8"?>
<!-- Generator: Adobe Illustrator 22.1.0, SVG Export Plug-In . SVG Version: 6.00 Build 0)  -->
<svg version="1.1" id="图层_1" xmlns="http://www.w3.org/2000/svg" xmlns:xlink="http://www.w3.org/1999/xlink" x="0px" y="0px"
	 viewBox="0 0 965.6 800.8" enable-background="new 0 0 965.6 800.8" xml:space="preserve">
<path opacity="0.1" enable-background="new    " d="M901.9,442.5c-37.1,60-30.1,141.7-13.8,206.2
	c5.5,21.6,11.7,44.4,7.1,68.5c-5.7,29.5-26.5,52.7-47.5,66c-38.3,24.2-82.1,23.5-114-1.8c-27.5-21.8-45.7-59.8-73.8-80.5
	c-47-34.5-111.5-13.6-167.6,18.7c-39.6,22.8-83.3,51.8-119.9,35.4c-25.8-11.5-41.8-44.1-49.3-79.5c-3.6-17.1-5.8-35.8-14.1-48.8
	c-4.9-7.7-11.7-12.9-18.8-17.2C225.9,570.8,139,603.2,77,559.4c-41.8-29.6-65.6-90.8-73.5-156.2s-1.4-135.4,6.7-204.3
	c5.7-49,13.5-101.4,39.2-141.3c27.2-42.2,70.1-61,107.4-57s69.6,27.6,97.6,56.5c34.9,36.1,66.3,82.2,111.4,93.8
	c30.7,7.9,64.3-1.3,97-6.4c54.6-8.7,108.4-6.2,161.8-2.9c51.2,3.1,102.6,7,150.3,25c33.7,12.8,59.6,39.3,91.1,56.6
	c20.5,11.3,43.7,12.7,62.8,27.7c23.5,18.5,43.9,52.6,34.5,95.7C954.3,387.4,921.6,410.7,901.9,442.5L901.9,442.5z"/>
<path fill="none" stroke="#535461" stroke-width="2" stroke-miterlimit="10" d="M664.5,306.9c0,0,101-84.6,123.5-127.3
	s51-79.4,51-79.4"/>
<path fill="#FF6347" d="M825.7,195.5l-43.7-9.9C782,185.7,792.3,231.8,825.7,195.5z"/>
<path d="M759,148.5l25.1,37.7C784.1,186.1,735,189.7,759,148.5L759,148.5z M842.9,160.1l-39.9-7
	C803,153.1,828.1,191.3,842.9,160.1z M783.8,126.5l19.7,25.8C803.5,152.2,768.7,155.5,783.8,126.5z M823.6,121.4c0,0,34,1.6,38,4.9
	c4,3.3-5.1,22.3-18,19.2S823.6,121.4,823.6,121.4z M810,91c0,0,13.9,25.3,13.4,30.1s-21.2,10.2-25.3-8S810,91,810,91L810,91z"/>
<ellipse transform="matrix(0.3011 -0.9536 0.9536 0.3011 487.5323 880.1285)" fill="#FFD037" cx="844.2" cy="107.5" rx="9.5" ry="9.5"/>
<ellipse transform="matrix(0.3011 -0.9536 0.9536 0.3011 486.4667 859.2153)" fill="#FFD037" cx="829.4" cy="97.7" rx="9.5" ry="9.5"/>
<path d="M349.5,638.6c0,0,16.2-48.2-86.6-106.3c0,0-104.3-30.4-93.7-134.9c0,0-120.3,88.1-38.9,200.4
	S282,685.5,282,685.5L349.5,638.6z"/>
<path stroke="#535461" stroke-width="2" stroke-miterlimit="10" d="M318.1,660.4c0,0-50.1-54.2-98.2-75.1
	c-9.6-4.3-18.4-10.2-26.1-17.4c-30.6-28-44-70.3-36.1-111l11.6-59.5"/>
<linearGradient id="SVGID_1_" gradientUnits="userSpaceOnUse" x1="478.375" y1="106.16" x2="478.375" y2="768.69" gradientTransform="matrix(1 0 0 -1 0 801.89)">
	<stop  offset="0" style="stop-color:#808080;stop-opacity:0.25"/>
	<stop  offset="0.54" style="stop-color:#808080;stop-opacity:0.12"/>
	<stop  offset="1" style="stop-color:#808080;stop-opacity:0.1"/>
</linearGradient>
<path fill="url(#SVGID_1_)" d="M193.1,33.2h570.6v662.5H193.1V33.2z"/>
<path fill="#F7F7FD" d="M199.7,40.9H757V688H199.7V40.9z"/>
<path fill="#E2E2EC" d="M233.4,113.8h140.9v11.2H233.4V113.8z M233.4,141.3H474v11.2H233.4V141.3z"/>
<path fill="#FFFFFF" d="M630.4,103.1h100v86.3h-100V103.1z"/>
<path fill="#E2E2EC" d="M729.8,103.6v85.3h-99v-85.3L729.8,103.6 M730.8,102.6h-101v87.3h101V102.6z"/>
<path fill="#FFFFFF" d="M529.4,103.1h100v86.3h-100V103.1z"/>
<path fill="#E2E2EC" d="M628.8,103.6v85.3h-99v-85.3L628.8,103.6 M629.8,102.6h-101v87.3h101V102.6z"/>
<path fill="#FFFFFF" d="M630.4,190.4h100v86.3h-100V190.4z"/>
<path fill="#E2E2EC" d="M729.8,190.9v85.3h-99v-85.3H729.8 M730.8,189.9h-101v87.3h101V189.9z"/>
<path fill="#FFFFFF" d="M529.4,190.4h100v86.3h-100V190.4z"/>
<path fill="#E2E2EC" d="M628.8,190.9v85.3h-99v-85.3H628.8 M629.8,189.9h-101v87.3h101V189.9z"/>
<path fill="#FFFFFF" d="M428.4,190.4h100v86.3h-100V190.4z"/>
<path fill="#E2E2EC" d="M527.9,190.9v85.3h-99v-85.3H527.9 M528.9,189.9h-101v87.3h101V189.9z"/>
<path fill="#FFFFFF" d="M327.4,190.4h100v86.3h-100V190.4z"/>
<path fill="#E2E2EC" d="M426.9,190.9v85.3h-99v-85.3H426.9 M427.9,189.9h-101v87.3h101V189.9z"/>
<path fill="#FFFFFF" d="M226.4,190.4h100v86.3h-100V190.4z"/>
<path fill="#E2E2EC" d="M325.9,190.9v85.3h-99v-85.3H325.9 M326.9,189.9h-101v87.3h101V189.9z"/>
<path fill="#FFFFFF" d="M630.4,277.7h100V364h-100V277.7z"/>
<path fill="#E2E2EC" d="M729.8,278.2v85.3h-99v-85.3H729.8 M730.8,277.2h-101v87.3h101V277.2z"/>
<path fill="#FFFFFF" d="M529.4,277.7h100V364h-100V277.7z"/>
<path fill="#E2E2EC" d="M628.8,278.2v85.3h-99v-85.3H628.8 M629.8,277.2h-101v87.3h101V277.2z"/>
<path fill="#FFFFFF" d="M428.4,277.7h100V364h-100V277.7z"/>
<path fill="#E2E2EC" d="M527.9,278.2v85.3h-99v-85.3H527.9 M528.9,277.2h-101v87.3h101V277.2z"/>
<path fill="#FFFFFF" d="M327.4,277.7h100V364h-100V277.7z"/>
<path fill="#E2E2EC" d="M426.9,278.2v85.3h-99v-85.3H426.9 M427.9,277.2h-101v87.3h101V277.2z"/>
<path fill="#FFFFFF" d="M226.4,277.7h100V364h-100V277.7z"/>
<path fill="#E2E2EC" d="M325.9,278.2v85.3h-99v-85.3H325.9 M326.9,277.2h-101v87.3h101V277.2z"/>
<path fill="#FFFFFF" d="M630.4,365h100v86.3h-100V365z"/>
<path fill="#E2E2EC" d="M729.8,365.5v85.3h-99v-85.3H729.8 M730.8,364.5h-101v87.3h101V364.5z"/>
<path fill="#FFFFFF" d="M529.4,365h100v86.3h-100V365z"/>
<path fill="#E2E2EC" d="M628.8,365.5v85.3h-99v-85.3H628.8 M629.8,364.5h-101v87.3h101V364.5z"/>
<path fill="#FFFFFF" d="M428.4,365h100v86.3h-100V365z"/>
<path fill="#E2E2EC" d="M527.9,365.5v85.3h-99v-85.3H527.9 M528.9,364.5h-101v87.3h101V364.5z"/>
<path fill="#FFFFFF" d="M327.4,365h100v86.3h-100V365z"/>
<path fill="#E2E2EC" d="M426.9,365.5v85.3h-99v-85.3H426.9 M427.9,364.5h-101v87.3h101V364.5z"/>
<path fill="#FFFFFF" d="M226.4,365h100v86.3h-100V365z"/>
<path fill="#E2E2EC" d="M325.9,365.5v85.3h-99v-85.3H325.9 M326.9,364.5h-101v87.3h101V364.5z"/>
<path fill="#FFFFFF" d="M630.4,452.2h100v86.3h-100V452.2z"/>
<path fill="#E2E2EC" d="M729.8,452.7V538h-99v-85.3L729.8,452.7 M730.8,451.7h-101V539h101V451.7z"/>
<path fill="#FFFFFF" d="M529.4,452.2h100v86.3h-100V452.2z"/>
<path fill="#E2E2EC" d="M628.8,452.7V538h-99v-85.3L628.8,452.7 M629.8,451.7h-101V539h101V451.7z"/>
<path fill="#FFFFFF" d="M428.4,452.2h100v86.3h-100V452.2z"/>
<path fill="#E2E2EC" d="M527.9,452.7V538h-99v-85.3L527.9,452.7 M528.9,451.7h-101V539h101V451.7z"/>
<path fill="#FFFFFF" d="M327.4,452.2h100v86.3h-100V452.2z"/>
<path fill="#E2E2EC" d="M426.9,452.7V538h-99v-85.3L426.9,452.7 M427.9,451.7h-101V539h101V451.7z"/>
<path fill="#FFFFFF" d="M226.4,452.2h100v86.3h-100V452.2z"/>
<path fill="#E2E2EC" d="M325.9,452.7V538h-99v-85.3L325.9,452.7 M326.9,451.7h-101V539h101V451.7z"/>
<path fill="#FFFFFF" d="M630.4,539.5h100v86.3h-100V539.5z"/>
<path fill="#E2E2EC" d="M729.8,540v85.3h-99V540H729.8 M730.8,539h-101v87.3h101V539z"/>
<path fill="#FFFFFF" d="M529.4,539.5h100v86.3h-100V539.5z"/>
<path fill="#E2E2EC" d="M628.8,540v85.3h-99V540H628.8 M629.8,539h-101v87.3h101V539z"/>
<path fill="#FFFFFF" d="M428.4,539.5h100v86.3h-100V539.5z"/>
<path fill="#E2E2EC" d="M527.9,540v85.3h-99V540H527.9 M528.9,539h-101v87.3h101V539z"/>
<path fill="#FFFFFF" d="M327.4,539.5h100v86.3h-100V539.5z"/>
<path fill="#E2E2EC" d="M426.9,540v85.3h-99V540H426.9 M427.9,539h-101v87.3h101V539z"/>
<path fill="#FFFFFF" d="M226.4,539.5h100v86.3h-100V539.5z"/>
<path fill="#E2E2EC" d="M325.9,540v85.3h-99V540H325.9 M326.9,539h-101v87.3h101V539z"/>
<path d="M436.4,704.9c2.9-2.2,5.5-4.7,6.4-7.8c0.9-3.4-1.1-6.9-4.5-8c-4.1-1.3-8.5,1-11.8,3.4s-7.1,5-11.5,4.5
	c4.5-3.3,6.6-8.5,5.4-13.3c-0.2-1-0.7-2-1.5-2.7c-2.3-2-6.4-1.1-9.1,0.4c-8.6,5-11.1,14.5-11.1,23.2c-0.9-3.1-0.1-6.3-0.2-9.5
	s-1.1-6.7-4.4-8.5c-2.1-0.9-4.4-1.4-6.7-1.3c-3.9-0.1-8.2,0.2-10.9,2.5c-3.3,2.9-2.4,7.7,0.4,10.9s7.2,5.2,11.3,7.3
	c3.1,1.7,6.2,3.6,8,6.3c0.2,0.3,0.4,0.7,0.6,1.1h24.4C426.7,711.2,431.8,708.3,436.4,704.9L436.4,704.9z"/>
<circle fill="#FC6681" cx="239.6" cy="203.5" r="5.7"/>
<circle fill="#FFD037" cx="253.8" cy="203.5" r="5.7"/>
<path d="M440.9,282.3c3.1,0,5.7,2.6,5.7,5.7s-2.6,5.7-5.7,5.7s-5.7-2.6-5.7-5.7S437.7,282.3,440.9,282.3z M455.1,282.3
	c3.1,0,5.7,2.6,5.7,5.7s-2.6,5.7-5.7,5.7s-5.7-2.6-5.7-5.7S452,282.3,455.1,282.3z M745.6,445.6c3.1,0,5.7,2.6,5.7,5.7
	s-2.6,5.7-5.7,5.7s-5.7-2.6-5.7-5.7S742.5,445.6,745.6,445.6z M748.5,439c3.1,0,5.7,2.6,5.7,5.7s-2.6,5.7-5.7,5.7s-5.7-2.6-5.7-5.7
	S745.3,439,748.5,439z M751.3,433.3c3.1,0,5.7,2.6,5.7,5.7s-2.6,5.7-5.7,5.7s-5.7-2.6-5.7-5.7S748.2,433.3,751.3,433.3z M645,197.8
	c3.1,0,5.7,2.6,5.7,5.7s-2.6,5.7-5.7,5.7s-5.7-2.6-5.7-5.7S641.9,197.8,645,197.8z M659.2,197.8c3.1,0,5.7,2.6,5.7,5.7
	s-2.6,5.7-5.7,5.7s-5.7-2.6-5.7-5.7S656.1,197.8,659.2,197.8z M673.5,197.8c3.1,0,5.7,2.6,5.7,5.7s-2.6,5.7-5.7,5.7
	s-5.7-2.6-5.7-5.7S670.3,197.8,673.5,197.8z M687.7,197.8c3.1,0,5.7,2.6,5.7,5.7s-2.6,5.7-5.7,5.7s-5.7-2.6-5.7-5.7
	S684.6,197.8,687.7,197.8z M645,374.4c3.1,0,5.7,2.6,5.7,5.7s-2.6,5.7-5.7,5.7s-5.7-2.6-5.7-5.7S641.9,374.4,645,374.4z
	 M659.2,374.4c3.1,0,5.7,2.6,5.7,5.7s-2.6,5.7-5.7,5.7s-5.7-2.6-5.7-5.7S656.1,374.4,659.2,374.4z M673.5,374.4
	c3.1,0,5.7,2.6,5.7,5.7s-2.6,5.7-5.7,5.7s-5.7-2.6-5.7-5.7S670.3,374.4,673.5,374.4z M687.7,374.4c3.1,0,5.7,2.6,5.7,5.7
	s-2.6,5.7-5.7,5.7s-5.7-2.6-5.7-5.7S684.6,374.4,687.7,374.4z"/>
<circle fill="#FFD037" cx="340.2" cy="288" r="5.7"/>
<circle fill="#FC6681" cx="239.6" cy="374.4" r="5.7"/>
<linearGradient id="SVGID_2_" gradientUnits="userSpaceOnUse" x1="2204.2371" y1="-4.9688" x2="2204.2371" y2="606.9031" gradientTransform="matrix(-1 0 0 -1 3018.8201 752.3)">
	<stop  offset="0" style="stop-color:#808080;stop-opacity:0.25"/>
	<stop  offset="0.54" style="stop-color:#808080;stop-opacity:0.12"/>
	<stop  offset="1" style="stop-color:#808080;stop-opacity:0.1"/>
</linearGradient>
<path fill="url(#SVGID_2_)" d="M740.7,465.6c6.3,3.7,16,6.1,28.3-1.8l-0.1,17.6c0.9,12,15.8,55.9,15.8,55.9l10.5,36.1
	c7.5,25.5,11.4,51.9,11.5,78.5c0,8.8,0.8,17.9,3.3,24.7c5.6,15.1-2.2,34.6-5.6,41.8c-5.7,1.9-11.5,3.6-17.3,4.9
	c-0.5,0.1-1,0.3-1.5,0.5l-0.1-0.1c0,0-15.8,6.3-22.8,5.4c-5.2-0.6-8.5,5.9-4.4,10.7c-3.9,1-7.8,1.7-10.5,1.4
	c-7-0.9-10.5,11.2,2.6,14.6s87.6,0,87.6,0c4.3-2.2,6.6-7,5.6-11.7c5.7-0.2,9.3-0.4,9.3-0.4s13.1-6,0-22.4l-0.7,0.5l-2.8-8.3v-11.2
	c0,0,16.6-80,11.4-89.5s-7.9-57.6-7.9-57.6l1.8-52.5c4.8-9.8,7.2-25.2,8.4-37.2c1.8-5.7,2.9-11.6,3.4-17.6c0.2-2.8,0.4-5.8,0.5-8.9
	c0-6.7-1.1-13.4-3.3-19.8c5-7.2,13.1-18.3,19.8-24.9c10.5-10.3,7.9-22.4,7.9-22.4l-4.4-29.3L876.7,293c1.3-13.8-1.6-21.8-4.8-26.3
	c0.8-4.5,1.5-8.9,2-13.4c2.3-19.5,1.3-39.3-3.1-58.5c-1.5-6.7-3.6-13.6-8.3-18.6c-5.3-5.7-13.9-9.2-15.9-16.8
	c-0.5-1.9-0.5-3.9-1.2-5.7c-1.9-4.9-8-6.7-13.3-7.4c-9.5-1.1-23.2-2-32.3,1.7c-6.4,2.6-15.1,9.8-18.6,17.4c-2,3.5-2.9,7.2-2.1,10.7
	c0.3,1.3,0.8,2.5,1.5,3.7c-1.4,3.7-2,7.6-2,11.5c0.1,13.8,8.6,26.1,21.4,31.1c0.2,0.7,0.4,1.3,0.6,2c0.4,1.5,0.7,3.1,0.9,4.7
	c-0.2,3-0.4,6.1-0.5,9.1c-0.1,0.4-0.2,0.8-0.3,1.2c-7.5,3.3-14.9,7.1-22,11.2c5.3,7.7-0.9,40.4-0.9,40.4
	c-13.1,7.7-26.3,27.5-12.3,48.2s6.1,43,6.1,43l-2.2,33.6v0.1l-0.4,6.7h0.2l-0.2,2.5l0.4,0.1v2.7c-6.2,2.3-15.1,6.8-20.5,15.3
	c-2.5,4.1-5.6,7.9-9.2,11.3c-2.8,2.4-3.1,6.7-0.7,9.5C739.5,464.8,740.1,465.3,740.7,465.6L740.7,465.6z M846.5,376.3
	c-0.5-5.8,0.5-11.7,3.1-16.9c2.1,0,4.1,0.1,6.2,0.1c0.2,1.5,0.5,2.8,0.8,4.1C858.3,371.1,851.2,374.7,846.5,376.3L846.5,376.3z"/>
<path fill="#DB8B8B" d="M848.2,709.7l3.4,10.1l-11,11l-36.2,8.4l-26.1-2.5l1.7-9.3c1-4.1,4.2-7.2,8.3-8.2
	c10.7-2.5,31.2-8.3,35.5-16.3L848.2,709.7z"/>
<path opacity="0.1" enable-background="new    " d="M848.2,709.7l3.4,10.1l-11,11l-36.2,8.4l-26.1-2.5l1.7-9.3
	c1-4.1,4.2-7.2,8.3-8.2c10.7-2.5,31.2-8.3,35.5-16.3L848.2,709.7z"/>
<path fill="#2E3037" d="M786.7,734.1l5.1-6.7l-5.1-7.8c0,0-15.2,6.1-21.9,5.3s-10.1,11,2.5,14.3s84.3,0,84.3,0s12.6-5.9,0-21.9
	l-11,8.4c0,0-18.5,10.1-27.8,8.4L786.7,734.1z"/>
<path fill="#DB8B8B" d="M763.9,748.4l26.1,2.5l36.2-8.4l11-11l-0.9-2.7l-1.3-3.8l-1.3-3.7l-24.4-6.7c-1.2,2-3,3.8-5,5
	c-7.9,5.4-22.2,9.3-30.6,11.3c-0.3,0.1-0.7,0.2-1,0.3c-3.6,1.2-6.3,4.2-7.3,7.9L763.9,748.4z"/>
<path opacity="0.1" enable-background="new    " d="M763.9,748.4l26.1,2.5l36.2-8.4l11-11l-0.9-2.7l-10.1,7.7
	c0,0-18.5,10.1-27.8,8.4h-26.2l5.1-6.7l-4.5-7c-3.6,1.2-6.3,4.2-7.3,7.9L763.9,748.4z"/>
<path fill="#2E3037" d="M772.3,745.9l5.1-6.7l-5.1-7.8c0,0-15.2,6.1-21.9,5.3s-10.1,11,2.5,14.3s84.3,0,84.3,0s12.6-5.9,0-21.9
	l-11,8.4c0,0-18.5,10.1-27.8,8.4L772.3,745.9z"/>
<path fill="#DB8B8B" d="M793.4,257.1c0,0,40.5,4.2,34.6-12.6c-1.6-4.8-2.1-9.9-1.3-14.9c1-6.2,3.5-12,7.2-17.1l-37.9,5.9
	c2.3,3.8,4,7.9,5.1,12.2C805.6,248.4,793.4,257.1,793.4,257.1L793.4,257.1z"/>
<path fill="#474463" d="M862.5,449.2c0,0-0.8,36.2-9.3,53.9l-1.7,51.4c0,0,2.5,47.2,7.6,56.5s-11,87.7-11,87.7v13.5
	c0,0-27,10.1-34.6-1.7l7.6-100.3l-3.4-139.1L862.5,449.2z"/>
<path opacity="0.1" enable-background="new    " d="M862.5,449.2c0,0-0.8,36.2-9.3,53.9l-1.7,51.4c0,0,2.5,47.2,7.6,56.5
	s-11,87.7-11,87.7v13.5c0,0-27,10.1-34.6-1.7l7.6-100.3l-3.4-139.1L862.5,449.2z"/>
<path fill="#FC6681" d="M879.4,332.9l5.1,13.5l4.2,28.7c1.2,8.1-1.7,16.3-7.6,21.9c-10.1,10.1-23.6,31.2-23.6,31.2l-16-48
	c0,0,16-2.5,13.5-13.5s-1.7-31.3-1.7-31.3L879.4,332.9z"/>
<path opacity="5.000000e-02" enable-background="new    " d="M879.4,332.9l5.1,13.5l4.2,28.7c1.2,8.1-1.7,16.3-7.6,21.9
	c-10.1,10.1-23.6,31.2-23.6,31.2l-16-48c0,0,16-2.5,13.5-13.5s-1.7-31.3-1.7-31.3L879.4,332.9z"/>
<path opacity="0.1" enable-background="new    " d="M804.5,719.7c10.8,17,27.6,7.4,30.6,5.5l-1.2-3.7l-24.4-6.7
	C808.2,716.7,806.5,718.4,804.5,719.7L804.5,719.7z"/>
<path fill="#474463" d="M770.7,482.1c0.8,11.8,15.2,54.8,15.2,54.8l10.1,35.4c7.2,25,11,50.9,11.1,76.9c0,8.6,0.8,17.5,3.2,24.2
	c6.7,18.5-6.7,43.8-6.7,43.8c11.8,21.1,32,6.7,32,6.7v-13.5c0,0,16-73.3,11.8-87.7s-5.9-53.1-5.9-53.1v-70
	c13.5-13.5,21.7-31.3,23.1-50.3c0.2-2.8,0.4-5.7,0.5-8.7c0.7-19-12.3-41.3-17.4-49.3c-1.2-1.9-2-3-2-3L771.2,418l-0.2,0.1v9.3
	L770.7,482.1z"/>
<path opacity="0.1" enable-background="new    " d="M796,218.3c2.3,3.8,4,7.9,5.1,12.2c8.3,3.2,17.6,2.8,25.6-0.9
	c1.1-6.2,3.5-12,7.2-17.1L796,218.3z"/>
<circle fill="#DB8B8B" cx="812.8" cy="198.1" r="32.9"/>
<path opacity="0.1" enable-background="new    " d="M770.7,427.3l0.4,0.1c35.3,7.3,79.7-29.6,79.7-29.6c-1.2-2-2.2-4.1-3.1-6.3
	c-1.2-1.9-2-3-2-3l-74.4,29.5l-0.2,3L770.7,427.3z"/>
<path fill="#FC6681" d="M779.9,256.2c0,0,47.2-28.7,62.4-16.9l21.1,27c0,0,13.5,4.2,11,31.2l10.1,48.9l-30.3,7.6
	c0,0-17.7,16.9-3.4,41.3c0,0-44.7,37.1-80.1,29.5l2.5-39.6c0,0,7.6-21.9-5.9-42.1s-0.8-39.6,11.8-47.2
	C779.1,295.8,785,263.8,779.9,256.2L779.9,256.2z"/>
<path fill="#DB8B8B" d="M777.4,428.2c0,0-17.7,3.4-26.1,16.9c-2.4,4-5.4,7.7-8.8,11c-2.7,2.5-2.9,6.7-0.5,9.4
	c0.4,0.5,0.9,0.9,1.5,1.2c6.7,4,17.6,6.5,31.4-4.8C798.5,442.5,777.4,428.2,777.4,428.2L777.4,428.2z"/>
<path opacity="0.1" enable-background="new    " d="M803.5,272.2c0,0,16.9-1.7,21.1,42.1s11,53.9,11,53.9s4.2,22.8-5.9,36.2
	s-29.5,42.1-29.5,42.1s-21.1,5.9-25.3-15.2l26.1-48.9c0,0,4.2-16.9-5.9-28.7S777.4,263.8,803.5,272.2L803.5,272.2z"/>
<path fill="#FC6681" d="M801.8,269.7c0,0,16.9-1.7,21.1,42.1s11,53.9,11,53.9s4.2,22.8-5.9,36.2s-29.5,42.1-29.5,42.1
	s-21.1,5.9-25.3-15.2l26.1-48.9c0,0,4.2-16.9-5.9-28.7S775.7,261.3,801.8,269.7L801.8,269.7z"/>
<path opacity="0.1" enable-background="new    " d="M787.9,301.3c0,0-1.7,26.1,5.9,40.5s7.6,32.9,0,43 M783.7,269.3
	c0,0,6.7-6.7,26.1-7.6s27.8-6.7,27.8-6.7"/>
<path opacity="0.1" enable-background="new    " d="M830.6,155.6c5.1,0.6,11,2.4,12.8,7.2c0.7,1.8,0.7,3.7,1.2,5.6
	c1.9,7.4,10.2,10.8,15.3,16.4c4.5,5,6.5,11.7,8,18.2c4.2,18.8,5.2,38.1,3,57.3c-1.6,14-5,27.7-5.9,41.8s0.8,28.8,8.5,40.6
	c3.3,5.1,7.7,9.5,10,15.1c-4.8,3.9-11.5,4.5-17.7,4.7c-7.2,0.2-14.5,0.2-21.8,0c-3.8-0.1-7.8-0.4-11-2.3c-2.4-1.6-4.4-3.7-5.8-6.2
	c-4.2-7-5.2-15.5-5-23.7s1.5-16.3,1.6-24.5c0.1-4.5-0.3-9.2-2.8-12.8c-1.8-2.6-4.7-4.4-7.1-6.5c-9-8-12.1-20.8-12.4-32.9
	c-0.3-12,1.7-24.1,0.7-36.1c-0.4-4.7-2.2-10.4-6.8-11.3c-1.5-0.3-3,0-4.4-0.6c-3.7-1.4-3.3-6.7-4.4-10.5c-1.2-4.3-4.9-7.6-5.9-12
	c-2.4-10.2,10.5-22.4,19.1-25.9C808.3,153.6,821.5,154.5,830.6,155.6z"/>
<path fill="#472727" d="M831.5,153.9c5.1,0.6,11,2.4,12.8,7.2c0.7,1.8,0.7,3.7,1.2,5.6c1.9,7.4,10.2,10.8,15.3,16.4
	c4.5,5,6.5,11.7,8,18.2c4.2,18.8,5.2,38.1,3,57.3c-1.6,14-5,27.7-5.9,41.8s0.8,28.8,8.5,40.6c3.3,5.1,7.7,9.5,10,15.1
	c-4.8,3.9-11.5,4.5-17.7,4.7c-7.2,0.2-14.5,0.2-21.8,0c-3.8-0.1-7.8-0.4-11-2.3c-2.4-1.6-4.4-3.7-5.8-6.2c-4.2-7-5.2-15.5-5-23.7
	s1.5-16.3,1.6-24.5c0.1-4.5-0.3-9.2-2.8-12.8c-1.8-2.6-4.7-4.4-7.1-6.5c-9-8-12.1-20.8-12.4-32.9c-0.3-12,1.7-24.1,0.7-36.1
	c-0.4-4.7-2.2-10.4-6.8-11.3c-1.5-0.3-3,0-4.4-0.6c-3.7-1.4-3.3-6.7-4.4-10.5c-1.2-4.3-4.9-7.6-5.9-12
	c-2.4-10.2,10.5-22.4,19.1-25.9C809.1,151.9,822.3,152.8,831.5,153.9z"/>
</svg>
