<svg version="1.1" id="图层_1" xmlns="http://www.w3.org/2000/svg" x="0" y="0" viewBox="0 0 1126.8 633.6" xml:space="preserve"><style>.st0{opacity:.1}.st2{fill:#444053}.st3{fill:#fff}.st4{fill:#3f3d56}.st9{fill:#65617d}.st10{opacity:5.000000e-02}.st11{opacity:.1}.st12{fill:#ee8e9e}.st15{opacity:.1}.st16{opacity:.2}.st18{fill:#2d293d}.st20{fill:#ffcdd3}.st21{fill:#dce6f2}.st22{fill:#575988}.st25{fill:#4c4981}.st26{fill:#ae6e79}</style><path class="st0" d="M650.4 130c-70.8.5-138.7-15.4-203.7-33.3s-129.5-37.8-198.8-46c-44.6-5.3-95.4-4.5-130.5 16-33.8 19.7-43.7 51.9-48.7 81.6-3.7 22.4-5.5 45.9 7.5 66.2 9.1 14.1 24.7 25.7 35.7 39.2 38.3 46.8 14.5 107.1-23.4 155.5-17.8 22.7-38.6 44.5-52.1 68.5s-19.2 51.1-5.8 74.6c13.3 23.3 43.5 40.1 76.1 51.5 66.1 23.1 143.2 27.7 218.2 29.2 166.1 3.2 332.7-6.6 498.8-16.5 61.5-3.7 123.2-7.3 183.5-17.2 33.5-5.5 67.9-13.4 91.7-30.6 30.2-21.8 36.7-57.1 15-82.3-36.4-42.3-133-49.7-159-95.5-14.3-25.2-1.6-54.4 17-78.9 39.9-52.6 108.3-100 109.9-158.6 1.1-40.3-34-79.3-86.7-96.4-55.2-18-130.8-12.8-169.8 21.6-40.1 35.3-112.4 51-174.9 51.4z"/><path class="st1" d="M981.4 497.9s-3.8-22.6-31.8-15.9c0 0-.1 19.5 27.2 21.2l4.6-5.3zm13.5-23.2s-6.4-22-34.1-15.4c0 0 6.6 19.8 32.3 19.5l1.8-4.1zm12.9-22.7s-6.3-22.8-33-16c0 0 8.9 21.7 31.2 19.9l1.8-3.9zm8.2-21.6s-4.8-27.9-29.7-21.7c0 0 7.2 25.4 27.9 25.8l1.8-4.1zm7.8-26.1s-5.8-28.1-31-20c0 0 9.9 26.6 29.2 23.9l1.8-3.9zm4.8-24.3s-9.2-28.1-28.7-27.4c0 0 9.4 29.7 27 33l1.7-5.6zm3-23.6s-10-33.9-25.9-31.3c0 0 6.9 25.9 25.3 36.5l.6-5.2zm1.8-28.3s-9.4-28.2-25-29.4c0 0 6.4 27.8 24.7 36.7l.3-7.3zm1.8-26.3s-11.7-28.3-22-28.9c0 0 5.1 27.8 21 33.5l1-4.6zm1.3-24.6s-7.2-30.7-17.5-33.2c0 0 1.4 25.1 16.5 35.5l1-2.3zm3.9-32.1s-7.6-24.5-15.9-28.2c0 0 1.7 28.8 14 34.2l1.9-6zm3.3-21l1.5-43.1s-15.6 32.6-2.7 50.8l1.2-7.7zm12.1-42.9s11.3-31.5 14-33.3c0 0-22.1 20.4-19.9 46.7l5.9-13.4zm-92.1 339.1s19.8-2.6 19.2 25.4c0 0-17.9 2.9-23.8-20.3l4.6-5.1zm18.7-23.1s22.9-.1 21 28.6c0 0-19.2 3.4-25.6-23.2l4.6-5.4zm12.8-20.7s20.8-9.8 34.1 15.4c0 0-19.2 8.1-35.9-11.4l1.8-4zm13-24.3s21.3-10.4 33.8 14.2c0 0-22.2 7.6-35.5-10.3l1.7-3.9zm7.6-21.2s20.5-19.6 36.8.2c0 0-20.9 16.1-37.8 4.1l1-4.3zm6.8-27.4s20.6-20 36.8.9c0 0-23.1 16.4-37.6 3.3l.8-4.2zm3.9-24.4s15.9-25 34.6-19.4c0 0-16.5 26.5-34.4 25.3l-.2-5.9zm4.7-23s16-31.5 31.1-26c0 0-11.5 24.2-31.5 31.3l.4-5.3zm1.1-29.7s16.4-24.8 31.9-21.8c0 0-13.4 25.1-33.4 28.9l1.5-7.1zm1.2-25.3s12.8-27.8 23.1-28c0 0-6.1 27.6-22.3 32.7l-.8-4.7zm2.5-24.6s14.2-28.2 24.8-28.2c0 0-7.3 24.1-24.3 30.7l-.5-2.5zm2.2-29.7s10.6-23.3 19.4-25.9c0 0-5.3 28.4-18.2 32.1l-1.2-6.2zm6.7-23.6l23.7-36.1s-6.1 35.6-27.1 43l3.4-6.9zm16.3-39.2s27.5-19 28.5-22.1c0 0-14 26.6-40 31.3l11.5-9.2zm1.6-8.5s31.6-30.4 39.7-30.4c0 0-26.1 1.2-40.4 28.7l.7 1.7z"/><path class="st2" d="M1038.5 251.4l1.2.1c5.9-46.5 14.6-74 24.4-77.4l-.4-1.1c-10.4 3.7-19.1 30.7-25.2 78.4zm-8.8 111.1l1.7.1c.4-4.3.6-8.8.8-13.2 1.7-38.5 4.2-73.8 7.6-100.3l-1-1.3c-3.4 26.5-6.7 63-8.3 101.5-.1 4.5-.4 8.9-.8 13.2zM896.5 573.1c.3-.1 30.9-13.8 62.7-46.4 18.6-19.1 34.1-41 45.8-65 14.7-29.9 23.7-66.7 26.7-102.4l-1.8.9c-6.7 80.2-43.3 135-72.3 164.9-31.5 32.3-61.8 45.9-62.1 46l1 2z"/><path class="st3" d="M969.8 31.2v518.4c0 15.4-14.9 28-33.2 28H233.3c-18.4 0-33.2-12.5-33.2-28V31.2C200 15.8 214.9 0 233.3 0l703.3 1.7c18.3 0 33.3 14.1 33.2 29.5z"/><path class="st4" d="M969.8 31.4v24H200v-24C200 14 214.1 0 231.4 0h707.1c17.3 0 31.4 14 31.3 31.4z"/><circle cx="237.3" cy="27.7" r="11.1" opacity=".8" fill="#fa5959"/><circle cx="269.5" cy="27.7" r="11.1" opacity=".8" fill="#fed253"/><circle cx="301.8" cy="27.7" r="11.1" opacity=".8" fill="#8ccf4d"/><linearGradient id="SVGID_1_" gradientUnits="userSpaceOnUse" x1="466.93" y1="-103.783" x2="466.93" y2="108.539" gradientTransform="matrix(1 0 0 -1 -36.6 502.8)"><stop offset="0" stop-color="gray" stop-opacity=".25"/><stop offset=".54" stop-color="gray" stop-opacity=".12"/><stop offset="1" stop-color="gray" stop-opacity=".1"/></linearGradient><path d="M519.6 570.3l-21.9-31.8s-.4-7.9-1.8-9.7-.3-5.9-.3-5.9 1.5-2.3.2-2.5-.2-5.2-.2-5.2l-.1-8s1.2-7.7.2-9.5c-.6-1-.6-2.3.1-3.3 0 0 1.2-4.4 0-5.5s-.9-8-.6-13.4-2.2-8.5-2.2-9.3-8.1-8.8-8.1-9.5-5.1-3.7-8.2-4.5-4.6-1.4-4.5-1.8-4.8-2-4.8-2-4.3-.3-6-2.5-6.6-2.8-6.8-2.8l-.1-.4-.1-.5c.4-.7.7-1.3 1.1-2l.3-.6c1.8 0 3.6-.5 5-1.6 1.5-1.2 2.4-3 2.5-4.9.1-1.9-.3-3.8-1.2-5.5-.9-1.8-2.2-3.8-1.8-5.8.2-.9.7-1.6 1-2.5.4-1.7.1-3.4-.7-4.8-.8-1.5-1.9-2.8-2.7-4.2-1.1-1.8-1.8-3.9-2.2-6-.1-1.1-.3-2.2-.8-3.3-.5-.7-1.1-1.3-1.8-1.8-3.2-2.3-7.1-3.5-11-3.3-2.8.1-5.6.8-8.4.5-1.7-.3-3.3-.7-4.9-1.3-3.4-1-7.4-1.4-10.4.5s-4.2 5.8-6.2 8.9c-1.8 2.7-4.4 4.9-5.8 7.8v-.2c-.3.7-.6 1.4-.8 2.1-.4 2.3-.2 4.6.5 6.8.2 1.2.8 2.2 1.7 3 1 .7 2.4.5 3.6.7 0 .2-.1.4-.1.6-.3 1.6-.5 3.2-.5 4.9 0 10.4 6.8 19.5 16.7 22.5v.6c0 .6 0 1.2-.1 1.8 0 0-10.3-2.1-13.1-.7s-8.2 2.5-9 3.4-2.9.2-4.7 5-2 9.7-4.4 12-3.6 3.8-3.7 5.4.3 2-.6 2.5-2.3 2.7-1.9 3.5c.3 1.2-.2 2.4-1.1 3.1-1 .7-1.5 1.9-1.4 3.1 0 0-.6 2.3-2 2.8s-2.4 3.9-2.4 3.9l-4.6 5.3-9.2-10.2c-1.4-1.6-3.9-1.7-5.5-.3l-4.5 4c-1.7.4-3.3 1.4-4.5 2.7-1 1-1.8 2.2-2.3 3.5l-2.5 2.2c-1.6 2-1.9 4.7-.6 7l5.9 6.5v.1c-2.1.2-4.1 1-5.7 2.3-8.8 7.8-8.9 14.9-7.6 18.2s12.5 15.9 12.5 15.9 6.5 8.4 15.9 12.9l-.1.1c-.2.2-.4.4-.5.6l-.1.2c-.1.1-.1.1-.1.2l-.2.2-.1.2-.2.3-.1.2-.2.4s0 .1-.1.1-.2.4-.3.6l-.1.2c0 .1-.1.3-.2.4l-.1.3c0 .1-.1.3-.1.4l-.1.3c0 .1-.1.3-.1.5 0 .1 0 .2-.1.3s-.1.5-.2.7v.3c0 .2-.1.4-.1.5v.4c0 .2 0 .3-.1.5s0 .3 0 .4v1.9c-.2 12 .5 13.7.5 13.7.9 2.3 3 3.8 5.4 4.1.6 0 1.2 0 1.8-.1 5.3-.9 17.8-3.1 22.3-2.3 2.6.5 7.6-.2 11-.9l.9-.2.6 2 2-.6 1.7 1 1.1.6c2 6.9 10.2 4.5 10.2 4.5l2 1.1 19.8.5c2.2 1.3 4.6 2.5 7 3.4.3.1.7.2 1 .2 1.8.1 3.7.2 5.5.1 1.5 0 2.7-.1 2.7-.1s-.2-5.4-.5-11.4c6.1-.2 12.3-.7 18.3-1.5 10.6-1.9 15-11.5 16.6-16.6.5 2.1.8 4.2 1 6.4.4 1.9 1 3.7 1.6 5.5.6 1.5 1.3 2.8 2.3 4.1 7.8-2.7 3.1-6.7 1.4-8.4s1.1-3.2 1.1-3.2 2.2-1.4 2-2.8-.3-2.8 6.7-2.7c6.8.3 6.4-5.5 6.4-5.5zM411.3 505c.1.6 1.1 6.9 1.9 8.5.3 1.1.3 2.2.2 3.4-4.1-.3-8.4-.5-8.4-.5.1.2.2.3.2.5l-.6-.2-1-.2 7.7-11.5zm-15.1 24l7.1 1.1.6.1c-.2 1.1-.3 2.2-.4 3.4 0 .1.2.2.4.4-.1.6-.1 1.1-.1 1.7.1.6 3.5 1.8 7.3 2.8-.1.2-.1.4-.2.6-3.4-1.8-8.7-2.6-9.3-3.9s-18.8-7.7-18.8-7.7-.7-.3-1.8-.9l4.8.9 1.3-.1c3 .6 6.1 1.2 9.1 1.6z" fill="url(#SVGID_1_)"/><path class="st9" d="M496.2 574.7s-2.9 17.2-17.3 19.7-62.6 2-62.6 2-27.5-4-37.5-27.2-16.4-32.5-7.8-32.9 54.6 15.5 57.2 15.8 70.6-35.4 68 22.6z"/><path class="st10" d="M496.2 574.7s-2.9 17.2-17.3 19.7-62.6 2-62.6 2-27.5-4-37.5-27.2-16.4-32.5-7.8-32.9 54.6 15.5 57.2 15.8 70.6-35.4 68 22.6z"/><path class="st4" d="M367 593.8c.9 2.3 3 3.8 5.4 4.1.6 0 1.2 0 1.7-.1 5.3-.9 17.7-3 22-2.2 2.6.5 7.5-.2 11-.9 2.3-.4 4-.8 4-.8s-4.1-13.5-4.6-13.9-18.3-11.1-18.3-11.1l-14.1-1c-1.9.3-3.6 1.3-4.8 2.8-1.5 1.8-2.8 4.8-2.9 9.6-.1 11.8.6 13.5.6 13.5z"/><path class="st10" d="M367 593.8c.9 2.3 3 3.8 5.4 4.1-1.4-1.8-2.7-3.6-3.8-5.6l.1-9.9c-.6-5.5 1.5-10.9 5.5-14.7 0 0-7.4.5-7.6 12.4s.4 13.7.4 13.7z"/><path class="st11" d="M428.1 572.3l13.1-10.3 20.6-20.3-5.6-.3c-.8.5-3.2 2.2-3.3 4.3-.1 2.5-5.6.2-8.4 1.6s-16.8 19.2-19.2 19.1-4.4-1.2-5.4.5l-.1.1 8.3 5.3zm-58.7-1.7l1.4.7c10 4.3 22.3 13.2 23.2 14.8.6 1 7.7 5.3 13.2 8.6 2.3-.4 4-.8 4-.8s-4.1-13.5-4.6-13.9-18.3-11.1-18.3-11.1l-14.1-1c-1.9.2-3.6 1.2-4.8 2.7z"/><path class="st9" d="M341.7 541.5c1.3 3.3 12.4 15.8 12.4 15.8s7 9.2 17 13.4 22.3 13.2 23.2 14.8c.6 1 8.5 5.8 14.1 9.1l1.3.7 2.8 1.6 1.5.8s3.4-2.7 6.8-5.5 6.7-5.4 6.7-5.6c.1-.3 1.4-3.8 1.1-4-.2-.1-.9-1.5-2.1-3.1-1.4-1.8-3.1-3.3-5.2-4.3-3-1.5-5.3-4-6.7-7 0 0-.5-.3-1.1-.8-1.4-.9-2.9-1.6-4.6-2-2.2-.3-6.4-4.8-6.4-4.8-1.6-1.1-3-2.5-4-4.2-1.1-2.2-16.8-13-18.3-14l38.2 24.5 9.1 5.9 13.1-10.3 20.6-20.3-6.8-.3c-10-.4-27.8-1.1-30.1-.6-1.8.4-3.7.5-5.6.4 0 0-5.1.2-8.4-1.5s-8.6-2.6-9.3-3.9-18.6-7.6-18.6-7.6-24.5-13-33.2-5.3-8.8 14.9-7.5 18.1z"/><path class="st12" d="M420.7 466.9l3.1 10.5 4.1 23.6 14.9 1 4.3-7.2 4.3-7.1s2.7-9.5 4.6-18.8c1.7-8.1 2.8-16.1 1-16.9-1.6-.8-2.7-3.5-3.4-6.5-.1-.4-.2-.7-.2-1.1-.5-2.5-.8-5-1-7.6 0 0-31.3-1.6-26.9 11.3.8 2.2 1.2 4.5 1.2 6.9 0 .6 0 1.2-.1 1.8-.5 4-2.6 7.7-5.9 10.1z"/><path d="M414.2 465.2l1.1 17.8 2.5 15.1 2.9 7 2.5 38.4s24.5 2.8 30.5 0c.4-.2.8-.5 1.1-.8 7.2-10.9 4.8-42.4 4.8-42.4l2.8-20.4-1.8-10.5-4.4-.5-3.4-.4s-.8.9-1.9 2.4c-3 4-8.6 11.8-8.2 15.1.5 4.5-.6 9-2.3 9.8s-3.1 1.9-3.5.7c-.4-1-.5-2.2-.3-3.3.3-1.7-1.3-7-1.3-7s-2.7-6.2-2.5-8.8-.3-5.7-1.1-6.4-1.9-1.4-1-4.7-4-9.6-4-9.6l-12.5 8.5z" fill="#e3e8f4"/><path class="st11" d="M446.6 509.6l1 30.4 5.9 3.3c.4-.2.8-.5 1.1-.8 7.2-10.9 4.8-42.4 4.8-42.4l2.7-20.3-1.8-10.5-4.4-.5c1.7-8.1 2.8-16.1 1-16.9-1.6-.8-2.7-3.5-3.4-6.5l-3.2 21.5s.3 1.9.4 3.9c.1 1.3 0 2.6-.3 3.8-.7 1.8-.2 5.1-.2 5.1-1.8 3.2-2.8 9.2-3.2 15-.7 7.6-.4 14.9-.4 14.9z"/><path class="st4" d="M453.5 444.8s5.1.6 6.7 2.8 5.9 2.4 5.9 2.4 4.9 1.6 4.8 2 1.4 1 4.5 1.8 8.1 3.8 8.1 4.5 8 8.6 8 9.5 2.4 3.9 2.1 9.3-.6 12.2.6 13.3 0 5.5 0 5.5c-.7 1-.7 2.2-.1 3.3 1 1.8-.2 9.5-.2 9.5l.1 7.9s-1.1 5 .2 5.2-.2 2.4-.2 2.4-1.1 4.1.3 5.9 1.8 9.7 1.8 9.7l21.8 31.6s.3 5.8-6.6 5.7-6.8 1.3-6.6 2.6-1.9 2.8-1.9 2.8-2.8 1.4-1.1 3.2 6.3 5.7-1.4 8.3c-.9-1.3-1.7-2.6-2.2-4.1-.7-1.8-1.2-3.6-1.6-5.5 0 0-.7-7.7-2.1-8.7s-1.2-5.9-1.2-5.9 2-4-.8-5.6-44.1-24.5-44.1-24.5l-1-30.4s-.7-22.5 3.6-30c0 0-.5-3.3.2-5.1s-.1-7.7-.1-7.7l2.5-21.7z"/><path class="st11" d="M426.9 457s-10.2-2.1-13-.7-8.1 2.5-8.9 3.4-2.9.2-4.7 5-2 9.6-4.4 11.9-3.6 3.8-3.7 5.4.3 2-.6 2.5-2.2 2.6-1.8 3.5 21.1 18.7 21.1 18.7 1 6.8 1.9 8.5-1 25.5-3 27.1 13.8 1.5 13.8 1.5.7-15.6 1.3-16.4-.4-17.5-.4-17.5-.1-14.2 1.2-18 1.2-16.3 1.2-16.3 1.2-7.5 2.6-9.3-2.6-9.3-2.6-9.3z"/><path class="st4" d="M426.6 456.7s-10.2-2.1-13-.7-8.1 2.5-8.9 3.4-2.9.2-4.7 5-2 9.7-4.4 11.9-3.6 3.8-3.7 5.4.3 2-.6 2.5-2.2 2.6-1.8 3.5 21.1 18.7 21.1 18.7 1 6.8 1.9 8.5-1 25.5-3 27.1 13.7 1.5 13.7 1.5.7-15.6 1.3-16.4-.4-17.5-.4-17.5-.1-14.2 1.2-18 1.2-16.3 1.2-16.3 1.2-7.5 2.6-9.3-2.5-9.3-2.5-9.3z"/><path class="st11" d="M425.5 448.1c.8 2.2 1.2 4.5 1.2 6.9 10.3 3.1 21.3-1.3 26.7-10.6-.5-2.5-.8-5-1-7.6 0 0-31.3-1.6-26.9 11.3z"/><path class="st12" d="M410 432c0 12.8 10.4 23.2 23.3 23.2 12.8 0 23.2-10.4 23.2-23.3 0-12.8-10.4-23.2-23.3-23.2-11 0-20.4 7.7-22.7 18.4-.3 1.7-.5 3.3-.5 4.9z"/><path class="st4" d="M395.1 485.9l-5.6 1.7c.3 1.1-.2 2.3-1.1 3-1 .7-1.5 1.8-1.4 3 0 0-.6 2.2-2 2.8s-2.3 3.9-2.3 3.9l-4.7 5.4s-1.7 1.4-1.4 2.1-1.8.9-1.8.9l1.1 18.1 9.6 1.8 6-.6 4.9-1.8 4.3-2.5 1.9-5 8.5-13-16-19.8z"/><path class="st12" d="M376.1 510.2s-12.4-17.9-21.6-8.2 3.8 25.3 6.8 24.8 17.6-1.3 17.6-1.3l-2.8-15.3z"/><path class="st11" d="M410.5 427.2c.6.1 1.2.3 1.7.8.8.8.8 2.3 1.9 2.8.4.2.8.2 1.2.1 2.7-.4 4.3-3.4 6.9-4.3 1.5-.4 3.1-.2 4.5.4.6.2 1.1.5 1.5 1 .9 1.1.3 2.8.7 4.1.6 1.9 2.8 2.6 4.8 2.9s4.1.4 5.5 1.9c.9 1.1 1.2 2.5 1 3.9-.1.5-.1 1 0 1.5.5 1.5 3.2 1.3 3.9.1.5-.9.4-1.6 1.5-1.8.9-.1 1.7.1 2.5.4 2.1.7 4.3 1.1 6.4 1 5.5-11.6.5-25.5-11.2-31-11.6-5.5-25.5-.5-31 11.2-.8 1.6-1.3 3.3-1.8 5z"/><path class="st4" d="M440 441.7c-.1-.5-.1-1 0-1.5.2-1.4-.1-2.8-1-3.9-1.3-1.5-3.5-1.6-5.5-1.9s-4.2-1-4.8-2.9c-.4-1.4.2-3-.7-4.1-.4-.5-.9-.8-1.5-1-1.4-.6-3-.8-4.5-.4-2.6.8-4.2 3.9-6.9 4.3-.4.1-.8 0-1.2-.1-1-.5-1.1-2-1.9-2.8-1.2-1.3-3.6-.5-5.1-1.4-.9-.8-1.5-1.8-1.6-3-.7-2.2-.8-4.5-.5-6.7.9-3.8 4.3-6.4 6.4-9.6 2-3 3.1-6.8 6.2-8.8s6.9-1.5 10.3-.5c1.6.6 3.2 1 4.8 1.3 2.7.3 5.5-.4 8.3-.5 3.9-.1 7.7 1 10.9 3.3.7.5 1.3 1.1 1.8 1.8.5 1 .7 2.1.8 3.2.3 2.1 1 4.1 2.1 5.9.9 1.4 1.9 2.7 2.7 4.2.9 1.4 1.1 3.2.7 4.8-.3.8-.8 1.6-1 2.5-.5 2 .9 3.9 1.8 5.7.9 1.7 1.3 3.5 1.2 5.4-.1 1.9-1 3.7-2.4 4.9-1.5 1-3.3 1.6-5.1 1.6-2.2.1-4.5-.3-6.6-1-.8-.4-1.6-.5-2.5-.4-1.2.2-1 1-1.5 1.8-.5 1.1-3.1 1.3-3.7-.2z"/><path class="st11" d="M427.5 572.9l13.1-10.3 20.6-20.3-6.8-.3c-.8.7-1.3 1.7-1.4 2.8-.1 2.5-5.6.2-8.4 1.6s-16.8 19.2-19.2 19.1-4.4-1.2-5.4.5l-.1.1c-.4.5-.9.8-1.5.9l9.1 5.9z"/><path class="st9" d="M401.1 572.2l6.6 21 1 3.3 3.1-.9 6.9-1.9 30.8-8.5c3.9-.2 7.7-1.2 11.1-3 5.8-3.3 12.5-4.7 19.1-4.2 4.1.4 8.6-1.4 12.4-8.3 0 0 8.5-25.2-13-32.4s-22.6 3.8-22.6 3.8l-.3.2c-.8.5-3.2 2.2-3.3 4.3-.1 2.5-5.6.2-8.4 1.6s-16.8 19.3-19.2 19.2-4.4-1.2-5.4.5l-.1.1c-.8 1-3 1.3-4.5 1.3H414l-.2.1-1.6.5-11.1 3.3z"/><path class="st11" d="M402.8 531.3l3.2.5 1.3-13.1s-1.5-.2-3.3-.6c.5 1.8-.6 8.9-1.2 13.2z"/><path class="st11" d="M485.9 470.1s9.5-2.7 7.1 24.1c-2.3 26.8-19.8 43.8-19.8 43.8s-20.1 8.8-29.2 7.4-15.6-1.7-15.6-1.7c-2.8-1.4-6-2.3-9.1-2.4-5.1-.2-15.8-3.3-16-4.4s2.6-16 1.4-17.1c0 0 14.2.6 15.6 1.6s3.5.3 5 0 6.2-4.3 15.5-.8c0 0 3.1.3 4.4-.5 1-.5 2.1-.5 3.2-.2.8-.3 1.5-.6 2.2-1.1.3-.4 2.8 0 2.8 0 .5.3 1.2 0 1.4-.5 0-.1.1-.1.1-.2.3-.8.8-1.6 1.4-2.2 0 0 2.8-15.5 7.9-21.2.8-.7 1.3-1.8 1.1-3-.4-1.7 8.4-24.9 20.6-21.6zm-73.6 98.7l13.4 16.3.1-.1c.1-.3 1.4-3.8 1.1-4s-2.6-5.3-7.3-7.4c-2.4-1.2-4.4-3-5.7-5.2l-1.6.4z"/><path class="st11" d="M412.4 597l1.5.8s3.4-2.7 6.8-5.5 6.7-5.4 6.7-5.6c.1-.3 1.4-3.8 1.1-4-.2-.1-.9-1.5-2.1-3.1-9.1-2.5-3.3 3.8-2.5 4.1 0 0-11.1-2.5-11.7 9.5-.1 1.2-.1 2.5.2 3.8z"/><path class="st4" d="M423.6 602.1l1.9 1.1 19.6.5c2.2 1.3 4.5 2.5 6.9 3.3.3.1.7.2 1 .2 1.8.1 3.6.2 5.5.1 1.5 0 2.7-.1 2.7-.1s-.9-24.7-1.6-27.3c-.3-1.3-2-1-3.6-.3-1.2.5-2.4 1.1-3.5 1.8 0 0-8.3.8-9.7 1.5s-5.1-.4-7.4 0-6.5-2.8-6.5-2.8c-11.4-3.8-5 3.3-4.2 3.6 0 0-11.1-2.5-11.7 9.5s10.6 8.9 10.6 8.9z"/><path d="M452 592.5c.2 5.1 4.2 11.5 6.6 14.8 1.5 0 2.7-.1 2.7-.1s-.9-24.7-1.6-27.3c-.3-1.3-2-1-3.6-.3-2 3.7-4.3 8.8-4.1 12.9z" fill="#565387"/><path class="st11" d="M452 592.5c.2 5.1 4.2 11.5 6.6 14.8 1.5 0 2.7-.1 2.7-.1s-.9-24.7-1.6-27.3c-.3-1.3-2-1-3.6-.3-2 3.7-4.3 8.8-4.1 12.9z"/><path class="st10" d="M448.7 593.2c1.4 4.9 1.3 10.5 3.5 13.8.3.1.7.2 1 .2 1.8.1 3.6.2 5.5.1 1.5 0 2.7-.1 2.7-.1s-.9-24.7-1.6-27.3c-.3-1.3-2-1-3.6-.3-1.2.5-2.4 1.1-3.5 1.8-.2 0-5.8 5.5-4 11.8z"/><path class="st11" d="M381 543.1s9.7 3.2 18 14.4l-18-14.4z"/><path d="M460.2 421.1l-.1.2-.3.9c.1-.4.2-.8.4-1.1zm-55.2-4.9c.2-.7.4-1.4.8-2 0 .2-.1.4-.1.5-.4 2.3-.2 4.6.5 6.7.1 1.2.7 2.2 1.6 3 1.5 1 3.9.1 5.1 1.4.8.8.8 2.3 1.9 2.8.4.2.8.2 1.2.1 2.7-.4 4.3-3.4 6.9-4.3 1.5-.4 3.1-.3 4.5.4.6.2 1.1.5 1.5 1 .9 1.1.3 2.8.7 4.1.6 1.9 2.8 2.6 4.8 2.9s4.1.4 5.5 1.9c.9 1.1 1.2 2.5 1 3.9-.1.5-.1 1 0 1.5.5 1.5 3.2 1.3 3.9.1.5-.9.4-1.6 1.5-1.9.9-.1 1.7.1 2.5.4 2.1.7 4.3 1.1 6.6 1 1.8 0 3.6-.5 5.1-1.6.7-.5 1.2-1.2 1.6-1.9-.3 1.4-1.1 2.6-2.2 3.5-1.5 1-3.3 1.6-5.1 1.6-2.2.1-4.5-.3-6.6-1-.8-.4-1.6-.5-2.5-.4-1.2.2-1 1-1.5 1.8-.7 1.2-3.3 1.4-3.9-.1-.1-.5-.1-1 0-1.5.2-1.4-.1-2.8-1-3.9-1.3-1.5-3.5-1.6-5.5-1.9s-4.2-1-4.8-2.9c-.4-1.4.2-3-.7-4.1-.4-.5-.9-.8-1.5-1-1.4-.6-3-.8-4.5-.4-2.6.8-4.2 3.9-6.9 4.3-.4.1-.8 0-1.2-.1-1-.5-1.1-2-1.9-2.8-1.2-1.3-3.6-.5-5.1-1.4-.9-.8-1.5-1.8-1.6-3-.8-2.1-.9-4.5-.6-6.7z"/><path class="st11" d="M461.7 497.5c-1.9 2.5-4 4.8-5.6 7.5-1.8 2.6-2.7 5.7-2.5 8.9 1.7-1.8 2.5-4.2 3.6-6.4 1.8-3.7 4.5-6.9 6.8-10.3.4-.6 3.3-4.4 1.8-4.6-1.1-.1-3.4 4.1-4.1 4.9z"/><path class="st3" d="M410.3 456.5l20.4 38.5c.6 1.1-1 3.2-3.7 4.6l-101.7 53.8c-2.6 1.4-5.3 1.6-5.9.5L299 515.3c-.6-1.2.9-3.5 3.6-4.9l101.7-53.8c2.6-1.3 5.4-1.3 6-.1z"/><path class="st16" d="M410.3 456.5l20.4 38.5c.6 1.1-1 3.2-3.7 4.6l-101.7 53.8c-2.6 1.4-5.3 1.6-5.9.5L299 515.3c-.6-1.2.9-3.5 3.6-4.9l101.7-53.8c2.6-1.3 5.4-1.3 6-.1z"/><path class="st16" d="M356.3 505.6l53-28 1 1.9-53 28-1-1.9zm2.4 4.5l53-28 1 1.9-53 28-1-1.9zm2.4 4.6l53-28 1 1.9-53 28-1-1.9zm-36.2-3.7c-6.9 3.7-9.6 12.3-5.9 19.2 2.2 4.2 6.4 7 11.2 7.5l-1.1-2.1c-.8-1.4-.3-3.2 1-4.2 2.6 1.7 6.1 1 7.8-1.6.6-.9.9-2 .9-3 1.5-.6 3.2.1 4 1.5l1.1 2.2c3.8-6.8 1.4-15.5-5.5-19.3-4.1-2.4-9.2-2.4-13.5-.2zm13.7 12.4v.3l-.3.3-.3.1c.6 3-1.3 6-4.4 6.7s-6-1.3-6.7-4.4c-.1-.4-.1-.9-.1-1.3h-.1c-.9-.4-1.4-1.4-1-2.4.2-.4.5-.7.8-.9.9-.9 1.5-2.1 1.6-3.4.1.2.3.5.4.8.2-.7.9-1.1 1.5-.9.2.1.5.2.7.3.2 0 .4 0 .6-.1l1.3-.5c.8-.6 2-.4 2.6.4.8.7 1.6 1.4 2.2 2.2.8.8 1.1 1.8 1.2 2.8z"/><path class="st12" d="M368.1 514c-.1 13.4 27.6 16.3 27.6 16.3l7.1 1.1 3.2.5 1.3-13.1s-1.5-.2-3.3-.6c-2.7-.6-6.2-1.7-6.9-3.2-1.2-2.7-28.9-14.5-29-1z"/><path class="st4" d="M485.6 468s9.5-2.7 7.1 24.1c-2.3 26.8-19.8 43.8-19.8 43.8s-20.1 8.8-29.2 7.4-15.6-1.7-15.6-1.7c-2.8-1.4-6-2.3-9.1-2.4-5.1-.2-15.8-3.3-16-4.4s2.6-16 1.4-17.1c0 0 14.2.6 15.6 1.6s3.5.3 5 0 6.2-4.4 15.5-.8c0 0 3.1.3 4.4-.5 1-.5 2.1-.5 3.2-.2.8-.3 1.5-.6 2.2-1.1.3-.4 2.8 0 2.8 0 .5.3 1.2.1 1.4-.5 0-.1.1-.2.1-.2.3-.8.8-1.6 1.4-2.2 0 0 2.8-15.4 7.9-21.2.8-.7 1.3-1.8 1.1-2.9-.4-1.8 8.5-24.9 20.6-21.7z"/><path class="st3" d="M878.2 136.1v56c0 1.7-3.1 3-7 3H723.4c-3.9 0-7-1.4-7-3v-56c0-1.7 3.1-3.4 7-3.4h147.8c3.8.1 7 1.8 7 3.4z"/><path class="st0" d="M860.8 146.3v56c0 1.7-3.1 3-7 3H706.1c-3.9 0-7-1.4-7-3v-56c0-1.7 3.1-3.4 7-3.4h147.8c3.8.1 6.9 1.8 6.9 3.4z"/><path class="st3" d="M878.2 136.1v56c0 1.7-3.1 3-7 3H723.4c-3.9 0-7-1.4-7-3v-56c0-1.7 3.1-3.4 7-3.4h147.8c3.8.1 7 1.8 7 3.4z"/><path class="st16" d="M653.4 189.8v56c0 1.7-3.1 3-7 3H498.7c-3.9 0-7-1.4-7-3v-56c0-1.7 3.1-3.4 7-3.4h147.7c3.9 0 7 1.7 7 3.4zM480 299.5v56c0 1.7-3.1 3-7 3H325.3c-3.9 0-7-1.4-7-3v-56c0-1.7 3.1-3.4 7-3.4H473c3.9 0 7 1.7 7 3.4zm-39.9-177.6v56c0 1.7-3.1 3-7 3H285.4c-3.9 0-7-1.4-7-3v-56c0-1.7 3.1-3.4 7-3.4h147.7c3.9 0 7 1.7 7 3.4zm253.7 264.9v56c0 1.7-3.1 3-7 3H539c-3.9 0-7-1.4-7-3v-56c0-1.7 3.1-3.4 7-3.4h147.8c3.8 0 7 1.7 7 3.4zm184.4-250.7v56c0 1.7-3.1 3-7 3H723.4c-3.9 0-7-1.4-7-3v-56c0-1.7 3.1-3.4 7-3.4h147.8c3.8.1 7 1.8 7 3.4zm-716.5 36v56c0 1.7-3.1 3-7 3H7c-3.9 0-7-1.4-7-3v-56c0-1.7 3.1-3.4 7-3.4h147.8c3.8 0 6.9 1.7 6.9 3.4z"/><linearGradient id="SVGID_2_" gradientUnits="userSpaceOnUse" x1="-224.893" y1="-65.459" x2="-224.893" y2="376.692" gradientTransform="matrix(.9993 -.03839 -.03839 -.9993 1043.518 533.43)"><stop offset="0" stop-color="gray" stop-opacity=".25"/><stop offset=".54" stop-color="gray" stop-opacity=".12"/><stop offset="1" stop-color="gray" stop-opacity=".1"/></linearGradient><path d="M925 594.2c-1.4-5-2.3-9.4-2.3-9.4s.1-5.5-2.6-9.5v-1.4l-.4-10.2c.6-1.9 1.4-3.7 2.4-5.4 1.7-3.3-.6-14.8-.6-14.8s-7.4-16.2-6.2-26.7-15.7-45.8-15.7-45.8c0-3.5.3-6.9 1.1-10.3.1-.7.2-1.4.1-2.2v-.3.1c-.5-6.9-6.4-19.5-6.4-19.5l-.2-24.6s2.9-14.6-3.5-33.9c-2.2-6.7-3.7-12.1-4.7-16.3-.1-.5-.2-.9-.3-1.4 11.6-2.2 20.4-4 20.4-4s-7.8-28-12.6-32.8-9-20.2-9-20.2-3.1-19.9.5-25.9 3.8-16.2 3.8-16.2 8.5-6.7 9.5-9.6c1-2.9 2.6-9.3 2.4-12.7s-1.3-6.3-1-8.1-2.9-8.4-1.5-11.6c.3-1 .5-2 .5-3.1v-.1c-.1-2.8-.5-5.5-1.1-8.3-2.6-2-5.6-3.5-8.9-4.3l-.2-.8-.6-2c-.3-.2-.6-.3-.9-.5v-.7l-.2-2.9 1.1-6.5c2.3-11.3-12.8-12.4-12.8-12.4-1-1.7-2.5-3-4.4-3.5-3.1-1 .1 16.9 1.6 18 1.1.8 4.6 6.3 6.3 9l.3.4c-.2.2-.5.5-.7.8l.7 3.9.1.6c-.9 1.3-1.7 2.7-2.2 4.2 0 0 2.8 2.9 2.4 6.3s1.1 7.5 1.2 7.7c-.2-.2-2.2-2.2-4.1-1.6s-7.2 2.4-7.2 2.4-4 .9-3.6 1.7-2.5 5.2-2.5 5.2l-11.2-9.8-.3-.9c-.5-1.4-.9-2.9-1.1-4.5 1.2-.3 2.3-.7 3.4-1.2 1.1-.4 2.1-1.1 2.9-2 1-1.3 1.2-3.1 1.6-4.7.7-3.2 2.5-6 3.7-9.1 2-5.1 2.5-10.7 1.5-16.1-.2-1.7-.9-3.3-1.8-4.6-1.9-2.4-5.1-3.2-7.5-5.1s-4-4.7-6.8-6.1c-2.5-1.2-5.5-1-8.2-.4-5.4 1.1-10.5 3.2-15.1 6.1-1.5 1-3.2 2.1-5 1.9-1.6-.2-2.7-1.4-3.8-2.6v-.1l-.1-.1c-1 2.6-1.5 5.4-1.4 8.1 0 .4 0 .9.1 1.3v.9c0 .2 0 .4-.1.6-.2.6-.6 1.1-1 1.5-.3.4-.6.8-.8 1.2 0-.1.1-.3.1-.5-.7 1-1 2.2-1 3.5 0 .9.3 1.8.9 2.4.6.5 1.2 1 1.8 1.4-.2 1.2-.2 2.4-.2 3.6.3 7.3 4.4 13.9 10.9 17.4.1.3.3.6.4.9 1.5 3.6 2.7 7.8 2.4 11.7 0 .3-.1.6-.1.9s-.3.3-.4.5-17.8.9-22.2-2.8-10.2 9.7-10.2 9.7-6.3 1.5-7.7.3-8.8.2-8.8.2c-3.2-2.6-7.2-3.9-11.3-3.6-2.6-1.8-5.4-3.2-8.4-4.2l-.2-.1c-1.3-.4-2.7-.5-4-.4 0 0-9-6.9-11.8-10.7s-15.4-17.8-15.5-17.8l-.1-.7-.2-2.1c-.4.1-.7.1-1.1.1l-.3-.7c-.8-2-1.7-4-2.8-5.8 0 0-.1-2.7.7-3.4s-.7-10.4-.7-10.4-8.6-18.2-15.2-4.1c0 0-13 9.4-1.4 19.4 0 0 4.6 2 5.3 3.7.5 1.1 2.1 4.2 3.2 6.2.2.3.3.6.5.9l-.1.1.2 1.7.1.7c-2.1 1.3-3.5 2.5-3.1 3.4.7 1.5 1.2 3.1 1.5 4.7 0 0 16.3 18.9 18.6 27.1 0 0 42.6 23.2 56.4 24.4l-1.8 12.4c-.2 3.4-.3 6.7-.2 10.1.3 2.6-1.1 14.7-1.1 14.7s-1.7 17.8-3.6 20.3-1.2 13.1-1.2 13.1c-.3 5.1-1 10.2-2.2 15.1-1.8 6.8 0 15 0 15s-6.3 16.2 9.9 4.8c0 0 8.1-.8 17.5-1.5v.9c0 1.2.1 2.5.1 3.9.2 9.1.7 21.7 1.4 31.2 1.4 16.8 7.8 49.8 7.8 49.8l.6 16.7c-.3 1.6-.4 3.2-.3 4.8.1 5.9 1.9 11.7 5.1 16.6l1.7 11.1s3.3 7.2 3.5 11.6c0 .4 0 .7-.1 1.1-.1.6-.1 1.1-.1 1.7 0 5.1 3.5 17 3.5 17s.7 12.2 2.5 12.8c1.6.5-1.8 7.1-2.8 9 0-.1-.1-.2-.1-.3-.1.3-.2.4-.2.4-.3 1-.5 2.1-.5 3.1-.1 1.7.7 3.4 2.2 4.2 3.5 2 5.5 3.7 2.6 4.5-1.1.2-2.1.5-3.2.8 0-.1-.1-.3-.2-.4-.8.4-1.3 1.3-1.1 2.2.1 1.4.5 2.9 1.3 4.1 3.2 6.4 5.3 8.8 5.3 8.8l1.4-.2c-.2.5-.4 1.1-.8 1.5-.5.8-1.2 1.4-2 1.9-.7.5-1.6.8-2.5 1-2 .1-3.9 1.1-5.1 2.7-1.7 2.4-2.8 5.7 1 8.4l13.2 4s22.6 2.1 21.2-2.9-2.3-9.4-2.3-9.4c0-3.1-.8-6.1-2.2-8.9-.2-.4-.5-.9-.8-1.3l.8-.1s1.2-11.2 3.3-13.4c.5-.5.6-.9.5-1.2.2-.6-.4-1-1.1-1.1 0 .1-.1.3-.1.4-.7-.1-1.5-.2-2.2-.2 0 0-1-5.8 1.3-8 .4-.5.5-1.1.4-1.8 0-.8-.1-1.6-.3-2.4l-.1.1c-1.4-5.3-5.8-13.5-5.8-13.5s-.4-5.3 1-7.5-1.3-28.8-1.3-28.8.1-12.9-1.8-18.9 1.5-13.2 1.5-13.2 0-.1-.1-.4v-.1s-.1-.8-.3-2v.1c-.5-3.4-1.4-9.6-2-12.4-.9-4-.7-23.5-.7-23.5l3-8.4 6.4 14.1 7 18.9s3.2 3.9 3.5 8v1.9c0 2.4.7 4.8 2.2 6.7 0 0 2 9 4.6 11.2s2.8 6.6 2.8 6.6 3.6 13 5.2 15.2c1.3 1.9 1.6 7.2 1.6 8.8v.5s.6 4.7.8 8.6v1.3c0 1.1-.1 2.1-.3 3.2v-.5c-.5 2.7-.7 5.4-.6 8.2.1 4.7 1 10.3 4 13.4 5.2 5.5 8.2 4.6 8.2 4.6s-2.1 7.2-5 8.7c-.1.1-.2.1-.3.2 0-.1-.1-.3-.1-.4-.6.7-.9 1.7-.8 2.7-.1 3.1 2.1 8.1 4 10.3.7.6 1.6 1.1 2.5 1.3-.1.1-.3.2-.4.3-.3.2-.7.4-1 .5-.5.2-1 .4-1.5.4-2 .1-3.9 1.1-5.1 2.7-1.7 2.4-2.8 5.7 1 8.4l13.2 4c.4.5 22.9 2.4 21.5-2.6z" fill="url(#SVGID_2_)"/><path class="st18" d="M839.5 605.9l-12.8-4c-3.6-2.7-2.6-6-.9-8.4 1.2-1.6 3-2.6 4.9-2.7.9-.2 1.7-.5 2.4-1 .8-.5 1.5-1.1 1.9-1.9.9-1.5 1.3-3.2 1.3-4.9 0 0 13.7-4.6 17.7-.7.7.7 1.3 1.5 1.8 2.4 1.4 2.8 2.1 5.8 2.1 8.9 0 0 .9 4.4 2.2 9.4s-20.6 2.9-20.6 2.9zm61.6-8.6l-12.8-4c-3.6-2.7-2.6-5.9-.9-8.3 1.2-1.6 3-2.6 4.9-2.7.5-.1 1-.2 1.4-.5.3-.1.7-.3 1-.5 3.5-2.1 3.2-6.8 3.2-6.8s13.7-4.6 17.7-.7c.5.5 1 1.1 1.4 1.8 2.5 4 2.5 9.5 2.5 9.5s.9 4.4 2.2 9.4-20.6 2.8-20.6 2.8z"/><path class="st11" d="M853.9 582.3c.7.7 1.3 1.5 1.8 2.4l-20.7 3.2c.9-1.5 1.3-3.2 1.3-4.9-.1 0 13.6-4.6 17.6-.7zm63-6.9l.2 3.9c-3 5.5-18.7 4.9-23.4 2.4.3-.1.7-.3 1-.5 3.5-2.1 3.2-6.8 3.2-6.8s13.7-4.6 17.7-.7c.5.5.9 1.1 1.3 1.7z"/><path class="st9" d="M918.8 558.6c-.9 1.7-1.7 3.5-2.3 5.4l.5 14c-3.3 6-21.8 4.7-24.4 1.7s-5.6-11.3-2.8-12.8 4.8-8.7 4.8-8.7-3 .8-8-4.7-4.1-18.1-3.3-21.1-.5-13.1-.5-13.1-.1-7.1-1.6-9.3-5-15.2-5-15.2-.2-4.4-2.7-6.6S869 477 869 477c-1.5-2.2-2.3-4.9-2.1-7.5.4-4.4-3.4-9.1-3.4-9.1l-6.8-18.9-6.2-14.1-2.8 8.5s-.1 19.5.7 23.5 2.3 14.8 2.3 14.8-3.3 7.2-1.4 13.2 1.8 18.9 1.8 18.9 2.6 26.6 1.3 28.8-1 7.5-1 7.5 7.8 15.3 5.6 17.5-1.3 8-1.3 8 5-.2 2.9 2-3.2 13.4-3.2 13.4l-21.3 3.3s-2.1-2.4-5.1-8.8.3-5.8 3.1-6.7 1-2.5-2.5-4.5-1.7-6.8-1.7-6.8 4.8-8.9 3-9.5-2.4-12.8-2.4-12.8-4.1-14.4-3.4-18.3S822 506 822 506l-1.7-11.1c-4-6.2-5.7-13.6-4.7-20.9l-.6-17.2s-6.2-33-7.6-49.8c-.9-10.7-1.3-25.4-1.5-34.6-.1-5.1-.2-8.5-.2-8.5l76.1-10.9c.3 3.8.9 7.6 1.8 11.3.9 4.2 2.4 9.5 4.5 16.3 6.2 19.2 3.4 33.9 3.4 33.9l.2 24.6s7.3 16.2 6.2 21.9c-.7 3.4-1 6.8-1 10.3 0 0 16.4 35.3 15.2 45.8-1.2 10.5 6 26.7 6 26.7s2.3 11.5.7 14.8z"/><path class="st10" d="M871.5 468.1l23.1-4c.1 0-12.6 14-23.1 4z"/><path class="st11" d="M890.4 441.5s1.1 8.2-3.8 11.5c0 0 9-1.7 3.8-11.5zm-2.4-26.1s-18.8 16.8-26 15.7 26-15.7 26-15.7zm-45 61.4s-14.6 3.9-14.8 9.9 14.8-9.9 14.8-9.9z"/><path class="st10" d="M849.1 550.3s-20.7 4.7-14.7 7.1 15.8 4.2 15.8 4.2 6.8.1-1.1-11.3z"/><path d="M830.4 561.8c-1.1-.6-1.8-1.7-2-3l-.2.4s-1.8 4.8 1.7 6.8c.4.2.8.5 1.1.7.6-.1 1.3-.3 1.9-.4 2.8-.8.9-2.5-2.5-4.5zm26.8-2.4c.5-.5.5-1.9.1-3.6-.8 1.6-1.1 3.4-1 5.2.1-.7.4-1.2.9-1.6zm-6.6-87.9c-.7 2.1-1.1 4.3-1.2 6.6.3-1.6.8-3.1 1.5-4.5 0 0-.1-.8-.3-2.1zm47.4-11.1c.1-.6.2-1.3.1-1.9-.2 1.3-.3 2.6-.4 3.6.1-.5.2-1.1.3-1.7zm-45.5 74c.4-1.3.5-2.6.4-3.9-.6 1.6-.9 3.3-.8 5 0-.4.2-.7.4-1.1zm5.7 33.2c-1 3.6-1.6 7.3-2 11l-21.3 3.3s-2-2.4-5.1-8.8c-.3-.6-.5-1.1-.7-1.5-1.3.6-1.7 2 .1 5.8 3.1 6.4 5.1 8.8 5.1 8.8l21.3-3.3s1.2-11.2 3.2-13.4c1-1.2.3-1.7-.6-1.9zm-29.5-30.7s.7 12.2 2.4 12.8c.8-2 1.3-4 .5-4.3-1.8-.6-2.4-12.8-2.4-12.8s-4.1-14.4-3.4-18.3-3.3-13.1-3.3-13.1l-1.7-11.1c-4-6.2-5.7-13.6-4.7-20.9l-.7-17.1s-6.2-33-7.6-49.8c-.9-10.7-1.3-25.4-1.5-34.6 0-1.7-.1-3.1-.1-4.4l-.6.1s0 3.4.2 8.5c.2 9.2.6 23.9 1.5 34.6 1.4 16.8 7.6 49.8 7.6 49.8l.7 17.1c-1 7.3.7 14.7 4.7 20.9l1.7 11.1s4.1 9.2 3.3 13.1 3.4 18.4 3.4 18.4zm64.5 37.9c-1.8-2.4-3.1-5.3-3.7-8.3-2.1 2 .7 9.6 3.2 12.5 2.6 3.1 21.1 4.3 24.4-1.6l-.1-3.4c-4.7 5-21.4 3.7-23.8.8zm26.1-21c-.9 1.7-1.7 3.5-2.3 5.4l.1 2.5c.4-.9.9-2.2 1.6-3.6.5-1.4.7-2.9.6-4.4v.1zm-25.7 3.8c.6-1.4 1.2-2.8 1.6-4.3 0 0-3 .8-8-4.7-3.6-4-4.1-11.8-3.8-16.8-.8 3-1.7 15.7 3.3 21.1 3.2 3.6 5.6 4.5 6.9 4.7zm-10.7-38.9c.4 3.5.7 7 .8 10.5.1-.6.2-1.1.3-1.7.8-3-.5-13.1-.5-13.1s-.1-7.1-1.6-9.3-5-15.2-5-15.2-.2-4.4-2.7-6.6-4.5-11.2-4.5-11.2c-1.5-2.2-2.3-4.9-2.1-7.5.4-4.4-3.4-9.1-3.4-9.1l-6.8-18.9-6.2-14.1-2.9 8.4v2.7l2.3-6.9 6.2 14.1 6.7 18.9s3.7 4.6 3.4 9.1c-.2 2.7.5 5.3 2.1 7.5 0 0 1.9 9 4.5 11.2s2.7 6.6 2.7 6.6 3.5 13 5 15.2 1.7 9.4 1.7 9.4z" opacity=".05"/><path class="st20" d="M885.2 192.9l-1.1 6.5.2 2.9.1 2.1-7.3 1-.9-1.5c-1.6-2.7-5-8.2-6.1-9-1.4-1.1-4.5-18.9-1.6-18 1.8.6 3.3 1.9 4.3 3.6 0-.1 14.6 1 12.4 12.4z"/><path class="st11" d="M884.5 204.4l-7.3 1-.9-1.5c2-2.4 5.3-3.1 8.1-1.7l.1 2.2z"/><path class="st21" d="M886.4 207.8l-9.6 2.6-.3-1.4-.7-3.9s3.7-5.3 9.4-1.6l.6 2 .6 2.3z"/><path class="st20" d="M728.3 199.6l-10.2 6s-.4-.8-1-1.9c-1.1-2-2.7-5.1-3.1-6.2-.7-1.7-5.1-3.7-5.1-3.7-11.3-10 1.3-19.4 1.3-19.4 6.3-14.1 14.7 4.1 14.7 4.1s1.4 9.7.7 10.4-.6 3.3-.6 3.3c1.1 1.9 2 3.8 2.7 5.9.4.9.6 1.5.6 1.5z"/><path class="st11" d="M728.3 199.6l-10.2 6s-.4-.8-1-1.9c1.4-1.3 6.5-5.7 8.2-5.6.8.1 1.6.1 2.5 0l.5 1.5z"/><path class="st21" d="M729.5 202.7l-11.5 6.2-.3-2.5-.2-1.7s6.5-6.1 8.5-5.9c1 .1 2 .1 3-.1l.2 2.1.3 1.9z"/><path class="st20" d="M858.6 236.8s-50.7 7.7-41.3 4.3c6.5-2.4 9-6.7 9.4-11.4.3-3.9-.9-8.1-2.3-11.7-1.3-3.2-3-6.2-4.9-9 0 0 38.1-22.9 31-3.1-1.1 3-1.7 6.1-1.8 9.3-.1 3.2.3 6.3 1.4 9.3 1.5 4.7 4.5 9 8.5 12.3z"/><path class="st11" d="M850.5 205.8c-1.1 3-1.7 6.1-1.8 9.3-3.5 3.2-7.6 3.2-12.7 3.4-4 .1-8.3 1.3-11.6-.5-1.3-3.2-3-6.2-4.9-9-.1 0 38-22.9 31-3.2z"/><circle class="st20" cx="834.4" cy="198.8" r="21.1"/><path class="st11" d="M858.6 236.8s-50.7 7.7-41.3 4.3c6.5-2.4 9-6.7 9.4-11.4 2.4-2.9 7.4-5 10.7-6.2 2.9-1.1 6.2-1.3 9.2-.5 1.2.3 2.4.8 3.4 1.4 1.6 4.8 4.6 9.1 8.6 12.4zm27.8-29l-9.6 2.6-.3-1.4c2-3 5.7-4.4 9.2-3.6l.7 2.4zm-156.9-5.1l-11.5 6.2-.3-2.5c3.7-2.2 7.6-4 11.6-5.6l.2 1.9zm154.1 161.6c-19.6 3.9-47.5 9-52 7.8-3.7-1-15.5-.4-25.8.3-.1-5.1-.2-8.5-.2-8.5l76.1-10.9c.3 3.8 1 7.6 1.9 11.3z"/><path class="st4" d="M903.1 358.9s-64.5 13.6-71.5 11.8-42.7 1.8-42.7 1.8c-15.7 11.4-9.6-4.8-9.6-4.8s-1.7-8.3 0-15c1.1-5 1.8-10 2.1-15.1 0 0-.8-10.6 1.1-13.1s3.5-20.3 3.5-20.3 1.3-12.1 1-14.7.2-10.1.2-10.1l1.8-12.5c-13.3-1.3-54.6-24.5-54.6-24.5-2.3-8.2-18-27.1-18-27.1-.3-1.6-.8-3.2-1.4-4.7-1.2-2.8 14.5-9.1 14.5-9.1s12.4 14 15 17.8 11.4 10.7 11.4 10.7c1.3-.2 2.7-.1 3.9.4l.2.1c2.9 1 5.6 2.4 8.1 4.2 4-.3 7.9 1.1 10.9 3.6 0 0 7.2-1.3 8.5-.1s7.4-.3 7.4-.3 5.7-13.3 9.9-9.7 21.5 2.8 21.5 2.8c2.2-3.1 7.7-5.6 11.2-6.8 2.9-1.1 6.2-1.3 9.2-.5 1.3.3 2.6.9 3.7 1.6l10.9 9.9s2.9-4 2.5-4.9 3.5-1.7 3.5-1.7 5.1-1.8 7-2.4 3.8 1.4 4 1.6c-.1-.2-1.6-4.4-1.2-7.7s-2.4-6.3-2.4-6.3c5.6-15.4 20.1-3.3 20.1-3.3s1.9 8.3.6 11.5 1.8 9.8 1.5 11.6.9 4.8 1 8.1-1.4 9.8-2.3 12.7c-1 2.9-9.2 9.6-9.2 9.6s-.4 10-3.9 16-.4 25.9-.4 25.9 4.1 15.4 8.8 20.2 12.2 32.8 12.2 32.8z"/><path class="st11" d="M804 246.2s-2.2-5.8-4-6.2c-1.8-.6-3.5-1.3-5.2-2.1l1-2.2s6.7 1.6 7.8 3.5.4 7 .4 7zm-36-11.5c-.3 1.8-16 4-16 4l7.7-8.3.2.1c2.9.9 5.6 2.4 8.1 4.2z"/><circle class="st22" cx="721.5" cy="212.1" r="1.4"/><circle class="st22" cx="723.5" cy="214.9" r="1.4"/><circle class="st22" cx="725.3" cy="217.4" r="1.4"/><circle class="st22" cx="727.3" cy="220.2" r="1.4"/><circle class="st22" cx="894" cy="213.6" r="1.2"/><circle class="st22" cx="894.2" cy="216.2" r="1.2"/><circle class="st22" cx="894.5" cy="218.8" r="1.2"/><path class="st11" d="M806 294.1c-.2-.2 41.6 48.6 71.5 18.3-.1 0-48.7 8.5-71.5-18.3zm-21.9 27.1s23.9-.3 26.6 6.5l.3 7.1c-1.3.8-3 .9-4.4.2-2.5-1.2-17.2-8-22.1-4.3l-.4-9.5z"/><path d="M784.5 321.1s22.8-.3 25.5 6.2l.3 6.8c-1.3.8-2.9.8-4.3.2-2.3-1.1-16.4-7.6-21.1-4l-.4-9.2z" fill="#656691"/><path class="st11" d="M795.1 268.9c2.7 5.5 6 10.8 9.9 15.5 4.2 5.3 9.3 9.8 15 13.4 0 0-24.4-25.7-24.9-28.9zm-8.9-27.4s4.6 17 15.1 22.5l-15.1-22.5zm-6 1.9c-.1-.3-3 13.7 14 20.8 0 0-7.2-2.2-14-20.8zm103.7-15.5c-.3 0 8.5 5.1 10.9 7.6 0-.1-5.9-8.2-10.9-7.6z"/><path class="st18" d="M829.5 218.1a3.4 3.4 0 0 0 3.4 3.2h.3c6.4.1 13.1.2 19-2.5 1.1-.4 2.1-1.1 2.8-2 1-1.3 1.1-3.1 1.5-4.7.7-3.2 2.4-6 3.5-9.1 1.9-5.1 2.4-10.7 1.4-16.1-.2-1.7-.8-3.2-1.8-4.6-1.8-2.4-4.9-3.2-7.3-5.1s-3.9-4.8-6.6-6.1c-2.4-1.2-5.3-1-8-.4-5.2 1.1-10.2 3.2-14.6 6.1-1.5 1-3.1 2.1-4.9 1.9-1.5-.2-2.7-1.5-3.8-2.6-1.1 2.9-1.6 6.1-1.2 9.2.1.5.1.9 0 1.4-.2.6-.5 1.1-.9 1.5-1.5 1.9-2.4 4.9-.8 6.6.7.8 1.8 1.2 2.5 2 1.2 1.4.9 3.6 1 5.5 0 .7.1 1.3.5 1.9.7.6 1.7.8 2.6.5.9-.3 1.8-.4 2.8-.4 1 .3 1.9.9 2.5 1.8 3.3 3.4 4.7 7.5 6.1 12z"/><path d="M855.7 215.1c-.8.9-1.7 1.6-2.8 2-5.8 2.7-12.5 2.7-19 2.5-1.8.3-3.5-1-3.7-2.8v-.3c-1.4-4.5-2.7-8.6-5.8-12.2-.6-.8-1.5-1.5-2.5-1.8-.9-.1-1.9.1-2.8.4-.9.3-1.9.1-2.6-.5-.4-.5-.6-1.2-.5-1.9 0-1.9.3-4-1-5.5-.7-.8-1.8-1.2-2.5-2-.9-1.2-1.2-2.8-.6-4.2-1 1.8-1.5 4.1-.1 5.6.7.8 1.8 1.2 2.5 2 1.2 1.4.9 3.6 1 5.5 0 .7.1 1.3.5 1.8.7.6 1.7.8 2.6.5.9-.3 1.8-.4 2.8-.4 1 .3 1.9.9 2.5 1.8 3.1 3.7 4.4 7.8 5.8 12.2.2 1.1.8 2.1 1.8 2.8.6.3 1.3.4 2 .4 6.4.1 13.1.2 19-2.5 1.1-.4 2.1-1.1 2.8-2 .4-.5.7-1.1.8-1.7-.1.1-.2.2-.2.3zM813.5 186c.3-.3.5-.7.6-1.1.1-.5.1-.9 0-1.4-.3-2.6 0-5.2.7-7.6l-.1-.1c-1.1 2.9-1.6 6.1-1.2 9.2v1z"/><path class="st11" d="M826.2 231s26.4 2.5 28.6-1.6m22.1-11.2s14.6-.5 18 4.8"/><path class="st1" d="M353.9 501l53-28 1 1.9-53 28-1-1.9zm208.8-294.6h77v2.7h-77v-2.7zM389.3 316.1h77v2.7h-77v-2.7zm-39.9-177.6h77v2.7h-77v-2.7zM603 403.4h77v2.7h-77v-2.7zm184.4-250.6h77v2.7h-77v-2.7zM71 188.7h77v2.7H71v-2.7z"/><path class="st16" d="M523.7 200.5c-10.1 0-18.2 8.2-18.2 18.3 0 6.1 3.1 11.8 8.2 15.2v-1.2c0-2.1 1.6-3.9 3.7-4.1 1.9 3.5 6.3 4.8 9.8 2.9 1.2-.7 2.2-1.7 2.9-2.9 2.1.3 3.6 2 3.7 4.1v1.3c8.4-5.5 10.8-16.8 5.4-25.2-3.5-5.3-9.3-8.4-15.5-8.4zm7.2 23.1c-.3 4-3.7 7-7.7 6.7-3.6-.2-6.5-3.1-6.7-6.7-1.8-4-.1-8.7 3.9-10.5.1 0 .2-.1.3-.1-.3-.4-.4-.8-.4-1.3 0-1.3 1.1-2.4 2.4-2.4h.2c-1.3.1-2.2 1.1-2.2 2.4 0 .4.1.8.3 1.2h.1v-.5c0-.5.2-1 .5-1.4.3-1 1.2-1.7 2.3-1.7h.2c-.7.1-1.4.5-1.8 1.1.4-.3.9-.4 1.3-.4 1.3 0 2.4 1.1 2.4 2.4v.3c3.5.9 5.9 4.1 5.9 7.7-.3 1-.5 2.2-1 3.2zm31.8-10.6h77v2.7h-77V213zm0 6.7h77v2.7h-77v-2.7zm0 6.6h77v2.7h-77v-2.7zm-212.4 83.8c-10.1 0-18.3 8.2-18.3 18.2 0 6.1 3.1 11.9 8.2 15.2v-1.2c0-2.1 1.6-3.9 3.6-4.1 1.9 3.5 6.3 4.8 9.8 2.9 1.2-.7 2.2-1.7 2.9-2.9 2.1.2 3.6 2 3.6 4.1v1.3c8.5-5.5 10.9-16.8 5.4-25.2-3.2-5.1-9-8.3-15.2-8.3zm7.2 23.2c-.3 4-3.7 7-7.7 6.7-3.6-.2-6.5-3.1-6.7-6.7-.5-1-.7-2.2-.7-3.3 0-3.2 1.9-6.1 4.9-7.3-.2-.4-.4-.8-.4-1.3 0-1.3 1.1-2.4 2.4-2.4h.2c-1.3.1-2.3 1.2-2.2 2.6 0 .4.1.7.3 1h.1v-.5c.2-1.5 1.3-2.8 2.8-3.1h.1c-.7.1-1.4.5-1.8 1.1.4-.3.9-.4 1.3-.4 1.3 0 2.4 1.1 2.4 2.4v.3c4.2 1.1 6.8 5.4 5.6 9.7-.3.4-.4.8-.6 1.2zm31.8-10.6h77v2.7h-77v-2.7zm0 6.6h77v2.7h-77v-2.7zm0 6.7h77v2.7h-77V336zm-39.9-190.9h77v2.7h-77v-2.7zm0 6.7h77v2.7h-77v-2.7zm0 6.6h77v2.7h-77v-2.7zm-39-25.9c-10.1 0-18.2 8.3-18.2 18.3 0 6.1 3.1 11.8 8.2 15.1v-3.1c0-2.1 1.6-3.9 3.6-4.1 1.9 3.5 6.3 4.8 9.8 2.9 1.2-.7 2.2-1.7 2.9-2.9 2.1.2 3.6 2 3.6 4.1v3.2c8.5-5.5 10.8-16.8 5.4-25.2-3.3-5.2-9.1-8.3-15.3-8.3zm8 22.3c-.1.1-.1.2-.2.3-.2.1-.3.2-.5.2h-.4c-1.2 3.8-5.2 6-9 4.8-3-.9-5.1-3.7-5.2-6.9 0-1.2.3-2.5 1-3.6l-.1-.1c-.8-1-.7-2.5.2-3.4.5-.3 1-.5 1.5-.6 1.6-.5 2.9-1.5 3.8-2.9v1.1c.6-.7 1.6-.7 2.3-.1.2.3.4.5.6.7.3.1.5.2.8.2l1.8.2c.8 0 1.5.3 2.1.8.3.4.6.8.7 1.2.5 1.2.9 2.5 1.2 3.9.3 1.6.1 3-.6 4.2zM603 410h77v2.7h-77V410zm0 6.6h77v2.7h-77v-2.7zm0 6.7h77v2.7h-77v-2.7zm-38.9-25.9c-10.1 0-18.2 8.2-18.2 18.3 0 6.1 3.1 11.8 8.2 15.2v-3.1c0-2.1 1.6-3.8 3.7-4.1 1.9 3.5 6.3 4.8 9.8 2.9 1.2-.7 2.2-1.7 2.9-2.9 2.1.2 3.6 2 3.7 4.1v3.2c8.4-5.5 10.8-16.8 5.4-25.2-3.6-5.3-9.3-8.4-15.5-8.4zm8 22.3c-.1.1-.1.2-.2.3-.2.1-.3.2-.5.2h-.4c-1.1 3.8-5.1 6.1-9 5-3.8-1.1-6.1-5.1-5-9 .2-.6.4-1.1.7-1.6h-.1c-.8-1-.7-2.5.2-3.4.5-.3 1-.5 1.5-.5 1.6-.5 2.9-1.5 3.8-2.9v1.1c.6-.7 1.6-.7 2.3-.1.2.3.4.5.7.7.2.1.5.2.8.2l1.8.2c.8 0 1.5.3 2.1.8.3.4.6.8.7 1.2.5 1.2.9 2.5 1.2 3.9.2 1.3 0 2.7-.6 3.9zm215.3-260.3h77v2.7h-77v-2.7zm0 6.6h77v2.7h-77V166zm0 6.6h77v2.7h-77v-2.7zm-38.9-25.8c-10.1 0-18.3 8.1-18.3 18.2 0 6.1 3.1 11.9 8.2 15.3v-3.1c0-2.1 1.6-3.9 3.7-4.1 1.9 3.5 6.3 4.8 9.8 2.9 1.2-.7 2.2-1.7 2.9-2.9 2.1.3 3.6 2 3.7 4.1v3.2c8.5-5.5 10.9-16.8 5.4-25.2-3.5-5.3-9.2-8.4-15.4-8.4zm8 22.3c-.1.3-.4.5-.8.5h-.4c-1.1 3.8-5.2 6-9 4.9-3.1-.9-5.2-3.7-5.2-6.9 0-1.2.3-2.5.9-3.6l-.1-.1c-.8-1-.7-2.5.2-3.4.5-.3 1-.4 1.5-.6 1.6-.5 2.9-1.5 3.8-2.9v1.1c.6-.7 1.6-.7 2.3-.1.2.2.4.6.7.7.2.1.5.2.8.2l1.8.2c1.3-.1 2.5.7 2.8 2 .5 1.2.9 2.5 1.2 3.9.3 1.5.1 2.9-.5 4.1zM32 182.7c-10.1 0-18.2 8.2-18.2 18.3 0 6.1 3.1 11.8 8.2 15.2V215c0-2.1 1.6-3.9 3.6-4.1 1.9 3.5 6.3 4.8 9.8 2.9 1.2-.7 2.2-1.7 2.9-2.9 2.1.2 3.6 2 3.7 4.1v1.3c8.4-5.5 10.8-16.8 5.4-25.2-3.4-5.3-9.2-8.4-15.4-8.4zm7.2 23.2c-.3 4-3.8 7-7.7 6.7-3.6-.3-6.4-3.1-6.7-6.7-1.8-4-.1-8.7 3.9-10.5.1 0 .2-.1.3-.1-.3-.4-.4-.8-.4-1.3 0-1.3 1.1-2.4 2.4-2.4h.2c-1.3.1-2.2 1.1-2.2 2.4 0 .4.1.8.3 1.2h.1v-.5c0-.5.2-1 .5-1.4.3-1 1.2-1.7 2.3-1.7h.2c-.7.1-1.4.5-1.8 1.1 1.1-.7 2.6-.4 3.3.7.3.4.4.9.4 1.3v.3c4.2 1.1 6.7 5.5 5.6 9.7-.3.3-.5.8-.7 1.2zM71 195.3h77v2.7H71v-2.7zm0 6.6h77v2.7H71v-2.7zm0 6.6h77v2.7H71v-2.7z"/><linearGradient id="SVGID_3_" gradientUnits="userSpaceOnUse" x1="197.357" y1="-108.626" x2="197.357" y2="296.267" gradientTransform="matrix(1 0 0 -1 -36.6 502.8)"><stop offset="0" stop-color="gray" stop-opacity=".25"/><stop offset=".54" stop-color="gray" stop-opacity=".12"/><stop offset="1" stop-color="gray" stop-opacity=".1"/></linearGradient><path d="M263.4 343.3c-.6-3-.9-6.1-1-9.2 0-3.7-5-7-5-7s-3.1-7.2-5.1-8.3-8.5-10.5-8.5-10.5c-.1-1.9-.8-3.6-1.9-5.1-1.9-2.5-3.7-5.2-5.2-7.9-.9-1.1-.4-1.8-1.7-7.9-.1-.3-.2-.6-.2-.9 0-.1-.1-.3-.1-.4 2.8-2.8 3.7-7 2.4-10.7-.2-.7-.7-1.4-1.2-1.9-1.5-1.2-3.8-.7-5.3-1.8l1.6-7.1c.4-1.7.6-3.9-.9-4.9-.6-.3-1.2-.5-1.8-.6-2.6-.8-4.1-3.6-4.8-6.2-.7-2.5-.8-5.2-.5-7.8.3-2.5 1-4.9 1.3-7.5.5-4.7-.6-9.3-3.2-13.3-1-1.7-2.4-3.1-4.2-4-1.6-.7-3.5-.8-5-1.8-3.2-2-3.1-6.9-5.6-9.7s-7.1-2.8-10.9-1.8c-3.7 1-7.4 2.6-11.3 2.2-2.5-.3-4.8-1.4-7.3-1.6-.7-.1-1.4 0-2.1.1l.1-.1c-1.8.3-3.5 1.4-4 3.1-.1.4-.1.8-.1 1.3 0 1 .2 2.1.3 3 .1.8-.2 1.5-.7 2.1-.5.5-1.2.8-1.7 1.4-.4.4-.6 1-.6 1.6 0 1.5 1.9 2.9 3.2 3.5-.4.4-.7.7-1 1.1-3.7 4.2-5.7 9.6-5.6 15.1 0 9.2 5.5 17.5 14 21.1-.1.2-.1.4-.2.6-.4 1.1-.8 2.2-1.3 3.3-1.8-.6-3.8-.4-5.4.6-2.5 1.7-7.3 1.6-8.6 1.3s-14.7-2-15.8-1.6c-1.1.4-3.2-1.5-4.6 1.1-1.4 2.5-2 3.9-3.4 4.5-1.4.6-3.9 2.7-3.5 3.1.3.4-3.5 3-3.5 3s-3.3 3.5-5.3 3.9c-1.9.4-6 3.1-6 3.1l-4.7 3.7s-3.5.5-2.5-1.9-1.9-5.5-1.9-5.5-6-12.2-6-14.7-4.9-13.2-4.9-13.2l-.6-.1c-.1-.3-.2-.5-.3-.8-.9-2.5-2.1-5.7-3-7.5-1.7-3.5-2.8-3.9-2.8-3.9s-21-15.7-34.5-11 24.7 18.9 28.1 20.4c1.2.5 2.1 2.2 2.7 4.1-3 1.5-5.6 3.8-7.3 6.7 0 0 8.3 18.3 8.5 22.9.2 4.5 5.7 17.3 5.7 17.3s2 9.4 13.1 8.9c0 0 15.2 2.8 18.5 0 3.3-2.8 6.3-5 7.9-5.3 1.2-.4 2.2-1.1 3-2.1 0 0-5 31.7-7.5 34.5s-24.3 38.4-16.5 44.7c6.2 4.8 12.8 9.2 19.6 13 .7.3 2.7-3 5.5-5.3v1.8c.1 12.7 1.7 32 4.1 36.3 3.4 6.3 2 18.6 2 18.6 1.8.9 3.8 1.3 5.8 1.4.1.4.2.8.3 1.3 1.9 7.1 5 18.2 6.5 21.1 2.4 4.5 4.1 18.5 4.1 18.5s1.4 13.9.9 15.8c-.2.7.7 6.5 2.1 13.8-.9 9.9-2.5 29-2.8 36v2.5c.1.7.1 1.4-.1 2-.6 1.9-1.4 3.8-2.3 5.5-.1.2-.6 1.4-1 2.7-.9.4-1.9 1.3-2.5 3.5-1.1 4.1-2.7 15.6-2.7 15.6s-.6 7-1.9 8.6c-1.3 1.6-2.6 11.5 6.5 12.8 9.1 1.3 13.1-4.8 13.1-4.8l-.3-27.7c.2-.2.3-.5.5-.8v-.1c.1-.1.1-.3.2-.4s0-.1.1-.2.1-.2.1-.3v-.1c.9-2.7 1.2-5.5.8-8.3V563.2v-.2-.4c0-.2 0-.4.1-.6v-.4-.2c0-.1 0-.2.1-.3v-.1c.1-.4.2-.8.3-1.3v-.1l.1-.4c.1-.5.3-.9.4-1.3v-.1l.1-.4c.1-.4.3-.8.5-1.2v-.1l.1-.3v-.1l.3-.8 2.5 7.8s1.4 5.8.6 7.2.9 7.1 1.9 7.2l-1 7.2c-.6 4-.9 8-1 12-.1.5-.1.8-.2 1.1-.7 3.7 1 9.4 1 9.4 8.5 10 18.6.8 18.6.8s1.2-5.3 0-6.3-.6-4.9-.6-4.9.5-9.4.6-16.3c.1-6.9-5.6-12.9-5.6-12.9l-.3.3c-1-2.7-2.2-5.8-2-7.3.4-2.4-1.2-28.1-1.2-28.1.6-6.9.7-13.8.4-20.7.1-1.2.3-2.3.4-3.4.6-5.5 1.2-10.3 1.4-12.7v-.3c0-.7.1-1.1.1-1.4 0-.8 0-1.8.1-2.9.2-3 .7-6.3.7-6.3l2.3-13.7s1.7-6.7 4.2-10.4l.3-.5c.1-.2.2-.3.3-.5v-.1l.3-.6v-.1c.4-.7.7-1.5 1.1-2.3l.1-.2.3-.7.1-.3.3-.7c0-.1.1-.2.1-.3.1-.3.2-.5.3-.8l.2-.4.3-.6.2-.5.1-.4.2-.6c0-.1.1-.2.1-.3.6-1.5 1.2-3 1.7-4.4.2-.4.3-.8.5-1.2 5.5.3 9.2.7 9.2.7s1.7-12.4 1.2-20.5c-.4-5.6.7-12.6 1.4-16.4.1-.4.1-.8.2-1.2l.1.1c2.7 2.1 4.6-4.9 4.6-4.9s-.7-6.5-1.7-14.4c0-.3-.1-.5-.1-.8 1.5.3 3.1.6 4.7.7 0 0 .9-.1 2-.2 3.2 1.9 6.6 3.4 10.2 4.6l5.7-10.6c1.1-2.2 2.3-4.3 3.8-6.2 1.7-2.1 7.8-8.9 7.7-10.2-.1-1.3 2-8.6 4.2-11.9 1.8-3.1 3.1-9.8 3-10.3zm-23.8 8c-2.3 1-4.4 6.2-4.5 7.8-.1 1.6-2.5 8.6-4.9 9.4-2.3.8-6.6 4.8-7.3 5.4-.7.1-1.5.2-2.4.3-.9-6.7-1.9-12.2-2.5-13.3-1.7-3.2 1.9-13.3 1.9-13.3s.4-10.3 2.6-12.7 1.7-8.6 1.7-8.6.5-2.5.8-3.7c.2-1.2 3.2 0 3.2 0s5.8 3.2 6.6 7.9c.9 4.8 7.2 13 7.2 13s-1 2.8 0 4.3-.1 2.5-2.4 3.5z" fill="url(#SVGID_3_)"/><path class="st25" d="M84.6 260.9c3.6-5.9 10.4-9.2 17.3-8.1v12.4h-7.5l-5.9-1.5-3.9-2.8z"/><path class="st11" d="M84.6 260.9c3.6-5.9 10.4-9.2 17.3-8.1v12.4h-7.5l-5.9-1.5-3.9-2.8z"/><path class="st26" d="M102.4 256l-9.2 6.5s-.1-1.3-.3-3.1c-.5-3.3-1.5-8.3-3.7-9.3-3.4-1.5-41-15.6-27.7-20.4s33.8 10.8 33.8 10.8 1.1.4 2.7 3.9c.9 1.8 2 4.9 2.9 7.5.9 2.3 1.5 4.1 1.5 4.1z"/><path class="st25" d="M175.9 265.9l1-.5 2.9 3.4-2.4 5.1-4.1-1.6.9-4.1 1.7-2.3z"/><path class="st2" d="M162 565.9s-2.6-.3-3.7 3.8-2.6 15.5-2.6 15.5-.6 7-1.9 8.5-2.5 11.5 6.4 12.8 12.9-4.8 12.9-4.8l-.3-27.7-10.8-8.1zm31.3 1.2s5.6 6 5.6 12.9-.6 16.3-.6 16.3-.5 3.8.6 4.9 0 6.3 0 6.3-9.9 9.2-18.3-.8c0 0-1.6-5.7-1-9.4s2.5-20.3 2.5-20.3l11.2-9.9z"/><path class="st26" d="M207.3 440.8s-5.7 16-8.1 19.6-4.1 10.4-4.1 10.4l-2.2 13.6c-.4 3-.7 6.1-.7 9.2.1 3.1-5.5 47.7-5.5 47.7l-8.9 11.3s-3.9 7.9-3.3 11.2-.4 8.5-1.7 10.1c0 0-.2 10.3-.5 12.7s1.2 8.9 0 10-16.7.6-17.1-1.3 1.9-11.1 1.9-11.1l1.4-8.9s2.7-4.9 2.1-6.4 1.2-5.3 1.3-5.6 3-5.5 2.4-7.5 3.3-44.6 3.3-44.6l10.9-76.4 28.8 6z"/><path class="st11" d="M207.3 440.8l-2.1 5.6c-1.9 5-4.6 11.8-6.1 14.1-2.4 3.7-4.1 10.4-4.1 10.4l-2.2 13.6c-.4 3-.7 6.1-.7 9.2 0 1.2-.8 8.9-1.9 17.8-1.6 13.6-3.6 29.9-3.6 29.9l-8.9 11.3s-.4.9-1 2.2c-1.1 2.6-2.7 6.8-2.3 9 .6 3.3-.4 8.6-1.7 10.1 0 0-.2 10.4-.5 12.7s1.2 8.9 0 10-16.7.6-17.1-1.3 1.9-11.1 1.9-11.1l1.4-8.9s2.7-4.9 2.1-6.4 1.2-5.3 1.3-5.6 3-5.5 2.4-7.5c-.4-1.5 1.7-26.5 2.7-38.4.3-3.7.6-6.2.6-6.2l9.4-65.7.8-5.3.8-5.4 28.8 5.9z"/><path class="st26" d="M197.8 599.7c.1 1.2-14.9 2.8-17 1.6s0-17 0-17l1-7.2c-1.1-.1-2.6-5.8-1.9-7.2s-.6-7.2-.6-7.2l-2.5-7.8-1.5-4.8c-2.5-5.5-6-21-8.3-32.6-1.4-7.3-2.3-13-2.1-13.8.5-1.9-.9-15.7-.9-15.7s-1.7-14-4-18.5c-1.5-2.9-4.6-14-6.4-21.1-.9-3.6-1.6-6.3-1.6-6.3s16-1.3 25.6-1.8c4.5-.2 7.6-.2 7.2.1s-.4 2.3-.4 5.1c0 7.3 1.1 20 2.1 23.4 1.5 4.8 3 19 2.3 20.4s-.4 10.6-.4 10.6c1.1 3.7 1.7 7.6 1.9 11.5.3 6.9.2 13.8-.4 20.6 0 0 1.6 25.7 1.2 28.1s3.4 10 3.4 11.5 1 11.5 1 11.5 2.2 15.4 2.3 16.6zm8.3-308.5l-1.8 2-1.2 1.3-6.9 7.4-17.9 2-9.5-2.5-2.4-.6s0-4.8.4-10.5c.6-7.3 2.1-16.2 5.5-18.7 1.7-1.4 3.1-3.1 4-5.1.7-1.4 1.3-2.8 1.7-4.3.1-.2.1-.4.2-.5.8-2.6 1.3-5.2 1.7-7.8 0 0 2.3-1.3 5.4-2.7 8.3-3.9 22.6-9.2 17.6 2.7-.7 1.7-1.4 3.5-1.9 5.4-.1.3-.1.5-.2.8-1.7 6.6-.6 10.7.7 12.9.2.4.5.7.7 1.1.3.5.7.9 1.2 1.2l2.1 13 .2 1.1.4 1.8z"/><path class="st11" d="M203 254.4c-.9 2.3.5-1.8 0 0-3.8 2.7-12.6 10.3-17.6 10.3-3.4 0-4.4-.6-7.3-1.9.9-2.7 1.5-5.5 1.9-8.4 0 0 29.9-16.5 23 0z"/><path class="st26" d="M210.6 240.6c0 11.8-8.9 21.7-20.6 22.9-.8.1-1.6.1-2.4.1-12.7 0-23-10.3-23-23s10.3-23 23-23 23 10.3 23 23z"/><path class="st11" d="M213.9 342.6l-3.3 8.6s-2.7.1-6.8.3c-14 .5-45 1-46.4-2.6-.3-.9-.5-1.9-.5-2.8-.2-5.5 2.4-14 2.4-14s1.5-16.9 1.5-17.6-1.3-12.6-1.3-12.6l2.5-9.5 7.1-5s3.2 4.9 5.1 5.3 4.4 2.8 4.4 2.8 6.2 3.8 8.2 1.7 17.6-11.4 17.6-11.4l8.2 9.1 1.3 47.7z"/><path class="st3" d="M213.9 343.9l-3.3 8.6s-2.7.1-6.8.2h-.4l-6.1.2c-11.2.3-26.6.3-34.6-.9-3-.4-5-1-5.3-1.9-.2-.5-.3-1-.4-1.6-.1-.4-.1-.8-.1-1.3-.2-5.5 2.4-14 2.4-14s1.5-16.9 1.5-17.6-1.3-12.6-1.3-12.6l2.5-9.5 4.9-3.4 2.2-1.5c.7 1.1 1.6 2.2 2.4 3.2.7.9 1.6 1.6 2.6 2.1 1.9.4 4.4 2.8 4.4 2.8s6.2 3.8 8.2 1.7c1.5-1.6 11-7.4 15.4-10.1l2.2-1.3 1.1 1.2 7.1 7.9 1.4 47.8z"/><path class="st11" d="M102.4 256l-9.2 6.5s-.1-1.3-.3-3.1c4.5-1.9 7.3-6.1 8.1-7.5.8 2.3 1.4 4.1 1.4 4.1z"/><path class="st4" d="M134.7 277.9l-2-.5s-3.3 3.5-5.2 3.9-5.9 3.1-5.9 3.1L117 288s-3.5.5-2.4-1.9-1.9-5.5-1.9-5.5-5.9-12.1-5.9-14.7-4.9-13.2-4.9-13.2-6.1 11.9-17.3 8.1c0 0 8.1 18.3 8.3 22.8s5.6 17.2 5.6 17.2 2 9.4 12.9 8.9c0 0 15 2.8 18.3 0s6.2-5 7.8-5.3c1.2-.4 2.2-1.1 2.9-2.1v-12.6l-5.7-11.8z"/><path class="st11" d="M115.9 289.8s2.6 9.8 1 10.9l-1-10.9zm87.9 62.9c-14 .5-45 1-46.4-2.6-.3-.9-.5-1.9-.5-2.8l45.9 2.4 1 3zm3.5 88.1l-2.1 5.6c-5.8-.4-13.6-.7-20.9-.8-2.6 0-5.1 0-7.5.1-4.1 0-8.3.5-12.3 1.4-3.6 1.1-7.3 1.6-11 1.4-.9-3.6-1.6-6.3-1.6-6.3s16-1.3 25.6-1.8l.8-5.4 29 5.8z"/><path class="st9" d="M219.6 402.2l-1.8 3.8s-.3 1.1-.6 2.9c-.7 3.9-1.7 10.9-1.3 16.4.5 8.1-1.2 20.5-1.2 20.5s-38.9-3.3-50.3 0-17 0-17 0 1.4-12.3-2-18.6c-2.3-4.3-3.9-23.6-4-36.3 0-5.9.3-10.3 1-11.2 2.3-2.9 12.3-31.4 12.3-31.4l2.3.1 6 .3 34.4 1.8 5.4.3.6 1.8 16.2 49.6z"/><path class="st25" d="M236.7 389.5l.3 3.4s-17-5.5-16.2-12.4 0-6 0-6l13.7 1.2 2.2 13.8z"/><path class="st11" d="M236.7 389.5l.3 3.4s-17-5.5-16.2-12.4 0-6 0-6l13.7 1.2 2.2 13.8zm-109.4-97c1.7 1.5 3.8 2.5 6 3.1-.7-.1-1.3-.4-1.8-.8l-3.6-2.7c-.9-.7-2.1-2-3.3-2.3.8 1 1.7 1.9 2.7 2.7zm.2 4.5c.6.6 1 1.3 1.3 2.1.3.9.4 1.8.4 2.7.1 1.3 0 2.6-.5 3.8L126 299l-1.5-3.3c-.3-.5-1.8-2.4-1.6-2.8.4-1.1 4.1 3.4 4.6 4.1zm76.2 36.4c1.9-.2 3.6-1 5-2.3-2.8.4-5.5 1.5-8.2 2-2.6.6-5.3.4-7.7-.7 3.1 1.6 7.5 1.6 10.9 1zm-8-19.3c-.5.1-1-.1-1.4-.4-2.1-1.2-4.2-2.5-6.2-3.8-2.2-1.2-4.2-2.6-6.1-4.2 4.2 3.8 8.1 7 13.7 8.4zm5.9 22.4c1.1 0 2.2 0 3.3-.3 1.1-.2 2.1-.9 2.7-1.8-.4-.1-.8 0-1.1.2-3.3 1.4-7 1.8-10.6 1.3 1.7.7 3.9.6 5.7.6zm-20 49c-2.2.7-4.5 1.1-6.8 1.3-1.8.1-3.6 0-5.3-.1l-8.6-.5-4.3-.3c-.5 0-2.6 0-1.6-1 .5-.5 3.4-.2 4.1-.2 1.4 0 2.9-.1 4.3-.1 2.9 0 5.7 0 8.6.2 3.2.1 6.4.4 9.6.7zm-10 4.3c-1.5-.1-3.4.8-4.9 1-1.7.2-3.4.3-5.1.2-3.4-.1-6.7-.8-9.8-2 6.6.3 13.2.5 19.8.8zm-18.5 4.5c.6.1 1.3.3 1.9.5 3.6 1 7.5.1 11.2-.8-.9 1.4-2.6 2-4.3 2.4-2.7.7-5.5.8-8.3.3-.9-.2-3-.5-3.5-1.4-.6-1.3 2.2-1.1 3-1zm20.4 6.8c1.1.2 2.2.5 3.2.8 4.1 1 8.4-.4 12.5-1.3 5-1.1 10-1.6 15.1-1.4-.9 0-2.4.8-3.2 1.1-1.2.4-2.4.7-3.5 1-2.3.6-4.7 1-7.1 1.4-4.8.7-9.6.9-14.5.6-2.2-.1-6 .1-7.9-1 1.6-.9 3.5-1.4 5.4-1.2zm1.6-130.2s.2 9.7-1.4 14.2c-.5 1.4-1.3 3.9-2.1 6.8-.9 3.2-1.9 6.7-2.7 9.5s-1.3 4.6-1.3 4.6-3.6 29.1-4.5 42.9v.7c-.1.8-.1 1.6-.3 2.4-2.1 13.8-13.9 35-17.9 36.6-1.2.6-2.4 1.3-3.4 2.3 0-5.9.3-10.3 1-11.2 2.3-2.9 12.3-31.4 12.3-31.4l2.3.1c-.1-.4-.1-.8-.1-1.3-.2-5.5 2.4-14 2.4-14s1.5-16.9 1.5-17.6-1.3-12.6-1.3-12.6l2.5-9.5 4.9-3.4c.6-7.3 2.1-16.2 5.5-18.7 1.7-1.4 3.1-3.1 4-5.1.7.1-.6-.5-.6-.5l-.8 5.2z"/><path class="st4" d="M176.9 265.4c-1.8-.6-3.7-.4-5.4.6-2.4 1.7-7.2 1.6-8.4 1.3s-14.5-2-15.5-1.6-3.2-1.5-4.5 1-2 3.9-3.4 4.5-3.8 2.6-3.5 3.1-3.5 3-3.5 3l7.7 25s-5 31.7-7.4 34.4-24 38.3-16.3 44.7c6.1 4.8 12.6 9.2 19.3 13 .9.4 3.9-5.3 8.1-7.1s17.3-25.6 18.2-39.1 4.5-43.6 4.5-43.6 4.5-16.5 6.1-20.9 1.3-14.2 1.3-14.2l2.7-4.1z"/><path class="st11" d="M219.6 402.2l-1.8 3.8s-.3 1.1-.6 2.9c-.3 0-.7-.2-.9-.4-2.6-2.1-18.2-18.1-18.9-32.2-.4-7.8-.4-15.6-.1-23.4.1-1.3.1-2 .1-2.2s12-14.6 10.7-19.8-4.5-32.9-4.5-32.9l-.5-3.6-.8-6.1-1.9-14.9 2 .5c.3.5.7.9 1.2 1.2l2.1 13 7.1 7.9 1.2 47.8-3.3 8.6s-2.7.1-6.8.2h-.4l16.1 49.6z"/><path class="st4" d="M226.3 323.2s-3-1.2-3.2 0-.7 3.7-.7 3.7.5 6.1-1.7 8.6-2.6 12.7-2.6 12.7-3.6 10.1-1.9 13.3c.6 1.1 1.6 6.9 2.5 13.8.6 4.3 1.2 9.1 1.7 13.4 1 7.9 1.7 14.4 1.7 14.4s-1.9 7-4.5 4.9-18.2-18.1-18.9-32.2c-.5-10-.3-18.6-.1-22.8.1-1.8.1-2.8.1-2.8s12-14.6 10.7-19.7-4.5-32.9-4.5-32.9l-.6-4.3-.6-4.6-.1-1-1.9-14.7c.3.1 12.2 2.8 13.8 4.3s11.2 3.8 11.2 3.8c3 .8 5.3 3.2 6 6.2.1.3.2.6.2.9 1.3 6.1.9 6.9 1.7 7.9s-8.3 27.1-8.3 27.1z"/><path class="st11" d="M220.5 388.6c-4.3-.8-10.7-2.9-10.6-7.3.1-4.1 5.1-5.6 8.9-6.1.6 4.3 1.2 9.1 1.7 13.4z"/><path class="st26" d="M233.9 386.4c-.2.4-.9.7-1.8 1-2.3.6-4.6.9-7 1.1 0 0-14.7-1.2-14.5-7.8.1-4.8 6.8-6 10.5-6.3 1.5-.1 2.5-.1 2.5-.1s10.9 10.8 10.3 12.1z"/><path class="st11" d="M233.9 386.4c-.2.4-.9.7-1.8 1-3.8-5.1-9.2-11.7-11.8-12.3 0 0 .3-.3.8-.7 1.5-.1 2.5-.1 2.5-.1s10.9 10.8 10.3 12.1z"/><path class="st4" d="M230.2 295.3l4.3.6c1.6 2.7 3.3 5.4 5.2 7.9 1.2 1.4 1.8 3.2 1.9 5.1 0 0 6.3 9.4 8.3 10.5s5.1 8.2 5.1 8.2 5 3.3 5 7c.1 3.1.4 6.1 1 9.2.1.5-.7 7.1-2.9 10.4s-4.2 10.6-4.1 11.8-5.9 8-7.6 10.1c-1.4 2-2.6 4.1-3.7 6.2l-5.6 10.6s-11.8-17.4-16.2-18.4c0 0 4.9-4.6 7.3-5.5s4.8-7.8 4.9-9.4 2.2-6.9 4.4-7.8 3.4-1.9 2.4-3.4 0-4.3 0-4.3-6.2-8.2-7.1-13-6.5-7.9-6.5-7.9l-3.3-8 7.2-19.9z"/><path class="st11" d="M245.9 334.7c2.4-2 5.4-3.2 8.5-3.2-2 .4-4.1.8-5.6 2.2-.6.6-1.1 1.3-1.5 2-.5.7-4.6 5.9-5.2 5.1-1-1.3 3-5.4 3.8-6.1zm-9.6-5c1.3-.1 2.5-.9 3-2.1.5-1.2.8-2.5.9-3.8.3-2.2.7-4.3 1.3-6.4.1-.4.2-.9.2-1.3-.1-.4-.2-.9-.4-1.3-.2-.7-.5-1.3-.9-1.9-.8.9-1 2.9-1.3 4-.4 1.4-.8 2.9-1.1 4.3-.1.8-1.6 8.5-1.7 8.5zm-3.7-42.6c-.4.6-.9 1.1-1.5 1.5-1.7 1.4-4 2.5-4.2 4.7.1.7 0 1.4-.3 2.1-.6.9-1.9.9-3 .7-.9-.1-1.8-.4-2.5-.9-1.1-1-1.2-2.7-2.1-3.9-1.1-1.3-2.6-2-4.3-1.9-1.6 0-3.2.3-4.8.4-1 .1-2.1 0-3.1-.2-.3-.1-.7-.1-1-.2-.7-.2-1.4-.4-2.1-.7-.3-.1-.7-.3-1-.5-1.1-.6-2.1-1.2-3-2.1-1.6-1.5-2.9-3.5-2.8-5.6.2-1.3.5-2.6.9-3.8.6-3.7-1.8-7.3-4.5-9.9-1.1-1-2.2-2.1-3.3-3.2-1.7-1.5-3-3.4-3.9-5.5-.7-2.2-.9-4.6-.7-6.9.2-2.4.3-4.7.2-7.1-.8-8.4-8-14.8-15.1-18.3l-.3-.2c8.5-9.5 23-10.3 32.5-1.9 9.5 8.5 10.3 23 1.9 32.5-1 1.1-2.1 2.2-3.3 3.1-.1.3-.1.5-.2.8-1.7 6.6-.6 10.7.7 12.9.3.1 12.2 2.8 13.8 4.3s11.2 3.8 11.2 3.8c2.8.7 5.1 3 5.8 6z"/><path class="st2" d="M168.6 219.4c.5-.5 1.2-.8 1.7-1.4 1.5-1.6 0-4.3.6-6.4.6-2.4 3.5-3.4 5.9-3.2s4.7 1.4 7.1 1.6c3.8.4 7.4-1.2 11.1-2.2s8.1-1 10.7 1.8 2.4 7.6 5.5 9.7c1.5.9 3.3 1 4.9 1.8 1.7.9 3.2 2.3 4.1 3.9 2.5 3.9 3.6 8.6 3.1 13.2-.3 2.5-1 4.9-1.3 7.4-.3 2.6-.1 5.2.5 7.8.7 2.6 2.1 5.4 4.7 6.2.6.1 1.2.3 1.8.6 1.5.9 1.3 3.1.9 4.8l-1.6 7c1.5 1.1 3.8.6 5.2 1.8.6.5 1 1.2 1.2 1.9 1.4 4.1.2 8.6-3.1 11.3-1.7 1.4-4 2.5-4.2 4.7.1.7 0 1.4-.3 2.1-.6.9-1.9.9-3 .7-.9-.1-1.8-.4-2.5-.9-1.1-1-1.2-2.7-2.1-3.9-1.1-1.3-2.6-2-4.3-1.9-1.6 0-3.2.3-4.9.4-3.8.2-7.4-1.2-10.2-3.7a7.64 7.64 0 0 1-2.8-5.6c.2-1.3.5-2.6.9-3.9.6-3.7-1.8-7.3-4.5-9.9s-5.8-5.1-7.1-8.7c-1.6-4.4 0-9.3-.5-14-.8-8.4-8-14.8-15.1-18.3-1.5-.6-4.2-2.6-2.4-4.7z"/><path class="st11" d="M225.1 291.9c-1.1-1-1.2-2.7-2.1-3.9-1.1-1.3-2.6-2-4.3-1.9-1.6 0-3.2.3-4.8.4-3.7.2-7.4-1.1-10.2-3.6-1.6-1.5-2.9-3.5-2.8-5.6.2-1.3.5-2.6.9-3.8.6-3.7-1.8-7.3-4.5-9.9s-5.8-5.1-7.1-8.7c-1.6-4.4 0-9.3-.5-14-.8-8.4-8-14.8-15.1-18.3-1.7-.8-4.4-2.9-2.5-5 .5-.5 1.2-.8 1.7-1.3 1.5-1.6 0-4.3.6-6.4.1-.4.3-.8.5-1.2-1.8.2-3.3 1.4-3.9 3.1-.5 2.1.9 4.8-.6 6.4-.5.5-1.2.8-1.7 1.3-1.9 2.1.9 4.2 2.5 5 7.2 3.5 14.3 9.9 15.1 18.3.4 4.7-1.1 9.6.5 14 1.3 3.5 4.5 6 7.1 8.7s5.2 6.2 4.5 9.9c-.4 1.3-.7 2.5-.9 3.8-.1 2.1 1.2 4.1 2.8 5.6 2.8 2.5 6.5 3.9 10.2 3.7 1.6-.1 3.2-.4 4.9-.4 1.6-.1 3.2.7 4.3 1.9.9 1.2 1 3 2.1 3.9.7.5 1.6.8 2.5.9 1.1.2 2.4.3 3-.7.2-.4.3-.8.2-1.2-.9-.2-1.7-.5-2.4-1z"/></svg>