<?xml version="1.0" encoding="utf-8"?>
<!-- Generator: Adobe Illustrator 22.1.0, SVG Export Plug-In . SVG Version: 6.00 Build 0)  -->
<svg version="1.1" id="图层_1" xmlns="http://www.w3.org/2000/svg" xmlns:xlink="http://www.w3.org/1999/xlink" x="0px" y="0px"
	 viewBox="0 0 1132.4 767.1" style="enable-background:new 0 0 1132.4 767.1;" xml:space="preserve">
<style type="text/css">
	.st0{opacity:0.1;}
	.st2{fill:#444053;}
	.st3{fill:#3F3D56;}
	.st4{fill:#FFFFFF;}
	.st5{opacity:0.8;fill:#FA5959;}
	.st6{opacity:0.8;fill:#FED253;}
	.st7{opacity:0.8;fill:#8CCF4D;}
	.st8{opacity:0.3;}
	.st9{fill:none;stroke:#3F3D56;stroke-miterlimit:10;}
	.st10{opacity:0.1;fill:#3F3D56;}
	.st11{fill:url(#SVGID_1_);}
	.st12{fill:#7CFCFF;}
	.st13{fill:url(#SVGID_2_);}
	.st14{fill:#FFFFA5;}
	.st15{fill:url(#SVGID_3_);}
	.st16{fill:url(#SVGID_4_);}
	.st17{fill:url(#SVGID_5_);}
	.st18{fill:#FF69B4;}
	.st19{fill:url(#SVGID_6_);}
	.st20{fill:url(#SVGID_7_);}
	.st21{fill:url(#SVGID_8_);}
	.st22{fill:url(#SVGID_9_);}
	.st23{fill:url(#SVGID_10_);}
	.st24{fill:url(#SVGID_11_);}
	.st25{fill:url(#SVGID_12_);}
	.st26{fill:#303D5C;}
	.st27{fill:#EE8E9E;}
	.st28{opacity:5.000000e-02;}
	.st29{opacity:0.1;}
	.st30{fill:url(#SVGID_13_);}
</style>
<path class="st0" d="M612.7,112.3c-69.6-0.1-136.6-21.7-200.8-45.8S284.1,15.6,215.8,4.1c-44-7.4-93.9-6.9-128.2,19.4
	c-33,25.3-42.4,67.3-46.9,106.1c-3.4,29.2-4.9,59.8,8.2,86.6c9.1,18.6,24.6,33.9,35.6,51.6c38.2,61.6,15.5,140-21.2,202.8
	c-17.3,29.4-37.5,57.6-50.5,88.8s-18.3,66.5-4.8,97.3c13.3,30.6,43.3,52.9,75.4,68.1c65.3,31,141.2,37.8,215,40.6
	c163.5,6.1,327.2-4.8,490.5-15.8c60.4-4.1,121.1-8.2,180.3-20.3c32.8-6.7,66.7-16.8,89.9-38.9c29.5-28.1,35.4-74.2,13.8-107.3
	c-36.3-55.7-131.4-66.5-157.5-126.6c-14.4-33.1-2.2-71,15.9-102.9c38.7-68.3,105.4-129.4,106.3-205.9
	c0.6-52.6-34.3-103.9-86.4-126.9C896.5-3.4,822.3,2.5,784.3,47C745.1,92.8,674.1,112.4,612.7,112.3L612.7,112.3z"/>
<path class="st1" d="M1061.5,431.4c0,0-10-33.9-25.9-31.3c0,0,6.9,25.9,25.3,36.5L1061.5,431.4z M1063.2,403.2c0,0-9.4-28.2-25-29.4
	c0,0,6.4,27.8,24.7,36.7L1063.2,403.2z M1065.1,376.8c0,0-11.7-28.3-22-28.9c0,0,5.1,27.8,21,33.5L1065.1,376.8z M1066.4,352.3
	c0,0-7.2-30.7-17.5-33.2c0,0,1.4,25.1,16.5,35.5L1066.4,352.3z M1070.3,320.2c0,0-7.6-24.5-15.9-28.2c0,0,1.7,28.8,14,34.2
	L1070.3,320.2z M1073.5,299.1l1.5-43.1c0,0-15.6,32.5-2.7,50.8L1073.5,299.1z M1085.6,256.3c0,0,11.3-31.5,14-33.3
	c0,0-22.1,20.4-19.9,46.7L1085.6,256.3z M993.6,595.4c0,0,19.8-2.6,19.2,25.4c0,0-17.9,2.9-23.8-20.3L993.6,595.4z M1012.3,572.3
	c0,0,22.9-0.1,21,28.6c0,0-19.2,3.4-25.6-23.2L1012.3,572.3z M1025,551.6c0,0,20.8-9.8,34.1,15.4c0,0-19.2,8.1-35.9-11.3L1025,551.6
	z M1038.1,527.2c0,0,21.3-10.4,33.8,14.2c0,0-22.2,7.6-35.5-10.3L1038.1,527.2z M1045.6,506c0,0,20.5-19.6,36.8,0.2
	c0,0-20.9,16.1-37.8,4.1L1045.6,506z M1052.5,478.7c0,0,20.6-20,36.8,0.9c0,0-23.1,16.4-37.6,3.3L1052.5,478.7z M1056.3,454.3
	c0,0,15.9-25,34.6-19.4c0,0-16.5,26.5-34.4,25.3L1056.3,454.3z M1061,431.3c0,0,16-31.5,31.1-26c0,0-11.5,24.2-31.5,31.3L1061,431.3
	z M1062.1,401.6c0,0,16.4-24.8,31.9-21.8c0,0-13.4,25.1-33.4,28.9L1062.1,401.6z M1063.4,376.3c0,0,12.7-27.8,23.1-28
	c0,0-6.1,27.6-22.3,32.7L1063.4,376.3z M1065.9,351.7c0,0,14.2-28.2,24.8-28.2c0,0-7.3,24.1-24.3,30.7L1065.9,351.7z M1068,322
	c0,0,10.6-23.3,19.4-25.9c0,0-5.3,28.4-18.2,32.1L1068,322z M1074.8,298.3l23.7-36.1c0,0-6.1,35.6-27.1,43L1074.8,298.3z
	 M1091.1,259.2c0,0,27.5-19,28.5-22.1c0,0-14,26.6-40,31.3L1091.1,259.2z M1092.7,250.6c0,0,31.6-30.4,39.7-30.4
	c0,0-26.1,1.2-40.4,28.7L1092.7,250.6z"/>
<path class="st2" d="M1068.3,326.5l1.2,0.1c5.9-46.5,14.6-74,24.4-77.4l-0.4-1.1C1083.1,251.7,1074.4,278.8,1068.3,326.5z
	 M1059.6,437.6l1.7,0.1c0.4-4.3,0.6-8.8,0.8-13.2c1.7-38.5,4.2-73.8,7.6-100.3l-1-1.3c-3.4,26.5-6.7,63-8.3,101.5
	C1060.3,428.9,1060,433.3,1059.6,437.6L1059.6,437.6z M926.4,648.1c0.3-0.1,30.9-13.8,62.7-46.4c18.6-19.1,34.1-41,45.8-65
	c14.7-29.9,23.7-66.7,26.7-102.4l-1.8,0.9c-6.8,80.2-43.3,135-72.3,164.8c-31.5,32.3-61.8,45.9-62.1,46L926.4,648.1z"/>
<path class="st3" d="M1048.7,48.9H87.8c-4.7,0-8.6,3.8-8.6,8.6v24.9h978V57.4C1057.3,52.7,1053.4,48.9,1048.7,48.9
	C1048.7,48.9,1048.7,48.9,1048.7,48.9z"/>
<path class="st4" d="M79.3,82.4v561.2c0,9.5,7.7,17.3,17.3,17.3c0,0,0,0,0,0H1040c9.5,0,17.3-7.7,17.3-17.3l0,0V82.4H79.3z"/>
<circle class="st5" cx="94.8" cy="65.4" r="4"/>
<circle class="st6" cx="105.8" cy="65.4" r="4"/>
<circle class="st7" cx="116.8" cy="65.4" r="4"/>
<g class="st8">
	<path class="st9" d="M116.8,116.4h904v510h-904L116.8,116.4z"/>
	<path class="st9" d="M234.8,116.4h668v510h-668L234.8,116.4z"/>
	<path class="st9" d="M352.8,116.4h432v510h-432L352.8,116.4z"/>
	<path class="st9" d="M470.8,116.4h196v510h-196L470.8,116.4z M568.8,116.4v510"/>
	<path class="st9" d="M116.8,190.4h904v362h-904L116.8,190.4z"/>
	<path class="st9" d="M116.8,263.4h904v216h-904L116.8,263.4z"/>
	<path class="st9" d="M116.8,336.4h904v70h-904L116.8,336.4z"/>
</g>
<path class="st10" d="M258.3,144.9h71v26h-71V144.9z M147.3,215.9h53v26h-53V215.9z M373.3,144.9h71v26h-71V144.9z M481.3,144.9h71
	v26h-71L481.3,144.9z M581.3,144.9h71v26h-71V144.9z M693.3,144.9h71v26h-71V144.9z M807.3,144.9h71v26h-71V144.9z M928.3,144.9h71
	v26h-71V144.9z"/>
<linearGradient id="SVGID_1_" gradientUnits="userSpaceOnUse" x1="421.855" y1="439.52" x2="421.855" y2="484.18" gradientTransform="matrix(1 0 0 -1 0 770)">
	<stop  offset="0" style="stop-color:#808080;stop-opacity:0.25"/>
	<stop  offset="0.54" style="stop-color:#808080;stop-opacity:0.12"/>
	<stop  offset="1" style="stop-color:#808080;stop-opacity:0.1"/>
</linearGradient>
<path class="st11" d="M398.8,285.8h46.1v44.7h-46.1V285.8z"/>
<path class="st12" d="M399.6,286.6h44.5v43.1h-44.5V286.6z"/>
<linearGradient id="SVGID_2_" gradientUnits="userSpaceOnUse" x1="516.895" y1="449.2" x2="516.895" y2="493.86" gradientTransform="matrix(1 0 0 -1 0 770)">
	<stop  offset="0" style="stop-color:#808080;stop-opacity:0.25"/>
	<stop  offset="0.54" style="stop-color:#808080;stop-opacity:0.12"/>
	<stop  offset="1" style="stop-color:#808080;stop-opacity:0.1"/>
</linearGradient>
<path class="st13" d="M493.8,276.1H540v44.7h-46.1L493.8,276.1z"/>
<path class="st14" d="M494.6,276.9h44.5V320h-44.5L494.6,276.9z"/>
<linearGradient id="SVGID_3_" gradientUnits="userSpaceOnUse" x1="699.895" y1="297.2" x2="699.895" y2="341.86" gradientTransform="matrix(1 0 0 -1 0 770)">
	<stop  offset="0" style="stop-color:#808080;stop-opacity:0.25"/>
	<stop  offset="0.54" style="stop-color:#808080;stop-opacity:0.12"/>
	<stop  offset="1" style="stop-color:#808080;stop-opacity:0.1"/>
</linearGradient>
<path class="st15" d="M676.8,428.1H723v44.7h-46.1V428.1z"/>
<path class="st14" d="M677.6,428.9h44.5V472h-44.5V428.9z"/>
<linearGradient id="SVGID_4_" gradientUnits="userSpaceOnUse" x1="293.635" y1="519.11" x2="293.635" y2="563.77" gradientTransform="matrix(1 0 0 -1 0 770)">
	<stop  offset="0" style="stop-color:#808080;stop-opacity:0.25"/>
	<stop  offset="0.54" style="stop-color:#808080;stop-opacity:0.12"/>
	<stop  offset="1" style="stop-color:#808080;stop-opacity:0.1"/>
</linearGradient>
<path class="st16" d="M270.6,206.2h46.1v44.7h-46.1V206.2z"/>
<path class="st14" d="M271.4,207h44.5v43.1h-44.5V207z"/>
<linearGradient id="SVGID_5_" gradientUnits="userSpaceOnUse" x1="385.295" y1="455.11" x2="385.295" y2="499.77" gradientTransform="matrix(1 0 0 -1 0 770)">
	<stop  offset="0" style="stop-color:#808080;stop-opacity:0.25"/>
	<stop  offset="0.54" style="stop-color:#808080;stop-opacity:0.12"/>
	<stop  offset="1" style="stop-color:#808080;stop-opacity:0.1"/>
</linearGradient>
<path class="st17" d="M362.2,270.2h46.1v44.7h-46.1V270.2z"/>
<path class="st18" d="M363,271h44.5v43.1H363V271z"/>
<linearGradient id="SVGID_6_" gradientUnits="userSpaceOnUse" x1="753.855" y1="297.52" x2="753.855" y2="342.18" gradientTransform="matrix(1 0 0 -1 0 770)">
	<stop  offset="0" style="stop-color:#808080;stop-opacity:0.25"/>
	<stop  offset="0.54" style="stop-color:#808080;stop-opacity:0.12"/>
	<stop  offset="1" style="stop-color:#808080;stop-opacity:0.1"/>
</linearGradient>
<path class="st19" d="M730.8,427.8h46.1v44.7h-46.1V427.8z"/>
<path class="st12" d="M731.6,428.6h44.5v43.1h-44.5V428.6z"/>
<linearGradient id="SVGID_7_" gradientUnits="userSpaceOnUse" x1="834.855" y1="518.52" x2="834.855" y2="563.18" gradientTransform="matrix(1 0 0 -1 0 770)">
	<stop  offset="0" style="stop-color:#808080;stop-opacity:0.25"/>
	<stop  offset="0.54" style="stop-color:#808080;stop-opacity:0.12"/>
	<stop  offset="1" style="stop-color:#808080;stop-opacity:0.1"/>
</linearGradient>
<path class="st20" d="M811.8,206.8h46.1v44.7h-46.1V206.8z"/>
<path class="st12" d="M812.6,207.6h44.5v43.1h-44.5V207.6z"/>
<linearGradient id="SVGID_8_" gradientUnits="userSpaceOnUse" x1="829.855" y1="376.52" x2="829.855" y2="421.18" gradientTransform="matrix(1 0 0 -1 0 770)">
	<stop  offset="0" style="stop-color:#808080;stop-opacity:0.25"/>
	<stop  offset="0.54" style="stop-color:#808080;stop-opacity:0.12"/>
	<stop  offset="1" style="stop-color:#808080;stop-opacity:0.1"/>
</linearGradient>
<path class="st21" d="M806.8,348.8h46.1v44.7h-46.1V348.8z"/>
<path class="st12" d="M807.6,349.6h44.5v43.1h-44.5V349.6z"/>
<linearGradient id="SVGID_9_" gradientUnits="userSpaceOnUse" x1="864.855" y1="366.52" x2="864.855" y2="411.18" gradientTransform="matrix(1 0 0 -1 0 770)">
	<stop  offset="0" style="stop-color:#808080;stop-opacity:0.25"/>
	<stop  offset="0.54" style="stop-color:#808080;stop-opacity:0.12"/>
	<stop  offset="1" style="stop-color:#808080;stop-opacity:0.1"/>
</linearGradient>
<path class="st22" d="M841.8,358.8h46.1v44.7h-46.1V358.8z"/>
<path class="st12" d="M842.6,359.6h44.5v43.1h-44.5V359.6z"/>
<linearGradient id="SVGID_10_" gradientUnits="userSpaceOnUse" x1="717.295" y1="313.11" x2="717.295" y2="357.77" gradientTransform="matrix(1 0 0 -1 0 770)">
	<stop  offset="0" style="stop-color:#808080;stop-opacity:0.25"/>
	<stop  offset="0.54" style="stop-color:#808080;stop-opacity:0.12"/>
	<stop  offset="1" style="stop-color:#808080;stop-opacity:0.1"/>
</linearGradient>
<path class="st23" d="M694.2,412.2h46.1v44.7h-46.1V412.2z"/>
<path class="st18" d="M695,413h44.5v43.1H695V413z"/>
<linearGradient id="SVGID_11_" gradientUnits="userSpaceOnUse" x1="722.295" y1="448.11" x2="722.295" y2="492.77" gradientTransform="matrix(1 0 0 -1 0 770)">
	<stop  offset="0" style="stop-color:#808080;stop-opacity:0.25"/>
	<stop  offset="0.54" style="stop-color:#808080;stop-opacity:0.12"/>
	<stop  offset="1" style="stop-color:#808080;stop-opacity:0.1"/>
</linearGradient>
<path class="st24" d="M699.2,277.2h46.1v44.7h-46.1V277.2z"/>
<path class="st18" d="M700,278h44.5v43.1H700V278z"/>
<path class="st10" d="M147.3,285.9h53v26h-53V285.9z M147.3,358.9h53v26h-53V358.9z M147.3,431.9h53v26h-53V431.9z M147.3,504.9h53
	v26h-53V504.9z M147.3,577.9h53v26h-53V577.9z"/>
<linearGradient id="SVGID_12_" gradientUnits="userSpaceOnUse" x1="122.37" y1="205.186" x2="344.945" y2="205.186" gradientTransform="matrix(1 0 0 -1 -33.81 703.57)">
	<stop  offset="0" style="stop-color:#808080;stop-opacity:0.25"/>
	<stop  offset="0.54" style="stop-color:#808080;stop-opacity:0.12"/>
	<stop  offset="1" style="stop-color:#808080;stop-opacity:0.1"/>
</linearGradient>
<path class="st25" d="M308.3,351.1c1.5-0.9,0.9-3.5-0.6-4.3s-3.4-0.6-5.1-0.2c0.1-0.9-0.3-1.8-1.1-2.2v-0.4c1-1,0.6-3-0.6-3.9
	s-3.1-0.9-4.8-0.8c0.2-2-0.5-4-2-5.4c-0.3-0.3-0.7-0.5-1.1-0.5c-1,0-1.3,1.3-1.4,2.2c-0.2,2.5-0.6,5-1.2,7.4l-31.1,52
	c-3.5,5,7.3-10,3.8-5c-1.8,2.7-3.8,5.3-6.1,7.6c-2.1,1.9-4.4,3.4-6.9,4.6c-1.7,0-3.3-0.4-4.7-1.3c-1.8-1.2-3.3-2.7-4.5-4.5
	c-2.7-3.4-5.2-7.1-7.3-10.9c-0.8-1.2-1.3-2.5-1.7-3.9c-0.5-2.2,0-4.5-0.9-6.5c-0.4-0.8-0.8-1.5-1.3-2.1l-2.1-2.9v-0.1
	c-0.2-4.2-3.7-7.5-6.9-10.3c-2.7-2.4-5.7-4.9-9.3-5.3c-1.9-0.3-3.9,0.1-5.8-0.1c-1.6-0.2-3.1-0.8-4.6-1c-1.5-0.2-3-0.2-4.5-0.1
	l-0.6-0.6c3.3-1.4,6.1-3.8,8.1-6.8c1.5-2.4,2.3-5.1,3.7-7.6c1.7-3,4.1-5.5,6-8.4c4.5-6.8,5.3-15.6,3.5-23.6s-6.1-15.2-11-21.6
	c-9.6-12.4-25.7-17-40.9-14.6c-1,0.2-2,0.4-3,0.6c-2.6,0.5-5,1.3-7.4,2.4c-3.2,1.3-6,3.5-8.1,6.3c-0.6,0.8-1,1.7-1.4,2.6
	c-0.3,0.7-0.5,1.4-0.7,2.2c-0.5,2.2-0.6,4.5-0.4,6.8c0.1,0.8,0.1,1.5,0.2,2.3l0.1,1.2c0.1,0.8,0.2,1.5,0.3,2.3
	c0.2,1.2,0.3,2.3,0.4,3.5c0.1,0.8,0.1,1.6,0.1,2.4v0.6c0,0.6-0.1,1.2-0.3,1.8c-0.1,0.3-0.2,0.6-0.3,1c-0.4,0.9-0.8,1.8-1.4,2.6
	c-0.8,1.1-1.6,2.1-2.5,3.1l-0.9,1c-0.3,0.3-0.6,0.7-0.9,1c-1.1,1.3-2.2,2.7-3.1,4.2c-0.5,0.7-0.9,1.5-1.2,2.3
	c-0.3,0.6-0.5,1.2-0.7,1.9c-0.3,0.8-0.4,1.7-0.5,2.6c0,0.2,0,0.4-0.1,0.7v1.3c0,0.4,0.1,0.9,0.1,1.3c0.1,0.4,0.2,0.8,0.3,1.3
	c0.1,0.4,0.3,0.8,0.5,1.2c0,0.1,0.1,0.2,0.2,0.3l0.2,0.3c0.1,0.2,0.2,0.4,0.3,0.6c0.2,0.3,0.3,0.7,0.3,1v0.7c-0.2,1-0.7,1.9-1.5,2.5
	c-0.2,0.2-0.4,0.4-0.6,0.5l-0.3,0.3l-0.6,0.5l-0.6,0.5c-0.5,0.5-1,1-1.5,1.5c-5.6-0.3-11.3,0.3-16.7,1.6c-1.9,0.6-4,1-6,1.1
	c-1,0.1-2-0.3-2.6-1.1c-0.3-0.7-0.4-1.6-0.3-2.4c0.3-3.3-0.3-6.7-1.6-9.8c-0.3-0.9-0.9-1.7-1.6-2.3c-0.8-0.6-1.8-0.7-2.7-0.1
	c1.7,5.5,1.4,11.4-0.7,16.7c-1.1,2.5-2.4,4.9-3.9,7.2c-2.3,3.9-3.6,8.3-5.6,12.4c2.3,7.7,1.8,15.9,3,23.8c1.1,7.4,3.7,14.5,6.3,21.5
	c2,5.3,4.1,10.8,8.3,14.5c1.4,1.4,3.2,2.2,5.1,2.2c1.4-0.2,2.8-0.7,4-1.5c1.2-0.7,2.4-1.5,3.4-2.5c0.4-0.4,0.7-0.9,1-1.3
	c0.1,0.7,0.4,1.3,0.8,1.9c2.4-5.3,5.1-10.4,8-15.4c0.9-0.5,1.7-1,2.4-1.6c0,0.2,0.1,0.4,0.1,0.5c-0.1,0.5-0.3,1-0.4,1.5
	s-0.3,0.9-0.4,1.4s-0.2,0.7-0.3,1s-0.3,0.8-0.4,1.2s-0.3,0.9-0.5,1.3s-0.2,0.6-0.4,0.9c-0.3,0.8-0.6,1.5-1,2.2
	c0.3,0.1,0.6,0.3,0.9,0.4l0.2,0.1c0.3,0.1,0.5,0.1,0.8,0.2h0.3c0.2,0,0.4,0.1,0.6,0.1h0.9c0.7,0,1.4-0.2,2.1-0.4l0.4,1.6
	c1,3.6,1.6,7.3,1.9,11c0.2,4.2-0.5,8.5,0.3,12.6c0.4,2.1,1.2,4.2,1.5,6.4c0.2,2,0.2,4.1-0.1,6.1l-1.4,14.7c0,1.8-0.5,3.6-1.3,5.2
	c-0.7,1.2-1.8,2.6-1.1,3.8c1.2-0.3,2.3-0.5,3.5-0.7c-0.4,1.6-0.8,3.1-1.2,4.7c-0.4,1.2-0.5,2.4-0.3,3.6c0.3,1.1,1,2.2,1.1,3.3
	c0.2,1.8-1.1,3.4-1.8,5.1c-1.8,4.3,0.1,9.1,2,13.3l5.5,12.5l4.5,10.3c1.3,3,2.7,6.1,4,9.2c5.9,14,10.7,28.5,14.4,43.2
	c0.1,0.7,0.4,1.3,0.8,1.9c0.8,1,2.1,1.3,3.3,1.9c3.4,1.9,3.8,7.5,0.7,9.8c0.6,7.5-5,14.8-7.9,21.8c-6.7,16-5.5,34.1-7.8,51.3
	l2.6-1.5c0.3,0.1,0.6,0.3,0.8,0.5c-0.1,0.3-0.1,0.7-0.2,1c-0.4,1.5-0.9,2.9-1.7,4.2c-1.5,2.6-3.8,4.9-4.2,7.9
	c-0.2,1.8,0.3,3.6,0.3,5.4v0.5c-0.2-0.2-0.6-0.2-1.1,0.2c-0.8,0.9-1.4,1.9-1.6,3.1c-0.4,1.3-0.8,2.6-1.2,3.9l-1.3,4.6
	c-0.7,2.8-1.6,5.5-2.7,8.2c-1,1.8-1.8,3.6-2.4,5.5c-0.4,1.6-0.5,3.1-0.4,4.7c0,1.5,0.2,3,0.6,4.5c1.2,2.9,3.6,5.2,6.6,6.2
	c2.9,1,6,1.6,9.1,1.7c0.8,0.1,1.6,0.1,2.4-0.1c0.8-0.2,1.6-0.7,2.3-1.2c4.2-3.1,6.4-8.8,6.8-14c-0.1-1.1-0.3-2.1-0.6-3.2
	c0.3-5.7-0.6-11.4-0.1-17.1c0.1,0.7,0.2,1.3,0.3,1.9l1,6.4c-0.1-0.2-0.2-0.4-0.3-0.6c-0.7,2.4-0.9,4.9-0.4,7.3
	c0.5,2.4,1.2,4.8,2.1,7.1l1.4,3.8c0.3,1.1,0.9,2.2,1.6,3.2c1.2,1.3,3,1.8,4.7,2.2c3.7,1.1,7.6,1.8,11.5,2c0.5,0.1,1,0,1.5-0.3
	c0.2-0.2,0.5-0.4,0.7-0.6c0.3-0.2,0.7-0.5,1.1-0.6c1.7-0.9,2.9-2.4,3.5-4.2c0.6-1.8,0.3-3.8-0.6-5.4c-0.5-0.7-1-1.3-1.6-1.9
	l-6.8-7.3c-1-1.2-2.2-2.4-3.3-3.5c-0.3-0.3-0.7-0.4-1.1-0.4c-1.9-4.6-1.6-10.1-1.3-15.2c0.1-1.5,0.9-4.7,1.3-7.3
	c1.3-0.4,2.5-1.1,3.6-2c1-0.8,1.8-1.9,2.1-3.1c3.4-17.6,9-34.7,14.2-51.9c0.5-1.7,1-3.4,1.5-5.1c0.2-0.7,0.4-1.5,0.6-2.2
	s0.4-1.2,0.5-1.8c0.3-1,0.6-2,0.8-3c0.1-0.3,0.1-0.5,0.2-0.8c0-0.1,0-0.1,0-0.2c0.3-1.2,0.6-2.5,1-3.7c0.1-0.5,0.3-0.9,0.4-1.4
	c0.4-1.6,0.8-3.1,1.1-4.7c0.1-0.2,0.1-0.4,0.1-0.7c0.1-0.6,0.1-1.1-0.1-1.7c-0.1-0.2-0.2-0.4-0.4-0.6c-0.1-0.1-0.2-0.3-0.4-0.4
	s-0.3-0.3-0.4-0.4c-0.3-0.4-0.6-0.8-0.7-1.3v-1.4c0-0.4-0.1-1-0.1-1.5c0.1-0.7,0.3-1.3,0.4-2c0.1-0.4,0.3-0.8,0.4-1.2s0.3-1,0.5-1.5
	c0.6-0.7,0.9-1.6,0.9-2.5c0.6-1.5,1.3-3.1,2.1-4.5c0.9-1.5,1.5-3.2,1.8-4.9c0-1.6-0.2-3.1-0.6-4.7c-1-6.5,2-12.8,4.2-19
	c1.6-4.6,2.9-9.2,3.7-14c0.6-3.7,1.1-7.5,3.1-10.6c0.6-0.9,1.2-1.8,1.6-2.8c0.3-1,0.5-2.1,0.4-3.2c0.2-4.4,1.3-8.7,3.1-12.8
	c0.4-0.8,0.7-1.6,0.8-2.5c0-0.1,0-0.1,0-0.2v-0.2l0.5-0.1c0.9-5.5,1.8-11.7,1.1-17.2c-0.8-6.4-3.9-12.3-8.8-16.6h0.1
	c1.7-0.9,2.5-3,2.5-4.9c0-2.9-1.3-5.6-3.5-7.4c-0.5-0.3-0.9-0.7-1.2-1.2c-0.2-0.5-0.2-1.1-0.1-1.6c0-3.3-2-6.4-5.1-7.6
	c-0.3-0.1-0.6-0.3-0.8-0.5c-0.3-0.4-0.3-1-0.2-1.5c0.2-3.3-1.5-6.5-4.3-8.2c0.4-2.1,0.8-4.4,0.2-6.5s-2.6-4-4.7-3.7
	c1.8-4.8-0.7-10.1-0.1-15.2c0.3-2.2,1.2-4.3,1.3-6.5c0.1-2-0.4-4.1,0.6-5.9s3.3-3.1,2.7-5c-0.3-0.8-1-1.4-1.4-2.2s1.1-2,1.8-1.6
	c0.3-0.3,0.7-0.5,1-0.8c0.1,1,0.3,2,0.6,3c0.5,1.6,1.2,3.2,1.8,4.8c0.8,2.5,1,5.2,2.3,7.5c2,3.6,6.2,5.5,9.1,8.5
	c1.7,1.8,2.9,4,4.6,5.7c1.3,1.2,2.8,2.3,4.3,3.2l9.2,6c1,0.7,2,1.2,3.2,1.6c2.9,0.6,5.7-1.4,6.3-4.3c0-0.1,0-0.2,0-0.3
	c-0.8-0.3-1.6-0.8-2.3-1.4c0.1,0,0.3,0,0.4-0.1c2.2-0.6,4.2-1.7,5.9-3.1c6.6-5.2,11.3-12.4,15.9-19.4c4.8-7.4,28.1-26.9,28.1-26.9
	v-7.9c3-1.7,5.6-4,7.8-6.6c1.2-1.4,1.9-3.2,2-5C311.2,353.5,310.1,351.8,308.3,351.1L308.3,351.1z M114.6,370
	c-0.4,2.9-1,5.7-1.6,8.6c-0.7,3.3-1.6,6.5-2.8,9.7l-0.4,1c-0.3-0.6-0.7-1.2-1-1.9c-0.8-1.6-1.4-3.2-2-4.8l-3.9-10.4
	c-0.5-1.4-1-2.9-0.3-4.1c0.5-0.8,1.3-1.3,2.2-1.6c2.7-1.2,5.5-2.2,8.5-2.9c0.9-0.2,1.8-0.4,2.7-0.7
	C115.4,365.1,114.9,367.6,114.6,370L114.6,370z M118.8,357c-0.3-0.5-0.3-1,0-1.5c0.3-0.3,0.6-0.5,1-0.7l0.3-0.2
	C119.7,355.4,119.3,356.3,118.8,357L118.8,357z M126.8,345.7c-1.1,0.9-2.2,2-3.1,3.2c-1,1.3-1.9,2.7-2.6,4.1c0.2-1.1-0.2-2.3-1.1-3
	c-0.4-0.2-0.7-0.4-1-0.7c-0.7-0.9-0.5-2.2,0.4-2.9l0,0c0.9-0.6,2-1,3.1-1.1l4.6-0.7C127,345,126.9,345.4,126.8,345.7L126.8,345.7z
	 M170,680.4c0.1-1.4,0-2.8-0.3-4.1h1.7C171,677.6,170.5,679,170,680.4z"/>
<path class="st26" d="M165.3,272.9c-8,1.3-16.9,4.4-20,11.9c-2.3,5.7-0.5,12,0.1,18.1c0.2,1.6,0.2,3.2-0.2,4.8
	c-0.7,2.6-2.5,4.6-4.2,6.6c-2.4,2.5-4.5,5.4-6.1,8.5c-1.4,3.2-1.9,7-0.4,10.2c0.5,0.8,0.8,1.7,1,2.7c0.1,2.1-2.1,3.4-3.7,4.7
	c-6,5-5.8,14-5.8,21.8c-0.1,16-3.6,31.7-10.4,46.2c5.2,2.6,11.4,1.8,15.8-2.1c-0.8,3.6-2,7-3.6,10.3c5.1,2.5,11.2-1.6,13.8-6.6
	s2.9-10.9,4.7-16.3s5-10,6.4-15.4c0.4-1.8,0.7-3.7,1.8-5.2c0.9-1.1,2-2,3.2-2.7c5.3-3.8,9.2-9.2,11.3-15.3
	c6.2,1.4,12.6,2.8,18.9,2.2s12.8-3.5,16.2-8.9c1.5-2.4,2.3-5.1,3.6-7.6c1.7-3,4.1-5.5,6-8.4c4.5-6.8,5.3-15.6,3.5-23.6
	s-6-15.2-11-21.6C196.6,275.1,180.5,270.5,165.3,272.9L165.3,272.9z"/>
<path class="st1" d="M114.8,372.9c-0.4,2.9-1,5.7-1.6,8.5c-0.7,3.3-1.6,6.5-2.8,9.7c-0.7,1.4-1,2.9-0.9,4.4c0.2,0.9,0.6,1.8,1.1,2.6
	c3.7,6.5,8.6,12.8,9,20.2c0.1,1.9,0,3.9,1,5.4c2.8-6.1,5.9-12,9.3-17.8c3.6-6,7.5-12.1,8.5-19.1c0.4-3.3,0.4-6.6-0.1-9.8
	c-0.5-3.6-1.3-7.4-3.5-10.3c-2.4-3.2-9-7.9-13.3-6.9C116.5,361.1,115.4,368.9,114.8,372.9L114.8,372.9z"/>
<path class="st27" d="M243.7,407.9c4.8-2,9.7-4,13.4-7.5c2.3-2.3,4.4-4.8,6.1-7.6l11.3-16.2c2.7-3.9,5.4-7.9,6-12.6
	c6.6-7,10.6-16,11.2-25.5c0.1-1,0.4-2.2,1.4-2.2c0.4,0,0.8,0.2,1.1,0.5c1.5,1.4,2.2,3.4,2,5.4c1.6-0.1,3.4-0.1,4.8,0.8
	s1.7,3.3,0.3,4.1c1,0.3,1.6,1.3,1.4,2.3c1.7-0.3,3.6-0.6,5.1,0.2s2.1,3.4,0.6,4.3c1.8,0.7,2.9,2.4,2.9,4.3c-0.1,1.8-0.8,3.6-2,5
	c-4.3,5.8-11.9,8.1-17,13.4c-1.6,1.8-3.1,3.8-4.4,5.9l-14.5,22.1c-4.6,7-9.3,14.2-15.9,19.4c-1.7,1.5-3.7,2.6-5.9,3.1
	c-2.2,0.6-4.6-0.1-6.2-1.7c-1.4-1.6-1.7-4-1.8-6.2C243.3,415.5,243.9,411.7,243.7,407.9L243.7,407.9z"/>
<path class="st26" d="M195.1,714.6c0.6,0.6,1.1,1.2,1.6,1.9c1,1.6,1.2,3.6,0.6,5.4c-0.6,1.8-1.8,3.3-3.5,4.2
	c-0.4,0.2-0.8,0.4-1.1,0.6c-0.2,0.2-0.4,0.4-0.7,0.6c-0.5,0.2-1,0.3-1.5,0.3c-3.9-0.2-7.7-0.9-11.5-2c-1.7-0.4-3.5-0.9-4.7-2.2
	c-0.7-0.9-1.3-2-1.6-3.2l-1.4-3.8c-0.9-2.3-1.6-4.7-2.1-7.1c-0.5-2.4-0.4-4.9,0.4-7.3c0.3,0.4,0.5,0.9,0.5,1.5
	c0.4,2.6,1.4,5,2.9,7.1c0.3,0.5,0.7,1,1.1,1.4c1,0.8,2.2,1.3,3.4,1.4c2.4,0.5,4.8,0.8,7.3,0.9c0.3,0,0.7,0,1-0.1
	c0.4-0.2,0.7-0.6,0.8-1c0.3-1,0.3-2,0-3c-0.7-1.8-2.5-3.1-3.3-4.8c-0.6-1.3,0.2-2.7,1.6-1.6c1.2,1.1,2.3,2.3,3.4,3.5L195.1,714.6z"
	/>
<path class="st27" d="M182.5,688.3c-0.4,6.1-0.7,12.7,2.7,17.8c1.2,1.8,2.8,3.4,4.2,5.1c0.8,0.9,1.3,1.9,1.5,3.1
	c0.2,2.2-1.9,4.2-4.1,4.6s-4.5-0.3-6.6-1c-2-0.5-3.9-1.4-5.6-2.6c-2.9-2.5-3.7-6.6-4.3-10.3l-1.4-8.7c-1-4.4-0.6-9.1,1.2-13.2
	l2.2-6.6c0.1-0.6,0.5-1.2,1-1.6c0.5-0.3,1.1-0.4,1.7-0.3c2.1,0.1,7.6,0.9,8.6,3.2C184.6,679.6,182.7,686,182.5,688.3L182.5,688.3z"
	/>
<path class="st28" d="M182.5,688.3c-0.4,6.1-0.7,12.7,2.7,17.8c1.2,1.8,2.8,3.4,4.2,5.1c0.8,0.9,1.3,1.9,1.5,3.1
	c0.2,2.2-1.9,4.2-4.1,4.6s-4.5-0.3-6.6-1c-2-0.5-3.9-1.4-5.6-2.6c-2.9-2.5-3.7-6.6-4.3-10.3l-1.4-8.7c-1-4.4-0.6-9.1,1.2-13.2
	l2.2-6.6c0.1-0.6,0.5-1.2,1-1.6c0.5-0.3,1.1-0.4,1.7-0.3c2.1,0.1,7.6,0.9,8.6,3.2C184.6,679.6,182.7,686,182.5,688.3L182.5,688.3z"
	/>
<path class="st26" d="M230.6,507.2c0,0.1,0,0.1,0,0.2c-0.1,0.9-0.4,1.7-0.8,2.5c-1.8,4-2.9,8.3-3.2,12.7c0,1.1-0.1,2.2-0.4,3.2
	c-0.4,1-1,1.9-1.6,2.8c-1.9,3.2-2.4,7-3.1,10.6c-0.8,4.7-2.1,9.4-3.7,13.9c-2.2,6.2-5.2,12.5-4.2,19c0.4,1.5,0.6,3.1,0.6,4.7
	c-0.3,1.7-0.9,3.4-1.8,4.9c-0.7,1.5-1.4,3-2,4.5c-0.6,1.7-1.2,3.4-1.7,5.1c-0.6,2.1-1,4.6,0.4,6.3c0.4,0.4,0.8,0.9,1.1,1.4
	c0.3,0.8,0.3,1.6,0,2.4c-0.8,3.3-1.6,6.7-2.5,10c-0.7,2.6-1.4,5.2-2.2,7.8c-5.6,18.9-12,37.5-15.8,56.9c-0.5,2.8-4.1,4.8-6.9,5.4
	c-2.8,0.6-5.8-0.2-7.9-2.1c-0.2-0.2-0.4-0.4-0.5-0.5c-2.9-3.1-3.3-7.9-3.1-12.2c1-19.9,11-38.1,15.8-57.4c1.7-7,2.8-14.1,3.1-21.3
	c1.1-24,1.6-49.4-5.2-72.5c-1.4-4.8-3.1-10.2-0.5-14.5c1.6-2.7,4.6-4.3,7.5-5.5c12.1-4.7,25.6-4.4,37.5,1c0,0.5,0,1-0.1,1.4
	c-0.3,2.2,0,4.5,0.8,6.6C230.3,505.3,230.5,506.2,230.6,507.2L230.6,507.2z M148.4,694.5l-1.3,4.6c-0.7,2.8-1.6,5.5-2.7,8.1
	c-1,1.8-1.8,3.6-2.4,5.5c-0.4,1.6-0.5,3.1-0.4,4.7c0,1.5,0.2,3,0.6,4.5c1.2,2.9,3.6,5.1,6.5,6.2c2.9,1,6,1.6,9.1,1.7
	c0.8,0.1,1.6,0.1,2.4-0.1c0.8-0.2,1.6-0.7,2.3-1.2c4.2-3.1,6.4-8.8,6.8-14c-0.1-1.2-0.3-2.4-0.7-3.6c-0.3-0.4-3.5,1.4-2.1,2.9
	c2,2.2-3.9,1.1-6.9,0.9c-1.3-0.1-2.6-0.3-3.9-0.6l-4.9-1c-1.6-0.3-3.4-0.9-4-2.4s0.7-3.3,1.6-4.8c2.5-3.9,3.2-8.7,3.8-13.4
	c0.1-0.9,1.3-6.8-1.1-5c-0.8,0.9-1.4,1.9-1.6,3.1C149.1,691.8,148.7,693.1,148.4,694.5L148.4,694.5z"/>
<path class="st28" d="M208.9,597.7c-1.4-1.7-1-4.2-0.4-6.3c0.2-0.8,0.5-1.5,0.7-2.3l-19.1-6.5c-0.1,1.7-0.1,3.4-0.2,5.1
	c-0.3,7.2-1.4,14.3-3.1,21.3c-4.8,19.3-14.8,37.5-15.8,57.4c-0.2,4.6,0.3,9.7,3.6,12.8c2.1,1.9,5.1,2.7,7.9,2.1
	c2.8-0.6,6.3-2.6,6.9-5.4c3.8-19.3,10.1-38,15.8-56.9c1.8-5.9,3.3-11.8,4.7-17.7c0.3-0.8,0.3-1.6,0-2.3
	C209.7,598.5,209.3,598.1,208.9,597.7L208.9,597.7z"/>
<path class="st27" d="M156.2,673.5c-1.5,2.6-3.8,4.9-4.2,7.9c-0.2,1.8,0.3,3.6,0.3,5.4c-0.1,1.5-0.3,3-0.8,4.4
	c-1.9,6.7-4,13.3-6.4,19.9c-0.4,0.8-0.6,1.8-0.5,2.7c0.2,1.5,1.7,2.5,3.1,3.2c4.6,1.9,9.7,1.8,14.6,1.6c1.4,0.1,2.9-0.3,4.1-1
	c1.8-1.2,2.2-3.6,2.3-5.7c0.3-6.2-0.7-12.4,0-18.6c0.3-2.3,0.7-4.5,1.1-6.7c0.5-3.1,0.7-6.4-0.3-9.3c-0.8-2.1-2-4.1-3.5-5.9
	c-1.3-1.9-2.9-3.5-4.9-4.8c-0.6-0.3-2.2-1.4-2.8-0.7c-0.3,0.3-0.2,1.3-0.2,1.7c-0.1,0.6-0.2,1.3-0.3,1.9
	C157.5,670.8,157,672.2,156.2,673.5L156.2,673.5z"/>
<path class="st28" d="M192.9,514.9c-0.9,1.2-0.7,2.9-0.4,4.3c0.6,2.6,1.7,5.2,2.6,7.7c1.4,4.6,2.5,9.3,3.3,14.1
	c0.8,4.3,2.5,9.1,1.8,13.4c5.2,9.9,8.6,20.7,10.1,31.8c0.4,2.8-5.9,6.5-5.8,9.4c0.2,5.7,4.8,6.2,1.4,10.7c-0.2,0.2,1.3,5.3,1.1,5.6
	c-1.4,1.7-3.1,3-4.6,4.5c-1.9,2.1-3.5,4.5-4.8,7.1c-8.7,15.7-21.3,33.5-17.4,51.1c0.2,1.3-0.5,2.6-1.7,3.2c-1.1,0.6-2.4,0.8-3.7,0.8
	h-0.6c-2.9-3.1-3.3-7.9-3.1-12.2c1-19.9,11-38.1,15.8-57.4c1.7-7,2.8-14.1,3.1-21.3c1.1-24,1.6-49.4-5.2-72.5
	c-1.4-4.8-3.1-10.2-0.5-14.5c1.6-2.7,4.6-4.3,7.5-5.5c12.1-4.7,25.6-4.4,37.5,1c0,0.5,0,1-0.1,1.4c-0.3,2.2,0,4.5,0.8,6.6
	c0.4,0.9,0.7,1.9,0.8,2.9c0,0,0.3-3.9,0.3-3.8c-7.8,1.1-15.9,6.2-23.8,7.3c-4.1,0.4-8,1.3-11.9,2.6
	C194.3,513.6,193.5,514.2,192.9,514.9L192.9,514.9z"/>
<path class="st26" d="M138.9,472.4c-1,3.3-2,6.7-2.8,10.1c-0.4,1.2-0.5,2.4-0.3,3.6c0.3,1.1,1,2.2,1.1,3.3c0.2,1.8-1.1,3.4-1.8,5.1
	c-1.8,4.3,0.1,9,2,13.3l5.5,12.5l4.5,10.3c1.4,3,2.7,6.1,4,9.2c5.9,14,10.7,28.4,14.4,43.2c0.1,0.7,0.4,1.3,0.7,1.9
	c0.8,1,2.2,1.3,3.3,1.9c3.4,1.9,3.8,7.4,0.7,9.8c0.6,7.5-5,14.8-7.9,21.7c-6.7,16-5.5,34-7.8,51.2l2.6-1.5c2.5,1.1,2.4,4.7,3.7,7.1
	c2,3.6,6.9,4.1,11,3.8c1.3,0,2.5-0.3,3.7-0.8c1.2-0.6,1.8-1.9,1.7-3.2c-3.9-17.5,8.7-35.4,17.4-51.1c1.3-2.5,2.9-4.9,4.8-7.1
	c1.5-1.6,3.2-2.9,4.6-4.5c3.8-4.6,4.3-11.1,4.1-17.1c-0.6-14.1-4.3-27.9-10.9-40.4c0.7-4.3-1-9.1-1.8-13.4
	c-0.8-4.8-1.9-9.5-3.3-14.1c-0.9-2.6-1.9-5.1-2.6-7.8c-0.4-1.5-0.5-3.1,0.4-4.3c0.7-0.7,1.5-1.3,2.5-1.6c3.9-1.3,7.9-2.2,11.9-2.6
	l26.8-3.9c0.9-5.5,1.7-11.6,1.1-17.2c-1.3-10.5-8.8-19.2-18.9-22.1c-1.2-0.3-2.5-0.5-3.5,0.2C186.2,463.2,161.7,464.7,138.9,472.4
	L138.9,472.4z"/>
<path class="st27" d="M163.2,327.4c0.4,2.6,0,5.3-1.2,7.7c-0.8,1.3-1.8,2.4-3,3.4c-2.6,2.1-5.6,3.6-8.8,4.4c-1.9,0.5-4,0.8-5.3,2.3
	c-1.9,2.3-0.6,5.7,1,8.2c2.8,4.3,6.6,8.2,11.6,9.6c4,1.1,8.2,0.4,12.2,1.1c2.9,0.5,5.7,1.7,8.6,2.4c8.4,1.9,17.1-0.5,23.3-6.5
	c-4.3-3.3-8.8-6.8-11-11.8c-1.6-3.5-1.9-7.5-0.8-11.2c1-3.7,3.4-7.2,2.6-11s-4.4-6.3-8-7.6c-3.3-1-6.7-1.7-10.1-2
	c-1.9-0.3-13.9-2.9-14.6-1.6c-0.4,0.7,2.1,5.1,2.4,6.1C162.7,323,163.1,325.2,163.2,327.4L163.2,327.4z"/>
<circle class="st27" cx="178.3" cy="311.9" r="24.3"/>
<path class="st1" d="M165.5,352.1l16.5,2.8c4.1,0.8,8.2,1.2,12.3,1.2c2.3-0.2,4.5-0.2,6.8,0c1.6,0.3,3.1,0.9,4.6,1
	c1.9,0.2,3.9-0.1,5.8,0.1c3.6,0.5,6.5,2.9,9.3,5.3c3.2,2.8,6.6,6,6.9,10.3c0,0.5,0,1-0.2,1.4c-0.3,0.5-0.7,0.9-1.2,1.3
	c-3,2.5-4.7,6.2-6.9,9.5c-2.2,3.4-5,6.4-8.2,8.9c-0.7-0.5-2.1,0.8-1.8,1.5s1.1,1.4,1.4,2.2c0.6,1.9-1.7,3.3-2.7,5s-0.5,3.9-0.6,5.9
	c-0.1,2.2-1,4.3-1.3,6.5c-0.7,5.1,1.8,10.4,0.1,15.2c2.2-0.3,4.1,1.6,4.7,3.7s0.2,4.3-0.2,6.5c2.8,1.7,4.5,4.8,4.3,8.1
	c-0.3,0.7,0,1.5,0.7,1.8c0.1,0,0.2,0.1,0.3,0.1c3.1,1.3,5.1,4.3,5.1,7.6c-0.1,0.5,0,1.1,0.1,1.6c0.3,0.5,0.7,0.9,1.2,1.2
	c2.2,1.8,3.5,4.5,3.5,7.4c0,1.9-0.8,4-2.5,4.9c-3.5,1.8-7.3,2.5-11.1,3.3c-3.5,0.8-7.1,1.5-10.7,1.9c-3.3,0.3-6.7,0.4-10,0.3
	l-22.1-0.1c-6.2,0-12.4,0-18.6-0.5c-5.8-0.4-11.7-1.1-17.3,0.4c-0.7-1.2,0.4-2.6,1.1-3.8c0.8-1.6,1.2-3.4,1.3-5.2l1.4-14.7
	c0.3-2,0.3-4.1,0.1-6.1c-0.3-2.2-1.1-4.2-1.5-6.4c-0.8-4.1-0.1-8.4-0.3-12.6c-0.3-3.7-0.9-7.4-1.9-11l-4.4-18
	c-0.7-2.9-1.1-6.3-2.2-9c-3.4-8.7-6.9-17.2-10.6-25.7c-0.3-0.8-0.2-1.6,0.2-2.3l3.7-6.5c1-1.9,2.1-3.6,3.3-5.3
	c3.1-3.9,7.4-6.6,12.3-7.6c4.9-1,9.9-0.2,14.3,2.1c1.7,0.9,3.3,2,5,2.9C158.6,350.8,162.2,352.3,165.5,352.1L165.5,352.1z"/>
<path class="st1" d="M224,368.1l5.8,7.7c0.5,0.7,1,1.4,1.3,2.1c0.9,2,0.4,4.4,0.9,6.5c0.4,1.4,0.9,2.7,1.7,3.9
	c2.2,3.8,4.6,7.4,7.3,10.9c1.2,1.7,2.8,3.3,4.6,4.5c1.8,1.2,4,1.6,6.1,1.1c-0.9,0.3-1.6,1-2,1.8c-2.2,4.3-2.4,9.5-1.4,14.2
	c0.3,1.6,0.8,3.2,1.6,4.7c0.8,1.5,2.1,2.6,3.7,3.2c-0.4,2.9-3.1,5-6.1,4.6c-0.1,0-0.2,0-0.3,0c-1.1-0.3-2.2-0.9-3.1-1.6l-9.2-6
	c-1.5-0.9-3-2-4.3-3.2c-1.7-1.7-2.9-3.9-4.6-5.7c-2.9-3-7.1-4.8-9.1-8.5c-1.3-2.3-1.5-5-2.3-7.5c-0.5-1.6-1.3-3.2-1.8-4.8
	c-1.5-5.1-0.4-10.6,1.9-15.4S220.6,372.2,224,368.1z"/>
<path class="st26" d="M202.4,298c-2.3-3.5-5.2-6.5-8.6-8.9c-4.6-3.4-9.8-6.2-15.4-6.5c-2.4-0.1-4.7,0.3-6.9,1.1
	c-0.1-6.9-1.8-11.5-6.1-10.8c-8,1.3-16.9,4.4-20,11.9c-2.3,5.7-0.5,12,0.1,18.1c0.2,1.6,0.2,3.2-0.2,4.8c-0.7,2.6-2.5,4.6-4.2,6.6
	c-2.4,2.5-4.5,5.4-6.1,8.5c-1.4,3.2-1.9,7-0.4,10.2c0.5,0.8,0.8,1.7,1,2.7c0.1,2.1-2.1,3.4-3.7,4.7c-6,5-5.8,14-5.8,21.8
	c-0.1,16-3.6,31.7-10.4,46.2c5.2,2.6,11.4,1.8,15.8-2.1c-0.8,3.6-2,7-3.6,10.3c5.1,2.5,11.2-1.6,13.8-6.6s2.9-10.9,4.7-16.3
	s5-10,6.4-15.4c0.4-1.8,0.7-3.7,1.8-5.2c0.9-1.1,2-2,3.2-2.7c5.2-3.8-2.5-32.3-0.4-38.4c3,0.7,8.6-14,11.8-29c2.2,0.8,4.6,1,6.9,0.7
	c0.8-0.2,1.6-0.2,2.5-0.2c0.8,0.2,1.5,0.5,2.2,0.9c2.4,1.4,4.8,2.7,7.4,3.8c5.3,2,11.1,1.7,16.7,1.4
	C205.5,305.8,204.6,301.5,202.4,298L202.4,298z"/>
<g class="st29">
	<path d="M118.4,408.6c6.8-14.4,10.3-30.2,10.4-46.1c0.1-7.8-0.2-16.9,5.8-21.8c1.6-1.3,3.8-2.6,3.7-4.7c-0.2-1-0.5-1.9-1-2.7
		c-1.5-3.2-1-7,0.4-10.2c1.6-3.1,3.6-6,6.1-8.5c1.8-2,3.6-4.1,4.2-6.6c0.3-1.6,0.4-3.2,0.2-4.8c-0.6-6.1-2.4-12.5-0.1-18.1
		c3-7.3,11.4-10.4,19.2-11.7c-0.7-0.2-1.4-0.3-2.1-0.1c-8,1.3-16.9,4.4-20,11.9c-2.3,5.7-0.5,12,0.1,18.1c0.2,1.6,0.2,3.2-0.2,4.8
		c-0.7,2.6-2.5,4.6-4.2,6.6c-2.4,2.5-4.5,5.4-6.1,8.5c-1.4,3.2-1.9,7-0.4,10.2c0.5,0.8,0.8,1.7,1,2.7c0.1,2.1-2.1,3.4-3.7,4.7
		c-6,5-5.8,14-5.8,21.8c-0.1,16-3.6,31.7-10.4,46.1c2.4,1.2,5.1,1.7,7.7,1.5C121.6,409.9,120,409.4,118.4,408.6L118.4,408.6z
		 M130.6,416.8c1.5-3.3,2.7-6.8,3.6-10.3c-1,0.9-2.2,1.7-3.5,2.3c-0.8,2.7-1.8,5.4-3,8c1.5,0.7,3.1,0.9,4.7,0.6
		C131.8,417.2,131.2,417.1,130.6,416.8z M174.3,283.7c1.5-0.6,3-0.9,4.6-1.1h-0.6c-1.4-0.1-2.8,0-4.1,0.3
		C174.3,283.1,174.3,283.4,174.3,283.7z M190.8,308.5c-2.5-1.1-5-2.3-7.4-3.8c-0.7-0.4-1.4-0.7-2.2-0.9c-0.8-0.1-1.5,0-2.3,0.1
		c0.5,0.2,1.1,0.4,1.6,0.7c2.4,1.4,4.8,2.7,7.4,3.8c4,1.3,8.2,1.9,12.3,1.6C197.1,310.1,193.9,309.5,190.8,308.5L190.8,308.5z
		 M171.9,303.3c0,0.2-0.1,0.4-0.1,0.7c1.2,0.2,2.4,0.2,3.6,0.1C174.2,303.9,173,303.7,171.9,303.3z"/>
</g>
<path class="st27" d="M121.2,416.2c0.3,2.6-0.6,5.2-2.4,7.1c-1,1-2.2,1.8-3.4,2.5c-1.2,0.8-2.6,1.3-4,1.5c-1.9-0.1-3.8-0.9-5.1-2.2
	c-4.2-3.7-6.4-9.2-8.3-14.5c-2.6-7-5.2-14.1-6.3-21.5c-1.2-7.9-0.7-16.1-2.9-23.8c2-4,3.3-8.5,5.6-12.3c1.5-2.3,2.7-4.7,3.8-7.2
	c2.1-5.3,2.4-11.2,0.7-16.7c0.8-0.5,1.9-0.5,2.7,0.1c0.7,0.6,1.3,1.4,1.6,2.3c1.3,3.1,1.9,6.4,1.6,9.8c-0.2,0.8-0.1,1.6,0.3,2.4
	c0.6,0.8,1.6,1.2,2.6,1.1c2-0.1,4.1-0.5,6-1.1c6-1.5,12.3-2.1,18.5-1.5c1.3,0,2.5,0.3,3.6,0.9c1.1,0.6,1.9,1.7,1.9,3l-14.8,2.2
	c-1.1,0.1-2.2,0.4-3.1,1.1c-0.9,0.7-1.1,2-0.4,2.9c0.3,0.3,0.6,0.5,1,0.7c1.3,1,1.6,2.9,0.6,4.2c-0.2,0.3-0.4,0.5-0.7,0.7
	c-0.4,0.2-0.7,0.4-1,0.7c-0.6,0.8,0.2,1.9,0.5,2.9c0.2,1.5-0.5,2.9-1.8,3.7c-1.3,0.7-2.7,1.2-4.1,1.4c-2.9,0.7-5.7,1.6-8.4,2.9
	c-0.9,0.3-1.7,0.9-2.2,1.6c-0.7,1.2-0.3,2.8,0.3,4.1l3.9,10.4c0.6,1.6,1.2,3.3,2,4.8c1,2,2.2,3.9,3.2,6s1.7,3.9,2.4,5.8
	C116.7,407.4,120.6,410.6,121.2,416.2z"/>
<linearGradient id="SVGID_13_" gradientUnits="userSpaceOnUse" x1="277.855" y1="376.52" x2="277.855" y2="421.18" gradientTransform="matrix(1 0 0 -1 0 770)">
	<stop  offset="0" style="stop-color:#808080;stop-opacity:0.25"/>
	<stop  offset="0.54" style="stop-color:#808080;stop-opacity:0.12"/>
	<stop  offset="1" style="stop-color:#808080;stop-opacity:0.1"/>
</linearGradient>
<path class="st30" d="M254.8,348.8h46.1v44.7h-46.1L254.8,348.8z"/>
<path class="st12" d="M255.6,349.6h44.5v43.1h-44.5V349.6z"/>
<path class="st27" d="M292.4,346.2c-0.8,0.6-1.4,1.5-1.7,2.5c-0.1,0.4,0,0.9,0.4,1.1c0.2,0.1,0.5,0.1,0.7,0c1.1-0.2,2.1-0.7,3-1.4
	c-0.3,0.2-0.6,0.4-0.9,0.7c-0.2,0.3-0.3,0.7-0.1,1.1c0.2,0.3,0.6,0.5,1,0.5c1.4,0.3,2.9,0.2,4.3-0.2c-0.7,0.2-1.3,0.6-1.8,1
	c-0.5,0.5-0.8,1.1-0.8,1.9c0,0.3,0.1,0.5,0.3,0.7c0.1,0.1,0.3,0.1,0.5,0.2c1.3,0.2,2.7,0.2,4,0c0.7,0,1.3-0.4,1.7-1
	c0.1-0.7,0-1.4-0.4-1.9c-0.7-1.5-1.1-3.2-1-4.9c0-0.3,0-0.7-0.1-1c-0.2-0.3-0.5-0.5-0.9-0.6c-1.4-0.6-3.3-1.5-4.9-1
	C294.4,344.4,293.3,345.2,292.4,346.2L292.4,346.2z"/>
</svg>
