<svg version="1.1" id="图层_1" xmlns="http://www.w3.org/2000/svg" x="0" y="0" viewBox="0 0 1046.3 851.8" xml:space="preserve"><style>.st0{opacity:.1}.st1{fill:none;stroke:#535461;stroke-width:2;stroke-miterlimit:10}.st4{opacity:.1}.st7{fill:#9d9cb5}.st9{fill:#f6f7f9}.st16{fill:#2d293d}.st17{fill:#575988}.st18{opacity:5.000000e-02}.st20{fill:#ffcdd3}.st21{fill:#dce6f2}.st22{fill:#656691}</style><path class="st0" d="M632.9 815.9c59.1 0 106.9 8 106.9 17.9s-47.9 17.9-106.9 17.9-106.9-8-106.9-17.9 47.9-17.9 106.9-17.9zm-4.5-710.6c-43.8 37.1-100.6 34.7-150.3 15.4s-95.5-53.7-144-78.2c-39.7-20.2-82.4-33.7-126.5-40-61.8-8.4-130.8 2-173.8 62-48 66.9-44.3 187.4 7.6 248.9 26.4 31.2 60.9 46.5 91 70.9s58 64.9 55.4 111.9c-2.4 43.6-30 77-58.6 98-22.1 16.2-49.3 33.9-52 67.5-2.6 32.5 20.3 57.9 42.1 72.4 71.2 47.2 159 46.8 230-1.2 25.3-17.1 48.6-39.9 75.2-53.2 69.7-35 146.6.2 220.4 13.1 62.5 10.9 126.6 5.3 187.5-16.5 36.6-13.1 73.3-33.1 99-70.3 18.5-26.9 30.1-60.9 40.9-94.5 11.6-35.8 22.7-71.9 33.3-108.2 6.4-21.8 12.7-44 14.3-67.3 3-42.3-9.6-84-26.8-119.7-40.7-84.8-109.4-144.4-183.7-159.5s-153.1 14.4-210.8 79.1m367.9 631.6c44.1 0 79.8 5.5 79.8 12.2s-35.7 12.2-79.8 12.2-79.8-5.5-79.8-12.2 35.7-12.2 79.8-12.2z"/><path class="st0" d="M501 204v-6.6H396.2c-4.8 0-1.9 6.7-1.9 6.7h-56.9v149.1h250V204H501z"/><path class="st1" d="M833.4 315.3s31.5-55.8 79-71.9c19.9-6.6 37.2-19.5 49.2-36.8 5.6-8.2 10.5-17 14.5-26.1"/><path class="st2" d="M911.9 224.5c-7.5.6-30.4-11.1-30.4-11.1s20.6-15.4 28.1-16.1c7.5-.7 14.1 4.9 14.8 12.4.7 7.5-4.9 14.1-12.4 14.8h-.1z"/><path class="st2" d="M1005.9 170.2c-5.4 5.3-30.6 10.7-30.6 10.7s6.2-25 11.6-30.3c5.4-5.3 14-5.2 19.3.1 5.3 5.4 5.2 14-.1 19.3l-.2.2zm-14.2 45.2c-7.4 1.5-31.5-7.7-31.5-7.7s18.8-17.6 26.2-19.1c7.4-1.5 14.6 3.3 16 10.7 1.5 7.4-3.3 14.6-10.7 16.1zm-51.9 49c-7.1-2.5-23.3-22.5-23.3-22.5s25.1-5.8 32.2-3.3c7.1 2.5 10.9 10.2 8.4 17.4-2.4 7.1-10.2 10.9-17.3 8.4zm-47.6 28.2c-7.4-1.2-26.8-18.2-26.8-18.2s23.8-9.9 31.2-8.7c7.4 1.2 12.5 8.2 11.3 15.6-1.2 7.4-8.2 12.5-15.6 11.3 0 .1 0 0-.1 0zm47-104.4c0 7.5 13.6 29.4 13.6 29.4s13.7-21.8 13.7-29.4c.2-7.5-5.7-13.8-13.3-14-7.5-.2-13.8 5.7-14 13.3v.7zM884 221.9c2.3 7.2 21.8 24 21.8 24s6.5-24.9 4.2-32.1c-1.9-7.3-9.3-11.7-16.6-9.8-7.3 1.9-11.7 9.3-9.8 16.6.1.5.2.9.4 1.3zM834.8 262c1 7.5 17.4 27.3 17.4 27.3s10.6-23.5 9.6-30.9c-.5-7.5-7-13.2-14.6-12.7-7.5.5-13.2 7-12.7 14.6.1.6.2 1.2.3 1.7zM84.4 365c2.8 6.8-1.3 31.4-1.3 31.4S62.8 381.9 60 375.1c-2.7-6.8.5-14.5 7.3-17.2 6.7-2.7 14.3.5 17.1 7.1zm35.7 29c-1.3 7.2-18.2 25.6-18.2 25.6s-9.2-23.2-7.8-30.4c1.2-7.2 8.1-12 15.3-10.8 7.2 1.2 12 8.1 10.8 15.3 0 .1 0 .2-.1.3zm25.6 64.2c-4.8 5.5-28.6 13-28.6 13s3.8-24.7 8.6-30.2c5-5.3 13.4-5.6 18.7-.6 4.9 4.7 5.5 12.4 1.3 17.8zm8.4 53c-3.8 6.3-26 17.6-26 17.6s-.4-25 3.3-31.2c3.8-6.2 12-8.1 18.2-4.3 6.1 3.7 8.1 11.7 4.5 17.9zm-77.3-79.6c6.8 2.7 31.3-1.8 31.3-1.8S93.4 409.7 86.6 407c-6.9-2.5-14.5 1-17 7.9-2.4 6.6.8 13.9 7.2 16.7zm10.6 61.8c7.3.5 29.4-11.1 29.4-11.1S96.7 467.6 89.4 467c-7.3-.6-13.7 4.8-14.2 12.1-.6 7.3 4.8 13.7 12.1 14.2 0 .1.1.1.1.1zM106 552c7.1 1.8 30.8-6 30.8-6s-17.4-17.9-24.4-19.6c-7.1-1.8-14.3 2.5-16.1 9.6-1.8 7.1 2.5 14.3 9.6 16.1 0-.1.1-.1.1-.1zm828.1-440.4c-2.8 7-23.6 22.2-23.6 22.2s-4.5-25.4-1.7-32.4 10.8-10.4 17.8-7.6c7 2.9 10.3 10.8 7.5 17.8zm5.3 47.2c-6.2 4.3-31.9 5.8-31.9 5.8s10-23.7 16.2-28.1c6.2-4.3 14.7-2.9 19 3.3s2.9 14.6-3.3 19zm-59.6 110.8c-7.3 1.9-31.9-5.8-31.9-5.8s17.7-18.7 25-20.6c7.3-1.9 14.7 2.5 16.6 9.8 1.9 7.3-2.5 14.7-9.7 16.6zm.6-114.5c3 6.9 24.4 21.3 24.4 21.3s3.6-25.5.6-32.4c-3-6.9-11-10.1-17.9-7.2-6.9 3-10.1 11-7.2 17.9 0 .3.1.3.1.4zm-36.8 53.3c5 5.7 29.6 13.1 29.6 13.1s-4.2-25.4-9.1-31.1c-5-5.7-13.6-6.2-19.3-1.3-5.6 5-6.2 13.6-1.2 19.3z"/><path d="M1005.9 170.2c-5.4 5.3-30.6 10.7-30.6 10.7s6.2-25 11.6-30.3c5.4-5.3 14-5.2 19.3.1 5.3 5.4 5.2 14-.1 19.3l-.2.2zm-14.2 45.2c-7.4 1.5-31.5-7.7-31.5-7.7s18.8-17.6 26.2-19.1c7.4-1.5 14.6 3.3 16 10.7 1.5 7.4-3.3 14.6-10.7 16.1zm-51.9 49c-7.1-2.5-23.3-22.5-23.3-22.5s25.1-5.8 32.2-3.3c7.1 2.5 10.9 10.2 8.4 17.4-2.4 7.1-10.2 10.9-17.3 8.4zm-47.6 28.2c-7.4-1.2-26.8-18.2-26.8-18.2s23.8-9.9 31.2-8.7c7.4 1.2 12.5 8.2 11.3 15.6-1.2 7.4-8.2 12.5-15.6 11.3 0 .1 0 0-.1 0zm47-104.4c0 7.5 13.6 29.4 13.6 29.4s13.7-21.8 13.7-29.4c.2-7.5-5.7-13.8-13.3-14-7.5-.2-13.8 5.7-14 13.3v.7zM884 221.9c2.3 7.2 21.8 24 21.8 24s6.5-24.9 4.2-32.1c-1.9-7.3-9.3-11.7-16.6-9.8-7.3 1.9-11.7 9.3-9.8 16.6.1.5.2.9.4 1.3zM834.8 262c1 7.5 17.4 27.3 17.4 27.3s10.6-23.5 9.6-30.9c-.5-7.5-7-13.2-14.6-12.7-7.5.5-13.2 7-12.7 14.6.1.6.2 1.2.3 1.7z" opacity=".25"/><path class="st1" d="M835.2 314.2s6.2-63.8 43-97.7c15.6-14.1 26.1-32.9 30-53.6 1.8-9.8 2.7-19.8 2.7-29.8M153.5 572.3s-39-48.3-36.6-96.8c1.2-20.3-4.3-40.5-15.6-57.5-5.4-8-11.5-15.5-18.3-22.4"/><path class="st2" d="M986.6 653.4s7.6 10-3.5 25-20.3 27.8-16.6 37.2c0 0 16.8-28 30.5-28.4s4.7-17-10.4-33.8zm-40.3 0s-7.6 10 3.5 25 20.3 27.8 16.6 37.2c0 0-16.8-28-30.5-28.4s-4.6-17 10.4-33.8z"/><path class="st4" d="M986.6 653.4c.7 1 1.2 2 1.6 3.1 13.4 15.7 20.5 30.3 7.6 30.7-12 .3-26.3 21.7-29.8 27.1.1.4.3.8.4 1.2 0 0 16.8-28 30.5-28.4s4.8-16.9-10.3-33.7zm-40.3 0c-.7 1-1.2 2-1.6 3.1-13.4 15.7-20.5 30.3-7.6 30.7 12 .3 26.3 21.7 29.8 27.1-.1.4-.3.8-.4 1.2 0 0-16.8-28-30.5-28.4s-4.7-16.9 10.3-33.7z"/><path d="M1000.8 666.1c0 3.5-.4 6.4-.9 6.4s-.9-2.8-.9-6.4.5-1.8 1-1.8.8-1.7.8 1.8zm4.9 4.2c-3.1 1.7-5.8 2.7-6 2.3s2.1-2.1 5.2-3.8 1.9-.5 2.1 0 1.8-.2-1.3 1.5zm-73.6-4.2c0 3.5.4 6.4.9 6.4s.9-2.8.9-6.4-.5-1.8-1-1.8-.8-1.7-.8 1.8zm-4.8 4.2c3.1 1.7 5.8 2.7 6 2.3s-2.1-2.1-5.2-3.8-1.9-.5-2.1 0-1.8-.2 1.3 1.5z" fill="#ffd037"/><path d="M1007.5 702.2l-.4 3.1-.5 4.4-.2 1.8-.5 4.4-.2 1.8-.5 4.4-6.1 50c-.5 4.5-7.8 8-16.7 8h-31.7c-8.8 0-16.1-3.5-16.7-8l-6.1-50-.5-4.4-.2-1.8-.5-4.4-.2-1.8-.5-4.4-.4-3.1c-.3-2.5 3.7-4.7 8.6-4.7h64.9c4.8 0 8.8 2.1 8.4 4.7z" fill="#65617d"/><path class="st7" d="M1007.2 705.3l-.5 4.4h-80.3l-.5-4.4h81.3zm-.8 6.2l-.5 4.4h-78.8l-.5-4.4h79.8zm-.8 6.3l-.5 4.4h-77.2l-.5-4.4h78.2z"/><linearGradient id="SVGID_1_" gradientUnits="userSpaceOnUse" x1="847.42" y1="454.58" x2="847.42" y2="663.93" gradientTransform="matrix(1 0 0 -1 -76.87 826.39)"><stop offset="0" stop-color="gray" stop-opacity=".25"/><stop offset=".54" stop-color="gray" stop-opacity=".12"/><stop offset="1" stop-color="gray" stop-opacity=".1"/></linearGradient><path d="M803.7 186h-.8c1.3-1.5 2-3 1.9-4.3l-7.6-7.6 2.9-6.5h-9.8l1.8-5.1h-5.8l-64.1 21.3s-.1.9 0 2.2H681v185.9h179.2V186h-56.5z" fill="url(#SVGID_1_)"/><path class="st9" d="M682.3 186.6h176.5v183.2H682.3V186.6z"/><linearGradient id="SVGID_2_" gradientUnits="userSpaceOnUse" x1="271.52" y1="457" x2="271.52" y2="678.92" gradientTransform="matrix(1 0 0 -1 -76.87 826.39)"><stop offset="0" stop-color="gray" stop-opacity=".25"/><stop offset=".54" stop-color="gray" stop-opacity=".12"/><stop offset="1" stop-color="gray" stop-opacity=".1"/></linearGradient><path d="M205.8 170.9h-.4c3.2-8.1 6.1-16 6-17.5-.3-3-6.3 3.5-6.6 1.9s0-7.8-2.7-7.8-4.4 3.2-6 3.2-8.2-1.1-8.2-1.1l-8.4 21.3h-63.2v198.5h156.8V170.9h-67.3z" fill="url(#SVGID_2_)"/><path class="st9" d="M118 172h153.3v196.1H118V172z"/><linearGradient id="SVGID_3_" gradientUnits="userSpaceOnUse" x1="847.535" y1="117.11" x2="847.535" y2="390.9" gradientTransform="matrix(1 0 0 -1 -76.87 826.39)"><stop offset="0" stop-color="gray" stop-opacity=".25"/><stop offset=".54" stop-color="gray" stop-opacity=".12"/><stop offset="1" stop-color="gray" stop-opacity=".1"/></linearGradient><path d="M784.3 464.4h-.4c3.9-10 7.5-19.8 7.3-21.6-.3-3.7-7.7 4.3-8 2.3s0-9.6-3.3-9.6-5.4 4-7.4 4-10.1-1.3-10.1-1.3L752 464.4h-77.5v244.9h192.2V464.4h-82.4z" fill="url(#SVGID_3_)"/><path class="st9" d="M676.1 466.1H865v241.6H676.1V466.1z"/><linearGradient id="SVGID_4_" gradientUnits="userSpaceOnUse" x1="211.575" y1="146.26" x2="211.575" y2="408.81" gradientTransform="matrix(1 0 0 -1 0 852)"><stop offset="0" stop-color="gray" stop-opacity=".25"/><stop offset=".54" stop-color="gray" stop-opacity=".12"/><stop offset="1" stop-color="gray" stop-opacity=".1"/></linearGradient><path d="M238 472.8v-29.6h-41.5v29.6h-86.7v233h203.6v-233H238z" fill="url(#SVGID_4_)"/><path class="st9" d="M111.9 473.9h199.3v230.3H111.9V473.9z"/><linearGradient id="SVGID_5_" gradientUnits="userSpaceOnUse" x1="570.685" y1="120.64" x2="570.685" y2="381.334" gradientTransform="matrix(1 0 0 -1 -76.87 826.39)"><stop offset="0" stop-color="gray" stop-opacity=".25"/><stop offset=".54" stop-color="gray" stop-opacity=".12"/><stop offset="1" stop-color="gray" stop-opacity=".1"/></linearGradient><path d="M523.9 472.4h-.3c3.2-12.7 5.7-22.8 5.7-22.8l-13.8 6.5s-9.8-13-13.4-10.8c-3.6 2.2-11.6 7.6-11.6 7.6l-10.6-5.4-4 24.9h-83.5v179.9l5.4 3.2c4.4-1.6 11.7-4.3 11.7-4.3l-3.4 9.3 2.3 1.3 3.8-3.5 1.4 6.6 4.5 2.7 7.1-4.5-2 7.7 6.7 4 19.5-7.3-5.9 15.5 3.9 2.3 8.8-1.5s-.4 3.1-.7 6.4l8.9 5.3c3.6-1.4 7-2.8 7-2.8s-.3 3.4-.5 6.7l5.9 3.6c4.7-2.7 10.7-6.5 10.7-6.5l-5 9.3h112.9V472.4h-71.5z" fill="url(#SVGID_5_)"/><path class="st9" d="M593.2 473.9v230.3H482.5l4.9-9.2s-5.9 3.7-10.5 6.4l-5.8-3.5c.2-3.3.5-6.6.5-6.6s-3.4 1.4-6.9 2.8l-8.7-5.2c.3-3.3.6-6.3.6-6.3L448 684l-3.8-2.3 5.8-15.3-19.1 7.2-6.6-4 1.9-7.6-7 4.5-4.4-2.7-1.4-6.5-3.7 3.4-2.2-1.3 3.3-9.2s-7.1 2.7-11.5 4.2l-5.3-3.2V473.9h199.2z"/><linearGradient id="SVGID_6_" gradientUnits="userSpaceOnUse" x1="610.78" y1="534" x2="610.78" y2="691.71" gradientTransform="matrix(1 0 0 -1 -76.87 826.39)"><stop offset="0" stop-color="gray" stop-opacity=".25"/><stop offset=".54" stop-color="gray" stop-opacity=".12"/><stop offset="1" stop-color="gray" stop-opacity=".1"/></linearGradient><path d="M573 141.4v-6.8H466.9c-4.9 0-1.9 6.8-1.9 6.8h-57.7v150.9h253.1v-151l-87.4.1z" fill="url(#SVGID_6_)"/><path class="st9" d="M409 142.2h250v149.2H409V142.2z"/><path class="st0" d="M714.9 246h111.2v3.1H714.9V246zm0 16.5h111.2v3.1H714.9v-3.1zm0 16.4h111.2v3.1H714.9v-3.1zm0 16.4h111.2v3.1H714.9v-3.1zm0 16.5h111.2v3.1H714.9v-3.1zm0 16.4h111.2v3.1H714.9v-3.1zM139 224h111.2v3.1H139V224zm0 11.8h111.2v3.1H139v-3.1zm0 11.8h111.2v3.1H139v-3.1zm0 11.7h111.2v3.1H139v-3.1zm0 11.8h111.2v3.1H139v-3.1zm0 11.8h111.2v3.1H139v-3.1zm575.9 250.7h111.2v7.9H714.9v-7.9zm0 51.5h111.2v7.9H714.9v-7.9zm0 51.5h111.2v7.9H714.9v-7.9zM156 529.6h111.2v7.9H156v-7.9zm0 15.8h111.2v7.9H156v-7.9zm0 15.8h111.2v7.9H156v-7.9zm0 15.8h111.2v7.9H156V577zm81.4 17.5h29.8v24.1h-29.8v-24.1zM156 624.3h29.8v24.1H156v-24.1zm281.9-78.9h111.2v7.9H437.9v-7.9zm0 23.7h111.2v7.9H437.9v-7.9zm0 23.7h111.2v7.9H437.9v-7.9zm0 23.7h22.3v7.9h-22.3v-7.9zm1.8-427.5h188.6v3.1H439.7V189zm0 11.7h112.6v3.1H439.7v-3.1zm0 11.8h188.6v3.1H439.7v-3.1zm0 11.8h188.6v3.1H439.7v-3.1zm0 11.7h188.6v3.1H439.7V236z"/><path class="st7" d="M786 163.4l-63.1 21s-.7 8.2 3.2 10.3c2.3 1.3 3.4 3.9 2.9 6.4h10.3L739 214s66.3-19.3 65.2-31.7l-7.5-7.5 2.8-6.4H790l1.8-5H786zM188 151l-14.7 37.7s7.2-1.1 7.4 0c.1 1 .1 2 0 2.9 0 0 6.3-.5 7.4 0s3.5-.5 5.3 0 2.9 2.7 4.6-1.3 13.4-32.6 13.1-35.6-6.1 3.5-6.4 1.9 0-7.7-2.7-7.7-4.3 3.2-5.9 3.2-8.1-1.1-8.1-1.1zm574.3 289.2l-18.1 46.5s8.9-1.3 9.1 0c.1 1.2.1 2.4 0 3.6 0 0 7.7-.6 9.1 0s4.3-.6 6.6 0 3.6 3.3 5.6-1.6 16.5-40.2 16.1-43.8-7.6 4.3-7.9 2.3 0-9.5-3.3-9.5-5.3 3.9-7.3 3.9-9.9-1.4-9.9-1.4zm-565.5 4.5h40.6v59.5h-40.6v-59.5zm283 4.7L468.4 520s7.8-3.9 13.5 1.8 17.5-5.4 17.5-5.4 5 6.1 8.2 7 20.7-71.9 20.7-71.9l-13.5 6.4s-9.6-12.8-13.2-10.7-11.4 7.5-11.4 7.5l-10.4-5.3zm-12-313.9h104.8v9.1s13.6 12 0 20.9h-99.2s-1.1-11.5 2.4-13.6-9.9-9.6-9.9-9.6-2.9-6.8 1.9-6.8z"/><linearGradient id="SVGID_7_" gradientUnits="userSpaceOnUse" x1="625.536" y1="-18.169" x2="625.536" y2="649.785" gradientTransform="matrix(1 0 0 -1 -76.87 826.39)"><stop offset="0" stop-color="gray" stop-opacity=".25"/><stop offset=".54" stop-color="gray" stop-opacity=".12"/><stop offset="1" stop-color="gray" stop-opacity=".1"/></linearGradient><path d="M705.8 830.7c-1.8-7.6-2.9-14.3-2.9-14.3s.4-8.3-3.3-14.5v-17.4c1.1-2.8 2.3-5.4 3.9-8 2.8-4.8 0-22.5 0-22.5s-10.2-24.9-7.7-40.6-21-70-21-70c.1-5.2.9-10.4 2.2-15.5.2-1.1.3-2.2.3-3.3v-.4.1c-.3-10.4-8.6-29.9-8.6-29.9l1.1-37.2s5.3-21.9-3.3-51.3c-3-10.3-4.9-18.5-6.1-24.8-.1-.7-.3-1.4-.4-2.1 17.6-2.7 31.1-4.9 31.1-4.9s-10.2-42.8-17.1-50.3c-6.9-7.5-12.4-31-12.4-31s-3.6-30.2 2.2-39c5.8-8.8 6.6-24.1 6.6-24.1s13.3-9.6 14.9-13.9c1.7-4.3 4.4-13.9 4.4-19s-1.7-9.6-1.1-12.3-3.9-12.8-1.7-17.7c.6-1.5.9-3.1.9-4.6v-.1c0-4.2-.4-8.4-1.2-12.5 0 0-6-5.3-13.1-7l-.3-1.1-.8-3c-.4-.3-.9-.5-1.3-.8v-1.1l-.1-4.3 2.1-9.8c4.1-17-18.6-19.5-18.6-19.5-1.4-2.6-3.6-4.6-6.4-5.7-4.6-1.6-.8 25.5 1.4 27.3 1.6 1.3 6.6 9.8 8.9 14l.4.7c-.4.3-.7.7-1 1.1l.9 5.9.1.9c-1.5 1.9-2.7 3.9-3.6 6.2 0 0 4.2 4.5 3.3 9.6-.8 5.1 1.3 11.4 1.4 11.8-.3-.3-3.2-3.4-6.1-2.7-2.9.8-11 3.2-11 3.2s-6.1 1.1-5.5 2.4c.6 1.3-4.2 7.2-4.2 7.2l-16.3-15.5c-.2-.5-.3-.9-.5-1.4-.7-2.2-1.2-4.5-1.4-6.8 1.8-.4 3.5-1 5.2-1.7 1.7-.6 3.3-1.6 4.5-2.9 1.6-2 2-4.6 2.6-7 1.3-4.8 4.1-9 6.1-13.5 3.4-7.6 4.5-16 3.3-24.3-.3-2.5-1.1-5-2.5-7.1-2.7-3.7-7.5-5.2-11-8.1s-5.8-7.4-9.9-9.6c-3.7-2-8.2-1.8-12.4-1.1-8.2 1.3-16 4.2-23.2 8.4-2.4 1.4-5 3-7.7 2.5-2.3-.4-4.1-2.3-5.6-4.1 0-.1 0-.2.1-.2l-.2-.2c-1.7 3.8-2.6 8-2.5 12.2 0 .6 0 1.3.1 2V207.8c0 .3 0 .6-.1.9-.3.8-.9 1.6-1.5 2.2-.5.6-.9 1.2-1.3 1.8.1-.2.1-.4.2-.7-1 1.5-1.6 3.3-1.7 5.1-.1 1.3.4 2.7 1.2 3.7.8.8 1.7 1.5 2.7 2.1-2.3 12.8 3.6 25.8 14.9 32.4.2.5.4.9.6 1.4 2.1 5.5 3.7 11.9 3 17.8-.1.4-.1.9-.2 1.3-.2.2-.4.5-.6.7s-27 .3-33.3-5.5-16 14-16 14-9.7 1.9-11.6 0-13.3-.3-13.3-.3-6.9-6.7-16.8-6.2c-3.8-2.9-7.9-5.2-12.4-6.9l-.3-.1c-1.9-.7-4-1-6.1-.8 0 0-13.3-11-17.1-16.8-3.9-5.8-22.3-27.7-22.4-27.8l-.1-1-.2-3.2c-.5.1-1.1.1-1.6.1l-.4-1.1c-1.1-3.1-2.4-6.1-3.9-9 0 0 0-4 1.2-5s-.5-15.7-.5-15.7-12-27.9-22.6-7.1c0 0-20.2 13.5-3.3 29.2 0 0 6.8 3.3 7.7 5.9.6 1.7 2.9 6.4 4.5 9.5.3.5.5 1 .7 1.4l-.2.2.3 2.6.1 1c-3.2 1.8-5.4 3.6-4.8 5 .9 2.3 1.6 4.7 1.9 7.2 0 0 23.5 29.4 26.5 42 0 0 63 37.4 83.7 40.1l-3.6 18.7s-1.1 11.2-.8 15.2c.3 4-2.5 22.2-2.5 22.2s-3.6 26.7-6.6 30.5-2.5 19.8-2.5 19.8c-.7 7.7-2.1 15.3-4.2 22.7-3 10.2-.8 22.7-.8 22.7s-10.5 24.1 14.6 7.8c0 0 12.3-.8 26.5-1.3v1.4c0 1.8-.1 3.8-.1 5.9-.2 13.8-.3 32.8.3 47.1 1.1 25.4 8.8 75.7 8.8 75.7v25.3c-.5 2.4-.7 4.8-.7 7.2-.2 8.9 2.2 17.7 6.8 25.3l1.7 16.7s4.5 11.1 4.6 17.7c0 .5-.1 1.1-.2 1.6-.2.8-.2 1.7-.2 2.6-.3 7.7 4.3 25.9 4.3 25.9s.3 18.5 3 19.5c2.4.9-3.2 10.6-4.8 13.4 0-.2-.1-.3-.1-.5l-.3.6c-.6 1.5-.9 3.1-.9 4.7-.3 2.6.9 5.1 3.1 6.5 5.3 3.2 8.1 5.9 3.6 7-1.6.3-3.3.6-4.9 1-.1-.2-.2-.4-.2-.6-1.3.5-2 1.9-1.8 3.2-.1 1.3.3 3.3 1.7 6.3 4.4 9.9 7.5 13.6 7.5 13.6l2.1-.2c-.3.8-.7 1.6-1.2 2.3-.8 1.2-1.9 2.1-3.1 2.8-1.2.7-2.4 1.1-3.8 1.3-3 .1-5.9 1.5-7.8 3.8-2.8 3.6-4.5 8.4 1 12.7l19.8 6.8s34 4.4 32.2-3.2-2.9-14.3-2.9-14.3.4-7.4-2.8-13.5c-.4-.7-.8-1.4-1.2-2l1.2-.1s2.5-16.8 5.8-20c.8-.7.9-1.3.8-1.7.3-.9-.5-1.5-1.6-1.8l-.2.7c-1.1-.2-2.2-.4-3.3-.4 0 0-1.1-8.8 2.5-12 .6-.7.8-1.7.7-2.6 0-1.2-.1-2.4-.4-3.6 0 .1-.1.1-.1.2-1.8-8-7.9-20.7-7.9-20.7s-.3-8 1.9-11.2-.3-43.6-.3-43.6.8-19.5-1.7-28.6 3-19.8 3-19.8 0-.2-.1-.6l.1-.1s-.1-1.2-.3-3.1c0 .1-.1.1-.1.2-.5-5.2-1.6-14.5-2.4-18.8-1.1-6.2.3-35.6.3-35.6l5-12.6L614 596l9.4 28.9s4.7 6.1 4.8 12.3c0 .3 0 .6-.1.9-.1.6-.1 1.3-.1 1.9-.2 3.6.8 7.3 2.9 10.3 0 0 2.5 13.6 6.4 17.1s3.9 10.2 3.9 10.2 4.7 19.8 6.9 23.3c1.9 2.9 2 11 1.9 13.5v.7s.7 7.1.6 13c0 .7 0 1.4-.1 2.1v-.2c0 1.6-.2 3.2-.6 4.8 0 .1-.1.2-.1.3 0-.3 0-.7.1-1-1 4-1.4 8.2-1.4 12.3-.1 7.1 1 15.5 5.3 20.5 7.5 8.6 12.2 7.5 12.2 7.5s-3.6 10.7-8 12.8c-.2.1-.3.2-.5.3 0-.2-.1-.4-.1-.6-.9.8-1.3 2.2-1.3 4-.3 4.7 2.6 12.3 5.5 15.8 1 1 2.3 1.8 3.7 2.2-.2.2-.5.3-.7.4-.5.3-1 .5-1.5.7-.7.3-1.5.5-2.3.6-3 .1-5.9 1.4-7.8 3.8-2.8 3.5-4.5 8.4 1 12.7l19.8 6.8c-.1 0 33.8 4.4 32-3.2z" fill="url(#SVGID_7_)"/><path class="st16" d="M576.1 843.3l-19.1-6.8c-5.3-4.3-3.6-9.1-.9-12.7 1.9-2.3 4.6-3.7 7.6-3.8 1.3-.2 2.5-.6 3.7-1.3 1.2-.7 2.2-1.6 3-2.8 1.4-2.2 2.2-4.8 2.2-7.4 0 0 21-6.2 26.7 0 1 1.1 1.9 2.4 2.5 3.7 3 6.1 2.7 13.5 2.7 13.5s1.1 6.7 2.8 14.3-31.2 3.3-31.2 3.3zm93.5-9.4l-19.1-6.8c-5.3-4.3-3.6-9.1-.9-12.7 1.8-2.3 4.6-3.7 7.6-3.8.8-.1 1.5-.3 2.2-.6.5-.2 1-.4 1.5-.7 5.3-2.9 5.2-10.2 5.2-10.2s21-6.2 26.7 0c.8.8 1.4 1.7 2 2.7 3.6 6.2 3.2 14.5 3.2 14.5s1.1 6.7 2.8 14.3-31.2 3.3-31.2 3.3z"/><path class="st4" d="M599.2 808.5c1 1.1 1.9 2.4 2.5 3.7l-31.5 3.7c1.4-2.2 2.2-4.8 2.2-7.4 0 0 21-6.1 26.8 0zm95.6-6.7v5.9c-4.9 8.1-28.6 6.3-35.4 2.3.5-.2 1-.4 1.5-.7 5.3-2.9 5.2-10.2 5.2-10.2s21-6.2 26.7 0c.7.8 1.4 1.8 2 2.7z"/><path class="st17" d="M698.5 776.5c-1.5 2.6-2.7 5.2-3.7 8v21.1c-5.3 8.8-33.2 5.9-36.9 1.1s-7.8-17.4-3.5-19.5 7.7-12.8 7.7-12.8-4.5 1.1-11.8-7.5-5.1-27.5-3.7-32.1 0-19.8 0-19.8.3-10.7-1.9-14.2-6.6-23.3-6.6-23.3 0-6.7-3.8-10.2-6.2-17.1-6.2-17.1c-2.2-3.4-3.1-7.5-2.7-11.5.8-6.7-4.5-13.9-4.5-13.9l-9.1-28.9-8.5-21.7-4.8 12.6s-1.3 29.4-.3 35.6 2.7 22.5 2.7 22.5-5.3 10.7-2.9 19.8 1.6 28.6 1.6 28.6 2.4 40.4.3 43.6-1.9 11.2-1.9 11.2 11 23.5 7.5 26.7-2.4 12-2.4 12 7.5 0 4.3 3.2-5.6 20-5.6 20l-32.3 3.8s-3-3.8-7.2-13.6.8-8.8 5.1-9.9 1.6-3.7-3.5-7-2.1-10.4-2.1-10.4 7.8-13.1 5.1-14.2-2.9-19.5-2.9-19.5-5.3-21.9-4-27.8-4.3-20-4.3-20l-1.9-16.8c-9.6-16.6-5.9-31.8-5.9-31.8v-25.9s-7.5-50.3-8.6-75.7c-.7-16.3-.5-38.5-.3-52.3.1-7.8.3-12.9.3-12.9l115.5-12s-.1 5.3 2.1 17.2c1.2 6.3 3 14.5 5.9 24.8 8.3 29.4 3.2 51.3 3.2 51.3l-1.1 37.2s10.2 24.9 8 33.4c-1.3 5.1-2 10.3-2.1 15.5 0 0 22.8 54.3 20.3 70.1s7.5 40.6 7.5 40.6 2.6 17.5-.1 22.4z"/><path class="st18" d="M632.5 637.2l35.2-4.7c-.1 0-20 20.3-35.2 4.7z"/><path class="st4" d="M662.5 598.1s1.2 12.4-6.4 17.1c0 0 13.7-2.1 6.4-17.1zm-2.1-39.6s-29.4 24.2-40.1 22.2 40.1-22.2 40.1-22.2zm-71.5 90s-22.3 5.1-23 14 23-14 23-14z"/><path class="st18" d="M593.8 760s-31.5 5.9-22.6 9.9 23.7 7.2 23.7 7.2 10.1.6-1.1-17.1z"/><path d="M564.8 776.3c-1.6-1-2.7-2.7-2.9-4.6l-.3.6s-2.9 7.2 2.1 10.4l1.7 1.1c.9-.2 1.9-.3 2.9-.5 4.3-1.2 1.6-3.8-3.5-7zm40.7-2.2c.9-.8.8-2.8.3-5.5-1.4 2.1-1.8 5.3-1.8 7.7.3-.8.8-1.5 1.5-2.2zm-4.9-133c-1.2 3.2-1.9 6.5-2.1 9.8.6-2.3 1.4-4.6 2.4-6.8 0 .1-.1-1.1-.3-3zm72.2-14c.2-1 .3-1.9.3-2.9-.4 2-.7 3.8-.9 5.5.2-.9.4-1.8.6-2.6zm-72.9 109.1c.4-.7.7-2.9.8-5.9-1 2-1.4 5.1-1.5 7.5.1-.6.4-1.2.7-1.6zm6.6 50.4c-2.2 6-3.7 16.4-3.7 16.4l-32.3 3.7s-3-3.7-7.2-13.6c-.4-.9-.7-1.7-.9-2.4-1.9.9-2.7 2.9-.2 8.8 4.3 9.9 7.2 13.6 7.2 13.6l32.3-3.8s2.4-16.8 5.6-20c1.6-1.5.6-2.3-.8-2.7zm-42.7-48s.3 18.5 2.9 19.5c1.3-3 2.3-6 1-6.4-2.7-1.1-2.9-19.5-2.9-19.5s-5.3-21.9-4-27.8-4.3-20-4.3-20l-1.9-16.8c-9.6-16.6-5.9-31.8-5.9-31.8v-25.9s-7.5-50.3-8.6-75.7c-.7-16.3-.5-38.5-.3-52.3 0-2.5.1-4.7.1-6.6l-.9.1s-.1 5.1-.3 12.9c-.2 13.9-.4 36 .3 52.3 1.1 25.4 8.6 75.7 8.6 75.7V642s-3.8 15.2 5.9 31.8l1.9 16.8s5.6 14.2 4.3 20 4.1 28 4.1 28zm95.2 60.9c-2.6-3.8-4.4-8.1-5.1-12.7-3.3 3 .5 14.5 4 19.1 3.7 4.8 31.5 7.8 36.9-1.1v-5.1c-7.2 7.2-32.3 4.4-35.8-.2zm40.6-30.2c-1.5 2.6-2.7 5.2-3.8 8v3.8c.6-1.4 1.5-3.2 2.7-5.3.8-1.4 1.1-3.8 1.2-6.6l-.1.1zm-39 4.2c1-2.1 1.9-4.2 2.6-6.3 0 0-4.5 1.1-11.8-7.5-5.3-6.2-5.5-18-4.8-25.7-1.3 4.5-3.5 23.5 3.7 32.1 4.8 5.6 8.4 7.1 10.3 7.4zm-13.9-59.3c.5 5.3.6 10.6.5 15.8.1-.8.3-1.7.5-2.5 1.3-4.5 0-19.8 0-19.8s.3-10.7-1.9-14.2-6.7-23.3-6.7-23.3 0-6.7-3.7-10.2-6.2-17.1-6.2-17.1c-2.2-3.4-3.1-7.5-2.7-11.5.8-6.7-4.5-13.9-4.5-13.9l-9.1-28.9-8.5-21.7-4.8 12.6s-.1 1.6-.2 4.1l3.9-10.2 8.5 21.7 9.1 28.9s5.3 7.2 4.5 13.9c-.5 4 .5 8.1 2.7 11.5 0 0 2.4 13.6 6.2 17.1s3.8 10.2 3.8 10.2 4.5 19.8 6.7 23.3 1.9 14.2 1.9 14.2z" opacity=".05"/><path class="st20" d="M669.1 222.4l-2 9.8.1 4.3.1 3.2-11.2 1.1-1.3-2.3c-2.3-4.2-7.1-12.7-8.7-14-2.1-1.7-5.7-28.9-1.3-27.3 2.7 1 4.9 3 6.2 5.6.1 0 22.1 2.6 18.1 19.6z"/><path class="st4" d="M667.3 239.6l-11.2 1.1-1.3-2.3c1.6-1.6 6.2-5.4 12.3-2l.2 3.2z"/><path class="st21" d="M670.1 244.9l-14.7 3.5-.3-2.2-.8-5.9s5.8-7.8 14.2-1.9l.7 3 .9 3.5z"/><path class="st20" d="M431.8 223.4l-15.7 8.4s-.6-1.2-1.4-3c-1.5-3.1-3.7-7.9-4.3-9.5-.9-2.6-7.5-5.9-7.5-5.9-16.4-15.7 3.1-29.2 3.1-29.2 10.4-20.9 21.9 7.1 21.9 7.1s1.6 14.7.5 15.7-1.1 5-1.1 5c1.5 2.9 2.8 5.9 3.8 9 .5 1.5.7 2.4.7 2.4z"/><path class="st4" d="M431.8 223.4l-15.7 8.4s-.6-1.2-1.4-3c2.2-1.9 10.1-8.2 12.6-7.9 1.2.2 2.5.2 3.7.1l.8 2.4z"/><path class="st21" d="M433.4 228.1l-17.6 8.7-.4-3.8-.3-2.7s10.2-8.8 13.2-8.4c1.5.2 3.1.2 4.6 0l.2 3.2.3 3z"/><path class="st20" d="M626.3 287.2s-76.9 8.7-62.6 4c10-3.3 14-9.6 14.8-16.7.7-5.9-.8-12.3-2.9-17.8-1.8-4.9-4.1-9.5-6.9-13.9 0 0 58.8-32.4 47-3-1.8 4.5-2.9 9.2-3.3 13.9-.4 4.8.2 9.5 1.5 14.1 2.3 7.5 6.6 14.2 12.4 19.4z"/><path class="st4" d="M615.9 239.9c-1.8 4.5-2.9 9.2-3.3 13.9-5.5 4.6-11.6 4.4-19.4 4.4-6 0-12.6 1.5-17.4-1.4-1.8-4.9-4.1-9.5-6.9-13.9-.1-.1 58.8-32.5 47-3z"/><circle class="st20" cx="592.1" cy="228.4" r="31.8"/><path class="st4" d="M626.3 287.2s-76.9 8.7-62.6 4c10-3.3 14-9.6 14.8-16.7 3.8-4.1 11.5-7.1 16.5-8.7 4.5-1.5 9.4-1.6 14-.2 1.8.5 3.5 1.3 5.1 2.4 2.2 7.3 6.5 14 12.2 19.2zm43.8-42.3l-14.7 3.5-.3-2.2c4.2-5.3 9.4-5.9 14.1-4.8l.9 3.5zm-236.7-16.8l-17.6 8.7-.4-3.8c6.3-3.7 16.9-7.6 17.8-7.9l.2 3zm223.4 253c-29.8 4.7-72.2 10.8-78.9 8.8-5.6-1.7-23.4-1.5-38.9-1 .1-7.8.3-12.9.3-12.9l115.5-12c-.1-.1-.3 5.2 2 17.1z"/><path class="st22" d="M686.5 474.1s-98.1 16.9-108.7 13.6-64.6.3-64.6.3c-24.3 16.3-14.2-7.8-14.2-7.8s-2.1-12.6.8-22.7c2-7.5 3.3-15.1 4-22.7 0 0-.5-16 2.4-19.8s6.4-30.5 6.4-30.5 2.7-18.2 2.4-22.2.8-15.2.8-15.2l3.5-18.7c-20-2.7-81-40.1-81-40.1-2.9-12.6-25.7-42-25.7-42-.3-2.5-1-4.9-1.9-7.2-1.6-4.3 22.5-12.8 22.5-12.8s17.9 21.9 21.6 27.8 16.6 16.9 16.6 16.9c2-.2 4 .1 5.9.8.1 0 .2.1.3.1 6 2.1 12 6.9 12 6.9 9.6-.5 16.3 6.1 16.3 6.1s11-1.6 12.8.3 11.2 0 11.2 0 9.4-19.8 15.5-14 32.2 5.5 32.2 5.5c3.5-4.6 11.9-7.9 17.2-9.6 4.5-1.5 9.4-1.6 14-.2 2 .6 3.8 1.5 5.5 2.7l15.8 15.5s4.5-5.9 4-7.2 5.3-2.4 5.3-2.4 7.8-2.4 10.7-3.2 5.6 2.4 5.9 2.7c-.1-.3-2.1-6.8-1.3-11.8s-3.2-9.6-3.2-9.6c9.4-23 30.5-3.7 30.5-3.7s2.4 12.6.3 17.4 2.1 15 1.6 17.6 1.1 7.2 1.1 12.3-2.7 14.7-4.3 19-14.5 13.9-14.5 13.9-.8 15.2-6.4 24.1-2.1 39-2.1 39 5.3 23.5 12 31 16.8 49.9 16.8 49.9z"/><path class="st4" d="M543.4 298.1s-2.9-8.8-5.6-9.6c-2.7-1-5.3-2.1-7.8-3.5l1.7-3.3s10 2.8 11.7 5.7 0 10.7 0 10.7zm-53.7-19.5c-.5 2.7-24.3 5.1-24.3 5.1l12-12.1.3.1c6.1 2.1 12 6.9 12 6.9z"/><circle class="st17" cx="420.9" cy="241.9" r="2.1"/><circle class="st17" cx="423.6" cy="246.2" r="2.1"/><circle class="st17" cx="426.3" cy="250.1" r="2.1"/><circle class="st17" cx="429.1" cy="254.4" r="2.1"/><circle class="st17" cx="681.1" cy="254.2" r="1.7"/><circle class="st17" cx="681.4" cy="258.1" r="1.7"/><circle class="st17" cx="681.6" cy="262.1" r="1.7"/><path class="st4" d="M543.6 370.6c-.2-.3 60 75.8 106.8 31.8 0 0-73.9 10-106.8-31.8zM509 410.2s36.1 1 39.8 11.4v10.8c-2.1 1.2-4.6 1.2-6.7 0-3.6-2-25.4-13-33.1-7.7v-14.5z"/><path class="st22" d="M509.6 410.2s34.5.9 38.1 10.8v10.3c-2 1.1-4.4 1.1-6.4 0-3.5-1.9-24.3-12.4-31.7-7.4v-13.7z"/><path class="st4" d="M528.6 331.9s4.1 10.6 14 24c6.1 8.2 13.5 15.3 21.9 21.1 0 0-35.3-40.2-35.9-45.1zm-11.8-42s6 26 21.5 34.8l-21.5-34.8zm-9.2 2.7c-.1-.5-5.3 20.5 20 32.2 0-.1-10.8-3.7-20-32.2zm157.5-17.5c-.4 0 12.5 8.2 16 12 0 .1-8.4-12.5-16-12z"/><path class="st16" d="M583.5 257.2c.5 1.6 1 3.4 2.5 4.3.9.4 2 .7 3 .7 9.7.6 19.8 1 28.8-2.7 1.7-.6 3.2-1.6 4.4-2.9 1.6-1.9 1.9-4.6 2.5-7 1.3-4.8 3.9-9 5.9-13.5 3.3-7.6 4.3-16 3.2-24.3-.2-2.5-1.1-5-2.4-7.1-2.6-3.7-7.3-5.2-10.7-8.1s-5.6-7.4-9.6-9.6c-3.6-2-8-1.8-12-1.1-7.9 1.4-15.5 4.2-22.4 8.4-2.3 1.4-4.8 3.1-7.5 2.6-2.3-.4-4-2.4-5.5-4.2-1.9 4.4-2.7 9.1-2.4 13.9.1.7.1 1.4-.1 2.1-.3.8-.8 1.6-1.5 2.2-2.4 2.8-3.9 7.2-1.5 10 1 1.2 2.6 1.9 3.6 3.1 1.8 2.2 1.2 5.4 1.2 8.3-.1 1 .1 2 .7 2.8.9 1.1 2.5 1.2 3.9.9s2.8-.7 4.2-.4c1.5.5 2.8 1.5 3.6 2.8 4.5 5.7 6.2 12 8.1 18.8z"/><path d="M623.2 254.1c-1.2 1.3-2.7 2.3-4.4 2.9-9 3.7-19.1 3.3-28.8 2.7-1 0-2.1-.2-3-.7-1.5-.9-2-2.7-2.5-4.3-1.9-6.9-3.6-13.1-8.1-18.8-.9-1.3-2.1-2.3-3.6-2.8-1.4-.3-2.8.2-4.2.4s-3 .1-3.9-.9c-.6-.8-.8-1.8-.7-2.8 0-2.9.6-6.1-1.2-8.3-1-1.3-2.6-1.9-3.6-3.1-1.5-1.8-1.4-4.2-.6-6.4-1.7 2.7-2.4 6.2-.5 8.5 1 1.2 2.6 1.9 3.6 3.1 1.8 2.2 1.2 5.4 1.2 8.3-.1 1 .1 2 .7 2.8.9 1.1 2.5 1.2 3.9.9s2.8-.7 4.2-.4c1.5.5 2.8 1.5 3.6 2.8 4.5 5.7 6.2 12 8.1 18.8.5 1.6 1 3.4 2.5 4.3.9.5 2 .7 3 .7 9.7.6 19.8 1 28.8-2.7 1.7-.6 3.2-1.6 4.4-2.9.6-.8 1.1-1.6 1.4-2.6-.1.2-.2.4-.3.5zm-61.9-46.3c.4-.5.8-1 1-1.6.1-.7.2-1.4.1-2.1-.3-3.9.2-7.8 1.5-11.5l-.2-.2c-1.9 4.4-2.7 9.1-2.4 13.9v1.5z" opacity=".1"/><path class="st4" d="M577.8 276.5s39.8 5.3 43.3-.7m34-15.8s22.1 0 26.9 8.3"/></svg>