<svg xmlns="http://www.w3.org/2000/svg" viewBox="0 0 1022.7 785.8"><ellipse opacity=".1" cx="468.6" cy="660.9" rx="425" ry="33"/><g opacity=".1"><path fill="#3F3D56" d="M845 472.8c-2.5-7.7-12.8-11.3-23-7.9-1.5.5-2.9 1.1-4.2 1.8-.7-.2-1.3-.3-2-.5.6-2.2.8-4.5.6-6.8 7.1-4.8 11.3-12.9 10.9-21.5 7.1-4.8 11.2-12.9 10.9-21.5 3.5-2.3 6.4-5.5 8.2-9.3 4.9-9.7 2.9-20.6-4.5-24.4s-17.4 1.1-22.3 10.8c-1.9 3.7-2.9 7.9-2.6 12.1-7.1 4.8-11.2 12.9-10.9 21.5-7.1 4.8-11.2 12.9-10.9 21.5-7.1 4.8-11.3 12.9-10.9 21.5-3.5 2.3-6.4 5.5-8.2 9.3-.9 1.8-1.6 3.8-2.1 5.7-1.2-1.8-2.7-3.4-4.4-4.7-.2-1.5-.5-3-1-4.5-3.3-10.2-12.3-16.4-20-13.8s-11.3 12.8-7.9 23c1.4 4.4 4 8.2 7.6 11.1.2 1.5.5 3 1 4.5 1.9 5.9 5.8 10.5 10.2 12.8-.4 1.3-.7 2.6-.8 3.9-4.1 4-6.8 9.2-7.5 14.9-4.1 4-6.8 9.2-7.5 14.9-2 2-3.7 4.3-5 6.8-4.9 9.7-2.9 20.6 4.5 24.3s17.4-1.1 22.3-10.8c1.3-2.5 2.1-5.3 2.5-8.1 4.1-4 6.8-9.2 7.5-14.9 4.1-4 6.8-9.2 7.5-14.9 4.1-4 6.7-9.2 7.5-14.9 4.1-4 6.8-9.2 7.6-14.9 1.3-1.2 2.4-2.5 3.4-4 4.1.8 8.3.6 12.3-.8 1.5-.5 2.9-1.1 4.2-1.8 4.4 1.2 9.1 1 13.4-.5 10-3.2 16.2-12.1 13.6-19.9z"/><path opacity=".1" d="M827.1 442.4c-1 1-2.2 2-3.4 2.8.2 2.9-.2 5.7-1.1 8.4.8-1.1 1.5-2.2 2.1-3.4 1.2-2.4 2-5.1 2.4-7.8zM838 421c-1 1-2.2 2-3.4 2.8.2 2.9-.2 5.7-1.1 8.4.8-1.1 1.5-2.2 2.1-3.4 1.2-2.5 2-5.1 2.4-7.8zm-24.7-8c-.1-1.5 0-2.9.2-4.4-1.9 1.9-3.6 4.1-4.8 6.6-.6 1.2-1.1 2.4-1.5 3.7 1.7-2.4 3.8-4.4 6.1-5.9zm-68.9 129.9c.9-1.2 1.9-2.3 3-3.4.2-1.4.5-2.7.9-4-.9 1.2-1.6 2.4-2.3 3.7-.7 1.2-1.2 2.4-1.6 3.7zM752 528c.9-1.2 1.9-2.3 3-3.4.2-1.3.4-2.6.8-3.9-.8 1.1-1.6 2.3-2.2 3.6-.7 1.2-1.2 2.4-1.6 3.7zm64.2-64.1c-1 1-2.2 2-3.4 2.7.1 2.3-.1 4.6-.6 6.8.7.1 1.3.3 2 .5 1.4-.7 2.8-1.4 4.2-1.8 10.2-3.3 20.5.2 23 7.9.6 1.9.7 4 .3 6 3.3-3.9 4.7-8.7 3.3-13.1-2.5-7.7-12.8-11.3-23-7.9-1.5.5-2.9 1.1-4.2 1.8-.7-.2-1.3-.3-2-.5.2-.8.3-1.6.4-2.4zm-75.5 86.5c-.9 1.2-1.6 2.4-2.3 3.7-.6 1.2-1.1 2.5-1.5 3.7.9-1.2 1.9-2.4 3-3.4.1-1.3.4-2.7.8-4zm61.7-115.9c-.1-1.5 0-2.9.2-4.4-1.9 1.9-3.6 4.1-4.8 6.6-.6 1.2-1.1 2.4-1.5 3.7 1.7-2.4 3.7-4.4 6.1-5.9zM786.8 522c-.2 1.5-.5 3-1 4.4.8-1.1 1.5-2.2 2.1-3.4.7-1.3 1.2-2.6 1.6-4-.8 1-1.8 2.1-2.7 3zm-15.1 29.8c-.2 1.5-.5 3-1 4.4.8-1.1 1.5-2.2 2.1-3.4.7-1.3 1.2-2.6 1.6-4-.8 1.1-1.7 2.1-2.7 3zm7.5-14.9c-.2 1.5-.5 3-1 4.4.8-1.1 1.5-2.2 2.1-3.4.7-1.3 1.2-2.6 1.6-4-.8 1.1-1.7 2.1-2.7 3zm15.1-29.8c-.2 1.5-.5 2.9-1 4.4.8-1.1 1.5-2.2 2.1-3.4.7-1.3 1.2-2.7 1.6-4.1-.8 1.1-1.7 2.1-2.7 3.1zm-49.4-37.7c7.7-2.5 16.7 3.7 20 13.8.5 1.5.8 3 1 4.5 1.7 1.3 3.2 2.9 4.4 4.7a31 31 0 0 1 2.1-5.8c.3-.7.7-1.3 1.1-2-1.1-1.6-2.5-3-4-4.2-.2-1.5-.5-3-1-4.5-3.3-10.2-12.3-16.4-20-13.8-4.4 1.4-7.4 5.4-8.6 10.4 1.4-1.4 3.1-2.5 5-3.1zm35.8 8c-.1-1.5 0-2.9.2-4.4-1.9 1.9-3.6 4.1-4.8 6.6-.6 1.2-1.1 2.4-1.5 3.7 1.6-2.3 3.7-4.3 6.1-5.9zm10.9-21.5c-.1-1.5 0-2.9.2-4.4-2 1.9-3.6 4.1-4.8 6.6-.6 1.2-1.1 2.4-1.5 3.7 1.6-2.3 3.7-4.3 6.1-5.9zm-27.5 110.8c-.2 1.5-.5 3-1 4.4 1.6-2.3 2.9-4.8 3.7-7.5-.8 1.2-1.7 2.2-2.7 3.1z"/><path fill="#3F3D56" d="M859.9 373.6c3.5-2.3 6.4-5.5 8.2-9.3 4.9-9.7 2.9-20.6-4.5-24.4s-17.4 1.1-22.3 10.8c-1.9 3.8-2.8 8-2.6 12.2-7.1 4.8-11.2 12.9-10.9 21.5-3.5 2.3-6.4 5.5-8.2 9.3-.6 1.2-1.1 2.4-1.5 3.7 2.6-3.8 6.4-6.6 10.8-8 2.1 6.4 9 10 15.4 7.9h.1c1.5 4.3 1.5 9.1 0 13.4.8-1.1 1.5-2.2 2.1-3.4 1.9-3.7 2.8-7.9 2.6-12.1 7.1-4.9 11.2-13 10.8-21.6z"/><path d="M979.2 236c3-1.4 5.9-3 8.7-4.8l-32.3-23.6 38 19.6c15.5-12.3 25.3-30.5 27-50.3l-64.6.7 64.7-10.8C1018 127 983.7 97 944 99.7c-39.7 2.7-69.6 37.1-66.9 76.7.2 2.8.6 5.7 1.1 8.5-4.7 2.2-9.1 4.9-13.3 8l33.8 46.9-40.5-41.1c-17.4 17.1-25 41.7-20.2 65.6-36 16.8-51.6 59.7-34.8 95.7 16.8 36 59.7 51.6 95.7 34.8 30.1-14 46.7-46.8 40.1-79.4 30.2-14 46.8-46.8 40.2-79.4z"/><path opacity=".1" d="M844.3 217.7c-7.3 14.4-9.6 30.9-6.3 46.7-36 16.8-51.6 59.7-34.8 95.7 16.8 36 59.7 51.6 95.7 34.8 30.1-14 46.7-46.8 40.1-79.4 14.2-6.6-91-105.1-94.7-97.8z"/><circle opacity=".1" cx="935.1" cy="353.2" r="10.7"/><path d="M925.5 92c5.9 0 10.7 4.8 10.7 10.7s-4.8 10.7-10.7 10.7-10.7-4.8-10.7-10.7S919.6 92 925.5 92zm62.4 6.9c5.9 0 10.7 4.8 10.7 10.7s-4.8 10.7-10.7 10.7-10.7-4.8-10.7-10.7 4.8-10.7 10.7-10.7zm24.1 96c5.9 0 10.7 4.8 10.7 10.7s-4.8 10.7-10.7 10.7-10.7-4.8-10.7-10.7 4.8-10.7 10.7-10.7zm-32.5 48c5.9 0 10.7 4.8 10.7 10.7s-4.8 10.7-10.7 10.7-10.7-4.8-10.7-10.7 4.8-10.7 10.7-10.7zm-44.4 99.6c5.9 0 10.7 4.8 10.7 10.7s-4.8 10.7-10.7 10.7-10.7-4.8-10.7-10.7 4.8-10.7 10.7-10.7zm-98.7-112.8c5.9 0 10.7 4.8 10.7 10.7s-4.8 10.7-10.7 10.7-10.7-4.8-10.7-10.7 4.8-10.7 10.7-10.7z"/><circle opacity=".1" cx="836.4" cy="240.4" r="10.7"/><path opacity=".1" d="M825 416.2c-7.1-3.6-9.3-13.8-5.1-23.1l-.6 1.2c-4.9 9.7-2.9 20.6 4.5 24.4s17.4-1.1 22.3-10.8l.6-1.2c-5.1 8.8-14.6 13.1-21.7 9.5zm-10.6 20.9c-7.1-3.6-9.3-13.8-5.1-23.1l-.6 1.2c-4.9 9.7-2.9 20.6 4.5 24.4s17.4-1.1 22.3-10.8l.6-1.2c-5.1 8.8-14.6 13.1-21.7 9.5zM803.9 458c-7.1-3.6-9.3-13.8-5.1-23.1l-.6 1.2c-4.9 9.7-2.9 20.6 4.5 24.4s17.4-1.1 22.3-10.8l.6-1.2c-5.2 8.8-14.6 13.1-21.7 9.5zm-10.6 20.9c-7.1-3.6-9.3-13.8-5.1-23.1l-.6 1.2c-4.9 9.7-2.9 20.6 4.5 24.4s17.4-1.1 22.3-10.8l.6-1.2c-5.1 8.8-14.6 13.1-21.7 9.5zm-10.5 20.8c-7.1-3.6-9.3-13.8-5.1-23.1l-.6 1.2c-4.9 9.7-2.9 20.6 4.5 24.4s17.4-1.1 22.3-10.8l.6-1.2c-5.2 8.8-14.6 13.1-21.7 9.5zm-10.6 20.9c-7.1-3.6-9.3-13.8-5.1-23.1l-.6 1.2c-4.9 9.7-2.9 20.6 4.5 24.4s17.3-1.1 22.3-10.8l.6-1.2c-5.1 8.8-14.6 13.1-21.7 9.5zm-10.6 20.9c-7.1-3.6-9.3-13.8-5.1-23.1l-.6 1.2c-4.9 9.7-2.9 20.6 4.5 24.3s17.4-1.1 22.3-10.8l.6-1.2c-5.1 8.9-14.6 13.2-21.7 9.6zm-10.5 20.9c-7.1-3.6-9.3-13.8-5.1-23.1l-.6 1.2c-4.9 9.7-2.9 20.6 4.5 24.4s17.4-1.1 22.3-10.8l.6-1.2c-5.1 8.8-14.6 13-21.7 9.5z"/><path opacity=".1" d="M744.2 576.1c-7.1-3.6-9.3-13.8-5.1-23.2l-.6 1.2c-4.9 9.7-2.9 20.6 4.5 24.3s17.4-1.1 22.3-10.8l.6-1.2c-5.2 9-14.6 13.3-21.7 9.7z"/><path d="M934.9 483.2c1.1-3.2 1.8-6.5 2-9.8 2.9 0 5.3-2.4 5.3-5.4 0-2.9-2.4-5.3-5.4-5.3-.3 0-.5 0-.8.1-2.4-11-9.6-20.3-19.6-25.3 1.3-2.6.3-5.8-2.4-7.2s-5.8-.3-7.2 2.4c-.2.4-.4.9-.5 1.4-11.9-2.2-24.1 1.5-32.9 9.9-3.2-.5-6.5-.6-9.8-.3l-4.3 19.7-.3-19c-20.2 4.4-33 24.4-28.5 44.6 4.4 20.2 24.4 33 44.6 28.5 1.3-.3 2.7-.7 4-1.1.5.9 1.3 1.7 2.3 2.2 2.6 1.3 5.8.3 7.2-2.3.7-1.4.8-3.1.1-4.5 1.7-1.2 3.3-2.5 4.8-3.9 16 2.6 31.9-5.4 39.3-19.8l-20.2-3.4 22.3-1.5z"/><path opacity=".1" d="M903.8 492.7c-7.4-9.8-12-21.5-17.3-32.6-2.1-4.6-4.5-9-7.1-13.4l-3.9-4.6c-.7.6-1.3 1.1-2 1.8-3.2-.5-6.5-.6-9.8-.3l-4.3 19.7-.3-19c-20.2 4.4-33 24.4-28.5 44.6 4.4 20.2 24.4 33 44.6 28.5 1.3-.3 2.7-.7 4-1.1.5.9 1.3 1.7 2.3 2.2 2.6 1.3 5.8.3 7.2-2.3.7-1.4.8-3.1.1-4.5 1.7-1.2 3.3-2.5 4.8-3.9 7.6 1.2 15.5.1 22.4-3.3-4.7-3.3-8.8-7.3-12.2-11.8z"/></g><g opacity=".1"><path fill="#3F3D56" d="M89.5 511.2c1.3-3.9 6.5-5.7 11.6-4 .7.2 1.4.5 2.1.9.3-.1.7-.2 1-.2-.3-1.1-.4-2.3-.3-3.4-3.6-2.4-5.6-6.5-5.5-10.8-1.8-1.2-3.2-2.8-4.1-4.7-1-1.9-1.4-4-1.3-6.1-1.8-1.2-3.2-2.8-4.1-4.7-2.5-4.9-1.5-10.4 2.3-12.3s8.8.5 11.2 5.4c1 1.9 1.4 4 1.3 6.1 3.6 2.4 5.7 6.5 5.5 10.8 3.6 2.4 5.7 6.5 5.5 10.8 3.6 2.4 5.7 6.5 5.5 10.8 1.8 1.2 3.2 2.8 4.2 4.7.4.9.8 1.9 1 2.9.6-.9 1.4-1.7 2.2-2.4.1-.8.3-1.5.5-2.3 1.7-5.1 6.2-8.2 10.1-7s5.7 6.5 4 11.6c-.7 2.2-2 4.1-3.8 5.6-.1.8-.3 1.5-.5 2.3-.8 2.7-2.6 5-5.1 6.4.2.7.3 1.3.4 2 1 1 1.9 2.2 2.5 3.4.7 1.3 1.1 2.7 1.3 4.1 1 1 1.9 2.2 2.5 3.4.7 1.3 1.1 2.7 1.3 4.1 1 1 1.9 2.2 2.5 3.4 2.5 4.9 1.4 10.4-2.3 12.3s-8.8-.5-11.2-5.4c-.7-1.3-1.1-2.7-1.3-4.1-2.1-2-3.4-4.6-3.8-7.5-2.1-2-3.4-4.6-3.8-7.5-1-1-1.9-2.2-2.5-3.4-.6-1.3-1.1-2.7-1.3-4.1-1-1-1.9-2.2-2.5-3.4-.7-1.3-1.1-2.7-1.3-4.1-.6-.6-1.2-1.3-1.7-2-2.1.4-4.2.3-6.2-.4-.7-.2-1.5-.6-2.1-.9-2.2.6-4.6.5-6.8-.2-5.2-1.7-8.3-6.2-7-10.1z"/><path opacity=".1" d="M98.5 495.9c.5.5 1.1 1 1.7 1.4-.1 1.4.1 2.9.6 4.2-.4-.5-.8-1.1-1.1-1.7-.6-1.2-1-2.5-1.2-3.9zM93 485.1c.5.5 1.1 1 1.7 1.4-.1 1.4.1 2.9.6 4.3-1.2-1.7-2-3.7-2.3-5.7zm12.5-4c0-.7 0-1.5-.1-2.2 1 1 1.8 2.1 2.4 3.3.3.6.6 1.2.8 1.9-.9-1.2-1.9-2.2-3.1-3zm34.7 65.4c-.4-.6-.9-1.2-1.5-1.7-.1-.7-.2-1.3-.4-2 .4.6.8 1.2 1.1 1.9.3.6.6 1.2.8 1.8zm-3.9-7.5c-.4-.6-.9-1.2-1.5-1.7-.1-.7-.2-1.3-.4-2 .9 1.1 1.5 2.4 1.9 3.7zM104 506.8c.5.5 1.1 1 1.7 1.4-.1 1.1 0 2.3.3 3.4-.3.1-.7.1-1 .2-.7-.4-1.4-.7-2.1-.9-5.1-1.7-10.3.1-11.6 4-.3 1-.4 2-.2 3-1.7-1.8-2.3-4.3-1.7-6.6 1.3-3.9 6.5-5.7 11.6-4 .7.2 1.4.5 2.1.9.3-.1.7-.2 1-.2 0-.5 0-.9-.1-1.2zm38.1 43.5c.4.6.8 1.2 1.1 1.9.3.6.6 1.2.8 1.9-.4-.6-.9-1.2-1.5-1.7-.1-.7-.2-1.4-.4-2.1zm-31.2-58.4c0-.7 0-1.5-.1-2.2 1 1 1.8 2.1 2.4 3.3.3.6.6 1.2.8 1.9-.8-1.2-1.8-2.2-3.1-3zm8 44.1c.1.7.3 1.5.5 2.2-.8-1.1-1.5-2.4-1.9-3.8.4.6.9 1.1 1.4 1.6zm7.5 15c.1.7.3 1.5.5 2.2-.4-.5-.8-1.1-1.1-1.7-.3-.6-.6-1.3-.8-2 .5.5 1 1.1 1.4 1.5zm-3.7-7.5c.1.7.3 1.5.5 2.2-.4-.5-.8-1.1-1.1-1.7-.3-.6-.6-1.3-.8-2 .4.5.9 1.1 1.4 1.5zm-7.6-15c.1.8.3 1.5.5 2.2-.4-.5-.7-1.1-1-1.7-.3-.6-.6-1.3-.8-2 .3.5.8 1 1.3 1.5zm24.8-19c-3.9-1.3-8.4 1.8-10.1 7-.2.7-.4 1.5-.5 2.3-.9.7-1.6 1.5-2.2 2.4-.2-1-.6-2-1.1-2.9-.2-.3-.4-.7-.6-1 .6-.8 1.2-1.5 2-2.1.1-.8.3-1.5.5-2.3 1.7-5.1 6.2-8.2 10.1-7 2.3.9 3.9 2.9 4.3 5.3-.5-.8-1.4-1.4-2.4-1.7zm-18 4c0-.7 0-1.5-.1-2.2 1 1 1.8 2.1 2.4 3.3.3.6.6 1.2.8 1.9-.9-1.2-1.9-2.2-3.1-3zm-5.5-10.8c0-.7 0-1.5-.1-2.2 1 1 1.8 2.1 2.4 3.3.3.6.6 1.2.8 1.9-.8-1.2-1.9-2.2-3.1-3zm13.8 55.8c.1.8.3 1.5.5 2.2-.4-.6-.8-1.1-1.1-1.7-.3-.6-.6-1.3-.8-2 .5.6 1 1.1 1.4 1.5z"/><path fill="#3F3D56" d="M82 461.3c-1.8-1.2-3.2-2.8-4.1-4.7-2.5-4.9-1.4-10.4 2.3-12.3s8.8.5 11.2 5.4c1 1.9 1.4 4 1.3 6.1 3.6 2.4 5.7 6.5 5.5 10.8 1.8 1.2 3.2 2.8 4.2 4.7.3.6.6 1.2.8 1.9-1.3-1.9-3.2-3.3-5.4-4-1 3.2-4.5 5.1-7.7 4H90c-.7 2.2-.7 4.6 0 6.8-.4-.5-.7-1.1-1-1.7-1-1.9-1.4-4-1.3-6.1-3.8-2.5-5.8-6.6-5.7-10.9z"/><path d="M21.9 391.9c-1.5-.7-3-1.5-4.4-2.4l16.3-11.9-19.1 9.9C6.8 381.2 1.9 372 1.1 362.1l32.5.3L1 357c1.1-20 18.3-35.3 38.3-34.2s35.3 18.3 34.2 38.3c-.1 1.7-.3 3.4-.7 5.1 2.4 1.1 4.6 2.4 6.7 4l-17 23.6 20.4-20.7c8.7 8.6 12.6 21 10.2 33 18.2 8.5 26 30.1 17.6 48.2s-30.1 26-48.2 17.6c-15.2-7.1-23.6-23.6-20.3-40.1-15.2-6.9-23.6-23.5-20.3-39.9z"/><path opacity=".1" d="M89.8 382.7c3.7 7.3 4.8 15.6 3.2 23.5 18.2 8.5 26 30.1 17.6 48.2s-30.1 26-48.2 17.6c-15.2-7.1-23.6-23.6-20.3-40.1-7.1-3.3 45.9-52.8 47.7-49.2z"/><circle opacity=".1" cx="44.1" cy="451" r="5.4"/><path d="M49 319.4c3 0 5.4 2.4 5.4 5.4s-2.4 5.4-5.4 5.4-5.4-2.4-5.4-5.4 2.4-5.4 5.4-5.4zm-31.5 3.4c3 0 5.4 2.4 5.4 5.4s-2.4 5.4-5.4 5.4-5.4-2.4-5.4-5.4 2.4-5.4 5.4-5.4zM5.4 371.2c3 0 5.4 2.4 5.4 5.4S8.4 382 5.4 382 0 379.6 0 376.6s2.4-5.4 5.4-5.4zm16.4 24.2c3 0 5.4 2.4 5.4 5.4s-2.4 5.4-5.4 5.4-5.4-2.4-5.4-5.4 2.4-5.4 5.4-5.4zm22.3 50.2c3 0 5.4 2.4 5.4 5.4s-2.4 5.4-5.4 5.4-5.4-2.4-5.4-5.4 2.4-5.4 5.4-5.4zm49.7-56.8c3 0 5.4 2.4 5.4 5.4s-2.4 5.4-5.4 5.4-5.4-2.4-5.4-5.4 2.5-5.4 5.4-5.4z"/><circle opacity=".1" cx="93.8" cy="394.1" r="5.4"/><path opacity=".1" d="M99.6 482.7c3.6-1.8 4.7-6.9 2.6-11.7l.3.6c2.5 4.9 1.4 10.4-2.3 12.3s-8.8-.5-11.2-5.4l-.3-.6c2.6 4.5 7.3 6.6 10.9 4.8zm5.3 10.5c3.6-1.8 4.7-6.9 2.6-11.7l.3.6c2.5 4.9 1.4 10.4-2.3 12.3s-8.8-.5-11.2-5.4l-.3-.6c2.6 4.5 7.3 6.6 10.9 4.8zm5.3 10.6c3.6-1.8 4.7-6.9 2.6-11.7l.3.6c2.5 4.9 1.4 10.4-2.3 12.3s-8.8-.5-11.2-5.4l-.3-.6c2.6 4.4 7.4 6.6 10.9 4.8zm5.3 10.5c3.6-1.8 4.7-6.9 2.6-11.7l.3.6c2.5 4.9 1.4 10.4-2.3 12.3s-8.8-.5-11.2-5.4l-.3-.6c2.6 4.4 7.4 6.6 10.9 4.8zm5.4 10.5c3.6-1.8 4.7-6.9 2.6-11.7l.3.6c2.5 4.9 1.4 10.4-2.3 12.3s-8.8-.5-11.2-5.4l-.3-.6c2.5 4.4 7.3 6.6 10.9 4.8zm5.3 10.5c3.6-1.8 4.7-6.9 2.6-11.7l.3.6c2.5 4.9 1.4 10.4-2.3 12.3s-8.8-.5-11.2-5.4l-.3-.6c2.5 4.4 7.3 6.6 10.9 4.8zm5.3 10.5c3.6-1.8 4.7-6.9 2.6-11.7l.3.6c2.5 4.9 1.4 10.4-2.3 12.3s-8.8-.5-11.2-5.4l-.3-.6c2.6 4.5 7.3 6.6 10.9 4.8zm5.3 10.5c3.6-1.8 4.7-6.9 2.6-11.7l.3.6c2.5 4.9 1.4 10.4-2.3 12.3s-8.8-.5-11.2-5.4l-.3-.6c2.6 4.5 7.3 6.6 10.9 4.8z"/><path opacity=".1" d="M140.4 563.2c3.6-1.8 4.7-6.9 2.6-11.7l.3.6c2.5 4.9 1.4 10.4-2.3 12.3s-8.8-.5-11.2-5.4l-.3-.6c2.5 4.5 7.2 6.7 10.9 4.8z"/><path d="M44.2 516.4c-.6-1.6-.9-3.2-1-4.9-1.5 0-2.7-1.2-2.7-2.7 0-1.5 1.2-2.7 2.7-2.7h.4c1.2-5.5 4.8-10.2 9.9-12.8-.7-1.3-.1-2.9 1.2-3.6 1.3-.7 2.9-.1 3.6 1.2.1.2.2.5.2.7 6-1.1 12.2.8 16.6 5 1.7-.3 3.3-.3 5-.1l2.2 9.9.1-9.6c10.1 2.3 16.5 12.5 14.1 22.6-2.4 10.3-12.5 16.6-22.6 14.2-.5-.1-1.1-.3-1.6-.4-.3.5-.7.8-1.1 1.1-1.3.7-3 .1-3.6-1.2-.4-.7-.4-1.5-.1-2.3-.9-.6-1.7-1.3-2.4-2-8.1 1.3-16.1-2.7-19.8-10l10.1-1.7-11.2-.7z"/><path opacity=".1" d="M59.9 521.3c3.8-5 6.1-10.8 8.7-16.4 1.1-2.3 2.2-4.6 3.6-6.7l2-2.3c.3.3.7.6 1 .9 1.7-.3 3.3-.3 5-.1l2.2 9.9v-9.5c10.1 2.3 16.5 12.5 14.1 22.6-2.4 10-12.5 16.3-22.6 13.9-.5-.1-1.1-.3-1.6-.4-.3.5-.7.8-1.1 1.1-1.3.7-3 .1-3.6-1.2-.4-.7-.4-1.5-.1-2.3-.9-.6-1.7-1.3-2.4-2-3.9.6-7.8 0-11.3-1.7a28 28 0 0 0 6.1-5.8z"/></g><path opacity=".1" d="M346.4 51.9c-4-.8-8-.3-11.7 1.3-4.5 2-9.6 2-14.1 0-5.3-2.3-11.4-2.2-16.6.3-1.5.8-3.1 1.2-4.8 1.2-6.7 0-12.3-6.8-13.5-15.7 1.3-1 2.5-2.2 3.4-3.6C293 29 299.1 25 305.9 25s12.9 4 16.8 10.3c2.4 3.9 6.6 6.2 11.2 6.1h.2c5.3 0 9.9 4.3 12.3 10.5z"/><path opacity=".1" d="M366.8 23.9l-10.9 6.9 6.6-12c-1.9-1.5-4.2-2.3-6.6-2.3h-.2c-.8 0-1.5 0-2.3-.2l-3.7 2.3 1.6-2.9c-2.6-.9-4.9-2.6-6.4-4.8l-6.6 4.1 4.2-7.6c-3.8-4.6-9-7.5-14.8-7.5-6.9 0-13 4.1-16.9 10.4-2.4 3.9-6.6 6.2-11.2 6h-.3c-7.6 0-13.7 8.6-13.7 19.2s6.1 19.1 13.7 19.1c1.7 0 3.3-.4 4.8-1.2 5.2-2.5 11.3-2.7 16.6-.3 4.5 2 9.6 2 14.1 0 5.3-2.3 11.3-2.2 16.4.3 1.5.8 3.1 1.2 4.7 1.2 7.6 0 13.7-8.6 13.7-19.2.1-3.9-.9-7.9-2.8-11.5zM120.3 190.4c-5.6-1.1-11.5-.4-16.8 1.8-6.4 2.8-13.7 2.8-20.1-.1-7.6-3.3-16.2-3.2-23.7.5-2.1 1.1-4.4 1.7-6.8 1.7-9.6 0-17.6-9.7-19.3-22.4 1.9-1.4 3.5-3.2 4.8-5.2 5.6-9.1 14.4-14.9 24.1-14.9s18.4 5.8 24 14.7c3.4 5.5 9.5 8.9 16 8.8h.3c7.7.1 14.3 6.2 17.5 15.1z"/><path opacity=".1" d="M149.6 150.4l-15.5 9.8 9.4-17.1c-2.7-2.1-6-3.3-9.4-3.4h-.3c-1.1 0-2.2-.1-3.2-.2l-5.2 3.4 2.3-4.1c-3.7-1.3-6.9-3.8-9.2-7l-9.4 6 5.9-10.9c-5.5-6.6-12.9-10.7-21.1-10.7-9.8 0-18.5 5.8-24.1 14.9-3.4 5.5-9.5 8.8-16 8.6h-.5c-10.8 0-19.6 12.3-19.6 27.4s8.8 27.4 19.6 27.4c2.4 0 4.7-.6 6.8-1.7 7.4-3.6 16.1-3.8 23.7-.5 6.4 2.9 13.7 2.9 20.1.1 7.5-3.3 16.1-3.1 23.5.4 2.1 1.1 4.4 1.7 6.7 1.7 10.8 0 19.6-12.3 19.6-27.4 0-5.8-1.4-11.6-4.1-16.7zm577.9-87.5l10.9 6.9-6.6-12c1.9-1.5 4.2-2.3 6.6-2.3h.2c.8 0 1.5 0 2.3-.2l3.7 2.3-1.6-2.9c2.6-.9 4.9-2.6 6.5-4.8l6.6 4.2-4.2-7.6c3.9-4.6 9-7.5 14.8-7.5 6.8 0 13 4.1 16.9 10.4 2.4 3.9 6.6 6.2 11.2 6h.4c7.6 0 13.7 8.6 13.7 19.2s-6.1 19.2-13.7 19.2c-1.7 0-3.3-.4-4.8-1.2-5.2-2.5-11.3-2.7-16.6-.3-4.5 2-9.6 2-14.1 0-5.3-2.3-11.3-2.2-16.4.3-1.5.8-3.1 1.2-4.7 1.2-7.6 0-13.7-8.6-13.7-19.2-.3-4.1.7-8.1 2.6-11.7z"/><path opacity=".1" d="M748 90.9c4-.7 8-.3 11.7 1.3 4.5 2 9.6 2 14.1 0 5.3-2.3 11.4-2.2 16.6.3 1.5.8 3.1 1.2 4.8 1.2 6.7 0 12.3-6.8 13.5-15.7-1.3-1-2.5-2.2-3.4-3.6-3.9-6.4-10-10.5-16.9-10.5s-12.9 4-16.8 10.3c-2.4 3.9-6.6 6.2-11.2 6.2h-.2c-5.3 0-10 4.3-12.2 10.5z"/><ellipse opacity=".1" cx="615.6" cy="756.9" rx="115" ry="20"/><path fill="#D0D2D5" d="M555.4 661.9l-178.2-2.3.5-4.6 8.6-75.4h156.5l11.5 75.4.9 5.7.2 1.2z"/><path opacity=".1" d="M555.3 660.7h-88.9l-89.1-1.2.5-4.6h176.6l.9 5.8z"/><path fill="#D0D2D5" d="M347.5 656.2H584v5.7H347.5v-5.7z"/><path fill="#3F3D56" d="M809.6 126.8c0-8.2-6.6-14.9-14.8-14.9H134.5c-8.2 0-14.8 6.7-14.8 14.9v400.3h689.9V126.8z"/><path fill="#D0D2D5" d="M119.7 523.1V570c0 8.2 6.6 14.8 14.8 14.8h660.3c8.2 0 14.8-6.6 14.8-14.8v-46.9H119.7z"/><path fill="#FFF" d="M148.2 137h636.2v359.8H148.2V137z"/><path opacity=".1" d="M483.5 584.8l71.1 71.4-10.9-71.4h-60.2z"/><path opacity=".1" fill="#444053" d="M147.7 137h636.9v21H147.7v-21z"/><path opacity=".3" d="M369.4 140.7h190.7c.3 0 .6.3.6.6v11.6c0 .3-.3.6-.6.6H369.4c-.3 0-.6-.3-.6-.6v-11.6c.1-.3.3-.6.6-.6z"/><path fill="#3F3D56" d="M555.1 148.4h-.5l-.2-.1c.6-.7.9-1.6.9-2.5 0-2.1-1.7-3.8-3.8-3.7-2.1 0-3.8 1.7-3.7 3.8 0 2.1 1.7 3.8 3.8 3.7.9 0 1.8-.3 2.5-.9l.2.1v.5l2.9 2.9.9-.9-3-2.9zm-3.5 0c-1.5 0-2.6-1.2-2.6-2.6 0-1.5 1.2-2.6 2.6-2.6 1.5 0 2.6 1.2 2.7 2.6-.1 1.4-1.3 2.6-2.7 2.6z"/><circle opacity=".8" fill="#FA5959" cx="159.2" cy="147.6" r="3.9"/><circle opacity=".8" fill="#FED253" cx="169.8" cy="147.6" r="3.9"/><circle opacity=".8" fill="#8CCF4D" cx="180.4" cy="147.6" r="3.9"/><path d="M468.1 567c4.7 0 9.2-2.2 12.1-5.9.4-.6.8-1.1 1.2-1.8l-8.5-1.4 9.1.1c1.8-3.9 1.9-8.3.3-12.2l-12.3 6.4 11.3-8.3c-4.3-7.4-13.7-9.9-21.1-5.6s-9.9 13.7-5.6 21.1l1.2 1.8c3.1 3.6 7.5 5.8 12.3 5.8zM500 291.4c-8.7-11.6-21.4-18.9-35.5-18.9s-26.7 7.3-35.5 18.9c1.9 4.7 4.8 9 8.4 12.6 15 14.9 39.2 14.9 54.1 0 3.8-3.6 6.6-7.9 8.5-12.6zm-75.5 6.8c-.6-.3-1.2-.6-1.8-1-.8-.7-1.5-1.5-1.9-2.5 1.7-3.6.3-7.9-3.3-9.6-3.6-1.7-7.9-.3-9.6 3.3-1.3 2.7-.8 5.9 1.2 8 .5.5 1.1 1 1.7 1.4.8.5 1.5 1.2 1.9 2 .8 1.7 1.9 3.1 3.3 4.4 1.4 1.2 2.9 2.3 4.5 3.2-2.2 6.3-3.5 12.9-3.7 19.6-2.6 0-5.2.5-7.6 1.2-1.3.4-2.5 1-3.5 1.8-.3 0-.6-.1-.9-.1-4 0-7.2 3.2-7.2 7.2s3.2 7.2 7.2 7.2c3 0 5.7-1.9 6.7-4.7.6-1.6 2-2.8 3.7-3 .6-.1 1.2-.1 1.9-.1.9 9.4 3.8 18.5 8.5 26.7-4.2 3.3-6.9 6.9-8 10.9-.2.1-.4.3-.6.4-.3.2-.6.5-.8.8-2.7 2.9-2.5 7.5.5 10.1 2.9 2.7 7.5 2.5 10.1-.5 1.8-2 2.4-4.8 1.4-7.3-.7-1.8-.2-3.8 1.2-5.1.5-.5 1-.9 1.7-1.5 8.1 9.5 17.8 15.5 29.8 16.3V323c-15.8-.9-29.7-11.3-36.4-24.8zm99.8 31.7c-.3 0-.6 0-.9.1-1.1-.8-2.3-1.3-3.5-1.8-2.5-.8-5-1.2-7.6-1.2-.3-6.7-1.5-13.3-3.7-19.5 1.6-.9 3.1-2 4.5-3.2 1.4-1.3 2.6-2.8 3.4-4.6.4-.7 1-1.4 1.8-1.8 3.5-1.9 4.7-6.3 2.7-9.8-1.9-3.5-6.3-4.7-9.8-2.7-3.3 1.9-4.6 5.9-3 9.3-.4 1-1.1 1.8-1.9 2.5-.6.5-1.1.9-1.8 1.3-6.7 13.5-20.6 23.6-36.5 24.5v64.3c12-.7 21.7-6.8 29.8-16.3.6.5 1.2 1 1.6 1.4 1.4 1.3 1.9 3.4 1.3 5.2-1.4 3.7.5 7.8 4.3 9.2 3.7 1.4 7.8-.5 9.2-4.3.9-2.5.4-5.3-1.4-7.3l-.8-.8c-.3-.3-.6-.4-.6-.4-1.1-4-3.7-7.6-8-10.9 4.8-8.2 7.7-17.3 8.5-26.7.6 0 1.2 0 1.8.1 1.7.2 3.2 1.4 3.8 3 1.4 3.7 5.6 5.5 9.3 4.1 2.6-1 4.4-3.5 4.5-6.2.2-4-2.9-7.4-6.9-7.7.1.2 0 .2-.1.2z"/><linearGradient id="a" gradientUnits="userSpaceOnUse" x1="677.185" y1="-27.314" x2="677.185" y2="301.048" gradientTransform="scale(1 -1) rotate(2.31 18971.045 -2266.09)"><stop offset="0" stop-color="gray" stop-opacity=".25"/><stop offset=".54" stop-color="gray" stop-opacity=".12"/><stop offset="1" stop-color="gray" stop-opacity=".1"/></linearGradient><path fill="url(#a)" d="M681 745.2c-.6-.9-1.3-1.7-2.2-2.4-4.4-4.1-6.4-10.2-7.5-16.1s-1.4-12-3.1-17.8c-.9-3-2.1-5.9-3.5-8.7-1-2.1-2.3-6.3-4.1-7.8-.4-.3-.8-.5-1.3-.6-.9-1.8-2.1-3.5-3.6-4.8-2.9-2.6-6.3-4.7-8.3-8-.5-1.2-1.2-2.3-1.9-3.3-1.3-1.4-3.3-2-4.5-3.5-1.5-1.9-1.2-4.7-1-7.2s0-5.4-2.1-6.7c-1.3-.8-2.9-.7-4.3-1.4-2-1-2.8-3.5-2.8-5.8s.7-4.4.9-6.7c.6-7.2-4.2-14.3-2.3-21.2.7-2.6 2.3-4.9 3.4-7.4.4-.8.7-1.7 1-2.5 3.1 1.2 6.4 2 9.7 2.3-5.5-12.4-4.1-26.7-6.7-40l.3-.5c2.6-3.4 4.1-7.6 4.2-11.9 0-4.9-2.3-9.6-3.3-14.4-.9-4.1-.8-8.4-2-12.5-.8-2.5-1.9-4.9-3.2-7.2-1.2-2.3-2.6-4.6-3.9-6.8-1.3-4.2-2.6-8.5-3.8-12.7-1.8-6-3.7-12-7.2-17.1-1.3-1.9-1.7-5.7-3.6-6.8-1.6-.8-3.4-1.1-5.2-.9-2.8-1.6-5.2-3.8-5.6-6.9 0-.7 0-1.3.2-2h.3c4.4-.4 6.6-4.3 8.9-7.7 3.7-5.5 2.3-12.9 0-19.2-.6-2-1.6-3.8-3-5.3-3.2-3-8.3-2.3-12.4-3.8-1.4-.5-2.7-1.2-4.1-1.5-2.8-.6-5.6.3-8.2 1.5s-4.9 2.9-7.5 3.9-5.9 1.8-6.5 4.5c-.2.9-.1 1.9.2 2.7.6 1.7 1.7 3.3 3.1 4.5-4.3 8.9-.6 19.5 8.3 23.8.8.4 1.7.8 2.6 1 .8 1.2 1.5 2.5 2.1 3.7 1.2 2.2 2.1 4.9 1.7 7.3-.7.8-1.4 1.6-2 2.5-2.9 4-4.5 8.7-6 13.4-2 6-3.6 12.1-4.8 18.3-2.4 5.2-5.4 10.2-7.2 15.6-3.2 0-6.3-.4-9.4-1.3l-8.4-1.9c-2.9-.7-6-1.4-8.3-3.3-1.2-1-2.2-2.3-3.4-3.3s-3.7-2.2-5.1-1.3c-.2.2-.5.3-.7.5-1.2-2.5-2.4-5-3.9-7.4-2.1-3.4-5.2-6.5-9-7.2-2.4-.4-4.8.2-6.8 1.6-2.3 1.6-3.7 5-2 7.3.4.5.9 1 1.4 1.4 1.2 1.3 2.2 2.8 3.1 4.3 3.2 4.5 8 7.7 13.5 8.8l-.3 1c-.7 2.1-2.2 4.6-1.8 6.8l37.5 12.8c2.4 1 5 1.5 7.6 1.7 1 0 2-.1 3-.4v2c.1 13.2-2 26.3-2.4 39.5-.1 2.4 0 5 1.5 6.9 1.7 2.1 4.7 2.5 7.3 2 .6-.1 1.3-.2 1.9-.4.9 3.3 1.5 6.7 1.9 10.1l2.5 17.9c.3 1.8.4 3.7.4 5.5-.3 4.2-2.5 7.9-4.1 11.8s-2.5 8.5-.5 12.1c.7 1.1 1.6 2.1 2.2 3.2.7 1.8 1.1 3.7 1 5.7.2 5.4.3 10.8.4 16.2-.4-.1-.9 0-1.3.3-2.1 1.6-1.8 9.3-2 11.7-.2 4 0 8.1-.2 12.1-.3 5.4-1.1 10.8-2.6 16.1-.4 1.7-1.1 3.3-2.3 4.6-1.2 1-2.6 1.7-4.1 2.1-5 1.6-10.2 2.3-15.4 2.1-2.1-.1-4.3-.3-6.3.5s-3.5 3-2.8 5c.6 1.7 2.5 2.5 4.1 3.1 3.8 1.3 7.5 3 11 5.1 1.3.9 2.8 1.7 4.3 2.4 1.4.5 2.9.9 4.4 1.1l17.7 3.1c3.6.6 8 1 10.3-2 1.3-1.6 1.4-3.8 1.4-5.9-.1-4-.9-8.1-.4-12.1.4-2.4 1-4.7 1.9-6.9 1.8-5.2 3.5-10.5 5.3-15.7 1.8-5.3 3.6-10.6 4.3-16.1.3-2 .2-4.3-1.3-5.5-.4-.3-.8-.5-1.3-.7-.1-4.8-.7-9.7-.4-14.5l.3-3.6c.9.9 1.8 1.9 2.5 2.9 1.7 2.7 2.3 6.2 5 8 2.2 1.5 5.5 1.4 7.1 3.6.5.8.9 1.8 1.1 2.7.9 2.4 2.3 4.5 4 6.3.6 2.2 1.4 4.3 2.5 6.3 1.5 3.1 2.9 6.2 4.4 9.3 1.5 3.3 3.2 6.6 5 9.8 1.4 2 2.5 4.2 3.3 6.5 1.4 4.9-.9 10.4-4.5 14s-8.4 5.7-13.2 7.7c-.5.2-1 .4-1.3.8-.4.5-.6 1.1-.6 1.7 0 2.3 1.9 4.3 4.1 5 2.2.6 4.6.7 6.8.3 12.8-1.5 25.5-4.7 36.8-10.9 1.7-.8 3.2-2 4.4-3.4 1.2-1.6 1.4-3.6.7-5.4z"/><path fill="#2F2E41" d="M627 521c2.1 3.3 4.1 6.6 6 10.1 1.3 2.3 2.4 4.7 3.2 7.2 1.2 4 1.1 8.3 2 12.3 1 4.8 3.3 9.4 3.3 14.3-.2 4.3-1.6 8.4-4.2 11.8-2.6 3.4-5.5 6.4-8.8 9.1-7.6-19.6-11.8-40.3-12.5-61.2-.1-2.9-.1-5.9.9-8.6.7-1.7 3.8-6.4 5.8-4.5.7.7.9 3.7 1.4 4.7.8 1.6 1.8 3.2 2.9 4.8z"/><path opacity=".1" d="M627 521c2.1 3.3 4.1 6.6 6 10.1 1.3 2.3 2.4 4.7 3.2 7.2 1.2 4 1.1 8.3 2 12.3 1 4.8 3.3 9.4 3.3 14.3-.2 4.3-1.6 8.4-4.2 11.8-2.6 3.4-5.5 6.4-8.8 9.1-7.6-19.6-11.8-40.3-12.5-61.2-.1-2.9-.1-5.9.9-8.6.7-1.7 3.8-6.4 5.8-4.5.7.7.9 3.7 1.4 4.7.8 1.6 1.8 3.2 2.9 4.8z"/><path fill="#D0D2D5" d="M363.4 384.5c-7.9 7.9-8.9 11.4-13.6 13s-21.8 10.4-16.5 20.2l14.4 9.5.4.3 2.2 6.6-21.8 38.9s-36-16.5-39.5 7.9-1.3 31-2.2 44 .3 16.8-2.9 16.8-4.4-8.5-4.4-8.5-.2-.4-.5-1.1c-4.7-9.8-36.7-81.7 14.5-131.1 0 0 23.7-1.6 29.4-28.8 3.9-18.8 17.7-17.2 26.9-13.4 3 1.2 5.8 2.8 8.2 4.8 2.2 2.1 4.2 4.5 5.9 7 2.6 4.2 4 9.4-.5 13.9z"/><path opacity=".1" d="M348.1 427.5l2.2 6.6-21.8 38.9s-36-16.5-39.5 7.9-1.3 31-2.2 44c-.9 13 .3 16.8-2.9 16.8s-4.4-8.5-4.4-8.5-.2-.4-.5-1.1c-1.6-12.2-9.6-83.3 19.6-79.5 0 0 23.7 11.1 27.5 6.7 3-3.5 16.3-23.6 21.7-31.9l.3.1zm15.8-56.8l-14.4 16.4s-16.8 22.4-20.3 21.5c-1-.2-2.1-.4-3.2-.4-3.4-.3-5.9-3.2-5.7-6.6.1-1.4.7-2.7 1.7-3.8 5.7-6 16.3-17.4 17-19.9s7.4-13.6 10.8-19c3 1.2 5.8 2.8 8.2 4.8 2.2 2.1 4.1 4.4 5.9 7z"/><path fill="#454B69" d="M772.4 606.7c-2.5 4.9-15 23.3-20.5 31.3l-2.6 3.8s-1 6.6-17.4-1.6-401.4-170.7-401.4-170.7l-2.6-7.8 19-28.5L769 596.3c-.1 0 6.6 4.1 3.4 10.4z"/><path opacity=".1" d="M751.9 638l-2.6 3.8s-1 6.6-17.4-1.6-401.4-170.7-401.4-170.7l-2.6-7.8 424 176.3z"/><path fill="#FBBEBE" d="M519.6 531.9c-3.9-.6-8.3-.3-11.3 2.2-1.8 1.6-3 3.8-3.2 6.2-.3 2.8 1.4 6.1 4.1 6.3.7 0 1.3 0 2-.1 1.8 0 3.5.1 5.2.4 6.9.6 13.7-2.1 18.2-7.4 2.4-3-.8-4.3-3.6-4.9-3.7-.8-7.5-2.1-11.4-2.7z"/><path fill="#3F3D56" d="M586.5 622.2l2.5 17.6c.3 1.8.4 3.7.4 5.5-.3 4.2-2.5 7.9-4.1 11.7s-2.6 8.4-.5 12c.7 1.1 1.6 2.1 2.2 3.2.7 1.8 1.1 3.7 1 5.6l.7 25c7.7.5 15.5.5 23.2-.1.3 0 .6-.1.8-.3.2-.3.3-.6.3-.9.3-5.8-.7-11.7-.3-17.6.1-2.1.4-4.3.5-6.4.1-8.7-4.2-17.2-2.9-25.8.4-2.2.9-4.3 1.6-6.4 4.1-15 3.2-30.8 2.3-46.3 0-.2-.1-.5-.2-.7-.1-.1-.3-.2-.5-.3-8.9-2.7-18.5-.8-25.8 4.9-1.1.9-3.8 1.7-4.6 2.8-1 1.5.3 2.9.9 4.5 1.2 3.9 2.1 7.9 2.5 12z"/><path opacity=".1" d="M586.5 622.2l2.5 17.6c.3 1.8.4 3.7.4 5.5-.3 4.2-2.5 7.9-4.1 11.7s-2.6 8.4-.5 12c.7 1.1 1.6 2.1 2.2 3.2.7 1.8 1.1 3.7 1 5.6l.7 25c7.7.5 15.5.5 23.2-.1.3 0 .6-.1.8-.3.2-.3.3-.6.3-.9.3-5.8-.7-11.7-.3-17.6.1-2.1.4-4.3.5-6.4.1-8.7-4.2-17.2-2.9-25.8.4-2.2.9-4.3 1.6-6.4 4.1-15 3.2-30.8 2.3-46.3 0-.2-.1-.5-.2-.7-.1-.1-.3-.2-.5-.3-8.9-2.7-18.5-.8-25.8 4.9-1.1.9-3.8 1.7-4.6 2.8-1 1.5.3 2.9.9 4.5 1.2 3.9 2.1 7.9 2.5 12z"/><path fill="#3F3D56" d="M632.9 616.9c-1.2 2.4-2.7 4.7-3.4 7.3-1.8 6.9 2.9 14 2.3 21.1-.2 2.2-.9 4.4-.9 6.6s.8 4.7 2.8 5.7c1.3.7 3 .6 4.3 1.4 2.1 1.3 2.3 4.2 2.1 6.7s-.6 5.2 1 7.1c1.2 1.5 3.2 2.1 4.5 3.5.8 1 1.4 2.1 1.9 3.3 1.9 3.3 5.4 5.4 8.3 8s5.3 6.5 4 10.1c-.9 2.7-3.6 4.3-6.1 5.5-4.6 2.3-9.5 4-14.6 5.2-.5.2-1.1.2-1.7.1-.6-.2-1.1-.5-1.5-1-3-2.9-6-5.9-7.4-9.8-.2-.9-.6-1.8-1.1-2.7-1.6-2.2-4.8-2.1-7.1-3.6-2.6-1.8-3.2-5.3-4.9-7.9s-4.2-4.2-6-6.6c-3.1-3.9-3.8-9.1-6-13.5-.9-1.9-2.1-3.6-2.9-5.6-.7-2.3-1.2-4.8-1.4-7.2-1.4-11.7-5-23.4-2.7-35 .5-2.5 1.3-5 1.6-7.6.5-4.5-.3-9.2.3-13.7 0-1.1.6-2.2 1.5-2.9.5-.2 1.1-.4 1.7-.3 5.9-.3 11.9-.2 17.8.4 3 .3 6.4.9 8.2 3.3 1.5 2.1 1.5 4.9 1.9 7.5.6 3.1 2.2 4.8 3.9 7.3s.8 4.8-.4 7.3z"/><path fill="#2F2E41" d="M609.8 698.2c1.6 0 3.3-.1 4.5.9 1.5 1.3 1.5 3.5 1.3 5.5-.7 5.5-2.5 10.8-4.3 16l-5.3 15.6c-.8 2.2-1.5 4.5-1.9 6.9-.5 4 .3 8 .4 12 0 2-.1 4.2-1.4 5.8-2.3 2.9-6.7 2.6-10.3 2l-17.7-3c-1.5-.2-3-.6-4.4-1.1-1.5-.7-2.9-1.5-4.3-2.4-3.5-2-7.2-3.7-11-5-1.7-.6-3.5-1.4-4.1-3.1-.7-2 .9-4.2 2.8-5s4.2-.6 6.3-.5c5.2.2 10.4-.5 15.4-2.1 1.5-.4 2.9-1.1 4.1-2.1 1.2-1.3 2-3 2.3-4.7 1.5-5.2 2.4-10.6 2.7-16 .2-4 .1-8 .2-12 .1-2.4-.1-10 2-11.6 1.6-1.2 8.1 2.2 10.3 2.6 4.1.9 8.3 1.4 12.4 1.3zm58.4 11.1c1.7 5.7 2 11.8 3.1 17.7s3.1 11.9 7.5 16c.9.7 1.6 1.5 2.2 2.4.8 1.7.5 3.8-.8 5.2-1.2 1.4-2.7 2.6-4.4 3.4-11.3 6.2-24 9.3-36.8 10.8-2.3.4-4.6.3-6.8-.3-2.2-.7-4.1-2.7-4.1-5 0-.6.2-1.2.6-1.7.4-.4.8-.6 1.3-.8 4.7-1.9 9.5-4 13.2-7.6s5.9-9 4.5-13.9c-.8-2.3-2-4.4-3.4-6.4-1.8-3.1-3.5-6.4-5-9.7l-4.4-9.2c-1.3-2.7-2.6-5.5-2.8-8.5 5.5.2 11-.6 16.2-2.6 2.4-1 4.7-2.3 6.7-4 1.7-1.4 3.3-4.1 5.5-2.2 1.8 1.5 3 5.7 4.1 7.8 1.5 2.7 2.6 5.6 3.6 8.6z"/><path fill="#FBBEBE" d="M603.7 480.1c.4 3.8 4.2 6.4 7.7 7.9l-22.5 7.2c1.5-2.8.3-6.2-1.2-9-1.2-2.2-2.5-4.4-4-6.4-.2-.3-.5-.7-.3-1.1.1-.2.4-.4.6-.5 4.6-2.1 9.4-4.2 14.4-4.9 1.5-.2 4.2-.8 5.3.7s-.2 4.3 0 6.1z"/><path opacity=".1" d="M603.7 480.1c.4 3.8 4.2 6.4 7.7 7.9l-22.5 7.2c1.5-2.8.3-6.2-1.2-9-1.2-2.2-2.5-4.4-4-6.4-.2-.3-.5-.7-.3-1.1.1-.2.4-.4.6-.5 4.6-2.1 9.4-4.2 14.4-4.9 1.5-.2 4.2-.8 5.3.7s-.2 4.3 0 6.1z"/><circle fill="#FBBEBE" cx="590.6" cy="465.6" r="17.6"/><path fill="#2F2E41" d="M575.3 610.6c1.7 2 4.7 2.5 7.3 2 6.2-1 11.2-5.5 17.2-7.2 7.4-2 15.2.6 22.2 3.7s13.9 7 21.5 7.5c-6.9-15.4-3-33.8-9.5-49.3-1.6-3.8-3.9-7.4-4.2-11.5-.5-5.1 2.1-10 2.5-15.1.4-4.5-1-9-2.3-13.3l-4.8-15.8c-1.8-5.9-3.7-11.9-7.1-17-1.3-1.9-1.7-5.7-3.6-6.8-4.3-2.5-10.8.6-15.4.8s-8.9 3.5-11.6 7.2c-2.9 3.9-4.5 8.6-6 13.3-2.4 6.9-4.2 14-5.3 21.2-.2 1.1-.3 2.2-.4 3.3-1 10.3.5 20.6.5 30.9v.1c.1 13.1-2 26.1-2.4 39.2-.1 2.4 0 5 1.4 6.8z"/><path opacity=".1" d="M576.3 564.5c3.5-.9 6.6-3.1 9.3-5.5 2.3-2.1 4.4-4.4 6.1-7 2.2-3.5 4-7.2 5.3-11.1 3.7-10.4 6.1-21.3 7-32.3.3-3 .3-6.2-1.5-8.6-2.1-2.7-5.7-3.5-8.8-2.1-2.4 1.1-3.9 3.5-5.3 5.7-2.8 4.4-5.6 8.9-7.5 13.8-.8 2.2-1.4 4.4-2.2 6.6-.8 2.2-1.7 4.3-2.7 6.3-.2 1.1-.3 2.2-.4 3.3-.8 10.3.6 20.6.7 30.9z"/><path fill="#2F2E41" d="M602.5 498.1c1.8 2.4 1.7 5.6 1.5 8.6-.9 11-3.3 21.9-7 32.3-1.3 3.9-3.1 7.7-5.3 11.2-1.8 2.6-3.8 4.9-6.1 7-3.4 3.1-7.5 5.9-12.2 5.9-2.6-.1-5.2-.7-7.6-1.7l-37.5-12.8c-.4-2.1 1.1-4.6 1.8-6.7l2-5.9c.6-1.6 1.2-3.4 2.7-4.3s3.8.3 5.1 1.3 2.2 2.3 3.4 3.3c2.3 1.9 5.4 2.6 8.3 3.3l8.4 1.9c3.1.8 6.2 1.3 9.4 1.3 2.3-7.2 6.8-13.5 9.3-20.6.8-2.2 1.4-4.4 2.2-6.6 1.8-4.9 4.6-9.4 7.5-13.8 1.4-2.2 2.9-4.5 5.3-5.7 3-1.6 6.7-.7 8.8 2zm-6.3-28.5c-.1-1.2-.5-2.3-1.1-3.3-.6-1-1.8-1.6-3-1.3-1.8.5-2.3 3.3-4.2 3.4-1.2.1-2.1-1.2-2.5-2.4s-.6-2.5-1.5-3.4c-.6-.5-1.4-.8-2.2-1-4.3-1.4-8.7-3.8-10.1-8.1-.3-.9-.4-1.8-.2-2.7.7-2.7 4-3.5 6.5-4.5s5-2.6 7.5-3.9 5.4-2.1 8.2-1.5c1.4.4 2.8.9 4.1 1.5 4.1 1.4 9.2.8 12.4 3.8 1.4 1.5 2.4 3.3 3 5.2 2.2 6.2 3.7 13.6 0 19.1-2.3 3.4-4.5 7.2-8.9 7.6-5.1.4-7.2-4.2-8-8.5z"/><path opacity=".1" d="M588.4 463.8c-.4-1.2-.6-2.5-1.5-3.4-.6-.5-1.4-.8-2.2-1-4.3-1.4-8.7-3.8-10.1-8.1-.3-.9-.4-1.8-.2-2.7.1-.4.3-.8.5-1.2-1.6.7-3 1.6-3.5 3.3-.2.9-.1 1.8.2 2.7 1.4 4.3 5.8 6.7 10.1 8.1.8.2 1.5.5 2.2 1 .9.8 1.1 2.2 1.5 3.4s1.3 2.4 2.5 2.4 1.8-1.2 2.6-2.1c-.9-.2-1.7-1.3-2.1-2.4zm18.7 12.2c-5.1.5-7.2-4.2-8-8.5-.1-1.2-.4-2.3-1-3.3s-1.8-1.6-3-1.3c-.9.4-1.7 1.1-2.2 2 .9.1 1.8.6 2.3 1.4.6 1 .9 2.1 1.1 3.3.8 4.3 2.8 9 8 8.5 2-.2 3.9-1.2 5.3-2.7-.8.3-1.6.5-2.5.6z"/><ellipse cx="813.1" cy="655.8" rx="32.3" ry="6.2"/><ellipse fill="#3F3D56" cx="812.6" cy="653.1" rx="3.8" ry="4.9"/><ellipse fill="#3F3D56" cx="812.6" cy="647.1" rx="3.8" ry="4.9"/><ellipse fill="#3F3D56" cx="812.6" cy="641.1" rx="3.8" ry="4.9"/><ellipse fill="#3F3D56" cx="812.6" cy="635.1" rx="3.8" ry="4.9"/><ellipse fill="#3F3D56" cx="812.6" cy="629.1" rx="3.8" ry="4.9"/><ellipse fill="#3F3D56" cx="812.6" cy="623.1" rx="3.8" ry="4.9"/><ellipse fill="#3F3D56" cx="812.6" cy="617" rx="3.8" ry="4.9"/><path d="M826.6 575.9c.5-.7 1-1.3 1.4-2.1l-9.9-1.6 10.7.1c2.1-4.5 2.2-9.7.3-14.3l-14.3 7.4 13.2-9.7c-5-8.6-16-11.5-24.6-6.5-8.6 5-11.5 16-6.5 24.6.4.7.9 1.4 1.4 2.1-.8 1-1.5 2.1-2.1 3.3l12.8 6.7-13.7-4.6c-1.9 5.8-.8 12.1 2.9 16.9-6.1 7.8-4.8 19.1 3 25.3s19.1 4.8 25.3-3c5.1-6.5 5.1-15.7 0-22.2 5.3-6.7 5.3-15.9.1-22.4z"/><path opacity=".1" d="M794.5 587c0 4 1.4 8 3.9 11.1-6.1 7.8-4.8 19.1 3 25.3s19.1 4.8 25.3-3c5.1-6.5 5.1-15.7 0-22.2 2.3-3.1-32.2-13.2-32.2-11.2z"/><ellipse cx="148.4" cy="776.9" rx="46.5" ry="8.9"/><ellipse fill="#3F3D56" cx="147.6" cy="773.1" rx="5.4" ry="7.1"/><ellipse fill="#3F3D56" cx="147.6" cy="764.4" rx="5.4" ry="7.1"/><ellipse fill="#3F3D56" cx="147.6" cy="755.8" rx="5.4" ry="7.1"/><ellipse fill="#3F3D56" cx="147.6" cy="747.1" rx="5.4" ry="7.1"/><ellipse fill="#3F3D56" cx="147.6" cy="738.4" rx="5.4" ry="7.1"/><ellipse fill="#3F3D56" cx="147.6" cy="729.8" rx="5.4" ry="7.1"/><ellipse fill="#3F3D56" cx="147.6" cy="721.1" rx="5.4" ry="7.1"/><path d="M167.9 661.8c.7-1 1.4-2 2-3l-14.2-2.3 15.4.1c3-6.5 3.2-13.9.5-20.5L151 646.8l19-14c-7.2-12.4-23-16.7-35.4-9.5-12.4 7.2-16.7 23-9.5 35.4.6 1.1 1.3 2.1 2.1 3.1-1.2 1.5-2.2 3-3 4.7l18.5 9.6-19.7-6.6c-2.8 8.3-1.2 17.5 4.3 24.4-8.9 11.3-6.9 27.6 4.3 36.4 11.3 8.9 27.6 6.9 36.4-4.3 7.4-9.4 7.4-22.7 0-32.1 7.3-9.4 7.3-22.6-.1-32.1z"/><path opacity=".1" d="M121.6 677.9c0 5.8 2 11.4 5.6 16-8.9 11.3-6.9 27.6 4.3 36.4 11.3 8.9 27.6 6.9 36.4-4.3 7.4-9.4 7.4-22.7 0-32.1 3.4-4.4-46.3-18.9-46.3-16z"/></svg>