<?xml version="1.0" encoding="utf-8"?>
<!-- Generator: Adobe Illustrator 22.1.0, SVG Export Plug-In . SVG Version: 6.00 Build 0)  -->
<svg version="1.1" id="图层_1" xmlns="http://www.w3.org/2000/svg" xmlns:xlink="http://www.w3.org/1999/xlink" x="0px" y="0px"
	 viewBox="0 0 1022.7 785.8" enable-background="new 0 0 1022.7 785.8" xml:space="preserve">
<ellipse opacity="0.1" enable-background="new    " cx="468.6" cy="660.9" rx="425" ry="33"/>
<g opacity="0.1">
	<path fill="#3F3D56" d="M845,472.8c-2.5-7.7-12.8-11.3-23-7.9c-1.5,0.5-2.9,1.1-4.2,1.8c-0.7-0.2-1.3-0.3-2-0.5
		c0.6-2.2,0.8-4.5,0.6-6.8c7.1-4.8,11.3-12.9,10.9-21.5c7.1-4.8,11.2-12.9,10.9-21.5c3.5-2.3,6.4-5.5,8.2-9.3
		c4.9-9.7,2.9-20.6-4.5-24.4s-17.4,1.1-22.3,10.8c-1.9,3.7-2.9,7.9-2.6,12.1c-7.1,4.8-11.2,12.9-10.9,21.5
		c-7.1,4.8-11.2,12.9-10.9,21.5c-7.1,4.8-11.3,12.9-10.9,21.5c-3.5,2.3-6.4,5.5-8.2,9.3c-0.9,1.8-1.6,3.8-2.1,5.7
		c-1.2-1.8-2.7-3.4-4.4-4.7c-0.2-1.5-0.5-3-1-4.5c-3.3-10.2-12.3-16.4-20-13.8s-11.3,12.8-7.9,23c1.4,4.4,4,8.2,7.6,11.1
		c0.2,1.5,0.5,3,1,4.5c1.9,5.9,5.8,10.5,10.2,12.8c-0.4,1.3-0.7,2.6-0.8,3.9c-4.1,4-6.8,9.2-7.5,14.9c-4.1,4-6.8,9.2-7.5,14.9
		c-2,2-3.7,4.3-5,6.8c-4.9,9.7-2.9,20.6,4.5,24.3s17.4-1.1,22.3-10.8c1.3-2.5,2.1-5.3,2.5-8.1c4.1-4,6.8-9.2,7.5-14.9
		c4.1-4,6.8-9.2,7.5-14.9c4.1-4,6.7-9.2,7.5-14.9c4.1-4,6.8-9.2,7.6-14.9c1.3-1.2,2.4-2.5,3.4-4c4.1,0.8,8.3,0.6,12.3-0.8
		c1.5-0.5,2.9-1.1,4.2-1.8c4.4,1.2,9.1,1,13.4-0.5C841.4,489.5,847.6,480.6,845,472.8L845,472.8z"/>
	<path opacity="0.1" enable-background="new    " d="M827.1,442.4c-1,1-2.2,2-3.4,2.8c0.2,2.9-0.2,5.7-1.1,8.4
		c0.8-1.1,1.5-2.2,2.1-3.4C825.9,447.8,826.7,445.1,827.1,442.4z M838,421c-1,1-2.2,2-3.4,2.8c0.2,2.9-0.2,5.7-1.1,8.4
		c0.8-1.1,1.5-2.2,2.1-3.4C836.8,426.3,837.6,423.7,838,421z M813.3,413c-0.1-1.5,0-2.9,0.2-4.4c-1.9,1.9-3.6,4.1-4.8,6.6
		c-0.6,1.2-1.1,2.4-1.5,3.7C808.9,416.5,811,414.5,813.3,413L813.3,413z M744.4,542.9c0.9-1.2,1.9-2.3,3-3.4c0.2-1.4,0.5-2.7,0.9-4
		c-0.9,1.2-1.6,2.4-2.3,3.7C745.3,540.4,744.8,541.6,744.4,542.9z M752,528c0.9-1.2,1.9-2.3,3-3.4c0.2-1.3,0.4-2.6,0.8-3.9
		c-0.8,1.1-1.6,2.3-2.2,3.6C752.9,525.5,752.4,526.7,752,528z M816.2,463.9c-1,1-2.2,2-3.4,2.7c0.1,2.3-0.1,4.6-0.6,6.8
		c0.7,0.1,1.3,0.3,2,0.5c1.4-0.7,2.8-1.4,4.2-1.8c10.2-3.3,20.5,0.2,23,7.9c0.6,1.9,0.7,4,0.3,6c3.3-3.9,4.7-8.7,3.3-13.1
		c-2.5-7.7-12.8-11.3-23-7.9c-1.5,0.5-2.9,1.1-4.2,1.8c-0.7-0.2-1.3-0.3-2-0.5C816,465.5,816.1,464.7,816.2,463.9L816.2,463.9z
		 M740.7,550.4c-0.9,1.2-1.6,2.4-2.3,3.7c-0.6,1.2-1.1,2.5-1.5,3.7c0.9-1.2,1.9-2.4,3-3.4C740,553.1,740.3,551.7,740.7,550.4
		L740.7,550.4z M802.4,434.5c-0.1-1.5,0-2.9,0.2-4.4c-1.9,1.9-3.6,4.1-4.8,6.6c-0.6,1.2-1.1,2.4-1.5,3.7
		C798,438,800,436,802.4,434.5L802.4,434.5z M786.8,522c-0.2,1.5-0.5,3-1,4.4c0.8-1.1,1.5-2.2,2.1-3.4c0.7-1.3,1.2-2.6,1.6-4
		C788.7,520,787.7,521.1,786.8,522L786.8,522z M771.7,551.8c-0.2,1.5-0.5,3-1,4.4c0.8-1.1,1.5-2.2,2.1-3.4c0.7-1.3,1.2-2.6,1.6-4
		C773.6,549.9,772.7,550.9,771.7,551.8z M779.2,536.9c-0.2,1.5-0.5,3-1,4.4c0.8-1.1,1.5-2.2,2.1-3.4c0.7-1.3,1.2-2.6,1.6-4
		C781.1,535,780.2,536,779.2,536.9z M794.3,507.1c-0.2,1.5-0.5,2.9-1,4.4c0.8-1.1,1.5-2.2,2.1-3.4c0.7-1.3,1.2-2.7,1.6-4.1
		C796.2,505.1,795.3,506.1,794.3,507.1L794.3,507.1z M744.9,469.4c7.7-2.5,16.7,3.7,20,13.8c0.5,1.5,0.8,3,1,4.5
		c1.7,1.3,3.2,2.9,4.4,4.7c0.5-2,1.2-3.9,2.1-5.8c0.3-0.7,0.7-1.3,1.1-2c-1.1-1.6-2.5-3-4-4.2c-0.2-1.5-0.5-3-1-4.5
		c-3.3-10.2-12.3-16.4-20-13.8c-4.4,1.4-7.4,5.4-8.6,10.4C741.3,471.1,743,470,744.9,469.4L744.9,469.4z M780.7,477.4
		c-0.1-1.5,0-2.9,0.2-4.4c-1.9,1.9-3.6,4.1-4.8,6.6c-0.6,1.2-1.1,2.4-1.5,3.7C776.2,481,778.3,479,780.7,477.4z M791.6,455.9
		c-0.1-1.5,0-2.9,0.2-4.4c-2,1.9-3.6,4.1-4.8,6.6c-0.6,1.2-1.1,2.4-1.5,3.7C787.1,459.5,789.2,457.5,791.6,455.9z M764.1,566.7
		c-0.2,1.5-0.5,3-1,4.4c1.6-2.3,2.9-4.8,3.7-7.5C766,564.8,765.1,565.8,764.1,566.7z"/>
	<path fill="#3F3D56" d="M859.9,373.6c3.5-2.3,6.4-5.5,8.2-9.3c4.9-9.7,2.9-20.6-4.5-24.4s-17.4,1.1-22.3,10.8
		c-1.9,3.8-2.8,8-2.6,12.2c-7.1,4.8-11.2,12.9-10.9,21.5c-3.5,2.3-6.4,5.5-8.2,9.3c-0.6,1.2-1.1,2.4-1.5,3.7c2.6-3.8,6.4-6.6,10.8-8
		c2.1,6.4,9,10,15.4,7.9c0,0,0.1,0,0.1,0c1.5,4.3,1.5,9.1,0,13.4c0.8-1.1,1.5-2.2,2.1-3.4c1.9-3.7,2.8-7.9,2.6-12.1
		C856.2,390.3,860.3,382.2,859.9,373.6L859.9,373.6z"/>
	<path d="M979.2,236c3-1.4,5.9-3,8.7-4.8l-32.3-23.6l38,19.6c15.5-12.3,25.3-30.5,27-50.3l-64.6,0.7l64.7-10.8
		C1018,127,983.7,97,944,99.7c-39.7,2.7-69.6,37.1-66.9,76.7c0.2,2.8,0.6,5.7,1.1,8.5c-4.7,2.2-9.1,4.9-13.3,8l33.8,46.9l-40.5-41.1
		c-17.4,17.1-25,41.7-20.2,65.6c-36,16.8-51.6,59.7-34.8,95.7c16.8,36,59.7,51.6,95.7,34.8c30.1-14,46.7-46.8,40.1-79.4
		C969.2,301.4,985.8,268.6,979.2,236L979.2,236z"/>
	<path opacity="0.1" enable-background="new    " d="M844.3,217.7c-7.3,14.4-9.6,30.9-6.3,46.7c-36,16.8-51.6,59.7-34.8,95.7
		c16.8,36,59.7,51.6,95.7,34.8c30.1-14,46.7-46.8,40.1-79.4C953.2,308.9,848,210.4,844.3,217.7z"/>
	<circle opacity="0.1" enable-background="new    " cx="935.1" cy="353.2" r="10.7"/>
	<path d="M925.5,92c5.9,0,10.7,4.8,10.7,10.7s-4.8,10.7-10.7,10.7s-10.7-4.8-10.7-10.7S919.6,92,925.5,92z M987.9,98.9
		c5.9,0,10.7,4.8,10.7,10.7s-4.8,10.7-10.7,10.7s-10.7-4.8-10.7-10.7S982,98.9,987.9,98.9z M1012,194.9c5.9,0,10.7,4.8,10.7,10.7
		s-4.8,10.7-10.7,10.7s-10.7-4.8-10.7-10.7S1006.1,194.9,1012,194.9z M979.5,242.9c5.9,0,10.7,4.8,10.7,10.7s-4.8,10.7-10.7,10.7
		s-10.7-4.8-10.7-10.7S973.6,242.9,979.5,242.9z M935.1,342.5c5.9,0,10.7,4.8,10.7,10.7s-4.8,10.7-10.7,10.7s-10.7-4.8-10.7-10.7
		S929.2,342.5,935.1,342.5z M836.4,229.7c5.9,0,10.7,4.8,10.7,10.7s-4.8,10.7-10.7,10.7s-10.7-4.8-10.7-10.7
		S830.5,229.7,836.4,229.7z"/>
	<circle opacity="0.1" enable-background="new    " cx="836.4" cy="240.4" r="10.7"/>
	<path opacity="0.1" enable-background="new    " d="M825,416.2c-7.1-3.6-9.3-13.8-5.1-23.1c-0.2,0.4-0.4,0.8-0.6,1.2
		c-4.9,9.7-2.9,20.6,4.5,24.4s17.4-1.1,22.3-10.8c0.2-0.4,0.4-0.8,0.6-1.2C841.6,415.5,832.1,419.8,825,416.2L825,416.2z
		 M814.4,437.1c-7.1-3.6-9.3-13.8-5.1-23.1c-0.2,0.4-0.4,0.8-0.6,1.2c-4.9,9.7-2.9,20.6,4.5,24.4s17.4-1.1,22.3-10.8
		c0.2-0.4,0.4-0.8,0.6-1.2C831,436.4,821.5,440.7,814.4,437.1L814.4,437.1z M803.9,458c-7.1-3.6-9.3-13.8-5.1-23.1
		c-0.2,0.4-0.4,0.8-0.6,1.2c-4.9,9.7-2.9,20.6,4.5,24.4s17.4-1.1,22.3-10.8c0.2-0.4,0.4-0.8,0.6-1.2
		C820.4,457.3,811,461.6,803.9,458L803.9,458z M793.3,478.9c-7.1-3.6-9.3-13.8-5.1-23.1c-0.2,0.4-0.4,0.8-0.6,1.2
		c-4.9,9.7-2.9,20.6,4.5,24.4s17.4-1.1,22.3-10.8c0.2-0.4,0.4-0.8,0.6-1.2C809.9,478.2,800.4,482.5,793.3,478.9L793.3,478.9z
		 M782.8,499.7c-7.1-3.6-9.3-13.8-5.1-23.1c-0.2,0.4-0.4,0.8-0.6,1.2c-4.9,9.7-2.9,20.6,4.5,24.4s17.4-1.1,22.3-10.8
		c0.2-0.4,0.4-0.8,0.6-1.2C799.3,499,789.9,503.3,782.8,499.7L782.8,499.7z M772.2,520.6c-7.1-3.6-9.3-13.8-5.1-23.1
		c-0.2,0.4-0.4,0.8-0.6,1.2c-4.9,9.7-2.9,20.6,4.5,24.4s17.3-1.1,22.3-10.8c0.2-0.4,0.4-0.8,0.6-1.2
		C788.8,519.9,779.3,524.2,772.2,520.6L772.2,520.6z M761.6,541.5c-7.1-3.6-9.3-13.8-5.1-23.1c-0.2,0.4-0.4,0.8-0.6,1.2
		c-4.9,9.7-2.9,20.6,4.5,24.3s17.4-1.1,22.3-10.8c0.2-0.4,0.4-0.8,0.6-1.2C778.2,540.8,768.7,545.1,761.6,541.5L761.6,541.5z
		 M751.1,562.4c-7.1-3.6-9.3-13.8-5.1-23.1c-0.2,0.4-0.4,0.8-0.6,1.2c-4.9,9.7-2.9,20.6,4.5,24.4s17.4-1.1,22.3-10.8
		c0.2-0.4,0.4-0.8,0.6-1.2C767.7,561.7,758.2,565.9,751.1,562.4L751.1,562.4z"/>
	<path opacity="0.1" enable-background="new    " d="M744.2,576.1c-7.1-3.6-9.3-13.8-5.1-23.2c-0.2,0.4-0.4,0.8-0.6,1.2
		c-4.9,9.7-2.9,20.6,4.5,24.3s17.4-1.1,22.3-10.8c0.2-0.4,0.4-0.8,0.6-1.2C760.7,575.4,751.3,579.7,744.2,576.1L744.2,576.1z"/>
	<path d="M934.9,483.2c1.1-3.2,1.8-6.5,2-9.8c2.9,0,5.3-2.4,5.3-5.4c0-2.9-2.4-5.3-5.4-5.3c-0.3,0-0.5,0-0.8,0.1
		c-2.4-11-9.6-20.3-19.6-25.3c1.3-2.6,0.3-5.8-2.4-7.2s-5.8-0.3-7.2,2.4l0,0c-0.2,0.4-0.4,0.9-0.5,1.4c-11.9-2.2-24.1,1.5-32.9,9.9
		c-3.2-0.5-6.5-0.6-9.8-0.3l-4.3,19.7l-0.3-19c-20.2,4.4-33,24.4-28.5,44.6c4.4,20.2,24.4,33,44.6,28.5c1.3-0.3,2.7-0.7,4-1.1
		c0.5,0.9,1.3,1.7,2.3,2.2c2.6,1.3,5.8,0.3,7.2-2.3c0.7-1.4,0.8-3.1,0.1-4.5c1.7-1.2,3.3-2.5,4.8-3.9c16,2.6,31.9-5.4,39.3-19.8
		l-20.2-3.4L934.9,483.2z"/>
	<path opacity="0.1" enable-background="new    " d="M903.8,492.7c-7.4-9.8-12-21.5-17.3-32.6c-2.1-4.6-4.5-9-7.1-13.4l-3.9-4.6
		c-0.7,0.6-1.3,1.1-2,1.8c-3.2-0.5-6.5-0.6-9.8-0.3l-4.3,19.7l-0.3-19c-20.2,4.4-33,24.4-28.5,44.6c4.4,20.2,24.4,33,44.6,28.5
		c1.3-0.3,2.7-0.7,4-1.1c0.5,0.9,1.3,1.7,2.3,2.2c2.6,1.3,5.8,0.3,7.2-2.3c0.7-1.4,0.8-3.1,0.1-4.5c1.7-1.2,3.3-2.5,4.8-3.9
		c7.6,1.2,15.5,0.1,22.4-3.3C911.3,501.2,907.2,497.2,903.8,492.7L903.8,492.7z"/>
</g>
<g opacity="0.1">
	<path fill="#3F3D56" d="M89.5,511.2c1.3-3.9,6.5-5.7,11.6-4c0.7,0.2,1.4,0.5,2.1,0.9c0.3-0.1,0.7-0.2,1-0.2
		c-0.3-1.1-0.4-2.3-0.3-3.4c-3.6-2.4-5.6-6.5-5.5-10.8c-1.8-1.2-3.2-2.8-4.1-4.7c-1-1.9-1.4-4-1.3-6.1c-1.8-1.2-3.2-2.8-4.1-4.7
		c-2.5-4.9-1.5-10.4,2.3-12.3s8.8,0.5,11.2,5.4c1,1.9,1.4,4,1.3,6.1c3.6,2.4,5.7,6.5,5.5,10.8c3.6,2.4,5.7,6.5,5.5,10.8
		c3.6,2.4,5.7,6.5,5.5,10.8c1.8,1.2,3.2,2.8,4.2,4.7c0.4,0.9,0.8,1.9,1,2.9c0.6-0.9,1.4-1.7,2.2-2.4c0.1-0.8,0.3-1.5,0.5-2.3
		c1.7-5.1,6.2-8.2,10.1-7s5.7,6.5,4,11.6c-0.7,2.2-2,4.1-3.8,5.6c-0.1,0.8-0.3,1.5-0.5,2.3c-0.8,2.7-2.6,5-5.1,6.4
		c0.2,0.7,0.3,1.3,0.4,2c1,1,1.9,2.2,2.5,3.4c0.7,1.3,1.1,2.7,1.3,4.1c1,1,1.9,2.2,2.5,3.4c0.7,1.3,1.1,2.7,1.3,4.1
		c1,1,1.9,2.2,2.5,3.4c2.5,4.9,1.4,10.4-2.3,12.3s-8.8-0.5-11.2-5.4c-0.7-1.3-1.1-2.7-1.3-4.1c-2.1-2-3.4-4.6-3.8-7.5
		c-2.1-2-3.4-4.6-3.8-7.5c-1-1-1.9-2.2-2.5-3.4c-0.6-1.3-1.1-2.7-1.3-4.1c-1-1-1.9-2.2-2.5-3.4c-0.7-1.3-1.1-2.7-1.3-4.1
		c-0.6-0.6-1.2-1.3-1.7-2c-2.1,0.4-4.2,0.3-6.2-0.4c-0.7-0.2-1.5-0.6-2.1-0.9c-2.2,0.6-4.6,0.5-6.8-0.2
		C91.3,519.6,88.2,515.1,89.5,511.2L89.5,511.2z"/>
	<path opacity="0.1" enable-background="new    " d="M98.5,495.9c0.5,0.5,1.1,1,1.7,1.4c-0.1,1.4,0.1,2.9,0.6,4.2
		c-0.4-0.5-0.8-1.1-1.1-1.7C99.1,498.6,98.7,497.3,98.5,495.9z M93,485.1c0.5,0.5,1.1,1,1.7,1.4c-0.1,1.4,0.1,2.9,0.6,4.3
		C94.1,489.1,93.3,487.1,93,485.1z M105.5,481.1c0-0.7,0-1.5-0.1-2.2c1,1,1.8,2.1,2.4,3.3c0.3,0.6,0.6,1.2,0.8,1.9
		C107.7,482.9,106.7,481.9,105.5,481.1z M140.2,546.5c-0.4-0.6-0.9-1.2-1.5-1.7c-0.1-0.7-0.2-1.3-0.4-2c0.4,0.6,0.8,1.2,1.1,1.9
		C139.7,545.3,140,545.9,140.2,546.5z M136.3,539c-0.4-0.6-0.9-1.2-1.5-1.7c-0.1-0.7-0.2-1.3-0.4-2
		C135.3,536.4,135.9,537.7,136.3,539L136.3,539z M104,506.8c0.5,0.5,1.1,1,1.7,1.4c-0.1,1.1,0,2.3,0.3,3.4c-0.3,0.1-0.7,0.1-1,0.2
		c-0.7-0.4-1.4-0.7-2.1-0.9c-5.1-1.7-10.3,0.1-11.6,4c-0.3,1-0.4,2-0.2,3c-1.7-1.8-2.3-4.3-1.7-6.6c1.3-3.9,6.5-5.7,11.6-4
		c0.7,0.2,1.4,0.5,2.1,0.9c0.3-0.1,0.7-0.2,1-0.2C104.1,507.5,104.1,507.1,104,506.8z M142.1,550.3c0.4,0.6,0.8,1.2,1.1,1.9
		c0.3,0.6,0.6,1.2,0.8,1.9c-0.4-0.6-0.9-1.2-1.5-1.7C142.4,551.7,142.3,551,142.1,550.3z M110.9,491.9c0-0.7,0-1.5-0.1-2.2
		c1,1,1.8,2.1,2.4,3.3c0.3,0.6,0.6,1.2,0.8,1.9C113.2,493.7,112.2,492.7,110.9,491.9z M118.9,536c0.1,0.7,0.3,1.5,0.5,2.2
		c-0.8-1.1-1.5-2.4-1.9-3.8C117.9,535,118.4,535.5,118.9,536z M126.4,551c0.1,0.7,0.3,1.5,0.5,2.2c-0.4-0.5-0.8-1.1-1.1-1.7
		c-0.3-0.6-0.6-1.3-0.8-2C125.5,550,126,550.6,126.4,551L126.4,551z M122.7,543.5c0.1,0.7,0.3,1.5,0.5,2.2c-0.4-0.5-0.8-1.1-1.1-1.7
		c-0.3-0.6-0.6-1.3-0.8-2C121.7,542.5,122.2,543.1,122.7,543.5L122.7,543.5z M115.1,528.5c0.1,0.8,0.3,1.5,0.5,2.2
		c-0.4-0.5-0.7-1.1-1-1.7c-0.3-0.6-0.6-1.3-0.8-2C114.1,527.5,114.6,528,115.1,528.5L115.1,528.5z M139.9,509.5
		c-3.9-1.3-8.4,1.8-10.1,7c-0.2,0.7-0.4,1.5-0.5,2.3c-0.9,0.7-1.6,1.5-2.2,2.4c-0.2-1-0.6-2-1.1-2.9c-0.2-0.3-0.4-0.7-0.6-1
		c0.6-0.8,1.2-1.5,2-2.1c0.1-0.8,0.3-1.5,0.5-2.3c1.7-5.1,6.2-8.2,10.1-7c2.3,0.9,3.9,2.9,4.3,5.3
		C141.8,510.4,140.9,509.8,139.9,509.5L139.9,509.5z M121.9,513.5c0-0.7,0-1.5-0.1-2.2c1,1,1.8,2.1,2.4,3.3c0.3,0.6,0.6,1.2,0.8,1.9
		C124.1,515.3,123.1,514.3,121.9,513.5L121.9,513.5z M116.4,502.7c0-0.7,0-1.5-0.1-2.2c1,1,1.8,2.1,2.4,3.3c0.3,0.6,0.6,1.2,0.8,1.9
		C118.7,504.5,117.6,503.5,116.4,502.7z M130.2,558.5c0.1,0.8,0.3,1.5,0.5,2.2c-0.4-0.6-0.8-1.1-1.1-1.7c-0.3-0.6-0.6-1.3-0.8-2
		C129.3,557.6,129.8,558.1,130.2,558.5L130.2,558.5z"/>
	<path fill="#3F3D56" d="M82,461.3c-1.8-1.2-3.2-2.8-4.1-4.7c-2.5-4.9-1.4-10.4,2.3-12.3s8.8,0.5,11.2,5.4c1,1.9,1.4,4,1.3,6.1
		c3.6,2.4,5.7,6.5,5.5,10.8c1.8,1.2,3.2,2.8,4.2,4.7c0.3,0.6,0.6,1.2,0.8,1.9c-1.3-1.9-3.2-3.3-5.4-4c-1,3.2-4.5,5.1-7.7,4
		c0,0-0.1,0-0.1,0c-0.7,2.2-0.7,4.6,0,6.8c-0.4-0.5-0.7-1.1-1-1.7c-1-1.9-1.4-4-1.3-6.1C83.9,469.7,81.9,465.6,82,461.3L82,461.3z"
		/>
	<path d="M21.9,391.9c-1.5-0.7-3-1.5-4.4-2.4l16.3-11.9l-19.1,9.9C6.8,381.2,1.9,372,1.1,362.1l32.5,0.3L1,357
		c1.1-20,18.3-35.3,38.3-34.2s35.3,18.3,34.2,38.3c-0.1,1.7-0.3,3.4-0.7,5.1c2.4,1.1,4.6,2.4,6.7,4l-17,23.6l20.4-20.7
		c8.7,8.6,12.6,21,10.2,33c18.2,8.5,26,30.1,17.6,48.2s-30.1,26-48.2,17.6c-15.2-7.1-23.6-23.6-20.3-40.1
		C27,424.9,18.6,408.3,21.9,391.9L21.9,391.9z"/>
	<path opacity="0.1" enable-background="new    " d="M89.8,382.7c3.7,7.3,4.8,15.6,3.2,23.5c18.2,8.5,26,30.1,17.6,48.2
		s-30.1,26-48.2,17.6c-15.2-7.1-23.6-23.6-20.3-40.1C35,428.6,88,379.1,89.8,382.7z"/>
	<circle opacity="0.1" enable-background="new    " cx="44.1" cy="451" r="5.4"/>
	<path d="M49,319.4c3,0,5.4,2.4,5.4,5.4s-2.4,5.4-5.4,5.4s-5.4-2.4-5.4-5.4S46,319.4,49,319.4z M17.5,322.8
		c3,0,5.4,2.4,5.4,5.4s-2.4,5.4-5.4,5.4s-5.4-2.4-5.4-5.4S14.5,322.8,17.5,322.8z M5.4,371.2c3,0,5.4,2.4,5.4,5.4S8.4,382,5.4,382
		S0,379.6,0,376.6S2.4,371.2,5.4,371.2z M21.8,395.4c3,0,5.4,2.4,5.4,5.4s-2.4,5.4-5.4,5.4s-5.4-2.4-5.4-5.4S18.8,395.4,21.8,395.4z
		 M44.1,445.6c3,0,5.4,2.4,5.4,5.4s-2.4,5.4-5.4,5.4s-5.4-2.4-5.4-5.4S41.1,445.6,44.1,445.6z M93.8,388.8c3,0,5.4,2.4,5.4,5.4
		s-2.4,5.4-5.4,5.4s-5.4-2.4-5.4-5.4S90.9,388.8,93.8,388.8z"/>
	<circle opacity="0.1" enable-background="new    " cx="93.8" cy="394.1" r="5.4"/>
	<path opacity="0.1" enable-background="new    " d="M99.6,482.7c3.6-1.8,4.7-6.9,2.6-11.7c0.1,0.2,0.2,0.4,0.3,0.6
		c2.5,4.9,1.4,10.4-2.3,12.3s-8.8-0.5-11.2-5.4c-0.1-0.2-0.2-0.4-0.3-0.6C91.3,482.4,96,484.5,99.6,482.7z M104.9,493.2
		c3.6-1.8,4.7-6.9,2.6-11.7c0.1,0.2,0.2,0.4,0.3,0.6c2.5,4.9,1.4,10.4-2.3,12.3s-8.8-0.5-11.2-5.4c-0.1-0.2-0.2-0.4-0.3-0.6
		C96.6,492.9,101.3,495,104.9,493.2z M110.2,503.8c3.6-1.8,4.7-6.9,2.6-11.7c0.1,0.2,0.2,0.4,0.3,0.6c2.5,4.9,1.4,10.4-2.3,12.3
		s-8.8-0.5-11.2-5.4c-0.1-0.2-0.2-0.4-0.3-0.6C101.9,503.4,106.7,505.6,110.2,503.8L110.2,503.8z M115.5,514.3
		c3.6-1.8,4.7-6.9,2.6-11.7c0.1,0.2,0.2,0.4,0.3,0.6c2.5,4.9,1.4,10.4-2.3,12.3s-8.8-0.5-11.2-5.4c-0.1-0.2-0.2-0.4-0.3-0.6
		C107.2,513.9,112,516.1,115.5,514.3L115.5,514.3z M120.9,524.8c3.6-1.8,4.7-6.9,2.6-11.7c0.1,0.2,0.2,0.4,0.3,0.6
		c2.5,4.9,1.4,10.4-2.3,12.3s-8.8-0.5-11.2-5.4c-0.1-0.2-0.2-0.4-0.3-0.6C112.5,524.4,117.3,526.6,120.9,524.8L120.9,524.8z
		 M126.2,535.3c3.6-1.8,4.7-6.9,2.6-11.7c0.1,0.2,0.2,0.4,0.3,0.6c2.5,4.9,1.4,10.4-2.3,12.3s-8.8-0.5-11.2-5.4
		c-0.1-0.2-0.2-0.4-0.3-0.6C117.8,534.9,122.6,537.1,126.2,535.3L126.2,535.3z M131.5,545.8c3.6-1.8,4.7-6.9,2.6-11.7
		c0.1,0.2,0.2,0.4,0.3,0.6c2.5,4.9,1.4,10.4-2.3,12.3s-8.8-0.5-11.2-5.4c-0.1-0.2-0.2-0.4-0.3-0.6
		C123.2,545.5,127.9,547.6,131.5,545.8L131.5,545.8z M136.8,556.3c3.6-1.8,4.7-6.9,2.6-11.7c0.1,0.2,0.2,0.4,0.3,0.6
		c2.5,4.9,1.4,10.4-2.3,12.3s-8.8-0.5-11.2-5.4c-0.1-0.2-0.2-0.4-0.3-0.6C128.5,556,133.2,558.1,136.8,556.3L136.8,556.3z"/>
	<path opacity="0.1" enable-background="new    " d="M140.4,563.2c3.6-1.8,4.7-6.9,2.6-11.7c0.1,0.2,0.2,0.4,0.3,0.6
		c2.5,4.9,1.4,10.4-2.3,12.3s-8.8-0.5-11.2-5.4c-0.1-0.2-0.2-0.4-0.3-0.6C132,562.9,136.7,565.1,140.4,563.2L140.4,563.2z"/>
	<path d="M44.2,516.4c-0.6-1.6-0.9-3.2-1-4.9c-1.5,0-2.7-1.2-2.7-2.7c0-1.5,1.2-2.7,2.7-2.7c0.1,0,0.3,0,0.4,0
		c1.2-5.5,4.8-10.2,9.9-12.8c-0.7-1.3-0.1-2.9,1.2-3.6c1.3-0.7,2.9-0.1,3.6,1.2l0,0c0.1,0.2,0.2,0.5,0.2,0.7c6-1.1,12.2,0.8,16.6,5
		c1.7-0.3,3.3-0.3,5-0.1l2.2,9.9l0.1-9.6c10.1,2.3,16.5,12.5,14.1,22.6C94.1,529.7,84,536,73.9,533.6c-0.5-0.1-1.1-0.3-1.6-0.4
		c-0.3,0.5-0.7,0.8-1.1,1.1c-1.3,0.7-3,0.1-3.6-1.2c-0.4-0.7-0.4-1.5-0.1-2.3c-0.9-0.6-1.7-1.3-2.4-2c-8.1,1.3-16.1-2.7-19.8-10
		l10.1-1.7L44.2,516.4z"/>
	<path opacity="0.1" enable-background="new    " d="M59.9,521.3c3.8-5,6.1-10.8,8.7-16.4c1.1-2.3,2.2-4.6,3.6-6.7l2-2.3
		c0.3,0.3,0.7,0.6,1,0.9c1.7-0.3,3.3-0.3,5-0.1l2.2,9.9l0-9.5c10.1,2.3,16.5,12.5,14.1,22.6C94.1,529.7,84,536,73.9,533.6
		c-0.5-0.1-1.1-0.3-1.6-0.4c-0.3,0.5-0.7,0.8-1.1,1.1c-1.3,0.7-3,0.1-3.6-1.2c-0.4-0.7-0.4-1.5-0.1-2.3c-0.9-0.6-1.7-1.3-2.4-2
		c-3.9,0.6-7.8,0-11.3-1.7C56.1,525.5,58.2,523.5,59.9,521.3L59.9,521.3z"/>
</g>
<path opacity="0.1" enable-background="new    " d="M346.4,51.9c-4-0.8-8-0.3-11.7,1.3c-4.5,2-9.6,2-14.1,0
	c-5.3-2.3-11.4-2.2-16.6,0.3c-1.5,0.8-3.1,1.2-4.8,1.2c-6.7,0-12.3-6.8-13.5-15.7c1.3-1,2.5-2.2,3.4-3.6C293,29,299.1,25,305.9,25
	s12.9,4,16.8,10.3c2.4,3.9,6.6,6.2,11.2,6.1h0.2C339.4,41.4,344,45.7,346.4,51.9L346.4,51.9z"/>
<path opacity="0.1" enable-background="new    " d="M366.8,23.9l-10.9,6.9l6.6-12c-1.9-1.5-4.2-2.3-6.6-2.3h-0.2
	c-0.8,0-1.5,0-2.3-0.2l-3.7,2.3l1.6-2.9c-2.6-0.9-4.9-2.6-6.4-4.8l-6.6,4.1l4.2-7.6c-3.8-4.6-9-7.5-14.8-7.5
	c-6.9,0-13,4.1-16.9,10.4c-2.4,3.9-6.6,6.2-11.2,6h-0.3c-7.6,0-13.7,8.6-13.7,19.2s6.1,19.1,13.7,19.1c1.7,0,3.3-0.4,4.8-1.2
	c5.2-2.5,11.3-2.7,16.6-0.3c4.5,2,9.6,2,14.1,0c5.3-2.3,11.3-2.2,16.4,0.3c1.5,0.8,3.1,1.2,4.7,1.2c7.6,0,13.7-8.6,13.7-19.2
	C369.7,31.5,368.7,27.5,366.8,23.9z M120.3,190.4c-5.6-1.1-11.5-0.4-16.8,1.8c-6.4,2.8-13.7,2.8-20.1-0.1
	c-7.6-3.3-16.2-3.2-23.7,0.5c-2.1,1.1-4.4,1.7-6.8,1.7c-9.6,0-17.6-9.7-19.3-22.4c1.9-1.4,3.5-3.2,4.8-5.2
	c5.6-9.1,14.4-14.9,24.1-14.9s18.4,5.8,24,14.7c3.4,5.5,9.5,8.9,16,8.8h0.3C110.5,175.4,117.1,181.5,120.3,190.4z"/>
<path opacity="0.1" enable-background="new    " d="M149.6,150.4l-15.5,9.8l9.4-17.1c-2.7-2.1-6-3.3-9.4-3.4h-0.3
	c-1.1,0-2.2-0.1-3.2-0.2l-5.2,3.4l2.3-4.1c-3.7-1.3-6.9-3.8-9.2-7l-9.4,6l5.9-10.9c-5.5-6.6-12.9-10.7-21.1-10.7
	c-9.8,0-18.5,5.8-24.1,14.9c-3.4,5.5-9.5,8.8-16,8.6h-0.5c-10.8,0-19.6,12.3-19.6,27.4s8.8,27.4,19.6,27.4c2.4,0,4.7-0.6,6.8-1.7
	c7.4-3.6,16.1-3.8,23.7-0.5c6.4,2.9,13.7,2.9,20.1,0.1c7.5-3.3,16.1-3.1,23.5,0.4c2.1,1.1,4.4,1.7,6.7,1.7
	c10.8,0,19.6-12.3,19.6-27.4C153.7,161.3,152.3,155.5,149.6,150.4L149.6,150.4z M727.5,62.9l10.9,6.9l-6.6-12
	c1.9-1.5,4.2-2.3,6.6-2.3h0.2c0.8,0,1.5,0,2.3-0.2l3.7,2.3l-1.6-2.9c2.6-0.9,4.9-2.6,6.5-4.8l6.6,4.2l-4.2-7.6
	c3.9-4.6,9-7.5,14.8-7.5c6.8,0,13,4.1,16.9,10.4c2.4,3.9,6.6,6.2,11.2,6h0.4c7.6,0,13.7,8.6,13.7,19.2s-6.1,19.2-13.7,19.2
	c-1.7,0-3.3-0.4-4.8-1.2c-5.2-2.5-11.3-2.7-16.6-0.3c-4.5,2-9.6,2-14.1,0c-5.3-2.3-11.3-2.2-16.4,0.3c-1.5,0.8-3.1,1.2-4.7,1.2
	c-7.6,0-13.7-8.6-13.7-19.2C724.6,70.5,725.6,66.5,727.5,62.9z"/>
<path opacity="0.1" enable-background="new    " d="M748,90.9c4-0.7,8-0.3,11.7,1.3c4.5,2,9.6,2,14.1,0
	c5.3-2.3,11.4-2.2,16.6,0.3c1.5,0.8,3.1,1.2,4.8,1.2c6.7,0,12.3-6.8,13.5-15.7c-1.3-1-2.5-2.2-3.4-3.6c-3.9-6.4-10-10.5-16.9-10.5
	s-12.9,4-16.8,10.3c-2.4,3.9-6.6,6.2-11.2,6.2h-0.2C754.9,80.4,750.2,84.7,748,90.9L748,90.9z"/>
<ellipse opacity="0.1" enable-background="new    " cx="615.6" cy="756.9" rx="115" ry="20"/>
<path fill="#D0D2D5" d="M555.4,661.9l-178.2-2.3l0.5-4.6l8.6-75.4h156.5l11.5,75.4l0.9,5.7L555.4,661.9z"/>
<path opacity="0.1" enable-background="new    " d="M555.3,660.7h-88.9l-89.1-1.2l0.5-4.6h176.6L555.3,660.7L555.3,660.7z"/>
<path fill="#D0D2D5" d="M347.5,656.2H584v5.7H347.5V656.2z"/>
<path fill="#3F3D56" d="M809.6,126.8c0-8.2-6.6-14.9-14.8-14.9H134.5c-8.2,0-14.8,6.7-14.8,14.9c0,0,0,0,0,0v400.3h689.9
	L809.6,126.8z"/>
<path fill="#D0D2D5" d="M119.7,523.1V570c0,8.2,6.6,14.8,14.8,14.8h660.3c8.2,0,14.8-6.6,14.8-14.8v-46.9H119.7z"/>
<path fill="#FFFFFF" d="M148.2,137h636.2v359.8H148.2V137z"/>
<path opacity="0.1" enable-background="new    " d="M483.5,584.8l71.1,71.4l-10.9-71.4H483.5L483.5,584.8z"/>
<path opacity="0.1" fill="#444053" enable-background="new    " d="M147.7,137h636.9v21H147.7V137z"/>
<path opacity="0.3" enable-background="new    " d="M369.4,140.7h190.7c0.3,0,0.6,0.3,0.6,0.6v11.6
	c0,0.3-0.3,0.6-0.6,0.6H369.4c-0.3,0-0.6-0.3-0.6-0.6v-11.6C368.9,141,369.1,140.7,369.4,140.7z"/>
<path fill="#3F3D56" d="M555.1,148.4h-0.5l-0.2-0.1c0.6-0.7,0.9-1.6,0.9-2.5c0-2.1-1.7-3.8-3.8-3.7c-2.1,0-3.8,1.7-3.7,3.8
	c0,2.1,1.7,3.8,3.8,3.7c0.9,0,1.8-0.3,2.5-0.9l0.2,0.1v0.5l2.9,2.9l0.9-0.9L555.1,148.4z M551.6,148.4c-1.5,0-2.6-1.2-2.6-2.6
	c0-1.5,1.2-2.6,2.6-2.6c1.5,0,2.6,1.2,2.7,2.6c0,0,0,0,0,0C554.2,147.2,553,148.4,551.6,148.4C551.6,148.4,551.6,148.4,551.6,148.4z
	"/>
<circle opacity="0.8" fill="#FA5959" enable-background="new    " cx="159.2" cy="147.6" r="3.9"/>
<circle opacity="0.8" fill="#FED253" enable-background="new    " cx="169.8" cy="147.6" r="3.9"/>
<circle opacity="0.8" fill="#8CCF4D" enable-background="new    " cx="180.4" cy="147.6" r="3.9"/>
<path d="M468.1,567c4.7,0,9.2-2.2,12.1-5.9c0.4-0.6,0.8-1.1,1.2-1.8l-8.5-1.4l9.1,0.1c1.8-3.9,1.9-8.3,0.3-12.2
	l-12.3,6.4l11.3-8.3c-4.3-7.4-13.7-9.9-21.1-5.6s-9.9,13.7-5.6,21.1c0.4,0.6,0.8,1.2,1.2,1.8C458.9,564.8,463.3,567,468.1,567
	L468.1,567z M500,291.4c-8.7-11.6-21.4-18.9-35.5-18.9s-26.7,7.3-35.5,18.9c1.9,4.7,4.8,9,8.4,12.6c15,14.9,39.2,14.9,54.1,0
	C495.3,300.4,498.1,296.1,500,291.4z M424.5,298.2c-0.6-0.3-1.2-0.6-1.8-1c-0.8-0.7-1.5-1.5-1.9-2.5c1.7-3.6,0.3-7.9-3.3-9.6
	c-3.6-1.7-7.9-0.3-9.6,3.3c-1.3,2.7-0.8,5.9,1.2,8c0.5,0.5,1.1,1,1.7,1.4c0.8,0.5,1.5,1.2,1.9,2c0.8,1.7,1.9,3.1,3.3,4.4
	c1.4,1.2,2.9,2.3,4.5,3.2c-2.2,6.3-3.5,12.9-3.7,19.6c-2.6,0-5.2,0.5-7.6,1.2c-1.3,0.4-2.5,1-3.5,1.8c-0.3,0-0.6-0.1-0.9-0.1
	c-4,0-7.2,3.2-7.2,7.2c0,4,3.2,7.2,7.2,7.2c3,0,5.7-1.9,6.7-4.7c0.6-1.6,2-2.8,3.7-3c0.6-0.1,1.2-0.1,1.9-0.1
	c0.9,9.4,3.8,18.5,8.5,26.7c-4.2,3.3-6.9,6.9-8,10.9c-0.2,0.1-0.4,0.3-0.6,0.4c-0.3,0.2-0.6,0.5-0.8,0.8c-2.7,2.9-2.5,7.5,0.5,10.1
	c2.9,2.7,7.5,2.5,10.1-0.5c1.8-2,2.4-4.8,1.4-7.3c-0.7-1.8-0.2-3.8,1.2-5.1c0.5-0.5,1-0.9,1.7-1.5c8.1,9.5,17.8,15.5,29.8,16.3V323
	C445.1,322.1,431.2,311.7,424.5,298.2L424.5,298.2z M524.3,329.9c-0.3,0-0.6,0-0.9,0.1c-1.1-0.8-2.3-1.3-3.5-1.8
	c-2.5-0.8-5-1.2-7.6-1.2c-0.3-6.7-1.5-13.3-3.7-19.5c1.6-0.9,3.1-2,4.5-3.2c1.4-1.3,2.6-2.8,3.4-4.6c0.4-0.7,1-1.4,1.8-1.8
	c3.5-1.9,4.7-6.3,2.7-9.8c-1.9-3.5-6.3-4.7-9.8-2.7c-3.3,1.9-4.6,5.9-3,9.3c-0.4,1-1.1,1.8-1.9,2.5c-0.6,0.5-1.1,0.9-1.8,1.3
	c-6.7,13.5-20.6,23.6-36.5,24.5v64.3c12-0.7,21.7-6.8,29.8-16.3c0.6,0.5,1.2,1,1.6,1.4c1.4,1.3,1.9,3.4,1.3,5.2
	c-1.4,3.7,0.5,7.8,4.3,9.2c3.7,1.4,7.8-0.5,9.2-4.3c0.9-2.5,0.4-5.3-1.4-7.3c-0.3-0.3-0.5-0.5-0.8-0.8c-0.3-0.3-0.6-0.4-0.6-0.4
	c-1.1-4-3.7-7.6-8-10.9c4.8-8.2,7.7-17.3,8.5-26.7c0.6,0,1.2,0,1.8,0.1c1.7,0.2,3.2,1.4,3.8,3c1.4,3.7,5.6,5.5,9.3,4.1
	c2.6-1,4.4-3.5,4.5-6.2c0.2-4-2.9-7.4-6.9-7.7C524.5,329.9,524.4,329.9,524.3,329.9L524.3,329.9z"/>
<linearGradient id="SVGID_1_" gradientUnits="userSpaceOnUse" x1="677.1849" y1="-27.3143" x2="677.1849" y2="301.0476" gradientTransform="matrix(0.9992 -4.030618e-02 -4.030618e-02 -0.9992 -75.912 766.3738)">
	<stop  offset="0" style="stop-color:#808080;stop-opacity:0.25"/>
	<stop  offset="0.54" style="stop-color:#808080;stop-opacity:0.12"/>
	<stop  offset="1" style="stop-color:#808080;stop-opacity:0.1"/>
</linearGradient>
<path fill="url(#SVGID_1_)" d="M681,745.2c-0.6-0.9-1.3-1.7-2.2-2.4c-4.4-4.1-6.4-10.2-7.5-16.1s-1.4-12-3.1-17.8
	c-0.9-3-2.1-5.9-3.5-8.7c-1-2.1-2.3-6.3-4.1-7.8c-0.4-0.3-0.8-0.5-1.3-0.6c-0.9-1.8-2.1-3.5-3.6-4.8c-2.9-2.6-6.3-4.7-8.3-8
	c-0.5-1.2-1.2-2.3-1.9-3.3c-1.3-1.4-3.3-2-4.5-3.5c-1.5-1.9-1.2-4.7-1-7.2s0-5.4-2.1-6.7c-1.3-0.8-2.9-0.7-4.3-1.4
	c-2-1-2.8-3.5-2.8-5.8s0.7-4.4,0.9-6.7c0.6-7.2-4.2-14.3-2.3-21.2c0.7-2.6,2.3-4.9,3.4-7.4c0.4-0.8,0.7-1.7,1-2.5
	c3.1,1.2,6.4,2,9.7,2.3c-5.5-12.4-4.1-26.7-6.7-40l0.3-0.5c2.6-3.4,4.1-7.6,4.2-11.9c0-4.9-2.3-9.6-3.3-14.4
	c-0.9-4.1-0.8-8.4-2-12.5c-0.8-2.5-1.9-4.9-3.2-7.2c-1.2-2.3-2.6-4.6-3.9-6.8c-1.3-4.2-2.6-8.5-3.8-12.7c-1.8-6-3.7-12-7.2-17.1
	c-1.3-1.9-1.7-5.7-3.6-6.8c-1.6-0.8-3.4-1.1-5.2-0.9c-2.8-1.6-5.2-3.8-5.6-6.9c0-0.7,0-1.3,0.2-2h0.3c4.4-0.4,6.6-4.3,8.9-7.7
	c3.7-5.5,2.3-12.9,0-19.2c-0.6-2-1.6-3.8-3-5.3c-3.2-3-8.3-2.3-12.4-3.8c-1.4-0.5-2.7-1.2-4.1-1.5c-2.8-0.6-5.6,0.3-8.2,1.5
	s-4.9,2.9-7.5,3.9s-5.9,1.8-6.5,4.5c-0.2,0.9-0.1,1.9,0.2,2.7c0.6,1.7,1.7,3.3,3.1,4.5c-4.3,8.9-0.6,19.5,8.3,23.8
	c0.8,0.4,1.7,0.8,2.6,1c0.8,1.2,1.5,2.5,2.1,3.7c1.2,2.2,2.1,4.9,1.7,7.3c-0.7,0.8-1.4,1.6-2,2.5c-2.9,4-4.5,8.7-6,13.4
	c-2,6-3.6,12.1-4.8,18.3c-2.4,5.2-5.4,10.2-7.2,15.6c-3.2,0-6.3-0.4-9.4-1.3l-8.4-1.9c-2.9-0.7-6-1.4-8.3-3.3
	c-1.2-1-2.2-2.3-3.4-3.3s-3.7-2.2-5.1-1.3c-0.2,0.2-0.5,0.3-0.7,0.5c-1.2-2.5-2.4-5-3.9-7.4c-2.1-3.4-5.2-6.5-9-7.2
	c-2.4-0.4-4.8,0.2-6.8,1.6c-2.3,1.6-3.7,5-2,7.3c0.4,0.5,0.9,1,1.4,1.4c1.2,1.3,2.2,2.8,3.1,4.3c3.2,4.5,8,7.7,13.5,8.8l-0.3,1
	c-0.7,2.1-2.2,4.6-1.8,6.8l37.5,12.8c2.4,1,5,1.5,7.6,1.7c1,0,2-0.1,3-0.4v2c0.1,13.2-2,26.3-2.4,39.5c-0.1,2.4,0,5,1.5,6.9
	c1.7,2.1,4.7,2.5,7.3,2c0.6-0.1,1.3-0.2,1.9-0.4c0.9,3.3,1.5,6.7,1.9,10.1l2.5,17.9c0.3,1.8,0.4,3.7,0.4,5.5
	c-0.3,4.2-2.5,7.9-4.1,11.8s-2.5,8.5-0.5,12.1c0.7,1.1,1.6,2.1,2.2,3.2c0.7,1.8,1.1,3.7,1,5.7c0.2,5.4,0.3,10.8,0.4,16.2
	c-0.4-0.1-0.9,0-1.3,0.3c-2.1,1.6-1.8,9.3-2,11.7c-0.2,4,0,8.1-0.2,12.1c-0.3,5.4-1.1,10.8-2.6,16.1c-0.4,1.7-1.1,3.3-2.3,4.6
	c-1.2,1-2.6,1.7-4.1,2.1c-5,1.6-10.2,2.3-15.4,2.1c-2.1-0.1-4.3-0.3-6.3,0.5s-3.5,3-2.8,5c0.6,1.7,2.5,2.5,4.1,3.1
	c3.8,1.3,7.5,3,11,5.1c1.3,0.9,2.8,1.7,4.3,2.4c1.4,0.5,2.9,0.9,4.4,1.1l17.7,3.1c3.6,0.6,8,1,10.3-2c1.3-1.6,1.4-3.8,1.4-5.9
	c-0.1-4-0.9-8.1-0.4-12.1c0.4-2.4,1-4.7,1.9-6.9c1.8-5.2,3.5-10.5,5.3-15.7c1.8-5.3,3.6-10.6,4.3-16.1c0.3-2,0.2-4.3-1.3-5.5
	c-0.4-0.3-0.8-0.5-1.3-0.7c-0.1-4.8-0.7-9.7-0.4-14.5c0.1-1.2,0.2-2.4,0.3-3.6c0.9,0.9,1.8,1.9,2.5,2.9c1.7,2.7,2.3,6.2,5,8
	c2.2,1.5,5.5,1.4,7.1,3.6c0.5,0.8,0.9,1.8,1.1,2.7c0.9,2.4,2.3,4.5,4,6.3c0.6,2.2,1.4,4.3,2.5,6.3c1.5,3.1,2.9,6.2,4.4,9.3
	c1.5,3.3,3.2,6.6,5,9.8c1.4,2,2.5,4.2,3.3,6.5c1.4,4.9-0.9,10.4-4.5,14s-8.4,5.7-13.2,7.7c-0.5,0.2-1,0.4-1.3,0.8
	c-0.4,0.5-0.6,1.1-0.6,1.7c0,2.3,1.9,4.3,4.1,5c2.2,0.6,4.6,0.7,6.8,0.3c12.8-1.5,25.5-4.7,36.8-10.9c1.7-0.8,3.2-2,4.4-3.4
	C681.5,749,681.7,747,681,745.2L681,745.2z"/>
<path fill="#2F2E41" d="M627,521c2.1,3.3,4.1,6.6,6,10.1c1.3,2.3,2.4,4.7,3.2,7.2c1.2,4,1.1,8.3,2,12.3c1,4.8,3.3,9.4,3.3,14.3
	c-0.2,4.3-1.6,8.4-4.2,11.8c-2.6,3.4-5.5,6.4-8.8,9.1c-7.6-19.6-11.8-40.3-12.5-61.2c-0.1-2.9-0.1-5.9,0.9-8.6
	c0.7-1.7,3.8-6.4,5.8-4.5c0.7,0.7,0.9,3.7,1.4,4.7C624.9,517.8,625.9,519.4,627,521L627,521z"/>
<path opacity="0.1" enable-background="new    " d="M627,521c2.1,3.3,4.1,6.6,6,10.1c1.3,2.3,2.4,4.7,3.2,7.2c1.2,4,1.1,8.3,2,12.3
	c1,4.8,3.3,9.4,3.3,14.3c-0.2,4.3-1.6,8.4-4.2,11.8c-2.6,3.4-5.5,6.4-8.8,9.1c-7.6-19.6-11.8-40.3-12.5-61.2
	c-0.1-2.9-0.1-5.9,0.9-8.6c0.7-1.7,3.8-6.4,5.8-4.5c0.7,0.7,0.9,3.7,1.4,4.7C624.9,517.8,625.9,519.4,627,521L627,521z"/>
<path fill="#D0D2D5" d="M363.4,384.5c-7.9,7.9-8.9,11.4-13.6,13s-21.8,10.4-16.5,20.2l14.4,9.5l0.4,0.3l2.2,6.6l-21.8,38.9
	c0,0-36-16.5-39.5,7.9s-1.3,31-2.2,44s0.3,16.8-2.9,16.8s-4.4-8.5-4.4-8.5s-0.2-0.4-0.5-1.1c-4.7-9.8-36.7-81.7,14.5-131.1
	c0,0,23.7-1.6,29.4-28.8c3.9-18.8,17.7-17.2,26.9-13.4c3,1.2,5.8,2.8,8.2,4.8c2.2,2.1,4.2,4.5,5.9,7
	C366.5,374.8,367.9,380,363.4,384.5L363.4,384.5z"/>
<path opacity="0.1" enable-background="new    " d="M348.1,427.5l2.2,6.6l-21.8,38.9c0,0-36-16.5-39.5,7.9s-1.3,31-2.2,44
	c-0.9,13,0.3,16.8-2.9,16.8s-4.4-8.5-4.4-8.5s-0.2-0.4-0.5-1.1c-1.6-12.2-9.6-83.3,19.6-79.5c0,0,23.7,11.1,27.5,6.7
	c3-3.5,16.3-23.6,21.7-31.9L348.1,427.5z M363.9,370.7l-14.4,16.4c0,0-16.8,22.4-20.3,21.5c-1-0.2-2.1-0.4-3.2-0.4
	c-3.4-0.3-5.9-3.2-5.7-6.6c0.1-1.4,0.7-2.7,1.7-3.8c5.7-6,16.3-17.4,17-19.9s7.4-13.6,10.8-19c3,1.2,5.8,2.8,8.2,4.8
	C360.2,365.8,362.1,368.1,363.9,370.7L363.9,370.7z"/>
<path fill="#454B69" d="M772.4,606.7c-2.5,4.9-15,23.3-20.5,31.3l-2.6,3.8c0,0-1,6.6-17.4-1.6S330.5,469.5,330.5,469.5l-2.6-7.8
	l19-28.5l422.1,163.1C768.9,596.3,775.6,600.4,772.4,606.7z"/>
<path opacity="0.1" enable-background="new    " d="M751.9,638l-2.6,3.8c0,0-1,6.6-17.4-1.6S330.5,469.5,330.5,469.5l-2.6-7.8
	L751.9,638z"/>
<path fill="#FBBEBE" d="M519.6,531.9c-3.9-0.6-8.3-0.3-11.3,2.2c-1.8,1.6-3,3.8-3.2,6.2c-0.3,2.8,1.4,6.1,4.1,6.3c0.7,0,1.3,0,2-0.1
	c1.8,0,3.5,0.1,5.2,0.4c6.9,0.6,13.7-2.1,18.2-7.4c2.4-3-0.8-4.3-3.6-4.9C527.3,533.8,523.5,532.5,519.6,531.9z"/>
<path fill="#3F3D56" d="M586.5,622.2l2.5,17.6c0.3,1.8,0.4,3.7,0.4,5.5c-0.3,4.2-2.5,7.9-4.1,11.7s-2.6,8.4-0.5,12
	c0.7,1.1,1.6,2.1,2.2,3.2c0.7,1.8,1.1,3.7,1,5.6l0.7,25c7.7,0.5,15.5,0.5,23.2-0.1c0.3,0,0.6-0.1,0.8-0.3c0.2-0.3,0.3-0.6,0.3-0.9
	c0.3-5.8-0.7-11.7-0.3-17.6c0.1-2.1,0.4-4.3,0.5-6.4c0.1-8.7-4.2-17.2-2.9-25.8c0.4-2.2,0.9-4.3,1.6-6.4c4.1-15,3.2-30.8,2.3-46.3
	c0-0.2-0.1-0.5-0.2-0.7c-0.1-0.1-0.3-0.2-0.5-0.3c-8.9-2.7-18.5-0.8-25.8,4.9c-1.1,0.9-3.8,1.7-4.6,2.8c-1,1.5,0.3,2.9,0.9,4.5
	C585.2,614.1,586.1,618.1,586.5,622.2L586.5,622.2z"/>
<path opacity="0.1" enable-background="new    " d="M586.5,622.2l2.5,17.6c0.3,1.8,0.4,3.7,0.4,5.5c-0.3,4.2-2.5,7.9-4.1,11.7
	s-2.6,8.4-0.5,12c0.7,1.1,1.6,2.1,2.2,3.2c0.7,1.8,1.1,3.7,1,5.6l0.7,25c7.7,0.5,15.5,0.5,23.2-0.1c0.3,0,0.6-0.1,0.8-0.3
	c0.2-0.3,0.3-0.6,0.3-0.9c0.3-5.8-0.7-11.7-0.3-17.6c0.1-2.1,0.4-4.3,0.5-6.4c0.1-8.7-4.2-17.2-2.9-25.8c0.4-2.2,0.9-4.3,1.6-6.4
	c4.1-15,3.2-30.8,2.3-46.3c0-0.2-0.1-0.5-0.2-0.7c-0.1-0.1-0.3-0.2-0.5-0.3c-8.9-2.7-18.5-0.8-25.8,4.9c-1.1,0.9-3.8,1.7-4.6,2.8
	c-1,1.5,0.3,2.9,0.9,4.5C585.2,614.1,586.1,618.1,586.5,622.2L586.5,622.2z"/>
<path fill="#3F3D56" d="M632.9,616.9c-1.2,2.4-2.7,4.7-3.4,7.3c-1.8,6.9,2.9,14,2.3,21.1c-0.2,2.2-0.9,4.4-0.9,6.6s0.8,4.7,2.8,5.7
	c1.3,0.7,3,0.6,4.3,1.4c2.1,1.3,2.3,4.2,2.1,6.7s-0.6,5.2,1,7.1c1.2,1.5,3.2,2.1,4.5,3.5c0.8,1,1.4,2.1,1.9,3.3
	c1.9,3.3,5.4,5.4,8.3,8s5.3,6.5,4,10.1c-0.9,2.7-3.6,4.3-6.1,5.5c-4.6,2.3-9.5,4-14.6,5.2c-0.5,0.2-1.1,0.2-1.7,0.1
	c-0.6-0.2-1.1-0.5-1.5-1c-3-2.9-6-5.9-7.4-9.8c-0.2-0.9-0.6-1.8-1.1-2.7c-1.6-2.2-4.8-2.1-7.1-3.6c-2.6-1.8-3.2-5.3-4.9-7.9
	s-4.2-4.2-6-6.6c-3.1-3.9-3.8-9.1-6-13.5c-0.9-1.9-2.1-3.6-2.9-5.6c-0.7-2.3-1.2-4.8-1.4-7.2c-1.4-11.7-5-23.4-2.7-35
	c0.5-2.5,1.3-5,1.6-7.6c0.5-4.5-0.3-9.2,0.3-13.7c0-1.1,0.6-2.2,1.5-2.9c0.5-0.2,1.1-0.4,1.7-0.3c5.9-0.3,11.9-0.2,17.8,0.4
	c3,0.3,6.4,0.9,8.2,3.3c1.5,2.1,1.5,4.9,1.9,7.5c0.6,3.1,2.2,4.8,3.9,7.3S634.1,614.4,632.9,616.9L632.9,616.9z"/>
<path fill="#2F2E41" d="M609.8,698.2c1.6,0,3.3-0.1,4.5,0.9c1.5,1.3,1.5,3.5,1.3,5.5c-0.7,5.5-2.5,10.8-4.3,16l-5.3,15.6
	c-0.8,2.2-1.5,4.5-1.9,6.9c-0.5,4,0.3,8,0.4,12c0,2-0.1,4.2-1.4,5.8c-2.3,2.9-6.7,2.6-10.3,2l-17.7-3c-1.5-0.2-3-0.6-4.4-1.1
	c-1.5-0.7-2.9-1.5-4.3-2.4c-3.5-2-7.2-3.7-11-5c-1.7-0.6-3.5-1.4-4.1-3.1c-0.7-2,0.9-4.2,2.8-5s4.2-0.6,6.3-0.5
	c5.2,0.2,10.4-0.5,15.4-2.1c1.5-0.4,2.9-1.1,4.1-2.1c1.2-1.3,2-3,2.3-4.7c1.5-5.2,2.4-10.6,2.7-16c0.2-4,0.1-8,0.2-12
	c0.1-2.4-0.1-10,2-11.6c1.6-1.2,8.1,2.2,10.3,2.6C601.5,697.8,605.7,698.3,609.8,698.2L609.8,698.2z M668.2,709.3
	c1.7,5.7,2,11.8,3.1,17.7s3.1,11.9,7.5,16c0.9,0.7,1.6,1.5,2.2,2.4c0.8,1.7,0.5,3.8-0.8,5.2c-1.2,1.4-2.7,2.6-4.4,3.4
	c-11.3,6.2-24,9.3-36.8,10.8c-2.3,0.4-4.6,0.3-6.8-0.3c-2.2-0.7-4.1-2.7-4.1-5c0-0.6,0.2-1.2,0.6-1.7c0.4-0.4,0.8-0.6,1.3-0.8
	c4.7-1.9,9.5-4,13.2-7.6s5.9-9,4.5-13.9c-0.8-2.3-2-4.4-3.4-6.4c-1.8-3.1-3.5-6.4-5-9.7l-4.4-9.2c-1.3-2.7-2.6-5.5-2.8-8.5
	c5.5,0.2,11-0.6,16.2-2.6c2.4-1,4.7-2.3,6.7-4c1.7-1.4,3.3-4.1,5.5-2.2c1.8,1.5,3,5.7,4.1,7.8C666.1,703.4,667.2,706.3,668.2,709.3
	L668.2,709.3z"/>
<path fill="#FBBEBE" d="M603.7,480.1c0.4,3.8,4.2,6.4,7.7,7.9l-22.5,7.2c1.5-2.8,0.3-6.2-1.2-9c-1.2-2.2-2.5-4.4-4-6.4
	c-0.2-0.3-0.5-0.7-0.3-1.1c0.1-0.2,0.4-0.4,0.6-0.5c4.6-2.1,9.4-4.2,14.4-4.9c1.5-0.2,4.2-0.8,5.3,0.7S603.5,478.3,603.7,480.1
	L603.7,480.1z"/>
<path opacity="0.1" enable-background="new    " d="M603.7,480.1c0.4,3.8,4.2,6.4,7.7,7.9l-22.5,7.2c1.5-2.8,0.3-6.2-1.2-9
	c-1.2-2.2-2.5-4.4-4-6.4c-0.2-0.3-0.5-0.7-0.3-1.1c0.1-0.2,0.4-0.4,0.6-0.5c4.6-2.1,9.4-4.2,14.4-4.9c1.5-0.2,4.2-0.8,5.3,0.7
	S603.5,478.3,603.7,480.1L603.7,480.1z"/>
<circle fill="#FBBEBE" cx="590.6" cy="465.6" r="17.6"/>
<path fill="#2F2E41" d="M575.3,610.6c1.7,2,4.7,2.5,7.3,2c6.2-1,11.2-5.5,17.2-7.2c7.4-2,15.2,0.6,22.2,3.7s13.9,7,21.5,7.5
	c-6.9-15.4-3-33.8-9.5-49.3c-1.6-3.8-3.9-7.4-4.2-11.5c-0.5-5.1,2.1-10,2.5-15.1c0.4-4.5-1-9-2.3-13.3l-4.8-15.8
	c-1.8-5.9-3.7-11.9-7.1-17c-1.3-1.9-1.7-5.7-3.6-6.8c-4.3-2.5-10.8,0.6-15.4,0.8s-8.9,3.5-11.6,7.2c-2.9,3.9-4.5,8.6-6,13.3
	c-2.4,6.9-4.2,14-5.3,21.2c-0.2,1.1-0.3,2.2-0.4,3.3c-1,10.3,0.5,20.6,0.5,30.9v0.1c0.1,13.1-2,26.1-2.4,39.2
	C573.8,606.2,573.9,608.8,575.3,610.6L575.3,610.6z"/>
<path opacity="0.1" enable-background="new    " d="M576.3,564.5c3.5-0.9,6.6-3.1,9.3-5.5c2.3-2.1,4.4-4.4,6.1-7
	c2.2-3.5,4-7.2,5.3-11.1c3.7-10.4,6.1-21.3,7-32.3c0.3-3,0.3-6.2-1.5-8.6c-2.1-2.7-5.7-3.5-8.8-2.1c-2.4,1.1-3.9,3.5-5.3,5.7
	c-2.8,4.4-5.6,8.9-7.5,13.8c-0.8,2.2-1.4,4.4-2.2,6.6c-0.8,2.2-1.7,4.3-2.7,6.3c-0.2,1.1-0.3,2.2-0.4,3.3
	C574.8,543.9,576.2,554.2,576.3,564.5z"/>
<path fill="#2F2E41" d="M602.5,498.1c1.8,2.4,1.7,5.6,1.5,8.6c-0.9,11-3.3,21.9-7,32.3c-1.3,3.9-3.1,7.7-5.3,11.2
	c-1.8,2.6-3.8,4.9-6.1,7c-3.4,3.1-7.5,5.9-12.2,5.9c-2.6-0.1-5.2-0.7-7.6-1.7l-37.5-12.8c-0.4-2.1,1.1-4.6,1.8-6.7l2-5.9
	c0.6-1.6,1.2-3.4,2.7-4.3s3.8,0.3,5.1,1.3s2.2,2.3,3.4,3.3c2.3,1.9,5.4,2.6,8.3,3.3l8.4,1.9c3.1,0.8,6.2,1.3,9.4,1.3
	c2.3-7.2,6.8-13.5,9.3-20.6c0.8-2.2,1.4-4.4,2.2-6.6c1.8-4.9,4.6-9.4,7.5-13.8c1.4-2.2,2.9-4.5,5.3-5.7
	C596.7,494.5,600.4,495.4,602.5,498.1L602.5,498.1z M596.2,469.6c-0.1-1.2-0.5-2.3-1.1-3.3c-0.6-1-1.8-1.6-3-1.3
	c-1.8,0.5-2.3,3.3-4.2,3.4c-1.2,0.1-2.1-1.2-2.5-2.4s-0.6-2.5-1.5-3.4c-0.6-0.5-1.4-0.8-2.2-1c-4.3-1.4-8.7-3.8-10.1-8.1
	c-0.3-0.9-0.4-1.8-0.2-2.7c0.7-2.7,4-3.5,6.5-4.5s5-2.6,7.5-3.9s5.4-2.1,8.2-1.5c1.4,0.4,2.8,0.9,4.1,1.5c4.1,1.4,9.2,0.8,12.4,3.8
	c1.4,1.5,2.4,3.3,3,5.2c2.2,6.2,3.7,13.6,0,19.1c-2.3,3.4-4.5,7.2-8.9,7.6C599.1,478.5,597,473.9,596.2,469.6z"/>
<path opacity="0.1" enable-background="new    " d="M588.4,463.8c-0.4-1.2-0.6-2.5-1.5-3.4c-0.6-0.5-1.4-0.8-2.2-1
	c-4.3-1.4-8.7-3.8-10.1-8.1c-0.3-0.9-0.4-1.8-0.2-2.7c0.1-0.4,0.3-0.8,0.5-1.2c-1.6,0.7-3,1.6-3.5,3.3c-0.2,0.9-0.1,1.8,0.2,2.7
	c1.4,4.3,5.8,6.7,10.1,8.1c0.8,0.2,1.5,0.5,2.2,1c0.9,0.8,1.1,2.2,1.5,3.4s1.3,2.4,2.5,2.4s1.8-1.2,2.6-2.1
	C589.6,466,588.8,464.9,588.4,463.8L588.4,463.8z M607.1,476c-5.1,0.5-7.2-4.2-8-8.5c-0.1-1.2-0.4-2.3-1-3.3c-0.6-1-1.8-1.6-3-1.3
	c-0.9,0.4-1.7,1.1-2.2,2c0.9,0.1,1.8,0.6,2.3,1.4c0.6,1,0.9,2.1,1.1,3.3c0.8,4.3,2.8,9,8,8.5c2-0.2,3.9-1.2,5.3-2.7
	C608.8,475.7,608,475.9,607.1,476z"/>
<g>
	<ellipse cx="813.1" cy="655.8" rx="32.3" ry="6.2"/>
	<ellipse fill="#3F3D56" cx="812.6" cy="653.1" rx="3.8" ry="4.9"/>
	<ellipse fill="#3F3D56" cx="812.6" cy="647.1" rx="3.8" ry="4.9"/>
	<ellipse fill="#3F3D56" cx="812.6" cy="641.1" rx="3.8" ry="4.9"/>
	<ellipse fill="#3F3D56" cx="812.6" cy="635.1" rx="3.8" ry="4.9"/>
	<ellipse fill="#3F3D56" cx="812.6" cy="629.1" rx="3.8" ry="4.9"/>
	<ellipse fill="#3F3D56" cx="812.6" cy="623.1" rx="3.8" ry="4.9"/>
	<ellipse fill="#3F3D56" cx="812.6" cy="617" rx="3.8" ry="4.9"/>
	<path d="M826.6,575.9c0.5-0.7,1-1.3,1.4-2.1l-9.9-1.6l10.7,0.1c2.1-4.5,2.2-9.7,0.3-14.3l-14.3,7.4l13.2-9.7
		c-5-8.6-16-11.5-24.6-6.5c-8.6,5-11.5,16-6.5,24.6c0.4,0.7,0.9,1.4,1.4,2.1c-0.8,1-1.5,2.1-2.1,3.3l12.8,6.7l-13.7-4.6
		c-1.9,5.8-0.8,12.1,2.9,16.9c-6.1,7.8-4.8,19.1,3,25.3s19.1,4.8,25.3-3c5.1-6.5,5.1-15.7,0-22.2
		C831.8,591.6,831.8,582.4,826.6,575.9L826.6,575.9z"/>
	<path opacity="0.1" enable-background="new    " d="M794.5,587c0,4,1.4,8,3.9,11.1c-6.1,7.8-4.8,19.1,3,25.3s19.1,4.8,25.3-3
		c5.1-6.5,5.1-15.7,0-22.2C829,595.1,794.5,585,794.5,587z"/>
</g>
<g>
	<ellipse cx="148.4" cy="776.9" rx="46.5" ry="8.9"/>
	<ellipse fill="#3F3D56" cx="147.6" cy="773.1" rx="5.4" ry="7.1"/>
	<ellipse fill="#3F3D56" cx="147.6" cy="764.4" rx="5.4" ry="7.1"/>
	<ellipse fill="#3F3D56" cx="147.6" cy="755.8" rx="5.4" ry="7.1"/>
	<ellipse fill="#3F3D56" cx="147.6" cy="747.1" rx="5.4" ry="7.1"/>
	<ellipse fill="#3F3D56" cx="147.6" cy="738.4" rx="5.4" ry="7.1"/>
	<ellipse fill="#3F3D56" cx="147.6" cy="729.8" rx="5.4" ry="7.1"/>
	<ellipse fill="#3F3D56" cx="147.6" cy="721.1" rx="5.4" ry="7.1"/>
	<path d="M167.9,661.8c0.7-1,1.4-2,2-3l-14.2-2.3l15.4,0.1c3-6.5,3.2-13.9,0.5-20.5l-20.6,10.7l19-14
		c-7.2-12.4-23-16.7-35.4-9.5c-12.4,7.2-16.7,23-9.5,35.4c0.6,1.1,1.3,2.1,2.1,3.1c-1.2,1.5-2.2,3-3,4.7l18.5,9.6l-19.7-6.6
		c-2.8,8.3-1.2,17.5,4.3,24.4c-8.9,11.3-6.9,27.6,4.3,36.4c11.3,8.9,27.6,6.9,36.4-4.3c7.4-9.4,7.4-22.7,0-32.1
		C175.3,684.5,175.3,671.3,167.9,661.8L167.9,661.8z"/>
	<path opacity="0.1" enable-background="new    " d="M121.6,677.9c0,5.8,2,11.4,5.6,16c-8.9,11.3-6.9,27.6,4.3,36.4
		c11.3,8.9,27.6,6.9,36.4-4.3c7.4-9.4,7.4-22.7,0-32.1C171.3,689.5,121.6,675,121.6,677.9z"/>
</g>
</svg>
