<svg version="1.1" id="图层_1" xmlns="http://www.w3.org/2000/svg" x="0" y="0" viewBox="0 0 1132.4 767.1" xml:space="preserve"><style>.st9{fill:none;stroke:#3f3d56;stroke-miterlimit:10}.st10{opacity:.1;fill:#3f3d56}.st12{fill:#7cfcff}.st14{fill:#ffffa5}.st18{fill:#ff69b4}.st26{fill:#303d5c}.st27{fill:#ee8e9e}.st28{opacity:5.000000e-02}</style><path d="M612.7 112.3c-69.6-.1-136.6-21.7-200.8-45.8S284.1 15.6 215.8 4.1c-44-7.4-93.9-6.9-128.2 19.4-33 25.3-42.4 67.3-46.9 106.1-3.4 29.2-4.9 59.8 8.2 86.6 9.1 18.6 24.6 33.9 35.6 51.6 38.2 61.6 15.5 140-21.2 202.8C46 500 25.8 528.2 12.8 559.4S-5.5 625.9 8 656.7c13.3 30.6 43.3 52.9 75.4 68.1 65.3 31 141.2 37.8 215 40.6 163.5 6.1 327.2-4.8 490.5-15.8 60.4-4.1 121.1-8.2 180.3-20.3 32.8-6.7 66.7-16.8 89.9-38.9 29.5-28.1 35.4-74.2 13.8-107.3-36.3-55.7-131.4-66.5-157.5-126.6-14.4-33.1-2.2-71 15.9-102.9 38.7-68.3 105.4-129.4 106.3-205.9.6-52.6-34.3-103.9-86.4-126.9C896.5-3.4 822.3 2.5 784.3 47c-39.2 45.8-110.2 65.4-171.6 65.3z" opacity=".1"/><path class="st1" d="M1061.5 431.4s-10-33.9-25.9-31.3c0 0 6.9 25.9 25.3 36.5l.6-5.2zm1.7-28.2s-9.4-28.2-25-29.4c0 0 6.4 27.8 24.7 36.7l.3-7.3zm1.9-26.4s-11.7-28.3-22-28.9c0 0 5.1 27.8 21 33.5l1-4.6zm1.3-24.5s-7.2-30.7-17.5-33.2c0 0 1.4 25.1 16.5 35.5l1-2.3zm3.9-32.1s-7.6-24.5-15.9-28.2c0 0 1.7 28.8 14 34.2l1.9-6zm3.2-21.1l1.5-43.1s-15.6 32.5-2.7 50.8l1.2-7.7zm12.1-42.8s11.3-31.5 14-33.3c0 0-22.1 20.4-19.9 46.7l5.9-13.4zm-92 339.1s19.8-2.6 19.2 25.4c0 0-17.9 2.9-23.8-20.3l4.6-5.1zm18.7-23.1s22.9-.1 21 28.6c0 0-19.2 3.4-25.6-23.2l4.6-5.4zm12.7-20.7s20.8-9.8 34.1 15.4c0 0-19.2 8.1-35.9-11.3l1.8-4.1zm13.1-24.4s21.3-10.4 33.8 14.2c0 0-22.2 7.6-35.5-10.3l1.7-3.9zm7.5-21.2s20.5-19.6 36.8.2c0 0-20.9 16.1-37.8 4.1l1-4.3zm6.9-27.3s20.6-20 36.8.9c0 0-23.1 16.4-37.6 3.3l.8-4.2zm3.8-24.4s15.9-25 34.6-19.4c0 0-16.5 26.5-34.4 25.3l-.2-5.9zm4.7-23s16-31.5 31.1-26c0 0-11.5 24.2-31.5 31.3l.4-5.3zm1.1-29.7s16.4-24.8 31.9-21.8c0 0-13.4 25.1-33.4 28.9l1.5-7.1zm1.3-25.3s12.7-27.8 23.1-28c0 0-6.1 27.6-22.3 32.7l-.8-4.7zm2.5-24.6s14.2-28.2 24.8-28.2c0 0-7.3 24.1-24.3 30.7l-.5-2.5zm2.1-29.7s10.6-23.3 19.4-25.9c0 0-5.3 28.4-18.2 32.1l-1.2-6.2zm6.8-23.7l23.7-36.1s-6.1 35.6-27.1 43l3.4-6.9zm16.3-39.1s27.5-19 28.5-22.1c0 0-14 26.6-40 31.3l11.5-9.2zm1.6-8.6s31.6-30.4 39.7-30.4c0 0-26.1 1.2-40.4 28.7l.7 1.7z"/><path d="M1068.3 326.5l1.2.1c5.9-46.5 14.6-74 24.4-77.4l-.4-1.1c-10.4 3.6-19.1 30.7-25.2 78.4zm-8.7 111.1l1.7.1c.4-4.3.6-8.8.8-13.2 1.7-38.5 4.2-73.8 7.6-100.3l-1-1.3c-3.4 26.5-6.7 63-8.3 101.5-.1 4.5-.4 8.9-.8 13.2zM926.4 648.1c.3-.1 30.9-13.8 62.7-46.4 18.6-19.1 34.1-41 45.8-65 14.7-29.9 23.7-66.7 26.7-102.4l-1.8.9c-6.8 80.2-43.3 135-72.3 164.8-31.5 32.3-61.8 45.9-62.1 46l1 2.1z" fill="#444053"/><path d="M1048.7 48.9H87.8c-4.7 0-8.6 3.8-8.6 8.6v24.9h978v-25c.1-4.7-3.8-8.5-8.5-8.5z" fill="#3f3d56"/><path d="M79.3 82.4v561.2c0 9.5 7.7 17.3 17.3 17.3H1040c9.5 0 17.3-7.7 17.3-17.3V82.4h-978z" fill="#fff"/><circle cx="94.8" cy="65.4" r="4" opacity=".8" fill="#fa5959"/><circle cx="105.8" cy="65.4" r="4" opacity=".8" fill="#fed253"/><circle cx="116.8" cy="65.4" r="4" opacity=".8" fill="#8ccf4d"/><g opacity=".3"><path class="st9" d="M116.8 116.4h904v510h-904v-510z"/><path class="st9" d="M234.8 116.4h668v510h-668v-510z"/><path class="st9" d="M352.8 116.4h432v510h-432v-510z"/><path class="st9" d="M470.8 116.4h196v510h-196v-510zm98 0v510"/><path class="st9" d="M116.8 190.4h904v362h-904v-362z"/><path class="st9" d="M116.8 263.4h904v216h-904v-216z"/><path class="st9" d="M116.8 336.4h904v70h-904v-70z"/></g><path class="st10" d="M258.3 144.9h71v26h-71v-26zm-111 71h53v26h-53v-26zm226-71h71v26h-71v-26zm108 0h71v26h-71v-26zm100 0h71v26h-71v-26zm112 0h71v26h-71v-26zm114 0h71v26h-71v-26zm121 0h71v26h-71v-26z"/><linearGradient id="SVGID_1_" gradientUnits="userSpaceOnUse" x1="421.855" y1="439.52" x2="421.855" y2="484.18" gradientTransform="matrix(1 0 0 -1 0 770)"><stop offset="0" stop-color="gray" stop-opacity=".25"/><stop offset=".54" stop-color="gray" stop-opacity=".12"/><stop offset="1" stop-color="gray" stop-opacity=".1"/></linearGradient><path d="M398.8 285.8h46.1v44.7h-46.1v-44.7z" fill="url(#SVGID_1_)"/><path class="st12" d="M399.6 286.6h44.5v43.1h-44.5v-43.1z"/><linearGradient id="SVGID_2_" gradientUnits="userSpaceOnUse" x1="516.895" y1="449.2" x2="516.895" y2="493.86" gradientTransform="matrix(1 0 0 -1 0 770)"><stop offset="0" stop-color="gray" stop-opacity=".25"/><stop offset=".54" stop-color="gray" stop-opacity=".12"/><stop offset="1" stop-color="gray" stop-opacity=".1"/></linearGradient><path d="M493.8 276.1H540v44.7h-46.1l-.1-44.7z" fill="url(#SVGID_2_)"/><path class="st14" d="M494.6 276.9h44.5V320h-44.5v-43.1z"/><linearGradient id="SVGID_3_" gradientUnits="userSpaceOnUse" x1="699.895" y1="297.2" x2="699.895" y2="341.86" gradientTransform="matrix(1 0 0 -1 0 770)"><stop offset="0" stop-color="gray" stop-opacity=".25"/><stop offset=".54" stop-color="gray" stop-opacity=".12"/><stop offset="1" stop-color="gray" stop-opacity=".1"/></linearGradient><path d="M676.8 428.1H723v44.7h-46.1v-44.7z" fill="url(#SVGID_3_)"/><path class="st14" d="M677.6 428.9h44.5V472h-44.5v-43.1z"/><linearGradient id="SVGID_4_" gradientUnits="userSpaceOnUse" x1="293.635" y1="519.11" x2="293.635" y2="563.77" gradientTransform="matrix(1 0 0 -1 0 770)"><stop offset="0" stop-color="gray" stop-opacity=".25"/><stop offset=".54" stop-color="gray" stop-opacity=".12"/><stop offset="1" stop-color="gray" stop-opacity=".1"/></linearGradient><path d="M270.6 206.2h46.1v44.7h-46.1v-44.7z" fill="url(#SVGID_4_)"/><path class="st14" d="M271.4 207h44.5v43.1h-44.5V207z"/><linearGradient id="SVGID_5_" gradientUnits="userSpaceOnUse" x1="385.295" y1="455.11" x2="385.295" y2="499.77" gradientTransform="matrix(1 0 0 -1 0 770)"><stop offset="0" stop-color="gray" stop-opacity=".25"/><stop offset=".54" stop-color="gray" stop-opacity=".12"/><stop offset="1" stop-color="gray" stop-opacity=".1"/></linearGradient><path d="M362.2 270.2h46.1v44.7h-46.1v-44.7z" fill="url(#SVGID_5_)"/><path class="st18" d="M363 271h44.5v43.1H363V271z"/><linearGradient id="SVGID_6_" gradientUnits="userSpaceOnUse" x1="753.855" y1="297.52" x2="753.855" y2="342.18" gradientTransform="matrix(1 0 0 -1 0 770)"><stop offset="0" stop-color="gray" stop-opacity=".25"/><stop offset=".54" stop-color="gray" stop-opacity=".12"/><stop offset="1" stop-color="gray" stop-opacity=".1"/></linearGradient><path d="M730.8 427.8h46.1v44.7h-46.1v-44.7z" fill="url(#SVGID_6_)"/><path class="st12" d="M731.6 428.6h44.5v43.1h-44.5v-43.1z"/><linearGradient id="SVGID_7_" gradientUnits="userSpaceOnUse" x1="834.855" y1="518.52" x2="834.855" y2="563.18" gradientTransform="matrix(1 0 0 -1 0 770)"><stop offset="0" stop-color="gray" stop-opacity=".25"/><stop offset=".54" stop-color="gray" stop-opacity=".12"/><stop offset="1" stop-color="gray" stop-opacity=".1"/></linearGradient><path d="M811.8 206.8h46.1v44.7h-46.1v-44.7z" fill="url(#SVGID_7_)"/><path class="st12" d="M812.6 207.6h44.5v43.1h-44.5v-43.1z"/><linearGradient id="SVGID_8_" gradientUnits="userSpaceOnUse" x1="829.855" y1="376.52" x2="829.855" y2="421.18" gradientTransform="matrix(1 0 0 -1 0 770)"><stop offset="0" stop-color="gray" stop-opacity=".25"/><stop offset=".54" stop-color="gray" stop-opacity=".12"/><stop offset="1" stop-color="gray" stop-opacity=".1"/></linearGradient><path d="M806.8 348.8h46.1v44.7h-46.1v-44.7z" fill="url(#SVGID_8_)"/><path class="st12" d="M807.6 349.6h44.5v43.1h-44.5v-43.1z"/><linearGradient id="SVGID_9_" gradientUnits="userSpaceOnUse" x1="864.855" y1="366.52" x2="864.855" y2="411.18" gradientTransform="matrix(1 0 0 -1 0 770)"><stop offset="0" stop-color="gray" stop-opacity=".25"/><stop offset=".54" stop-color="gray" stop-opacity=".12"/><stop offset="1" stop-color="gray" stop-opacity=".1"/></linearGradient><path d="M841.8 358.8h46.1v44.7h-46.1v-44.7z" fill="url(#SVGID_9_)"/><path class="st12" d="M842.6 359.6h44.5v43.1h-44.5v-43.1z"/><linearGradient id="SVGID_10_" gradientUnits="userSpaceOnUse" x1="717.295" y1="313.11" x2="717.295" y2="357.77" gradientTransform="matrix(1 0 0 -1 0 770)"><stop offset="0" stop-color="gray" stop-opacity=".25"/><stop offset=".54" stop-color="gray" stop-opacity=".12"/><stop offset="1" stop-color="gray" stop-opacity=".1"/></linearGradient><path d="M694.2 412.2h46.1v44.7h-46.1v-44.7z" fill="url(#SVGID_10_)"/><path class="st18" d="M695 413h44.5v43.1H695V413z"/><linearGradient id="SVGID_11_" gradientUnits="userSpaceOnUse" x1="722.295" y1="448.11" x2="722.295" y2="492.77" gradientTransform="matrix(1 0 0 -1 0 770)"><stop offset="0" stop-color="gray" stop-opacity=".25"/><stop offset=".54" stop-color="gray" stop-opacity=".12"/><stop offset="1" stop-color="gray" stop-opacity=".1"/></linearGradient><path d="M699.2 277.2h46.1v44.7h-46.1v-44.7z" fill="url(#SVGID_11_)"/><path class="st18" d="M700 278h44.5v43.1H700V278z"/><path class="st10" d="M147.3 285.9h53v26h-53v-26zm0 73h53v26h-53v-26zm0 73h53v26h-53v-26zm0 73h53v26h-53v-26zm0 73h53v26h-53v-26z"/><linearGradient id="SVGID_12_" gradientUnits="userSpaceOnUse" x1="122.37" y1="205.186" x2="344.945" y2="205.186" gradientTransform="matrix(1 0 0 -1 -33.81 703.57)"><stop offset="0" stop-color="gray" stop-opacity=".25"/><stop offset=".54" stop-color="gray" stop-opacity=".12"/><stop offset="1" stop-color="gray" stop-opacity=".1"/></linearGradient><path d="M308.3 351.1c1.5-.9.9-3.5-.6-4.3s-3.4-.6-5.1-.2c.1-.9-.3-1.8-1.1-2.2v-.4c1-1 .6-3-.6-3.9s-3.1-.9-4.8-.8c.2-2-.5-4-2-5.4-.3-.3-.7-.5-1.1-.5-1 0-1.3 1.3-1.4 2.2-.2 2.5-.6 5-1.2 7.4l-31.1 52c-3.5 5 7.3-10 3.8-5-1.8 2.7-3.8 5.3-6.1 7.6-2.1 1.9-4.4 3.4-6.9 4.6-1.7 0-3.3-.4-4.7-1.3-1.8-1.2-3.3-2.7-4.5-4.5-2.7-3.4-5.2-7.1-7.3-10.9-.8-1.2-1.3-2.5-1.7-3.9-.5-2.2 0-4.5-.9-6.5-.4-.8-.8-1.5-1.3-2.1l-2.1-2.9v-.1c-.2-4.2-3.7-7.5-6.9-10.3-2.7-2.4-5.7-4.9-9.3-5.3-1.9-.3-3.9.1-5.8-.1-1.6-.2-3.1-.8-4.6-1-1.5-.2-3-.2-4.5-.1l-.6-.6c3.3-1.4 6.1-3.8 8.1-6.8 1.5-2.4 2.3-5.1 3.7-7.6 1.7-3 4.1-5.5 6-8.4 4.5-6.8 5.3-15.6 3.5-23.6s-6.1-15.2-11-21.6c-9.6-12.4-25.7-17-40.9-14.6l-3 .6c-2.6.5-5 1.3-7.4 2.4-3.2 1.3-6 3.5-8.1 6.3-.6.8-1 1.7-1.4 2.6-.3.7-.5 1.4-.7 2.2-.5 2.2-.6 4.5-.4 6.8.1.8.1 1.5.2 2.3l.1 1.2c.1.8.2 1.5.3 2.3.2 1.2.3 2.3.4 3.5.1.8.1 1.6.1 2.4v.6c0 .6-.1 1.2-.3 1.8-.1.3-.2.6-.3 1-.4.9-.8 1.8-1.4 2.6-.8 1.1-1.6 2.1-2.5 3.1l-.9 1c-.3.3-.6.7-.9 1-1.1 1.3-2.2 2.7-3.1 4.2-.5.7-.9 1.5-1.2 2.3-.3.6-.5 1.2-.7 1.9-.3.8-.4 1.7-.5 2.6 0 .2 0 .4-.1.7v1.3c0 .4.1.9.1 1.3.1.4.2.8.3 1.3.1.4.3.8.5 1.2 0 .1.1.2.2.3l.2.3.3.6c.2.3.3.7.3 1v.7c-.2 1-.7 1.9-1.5 2.5-.2.2-.4.4-.6.5l-.3.3-.6.5-.6.5-1.5 1.5c-5.6-.3-11.3.3-16.7 1.6-1.9.6-4 1-6 1.1-1 .1-2-.3-2.6-1.1-.3-.7-.4-1.6-.3-2.4.3-3.3-.3-6.7-1.6-9.8-.3-.9-.9-1.7-1.6-2.3-.8-.6-1.8-.7-2.7-.1 1.7 5.5 1.4 11.4-.7 16.7-1.1 2.5-2.4 4.9-3.9 7.2-2.3 3.9-3.6 8.3-5.6 12.4 2.3 7.7 1.8 15.9 3 23.8 1.1 7.4 3.7 14.5 6.3 21.5 2 5.3 4.1 10.8 8.3 14.5 1.4 1.4 3.2 2.2 5.1 2.2 1.4-.2 2.8-.7 4-1.5 1.2-.7 2.4-1.5 3.4-2.5.4-.4.7-.9 1-1.3.1.7.4 1.3.8 1.9 2.4-5.3 5.1-10.4 8-15.4.9-.5 1.7-1 2.4-1.6 0 .2.1.4.1.5-.1.5-.3 1-.4 1.5s-.3.9-.4 1.4-.2.7-.3 1-.3.8-.4 1.2-.3.9-.5 1.3-.2.6-.4.9c-.3.8-.6 1.5-1 2.2.3.1.6.3.9.4l.2.1c.3.1.5.1.8.2h.3c.2 0 .4.1.6.1h.9c.7 0 1.4-.2 2.1-.4l.4 1.6c1 3.6 1.6 7.3 1.9 11 .2 4.2-.5 8.5.3 12.6.4 2.1 1.2 4.2 1.5 6.4.2 2 .2 4.1-.1 6.1l-1.4 14.7c0 1.8-.5 3.6-1.3 5.2-.7 1.2-1.8 2.6-1.1 3.8 1.2-.3 2.3-.5 3.5-.7-.4 1.6-.8 3.1-1.2 4.7-.4 1.2-.5 2.4-.3 3.6.3 1.1 1 2.2 1.1 3.3.2 1.8-1.1 3.4-1.8 5.1-1.8 4.3.1 9.1 2 13.3l5.5 12.5 4.5 10.3c1.3 3 2.7 6.1 4 9.2 5.9 14 10.7 28.5 14.4 43.2.1.7.4 1.3.8 1.9.8 1 2.1 1.3 3.3 1.9 3.4 1.9 3.8 7.5.7 9.8.6 7.5-5 14.8-7.9 21.8-6.7 16-5.5 34.1-7.8 51.3l2.6-1.5c.3.1.6.3.8.5-.1.3-.1.7-.2 1-.4 1.5-.9 2.9-1.7 4.2-1.5 2.6-3.8 4.9-4.2 7.9-.2 1.8.3 3.6.3 5.4v.5c-.2-.2-.6-.2-1.1.2-.8.9-1.4 1.9-1.6 3.1l-1.2 3.9-1.3 4.6c-.7 2.8-1.6 5.5-2.7 8.2-1 1.8-1.8 3.6-2.4 5.5-.4 1.6-.5 3.1-.4 4.7 0 1.5.2 3 .6 4.5 1.2 2.9 3.6 5.2 6.6 6.2 2.9 1 6 1.6 9.1 1.7.8.1 1.6.1 2.4-.1.8-.2 1.6-.7 2.3-1.2 4.2-3.1 6.4-8.8 6.8-14-.1-1.1-.3-2.1-.6-3.2.3-5.7-.6-11.4-.1-17.1.1.7.2 1.3.3 1.9l1 6.4-.3-.6c-.7 2.4-.9 4.9-.4 7.3.5 2.4 1.2 4.8 2.1 7.1l1.4 3.8c.3 1.1.9 2.2 1.6 3.2 1.2 1.3 3 1.8 4.7 2.2 3.7 1.1 7.6 1.8 11.5 2 .5.1 1 0 1.5-.3.2-.2.5-.4.7-.6.3-.2.7-.5 1.1-.6 1.7-.9 2.9-2.4 3.5-4.2.6-1.8.3-3.8-.6-5.4-.5-.7-1-1.3-1.6-1.9l-6.8-7.3c-1-1.2-2.2-2.4-3.3-3.5-.3-.3-.7-.4-1.1-.4-1.9-4.6-1.6-10.1-1.3-15.2.1-1.5.9-4.7 1.3-7.3 1.3-.4 2.5-1.1 3.6-2 1-.8 1.8-1.9 2.1-3.1 3.4-17.6 9-34.7 14.2-51.9l1.5-5.1c.2-.7.4-1.5.6-2.2s.4-1.2.5-1.8c.3-1 .6-2 .8-3 .1-.3.1-.5.2-.8v-.2c.3-1.2.6-2.5 1-3.7.1-.5.3-.9.4-1.4.4-1.6.8-3.1 1.1-4.7.1-.2.1-.4.1-.7.1-.6.1-1.1-.1-1.7-.1-.2-.2-.4-.4-.6-.1-.1-.2-.3-.4-.4s-.3-.3-.4-.4c-.3-.4-.6-.8-.7-1.3v-1.4c0-.4-.1-1-.1-1.5.1-.7.3-1.3.4-2 .1-.4.3-.8.4-1.2s.3-1 .5-1.5c.6-.7.9-1.6.9-2.5.6-1.5 1.3-3.1 2.1-4.5.9-1.5 1.5-3.2 1.8-4.9 0-1.6-.2-3.1-.6-4.7-1-6.5 2-12.8 4.2-19 1.6-4.6 2.9-9.2 3.7-14 .6-3.7 1.1-7.5 3.1-10.6.6-.9 1.2-1.8 1.6-2.8.3-1 .5-2.1.4-3.2.2-4.4 1.3-8.7 3.1-12.8.4-.8.7-1.6.8-2.5v-.4l.5-.1c.9-5.5 1.8-11.7 1.1-17.2-.8-6.4-3.9-12.3-8.8-16.6h.1c1.7-.9 2.5-3 2.5-4.9 0-2.9-1.3-5.6-3.5-7.4-.5-.3-.9-.7-1.2-1.2-.2-.5-.2-1.1-.1-1.6 0-3.3-2-6.4-5.1-7.6-.3-.1-.6-.3-.8-.5-.3-.4-.3-1-.2-1.5.2-3.3-1.5-6.5-4.3-8.2.4-2.1.8-4.4.2-6.5s-2.6-4-4.7-3.7c1.8-4.8-.7-10.1-.1-15.2.3-2.2 1.2-4.3 1.3-6.5.1-2-.4-4.1.6-5.9s3.3-3.1 2.7-5c-.3-.8-1-1.4-1.4-2.2s1.1-2 1.8-1.6c.3-.3.7-.5 1-.8.1 1 .3 2 .6 3 .5 1.6 1.2 3.2 1.8 4.8.8 2.5 1 5.2 2.3 7.5 2 3.6 6.2 5.5 9.1 8.5 1.7 1.8 2.9 4 4.6 5.7 1.3 1.2 2.8 2.3 4.3 3.2l9.2 6c1 .7 2 1.2 3.2 1.6 2.9.6 5.7-1.4 6.3-4.3v-.3c-.8-.3-1.6-.8-2.3-1.4.1 0 .3 0 .4-.1 2.2-.6 4.2-1.7 5.9-3.1 6.6-5.2 11.3-12.4 15.9-19.4 4.8-7.4 28.1-26.9 28.1-26.9v-7.9c3-1.7 5.6-4 7.8-6.6 1.2-1.4 1.9-3.2 2-5 .3-1.8-.8-3.5-2.6-4.2zM114.6 370c-.4 2.9-1 5.7-1.6 8.6-.7 3.3-1.6 6.5-2.8 9.7l-.4 1c-.3-.6-.7-1.2-1-1.9-.8-1.6-1.4-3.2-2-4.8l-3.9-10.4c-.5-1.4-1-2.9-.3-4.1.5-.8 1.3-1.3 2.2-1.6 2.7-1.2 5.5-2.2 8.5-2.9.9-.2 1.8-.4 2.7-.7-.6 2.2-1.1 4.7-1.4 7.1zm4.2-13c-.3-.5-.3-1 0-1.5.3-.3.6-.5 1-.7l.3-.2c-.4.8-.8 1.7-1.3 2.4zm8-11.3c-1.1.9-2.2 2-3.1 3.2-1 1.3-1.9 2.7-2.6 4.1.2-1.1-.2-2.3-1.1-3-.4-.2-.7-.4-1-.7-.7-.9-.5-2.2.4-2.9.9-.6 2-1 3.1-1.1l4.6-.7c-.1.4-.2.8-.3 1.1zM170 680.4c.1-1.4 0-2.8-.3-4.1h1.7c-.4 1.3-.9 2.7-1.4 4.1z" fill="url(#SVGID_12_)"/><path class="st26" d="M165.3 272.9c-8 1.3-16.9 4.4-20 11.9-2.3 5.7-.5 12 .1 18.1.2 1.6.2 3.2-.2 4.8-.7 2.6-2.5 4.6-4.2 6.6-2.4 2.5-4.5 5.4-6.1 8.5-1.4 3.2-1.9 7-.4 10.2.5.8.8 1.7 1 2.7.1 2.1-2.1 3.4-3.7 4.7-6 5-5.8 14-5.8 21.8-.1 16-3.6 31.7-10.4 46.2 5.2 2.6 11.4 1.8 15.8-2.1-.8 3.6-2 7-3.6 10.3 5.1 2.5 11.2-1.6 13.8-6.6s2.9-10.9 4.7-16.3 5-10 6.4-15.4c.4-1.8.7-3.7 1.8-5.2.9-1.1 2-2 3.2-2.7 5.3-3.8 9.2-9.2 11.3-15.3 6.2 1.4 12.6 2.8 18.9 2.2s12.8-3.5 16.2-8.9c1.5-2.4 2.3-5.1 3.6-7.6 1.7-3 4.1-5.5 6-8.4 4.5-6.8 5.3-15.6 3.5-23.6s-6-15.2-11-21.6c-9.6-12.1-25.7-16.7-40.9-14.3z"/><path class="st1" d="M114.8 372.9c-.4 2.9-1 5.7-1.6 8.5-.7 3.3-1.6 6.5-2.8 9.7-.7 1.4-1 2.9-.9 4.4.2.9.6 1.8 1.1 2.6 3.7 6.5 8.6 12.8 9 20.2.1 1.9 0 3.9 1 5.4 2.8-6.1 5.9-12 9.3-17.8 3.6-6 7.5-12.1 8.5-19.1.4-3.3.4-6.6-.1-9.8-.5-3.6-1.3-7.4-3.5-10.3-2.4-3.2-9-7.9-13.3-6.9-5 1.3-6.1 9.1-6.7 13.1z"/><path class="st27" d="M243.7 407.9c4.8-2 9.7-4 13.4-7.5 2.3-2.3 4.4-4.8 6.1-7.6l11.3-16.2c2.7-3.9 5.4-7.9 6-12.6 6.6-7 10.6-16 11.2-25.5.1-1 .4-2.2 1.4-2.2.4 0 .8.2 1.1.5 1.5 1.4 2.2 3.4 2 5.4 1.6-.1 3.4-.1 4.8.8s1.7 3.3.3 4.1a2 2 0 0 1 1.4 2.3c1.7-.3 3.6-.6 5.1.2s2.1 3.4.6 4.3c1.8.7 2.9 2.4 2.9 4.3-.1 1.8-.8 3.6-2 5-4.3 5.8-11.9 8.1-17 13.4-1.6 1.8-3.1 3.8-4.4 5.9l-14.5 22.1c-4.6 7-9.3 14.2-15.9 19.4-1.7 1.5-3.7 2.6-5.9 3.1-2.2.6-4.6-.1-6.2-1.7-1.4-1.6-1.7-4-1.8-6.2-.3-3.7.3-7.5.1-11.3z"/><path class="st26" d="M195.1 714.6c.6.6 1.1 1.2 1.6 1.9 1 1.6 1.2 3.6.6 5.4-.6 1.8-1.8 3.3-3.5 4.2-.4.2-.8.4-1.1.6-.2.2-.4.4-.7.6-.5.2-1 .3-1.5.3-3.9-.2-7.7-.9-11.5-2-1.7-.4-3.5-.9-4.7-2.2-.7-.9-1.3-2-1.6-3.2l-1.4-3.8c-.9-2.3-1.6-4.7-2.1-7.1-.5-2.4-.4-4.9.4-7.3.3.4.5.9.5 1.5.4 2.6 1.4 5 2.9 7.1.3.5.7 1 1.1 1.4 1 .8 2.2 1.3 3.4 1.4 2.4.5 4.8.8 7.3.9.3 0 .7 0 1-.1.4-.2.7-.6.8-1 .3-1 .3-2 0-3-.7-1.8-2.5-3.1-3.3-4.8-.6-1.3.2-2.7 1.6-1.6 1.2 1.1 2.3 2.3 3.4 3.5l6.8 7.3z"/><path class="st27" d="M182.5 688.3c-.4 6.1-.7 12.7 2.7 17.8 1.2 1.8 2.8 3.4 4.2 5.1.8.9 1.3 1.9 1.5 3.1.2 2.2-1.9 4.2-4.1 4.6s-4.5-.3-6.6-1c-2-.5-3.9-1.4-5.6-2.6-2.9-2.5-3.7-6.6-4.3-10.3l-1.4-8.7c-1-4.4-.6-9.1 1.2-13.2l2.2-6.6c.1-.6.5-1.2 1-1.6.5-.3 1.1-.4 1.7-.3 2.1.1 7.6.9 8.6 3.2 1 1.8-.9 8.2-1.1 10.5z"/><path class="st28" d="M182.5 688.3c-.4 6.1-.7 12.7 2.7 17.8 1.2 1.8 2.8 3.4 4.2 5.1.8.9 1.3 1.9 1.5 3.1.2 2.2-1.9 4.2-4.1 4.6s-4.5-.3-6.6-1c-2-.5-3.9-1.4-5.6-2.6-2.9-2.5-3.7-6.6-4.3-10.3l-1.4-8.7c-1-4.4-.6-9.1 1.2-13.2l2.2-6.6c.1-.6.5-1.2 1-1.6.5-.3 1.1-.4 1.7-.3 2.1.1 7.6.9 8.6 3.2 1 1.8-.9 8.2-1.1 10.5z"/><path class="st26" d="M230.6 507.2v.2c-.1.9-.4 1.7-.8 2.5-1.8 4-2.9 8.3-3.2 12.7 0 1.1-.1 2.2-.4 3.2-.4 1-1 1.9-1.6 2.8-1.9 3.2-2.4 7-3.1 10.6-.8 4.7-2.1 9.4-3.7 13.9-2.2 6.2-5.2 12.5-4.2 19 .4 1.5.6 3.1.6 4.7-.3 1.7-.9 3.4-1.8 4.9-.7 1.5-1.4 3-2 4.5-.6 1.7-1.2 3.4-1.7 5.1-.6 2.1-1 4.6.4 6.3.4.4.8.9 1.1 1.4.3.8.3 1.6 0 2.4-.8 3.3-1.6 6.7-2.5 10-.7 2.6-1.4 5.2-2.2 7.8-5.6 18.9-12 37.5-15.8 56.9-.5 2.8-4.1 4.8-6.9 5.4-2.8.6-5.8-.2-7.9-2.1l-.5-.5c-2.9-3.1-3.3-7.9-3.1-12.2 1-19.9 11-38.1 15.8-57.4 1.7-7 2.8-14.1 3.1-21.3 1.1-24 1.6-49.4-5.2-72.5-1.4-4.8-3.1-10.2-.5-14.5 1.6-2.7 4.6-4.3 7.5-5.5 12.1-4.7 25.6-4.4 37.5 1 0 .5 0 1-.1 1.4-.3 2.2 0 4.5.8 6.6.1.8.3 1.7.4 2.7zm-82.2 187.3l-1.3 4.6c-.7 2.8-1.6 5.5-2.7 8.1-1 1.8-1.8 3.6-2.4 5.5-.4 1.6-.5 3.1-.4 4.7 0 1.5.2 3 .6 4.5 1.2 2.9 3.6 5.1 6.5 6.2 2.9 1 6 1.6 9.1 1.7.8.1 1.6.1 2.4-.1.8-.2 1.6-.7 2.3-1.2 4.2-3.1 6.4-8.8 6.8-14-.1-1.2-.3-2.4-.7-3.6-.3-.4-3.5 1.4-2.1 2.9 2 2.2-3.9 1.1-6.9.9-1.3-.1-2.6-.3-3.9-.6l-4.9-1c-1.6-.3-3.4-.9-4-2.4s.7-3.3 1.6-4.8c2.5-3.9 3.2-8.7 3.8-13.4.1-.9 1.3-6.8-1.1-5-.8.9-1.4 1.9-1.6 3.1-.4 1.2-.8 2.5-1.1 3.9z"/><path class="st28" d="M208.9 597.7c-1.4-1.7-1-4.2-.4-6.3.2-.8.5-1.5.7-2.3l-19.1-6.5c-.1 1.7-.1 3.4-.2 5.1-.3 7.2-1.4 14.3-3.1 21.3-4.8 19.3-14.8 37.5-15.8 57.4-.2 4.6.3 9.7 3.6 12.8 2.1 1.9 5.1 2.7 7.9 2.1 2.8-.6 6.3-2.6 6.9-5.4 3.8-19.3 10.1-38 15.8-56.9 1.8-5.9 3.3-11.8 4.7-17.7.3-.8.3-1.6 0-2.3-.2-.5-.6-.9-1-1.3z"/><path class="st27" d="M156.2 673.5c-1.5 2.6-3.8 4.9-4.2 7.9-.2 1.8.3 3.6.3 5.4-.1 1.5-.3 3-.8 4.4-1.9 6.7-4 13.3-6.4 19.9-.4.8-.6 1.8-.5 2.7.2 1.5 1.7 2.5 3.1 3.2 4.6 1.9 9.7 1.8 14.6 1.6 1.4.1 2.9-.3 4.1-1 1.8-1.2 2.2-3.6 2.3-5.7.3-6.2-.7-12.4 0-18.6.3-2.3.7-4.5 1.1-6.7.5-3.1.7-6.4-.3-9.3-.8-2.1-2-4.1-3.5-5.9-1.3-1.9-2.9-3.5-4.9-4.8-.6-.3-2.2-1.4-2.8-.7-.3.3-.2 1.3-.2 1.7-.1.6-.2 1.3-.3 1.9-.3 1.3-.8 2.7-1.6 4z"/><path class="st28" d="M192.9 514.9c-.9 1.2-.7 2.9-.4 4.3.6 2.6 1.7 5.2 2.6 7.7 1.4 4.6 2.5 9.3 3.3 14.1.8 4.3 2.5 9.1 1.8 13.4 5.2 9.9 8.6 20.7 10.1 31.8.4 2.8-5.9 6.5-5.8 9.4.2 5.7 4.8 6.2 1.4 10.7-.2.2 1.3 5.3 1.1 5.6-1.4 1.7-3.1 3-4.6 4.5-1.9 2.1-3.5 4.5-4.8 7.1-8.7 15.7-21.3 33.5-17.4 51.1.2 1.3-.5 2.6-1.7 3.2-1.1.6-2.4.8-3.7.8h-.6c-2.9-3.1-3.3-7.9-3.1-12.2 1-19.9 11-38.1 15.8-57.4 1.7-7 2.8-14.1 3.1-21.3 1.1-24 1.6-49.4-5.2-72.5-1.4-4.8-3.1-10.2-.5-14.5 1.6-2.7 4.6-4.3 7.5-5.5 12.1-4.7 25.6-4.4 37.5 1 0 .5 0 1-.1 1.4-.3 2.2 0 4.5.8 6.6.4.9.7 1.9.8 2.9 0 0 .3-3.9.3-3.8-7.8 1.1-15.9 6.2-23.8 7.3-4.1.4-8 1.3-11.9 2.6-1.1.4-1.9 1-2.5 1.7z"/><path class="st26" d="M138.9 472.4c-1 3.3-2 6.7-2.8 10.1-.4 1.2-.5 2.4-.3 3.6.3 1.1 1 2.2 1.1 3.3.2 1.8-1.1 3.4-1.8 5.1-1.8 4.3.1 9 2 13.3l5.5 12.5 4.5 10.3c1.4 3 2.7 6.1 4 9.2 5.9 14 10.7 28.4 14.4 43.2.1.7.4 1.3.7 1.9.8 1 2.2 1.3 3.3 1.9 3.4 1.9 3.8 7.4.7 9.8.6 7.5-5 14.8-7.9 21.7-6.7 16-5.5 34-7.8 51.2l2.6-1.5c2.5 1.1 2.4 4.7 3.7 7.1 2 3.6 6.9 4.1 11 3.8 1.3 0 2.5-.3 3.7-.8 1.2-.6 1.8-1.9 1.7-3.2-3.9-17.5 8.7-35.4 17.4-51.1 1.3-2.5 2.9-4.9 4.8-7.1 1.5-1.6 3.2-2.9 4.6-4.5 3.8-4.6 4.3-11.1 4.1-17.1-.6-14.1-4.3-27.9-10.9-40.4.7-4.3-1-9.1-1.8-13.4-.8-4.8-1.9-9.5-3.3-14.1-.9-2.6-1.9-5.1-2.6-7.8-.4-1.5-.5-3.1.4-4.3.7-.7 1.5-1.3 2.5-1.6 3.9-1.3 7.9-2.2 11.9-2.6l26.8-3.9c.9-5.5 1.7-11.6 1.1-17.2-1.3-10.5-8.8-19.2-18.9-22.1-1.2-.3-2.5-.5-3.5.2-23.6-4.7-48.1-3.2-70.9 4.5z"/><path class="st27" d="M163.2 327.4c.4 2.6 0 5.3-1.2 7.7-.8 1.3-1.8 2.4-3 3.4-2.6 2.1-5.6 3.6-8.8 4.4-1.9.5-4 .8-5.3 2.3-1.9 2.3-.6 5.7 1 8.2 2.8 4.3 6.6 8.2 11.6 9.6 4 1.1 8.2.4 12.2 1.1 2.9.5 5.7 1.7 8.6 2.4 8.4 1.9 17.1-.5 23.3-6.5-4.3-3.3-8.8-6.8-11-11.8-1.6-3.5-1.9-7.5-.8-11.2 1-3.7 3.4-7.2 2.6-11s-4.4-6.3-8-7.6c-3.3-1-6.7-1.7-10.1-2-1.9-.3-13.9-2.9-14.6-1.6-.4.7 2.1 5.1 2.4 6.1.6 2.1 1 4.3 1.1 6.5z"/><circle class="st27" cx="178.3" cy="311.9" r="24.3"/><path class="st1" d="M165.5 352.1l16.5 2.8c4.1.8 8.2 1.2 12.3 1.2 2.3-.2 4.5-.2 6.8 0 1.6.3 3.1.9 4.6 1 1.9.2 3.9-.1 5.8.1 3.6.5 6.5 2.9 9.3 5.3 3.2 2.8 6.6 6 6.9 10.3 0 .5 0 1-.2 1.4-.3.5-.7.9-1.2 1.3-3 2.5-4.7 6.2-6.9 9.5-2.2 3.4-5 6.4-8.2 8.9-.7-.5-2.1.8-1.8 1.5s1.1 1.4 1.4 2.2c.6 1.9-1.7 3.3-2.7 5s-.5 3.9-.6 5.9c-.1 2.2-1 4.3-1.3 6.5-.7 5.1 1.8 10.4.1 15.2 2.2-.3 4.1 1.6 4.7 3.7s.2 4.3-.2 6.5c2.8 1.7 4.5 4.8 4.3 8.1-.3.7 0 1.5.7 1.8.1 0 .2.1.3.1 3.1 1.3 5.1 4.3 5.1 7.6-.1.5 0 1.1.1 1.6.3.5.7.9 1.2 1.2 2.2 1.8 3.5 4.5 3.5 7.4 0 1.9-.8 4-2.5 4.9-3.5 1.8-7.3 2.5-11.1 3.3-3.5.8-7.1 1.5-10.7 1.9-3.3.3-6.7.4-10 .3l-22.1-.1c-6.2 0-12.4 0-18.6-.5-5.8-.4-11.7-1.1-17.3.4-.7-1.2.4-2.6 1.1-3.8.8-1.6 1.2-3.4 1.3-5.2l1.4-14.7c.3-2 .3-4.1.1-6.1-.3-2.2-1.1-4.2-1.5-6.4-.8-4.1-.1-8.4-.3-12.6-.3-3.7-.9-7.4-1.9-11l-4.4-18c-.7-2.9-1.1-6.3-2.2-9-3.4-8.7-6.9-17.2-10.6-25.7-.3-.8-.2-1.6.2-2.3l3.7-6.5c1-1.9 2.1-3.6 3.3-5.3 3.1-3.9 7.4-6.6 12.3-7.6s9.9-.2 14.3 2.1c1.7.9 3.3 2 5 2.9 3.1 1.6 6.7 3.1 10 2.9z"/><path class="st1" d="M224 368.1l5.8 7.7c.5.7 1 1.4 1.3 2.1.9 2 .4 4.4.9 6.5.4 1.4.9 2.7 1.7 3.9 2.2 3.8 4.6 7.4 7.3 10.9 1.2 1.7 2.8 3.3 4.6 4.5 1.8 1.2 4 1.6 6.1 1.1-.9.3-1.6 1-2 1.8-2.2 4.3-2.4 9.5-1.4 14.2.3 1.6.8 3.2 1.6 4.7s2.1 2.6 3.7 3.2c-.4 2.9-3.1 5-6.1 4.6h-.3c-1.1-.3-2.2-.9-3.1-1.6l-9.2-6c-1.5-.9-3-2-4.3-3.2-1.7-1.7-2.9-3.9-4.6-5.7-2.9-3-7.1-4.8-9.1-8.5-1.3-2.3-1.5-5-2.3-7.5-.5-1.6-1.3-3.2-1.8-4.8-1.5-5.1-.4-10.6 1.9-15.4s5.9-8.4 9.3-12.5z"/><path class="st26" d="M202.4 298c-2.3-3.5-5.2-6.5-8.6-8.9-4.6-3.4-9.8-6.2-15.4-6.5-2.4-.1-4.7.3-6.9 1.1-.1-6.9-1.8-11.5-6.1-10.8-8 1.3-16.9 4.4-20 11.9-2.3 5.7-.5 12 .1 18.1.2 1.6.2 3.2-.2 4.8-.7 2.6-2.5 4.6-4.2 6.6-2.4 2.5-4.5 5.4-6.1 8.5-1.4 3.2-1.9 7-.4 10.2.5.8.8 1.7 1 2.7.1 2.1-2.1 3.4-3.7 4.7-6 5-5.8 14-5.8 21.8-.1 16-3.6 31.7-10.4 46.2 5.2 2.6 11.4 1.8 15.8-2.1-.8 3.6-2 7-3.6 10.3 5.1 2.5 11.2-1.6 13.8-6.6s2.9-10.9 4.7-16.3 5-10 6.4-15.4c.4-1.8.7-3.7 1.8-5.2.9-1.1 2-2 3.2-2.7 5.2-3.8-2.5-32.3-.4-38.4 3 .7 8.6-14 11.8-29 2.2.8 4.6 1 6.9.7.8-.2 1.6-.2 2.5-.2.8.2 1.5.5 2.2.9 2.4 1.4 4.8 2.7 7.4 3.8 5.3 2 11.1 1.7 16.7 1.4.6-3.8-.3-8.1-2.5-11.6z"/><path d="M118.4 408.6c6.8-14.4 10.3-30.2 10.4-46.1.1-7.8-.2-16.9 5.8-21.8 1.6-1.3 3.8-2.6 3.7-4.7-.2-1-.5-1.9-1-2.7-1.5-3.2-1-7 .4-10.2 1.6-3.1 3.6-6 6.1-8.5 1.8-2 3.6-4.1 4.2-6.6.3-1.6.4-3.2.2-4.8-.6-6.1-2.4-12.5-.1-18.1 3-7.3 11.4-10.4 19.2-11.7-.7-.2-1.4-.3-2.1-.1-8 1.3-16.9 4.4-20 11.9-2.3 5.7-.5 12 .1 18.1.2 1.6.2 3.2-.2 4.8-.7 2.6-2.5 4.6-4.2 6.6-2.4 2.5-4.5 5.4-6.1 8.5-1.4 3.2-1.9 7-.4 10.2.5.8.8 1.7 1 2.7.1 2.1-2.1 3.4-3.7 4.7-6 5-5.8 14-5.8 21.8-.1 16-3.6 31.7-10.4 46.1 2.4 1.2 5.1 1.7 7.7 1.5-1.6-.3-3.2-.8-4.8-1.6zm12.2 8.2c1.5-3.3 2.7-6.8 3.6-10.3-1 .9-2.2 1.7-3.5 2.3-.8 2.7-1.8 5.4-3 8 1.5.7 3.1.9 4.7.6-.6-.2-1.2-.3-1.8-.6zm43.7-133.1c1.5-.6 3-.9 4.6-1.1h-.6c-1.4-.1-2.8 0-4.1.3.1.2.1.5.1.8zm16.5 24.8c-2.5-1.1-5-2.3-7.4-3.8-.7-.4-1.4-.7-2.2-.9-.8-.1-1.5 0-2.3.1.5.2 1.1.4 1.6.7 2.4 1.4 4.8 2.7 7.4 3.8 4 1.3 8.2 1.9 12.3 1.6-3.1.1-6.3-.5-9.4-1.5zm-18.9-5.2c0 .2-.1.4-.1.7 1.2.2 2.4.2 3.6.1-1.2-.2-2.4-.4-3.5-.8z" opacity=".1"/><path class="st27" d="M121.2 416.2c.3 2.6-.6 5.2-2.4 7.1-1 1-2.2 1.8-3.4 2.5-1.2.8-2.6 1.3-4 1.5-1.9-.1-3.8-.9-5.1-2.2-4.2-3.7-6.4-9.2-8.3-14.5-2.6-7-5.2-14.1-6.3-21.5-1.2-7.9-.7-16.1-2.9-23.8 2-4 3.3-8.5 5.6-12.3 1.5-2.3 2.7-4.7 3.8-7.2 2.1-5.3 2.4-11.2.7-16.7.8-.5 1.9-.5 2.7.1.7.6 1.3 1.4 1.6 2.3 1.3 3.1 1.9 6.4 1.6 9.8-.2.8-.1 1.6.3 2.4.6.8 1.6 1.2 2.6 1.1 2-.1 4.1-.5 6-1.1 6-1.5 12.3-2.1 18.5-1.5 1.3 0 2.5.3 3.6.9 1.1.6 1.9 1.7 1.9 3l-14.8 2.2c-1.1.1-2.2.4-3.1 1.1-.9.7-1.1 2-.4 2.9.3.3.6.5 1 .7 1.3 1 1.6 2.9.6 4.2-.2.3-.4.5-.7.7-.4.2-.7.4-1 .7-.6.8.2 1.9.5 2.9.2 1.5-.5 2.9-1.8 3.7-1.3.7-2.7 1.2-4.1 1.4-2.9.7-5.7 1.6-8.4 2.9-.9.3-1.7.9-2.2 1.6-.7 1.2-.3 2.8.3 4.1l3.9 10.4c.6 1.6 1.2 3.3 2 4.8 1 2 2.2 3.9 3.2 6s1.7 3.9 2.4 5.8c1.6 5.2 5.5 8.4 6.1 14z"/><linearGradient id="SVGID_13_" gradientUnits="userSpaceOnUse" x1="277.855" y1="376.52" x2="277.855" y2="421.18" gradientTransform="matrix(1 0 0 -1 0 770)"><stop offset="0" stop-color="gray" stop-opacity=".25"/><stop offset=".54" stop-color="gray" stop-opacity=".12"/><stop offset="1" stop-color="gray" stop-opacity=".1"/></linearGradient><path d="M254.8 348.8h46.1v44.7h-46.1v-44.7z" fill="url(#SVGID_13_)"/><path class="st12" d="M255.6 349.6h44.5v43.1h-44.5v-43.1z"/><path class="st27" d="M292.4 346.2c-.8.6-1.4 1.5-1.7 2.5-.1.4 0 .9.4 1.1.2.1.5.1.7 0 1.1-.2 2.1-.7 3-1.4-.3.2-.6.4-.9.7-.2.3-.3.7-.1 1.1.2.3.6.5 1 .5 1.4.3 2.9.2 4.3-.2-.7.2-1.3.6-1.8 1-.5.5-.8 1.1-.8 1.9 0 .3.1.5.3.7.1.1.3.1.5.2 1.3.2 2.7.2 4 0 .7 0 1.3-.4 1.7-1 .1-.7 0-1.4-.4-1.9-.7-1.5-1.1-3.2-1-4.9 0-.3 0-.7-.1-1-.2-.3-.5-.5-.9-.6-1.4-.6-3.3-1.5-4.9-1-1.3.5-2.4 1.3-3.3 2.3z"/></svg>