<?xml version="1.0" encoding="utf-8"?>
<!-- Generator: Adobe Illustrator 22.1.0, SVG Export Plug-In . SVG Version: 6.00 Build 0)  -->
<svg version="1.1" id="图层_1" xmlns="http://www.w3.org/2000/svg" xmlns:xlink="http://www.w3.org/1999/xlink" x="0px" y="0px"
	 viewBox="0 0 948.4 758" enable-background="new 0 0 948.4 758" xml:space="preserve">
<path opacity="0.1" enable-background="new    " d="M201.3,130h71.1c4.1,0,7.4,3.3,7.4,7.4v11.1c0,4.1-3.3,7.4-7.4,7.4
	h-71.1c-4.1,0-7.4-3.3-7.4-7.4v-11.1C193.9,133.3,197.2,130,201.3,130z M201.3,91h71.1c4.1,0,7.4,3.3,7.4,7.4v11.1
	c0,4.1-3.3,7.4-7.4,7.4h-71.1c-4.1,0-7.4-3.3-7.4-7.4V98.4C193.9,94.3,197.2,91,201.3,91z M291.3,117h71.1c4.1,0,7.4,3.3,7.4,7.4
	v11.1c0,4.1-3.3,7.4-7.4,7.4h-71.1c-4.1,0-7.4-3.3-7.4-7.4v-11.1C283.9,120.3,287.2,117,291.3,117z M481.3,130h71.1
	c4.1,0,7.4,3.3,7.4,7.4v11.1c0,4.1-3.3,7.4-7.4,7.4h-71.1c-4.1,0-7.4-3.3-7.4-7.4v-11.1C473.9,133.3,477.2,130,481.3,130z M481.3,91
	h71.1c4.1,0,7.4,3.3,7.4,7.4v11.1c0,4.1-3.3,7.4-7.4,7.4h-71.1c-4.1,0-7.4-3.3-7.4-7.4V98.4C473.9,94.3,477.2,91,481.3,91z
	 M571.3,117h71.1c4.1,0,7.4,3.3,7.4,7.4v11.1c0,4.1-3.3,7.4-7.4,7.4h-71.1c-4.1,0-7.4-3.3-7.4-7.4v-11.1
	C563.9,120.3,567.2,117,571.3,117z M201.3,39h71.1c4.1,0,7.4,3.3,7.4,7.4v11.1c0,4.1-3.3,7.4-7.4,7.4h-71.1c-4.1,0-7.4-3.3-7.4-7.4
	V46.4C193.9,42.3,197.2,39,201.3,39z M291.3,65h71.1c4.1,0,7.4,3.3,7.4,7.4v11.1c0,4.1-3.3,7.4-7.4,7.4h-71.1
	c-4.1,0-7.4-3.3-7.4-7.4V72.4C283.9,68.3,287.2,65,291.3,65z M381.3,91h71.1c4.1,0,7.4,3.3,7.4,7.4v11.1c0,4.1-3.3,7.4-7.4,7.4
	h-71.1c-4.1,0-7.4-3.3-7.4-7.4V98.4C373.9,94.3,377.2,91,381.3,91z M201.3,0h71.1c4.1,0,7.4,3.3,7.4,7.4v11.1c0,4.1-3.3,7.4-7.4,7.4
	h-71.1c-4.1,0-7.4-3.3-7.4-7.4V7.4C193.9,3.3,197.2,0,201.3,0z M291.3,26h71.1c4.1,0,7.4,3.3,7.4,7.4v11.1c0,4.1-3.3,7.4-7.4,7.4
	h-71.1c-4.1,0-7.4-3.3-7.4-7.4V33.4C283.9,29.3,287.2,26,291.3,26z M381.3,52h71.1c4.1,0,7.4,3.3,7.4,7.4v11.1
	c0,4.1-3.3,7.4-7.4,7.4h-71.1c-4.1,0-7.4-3.3-7.4-7.4V59.4C373.9,55.3,377.2,52,381.3,52z M481.3,39h71.1c4.1,0,7.4,3.3,7.4,7.4
	v11.1c0,4.1-3.3,7.4-7.4,7.4h-71.1c-4.1,0-7.4-3.3-7.4-7.4V46.4C473.9,42.3,477.2,39,481.3,39z M571.3,65h71.1
	c4.1,0,7.4,3.3,7.4,7.4v11.1c0,4.1-3.3,7.4-7.4,7.4h-71.1c-4.1,0-7.4-3.3-7.4-7.4V72.4C563.9,68.3,567.2,65,571.3,65z M661.3,91
	h71.1c4.1,0,7.4,3.3,7.4,7.4v11.1c0,4.1-3.3,7.4-7.4,7.4h-71.1c-4.1,0-7.4-3.3-7.4-7.4V98.4C653.9,94.3,657.2,91,661.3,91z M481.3,0
	h71.1c4.1,0,7.4,3.3,7.4,7.4v11.1c0,4.1-3.3,7.4-7.4,7.4h-71.1c-4.1,0-7.4-3.3-7.4-7.4V7.4C473.9,3.3,477.2,0,481.3,0z M571.3,26
	h71.1c4.1,0,7.4,3.3,7.4,7.4v11.1c0,4.1-3.3,7.4-7.4,7.4h-71.1c-4.1,0-7.4-3.3-7.4-7.4V33.4C563.9,29.3,567.2,26,571.3,26z
	 M661.3,52h71.1c4.1,0,7.4,3.3,7.4,7.4v11.1c0,4.1-3.3,7.4-7.4,7.4h-71.1c-4.1,0-7.4-3.3-7.4-7.4V59.4C653.9,55.3,657.2,52,661.3,52
	z M201.3,593h71.1c4.1,0,7.4,3.3,7.4,7.4v11.1c0,4.1-3.3,7.4-7.4,7.4h-71.1c-4.1,0-7.4-3.3-7.4-7.4v-11.1
	C193.9,596.3,197.2,593,201.3,593z M291.3,619h71.1c4.1,0,7.4,3.3,7.4,7.4v11.1c0,4.1-3.3,7.4-7.4,7.4h-71.1c-4.1,0-7.4-3.3-7.4-7.4
	v-11.1C283.9,622.3,287.2,619,291.3,619z M381.3,645h71.1c4.1,0,7.4,3.3,7.4,7.4v11.1c0,4.1-3.3,7.4-7.4,7.4h-71.1
	c-4.1,0-7.4-3.3-7.4-7.4v-11.1C373.9,648.3,377.2,645,381.3,645z M201.3,554h71.1c4.1,0,7.4,3.3,7.4,7.4v11.1c0,4.1-3.3,7.4-7.4,7.4
	h-71.1c-4.1,0-7.4-3.3-7.4-7.4v-11.1C193.9,557.3,197.2,554,201.3,554z M291.3,580h71.1c4.1,0,7.4,3.3,7.4,7.4v11.1
	c0,4.1-3.3,7.4-7.4,7.4h-71.1c-4.1,0-7.4-3.3-7.4-7.4v-11.1C283.9,583.3,287.2,580,291.3,580z M381.3,606h71.1
	c4.1,0,7.4,3.3,7.4,7.4v11.1c0,4.1-3.3,7.4-7.4,7.4h-71.1c-4.1,0-7.4-3.3-7.4-7.4v-11.1C373.9,609.3,377.2,606,381.3,606z
	 M481.3,593h71.1c4.1,0,7.4,3.3,7.4,7.4v11.1c0,4.1-3.3,7.4-7.4,7.4h-71.1c-4.1,0-7.4-3.3-7.4-7.4v-11.1
	C473.9,596.3,477.2,593,481.3,593z M571.3,619h71.1c4.1,0,7.4,3.3,7.4,7.4v11.1c0,4.1-3.3,7.4-7.4,7.4h-71.1c-4.1,0-7.4-3.3-7.4-7.4
	v-11.1C563.9,622.3,567.2,619,571.3,619z M661.3,645h71.1c4.1,0,7.4,3.3,7.4,7.4v11.1c0,4.1-3.3,7.4-7.4,7.4h-71.1
	c-4.1,0-7.4-3.3-7.4-7.4v-11.1C653.9,648.3,657.2,645,661.3,645z M481.3,554h71.1c4.1,0,7.4,3.3,7.4,7.4v11.1c0,4.1-3.3,7.4-7.4,7.4
	h-71.1c-4.1,0-7.4-3.3-7.4-7.4v-11.1C473.9,557.3,477.2,554,481.3,554z M571.3,580h71.1c4.1,0,7.4,3.3,7.4,7.4v11.1
	c0,4.1-3.3,7.4-7.4,7.4h-71.1c-4.1,0-7.4-3.3-7.4-7.4v-11.1C563.9,583.3,567.2,580,571.3,580z M661.3,606h71.1
	c4.1,0,7.4,3.3,7.4,7.4v11.1c0,4.1-3.3,7.4-7.4,7.4h-71.1c-4.1,0-7.4-3.3-7.4-7.4v-11.1C653.9,609.3,657.2,606,661.3,606z
	 M201.3,502h71.1c4.1,0,7.4,3.3,7.4,7.4v11.1c0,4.1-3.3,7.4-7.4,7.4h-71.1c-4.1,0-7.4-3.3-7.4-7.4v-11.1
	C193.9,505.3,197.2,502,201.3,502z M291.3,528h71.1c4.1,0,7.4,3.3,7.4,7.4v11.1c0,4.1-3.3,7.4-7.4,7.4h-71.1c-4.1,0-7.4-3.3-7.4-7.4
	v-11.1C283.9,531.3,287.2,528,291.3,528z M381.3,554h71.1c4.1,0,7.4,3.3,7.4,7.4v11.1c0,4.1-3.3,7.4-7.4,7.4h-71.1
	c-4.1,0-7.4-3.3-7.4-7.4v-11.1C373.9,557.3,377.2,554,381.3,554z M291.3,489h71.1c4.1,0,7.4,3.3,7.4,7.4v11.1c0,4.1-3.3,7.4-7.4,7.4
	h-71.1c-4.1,0-7.4-3.3-7.4-7.4v-11.1C283.9,492.3,287.2,489,291.3,489z M381.3,515h71.1c4.1,0,7.4,3.3,7.4,7.4v11.1
	c0,4.1-3.3,7.4-7.4,7.4h-71.1c-4.1,0-7.4-3.3-7.4-7.4v-11.1C373.9,518.3,377.2,515,381.3,515z M481.3,502h71.1
	c4.1,0,7.4,3.3,7.4,7.4v11.1c0,4.1-3.3,7.4-7.4,7.4h-71.1c-4.1,0-7.4-3.3-7.4-7.4v-11.1C473.9,505.3,477.2,502,481.3,502z
	 M571.3,528h71.1c4.1,0,7.4,3.3,7.4,7.4v11.1c0,4.1-3.3,7.4-7.4,7.4h-71.1c-4.1,0-7.4-3.3-7.4-7.4v-11.1
	C563.9,531.3,567.2,528,571.3,528z M661.3,554h71.1c4.1,0,7.4,3.3,7.4,7.4v11.1c0,4.1-3.3,7.4-7.4,7.4h-71.1c-4.1,0-7.4-3.3-7.4-7.4
	v-11.1C653.9,557.3,657.2,554,661.3,554z M571.3,489h71.1c4.1,0,7.4,3.3,7.4,7.4v11.1c0,4.1-3.3,7.4-7.4,7.4h-71.1
	c-4.1,0-7.4-3.3-7.4-7.4v-11.1C563.9,492.3,567.2,489,571.3,489z M661.3,515h71.1c4.1,0,7.4,3.3,7.4,7.4v11.1c0,4.1-3.3,7.4-7.4,7.4
	h-71.1c-4.1,0-7.4-3.3-7.4-7.4v-11.1C653.9,518.3,657.2,515,661.3,515z M482.4,686c242.2,0,438.5,16.1,438.5,36s-196.3,36-438.5,36
	S43.9,741.9,43.9,722S240.2,686,482.4,686z"/>
<path d="M84.7,186.8c41.3,17.9,65.1,55,65.1,55s-43.3,8-84.7-9.9S0,176.9,0,176.9S43.3,168.9,84.7,186.8z M211.6,118
	c12.8-21,34.6-31,34.6-31s1,23.9-11.8,44.9s-34.6,30.9-34.6,30.9S198.8,138.9,211.6,118L211.6,118z M857.5,701.9
	c0-50.8,35.2-91.9,78.7-91.9 M78.6,712.7c0-40.4,28-73.1,62.6-73.1"/>
<path fill="#46455B" d="M22.5,640.4c0,40,25.1,72.3,56.1,72.3 M787,611c0,50.2,31.5,90.9,70.5,90.9"/>
<path d="M42.8,644c0,38,16,68.7,35.8,68.7 M812.5,615.6c0,47.7,20.1,86.3,44.9,86.3"/>
<path fill="#46455B" d="M78.6,712.7c0-51.7,32.3-93.5,72.3-93.5 M857.5,701.9c0-64.9,40.7-117.5,90.9-117.5"/>
<path fill="#46455B" d="M117.5,140.5c9.2,32.7,34.4,54.2,34.4,54.2s10.4-31.5,1.2-64.1s-34.4-54.2-34.4-54.2
	S108.4,107.8,117.5,140.5z"/>
<path fill="#3F3D56" d="M126.1,139h714.6c4,0,7.2,3.2,7.2,7.2v350.6c0,4-3.2,7.2-7.2,7.2H126.1c-4,0-7.2-3.2-7.2-7.2V146.2
	C118.9,142.2,122.1,139,126.1,139z"/>
<path opacity="0.1" enable-background="new    " d="M118.9,482h729v14.8c0,4-3.2,7.2-7.2,7.2l0,0H126.1c-4,0-7.2-3.2-7.2-7.2V482z"
	/>
<path d="M192.4,455h49c1.4,0,2.5,1.1,2.5,2.5v22c0,1.4-1.1,2.5-2.5,2.5h-49c-1.4,0-2.5-1.1-2.5-2.5v-22
	C189.9,456.1,191,455,192.4,455z M260.9,478h33c1.1,0,2,0.9,2,2l0,0c0,1.1-0.9,2-2,2h-33c-1.1,0-2-0.9-2-2l0,0
	C258.9,478.9,259.8,478,260.9,478z M226,210.4c26.4,4.9,53.3,0,79.6-3.3l79.9-10c3.2-0.4,7.9-2.3,9.8,1.6c1.1,2.2,0.4,7,0.4,9.5
	c0.2,7,0.2,14,0,21c-0.4,13.4-1.3,26.7-2.6,40.1c-2.4,26.1-5.9,52-7.6,78.2c-0.9,13.3-1.3,26.7-0.9,40c0.1,3.2,0.2,6.4,0.4,9.5
	c0.2,3.5,1.8,8.8-2.1,11.2c-2.2,1.4-6.6,1.3-9.1,1.7c-4,0.6-8,1.1-12.1,1.5c-26.9,2.7-54.1,1.6-81.1,1.4l-81.5-0.4l-19.9-0.1
	c-1.8,0-8.3,1.1-9.4-1.1c-0.5-0.9,0.8-5.2,1-6.3c0.3-1.9,0.6-3.8,1-5.6c2.3-13.1,5.1-26.2,7.8-39.3c5.9-28,12-56.1,14.4-84.7
	c1.2-14.4,0.4-28.8,1.9-43.2c0.7-6.6,1.5-21.5,10.4-22.1c7.5-0.5,15.2,0,22.7,0c0.8,0,1.5-0.7,1.5-1.5s-0.7-1.5-1.5-1.5
	c-7.1,0-14.2-0.2-21.3-0.1c-4.7,0.1-8,1.2-10.3,5.6c-5.8,11.1-5.2,26-5.3,38.2c-0.4,29.1-4.9,57.6-10.7,86.1
	c-2.9,14.3-6.1,28.6-9,43c-1.4,6.9-2.7,13.7-3.9,20.6c-0.6,3.3-3.4,10.5-0.9,13.5s10.1,1.4,13.6,1.4l23.9,0.1l45.7,0.3
	c29.5,0.2,59.2,1,88.7,0.1c14.1-0.4,29-1,42.7-4.4c4.1-1,6.1-2.9,6.2-7.2c0.2-6.8-0.9-13.7-1-20.5c-1-58.1,12.6-115.4,11.3-173.5
	c-0.1-3.9,1.4-13.9-2.9-16.3c-1.9-1.1-4.5-0.5-6.5-0.3c-3.9,0.4-7.8,1-11.7,1.5l-50.6,6.3c-16.2,2-32.4,4.2-48.6,6
	c-17.2,2-34.5,3.2-51.6,0c-1.9-0.4-2.7,2.5-0.8,2.9L226,210.4z M194.2,245.7l199.8-9.8c1.9-0.1,1.9-3.1,0-3l-199.8,9.8
	C192.3,242.8,192.3,245.8,194.2,245.7z M255.7,221c-1.9,2-1.8,5.2,0.2,7.1c0.5,0.4,1,0.8,1.6,1c2.7,1.2,5.9,0.2,8.5-0.5
	c4-1,8-1.9,12.1-2.6c8.9-1.6,18-2.4,27.1-2.5c4.1-0.1,8.3,0.1,12.4,0.3c3,0.1,6.2,0.4,8.8-1.5c2.9-2.1,3.8-6.3,1-8.8
	c-4-3.6-12.6-1.5-17.2-1.1c-16.8,1.4-33.4,3.9-49.9,7.4c-1.9,0.4-1.1,3.3,0.8,2.9c10.8-2.3,21.8-4.2,32.8-5.6
	c5.4-0.7,10.8-1.2,16.3-1.7c2.6-0.2,5.1-0.4,7.7-0.6c1-0.1,2.1-0.2,3.1-0.1c3.2,0.1,3.5-0.5,1.6,3.3c-1.7,3.4-1.1,3-4.1,2.9
	c-1.2,0-2.5-0.1-3.7-0.2c-2.5-0.1-5.1-0.2-7.6-0.2c-5.4,0-10.8,0.3-16.2,0.8c-4.6,0.4-9.1,1.1-13.6,1.9c-2.8,0.5-5.6,1.1-8.4,1.7
	c-1.2,0.3-2.5,0.6-3.7,0.9c-0.6,0.2-1.2,0.3-1.8,0.4c-2.2,0.8-4-0.2-5.6-3C259.2,221.8,257.1,219.6,255.7,221L255.7,221z M292,263.7
	c-14.5-0.6-30.1,3.4-39.6,15c-7.5,9.1-11.7,24.7-3.8,35c8.5,11,27.1,9.1,38.3,4.4c11.9-5,24.9-15.3,28.5-28.2
	c4.5-16.1-10-28.3-25-28.5c-1.9,0-1.9,3,0,3c8.6,0.1,17,3.8,21,11.8c4.2,8.4,0.6,17.3-5,24c-8.9,10.7-22.9,18.8-37.2,18.6
	c-8.5-0.1-18-3.1-20.6-12.1c-2.2-7.3-0.5-15.3,3.3-21.8c8.2-14,25-18.7,40.3-18.1C294,266.8,294,263.8,292,263.7L292,263.7z
	 M277.6,285.9c-2-0.7-4.3,0.3-5,2.3c-0.2,0.5-0.3,1.1-0.2,1.7c0.3,3.9,4.6,5,7.8,4.8c2.8-0.2,6-1.3,5.1-4.8
	c-0.4-1.2-1.3-2.3-2.4-2.8c-0.9-0.4-1.9-0.5-2.8-0.4c-0.4,0-3.8,1.2-2.3-0.3l-2.4-0.3c0.5,0.5,0.8,1.3,0.7,2c0,0.8,0.7,1.5,1.5,1.5
	c0.3,0,0.5-0.1,0.7-0.2c1-0.4,2.2,0.1,2.6,1.1c0.2,0.4,0.2,0.8,0.1,1.3c-0.2,0.8,0.3,1.6,1.1,1.8c0.6,0.1,1.3-0.1,1.6-0.7
	c1-1.8,2.2-5.4,0.7-7.3c-1-1.3-2.9-0.9-4.1-0.1c-0.7,0.5-1.4,1.1-2.1,1.8c-1.2,1.1-2,1.6-1.5-0.5c0.8-3.7,4.3-6.7,7.6-8.2l-2.2-1.7
	c-1.2,4.3-3.2,8.4-6,11.9l2.6,1.1c-0.1-2.8,1.5-5.4,4.1-6.5h-1.5l0.8,1.3c-0.3,1.9,2.6,2.7,2.9,0.8c0.4-2.5-1.2-5.7-4.1-4.5
	c-3.5,1.4-5.2,5.4-5.2,8.9c0,1.2,1.7,2.1,2.6,1.1c3.2-3.9,5.5-8.4,6.8-13.2c0.2-0.8-0.3-1.6-1.1-1.8c-0.4-0.1-0.8,0-1.1,0.1
	c-3,1.4-5.5,3.6-7.3,6.3c-1.2,2-2.8,5.1-1.5,7.4c0.8,1.5,2.8,2.1,4.3,1.2c0,0,0,0,0,0c0.9-0.5,1.8-1.2,2.5-2c0.4-0.3,0.8-0.9,1.3-1
	c0.4-0.3,0.4-0.1-0.1,0.5c0,1-0.3,2-0.9,2.9l2.7,1.1c0.7-2.7-0.9-5.4-3.6-6.1c-1.2-0.3-2.5-0.2-3.6,0.4l2.3,1.3
	c0-1.3-0.4-2.5-1.1-3.5c-0.4-0.7-1.4-0.9-2.1-0.5c-0.1,0.1-0.2,0.1-0.3,0.2c-1.5,1.6-1.8,4.3,0.1,5.8c1.4,1.1,2.1,0,3.7-0.3
	c5.3-0.7,2.2,1.7,0.3,1.8c-0.8,0.1-1.7,0-2.5-0.2c-2.1-0.7-2.2-1.6-0.4-2.7C278.6,289.6,279.4,286.7,277.6,285.9L277.6,285.9z
	 M275.2,291.4c1.2,4-3.9,5.3-6.3,6.7c-1.7,0.9-3.2,2.2-4.3,3.8c-2.5,3.4-3.5,7.7-4.3,11.7c-0.4,1.9,2.5,2.7,2.9,0.8
	c0.5-3,1.3-5.9,2.5-8.6c1.8-3.6,4.4-4.8,7.7-6.6s5.8-4.7,4.6-8.6C277.5,288.7,274.6,289.5,275.2,291.4L275.2,291.4z M280.2,289.4
	c-1.5,0.2-2.6,1.5-2.5,3c0,1.2,0.8,2,1.3,2.9c1.3,1.9,2.3,4.1,2.9,6.3c0.5,2.1,1,6-0.2,8c-2.1,3.7-5.8,3-9,3c-3,0-5.3,1-5.2-3.2
	c0.1-2.4,1.7-4.7,3-6.6l-2.7-0.4c0.6,3.1,0.9,6.2,0.9,9.3c0,1.4,2.1,2.2,2.8,0.8c1.6-3.4,2.9-6.9,3.8-10.5l-3-0.4l0.5,7.6
	c0,0.8,0.7,1.5,1.5,1.5c0.5,0,1-0.3,1.2-0.7c0.4-0.4,0.6-0.8,0.8-1.4c0.1-0.5-0.8-3.6-1.2-2.5l2.9,0.4l0.2-7.2l-3,0.4
	c0.6,2,0.8,4.2,0.6,6.3c-0.2,1.7,2.6,2,3,0.4l1.9-9.7l-2.7,0.4c0.7,1.3,0.8,2.9,0.5,4.3c-0.2,1.9,2.8,1.9,3,0c0.3-2-0.1-4-0.9-5.8
	c-0.4-0.7-1.4-0.9-2.1-0.5c-0.3,0.2-0.6,0.5-0.7,0.9l-1.9,9.7l3,0.4c0.3-2.4,0.1-4.8-0.7-7.1c-0.2-0.8-1.1-1.3-1.9-1
	c-0.6,0.2-1.1,0.8-1.1,1.4l-0.2,7.2c0,1.8,2.4,2,3,0.4l0.2-0.5c0.1-0.5,0-1.1-0.4-1.5c-3.1-3.4-3.7,2-4.8,3.5l2.8,0.8l-0.5-7.6
	c-0.1-1.6-2.5-2.1-3-0.4c-0.8,3.4-2,6.7-3.5,9.8l2.8,0.8c0-3.4-0.4-6.7-1-10.1c-0.3-1.4-2.1-1.3-2.7-0.4c-2,2.9-5.5,9.2-2.8,12.6
	c2.3,3,9.7,1.8,12.8,1.6c4.9-0.3,6.7-3.4,7.3-8.1c0.3-2.2,0.1-4.5-0.4-6.7c-0.3-1.2-3-8.7-3.8-8.5
	C282.9,292,282.1,289.1,280.2,289.4L280.2,289.4z M274.4,296.1l-8.2,10.8l2.6,1.5l6-8.7l-2.7-1.2l-3,11.4c-0.2,0.8,0.3,1.6,1.1,1.8
	c0.6,0.1,1.3-0.1,1.6-0.7c1.4-2.3,2.9-4.4,4.6-6.4l-2.5-1.5c-0.7,2.6-2,5-3.8,6.9l2.5,1.5c0.2-1.4,0.5-2.7,1.1-4
	c0.8-1.7-1.7-3.3-2.6-1.5c-0.8,1.6-1.8,3.1-2.9,4.5l2.7,0.4l0.6-2.9l-2.7-0.4l0.4,2.5c0.2,0.8,1.1,1.3,1.9,1
	c0.2-0.1,0.5-0.2,0.6-0.4c2.5-2.6,4.6-5.7,6-9h-2.6c0.7,1.3,1.2,2.6,1.4,4c0.4,1.8,2.8,1.1,2.9-0.4c0.4-3.3,0.6-6.7,0.7-10.1h-3v6.3
	c0,1.6,2.7,2.1,3,0.4c0.2-1.5,0.7-3,1.5-4.3H279c0.6,1,1,2.2,1,3.4c0,0.8,0.7,1.5,1.5,1.5s1.5-0.7,1.5-1.5l0.4-2h-2.9
	c0.3,1.8,1.4,11.7-2.5,10.6c-0.7-0.2-0.9-0.1-0.6,0.1l0.9-1.9l2.1-4.4l-2.8-0.8c0.2,2.1,0.4,5-0.9,6.8c-1,1.4-4.1,2-5.6,1.2
	c-1-0.7-1.9-1.7-2.6-2.7l-2,2c1.7,1.2,4.4,4.2,6.5,4.4c1.6,0.1,3-1.2,4.1-2.3c3.3-3.4,5.1-8.1,4.9-12.8c0-0.8-0.7-1.5-1.5-1.5
	s-1.5,0.7-1.5,1.5v3.4c0,0.8,0.7,1.5,1.5,1.5s1.5-0.7,1.5-1.5v-8.4c0-0.8-0.7-1.5-1.5-1.5s-1.5,0.7-1.5,1.5c0,2-0.2,4-0.5,6l3,0.4
	c-0.2-2.4-0.3-4.8-0.3-7.2c0-0.8-0.7-1.5-1.5-1.5c-0.7,0-1.2,0.4-1.4,1.1c-0.5,1.9-1,3.8-1.5,5.7l2.7-0.4l-0.2-0.8
	c-0.1-1.9-3.1-1.9-3,0c0,0.8,0.2,1.6,0.6,2.3c0.6,1.2,2.4,0.8,2.7-0.4c0.6-1.9,1.1-3.8,1.5-5.7l-3-0.4c0,2.4,0.1,4.8,0.3,7.2
	c0.1,1.5,2.6,2.2,2.9,0.4c0.4-2.3,0.6-4.5,0.6-6.8h-3v8.4h3v-3.4h-3c0.2,3.8-1.1,7.5-3.6,10.3c-0.4,0.4-0.8,0.9-1.3,1.2
	c-0.7,0.7-1.4,0.6-1.9-0.3c-1.4-0.6-2.9-2.1-4.1-3s-2.9,0.9-2.1,2c2.3,3.1,5.7,6.5,10,5c4.5-1.6,5.1-7.7,4.8-11.7
	c-0.1-1.3-2.1-2.2-2.8-0.8c-1,2.1-2,4.2-3,6.3c-0.4,0.7-1,1.8-0.9,2.6c0.3,2.3,3.1,1.9,4.7,1.8c6.5-0.5,5.5-9.7,4.7-14.4
	c-0.3-1.5-2.5-1.3-2.9,0c-0.3,0.9-0.5,1.9-0.5,2.8h3c-0.1-1.7-0.6-3.4-1.4-4.9c-0.4-0.7-1.4-0.9-2.1-0.5c-0.2,0.1-0.4,0.3-0.5,0.5
	c-0.9,1.5-1.5,3.2-1.8,5l3,0.4v-6.3c0-0.8-0.7-1.5-1.5-1.5s-1.5,0.7-1.5,1.5c0,3.4-0.2,6.8-0.7,10.1l3-0.4c-0.3-1.6-0.9-3.2-1.7-4.7
	c-0.4-0.7-1.4-0.9-2.1-0.5c-0.2,0.1-0.4,0.3-0.5,0.5c-1.3,3.1-3.2,6-5.5,8.4l2.5,0.7l-0.4-2.5c-0.2-1.3-2.1-1.4-2.7-0.4
	c-1,1.5-1.3,3.4-0.9,5.2c0.3,1.4,2,1.3,2.7,0.4c1.1-1.4,2-2.9,2.9-4.5l-2.6-1.5c-0.7,1.5-1.2,3.1-1.4,4.7c-0.2,1.3,1.4,2.7,2.5,1.5
	c2.1-2.4,3.7-5.2,4.5-8.3c0.4-1.4-1.5-2.6-2.5-1.5c-1.8,2.2-3.5,4.5-5,7l2.7,1.2l3-11.4c0.2-0.8-0.3-1.6-1.1-1.8
	c-0.6-0.1-1.3,0.1-1.6,0.7l-6,8.7c-1.1,1.6,1.5,3,2.6,1.5l8.2-10.8C278.2,296.1,275.6,294.6,274.4,296.1L274.4,296.1z M402,332.2
	c12-7.3,21.5-18.3,32.1-27.5c11.5-9.9,23.6-19.2,36-27.9c24.1-17,49.5-32.2,74.8-47.4c0.7-0.4,0.9-1.4,0.5-2.1
	c-0.4-0.7-1.3-0.9-2-0.5c-25.3,15.2-50.7,30.4-74.8,47.4c-11.4,8-22.5,16.5-33.2,25.5c-11.6,9.8-21.9,22-35,29.9
	C398.8,330.6,400.3,333.2,402,332.2L402,332.2z M583.6,182.8c-13,1.3-27,4.6-35,16c-6.9,9.8-6.8,26.8-0.3,36.9
	c7.4,11.4,22.4,11.8,34.1,8.1s23.8-10.2,23.7-24.1c-0.1-7.5-2.8-15.3-5.8-22.1c-2.6-5.9-7.2-11-14.1-10.4c-1.9,0.2-1.9,3.2,0,3
	c9.3-0.9,12.3,10.1,14.5,17.1c2,6.5,3.8,14.2,0.7,20.6s-10.7,9.7-17.2,12.1c-7,2.5-14.7,4.1-22,2c-14.5-4.1-18.5-22.4-14.3-35.4
	c4.8-15,21.8-19.4,35.7-20.8C585.6,185.7,585.6,182.7,583.6,182.8L583.6,182.8z M603.6,298.9c-13,1.3-27,4.6-35,16
	c-6.9,9.8-6.8,26.8-0.3,36.9c7.4,11.4,22.4,11.8,34.1,8.1s23.8-10.2,23.7-24.1c-0.1-7.5-2.8-15.3-5.8-22.1
	c-2.6-5.9-7.2-11-14.1-10.4c-1.9,0.2-1.9,3.2,0,3c9.3-0.9,12.3,10.1,14.5,17.1c2,6.5,3.8,14.2,0.7,20.6s-10.7,9.7-17.2,12.1
	c-7,2.5-14.7,4.1-22,2c-14.5-4-18.5-22.4-14.3-35.4c4.8-15,21.8-19.4,35.7-20.8C605.6,301.7,605.6,298.7,603.6,298.9L603.6,298.9z
	 M564,212.1l9.5,10.8c0.6,0.6,1.6,0.6,2.1,0c0.2-0.2,0.3-0.4,0.4-0.6c2-5.3,1.6-10.7,2.1-16.2c0.5-5.7,2-11.3,4.3-16.6
	c4.6-10.7,12.4-19.6,22.4-25.6c1.7-1,0.1-3.6-1.5-2.6c-9.8,5.9-17.7,14.5-22.6,24.9c-2.4,5-4.1,10.4-5,15.9
	c-1,6.5-0.1,13.3-2.5,19.5l2.5-0.7l-9.4-10.8C564.9,208.5,562.8,210.6,564,212.1L564,212.1z M406.8,343.9
	c51.6-1.6,103.2-1.9,154.8-1c1.9,0,1.9-3,0-3c-51.6-0.9-103.2-0.6-154.8,1C404.9,341,404.8,344,406.8,343.9z M572.3,314.3
	c17.6,6.9,34.6,15.4,50.7,25.5c1.6,1,3.2-1.6,1.5-2.6c-16.3-10.1-33.5-18.8-51.3-25.8C571.4,310.7,570.6,313.6,572.3,314.3
	L572.3,314.3z M604.4,300.7c-17.9,20.8-28.2,47.1-29.4,74.5c-0.1,1.9,2.9,1.9,3,0c1.1-26.6,11.2-52.1,28.5-72.4
	C607.7,301.4,605.6,299.3,604.4,300.7L604.4,300.7z M204.4,333l111.8-1.5l12.9-0.2c2.3,0,4.6-0.1,6.9-0.1c3.3,0,5.4,2.7,5.4,6
	c-0.1,7-4.5,6.8-10.3,7l-13.9,0.6l-56.6,2.5c-10.1,0.5-20.3,1-30.4,1.4c-9.1,0.3-26.5-2.7-22.5-16c0.6-1.9-2.3-2.6-2.9-0.8
	c-2,6.5,1.5,13.2,7.2,16.6c8.1,4.9,18.8,3.2,27.7,2.8l69.4-3.1l16.9-0.8c4.3-0.2,10.3,0.7,14.3-1.3c4.7-2.4,5.5-11.7,2.5-15.6
	c-1.5-2-3.6-2.2-6-2.3c-6.2-0.2-12.5,0.2-18.8,0.3l-34.6,0.5l-79.1,1C202.4,330,202.4,333,204.4,333L204.4,333z"/>
<path fill="#323444" d="M656,700.5c-2.5,1.6-5.4,2.5-8,3.9s-5.1,3.5-5.9,6.4c-0.3,0.9-0.2,1.9,0.1,2.7c0.6,1,1.6,1.8,2.8,2.2
	c10.7,4.7,22.8,4.9,33.6,0.4c1.9-0.9,3.8-1.7,5.8-2.3c2.4-0.5,4.9-0.8,7.4-0.8c2.6-0.2,5.2-0.5,7.8-1c1.3-0.1,2.5-0.7,3.5-1.5
	c0.9-1.1,1.5-2.4,1.6-3.8c1.2-7.8-0.6-15.7-5-22.3c-0.6-0.9-1.3-1.7-2.2-2.3c-1.1-0.6-2.3-0.9-3.5-0.9c-5-0.6-10.2-1.7-15.3-1.8
	c-3.6-0.1-5.4,1.6-8,4.1C665.6,688.7,662.5,696.4,656,700.5L656,700.5z M729.7,699.8c0,4.9,0.6,10.1,3.6,14c1.4,1.7,3,3.1,4.9,4.3
	c6.3,4,14.6,5.5,21.2,2.1c1.1-0.5,2-1.2,2.6-2.2c1-1.7,0.5-3.9-0.1-5.8l-9.6-33.2c-6.2,1-15.3,1.6-20.8,4.8
	C727.5,685.9,729.7,695.4,729.7,699.8L729.7,699.8z"/>
<path fill="#FBB3B2" d="M650.4,495.3c-0.6,1.8-2.7,2.7-3.8,4.2c-1.3,1.8-1.2,4.3-0.7,6.5c0.6,3.2,2.1,6.2,4.4,8.6
	c2.3,2.4,5.7,3.6,9,3.1c3.2-0.6,6-3.5,6.1-6.7c-0.1-1.5-0.4-3-0.9-4.3l-6.8-19.7c-0.1-0.3-0.2-0.5-0.5-0.7c-0.3-0.1-0.5,0-0.8,0.1
	c-1.6,0.8-4.8,1.6-5.8,3.2S651,493.5,650.4,495.3L650.4,495.3z"/>
<path fill="#323444" d="M647.2,494.3c2.5-0.4,4.7-1.9,7-2.8s5.3-1.3,7.2,0.3c0.6,0.5,1.1,1.1,1.8,1.1c-1-4.9-2.5-9.7-4.5-14.2
	c-0.1-0.2-0.2-0.4-0.4-0.5c-0.3-0.1-0.6-0.1-0.8,0l-6.7,1.8c-2.5,0.6-2.8,0.5-2.6,2.9C648.2,483.8,648.8,494.3,647.2,494.3
	L647.2,494.3z"/>
<path fill="#5B5583" d="M646.4,351.9c-1,1.5-1,3.5-1,5.3c0,8.9,0.1,17.8,1.4,26.5c0.3,2.1,0.7,4.2,0.9,6.3c0.2,3,0.3,5.9,0.1,8.9
	l-1,38.5c-0.1,4.7-0.4,9.8-3.3,13.5c-0.9,1.2-1.3,2.8-1.2,4.3c0.8,9.7,2.4,19.2,4,28.8c5.2-2.3,11.2-2.1,16.1,0.8
	c5-15.9,7.8-32.4,8.3-49c0.2-8.2-0.1-16.4,1.1-24.5c2.1-13.6,1.3-27.6-0.3-41.3c-0.5-4.3-1.5-8.8-4.3-12.2c-2.6-2.9-6.1-5-10-5.8
	C653.7,351,650.3,352,646.4,351.9L646.4,351.9z"/>
<path opacity="0.1" enable-background="new    " d="M646.4,351.9c-1,1.5-1,3.5-1,5.3c0,8.9,0.1,17.8,1.4,26.5
	c0.3,2.1,0.7,4.2,0.9,6.3c0.2,3,0.3,5.9,0.1,8.9l-1,38.5c-0.1,4.7-0.4,9.8-3.3,13.5c-0.9,1.2-1.3,2.8-1.2,4.3
	c0.8,9.7,2.4,19.2,4,28.8c5.2-2.3,11.2-2.1,16.1,0.8c5-15.9,7.8-32.4,8.3-49c0.2-8.2-0.1-16.4,1.1-24.5c2.1-13.6,1.3-27.6-0.3-41.3
	c-0.5-4.3-1.5-8.8-4.3-12.2c-2.6-2.9-6.1-5-10-5.8C653.7,351,650.3,352,646.4,351.9L646.4,351.9z"/>
<path fill="#3C354C" d="M658.7,463.6c-6.7,34.4-3,70,10.5,102.2c1.2,2.4,2,4.9,2.4,7.6c0.5,4.9-1.7,9.6-3,14.3
	c-3,10.8-1.3,22.3,0.7,33.3c0.8,4.6,1.6,9.2,2.5,13.8c0.8,4.5,1.6,9.3-0.5,13.4c1.8,7.5,2.8,14.8,4.6,22.3c0.2,0.6,0.2,1.2,0.2,1.8
	c-0.4,1-1,1.8-1.8,2.5c-2.7,2.8-3.8,6.7-2.8,10.5c4.6-3.3,10.9-2.1,16.2,0s10.4,5,16,5c-0.8-6.6-1.6-13.6,0.8-19.8
	c1.4-3.6,3.9-7,3.8-10.8c-0.1-3.5-2.2-6.5-2.7-9.9c-0.2-2.1-0.1-4.3,0.2-6.4c1.3-12.2-0.2-24.6-1.7-36.8c-0.2-2.4-0.7-4.8-1.7-7
	c-0.7-1.4-1.8-2.8-1.8-4.4c0-1.9,1.5-3.4,2.1-5.2c1-3.3-0.8-7.7,1.9-9.8c7.3-5.4,4.5-18.2,4.3-27.2c-0.1-7.8-0.5-15.6-1-23.4
	c4.6,12.9,6.5,26.7,5.5,40.3c-0.3,4.5-0.9,9.2,0.8,13.3c1.3,3.2,4,5.8,4.7,9.2c0.5,2.1,0.1,4.2,0.2,6.3s0.8,4.4,2.7,5.5
	c0.1,9.6,1,20,1.2,29.6c-0.1,4.9,0.3,9.9,1.2,14.7c0.4,1.5,0.7,3.1,0.7,4.7c-0.2,2-0.8,4-1.6,5.8c-3.5,10.5-1.7,22,5,30.8
	c2.4-4.2,7.3-6.4,12.1-6.8s9.5,0.9,14.2,2.1c-0.7-5.8,0.5-11.8,3.3-16.9c0.8-1.2,1.4-2.4,1.8-3.8c0.5-2.5-0.7-5.1-1.4-7.6
	c-1.1-4-0.7-8.3-0.5-12.5c0.9-14,0.3-28.1-1.8-41.9c-0.3-2.7-1-5.4-1.9-8c-0.4-0.9-0.8-1.8-1.1-2.7c-0.5-1.7-0.7-3.4-0.8-5.1
	l-1.2-16c-0.8-11.2,2.9-22.3,5.4-33.2c1.2-4.9,2.4-9.8,3.2-14.8c1-6.8,1.2-13.7,2.8-20.4c1.4-6,3.9-11.9,4.4-18
	c0.8-9.5-3.2-18.7-7-27.5c-1.6-3.6-7.7-3.2-11.5-3.9c-27.6-4.5-56.7-4.6-82.7,5.6C663.1,459.8,660.7,461.5,658.7,463.6L658.7,463.6z
	"/>
<path fill="#FBB3B2" d="M678.5,286.1l3.1,11.9c0.8,2.7,1.3,5.6,1.4,8.4c0,1-0.2,2.1-0.7,3c-0.5,0.8-1.1,1.4-1.9,1.9
	c-2.1,1.6-3.5,5.3-5.9,6.4c1.2,2.1,2.9,0.8,5.2,1.8c3.9,1.9,7.5,4.6,11.7,5.6c4,0.9,8.2,0,12.2-1c5.6-1.5,11.2-3.6,15.8-7.3
	s7.1-7,7.1-12.8c-5,0.6-9.5-4.5-11.7-9c-0.8-1.7-1.3-3.5-1.7-5.4l-2.7-11.8c-2.9,0.6-5.3,2.7-8.1,3.8s-6.1,1.2-9.2,1.3
	c-5.5,0.3-11,1-16.4,2.1c-0.7,0.1-1.7,0.6-1.5,1.3"/>
<path opacity="0.1" enable-background="new    " d="M678.5,286.1l3.1,11.9c0.8,2.7,1.3,5.6,1.4,8.4c0,1-0.2,2.1-0.7,3
	c-0.5,0.8-1.1,1.4-1.9,1.9c-2.1,1.6-3.5,5.3-5.9,6.4c1.2,2.1,2.9,0.8,5.2,1.8c3.9,1.9,7.5,4.6,11.7,5.6c4,0.9,8.2,0,12.2-1
	c5.6-1.5,11.2-3.6,15.8-7.3s7.1-7,7.1-12.8c-5,0.6-9.5-4.5-11.7-9c-0.8-1.7-1.3-3.5-1.7-5.4l-2.7-11.8c-2.9,0.6-5.3,2.7-8.1,3.8
	s-6.1,1.2-9.2,1.3c-5.5,0.3-11,1-16.4,2.1c-0.7,0.1-1.7,0.6-1.5,1.3"/>
<circle fill="#FBB3B2" cx="691.7" cy="266.2" r="26.5"/>
<path fill="#323444" d="M699,309.8c1.4-3.1,3.5-5.8,6-8c3.7-3.3,8.8-5.9,9.7-10.8l8.1,9.4c0.4,0.4,0.8,1,1,1.5
	c0.2,1.1-0.1,2.2-0.8,3.1c-2,3.2-5.2,5.5-8.1,7.8c-6.8,5.4-13.4,11.2-19.6,17.3c-0.3,0.3-0.6,0.5-1,0.6c-0.4,0-0.8-0.1-1.1-0.3
	c-5.4-2.8-10.1-6.7-14-11.4c-0.3-0.4-0.7-0.8-1.1-0.7c-0.3,0.1-0.5,0.2-0.8,0.4c-2.7,2.2-5.6,4.8-9.1,4.5c4.5-3.2,7-8.6,7.9-14
	c0.2-1.9,0.6-3.7,1.1-5.5c0.6-1.8,2.1-3.2,3.9-3.7c-2.2,3.3-0.7,8,2.2,10.7c2.8,2.4,6.3,4.1,9.9,4.8
	C696.8,316.3,697.8,312.5,699,309.8L699,309.8z M664.5,466.3c3.8,0.9,7.3,2.5,11,3.7c6.7,2.1,13.7,2.8,20.7,2.2c2.1,0,4.2-0.7,6-1.9
	c0.5-0.4,0.9-0.8,1.4-1.2c0.8-0.5,1.7-0.9,2.7-1.1c9.2-2.9,16.8-9.1,24.3-15.1c0.2-0.2,0.5-0.5,0.5-0.8c0-0.2-0.1-0.4-0.3-0.6
	l-3.9-4.5c-10.3,1.8-20.8,1.1-31.2,0.8c-2.1-0.1-4.3,0-6.4,0.2c-2.1,0.2-4.1,0.8-6.1,1.2c-7.7,1.7-15.6,2.3-23.4,3.4
	c-0.5,0-1.1,0.2-1.5,0.5c-0.3,0.3-0.6,0.6-0.8,0.9l-2.7,3.9c-1.1,1.3-1.8,2.8-2.3,4.4c-0.6,3,0.7,4,3.3,3.6
	C658.5,465.4,661.6,465.6,664.5,466.3L664.5,466.3z"/>
<path fill="#5B5583" d="M695.2,325.6c-3.1-3.1-6.5-5.8-10.3-8c-1.5-1-3.2-1.6-5-2c-1.8-0.4-3.7,0.1-5.1,1.3
	c-0.9,0.8-1.5,1.9-2.3,2.7c-1.1,0.9-2.3,1.6-3.7,2.1c-4.6,1.9-8.9,4.4-12.9,7.3c-2.2,1.5-4.1,3.3-5.8,5.4c-4.5,5.8-5.2,13.7-5.1,21
	c0.1,5.1,5,8.9,8.4,12.8c3.2,3.8,6,7.8,8.6,12c1.8,2.9,3.7,6,3.5,9.4c-0.2,2.8-1.8,5.5-1.6,8.3c0.1,1,0.4,1.9,0.5,2.9
	c0.2,2-0.6,4-0.8,6c-0.3,2.8,0.7,5.6,0.7,8.5c0,2-0.3,3.9-0.7,5.8c-1.9,9.1-4.3,18.3-3.8,27.7l-5.5,1c1.8,1.8,1.9,4.8,0.1,6.6
	c-0.3,0.3-0.7,0.6-1.1,0.9c8.7,2.9,18,1.4,27.2,1.4c7.6,0,15.2,1,22.7,0.9s15.4-1.5,21.7-5.8c1.7-1.2,3.3-2.5,5-3.5
	c2.4-1.2,5-2.1,7.7-2.5c4.9-0.9,10-1.4,15-1.3c2.5,0,5.1,0.1,7.1-1.4c2.2-1.6,2.7-4.6,3-7.3c0.3-2.8,0.5-5.7,0.5-8.5
	c0.1-2.2,0-4.4-0.3-6.6c-0.3-1.6-0.7-3.2-1.2-4.8l-3.8-13.3c-1.6-5.5,0.6-11.5,1.1-17.2c0.1-1.3,0.1-2.9-0.9-3.8
	c-0.4-0.3-0.9-0.5-1-1c-0.1-0.5,0-0.9,0.2-1.3c2-4,5-7.5,7.7-11.1c4.6-6.3,8.9-12.9,12.8-19.7c-1.2-14.2-7.2-27.5-16.9-37.9
	c-2-2.2-4.3-4.3-7.1-5.2c-1.8-0.6-3.7-0.9-5.6-0.9c-7.8-0.5-16-1-22.8-4.9c-0.5-0.3-1-0.6-1.6-0.7c-1.5-0.2-2.6,1.3-3.6,2.5
	c-2.5,3-6.2,4.7-9.5,6.9C704.3,314.1,699.6,319.8,695.2,325.6L695.2,325.6z"/>
<path fill="#5B5583" d="M778.3,354.3c1.6,4.9,1.4,10.2,1.9,15.4c0.3,3.1,0.8,6.2,1.6,9.2c0.4,1.7,1,3.2,1.9,4.7
	c0.9,1.3,2.2,2.4,2.8,3.9c0.3,1,0.5,2.1,0.4,3.1l0.1,6.9c0.3,3.7-0.3,7.3-1.6,10.7l-4.3,13.1c-2.3,7.1-4.7,14.3-8.9,20.5
	c-0.6,1-1.5,1.9-2.6,2.4c-0.8,0.2-1.7,0.4-2.6,0.4c-3.1,0.6-5.4,3.3-5.5,6.5c-1-1.5-2.2-2.7-3.7-3.8l-8.8-7c-3-2.4-6.1-4.9-9.8-6.3
	c10-3.1,17.2-11.8,18.4-22.3c0-1.5,0.3-3,1-4.4c0.7-1.2,2.1-2.1,2.2-3.5c0.1-1.8-1.9-3.1-1.9-4.8c0-1.2,0.9-2.1,1.2-3.2
	c0.4-1.3,0.4-2.8,0-4.1l-1.2-6.7c-0.1-0.7-0.3-1.3-0.6-1.9c-0.5-0.6-1-1.1-1.5-1.6c-2.1-2.3-1.2-6,0-8.9c2.7-6.4,6.1-12.4,10.2-17.9
	c1.5-1.9,2.8-3.8,4.1-5.8c1.1-1.8,1.3-4.4,2.4-6C775.1,346.7,777.1,350.4,778.3,354.3L778.3,354.3z"/>
<path fill="#323444" d="M739,434.4c-0.4,0.3-0.8,0.7-1.1,1.2c-1.2,1.5-2.7,2.6-4.5,3.2c1,0.7,1.9,1.4,2.8,2.2
	c7,5.4,13.3,11.5,19,18.2c0.6-2.3,4.4-2.1,5.3-4.2c0.2-0.6,0.3-1.3,0.2-1.9c-0.2-3.4-0.7-6.7-1.4-10c-0.3-1.7-1-3.3-2-4.7
	c-1.4-1.7-3.6-2.5-5.7-3.2C748.4,434,742.2,432.5,739,434.4L739,434.4z"/>
<path fill="#FBB3B2" d="M726.5,442.2c-3,2.2-5.6,5-9,6.5c-2.4,1.1-5.1,1.5-7.2,3.2c1.1,2.5,4.1,3.8,6.8,3.7c2.7-0.3,5.4-1.2,7.6-2.8
	c1.8-1.1,3.9-2.4,5.8-1.6c0.3,1.5-1,3-1,4.5s1.3,2.7,2.5,3.5c6,3.9,13.7,3.5,20.9,3.1c0.4,0,0.8-0.1,1.2-0.3
	c0.3-0.4,0.5-0.8,0.4-1.3c0.1-1.6,0.1-3.1,0.1-4.7c0.4-2.6-0.7-5.2-2.9-6.7c-3.9-3.3-8.1-6.3-12.5-8.9
	C734.9,437.8,730.4,439.3,726.5,442.2L726.5,442.2z"/>
<path fill="#3C354C" d="M701,255.1c-4.4,0.5-7.7,4-7.2,7.8s4.4,6.4,8.8,5.8s7.7-4,7.2-7.8S705.4,254.6,701,255.1L701,255.1z
	 M702.5,267.7c-3.8,0.5-7.1-1.8-7.5-4.9s2.4-6.1,6.1-6.6c3.8-0.5,7.1,1.8,7.5,4.9S706.3,267.2,702.5,267.7z M679.3,257.7
	c-4.4,0.5-7.7,4-7.2,7.8s4.4,6.4,8.8,5.8s7.7-4,7.2-7.8S683.8,257.2,679.3,257.7L679.3,257.7z M680.9,270.3
	c-3.8,0.5-7.1-1.8-7.5-4.9s2.3-6.1,6.1-6.6s7.1,1.8,7.5,4.9S684.6,269.8,680.9,270.3L680.9,270.3z"/>
<path fill="#3C354C" d="M663.3,259.6l9.7,2.1l-1,2.5l-9.1-2.7L663.3,259.6L663.3,259.6z M717.1,253.2l-8.9,4.3l1.5,2.2l8.2-4.8
	L717.1,253.2L717.1,253.2z M687.3,261.1l6.8-0.8l-0.3,1.7l-5.8,0.4L687.3,261.1L687.3,261.1z"/>
<path fill="#CBCEDA" d="M674.2,258.8c0.6-1.4,1-2.9,1-4.4c0-0.9,0.2-1.8,0.5-2.7c0.5-1.1,1.2-2,2.2-2.8c3.1-2.6,7.6-4,12-4.2
	c4.8-0.2,9.6,0.8,13.9,3c1.3,0.6,2.5,1.5,3.5,2.6c1.4,1.7,1.7,3.9,3.1,5.6c2,2.1,4.9,3,7.7,2.4c0.5-1.7-0.2-3.6,0.1-5.4
	c0.4-1.5,0.9-3,1.6-4.4c1.5-4.6-0.7-9.9-5.4-12.6c-1.6-1-3.6-1.6-4.8-3s-1.5-2.8-2.3-4.1c-2.2-3.6-8-5.2-12.4-3.6
	c-1.4,0.5-2.6,1.3-4,1.9c-2.6,1.1-5.6,1.3-8.4,1.6c-2.8,0.3-5.6,1-8.2,2.1c-2.5,1.2-4.5,3.2-5.1,5.5c-0.3,1.1-0.2,2.2-0.5,3.3
	c-1.4,5.4-10.3,8.1-10.8,13.6c-0.2,2,0.9,3.9,2.3,5.6c0.9,1.1,3.2,4.1,4.8,4.5s2.8-1.1,4.3-1.6C671.5,261,673,260.8,674.2,258.8
	L674.2,258.8z"/>
<ellipse opacity="0.1" fill="#FF6347" enable-background="new    " cx="854.4" cy="716.3" rx="17.5" ry="3"/>
<path fill="#A8A8A8" d="M842.6,702.5c0,0,10-0.3,13-2.5s15.4-4.7,16.1-1.3s15,17.1,3.7,17.2s-26.2-1.8-29.2-3.6
	S842.6,702.5,842.6,702.5L842.6,702.5z"/>
<path opacity="0.2" enable-background="new    " d="M875.7,714.8c-11.3,0.1-26.2-1.8-29.2-3.6c-2.3-1.4-3.2-6.4-3.5-8.7h-0.3
	c0,0,0.6,8.1,3.6,9.9s17.9,3.7,29.2,3.6c3.3,0,4.4-1.2,4.3-2.9C879.4,714.2,878.2,714.8,875.7,714.8z"/>
<ellipse opacity="0.1" fill="#FF6347" enable-background="new    " cx="76.1" cy="724.1" rx="13.9" ry="2.4"/>
<path fill="#A8A8A8" d="M66.8,713.2c0,0,7.9-0.3,10.3-2s12.2-3.8,12.8-1s11.9,13.6,3,13.7s-20.9-1.4-23.3-2.8S66.8,713.2,66.8,713.2
	z"/>
<path opacity="0.2" enable-background="new    " d="M93.1,723c-9,0.1-20.9-1.4-23.3-2.9c-1.8-1.1-2.5-5.1-2.8-6.9h-0.3
	c0,0,0.5,6.4,2.9,7.9s14.3,2.9,23.3,2.8c2.6,0,3.5-0.9,3.4-2.3C96,722.4,95,722.9,93.1,723z"/>
</svg>
