<?xml version="1.0" encoding="utf-8"?>
<!-- Generator: Adobe Illustrator 22.1.0, SVG Export Plug-In . SVG Version: 6.00 Build 0)  -->
<svg version="1.1" id="图层_1" xmlns="http://www.w3.org/2000/svg" xmlns:xlink="http://www.w3.org/1999/xlink" x="0px" y="0px"
	 viewBox="0 0 1128.3 786.8" enable-background="new 0 0 1128.3 786.8" xml:space="preserve">
<path opacity="0.1" enable-background="new    " d="M655.7,124.5c-72.3-2.5-141.2-25.9-207-51.4S317.8,19.2,247.3,5.7
	C201.9-3,149.9-4.2,113.4,20.1C78.2,43.5,66.8,83.9,60.7,121.5c-4.6,28.2-7.3,57.9,5.3,84.4c8.8,18.3,24.3,33.8,35,51.3
	c37.4,61.1,11,136.5-29.6,196.3c-19,28-41.1,54.7-55.7,84.5s-21.4,64-8.5,94.4c12.7,30.1,43,52.8,75.9,68.7
	c66.6,32.3,145.2,41.5,221.9,46.8c169.6,11.6,340.2,6.6,510.3,1.5c62.9-1.9,126.2-3.8,188.1-13.5c34.4-5.4,69.9-14,94.9-34.7
	c31.7-26.3,39.6-70.8,18.3-103.8c-35.6-55.3-134.1-69-159-128.4c-13.7-32.7,0.4-69,20.3-99.3c42.7-65,114.3-122,118.1-196.3
	c2.6-51-31.8-102.1-85.1-126.3C955,21.9,877.6,25.1,836.4,67C794,110.1,719.6,126.7,655.7,124.5L655.7,124.5z M1033.1,404.7
	c8.4,0,15.3,6.8,15.3,15.3s-6.8,15.3-15.3,15.3s-15.3-6.8-15.3-15.3S1024.7,404.7,1033.1,404.7z M1087.7,326.2
	c14.1,0,25.6,11.5,25.6,25.6s-11.5,25.6-25.6,25.6s-25.6-11.5-25.6-25.6S1073.6,326.2,1087.7,326.2z M1053.8,450.5
	c14.1,0,25.6,11.5,25.6,25.6s-11.5,25.6-25.6,25.6s-25.6-11.5-25.6-25.6S1039.7,450.5,1053.8,450.5z M36.3,309.3
	c20,0,36.3,16.2,36.3,36.3s-16.2,36.3-36.3,36.3S0,365.6,0,345.6S16.2,309.3,36.3,309.3z"/>
<path d="M902.6,681.9c-4.1-1.3-8.3-1.8-12.6-1.3c-5.2,0.6-4.4,8.4,0.8,8.1c2.6-0.2,5.2-0.7,7.7-1.4L902.6,681.9z
	 M904.2,682c1.9,3.8,2.9,8,3.1,12.3c0.2,5.2-7.7,5.6-8.1,0.4c-0.2-2.6,0-5.2,0.3-7.8L904.2,682z M916,665.1c0,0-2.5-7.9-18-4.9
	c-7,1.4-6.8,11.4,0.2,12.5h0.3C908.7,674.2,912.2,670.1,916,665.1z M917.6,664.7c0,0,8.3,0.7,8.8,16.4c0.2,7.1-9.6,9.2-12.2,2.7
	c0-0.1-0.1-0.2-0.1-0.3C910.4,673.8,913.6,669.5,917.6,664.7z M928.7,644.4c-1.2-5.9-5.5-10.6-11.2-12.5c-10.5-3.3-16,12.4-5.8,16.3
	c4.2,1.5,8.7,2.2,13.2,1.9L928.7,644.4z M941.5,618.2c0,0-4.2-10-15.2-12c-11.6-2.1-15.2,15.3-3.7,18.1c5.2,1.1,10.5,1.2,15.7,0.1
	L941.5,618.2z M949.2,592.5c-3.6-5.7-9.4-9.7-16-11c-10-1.9-13.4,13.1-3.5,15.7c6.2,1.5,12.6,1.4,18.7-0.3L949.2,592.5z
	 M956.4,567.4c-3.2-5.3-8.2-9.2-14-11.1c-10-3.1-14.9,12.1-5,15.4c5.9,2,12.3,1.9,18.1-0.1L956.4,567.4z M959.5,544.5
	c0,0-4-9.4-12.2-14.3c-9.1-5.5-17.7,8-9,14.1c5.4,3.8,12.3,6.4,20.3,4.6L959.5,544.5z M961,517.4c0,0-4.4-9.5-12.9-14
	c-9.5-5-17.7,8.8-8.8,14.8c5.8,3.9,13.1,6.4,20.8,3.4L961,517.4z M960.1,492.6c-3.3-5.1-7.3-9.7-12-13.6c-6.6-5.4-15,4.3-8.7,10.1
	c5.8,5.3,13,9.8,20.5,9.4L960.1,492.6z M957.6,468.9c-3.8-6.4-8.3-12.3-13.6-17.5c-5.2-5-12.8,2.6-8,7.9c5.6,6,13.1,12.2,22.2,14.9
	L957.6,468.9z M952.7,441c-3.1-4.8-6.7-9.3-10.8-13.4c-5.2-5.1-13.1,2.6-8.1,7.9c5.3,5.6,12.2,10.9,20.3,12.7L952.7,441z
	 M948.5,414.9c-3.2-4.3-6.7-8.5-10.4-12.4c-4.2-4.3-10.9,1.8-6.9,6.3c4.6,5.3,10.6,10.1,17.4,10.8L948.5,414.9z M944.1,390.8
	c-2.9-5.7-6.3-11.2-10-16.5c-3.1-4.3-9.7,0.3-6.7,4.7c3.9,5.8,9.2,11.5,16.3,14.2L944.1,390.8z M940.4,358.7c0,0-2.5-4.2-6-9.1
	c-3.3-4.5-10.1,0.1-7.1,4.8c3.4,5.2,7.7,9.6,12.6,10.5L940.4,358.7z M938.7,337.4l-3.1-15.6c-0.8-4.1-7-3.1-6.5,1
	c1.1,8.4,4,16.8,10.3,22.3L938.7,337.4z M940.6,292.9c-0.7-1.6-2.5-2.3-4-1.6c-1.3,0.5-2.1,1.9-1.8,3.3c0.7,4.3,1.8,8.6,3.2,12.8
	L940.6,292.9z M929.4,644.1c5.7-1.9,11.9-0.5,16.4,3.5c8,7.5-2.8,20-11.3,13.1c-3.4-2.9-6.2-6.5-8.2-10.5L929.4,644.1z M942.2,617.3
	c0,0,10.5-2.5,18.7,5.1c8.6,8.1-3.3,21.3-12.4,13.7c-4-3.5-7.2-7.7-9.4-12.5L942.2,617.3z M949.9,594.2c5.5-3.9,12.4-5.5,19-4.2
	c10,2,7.5,17.1-2.6,15.8c-6.3-0.9-12.2-3.4-17.3-7.3L949.9,594.2z M956.9,567.5c4.9-3.7,11-5.5,17.1-5.1c10.5,0.9,9.3,16.8-1.1,16.1
	c-6.2-0.4-12.1-2.8-16.8-6.8L956.9,567.5z M959.4,545.2c0,0,5.5-8.6,14.4-12.1c9.8-3.9,16.1,10.8,6.6,15.4c-6,2.8-13.2,4.3-20.9,1.2
	L959.4,545.2z M959.7,517c0,0,5.6-8.8,14.6-12.2c10-3.8,16.4,11.1,6.8,15.8c-6.3,3.1-13.8,4.6-21.1,0.6L959.7,517z M957.8,492.4
	c2.1-5.7,5.1-11.1,8.8-15.9c5.3-6.7,15.6,1,10.7,8c-4.5,6.4-10.6,12.3-18,13.6L957.8,492.4z M957.1,468.9c1.8-7.2,4.6-14.1,8.1-20.7
	c3.6-6.2,13.1-1.1,9.8,5.4c-3.7,7.4-9.2,15.4-17.1,20.5L957.1,468.9z M951.3,439.7c2.2-5.5,4.9-10.8,8.3-15.8
	c4.1-6,13.3-0.1,9.5,6.1c-4.1,6.8-9.9,13.6-17.6,17L951.3,439.7z M946.6,414.8c1.1-5.3,2.6-10.5,4.3-15.6c2-5.7,10.6-2.9,8.9,2.8
	c-2,6.8-5.4,13.5-11.3,17.1L946.6,414.8z M943.4,390.3c1.5-6.2,3.5-12.4,6-18.3c2.1-4.9,9.5-1.9,7.6,3c-2.4,6.5-6.4,13.3-12.6,17.6
	L943.4,390.3z M938.6,360.9c0,0,0.9-4.8,2.7-10.5c1.6-5.3,9.6-3.2,8.3,2.2c-1.5,6-4,11.6-8.4,14.1L938.6,360.9z M939.7,336.3l5.4-15
	c1.4-4,7.4-2.1,6.3,2c-2.3,8.1-6.4,16-13.5,20.5L939.7,336.3z M946.5,294.5c0,0,0.8-0.7,2.2-1.8c2.7-2.2,6.1,1.6,3.6,4
	c-4.4,4-9.4,7.1-14.8,9.4L946.5,294.5z M946.2,285.8c3.3-6.6,6.9-13.1,10.8-19.3c0.5-1,0.1-2.2-0.8-2.7c-0.8-0.4-1.8-0.3-2.4,0.4
	c-3.2,4.4-6.3,10.8-8.7,20.2L946.2,285.8z"/>
<path fill="#444053" d="M940,365.2l1.2-0.1c-5-46.6-2.9-75.4,5.8-80.9l-0.6-1C937.1,289.1,934.9,317.4,940,365.2L940,365.2z
	 M957.2,475.4l1.7-0.3c-0.7-4.3-1.4-8.7-2.2-13c-7.3-37.8-12.9-72.8-15.8-99.4l-1.3-1c2.8,26.6,8,62.8,15.3,100.7
	C955.8,466.7,956.5,471.1,957.2,475.4L957.2,475.4z M876.2,711c0.3-0.2,26.9-20.6,50.3-59.7c13.7-22.9,23.7-47.8,29.6-73.8
	c7.4-32.5,7.6-70.4,2.3-105.8l-1.6,1.3c12,79.6-10.9,141.4-32.3,177.1c-23.2,38.7-49.5,58.9-49.8,59.1L876.2,711z"/>
<g>
	<ellipse cx="194" cy="698" rx="66.6" ry="12.8"/>
	<ellipse fill="#3F3D56" cx="192.9" cy="692.5" rx="7.8" ry="10.1"/>
	<ellipse fill="#3F3D56" cx="192.9" cy="680.1" rx="7.8" ry="10.1"/>
	<ellipse fill="#3F3D56" cx="192.9" cy="667.7" rx="7.8" ry="10.1"/>
	<ellipse fill="#3F3D56" cx="192.9" cy="655.3" rx="7.8" ry="10.1"/>
	<ellipse fill="#3F3D56" cx="192.9" cy="642.9" rx="7.8" ry="10.1"/>
	<ellipse fill="#3F3D56" cx="192.9" cy="630.5" rx="7.8" ry="10.1"/>
	<ellipse fill="#3F3D56" cx="192.9" cy="618.2" rx="7.8" ry="10.1"/>
	<path d="M221.9,533.3c1.1-1.3,2-2.8,2.9-4.3l-20.4-3.3l22,0.2c4.3-9.3,4.5-19.9,0.7-29.4l-29.5,15.3l27.2-20
		c-10.2-17.8-32.9-23.9-50.7-13.6c-17.8,10.2-23.9,32.9-13.6,50.7c0.9,1.6,1.9,3.1,3,4.5c-1.6,2.1-3.1,4.4-4.2,6.8l26.4,13.7
		l-28.2-9.5c-4,11.9-1.8,25,6,34.8c-12.7,16.1-9.9,39.4,6.2,52.1s39.4,9.9,52.1-6.2c10.6-13.5,10.6-32.4,0-45.9
		C232.5,565.8,232.5,546.8,221.9,533.3L221.9,533.3z"/>
	<path opacity="0.1" enable-background="new    " d="M155.6,556.3c0,8.3,2.8,16.4,7.9,22.9c-12.7,16.1-9.9,39.4,6.2,52.1
		s39.4,9.9,52.1-6.2c10.6-13.5,10.6-32.4,0-45.9C226.9,572.9,155.6,552.1,155.6,556.3z"/>
</g>
<path fill="#FFFFFF" d="M232,261.2v441.7c0,8.5,6.9,15.4,15.4,15.4h633.9c8.5,0,15.4-6.9,15.4-15.4V261.2H232z"/>
<path opacity="0.1" enable-background="new    " d="M293.2,300.8h141.6c4.8,0,8.6,3.9,8.6,8.6v76c0,4.8-3.9,8.6-8.6,8.6H293.2
	c-4.8,0-8.6-3.9-8.6-8.6v-76C284.6,304.7,288.4,300.8,293.2,300.8z M493.5,300.8h141.6c4.8,0,8.7,3.9,8.7,8.6v76
	c0,4.8-3.9,8.6-8.7,8.6H493.5c-4.8,0-8.6-3.9-8.6-8.6v-76C484.9,304.7,488.8,300.8,493.5,300.8z M833.2,392.7H696.1
	c-4.8,0-8.7-3.9-8.7-8.6v-73.3c0-4.8,3.9-8.6,8.7-8.6h137.1c4.8,0,8.7,3.9,8.7,8.6v73.3C841.8,388.9,838,392.7,833.2,392.7z
	 M295.4,433h137.1c4.8,0,8.6,3.9,8.6,8.6V515c0,4.8-3.9,8.7-8.6,8.7H295.4c-4.8,0-8.6-3.9-8.6-8.7v-73.3
	C286.8,436.9,290.7,433,295.4,433z M833.2,523.7H696.1c-4.8,0-8.7-3.9-8.7-8.6v-73.3c0-4.8,3.9-8.7,8.7-8.7h137.1
	c4.8,0,8.7,3.9,8.7,8.7V515C841.8,519.8,838,523.7,833.2,523.7z M632.9,523.7H495.8c-4.8,0-8.7-3.9-8.7-8.6v-73.3
	c0-4.8,3.9-8.7,8.7-8.7h137.1c4.8,0,8.7,3.9,8.7,8.7V515C641.5,519.8,637.7,523.7,632.9,523.7z M295.4,564h137.1
	c4.8,0,8.6,3.9,8.6,8.7v73.3c0,4.8-3.9,8.7-8.6,8.7H295.4c-4.8,0-8.6-3.9-8.6-8.7v-73.3C286.8,567.8,290.7,564,295.4,564z
	 M833.2,654.6H696.1c-4.8,0-8.7-3.9-8.7-8.7v-73.3c0-4.8,3.9-8.7,8.7-8.7h137.1c4.8,0,8.7,3.9,8.7,8.7V646
	C841.8,650.7,838,654.6,833.2,654.6z M632.9,654.6H495.8c-4.8,0-8.7-3.9-8.7-8.7v-73.3c0-4.8,3.9-8.7,8.7-8.7h137.1
	c4.8,0,8.7,3.9,8.7,8.7V646C641.5,650.7,637.7,654.6,632.9,654.6z"/>
<path d="M295.4,302.1h137.1c4.8,0,8.6,3.9,8.6,8.6v73.3c0,4.8-3.9,8.6-8.6,8.6H295.4c-4.8,0-8.6-3.9-8.6-8.6v-73.3
	C286.8,306,290.7,302.1,295.4,302.1z M632.9,392.7H495.8c-4.8,0-8.7-3.9-8.7-8.6v-73.3c0-4.8,3.9-8.6,8.7-8.6h137.1
	c4.8,0,8.7,3.9,8.7,8.6v73.3C641.5,388.9,637.7,392.7,632.9,392.7z"/>
<path d="M232,183.2v80.3h664.7v-80.3c0-8.5-6.9-15.4-15.4-15.4c0,0,0,0,0,0H247.4C238.9,167.8,232,174.7,232,183.2
	C232,183.2,232,183.2,232,183.2L232,183.2z M396.5,207c-6.8,0-12.3-5.5-12.3-12.3s5.5-12.3,12.3-12.3c6.8,0,12.3,5.5,12.3,12.3l0,0
	C408.8,201.5,403.3,207,396.5,207z M732.2,207c-6.8,0-12.3-5.5-12.3-12.3s5.5-12.3,12.3-12.3c6.8,0,12.3,5.5,12.3,12.3l0,0
	C744.5,201.5,739,207,732.2,207C732.2,207,732.2,207,732.2,207L732.2,207z"/>
<path opacity="0.1" enable-background="new    " d="M396.5,180.1c-8,0-14.6,6.5-14.6,14.5c0,8,6.5,14.6,14.5,14.6
	c8,0,14.6-6.5,14.6-14.5c0,0,0,0,0,0C411,186.6,404.5,180.1,396.5,180.1C396.5,180.1,396.5,180.1,396.5,180.1z M396.5,207
	c-6.8,0-12.3-5.5-12.3-12.3s5.5-12.3,12.3-12.3c6.8,0,12.3,5.5,12.3,12.3l0,0C408.8,201.5,403.3,207,396.5,207z M732.2,180.1
	c-8,0-14.5,6.5-14.5,14.5c0,8,6.5,14.6,14.5,14.6c8,0,14.5-6.5,14.5-14.5c0,0,0,0,0,0C746.7,186.6,740.2,180.1,732.2,180.1z
	 M732.2,207c-6.8,0-12.3-5.5-12.3-12.3s5.5-12.3,12.3-12.3c6.8,0,12.3,5.5,12.3,12.3l0,0C744.5,201.5,739,207,732.2,207z"/>
<linearGradient id="SVGID_1_" gradientUnits="userSpaceOnUse" x1="874.2656" y1="-57.4877" x2="874.2656" y2="386.9899" gradientTransform="matrix(1 0 0 -1 -35.84 729.26)">
	<stop  offset="0" style="stop-color:#808080;stop-opacity:0.25"/>
	<stop  offset="0.54" style="stop-color:#808080;stop-opacity:0.12"/>
	<stop  offset="1" style="stop-color:#808080;stop-opacity:0.1"/>
</linearGradient>
<path fill="url(#SVGID_1_)" d="M925.6,740.4c-2.3-1.7-4.8-3.1-7.4-4.2c-0.2-0.1-0.4-0.2-0.7-0.2c-5.5-3.9-10.6-8.3-15.3-13.2
	c1-0.8,1.9-1.6,2.9-2.3c-6-2.9-9.3-9.4-12.6-15.3c-8.6-15.7-19.9-29.8-33.3-41.5c-0.3-1.3-2.3-1-3.3-1.8c-0.7-0.7-1-1.6-0.7-2.5
	c0.2-0.9,0.6-1.8,0.8-2.7c0.5-2.1,0.1-4.3-0.2-6.5s-0.1-4.6,1.3-6.2c0.5-0.5,1-0.9,1.5-1.5c1-1.3,1.3-2.9,1-4.5
	c-0.1-1.6-0.4-3.1-1-4.5c4.9-13.3,9.8-26.7,14.7-40.1c3.4-9.3,6.9-18.9,7.2-28.8c0.3-8-1.8-16.3-6.6-22.4c0.9-0.2,1.8-0.4,2.6-0.7
	c-5.7-7.6-6.3-17.6-6.5-27.2c-0.1-4.8-0.2-9.5-0.5-14.3c1.7,0.7,3.3,1.4,5.1,1.9l1.6,0.5c2.6,0.8,5.2,1.3,7.9,1.7
	c1.2,0.2,2.4,0.3,3.6,0.4c-1.7-4.3-3.4-8.6-5.2-12.9c-0.9-1.9-1.4-4-1.6-6.1V485c0-0.2,0-0.5,0-0.7c0.1-0.6,0.2-1.1,0.4-1.7
	c0.1-0.3,0.2-0.5,0.3-0.8c0.4-0.8,0.8-1.5,1.3-2.3c0.4-0.5,0.8-1.1,1.2-1.6c1.5-1.7,2.7-3.7,3.6-5.8c0.4-1.1,0.5-2.2,0.5-3.3
	c0-1.1-0.1-2.3-0.3-3.4c-0.1-0.7-0.3-1.5-0.5-2.2c-0.1-0.5-0.3-0.9-0.4-1.3l-0.1-0.4c-0.1-0.3-0.2-0.7-0.3-1l-0.1-0.3
	c-0.1-0.4-0.3-0.7-0.4-1.1l-0.1-0.2c-1.9-4.9-4.5-9.6-6-14.6c-0.4-1.3-0.7-2.7-1-4.1c-0.1-0.4-0.1-0.7-0.2-1.1s-0.1-0.6-0.1-0.9
	s-0.1-0.7-0.1-1l-0.1-1c0-0.3,0-0.6-0.1-1c0-0.6-0.1-1.2-0.1-1.8v-2.8c0-0.5,0.1-0.9,0.1-1.4c0-0.2,0-0.4,0.1-0.6
	c0.1-0.7,0.2-1.3,0.3-2c0.1-0.6,0.2-1.2,0.3-1.8c0.4-1.6,0.5-3.3,0.6-5c0-0.3,0-0.6-0.1-1s-0.1-0.5-0.1-0.8c0-0.1,0-0.2,0-0.2
	c0-0.2-0.1-0.4-0.1-0.5s0-0.2-0.1-0.3s-0.1-0.4-0.2-0.5s0-0.1-0.1-0.2s-0.1-0.4-0.2-0.5l-0.1-0.2c-0.1-0.2-0.2-0.4-0.3-0.6
	c-0.4-0.7-0.8-1.4-1.3-2.1c-3.3-4.3-8.8-7.6-11.8-12.4c-1.8-3.1-2.9-6.5-3.4-10c-0.2-0.8-0.3-1.6-0.4-2.4s-0.3-1.6-0.4-2.4
	c-0.1-0.5-0.2-1-0.3-1.4l-0.1-0.3c-0.1-0.4-0.2-0.8-0.3-1.1l-0.1-0.3c-0.1-0.4-0.2-0.8-0.3-1.2l-0.1-0.2c-0.1-0.4-0.2-0.8-0.3-1.3
	c0,0,0-0.1,0-0.1c-0.1-0.4-0.3-0.9-0.4-1.3v-0.1c-0.3-0.9-0.6-1.8-0.9-2.8c-0.2-0.5-0.3-0.9-0.5-1.4c-1.3-3.2-3-6.3-5.1-9
	c-4.6-5.9-11.7-10.1-19-9.8c-3.9,0.1-7.7,1.5-11.4,2.9l-9.6,3.5l2.7-1.2c-2.8,0.3-5.7,0.5-8.2,1.8s-4.7,3.7-4.8,6.5
	c0,1.6,0.6,3.3,0.4,4.9c-0.3,2.7-2.8,4.5-4.1,7c-0.8,1.4-1.1,3.1-1,4.7v0.6c0,0.1,0,0.1,0,0.2v0.3c-4-1.7-8-3.5-12-5.5
	c-6.6-3.3-13.3-7.1-17.4-13.2c-1.3-2-2.3-4.2-3.7-6.1c-1.5-2.1-3.2-4.1-5-6l-12.3-13.3c-0.9,1.8,0.3,3.9,1.2,5.6
	c1,1.8,1.8,3.8,2.3,5.9c0.2,0.7,0.2,1.4-0.1,2c-0.4,0.5-1,0.9-1.7,1.2c-2.3,1.5-3.3,4.3-2.5,6.9c0.9,2.5,3,4.4,5.7,4.9
	c0.9,0.1,1.7,0.3,2.5,0.6c1.5,0.7,2.2,2.4,3.2,3.7c1.9,2.3,5,3.2,7.9,4c4.5,5.2,9.3,10.3,13.8,15.5c6.9,7.9,13.9,16,22.9,21.4
	c0.9,0.6,1.9,1.1,2.8,1.6c0,0.2,0,0.3,0,0.5c-0.3,1.2-0.1,2.4,0.4,3.5c0.8,1.3,2.5,1.6,3.9,1.9l6.8,1.2c-0.1,0.9-0.2,1.8-0.3,2.6
	c-0.1,0.5-0.2,1-0.3,1.6l-0.1,0.7v0.1c0,0,0,0.4-0.1,0.5s0,0.1,0,0.2v1.3c0.2,2.7,2,4.9,3.8,6.9l1,1.1c-1.5,1.9-2.6,4.1-3.1,6.5
	c-0.3,1.5-0.4,3-0.4,4.5c-0.9,0.9-1.6,1.9-2,3.1c-0.5,1.6-0.7,3.3-0.5,5v2c-0.1,2.4,0.3,4.8,1.2,7c0.1,0.2,0.2,0.3,0.3,0.5
	c-1.5,2.9-4,5.2-5.8,8c-3.7,6.3-3.1,14.2,1.6,19.9c1.4,1.6,3.1,3.1,3.3,5.2c0,1-0.1,1.9-0.3,2.8c-0.2,2.3,0.9,4.4,1.4,6.6
	c0.5,1.8,0.5,4-0.5,5.5c-1.1,1.5-1.5,3.4-1.4,5.2c0.5,2.8-0.7,5.7-0.9,8.5c-0.1,1.2,0,2.5-0.1,3.7c-0.1,1.2-0.4,2.3-0.7,3.5
	c0,0.1-0.1,0.3-0.1,0.4c-2.5,1.1-4.9,2.2-7.3,3.5c-1.3,0.6-2.3,1.5-3,2.8c-0.4,1.2-0.5,2.5-0.2,3.8l2.1,14.8l-0.4-0.2
	c0.2,2.4,0.3,4.9,0.5,7.3c0.1,1.8,0.3,3.8,1.4,5.3c0.6,0.6,1.1,1.2,1.5,1.9c0.8,1.7-0.2,3.7-0.9,5.4s-1,4.2,0.6,5.2
	c0.9,0.6,1.8,1.1,2.7,1.5c-2,8.3-0.2,17.1,1.7,25.5c1.4,6.4,2.8,12.8,4.3,19.2c0.6,2.7,0.9,5.5,0.9,8.2v1.2c0.2,3.8,0.9,7.6,2,11.2
	c2.2,7.5,0.1,16.5,0.8,24.6c0.5,3.9,1.2,7.8,2.3,11.6c4.8,19.2,9.1,37.9,10.8,57.6c1.8,2.3,4.2,3.9,6.9,4.8c-0.2,2.4,0.1,5.2,0,6.6
	c0,1.2-0.2,2.3-0.5,3.4c-0.8,2.2-3,3.7-5.2,4.5c-0.7,0.2-1.4,0.4-2.1,0.6l0.8-0.7c-4.6-1-9.4-0.2-13.3,2.3c-1.3,0.6-2.2,1.8-2.6,3.1
	c-0.2,1.3,0.2,2.6,0.9,3.6c2.2,3.2,5.5,5.6,9.3,6.6c3.7,1,7.6,1.5,11.4,1.6l7.1,0.4c-0.5,0.8-0.3,1.9,0.5,2.5
	c0.8,0.6,1.7,0.9,2.6,0.9c2.9,0.4,5.8,0.5,8.7,0.1c0.7,0,1.4-0.3,2-0.7c0.5-0.5,0.6-1.3,0.1-1.8c0,0-0.1-0.1-0.1-0.1
	c0.9,0,1.6-0.6,1.9-1.4c0.3-0.8,0.4-1.7,0.3-2.5c-0.2-3.3-0.5-8.1-2.2-11c-0.6-1.1-1.9-1.7-3.1-1.4c-1.1-5.9-1.8-11.8-2-17.7
	c1.8-0.7,3.5-1.4,5.1-2.3c-4.9-7.9-5-18-3.5-27.2c0.6-2.9,1-5.9,1.3-8.8c0.3-5.9-0.6-12.6-3.8-17.5c6,3.8,11.2,8.6,15.6,14.1
	c6.9,9,11.1,19.9,19.6,27.4c1.1-1.1,2.2-2.2,3.4-3.2c1.8,3,3.5,6.1,5.1,9.3c1.3,2.3,2.2,4.8,2.9,7.3c0.8,3.9,0.9,7.9,0.3,11.8
	c-0.2,2.1-0.5,4.2-0.8,6.2c-0.1,0.9-0.3,1.8-0.6,2.6c0-0.3-0.1-0.5-0.2-0.8c-0.5-0.9-2-0.5-2.8,0.1c-1.4,1.1-2.6,2.4-3.5,4
	c-0.5,0.8-0.7,1.7-0.6,2.5c0.3,1.1,1,2,2,2.5c3.7,2.2,8.4,0.6,12.3-1c1.1-0.4,2.1-0.9,3.1-1.6c2-1.4,3.1-3.8,5.1-5.2
	c1.1-0.6,2.1-1.2,3.1-1.9c1.8-1.7,2-4.5,3.3-6.7c2.2-3.7,7.3-4.6,9.2-8.5C931.7,748.6,929.1,743.2,925.6,740.4L925.6,740.4z"/>
<path fill="#A1616A" d="M839.4,758c0,1.2-0.2,2.3-0.5,3.4c-0.8,2.2-3,3.6-5.2,4.4s-4.6,1-6.8,1.7c-1,0.2-1.9,0.7-2.7,1.4
	c-2,2-0.8,5.6,1.5,7.1s5.3,1.4,8.1,1.3c5.9-0.3,11.8-1.2,17.5-2.5c2.1-0.5,4.5-1.5,4.8-3.6c0.1-0.7,0-1.3-0.2-2
	c-1.4-7.2-2.2-14.4-2.3-21.7c0-0.5-11.6-0.8-12.7-0.1C838.7,748.9,839.6,755.5,839.4,758L839.4,758z M891.2,732.5
	c1.9,3.2,3.7,6.4,5.4,9.7c1.2,2.3,2.2,4.7,2.9,7.2c0.8,3.8,0.9,7.8,0.3,11.6c-0.2,2-0.5,4.1-0.9,6.1c-0.3,2-0.9,4.3-2.6,5.4
	c1.5,0.9,3.4,1.1,5.1,0.5c1.7-0.6,3.2-1.6,4.5-2.8c8.6-7.1,15-17.3,15.3-28.5c0.1-0.9-0.1-1.7-0.5-2.5c-0.4-0.5-0.9-1-1.5-1.3
	c-6.4-4.4-12.3-9.3-17.7-14.9c-0.3-0.4-0.8-0.7-1.3-0.8c-0.4,0-0.8,0.1-1.2,0.3c-3.3,1.7-8.8,4-10.2,7.8
	C889.9,730.8,890.6,731.6,891.2,732.5L891.2,732.5z"/>
<path fill="#3F3D56" d="M851.2,769.6c-7.2,3-15,4.1-22.8,5.1c-1,0.1-2.1,0.2-2.7-0.5c-0.5-0.7-0.6-1.6-0.2-2.3
	c0.4-0.7,1-1.3,1.7-1.8l5.2-4.3c-4.5-1-9.2-0.1-13.1,2.3c-1.2,0.6-2.2,1.7-2.6,3c-0.2,1.3,0.2,2.5,0.9,3.5c2.2,3.2,5.5,5.5,9.2,6.5
	c3.7,1,7.5,1.5,11.4,1.6l7,0.4c-0.5,0.8-0.3,1.9,0.5,2.5c0.8,0.6,1.7,0.9,2.6,1c2.9,0.4,5.8,0.5,8.7,0.1c0.7,0,1.4-0.3,2-0.7
	c0.5-0.5,0.6-1.3,0.1-1.8c0,0-0.1-0.1-0.1-0.1c0.9,0,1.6-0.6,1.9-1.4c0.3-0.8,0.4-1.7,0.3-2.5c-0.2-3.2-0.5-8-2.2-10.8
	S853.6,768.6,851.2,769.6L851.2,769.6z M925.5,741c-2.3-1.7-4.8-3.1-7.4-4.1c-0.4-0.3-0.9-0.2-1.2,0.2c0,0.1-0.1,0.1-0.1,0.2
	c-4.7,6.4-8.4,13.5-10.9,21.1c-1.4,4.3-2.6,8.9-5.5,12.4c-0.4,0.5-1,0.9-1.5,0.7c-0.8-0.4-0.3-1.6-0.7-2.3c-0.5-0.9-1.9-0.5-2.8,0.1
	c-1.4,1.1-2.6,2.4-3.4,4c-0.5,0.7-0.7,1.6-0.6,2.5c0.3,1.1,1,2,2,2.5c3.7,2.2,8.4,0.6,12.3-1c1.1-0.4,2.1-0.9,3.1-1.5
	c2-1.4,3.1-3.8,5.1-5.1c1.1-0.6,2.1-1.2,3.1-1.9c1.8-1.7,2-4.5,3.3-6.6c2.2-3.6,7.3-4.6,9.2-8.4C931.5,749.2,928.9,743.8,925.5,741
	L925.5,741z M869.7,541.2c7.9,5.9,11.2,16.4,10.8,26.2s-3.8,19.2-7.2,28.5c-4.9,13.2-9.8,26.4-14.7,39.5c0.5,1.4,0.9,3,1,4.5
	c0.3,1.5-0.1,3.2-1,4.4c-0.5,0.5-1,0.9-1.5,1.5c-1.4,1.6-1.5,4-1.3,6.1s0.7,4.3,0.2,6.4c-0.2,0.9-0.7,1.7-0.8,2.6
	c-0.2,0.9,0.1,1.9,0.7,2.5c1,0.8,3,0.5,3.3,1.8c13.4,11.6,24.7,25.5,33.3,41c3.2,5.8,6.5,12.3,12.6,15.1
	c-5.9,4.7-11.5,9.6-16.9,14.9c-8.5-7.4-12.7-18.2-19.6-27c-4.4-5.5-9.6-10.2-15.6-13.9c3.3,4.8,4.2,11.4,3.8,17.2
	c-0.3,2.9-0.7,5.8-1.3,8.7c-1.5,9.1-1.4,19,3.5,26.9c-5.2,2.7-11.3,4.7-17.1,3.9c-3.7-0.5-7-2.4-9.3-5.3c-1.7-19.4-6-38-10.8-56.9
	c-1.1-3.8-1.9-7.6-2.3-11.5c-0.7-8,1.4-16.9-0.8-24.3c-1.1-3.6-1.8-7.3-2-11.1v-1.2c-0.1-2.7-0.4-5.4-0.9-8.1l-4.3-18.9
	c-1.9-8.3-3.7-16.9-1.7-25.1c-1-0.4-1.9-0.9-2.7-1.4c-1.6-0.9-1.4-3.4-0.6-5.1s1.7-3.7,0.9-5.3c-0.4-0.7-0.9-1.3-1.5-1.9
	c-1.1-1.5-1.3-3.4-1.4-5.2l-0.5-7.2c3,1.2,5.5,3.4,7.1,6.2c-3.9-6.1-2-14.8,0.9-21.5c1.1-4.2,4.8-7.1,9.2-7.3
	C837.1,538.2,856.6,531.4,869.7,541.2L869.7,541.2z"/>
<path opacity="0.1" enable-background="new    " d="M862.3,582.3c0,0-7.9,5.3-7.9,9.2s-2,39.4-2,39.4v25c0,0,1.3,13.1,0,16.4
	s0,18.4,0,20.4s2-20.4,2-20.4v-23.7l2-53.9L862.3,582.3z"/>
<path fill="#A1616A" d="M818.4,400.2l-4.6-1.8c-9.4-3.8-18.8-7.5-27.8-11.9c-6.6-3.2-13.3-7-17.4-13c-1.3-2-2.3-4.1-3.7-6.1
	c-1.5-2.1-3.2-4.1-5-5.9l-12.3-13.1c-0.9,1.8,0.3,3.8,1.2,5.5c1,1.8,1.8,3.8,2.3,5.8c0.2,0.7,0.2,1.4-0.1,2c-0.4,0.5-1,0.9-1.7,1.2
	c-2.3,1.4-3.3,4.2-2.5,6.8c0.9,2.5,3,4.4,5.7,4.9c0.9,0.1,1.7,0.3,2.5,0.6c1.5,0.7,2.2,2.4,3.2,3.6c1.9,2.3,5,3.2,7.9,3.9
	c4.5,5.2,9.3,10.1,13.8,15.3c6.9,7.8,13.9,15.8,22.8,21.1c3.2,1.9,6.7,3.3,10.3,4.1C814.4,415.3,816.1,407.7,818.4,400.2
	L818.4,400.2z"/>
<path opacity="0.15" enable-background="new    " d="M818.4,400.2l-4.6-1.8c-9.4-3.8-18.8-7.5-27.8-11.9c-6.6-3.2-13.3-7-17.4-13
	c-1.3-2-2.3-4.1-3.7-6.1c-1.5-2.1-3.2-4.1-5-5.9l-12.3-13.1c-0.9,1.8,0.3,3.8,1.2,5.5c1,1.8,1.8,3.8,2.3,5.8c0.2,0.7,0.2,1.4-0.1,2
	c-0.4,0.5-1,0.9-1.7,1.2c-2.3,1.4-3.3,4.2-2.5,6.8c0.9,2.5,3,4.4,5.7,4.9c0.9,0.1,1.7,0.3,2.5,0.6c1.5,0.7,2.2,2.4,3.2,3.6
	c1.9,2.3,5,3.2,7.9,3.9c4.5,5.2,9.3,10.1,13.8,15.3c6.9,7.8,13.9,15.8,22.8,21.1c3.2,1.9,6.7,3.3,10.3,4.1
	C814.4,415.3,816.1,407.7,818.4,400.2L818.4,400.2z"/>
<path d="M810,426.3c-1.5-0.3-3.1-0.6-3.9-1.9c-0.5-1.1-0.7-2.3-0.4-3.5c0.8-7.5,2.5-15,5-22.1c2.2,4.1,6.6,6.5,10.8,8.7
	c3.7,2.1,7.6,3.8,11.6,5.3c-1-0.3-3.5,15.1-4.8,16c-1.7,1.2-5.9-0.4-7.9-0.8L810,426.3z"/>
<circle fill="#A1616A" cx="820.7" cy="400.7" r="21"/>
<path fill="#FBBEBE" d="M816.4,418.1c0,0,13.8,11.8,7.9,19.7s-9.2,13.1-1.3,13.8s34.2-13.1,34.2-13.1s-24.3-19.7-20.4-31.5
	S816.4,418.1,816.4,418.1L816.4,418.1z"/>
<path d="M829.6,436.6c-6,1.4-10.7,6.1-12.1,12.1c-1.5,7.1,1.7,15-1.4,21.5c-1.5,3.1-4.2,5.4-6,8.3
	c-3.7,6.2-3.1,14.1,1.6,19.6c1.4,1.6,3.1,3.1,3.3,5.1c0,0.9-0.1,1.9-0.3,2.8c-0.2,2.2,0.9,4.4,1.4,6.5c0.5,1.8,0.5,3.9-0.5,5.4
	c-1,1.5-1.5,3.3-1.4,5.2c0.5,2.8-0.7,5.6-0.9,8.4c-0.1,1.2,0,2.4-0.1,3.7c-0.1,1.2-0.4,2.3-0.7,3.4l-1.8,6.5
	c9.5,4.1,19.7,5.5,30,5.4c9.2-0.2,18.3-2.1,27.4-4c2.8-0.6,5.5-1.2,8.2-1.9c-5.7-7.5-6.3-17.4-6.5-26.8c-0.2-15.7-1.4-31.3-3.5-46.9
	c2.8-5.2,4-11.1,5.1-16.9c0.5-2.3,0.7-4.7,0.6-7.1c-0.3-5-2.6-9.8-4.8-14.3c-2.1-4.1-4.3-8.5-8.9-10.3c-2.3-0.9-4.8-0.7-6.8,0.8
	c-3.5,2.6-2.4,7.1-3.3,11c-1.2,5-5.8,8.6-10.7,10c-3.7,1-7.5,1.3-11.2,1c-1.1-0.1-1.9-1-1.9-2.1c0-0.4,0.2-0.8,0.5-1.2
	C826.6,440.1,828.2,438.3,829.6,436.6L829.6,436.6z"/>
<path fill="#A1616A" d="M845.9,517.9c-7.8,6.4-15.7,12.8-24.6,17.3c-5.3,2.6-10.9,4.6-16,7.4c-1.3,0.6-2.3,1.5-3,2.7
	c-0.4,1.2-0.5,2.5-0.2,3.8l2.3,15.7c0.6,4.3,4.7,7,8,9.7c-0.2-1.4-0.5-2.5,0.2-3.8c0.2-0.4,0.5-0.8,0.8-1.2c1.4-2.1,1.5-4.9,1.1-7.4
	s-1-5-0.9-7.6c-0.1-0.9,0.3-1.7,1.1-2.2c11.2-5.4,23.2-9.5,34.5-14.6c3-1.2,5.8-2.8,8.4-4.8c2.6-2,4.3-4.9,4.9-8.1
	c0.1-0.4,0-0.9-0.2-1.2c-0.2-0.2-0.5-0.4-0.8-0.5C856.3,521.4,850.9,519.7,845.9,517.9L845.9,517.9z"/>
<path opacity="0.1" enable-background="new    " d="M824.3,451.9c-3.9,0.6-7.9,2.6-9.2,6.4c-0.5,1.6-0.6,3.3-0.5,5
	c-0.1,2.4,0.3,4.7,1.2,6.9c0.7,1.2,1.4,2.4,2.3,3.4c9.2,11.8,13.9,26.7,22.9,38.7c0.8,1.1,2.3,2.4,1.8,3.7c-0.2,0.3-0.3,0.7-0.4,1
	c-0.1,0.7,0.2,1.3,0.7,1.8c0.5,0.4,0.9,1,1.1,1.6c0.2,0.6-0.3,1.5-0.9,1.4c1.1,3.3,4.4,5.3,7.5,6.9c5.2,2.6,11,4.7,16.8,4.1
	c1.1-4.4,2.6-9.3,2-13.8c-0.6-3.4-1.8-6.7-3.3-9.8l-3.9-8.5c-3.3-7.3-6.7-14.6-11.3-21.2c-1.7-2.1-3.1-4.3-4.2-6.8
	c-1.2-3.1-4.5-5.3-6.4-7.9c-2.9-4-6-8-9.9-10.9C828.8,452.8,826.2,451.6,824.3,451.9L824.3,451.9z"/>
<path d="M824.3,449.9c-3.9,0.6-7.9,2.6-9.2,6.3c-0.5,1.6-0.6,3.3-0.5,5c-0.1,2.4,0.3,4.7,1.2,6.9
	c0.7,1.2,1.4,2.4,2.3,3.4c9.2,11.8,13.9,26.7,22.9,38.7c0.8,1.1,2.3,2.4,1.8,3.7c-0.2,0.3-0.3,0.7-0.4,1c-0.1,0.7,0.2,1.3,0.7,1.8
	c0.5,0.4,0.9,1,1.1,1.6c0.2,0.6-0.3,1.5-0.9,1.4c1.1,3.3,4.4,5.3,7.5,6.9c5.2,2.6,11,4.7,16.8,4.1c1.1-4.4,2.6-9.3,2-13.8
	c-0.6-3.4-1.8-6.7-3.3-9.8l-3.9-8.5c-3.3-7.3-6.7-14.6-11.3-21.2c-1.7-2.1-3.1-4.3-4.2-6.8c-1.2-3.1-4.5-5.3-6.4-7.9
	c-2.9-4-6-8-9.9-10.9C828.8,450.8,826.2,449.6,824.3,449.9L824.3,449.9z"/>
<path fill="#3F3D56" d="M815.5,366.2c-2.8,0.2-5.7,0.5-8.2,1.7s-4.7,3.6-4.8,6.4c0,1.6,0.6,3.3,0.4,4.9c-0.3,2.7-2.8,4.5-4.1,6.9
	c-2.2,4.1-0.5,9.4,2.4,13s6.8,6.4,9.8,10.1c4.8,5.9,6.7,13.5,5.4,20.9c-0.4,1.4-0.5,2.9-0.5,4.4c0.2,2.6,2,4.8,3.8,6.8
	c8.6,10,16.5,20.6,23.7,31.6c2.2,3.2,4.1,6.5,5.8,10c1.7,3.6,3,7.4,5.4,10.6c2.2,2.7,4.8,5,7.9,6.8c7.6,4.7,16.3,7.5,25.2,8.1
	l-5.2-12.8c-0.9-2.3-1.8-4.7-1.5-7.1c0.6-4.6,5.2-7.6,6.7-12c1-2.8,0.5-5.9-0.3-8.8c-1.8-6.5-5.5-12.3-7.4-18.7
	c-1.7-5.6-2.1-11.6-1.1-17.4c0.4-2.6,1.1-5.1,0.8-7.7c-1-7.8-10.1-11.6-14.4-18.2c-2.7-4.3-3.3-9.5-4.2-14.5
	c-1.3-7.3-3.7-14.5-8.3-20.3s-11.6-10-19-9.7c-3.9,0.1-7.7,1.5-11.4,2.9l-9.6,3.5"/>
<path opacity="0.1" enable-background="new    " d="M858.5,382.5c0.8,4.5,1.3,9.2,3.5,13.2c-0.3-1.6-0.5-3.1-0.8-4.7
	c-0.7-3.9-1.8-7.8-3.2-11.5C858.2,380.6,858.3,381.5,858.5,382.5L858.5,382.5z M876.2,422.9c-1,5.8-0.6,11.8,1.1,17.4
	c0.5,1.5,1,3,1.6,4.5c-0.8-4.4-0.9-8.9-0.1-13.4c0.4-2.6,1.1-5.1,0.8-7.7c-0.3-2.2-1.2-4.3-2.6-6
	C876.9,419.5,876.5,421.2,876.2,422.9z M887.4,467.6c-0.6-1.9-1.2-3.7-2-5.5c0.3,1.9,0.2,3.9-0.4,5.8c-1.5,4.4-6.2,7.4-6.7,12
	c-0.3,2.4,0.6,4.8,1.5,7.1c0.3,0.9,0.7,1.7,1,2.6c0-0.4,0-0.7,0-1.1c0.6-4.6,5.2-7.6,6.7-12C888.7,473.5,888.2,470.4,887.4,467.6
	L887.4,467.6z M859.8,491.5c-3-1.7-5.7-4-7.9-6.8c-2.4-3.2-3.7-7-5.4-10.6c-1.7-3.5-3.7-6.8-5.8-10c-7.2-11-15.2-21.6-23.7-31.6
	c-0.3-0.4-0.6-0.7-0.9-1.1c-0.2,0.9-0.3,1.9-0.2,2.8c0.2,2.6,2,4.8,3.8,6.8c8.6,10,16.5,20.6,23.7,31.6c2.2,3.2,4.1,6.5,5.8,10
	c1.7,3.6,3,7.4,5.4,10.6c2.2,2.7,4.8,5,7.9,6.8c7.6,4.7,16.3,7.5,25.2,8.1l-3.5-8.6C875.5,498.8,867.2,496.1,859.8,491.5z
	 M808.4,400.6c-3-3.6-6.9-6.4-9.8-10c-0.3-0.3-0.5-0.7-0.8-1.1c-0.1,3.5,1.1,6.9,3.4,9.6c2.9,3.7,6.8,6.4,9.8,10.1
	c1.2,1.4,2.2,2.9,3,4.6C813.4,408.9,811.5,404.4,808.4,400.6z"/>
<path fill="#3ACC6C" d="M418,298l-7.3-7.3c-1.5-1.5-3.9-1.5-5.4,0c0,0,0,0,0,0l-45.5,45.1l-19.3-19.4c-1.5-1.5-3.9-1.5-5.4,0
	l-7.3,7.3c-1.5,1.5-1.5,4,0,5.5l29.3,29.5c1.5,1.5,3.9,1.5,5.5,0l55.6-55.1C419.6,301.9,419.6,299.5,418,298
	C418.1,298,418,298,418,298L418,298z M619,298l-7.3-7.3c-1.5-1.5-3.9-1.5-5.4,0c0,0,0,0,0,0l-45.5,45.1l-19.3-19.4
	c-1.5-1.5-3.9-1.5-5.4,0l-7.3,7.3c-1.5,1.5-1.5,4,0,5.5l29.3,29.5c1.5,1.5,3.9,1.5,5.5,0l55.6-55.1C620.6,301.9,620.6,299.5,619,298
	C619.1,298,619,298,619,298L619,298z"/>
</svg>
