<?xml version="1.0" encoding="utf-8"?>
<!-- Generator: Adobe Illustrator 22.1.0, SVG Export Plug-In . SVG Version: 6.00 Build 0)  -->
<svg version="1.1" id="图层_1" xmlns="http://www.w3.org/2000/svg" xmlns:xlink="http://www.w3.org/1999/xlink" x="0px" y="0px"
	 viewBox="0 0 1144 617.3" style="enable-background:new 0 0 1144 617.3;" xml:space="preserve">
<style type="text/css">
	.st0{opacity:0.1;}
	.st1{opacity:0.2;}
	.st2{opacity:0.4;}
	.st3{opacity:0.7;}
	.st5{fill:#767D9F;}
	.st6{fill:#AE6E79;}
	.st7{fill:#4C4981;}
	.st8{fill:#504F60;}
	.st9{fill:#9C9CA1;}
	.st10{opacity:5.000000e-02;}
	.st11{opacity:0.1;}
	.st12{fill:#FFFFFF;}
	.st13{opacity:0.1;stroke:#4C4981;stroke-miterlimit:10;}
	.st14{fill:#444053;}
</style>
<path class="st0" d="M1144,396.2c0,16.8-2.3,33.5-6.8,49.6c-4.4,15.6-10.9,30.5-19.3,44.3c0,50.1-33.8,93.4-82.9,114
	c-20.5,8.5-42.5,12.9-64.7,12.8H217.2c-40.3,0-77.6-10.9-108.1-29.4c-8.8-5.3-17.1-11.3-24.8-17.9c-34-29.2-55.1-69.6-55.1-114.2
	C10,426.1-0.1,391.8,0,356.7c0-73.4,43.4-136.4,105.6-164.3c8.3-3.7,16.8-6.7,25.5-9.1c3.1-0.8,6.2-1.6,9.4-2.3
	c8.4-1.8,16.9-3,25.5-3.5c3.1-0.2,6.2-0.3,9.4-0.3h1.7c3.5,0,6.9,0.1,10.3,0.3l1.1-1.9c1.4-2.3,2.8-4.6,4.2-6.8
	c2.6-4.1,5.3-8.1,8.2-12.1c3-4.2,6.1-8.3,9.4-12.4l0.8-1c1.8-2.3,3.7-4.6,5.6-6.8c6-7,12.3-13.8,19-20.3C307.8,45.5,420.7,0,547.7,0
	c98.8,0,189.2,27.5,258.3,73.1c26.2-14.8,55.8-22.6,85.9-22.6c97.7,0,177,80.4,177,179.5c0,6.3-0.3,12.5-1,18.8
	C1115.8,282.7,1144.2,337.7,1144,396.2L1144,396.2z"/>
<path class="st1" d="M349.6,272.6h25.5v25.5h-25.5V272.6z M384.5,272.6H410v25.5h-25.5V272.6z M419.4,272.6h25.5v25.5h-25.5V272.6z
	 M235.7,116.2v20.3h-19C222.6,129.5,228.9,122.8,235.7,116.2z M245,111h25.5v25.5H245V111z M279.9,111h25.5v25.5h-25.5V111z
	 M314.8,111h25.5v25.5h-25.5V111z M349.6,111h25.5v25.5h-25.5V111z M384.5,111H410v25.5h-25.5V111z M454.2,111h25.5v25.5h-25.5V111z
	 M489.1,111h25.5v25.5h-25.5L489.1,111z M523.9,111h25.5v25.5h-25.5V111z M593.7,111h25.5v25.5h-25.5V111z M628.5,111H654v25.5
	h-25.5V111z M663.4,111h25.5v25.5h-25.5V111z M698.3,111h25.5v25.5h-25.5V111z M733.1,111h25.5v25.5h-25.5V111z M768,111h25.5v25.5
	H768V111z M872.6,111h25.5v25.5h-25.5V111z M907.5,111H933v25.5h-25.5V111z M210.1,143.3h25.5v25.5h-25.5V143.3z M279.9,143.3h25.5
	v25.5h-25.5V143.3z M349.6,143.3h25.5v25.5h-25.5V143.3z M489.1,143.3h25.5v25.5h-25.5L489.1,143.3z M663.4,143.3h25.5v25.5h-25.5
	V143.3z M768,143.3h25.5v25.5H768V143.3z M802.9,143.3h25.5v25.5h-25.5V143.3z M872.6,143.3h25.5v25.5h-25.5V143.3z M131.1,183.3
	v17.8h-25.5v-8.7C113.8,188.8,122.3,185.7,131.1,183.3z M165.9,177.6v23.6h-25.5v-20.1L165.9,177.6z M349.6,175.6h25.5v25.5h-25.5
	V175.6z M489.1,175.6h25.5v25.5h-25.5L489.1,175.6z M593.7,175.6h25.5v25.5h-25.5V175.6z M872.6,175.6h25.5v25.5h-25.5V175.6z
	 M105.6,208h25.5v25.5h-25.5L105.6,208z M140.4,208h25.5v25.5h-25.5V208z M175.3,208h25.5v25.5h-25.5V208z M210.1,208h25.5v25.5
	h-25.5V208z M349.6,208h25.5v25.5h-25.5V208z M384.5,208H410v25.5h-25.5V208z M523.9,208h25.5v25.5h-25.5V208z M698.3,208h25.5v25.5
	h-25.5V208z M733.1,208h25.5v25.5h-25.5V208z M768,208h25.5v25.5H768V208z M802.9,208h25.5v25.5h-25.5V208z M942.3,208h25.5v25.5
	h-25.5V208z M105.6,240.3h25.5v25.5h-25.5L105.6,240.3z M140.4,240.3h25.5v25.5h-25.5V240.3z M210.1,240.3h25.5v25.5h-25.5V240.3z
	 M245,240.3h25.5v25.5H245V240.3z M349.6,240.3h25.5v25.5h-25.5V240.3z M384.5,240.3H410v25.5h-25.5V240.3z M489.1,240.3h25.5v25.5
	h-25.5L489.1,240.3z M628.5,240.3H654v25.5h-25.5V240.3z M698.3,240.3h25.5v25.5h-25.5V240.3z M733.1,240.3h25.5v25.5h-25.5V240.3z
	 M768,240.3h25.5v25.5H768V240.3z M802.9,240.3h25.5v25.5h-25.5V240.3z M837.7,240.3h25.5v25.5h-25.5V240.3z M907.5,240.3H933v25.5
	h-25.5V240.3z M942.3,240.3h25.5v25.5h-25.5V240.3z M105.6,272.6h25.5v25.5h-25.5L105.6,272.6z M140.4,272.6h25.5v25.5h-25.5V272.6z
	 M175.3,272.6h25.5v25.5h-25.5V272.6z M245,272.6h25.5v25.5H245V272.6z M279.9,272.6h25.5v25.5h-25.5V272.6z M279.9,304.9h25.5v25.5
	h-25.5V304.9z M314.8,304.9h25.5v25.5h-25.5V304.9z M349.6,304.9h25.5v25.5h-25.5V304.9z M384.5,304.9H410v25.5h-25.5V304.9z
	 M419.4,304.9h25.5v25.5h-25.5V304.9z M454.2,304.9h25.5v25.5h-25.5V304.9z M523.9,304.9h25.5v25.5h-25.5V304.9z M558.8,304.9h25.5
	v25.5h-25.5V304.9z M593.7,304.9h25.5v25.5h-25.5V304.9z M663.4,304.9h25.5v25.5h-25.5V304.9z M698.3,304.9h25.5v25.5h-25.5V304.9z
	 M733.1,304.9h25.5v25.5h-25.5V304.9z M768,304.9h25.5v25.5H768V304.9z M802.9,304.9h25.5v25.5h-25.5V304.9z M837.7,304.9h25.5v25.5
	h-25.5V304.9z M872.6,304.9h25.5v25.5h-25.5V304.9z M907.5,304.9H933v25.5h-25.5V304.9z M942.3,304.9h25.5v25.5h-25.5V304.9z
	 M593.7,272.6h25.5v25.5h-25.5V272.6z M628.5,272.6H654v25.5h-25.5V272.6z M663.4,272.6h25.5v25.5h-25.5V272.6z M698.3,272.6h25.5
	v25.5h-25.5V272.6z M733.1,272.6h25.5v25.5h-25.5V272.6z M768,272.6h25.5v25.5H768V272.6z M802.9,272.6h25.5v25.5h-25.5V272.6z
	 M837.7,272.6h25.5v25.5h-25.5V272.6z M872.6,272.6h25.5v25.5h-25.5V272.6z M907.5,272.6H933v25.5h-25.5V272.6z M489.1,272.6h25.5
	v25.5h-25.5L489.1,272.6z"/>
<path class="st2" d="M384.5,143.3H410v25.5h-25.5V143.3z M454.2,143.3h25.5v25.5h-25.5V143.3z M523.9,143.3h25.5v25.5h-25.5V143.3z
	 M593.7,143.3h25.5v25.5h-25.5V143.3z M628.5,143.3H654v25.5h-25.5V143.3z M698.3,143.3h25.5v25.5h-25.5V143.3z M733.1,143.3h25.5
	v25.5h-25.5V143.3z M837.7,143.3h25.5v25.5h-25.5V143.3z M384.5,175.6H410v25.5h-25.5V175.6z M419.4,175.6h25.5v25.5h-25.5V175.6z
	 M523.9,175.6h25.5v25.5h-25.5V175.6z M628.5,175.6H654v25.5h-25.5V175.6z M837.7,175.6h25.5v25.5h-25.5V175.6z M419.4,208h25.5
	v25.5h-25.5V208z M454.2,208h25.5v25.5h-25.5V208z M558.8,208h25.5v25.5h-25.5V208z M593.7,208h25.5v25.5h-25.5V208z M628.5,208H654
	v25.5h-25.5V208z M663.4,208h25.5v25.5h-25.5V208z M907.5,208H933v25.5h-25.5V208z M175.3,240.3h25.5v25.5h-25.5V240.3z
	 M419.4,240.3h25.5v25.5h-25.5V240.3z M210.1,272.6h25.5v25.5h-25.5V272.6z M942.3,272.6h25.5v25.5h-25.5V272.6z"/>
<path class="st3" d="M314.8,143.3h25.5v25.5h-25.5V143.3z M210.1,175.6h25.5v25.5h-25.5V175.6z M279.9,175.6h25.5v25.5h-25.5V175.6z
	 M314.8,175.6h25.5v25.5h-25.5V175.6z M105.6,304.9h25.5v25.5h-25.5L105.6,304.9z M140.4,304.9h25.5v25.5h-25.5V304.9z M175.3,304.9
	h25.5v25.5h-25.5V304.9z M210.1,304.9h25.5v25.5h-25.5V304.9z M245,304.9h25.5v25.5H245V304.9z M279.9,208h25.5v25.5h-25.5V208z
	 M314.8,208h25.5v25.5h-25.5V208z M768,175.6h25.5v25.5H768V175.6z M802.9,175.6h25.5v25.5h-25.5V175.6z M837.7,208h25.5v25.5h-25.5
	V208z M872.6,208h25.5v25.5h-25.5V208z M279.9,240.3h25.5v25.5h-25.5V240.3z M314.8,240.3h25.5v25.5h-25.5V240.3z M872.6,240.3h25.5
	v25.5h-25.5V240.3z M314.8,272.6h25.5v25.5h-25.5V272.6z"/>
<path class="st4" d="M419.4,111h25.5v25.5h-25.5V111z M558.8,111h25.5v25.5h-25.5V111z M802.9,111h25.5v25.5h-25.5V111z M837.7,111
	h25.5v25.5h-25.5V111z M942.3,111h25.5v25.5h-25.5V111z M977.2,111h25.5v25.5h-25.5V111z M200.8,156.7v12.1h-8.2
	C195.2,164.7,197.9,160.7,200.8,156.7L200.8,156.7z M245,143.3h25.5v25.5H245V143.3z M419.4,143.3h25.5v25.5h-25.5V143.3z
	 M558.8,143.3h25.5v25.5h-25.5V143.3z M907.5,143.3H933v25.5h-25.5V143.3z M942.3,143.3h25.5v25.5h-25.5V143.3z M977.2,143.3h25.5
	v25.5h-25.5V143.3z M175.3,175.6h25.5v25.5h-25.5V175.6z M245,175.6h25.5v25.5H245V175.6z M454.2,175.6h25.5v25.5h-25.5V175.6z
	 M558.8,175.6h25.5v25.5h-25.5V175.6z M698.3,175.6h25.5v25.5h-25.5V175.6z M907.5,175.6H933v25.5h-25.5V175.6z M942.3,175.6h25.5
	v25.5h-25.5V175.6z M977.2,175.6h25.5v25.5h-25.5V175.6z M245,208h25.5v25.5H245V208z M489.1,208h25.5v25.5h-25.5L489.1,208z
	 M977.2,208h25.5v25.5h-25.5V208z M454.2,240.3h25.5v25.5h-25.5V240.3z M523.9,240.3h25.5v25.5h-25.5V240.3z M558.8,240.3h25.5v25.5
	h-25.5V240.3z M593.7,240.3h25.5v25.5h-25.5V240.3z M663.4,240.3h25.5v25.5h-25.5V240.3z M977.2,240.3h25.5v25.5h-25.5V240.3z
	 M454.2,272.6h25.5v25.5h-25.5V272.6z M523.9,272.6h25.5v25.5h-25.5V272.6z M558.8,272.6h25.5v25.5h-25.5V272.6z M977.2,272.6h25.5
	v25.5h-25.5V272.6z M489.1,304.9h25.5v25.5h-25.5L489.1,304.9z M628.5,304.9H654v25.5h-25.5V304.9z M977.2,304.9h25.5v25.5h-25.5
	V304.9z"/>
<circle class="st5" cx="734.5" cy="363.9" r="34.9"/>
<path class="st6" d="M732.7,319.5c3.5,15.2,6.4,30.5,8.9,45.9c0.7,4.6,1.4,9.4-0.3,13.7c-1.4,3.6-4.2,6.4-6.4,9.6s-3.9,7.2-2.5,10.8
	s5.3,5.6,9,6.6c10.8,2.9,22.2,0.8,32.9-2.4c4.8-1.2,9.5-3.2,13.8-5.7c4.5-2.9,8.3-6.9,11.7-11c15.6-18.9,25.8-41.6,35.5-64.2
	c-12.5,1.1-24.9-3.8-33.1-13.3c-3.9-4.6-6.8-11.1-4.6-16.7c-6.5,3.6-14.2,3.8-21.3,6.3c-4.3,1.7-8.5,3.7-12.5,6.1
	c-4.8,2.8-9.5,5.6-14.3,8.5C744.1,316.9,739,319.8,732.7,319.5L732.7,319.5z"/>
<path class="st5" d="M805.6,345.7c-6.1,11.9-14.1,23.3-25.4,30.4s-26.6,9-38,2c-5.6-3.4-9.8-8.6-14.7-13s-11-8.1-17.6-7.6
	c-7.2,0.6-12.9,6.3-17.8,11.7c-7.4,8.2-14.5,16.8-19.7,26.5c-10,18.7-12.4,40.6-11.9,61.8s3.5,42.3,3.6,63.5
	c0.1,26.1-4.3,52-8.8,77.6c41.1-5.1,82.3,6,123.4,10.2c26.4,2.7,52.9,2.7,79.4,2.6c4.7,0,9.6-0.1,13.5-2.7c2.4-1.7,4.3-4,5.6-6.6
	c3.7-6.8,5.1-14.5,6.2-22.1c2.6-19.2,2.7-38.7,2.7-58.1c0.2-47,0.3-94.2-5.6-140.8c-1.5-11.5-3.3-23-7.8-33.7s-11.6-20.6-21.6-26.4
	c-6.5-3.7-21.4-10.1-29-6.4C813.7,318.8,809.7,337.8,805.6,345.7L805.6,345.7z"/>
<path class="st7" d="M808.7,478.4c-1.5-29-7.9-60,5.6-85.7c3.3-6.3-8.5-14.2-4.9-20.3c4.5-7.5,7.9-15.5,10.1-23.9
	c0.8-2.9,1.4-6,0.7-8.9c-1.3-5.3-6.6-8.4-11-11.7c-4.9-3.6-7.4-14.4-9-20.3s12.6,1.2,18.3-0.9c7.9-2.9,17.9-1.1,25.8,1.9
	c4.4,1.6,9.2,1.8,13.9,1.9c9.1,0.2,18.3,0.5,27.3-0.6c4.1-0.5,8.1-1.3,12.2-1c10.4,0.6,19.5,7.7,25.6,16.1s10.1,18.2,15.1,27.4
	c4.2,7.6,9.2,14.8,12.8,22.7c3.2,7,5.2,14.5,7.2,22l5.1,19.2c0.9,2.7,1.3,5.6,1.3,8.5c-0.3,3.1-1.6,5.9-3,8.7
	c-5.2,10.1-11.5,19.7-18.7,28.5c-10.8,13.2-23.9,25.2-30.3,41c-2.5,6.2-3.9,12.7-5.2,19.3c-5.1,26.2-8.8,52.6-10.9,79.2
	c-11.7-5.4-23.9-9.5-36.5-12.2c-6.3-1.3-12.6-2.3-19-3c-5.6-0.6-12.8,0.5-18.1-1c-8.9-2.5-9.9-17.6-11.2-25.5
	c-2.2-12.5-2.6-25.3-2.7-38C809,507.2,809.5,492.8,808.7,478.4L808.7,478.4z M613.2,424.2c4.2,24,8.8,48.1,18,70.6
	c-0.2,0.2-0.5,0.4-0.7,0.6c-0.8,0.7-1.7,1.3-2.5,2c-2,1.4-4.3,2.7-6,4.5c-0.6,0.7-1.2,1.5-1.5,2.5c-0.6,1.4-0.6,3,0,4.5
	c-4.8,2.1-10.3,1.5-15.7,1.3c-4.6-0.2-9.1,0-12.8,2.5c-5.1,3.5-6.7,10.3-7.5,16.5c-0.3,2.3-0.6,4.5-0.8,6.8
	c-0.2,2.1-0.4,4.2-0.5,6.3c-0.5,7-0.5,14-0.2,21c0.1,1.3,0.1,2.6,0.2,3.8c-16.3-0.4-31.2-8.9-45.3-17.2c-3.2-1.9-6.5-3.9-8.6-7
	c-1.9-3.1-2.7-6.7-2.3-10.3c0-0.5,0.1-1,0.2-1.5c0.4-3,1.2-5.9,2.3-8.7c4.4-11.9,10.9-23,19.2-32.6c3.6-4.2,7.6-8.3,9.3-13.5
	c0.7-2.3,1-4.7,1.7-7c3.3-9.9,15.3-14.5,19.4-24.1c1-2.3,1.5-4.8,2.7-7c1.1-1.8,2.6-3.4,4.3-4.8c0.7-0.6,1.5-1.2,2.2-1.8
	c7-5.5,13.8-11.3,20.3-17.5c1.2-1.1,2.4-2.3,3.6-3.5C612,415.2,612.4,419.8,613.2,424.2L613.2,424.2z"/>
<path class="st7" d="M714,353.2c-1.4,1.5-3,3-4.5,4.4l-0.4,0.4l-1.6,1.5c-2.9,2.5-5.5,5.5-7.5,8.8l-0.2,0.3
	c-5.1,9.1-3.2,20.4-1.8,30.7c1.8,12.9,2.6,26,2.4,39c-0.3,18-2.4,35.9-2.4,53.9c0,4.1,0.1,8.1,0.3,12.2c0.3,6.6,0.8,13.2,1.4,19.9
	c0.7,7.3,1.4,14.5,2.2,21.8c0.6,5.6,1.1,11.2,1.6,16.8c0.2,2.9,0.5,5.8,0.6,8.7c0.2,3.4,0.4,6.8,0.5,10.2c0.1,2.2,0.1,4.3,0.1,6.5
	v3.7c0,2.3-0.1,4.7-0.2,7c-0.1,3-0.3,6-0.6,9c-0.3,3.3-0.9,6.8-3.2,9.1c-0.1,0.1-0.3,0.3-0.4,0.4l-3.2-0.4
	c-22.3-2.7-44.9-3.1-67.3-1.2c0.5-3.4,0.9-6.8,1.4-10.1c0.2-1.6,0.4-3.2,0.6-4.8c0.2-1.8,0.4-3.7,0.6-5.5c0.2-2,0.4-4,0.6-6
	c0.5-5.2,1-10.3,1.4-15.5c0.6-7.5,1-15.1,1.3-22.6c0.1-3.6,0.3-7.2,0.3-10.8c0.1-4.5,0.2-9,0.2-13.5c0-4.4,0-8.7-0.1-13.1
	c0-1.4-0.1-2.9-0.2-4.3c-0.1-1.3-0.3-2.6-0.5-3.8c-0.7-2.9-1.7-5.7-3-8.5c-0.2-0.5-0.4-1-0.6-1.5c-0.1-0.3-0.2-0.5-0.3-0.8
	c5.8-5.1,9.9-12,13.8-18.8c6.4-10.9,12.9-22.3,14-34.8s-5.2-26.7-17.2-30.5c-3.3-1-6.7-1.3-10.1-1.9c-3.2-0.6-9.8-1.8-13.5-4.1
	c-2,2.1-4,4.1-6,6c0.1-3,0.9-6,2.2-8.7l1.4,0.1c-0.1-0.3-0.2-0.7-0.2-1c0-1.1,0.7-2.3,2.3-3.6c4.7-4,12.1-4.9,15.1-10.3
	c1.2-2.3,1.5-4.9,2.5-7.3c2.9-6.7,11.1-9.2,16.1-14.6s6.2-13,10.2-19c3-4.4,7.2-7.8,12-10c0.4-0.2,0.8-0.4,1.2-0.5
	c8.3-3.5,18.2-4.4,26.8-4.3c3.3,0,12,0.1,16.2,1.8c0.7,0.2,1.3,0.6,1.8,1.1C724.4,339.3,717.3,349.7,714,353.2L714,353.2z"/>
<path class="st7" d="M614.7,401.4c15.6-4.7,32.4-2.9,46.7,4.9c7.2,4,13.7,9.6,17.6,16.8c6,10.8,5.7,23.8,5.3,36.1
	c-0.2,6.2-0.5,12.6-3.2,18.1c-3.2,6.4-9.1,10.8-15.2,14.4c-3.8,2.4-8,4.2-12.3,5.3c-6.7,1.5-13.7,0.2-20.5-1
	c-7.4-1.4-15.3-3-20.4-8.5c-3-3.2-4.6-7.3-6.3-11.4c-2.3-5.8-4.7-11.7-7-17.5c-4-10.1-5.4-18.5-0.1-28.4c2.4-4.5,5.4-8.7,7.8-13.2
	C608.5,414.8,612.8,401.9,614.7,401.4L614.7,401.4z"/>
<path class="st8" d="M1035,574.2v29.9c-20.5,8.5-42.5,12.9-64.7,12.8H700.6c-0.1,0.1-0.3,0.3-0.4,0.4l-3.2-0.4H217.2
	c-40.3,0-77.6-10.9-108.1-29.4v-45.7l230.7-26.6h0.2l134.4,11.4l34.8,3l18.1,1.5l37.4,3.2l19.2,1.6l28,2.4l3.9,0.3l20.2,1.7
	l27.4,2.3l38.5,3.3l64.2,5.5l45.2,3.8l74.1,6.3l14.1,1.2l1.5,0.1l1.3,0.1l18.6,1.6l20.4,1.7l2.4,0.2L1035,574.2z"/>
<path class="st9" d="M764,573.1l-289.1-49.3l-11.2,56.7l132.5,15.9l40.8,5.1l112.3-22.1L764,573.1z"/>
<path class="st9" d="M614.3,598.6l144.9-27.2c2.7-0.5,5.3,1.3,5.9,4c0.1,0.3,0.1,0.6,0.1,1c0,2.4-1.7,4.5-4.1,4.9l-141.5,26.5
	L614.3,598.6z"/>
<path class="st6" d="M677.2,513c4.5-0.4,9.1-1.1,13.1-3.1c5-2.5,8.9-6.8,13.5-9.9c10.2-7,23.8-7.9,35.5-3.9s21.4,12.6,28.2,22.9
	c4.5,6.8,7.9,15.6,4.7,23.2c-1.1,2.3-2.5,4.5-4.1,6.4l-8.3,10.9c-1.6,2.3-3.5,4.3-5.7,6.1c-3.1,2.3-7,3.2-10.8,3.8
	c-10.2,1.5-20.5,0.6-30.7,1.3c-17.6,1.2-34.7,6.8-52.3,6.6c-10.1-0.1-20.1-2.2-30-4.2l-43.8-9c-7.6-1.6-16.2-3.8-19.8-10.8
	c-1.6-3.1-1.9-6.7-2.1-10.2c-0.5-9.6,0-20.4,6.7-27.3c6.3-6.5,16.2-8.6,23.7-13.4c9.2-5.9,12.2-4,21.9,0.4
	C635.7,511.3,656.5,514.8,677.2,513L677.2,513z"/>
<path class="st10" d="M677.2,513c4.5-0.4,9.1-1.1,13.1-3.1c5-2.5,8.9-6.8,13.5-9.9c10.2-7,23.8-7.9,35.5-3.9s21.4,12.6,28.2,22.9
	c4.5,6.8,7.9,15.6,4.7,23.2c-1.1,2.3-2.5,4.5-4.1,6.4l-8.3,10.9c-1.6,2.3-3.5,4.3-5.7,6.1c-3.1,2.3-7,3.2-10.8,3.8
	c-10.2,1.5-20.5,0.6-30.7,1.3c-17.6,1.2-34.7,6.8-52.3,6.6c-10.1-0.1-20.1-2.2-30-4.2l-43.8-9c-7.6-1.6-16.2-3.8-19.8-10.8
	c-1.6-3.1-1.9-6.7-2.1-10.2c-0.5-9.6,0-20.4,6.7-27.3c6.3-6.5,16.2-8.6,23.7-13.4c9.2-5.9,12.2-4,21.9,0.4
	C635.7,511.3,656.5,514.8,677.2,513L677.2,513z"/>
<path class="st6" d="M852.9,499.3c-12.3,4.8-24.6,9.5-37.5,12.4c-21.6,4.7-44.1,4-65.5,9.4c-11.3,2.9-22.5,7.5-34.1,6.6
	c-5.2-0.4-10.2-2-15.3-3.2c-28.4-7-60.6-4.7-83.7,13.3c-7.9,6.2-14.3,13.8-20.2,22c-4.7,6.6-3.1,15.8,3.5,20.5
	c0.8,0.5,1.6,1,2.4,1.4c9,4.1,18.6,6.7,28.4,7.6c13.1,1.2,26.3-0.7,39.4-2.6c19.4-2.8,38.8-5.5,58.1-8.6c6.9-1.1,13.9-2.3,20.9-3.1
	c50.2-6.3,101.4,1.4,151.7-3.9c5.1-0.5,10.3-1.2,14.9-3.4c11.7-5.5,17.5-20,15.1-32.7s-11.8-23.3-23-29.8c-9.4-5.5-19.6-7.7-30.1-10
	C868.3,492.7,862.3,495.7,852.9,499.3L852.9,499.3z"/>
<path class="st11" d="M960.7,423.1c5.5,7.3,6.7,17,6.1,26.1s-2.8,18.1-3.1,27.2c-0.4,12.5,2.6,25,2.1,37.5
	c-0.4,8.7-2.4,17.3-4.9,25.7c-2.9,9.9-7.1,20.5-16.2,25.3c-12.1,6.3-37.5,2.8-50.3,7.7c1.2-7.2,12.3-17.7,13.4-24.9
	c0.8-5,1.6-10.1,0.8-15.2c-1.1-6.4-4.8-12.1-9.3-16.8c-7.1-7.5-16.3-13.2-26.5-15s-35-0.3-43.1,6.1c-1-6.6,17.6-13,24.1-14.4
	c3.3-0.7,7-0.3,9.6-2.4c5-3.9,1.4-11.7,1.6-18c0.2-5,3.1-9.6,3.7-14.6c1-8-4.2-16.1-2.2-24c0.8-2.9,2.5-5.5,3.6-8.2
	c3.6-8.5,2-18.1,0.1-27.1c-1.2-5.6-2.3-12,0.8-16.8c2.9-4.5,11.2,11.5,16.5,10.8c17.5-2.5,33.3-15.4,47.4-4.8
	c7.2,5.4,8.1,11,11,18.7C948.8,413.3,956,417,960.7,423.1L960.7,423.1z"/>
<path class="st7" d="M963.7,423.1c5.5,7.3,6.7,17,6.1,26.1s-2.8,18.1-3.1,27.2c-0.4,12.5,2.6,25,2.1,37.5
	c-0.4,8.7-2.4,17.3-4.9,25.7c-2.9,9.9-7.1,20.5-16.2,25.3c-12.1,6.3-37.5,2.8-50.3,7.7c1.2-7.2,12.3-17.7,13.4-24.9
	c0.8-5,1.6-10.1,0.8-15.2c-1.1-6.4-4.8-12.1-9.3-16.8c-7.1-7.5-16.3-13.2-26.5-15s-35-0.3-43.1,6.1c-1-6.6,17.6-13,24.1-14.4
	c3.3-0.7,7-0.3,9.6-2.4c5-3.9,1.4-11.7,1.6-18c0.2-5,3.1-9.6,3.7-14.6c1-8-4.2-16.1-2.2-24c0.8-2.9,2.5-5.5,3.6-8.2
	c3.6-8.5,2-18.1,0.1-27.1c-1.2-5.6-2.3-12,0.8-16.8c2.9-4.5,8.6-6.2,13.9-6.9c17.7-2.4,35.7,2.2,50,12.9c7.2,5.4,8.1,11,11,18.7
	C951.8,413.3,959,417,963.7,423.1L963.7,423.1z"/>
<path class="st9" d="M302,375.7l54.4,200.9c1.4,5,5.7,8.7,10.9,9.2L612,609.4c6.9,0.7,13-4.4,13.7-11.3c0.1-1.4,0-2.8-0.3-4.2
	l-59.5-242.4c-1.5-5.9-7-10-13.1-9.5l-239.6,17.9c-6.9,0.5-12.1,6.6-11.5,13.5C301.7,374.2,301.8,375,302,375.7z"/>
<ellipse class="st12" cx="787.1" cy="387.7" rx="26.9" ry="27.3"/>
<path class="st12" d="M809.2,338c0,0,5.7,16.9-11.1,24l-2.1,3.7l10.5,10.3c0,0,12.9-23.6,11.5-31.9C818,344.1,816,335.6,809.2,338z"
	/>
<circle class="st4" cx="790.2" cy="389" r="25.9"/>
<path class="st4" d="M818.1,347.9l-4.1-6.8l-6-0.9c1.3-22.4-4.5-29.1-4.5-29.1l-1.3-0.1l-5.9-0.6L785.2,299v-3.3
	c15.5,1.9,24.1,9.2,28.8,17.9C822.2,328.8,818.1,347.9,818.1,347.9L818.1,347.9z"/>
<path class="st13" d="M802.2,306.9v4.1l-5.9-0.6L785.2,299C785.2,299,802.3,302.8,802.2,306.9z M818.1,347.9l-4.1-6.8v-27.4
	C822.2,328.8,818.1,347.9,818.1,347.9L818.1,347.9z"/>
<ellipse transform="matrix(0.866 -0.5 0.5 0.866 -90.7479 415.0428)" class="st12" cx="729.1" cy="376.9" rx="14.4" ry="26.3"/>
<path class="st4" d="M733,374.7c7.3,12.6,16.2,21,9.3,25s-27,2-34.3-10.6s-0.7-30,6.2-34S725.7,362,733,374.7L733,374.7z"/>
<path class="st11" d="M797.7,284c0,40.2-27.5,79-67.8,79c-40.2,0-72.8-32.6-72.8-72.9s32.6-72.8,72.8-72.8l0,0
	C770.2,217.3,797.7,243.7,797.7,284z"/>
<circle class="st6" cx="730" cy="288.1" r="72.8"/>
<path class="st14" d="M723.6,255.9c8.7,3.2,13.8,12.1,21.6,17.1c11,7,25.3,5.2,37.9,1.7c7-1.9,14.3-4.2,21.2-2.1
	c1,0.4,2.1,0.6,3.2,0.5c1.5-0.4,2.2-2.1,2.7-3.6c8.5-25.4,4.7-54.2-8.2-77.7c-3.3-6.1-7.3-11.9-12.8-16.1c-4.3-3.3-9.4-5.5-14.5-7.3
	c-9.4-3.4-19-5.7-28.9-7.1c-1.7-0.3-3.5-0.4-5.3-0.2c-2.4,0.4-4.6,1.7-6.7,2.9c-9.2,4.9-19.4,7.7-29.9,8.1c-14,0.5-30-2.8-40.8,6.2
	c-13,10.8-9.8,31.8-18.2,46.4c-5.6,9.7-16.3,16.7-18.1,27.7c-0.5,3.4-0.2,6.8,0.6,10.1c4.1,16.9,20.5,30.1,38,30.4
	c2.7,0.2,5.4-0.3,7.8-1.6c1.6-1.1,2.9-2.4,4.1-3.9C688.8,273.8,701.9,247.9,723.6,255.9L723.6,255.9z"/>
<path class="st11" d="M810.2,262.1c-0.5,1.5-1.2,3.1-2.7,3.6c-1.1,0.1-2.2,0-3.2-0.5c-6.9-2.1-14.3,0.2-21.2,2.1
	c-12.6,3.5-26.9,5.3-37.9-1.7c-7.8-5-12.9-14-21.6-17.1c-21.6-8-34.7,17.9-46.2,31.4c-1.1,1.5-2.5,2.8-4.1,3.9
	c-2.4,1.2-5.1,1.8-7.8,1.6c-17.4-0.3-33.8-13.4-38-30.4c-0.2-1-0.4-2-0.6-3c0,0.1,0,0.2,0,0.3c-0.5,3.4-0.2,6.8,0.6,10.1
	c4.1,16.9,20.5,30.1,38,30.4c2.7,0.2,5.4-0.3,7.8-1.6c1.6-1.1,2.9-2.4,4.1-3.9c11.5-13.6,24.6-39.4,46.2-31.4
	c8.7,3.2,13.8,12.1,21.6,17.1c11,7,25.3,5.2,37.9,1.7c7-1.9,14.3-4.2,21.2-2.1c1,0.4,2.1,0.6,3.2,0.5c1.5-0.4,2.2-2.1,2.7-3.6
	c3.4-10.4,5-21.3,4.5-32.3C814.4,245.7,812.9,254.1,810.2,262.1L810.2,262.1z"/>
</svg>
