<?xml version="1.0" encoding="utf-8"?>
<!-- Generator: Adobe Illustrator 22.1.0, SVG Export Plug-In . SVG Version: 6.00 Build 0)  -->
<svg version="1.1" id="图层_1" xmlns="http://www.w3.org/2000/svg" xmlns:xlink="http://www.w3.org/1999/xlink" x="0px" y="0px"
	 viewBox="0 0 1009.5 718" style="enable-background:new 0 0 1009.5 718;" xml:space="preserve">
<style type="text/css">
	.st0{opacity:0.1;}
	.st1{opacity:0.1;}
	.st3{fill:#3F3D56;}
	.st4{opacity:0.1;}
	.st5{fill:#35323E;}
	.st6{fill:#FFFFFF;}
	.st7{opacity:3.000000e-02;}
	.st8{fill:#464353;}
	.st9{opacity:3.000000e-02;fill:#FFFFFF;}
	.st10{fill:url(#SVGID_1_);}
	.st11{fill:#BE6F72;}
	.st12{opacity:0.15;}
	.st13{fill:#A1616A;}
	.st14{fill:#A26565;}
	.st15{opacity:0.1;}
	.st16{fill:#EFB7B9;}
	.st17{fill:#F86D70;}
	.st18{fill:#4C4981;}
	.st19{fill:#FF6484;}
	.st20{fill:#925978;}
	.st21{fill:#444053;}
</style>
<path class="st0" d="M586.5,111.4c-64.7-2.3-126.4-23.1-185.2-46S284.2,17.2,221,5.1C180.4-2.7,133.9-3.8,101.2,18
	C69.7,39,59.5,75.1,54,108.7c-4.1,25.3-6.5,51.8,4.7,75.5c7.8,16.4,21.7,30.2,31.4,45.9c33.5,54.7,9.8,122.2-26.5,175.6
	c-17,25.1-36.8,49-49.9,75.7s-19.2,57.3-7.7,84.5c11.4,27,38.5,47.2,67.9,61.5c59.7,28.9,130,37.2,198.6,41.9
	c151.8,10.4,304.5,5.9,456.7,1.4c56.3-1.7,112.9-3.4,168.3-12.1c30.8-4.8,62.5-12.5,84.9-31c28.4-23.5,35.4-63.4,16.4-92.9
	c-31.9-49.5-120-61.8-142.3-114.9c-12.3-29.2,0.3-61.8,18.2-88.9c38.2-58.2,102.3-109.2,105.7-175.7c2.3-45.7-28.5-91.4-76.1-113
	c-49.9-22.6-119.2-19.8-156,17.7C710.4,98.5,643.7,113.4,586.5,111.4L586.5,111.4z"/>
<path class="st1" d="M88.8,456.4c-2.6-1.2-5.2-2.5-7.6-4l27.6-21l-32.6,17.5c-13.6-10.5-22.4-26.1-24.1-43.1l55.9-0.4L51.8,397
	c1.3-34.4,30.3-61.3,64.7-60s61.3,30.3,60,64.7c-0.1,3-0.4,6-1,8.9c4.1,1.8,8,4.1,11.6,6.7l-28.5,41.1l34.4-36.2
	c15.3,14.5,22.2,35.8,18.5,56.5c31.5,14,45.7,50.9,31.7,82.3c-14,31.5-50.9,45.7-82.3,31.7c-26.3-11.7-41.2-39.9-36-68.2
	C98.6,512.9,83.7,484.7,88.8,456.4L88.8,456.4z M879.3,231.2c3.4-2.1,6.6-4.4,9.7-7l-42-23.6l48.2,17.9c16.8-17,25.8-40.1,25-63.9
	l-77,10.1l75.7-22.2c-8.4-47.1-53.3-78.5-100.4-70.1c-47.1,8.4-78.5,53.3-70.1,100.4c0.7,4.1,1.7,8.1,3,12
	c-5.3,3.3-10.2,7.1-14.7,11.5l47,51.2l-54.3-43.2c-18.3,22.9-23.8,53.4-14.6,81.2c-40.6,25.3-53.1,78.7-27.8,119.3
	s78.7,53.1,119.3,27.8c33.9-21.1,49-62.7,36.5-100.6C876.7,310.7,891.8,269.1,879.3,231.2L879.3,231.2z"/>
<g>
	<path class="st2" d="M847.5,685.6c18.7,0,33.8,2.9,33.8,6.5s-15.1,6.5-33.8,6.5s-33.8-2.9-33.8-6.5S828.8,685.6,847.5,685.6z
		 M180.5,629.5c37.2,0,67.3,5.8,67.3,12.9s-30.1,12.9-67.3,12.9s-67.3-5.8-67.3-12.9S143.3,629.5,180.5,629.5z"/>
	<path class="st3" d="M846.9,684.2c2.2,0,3.9,2.3,3.9,5.2s-1.8,5.2-3.9,5.2s-3.9-2.3-3.9-5.2S844.7,684.2,846.9,684.2z M846.9,677.9
		c2.2,0,3.9,2.3,3.9,5.2s-1.8,5.2-3.9,5.2s-3.9-2.3-3.9-5.2S844.7,677.9,846.9,677.9z M846.9,671.6c2.2,0,3.9,2.3,3.9,5.2
		s-1.8,5.2-3.9,5.2s-3.9-2.3-3.9-5.2S844.7,671.6,846.9,671.6z M846.9,665.3c2.2,0,3.9,2.3,3.9,5.2s-1.8,5.2-3.9,5.2
		s-3.9-2.3-3.9-5.2S844.7,665.3,846.9,665.3z M846.9,659c2.2,0,3.9,2.3,3.9,5.2s-1.8,5.2-3.9,5.2s-3.9-2.3-3.9-5.2
		S844.7,659,846.9,659z"/>
	<path class="st3" d="M179.3,626.7c4.3,0,7.8,4.6,7.8,10.3s-3.5,10.3-7.8,10.3s-7.8-4.6-7.8-10.3S175,626.7,179.3,626.7z
		 M179.3,614.2c4.3,0,7.8,4.6,7.8,10.3s-3.5,10.3-7.8,10.3s-7.8-4.6-7.8-10.3S175,614.2,179.3,614.2z M179.3,601.6
		c4.3,0,7.8,4.6,7.8,10.3s-3.5,10.3-7.8,10.3s-7.8-4.6-7.8-10.3S175,601.6,179.3,601.6z M179.3,589.1c4.3,0,7.8,4.6,7.8,10.3
		s-3.5,10.3-7.8,10.3s-7.8-4.6-7.8-10.3S175,589.1,179.3,589.1z M179.3,576.6c4.3,0,7.8,4.6,7.8,10.3s-3.5,10.3-7.8,10.3
		s-7.8-4.6-7.8-10.3S175,576.6,179.3,576.6z"/>
	<path class="st2" d="M861.6,608.5c0.5-0.7,1-1.4,1.5-2.2l-10.3-1.7l11.2,0.1c2.2-4.7,2.3-10.1,0.4-14.9l-15,7.8l13.8-10.2
		c-5.2-9-16.8-12-25.8-6.8s-12,16.8-6.8,25.8c0.4,0.7,0.9,1.4,1.4,2.1c-0.8,1.1-1.6,2.2-2.2,3.4l13.4,7l-14.3-4.8
		c-2,6-0.9,12.7,3,17.7c-6.4,8.2-5,20,3.2,26.5c8.2,6.4,20,5,26.5-3.2c5.4-6.8,5.4-16.5,0-23.3C867,625,867,615.4,861.6,608.5
		L861.6,608.5z M208.7,476c1.1-1.4,2-2.8,2.9-4.3l-20.6-3.4l22.3,0.2c4.3-9.4,4.6-20.1,0.7-29.7l-29.9,15.5l27.6-20.2
		c-10.4-18-33.3-24.1-51.3-13.7s-24.1,33.3-13.7,51.3c0.9,1.6,1.9,3,3,4.5c-1.7,2.1-3.1,4.4-4.3,6.8l26.7,13.9l-28.5-9.6
		c-4.1,12-1.8,25.3,6.1,35.2c-12.8,16.3-10,39.9,6.3,52.7c16.3,12.8,39.9,10,52.7-6.3c10.7-13.6,10.7-32.8,0-46.4
		C219.4,508.8,219.4,489.6,208.7,476L208.7,476z"/>
	<path class="st4" d="M828,620.2c0,4.2,1.4,8.3,4,11.7c-6.4,8.2-5,20,3.2,26.5c8.2,6.4,20,5,26.5-3.2c5.4-6.8,5.4-16.5,0-23.3
		C864.2,628.6,828,618,828,620.2z M141.6,499.1c0,8.4,2.8,16.6,8,23.2c-12.8,16.3-10,39.9,6.3,52.7c16.3,12.8,39.9,10,52.7-6.3
		c10.7-13.6,10.7-32.8,0-46.4C213.7,516,141.6,495,141.6,499.1z"/>
</g>
<path class="st5" d="M275.8,178.4h468.8c4.1,0,7.4,3.3,7.4,7.4v89.5c0,4.1-3.3,7.4-7.4,7.4H275.8c-4.1,0-7.4-3.3-7.4-7.4v-89.5
	C268.4,181.7,271.7,178.4,275.8,178.4z"/>
<path class="st6" d="M309.3,52.2c0,0,6.9,186.8-5.3,208.7h411.7c0,0-17.5-143.7,0-208.7L309.3,52.2z"/>
<path class="st7" d="M309.3,52.2c0,0,6.9,186.8-5.3,208.7h411.7c0,0-17.5-143.7,0-208.7L309.3,52.2z"/>
<path class="st5" d="M351.5,252.9h301.8v37.5H351.5V252.9z"/>
<path class="st8" d="M787.7,694.2H228.3c-16.5,0-29.8-13.3-29.8-29.8c0-1.1,0.1-2.2,0.2-3.3L210.1,558c0.8-6.9,1.3-13.7,1.6-20.6
	l2.1-69.9c0.5-15.8,1.6-31.5,3.2-47.3c0.9-8.1,1.9-16.3,3-24.4l14.7-102.5c3.9-26.5,26.6-46.2,53.4-46.2h22.3
	c11.3,0,22.4,3.7,31.4,10.6c23.1,17.3,88.9,29.7,166.4,29.7s143.3-12.5,166.4-29.8c9.1-6.8,20.1-10.5,31.4-10.6h36.2
	c15.7,0,29.1,11.3,31.9,26.7l19.8,112c2,11.4,3.7,22.8,5.1,34.3c2.3,19.1,3.8,38.3,4.4,57.5l2,64.9c0.4,13.5,1.6,27.1,3.5,40.5
	l10.6,74.3c2.5,17.6-9.7,33.9-27.3,36.5C790.8,694.1,789.2,694.2,787.7,694.2L787.7,694.2z"/>
<path class="st4" d="M261.5,434.9h494.3c11,0,20,8.9,20,20v189.7c0,11-8.9,20-20,20H261.5c-11,0-20-8.9-20-20V454.8
	C241.6,443.8,250.5,434.9,261.5,434.9z"/>
<ellipse class="st5" cx="294" cy="506.4" rx="15.3" ry="12.8"/>
<ellipse class="st4" cx="294" cy="506.4" rx="15.3" ry="12.8"/>
<ellipse class="st5" cx="294" cy="503.6" rx="15.3" ry="12.8"/>
<ellipse class="st5" cx="304" cy="551.1" rx="15.3" ry="12.8"/>
<ellipse class="st4" cx="304" cy="551.1" rx="15.3" ry="12.8"/>
<ellipse class="st5" cx="304" cy="548.3" rx="15.3" ry="12.8"/>
<ellipse class="st5" cx="265.3" cy="556.4" rx="15.3" ry="12.8"/>
<ellipse class="st4" cx="265.3" cy="556.4" rx="15.3" ry="12.8"/>
<ellipse class="st5" cx="265.3" cy="553.6" rx="15.3" ry="12.8"/>
<ellipse class="st5" cx="322.8" cy="595.8" rx="15.3" ry="12.8"/>
<ellipse class="st4" cx="322.8" cy="595.8" rx="15.3" ry="12.8"/>
<ellipse class="st5" cx="322.8" cy="593" rx="15.3" ry="12.8"/>
<ellipse class="st5" cx="271.5" cy="597.3" rx="15.3" ry="12.8"/>
<ellipse class="st4" cx="271.5" cy="597.3" rx="15.3" ry="12.8"/>
<ellipse class="st5" cx="271.5" cy="594.5" rx="15.3" ry="12.8"/>
<ellipse class="st5" cx="365" cy="595.8" rx="15.3" ry="12.8"/>
<ellipse class="st4" cx="365" cy="595.8" rx="15.3" ry="12.8"/>
<ellipse class="st5" cx="365" cy="593" rx="15.3" ry="12.8"/>
<ellipse class="st5" cx="409.6" cy="595.8" rx="15.3" ry="12.8"/>
<ellipse class="st4" cx="409.6" cy="595.8" rx="15.3" ry="12.8"/>
<ellipse class="st5" cx="409.6" cy="593" rx="15.3" ry="12.8"/>
<ellipse class="st5" cx="450.9" cy="595.8" rx="15.3" ry="12.8"/>
<ellipse class="st4" cx="450.9" cy="595.8" rx="15.3" ry="12.8"/>
<ellipse class="st5" cx="450.9" cy="593" rx="15.3" ry="12.8"/>
<ellipse class="st5" cx="496.5" cy="595.8" rx="15.3" ry="12.8"/>
<ellipse class="st4" cx="496.5" cy="595.8" rx="15.3" ry="12.8"/>
<ellipse class="st5" cx="496.5" cy="593" rx="15.3" ry="12.8"/>
<ellipse class="st5" cx="537.7" cy="595.8" rx="15.3" ry="12.8"/>
<ellipse class="st4" cx="537.7" cy="595.8" rx="15.3" ry="12.8"/>
<ellipse class="st5" cx="537.7" cy="593" rx="15.3" ry="12.8"/>
<ellipse class="st5" cx="578.6" cy="595.8" rx="15.3" ry="12.8"/>
<ellipse class="st4" cx="578.6" cy="595.8" rx="15.3" ry="12.8"/>
<ellipse class="st5" cx="578.6" cy="593" rx="15.3" ry="12.8"/>
<ellipse class="st5" cx="623" cy="595.8" rx="15.3" ry="12.8"/>
<ellipse class="st4" cx="623" cy="595.8" rx="15.3" ry="12.8"/>
<ellipse class="st5" cx="623" cy="593" rx="15.3" ry="12.8"/>
<ellipse class="st5" cx="664.5" cy="595.8" rx="15.3" ry="12.8"/>
<ellipse class="st4" cx="664.5" cy="595.8" rx="15.3" ry="12.8"/>
<ellipse class="st5" cx="664.5" cy="593" rx="15.3" ry="12.8"/>
<ellipse class="st5" cx="710.5" cy="595.8" rx="15.3" ry="12.8"/>
<ellipse class="st4" cx="710.5" cy="595.8" rx="15.3" ry="12.8"/>
<ellipse class="st5" cx="710.5" cy="593" rx="15.3" ry="12.8"/>
<ellipse class="st5" cx="757.7" cy="595.8" rx="15.3" ry="12.8"/>
<ellipse class="st4" cx="757.7" cy="595.8" rx="15.3" ry="12.8"/>
<ellipse class="st5" cx="757.7" cy="593" rx="15.3" ry="12.8"/>
<ellipse class="st5" cx="346.5" cy="551.1" rx="15.3" ry="12.8"/>
<ellipse class="st4" cx="346.5" cy="551.1" rx="15.3" ry="12.8"/>
<ellipse class="st5" cx="346.5" cy="548.3" rx="15.3" ry="12.8"/>
<ellipse class="st5" cx="389" cy="551.1" rx="15.3" ry="12.8"/>
<ellipse class="st4" cx="389" cy="551.1" rx="15.3" ry="12.8"/>
<ellipse class="st5" cx="389" cy="548.3" rx="15.3" ry="12.8"/>
<ellipse class="st5" cx="432.7" cy="551.1" rx="15.3" ry="12.8"/>
<ellipse class="st4" cx="432.7" cy="551.1" rx="15.3" ry="12.8"/>
<ellipse class="st5" cx="432.7" cy="548.3" rx="15.3" ry="12.8"/>
<ellipse class="st5" cx="474.6" cy="551.1" rx="15.3" ry="12.8"/>
<ellipse class="st4" cx="474.6" cy="551.1" rx="15.3" ry="12.8"/>
<ellipse class="st5" cx="474.6" cy="548.3" rx="15.3" ry="12.8"/>
<ellipse class="st5" cx="517.4" cy="551.1" rx="15.3" ry="12.8"/>
<ellipse class="st4" cx="517.4" cy="551.1" rx="15.3" ry="12.8"/>
<ellipse class="st5" cx="517.4" cy="548.3" rx="15.3" ry="12.8"/>
<ellipse class="st5" cx="558.3" cy="551.1" rx="15.3" ry="12.8"/>
<ellipse class="st4" cx="558.3" cy="551.1" rx="15.3" ry="12.8"/>
<ellipse class="st5" cx="558.3" cy="548.3" rx="15.3" ry="12.8"/>
<ellipse class="st5" cx="602.7" cy="551.1" rx="15.3" ry="12.8"/>
<ellipse class="st4" cx="602.7" cy="551.1" rx="15.3" ry="12.8"/>
<ellipse class="st5" cx="602.7" cy="548.3" rx="15.3" ry="12.8"/>
<ellipse class="st5" cx="644.9" cy="551.1" rx="15.3" ry="12.8"/>
<ellipse class="st4" cx="644.9" cy="551.1" rx="15.3" ry="12.8"/>
<ellipse class="st5" cx="644.9" cy="548.3" rx="15.3" ry="12.8"/>
<ellipse class="st5" cx="688" cy="551.1" rx="15.3" ry="12.8"/>
<ellipse class="st4" cx="688" cy="551.1" rx="15.3" ry="12.8"/>
<ellipse class="st5" cx="688" cy="548.3" rx="15.3" ry="12.8"/>
<ellipse class="st5" cx="731.1" cy="551.1" rx="15.3" ry="12.8"/>
<ellipse class="st4" cx="731.1" cy="551.1" rx="15.3" ry="12.8"/>
<ellipse class="st5" cx="731.1" cy="548.3" rx="15.3" ry="12.8"/>
<ellipse class="st5" cx="337.1" cy="506.4" rx="15.3" ry="12.8"/>
<ellipse class="st4" cx="337.1" cy="506.4" rx="15.3" ry="12.8"/>
<ellipse class="st5" cx="337.1" cy="503.6" rx="15.3" ry="12.8"/>
<ellipse class="st5" cx="380.3" cy="506.4" rx="15.3" ry="12.8"/>
<ellipse class="st4" cx="380.3" cy="506.4" rx="15.3" ry="12.8"/>
<ellipse class="st5" cx="380.3" cy="503.6" rx="15.3" ry="12.8"/>
<ellipse class="st5" cx="421.8" cy="506.4" rx="15.3" ry="12.8"/>
<ellipse class="st4" cx="421.8" cy="506.4" rx="15.3" ry="12.8"/>
<ellipse class="st5" cx="421.8" cy="503.6" rx="15.3" ry="12.8"/>
<ellipse class="st5" cx="463.4" cy="506.4" rx="15.3" ry="12.8"/>
<ellipse class="st4" cx="463.4" cy="506.4" rx="15.3" ry="12.8"/>
<ellipse class="st5" cx="463.4" cy="503.6" rx="15.3" ry="12.8"/>
<ellipse class="st5" cx="505.2" cy="506.4" rx="15.3" ry="12.8"/>
<ellipse class="st4" cx="505.2" cy="506.4" rx="15.3" ry="12.8"/>
<ellipse class="st5" cx="505.2" cy="503.6" rx="15.3" ry="12.8"/>
<ellipse class="st5" cx="546.5" cy="506.4" rx="15.3" ry="12.8"/>
<ellipse class="st4" cx="546.5" cy="506.4" rx="15.3" ry="12.8"/>
<ellipse class="st5" cx="546.5" cy="503.6" rx="15.3" ry="12.8"/>
<ellipse class="st5" cx="590.2" cy="506.4" rx="15.3" ry="12.8"/>
<ellipse class="st4" cx="590.2" cy="506.4" rx="15.3" ry="12.8"/>
<ellipse class="st5" cx="590.2" cy="503.6" rx="15.3" ry="12.8"/>
<ellipse class="st5" cx="631.4" cy="506.4" rx="15.3" ry="12.8"/>
<ellipse class="st4" cx="631.4" cy="506.4" rx="15.3" ry="12.8"/>
<ellipse class="st5" cx="631.4" cy="503.6" rx="15.3" ry="12.8"/>
<ellipse class="st5" cx="675.5" cy="506.4" rx="15.3" ry="12.8"/>
<ellipse class="st4" cx="675.5" cy="506.4" rx="15.3" ry="12.8"/>
<ellipse class="st5" cx="675.5" cy="503.6" rx="15.3" ry="12.8"/>
<ellipse class="st5" cx="718.6" cy="506.4" rx="15.3" ry="12.8"/>
<ellipse class="st4" cx="718.6" cy="506.4" rx="15.3" ry="12.8"/>
<ellipse class="st5" cx="718.6" cy="503.6" rx="15.3" ry="12.8"/>
<ellipse class="st5" cx="315.9" cy="461.7" rx="15.3" ry="12.8"/>
<ellipse class="st4" cx="315.9" cy="461.7" rx="15.3" ry="12.8"/>
<ellipse class="st5" cx="315.9" cy="458.9" rx="15.3" ry="12.8"/>
<ellipse class="st5" cx="358.4" cy="461.7" rx="15.3" ry="12.8"/>
<ellipse class="st4" cx="358.4" cy="461.7" rx="15.3" ry="12.8"/>
<ellipse class="st5" cx="358.4" cy="458.9" rx="15.3" ry="12.8"/>
<ellipse class="st5" cx="399.3" cy="461.7" rx="15.3" ry="12.8"/>
<ellipse class="st4" cx="399.3" cy="461.7" rx="15.3" ry="12.8"/>
<ellipse class="st5" cx="399.3" cy="458.9" rx="15.3" ry="12.8"/>
<ellipse class="st5" cx="441.5" cy="461.7" rx="15.3" ry="12.8"/>
<ellipse class="st4" cx="441.5" cy="461.7" rx="15.3" ry="12.8"/>
<ellipse class="st5" cx="441.5" cy="458.9" rx="15.3" ry="12.8"/>
<ellipse class="st5" cx="483" cy="461.7" rx="15.3" ry="12.8"/>
<ellipse class="st4" cx="483" cy="461.7" rx="15.3" ry="12.8"/>
<ellipse class="st5" cx="483" cy="458.9" rx="15.3" ry="12.8"/>
<ellipse class="st5" cx="525.5" cy="461.7" rx="15.3" ry="12.8"/>
<ellipse class="st4" cx="525.5" cy="461.7" rx="15.3" ry="12.8"/>
<ellipse class="st5" cx="525.5" cy="458.9" rx="15.3" ry="12.8"/>
<ellipse class="st5" cx="567.1" cy="461.7" rx="15.3" ry="12.8"/>
<ellipse class="st4" cx="567.1" cy="461.7" rx="15.3" ry="12.8"/>
<ellipse class="st5" cx="567.1" cy="458.9" rx="15.3" ry="12.8"/>
<ellipse class="st5" cx="609.3" cy="461.7" rx="15.3" ry="12.8"/>
<ellipse class="st4" cx="609.3" cy="461.7" rx="15.3" ry="12.8"/>
<ellipse class="st5" cx="609.3" cy="458.9" rx="15.3" ry="12.8"/>
<ellipse class="st5" cx="652.7" cy="461.7" rx="15.3" ry="12.8"/>
<ellipse class="st4" cx="652.7" cy="461.7" rx="15.3" ry="12.8"/>
<ellipse class="st5" cx="652.7" cy="458.9" rx="15.3" ry="12.8"/>
<ellipse class="st5" cx="695.2" cy="461.7" rx="15.3" ry="12.8"/>
<ellipse class="st4" cx="695.2" cy="461.7" rx="15.3" ry="12.8"/>
<ellipse class="st5" cx="695.2" cy="458.9" rx="15.3" ry="12.8"/>
<path class="st2" d="M275.9,448.9c8.5,0,15.3,5.7,15.3,12.8s-6.9,12.8-15.3,12.8s-15.3-5.7-15.3-12.8S267.5,448.9,275.9,448.9z
	 M736.7,448.9c8.5,0,15.3,5.7,15.3,12.8s-6.9,12.8-15.3,12.8s-15.3-5.7-15.3-12.8S728.3,448.9,736.7,448.9z"/>
<path class="st4" d="M275.9,448.9c8.5,0,15.3,5.7,15.3,12.8s-6.9,12.8-15.3,12.8s-15.3-5.7-15.3-12.8S267.5,448.9,275.9,448.9z
	 M736.7,448.9c8.5,0,15.3,5.7,15.3,12.8s-6.9,12.8-15.3,12.8s-15.3-5.7-15.3-12.8S728.3,448.9,736.7,448.9z"/>
<path class="st2" d="M275.9,446.1c8.5,0,15.3,5.7,15.3,12.8s-6.9,12.8-15.3,12.8s-15.3-5.7-15.3-12.8S267.5,446.1,275.9,446.1z
	 M736.7,446.1c8.5,0,15.3,5.7,15.3,12.8s-6.9,12.8-15.3,12.8s-15.3-5.7-15.3-12.8S728.3,446.1,736.7,446.1z"/>
<path class="st5" d="M285,625.8h449.5c5,0,9.1,4.1,9.1,9.1v6.5c0,5-4.1,9.1-9.1,9.1H285c-5,0-9.1-4.1-9.1-9.1v-6.5
	C275.9,629.8,280,625.8,285,625.8z"/>
<path class="st4" d="M285,625.8h449.5c5,0,9.1,4.1,9.1,9.1v6.5c0,5-4.1,9.1-9.1,9.1H285c-5,0-9.1-4.1-9.1-9.1v-6.5
	C275.9,629.8,280,625.8,285,625.8z"/>
<path class="st5" d="M285,623.9h449.5c5,0,9.1,4.1,9.1,9.1v6.5c0,5-4.1,9.1-9.1,9.1H285c-5,0-9.1-4.1-9.1-9.1V633
	C275.9,628,280,623.9,285,623.9z"/>
<path class="st4" d="M679.9,331.5c0,26.4-83.6,54.7-177.8,54.7s-164-30.5-164-56.9s69.8-38.7,164-38.7S679.9,305.1,679.9,331.5
	L679.9,331.5z"/>
<ellipse class="st8" cx="762.6" cy="228.5" rx="10.3" ry="25.5"/>
<ellipse class="st8" cx="257.8" cy="228.5" rx="10.3" ry="25.5"/>
<path class="st4" d="M265.3,222.4h497.4v7.5H265.3V222.4z"/>
<path class="st8" d="M265.3,221.2h497.4v7.5H265.3V221.2z M521.8,230.6c-4.1-1.3-11.6,23.4-11.6,23.4H533
	C533,254,525.8,231.8,521.8,230.6L521.8,230.6z M521.5,233.7c1.2,0,2.2,1,2.2,2.2c0,1.2-1,2.2-2.2,2.2c-1.2,0-2.2-1-2.2-2.2
	c0,0,0,0,0,0C519.3,234.7,520.3,233.7,521.5,233.7L521.5,233.7L521.5,233.7z M521.7,240.7c2.7,0.6,7.4,12.3,7.4,12.3h-15
	C514.1,253,519.1,240.1,521.7,240.7L521.7,240.7z"/>
<path class="st9" d="M799.1,420.2h-582c0.9-8.1,1.9-16.3,3-24.4l14.7-102.5c3.9-26.5,26.6-46.2,53.4-46.2h22.3
	c11.3,0,22.4,3.7,31.4,10.6c23.1,17.3,88.9,29.7,166.4,29.7s143.3-12.4,166.5-29.7c9.1-6.8,20.1-10.5,31.4-10.6h36.2
	c15.7,0,29.1,11.3,31.9,26.7l19.8,112C796,397.3,797.7,408.7,799.1,420.2L799.1,420.2z"/>
<g>

		<linearGradient id="SVGID_1_" gradientUnits="userSpaceOnUse" x1="554.857" y1="-89.0001" x2="554.857" y2="171.5715" gradientTransform="matrix(1 0 0 -1 -95.23 628.98)">
		<stop  offset="0" style="stop-color:#808080;stop-opacity:0.25"/>
		<stop  offset="0.54" style="stop-color:#808080;stop-opacity:0.12"/>
		<stop  offset="1" style="stop-color:#808080;stop-opacity:0.1"/>
	</linearGradient>
	<path class="st10" d="M490.5,548c0,0-11.5-21-9.5-24.4c1.4-2.7,2.5-5.5,3.3-8.3c0,0,4.2-2.9,4.2-4.1c0-1.2,3.3-3.9,5.1-5.1
		s0.9-6.8,0-7.5c-0.9-0.9-1.7-2-2.3-3.1c0,0,1.2-3.4,0-4.4s0.2-2,0-3.1c-0.1-1.6-0.1-3.2,0-4.8c-1-1.6-2.7-2.8-4.5-3.3l-0.1-0.5
		l-0.8-3.2c0,0,3.7-7-2.3-10.7c-0.4-0.3-0.9-0.5-1.3-0.7v-0.5c-0.1-1.8-0.4-3.6-0.9-5.4c-0.3-1-0.7-1.7-1.2-1.5
		c-0.1,0-0.2,0.1-0.3,0.2c-0.2,0.2-0.5,0.5-0.6,0.8c-0.7,1.2-1.1,2.5-1.4,3.9c-0.2,0.8-0.3,1.6-0.4,2.5c-0.3,0.5-0.5,1-0.7,1.5
		c-0.7,1.9-1.6,5.1,0,7.5c1.3,2,3.1,4.8,4.3,6.9v0.1l0.1,0.1l-0.1,0.1v0.3l0.1,1.7l1,14.8c-0.3-0.1-0.6-0.1-0.9-0.2
		c-0.4-0.1-0.9-0.1-1.3-0.1c-0.9-3.4-3.2-6.5-3.7-10.1c0-0.4-0.1-0.7-0.1-1.1c0-2.2,0.6-4.5,0.5-6.7c0-0.4,0-0.8,0-1.2v-0.3
		c-0.4-3.3-2.5-6.1-5.5-7.6c-1-0.5-2.1-0.8-3.1-1.4c-2.3-1.3-3.8-3.6-5.9-5.2c-1.6-1.3-3.7-1.7-5.6-1.2c-0.9,0.1-1.8,0.3-2.7,0.6
		c-2.2,0.6-4.3,1.4-6.3,2.6c-0.3,0.2-0.5,0.3-0.8,0.5c-0.6,0.4-1,0.9-1.3,1.5c-0.2,0.5-0.2,1.1-0.2,1.6v1.2
		c-0.1,6.5-7.2,11.6-7.7,18v1.7c0.1,2.8,1.5,5.4,1.8,8.2v0.7c0,1.3-0.3,2.5-0.7,3.8c-0.9,0.2-1.7,0.6-2.5,1c-2.1,1.4-6,3.8-7.4,8.3
		c-0.4,1.2-0.5,2.4-0.5,3.6c0,4.4-0.4,8.7-1.2,13c-0.2,1.1-0.4,2.2-0.8,3.2c0,0.1,0,0.2,0,0.3l-0.8,11l-0.2,1.9l-0.2,2.8
		c0,0,0.1,0.2,0.2,0.5s0.2,0.8,0.3,1.3c0.2,0.9,0.3,1.9,0.1,2.9c-0.1,0.4-0.3,0.7-0.6,1l-0.1,0.1c-0.4,0.9-0.6,1.8-0.6,2.8
		c-0.1,0.6-0.1,1.2-0.2,1.9c-0.4,4.3-0.7,10.8-0.8,16.2s-0.2,9.5-0.2,9.5c0.7,0.4,1.4,0.8,2.2,1.1c-0.1,0.1-0.1,0.3-0.2,0.5
		c-0.7,1.8-1.1,3.7-1.3,5.6c-0.3,4,0.8,8.5,6.4,10.8c0.4,0.1,0.7,0.3,1.1,0.4c0.9,0.3,1.9,0.3,2.8-0.2v0.7c0.1,1,0.1,1.9,0.1,2.7
		c0.2,4.8,1.4,13.1,1.4,13.1s0.4,3.4,0,4.4s0,5.1,0,5.1s1.2,2,0,3.1s-1.6,6.1-1.2,6.8c0,0,0,0.1,0,0.1c0.3,1.7-1.3,26.9-1.3,26.9
		s-1.4,3.8-2.6,7.8s-2,7.9-0.9,8.7c1,0.5,2.1,0.8,3.2,0.9v0.5c0,1.4-0.3,2.9-0.7,4.2c-0.5,0.7-1,6.1-1.3,9v0.3
		c-0.5,1.2-1,2.5-1.3,3.8c0,0-3.9,9.8-2.6,12.3c0.1,0.2,0.3,0.4,0.5,0.6c0,0,0.1,0.1,0.1,0.1c1.9,1.5,6.6,1.8,8.3,1.9l-0.1,2.4v0.2
		h2.2v-0.1c0-0.3,0-1.7,0.1-3.6v-1v-0.9c0.7-1.7,1-3.6,1-5.5c0-2.1,0.3-4.3,0.9-6.3c0.3-1.1,0.7-2.1,1.1-3.1
		c0.4-2.1,0.3-4.2-0.3-6.3c-0.2-0.5-0.4-1-0.8-1.4c0-0.1,0-0.2,0-0.3v-0.6c0-1.8,0.1-3.5,0.5-5.2c0,0,0-0.1,0-0.1
		c0-0.2,0.1-0.3,0.1-0.4v-0.1h0.7c2.2,0.1,3.8,0.1,3.8,0.1s1.8-9,1.6-13v-0.5c0.1-3.1,0.4-6.2,1.1-9.2l1.4-13.8
		c-0.4-1.3-0.4-2.8,0-4.1c0.4-1,1.3-3,2-4.3c0.3-0.6,0.5-1.1,0.6-1.3V637c-0.2-0.1-0.4-0.2-0.6-0.3c-0.6-0.4-1.1-1.1,0.6-2.2
		c2.7-1.7,1.8-6,1.8-6c-0.4-0.9-0.4-2,0.1-2.9c0.9-1.4,0-6.5,0-6.5c0.8-1.3,1.4-2.8,1.8-4.3c0.7-2,2.3-12,3.1-16.8
		c0.3-1.6,0.4-2.6,0.4-2.6v0.5l0.2,2.3v0.3l0.4,4.3c0,0,0.8,11.3,0.3,15.7c0,0,0,0.1,0,0.1c0,0.5-0.1,0.9-0.3,1.3
		c-0.9,2.1-0.8,10.6-0.7,12.4v0.4c-0.4,0.9-0.6,1.9-0.5,2.9c0,0.3,0.1,0.6,0.3,0.9c0.2,0.4,0.4,0.9,0.3,1.3v0.6
		c-0.1,0.8-0.3,1.6-0.6,2.3c0,0-1,2.5-0.6,3.8c0,0.2,0.1,0.3,0.2,0.5c0.1,0.2,0.1,0.3,0.1,0.5c0.3,2.8-0.5,14.9-1,21.5
		c-0.2,2.6-0.3,4.4-0.3,4.4l-1.4,14.5l0.1,0.1c0.2,0.1,0.5,0.3,0.9,0.5l-0.1,0.4c-0.2,1.4-0.5,3-0.8,4.3c0,0.1-0.1,0.2-0.1,0.3
		c-0.5,0.1-1,0.3-1.5,0.6c-3,5.3-1.7,9.5,0,10.7c0.6,0.7,0.9,1.6,1,2.5l0.4,5.3v0.6c0,0.2,0,0.3,0.1,0.5l0.1,1.6l0.2,2.2h1.3v-2.5
		h0.1c2.1,0.1,5.6,0.2,7.1,0h0.4c0.1,0,0.2,0,0.2-0.1c0.8-0.4,2.8-6,1-7.3s-2.2-4.9-2.2-4.9c-0.2-0.5-0.3-0.9-0.5-1.4
		c0-0.1,0-0.2,0-0.3c-0.1-1.6,0-3.1,0.2-4.7c0.3-1.8,0.5-3.7,0.5-5.6v-0.5c0.3-0.1,0.6-0.2,0.9-0.3h0.1c0.5-0.2,1.1-0.5,1.5-0.9
		l5-22.2l0.5-2.6l3-14.7c0,0-1-5.1,0-6c0.4-0.3,0.5-1.6,0.5-3.2c0-2.7-0.5-6-0.5-6s1.4-2.2,2.1-3.6s0-4.9,0-4.9l1.4-8.2
		c1.1-6.2,2.9-12.2,5.5-17.9c2.9-6,1-22.3-0.8-30.9l-0.2-0.7l3.1-1.5l0.4-0.2c1.5-0.7,3-1.4,4.4-2h0.1c1-0.4,2-0.8,3-1.1
		c0.3-0.1,0.6-0.2,0.9-0.2C497.9,560.9,490.5,548,490.5,548L490.5,548z M435.3,575.7h0.7c-0.1,0.2-0.2,0.3-0.3,0.5
		c-0.1,0.1-0.1,0.2-0.1,0.3c-0.3,0.5-0.5,1.1-0.7,1.7c0.1-0.6,0.2-1.3,0.3-2L435.3,575.7z M433.3,586.4L433.3,586.4
		c0-0.1,0-0.2-0.1-0.3l-0.1-0.4c0.3-0.1,0.5-0.2,0.8-0.3s0,0.1,0,0.1s0,0.4-0.1,0.6s0,0,0,0.1v0.5c0,0.2-0.1,0.6-0.1,0.8l-0.2-0.8
		C433.4,586.6,433.3,586.5,433.3,586.4L433.3,586.4z"/>
	<path class="st11" d="M486.3,482.5l-4.4,1.6l-1.6-2.7c-1.2-2-2.9-4.8-4.2-6.9c-2.2-3.6,0.7-9,0.7-9s0.5-5.4,2.4-7.1
		s2.4,7.1,2.4,7.1C489,469,485,477,485,477l0.7,3.2L486.3,482.5z"/>
	<path class="st4" d="M486.3,482.5l-4.4,1.6l-1.6-2.7v-0.2c1.6-1,3.6-1.4,5.5-1.1L486.3,482.5z"/>
	<path class="st11" d="M431.4,602.5c-8.2-3.5-6.4-12-4.9-16.3c0.3-0.9,0.7-1.7,1.1-2.5l4.6-2.8c0,0,0.9,2.4,2,5.6
		C436.5,594,439.2,605.9,431.4,602.5L431.4,602.5z M442.7,680.4c-0.6,1.1-1,2.2-1.2,3.4c-0.4,1.9-0.6,3.9-0.5,5.8
		c0,0.8,0.1,1.5,0.1,2.3l-9.2,6.3c0,0,0-0.7,0.1-1.8c0.2-2.9,0.7-8.3,1.2-8.9c0.4-1.4,0.7-2.8,0.7-4.2c0.1-1.8,0.2-3.4,0.2-3.4
		S445.2,675.8,442.7,680.4L442.7,680.4z M464.4,685c0,0,0,1.8-0.1,3.8c0,1.9-0.2,3.7-0.4,5.6c-0.2,1.5-0.3,3.1-0.2,4.7
		c0.1,2,0.2,3.9,0.2,3.9s-9.4-8.8-8.4-9.5c0.4-0.6,0.7-1.3,0.8-2c0.3-1.2,0.5-2.9,0.7-4.3c0.2-1.7,0.4-3,0.4-3L464.4,685z"/>
	<path class="st4" d="M442.7,680.4c-0.6,1.1-1,2.2-1.2,3.4c-2.5-0.1-5-0.3-7.5-0.6c0.1-1.8,0.2-3.4,0.2-3.4S445.2,675.8,442.7,680.4
		z M464.4,685c0,0,0,1.8-0.1,3.8c-2.9,0.7-5.9-0.8-7.4-1.7c0.2-1.7,0.4-3,0.4-3L464.4,685z"/>
	<path class="st2" d="M483.5,598.1c-2.5,5.7-4.2,11.7-5.3,17.8l-1.4,8.2c0,0,0.7,3.6,0,4.9s-2,3.6-2,3.6s1,8.3,0,9.2s0,5.9,0,5.9
		l-3.4,17.2l-4.8,22.1c-4.6,3.7-10.7-1-10.7-1l1.4-14.5c0,0,2-25.3,1.2-26.3s0.3-4.2,0.3-4.2s1.2-3.1,0.3-4.3s0.2-3.7,0.2-3.7
		s-0.3-10.4,0.7-12.8s0-17.1,0-17.1l-0.4-4.6l-0.2-2.5v-0.3l-0.4,2.6c-0.8,4.8-2.4,14.7-3,16.8c-0.4,1.5-1,2.9-1.8,4.2
		c0,0,0.9,5.1,0,6.5c-0.5,0.9-0.6,2-0.1,2.9c0,0,0.9,4.3-1.7,6s0,2.5,0,2.5s-1.9,4.1-2.5,5.8c-0.4,1.3-0.4,2.7,0,4.1l-1.4,13.8
		c-0.6,3.2-1,6.4-1,9.7c0.2,3.9-1.5,12.9-1.5,12.9s-13.1,0-15.1-1.5s3.4-16.5,3.4-16.5s1.5-26.2,1.2-26.8s0-5.8,1.2-6.8s0-3.1,0-3.1
		s-0.3-4.1,0-5.1c0.2-1.5,0.1-3-0.1-4.4c0,0-1.1-8.3-1.3-13.1s-1-15.5-1-15.5s0.9-6.6,1-9.8c0.2-1.4,0.6-2.8,1.2-4
		c0.7-1.5,1.6-3,2.5-4.5c0,0,40.3-11.9,42-10.7c0.4,0.3,1.1,2.4,1.7,5.5C484.5,576,486.3,592.1,483.5,598.1L483.5,598.1z"/>
	<path class="st12" d="M483.5,598.1c-2.5,5.7-4.2,11.7-5.3,17.8l-1.4,8.2c0,0,0.7,3.6,0,4.9s-2,3.6-2,3.6s1,8.3,0,9.2s0,5.9,0,5.9
		l-3.4,17.2l-4.8,22.1c-4.6,3.7-10.7-1-10.7-1l1.4-14.5c0,0,2-25.3,1.2-26.3s0.3-4.2,0.3-4.2s1.2-3.1,0.3-4.3s0.2-3.7,0.2-3.7
		s-0.3-10.4,0.7-12.8s0-17.1,0-17.1l-0.4-4.6l-0.2-2.5v-0.3l-0.4,2.6c-0.8,4.8-2.4,14.7-3,16.8c-0.4,1.5-1,2.9-1.8,4.2
		c0,0,0.9,5.1,0,6.5c-0.5,0.9-0.6,2-0.1,2.9c0,0,0.9,4.3-1.7,6s0,2.5,0,2.5s-1.9,4.1-2.5,5.8c-0.4,1.3-0.4,2.7,0,4.1l-1.4,13.8
		c-0.6,3.2-1,6.4-1,9.7c0.2,3.9-1.5,12.9-1.5,12.9s-13.1,0-15.1-1.5s3.4-16.5,3.4-16.5s1.5-26.2,1.2-26.8s0-5.8,1.2-6.8s0-3.1,0-3.1
		s-0.3-4.1,0-5.1c0.2-1.5,0.1-3-0.1-4.4c0,0-1.1-8.3-1.3-13.1s-1-15.5-1-15.5s0.9-6.6,1-9.8c0.2-1.4,0.6-2.8,1.2-4
		c0.7-1.5,1.6-3,2.5-4.5c0,0,40.3-11.9,42-10.7c0.4,0.3,1.1,2.4,1.7,5.5C484.5,576,486.3,592.1,483.5,598.1L483.5,598.1z"/>
	<circle class="st13" cx="458.7" cy="482.5" r="11.7"/>
	<path class="st4" d="M482.8,567.3c-1.4,0.7-2.3,1.2-2.3,1.2s-19,9-24.5,8.5c-4.2-0.4-14.9-0.2-19.5-0.1c0.7-1.5,1.6-3,2.5-4.5
		c0,0,40.3-11.9,42-10.7C481.4,562.1,482.1,564.2,482.8,567.3L482.8,567.3z"/>
	<path class="st2" d="M479.1,500.4l2.2-1.9l-1.1-16.8c3.2-2.2,7.6-1.3,9.7,1.9c0.1,0.1,0.2,0.2,0.2,0.4c-0.1,1.6-0.1,3.2,0,4.8
		c0.2,1-1.2,2,0,3s0,4.4,0,4.4c0.6,1.1,1.3,2.1,2.2,3.1c0.9,0.7,1.7,6.3,0,7.5s-4.9,3.9-4.9,5.1s-4.1,4.1-4.1,4.1l-3.6-4.7
		L479.1,500.4z"/>
	<path class="st2" d="M450.6,501.3c0,0-10.9,1.7-13.4,3.4s-7.6,4.9-7.6,11.9c0,5.4-0.6,10.9-1.9,16.2c-0.7,2,10.7,18.5,10.7,18.5
		l-4.1,25c0,0,16.3-0.5,21.8,0s24.5-8.5,24.5-8.5s11.2-5.9,13.6-6.1s-4.8-13.1-4.8-13.1s-11-20.9-9.2-24.3c1.3-2.7,2.4-5.5,3.2-8.3
		l-2-17.3c-1.9-0.6-4-0.3-5.6,0.9c-2.5,1.9-11.2,0.9-11.2,0.9L450.6,501.3z"/>
	<path class="st2" d="M431.9,531.5l-4.3,1.2l-1.2,16c0,0,1.5,4.3,0,5.6s-1.9,30.4-1.9,30.4c3.2,2.1,7.2,2.4,10.7,0.8
		c0,0-0.9-3.2,1.7-15s2.5-17.6,2.5-17.6s0-14.6,1.2-17s0-8.3,0-8.3s-2.4-3.2-2.2-4.4S431.9,531.5,431.9,531.5L431.9,531.5z"/>
	<path class="st4" d="M432.1,531.5l-4.3,1.2l-1.2,16c0,0,1.5,4.3,0,5.6s-1.9,30.4-1.9,30.4c3.2,2.1,7.2,2.4,10.7,0.8
		c0,0-0.9-3.2,1.7-15s2.5-17.6,2.5-17.6s0-14.6,1.2-17s0-8.3,0-8.3s-2.4-3.2-2.2-4.4S432.1,531.5,432.1,531.5L432.1,531.5z"/>
	<path class="st4" d="M434.2,586.5c-2.5,0.8-5.2,0.7-7.7-0.3c0.3-0.9,0.7-1.7,1.1-2.5l4.6-2.8C432.2,580.9,433.2,583.3,434.2,586.5
		L434.2,586.5z"/>
	<path class="st4" d="M475.4,534.1c0,0-2.2,19-8.7,22.6C466.8,556.7,481.2,552.6,475.4,534.1z M442.9,535.8c0,0,8,3.9,6.1,6.6
		S442.9,535.8,442.9,535.8z M442.9,543.6c0,0,5.1,5.3,4.1,7.1S442.9,543.6,442.9,543.6z M484.1,499.9c0,0,2,3.4,2.2,5.6
		S484.1,499.9,484.1,499.9z M484.1,495.3c0,0,1-0.9,3.6,0S484.1,495.3,484.1,495.3z M474.2,594.7c-4.2,0.6-8.5,0.1-12.4-1.6
		l-2.1,5.5l-0.2-2.5c0.4-2.1,1-4.4,2.4-5C465.5,593.5,469.8,594.8,474.2,594.7z M439.4,601.8c0,0,10.5,2.2,13.4,1.8L439.4,601.8z
		 M440.5,604.5c0,0,4.5-0.2,6.7,0.7L440.5,604.5z M441,606.4c2,0.4,4.1,0.7,6.2,0.8L441,606.4z M440.8,629.8c0.2-0.1,8.9-2.2,10-0.7
		L440.8,629.8z M440.8,632.4c0,0,7.6-0.9,7.8,0S440.8,632.4,440.8,632.4z M440.8,634.9c0,0,8.1-1.7,9-1.3S440.8,634.9,440.8,634.9z
		 M441.1,692l-9.2,6.3c0,0,0-0.7,0.1-1.8c1.1-2.8,2.7-5.4,4.7-7.7c2.1-0.5,3.4,0,4.2,0.9C441,690.5,441,691.2,441.1,692L441.1,692z"
		/>
	<path class="st5" d="M442,697.6c-1.3,3-1.9,6.1-1.9,9.4c0,2.7-0.7,5.3-2,7.5c-0.2,0.3-0.4,0.6-0.6,0.9c0,0-6.4,0-8.6-1.9
		c-0.2-0.2-0.4-0.4-0.6-0.7c-1.3-2.5,2.5-12.3,2.5-12.3c1-4.3,3.1-8.2,6-11.5C443.9,687.2,442,697.6,442,697.6L442,697.6z"/>
	<path class="st4" d="M438.1,714.5c-0.2,0.3-0.4,0.6-0.6,0.9c0,0-6.4,0-8.6-1.9c1.1-3.6,4.6-14.6,6.2-12.8S437.8,711,438.1,714.5
		L438.1,714.5z"/>
	<path class="st5" d="M437.3,701.5l-0.4,16.5h2.1c0,0,0.3-14.4,1.3-16.5S437.3,701.5,437.3,701.5L437.3,701.5z"/>
	<path class="st4" d="M463.9,702.8c0,0-9.4-8.8-8.4-9.5c0.4-0.6,0.7-1.3,0.8-2c1.8-0.3,4.9,0.4,7.5,7.6
		C463.7,701,463.9,702.8,463.9,702.8L463.9,702.8z"/>
	<path class="st5" d="M465.3,712.7c-0.1,0-0.2,0.1-0.2,0.1c-2.5,0.1-5,0.1-7.4,0c-0.9,0-1.6-0.7-1.6-1.6V709
		c-0.1-2.5-0.4-5.5-1.3-6.2c-1.6-1.2-2.9-5.4,0-10.6c0,0,5.5-4.2,9.4,8.4c0,0,0.4,3.6,2.1,4.9S466,712.4,465.3,712.7L465.3,712.7z"
		/>
	<path class="st4" d="M465,712.8c-2.5,0.1-5,0.1-7.4,0c-0.9,0-1.6-0.7-1.6-1.6V709c0.7-3,1.7-6.2,3-6.9
		C459,702.1,462.8,701.7,465,712.8L465,712.8z"/>
	<path class="st5" d="M455.4,701.8l1,13.7h1.3v-14.9L455.4,701.8z"/>
	<path class="st4" d="M458.6,463.9c-3.7,0.3-7.3,1.4-10.5,3.4c-0.9,0.4-1.6,1.1-2,2c-0.2,0.8-0.3,1.6-0.2,2.4
		c0.1,7-7.7,12.4-7.5,19.4c0.1,2.8,1.5,5.4,1.8,8.2c0.4,4.6-2.3,8.9-4.9,12.7c2.7,0.2,5.4-0.7,7.5-2.5c2.8,9.3,3.1,19.1,1,28.5h3.8
		c0.4,0,0.7,0,1.1,0.1c0.3,0.2,0.6,0.4,0.9,0.7c3.5,3.5,5.9,8.7,4.5,13.4l8-3c1.9-0.6,3.8-1.5,5.5-2.6c1.7-1.1,3-2.9,3.4-4.9
		c0.2-1.2,0.1-2.7,1.1-3.4c0.5-0.3,1-0.5,1.6-0.6c2.2-0.8,3.2-3.3,3.6-5.6c0.5-2.8,0.7-5.7,0.5-8.5c-0.4-4.8-1.8-9.6-0.6-14.3
		c0.7-2.6,2.1-5,2.2-7.8c0.2-4.5-3.3-8.3-3.8-12.7c-0.4-3.1,0.8-6.2,0.4-9.3c-0.4-3.2-2.4-6.1-5.3-7.6c-1-0.5-2.1-0.9-3-1.4
		c-2.2-1.3-3.6-3.6-5.6-5.2s-5.4-2.2-6.9-0.1L458.6,463.9z"/>
	<path class="st14" d="M458.6,463.4c-3.7,0.3-7.3,1.4-10.5,3.4c-0.9,0.4-1.6,1.1-2,2c-0.2,0.8-0.3,1.6-0.2,2.4
		c0.1,7-7.7,12.4-7.5,19.4c0.1,2.8,1.5,5.4,1.8,8.2c0.4,4.6-2.3,8.9-4.9,12.7c2.7,0.2,5.4-0.7,7.5-2.4c2.8,9.3,3.1,19.1,1,28.5h3.8
		c0.4,0,0.7,0,1.1,0.1c0.3,0.2,0.6,0.4,0.9,0.7c3.5,3.5,5.9,8.7,4.5,13.4l8-3c1.9-0.6,3.8-1.5,5.5-2.6c1.7-1.1,3-2.9,3.4-4.9
		c0.2-1.2,0.1-2.7,1.1-3.4c0.5-0.3,1-0.5,1.6-0.6c2.2-0.8,3.2-3.3,3.6-5.6c0.5-2.8,0.7-5.7,0.5-8.5c-0.4-4.8-1.8-9.6-0.6-14.3
		c0.7-2.6,2.1-5,2.2-7.8c0.2-4.5-3.3-8.3-3.8-12.7c-0.4-3.1,0.8-6.2,0.4-9.3c-0.4-3.2-2.4-6.1-5.3-7.6c-1-0.5-2.1-0.9-3-1.4
		c-2.2-1.3-3.6-3.6-5.6-5.2s-5.4-2.2-6.9-0.1L458.6,463.4z"/>
	<g class="st15">
		<path d="M446,469.4v0.5C446,469.8,446,469.6,446,469.4z M475.6,485.8c0.3-2.1,0.5-4.3,0.5-6.5
			C475.8,481.4,475.6,483.6,475.6,485.8z M440.3,496.5c-0.2-2.5-1.4-4.9-1.7-7.4c-0.1,0.5-0.1,0.9-0.1,1.4c0.1,2.8,1.5,5.3,1.7,8.1
			C440.3,497.9,440.3,497.2,440.3,496.5z M477.3,506.6c-0.4,1.7-0.5,3.4-0.4,5.1c0-1,0.2-2,0.4-2.9c0.7-2.6,2.1-5,2.2-7.8
			c0-0.5,0-1-0.1-1.4C479.1,502,477.8,504.2,477.3,506.6L477.3,506.6z M442.8,506.8c-1.7,1.4-3.8,2.3-6,2.5c-0.5,0.7-1,1.4-1.4,2.1
			c2.7,0.2,5.4-0.7,7.4-2.4c1.5,5,2.3,10.1,2.4,15.3C445.3,518.3,444.5,512.5,442.8,506.8z M477.4,529.4c-0.5,2.3-1.4,4.8-3.6,5.6
			c-0.6,0.1-1.1,0.3-1.6,0.6c-1,0.7-0.9,2.2-1.1,3.4c-0.5,2-1.7,3.8-3.4,4.9c-1.7,1.1-3.6,2-5.5,2.6l-7.6,2.9c0,0.8-0.2,1.5-0.4,2.3
			l8-3c1.9-0.6,3.8-1.5,5.5-2.6c1.7-1.1,3-2.9,3.4-4.9c0.2-1.2,0.1-2.7,1.1-3.4c0.5-0.3,1-0.5,1.6-0.6c2.2-0.8,3.2-3.3,3.6-5.6
			c0.5-2.4,0.7-4.8,0.6-7.2C477.9,526,477.7,527.7,477.4,529.4L477.4,529.4z M449.5,536.1c-0.2-0.3-0.5-0.5-0.9-0.7
			c-0.4-0.1-0.7-0.2-1.1-0.1h-3.3c-0.1,0.7-0.3,1.4-0.4,2.1h3.8c0.4,0,0.7,0,1.1,0.1c0.3,0.2,0.6,0.4,0.9,0.7
			c2.7,2.5,4.4,5.9,4.9,9.5C454.8,543.5,452.6,539.1,449.5,536.1L449.5,536.1z"/>
	</g>
	<path class="st4" d="M430.9,550c0,0,3-1.3,3.7,0S430.9,550,430.9,550z M431.9,552.1c0,0,3-1.3,3.7,0S431.9,552.1,431.9,552.1z"/>
</g>
<path class="st16" d="M216.6,58.8l0.3,2.1l9.1,1.3c0,0,0.8-0.6,1.9-1.3c2.2-1.4,5.8-3.5,8.9-4.1c4.8-0.9,20-7.8,15.1-8.2
	s-4.4,0.6-4.4,0.6s-5.4-5.3-11-0.5c-4.2,3.7-13.5,7.6-17.8,9.3L216.6,58.8z"/>
<path class="st17" d="M253,34.6c1.4-0.6,2.9-1,4.4-1.1c1.5-0.2,3,0.4,4.2,1.4c0.6,0.6,1,1.4,1.5,2c2.8,3,8.2,0.8,11.5,3.1
	c2.1,1.4,2.7,4.1,3.4,6.5s2.1,5,4.5,5.6c1.2,0.1,2.4,0.1,3.6-0.1c1.2-0.2,2.4,0.3,3.2,1.2c1.1,1.7-0.4,4.6,1.2,5.8
	c1.5,1.1,4.1-0.4,5.2,1.1c0.4,0.8,0.3,1.8-0.4,2.5c-0.6,0.7-1.2,1.4-1.7,2.1c-0.8,1.6-0.2,3.5,1.3,4.3c0.6,0.3,1.2,0.4,1.8,0.4
	c1-0.1,2.1-0.7,3.1-0.2c0.6,0.4,0.9,1,0.9,1.7c0.2,2.4-1.6,4.5-4,4.8c-1.8,0.1-3.4-0.8-5-1.7s-3.4-1.5-5.1-0.8
	c-0.8,0.4-1.4,0.9-2,1.4c-1.9,1.6-4,2.8-6.3,3.7c-2,0.8-4.4,1.3-6.3,0.3c-2.2-1.1-3.3-3.8-5.6-4.6s-4.9,0.7-7.1,2s-5.1,2.4-7.1,0.8
	s-1.5-5.2-2.8-7.6c-0.5-0.9-1.2-1.7-2.1-2.3c-1.5-1.1-3.1-2-4.6-3.1c-1.6-1-2.7-2.6-3.2-4.4c-0.4-2.2,0.6-4.4,1.8-6.3s2.6-3.8,3-5.9
	c0.3-1.6,0-3.3,0.4-5c0.5-2,2-3.6,4-4.2c1.1-0.4,1.3-0.3,1.8-1.2C251.1,35.6,252,34.9,253,34.6L253,34.6z"/>
<g class="st15">
	<path d="M289.6,53.7c0.2,1,0.3,2,0.2,2.9C289.6,55.7,289.5,54.7,289.6,53.7z M293.8,64.8c-0.2,0.3-0.3,0.7-0.3,1.1
		c-0.4-0.9-0.3-1.9,0.1-2.7c0.5-0.7,1.1-1.4,1.7-2.1c0.2-0.3,0.4-0.6,0.5-1c0,0,0,0.1,0.1,0.1c0.4,0.8,0.3,1.8-0.4,2.5
		C294.8,63.3,294.3,64,293.8,64.8L293.8,64.8z M242.6,62.2c1.5,1.1,3.1,2,4.6,3.1c0.8,0.6,1.6,1.4,2.1,2.3c1.3,2.4,0.6,5.9,2.8,7.6
		s4.9,0.5,7.1-0.8s4.7-2.9,7.1-2s3.4,3.5,5.6,4.6c1.9,1,4.3,0.5,6.3-0.3c2.3-0.9,4.4-2.2,6.3-3.7c0.6-0.6,1.3-1.1,2-1.4
		c1.6-0.7,3.5,0,5.1,0.8s3.2,1.8,5,1.7c2.1-0.2,3.8-1.9,4-4c0.1,0.3,0.2,0.6,0.2,0.9c0.2,2.4-1.6,4.5-4,4.8c-1.8,0.1-3.4-0.8-5-1.7
		s-3.5-1.5-5.1-0.8c-0.7,0.4-1.4,0.9-2,1.4c-1.9,1.6-4,2.8-6.3,3.7c-2,0.8-4.4,1.3-6.3,0.3c-2.2-1.1-3.3-3.8-5.6-4.6s-4.9,0.7-7.1,2
		s-5.1,2.4-7.1,0.8c-2.1-1.7-1.5-5.2-2.8-7.6c-0.5-0.9-1.2-1.7-2.1-2.3c-1.5-1.1-3.1-2-4.6-3.1c-1.6-1-2.7-2.6-3.1-4.4
		c-0.1-0.4-0.1-0.8-0.1-1.2C240.2,59.8,241.2,61.2,242.6,62.2L242.6,62.2z"/>
</g>
<path class="st18" d="M246.5,112.3l-3.3,0.7c0,0,3.3,5.4,8.3,1.8S246.5,112.3,246.5,112.3z"/>
<path class="st4" d="M246.5,112.3l-3.3,0.7c0,0,3.3,5.4,8.3,1.8S246.5,112.3,246.5,112.3z"/>
<path class="st16" d="M318.4,162.3c0,0,4.6,2.4,8.9,5.1c3.1,2,6,4.1,6.9,5.7c2.3,3.9,13.4,8.1,13.4,8.1l11,8.4
	c2.6,0.9,5.1,4,6.1,5.4c0.3,0.4,0.5,0.7,0.5,0.7l4.4-0.6l2.3-3c0,0,0.6-6.6-4-6.6c-0.9,0-1.8-0.3-2.6-0.7c-4.9-2.2-11.8-9-11.8-9
	s-11.7-14.6-15.2-15.1c-0.4-0.1-0.7-0.2-1.1-0.3c-3.6-1.3-8.7-5.8-8.7-5.8L318.4,162.3z M273,204.6c1.2,7,6.5,20.4,8.2,23.2
	c2.1,3.5,3.2,10.4,3.2,10.4l0.6,4.8c0.1,0.7,0.3,1.3,0.7,1.9c0.2,0.3,0.4,0.7,0.6,1l8.8-2.7c0,0-0.5-2-1.3-4.4s-1.9-5.3-3-6.3
	c-2.1-2.1-2.5-9.6-2.5-9.6s-1.8-14.4-2.3-16.2c-0.5-1.7-0.9-3.5-1-5.3c-0.1-1-0.1-2.1-0.1-3.3c-0.2-3.6-0.6-7.1-1.4-10.7l-10.3,1.9
	l-0.3,11.5C272.7,202.1,272.7,203.4,273,204.6L273,204.6z"/>
<path class="st4" d="M364.7,195c0.3,0.4,0.5,0.7,0.5,0.7l4.4-0.6l2.3-3c0,0,0.6-6.6-4-6.6c-0.9,0-1.8-0.3-2.6-0.7
	c-0.4,2,1.9,3.6,1.9,3.6s0.9,0.7,0.7,3.8C367.8,194.4,365.9,194.9,364.7,195L364.7,195z"/>
<path class="st19" d="M364.2,195.4c0.3,1.1,3.1,2.6,5,3.6c1,0.5,1.7,0.8,1.8,0.9c0.5,0.2,2.8-2.4,3.1-4.5s5.9-8.6,5.9-8.6
	c1.2-2.6,1.9-5.3,2.1-8.2c0.2-2.9-1-3.1-2.4-2.4c-1,0.5-1.9,1.2-2.6,2.1c-1,0.9-2.1,1.5-3.4,1.8c-1.7,0.4-3.4,1.1-4.9,2.1
	c-1.4,0.9-2.7,1.9-2.9,2.9c-0.5,2.1,1.8,3.8,1.8,3.8s0.9,0.7,0.7,3.8S364.2,195.3,364.2,195.4z"/>
<path class="st4" d="M369.2,199c1,0.5,1.7,0.8,1.8,0.9c0.5,0.2,2.8-2.4,3.1-4.5s5.9-8.6,5.9-8.6c1.2-2.6,1.9-5.3,2.1-8.2
	c0.2-2.9-1-3.1-2.4-2.4c-0.2,2.3-0.8,6.6-2,8.9C376.4,187.9,370.8,196.7,369.2,199L369.2,199z M285.9,244.8c0,0.1,0,0.1-0.1,0.2
	c0.2,0.3,0.4,0.7,0.6,1l8.8-2.7c0,0-0.5-2-1.3-4.4c-3.5-1-8.5,5.1-8.5,5.1L285.9,244.8z"/>
<path class="st19" d="M285.3,251.3c0,0,7.4,2.6,10.7,2.2c2.5-0.3,2.6-1.5,2.5-3.9c-0.1-0.8-0.1-1.6-0.2-2.7
	c-0.2-4.3-1.9-5.1-1.9-5.1c-2.8-7.4-10.9,2.5-10.9,2.5l0.4,0.8c-0.6,1.2-0.9,2.6-0.8,4C285.1,249.9,285.2,250.6,285.3,251.3
	L285.3,251.3z"/>
<path class="st4" d="M285.3,251.3c0,0,7.4,2.6,10.7,2.2c2.5-0.3,2.6-1.5,2.5-3.9c-1.7,1.4-3.8,2-6,1.7c-2.5-0.3-5-1.1-7.3-2.2
	C285.1,249.9,285.2,250.6,285.3,251.3L285.3,251.3z"/>
<path class="st16" d="M248.8,72.8l2.9,12.6l0.6,2.6l5.3,0.7l5.5,0.7l6-2.2c0,0,1.7-5.7,0.3-9.9c-0.4-1.5-1.4-2.8-2.8-3.6
	c-0.4-0.2-0.8-0.6-1.1-0.9c-0.4-0.4-0.8-0.9-1-1.4c-0.3-0.6-0.5-1.3-0.5-2c-0.3-3.4,1.9-7.1,1.9-7.1s-12.7-4.3-11.7-1.5
	c0.6,1.8-1.1,5-2.5,6.9c-0.7,1.1-1.3,1.8-1.3,1.8L248.8,72.8z"/>
<ellipse transform="matrix(0.2298 -0.9732 0.9732 0.2298 144.939 297.1783)" class="st4" cx="260.2" cy="57" rx="11" ry="11"/>
<circle class="st16" cx="260.2" cy="56.6" r="11"/>
<path class="st19" d="M249.6,114.6c0.5,2.4,2.9,6.2,2.9,6.2l15.3,3.8l11-11.4v-0.1c-0.3-1.1-4.5-14.6-1.5-17.9s2-13.2,2-13.2
	s-5.5-6.3-6.6-7.8s-8.2-2.7-8.2-2.7c0.4,0.5,0.7,0.9,1,1.4c0.8,1.1,1.4,2.4,1.8,3.7c0.5,1.3,0.4,2.7-0.1,4c-0.2,0.3-0.3,0.7-0.4,1
	c-1.2,5.3-6.7,4.5-8.8,4c-0.6-0.1-0.9-0.3-0.9-0.3l-5.2,0.2l-3.3,0.1c0,0,1.5,25.9,1.1,27.9C249.6,113.8,249.5,114.2,249.6,114.6
	L249.6,114.6z"/>
<path class="st20" d="M248.4,86.8l9.5-1.3h-0.2c-0.3-0.1-0.6-0.2-0.9-0.3l-5.2,0.2l-3.3,0.1C248.4,85.6,248.4,86,248.4,86.8
	L248.4,86.8z M259.1,122.5l4.1,1l6.5-0.8l1.7-1.8C271.4,120.9,259.1,122.5,259.1,122.5z M266,124.2l1.9,0.5l0.8-0.8L266,124.2
	L266,124.2z"/>
<path class="st4" d="M249.6,114.6c2.4,0.3,4.7,0.4,4.7,0.4l12.6-0.5v-13.2c-1.5-1.4-3.2-2.5-5.1-3.4c-2.2-0.8-4.8-3.1-4.3-9.3
	c0-0.3,0.1-0.7,0.1-1.1c0.1-0.7,0.1-1.4,0.1-2.1c0-3.1-1.3-6-3.5-8.1l-0.2-0.2l-2.1-9.6c-0.1,0-0.3,0-0.4,0.1
	c-0.7,1.1-1.3,1.8-1.3,1.8l-1.5,3.3l2.9,12.6l-3.3,0.1c0,0,1.5,25.9,1.1,27.9C249.4,113.8,249.5,114.2,249.6,114.6L249.6,114.6z"/>
<path class="st21" d="M253.9,115l12.6-0.5v-13.2c-1.5-1.4-3.2-2.5-5.1-3.4c-2.3-0.8-5.1-3.4-4.2-10.4c0.6-3.8-0.6-7.6-3.4-10.2
	l-0.2-0.2l-2.1-9.6c-1.3,0.1-2.5,0.8-3.3,1.9c-0.2,0.4-0.5,0.7-0.8,1.1c-0.5,0.9-1.6,1.2-2.5,0.8c-1.3-0.6-7.1-3-8.4-0.6
	s-1.5,16.5-1.5,16.5c1.9,1.6,3.2,3.7,3.7,6.1c0.9,4,2.4,4.1,2.4,4.1l1.6,11.6c0,0,1.4,2.5,0.4,3.9"/>
<path class="st21" d="M247.6,70.6l2.1,6.4l4.1,0.4l-0.2-0.2l-2.1-9.6c-1.3,0.1-2.5,0.8-3.3,1.9C248.1,69.9,247.9,70.3,247.6,70.6z"
	/>
<path class="st4" d="M216.6,58.8l0.3,2.1l9.1,1.3c0,0,0.8-0.6,1.9-1.3c-1-0.2-5.5-1.2-7.9-2c-0.9-0.3-1.5-0.5-1.5-0.7
	s0.1-0.2,0.2-0.3L216.6,58.8z"/>
<path class="st21" d="M205.9,72.4c0,0,10.3,7.8,16.8,9.1c0,0,9,2.7,12.6,5.8l3.9-14.9l-2.3-1.6c0,0-2.8,1.8-5.3,1.2
	s-5.1-0.9-5.1-0.9c-2.1-0.8-4.3-1.4-6.6-1.8c-1.7-0.1-1-2.4,0.7-3.6c0.2-0.2,0.5-0.3,0.7-0.4c0.7,0.9,1.9,1.2,2.9,0.7
	c0.7-0.4,1.2-1,1.7-1.6c0.7-0.9,1.4-1.9,1.9-2.9c0,0-5.4-1.2-8.1-2c-0.9-0.3-1.5-0.5-1.5-0.7c-0.1-0.6,4.8-2.6,4.8-2.6
	s-4.2-2-5.9-0.6c0,0,1.1,0.8,0.2,1.6s-11.6,9.1-11.6,9.1S200.4,68.9,205.9,72.4z"/>
<path class="st4" d="M214.8,64.8l5.7,0.8c0.2-0.2,0.5-0.3,0.7-0.4c0.7,0.9,1.9,1.2,2.9,0.7c0.7-0.4,1.2-1,1.7-1.6
	c0.6-0.8,1.1-1.6,1.6-2.4c0,0-5.4-1.2-8.1-2L214.8,64.8z"/>
<path class="st21" d="M215.1,64.3l6.1,0.9c0.7,0.9,1.9,1.2,2.9,0.7c1.8-1,3.6-4.5,3.6-4.5s-5.4-1.2-8.1-2L215.1,64.3z"/>
<path class="st4" d="M328.6,154.6l-10.1,7.7c0,0,4.6,2.4,8.9,5.1c3.7-2.5,7.3-4.9,9.9-7C333.7,159.2,328.6,154.6,328.6,154.6
	L328.6,154.6z M273,204.6c2.5-0.3,5-0.9,7.4-1.8c0,0,1.9-0.4,4.6-1.3c-0.1-1-0.1-2.1-0.1-3.3c-0.2-3.6-0.6-7.1-1.4-10.7l-10.3,1.9
	l-0.3,11.5C272.7,202.1,272.7,203.4,273,204.6z"/>
<path class="st19" d="M254.7,157.9c2.1,3.1,7.7,16.1,7.7,16.1c1.3,2.3,2.7,4.5,4.3,6.6c2.3,2.8,3.8,9.2,5.5,14.3s-0.5,4.1-0.3,6.8
	s9.9-0.8,9.9-0.8s19.8-4.4,25.8-16.4s30.1-23,35-29.8s-1.4-4-1.1-7.7s-2.5-6.8-2.5-6.8s-9.1-2.6-10.6-4.4s-8.7-6.3-8.7-6.3
	s-6.8-3-7.7-4s-9-4.2-11.5-4.9s-4.9-4.2-4.9-4.2s-1.5,0.2-3.8-2s-11.8-4.1-11.8-4.1c-16.3,11.9-27.5,10.2-27.5,10.2l-0.3,2.3
	C243.6,134.4,252.6,154.9,254.7,157.9L254.7,157.9z"/>
<path class="st4" d="M252.2,123.1c0,0,14,4.6,27.8-12.5c-16.3,11.9-27.5,10.2-27.5,10.2L252.2,123.1z M276.4,131.1
	c0,0,18.9,27.2,20,28.2S277.4,130.8,276.4,131.1z M267.7,129c0,0,13.1,20.3,12.8,23C280.5,152,267.9,132.5,267.7,129z M260.1,134.6
	c0,0,2.4,11.4-1.2,17.8L260.1,134.6z M255.1,135.3c0,0-0.2,9.8-1.3,11.8L255.1,135.3z M287.1,126.5l17.4,6.8l-6.4,0.8L287.1,126.5z
	 M252.9,50.5c0.9,0.6,1.6,1.5,2.6,1.6c0.7,0,1.5-0.2,2.1-0.5c1.7-0.8,3.7-1.3,5.5-0.7c2.5,0.8,4,3.8,6.5,4.7
	c1.3,0.4,2.7,0.3,3.8-0.4c1-0.6,1.7-1.6,2-2.8c0.3-2-0.4-4.1-2-5.3c-1.6-1.3-3.4-2.1-5.4-2.5c-5.1-1.1-10.4-0.8-15.6-0.4
	c-0.4,0-0.9,0.1-1.2,0.3c-0.8,0.6-2.1,3.6-1.9,4.6C249.8,50.4,252.8,49.4,252.9,50.5L252.9,50.5z"/>
<path class="st17" d="M252.9,50.1c0.9,0.6,1.6,1.5,2.6,1.6c0.7,0,1.5-0.2,2.1-0.5c1.7-0.8,3.7-1.3,5.5-0.7c2.5,0.8,4,3.8,6.5,4.7
	c1.3,0.4,2.7,0.3,3.8-0.4c1-0.6,1.7-1.6,2-2.8c0.3-2-0.4-4.1-2-5.3c-1.6-1.3-3.4-2.1-5.4-2.5c-5.1-1.1-10.4-0.8-15.6-0.4
	c-0.4,0-0.9,0.1-1.2,0.3c-0.8,0.6-2.1,3.6-1.9,4.6C249.7,50,252.7,49,252.9,50.1z"/>
<path class="st16" d="M320,58.2l1.7,6.7l2.2-1.3l11.7-7.1c0,0,8.9-0.3,9.5-7.5s-9.9-0.1-10.4,0.5s-1.8,1.5-1.8,1.5L322,57.1
	L320,58.2z"/>
<path class="st4" d="M320,58.2l1.7,6.7l2.2-1.3c-0.5-3-1.2-5.8-1.9-6.5L320,58.2z M262.3,102.1l2.4,14l14.1-3
	c-0.3-1.1-4.5-14.6-1.5-17.9s2-13.2,2-13.2s-5.5-6.3-6.6-7.8s-8.2-2.7-8.2-2.7c-0.3-0.6-0.5-1.3-0.5-2c-0.2,0.5-0.4,1-0.5,1.5
	c0,2.6,1,4.3,3.8,5.6l0.8,0.3c0.4,0.2,0.9,0.3,1.4,0.5l0.2,0.1c4.5,1.3,5.5,4.1,5.5,4.1c1.6,2.1,2.3,4.7,2.1,7.3
	C276.7,93.1,262.3,102.1,262.3,102.1L262.3,102.1z"/>
<path class="st21" d="M263.1,102l2.4,14l15.9-3.3c0,0-0.5-5.3-1.6-7.4s-0.9-10.5-0.9-10.5c6.8-7.3,3.2-13.2,3.2-13.2
	s19.9-3.2,20.2-3.8s7-4.2,7-4.2s7.2-1.8,8.2-2.9c0.4-0.4,0.8-0.7,1.2-1.1c0.1-0.1,0.3-0.2,0.4-0.3l0.5,4.6h0.2
	c1.2-0.1,2.3-0.6,3.2-1.3c1.6-1.3-0.4-15-2-15.5c-0.3-0.1-0.6-0.1-0.9,0c-1.3,0.4-2.4,1-3.4,1.8l-0.3,0.2l-0.1,0.1
	c0,0-9,3.5-10.8,5.2s-15.8,3.7-15.8,3.7s-6.3,1.5-7.1,0.6s-10.4-2.4-11.2-1s-3,1.2-3,1.2c-1.6-1.8-2.7-1.1-3.3-0.1
	c-0.4,0.6-0.7,1.3-0.8,2c0,2.8,1.2,4.6,4.5,5.9c0.5,0.2,1,0.4,1.6,0.6c4.5,1.3,5.5,4.1,5.5,4.1c1.6,2.1,2.3,4.7,2.1,7.3
	C277.5,93,263.1,102,263.1,102L263.1,102z"/>
<path class="st4" d="M320,57.1c0.2,0,0.3,0,0.5,0c1.6,0.5,3.7,14.3,2,15.5c-0.8,0.6-1.8,1-2.8,1.2h-0.2l-0.5-4.6
	c-0.1,0.1-0.3,0.2-0.4,0.3v-0.2c0.8-3.6,0-7.3-2.3-10.2L320,57.1z"/>
<path class="st21" d="M319,69.3l0.5,4.6c1.2-0.1,2.4-0.5,3.4-1.3c1.6-1.3-0.4-15-2-15.5c-1.3-0.4-3.5,1.2-4.4,1.8
	C319,61.8,319.9,65.7,319,69.3z M268.8,76.7l2.3-2.2l-6-5.8c-0.4,0.6-0.7,1.3-0.8,2C264.2,73.6,265.4,75.4,268.8,76.7z"/>
<path class="st4" d="M252.8,49.3c0.9,0.6,1.6,1.5,2.6,1.6c0.7,0,1.5-0.2,2.1-0.5c1.7-0.8,3.7-1.3,5.5-0.7c2.5,0.8,4,3.8,6.5,4.7
	c1.3,0.4,2.7,0.3,3.8-0.4c1-0.6,1.7-1.6,2-2.8c0.1-0.4,0.1-0.8,0.1-1.2c0.1,0.7,0.1,1.3,0,2c-0.4,1.7-1.7,2.9-3.4,3.3
	c-0.8,0.2-1.6,0.1-2.4-0.1c-2.5-0.9-4-3.8-6.5-4.7c-1.8-0.6-3.8,0-5.5,0.7c-0.6,0.4-1.4,0.6-2.1,0.5c-1-0.1-1.8-1.1-2.6-1.6
	c-0.1-1.1-3.2-0.1-3.5-1.4c0-0.2,0-0.4,0-0.6C249.9,49.1,252.6,48.2,252.8,49.3L252.8,49.3z M262.1,80.9c0,0-1.3,3.6,0.3,4.8
	c0,0-1.8-4.7-2.8-4.6"/>
<path class="st16" d="M340.8,46.3c0,0-8.2,7.1-2.3,8.2S340.8,46.3,340.8,46.3z"/>
<path class="st6" d="M308.9,52.2l1.6,41.3L356,52.2L308.9,52.2L308.9,52.2z"/>
<path class="st7" d="M308.9,52.2l1.6,41.3L356,52.2L308.9,52.2L308.9,52.2z"/>
</svg>
