<?xml version="1.0" encoding="utf-8"?>
<!-- Generator: Adobe Illustrator 22.1.0, SVG Export Plug-In . SVG Version: 6.00 Build 0)  -->
<svg version="1.1" id="图层_1" xmlns="http://www.w3.org/2000/svg" xmlns:xlink="http://www.w3.org/1999/xlink" x="0px" y="0px"
	 viewBox="0 0 1143.1 862.9" enable-background="new 0 0 1143.1 862.9" xml:space="preserve">
<path opacity="0.1" enable-background="new    " d="M1023.8,809.3c55.3,0,100.1,11.1,100.1,24.7s-44.8,24.7-100.1,24.7
	c-55.3,0-100.1-11.1-100.1-24.7S968.5,809.3,1023.8,809.3z M140,813.5c55.3,0,100.1,11.1,100.1,24.7s-44.8,24.7-100.1,24.7
	S39.9,851.8,39.9,838.2S84.8,813.5,140,813.5z M592,137.5c-71.4,11.9-142.9,5.5-211.8-3.4s-137.5-20.2-209.1-18
	c-46,1.4-97.2,10.5-129,38.2c-30.6,26.7-35,63.2-34.7,96.2C7.7,275.3,10,301,26.8,321c11.7,13.9,29.5,23.9,43,36.7
	c47,44.6,33.7,113.6,3.9,172.1c-14,27.4-31.1,54.4-40.5,82.5s-10.3,58.4,7.4,81.7c17.5,23.1,51.1,36.4,86,43.5
	c70.9,14.5,149.6,7,225.7-3.4c168.4-23.1,335-60.5,501.1-97.8c61.5-13.8,123.2-27.7,182.3-48c32.8-11.3,66.3-25.4,87.3-47.8
	c26.7-28.5,26.9-67.7,0.6-91.5c-44.2-40-143.2-32.5-177.6-78c-18.9-25-11.2-58.6,3.2-88.2c31-63.4,91.8-125.7,83-189.4
	c-6-43.8-48.4-80.4-104.7-90.5c-59-10.6-134.4,7.1-167.8,50.6C725.3,98.5,655,127,592,137.5L592,137.5z M713.6,748.6
	c34.2,0,62,4.3,62,9.5s-27.8,9.5-62,9.5s-62-4.3-62-9.5S679.4,748.6,713.6,748.6z"/>
<path d="M684.7,232.9c0,0-14.1-5.7-58.8,14.8c-44.7,20.5-50.4,17.9-61.9,14.8s-18-3.9-30.5-21c0,0-8.8-47.5-17.2-54.8
	s-44.5,4.2-44.5,4.2s-43.2,9.9-51.4-47.8c0,0,5.8-43.5-2.1-56.9c0,0,16,6.9,42.5-4.3s47.7,12,47.7,12s6.7,17.3,6,27.6
	s3.5,14.2,16.2,9.2c0,0,6.2-8.8-2.6-23.4S513,81.8,515.5,70.5s9.5-27,32.2-34.9s53.4-9.4,68.2-15.5s18.3-10.1,18.3-10.1
	s-9.1,9.1,12.3,47.8s7.8,55.4,7.8,55.4s-11.4,27.2-61.7,25c0,0-48.5,1.8-22,22.3c0,0,16.9-3.4,42.2-11.5s43.6,25.1,48.1,48.3
	S684.7,232.9,684.7,232.9z"/>
<path fill="#444053" d="M619.6,39.2l0.3-0.1c1.9,7.4-19.7,37-38.2,60.5l-0.2-0.2C607.5,66.3,621.1,44.9,619.6,39.2L619.6,39.2z"/>
<path fill="#444053" d="M581.8,99l0.1,0.3c-14.8,18.8-33.4,41.2-48.3,57.9c-1.4,1.6-2.8,3.3-4.2,4.9l-0.4-0.4c1.4-1.7,2.8-3.4,4.2-5
	C548.1,140.2,567,117.8,581.8,99z"/>
<path fill="#444053" d="M529.3,161.3l0.3,0.5c-27.1,33.8-28.9,86.4-29,86.8l-5.7-6.6C495,241.6,502.1,195.4,529.3,161.3z"/>
<path stroke="#444053" stroke-miterlimit="10" d="M653.3,214.5c0,0-32-16.6-56.8-10.6s-81-21.1-81-21.1
	s-23.8-9.7-28.6-20.7c0,0-16.3-17.3-17.3-26.2s-16.8-31.4-27.2-32.3 M648.7,230.5c0,0-16.1-10.8-14.2-23.5 M624,244.5
	c0,0-23-8.4-25.3-41.1 M586.9,253c0,0-22-18.3-14.7-50.1 M542.3,244.1c0,0-14.7-30.7-1.6-50.7 M653.7,194.3c0,0-16.7,5.3-13.1,14
	 M633.6,164.1c0,0-22.3,7.1-22.8,38.6 M602.6,156.8c0,0-20.3,25-18.8,47.8 M567,166.6c0,0-20.1,19.2-17.6,29.9 M554.9,159.8
	c0,0-18.9,3.4-21.5-2.8 M530.4,137c0,0,9.5,12.6,12,9.8 M624.9,129c0,0-47.6,3.4-58.4-10.9 M520.4,73.4c0,0,22.3,47.9,38.5,54
	 M543.8,50.5c0,0,13.7,44.1,30.7,57.8"/>
<path stroke="#444053" stroke-width="0.75" stroke-miterlimit="10" d="M645,92.6c0,0-36.2,15.5-57.9-0.2 M576,41.1
	c0,0,8.3,32.4,19.4,40.2 M639.5,56.3c0,0-20.3,7.7-27.9,1.8"/>
<path stroke="#444053" stroke-miterlimit="10" d="M513,147.6c0,0,0,28.3-7.7,30.3 M450.1,184.2c0,0,30.5,2.6,44.6-13.1
	 M505.1,114.2c0,0-7.4,28.6-27.8,36.4 M431.8,154c0,0,21.6,7.5,40.2-11.6 M481,89.6c0,0-2,24.3-15.3,35.7 M432.6,116.9
	c0,0,17.9,0.1,22.1-5.7"/>
<linearGradient id="SVGID_1_" gradientUnits="userSpaceOnUse" x1="551.455" y1="173.45" x2="551.455" y2="711.78" gradientTransform="matrix(1 0 0 -1 0 861.89)">
	<stop  offset="0" style="stop-color:#808080;stop-opacity:0.25"/>
	<stop  offset="0.54" style="stop-color:#808080;stop-opacity:0.12"/>
	<stop  offset="1" style="stop-color:#808080;stop-opacity:0.1"/>
</linearGradient>
<path fill="url(#SVGID_1_)" d="M88.8,150.1h925.3c6.9,0,12.5,5.6,12.5,12.5V676c0,6.9-5.6,12.5-12.5,12.5H88.8
	c-6.9,0-12.5-5.6-12.5-12.5V162.6C76.3,155.7,81.9,150.1,88.8,150.1z"/>
<path fill="#FFFFFF" d="M90.3,157.7h922.4c6.9,0,12.5,5.6,12.5,12.5v504c0,6.9-5.6,12.5-12.5,12.5H90.3c-6.9,0-12.5-5.6-12.5-12.5
	v-504C77.8,163.3,83.4,157.7,90.3,157.7z"/>
<path fill="#FFFFFF" d="M90.3,157.7h922.4c6.9,0,12.5,5.6,12.5,12.5v504c0,6.9-5.6,12.5-12.5,12.5H90.3c-6.9,0-12.5-5.6-12.5-12.5
	v-504C77.8,163.3,83.4,157.7,90.3,157.7z"/>
<path opacity="4.000000e-02" fill="#5A5773" enable-background="new    " d="M90.3,157.7h922.4c6.9,0,12.5,5.6,12.5,12.5v504
	c0,6.9-5.6,12.5-12.5,12.5H90.3c-6.9,0-12.5-5.6-12.5-12.5v-504C77.8,163.3,83.4,157.7,90.3,157.7z"/>
<path fill="#5A5773" d="M1020.4,151.6H82.6c-2.7,0-4.8,2.2-4.8,4.8v20.3h947.4v-20.3C1025.2,153.8,1023.1,151.6,1020.4,151.6
	C1020.4,151.6,1020.4,151.6,1020.4,151.6L1020.4,151.6z"/>
<g>
	<circle fill="#FFFFFF" cx="96.7" cy="164.2" r="6.5"/>
	<circle fill="#FFFFFF" cx="114.2" cy="164.2" r="6.5"/>
	<circle fill="#FFFFFF" cx="131.7" cy="164.2" r="6.5"/>
</g>
<path fill="#FFFFFF" d="M151.4,293.9H921c5.6,0,10.2,4.6,10.2,10.2v372.4c0,5.6-4.6,10.2-10.2,10.2H151.4c-5.6,0-10.2-4.6-10.2-10.2
	V304C141.2,298.4,145.8,293.9,151.4,293.9z"/>
<path opacity="0.2" fill="#5A5773" enable-background="new    " d="M111.6,203.4h219.5c2.1,0,3.9,1.7,3.9,3.9v16.1
	c0,2.1-1.7,3.9-3.9,3.9H111.6c-2.1,0-3.9-1.7-3.9-3.9v-16.1C107.7,205.2,109.4,203.4,111.6,203.4z"/>
<path opacity="0.2" enable-background="new    " d="M540.1,339.5h219.5c2.1,0,3.9,1.7,3.9,3.9v16.1
	c0,2.1-1.7,3.9-3.9,3.9H540.1c-2.1,0-3.9-1.7-3.9-3.9v-16.1C536.2,341.2,537.9,339.5,540.1,339.5z M540.1,406.2h347.1
	c2.1,0,3.9,1.7,3.9,3.9v16.1c0,2.1-1.7,3.9-3.9,3.9H540.1c-2.1,0-3.9-1.7-3.9-3.9v-16.1C536.2,408,537.9,406.2,540.1,406.2z
	 M540.1,445.2h347.1c2.1,0,3.9,1.7,3.9,3.9v16.1c0,2.1-1.7,3.9-3.9,3.9H540.1c-2.1,0-3.9-1.7-3.9-3.9v-16.1
	C536.2,447,537.9,445.2,540.1,445.2z M540.1,484.2h347.1c2.1,0,3.9,1.7,3.9,3.9v16.1c0,2.1-1.7,3.9-3.9,3.9H540.1
	c-2.1,0-3.9-1.7-3.9-3.9v-16.1C536.2,486,537.9,484.2,540.1,484.2z M540.1,523.2h347.1c2.1,0,3.9,1.7,3.9,3.9v16.1
	c0,2.1-1.7,3.9-3.9,3.9H540.1c-2.1,0-3.9-1.7-3.9-3.9v-16.1C536.2,525,537.9,523.2,540.1,523.2z M187.9,566.2h699.3
	c2.1,0,3.9,1.7,3.9,3.9v16.1c0,2.1-1.7,3.9-3.9,3.9H187.9c-2.1,0-3.9-1.7-3.9-3.9v-16.1C184.1,568,185.8,566.2,187.9,566.2z
	 M187.9,605.2h699.3c2.1,0,3.9,1.7,3.9,3.9v16.1c0,2.1-1.7,3.9-3.9,3.9H187.9c-2.1,0-3.9-1.7-3.9-3.9v-16.1
	C184.1,607,185.8,605.2,187.9,605.2z M187.9,644.2h699.3c2.1,0,3.9,1.7,3.9,3.9v16.1c0,2.1-1.7,3.9-3.9,3.9H187.9
	c-2.1,0-3.9-1.7-3.9-3.9v-16.1C184.1,646,185.8,644.2,187.9,644.2z M192.6,326.2h285c4.7,0,8.5,3.8,8.5,8.5v204.5
	c0,4.7-3.8,8.5-8.5,8.5h-285c-4.7,0-8.5-3.8-8.5-8.5V334.7C184.1,330,187.9,326.2,192.6,326.2z"/>
<path opacity="0.1" enable-background="new    " d="M729.3,660c0.5,0.7,0.9,1.6,1.2,2.4c10.4,12.2,15.9,23.6,5.9,23.9
	c-9.3,0.3-20.5,16.9-23.1,21.1c0.1,0.3,0.2,0.7,0.3,1c0,0,13.1-21.7,23.7-22S741,673.1,729.3,660z M698,660
	c-0.5,0.7-0.9,1.6-1.2,2.4c-10.4,12.2-15.9,23.6-5.9,23.9c9.3,0.3,20.5,16.9,23.1,21.1c-0.1,0.3-0.2,0.7-0.3,1
	c0,0-13.1-21.7-23.7-22S686.3,673.1,698,660L698,660z"/>
<path d="M729.3,660c0,0,5.9,7.8-2.7,19.5s-15.8,21.6-12.9,28.9c0,0,13.1-21.7,23.7-22S741,673.1,729.3,660L729.3,660z
	 M698,660c0,0-5.9,7.8,2.7,19.5s15.8,21.6,12.9,28.9c0,0-13.1-21.7-23.7-22S686.3,673.1,698,660L698,660z"/>
<path fill="#FFD037" d="M740.3,669.9c0,2.7-0.3,4.9-0.7,4.9s-0.7-2.2-0.7-4.9s0.4-1.4,0.8-1.4S740.3,667.2,740.3,669.9z
	 M744.1,673.1c-2.4,1.3-4.5,2.1-4.7,1.8s1.6-1.7,4-3s1.5-0.4,1.6,0S746.5,671.8,744.1,673.1z M687,669.9c0,2.7,0.3,4.9,0.7,4.9
	s0.7-2.2,0.7-4.9s-0.4-1.4-0.8-1.4S687,667.2,687,669.9z M683.2,673.1c2.4,1.3,4.5,2.1,4.7,1.8s-1.6-1.7-4-3s-1.5-0.4-1.6,0
	S680.8,671.8,683.2,673.1z"/>
<path fill="#65617D" d="M745.6,697.9l-0.3,2.4l-0.4,3.4l-0.2,1.4l-0.4,3.4l-0.2,1.4l-0.4,3.4l-4.7,38.9c-0.4,3.5-6.1,6.2-13,6.2
	h-24.6c-6.8,0-12.5-2.7-12.9-6.2l-4.8-38.9l-0.4-3.4l-0.2-1.4l-0.4-3.4l-0.2-1.4l-0.4-3.4l-0.3-2.4c-0.2-2,2.8-3.6,6.7-3.6h50.4
	C742.7,694.3,745.8,695.9,745.6,697.9L745.6,697.9z"/>
<path fill="#9D9CB5" d="M745.3,700.3l-0.4,3.4h-62.4l-0.4-3.4H745.3z M744.7,705.2l-0.4,3.4H683l-0.4-3.4H744.7L744.7,705.2z
	 M744.1,710l-0.4,3.4h-60l-0.4-3.4H744.1L744.1,710z"/>
<linearGradient id="SVGID_2_" gradientUnits="userSpaceOnUse" x1="1059.4147" y1="5.2499" x2="1059.4147" y2="392.851" gradientTransform="matrix(1 0 0 -1 -28.43 843.35)">
	<stop  offset="0" style="stop-color:#808080;stop-opacity:0.25"/>
	<stop  offset="0.54" style="stop-color:#808080;stop-opacity:0.12"/>
	<stop  offset="1" style="stop-color:#808080;stop-opacity:0.1"/>
</linearGradient>
<path fill="url(#SVGID_2_)" d="M1125,572.6c0.4-1-2.4-6.7-2.4-7s-2.9-3.5-2.9-5.2s-3.8-5.6-3.8-5.6s-5.2-2.1-5.7-6.8
	s-6.2-4.8-6.2-4.8s0-0.4,0-1.1c0.1-1.8-0.1-3.7-0.7-5.5c-0.7-1.3-1.8-2.3-3.2-2.7c0,0-0.6-3.6-1.7-4.8c-1.3-1.3-1.8-3.2-1.3-5
	c0.6-1.8-0.8-6.2-3.5-6.9s-5.8-1.7-5.8-1.7l-0.8,0.1l-0.4-0.1c-0.7,0.1-1.3,0.2-2,0.3c-0.6,0-1.1-0.2-1.6-0.5c-0.9-1-8.6-3-10-3
	s-5.4-1.9-5.4-1.9s-2.8-2.1-4-3.1s-3.2-4.3-3.5-4.9v-0.1c-0.3-0.8-0.6-1.6-0.8-2.5c1.4-1.4,2.5-3.1,3.5-4.8c0.1-0.2,0.2-0.4,0.3-0.5
	c0.2,0,0.4,0,0.6-0.1l0.3-0.1c1-0.5,1.7-1.4,2-2.4c0.1-0.2,0.1-0.4,0.2-0.6v-0.2l0.1-0.4c0-0.1,0-0.2,0-0.2l0.1-0.4V490
	c0-0.2,0-0.4,0.1-0.5c0.1-0.7,0.2-1.3,0.3-2c0.6-2.5,2.1-4.7,3.2-7c0.2-0.3,0.3-0.7,0.4-1s0.3-0.8,0.4-1.1l0.1-0.4
	c0.1-0.3,0.1-0.6,0.2-0.8s0-0.3,0.1-0.4c0.1-0.4,0.1-0.8,0.2-1.2c0.2-2.2-0.2-4.5-1-6.5c-0.7-1.8-1.8-3.3-2.5-5.1
	c-1.1-2.6-1.4-5.7-2.7-8.2c-2.2-4.2-7.2-6.3-11.7-4.8c-2,0.8-3.8,2.2-5.9,2.9c-2.8,0.9-5.7,0.2-8.6-0.2s-6-0.4-8.4,1.4
	c-2.7,2.2-3.4,6.2-5.9,8.6c-1,1-2.3,1.6-3.5,2.5c-0.8,0.6-1.4,1.4-1.7,2.4l-0.1,0.2c0,0.1,0,0.2-0.1,0.3c0,0.1,0,0.2-0.1,0.3
	c0,0.1,0,0.1,0,0.2c0,0.2,0,0.3,0,0.5c0,0.2,0,0.3,0.1,0.5v0.1c0,0.1,0.1,0.3,0.1,0.4s0,0,0,0.1s0.1,0.3,0.2,0.4l0.1,0.2
	c0,0.1,0,0.1,0.1,0.2c0.4,0.7,0.6,1.4,0.9,2.2c0.1,0.5,0.1,1-0.1,1.4c-0.2,0.5-0.6,1-1,1.4c-1.9,1.9-3.3,4.3-4.2,6.8
	c-0.1,0.3-0.2,0.6-0.3,0.9h0.1c0.3,0.1,0.5,0.1,0.8,0.2c0.2,0,0.3,0,0.5,0c0.6,0,1.3,0,1.9-0.1l0.5-0.1c0.7-0.2,1.3-0.4,1.9-0.7v0.9
	c0,8.4,4.8,16.1,12.3,19.8c0,0.2,0.1,0.4,0.1,0.6l0.1,0.5l-0.3-0.2c0,0-1.7-0.8-3.3,1.6c-1.2,1.6-2.8,2.8-4.6,3.5
	c0,0-17.1,2.7-17.8,4.9l-8,0.5c0,0-2.8,0.4-3.1,6.3s-1.8,6.4-1.8,6.4s-3.3,5.8-3,8.8c0.1,1.9-0.9,3.6-2.5,4.5l-0.4,5.3
	c0,0-3.1-0.5-4,3.2c-0.4,1.9-1.2,3.7-2.3,5.3c0,0-5.2,4.3-5.5,7.9l-3.2,2c0,0-7.4-1.7-9.1-4.7c0,0-0.2-0.2-0.5-0.5v-0.1
	c-1.1-1-3.5-3.2-3.1-2.7c0.2,0.5,0.3,1,0.2,1.5l-0.5-0.6l-1.5-1.6c0,0-12-11.2-19-12.1c-0.1-0.2-0.5-2-1.8-0.8
	c-4,3.7-4.2,9.9-0.6,13.8c0.2,0.2,0.3,0.4,0.5,0.5l11.2,10.5l0.3,0.2l2.4,3.1c-0.4,1-0.8,1.9-1,2.8v0.1l-0.2,0.5c0,0.1,0,0.1,0,0.2
	c-0.1,0.2-0.1,0.3-0.2,0.5l-0.1,0.3v0.2c-0.3,0.9-0.4,1.7-0.5,2.1l-0.6-0.2l0.6,0.3v0.3l0.6,0.3c3.3,1.4,19.7,8.6,20.5,9.7
	s7.1,4.8,12.8,1.8s6.8-7.5,6.8-7.5s5.4-7.6,5.6-8.7s4.4-2.4,4.4-2.4s0.4,12.5-1.8,17.1s-6.2,24.8-6.2,24.8c0.3,0,0.5,0,0.8,0
	l-0.2,1.2c0.3-0.1,0.7-0.1,1,0c-0.3,2.3-2,13-2,13s-0.6,4.8-1.5,6.5s-1,10.5-1,10.5l-1.5,6.3c0,0,0.2,0.4,0.6,1.1
	c1,2.2,2.5,4.1,4.3,5.6c-0.1,1-0.4,2-0.8,2.9c-0.6,1.4-0.8,2.9-0.8,4.5c0,0-1.6,7.2-1.4,9.2s-1,7.1-1,7.1l-1.7,16.2
	c0,0-1.1,14.1-0.6,17.9c0.3,3,0.1,6-0.4,9c0,0,1.1,11.1,0.8,12.3s-1.7,6.4-0.8,9.3s0.4,10.8,0.4,10.8s0.6,10.5,1.2,13.8
	c0.4,2.5,0.3,5.1-0.2,7.7c0,0-0.7,7.2-0.9,7.2s-2.7,4.9,2.3,9.8s1.9,4.1,1.9,4.1s-4-2-3.5,2.1c0.4,3.8,1.1,2.8,1.1,2.7l-0.9,3.1
	l0.7,0.1l-0.5,0.7c-0.6,0.7-1.2,1.4-1.9,2c-0.7,0.7-1.2,1.7-1.2,2.7c0,0-7,7.6-13.4,11.4c-3.4,2-6.3,3.7-7.6,5.1
	c-1.2,1.3-1,2.3,1.4,3.1c5.1,1.7,14,2.5,20.4,0.4c3.8-1.3,7.3-3.5,10-6.4c0,0,4-2.1,8-1.3s11.8-4.4,11.8-4.4l-0.2-1.3l-0.4-3.8
	c-0.5-0.6-0.8-1.5-0.7-2.3c0-1.1-0.1-2.3-0.3-3.4c-0.1-0.4-0.1-0.7-0.2-1.1l0.7-0.1c0,0-0.9-4.8,0.8-5.7s1.2-13.2,1.2-13.2
	s-2.2-2.8-3.3-3.3s-0.1-6.3,0.1-7s1.7-15.2,1.7-15.2s-0.6-4.6,0.2-6.5s-0.9-9.5-0.9-9.5c-0.3-0.7-0.1-1.5,0.5-2
	c1-1.1,0.7-11.1,0.7-11.1s-0.1-5-0.1-6.3s1.1-6.1,2.2-7.6s0.4-6.5,0.4-6.5l0.1-0.4c0-0.1,0-0.3,0.1-0.5l0.1-0.5
	c0.5-2.7,1.1-5.4,1.8-8.1c1.2-3.9,2.6-10.8,2.6-10.8l8.7-22.8l0.1-0.3c0,0,4,7.5,4,14.4c0,0,1,8.3,0.8,10.5s0.6,12.8,0.6,12.8
	s1.2,15.1,1.2,15.8s1.5,12.3,2.4,14.1s-0.9,7.2-1.5,7.7s0.2,14.3,0.2,14.3s-1.4,10.8-1.7,13.1s-1.4,10.8-0.5,14.2s0.6,3.8,0.6,3.8
	s3.4,3.5,1.4,3.7c-2.8,0.6-4.6,3.4-3.9,6.2c0,0.2,0.1,0.4,0.2,0.6c1.2,3.4,2.6,6.8,4.1,10l1.6-0.3v1.1l0.1,5.6c0,0,0.7,5.3,0.3,6.5
	c-0.3,0.9-0.7,5.1-0.8,7.3c-0.1,0.8-0.1,1.3-0.1,1.3s0,4.9,10.4,3.5s12.3-5.6,12.3-5.6l0.1-0.5c0.2-0.9,0.5-2.9,0.8-4.1
	c0.4-1.5-3-8.2-3-8.2s-0.6-4.6-1.5-5.6c-0.4-0.6-0.7-1.3-0.8-2c-0.1-0.4-0.2-0.8-0.2-1.2c0.2,0,0.5,0.1,0.7,0.1c0,0-0.6-3.3,1.6-4.3
	s1.6-3.2,1.3-4.1s0.8-6.2,0.8-6.2c-0.3-1.1,0-2.2,0.8-3c1.3-1.3,2.3-10.5,2.3-10.5l0.2-35.3c0,0,0.7-6.3-0.1-8.8s-1.5-7.4-0.5-8.7
	s0.1-7.4,0.1-7.4s0-12.8,1.4-16s0.9-23.2,0.9-23.2l0.4-13.2c0,0,3.1-2.9,2.3-18c3.3-0.2,7-0.3,7.5,0.1c1,0.8,7.7,5.1,11.7,2.4
	c1.6-1.1,3.2-2.3,4.7-3.6l-1.7-28l1.7,2.6c0-3.9,11.1-16.6,11.1-16.6s10.3-13.3,12.6-14.9s6.7-10,6.7-10c0.7-1.6,1.4-3.2,2.3-4.7
	C1128.1,578.1,1124.7,573.6,1125,572.6L1125,572.6z M1100.8,582.4c-2.8,0.3-8.7,6.7-8.8,8.1c-0.2,0.9-0.6,1.8-1.3,2.5
	c0-0.6-0.1-1.1-0.1-1.7c-0.7-8.3-1.4-18.3-1-19.3c0.6-1.7,0.4-9.2,0.4-9.2l0.1-0.2c1.9,5.9,7.8,12.8,7.8,12.8s1,3,2.3,3.1
	S1100.8,582.4,1100.8,582.4L1100.8,582.4z"/>
<path fill="#65617D" d="M950.2,580.3c0,0,3.4-18,14.4-18l8.1,16.6l-5.4,3.7C967.3,582.5,955.7,582.9,950.2,580.3z"/>
<path opacity="0.1" enable-background="new    " d="M972.7,578.8l-5.4,3.7c0,0-8.2,0.3-14.1-1.2c-1-0.2-2.1-0.6-3-1l0.1-0.3V580
	c0.5-2.3,1.2-4.5,2.1-6.6c0.3-0.8,0.7-1.6,1.1-2.5c1.6-3.1,3.9-6.2,7-7.7c1.1-0.6,2.4-0.9,3.7-1h0.5l0.2,0.4l2.7,5.6L972.7,578.8z"
	/>
<path fill="#65617D" d="M1064.2,653.4c0,0,11.6-1.1,12.6-0.3s7.6,5.1,11.5,2.4s1.3-12,1.3-12.4s-0.4-13.6-0.4-13.6l-6.9-9.3
	l-8.7-16.4l-17.8-1.8l0.5,26l-0.1,13.3L1064.2,653.4z"/>
<path opacity="0.1" enable-background="new    " d="M1064.2,653.4c0,0,11.6-1.1,12.6-0.3s7.6,5.1,11.5,2.4s1.3-12,1.3-12.4
	s-0.4-13.6-0.4-13.6l-6.9-9.3l-8.7-16.4l-17.8-1.8l0.5,26l-0.1,13.3L1064.2,653.4z"/>
<path fill="#FBBEBE" d="M962.3,561.8c0,0-0.9,11.3-8,11.5c0,0-2-1.2-4.7-3.2c-6.2-4.6-16-13.5-13.3-21.8c3.9-11.8,22.8,10,22.8,10
	l1.5,1.6L962.3,561.8z"/>
<path opacity="0.1" enable-background="new    " d="M962.3,561.8c0,0-0.9,11.3-8,11.5c0,0-2-1.2-4.7-3.2l-0.6-0.8
	c1.2,0.6,2.5,1,3.9,1c2.2,0.1,4.2-1.2,5-3.2c0.8-1.5,1.4-3,2-4.5c0.3-0.9,0.6-1.8,0.7-2.8L962.3,561.8z"/>
<path fill="#E7EFFD" d="M959.3,582.2l-1.6-2l-5.3-6.9l-2.7-3.5c1.2,0.6,2.5,1,3.8,1c2.2,0.1,4.2-1.2,5-3.2c0.7-1.5,1.4-2.9,2-4.5
	c0.9-2.5,0.9-3.8,0.5-4.2s2,1.7,3.1,2.7l0.5,0.5l0.2,0.4l2.8,5.4c0,0.1,0,0.2,0,0.2C967.8,569.9,968.7,580.7,959.3,582.2
	L959.3,582.2z"/>
<path fill="#65617D" d="M1014.8,820.5c0,0-7.8,5.1-11.7,4.3c-2.7-0.3-5.4,0.1-7.9,1.3c-2.7,2.9-6.1,5.1-9.8,6.4
	c-6.3,2.1-15.1,1.3-20.1-0.4c-2.4-0.8-2.5-1.8-1.4-3.1s4.2-3.1,7.5-5.1c6.4-3.8,13.2-11.3,13.2-11.3c0-1,0.5-2,1.2-2.7
	c0.7-0.6,1.3-1.3,1.9-2c1-1.2,1.9-2.4,1.9-2.4l22.9,0.9c0,0,0.4,1.7,0.7,3.3c0.3,1.1,0.4,2.2,0.3,3.3c-0.1,0.8,0.1,1.7,0.7,2.3
	l0.4,3.8L1014.8,820.5z M1062.6,826.9c-0.3,1.1-0.6,3.1-0.8,4c0,0.3-0.1,0.5-0.1,0.5s-1.8,4.1-12.1,5.5s-10.3-3.4-10.3-3.4l0.1-1.3
	c0.2-2.2,0.6-6.3,0.8-7.2c0.4-1.2-0.3-6.5-0.3-6.5l-0.1-5.5l-0.1-3.8l17-1.8c0.1,1.3,0.3,2.5,0.6,3.8c0.1,0.7,0.4,1.4,0.8,2
	c0.9,1,1.5,5.5,1.5,5.5S1063,825.4,1062.6,826.9L1062.6,826.9z"/>
<path opacity="0.1" enable-background="new    " d="M1012.6,806.5c0,0,0.4,1.7,0.7,3.3c-2.5,0.5-13.3,2.3-16,1
	c-3.1-1.5-9.6-2.3-9.6-2.3l0.1-0.4c1-1.2,1.9-2.4,1.9-2.4L1012.6,806.5z M1057.4,811.2c-4.3-0.7-13.8,1-17.5,1.8l-0.1-3.8l17-1.8
	C1056.9,808.7,1057.1,810,1057.4,811.2L1057.4,811.2z"/>
<path fill="#3F3D56" d="M1067,670.9l-0.4,13c0,0,0.5,19.9-0.9,23s-1.4,15.8-1.4,15.8s0.9,6-0.1,7.3s-0.3,6.1,0.5,8.6
	s0.1,8.7,0.1,8.7l-0.2,35c0,0-1,9.1-2.3,10.4c-0.8,0.8-1.1,1.9-0.7,3c0,0-1.1,5.2-0.8,6.1s0.8,3-1.3,4.1s-1.6,4.3-1.6,4.3
	c-5.1-1.2-19.5,2-19.5,2c-1.6-3.2-2.9-6.5-4.1-9.9c-1-2.7,0.4-5.6,3.1-6.6c0.2-0.1,0.4-0.1,0.6-0.2c1.9-0.3-1.4-3.7-1.4-3.7
	s0.4-0.5-0.6-3.8s0.2-11.8,0.5-14.1s1.7-13,1.7-13s-0.7-13.6-0.2-14.2s2.4-5.9,1.5-7.7s-2.4-13.3-2.4-14s-1.2-15.7-1.2-15.7
	s-1.1-10.5-0.8-12.7s-0.8-10.5-0.8-10.5c0-6.8-4-14.3-4-14.3l-0.1,0.3l-8.6,22.8c0,0-1.4,6.8-2.6,10.7c-0.8,2.6-1.4,5.3-1.8,8
	l-0.1,0.5l-0.1,0.5l-0.1,0.4c0,0,0.6,4.9-0.4,6.5c-1.1,2.4-1.9,5-2.1,7.6c0,1.3,0.1,6.3,0.1,6.3s0.4,9.9-0.7,11
	c-0.6,0.5-0.8,1.3-0.5,2c0,0,1.7,7.5,0.9,9.4s-0.2,6.5-0.2,6.5s-1.5,14.3-1.7,15.1s-1.2,6.5-0.1,6.9s3.2,3.2,3.2,3.2
	s0.5,12.1-1.2,13s-0.8,5.7-0.8,5.7s-13.4,2.6-16.5,1.1s-9.6-2.3-9.6-2.3l0.9-3c-0.1,0.1-0.7,1.1-1.1-2.7c-0.5-4,3.4-2,3.4-2
	s3.1,0.7-1.8-4.1s-2.5-9.7-2.2-9.7s0.9-7.1,0.9-7.1c0.5-2.5,0.5-5.1,0.2-7.6c-0.7-3.3-1.2-13.7-1.2-13.7s0.5-7.9-0.4-10.7
	s0.6-8,0.8-9.3s-0.8-12.2-0.8-12.2c0.5-3,0.6-6,0.4-9c-0.6-3.8,0.5-17.8,0.5-17.8l1.7-16.1c0,0,1.2-5,1-7s1.4-9.2,1.4-9.2
	c-0.1-1.5,0.2-3,0.7-4.5c0.9-1.8,1.3-8,1.3-8l8.9-20.4l4.3-18l58.8-0.6c0,0,0.2,1.6,0.6,4.4s0.9,7,1.4,12.2
	c0.5,4.7,1.1,10.2,1.6,16.4C1070.7,667.4,1067,670.9,1067,670.9L1067,670.9z"/>
<path fill="#FBBEBE" d="M1061.6,508.8l-13.7,14.7c0,0-17.6-7-15.7-9.5c0.7-0.9,0.6-3.9,0.2-7.1c-0.7-5.1-2-11-2-11s30.7-5,28.1,0.2
	c-0.8,2-0.9,4.1-0.2,6.1C1059,504.6,1060.1,506.8,1061.6,508.8L1061.6,508.8z"/>
<path opacity="0.1" enable-background="new    " d="M1058.4,496c-0.9,1.9-1.4,2.1-0.8,4.1c-4,4.3-9.1,9-15.5,9
	c-3.4,0-6.8-0.8-9.8-2.3c-0.7-5.1-2-11-2-11S1061,490.9,1058.4,496L1058.4,496z"/>
<path fill="#FBBEBE" d="M1064.2,486.6c0,12.2-9.9,22-22,22c-12.2,0-22-9.9-22-22v-0.3c0.1-12.2,10-22,22.2-21.9
	S1064.3,474.4,1064.2,486.6L1064.2,486.6L1064.2,486.6z"/>
<path opacity="0.1" enable-background="new    " d="M1067.4,631.9c-2.9,0-12.6,0.1-23.5,0.3h-0.1l-3.6,0.1h-0.1
	c-12.9,0.2-25.6-2.3-30.7-1.8c-10.8,1,3.9-10,3.9-10c8.1,2,16.4,2.8,24.7,2.5l3.1-0.2c9.8-0.6,19.7-1.5,24.9-3
	C1066.3,622.6,1066.8,626.8,1067.4,631.9L1067.4,631.9z"/>
<path fill="#5F5D7E" d="M1067.4,631.4c-2.9,0-12.6,0.1-23.5,0.3h-0.1l-3.6,0.1h-0.1c-12.9,0.2-25.6-2.3-30.7-1.8
	c-10.8,1,3.9-10,3.9-10c8.1,2,16.4,2.8,24.7,2.5l3.1-0.2c9.8-0.5,19.7-1.5,24.9-3C1066.3,622.1,1066.8,626.2,1067.4,631.4
	L1067.4,631.4z"/>
<path opacity="0.1" enable-background="new    " d="M1036.2,514.9l-17,8l-13.2,101.6c0,0,7.8-3.5,12.2-1.3s18.1,0.2,18.1,0.2
	s10-0.6,11.5,0.6s18.9-4.6,18.9-4.6s3.2-7,0.7-8.2s0.7-12,0.7-12l-1.5-73.3l-3-9.4l-8-4.8l-8.1,6.5l-3.9,0.6L1036.2,514.9z"/>
<path fill="#E7EFFD" d="M1036.2,513.8l-17,8L1006,623.5c0,0,7.8-3.5,12.2-1.3s18.1,0.2,18.1,0.2s10-0.6,11.5,0.5s18.9-4.6,18.9-4.6
	s3.2-7,0.7-8.2s0.7-12,0.7-12l-1.5-73.3l-3-9.4l-8-4.8l-8.1,6.5l-3.9,0.6L1036.2,513.8z"/>
<path opacity="0.1" enable-background="new    " d="M1035.9,518.5c0,0,4.9,5.8,4.8,7s-0.3,4.1-0.3,4.1l-3.7,7.5c0,0-2,9.3-2,11.3
	s-3.2,18.8-3.2,18.8l-4,26l-4.9,34l5,8.6l5.9-5l7.9-60.5l1.7-11.9c0,0,1.8-21.5,1.8-23.7c-0.2-2.7-0.5-5.4-1-8c0,0,1.2-5.6,6.2-6.8
	s-0.4-0.3-0.4-0.3l-2.9-2.3l-2.5,1C1044.3,518.1,1037.4,515.9,1035.9,518.5z"/>
<path d="M1035.4,518c0,0,4.9,5.8,4.8,7s-0.3,4.1-0.3,4.1l-3.7,7.5c0,0-2,9.3-2,11.3s-3.2,18.8-3.2,18.8l-3.9,25.9
	l-4.9,34l5,8.6l5.9-5l7.9-60.5l1.7-11.9c0,0,1.8-21.5,1.8-23.7c-0.2-2.7-0.5-5.4-1-8.1c0,0,1.2-5.5,6.2-6.8s-0.4-0.3-0.4-0.3
	l-2.9-2.3l-2.5,1C1043.9,517.5,1036.9,515.4,1035.4,518L1035.4,518z"/>
<path opacity="0.1" enable-background="new    " d="M1032.2,508.3c0,0-0.7,0.6-0.9,4.3s-2.8,12-2.8,12s9.6-6.7,14.4-5.9
	L1032.2,508.3z"/>
<path fill="#E7EFFD" d="M1032.2,507.1c0,0-0.7,0.6-0.9,4.3s-2.8,12-2.8,12s9.6-6.7,14.4-5.9L1032.2,507.1z"/>
<path opacity="0.1" enable-background="new    " d="M1058.4,505.3l-15.2,13.3c0,0,12.8,7.6,14.4,9.4s3.3-18.1,3.3-18.1L1058.4,505.3
	z"/>
<path fill="#E7EFFD" d="M1059,504.2l-15.2,13.3c0,0,12.8,7.6,14.4,9.4s3.3-18.1,3.3-18.1L1059,504.2z"/>
<path opacity="0.1" enable-background="new    " d="M1032.7,508.3c0,0-1.7-0.8-3.2,1.6c-1.2,1.6-2.7,2.8-4.5,3.5
	c0,0-16.8,2.7-17.5,4.9l-7.9,0.5c0,0-2.8,0.4-3,6.2s-1.8,6.4-1.8,6.4s-3.2,5.7-3,8.7c0.1,1.8-0.9,3.6-2.5,4.5l11.6,30.1
	c0,0,0.4,12.4-1.8,16.9s-6.1,24.6-6.1,24.6s1.7-0.4,1.6,0.7s-2,13.2-2,13.2s-0.6,4.8-1.5,6.5s-1,10.4-1,10.4l-1.5,6.3
	c0,0,3.5,7.9,8.9,6.8s15.1-22.1,15.1-22.1l6.2-22.7l4.8-22.4l1.4-15.2l2.2-33.6l3.2-22.2C1030.4,521.8,1034,509.8,1032.7,508.3
	L1032.7,508.3z"/>
<path fill="#65617D" d="M1032.2,507.1c0,0-1.7-0.8-3.2,1.6c-1.2,1.6-2.7,2.8-4.5,3.5c0,0-16.8,2.7-17.5,4.9l-7.9,0.5
	c0,0-2.8,0.4-3.1,6.2s-1.8,6.4-1.8,6.4s-3.2,5.7-3,8.7c0.1,1.8-0.9,3.6-2.5,4.5l11.6,30.1c0,0,0.4,12.4-1.8,16.9s-6.1,24.6-6.1,24.6
	s1.7-0.4,1.6,0.7s-2,13.2-2,13.2s-0.5,4.8-1.5,6.5s-1,10.4-1,10.4l-1.5,6.3c0,0,3.5,7.9,8.9,6.8s15.1-22.1,15.1-22.1l6.2-22.7
	l4.8-22.4l1.3-15.2l2.2-33.6l3.2-22.2C1029.8,520.6,1033.4,508.7,1032.2,507.1L1032.2,507.1z"/>
<path opacity="0.1" enable-background="new    " d="M972.7,578.8l-5.4,3.7c0,0-8.2,0.3-14.1-1.2l-3-1.3l-0.6-0.3l0.6,0.2
	c2.4,0.8,5,0.9,7.4,0.3c7.6-2.6,6.8-15.1,6.5-17.9c0-0.3,0-0.5-0.1-0.5v0.1c0.1,0.2,0.2,0.3,0.3,0.5l0.3,0.4l2.8,5.3
	c0,0.1,0,0.2,0,0.2L972.7,578.8z"/>
<path fill="#65617D" d="M991.3,542.6l-2.6,0.7l-0.4,5.3c0,0-3-0.5-3.9,3.2c-0.4,1.9-1.1,3.7-2.3,5.3c0,0-5.1,4.3-5.4,7.9l-3.2,1.9
	c0,0-7.3-1.7-9-4.6c0,0,3.3,23.9-14.4,18c0,0,19.9,8.7,20.8,9.9s7,4.7,12.6,1.8s6.8-7.5,6.8-7.5s5.4-7.5,5.5-8.6s4.3-2.4,4.3-2.4
	l8-19.3L991.3,542.6z"/>
<path opacity="0.1" enable-background="new    " d="M1056.3,516.4l2.7-12.2c0,0,1.2,4,2.4,4.9l4,3c0,0,4,1.8,5.4,1.8s8.9,2,9.8,3
	s4.6,0.3,4.6,0.3s3.1,1,5.7,1.7s4,5.1,3.4,6.8c-0.5,1.8,0,3.7,1.3,5c1.1,1.1,1.7,4.7,1.7,4.7c1.4,0.4,2.5,1.4,3.1,2.7
	c0.9,2,0.7,6.5,0.7,6.5l-13.8,19.4c0,0,0.2,7.5-0.4,9.2s1.9,30,1.9,30l2.9,48.7c-1.5,1.3-3,2.5-4.6,3.6c-0.8,0.4-1.7-17.2-1.7-17.9
	s-21.4-32-21.4-32s-2.9-4.6-2.9-5.7s-2.7-10.4-2.7-10.4l-4.1-18L1056.3,516.4z"/>
<path fill="#65617D" d="M1102.3,543.6v1.1l-13.8,19.4c0,0,0.2,7.5-0.4,9.2c-0.3,1,0.4,10.9,1,19.1c0.5,5.9,0.9,10.9,0.9,10.9
	l1.2,20.7l1.7,28c-1.5,1.3-3,2.5-4.6,3.6c-0.8,0.4-1.7-17.2-1.7-17.9s-21.4-32-21.4-32s-2.9-4.6-2.9-5.7s-2.7-10.4-2.7-10.4l-4.1-18
	l1.8-55.2l1.6-12.2c0,0,2.3,4,3.5,4.9l4,3.1c0,0,4,1.8,5.4,1.8s8.9,2,9.8,3s4.6,0.3,4.6,0.3s3.1,1,5.7,1.7s4,5.1,3.4,6.8
	c-0.5,1.8,0,3.7,1.3,5c1.1,1.1,1.7,4.7,1.7,4.7c1.4,0.4,2.5,1.4,3.1,2.7C1102.1,539.9,1102.4,541.8,1102.3,543.6L1102.3,543.6z"/>
<path opacity="0.1" enable-background="new    " d="M989.1,790.2c0.5,0,19.9,0.7,19.5,3.9S989.1,790.2,989.1,790.2z M993.4,795.5
	c0,0,13,2.1,9.6,4.1S993.4,795.5,993.4,795.5z M1042,788.2c0,0,21.7,1.8,18.4,4.3s-10.9,2.8-11.3,2.9S1042,788.2,1042,788.2z
	 M1039.4,797.7c0,0,12,2,12.4,4.3S1039.4,797.7,1039.4,797.7z M1046,742c0,0,11,2.6,11.7,4.3L1046,742z M1003.6,750
	c0,0-5.7,1.7-0.2,5S1003.6,750,1003.6,750z M1029,661c0.7,0,10.7-3.3,14.3-1.8c2.5,0.9,5.2,1.4,7.9,1.5L1029,661z M1030.3,671.5
	l-0.1,0.9l-8.6,22.6c0,0-1.4,6.8-2.6,10.7c-0.8,2.6-1.4,5.3-1.8,8l7.6-47.4L1030.3,671.5z"/>
<path fill="#3F3D56" d="M1043.7,631.7l-3.6,0.1h-0.1l-2.1-9.3l3.1-0.2L1043.7,631.7z"/>
<path fill="#FBBEBE" d="M1087.4,620.4l-2.3,1.9l-7.7,6.3c0,0-20.8,11.1-26.6,0.6c-5.1-9.3,18.6-15.9,24.2-17.4l1.2-0.3L1087.4,620.4
	z"/>
<path opacity="0.1" enable-background="new    " d="M998.5,529.4c0,0,4.1,1.8,5,4.4S998.5,529.4,998.5,529.4z M985.9,557.1
	c0,0-5.9,7.2-3.5,10S985.9,557.1,985.9,557.1z M1091.8,533.5c0,0-5.6,0.6-5.7,5.4L1091.8,533.5z M1040.3,609.3
	c0.6-0.6,13.3-19.4,16.3-17.8L1040.3,609.3z M1064.2,486.6c0,3.6-0.9,7.2-2.6,10.4h-0.2c-1.4-0.3-2.1-1.9-3.2-2.9
	c-1.3-1.3-3.4-1.6-5-0.7c-1.7,1-2.6,2.8-2.5,4.8c-0.7-3-0.5-6.1-1.2-9.1s-2.8-6-5.6-6c-1.2,0-2.7,0.5-3.5-0.5
	c-0.5-0.5-0.6-1.4-1-2.1c-2-3.3-8.2-1.6-10.7,0.1s-5.5,4.4-8.6,5.8c0.1-12.2,10-22,22.2-21.9S1064.3,474.5,1064.2,486.6
	L1064.2,486.6L1064.2,486.6z"/>
<path fill="#7C5C5C" d="M1039.4,479.8c0.4,0.7,0.5,1.5,1,2.1c0.9,0.9,2.3,0.4,3.5,0.5c2.8,0,4.9,3.1,5.6,6s0.5,6.1,1.2,9.1
	c-0.2-1.9,0.8-3.8,2.4-4.7c1.6-0.9,3.7-0.6,5,0.7c1.1,1,1.8,2.6,3.2,2.9s2.7-1,3.2-2.5c0.4-1.5,0.6-3.1,0.8-4.6
	c0.6-2.9,2.5-5.3,3.6-8c1.2-3.3,1.2-7-0.1-10.3c-0.7-1.7-1.7-3.3-2.4-5c-1.1-2.6-1.3-5.6-2.7-8.1c-2.2-4.2-7-6.2-11.5-4.7
	c-2,0.8-3.8,2.2-5.8,2.9c-2.7,0.9-5.7,0.2-8.5-0.2s-6-0.4-8.2,1.4c-2.6,2.1-3.3,6.2-5.8,8.5c-1,1-2.3,1.6-3.4,2.5
	c-1.2,0.9-1.9,2.3-1.9,3.8c0.2,1.9,2,3.7,1.3,5.4c-0.2,0.5-0.6,1-1,1.4c-2.1,2.2-3.6,4.8-4.5,7.6c5,1.5,10.3-3.9,14.2-6.5
	C1031.2,478.2,1037.4,476.6,1039.4,479.8L1039.4,479.8z"/>
<path opacity="0.1" enable-background="new    " d="M1087.4,620.4l-2.3,1.9c-2-3.4-10.4-10.2-10.4-10.2l0.4-0.3l1.2-0.3
	L1087.4,620.4z"/>
<path fill="#E7EFFD" d="M1089.6,616.9c0,0-0.8,2.1-1.7,3.8s-1.8,3.4-1.8,2.1c-0.1-2.6-10.8-11.3-10.8-11.3l1.4-1.4l1.7-1.6
	L1089.6,616.9z"/>
<path opacity="0.1" enable-background="new    " d="M1090,603.2l1.2,20.7c-2.9-4.5-10.8-15.9-15.8-15.6l12.3-14.2
	c0.5-0.6,1-1.2,1.4-1.8C1089.6,598.3,1090,603.2,1090,603.2L1090,603.2z"/>
<path opacity="0.1" enable-background="new    " d="M1089.6,616.9c0,0-0.8,2.1-1.7,3.8c-3.2-4.4-7.7-9.7-11.2-10.6l1.7-1.6
	L1089.6,616.9z"/>
<path fill="#65617D" d="M1098.9,542l3.3,2.6c0,0,5.6,0.1,6.1,4.7s5.7,6.8,5.7,6.8s3.8,3.8,3.8,5.6s2.9,4.9,2.9,5.2s2.8,5.9,2.4,6.9
	s3,5.5,1.9,7.1c-0.8,1.5-1.6,3-2.2,4.6c0,0-4.3,8.3-6.6,9.9s-12.4,14.8-12.4,14.8s-10.9,12.6-10.9,16.5c0,0-10.6-17.8-16.9-17.3
	l12.3-14.2c0,0,2.1-2.3,2.2-3.7s5.9-7.8,8.7-8.1c0,0,0.5-3.8-0.7-3.9s-2.2-3-2.2-3s-8.2-9.6-8.2-15.7S1098.9,542,1098.9,542
	L1098.9,542z"/>
<path opacity="0.1" enable-background="new    " d="M1103.8,550.8c0,0-7.8,5.7-6.1,7.6S1103.8,550.8,1103.8,550.8z M1104.2,574.5
	c0,0,14.4-4.6,15.9,0H1104.2z M1014.8,820.5c0,0-7.8,5.1-11.7,4.3c-2.7-0.3-5.4,0.1-7.9,1.3c-2.7,2.9-6.1,5.1-9.8,6.4
	c-6.3,2.1-15.1,1.3-20.1-0.4c-2.4-0.8-2.5-1.8-1.4-3.1c5.4,1.1,17.6,3.2,20.8,1.7c3.6-1.9,7.1-4.1,10.4-6.5c0,0,8-1.1,9.1-1.1
	c0.8,0,6.9-2.5,10.4-4L1014.8,820.5z M1061.8,830.9c0,0.3-0.1,0.5-0.1,0.5s-1.8,4.1-12.1,5.5s-10.3-3.4-10.3-3.4l0.1-1.3
	C1042.7,833.5,1049.8,834.8,1061.8,830.9z M1002.3,549.7c0,0,0,21.1-1.8,23.2S1002.3,549.7,1002.3,549.7z M1085.7,556.5l2.7,7.5
	C1088.4,564.1,1089.5,556.7,1085.7,556.5z M1020.3,475.6c0.7-1.7-1.1-3.4-1.3-5.3c-0.2,0.5-0.3,1.1-0.3,1.7c0.1,1.4,1.2,2.7,1.4,4
	C1020.2,475.9,1020.2,475.7,1020.3,475.6L1020.3,475.6z M1051,495.6c-0.7-2.9-0.5-6-1.1-8.9s-2.8-6-5.6-6c-1.2,0-2.7,0.4-3.5-0.5
	c-0.5-0.5-0.6-1.4-1-2.1c-2-3.3-8.2-1.6-10.7,0.1c-3.8,2.5-9,7.8-13.8,6.6c-0.2,0.6-0.5,1.1-0.6,1.7c5,1.5,10.3-3.9,14.2-6.5
	c2.5-1.7,8.7-3.3,10.7-0.1c0.4,0.7,0.5,1.5,1,2.1c0.9,0.9,2.3,0.4,3.5,0.5c2.8,0,4.9,3.1,5.6,6s0.5,6.1,1.2,9.1
	C1050.7,496.8,1050.8,496.2,1051,495.6L1051,495.6z M1064.9,492.1c-0.5,1.5-1.8,2.8-3.3,2.5s-2.1-1.9-3.2-2.9
	c-1.3-1.3-3.4-1.6-5-0.7c-1.6,0.9-2.5,2.7-2.5,4.5c0.4-1.1,1.1-2.1,2.2-2.7c1.6-0.9,3.7-0.6,5,0.7c1.1,1,1.8,2.6,3.2,2.9
	s2.7-1,3.2-2.5c0.3-0.9,0.4-1.8,0.5-2.7C1065.1,491.5,1065,491.8,1064.9,492.1L1064.9,492.1z M1069.3,479.5c-1,2.7-2.9,5.1-3.6,8
	c-0.1,0.6-0.2,1.2-0.3,1.8c0.6-2.9,2.5-5.2,3.6-8c0.5-1.2,0.8-2.5,0.8-3.8C1069.7,478.1,1069.5,478.8,1069.3,479.5z"/>
<circle fill="#E6E8EC" cx="935.5" cy="546.3" r="0.2"/>
<path fill="#FFFFFF" d="M855.7,551.4h168c3.7,0,6.6,3,6.6,6.6v195c0,3.7-3,6.6-6.6,6.6h-168c-3.7,0-6.6-3-6.6-6.6V558
	C849.1,554.4,852.1,551.4,855.7,551.4z"/>
<path opacity="0.1" fill="#5A5773" enable-background="new    " d="M855.7,551.4h168c3.7,0,6.6,3,6.6,6.6v195c0,3.7-3,6.6-6.6,6.6
	h-168c-3.7,0-6.6-3-6.6-6.6V558C849.1,554.4,852.1,551.4,855.7,551.4z"/>
<path fill="#FFFFFF" d="M865,562h149.5c3.7,0,6.6,3,6.6,6.6v173.8c0,3.7-3,6.6-6.6,6.6H865c-3.7,0-6.6-3-6.6-6.6V568.6
	C858.4,565,861.3,562,865,562z"/>
<path fill="#FFFFFF" d="M6.6,482.6H420c3.7,0,6.6,3,6.6,6.6v195c0,3.7-3,6.6-6.6,6.6H6.6c-3.7,0-6.6-3-6.6-6.6v-195
	C0,485.5,3,482.6,6.6,482.6z"/>
<path opacity="0.1" fill="#5A5773" enable-background="new    " d="M6.6,482.6H420c3.7,0,6.6,3,6.6,6.6v195c0,3.7-3,6.6-6.6,6.6H6.6
	c-3.7,0-6.6-3-6.6-6.6v-195C0,485.5,3,482.6,6.6,482.6z"/>
<path fill="#FFFFFF" d="M28.4,493.2h369.9c3.7,0,6.6,3,6.6,6.6v173.8c0,3.7-3,6.6-6.6,6.6H28.4c-3.7,0-6.6-3-6.6-6.6V499.8
	C21.8,496.2,24.7,493.2,28.4,493.2z"/>
<path d="M888.1,599.5h99.6c3.3,0,6,2.7,6,6V632c0,3.3-2.7,6-6,6h-99.6c-3.3,0-6-2.7-6-6v-26.5
	C882,602.2,884.7,599.5,888.1,599.5z M886.1,652.2h103.4v7.9H886.1V652.2z M868.5,668.7h142.3v7.9H868.5V668.7z M868.5,686.2h142.3
	v7.9H868.5V686.2z M868.5,703.7h142.3v7.9H868.5V703.7z M83.5,530.7h250.8c3.3,0,6,2.7,6,6v26.5c0,3.3-2.7,6-6,6H83.5
	c-3.3,0-6-2.7-6-6v-26.5C77.5,533.4,80.2,530.7,83.5,530.7z M87.2,583.3h243.5v7.9H87.2V583.3z M45.8,599.9h335.1v7.9H45.8V599.9z
	 M45.8,617.4h335.1v7.9H45.8V617.4z M45.8,634.8h335.1v7.9H45.8V634.8z"/>
<linearGradient id="SVGID_3_" gradientUnits="userSpaceOnUse" x1="1361.0074" y1="-30.4085" x2="1361.0074" y2="353.9435" gradientTransform="matrix(-1 -4.000000e-02 4.000000e-02 -1 1556.3544 875.6)">
	<stop  offset="0" style="stop-color:#808080;stop-opacity:0.25"/>
	<stop  offset="0.54" style="stop-color:#808080;stop-opacity:0.12"/>
	<stop  offset="1" style="stop-color:#808080;stop-opacity:0.1"/>
</linearGradient>
<path fill="url(#SVGID_3_)" d="M104.3,840.6c1.2-4.3,2-8.2,2-8.2c0-2.9,0.8-5.7,2.2-8.3V823l0.3-8.8c-0.5-1.6-1.2-3.2-2-4.7
	c-1.5-2.8,0.5-12.9,0.5-12.9s6.4-14.1,5.4-23.2s13.6-39.8,13.6-39.8c0-3-0.3-6-0.9-9c-0.1-0.6-0.2-1.2-0.1-1.9c0-0.1,0-0.2,0-0.2
	v0.1c0.4-6,5.6-17,5.6-17l0.2-21.4c0,0-2.5-12.7,3-29.5c1.9-5.8,3.2-10.5,4.1-14.1c0.1-0.4,0.2-0.8,0.3-1.2
	c-10.1-1.9-17.8-3.5-17.8-3.5s6.8-24.4,11-28.5c4.2-4.2,7.8-17.6,7.8-17.6s2.7-17.3-0.4-22.5c-3.1-5.2-3.3-14-3.3-14
	s-7.4-5.8-8.3-8.3c-0.9-2.5-2.2-8.1-2.1-11s1.2-5.5,0.9-7s2.5-7.3,1.3-10.1c-0.3-0.9-0.4-1.8-0.4-2.7V514c0.1-2.4,0.4-4.8,0.9-7.2
	c2.3-1.8,4.9-3.1,7.7-3.7l0.2-0.7l0.5-1.7c0.2-0.2,0.5-0.3,0.8-0.4l0.1-0.6l0.2-2.5l-1-5.7c-2-9.9,11.1-10.8,11.1-10.8
	c0.8-1.5,2.2-2.6,3.8-3.1c2.7-0.8-0.1,14.7-1.4,15.7c-1,0.7-4,5.5-5.4,7.8l-0.2,0.4c0.2,0.2,0.4,0.4,0.6,0.7l-0.6,3.4l-0.1,0.5
	c0.8,1.1,1.5,2.3,1.9,3.6c0,0-2.5,2.5-2.1,5.5c0.1,2.3-0.2,4.6-1,6.7c0.1-0.2,1.9-1.9,3.6-1.4s6.3,2.1,6.3,2.1s3.5,0.8,3.1,1.5
	s2.2,4.2,2.2,4.2l9.7-8.5c0.1-0.3,0.2-0.5,0.3-0.8c0.4-1.3,0.8-2.6,1-3.9c-1-0.3-2-0.6-3-1.1c-1-0.4-1.8-1-2.5-1.8
	c-0.9-1.2-1-2.7-1.4-4.1c-0.6-2.8-2.1-5.3-3.2-7.9c-1.8-4.4-2.2-9.3-1.3-14c0.2-1.4,0.8-2.8,1.6-4c1.6-2,4.4-2.8,6.5-4.4
	c2.1-1.6,3.5-4.1,5.9-5.3c2.2-1.1,4.8-0.8,7.2-0.3c4.6,0.9,9.1,2.7,13.1,5.3c1.3,0.9,2.8,1.9,4.4,1.6c1.3-0.4,2.5-1.1,3.3-2.2
	c0,0,0-0.1,0-0.1l0.1-0.1c0.9,2.2,1.3,4.7,1.2,7.1c0,0.4,0,0.8-0.1,1.1v0.4c0,0.1,0,0.2,0,0.3c0,0.2,0,0.3,0.1,0.5
	c0.2,0.5,0.5,0.9,0.8,1.3c0.3,0.3,0.5,0.7,0.7,1.1c0-0.1-0.1-0.3-0.1-0.4c0.6,0.9,0.9,1.9,0.9,3c0,0.8-0.3,1.5-0.8,2.1
	c-0.5,0.4-1,0.8-1.6,1.2c1,7.4-2.7,14.7-9.3,18.3c-0.1,0.3-0.2,0.5-0.4,0.8c-1.5,3.2-2.2,6.7-2.1,10.2c0,0.3,0,0.5,0.1,0.8
	c0.1,0.3,0.2,0.3,0.3,0.4s15.5,0.8,19.3-2.4s8.9,8.4,8.9,8.4s5.5,1.3,6.7,0.3s7.6,0.1,7.6,0.1c2.8-2.3,6.3-3.4,9.8-3.2
	c2.2-1.6,4.7-2.8,7.3-3.7l0.2-0.1c1.1-0.4,2.3-0.5,3.5-0.3c0,0,7.9-6,10.2-9.3c2.4-3.3,13.4-15.4,13.4-15.5l0.1-0.6l0.2-1.8
	c0.3,0.1,0.6,0.1,0.9,0.1l0.2-0.6c0.7-1.8,1.5-3.5,2.5-5.1c0,0,0.1-2.3-0.6-2.9s0.6-9,0.6-9s7.5-15.8,13.2-3.6
	c0,0,11.3,8.2,1.2,16.9c0,0-4,1.7-4.6,3.2c-0.4,1-1.8,3.6-2.8,5.4l-0.4,0.8l0.1,0.1l-0.2,1.5l-0.1,0.6c1.8,1.1,3,2.2,2.7,3
	c-0.6,1.3-1,2.7-1.3,4.1c0,0-14.1,16.3-16.2,23.5c0,0-37.1,20.1-49,21.2l1.6,10.8c0.2,2.9,0.2,5.9,0.1,8.8
	c-0.3,2.3,0.9,12.8,0.9,12.8s1.5,15.5,3.1,17.7c1.7,2.2,1,11.4,1,11.4c0.3,4.4,0.9,8.8,1.9,13.2c1.5,5.9,0,13.1,0,13.1
	s5.5,14.1-8.6,4.1c0,0-7.1-0.7-15.2-1.3v0.8c0,1.1,0,2.2-0.1,3.4c-0.2,7.9-0.6,18.8-1.3,27.1c-1.2,14.6-6.8,43.3-6.8,43.3l-0.6,14.5
	c0.2,1.4,0.3,2.8,0.3,4.2c-0.1,5.1-1.6,10.1-4.5,14.4l-1.5,9.7c0,0-2.9,6.3-3,10.1c0,0.3,0,0.6,0.1,0.9c0.1,0.5,0.1,1,0.1,1.5
	c0,4.4-3.1,14.8-3.1,14.8s-0.6,10.6-2.2,11.2c-1.4,0.5,1.6,6.2,2.5,7.8c0-0.1,0.1-0.2,0.1-0.3l0.2,0.3c0.3,0.9,0.4,1.8,0.4,2.7
	c0.1,1.5-0.6,2.9-1.9,3.7c-3.1,1.7-4.8,3.2-2.2,3.9c0.9,0.2,1.9,0.4,2.8,0.7l0.1-0.3c0.7,0.3,1.2,1.1,1,1.9
	c-0.1,1.3-0.4,2.5-1.1,3.6c-1.2,2.7-2.8,5.3-4.6,7.7l-1.2-0.2c0.2,0.5,0.4,0.9,0.7,1.3c0.4,0.7,1,1.3,1.7,1.7
	c0.6,0.4,1.4,0.7,2.1,0.8c1.7,0.1,3.3,1,4.4,2.4c1.5,2.1,2.4,4.9-0.8,7.3l-11.5,3.5c0,0-19.6,1.8-18.4-2.5c1.2-4.3,2-8.2,2-8.2
	c0-2.7,0.7-5.3,1.9-7.7c0.2-0.4,0.5-0.8,0.7-1.1l-0.7-0.1c0,0-1.1-9.8-3-11.6c-0.4-0.5-0.5-0.8-0.4-1c-0.2-0.5,0.3-0.8,1-1
	c0,0.1,0.1,0.3,0.1,0.4c0.6-0.1,1.3-0.1,1.9-0.1c0,0,0.8-5-1.2-7c-0.3-0.4-0.4-1-0.3-1.5c0-0.7,0.1-1.4,0.3-2.1c0,0,0,0.1,0.1,0.1
	c1.2-4.6,5-11.7,5-11.7s0.3-4.6-0.9-6.5c-1.2-1.9,1.1-25.1,1.1-25.1s-0.1-11.2,1.6-16.4s-1.3-11.5-1.3-11.5s0-0.1,0.1-0.3
	c0,0,0-0.1,0-0.1c0,0,0.1-0.7,0.3-1.8v0.1c0.4-3,1.3-8.3,1.8-10.8c0.8-3.5,0.6-20.5,0.6-20.5l-2.6-7.3l-5.6,12.3l-6,16.4
	c0,0-2.8,3.4-3,7v0.5c0,0.4,0,0.7,0,1.1c0,2.1-0.6,4.1-1.9,5.8c0,0-1.7,7.8-4,9.7c-2.3,1.9-2.5,5.8-2.5,5.8s-3.1,11.3-4.5,13.2
	c-1.1,1.6-1.4,6.3-1.4,7.7v0.4c0,0-0.5,4.1-0.6,7.5v1.2c0,0,0-0.1,0-0.1c0,0.9,0,1.9,0.2,2.8v0.2v-0.6c0.5,2.3,0.7,4.7,0.5,7.1
	c-0.1,4.1-0.9,8.9-3.5,11.7c-4.5,4.8-7.1,4-7.1,4s1.8,6.2,4.3,7.6c0.1,0.1,0.2,0.1,0.3,0.2c0-0.1,0-0.2,0.1-0.3
	c0.5,0.6,0.8,1.5,0.7,2.3c0.1,2.7-1.8,7-3.5,9c-0.6,0.6-1.4,1-2.2,1.2c0.1,0.1,0.3,0.2,0.4,0.3c0.3,0.2,0.6,0.3,0.9,0.4
	c0.4,0.2,0.8,0.3,1.3,0.4c1.7,0.1,3.4,1,4.4,2.4c1.5,2.1,2.4,4.9-0.8,7.3l-11.5,3.5C122.8,843.2,103.1,845,104.3,840.6L104.3,840.6z
	"/>
<path fill="#2D293D" d="M178.6,850.8l11.1-3.5c3.1-2.3,2.3-5.2,0.8-7.3c-1-1.4-2.6-2.2-4.3-2.3c-0.7-0.1-1.5-0.4-2.1-0.8
	c-0.7-0.4-1.3-1-1.7-1.7c-0.8-1.3-1.1-2.8-1.1-4.3c0,0-11.9-4-15.4-0.6c-0.6,0.6-1.1,1.3-1.5,2.1c-1.2,2.4-1.8,5-1.8,7.7
	c0,0-0.8,3.8-1.9,8.2S178.6,850.8,178.6,850.8z M125,843.3l11.1-3.5c3.1-2.3,2.3-5.2,0.8-7.3c-1-1.4-2.6-2.2-4.3-2.4
	c-0.4-0.1-0.9-0.2-1.2-0.4c-0.3-0.1-0.6-0.3-0.8-0.5c-3-1.8-2.8-6-2.8-6s-11.9-4-15.4-0.6c-0.5,0.5-0.9,1-1.2,1.5
	c-1.4,2.5-2.1,5.4-2.2,8.3c0,0-0.8,3.8-1.9,8.2S125,843.3,125,843.3L125,843.3z"/>
<path opacity="0.1" enable-background="new    " d="M166.1,830.3c-0.6,0.6-1.1,1.3-1.5,2.1l18,2.8c-0.8-1.3-1.1-2.8-1.1-4.3
	C181.5,830.9,169.6,826.9,166.1,830.3z M111.3,824.3l-0.1,3.4c2.6,4.8,16.3,4.3,20.3,2.1c-0.3-0.1-0.6-0.3-0.8-0.5
	c-3-1.8-2.8-6-2.8-6s-11.9-4-15.4-0.6C112,823.2,111.6,823.7,111.3,824.3z"/>
<path fill="#575988" d="M109.7,809.6c0.8,1.5,1.5,3.1,2,4.7l-0.5,12.1c2.9,5.2,18.9,4.1,21.2,1.4s4.8-9.8,2.4-11.2s-4.2-7.6-4.2-7.6
	s2.6,0.7,6.9-4s3.5-15.7,2.9-18.4s0.4-11.4,0.4-11.4s0.1-6.2,1.4-8.1s4.4-13.2,4.4-13.2s0.1-3.8,2.4-5.8s3.9-9.7,3.9-9.7
	c1.3-1.9,2-4.2,1.8-6.5c-0.3-3.9,2.9-7.9,2.9-7.9l5.9-16.4l5.4-12.3l2.5,7.3c0,0,0.1,17-0.6,20.5s-2,12.9-2,12.9s2.8,6.3,1.3,11.5
	s-1.6,16.4-1.6,16.4s-2.3,23.2-1.1,25.1s0.8,6.5,0.8,6.5s-6.8,13.3-4.9,15.2s1.1,7,1.1,7s-4.3-0.2-2.5,1.8s2.7,11.6,2.7,11.6
	l18.5,2.9c1.8-2.4,3.3-5,4.5-7.7c2.7-5.6-0.3-5.1-2.7-5.8s-0.8-2.2,2.2-3.9s1.5-6,1.5-6s-4.2-7.7-2.6-8.3s2.1-11.2,2.1-11.2
	s3.6-12.5,2.9-15.9s2.9-11.4,2.9-11.4l1.4-9.6c3.5-5.4,5-11.8,4.1-18.2l0.6-14.9c0,0,5.4-28.7,6.7-43.3c0.8-9.3,1.1-22.1,1.3-30.1
	c0.1-4.5,0.1-7.4,0.1-7.4l-66.2-9.5c-0.2,3.3-0.8,6.6-1.6,9.8c-0.8,3.6-2.1,8.3-4,14.2c-5.4,16.7-3,29.5-3,29.5l-0.2,21.4
	c0,0-6.4,14.1-5.3,19c0.6,3,0.9,6,0.9,9c0,0-14.2,30.7-13.2,39.8s-5.2,23.2-5.2,23.2S108.2,806.8,109.7,809.6L109.7,809.6z"/>
<path opacity="5.000000e-02" enable-background="new    " d="M150.7,731l-20.1-3.5C130.6,727.5,141.6,739.6,150.7,731z"/>
<path opacity="0.1" enable-background="new    " d="M134.3,707.8c0,0-1,7.1,3.3,10C137.6,717.8,129.8,716.3,134.3,707.8z
	 M136.4,685.1c0,0,16.4,14.6,22.6,13.7S136.4,685.1,136.4,685.1z M175.6,738.5c0,0,12.7,3.4,12.9,8.6S175.6,738.5,175.6,738.5z"/>
<path opacity="5.000000e-02" enable-background="new    " d="M170.3,802.5c0,0,18,4.1,12.8,6.2s-13.8,3.6-13.8,3.6
	S163.4,812.4,170.3,802.5z M186.6,812.5c0.9-0.5,1.6-1.5,1.8-2.6l0.2,0.3c0,0,1.5,4.2-1.5,6c-0.3,0.2-0.7,0.4-1,0.6
	c-0.5-0.1-1.1-0.2-1.7-0.4C181.9,815.7,183.6,814.2,186.6,812.5L186.6,812.5z M163.2,810.3c-0.5-0.5-0.4-1.7,0-3.2
	c0.7,1.4,1,2.9,0.9,4.5C163.9,811.2,163.6,810.7,163.2,810.3z M169,733.9c0.6,1.8,0.9,3.8,1,5.7c-0.3-1.4-0.7-2.7-1.3-3.9
	C168.7,735.7,168.8,735,169,733.9z M127.7,724.3c-0.1-0.6-0.1-1.1-0.1-1.7c0.2,1.2,0.3,2.2,0.4,3.2
	C127.9,725.3,127.8,724.8,127.7,724.3z M167.3,788.6c-0.3-1.1-0.4-2.3-0.3-3.4c0.5,1.4,0.8,2.9,0.7,4.3
	C167.6,789.2,167.5,788.9,167.3,788.6L167.3,788.6z M162.4,817.5c0.8,3.1,1.4,6.3,1.8,9.5l18.5,2.9c1.8-2.4,3.3-5,4.5-7.7
	c0.2-0.5,0.4-0.9,0.6-1.3c1.1,0.5,1.5,1.7-0.1,5c-1.2,2.7-2.7,5.3-4.5,7.7l-18.6-2.8c0,0-1-9.7-2.8-11.7
	C160.9,818.1,161.6,817.7,162.4,817.5z M188,790.8c0,0-0.6,10.6-2.1,11.2c-0.7-1.8-1.2-3.5-0.5-3.7c1.6-0.6,2.1-11.2,2.1-11.2
	s3.6-12.5,2.9-15.9s2.9-11.4,2.9-11.4l1.4-9.7c3.5-5.4,5-11.8,4.1-18.2l0.6-14.9c0,0,5.4-28.7,6.6-43.3c0.8-9.3,1.1-22.1,1.3-30.1
	c0-1.4,0.1-2.7,0.1-3.8l0.5,0.1c0,0,0,3-0.1,7.4c-0.2,8-0.6,20.8-1.3,30.1c-1.2,14.6-6.6,43.3-6.6,43.3l-0.6,14.9
	c0.9,6.4-0.6,12.8-4.1,18.2l-1.5,9.7c0,0-3.6,8-2.9,11.4S188,790.8,188,790.8L188,790.8z M131.9,823.8c1.6-2.1,2.7-4.6,3.2-7.2
	c1.8,1.8-0.6,8.3-2.8,10.9s-18.3,3.8-21.2-1.4l0.1-2.9C115.3,827.4,129.8,826.3,131.9,823.8L131.9,823.8z M109.2,805.5
	c0.8,1.5,1.5,3.1,2,4.7l-0.1,2.2c-0.4-1.1-0.9-2.1-1.4-3.1c-0.4-1.2-0.6-2.5-0.5-3.8L109.2,805.5z M131.6,808.8
	c-0.5-1.2-1-2.4-1.4-3.7c0,0,2.6,0.7,6.9-4c3.2-3.5,3.6-10.2,3.3-14.7c0.7,2.7,1.5,13.6-2.9,18.4
	C134.7,807.9,132.6,808.6,131.6,808.8L131.6,808.8z M140.9,775c-0.4,3-0.6,6.1-0.7,9.1c-0.1-0.5-0.1-1-0.3-1.4
	c-0.7-2.7,0.4-11.4,0.4-11.4s0.1-6.2,1.4-8.1s4.4-13.2,4.4-13.2s0.1-3.8,2.4-5.8s3.9-9.7,3.9-9.7c1.3-1.9,2-4.2,1.8-6.5
	c-0.3-3.9,2.9-7.9,2.9-7.9l5.9-16.4l5.4-12.3l2.5,7.3v2.3l-2-6l-5.4,12.3l-5.9,16.4c0,0-3.2,4-2.9,7.9c0.2,2.3-0.5,4.6-1.8,6.5
	c0,0-1.7,7.8-3.9,9.7s-2.4,5.8-2.4,5.8s-3.1,11.3-4.4,13.2S140.9,775,140.9,775L140.9,775z"/>
<path fill="#FFCDD3" d="M138.9,491.6l0.9,5.7l-0.2,2.5l-0.1,1.8l6.4,0.9l0.8-1.3c1.4-2.4,4.4-7.1,5.3-7.9c1.2-1,3.9-16.5,1.4-15.7
	c-1.6,0.5-2.9,1.6-3.7,3.1C149.6,480.8,137,481.7,138.9,491.6L138.9,491.6z"/>
<path opacity="0.1" enable-background="new    " d="M139.5,501.6l6.4,0.9l0.8-1.3c-1.7-2.1-4.6-2.7-7-1.4L139.5,501.6z"/>
<path fill="#DCE6F2" d="M137.8,504.5l8.4,2.3l0.2-1.3l0.6-3.4c-1.8-2.6-5.5-3.3-8.1-1.5c0,0,0,0,0,0l-0.5,1.7L137.8,504.5z"/>
<path fill="#FFCDD3" d="M275.3,497.5l8.8,5.2c0,0,0.4-0.7,0.9-1.7c0.9-1.8,2.3-4.4,2.7-5.4c0.6-1.5,4.4-3.2,4.4-3.2
	c9.8-8.7-1.2-16.9-1.2-16.9c-5.5-12.2-12.8,3.6-12.8,3.6s-1.3,8.4-0.6,9s0.5,2.9,0.5,2.9c-0.9,1.6-1.7,3.3-2.4,5.1
	C275.5,496.9,275.3,497.5,275.3,497.5z"/>
<path opacity="0.1" enable-background="new    " d="M275.3,497.5l8.8,5.2c0,0,0.4-0.7,0.9-1.7c-1.2-1.1-5.6-5-7.1-4.8
	c-0.7,0.1-1.4,0.1-2.1,0C275.5,496.9,275.3,497.5,275.3,497.5L275.3,497.5z"/>
<path fill="#DCE6F2" d="M274.3,500.1l10,5.4l0.3-2.2l0.2-1.5c0,0-5.7-5.3-7.4-5.1c-0.9,0.1-1.8,0.1-2.7-0.1l-0.2,1.8L274.3,500.1z"
	/>
<path fill="#FFCDD3" d="M162,529.8c0,0,44.1,6.7,35.9,3.7c-5.7-2.1-7.8-5.8-8.2-9.9c-0.1-3.5,0.6-7,2-10.2c1.2-2.7,2.6-5.4,4.3-7.8
	c0,0-33.1-19.9-27-2.7c0.9,2.6,1.5,5.3,1.6,8.1c0.1,2.7-0.3,5.5-1.2,8.1C168,523.2,165.4,527,162,529.8L162,529.8z"/>
<path opacity="0.1" enable-background="new    " d="M169.1,502.8c0.9,2.6,1.5,5.3,1.6,8.1c3.1,2.8,6.6,2.8,11.1,2.9
	c3.4,0.1,7.2,1.1,10-0.4c1.2-2.7,2.6-5.4,4.3-7.8C196,505.6,163,485.6,169.1,502.8z"/>
<circle fill="#FFCDD3" cx="183" cy="496.7" r="18.3"/>
<path opacity="0.1" enable-background="new    " d="M162,529.8c0,0,44.1,6.7,35.9,3.7c-5.7-2.1-7.8-5.8-8.2-9.9
	c-2.1-2.5-6.5-4.4-9.3-5.4c-2.6-1-5.4-1.1-8-0.4c-1.1,0.3-2.1,0.7-3,1.3C168,523.2,165.5,527,162,529.8z M137.8,504.5l8.4,2.3
	l0.2-1.3c-1.8-2.6-4.9-3.8-8-3.1L137.8,504.5z M274.3,500.1l10,5.4l0.3-2.2c-3.2-1.9-6.6-3.5-10.1-4.9L274.3,500.1z M140.2,640.6
	c17,3.4,41.3,7.8,45.2,6.8c3.3-0.8,13.5-0.3,22.4,0.3c0.1-4.5,0.1-7.4,0.1-7.4l-66.2-9.5C141.6,634.1,141,637.4,140.2,640.6z"/>
<path fill="#656691" d="M123.3,636c0,0,56.1,11.9,62.2,10.3s37.2,1.6,37.2,1.6c13.6,9.9,8.3-4.1,8.3-4.1s1.5-7.2,0-13.1
	c-1-4.3-1.6-8.7-1.8-13.2c0,0,0.7-9.2-0.9-11.4s-3-17.7-3-17.7s-1.1-10.5-0.9-12.8s-0.1-8.8-0.1-8.8l-1.6-10.8
	c11.6-1.1,47.5-21.3,47.5-21.3c2-7.2,15.7-23.6,15.7-23.6c0.2-1.4,0.7-2.8,1.2-4.1c1-2.4-12.6-7.9-12.6-7.9s-10.8,12.2-13,15.5
	s-9.9,9.3-9.9,9.3c-1.1-0.2-2.3-0.1-3.4,0.3h-0.2c-2.5,0.9-4.9,2.1-7,3.7c-3.5-0.2-6.9,0.9-9.5,3.2c0,0-6.3-1.2-7.4-0.1
	s-6.5-0.3-6.5-0.3s-5-11.6-8.6-8.4s-18.7,2.4-18.7,2.4c-1.9-2.7-6.7-4.8-9.7-5.9c-2.6-1-5.4-1.1-8-0.4c-1.1,0.3-2.2,0.8-3.2,1.4
	l-9.4,8.6c0,0-2.5-3.5-2.1-4.2s-3-1.5-3-1.5s-4.4-1.6-6.1-2.1s-3.3,1.2-3.4,1.4c0.8-2.2,1.1-4.4,1-6.7c-0.4-2.9,2.1-5.5,2.1-5.5
	c-4.9-13.4-17.4-2.8-17.4-2.8s-1.7,7.2-0.5,10s-1.6,8.6-1.3,10.1s-0.8,4.1-0.9,7s1.2,8.5,2,11s8,8.3,8,8.3s0.1,8.8,3.2,14
	s0.4,22.5,0.4,22.5s-3.6,13.4-7.6,17.6S123.3,636,123.3,636L123.3,636z"/>
<path opacity="0.1" enable-background="new    " d="M209.4,537.9c0,0,1.9-5,3.4-5.4c1.6-0.5,3.1-1.1,4.5-1.8l-0.9-1.9
	c0,0-5.8,1.4-6.8,3S209.4,537.9,209.4,537.9L209.4,537.9z M240.8,527.9c0.3,1.5,13.9,3.5,13.9,3.5l-6.6-7.2h-0.2
	C245.3,525.1,242.9,526.3,240.8,527.9L240.8,527.9z"/>
<circle fill="#575988" cx="281.2" cy="508.3" r="1.2"/>
<circle fill="#575988" cx="279.5" cy="510.7" r="1.2"/>
<path fill="#575988" d="M277.9,511.7c0.7,0,1.2,0.6,1.2,1.2s-0.6,1.2-1.2,1.2s-1.2-0.6-1.2-1.2S277.2,511.7,277.9,511.7z"/>
<circle fill="#575988" cx="276.2" cy="515.3" r="1.2"/>
<circle fill="#575988" cx="131.3" cy="509.6" r="1"/>
<circle fill="#575988" cx="131" cy="511.9" r="1"/>
<circle fill="#575988" cx="130.8" cy="514.1" r="1"/>
<path opacity="0.1" enable-background="new    " d="M207.8,579.6c0.1-0.2-36.2,42.3-62.1,15.9C145.6,595.5,187.9,603,207.8,579.6z
	 M226.8,603.1c0,0-20.8-0.2-23.2,5.7l-0.2,6.2c1.2,0.7,2.6,0.8,3.9,0.2c2.1-1,14.9-6.9,19.2-3.7L226.8,603.1z"/>
<path fill="#656691" d="M226.4,603.1c0,0-19.9-0.2-22.1,5.4l-0.2,5.9c1.1,0.7,2.5,0.7,3.7,0.1c2-1,14.3-6.6,18.4-3.5L226.4,603.1z"
	/>
<path opacity="0.1" enable-background="new    " d="M217.2,557.7c-2.3,4.8-5.2,9.3-8.6,13.5c-3.7,4.6-8.1,8.5-13.1,11.7
	C195.6,582.8,216.8,560.5,217.2,557.7L217.2,557.7z M224.9,533.8c0,0-4,14.8-13.1,19.5L224.9,533.8z M230.2,535.5
	c0.1-0.3,2.6,11.9-12.2,18.1C218,553.6,224.2,551.7,230.2,535.5z M140,522c0.2,0-7.4,4.5-9.5,6.6C130.6,528.6,135.6,521.5,140,522z"
	/>
<path fill="#2D293D" d="M187.3,513.5c-0.2,1-0.7,1.8-1.5,2.4c-0.5,0.2-1.1,0.3-1.7,0.3c-5.6,0.1-11.4,0.2-16.5-2.2
	c-0.9-0.4-1.8-1-2.4-1.8c-0.9-1.2-1-2.7-1.3-4.1c-0.6-2.8-2.1-5.3-3.1-7.9c-1.7-4.5-2.1-9.3-1.3-14c0.2-1.4,0.7-2.8,1.6-4
	c1.6-2,4.3-2.8,6.3-4.4s3.4-4.1,5.7-5.3c2.1-1.1,4.6-0.8,6.9-0.3c4.5,1,8.8,2.8,12.7,5.3c1.3,0.9,2.7,1.9,4.3,1.6
	c1.3-0.4,2.5-1.2,3.3-2.3c1,2.5,1.4,5.3,1.1,8c-0.1,0.4-0.1,0.8,0,1.2c0.2,0.5,0.4,0.9,0.8,1.3c1.3,1.6,2.1,4.2,0.7,5.8
	c-0.6,0.7-1.6,1-2.1,1.7c-1.1,1.2-0.8,3.1-0.9,4.8c0,0.6-0.1,1.1-0.5,1.6c-0.6,0.5-1.5,0.7-2.3,0.5c-0.8-0.3-1.6-0.4-2.4-0.3
	c-0.9,0.2-1.6,0.8-2.1,1.5C189.7,506,188.6,509.6,187.3,513.5z"/>
<path opacity="0.1" enable-background="new    " d="M164.6,510.9c0.7,0.8,1.5,1.4,2.4,1.8c5.1,2.3,10.9,2.3,16.5,2.2
	c0.6,0,1.2-0.1,1.7-0.3c0.8-0.6,1.3-1.4,1.5-2.4c1.2-3.9,2.4-7.5,5.1-10.6c0.5-0.7,1.3-1.3,2.1-1.5c0.8,0,1.6,0.1,2.4,0.3
	c0.8,0.3,1.7,0.1,2.3-0.5c0.3-0.5,0.5-1,0.5-1.6c0-1.6-0.2-3.5,0.9-4.8c0.6-0.7,1.5-1,2.1-1.7c0.8-1,1-2.4,0.5-3.7
	c0.9,1.6,1.3,3.6,0.1,4.9c-0.6,0.7-1.5,1-2.1,1.7c-1.1,1.2-0.8,3.1-0.8,4.8c0,0.6-0.1,1.1-0.5,1.6c-0.6,0.5-1.5,0.7-2.3,0.5
	c-0.8-0.3-1.6-0.4-2.4-0.3c-0.9,0.3-1.6,0.8-2.2,1.5c-2.7,3.2-3.8,6.7-5.1,10.6c-0.1,1.6-1.4,2.8-3,2.8c-0.1,0-0.2,0-0.2,0
	c-5.6,0.1-11.4,0.2-16.5-2.2c-0.9-0.4-1.8-1-2.4-1.8c-0.3-0.5-0.6-1-0.7-1.5C164.4,510.7,164.5,510.8,164.6,510.9L164.6,510.9z
	 M201.2,485.6c-0.2-0.3-0.4-0.6-0.5-1c-0.1-0.4-0.1-0.8,0-1.2c0.2-2.2,0-4.5-0.6-6.7l0.1-0.1c1,2.5,1.4,5.3,1.1,8
	C201.2,484.9,201.2,485.2,201.2,485.6z M190.2,524.7c0,0-23,2.2-24.9-1.4 M146.1,513.6c0,0-12.7-0.5-15.7,4.2"/>
</svg>
