<svg version="1.1" id="图层_1" xmlns="http://www.w3.org/2000/svg" x="0" y="0" viewBox="0 0 1008.1 779.6" xml:space="preserve"><style>.st5{fill:#fff}.st9{fill:#ee8e9e}.st10{fill:#3f3d56}.st11{opacity:5.000000e-02}.st12{fill:#303d5c}.st13{opacity:.1}.st15{fill:#a1616a}.st16{fill:#e1e7ef}.st17{fill:#67647e}.st18{opacity:3.000000e-02}</style><path class="st0" fill="#E8EAF2" d="M28.1 0h972.3c4.2 0 7.7 3.4 7.7 7.7V531c0 4.2-3.4 7.7-7.7 7.7H28.1c-4.2 0-7.6-3.4-7.6-7.7V7.7c0-4.3 3.4-7.7 7.6-7.7z"/><path class="st1" fill="#65617D" d="M1008.1 7.7v25.9H20.5V7.7c0-4.2 3.4-7.7 7.6-7.7h972.3c4.3 0 7.7 3.4 7.7 7.7 0-.1 0-.1 0 0z"/><circle cx="35.7" cy="16.8" r="6.5" opacity=".8" fill="#fa5959"/><circle cx="53.3" cy="16.8" r="6.5" opacity=".8" fill="#fed253"/><circle cx="70.9" cy="16.8" r="6.5" opacity=".8" fill="#8ccf4d"/><path class="st5" d="M66.2 359.5h476.7c1 0 1.9.8 1.9 1.9v11.5c0 1-.8 1.9-1.9 1.9H66.2c-1 0-1.9-.8-1.9-1.9v-11.5c0-1.1.9-1.9 1.9-1.9zM66.2 391.8h476.7c1 0 1.9.8 1.9 1.9v11.5c0 1-.8 1.9-1.9 1.9H66.2c-1 0-1.9-.8-1.9-1.9v-11.5c0-1.1.9-1.9 1.9-1.9zM66.2 424.1h476.7c1 0 1.9.8 1.9 1.9v11.5c0 1-.8 1.9-1.9 1.9H66.2c-1 0-1.9-.8-1.9-1.9V426c0-1.1.9-1.9 1.9-1.9zM66.2 456.4h476.7c1 0 1.9.8 1.9 1.9v11.5c0 1-.8 1.9-1.9 1.9H66.2c-1 0-1.9-.8-1.9-1.9v-11.5c0-1 .9-1.9 1.9-1.9zM66.2 488.7h476.7c1 0 1.9.8 1.9 1.9v11.5c0 1-.8 1.9-1.9 1.9H66.2c-1 0-1.9-.8-1.9-1.9v-11.5c0-1 .9-1.9 1.9-1.9zM608.3 68.3h336.8c4.2 0 7.7 3.4 7.7 7.7v420.4c0 4.2-3.4 7.6-7.7 7.6H608.3c-4.2 0-7.7-3.4-7.7-7.6V76c.1-4.3 3.5-7.7 7.7-7.7z"/><path class="st0" d="M622.1 147.4h312c1 0 1.9.8 1.9 1.9v11.5c0 1-.8 1.9-1.9 1.9h-312c-1 0-1.9-.8-1.9-1.9v-11.5c0-1 .9-1.9 1.9-1.9zM622.1 176.4h312c1 0 1.9.8 1.9 1.9v11.5c0 1-.8 1.9-1.9 1.9h-312c-1 0-1.9-.8-1.9-1.9v-11.5c0-1.1.9-1.9 1.9-1.9zM622.1 263.1h312c1 0 1.9.8 1.9 1.9v11.5c0 1-.8 1.9-1.9 1.9h-312c-1 0-1.9-.8-1.9-1.9V265c0-1.1.9-1.9 1.9-1.9zM622.1 292h312c1 0 1.9.8 1.9 1.9v11.5c0 1-.8 1.9-1.9 1.9h-312c-1 0-1.9-.8-1.9-1.9v-11.5c0-1.1.9-1.9 1.9-1.9z"/><path d="M72 68.3h465.2c4.2 0 7.7 3.4 7.7 7.7v207.8c0 4.2-3.4 7.6-7.7 7.6H72c-4.2 0-7.7-3.4-7.7-7.6V76c0-4.3 3.5-7.7 7.7-7.7zm550.1 50.2h59.7c1 0 1.9.8 1.9 1.9v11.5c0 1-.8 1.9-1.9 1.9h-59.7c-1 0-1.9-.8-1.9-1.9v-11.5c0-1 .9-1.9 1.9-1.9zm0 115.7h59.7c1 0 1.9.8 1.9 1.9v11.5c0 1-.8 1.9-1.9 1.9h-59.7c-1 0-1.9-.8-1.9-1.9v-11.5c0-1.1.9-1.9 1.9-1.9zm0 115.6h59.7c1 0 1.9.8 1.9 1.9v11.5c0 1-.8 1.9-1.9 1.9h-59.7c-1 0-1.9-.8-1.9-1.9v-11.5c0-1 .9-1.9 1.9-1.9z" opacity=".2"/><path class="st0" d="M622.1 378.7h312c1 0 1.9.8 1.9 1.9v11.5c0 1-.8 1.9-1.9 1.9h-312c-1 0-1.9-.8-1.9-1.9v-11.5c0-1 .9-1.9 1.9-1.9zM622.1 407.6h312c1 0 1.9.8 1.9 1.9V421c0 1-.8 1.9-1.9 1.9h-312c-1 0-1.9-.8-1.9-1.9v-11.5c0-1 .9-1.9 1.9-1.9z"/><path class="st7" d="M483.2 307.3h59.7c1 0 1.9.8 1.9 1.9v11.5c0 1-.8 1.9-1.9 1.9h-59.7c-1 0-1.9-.8-1.9-1.9v-11.5c0-1 .9-1.9 1.9-1.9z"/><linearGradient id="SVGID_1_" gradientUnits="userSpaceOnUse" x1="895.284" y1="-4.301" x2="895.284" y2="439.89" gradientTransform="rotate(180 744.105 360.89)"><stop offset="0" stop-color="gray" stop-opacity=".25"/><stop offset=".54" stop-color="gray" stop-opacity=".12"/><stop offset="1" stop-color="gray" stop-opacity=".1"/></linearGradient><path d="M505.5 335.7c.9 1.3 2.1 2.4 3.3 3.4.8.7 1.7 1.4 2.6 2l.8.5-.1.1c-.2.4-.3.8-.2 1.3.2.5.5 1 1 1.3 2.1 1.9 3.5 4.5 4 7.3.3 1.6-.8 3.4-.7 5 .2 1.6.6 3.2 1.3 4.7 1.4 3.5 2.8 7.1 5.5 9.6.6 5.6 2.8 10.9 6.2 15.3 2.9 3.7 6.7 6.5 10.5 9.2 1.2 1 2.5 1.8 3.9 2.4 1.2.5 2.5.8 3.8 1 11.1 2.2 22.3 3.5 33.6 3.9.3 6.7.5 13.4.4 20.2.1 1.1-.1 2.2-.5 3.3-.6 1-1.2 1.9-2 2.7-2.6 3.4-2.7 8.1-2.5 12.4.3 5 .8 10 1.8 15 1.2 6.3.1 13.3 2.3 19.4l2.7 7.2c.3.7.5 1.4.5 2.1 0 1.6-1 2.9-1.8 4.3-1.1 2-1.7 4.2-1.6 6.5 0 .3.1.5.2.7.3.4.9.4 1.4.3 2-.3 4-.5 6-.5-.4.4-.7.9-1 1.4-.5.8-.9 1.7-1.3 2.6-.7 1.5-1.3 3.1-1.7 4.7-.1.2-.1.5-.2.7l-.3 1.5c-.4 2.8-.6 5.7-.5 8.6-.3 5.3-.5 10.9-1.1 12.6-.7 2.3.2 6 1.1 9.5 0 2.4.5 4.8 1.3 7.1.1 2.5.4 5 .9 7.5 3.1 17.4 6.4 34.8 9.9 52.1.3 1.5.6 3 1 4.5 1.3 4.8 3.6 9.3 6.7 13.2 2.7 3.5 5.1 7.2 7 11.2-.2.9-.4 1.9-.6 2.8-2 8.3-4.6 16.5-5.5 25-.4 3.4-.5 6.9-1.8 10-.7 1.6-1.7 3.1-1.8 4.8-.1 1.1.2 2.2.7 3.1l-.7.5-.4.3c-2.5 2-5.9 2.4-9.1 3.3-3.1.8-6.5 2.5-7.5 5.6-.1.2-.1.4-.2.6-.6 2.9 1.2 5.9 3.6 7.6 2.6 1.8 5.8 2.3 9 2.8 3.2.4 6.4.7 9.2 2.1 2.5 1.2 4.5 3.2 7.1 4.1l.5.1c-.6.3-1.2.7-1.8 1-2.7 1.4-5.6 2.3-8.6 2.7-3 .4-6.6.6-8.2 3.2-1.3 2.2-.3 5.1 1.5 6.8 1.8 1.7 4.4 2.5 6.8 3 5.6 1.1 11.3 1.8 17 2.1l5.5.4c5.4.4 10.8.8 16.3.8 6.7 0 13.4-.6 20-1.7.9.1 1.8-.6 1.8-1.6v-.4c-.1-6.8-.9-13.6-2.5-20.2-.5-2-3.2.7-4.7 2.4-.2-1-.4-2-.7-2.9l1.2-.6c.9-.3 1.7-1 2.2-1.8.2-.7.3-1.4.2-2.1-.2-4.4-.5-8.9-2.6-12.7-1.4-2.3-3-4.4-5-6.2-.5-13.7-2.1-27.4-5-40.8-1.5-6.8-3.4-13.7-7.4-19.5-.5-.7-1-1.4-1.6-2.2-.4-6.6-1.2-13.1-2.4-19.6-.2-.9-.2-1.8 0-2.6.4-.7.9-1.4 1.4-2 2.4-3.1 1.4-7.4 1.1-11.3-.4-5.6.9-11.1 2.2-16.5l4.8-20.1c.4-1.9 1-3.8 1.7-5.6 1.3-2.4 2.7-4.8 4.3-7 4.5-7.1 6.6-15.5 6.1-23.9.9.3 1.8.7 2.7 1 .7-5.6-1.7-12 0-17.3 2.9-2.1 5.3-4.9 6.8-8.2 1.3-3 1.7-6.3 3.1-9.2.8-1.7 1.9-3.2 2.3-5 .7-2.7-.2-5.5-.1-8.2.1-6 4.4-11.5 3.5-17.4-.5-2.8-2.1-5.4-2-8.3.1-1.5.5-3 1.2-4.5 3.3-8.7 6.5-18 4.8-27.1-.4-2.4-1.2-4.7-1.1-7.1.1-2.7 1.4-5.4 1-8.1-.2-1-.6-2-1.2-2.8 1.2-1.8 2.2-3.7 3-5.7.5-1.1.8-2.4.8-3.7-.2-1.7-1.2-3.3-2.6-4.4-1.4-1-2.9-1.9-4.5-2.6-.5-.2-.9-.5-1.3-.9-.3-.5-.5-.9-.7-1.4-.9-1.5-2.8-2-4.3-2.9-5.5-3.3-4.9-11.9-9.6-16.3-3.3-2.9-8.1-3.2-11.7-.6-.4.4-1 .7-1.6.8-.6-.1-1.2-.4-1.6-.9-1.2-.8-2.5-1.2-3.9-1.1-.9-3.4-1.2-6.9-1.1-10.4h.4c.5 0 1.1 0 1.6-.2 2.4-.7 3.8-3.2 4.7-5.5.8-1.9 1.5-4 2.1-6 0-.2.1-.4.1-.6 4.6 3.2 9.9 6.6 11.2 5.9 2.3-1.3-10.5-10.4-10.5-10.4 1.5-1.3 2.3-3.8 2.7-5.9.9-4.3.9-8.6.1-12.9-1-4.2-3.5-8.2-7.4-10.2-1.7-.9-3.8-1.5-5-2.8-.2-.2-.4-.4-.5-.7-.1-.1-.1-.2-.2-.4-.1-.4-.3-.7-.5-1-.7-.8-2-.6-3-.4h-.9c-3.8.1-7.5-2-11.3-2-4.2 0-7.8 2.5-11.5 4.1-.8.3-1.5.6-2.1 1-2.3 1.1-4.2 2.2-5.3 4.9-.7.9-1.3 1.9-1.5 3-.1.5-.2 1-.2 1.5-10 9.9-10.1 26.1-.2 36.1 3.2 3.2 7.2 5.6 11.7 6.7.1.3.2.5.3.8.8 2.3 1.1 4.7 1.1 7.1v.5c-1.9.5-3.8 1.2-5.5 2.2-2.2 1.3-3.8 3.3-4.7 5.7 0 .2-.1.4-.1.5-1.4-.4-2.8-.7-4.2-.7-1.3-.2-2.6.2-3.6 1.1-.3.4-.6.9-.7 1.4-.5.5-.6 1.2-.9 1.8-1.1 1.9-3.9 1.3-6 1.8-2.3.6-4.1 2.7-6.4 2.7-.9-.1-1.8-.2-2.7-.1-.9.2-1.6 1.4-.9 2-1.1-.1-2.1.4-2.7 1.3-.7.8-1.1 1.8-1.8 2.6-.6-.9-1.7-1.3-2.8-1.1-1 .2-2 .6-2.9 1.2-.4.2-.8.4-1.3.5-.5 0-1.1 0-1.6-.1-2.5-.4-5.1-.1-7.4 1-2 1-4-.8-6.2-1-.8 0-1.6-.2-2.3-.7-.4-.5-.7-1.1-.9-1.8-1-2.9-3.5-5.1-6.5-5.8 1.2-3.8-.7-7.9-4.5-9.4.3-2.7-.8-5.3-2.8-7.1-.5-.3-1-.7-1.4-1.1-.6-.7-1-1.5-1.3-2.4-.7-1.7-1.3-3.5-2-5.3-.9-.2-1.6-.5-2.4-.7v-.5c0-1.8-.3-3.6-.9-5.3-1-2.8-2.4-5.4-4.2-7.7-1.9-2.6-4-5.3-6.8-6.9-.9-.5-1.9-1-2.9-1.3l-5.1-2.1c-.3-.1-.6-.2-.9-.2-1.4 0-1.6 2.1-.8 3.3 1.6 2.3 5.1 2.9 6 5.5-1.7.1-3.2 1.2-3.7 2.9 0 .4-.2.8-.5 1.1-.5.4-1.2.2-1.7.4-.9.5-.5 1.8-.6 2.9-.2.9-.5 1.8-.9 2.6.1 1.8.5 3.5 1.4 4.9zM628 693.9l-.1-1.6c.1.3.2.6.3.8.9 2.4 1.9 4.7 3 7l-.2-.1c-.8-.4-1.6-.6-2.4-.7-.2 0-.5 0-.7-.1.3-1.6.4-3.5.1-5.3z" fill="url(#SVGID_1_)"/><path class="st9" d="M614.2 349.2c-.1 3.7-1.4 7.4-1.6 11.1 11 .5 21.8-4.8 32.7-3.1-3-2-4.7-5.5-5.6-9-1.2-4.5-1.6-9.2-1.1-13.8 0-.3.1-.5.1-.8.4-1.8 1.5-4.4 1.2-5.8-.4-1.9-2.2-1.5-3.8-1.4-4.9.4-9.8 1-14.7 1.9-1.3.2-13.6 3.3-13.8 3 2.2 3.5 3.9 7.2 5.3 11 .9 2.1 1.3 4.5 1.3 6.9zm-108.7-11.5c.9 1.3 2.1 2.4 3.4 3.4.8.7 1.7 1.4 2.6 2 1.6 1.2 3.5 2 5.5 2.2 2.6.2 8.2-1.4 9.8-3.6.7-1.1 1-2.4.9-3.8 0-1.8-.3-3.6-.9-5.3-1-2.8-2.4-5.3-4.2-7.7-1.9-2.6-4-5.2-6.8-6.8-.9-.5-1.9-.9-2.9-1.3l-5.1-2.1c-.3-.1-.6-.2-.9-.2-1.4 0-1.6 2.1-.9 3.2 1.6 2.3 5.1 2.9 6.1 5.5-1.7 0-3.2 1.2-3.6 2.8 0 .4-.2.8-.5 1.1-.5.4-1.2.2-1.7.4-.9.5-.5 1.8-.6 2.9-.2.9-.5 1.8-.9 2.6-.5 1.7-.2 3.4.7 4.7z"/><path class="st1" d="M657 711.8c-.8-.8-2.2-.7-3.4-.5-6.4 1-12.8 1.5-19.2 1.5-.8-3.9 1.5-7.7 2.3-11.7.1-1 .4-2 .8-3 .9-1.7 3-2.5 4.9-2.9 3.5-.7 8.8-2 10.8 1.5 2.2 4.2 3 10.4 3.8 15.1z"/><path class="st10" d="M586.8 696.9c2.6 1.8 5.8 2.3 9 2.7s6.4.7 9.2 2.1c2.5 1.2 4.5 3.2 7.1 4.1 2.4.7 4.9.7 7.4.1 2.9-.5 6-1.6 7.6-4.1 1.4-2.2 1.3-5.1 1.1-7.7-.2-3-.4-6-.7-8.9 0-.8-.2-1.5-.6-2.2-2.1-3.1-7.2 1.3-10 1.3-4.3 0-9-2.4-12.1-5.2-.3-.3-.6-.5-.9-.7-1.2-.5-2.5.5-3.6 1.4l-.4.3c-2.5 2-5.9 2.4-9.1 3.2s-6.5 2.5-7.5 5.5c-.1.2-.1.4-.2.6-.5 2.8 1.2 5.8 3.7 7.5z"/><path class="st11" d="M586.8 696.9c2.6 1.8 5.8 2.3 9 2.7s6.4.7 9.2 2.1c2.5 1.2 4.5 3.2 7.1 4.1 2.4.7 4.9.7 7.4.1 2.9-.5 6-1.6 7.6-4.1 1.4-2.2 1.3-5.1 1.1-7.7-.2-3-.4-6-.7-8.9 0-.8-.2-1.5-.6-2.2-2.1-3.1-7.2 1.3-10 1.3-4.3 0-9-2.4-12.1-5.2-.3-.3-.6-.5-.9-.7-1.2-.5-2.5.5-3.6 1.4l-.4.3c-2.5 2-5.9 2.4-9.1 3.2s-6.5 2.5-7.5 5.5c-.1.2-.1.4-.2.6-.5 2.8 1.2 5.8 3.7 7.5z"/><path class="st0" d="M586.8 697.9c2.6 1.8 5.8 2.3 9 2.7s6.4.7 9.2 2.1c2.5 1.2 4.5 3.2 7.1 4.1 2.4.7 4.9.7 7.4.1 3.1-.7 5.8-2.5 7.6-5.1 1.4-2.2 1.3-5.1 1.1-7.7-.2-3-.4-6-.7-8.9 0-.8-.2-1.5-.6-2.2-2.1-3.1-7.2 1.3-10 1.3-4.3 0-9-2.4-12.1-5.2-.3-.3-.6-.5-.9-.7-1.2-.5-2.5.5-3.6 1.4.7 2.2 1.7 4.3 3 6.3 2.1 3.3 5.6 5.5 9.6 6 1.9.1 3.9-.2 5.8.3s3.6 2.4 3 4.2-3 2.2-4.8 2.3c-2.6.3-5.3.1-7.9-.6-1.5-.5-3-1.4-4.4-2-6.4-2.6-14.4-1.2-19.7-5.6-.5-.5-1-.9-1.6-1.2-1.5 2.8 1 6.8 3.5 8.4z"/><path class="st11" d="M586.8 697.9c2.6 1.8 5.8 2.3 9 2.7s6.4.7 9.2 2.1c2.5 1.2 4.5 3.2 7.1 4.1 2.4.7 4.9.7 7.4.1 3.1-.7 5.8-2.5 7.6-5.1 1.4-2.2 1.3-5.1 1.1-7.7-.2-3-.4-6-.7-8.9 0-.8-.2-1.5-.6-2.2-2.1-3.1-7.2 1.3-10 1.3-4.3 0-9-2.4-12.1-5.2-.3-.3-.6-.5-.9-.7-1.2-.5-2.5.5-3.6 1.4.7 2.2 1.7 4.3 3 6.3 2.1 3.3 5.6 5.5 9.6 6 1.9.1 3.9-.2 5.8.3s3.6 2.4 3 4.2-3 2.2-4.8 2.3c-2.6.3-5.3.1-7.9-.6-1.5-.5-3-1.4-4.4-2-6.4-2.6-14.4-1.2-19.7-5.6-.5-.5-1-.9-1.6-1.2-1.5 2.8 1 6.8 3.5 8.4z"/><path class="st12" d="M655.8 503.3c2 10 .1 20.3-5.4 28.9-1.6 2.2-3.1 4.6-4.3 7-.7 1.8-1.3 3.6-1.7 5.5l-4.8 20c-1.3 5.4-2.6 10.9-2.2 16.4.3 3.9 1.3 8.2-1.1 11.3-.6.6-1.1 1.3-1.4 2-.2.9-.2 1.7 0 2.6 2.4 14.5 4.3 29.7-.2 43.7-4 12.7-4.2 26.8-7.6 39.7-.3 1.6-1 3.2-2.1 4.4-.9.8-2 1.3-3.2 1.5-5 1.2-10.3-.2-15-2.4-3.3-1.5-6.8-4.2-6.5-7.8.1-1.7 1.1-3.2 1.8-4.8 1.3-3.1 1.4-6.6 1.8-9.9.9-8.4 3.5-16.6 5.5-24.8s3.3-16.9 1.6-25.2c-3.4-17.2-8.8-33.9-16.2-49.9-.3-.8-.8-1.6-1.5-2.2-.8-.4-1.5-.9-2.1-1.5-.5-.8-.9-1.7-1-2.6-.7-2.6-2.9-4.6-4.4-6.9-3.7-5.8-2.5-13.3-2.4-20.2.1-6.7-.8-13.5.3-20.1s4.9-13.4 11.3-15.5c3.2-1 6.6-.8 9.9-.5 17.4 1.8 34.5 5 50.9 11.3z"/><path class="st11" d="M655.8 503.3c2 10 .1 20.3-5.4 28.9-1.6 2.2-3.1 4.6-4.3 7-.7 1.8-1.3 3.6-1.7 5.5l-4.8 20c-1.3 5.4-2.6 10.9-2.2 16.4.3 3.9 1.3 8.2-1.1 11.3-.6.6-1.1 1.3-1.4 2-.2.9-.2 1.7 0 2.6 2.4 14.5 4.3 29.7-.2 43.7-4 12.7-4.2 26.8-7.6 39.7-.3 1.6-1 3.2-2.1 4.4-.9.8-2 1.3-3.2 1.5-5 1.2-10.3-.2-15-2.4-3.3-1.5-6.8-4.2-6.5-7.8.1-1.7 1.1-3.2 1.8-4.8 1.3-3.1 1.4-6.6 1.8-9.9.9-8.4 3.5-16.6 5.5-24.8s3.3-16.9 1.6-25.2c-3.4-17.2-8.8-33.9-16.2-49.9-.3-.8-.8-1.6-1.5-2.2-.8-.4-1.5-.9-2.1-1.5-.5-.8-.9-1.7-1-2.6-.7-2.6-2.9-4.6-4.4-6.9-3.7-5.8-2.5-13.3-2.4-20.2.1-6.7-.8-13.5.3-20.1s4.9-13.4 11.3-15.5c3.2-1 6.6-.8 9.9-.5 17.4 1.8 34.5 5 50.9 11.3z"/><path class="st12" d="M584.4 545.3c.1 2.6.4 5.2.9 7.8 3.1 17.3 6.4 34.6 9.9 51.8.3 1.5.6 3 1 4.5 1.3 4.8 3.6 9.3 6.7 13.2 14.6 18.2 15.8 44.5 23.7 66.4.5 1.5 1.1 3 1.6 4.4 1.4 3.7 3.1 7.3 4.9 10.9.2.5.6 1 1 1.3.5.2 1 .3 1.6.3 7.1 0 14.1-1.6 20.5-4.7.9-.3 1.7-1 2.2-1.8.2-.7.3-1.4.2-2.1-.2-4.3-.5-8.8-2.6-12.7-1.4-2.3-3-4.3-5-6.1-.5-13.6-2.1-27.2-5-40.6-1.5-6.8-3.4-13.7-7.4-19.4-2.9-4.2-7.1-8.4-6.6-13.5.2-2.3 1.2-5-.7-6.4-.8-.6-2-.7-2.5-1.5-.2-.4-.3-.8-.3-1.3-.4-3.5-.2-7.1.6-10.5.7-2.2 1.2-4.5 1.6-6.8.4-2.3-.3-4.7-1.7-6.6-.1-4.7 0-9.5-.1-14.2-.2-2.7 0-5.3.7-7.9.4-1.2.9-2.4 1.2-3.6 1-4.5-1.5-9.9 1.4-13.4 1.2-1.5 3.1-2.2 4.7-3.3 3.1-2.3 5.4-5.5 6.4-9.2 1-3.7 1.6-7.5 1.8-11.3.1-.8.1-1.6 0-2.4l-.3-1.2c-.9-2-3.3-2.8-5.5-3.3-13.7-3.3-27.8-4.9-41.9-4.9-5.2-3.5-8.2-2.3-10.4 1.5-1.2 2.3-2.2 4.7-3 7.2-1 3.1-1.1 20.1-2.1 23.2-1.1 3.9 2.6 12 2.5 16.2z"/><path class="st10" d="M678.8 389.8c.4 2.7-.9 5.3-1 8-.1 2.4.6 4.7 1.1 7 1.7 9.1-1.5 18.3-4.8 27-.6 1.4-1 2.9-1.2 4.4-.1 2.8 1.5 5.4 2 8.2.9 5.9-3.4 11.4-3.5 17.3 0 2.7.8 5.5.1 8.2-.6 1.7-1.4 3.4-2.3 4.9-1.4 2.9-1.8 6.2-3.1 9.2-2.4 5.3-7.5 8.8-12.4 12-2.8-.9-5.8-2-7.3-4.5-.7-1.2-1.1-2.6-1.3-4-1.1-6.1-1-12.3-1-18.5-.1-5.3.2-10.6.8-15.9 1-6.7 3.2-13.2 4.7-19.8 2-8.3 3-16.9 6-24.9 2.7-7 6.9-13.3 11.3-19.3 1.7-2.3 3-5.6 6.3-5.1 2.9.7 5.1 2.9 5.6 5.8z"/><path class="st11" d="M678.8 389.8c.4 2.7-.9 5.3-1 8-.1 2.4.6 4.7 1.1 7 1.7 9.1-1.5 18.3-4.8 27-.6 1.4-1 2.9-1.2 4.4-.1 2.8 1.5 5.4 2 8.2.9 5.9-3.4 11.4-3.5 17.3 0 2.7.8 5.5.1 8.2-.6 1.7-1.4 3.4-2.3 4.9-1.4 2.9-1.8 6.2-3.1 9.2-2.4 5.3-7.5 8.8-12.4 12-2.8-.9-5.8-2-7.3-4.5-.7-1.2-1.1-2.6-1.3-4-1.1-6.1-1-12.3-1-18.5-.1-5.3.2-10.6.8-15.9 1-6.7 3.2-13.2 4.7-19.8 2-8.3 3-16.9 6-24.9 2.7-7 6.9-13.3 11.3-19.3 1.7-2.3 3-5.6 6.3-5.1 2.9.7 5.1 2.9 5.6 5.8z"/><path class="st13" d="M607.8 331.1c2.2 3.5 3.9 7.2 5.3 11 2 .5 4 .7 6 .7 7.9 0 13.5-4.5 18.2-10.2.4-1.8 2.9-3.5 2.6-5-.4-1.9-2.2-1.5-3.8-1.4-4.9.4-9.8 1-14.7 1.9-1.1.3-13.5 3.4-13.6 3z"/><circle class="st9" cx="619.1" cy="316.8" r="25.4"/><path class="st13" d="M587 498.6c4.4-.3 8.8-.1 13.2.1 2.8 0 5.5.3 8.2.8 3.3.8 6.5 2.3 9.7 3.2 5.3 1.5 10.8 1.6 16.3 2.1 3.6.4 7.1.9 10.7 1.7l-.3-1.2c-.9-2-3.3-2.8-5.5-3.3-13.7-3.3-27.8-4.9-41.9-4.9-5.2-3.6-8.1-2.3-10.4 1.5z"/><path class="st10" d="M604.4 358.3c1.1 1.3 2.6 2.7 4.2 2.3.6-.2 1.2-.5 1.7-.9 2.9-1.9 6.5-2.3 10-2.8 6.9-1 13.8-2.6 20.5-4.6 1.9-.7 4-1.1 6.1-1.2 4.3 0 8.1 2.9 10.8 6.2s4.6 7.3 7.3 10.7c1.9 2.4 4.1 4.5 5.9 7.1 4.5 6.3 5.4 14.6 4.3 22.2s-4.2 14.9-7.2 22c-1.6 4.1-3.6 8.1-5.9 11.9 1 5.8.5 12.5-2.3 17.7-.9 1.7-2 3.4-2.3 5.3-.1 1.3-.1 2.6.2 3.9l1.3 9.2c.4 2.8.8 5.6 1.3 8.4.9 5.1 2.2 10.6-.2 15.2-2.8 5.5.2 12.6-.6 18.7-7.9-3.1-16.3-5-24.7-5.9-5.5-.5-11-.6-16.3-2.1-3.3-1-6.4-2.5-9.7-3.2-2.7-.5-5.5-.8-8.2-.8-6.1-.2-12.2-.5-18.2.4-.5.1-1.1.1-1.4-.3-.1-.2-.2-.5-.2-.7-.1-2.3.5-4.5 1.6-6.5.8-1.4 1.8-2.7 1.8-4.2-.1-.7-.2-1.4-.5-2.1l-2.7-7.1c-2.3-6-1.2-13-2.3-19.3-.9-4.9-1.5-9.9-1.8-14.9-.2-4.3-.1-8.9 2.5-12.3.8-.8 1.4-1.7 2-2.7.4-1 .5-2.1.5-3.2.1-8.6-.2-17.1-.7-25.7 2.3-4 4.6-8.2 6.8-12.2 2.6-4.7 5.3-9.5 6.3-14.8.7-3.5.7-7.1 1.2-10.6-.1-2 1.5-3.6 3.4-3.7.4 0 .7 0 1.1.1 1.3-.3 2.9 0 4.4.5z"/><path class="st13" d="M511.5 343.1c1.6 1.2 3.5 2 5.5 2.2 2.6.2 8.2-1.4 9.8-3.6.7-1.1 1-2.4.9-3.8-.4-.1-.7-.2-1.1-.2-2.8-.3-5.7-.2-8.5.3-2.8.7-5.3 2.5-6.6 5.1z"/><path class="st10" d="M595.9 398c-1.5 1.9-3.2 3.9-5.3 5-2.5 1.3-5.5 1.3-8.3 1.3-11.7-.2-23.3-1.5-34.8-3.8-1.3-.2-2.6-.6-3.8-1-1.4-.7-2.7-1.5-3.9-2.4-3.8-2.7-7.6-5.5-10.5-9.1-3.4-4.4-5.5-9.7-6.2-15.2-2.7-2.5-4.2-6.1-5.5-9.5-.7-1.5-1.1-3-1.3-4.6-.1-1.6 1-3.4.7-5-.5-2.8-1.9-5.3-4-7.2-.5-.3-.8-.8-1-1.3-.1-.4 0-.9.2-1.2 1.3-2.6 3.8-4.4 6.6-5 2.8-.5 5.7-.7 8.5-.3.9.2 1.9.4 2.8.7l2 5.2c.3.9.7 1.7 1.3 2.4.4.4.9.8 1.4 1.1 2 1.7 3.1 4.3 2.8 7 3.7 1.4 5.7 5.5 4.5 9.3 3 .7 5.5 2.8 6.5 5.8.1.7.4 1.3.9 1.8.7.5 1.5.8 2.3.7 2.2.1 4.2 1.9 6.2.9 2.3-1.1 4.9-1.4 7.4-1 .5.1 1 .2 1.6.1.5-.1.9-.2 1.3-.5.9-.5 1.9-.9 2.9-1.2 1.1-.2 2.1.2 2.8 1.1.7-.8 1.1-1.8 1.8-2.6.6-.9 1.6-1.4 2.7-1.3-.7-.6 0-1.8.9-2 .9-.1 1.8 0 2.7.1 2.3 0 4.1-2.1 6.4-2.7 2.1-.5 4.9.1 6-1.8.4-.7.5-1.6 1.1-2 .4-.2.9-.3 1.4-.2 1.5.2 2.9.6 4.3 1.3 2.2 8.6 1 17.5-.6 26.2-.7 4-2.3 7.7-4.8 10.9z"/><path class="st13" d="M596 428.8l10.9 22c-1.2-2-3.7-2.8-5.6-4.1-2.5-1.8-4.4-4.3-5.4-7.2-1-2.9-1.7-5.9-2.1-8.9-.2-1.4-.7-3.4 0-4.6 1.2.1 1.7 1.7 2.2 2.8zm31.4 18.7c2.5 2.4 5.5 4.2 8.2 6.4 6.3 5 10.8 12 15.3 18.8 1.2 1.8 2.3 3.7 3.1 5.7-.5.4-1.3 0-1.8-.5l-8.6-7.5c-1.1-.9-2-1.8-2.9-2.9-1.5-2-2.2-4.5-3.5-6.6-1.5-2-3.2-3.8-5.2-5.3-2-1.7-11-9.3-8.8-12.3 1.6.7 2.9 2.9 4.2 4.2z"/><path class="st10" d="M608.7 352c2.8-1.6 5.9-2.6 9.1-3 1.9-.4 3.8-.6 5.8-.4 1.8.2 3.5.9 5.3 1 2.5.1 4.9-.9 7.4-1.5s5.3-.9 7.3.5c.4.4 1 .7 1.6.9.6-.1 1.2-.4 1.6-.8 3.6-2.5 8.4-2.3 11.7.6 4.7 4.4 4.1 12.9 9.6 16.2 1.5.9 3.4 1.4 4.3 2.9.2.5.5 1 .8 1.5.4.4.8.7 1.3.9 1.6.7 3.1 1.6 4.5 2.6s2.3 2.6 2.6 4.3c0 1.3-.2 2.5-.8 3.6-5.5 13.4-18.8 21.9-33.3 21.3-1.3.1-2.5-.3-3.5-1.1-.5-.6-.9-1.3-1.2-2-2.6-5.4-7.4-9.3-10.4-14.5-1.8-3-3-6.5-4.9-9.5-2.9-4.5-7.3-7.9-11.5-11.2-2.4-1.8-5.1-3.8-8.1-3.6-2.7.1-4.7.3-3.7-3.1.7-2.3 2.3-4.3 4.5-5.6z"/><path class="st11" d="M608.7 352c2.8-1.6 5.9-2.6 9.1-3 1.9-.4 3.8-.6 5.8-.4 1.8.2 3.5.9 5.3 1 2.5.1 4.9-.9 7.4-1.5s5.3-.9 7.3.5c.4.4 1 .7 1.6.9.6-.1 1.2-.4 1.6-.8 3.6-2.5 8.4-2.3 11.7.6 4.7 4.4 4.1 12.9 9.6 16.2 1.5.9 3.4 1.4 4.3 2.9.2.5.5 1 .8 1.5.4.4.8.7 1.3.9 1.6.7 3.1 1.6 4.5 2.6s2.3 2.6 2.6 4.3c0 1.3-.2 2.5-.8 3.6-5.5 13.4-18.8 21.9-33.3 21.3-1.3.1-2.5-.3-3.5-1.1-.5-.6-.9-1.3-1.2-2-2.6-5.4-7.4-9.3-10.4-14.5-1.8-3-3-6.5-4.9-9.5-2.9-4.5-7.3-7.9-11.5-11.2-2.4-1.8-5.1-3.8-8.1-3.6-2.7.1-4.7.3-3.7-3.1.7-2.3 2.3-4.3 4.5-5.6z"/><path class="st10" d="M595.5 719.7c1.8 1.7 4.4 2.5 6.8 3 5.6 1.1 11.3 1.8 17 2.1l5.5.4c5.4.4 10.8.8 16.3.8 6.7 0 13.4-.6 20-1.7.9.1 1.8-.6 1.9-1.5v-.5c-.1-6.8-.9-13.5-2.5-20.1-.6-2.7-5.5 3.4-5.7 3.6-1 1.4-2.7 2.3-4.4 2.3-5.6.3-11.8-3.1-16.3-6.1-.9-.7-1.9-1.3-3-1.9-.8-.3-1.6-.6-2.4-.7-2.9-.3-5.8.3-8.3 1.7-3.3 1.7-6.3 4-9.6 5.7-2.7 1.4-5.6 2.3-8.6 2.7-3 .4-6.6.6-8.2 3.2-1.3 2.4-.4 5.3 1.5 7z"/><path class="st0" d="M595.5 720.7c1.8 1.7 4.4 2.5 6.8 3 5.6 1.1 11.3 1.8 17 2.1l5.5.4c5.4.4 10.8.8 16.3.8 6.7 0 13.4-.6 20-1.7.6 0 1.2-.3 1.6-.8.5-.7.9-1.5 1.2-2.3-.1-6.8-1.9-13.5-3.5-20.1-.6-2.7-5.5 3.4-5.7 3.6-1 1.4-2.7 2.3-4.4 2.3-5.6.3-11.8-3.1-16.3-6.1-.9-.7-1.9-1.3-3-1.9-.8-.3-1.6-.6-2.4-.7.7 4 6.5 8.9 9.5 10.3 6 3 13.2 1.5 19.9 1.8.5 0 1 .1 1.4.3.8.5.8 1.7.8 2.6-.1 1.6-.3 3.5-1.7 4.3-.7.3-1.5.5-2.2.5-16.5.7-33.1.1-49.5-1.7-2.8-.2-5.5-.8-8.1-1.8-1.7-.8-3.3-1.8-4.7-3-2.1 1.9-.4 6.4 1.5 8.1z"/><path class="st10" d="M609.3 316.5c.1 2.6-1.7 7.7 3.2 6.3 2.9-.8 3.8-4.3 7.5-3.5s4.6 5.4 5.8 8.3c2.1 4.8 6.4 8.3 11.6 9.3 1 .2 2.1.2 3.2 0 2.4-.7 3.8-3.1 4.7-5.4.8-1.9 1.5-4 2.1-6 .4-1.4.6-2.9.8-4.4.1-1 .1-2 0-3-.4-6-3.8-11.4-8.2-15.5s-9.6-7.1-14.8-10c-1.7-1.1-3.5-1.9-5.5-2.4-1.9-.4-3.9-.5-5.8-.2-2.5.1-5 .7-7.3 1.7-1 .5-1.8 1.1-2.6 1.8-1.1 1-1.9 2.3-2.2 3.8-.9 3.9 1.5 7.3 3.5 10.4 1.6 2.6 3.8 5.4 4 8.8z"/><path class="st13" d="M526.7 372.8c1-2.6 5.5-10 4.2-12.5-1.3 1.9-2.4 3.9-3.4 6-.8 2.1-.1 4.8-.8 6.5zm78.3-65.2c-2-3-4.5-6.5-3.5-10.4.5-1.7 1.5-3.2 2.9-4.3-.3.6-.6 1.2-.7 1.8-.9 3.9 1.5 7.3 3.5 10.4 1.8 2.7 4 5.6 4.1 9 .1 2.6-1.7 7.7 3.2 6.3 2.9-.8 3.8-4.3 7.5-3.5s4.6 5.3 5.8 8.3c2.1 4.8 6.4 8.3 11.6 9.3 1 .3 2.1.3 3.2 0 .5-.1 1.1-.4 1.5-.7-.7 1.5-2 2.7-3.6 3.2-1 .3-2.1.3-3.2 0-5.2-1-9.5-4.5-11.6-9.3-1.3-3-2.1-7.5-5.8-8.3s-4.5 2.7-7.5 3.5c-4.9 1.4-3.1-3.7-3.2-6.3-.2-3.4-2.4-6.3-4.2-9z"/><path class="st13" d="M604 302.4c.5.7 1 1.5 1.5 2.1 1 1.3 2.2 2.5 3.5 3.6.7.6 1.5 1.3 2.3 1.8 1.5 1.1 3.1 2 4.8 2.9 4.9 2.3 9.9 4.1 15.2 5.4l10.1 3c1.3.9 3.5 2.6 6 4.4.4-1.4.6-2.9.8-4.4.1-1 .1-2 0-3-.4-6-3.8-11.4-8.2-15.5s-9.6-7.1-14.8-10c-1.7-1.1-3.5-1.9-5.5-2.4-1.9-.4-3.9-.5-5.8-.2-2.5.1-5 .7-7.3 1.7-1 .5-1.8 1.1-2.6 1.8-.6.8-1 1.8-1.3 2.8-.7 1.9.1 4.1 1.3 6z"/><path class="st12" d="M604 301.7c.5.7 1 1.5 1.5 2.1 1 1.3 2.2 2.5 3.5 3.6.7.7 1.5 1.3 2.3 1.8 1.5 1.1 3.1 2 4.8 2.8 4.9 2.3 9.9 4.1 15.2 5.4l10.1 3c3.5 2.7 15.4 11.4 17.4 10.3 2.3-1.3-10.5-10.4-10.5-10.4l-.6.5c1.9-1.2 2.9-3.9 3.3-6.3.9-4.2.9-8.6.1-12.8-1-4.2-3.5-8.2-7.4-10.1-1.7-.9-3.8-1.5-5-2.8-.2-.2-.4-.4-.5-.6-.1-.1-.1-.2-.2-.4-.1-.4-.3-.7-.5-1-.7-.8-2-.6-3-.4h-.9c-3.8.1-7.5-2-11.3-2-4.2 0-7.8 2.4-11.5 4.1l-2.1 1c-2.7 1.3-4.7 2.6-5.8 6.1-1 2-.1 4.2 1.1 6.1z"/><path class="st13" d="M633.4 286.4c-.1.3-.2.6-.2.9 0 .5.2 1 .6 1.4.5.3 1 .5 1.6.6.4.1.8.1 1.3.1.6 0 1.1-.1 1.6-.3.1-.1.2-.1.3-.2-.2-.2-.4-.4-.5-.6-.1.1-.2 0-.6 0-.7 0-1.3-.2-2-.3-.3-.1-.5-.2-.8-.4-.3-.3-.6-.7-.7-1.1l-.6-.1zm14.5 33.9c-.5.3-1.1.6-1.8.6-1.6.5-3.3.2-4.7-.7"/><linearGradient id="SVGID_2_" gradientUnits="userSpaceOnUse" x1="1707.355" y1="-1.91" x2="1707.355" y2="455.45" gradientTransform="matrix(1 0 0 -1 -1558.18 721.78)"><stop offset="0" stop-color="gray" stop-opacity=".25"/><stop offset=".54" stop-color="gray" stop-opacity=".12"/><stop offset="1" stop-color="gray" stop-opacity=".1"/></linearGradient><path d="M223.3 406.5c-1.7-11.3-11.9-37.5-11.9-37.5-.2-.8-.4-1.6-.6-2.3-7.3-24.9-17.3-27.1-17.3-27.1l-35.9-7.7c.3.2.5.4.7.7l-.6.1c-1.6-1.9-2.7-4.3-3.1-6.8-.1-.4-.1-.8-.2-1.1 10-9.7 10.2-25.8.4-35.7-.8-.8-1.6-1.6-2.5-2.3-.4-.3-.8-.6-1.1-.9 1.7-1.8 1.8-4.3.5-6.8-2.8-5.9-9-9.6-15.3-11.4-4.8-1.4-10.1-1.8-14.9-.3-2.7 1-5.3 2.2-7.8 3.6-4.8 2.4-10 4.3-13.6 8.2-.9.8-1.4 2-1.4 3.3.3.9.8 1.7 1.4 2.4 1 1.8.8 4 .1 6s-1.7 3.8-2.2 5.8-.3 4.4 1.2 5.8c.7.6 1.5 1.1 2.3 1.6.8.7 1.5 1.5 2.1 2.4l4.3 5.8c2 2.6 3.8 5.3 5.3 8.1.9 2.2 2 4.2 3.3 6.2.4.5.9 1 1.4 1.5l-.4-.2c1.3 1.2 3 1.9 4.8 1.8h.2c.3 0 .6-.1.9-.4v.8c.1 2.8.1 5.7-.1 8.5l-.3-.2c-1-.5-2.2-.4-3.1.3l-33.1 26.5s-7.2 9.9-6.2 26.8l-5.8 25.5s-7.3 21.6-1.7 37.1c5.6 15.4 8.8 24.3 8.8 24.3s2.2 17.5 5.6 19 4.8 2.2 4.8 2.2l.7 4.2s.2.4.6 1.1c2.4 4.2 11.5 19.2 16.7 17.6.7 4.1.9 8.2.9 12.3l5.2 34.9s3.6 9.5 3.4 14.5c-.2 5 4.2 12 4.2 12-2.7 5-3.5 10.7-2.2 16.2 2.1 9.3 4.8 52.1 4.8 52.1l3.9 10.4-.1 12.2c-.3 2-1.1 3.8-2.4 5.4-2.5 2.7-2.3 5.9-8.4 9.6s-9.9 5.1-9.9 10.1c0 .7-.1 1.3-.2 2-.6 3.6-1.6 5.6 9.5 6.6 7.9.6 15.8-2 21.8-7.3 0 0 1.9-3.5 11-4.9 0 0 3.1-.2 3.3-2.9.1-.9 0-2.8 0-4.7-.1-3.8-.5-8.2-1-8.4s-1.7-4.1-2-5.5h2.5s2.4-17.5 0-28.9c-2.4-11.4-.2-19.4-.2-19.4l-.4-30s-3.1-3.3-.7-9.2 0-34.8 0-34.8.9-10.4 3.5-12.8c2.6-2.4.1-15.2 0-15.9l4.6 15.3s2 30.4 6.3 36l1.2 13.8s8.7 12.7 7 19.5c-1.7 6.8 1.8 31.5 1.8 31.5v25.2s-3.9 10.1 1.6 13.8l2.4-.1c-.8.7-1.4 1.8-2.3 2.7-1 1.1-1.6 5.2-2 8.7-.3 3-.4 5.5-.4 5.5 1.5 2.3 4 3.7 6.7 4 4.4.3 18.7 11.3 18.7 11.3s14.2 0 17.9-.7l.2-.1c1.2-.4 2.2-1.2 2.8-2.3.7-1.3 1-2.7.7-4.2-.5-2.2-2.2-4.6-6-6.6-9.5-5-11-9.8-11-9.8l-6.2-9.3h.9s-.6-9.9 6.2-21.1l-.5-49.2s2.8-16.9-2-26c0 0-.4-9.7 2.8-12.7s-4.3-33.1-4.3-33.1-1.5-16.2-3.4-30.9c7.5 7.1 15.4-18.6 16.7-23.1h.2l-.1-.3.1-.3s-1.7-6-.5-4.7 4.2-3.3 4.2-3.3-.4-24.6 4.8-37-2.6-42.7-2.6-42.6zm-22.4 15.6c.8 14.9-.1 47-.1 47s-1 4.1-2.1 9l-.8-30.5-.8-28.7 3.8 3.2zm-96-10.3s3.8 47.4 0 54.3c-1.1 1.9-2 5.4-2.7 9.4-1.3-3.3-3.9-11-3-15.1 1.2-5.3-2.5-19.2-2.5-19.5s-.3-7.7 2.4-13.4.9-8.1.9-8.1 2.2-9.4 4.9-7.6z" fill="url(#SVGID_2_)"/><path class="st15" d="M114.1 518.6c-3.3 14.5-16.4-7.4-19.4-12.7-.4-.7-.6-1.1-.6-1.1l1.4-6.7 7.5-3.1c1.2.6 2.3 1.4 3.4 2.2 4.1 3.2 10.3 10.1 7.7 21.4zm102-23.8s0 .1-.1.3l-.1.4c-1.3 4.5-8.9 30.1-16.3 23-8.1-7.8-4.2-25.6-4.2-25.6h.1l17-1.8 3.4 3.5.2.2z"/><path class="st10" d="M206.2 620.4l.4 48.7c-6.7 11.1-6.1 20.9-6.1 20.9l-22 .9c-5.4-3.6-1.5-13.7-1.5-13.7v-25.1s-3.4-24.5-1.8-31.3-6.9-19.4-6.9-19.4l-1.2-13.7c-4.2-5.5-6.1-35.7-6.1-35.7l-4.5-15.2c.1.7 2.4 13.4 0 15.7s-3.4 12.7-3.4 12.7 2.4 28.7 0 34.5.6 9.1.6 9.1l.4 29.8s-2.1 8 .2 19.3 0 28.7 0 28.7h-23.7l.1-12.2-3.8-10.3s-2.6-42.5-4.7-51.7c-1.3-5.5-.5-11.2 2.2-16.1 0 0-4.4-7-4.2-11.9s-3.3-14.3-3.3-14.3l-5.1-34.6c.1-6.7-.7-13.3-2.6-19.8-3-9.9-7.3-22.8-7.3-22.8l4.9.4 24.9 2.2s60.7-4.1 63.4-.7c.6 1.1 1 2.3 1.1 3.5 2.7 12.2 6.3 50.6 6.3 50.6s7.3 29.9 4.2 32.8-2.8 12.6-2.8 12.6c5 9.3 2.3 26.1 2.3 26.1z"/><path class="st12" d="M154.9 705.1c-.2 2.7-3.2 2.9-3.2 2.9-8.9 1.4-10.8 4.8-10.8 4.8-5.8 5.2-13.5 7.8-21.3 7.2-10.9-1.1-9.8-3-9.3-6.6.1-.7.2-1.3.2-2 0-4.9 3.8-6.3 9.7-10s5.7-6.8 8.2-9.5 2.7-8 2.7-8c2.8-4.8 9.9.7 9.9.7.3 1.7 10.8 1.5 10.8 1.5s1.4 5.6 2.1 5.9c.5.2.8 4.6 1 8.4.1 2 .1 3.8 0 4.7z"/><path class="st13" d="M154.9 705.1c-.2 2.7-3.2 2.9-3.2 2.9-8.9 1.4-10.8 4.8-10.8 4.8-5.8 5.2-13.5 7.8-21.3 7.2-10.9-1.1-9.8-3-9.3-6.6 4.9 1.2 14.2 2.9 19.6-.1 7.6-4.1 13-7 13-7l12-6c.1 2.1.1 3.9 0 4.8z"/><path class="st12" d="M221.8 719.7c-.6 1.1-1.6 1.9-2.7 2.3l-.2.1c-3.6.7-17.6.7-17.6.7s-14.1-10.9-18.4-11.2c-2.7-.3-5.1-1.7-6.6-3.9 0 0 .1-2.5.4-5.5.3-3.5.9-7.5 1.9-8.6 1.9-2 2.3-4.7 6.6-3 0 0 6.1-10.7 13.2-2.4l7.4 11.2s1.4 4.7 10.8 9.7c3.8 2 5.4 4.4 5.9 6.5.2 1.4 0 2.8-.7 4.1z"/><path class="st13" d="M221.8 719.7c-.8.7-1.8 1.5-2.7 2.3l-.2.1c-3.6.7-17.6.7-17.6.7s-14.1-10.9-18.4-11.2c-2.7-.3-5.1-1.7-6.6-3.9 0 0 .1-2.5.4-5.5 4.3 1.3 10.9 3.6 12.7 6.1 2.7 3.8 10.9 9 10.9 9s15.3-1.5 22.1-1.7c.3 1.4.1 2.9-.6 4.1z"/><path class="st15" d="M162.1 337.6L141.9 359s-24.5-1.8-20.2-9c2.2-3.7 2.5-11.4 2.3-18.1-.2-6.5-.8-12-.8-12s34.3-17.1 31.7-1.1c-.6 3-.6 6.1-.1 9.1 1.4 8 7.3 9.7 7.3 9.7z"/><path class="st13" d="M154.8 318.8c-.6 3-.6 6.1-.1 9.1-4.6 4.6-10.9 3.6-18 3.6-4.7 0-9.7.1-13.4-2.1-.2-6.5-.2-9.4-.2-9.4s34.4-17.2 31.7-1.2z"/><path class="st15" d="M162.1 308.8c0 14-11.3 25.3-25.3 25.3s-25.3-11.3-25.3-25.3c.5-14 12.2-24.9 26.2-24.4 13.2.4 23.9 11.1 24.4 24.4z"/><path class="st13" d="M196.5 498.5c-6.3 15-46.8 15.3-46.8 15.3v-16.3l-2.4-.2c1.1 4.7-1.5 16.1-1.5 16.1-32 4.5-39.8-13.7-39.8-13.7l1.1-6.2 25 2.2s60.7-4.1 63.4-.7c.4 1.1.8 2.3 1 3.5z"/><path class="st16" d="M149.7 511.9v-16.4l-2.4-.1c1.1 4.7-1.5 16.1-1.5 16.1-24.1 3.4-34.5-6.1-38.1-11-.7-.8-1.2-1.8-1.7-2.7l9.8-55 2.3-81 3.5-14.2.8-6.8v-.1h.1l2.5 1.1 14.9 6.5 16.9-12.8.2-.2.9-.6 1.4 1.1 3.5 2.8 11.2 72.1s19.4 55.5 23 77.9c.1.9.3 1.7.4 2.5 2.2 20.4-47.7 20.8-47.7 20.8z"/><circle class="st17" cx="141.6" cy="349.8" r="1.4"/><circle class="st17" cx="142.3" cy="362.9" r="1.4"/><circle class="st17" cx="143.7" cy="384.2" r="1.4"/><circle class="st17" cx="146.1" cy="407.1" r="1.4"/><circle class="st17" cx="147.5" cy="428.6" r="1.4"/><circle class="st17" cx="149" cy="451.5" r="1.4"/><circle class="st17" cx="148.4" cy="474.2" r="1.4"/><path class="st13" d="M123.3 450.8s-1.6 21.1-4.6 27.2-4.3 23.3-4.3 23.3l-6.9-.8c-.7-.8-1.2-1.8-1.7-2.7l9.8-55 2.3-81 3.5-14.2.8-6.8h.1c.8-.4 1.7-.4 2.4 0l.3.2-.3.9c-2.7 8.4-3.7 23.8-3.7 23.8s3.8 28.3 4.3 41.4-2 43.7-2 43.7z"/><path class="st13" d="M106.4 497.2c-.1.2-.2.3-.3.5-2.7 4.5-9.4 7.4-11.4 8.1-.4-.7-.6-1.1-.6-1.1l1.4-6.7 7.5-3.1c1.2.7 2.3 1.5 3.4 2.3z"/><path class="st12" d="M88.2 389.7l-6.2 3.7-5.7 25.3s-7.1 21.5-1.7 36.8 8.7 24.1 8.7 24.1 2.2 17.4 5.5 18.8 4.7 2.2 4.7 2.2l.6 4.2s8.9-3 12.1-8.4-2.3-18.6-2.3-18.6-4.7-11.3-3.5-16.5-2.4-19-2.4-19.4-.3-7.7 2.3-13.3.9-8 .9-8l-1.6-16.1-11.4-14.8z"/><path class="st13" d="M197 493.8s-16.5 6.2-21.8.8-4.7-31.1-4.7-31.1-5-47.3-8.2-55.1-1.5-63.8-1.5-63.8-2.1-7.3-4-9.1c-.1-.1-.2-.2-.4-.3l.6.1 2.3.5 3.5 2.8 11.2 72.1s19.4 55.5 23 77.9v5.2z"/><path class="st13" d="M216.1 495.5h-.2c-2.1.3-20.4 2.5-20.5-1.3 0-.4 0-.9.1-1.3l17-1.8 3.4 3.5c.1.2.1.4.2.6v.3z"/><path class="st12" d="M198.4 364.4l12.1 6.3s10 26 11.7 37.2c0 0 7.4 29.9 2.3 42.2s-4.7 36.7-4.7 36.7-3 4.5-4.2 3.3.4 4.7.4 4.7-20.6 2.7-20.7-1.3 4.7-23.4 4.7-23.4 1.3-46.1-.6-53.3-1-52.4-1-52.4z"/><path class="st13" d="M162.4 413.5s-6.8 16.6-9 17.7.4 5.5.4 5.5 12.4-17.3 8.6-23.2zm-4.1-58.4c.1-.3-8.1 8-10.3 9.3s8.1-.1 10.3-9.3zm-22.7 57s-12.5 8.1-10.8 11.3 10.8-11.3 10.8-11.3zm22.6 117.8s10.6 6.8 27.2 8.5l-27.2-8.5zm-25.5 16.5s9.9 12.4 14.3 12.7-14.3-12.7-14.3-12.7zm13.8 48.5c-.4.2-5.6 11.2-10.8 11.5s10.8-11.5 10.8-11.5zm45.7 23.9s9.8-2.2 11.9 4.8c0 .1-.7-2.1-11.9-4.8zm-6.6 40.1s11.8-2.4 14.3.9-14.3-.9-14.3-.9zm-33.5 5.6c0 .1-12 2.4-11.6 4s12.9 1.3 13.3-1.1c.3-1.2-.4-2.5-1.6-2.8 0-.1 0-.1-.1-.1zm29.6 10.4s19.8-2.4 18.5 1.8-18.5-1.8-18.5-1.8zM78.1 431.2c.1.3 13 2.1 14.8 6.2 0 0-12.7-5.9-14.7-5.9M96.3 465s-10.7 3.4-10 8.5-1.1-2.3 10-8.5zm-5 26.1s3.9-5.4 7.6-4.4-7.6 4.4-7.6 4.4zM152.6 289c-.4.4-.8.7-1.3.9-3.1 1.8-4 4.6-5.4 7.8-1.4 2.9-2.9 6-5.6 7.7-3.6 2.1-8.3 1.4-12 3.2-3.4 1.8-5.3 5.4-4.9 9.2.2 1.4.6 2.8 1 4.2.8 3 1.2 6 1.1 9.1v.3c-12.5-6.3-17.5-21.5-11.3-33.9 6.3-12.5 21.5-17.5 33.9-11.3 1.5.7 3 1.7 4.5 2.8z"/><path class="st12" d="M151.9 281.4c-2.8-5.8-8.8-9.5-15-11.3-4.7-1.4-9.9-1.8-14.6-.3-2.6 1-5.2 2.2-7.6 3.6-4.7 2.4-9.8 4.3-13.4 8.1-.9.8-1.4 2-1.3 3.3.3.9.8 1.7 1.3 2.4 1 1.8.7 4 .1 6s-1.7 3.7-2.2 5.7-.3 4.3 1.2 5.7c.7.6 1.4 1.1 2.2 1.6.8.7 1.5 1.5 2.1 2.4l4.2 5.7c2 2.5 3.7 5.2 5.2 8 .9 2.1 2 4.2 3.2 6.1 1.4 1.9 3.6 3.3 5.9 3.1.4 0 .7-.2.9-.4.1-.2.1-.4.1-.6.1-3.1-.3-6.1-1.1-9.1-.5-1.4-.8-2.8-1.1-4.2-.4-3.8 1.6-7.4 5-9.2 3.7-1.9 8.4-1.1 12-3.2 2.8-1.7 4.3-4.8 5.6-7.7 1.5-3.2 2.3-6 5.4-7.8s3.4-4.9 1.9-7.9z"/><path class="st13" d="M140.6 694.8s3.9 4.9 2.9 7.7-2.9-7.7-2.9-7.7zm52.3 12.3s.9-6.6 4.3-6.7 3.6-.4 6.2.7 5.1 2.6 4.3 2.8-4.5-3.8-8.4-1.7c-2.3 1.3-4.5 2.9-6.4 4.9zm-63.8-350.6l10.8-7.6s-15.8-9.4-17.7-8S119 354 119 354l10.1 2.5z"/><path class="st16" d="M129 356l10.8-7.8s-15.8-9.4-17.7-8-3.2 13.8-3.2 13.8l10.1 2z"/><path class="st18" d="M129 356l10.8-7.8s-15.8-9.4-17.7-8-3.2 13.8-3.2 13.8l10.1 2z"/><path class="st12" d="M123.9 340.3l-.3-.2c-1-.5-2.1-.4-3 .3l-32.5 26.4s-7.1 9.8-6.1 26.6l19.1 27.2s2.2-9.2 4.8-7.5c0 0 3.7 47.1 0 53.9s-5.4 32.2-5.4 32.2l12.6 1.4s1.3-17.2 4.3-23.3 4.6-27.2 4.6-27.2 2.7-30.6 2.2-43.8-4.3-41.4-4.3-41.4 1.1-16.5 4-24.6z"/><path class="st13" d="M156.2 351.7l-13.5-5s17.2-18.8 19.3-8.4l-5.8 13.4z"/><path class="st16" d="M156.2 351l-13.5-5s17.2-18.8 19.3-8.4l-5.8 13.4z"/><path class="st18" d="M156.2 351l-13.5-5s17.2-18.8 19.3-8.4l-5.8 13.4z"/><path class="st13" d="M155.8 335c.2 0 .4 0 .6.1l-.6-.1z"/><path class="st12" d="M157.1 333.7l35.8 7.7s9.9 2.2 17 26.9-9.7 55.1-9.7 55.1l-3.7-3.2 1.9 72.3s-16.5 6.2-21.8.8-4.7-31.1-4.7-31.1-5-47.3-8.2-55.1-1.6-63.8-1.6-63.8-3-10.1-5-9.6z"/><path class="st13" d="M189.9 379.8c-.5.5-1.1 22.3 1.1 39 1.3 10.1 3.4 20.2 6.2 30l-3.3-66.7s-2.5-3.8-4-2.3zm-4.4-18.9c.9.5 4.7 9.6 2.9 13.4s-2.9-13.4-2.9-13.4zm-33.8-79.5c-1.8-3.5-4.5-6.3-7.9-8.3 2.5 1.8 4.5 4.2 5.9 6.9 1.5 3.1 1.1 6.1-1.9 7.9s-4 4.6-5.4 7.8c-1.4 2.9-2.9 6-5.6 7.7-3.6 2.1-8.3 1.4-12 3.2-3.4 1.8-5.3 5.4-4.9 9.2.2 1.4.6 2.8 1 4.2.8 3 1.2 6 1.1 9.1 0 .2 0 .4-.1.6-.2.3-.6.5-.9.4-.9.1-1.9-.1-2.7-.5 1.2 1.2 2.9 1.9 4.7 1.8.5.1.9-.3 1-.8v-.2c.1-3.1-.3-6.1-1.1-9.1-.5-1.4-.8-2.8-1.1-4.2-.4-3.8 1.6-7.4 4.9-9.2 3.7-1.9 8.4-1.1 12-3.2 2.8-1.7 4.3-4.8 5.6-7.7 1.5-3.2 2.3-6 5.4-7.8s3.5-4.8 2-7.8z"/><path d="M365.8 662.5c201 0 364 19.9 364 44.5s-163 44.5-364 44.5-364-19.9-364-44.5 162.9-44.5 364-44.5zm153.8 105.8c22.6 0 41 2.5 41 5.6s-18.4 5.6-41 5.6-41-2.5-41-5.6 18.4-5.6 41-5.6zM29.3 735.9c16.1 0 29.1 1.8 29.1 4s-13 4-29.1 4-29.1-1.8-29.1-4 13-4 29.1-4z" opacity=".1"/><path class="st7" d="M869.9 465.5h59.7c1 0 1.9.8 1.9 1.9v11.5c0 1-.8 1.9-1.9 1.9h-59.7c-1 0-1.9-.8-1.9-1.9v-11.5c0-1.1.8-1.9 1.9-1.9zM536.2 766.9c1.8-1.5 3.2-3.5 3.8-5.8.5-2.3-.5-5-2.7-5.9-2.5-.9-5.1.8-7.1 2.5s-4.3 3.7-6.9 3.3c2.7-2.5 4-6.2 3.2-9.8-.1-.7-.4-1.4-.9-2-1.4-1.5-3.8-.8-5.5.3-5.2 3.7-6.7 10.7-6.7 17.1-.5-2.3-.1-4.7-.1-7s-.7-5-2.6-6.2c-1.2-.7-2.6-1-4-.9-2.3-.1-4.9.1-6.5 1.8-2 2.1-1.5 5.7.3 8s4.4 3.8 6.8 5.4c1.9 1.2 3.6 2.7 4.8 4.6.1.3.3.5.4.8h14.7c3.3-1.6 6.3-3.7 9-6.2zm-499-40.1c1.8-1.5 3.2-3.5 3.8-5.8.5-2.3-.5-5-2.7-5.9-2.5-.9-5.1.8-7.1 2.5s-4.3 3.7-6.9 3.3c2.7-2.5 4-6.2 3.2-9.8-.1-.7-.4-1.4-.9-2-1.4-1.5-3.8-.8-5.5.3-5.2 3.7-6.6 10.7-6.7 17.1-.5-2.3-.1-4.7-.1-7s-.7-5-2.6-6.2c-1.2-.7-2.6-1-4-.9-2.3-.1-4.9.2-6.5 1.8-2 2.1-1.5 5.7.3 8s4.3 3.8 6.8 5.4c1.9 1.2 3.6 2.7 4.8 4.6.1.3.3.5.4.8h14.6c3.4-1.6 6.4-3.7 9.1-6.2zm697.7-72.4s5.5 7.2-2.5 18-14.7 20-12 26.8c0 0 12.1-20.2 22-20.4s3.4-12.3-7.5-24.4zm-29 0s-5.5 7.2 2.5 18 14.7 20 12 26.8c0 0-12.1-20.2-22-20.4s-3.3-12.3 7.5-24.4z"/><path class="st13" d="M734.9 654.4c.5.7.9 1.5 1.1 2.3 9.6 11.3 14.7 21.8 5.5 22.1-8.6.3-18.9 15.7-21.4 19.5l.3.9s12.1-20.2 22-20.4 3.4-12.3-7.5-24.4zm-29 0c-.5.7-.9 1.5-1.1 2.3-9.6 11.3-14.7 21.8-5.5 22.1 8.6.3 18.9 15.7 21.4 19.5l-.3.9s-12.1-20.2-22-20.4-3.3-12.3 7.5-24.4z"/><path d="M745.1 663.5c0 2.5-.3 4.6-.6 4.6s-.6-2-.6-4.6.3-1.3.7-1.3.5-1.2.5 1.3zm3.5 3.1c-2.2 1.2-4.2 1.9-4.3 1.6s1.5-1.5 3.7-2.7 1.3-.3 1.5 0 1.3-.1-.9 1.1zm-52.9-3.1c0 2.5.3 4.6.6 4.6s.6-2 .6-4.6-.3-1.3-.7-1.3-.5-1.2-.5 1.3zm-3.5 3.1c2.2 1.2 4.2 1.9 4.3 1.6s-1.5-1.5-3.7-2.7-1.3-.3-1.5 0-1.4-.1.9 1.1z" fill="#ffd037"/><path d="M697.4 698.2s15.4-.5 20-3.8 23.6-7.2 24.8-2 23.1 26.3 5.7 26.4-40.3-2.7-44.9-5.5-5.6-15.1-5.6-15.1z" fill="#a8a8a8"/><path d="M748.2 717.1c-17.3.1-40.3-2.7-44.9-5.5-3.5-2.1-4.9-9.8-5.4-13.4h-.5s1 12.4 5.6 15.2 27.6 5.7 44.9 5.5c5 0 6.7-1.8 6.6-4.5-.6 1.7-2.5 2.7-6.3 2.7z" opacity=".2"/></svg>