<svg xmlns="http://www.w3.org/2000/svg" viewBox="0 0 999 834"><path opacity=".1" d="M323.8 29.7C353 3.7 398.9-1.7 440.6.4 571.7 6.9 690 70.2 792.4 141.8c37.1 25.9 73.5 53.8 97.6 89.5 49 72.7 34.4 173.3-33.6 233.1-23.2 20.4-51.3 36-80.1 49.8-51.3 24.6-106.6 44.3-164.8 50-41.5 4-83.5.8-124.7-4.8-115.2-15.7-228.3-50.2-323.1-109.3-41.6-25.9-80.8-58.2-97.9-100.1s-6.2-95.1 36.3-120c17.6-10.3 38.6-14.9 59.1-19.3 30.3-6.4 61-12.7 88.3-25.8 28.2-13.5 61.6-39.5 56-69.3-6-31.9-10.8-59.9 18.3-85.9zm50.4 764.4c65.7 0 118.9 8.9 118.9 19.9s-53.3 20-118.9 20-118.9-8.9-118.9-19.9 53.2-20 118.9-20zm234-153c65.7 0 118.9 8.9 118.9 19.9s-53.3 20-118.9 20-118.9-8.9-118.9-19.9 53.2-20 118.9-20zM90.8 754.5c24.4 0 44.2 3.9 44.2 8.6s-19.8 8.6-44.2 8.6-44.2-3.9-44.2-8.6 19.8-8.6 44.2-8.6zm736.5-54.6c17.8 0 32.2 2.8 32.2 6.3s-14.4 6.3-32.2 6.3-32.2-2.8-32.2-6.3 14.4-6.3 32.2-6.3zm139.5 25.5c17.8 0 32.2 2.8 32.2 6.3s-14.4 6.3-32.2 6.3-32.2-2.8-32.2-6.3 14.4-6.3 32.2-6.3zm-216 52.5c17.8 0 32.2 2.8 32.2 6.3s-14.4 6.3-32.2 6.3-32.2-2.8-32.2-6.3 14.4-6.3 32.2-6.3zM113.5 631.5c41.8 0 75.7 5.2 75.7 11.6s-33.9 11.6-75.7 11.6-75.7-5.2-75.7-11.6 33.9-11.6 75.7-11.6zM180 93c17.4 0 31.5 14.1 31.5 31.5S197.4 156 180 156s-31.5-14.1-31.5-31.5S162.6 93 180 93zm-66-63c10.8 0 19.5 8.7 19.5 19.5S124.8 69 114 69s-19.5-8.7-19.5-19.5S103.2 30 114 30zM12 81c6.6 0 12 5.4 12 12s-5.4 12-12 12S0 99.6 0 93s5.4-12 12-12zm120.6 442.3c.6.9 1.1 1.9 1.5 3 12.7 14.9 19.4 28.8 7.2 29.1-11.3.3-24.9 20.6-28.2 25.7.1.4.2.8.4 1.2 0 0 16-26.5 28.9-26.9s4.5-16.1-9.8-32.1zm-38.2 0c-.6.9-1.1 1.9-1.5 3-12.7 14.9-19.4 28.8-7.2 29.1 11.3.3 25 20.6 28.2 25.7-.1.4-.2.8-.4 1.2 0 0-16-26.5-29-26.9s-4.4-16.1 9.9-32.1z"/><path d="M132.6 523.3s7.2 9.5-3.3 23.8-19.3 26.3-15.8 35.3c0 0 15.9-26.5 28.9-26.9s4.5-16.2-9.8-32.2zm-38.2 0s-7.2 9.5 3.3 23.8 19.3 26.3 15.8 35.3c0 0-16-26.5-29-26.9s-4.4-16.2 9.9-32.2z"/><path fill="none" stroke="#535461" stroke-width="2" stroke-miterlimit="10" d="M685 668.9s25.1-44.4 62.8-57.2c15.9-5.3 29.6-15.5 39.1-29.3 4.5-6.6 8.3-13.5 11.5-20.8"/><path d="M822.1 553.5c-4.3 4.2-24.3 8.5-24.3 8.5s4.9-19.9 9.2-24.1c4.3-4.1 11.2-4 15.3.3 4.2 4.3 4.1 11.1-.2 15.3zm-11.3 36c-5.9 1.2-25-6.1-25-6.1s14.9-14 20.8-15.2c5.9-1.2 11.6 2.7 12.8 8.5 1.1 5.9-2.7 11.6-8.6 12.8zm-41.2 38.9c-5.7-2-18.5-17.9-18.5-17.9s20-4.6 25.6-2.6c5.7 1.8 8.8 7.9 7 13.7-1.8 5.7-7.9 8.8-13.7 7-.1-.1-.3-.1-.4-.2zm-37.9 22.4c-5.9-1-21.3-14.5-21.3-14.5s18.9-7.9 24.8-6.9c5.9.9 10 6.5 9.1 12.4-.9 5.9-6.5 10-12.4 9.1-.1 0-.1 0-.2-.1zm37.4-83c0 6 10.8 23.4 10.8 23.4s10.9-17.4 10.9-23.4-4.9-10.8-10.8-10.9c-6.1.1-10.9 5-10.9 10.9zm-44 26.8c1.8 5.7 17.3 19.1 17.3 19.1s5.2-19.8 3.4-25.5c-1.8-5.7-8-8.8-13.7-7-5.5 1.8-8.7 7.8-7 13.4zM686 626.5c.8 5.9 13.9 21.7 13.9 21.7s8.4-18.7 7.6-24.6c-.8-5.9-6.3-10.1-12.3-9.2-5.8.9-9.9 6.3-9.2 12.1z"/><path opacity=".25" d="M822.1 553.5c-4.3 4.2-24.3 8.5-24.3 8.5s4.9-19.9 9.2-24.1c4.3-4.1 11.2-4 15.3.3 4.2 4.3 4.1 11.1-.2 15.3zm-11.3 36c-5.9 1.2-25-6.1-25-6.1s14.9-14 20.8-15.2c5.9-1.2 11.6 2.7 12.8 8.5 1.1 5.9-2.7 11.6-8.6 12.8zm-41.2 38.9c-5.7-2-18.5-17.9-18.5-17.9s20-4.6 25.6-2.6c5.7 1.8 8.8 7.9 7 13.7-1.8 5.7-7.9 8.8-13.7 7-.1-.1-.3-.1-.4-.2zm-37.9 22.4c-5.9-1-21.3-14.5-21.3-14.5s18.9-7.9 24.8-6.9c5.9.9 10 6.5 9.1 12.4-.9 5.9-6.5 10-12.4 9.1-.1 0-.1 0-.2-.1zm37.4-83c0 6 10.8 23.4 10.8 23.4s10.9-17.4 10.9-23.4-4.9-10.8-10.8-10.9c-6.1.1-10.9 5-10.9 10.9zm-44 26.8c1.8 5.7 17.3 19.1 17.3 19.1s5.2-19.8 3.4-25.5c-1.8-5.7-8-8.8-13.7-7-5.5 1.8-8.7 7.8-7 13.4zM686 626.5c.8 5.9 13.9 21.7 13.9 21.7s8.4-18.7 7.6-24.6c-.8-5.9-6.3-10.1-12.3-9.2-5.8.9-9.9 6.3-9.2 12.1z"/><path fill="none" stroke="#535461" stroke-width="2" stroke-miterlimit="10" d="M686.4 668s4.9-50.7 34.2-77.7a76.64 76.64 0 0 0 23.9-42.6c1.4-7.8 2.2-15.7 2.1-23.7"/><path d="M765 506.9c-2.2 5.6-18.8 17.6-18.8 17.6s-3.6-20.2-1.3-25.7c2.1-5.6 8.3-8.5 14-6.4 5.6 2.1 8.5 8.3 6.4 14-.1.2-.2.3-.3.5zm4.3 37.5c-4.9 3.5-25.4 4.6-25.4 4.6s8-18.9 12.9-22.3c4.9-3.4 11.7-2.3 15.1 2.7 3.4 4.8 2.3 11.6-2.6 15zm-22 52.3c-6 .5-24.2-8.9-24.2-8.9s16.4-12.3 22.3-12.8c6-.5 11.2 3.9 11.7 9.9.6 6.1-3.8 11.3-9.8 11.8zm-25.5 35.9c-5.8 1.5-25.3-4.6-25.3-4.6s14.1-14.9 19.9-16.4c5.8-1.6 11.8 1.7 13.4 7.5 1.6 5.8-1.7 11.8-7.5 13.4-.2 0-.3 0-.5.1zm.5-91.1c2.4 5.5 19.4 17 19.4 17s2.9-20.3.5-25.8c-2.5-5.4-9-7.8-14.4-5.3-5.3 2.6-7.7 8.8-5.5 14.1zM693 583.8c4 4.5 23.6 10.4 23.6 10.4s-3.3-20.2-7.3-24.7c-3.9-4.6-10.7-5.1-15.3-1.3-4.6 3.9-5.1 10.7-1.3 15.3.2.2.3.2.3.3zm-22.8 45.1c3.1 5.1 21.5 14.2 21.5 14.2s.2-20.5-3-25.6c-3.1-5.1-9.8-6.7-14.9-3.6s-6.7 9.9-3.6 15z"/><path fill="#B77B7F" d="M616 398l-.1 3.9-6.8 238.5h-11.4l5.6-238.5.1-4.5 12.6.6z"/><path fill="#DDA2A6" d="M681.8 600.1h-8.5l-126.4-.3h-6.7l3.6-11.1H681l.8 11.4z"/><path opacity=".1" d="M616 398l-.1 3.9h-12.5l.1-4.5 12.5.6z"/><path fill="#B77B7F" d="M599.8 392.2h21.1v7.9h-21.1v-7.9z"/><path opacity=".1" d="M548 588.7l-1.1 11.1h-6.7l3.6-11.1h4.2z"/><path fill="#DDA2A6" d="M566.1 392l-.3 3.4-28 276.6-12.8-.6 29.6-276 .3-3.1 11.2-.3z"/><path opacity=".1" d="M681.8 600.1h-8.5l-1.2-11.3h8.8l.9 11.3z"/><path fill="#DDA2A6" d="M695.3 671.5l-12.9.6-28-276.6-.4-3.5 11.3.3.3 3.1 29.7 276.1z"/><path fill="#FFF" d="M466.6 119.3H750V391H466.6V119.3z"/><path fill="#DDA2A6" d="M613.8 28.4V94h-11V28.4c-.1-3.1 2.2-5.6 5.3-5.8s5.6 2.2 5.8 5.3c-.1.2-.1.4-.1.5z"/><path opacity=".1" d="M602.8 88.1h11.1v6h-11.1v-6z"/><path fill="#DDA2A6" d="M618.2 92.5v21.7h-19.7V92.5c0-1.5 1.2-2.7 2.7-2.7h14.3c1.5.1 2.7 1.3 2.7 2.7z"/><circle opacity=".1" cx="608.3" cy="103.6" r="4.2"/><circle fill="#B77B7F" cx="608.3" cy="102.7" r="4.2"/><path opacity=".1" d="M598.4 111.5h19.7v2.7h-19.7v-2.7zm-8.1 3.6h35.9v6h-35.9v-6z"/><path fill="#DDA2A6" d="M590.3 113.3h35.9v6h-35.9v-6z"/><path opacity=".1" d="M535.7 384h150.7c3.6 0 6.5 2.9 6.5 6.5v1.4H529.2v-1.4c0-3.6 2.9-6.5 6.5-6.5zm19.1 8.4l11.4-.3-.3 3.4h-11.3l.2-3.1zm45-.2h21.1v3.3h-21.1v-3.3zm65.9 3.3h-11.3l-.3-3.4 11.3.3.3 3.1z"/><path fill="#DDA2A6" d="M535.7 385.8h150.7c3.6 0 6.5 2.9 6.5 6.5v1.4H529.2v-1.4c0-3.6 2.9-6.5 6.5-6.5z"/><linearGradient id="a" gradientUnits="userSpaceOnUse" x1="499.152" y1="-23.573" x2="499.152" y2="662.468" gradientTransform="matrix(1 0 0 -1 -100.52 800.88)"><stop offset="0" stop-color="gray" stop-opacity=".25"/><stop offset=".54" stop-color="gray" stop-opacity=".12"/><stop offset="1" stop-color="gray" stop-opacity=".1"/></linearGradient><path fill="url(#a)" d="M502.7 259.6c-2.3-1.2-27-19.9-27-19.9l-39.9-25.3s-.2-.6-.6-1.6c11-12.4 8.6-30.5-2.6-43.1-13.5-15.4-74.5-48.5-92.9-20.2-2.6 4-2.7 8.5-3.3 12.9-1.6 10.3-6.6 20.2-14.6 28.6-6.1 6.5-14.1 12.4-17.7 19.8 0-.1-.1-.2-.1-.3-.8 1.6-1.5 3.3-1.8 5-1.8 8.9 4.3 17.5 7.4 26.2 1.1 2.9 1.8 6 2.3 9.1.1-.6.1-1.2.2-1.9.8 4.4 1 8.9.8 13.4-22.1 4.5-22.2 42.4-22.2 42.4s-2.7 15.1-2.3 20.5.5 17.2.5 20-2.7 20.5-3 22.6v.1c-.4 2.3-4.5 13.5 5.5 16 .7.2 1.4.3 2.2.5.4 9 1.2 28 .5 32.2 0 0 3.6 25.5 6.7 31.9 1.9 3.8 4.2 7.4 6.7 10.8-.2 1.6-.7 3-1.5 4.4-1.5 2.2-.8 4.1 1.8 4.9-.1.8-.2 1.6-.3 2.6-1.1 9.8-2.8 29.3 0 39.2 3.9 13.6 4.1 18.1 4.1 18.1s0 4.1 1.6 6.3 4.5 23.3 4.5 26.7 7.7 33.9 5.5 41.1-.5 17.4-.5 17.4-1.4 17.8-3 21.7-2.3 65.8.2 81.8 4.1 29.4 4.1 29.4-1.6 14.7-.2 16.7 3.9 14.2 2 14.9-2.7 5.7-2.7 5.7c1 1.5 2 2.9 3.1 4.2-.7-.2-1.4-.5-2-.9.7 1 1.8 2.4 3.1 4l-1.3 16.3c-.1 1.3.7 2.5 2 2.8 8.1 2.2 16.8-.2 22.6-6.4 11.4-11.5 15.3-9.9 17.3-16.9.2-.8.4-1.5.6-2.2 1.5-6.2-5.2-10.9-10.5-8.2.7-4.9 1.3-10.5.8-13.7-1.1-6.5-.9-23.7-.9-23.7l-1.6-82.3s3-16.3 6.4-22.6 3-28.5 3-28.5l3.9-72.8 3.6-35.5s3.6-12.2 8.2 1.4c0 0-2.5 27.3-1.4 33.9s2.7 38.4 1.6 45.4-6.1 45.4-3 55.1 6.6 21.5 5.9 25.3-3 87.2-3 87.2 6.1 16 1.6 21.2-.2 26-.2 26 .5.4 1.5.9l-.1 1.7-1.4 18.7c-.1 1.3.7 2.5 2 2.9 8.1 2.2 16.8-.2 22.6-6.4 11.4-11.5 15.3-9.9 17.3-17 .2-.8.4-1.5.6-2.2 1.6-6.8-6.5-11.8-11.9-7.3l-.3.2c-.3.2-.6.5-.9.7-.1.1-.3.2-.5.3 1.1-5.2 2.8-14 2-18.1-1.1-6.1 1.1-24.6 1.1-24.6s6.6-22.2 6.8-31l1.8-70.5s-.2-28.7.7-35.7 8.2-67.6 15.5-85.6c5.6-13.8 8.1-49.2 6.6-67.1-.1-.9-.2-1.7-.3-2.5 8.9-6.6 9.8-17.5 9.8-17.5s-8.2-15.7-16.1-22.3-9.6-18-9.3-22.9c.1-3-.8-5.9-2.7-8.1 0 0-3.6-11.8-6.1-13-.2-.1-.4-.2-.5-.4-1.7-1.8-.4-6.8-.4-6.8v-.2c.3-1.2 2-8.8 1.5-10.7-.6-2.1.3-12 .3-12s5.8-17.2 4.9-30.7 11.8-12.4 11.8-12.4l39.4-.4h4.5c1.6-1.3 3-2.8 4.3-4.5 7.5-.9 22.7-3.7 24.4-12 2.6-10.8-6.8-22-9.1-23.2zM320.3 385l.3-6.9c.9.8 1.5 1.3 1.5 1.3.5 1.8.5 3.7.1 5.5-.5 1.7-1.8 3.1-3.4 3.8-.2.1-.4.2-.5.3l-.4-3.9 2.4-.1zm142.8-121c-1.7-.8-7.3-.6-10.2-.6s-7.6-2.4-7.6-2.4c-1-2-6.5-3.1-11.5-3.8-3.7-9.2-9-18.2-9.7-27.8v-1l.6 1s22.9 14.6 25.5 19c2 3.3 11.6 10.8 16.1 14.1-.6.8-1.5 1.4-2.5 1.6-.2 0-.5 0-.7-.1z"/><path fill="#67647E" d="M425.2 798.2c-.2.7-.4 1.4-.6 2.2-2 7-5.8 5.4-17 16.8-5.7 6.1-14.2 8.5-22.3 6.3-1.3-.3-2.1-1.5-2-2.8l1.4-18.5.7-8.9s17.8 5 26.9-1.3c.3-.2.6-.4.9-.7l.2-.2c3.1-2.6 7.7-2.1 10.3 1 1.5 1.6 2 3.9 1.5 6.1zm-56-7c-.2.7-.4 1.4-.6 2.2-2 7-5.8 5.4-17 16.8-5.7 6.1-14.2 8.5-22.3 6.3-1.3-.3-2.1-1.5-2-2.8l1.4-18.5.7-8.9s17.8 5 26.9-1.3c.3-.2.6-.4.9-.7l.2-.2c3.1-2.6 7.7-2.1 10.3 1 1.5 1.6 2 3.9 1.5 6.1z"/><path opacity=".1" d="M350.8 794l.7 9.6c-10.2 10.2-22.4-5-26-10 9.4 4.9 25.3.4 25.3.4zm60.2 3.9l1.3-.9c-9.4 14.2-23.2 7.7-27.6 5.1l.7-8.9s17.8 5 26.9-1.3c-.6 3.4-1.3 6-1.3 6z"/><path fill="#444053" d="M439.5 528.7c-7.2 17.9-14.4 78-15.3 85s-.7 35.4-.7 35.4l-1.8 69.9c-.2 8.8-6.7 30.7-6.7 30.7s-2.2 18.4-1.1 24.4-2.9 22-2.9 22l1.3-.9c-11.2 17-28.9 4.3-28.9 4.3s-4.3-20.6.2-25.8-1.6-21.1-1.6-21.1 2.2-82.7 2.9-86.5-2.7-15.5-5.8-25.1 1.8-47.8 2.9-54.7-.5-38.6-1.6-45.1 1.3-33.6 1.3-33.6c-4.5-13.5-8.1-1.3-8.1-1.3l-3.6 35.2-3.8 72.2s.5 22-2.9 28.3-6.3 22.4-6.3 22.4l1.6 81.6s-.2 17 .9 23.5-2.5 23.3-2.5 23.3c-12.5 29.6-32.7-2.5-32.7-2.5s.9-4.9 2.7-5.6-.7-12.8-2-14.8.2-16.6.2-16.6-1.6-13.2-4-29.1-1.8-77.3-.2-81.2 2.9-21.5 2.9-21.5-1.8-10.1.5-17.3-5.4-37.4-5.4-40.8-2.9-24.2-4.5-26.5-1.6-6.3-1.6-6.3-.2-4.5-4-17.9c-2.8-9.8-1.1-29.2 0-38.9.4-3.6.7-5.9.7-5.9s128.6-20.9 133.7-16.1c1.2 1.1 2 4.9 2.5 10.4 1.7 17.7-.8 52.8-6.3 66.5z"/><path opacity=".1" d="M390.8 629.5c.6 0 14.8 1.2 20 .2s-20-.2-20-.2zm1.1 8.3s19.6 3.4 20.6 1.7-20.6-1.7-20.6-1.7zm-60-3.5s10.2.5 15.7 3-15.7-3-15.7-3z"/><path fill="#EFB7B9" d="M295 382.9s1.6 31.2.8 36.8c0 0 3.6 25.3 6.6 31.7s9.4 14.5 9.4 14.5l8.8-62-2.1-21.2-23.5.2z"/><circle fill="#EFB7B9" cx="387.7" cy="206.1" r="34.5"/><path fill="#EFB7B9" d="M369.8 222.2s-10.8 21.1-21.5 30.9c-10.8 9.9 64.6 21.1 66.4 21.1s-13.5-44.8-10.8-50.2-34.1-1.8-34.1-1.8z"/><path opacity=".1" d="M446 462.1c-1.7 1.3-3.6 2.3-5.5 3.1-13.7 5.4-28.7 12.9-38.9 9.9s-31.7 0-31.7 0-43.4-3.6-52-1.5c-3.9 1-7 .9-9 .2.4-3.6.7-5.9.7-5.9s128.7-20.9 133.9-16.1c1.2 1.1 2 4.9 2.5 10.3z"/><path fill="#A36468" d="M455.4 442.2s-1.2 15-15 20.3-28.7 12.9-38.9 9.9-31.7 0-31.7 0-43.4-3.6-52-1.5-13.2-.6-10.5-4.5 2.4-16.7 2.4-22.1-3-27.2-.3-31.1 5.1-18.8 10.5-21.2c1.6-.7 2.9-2.1 3.4-3.8.4-1.8.4-3.7-.1-5.5 0 0-.9-.8-2.2-1.9-3.2-2.8-8.5-8.1-6.8-9.8 2.4-2.4 0-17.9 0-17.9s-5.7-12-3.6-16.4-18.2-28.1-18.2-28.1 0-40.6 24.5-42.4c0 0 17.3.6 19.4-7.2 2.1-7.8 15.8-12.3 15.8-12.3l31.4 6.9s27.8 6 32.9 2.4c5.1-3.6 9 4.8 9 4.8s17.3.9 19.1 4.5-5.7 38.5-5.7 38.5-12.6-1.2-11.7 12.3-4.8 30.5-4.8 30.5-.9 9.9-.3 12c.6 1.9-1.2 9.5-1.5 10.6v.1s-1.3 5 .4 6.8c.2.2.3.3.5.4 2.4 1.2 6 12.9 6 12.9 1.9 2.3 2.8 5.1 2.7 8.1-.3 4.8 1.5 16.1 9.3 22.7s16 22 16 22z"/><path fill="#A36468" d="M322.1 373v1.3l-.5 14s-18.4 1.5-28.4-1-5.8-13.6-5.4-15.9v-.1c.3-2.1 3-19.6 3-22.4s0-14.5-.5-19.9 2.2-20.4 2.2-20.4l1.9-2.4 21.1 8.1 6.6 58.7z"/><path opacity=".1" d="M322 374.3l-.5 14s-18.4 1.5-28.4-1-5.8-13.6-5.4-15.9l34.3 2.9z"/><path opacity=".1" d="M323.3 388.2c.4-1.8.4-3.7-.1-5.5 0 0-.9-.8-2.2-1.9 15.8-2.2 78.5-10.8 99.6-11.8v.1s-1.3 5 .4 6.8l-97.7 12.3zm99.8 10.8s3.9 22-10.6 29.7c0 .1 8.2-10.8 10.6-29.7zm-94.9 30.4s35-6 41.9-1.3-41.9 1.3-41.9 1.3zM411 293.2s-5.4 22.1-1.4 27.2 1.4-27.2 1.4-27.2zm-101.3-18.1s4.9 8.2 1.9 16.7-1.9-16.7-1.9-16.7zm-10.2 72.1s6.3 3.7 4.2 9.6-4.2-9.6-4.2-9.6zm-.6-17.1s5.8 3.1 6.6 7.8-6.6-7.8-6.6-7.8zm86.4 178.8s36.6 3.7 43.9-4.9c0 0-33 6.5-43.9 4.9zm-63.2-2.1s39.3 9.3 47.1 1.9c-.1 0-33.8 2.6-47.1-1.9zm66 14.2s16.4 0 24.1.5-24.1-.5-24.1-.5zm-63.3 7s8.1 9.1 17.2 7.5-17.2-7.5-17.2-7.5z"/><path fill="#E3787D" d="M340.6 154.6c-2.5 3.9-2.6 8.5-3.3 12.8-1.5 10.2-6.5 20.1-14.3 28.4-7.2 7.6-17 14.5-18.9 23.8-1.8 8.8 4.2 17.4 7.3 26 8.3 22.7-3.3 46.5-6.6 69.9-.9 6.5.2 14.7 8.2 16.9 2.5.7 5.3.6 7.6 1.7 3 1.4 3.9 4.4 4.5 7.1 2 9.6 2.7 19.5 2.1 29.3-.4 5.5-.8 11.8 4.4 15.6 2.4 1.7 5.5 2.6 8.6 3.4 8.2 2.2 18.8 4 24.3-1.2 2.3-2.2 3.2-5.2 6.1-7 4.3-2.6 10.5-.8 15.9-.6 11.2.6 21.5-6 25.9-13.9s4-17 2.4-25.5-4.5-17-4.7-25.7c-.1-3 .2-6 1.9-8.7 3.3-5.1 11.1-7.5 16.4-11.5 9.9-7.6 9.9-20 6.3-30.5-3.6-10.4-10.1-20.4-10.9-31.2-.4-2.6.2-5.3 1.5-7.5 1.4-2.2 3.9-3.8 6-5.6 14.5-12.2 12.8-32.3.8-46.1-13.3-15.1-73.4-48-91.5-19.9z"/><path opacity=".1" d="M313.3 255.1c1.1-9.1.9-18.1-2.3-26.9-1.6-4.3-3.9-8.6-5.5-13-.8 1.6-1.4 3.3-1.8 5-1.8 8.8 4.2 17.4 7.3 26 1.1 2.9 1.8 5.9 2.3 8.9zm13.4 97.9c.6-9.8-.1-19.7-2-29.3-.6-2.7-1.5-5.7-4.5-7.1-2.2-1.1-5.1-1-7.6-1.7-3.1-.7-5.7-2.9-7-5.8-.5 2.3-.9 4.5-1.2 6.8-.9 6.5.2 14.7 8.2 16.9 2.5.7 5.3.6 7.6 1.7 3 1.4 3.9 4.4 4.5 7.1.9 4.5 1.6 9 1.9 13.5 0-.6 0-1.3.1-2.1zm85.2-3.5c-4.4 7.9-14.7 14.5-25.9 13.9-5.5-.3-11.6-2-15.9.6-2.9 1.7-3.8 4.8-6.1 7-5.5 5.1-16.1 3.4-24.3 1.2-3.1-.8-6.2-1.7-8.6-3.4-2.3-1.7-3.8-4.1-4.3-6.9.1 3.1 0 6.1-.2 9.2-.4 5.5-.8 11.8 4.4 15.6 2.4 1.7 5.5 2.6 8.6 3.4 8.2 2.2 18.8 4 24.3-1.2 2.3-2.2 3.2-5.2 6.1-7 4.3-2.6 10.5-.8 15.9-.6 11.2.6 21.5-6 25.9-13.9 4.2-7.6 4-16.3 2.6-24.5-.5 2.3-1.4 4.5-2.5 6.6zm18.9-146.2c-2.1 1.8-4.6 3.4-6 5.6-1.3 2.3-1.8 4.9-1.5 7.5.3 3.3 1 6.5 2.1 9.6 1.7-1.8 3.5-3.4 5.5-4.8 9.8-8.3 12.2-20.1 9-31.2-1.7 5.2-4.8 9.8-9.1 13.3zm-2.9 74.7c-5.3 4-13 6.4-16.4 11.5-1.7 2.7-2 5.7-1.9 8.7.1 3.5.6 7 1.3 10.4l.6-1.2c3.3-5.1 11.1-7.5 16.4-11.5 9.1-6.9 9.8-17.9 7.1-27.7-1.3 4-3.8 7.4-7.1 9.8z"/><path fill="#EFB7B9" d="M482.3 299.3s25.9-1.3 28.1-12.3-7-22-9.3-23.2-26.6-19.7-26.6-19.7L435.2 219s-18.8-54-23-33.3 12.1 48.1 12.1 48.1 22.6 14.5 25.1 18.8c2.5 4.3 18.1 15.7 18.1 15.7l14.8 31z"/><path fill="#A36468" d="M496.2 281.7c-6.1 15.5-14 21.7-14 21.7h-4.4l-38.8.4-4.5-12.2 6.3-26.5 3.9.2s4.6 2.4 7.5 2.4 8.4-.1 10 .6c.2.1.5.1.7.1 1.5-.1 3-2.4 3-2.4s36.4.2 30.3 15.7z"/><path opacity=".1" d="M496.2 281.7c-6.1 15.5-14 21.7-14 21.7h-4.4c2.3-6.2 7.1-18.8 9-21.7 1.8-2.8-14.4-9.6-23.9-13.3 1.5-.1 3-2.4 3-2.4s36.4.2 30.3 15.7z"/><path fill="#FFD037" d="M146 535.4c0 3.3-.4 6-.8 6s-.8-2.7-.8-6 .5-1.8.9-1.8.7-1.6.7 1.8z"/><path fill="#FFD037" d="M150.6 539.3c-2.9 1.6-5.5 2.6-5.7 2.2s2-2 4.9-3.6 1.8-.4 2 0 1.8-.2-1.2 1.4zm-69.7-3.9c0 3.3.4 6 .8 6s.8-2.7.8-6-.5-1.8-.9-1.8-.7-1.6-.7 1.8z"/><path fill="#FFD037" d="M76.3 539.3c2.9 1.6 5.5 2.6 5.7 2.2s-2-2-4.9-3.6-1.8-.4-2 0-1.7-.2 1.2 1.4z"/><path fill="#65617D" d="M152.4 569.5l-.4 3-.5 4.2-.2 1.7-.5 4.2-.2 1.7-.5 4.2-5.8 47.4c-.5 4.2-7.4 7.5-15.8 7.5h-30c-8.4 0-15.3-3.3-15.8-7.5l-5.8-47.5-.5-4.2-.2-1.7-.5-4.2-.2-1.7-.5-4.2-.4-3c-.3-2.4 3.4-4.4 8.2-4.4h61.5c4.6.1 8.4 2.2 8.1 4.5z"/><path fill="#9D9CB5" d="M152 572.5l-.5 4.2H75.4l-.5-4.2H152zm-.7 5.9l-.5 4.2H76.1l-.5-4.2h75.7zm-.7 5.9l-.5 4.2H76.8l-.5-4.2h74.3z"/></svg>