<?xml version="1.0" encoding="utf-8"?>
<!-- Generator: Adobe Illustrator 22.1.0, SVG Export Plug-In . SVG Version: 6.00 Build 0)  -->
<svg version="1.1" id="图层_1" xmlns="http://www.w3.org/2000/svg" xmlns:xlink="http://www.w3.org/1999/xlink" x="0px" y="0px"
	 viewBox="0 0 999 834" enable-background="new 0 0 999 834" xml:space="preserve">
<path opacity="0.1" enable-background="new    " d="M323.8,29.7C353,3.7,398.9-1.7,440.6,0.4
	C571.7,6.9,690,70.2,792.4,141.8c37.1,25.9,73.5,53.8,97.6,89.5c49,72.7,34.4,173.3-33.6,233.1c-23.2,20.4-51.3,36-80.1,49.8
	c-51.3,24.6-106.6,44.3-164.8,50c-41.5,4-83.5,0.8-124.7-4.8c-115.2-15.7-228.3-50.2-323.1-109.3c-41.6-25.9-80.8-58.2-97.9-100.1
	s-6.2-95.1,36.3-120c17.6-10.3,38.6-14.9,59.1-19.3c30.3-6.4,61-12.7,88.3-25.8c28.2-13.5,61.6-39.5,56-69.3
	C299.5,83.7,294.7,55.7,323.8,29.7L323.8,29.7z M374.2,794.1c65.7,0,118.9,8.9,118.9,19.9S439.8,834,374.2,834
	s-118.9-8.9-118.9-19.9S308.5,794.1,374.2,794.1z M608.2,641.1c65.7,0,118.9,8.9,118.9,19.9S673.8,681,608.2,681
	s-118.9-8.9-118.9-19.9S542.5,641.1,608.2,641.1z M90.8,754.5c24.4,0,44.2,3.9,44.2,8.6s-19.8,8.6-44.2,8.6s-44.2-3.9-44.2-8.6
	S66.4,754.5,90.8,754.5z M827.3,699.9c17.8,0,32.2,2.8,32.2,6.3s-14.4,6.3-32.2,6.3s-32.2-2.8-32.2-6.3S809.5,699.9,827.3,699.9z
	 M966.8,725.4c17.8,0,32.2,2.8,32.2,6.3s-14.4,6.3-32.2,6.3s-32.2-2.8-32.2-6.3S949,725.4,966.8,725.4z M750.8,777.9
	c17.8,0,32.2,2.8,32.2,6.3s-14.4,6.3-32.2,6.3s-32.2-2.8-32.2-6.3S733,777.9,750.8,777.9z M113.5,631.5c41.8,0,75.7,5.2,75.7,11.6
	s-33.9,11.6-75.7,11.6s-75.7-5.2-75.7-11.6S71.7,631.5,113.5,631.5z M180,93c17.4,0,31.5,14.1,31.5,31.5S197.4,156,180,156
	s-31.5-14.1-31.5-31.5S162.6,93,180,93z M114,30c10.8,0,19.5,8.7,19.5,19.5S124.8,69,114,69s-19.5-8.7-19.5-19.5S103.2,30,114,30z
	 M12,81c6.6,0,12,5.4,12,12s-5.4,12-12,12S0,99.6,0,93S5.4,81,12,81z"/>
<path opacity="0.1" enable-background="new    " d="M132.6,523.3c0.6,0.9,1.1,1.9,1.5,3c12.7,14.9,19.4,28.8,7.2,29.1
	c-11.3,0.3-24.9,20.6-28.2,25.7c0.1,0.4,0.2,0.8,0.4,1.2c0,0,16-26.5,28.9-26.9S146.9,539.3,132.6,523.3L132.6,523.3z M94.4,523.3
	c-0.6,0.9-1.1,1.9-1.5,3c-12.7,14.9-19.4,28.8-7.2,29.1c11.3,0.3,25,20.6,28.2,25.7c-0.1,0.4-0.2,0.8-0.4,1.2c0,0-16-26.5-29-26.9
	S80.1,539.3,94.4,523.3L94.4,523.3z"/>
<path d="M132.6,523.3c0,0,7.2,9.5-3.3,23.8s-19.3,26.3-15.8,35.3c0,0,15.9-26.5,28.9-26.9S146.9,539.3,132.6,523.3z
	 M94.4,523.3c0,0-7.2,9.5,3.3,23.8s19.3,26.3,15.8,35.3c0,0-16-26.5-29-26.9S80.1,539.3,94.4,523.3z"/>
<path fill="none" stroke="#535461" stroke-width="2" stroke-miterlimit="10" d="M685,668.9c0,0,25.1-44.4,62.8-57.2
	c15.9-5.3,29.6-15.5,39.1-29.3c4.5-6.6,8.3-13.5,11.5-20.8"/>
<path d="M822.1,553.5c-4.3,4.2-24.3,8.5-24.3,8.5s4.9-19.9,9.2-24.1c4.3-4.1,11.2-4,15.3,0.3
	C826.5,542.5,826.4,549.3,822.1,553.5z M810.8,589.5c-5.9,1.2-25-6.1-25-6.1s14.9-14,20.8-15.2c5.9-1.2,11.6,2.7,12.8,8.5
	C820.5,582.6,816.7,588.3,810.8,589.5L810.8,589.5z M769.6,628.4c-5.7-2-18.5-17.9-18.5-17.9s20-4.6,25.6-2.6
	c5.7,1.8,8.8,7.9,7,13.7c-1.8,5.7-7.9,8.8-13.7,7C769.9,628.5,769.7,628.5,769.6,628.4L769.6,628.4z M731.7,650.8
	c-5.9-1-21.3-14.5-21.3-14.5s18.9-7.9,24.8-6.9c5.9,0.9,10,6.5,9.1,12.4c-0.9,5.9-6.5,10-12.4,9.1
	C731.8,650.9,731.8,650.9,731.7,650.8L731.7,650.8z M769.1,567.8c0,6,10.8,23.4,10.8,23.4s10.9-17.4,10.9-23.4
	c0-6-4.9-10.8-10.8-10.9C773.9,557,769.1,561.9,769.1,567.8L769.1,567.8L769.1,567.8z M725.1,594.6c1.8,5.7,17.3,19.1,17.3,19.1
	s5.2-19.8,3.4-25.5c-1.8-5.7-8-8.8-13.7-7C726.6,583,723.4,589,725.1,594.6z M686,626.5c0.8,5.9,13.9,21.7,13.9,21.7
	s8.4-18.7,7.6-24.6c-0.8-5.9-6.3-10.1-12.3-9.2C689.4,615.3,685.3,620.7,686,626.5z"/>
<path opacity="0.25" enable-background="new    " d="M822.1,553.5c-4.3,4.2-24.3,8.5-24.3,8.5s4.9-19.9,9.2-24.1
	c4.3-4.1,11.2-4,15.3,0.3C826.5,542.5,826.4,549.3,822.1,553.5z M810.8,589.5c-5.9,1.2-25-6.1-25-6.1s14.9-14,20.8-15.2
	c5.9-1.2,11.6,2.7,12.8,8.5C820.5,582.6,816.7,588.3,810.8,589.5L810.8,589.5z M769.6,628.4c-5.7-2-18.5-17.9-18.5-17.9
	s20-4.6,25.6-2.6c5.7,1.8,8.8,7.9,7,13.7c-1.8,5.7-7.9,8.8-13.7,7C769.9,628.5,769.7,628.5,769.6,628.4L769.6,628.4z M731.7,650.8
	c-5.9-1-21.3-14.5-21.3-14.5s18.9-7.9,24.8-6.9c5.9,0.9,10,6.5,9.1,12.4c-0.9,5.9-6.5,10-12.4,9.1
	C731.8,650.9,731.8,650.9,731.7,650.8L731.7,650.8z M769.1,567.8c0,6,10.8,23.4,10.8,23.4s10.9-17.4,10.9-23.4
	c0-6-4.9-10.8-10.8-10.9C773.9,557,769.1,561.9,769.1,567.8L769.1,567.8L769.1,567.8z M725.1,594.6c1.8,5.7,17.3,19.1,17.3,19.1
	s5.2-19.8,3.4-25.5c-1.8-5.7-8-8.8-13.7-7C726.6,583,723.4,589,725.1,594.6z M686,626.5c0.8,5.9,13.9,21.7,13.9,21.7
	s8.4-18.7,7.6-24.6c-0.8-5.9-6.3-10.1-12.3-9.2C689.4,615.3,685.3,620.7,686,626.5z"/>
<path fill="none" stroke="#535461" stroke-width="2" stroke-miterlimit="10" d="M686.4,668c0,0,4.9-50.7,34.2-77.7
	c12.4-11.2,20.8-26.2,23.9-42.6c1.4-7.8,2.2-15.7,2.1-23.7"/>
<path d="M765,506.9c-2.2,5.6-18.8,17.6-18.8,17.6s-3.6-20.2-1.3-25.7c2.1-5.6,8.3-8.5,14-6.4c5.6,2.1,8.5,8.3,6.4,14
	C765.2,506.6,765.1,506.7,765,506.9z M769.3,544.4c-4.9,3.5-25.4,4.6-25.4,4.6s8-18.9,12.9-22.3c4.9-3.4,11.7-2.3,15.1,2.7
	C775.3,534.2,774.2,541,769.3,544.4z M747.3,596.7c-6,0.5-24.2-8.9-24.2-8.9s16.4-12.3,22.3-12.8c6-0.5,11.2,3.9,11.7,9.9
	C757.7,591,753.3,596.2,747.3,596.7L747.3,596.7z M721.8,632.6c-5.8,1.5-25.3-4.6-25.3-4.6s14.1-14.9,19.9-16.4
	c5.8-1.6,11.8,1.7,13.4,7.5c1.6,5.8-1.7,11.8-7.5,13.4C722.1,632.5,722,632.5,721.8,632.6L721.8,632.6z M722.3,541.5
	c2.4,5.5,19.4,17,19.4,17s2.9-20.3,0.5-25.8c-2.5-5.4-9-7.8-14.4-5.3C722.5,530,720.1,536.2,722.3,541.5L722.3,541.5z M693,583.8
	c4,4.5,23.6,10.4,23.6,10.4s-3.3-20.2-7.3-24.7c-3.9-4.6-10.7-5.1-15.3-1.3c-4.6,3.9-5.1,10.7-1.3,15.3
	C692.9,583.7,693,583.7,693,583.8L693,583.8z M670.2,628.9c3.1,5.1,21.5,14.2,21.5,14.2s0.2-20.5-3-25.6c-3.1-5.1-9.8-6.7-14.9-3.6
	S667.1,623.8,670.2,628.9L670.2,628.9z"/>
<path fill="#B77B7F" d="M616,398l-0.1,3.9l-6.8,238.5h-11.4l5.6-238.5l0.1-4.5L616,398z"/>
<path fill="#DDA2A6" d="M681.8,600.1l-8.5,0l-126.4-0.3l-6.7,0l3.6-11.1h137.2L681.8,600.1L681.8,600.1z"/>
<path opacity="0.1" enable-background="new    " d="M616,398l-0.1,3.9h-12.5l0.1-4.5L616,398L616,398z"/>
<path fill="#B77B7F" d="M599.8,392.2h21.1v7.9h-21.1V392.2z"/>
<path opacity="0.1" enable-background="new    " d="M548,588.7l-1.1,11.1l-6.7,0l3.6-11.1H548L548,588.7z"/>
<path fill="#DDA2A6" d="M566.1,392l-0.3,3.4l-28,276.6l-12.8-0.6l29.6-276l0.3-3.1L566.1,392L566.1,392z"/>
<path opacity="0.1" enable-background="new    " d="M681.8,600.1l-8.5,0l-1.2-11.3h8.8L681.8,600.1L681.8,600.1z"/>
<path fill="#DDA2A6" d="M695.3,671.5l-12.9,0.6l-28-276.6L654,392l11.3,0.3l0.3,3.1L695.3,671.5L695.3,671.5z"/>
<path fill="#FFFFFF" d="M466.6,119.3H750V391H466.6V119.3z"/>
<path fill="#DDA2A6" d="M613.8,28.4V94h-11V28.4c-0.1-3.1,2.2-5.6,5.3-5.8s5.6,2.2,5.8,5.3C613.8,28.1,613.8,28.3,613.8,28.4z"/>
<path opacity="0.1" enable-background="new    " d="M602.8,88.1h11.1v6h-11.1V88.1z"/>
<path fill="#DDA2A6" d="M618.2,92.5v21.7h-19.7V92.5c0-1.5,1.2-2.7,2.7-2.7c0,0,0,0,0,0h14.3C617,89.9,618.2,91.1,618.2,92.5z"/>
<circle opacity="0.1" enable-background="new    " cx="608.3" cy="103.6" r="4.2"/>
<circle fill="#B77B7F" cx="608.3" cy="102.7" r="4.2"/>
<path opacity="0.1" enable-background="new    " d="M598.4,111.5h19.7v2.7h-19.7V111.5z M590.3,115.1h35.9v6h-35.9V115.1z"/>
<path fill="#DDA2A6" d="M590.3,113.3h35.9v6h-35.9V113.3z"/>
<path opacity="0.1" enable-background="new    " d="M535.7,384h150.7c3.6,0,6.5,2.9,6.5,6.5v1.4H529.2v-1.4
	C529.2,386.9,532.1,384,535.7,384z M554.8,392.4l11.4-0.3l-0.3,3.4h-11.3L554.8,392.4z M599.8,392.2h21.1v3.3h-21.1V392.2z
	 M665.7,395.5h-11.3l-0.3-3.4l11.3,0.3L665.7,395.5z"/>
<path fill="#DDA2A6" d="M535.7,385.8h150.7c3.6,0,6.5,2.9,6.5,6.5v1.4H529.2v-1.4C529.2,388.7,532.1,385.8,535.7,385.8z"/>
<linearGradient id="SVGID_1_" gradientUnits="userSpaceOnUse" x1="499.1521" y1="-23.5727" x2="499.1521" y2="662.4684" gradientTransform="matrix(1 0 0 -1 -100.52 800.88)">
	<stop  offset="0" style="stop-color:#808080;stop-opacity:0.25"/>
	<stop  offset="0.54" style="stop-color:#808080;stop-opacity:0.12"/>
	<stop  offset="1" style="stop-color:#808080;stop-opacity:0.1"/>
</linearGradient>
<path fill="url(#SVGID_1_)" d="M502.7,259.6c-2.3-1.2-27-19.9-27-19.9l-39.9-25.3c0,0-0.2-0.6-0.6-1.6c11-12.4,8.6-30.5-2.6-43.1
	c-13.5-15.4-74.5-48.5-92.9-20.2c-2.6,4-2.7,8.5-3.3,12.9c-1.6,10.3-6.6,20.2-14.6,28.6c-6.1,6.5-14.1,12.4-17.7,19.8
	c0-0.1-0.1-0.2-0.1-0.3c-0.8,1.6-1.5,3.3-1.8,5c-1.8,8.9,4.3,17.5,7.4,26.2c1.1,2.9,1.8,6,2.3,9.1c0.1-0.6,0.1-1.2,0.2-1.9
	c0.8,4.4,1,8.9,0.8,13.4c-22.1,4.5-22.2,42.4-22.2,42.4s-2.7,15.1-2.3,20.5s0.5,17.2,0.5,20s-2.7,20.5-3,22.6c0,0,0,0.1,0,0.1
	c-0.4,2.3-4.5,13.5,5.5,16c0.7,0.2,1.4,0.3,2.2,0.5c0.4,9,1.2,28,0.5,32.2c0,0,3.6,25.5,6.7,31.9c1.9,3.8,4.2,7.4,6.7,10.8
	c-0.2,1.6-0.7,3-1.5,4.4c-1.5,2.2-0.8,4.1,1.8,4.9c-0.1,0.8-0.2,1.6-0.3,2.6c-1.1,9.8-2.8,29.3,0,39.2c3.9,13.6,4.1,18.1,4.1,18.1
	s0,4.1,1.6,6.3s4.5,23.3,4.5,26.7s7.7,33.9,5.5,41.1s-0.5,17.4-0.5,17.4s-1.4,17.8-3,21.7s-2.3,65.8,0.2,81.8s4.1,29.4,4.1,29.4
	s-1.6,14.7-0.2,16.7s3.9,14.2,2,14.9s-2.7,5.7-2.7,5.7c1,1.5,2,2.9,3.1,4.2c-0.7-0.2-1.4-0.5-2-0.9c0.7,1,1.8,2.4,3.1,4l-1.3,16.3
	c-0.1,1.3,0.7,2.5,2,2.8c8.1,2.2,16.8-0.2,22.6-6.4c11.4-11.5,15.3-9.9,17.3-16.9c0.2-0.8,0.4-1.5,0.6-2.2
	c1.5-6.2-5.2-10.9-10.5-8.2c0.7-4.9,1.3-10.5,0.8-13.7c-1.1-6.5-0.9-23.7-0.9-23.7l-1.6-82.3c0,0,3-16.3,6.4-22.6s3-28.5,3-28.5
	l3.9-72.8l3.6-35.5c0,0,3.6-12.2,8.2,1.4c0,0-2.5,27.3-1.4,33.9s2.7,38.4,1.6,45.4s-6.1,45.4-3,55.1s6.6,21.5,5.9,25.3
	s-3,87.2-3,87.2s6.1,16,1.6,21.2s-0.2,26-0.2,26s0.5,0.4,1.5,0.9l-0.1,1.7l-1.4,18.7c-0.1,1.3,0.7,2.5,2,2.9
	c8.1,2.2,16.8-0.2,22.6-6.4c11.4-11.5,15.3-9.9,17.3-17c0.2-0.8,0.4-1.5,0.6-2.2c1.6-6.8-6.5-11.8-11.9-7.3l-0.3,0.2
	c-0.3,0.2-0.6,0.5-0.9,0.7c-0.1,0.1-0.3,0.2-0.5,0.3c1.1-5.2,2.8-14,2-18.1c-1.1-6.1,1.1-24.6,1.1-24.6s6.6-22.2,6.8-31l1.8-70.5
	c0,0-0.2-28.7,0.7-35.7s8.2-67.6,15.5-85.6c5.6-13.8,8.1-49.2,6.6-67.1c-0.1-0.9-0.2-1.7-0.3-2.5c8.9-6.6,9.8-17.5,9.8-17.5
	s-8.2-15.7-16.1-22.3s-9.6-18-9.3-22.9c0.1-3-0.8-5.9-2.7-8.1c0,0-3.6-11.8-6.1-13c-0.2-0.1-0.4-0.2-0.5-0.4
	c-1.7-1.8-0.4-6.8-0.4-6.8v-0.2c0.3-1.2,2-8.8,1.5-10.7c-0.6-2.1,0.3-12,0.3-12s5.8-17.2,4.9-30.7s11.8-12.4,11.8-12.4l39.4-0.4h4.5
	c1.6-1.3,3-2.8,4.3-4.5c7.5-0.9,22.7-3.7,24.4-12C514.4,272,505,260.8,502.7,259.6L502.7,259.6z M320.3,385l0.3-6.9
	c0.9,0.8,1.5,1.3,1.5,1.3c0.5,1.8,0.5,3.7,0.1,5.5c-0.5,1.7-1.8,3.1-3.4,3.8c-0.2,0.1-0.4,0.2-0.5,0.3l-0.4-3.9L320.3,385z
	 M463.1,264c-1.7-0.8-7.3-0.6-10.2-0.6s-7.6-2.4-7.6-2.4c-1-2-6.5-3.1-11.5-3.8c-3.7-9.2-9-18.2-9.7-27.8c0-0.4,0-0.7,0-1l0.6,1
	c0,0,22.9,14.6,25.5,19c2,3.3,11.6,10.8,16.1,14.1c-0.6,0.8-1.5,1.4-2.5,1.6C463.6,264.1,463.3,264.1,463.1,264L463.1,264z"/>
<path fill="#67647E" d="M425.2,798.2c-0.2,0.7-0.4,1.4-0.6,2.2c-2,7-5.8,5.4-17,16.8c-5.7,6.1-14.2,8.5-22.3,6.3
	c-1.3-0.3-2.1-1.5-2-2.8l1.4-18.5l0.7-8.9c0,0,17.8,5,26.9-1.3c0.3-0.2,0.6-0.4,0.9-0.7c0.1-0.1,0.1-0.1,0.2-0.2
	c3.1-2.6,7.7-2.1,10.3,1C425.2,793.7,425.7,796,425.2,798.2L425.2,798.2z M369.2,791.2c-0.2,0.7-0.4,1.4-0.6,2.2
	c-2,7-5.8,5.4-17,16.8c-5.7,6.1-14.2,8.5-22.3,6.3c-1.3-0.3-2.1-1.5-2-2.8l1.4-18.5l0.7-8.9c0,0,17.8,5,26.9-1.3
	c0.3-0.2,0.6-0.4,0.9-0.7c0.1-0.1,0.1-0.1,0.2-0.2c3.1-2.6,7.7-2.1,10.3,1C369.2,786.7,369.7,789,369.2,791.2L369.2,791.2z"/>
<path opacity="0.1" enable-background="new    " d="M350.8,794l0.7,9.6c-10.2,10.2-22.4-5-26-10C334.9,798.5,350.8,794,350.8,794z
	 M411,797.9l1.3-0.9c-9.4,14.2-23.2,7.7-27.6,5.1l0.7-8.9c0,0,17.8,5,26.9-1.3C411.7,795.3,411,797.9,411,797.9L411,797.9z"/>
<path fill="#444053" d="M439.5,528.7c-7.2,17.9-14.4,78-15.3,85s-0.7,35.4-0.7,35.4l-1.8,69.9c-0.2,8.8-6.7,30.7-6.7,30.7
	s-2.2,18.4-1.1,24.4s-2.9,22-2.9,22l1.3-0.9c-11.2,17-28.9,4.3-28.9,4.3s-4.3-20.6,0.2-25.8s-1.6-21.1-1.6-21.1s2.2-82.7,2.9-86.5
	s-2.7-15.5-5.8-25.1s1.8-47.8,2.9-54.7s-0.5-38.6-1.6-45.1s1.3-33.6,1.3-33.6c-4.5-13.5-8.1-1.3-8.1-1.3l-3.6,35.2l-3.8,72.2
	c0,0,0.5,22-2.9,28.3s-6.3,22.4-6.3,22.4l1.6,81.6c0,0-0.2,17,0.9,23.5s-2.5,23.3-2.5,23.3c-12.5,29.6-32.7-2.5-32.7-2.5
	s0.9-4.9,2.7-5.6s-0.7-12.8-2-14.8s0.2-16.6,0.2-16.6s-1.6-13.2-4-29.1s-1.8-77.3-0.2-81.2s2.9-21.5,2.9-21.5s-1.8-10.1,0.5-17.3
	s-5.4-37.4-5.4-40.8s-2.9-24.2-4.5-26.5s-1.6-6.3-1.6-6.3s-0.2-4.5-4-17.9c-2.8-9.8-1.1-29.2,0-38.9c0.4-3.6,0.7-5.9,0.7-5.9
	s128.6-20.9,133.7-16.1c1.2,1.1,2,4.9,2.5,10.4C447.5,479.9,445,515,439.5,528.7L439.5,528.7z"/>
<path opacity="0.1" enable-background="new    " d="M390.8,629.5c0.6,0,14.8,1.2,20,0.2S390.8,629.5,390.8,629.5z M391.9,637.8
	c0,0,19.6,3.4,20.6,1.7S391.9,637.8,391.9,637.8z M331.9,634.3c0,0,10.2,0.5,15.7,3S331.9,634.3,331.9,634.3z"/>
<path fill="#EFB7B9" d="M295,382.9c0,0,1.6,31.2,0.8,36.8c0,0,3.6,25.3,6.6,31.7s9.4,14.5,9.4,14.5l8.8-62l-2.1-21.2L295,382.9z"/>
<circle fill="#EFB7B9" cx="387.7" cy="206.1" r="34.5"/>
<path fill="#EFB7B9" d="M369.8,222.2c0,0-10.8,21.1-21.5,30.9c-10.8,9.9,64.6,21.1,66.4,21.1s-13.5-44.8-10.8-50.2
	S369.8,222.2,369.8,222.2z"/>
<path opacity="0.1" enable-background="new    " d="M446,462.1c-1.7,1.3-3.6,2.3-5.5,3.1c-13.7,5.4-28.7,12.9-38.9,9.9
	s-31.7,0-31.7,0s-43.4-3.6-52-1.5c-3.9,1-7,0.9-9,0.2c0.4-3.6,0.7-5.9,0.7-5.9s128.7-20.9,133.9-16.1
	C444.7,452.9,445.5,456.7,446,462.1L446,462.1z"/>
<path fill="#A36468" d="M455.4,442.2c0,0-1.2,15-15,20.3s-28.7,12.9-38.9,9.9s-31.7,0-31.7,0s-43.4-3.6-52-1.5s-13.2-0.6-10.5-4.5
	s2.4-16.7,2.4-22.1s-3-27.2-0.3-31.1s5.1-18.8,10.5-21.2c1.6-0.7,2.9-2.1,3.4-3.8c0.4-1.8,0.4-3.7-0.1-5.5c0,0-0.9-0.8-2.2-1.9
	c-3.2-2.8-8.5-8.1-6.8-9.8c2.4-2.4,0-17.9,0-17.9s-5.7-12-3.6-16.4s-18.2-28.1-18.2-28.1s0-40.6,24.5-42.4c0,0,17.3,0.6,19.4-7.2
	c2.1-7.8,15.8-12.3,15.8-12.3l31.4,6.9c0,0,27.8,6,32.9,2.4c5.1-3.6,9,4.8,9,4.8s17.3,0.9,19.1,4.5s-5.7,38.5-5.7,38.5
	s-12.6-1.2-11.7,12.3s-4.8,30.5-4.8,30.5s-0.9,9.9-0.3,12c0.6,1.9-1.2,9.5-1.5,10.6v0.1c0,0-1.3,5,0.4,6.8c0.2,0.2,0.3,0.3,0.5,0.4
	c2.4,1.2,6,12.9,6,12.9c1.9,2.3,2.8,5.1,2.7,8.1c-0.3,4.8,1.5,16.1,9.3,22.7S455.4,442.2,455.4,442.2L455.4,442.2z"/>
<path fill="#A36468" d="M322.1,373v1.3l-0.5,14c0,0-18.4,1.5-28.4-1s-5.8-13.6-5.4-15.9c0,0,0-0.1,0-0.1c0.3-2.1,3-19.6,3-22.4
	s0-14.5-0.5-19.9s2.2-20.4,2.2-20.4l1.9-2.4l21.1,8.1L322.1,373z"/>
<path opacity="0.1" enable-background="new    " d="M322,374.3l-0.5,14c0,0-18.4,1.5-28.4-1s-5.8-13.6-5.4-15.9L322,374.3z"/>
<path opacity="0.1" enable-background="new    " d="M323.3,388.2c0.4-1.8,0.4-3.7-0.1-5.5c0,0-0.9-0.8-2.2-1.9
	c15.8-2.2,78.5-10.8,99.6-11.8v0.1c0,0-1.3,5,0.4,6.8L323.3,388.2z M423.1,399c0,0,3.9,22-10.6,29.7
	C412.5,428.8,420.7,417.9,423.1,399z M328.2,429.4c0,0,35-6,41.9-1.3S328.2,429.4,328.2,429.4z M411,293.2c0,0-5.4,22.1-1.4,27.2
	S411,293.2,411,293.2z M309.7,275.1c0,0,4.9,8.2,1.9,16.7S309.7,275.1,309.7,275.1z M299.5,347.2c0,0,6.3,3.7,4.2,9.6
	S299.5,347.2,299.5,347.2z M298.9,330.1c0,0,5.8,3.1,6.6,7.8S298.9,330.1,298.9,330.1z M385.3,508.9c0,0,36.6,3.7,43.9-4.9
	C429.2,504,396.2,510.5,385.3,508.9z M322.1,506.8c0,0,39.3,9.3,47.1,1.9C369.1,508.7,335.4,511.3,322.1,506.8L322.1,506.8z
	 M388.1,521c0,0,16.4,0,24.1,0.5S388.1,521,388.1,521z M324.8,528c0,0,8.1,9.1,17.2,7.5S324.8,528,324.8,528z"/>
<path fill="#E3787D" d="M340.6,154.6c-2.5,3.9-2.6,8.5-3.3,12.8c-1.5,10.2-6.5,20.1-14.3,28.4c-7.2,7.6-17,14.5-18.9,23.8
	c-1.8,8.8,4.2,17.4,7.3,26c8.3,22.7-3.3,46.5-6.6,69.9c-0.9,6.5,0.2,14.7,8.2,16.9c2.5,0.7,5.3,0.6,7.6,1.7c3,1.4,3.9,4.4,4.5,7.1
	c2,9.6,2.7,19.5,2.1,29.3c-0.4,5.5-0.8,11.8,4.4,15.6c2.4,1.7,5.5,2.6,8.6,3.4c8.2,2.2,18.8,4,24.3-1.2c2.3-2.2,3.2-5.2,6.1-7
	c4.3-2.6,10.5-0.8,15.9-0.6c11.2,0.6,21.5-6,25.9-13.9s4-17,2.4-25.5s-4.5-17-4.7-25.7c-0.1-3,0.2-6,1.9-8.7
	c3.3-5.1,11.1-7.5,16.4-11.5c9.9-7.6,9.9-20,6.3-30.5c-3.6-10.4-10.1-20.4-10.9-31.2c-0.4-2.6,0.2-5.3,1.5-7.5
	c1.4-2.2,3.9-3.8,6-5.6c14.5-12.2,12.8-32.3,0.8-46.1C418.8,159.4,358.7,126.5,340.6,154.6L340.6,154.6z"/>
<path opacity="0.1" enable-background="new    " d="M313.3,255.1c1.1-9.1,0.9-18.1-2.3-26.9c-1.6-4.3-3.9-8.6-5.5-13
	c-0.8,1.6-1.4,3.3-1.8,5c-1.8,8.8,4.2,17.4,7.3,26C312.1,249.1,312.8,252.1,313.3,255.1z M326.7,353c0.6-9.8-0.1-19.7-2-29.3
	c-0.6-2.7-1.5-5.7-4.5-7.1c-2.2-1.1-5.1-1-7.6-1.7c-3.1-0.7-5.7-2.9-7-5.8c-0.5,2.3-0.9,4.5-1.2,6.8c-0.9,6.5,0.2,14.7,8.2,16.9
	c2.5,0.7,5.3,0.6,7.6,1.7c3,1.4,3.9,4.4,4.5,7.1c0.9,4.5,1.6,9,1.9,13.5C326.6,354.5,326.6,353.8,326.7,353L326.7,353z M411.9,349.5
	c-4.4,7.9-14.7,14.5-25.9,13.9c-5.5-0.3-11.6-2-15.9,0.6c-2.9,1.7-3.8,4.8-6.1,7c-5.5,5.1-16.1,3.4-24.3,1.2
	c-3.1-0.8-6.2-1.7-8.6-3.4c-2.3-1.7-3.8-4.1-4.3-6.9c0.1,3.1,0,6.1-0.2,9.2c-0.4,5.5-0.8,11.8,4.4,15.6c2.4,1.7,5.5,2.6,8.6,3.4
	c8.2,2.2,18.8,4,24.3-1.2c2.3-2.2,3.2-5.2,6.1-7c4.3-2.6,10.5-0.8,15.9-0.6c11.2,0.6,21.5-6,25.9-13.9c4.2-7.6,4-16.3,2.6-24.5
	C413.9,345.2,413,347.4,411.9,349.5L411.9,349.5z M430.8,203.3c-2.1,1.8-4.6,3.4-6,5.6c-1.3,2.3-1.8,4.9-1.5,7.5
	c0.3,3.3,1,6.5,2.1,9.6c1.7-1.8,3.5-3.4,5.5-4.8c9.8-8.3,12.2-20.1,9-31.2C438.2,195.2,435.1,199.8,430.8,203.3z M427.9,278
	c-5.3,4-13,6.4-16.4,11.5c-1.7,2.7-2,5.7-1.9,8.7c0.1,3.5,0.6,7,1.3,10.4c0.2-0.4,0.4-0.8,0.6-1.2c3.3-5.1,11.1-7.5,16.4-11.5
	c9.1-6.9,9.8-17.9,7.1-27.7C433.7,272.2,431.2,275.6,427.9,278L427.9,278z"/>
<path fill="#EFB7B9" d="M482.3,299.3c0,0,25.9-1.3,28.1-12.3s-7-22-9.3-23.2s-26.6-19.7-26.6-19.7l-39.3-25.1c0,0-18.8-54-23-33.3
	s12.1,48.1,12.1,48.1s22.6,14.5,25.1,18.8c2.5,4.3,18.1,15.7,18.1,15.7L482.3,299.3z"/>
<path fill="#A36468" d="M496.2,281.7c-6.1,15.5-14,21.7-14,21.7h-4.4l-38.8,0.4l-4.5-12.2l6.3-26.5l3.9,0.2c0,0,4.6,2.4,7.5,2.4
	s8.4-0.1,10,0.6c0.2,0.1,0.5,0.1,0.7,0.1c1.5-0.1,3-2.4,3-2.4S502.3,266.2,496.2,281.7L496.2,281.7z"/>
<path opacity="0.1" enable-background="new    " d="M496.2,281.7c-6.1,15.5-14,21.7-14,21.7h-4.4c2.3-6.2,7.1-18.8,9-21.7
	c1.8-2.8-14.4-9.6-23.9-13.3c1.5-0.1,3-2.4,3-2.4S502.3,266.2,496.2,281.7z"/>
<path fill="#FFD037" d="M146,535.4c0,3.3-0.4,6-0.8,6s-0.8-2.7-0.8-6s0.5-1.8,0.9-1.8S146,532,146,535.4z"/>
<path fill="#FFD037" d="M150.6,539.3c-2.9,1.6-5.5,2.6-5.7,2.2s2-2,4.9-3.6s1.8-0.4,2,0S153.6,537.7,150.6,539.3z"/>
<path fill="#FFD037" d="M80.9,535.4c0,3.3,0.4,6,0.8,6s0.8-2.7,0.8-6s-0.5-1.8-0.9-1.8S80.9,532,80.9,535.4z"/>
<path fill="#FFD037" d="M76.3,539.3c2.9,1.6,5.5,2.6,5.7,2.2s-2-2-4.9-3.6s-1.8-0.4-2,0S73.4,537.7,76.3,539.3z"/>
<path fill="#65617D" d="M152.4,569.5l-0.4,3l-0.5,4.2l-0.2,1.7l-0.5,4.2l-0.2,1.7l-0.5,4.2l-5.8,47.4c-0.5,4.2-7.4,7.5-15.8,7.5h-30
	c-8.4,0-15.3-3.3-15.8-7.5l-5.8-47.5l-0.5-4.2l-0.2-1.7l-0.5-4.2l-0.2-1.7l-0.5-4.2l-0.4-3c-0.3-2.4,3.4-4.4,8.2-4.4h61.5
	C148.9,565.1,152.7,567.2,152.4,569.5z"/>
<path fill="#9D9CB5" d="M152,572.5l-0.5,4.2H75.4l-0.5-4.2H152z M151.3,578.4l-0.5,4.2H76.1l-0.5-4.2H151.3z M150.6,584.3l-0.5,4.2
	H76.8l-0.5-4.2H150.6z"/>
</svg>
