<?xml version="1.0" encoding="utf-8"?>
<!-- Generator: Adobe Illustrator 22.1.0, SVG Export Plug-In . SVG Version: 6.00 Build 0)  -->
<svg version="1.1" id="图层_1" xmlns="http://www.w3.org/2000/svg" xmlns:xlink="http://www.w3.org/1999/xlink" x="0px" y="0px"
	 viewBox="0 0 1094.5 635.9" enable-background="new 0 0 1094.5 635.9" xml:space="preserve">
<path opacity="0.1" enable-background="new    " d="M1094.5,214.2c0.1-95-76.1-173.4-171-175.8
	c-78.5-2.1-148.8,48.1-172.3,123c-24.2-3.9-49-2.8-72.8,3.4c-86,22.4-176.2,22.4-262.2,0c-23.8-6.1-48.6-7.3-72.8-3.4
	c-23.5-74.9-93.8-125.1-172.3-123c-95,2.4-171.2,80.8-171,175.8c0.1,63.6,34.5,122.2,90,153.2c-17.4,27.8-26.6,60-26.5,92.8
	c0,96.3,78.6,175.3,174.9,175.7c34.7,0.2,68.7-9.9,97.6-29.1c65.4,43.2,151.6,37.8,211.1-13.2c59.6,51,145.7,56.4,211.2,13.2
	c28.9,19.2,62.9,29.3,97.6,29.1c96.3-0.4,174.9-79.4,174.9-175.7c0-32.8-9.2-65-26.5-92.8C1060,336.4,1094.4,277.8,1094.5,214.2
	L1094.5,214.2z"/>
<path fill="#2F2E41" d="M427.7,282.6c0,0-52-3.7-64,0.3s-36,57-36,57l77,3l33-7L427.7,282.6z"/>
<path fill="#3F3D56" d="M684.7,635.9l3-126.3l92-1.7v128H684.7z"/>
<path fill="#2F2E41" d="M507.1,368c6.1,8.4,7.1,19.3,7.9,29.6c1.5,20,3,40,4.5,60c1,13.4,2,27-0.3,40.3c-0.1,1.1-0.5,2.1-1,3
	c-1.1,1.6-3,2.2-4.9,2.6c-18.3,4.3-37.5,0.1-55.9-4.1c-3.4-25.3,2.1-51.1,10.8-75c5.3-14.6,11.8-28.7,18.4-42.8
	c2.7-5.8,5.2-16.2,9.6-20.7C501.1,355.9,503.8,363.6,507.1,368L507.1,368z"/>
<path opacity="0.1" enable-background="new    " d="M507.1,368c6.1,8.4,7.1,19.3,7.9,29.6c1.5,20,3,40,4.5,60c1,13.4,2,27-0.3,40.3
	c-0.1,1.1-0.5,2.1-1,3c-1.1,1.6-3,2.2-4.9,2.6c-18.3,4.3-37.5,0.1-55.9-4.1c-3.4-25.3,2.1-51.1,10.8-75
	c5.3-14.6,11.8-28.7,18.4-42.8c2.7-5.8,5.2-16.2,9.6-20.7C501.1,355.9,503.8,363.6,507.1,368L507.1,368z"/>
<path fill="#FBBEBE" d="M568.8,467c4.1-4.3,8.3-8.6,13.7-11.2c6.6-3.2,14.2-3.5,21.5-4.7c5.7-1,11.3-2.6,17.1-2.9s12,0.9,16.2,4.9
	c5,4.6,6.3,11.8,7.3,18.5c2.5,16.1,4.3,33.9-4.4,47.6c-5.9,9.3-16.1,15.4-26.9,17.7c-6.7,1.4-13.6,1.4-20.4,1.4l-64.2-0.1
	c-1.2,0-0.4-18.7-0.1-20.4c0.9-5.7,3.1-11.1,6.5-15.7C544.5,489.4,557.8,478.4,568.8,467L568.8,467z"/>
<path opacity="0.1" enable-background="new    " d="M568.8,467c4.1-4.3,8.3-8.6,13.7-11.2c6.6-3.2,14.2-3.5,21.5-4.7
	c5.7-1,11.3-2.6,17.1-2.9s12,0.9,16.2,4.9c5,4.6,6.3,11.8,7.3,18.5c2.5,16.1,4.3,33.9-4.4,47.6c-5.9,9.3-16.1,15.4-26.9,17.7
	c-6.7,1.4-13.6,1.4-20.4,1.4l-64.2-0.1c-1.2,0-0.4-18.7-0.1-20.4c0.9-5.7,3.1-11.1,6.5-15.7C544.5,489.4,557.8,478.4,568.8,467
	L568.8,467z"/>
<path fill="#FBBEBE" d="M312.2,233.5l-12.4,16.3c-8.9,11.7-19.3,24.3-33.9,26.5c-0.9,3.1,2.1,5.8,4.8,7.5
	c37.8,24.8,81.9,40.7,127.1,42.7c5.8,0.3,13-0.5,15.2-6c2-4.9-1.7-10.2-5.6-13.8c-5.9-5.4-13.4-10.6-13.9-18.5
	c-0.4-5.3,2.6-10.2,4.4-15.3c2.4-6.9,2.4-14.3,2.5-21.6c0-2.6,0-5.3-1-7.8c-1-2-2.3-3.8-4-5.3c-13.6-13.4-31.9-20-49.2-27.1
	c-5.8-2.4-16.5-10.2-21.5-3.5c-2.4,3.1-2.4,9-4.1,12.7C318.2,225.2,315.4,229.5,312.2,233.5L312.2,233.5z"/>
<path opacity="0.1" enable-background="new    " d="M312.2,233.5l-12.4,16.3c-8.9,11.7-19.3,24.3-33.9,26.5
	c-0.9,3.1,2.1,5.8,4.8,7.5c37.8,24.8,81.9,40.7,127.1,42.7c5.8,0.3,13-0.5,15.2-6c2-4.9-1.7-10.2-5.6-13.8
	c-5.9-5.4-13.4-10.6-13.9-18.5c-0.4-5.3,2.6-10.2,4.4-15.3c2.4-6.9,2.4-14.3,2.5-21.6c0-2.6,0-5.3-1-7.8c-1-2-2.3-3.8-4-5.3
	c-13.6-13.4-31.9-20-49.2-27.1c-5.8-2.4-16.5-10.2-21.5-3.5c-2.4,3.1-2.4,9-4.1,12.7C318.2,225.2,315.4,229.5,312.2,233.5
	L312.2,233.5z"/>
<circle fill="#FBBEBE" cx="392.2" cy="176.4" r="84"/>
<path fill="#2F2E41" d="M370.1,312c-12,2.6-24.4-1.1-36.2-4.6c-16.9-5.2-35.2-11.3-45.1-26c-2.3-3.4-4.2-7.4-7.8-9.4
	c-7.8-4.4-16.7,2.7-23.2,8.8c-31.6,29.8-74,49.2-96.7,86.2c-12.9,21.1-18.2,46.1-19.5,70.9c-0.7,12.5-0.4,25.4,3.3,37.3
	c11.3,36,50.9,57.1,63.2,92.8c7.5,21.7,2.1,42.6-1.1,65.3l300.4,0.6c-5.9-42.7-8.3-85.9-7.2-129c0.3-9.3,0.7-18.6,3-27.6
	c1.9-7.3,5-14.5,5.1-22c0.2-13.8-9.5-26.8-7.5-40.5s15.4-25,12.9-38.5c-3-16-6.4-33.2-13.2-48c-3.5-7.7-7.4-15.4-13.4-21.5
	s-13.4-10.1-21.1-13.5c-18.4-7.9-38.2-11.9-58.2-11.7c-1.8-0.1-3.6,0.2-5.3,0.9c-4.9,2.4-4.9,9.2-6.4,14.5
	C393.2,307,380.1,315.2,370.1,312L370.1,312z"/>
<path fill="#D0D2D5" d="M481.3,425.8l1.8-0.8l13.1,28.1l-1.8,0.8L481.3,425.8z"/>
<path d="M484.8,444l10.9-5.1l41,87.9l-10.9,5.1L484.8,444z"/>
<path fill="#FBBEBE" d="M162.1,500.4c-3.7,25.7,8.1,50.8,13.7,76.2c4.2,18.8,5,38.2,5.1,57.4c0.6-0.2,0.5,0.2,1,0h205.3
	c32.9-29.3,66.6-59.1,109.9-67.6c6.2-1.2,12.5-2,18.5-4c22.8-7.7,35.7-31.4,45.7-53.3c3.5-7.8,7-17.1,2.7-24.5
	c-1.5-2.4-3.6-4.5-5.9-6.1c-13.6-10-31.2-12.7-47.2-7.3c-28.9,10.1-43,43.1-68.9,59.3c-12,7.5-26,11-38.8,16.7
	c-19.3,8.6-36,22.2-55.4,30.5c-26.3,11.2-55.8,11.8-83,20.4c9.9-11.3,13.2-27.3,11.5-42.2s-8.3-28.8-16.2-41.6
	c-7.1-11.4-16.3-22.6-29-26.8C208.2,480.2,185.4,496.1,162.1,500.4L162.1,500.4z"/>
<path fill="#2F2E41" d="M313.7,215c8.6-6.6,10.2-12.2,12.4-22.9c1.3-6.6,1.5-14.2,6.3-19c9.8-9.6,28.9,1.1,39.3-7.9
	c6.5-5.6,6.2-16.3,12.2-22.3c4.5-4.5,11.3-5.4,17.6-5.7c9.5-0.4,19.1,0.1,28.5,1.5c6.7,1,13.4,2.4,20.2,2.4
	c13.6-0.1,26.4-6.1,38.6-12.1c-2-0.1-3.7-1.3-4.6-3.1c4.7-2.5,9.7-4.7,14.7-6.5c-1.3-4.1-10.2-0.8-10.6-5.1c0-1.1,0.4-2.2,1.2-3
	l8.6-12.3c-8.2,2.1-16.5-3.6-21.7-10.3s-8.6-14.8-14.7-20.7c-12.1-11.8-31.1-12.2-48-11.7l-31.3,0.8c-14.5,0.4-29.2,0.8-43.3,4.4
	c-6.4,1.7-12.7,4-18.1,7.9c-6.8,4.8-11.7,11.8-18.1,17.1c-8.6,7.1-19.7,11.4-26.1,20.5c-4,5.8-5.6,12.9-4.5,19.8
	c1.3,7.8,5.8,14.6,7.6,22.3c3.1,13.1-2,27.1,1,40.3c2.2,9.9,8.7,18.2,15,26.1c1.5,1.8,3.2,3.8,5.5,3.9c1.4-0.1,2.8-0.5,4.1-1.1"/>
<path fill="#3F3D56" d="M953.2,543.4v21l-44,55l-463-13v-23l124-45.2L953.2,543.4z"/>
<path opacity="0.1" enable-background="new    " d="M953.2,543.4v21l-44,55l-463-13v-21l460,11L953.2,543.4z"/>
<path fill="#D0D2D5" d="M953.2,525.4v18l-47,53l-340-8.1v-21.9l111-41H953.2z"/>
<path opacity="0.1" enable-background="new    " d="M953.2,525.4v18l-47,53l-340-8.1v-21.9l340,9L953.2,525.4z"/>
<path fill="#3F3D56" d="M684.2,543.4l3-221l92-3v224H684.2z"/>
<path d="M345.2,457.9l11,7l-6.7-12.2c1.9-1.5,4.2-2.4,6.7-2.4h0.2c0.8,0,1.5,0,2.3-0.2l3.8,2.4l-1.6-2.9
	c2.7-0.9,4.9-2.7,6.5-5l6.7,4.3l-4.2-7.7c3.9-4.7,9.2-7.6,15-7.6c7,0,13.2,4.1,17.2,10.6c2.4,3.9,6.7,6.3,11.4,6.1h0.4
	c7.7,0,13.9,8.7,13.9,19.5s-6.2,19.5-13.9,19.5c-1.7,0-3.4-0.4-4.9-1.2c-5.3-2.6-11.5-2.7-16.9-0.3c-4.6,2-9.8,2-14.3,0
	c-5.4-2.3-11.5-2.2-16.7,0.3c-1.5,0.8-3.1,1.2-4.8,1.2c-7.7,0-13.9-8.7-13.9-19.5C342.3,465.6,343.3,461.5,345.2,457.9L345.2,457.9z
	"/>
<path opacity="0.1" enable-background="new    " d="M366,486.4c4-0.8,8.2-0.3,11.9,1.3c4.6,2,9.8,2,14.3,0
	c5.4-2.4,11.6-2.2,16.9,0.3c1.5,0.8,3.2,1.2,4.9,1.2c6.8,0,12.5-6.9,13.7-16c-1.4-1-2.5-2.2-3.4-3.7c-4-6.5-10.2-10.6-17.2-10.6
	S394,463,390,469.4c-2.4,3.9-6.7,6.3-11.4,6.2h-0.2C373,475.6,368.3,480,366,486.4L366,486.4z M155.8,397.2
	c-3.3,13.4-6.6,26.8-8.3,40.5c-2.2,18.5-1.4,37.2,2.4,55.4c1.1,5.4,2.5,10.7,2.5,16.2s-1.7,11.2-5.7,14.9
	c25.5-16.7,59.8-18.9,87.1-5.5c13.3,6.5,26.6,16.8,41.3,14.4c1.4-8.2-6.6-16-4.8-24.2c1.4-5.9,7.6-9.7,9.3-15.6
	c2.2-7.5-3.5-14.7-6.1-22c-1.1-3.7-1.9-7.4-2.3-11.2c-2.1-15.5-5-31.1-10.9-45.7s-14.9-28.2-27.6-37.4c-7.7-5.6-16.5-9.4-25.4-12.5
	c-7.1-2.4-17.3-7.3-24.9-6C166.1,361.5,159.1,383.8,155.8,397.2L155.8,397.2z"/>
<path fill="#2F2E41" d="M152.8,394.2c-3.3,13.4-6.6,26.8-8.3,40.5c-2.2,18.5-1.4,37.2,2.4,55.4c1.1,5.4,2.5,10.7,2.5,16.2
	s-1.7,11.2-5.7,14.9c25.5-16.7,59.8-18.9,87.1-5.5c13.3,6.5,26.6,16.8,41.3,14.4c1.4-8.2-6.6-16-4.8-24.2c1.4-5.9,7.6-9.7,9.3-15.6
	c2.2-7.5-3.5-14.7-6.1-22c-1.1-3.7-1.9-7.4-2.3-11.2c-2.1-15.5-5-31.1-10.9-45.7s-14.9-28.2-27.6-37.4c-7.7-5.6-16.5-9.4-25.4-12.5
	c-7.1-2.4-17.3-7.3-24.9-6C163.1,358.5,156.1,380.8,152.8,394.2L152.8,394.2z"/>
<path fill="#D0D2D5" d="M935.1,370.3c-3.5,19.9-18,35.8-31.8,50.5c-17.6,18.8-34.2,37.4-51.8,56.2H625.4c-2.2,0-5.1-0.4-7.2,0.2
	l-3.4,1c-16.8-12.4-29.8-29-42.6-45.5l-23.1-29.8c-11.8-15.2-24.3-32.8-21.4-51.9c0.2-2,0.9-4,2.1-5.6c1.2-1.2,2.6-2.2,4.2-2.9
	c32-16.3,68-22.5,102.5-32.6c5.3-1.6,11-3.4,14.6-7.6c4.9-5.6,5-13.8,6.5-21s4.8-14.4,6.6-21.7c2.1-8.5,2.3-17.4,2.4-26.2
	c0.2-9.5,0.3-18.9,0.5-28.4c0.2-9.4,0.3-18.8,0.5-28.1c37-0.7,73.5-3.6,110.4-0.7c3.8,0.3,7.8,0.8,10.6,3.3c2.1,2,3,4.9,3.8,7.7
	c2.9,11.2,4.3,22.6,5.1,34.2c1.3,16.7,1.5,33.6,4.3,50.1c1.5,9.1,4,18.5,9.9,25.6c8.1,10,21.2,14.1,33.5,18
	c25.4,8.1,50.4,17.3,75,27.6c3.7,1.5,7.5,3.2,10.3,6C935.8,354.1,936.5,362.7,935.1,370.3L935.1,370.3z"/>
<path opacity="0.1" enable-background="new    " d="M797.4,221.3c-7.5,8.1-22.2,12.9-30.6,17.5s-17,9.2-26.4,10.2
	c-11.1,1.1-22-3-32.5-7c-5.6-2.2-11.3-4.4-16.3-7.6c-11-7-18.1-17.8-24.4-29.5l0.5-28.1c37-0.7,73.5-3.6,110.4-0.7
	c3.8,0.3,7.8,0.8,10.6,3.3c2.1,2,3,4.9,3.8,7.7C795.2,198.3,796.5,209.8,797.4,221.3L797.4,221.3z"/>
<path fill="#D0D2D5" d="M814,171.8c2.7-2,5.8-3.3,8.4-5.5c2.6-2.4,4.8-5.2,6.4-8.4c4.5-8.2,7.9-17.4,7.2-26.7s-6.3-18.7-15.2-21.7
	c5.6-17.2,1-35.8-3.7-53.3c-1.5-5.6-3-11.3-5.7-16.5c-5.4-10.4-15.1-17.7-25-23.9c-11.4-7.1-23.7-13.1-37-15.1
	c-13.8-2-27.9,0.4-41,5.1c-7,2.5-14,5.8-19.2,11.2c-3.8,3.9-6.5,8.8-9.9,13.1c-5.4,7-12.6,12.6-17.1,20.2c-5,8.5-6.2,18.5-7.2,28.3
	l-3.6,32.4c-2.4-3.3-7.5-3.6-11-1.5s-5.5,5.9-6.9,9.7c-3.8,11.3-2.3,23.7,4,33.7c2.8,4.3,6.4,8.1,9.5,12.1
	c16.1,20.5,22.3,49.6,44.3,63.7c5.1,3.2,10.7,5.4,16.3,7.6c10.4,4,21.3,8.2,32.5,7c9.5-1,18.1-5.6,26.4-10.2
	c10.2-5.6,29.9-11.5,34.3-23.3C805.9,196.9,801.2,181.5,814,171.8L814,171.8z"/>
<path opacity="0.1" enable-background="new    " d="M708.8,180.3c2.9-2.1,5.6-4.5,8.8-6c4.5-2,9.5-2.2,14.2-0.6
	c0.9,0.4,1.9,0.7,2.9,0.7c1.3-0.2,2.5-0.6,3.6-1.3c4.4-1.9,9.6-0.5,14,1.4c5.9,2.8,11.5,6,16.8,9.7c-2.1,0.7-4.2,1.5-6.2,2.5
	c-2.3,1.2-4.5,2.6-6.8,3.8c-5.8,2.8-12.1,4.6-18.5,5.1c-1.7,0.2-3.5,0.3-5.2,0.3c-7.1-0.1-13.8-2.7-20.5-5.2l-5.8-2.2l-2.9-1.1
	c-0.6-0.2-2.5-0.6-2.8-1.1c-0.7-1,2.5-2.2,3.4-2.7C705.6,182.6,707.2,181.5,708.8,180.3z M766.2,101c0.8-0.3,1.6-0.6,2.3-0.9
	c9.6-3,20,0.9,25.1,9.6c-0.7,0.2-1.4-0.5-1.9-0.9c-1.6-1.2-3.3-2.1-5.1-2.8c-1.2-0.6-2.4-1.2-3.6-1.8c-4.4-1.7-9.2-2-13.7-0.8
	c-4.4,1-8,3.2-12,5.1c0-1.4,2.7-3.4,3.8-4.3C762.6,102.9,764.4,101.9,766.2,101z M777.2,115.7c4.3,0.1,9-0.3,12.4-3
	c-2.1-0.2-4.1,0.5-6.1,1c-3.7,0.9-7.5,0.9-11.2,0.1c-1.8-0.4-3.6-1-5.5-1.3c-1.5-0.4-3.1-0.3-4.6,0.2c0.5,1.4,5.6,1.9,7,2.2
	C771.9,115.4,774.5,115.7,777.2,115.7L777.2,115.7z M702.1,101c-0.8-0.3-1.5-0.6-2.3-0.9c-9.6-3-20,0.9-25.1,9.6
	c0.7,0.2,1.4-0.5,1.9-0.9c1.6-1.2,3.3-2.1,5.1-2.8c1.2-0.6,2.4-1.2,3.6-1.8c4.4-1.7,9.2-2,13.8-0.8c4.4,1,8,3.2,12,5.1
	c0-1.4-2.7-3.4-3.8-4.3C705.7,102.9,704,101.9,702.1,101L702.1,101z M691.1,115.7c-4.3,0.1-9-0.3-12.4-3c2.1-0.2,4.1,0.5,6.1,1
	c3.7,0.9,7.5,0.9,11.2,0.1c1.8-0.4,3.7-1,5.5-1.3c1.5-0.4,3.1-0.3,4.6,0.2c-0.5,1.4-5.6,1.9-7,2.2
	C696.5,115.4,693.8,115.7,691.1,115.7L691.1,115.7z"/>
<ellipse opacity="0.1" enable-background="new    " cx="720.5" cy="153.4" rx="6.4" ry="2.6"/>
<ellipse opacity="0.1" enable-background="new    " cx="748.5" cy="153.4" rx="6.4" ry="2.6"/>
<path opacity="0.1" enable-background="new    " d="M599.5,339.8c8.1-2.8,16.6-4.2,25.2-4.1c8.4,0.1,16.7,1.7,25,2.5
	c13.1,1.4,26.4,1.1,39.6,0.8 M851.1,339.8c-8.1-2.8-16.6-4.2-25.2-4.1c-8.4,0.1-16.7,1.7-25,2.5c-13.1,1.4-26.4,1.1-39.6,0.8
	 M705.8,386c3.3,9,14.4,12.7,19.2,21c1.5,2.9,2.6,6,3.3,9.2l2.6,10c-1-4.9-2-9.9-1.7-14.9s2.1-10.1,5.9-13.5c2.1-1.6,4.4-3,6.8-4
	l15.3-7.3 M313.4,176.1c-4.8,4.8-5,12.3-6.3,19c-2,9.9-3.5,15.4-10.6,21.4c1.3,1.5,2.8,2.9,4.7,3c1.4-0.1,2.8-0.5,4.1-1.1l8.4-3.4
	c8.6-6.6,10.2-12.2,12.4-22.9c1.3-6.6,1.5-14.2,6.3-19c0.4-0.4,0.9-0.8,1.3-1.1C326.1,171.6,318.5,171.1,313.4,176.1L313.4,176.1z
	 M484.2,126c4.7-2.5,9.7-4.7,14.7-6.5c-1.3-4.1-10.2-0.8-10.6-5.1c0-1.1,0.4-2.2,1.2-3l8.6-12.3c-8.2,2.1-16.5-3.6-21.7-10.3
	s-8.6-14.8-14.7-20.7c-12.1-11.8-31.1-12.2-48-11.7l-31.3,0.8c-14.1,0.3-28.3,0.7-41.9,4.1c7.6-0.7,15.3-0.9,22.9-1.1l31.3-0.8
	c17-0.4,35.9-0.1,48,11.7c6.1,5.9,9.5,14,14.7,20.7s13.5,12.4,21.7,10.3l-8.6,12.3c-0.7,0.8-1.1,1.9-1.2,3c0.5,4.3,9.3,1,10.6,5.1
	c-5,1.8-9.9,4-14.7,6.5c0.9,1.8,2.6,3,4.6,3.1c-6.9,3.5-13.9,6.5-21.2,9h1.6c13.6-0.1,26.4-6.1,38.6-12.1
	C486.9,128.9,485.1,127.7,484.2,126z M382.5,140.2c-6.3,0.3-13.1,1.2-17.6,5.7c-6.1,6.1-5.7,16.7-12.2,22.3
	c-0.3,0.2-0.6,0.5-0.9,0.7c7.3,0.4,14.7,0.8,19.9-3.7c6.5-5.6,6.2-16.3,12.2-22.3c1.1-1.1,2.4-2.1,3.9-2.8
	C386,140.1,384.2,140.1,382.5,140.2z"/>
</svg>
