<svg xmlns="http://www.w3.org/2000/svg" viewBox="0 0 1094.5 635.9"><path opacity=".1" d="M1094.5 214.2c.1-95-76.1-173.4-171-175.8-78.5-2.1-148.8 48.1-172.3 123-24.2-3.9-49-2.8-72.8 3.4-86 22.4-176.2 22.4-262.2 0-23.8-6.1-48.6-7.3-72.8-3.4-23.5-74.9-93.8-125.1-172.3-123C76.1 40.8-.1 119.2.1 214.2c.1 63.6 34.5 122.2 90 153.2-17.4 27.8-26.6 60-26.5 92.8 0 96.3 78.6 175.3 174.9 175.7 34.7.2 68.7-9.9 97.6-29.1 65.4 43.2 151.6 37.8 211.1-13.2 59.6 51 145.7 56.4 211.2 13.2 28.9 19.2 62.9 29.3 97.6 29.1 96.3-.4 174.9-79.4 174.9-175.7 0-32.8-9.2-65-26.5-92.8 55.6-31 90-89.6 90.1-153.2z"/><path fill="#2F2E41" d="M427.7 282.6s-52-3.7-64 .3-36 57-36 57l77 3 33-7-10-53.3z"/><path fill="#3F3D56" d="M684.7 635.9l3-126.3 92-1.7v128h-95z"/><path fill="#2F2E41" d="M507.1 368c6.1 8.4 7.1 19.3 7.9 29.6l4.5 60c1 13.4 2 27-.3 40.3-.1 1.1-.5 2.1-1 3-1.1 1.6-3 2.2-4.9 2.6-18.3 4.3-37.5.1-55.9-4.1-3.4-25.3 2.1-51.1 10.8-75 5.3-14.6 11.8-28.7 18.4-42.8 2.7-5.8 5.2-16.2 9.6-20.7 4.9-5 7.6 2.7 10.9 7.1z"/><path opacity=".1" d="M507.1 368c6.1 8.4 7.1 19.3 7.9 29.6l4.5 60c1 13.4 2 27-.3 40.3-.1 1.1-.5 2.1-1 3-1.1 1.6-3 2.2-4.9 2.6-18.3 4.3-37.5.1-55.9-4.1-3.4-25.3 2.1-51.1 10.8-75 5.3-14.6 11.8-28.7 18.4-42.8 2.7-5.8 5.2-16.2 9.6-20.7 4.9-5 7.6 2.7 10.9 7.1z"/><path fill="#FBBEBE" d="M568.8 467c4.1-4.3 8.3-8.6 13.7-11.2 6.6-3.2 14.2-3.5 21.5-4.7 5.7-1 11.3-2.6 17.1-2.9s12 .9 16.2 4.9c5 4.6 6.3 11.8 7.3 18.5 2.5 16.1 4.3 33.9-4.4 47.6-5.9 9.3-16.1 15.4-26.9 17.7-6.7 1.4-13.6 1.4-20.4 1.4l-64.2-.1c-1.2 0-.4-18.7-.1-20.4.9-5.7 3.1-11.1 6.5-15.7 9.4-12.7 22.7-23.7 33.7-35.1z"/><path opacity=".1" d="M568.8 467c4.1-4.3 8.3-8.6 13.7-11.2 6.6-3.2 14.2-3.5 21.5-4.7 5.7-1 11.3-2.6 17.1-2.9s12 .9 16.2 4.9c5 4.6 6.3 11.8 7.3 18.5 2.5 16.1 4.3 33.9-4.4 47.6-5.9 9.3-16.1 15.4-26.9 17.7-6.7 1.4-13.6 1.4-20.4 1.4l-64.2-.1c-1.2 0-.4-18.7-.1-20.4.9-5.7 3.1-11.1 6.5-15.7 9.4-12.7 22.7-23.7 33.7-35.1z"/><path fill="#FBBEBE" d="M312.2 233.5l-12.4 16.3c-8.9 11.7-19.3 24.3-33.9 26.5-.9 3.1 2.1 5.8 4.8 7.5 37.8 24.8 81.9 40.7 127.1 42.7 5.8.3 13-.5 15.2-6 2-4.9-1.7-10.2-5.6-13.8-5.9-5.4-13.4-10.6-13.9-18.5-.4-5.3 2.6-10.2 4.4-15.3 2.4-6.9 2.4-14.3 2.5-21.6 0-2.6 0-5.3-1-7.8-1-2-2.3-3.8-4-5.3-13.6-13.4-31.9-20-49.2-27.1-5.8-2.4-16.5-10.2-21.5-3.5-2.4 3.1-2.4 9-4.1 12.7-2.4 4.9-5.2 9.2-8.4 13.2z"/><path opacity=".1" d="M312.2 233.5l-12.4 16.3c-8.9 11.7-19.3 24.3-33.9 26.5-.9 3.1 2.1 5.8 4.8 7.5 37.8 24.8 81.9 40.7 127.1 42.7 5.8.3 13-.5 15.2-6 2-4.9-1.7-10.2-5.6-13.8-5.9-5.4-13.4-10.6-13.9-18.5-.4-5.3 2.6-10.2 4.4-15.3 2.4-6.9 2.4-14.3 2.5-21.6 0-2.6 0-5.3-1-7.8-1-2-2.3-3.8-4-5.3-13.6-13.4-31.9-20-49.2-27.1-5.8-2.4-16.5-10.2-21.5-3.5-2.4 3.1-2.4 9-4.1 12.7-2.4 4.9-5.2 9.2-8.4 13.2z"/><circle fill="#FBBEBE" cx="392.2" cy="176.4" r="84"/><path fill="#2F2E41" d="M370.1 312c-12 2.6-24.4-1.1-36.2-4.6-16.9-5.2-35.2-11.3-45.1-26-2.3-3.4-4.2-7.4-7.8-9.4-7.8-4.4-16.7 2.7-23.2 8.8-31.6 29.8-74 49.2-96.7 86.2-12.9 21.1-18.2 46.1-19.5 70.9-.7 12.5-.4 25.4 3.3 37.3 11.3 36 50.9 57.1 63.2 92.8 7.5 21.7 2.1 42.6-1.1 65.3l300.4.6c-5.9-42.7-8.3-85.9-7.2-129 .3-9.3.7-18.6 3-27.6 1.9-7.3 5-14.5 5.1-22 .2-13.8-9.5-26.8-7.5-40.5s15.4-25 12.9-38.5c-3-16-6.4-33.2-13.2-48-3.5-7.7-7.4-15.4-13.4-21.5s-13.4-10.1-21.1-13.5c-18.4-7.9-38.2-11.9-58.2-11.7-1.8-.1-3.6.2-5.3.9-4.9 2.4-4.9 9.2-6.4 14.5-2.9 10-16 18.2-26 15z"/><path fill="#D0D2D5" d="M481.3 425.8l1.8-.8 13.1 28.1-1.8.8-13.1-28.1z"/><path d="M484.8 444l10.9-5.1 41 87.9-10.9 5.1-41-87.9z"/><path fill="#FBBEBE" d="M162.1 500.4c-3.7 25.7 8.1 50.8 13.7 76.2 4.2 18.8 5 38.2 5.1 57.4.6-.2.5.2 1 0h205.3c32.9-29.3 66.6-59.1 109.9-67.6 6.2-1.2 12.5-2 18.5-4 22.8-7.7 35.7-31.4 45.7-53.3 3.5-7.8 7-17.1 2.7-24.5-1.5-2.4-3.6-4.5-5.9-6.1-13.6-10-31.2-12.7-47.2-7.3-28.9 10.1-43 43.1-68.9 59.3-12 7.5-26 11-38.8 16.7-19.3 8.6-36 22.2-55.4 30.5-26.3 11.2-55.8 11.8-83 20.4 9.9-11.3 13.2-27.3 11.5-42.2s-8.3-28.8-16.2-41.6c-7.1-11.4-16.3-22.6-29-26.8-22.9-7.3-45.7 8.6-69 12.9z"/><path fill="#2F2E41" d="M313.7 215c8.6-6.6 10.2-12.2 12.4-22.9 1.3-6.6 1.5-14.2 6.3-19 9.8-9.6 28.9 1.1 39.3-7.9 6.5-5.6 6.2-16.3 12.2-22.3 4.5-4.5 11.3-5.4 17.6-5.7 9.5-.4 19.1.1 28.5 1.5 6.7 1 13.4 2.4 20.2 2.4 13.6-.1 26.4-6.1 38.6-12.1-2-.1-3.7-1.3-4.6-3.1 4.7-2.5 9.7-4.7 14.7-6.5-1.3-4.1-10.2-.8-10.6-5.1 0-1.1.4-2.2 1.2-3l8.6-12.3c-8.2 2.1-16.5-3.6-21.7-10.3s-8.6-14.8-14.7-20.7c-12.1-11.8-31.1-12.2-48-11.7l-31.3.8c-14.5.4-29.2.8-43.3 4.4-6.4 1.7-12.7 4-18.1 7.9-6.8 4.8-11.7 11.8-18.1 17.1-8.6 7.1-19.7 11.4-26.1 20.5-4 5.8-5.6 12.9-4.5 19.8 1.3 7.8 5.8 14.6 7.6 22.3 3.1 13.1-2 27.1 1 40.3 2.2 9.9 8.7 18.2 15 26.1 1.5 1.8 3.2 3.8 5.5 3.9 1.4-.1 2.8-.5 4.1-1.1"/><path fill="#3F3D56" d="M953.2 543.4v21l-44 55-463-13v-23l124-45.2 383 5.2z"/><path opacity=".1" d="M953.2 543.4v21l-44 55-463-13v-21l460 11 47-53z"/><path fill="#D0D2D5" d="M953.2 525.4v18l-47 53-340-8.1v-21.9l111-41h276z"/><path opacity=".1" d="M953.2 525.4v18l-47 53-340-8.1v-21.9l340 9 47-50z"/><path fill="#3F3D56" d="M684.2 543.4l3-221 92-3v224h-95z"/><path d="M345.2 457.9l11 7-6.7-12.2c1.9-1.5 4.2-2.4 6.7-2.4h.2c.8 0 1.5 0 2.3-.2l3.8 2.4-1.6-2.9c2.7-.9 4.9-2.7 6.5-5l6.7 4.3-4.2-7.7c3.9-4.7 9.2-7.6 15-7.6 7 0 13.2 4.1 17.2 10.6 2.4 3.9 6.7 6.3 11.4 6.1h.4c7.7 0 13.9 8.7 13.9 19.5s-6.2 19.5-13.9 19.5c-1.7 0-3.4-.4-4.9-1.2-5.3-2.6-11.5-2.7-16.9-.3-4.6 2-9.8 2-14.3 0-5.4-2.3-11.5-2.2-16.7.3-1.5.8-3.1 1.2-4.8 1.2-7.7 0-13.9-8.7-13.9-19.5-.1-4.2.9-8.3 2.8-11.9z"/><path opacity=".1" d="M366 486.4c4-.8 8.2-.3 11.9 1.3 4.6 2 9.8 2 14.3 0 5.4-2.4 11.6-2.2 16.9.3 1.5.8 3.2 1.2 4.9 1.2 6.8 0 12.5-6.9 13.7-16-1.4-1-2.5-2.2-3.4-3.7-4-6.5-10.2-10.6-17.2-10.6S394 463 390 469.4c-2.4 3.9-6.7 6.3-11.4 6.2h-.2c-5.4 0-10.1 4.4-12.4 10.8zm-210.2-89.2c-3.3 13.4-6.6 26.8-8.3 40.5-2.2 18.5-1.4 37.2 2.4 55.4 1.1 5.4 2.5 10.7 2.5 16.2s-1.7 11.2-5.7 14.9c25.5-16.7 59.8-18.9 87.1-5.5 13.3 6.5 26.6 16.8 41.3 14.4 1.4-8.2-6.6-16-4.8-24.2 1.4-5.9 7.6-9.7 9.3-15.6 2.2-7.5-3.5-14.7-6.1-22-1.1-3.7-1.9-7.4-2.3-11.2-2.1-15.5-5-31.1-10.9-45.7s-14.9-28.2-27.6-37.4c-7.7-5.6-16.5-9.4-25.4-12.5-7.1-2.4-17.3-7.3-24.9-6-16.3 3-23.3 25.3-26.6 38.7z"/><path fill="#2F2E41" d="M152.8 394.2c-3.3 13.4-6.6 26.8-8.3 40.5-2.2 18.5-1.4 37.2 2.4 55.4 1.1 5.4 2.5 10.7 2.5 16.2s-1.7 11.2-5.7 14.9c25.5-16.7 59.8-18.9 87.1-5.5 13.3 6.5 26.6 16.8 41.3 14.4 1.4-8.2-6.6-16-4.8-24.2 1.4-5.9 7.6-9.7 9.3-15.6 2.2-7.5-3.5-14.7-6.1-22-1.1-3.7-1.9-7.4-2.3-11.2-2.1-15.5-5-31.1-10.9-45.7s-14.9-28.2-27.6-37.4c-7.7-5.6-16.5-9.4-25.4-12.5-7.1-2.4-17.3-7.3-24.9-6-16.3 3-23.3 25.3-26.6 38.7z"/><path fill="#D0D2D5" d="M935.1 370.3c-3.5 19.9-18 35.8-31.8 50.5-17.6 18.8-34.2 37.4-51.8 56.2H625.4c-2.2 0-5.1-.4-7.2.2l-3.4 1c-16.8-12.4-29.8-29-42.6-45.5l-23.1-29.8c-11.8-15.2-24.3-32.8-21.4-51.9.2-2 .9-4 2.1-5.6 1.2-1.2 2.6-2.2 4.2-2.9 32-16.3 68-22.5 102.5-32.6 5.3-1.6 11-3.4 14.6-7.6 4.9-5.6 5-13.8 6.5-21s4.8-14.4 6.6-21.7c2.1-8.5 2.3-17.4 2.4-26.2.2-9.5.3-18.9.5-28.4.2-9.4.3-18.8.5-28.1 37-.7 73.5-3.6 110.4-.7 3.8.3 7.8.8 10.6 3.3 2.1 2 3 4.9 3.8 7.7 2.9 11.2 4.3 22.6 5.1 34.2 1.3 16.7 1.5 33.6 4.3 50.1 1.5 9.1 4 18.5 9.9 25.6 8.1 10 21.2 14.1 33.5 18 25.4 8.1 50.4 17.3 75 27.6 3.7 1.5 7.5 3.2 10.3 6 5.3 5.4 6 14 4.6 21.6z"/><path opacity=".1" d="M797.4 221.3c-7.5 8.1-22.2 12.9-30.6 17.5s-17 9.2-26.4 10.2c-11.1 1.1-22-3-32.5-7-5.6-2.2-11.3-4.4-16.3-7.6-11-7-18.1-17.8-24.4-29.5l.5-28.1c37-.7 73.5-3.6 110.4-.7 3.8.3 7.8.8 10.6 3.3 2.1 2 3 4.9 3.8 7.7 2.7 11.2 4 22.7 4.9 34.2z"/><path fill="#D0D2D5" d="M814 171.8c2.7-2 5.8-3.3 8.4-5.5 2.6-2.4 4.8-5.2 6.4-8.4 4.5-8.2 7.9-17.4 7.2-26.7s-6.3-18.7-15.2-21.7c5.6-17.2 1-35.8-3.7-53.3-1.5-5.6-3-11.3-5.7-16.5-5.4-10.4-15.1-17.7-25-23.9C775 8.7 762.7 2.7 749.4.7c-13.8-2-27.9.4-41 5.1-7 2.5-14 5.8-19.2 11.2-3.8 3.9-6.5 8.8-9.9 13.1-5.4 7-12.6 12.6-17.1 20.2-5 8.5-6.2 18.5-7.2 28.3l-3.6 32.4c-2.4-3.3-7.5-3.6-11-1.5s-5.5 5.9-6.9 9.7c-3.8 11.3-2.3 23.7 4 33.7 2.8 4.3 6.4 8.1 9.5 12.1 16.1 20.5 22.3 49.6 44.3 63.7 5.1 3.2 10.7 5.4 16.3 7.6 10.4 4 21.3 8.2 32.5 7 9.5-1 18.1-5.6 26.4-10.2 10.2-5.6 29.9-11.5 34.3-23.3 5.1-12.9.4-28.3 13.2-38z"/><path opacity=".1" d="M708.8 180.3c2.9-2.1 5.6-4.5 8.8-6 4.5-2 9.5-2.2 14.2-.6.9.4 1.9.7 2.9.7 1.3-.2 2.5-.6 3.6-1.3 4.4-1.9 9.6-.5 14 1.4 5.9 2.8 11.5 6 16.8 9.7-2.1.7-4.2 1.5-6.2 2.5-2.3 1.2-4.5 2.6-6.8 3.8-5.8 2.8-12.1 4.6-18.5 5.1-1.7.2-3.5.3-5.2.3-7.1-.1-13.8-2.7-20.5-5.2l-5.8-2.2-2.9-1.1c-.6-.2-2.5-.6-2.8-1.1-.7-1 2.5-2.2 3.4-2.7 1.8-1 3.4-2.1 5-3.3zm57.4-79.3c.8-.3 1.6-.6 2.3-.9 9.6-3 20 .9 25.1 9.6-.7.2-1.4-.5-1.9-.9-1.6-1.2-3.3-2.1-5.1-2.8l-3.6-1.8c-4.4-1.7-9.2-2-13.7-.8-4.4 1-8 3.2-12 5.1 0-1.4 2.7-3.4 3.8-4.3 1.5-1.3 3.3-2.3 5.1-3.2zm11 14.7c4.3.1 9-.3 12.4-3-2.1-.2-4.1.5-6.1 1-3.7.9-7.5.9-11.2.1-1.8-.4-3.6-1-5.5-1.3-1.5-.4-3.1-.3-4.6.2.5 1.4 5.6 1.9 7 2.2 2.7.5 5.3.8 8 .8zM702.1 101c-.8-.3-1.5-.6-2.3-.9-9.6-3-20 .9-25.1 9.6.7.2 1.4-.5 1.9-.9 1.6-1.2 3.3-2.1 5.1-2.8l3.6-1.8c4.4-1.7 9.2-2 13.8-.8 4.4 1 8 3.2 12 5.1 0-1.4-2.7-3.4-3.8-4.3-1.6-1.3-3.3-2.3-5.2-3.2zm-11 14.7c-4.3.1-9-.3-12.4-3 2.1-.2 4.1.5 6.1 1 3.7.9 7.5.9 11.2.1 1.8-.4 3.7-1 5.5-1.3 1.5-.4 3.1-.3 4.6.2-.5 1.4-5.6 1.9-7 2.2-2.6.5-5.3.8-8 .8z"/><ellipse opacity=".1" cx="720.5" cy="153.4" rx="6.4" ry="2.6"/><ellipse opacity=".1" cx="748.5" cy="153.4" rx="6.4" ry="2.6"/><path opacity=".1" d="M599.5 339.8c8.1-2.8 16.6-4.2 25.2-4.1 8.4.1 16.7 1.7 25 2.5 13.1 1.4 26.4 1.1 39.6.8m161.8.8c-8.1-2.8-16.6-4.2-25.2-4.1-8.4.1-16.7 1.7-25 2.5-13.1 1.4-26.4 1.1-39.6.8m-55.5 47c3.3 9 14.4 12.7 19.2 21 1.5 2.9 2.6 6 3.3 9.2l2.6 10c-1-4.9-2-9.9-1.7-14.9s2.1-10.1 5.9-13.5c2.1-1.6 4.4-3 6.8-4l15.3-7.3M313.4 176.1c-4.8 4.8-5 12.3-6.3 19-2 9.9-3.5 15.4-10.6 21.4 1.3 1.5 2.8 2.9 4.7 3 1.4-.1 2.8-.5 4.1-1.1l8.4-3.4c8.6-6.6 10.2-12.2 12.4-22.9 1.3-6.6 1.5-14.2 6.3-19 .4-.4.9-.8 1.3-1.1-7.6-.4-15.2-.9-20.3 4.1zM484.2 126c4.7-2.5 9.7-4.7 14.7-6.5-1.3-4.1-10.2-.8-10.6-5.1 0-1.1.4-2.2 1.2-3l8.6-12.3c-8.2 2.1-16.5-3.6-21.7-10.3s-8.6-14.8-14.7-20.7c-12.1-11.8-31.1-12.2-48-11.7l-31.3.8c-14.1.3-28.3.7-41.9 4.1 7.6-.7 15.3-.9 22.9-1.1l31.3-.8c17-.4 35.9-.1 48 11.7 6.1 5.9 9.5 14 14.7 20.7s13.5 12.4 21.7 10.3l-8.6 12.3c-.7.8-1.1 1.9-1.2 3 .5 4.3 9.3 1 10.6 5.1-5 1.8-9.9 4-14.7 6.5.9 1.8 2.6 3 4.6 3.1-6.9 3.5-13.9 6.5-21.2 9h1.6c13.6-.1 26.4-6.1 38.6-12.1-1.9-.1-3.7-1.3-4.6-3zm-101.7 14.2c-6.3.3-13.1 1.2-17.6 5.7-6.1 6.1-5.7 16.7-12.2 22.3-.3.2-.6.5-.9.7 7.3.4 14.7.8 19.9-3.7 6.5-5.6 6.2-16.3 12.2-22.3 1.1-1.1 2.4-2.1 3.9-2.8-1.8 0-3.6 0-5.3.1z"/></svg>