<?xml version="1.0" encoding="utf-8"?>
<!-- Generator: Adobe Illustrator 22.1.0, SVG Export Plug-In . SVG Version: 6.00 Build 0)  -->
<svg version="1.1" id="图层_1" xmlns="http://www.w3.org/2000/svg" xmlns:xlink="http://www.w3.org/1999/xlink" x="0px" y="0px"
	 viewBox="0 0 1008.1 779.6" xml:space="preserve">
<style type="text/css">
	.st2{opacity:0.8;fill:#FA5959;}
	.st3{opacity:0.8;fill:#FED253;}
	.st4{opacity:0.8;fill:#8CCF4D;}
	.st5{fill:#FFFFFF;}
	.st6{opacity:0.2;}
	.st8{fill:url(#SVGID_1_);}
	.st9{fill:#EE8E9E;}
	.st10{fill:#3F3D56;}
	.st11{opacity:5.000000e-02;}
	.st12{fill:#303D5C;}
	.st13{opacity:0.1;}
	.st14{fill:url(#SVGID_2_);}
	.st15{fill:#A1616A;}
	.st16{fill:#E1E7EF;}
	.st17{fill:#67647E;}
	.st18{opacity:3.000000e-02;}
	.st19{opacity:0.1;}
	.st20{fill:#FFD037;}
	.st21{fill:#A8A8A8;}
	.st22{opacity:0.2;}
</style>
<path class="st0" fill="#E8EAF2" d="M28.1,0h972.3c4.2,0,7.7,3.4,7.7,7.7V531c0,4.2-3.4,7.7-7.7,7.7H28.1c-4.2,0-7.6-3.4-7.6-7.7V7.7
	C20.5,3.4,23.9,0,28.1,0z"/>
<path class="st1" fill="#65617D" d="M1008.1,7.7v25.9H20.5V7.7c0-4.2,3.4-7.7,7.6-7.7c0,0,0,0,0,0h972.3C1004.7,0,1008.1,3.4,1008.1,7.7
	C1008.1,7.6,1008.1,7.6,1008.1,7.7L1008.1,7.7z"/>
<circle class="st2" cx="35.7" cy="16.8" r="6.5"/>
<circle class="st3" cx="53.3" cy="16.8" r="6.5"/>
<circle class="st4" cx="70.9" cy="16.8" r="6.5"/>
<path class="st5" d="M66.2,359.5h476.7c1,0,1.9,0.8,1.9,1.9v11.5c0,1-0.8,1.9-1.9,1.9H66.2c-1,0-1.9-0.8-1.9-1.9v-11.5
	C64.3,360.3,65.2,359.5,66.2,359.5z"/>
<path class="st5" d="M66.2,391.8h476.7c1,0,1.9,0.8,1.9,1.9v11.5c0,1-0.8,1.9-1.9,1.9H66.2c-1,0-1.9-0.8-1.9-1.9v-11.5
	C64.3,392.6,65.2,391.8,66.2,391.8z"/>
<path class="st5" d="M66.2,424.1h476.7c1,0,1.9,0.8,1.9,1.9v11.5c0,1-0.8,1.9-1.9,1.9H66.2c-1,0-1.9-0.8-1.9-1.9V426
	C64.3,424.9,65.2,424.1,66.2,424.1z"/>
<path class="st5" d="M66.2,456.4h476.7c1,0,1.9,0.8,1.9,1.9v11.5c0,1-0.8,1.9-1.9,1.9H66.2c-1,0-1.9-0.8-1.9-1.9v-11.5
	C64.3,457.3,65.2,456.4,66.2,456.4z"/>
<path class="st5" d="M66.2,488.7h476.7c1,0,1.9,0.8,1.9,1.9v11.5c0,1-0.8,1.9-1.9,1.9H66.2c-1,0-1.9-0.8-1.9-1.9v-11.5
	C64.3,489.6,65.2,488.7,66.2,488.7z"/>
<path class="st5" d="M608.3,68.3h336.8c4.2,0,7.7,3.4,7.7,7.7v420.4c0,4.2-3.4,7.6-7.7,7.6H608.3c-4.2,0-7.7-3.4-7.7-7.6V76
	C600.7,71.7,604.1,68.3,608.3,68.3z"/>
<path class="st0" d="M622.1,147.4h312c1,0,1.9,0.8,1.9,1.9v11.5c0,1-0.8,1.9-1.9,1.9h-312c-1,0-1.9-0.8-1.9-1.9v-11.5
	C620.2,148.3,621.1,147.4,622.1,147.4z"/>
<path class="st0" d="M622.1,176.4h312c1,0,1.9,0.8,1.9,1.9v11.5c0,1-0.8,1.9-1.9,1.9h-312c-1,0-1.9-0.8-1.9-1.9v-11.5
	C620.2,177.2,621.1,176.4,622.1,176.4z"/>
<path class="st0" d="M622.1,263.1h312c1,0,1.9,0.8,1.9,1.9v11.5c0,1-0.8,1.9-1.9,1.9h-312c-1,0-1.9-0.8-1.9-1.9V265
	C620.2,263.9,621.1,263.1,622.1,263.1z"/>
<path class="st0" d="M622.1,292h312c1,0,1.9,0.8,1.9,1.9v11.5c0,1-0.8,1.9-1.9,1.9h-312c-1,0-1.9-0.8-1.9-1.9v-11.5
	C620.2,292.8,621.1,292,622.1,292z"/>
<path class="st6" d="M72,68.3h465.2c4.2,0,7.7,3.4,7.7,7.7v207.8c0,4.2-3.4,7.6-7.7,7.6H72c-4.2,0-7.7-3.4-7.7-7.6V76
	C64.3,71.7,67.8,68.3,72,68.3z M622.1,118.5h59.7c1,0,1.9,0.8,1.9,1.9v11.5c0,1-0.8,1.9-1.9,1.9h-59.7c-1,0-1.9-0.8-1.9-1.9v-11.5
	C620.2,119.4,621.1,118.5,622.1,118.5z M622.1,234.2h59.7c1,0,1.9,0.8,1.9,1.9v11.5c0,1-0.8,1.9-1.9,1.9h-59.7c-1,0-1.9-0.8-1.9-1.9
	v-11.5C620.2,235,621.1,234.2,622.1,234.2z M622.1,349.8h59.7c1,0,1.9,0.8,1.9,1.9v11.5c0,1-0.8,1.9-1.9,1.9h-59.7
	c-1,0-1.9-0.8-1.9-1.9v-11.5C620.2,350.7,621.1,349.8,622.1,349.8z"/>
<path class="st0" d="M622.1,378.7h312c1,0,1.9,0.8,1.9,1.9v11.5c0,1-0.8,1.9-1.9,1.9h-312c-1,0-1.9-0.8-1.9-1.9v-11.5
	C620.2,379.6,621.1,378.7,622.1,378.7z"/>
<path class="st0" d="M622.1,407.6h312c1,0,1.9,0.8,1.9,1.9v11.5c0,1-0.8,1.9-1.9,1.9h-312c-1,0-1.9-0.8-1.9-1.9v-11.5
	C620.2,408.5,621.1,407.6,622.1,407.6z"/>
<path class="st7" d="M483.2,307.3h59.7c1,0,1.9,0.8,1.9,1.9v11.5c0,1-0.8,1.9-1.9,1.9h-59.7c-1,0-1.9-0.8-1.9-1.9v-11.5
	C481.3,308.2,482.2,307.3,483.2,307.3z"/>
<linearGradient id="SVGID_1_" gradientUnits="userSpaceOnUse" x1="895.2844" y1="-4.3007" x2="895.2844" y2="439.8899" gradientTransform="matrix(-1 0 0 -1 1488.2101 721.78)">
	<stop  offset="0" style="stop-color:#808080;stop-opacity:0.25"/>
	<stop  offset="0.54" style="stop-color:#808080;stop-opacity:0.12"/>
	<stop  offset="1" style="stop-color:#808080;stop-opacity:0.1"/>
</linearGradient>
<path class="st8" d="M505.5,335.7c0.9,1.3,2.1,2.4,3.3,3.4c0.8,0.7,1.7,1.4,2.6,2l0.8,0.5c0,0-0.1,0.1-0.1,0.1
	c-0.2,0.4-0.3,0.8-0.2,1.3c0.2,0.5,0.5,1,1,1.3c2.1,1.9,3.5,4.5,4,7.3c0.3,1.6-0.8,3.4-0.7,5c0.2,1.6,0.6,3.2,1.3,4.7
	c1.4,3.5,2.8,7.1,5.5,9.6c0.6,5.6,2.8,10.9,6.2,15.3c2.9,3.7,6.7,6.5,10.5,9.2c1.2,1,2.5,1.8,3.9,2.4c1.2,0.5,2.5,0.8,3.8,1
	c11.1,2.2,22.3,3.5,33.6,3.9c0.3,6.7,0.5,13.4,0.4,20.2c0.1,1.1-0.1,2.2-0.5,3.3c-0.6,1-1.2,1.9-2,2.7c-2.6,3.4-2.7,8.1-2.5,12.4
	c0.3,5,0.8,10,1.8,15c1.2,6.3,0.1,13.3,2.3,19.4c0.9,2.4,1.8,4.8,2.7,7.2c0.3,0.7,0.5,1.4,0.5,2.1c0,1.6-1,2.9-1.8,4.3
	c-1.1,2-1.7,4.2-1.6,6.5c0,0.3,0.1,0.5,0.2,0.7c0.3,0.4,0.9,0.4,1.4,0.3c2-0.3,4-0.5,6-0.5c-0.4,0.4-0.7,0.9-1,1.4
	c-0.5,0.8-0.9,1.7-1.3,2.6c-0.7,1.5-1.3,3.1-1.7,4.7c-0.1,0.2-0.1,0.5-0.2,0.7c-0.1,0.5-0.2,1-0.3,1.5c-0.4,2.8-0.6,5.7-0.5,8.6
	c-0.3,5.3-0.5,10.9-1.1,12.6c-0.7,2.3,0.2,6,1.1,9.5c0,2.4,0.5,4.8,1.3,7.1c0.1,2.5,0.4,5,0.9,7.5c3.1,17.4,6.4,34.8,9.9,52.1
	c0.3,1.5,0.6,3,1,4.5c1.3,4.8,3.6,9.3,6.7,13.2c2.7,3.5,5.1,7.2,7,11.2c-0.2,0.9-0.4,1.9-0.6,2.8c-2,8.3-4.6,16.5-5.5,25
	c-0.4,3.4-0.5,6.9-1.8,10c-0.7,1.6-1.7,3.1-1.8,4.8c-0.1,1.1,0.2,2.2,0.7,3.1l-0.7,0.5l-0.4,0.3c-2.5,2-5.9,2.4-9.1,3.3
	c-3.1,0.8-6.5,2.5-7.5,5.6c-0.1,0.2-0.1,0.4-0.2,0.6c-0.6,2.9,1.2,5.9,3.6,7.6c2.6,1.8,5.8,2.3,9,2.8c3.2,0.4,6.4,0.7,9.2,2.1
	c2.5,1.2,4.5,3.2,7.1,4.1l0.5,0.1c-0.6,0.3-1.2,0.7-1.8,1c-2.7,1.4-5.6,2.3-8.6,2.7c-3,0.4-6.6,0.6-8.2,3.2
	c-1.3,2.2-0.3,5.1,1.5,6.8c1.8,1.7,4.4,2.5,6.8,3c5.6,1.1,11.3,1.8,17,2.1l5.5,0.4c5.4,0.4,10.8,0.8,16.3,0.8c6.7,0,13.4-0.6,20-1.7
	c0.9,0.1,1.8-0.6,1.8-1.6c0-0.1,0-0.3,0-0.4c-0.1-6.8-0.9-13.6-2.5-20.2c-0.5-2-3.2,0.7-4.7,2.4c-0.2-1-0.4-2-0.7-2.9l1.2-0.6
	c0.9-0.3,1.7-1,2.2-1.8c0.2-0.7,0.3-1.4,0.2-2.1c-0.2-4.4-0.5-8.9-2.6-12.7c-1.4-2.3-3-4.4-5-6.2c-0.5-13.7-2.1-27.4-5-40.8
	c-1.5-6.8-3.4-13.7-7.4-19.5c-0.5-0.7-1-1.4-1.6-2.2c-0.4-6.6-1.2-13.1-2.4-19.6c-0.2-0.9-0.2-1.8,0-2.6c0.4-0.7,0.9-1.4,1.4-2
	c2.4-3.1,1.4-7.4,1.1-11.3c-0.4-5.6,0.9-11.1,2.2-16.5l4.8-20.1c0.4-1.9,1-3.8,1.7-5.6c1.3-2.4,2.7-4.8,4.3-7
	c4.5-7.1,6.6-15.5,6.1-23.9c0.9,0.3,1.8,0.7,2.7,1c0.7-5.6-1.7-12,0-17.3c2.9-2.1,5.3-4.9,6.8-8.2c1.3-3,1.7-6.3,3.1-9.2
	c0.8-1.7,1.9-3.2,2.3-5c0.7-2.7-0.2-5.5-0.1-8.2c0.1-6,4.4-11.5,3.5-17.4c-0.5-2.8-2.1-5.4-2-8.3c0.1-1.5,0.5-3,1.2-4.5
	c3.3-8.7,6.5-18,4.8-27.1c-0.4-2.4-1.2-4.7-1.1-7.1c0.1-2.7,1.4-5.4,1-8.1c-0.2-1-0.6-2-1.2-2.8c1.2-1.8,2.2-3.7,3-5.7
	c0.5-1.1,0.8-2.4,0.8-3.7c-0.2-1.7-1.2-3.3-2.6-4.4c-1.4-1-2.9-1.9-4.5-2.6c-0.5-0.2-0.9-0.5-1.3-0.9c-0.3-0.5-0.5-0.9-0.7-1.4
	c-0.9-1.5-2.8-2-4.3-2.9c-5.5-3.3-4.9-11.9-9.6-16.3c-3.3-2.9-8.1-3.2-11.7-0.6c-0.4,0.4-1,0.7-1.6,0.8c-0.6-0.1-1.2-0.4-1.6-0.9
	c-1.2-0.8-2.5-1.2-3.9-1.1c-0.9-3.4-1.2-6.9-1.1-10.4h0.4c0.5,0,1.1,0,1.6-0.2c2.4-0.7,3.8-3.2,4.7-5.5c0.8-1.9,1.5-4,2.1-6
	c0-0.2,0.1-0.4,0.1-0.6c4.6,3.2,9.9,6.6,11.2,5.9c2.3-1.3-10.5-10.4-10.5-10.4c1.5-1.3,2.3-3.8,2.7-5.9c0.9-4.3,0.9-8.6,0.1-12.9
	c-1-4.2-3.5-8.2-7.4-10.2c-1.7-0.9-3.8-1.5-5-2.8c-0.2-0.2-0.4-0.4-0.5-0.7c-0.1-0.1-0.1-0.2-0.2-0.4c-0.1-0.4-0.3-0.7-0.5-1
	c-0.7-0.8-2-0.6-3-0.4h-0.9c-3.8,0.1-7.5-2-11.3-2c-4.2,0-7.8,2.5-11.5,4.1c-0.8,0.3-1.5,0.6-2.1,1c-2.3,1.1-4.2,2.2-5.3,4.9
	c-0.7,0.9-1.3,1.9-1.5,3c-0.1,0.5-0.2,1-0.2,1.5c-10,9.9-10.1,26.1-0.2,36.1c3.2,3.2,7.2,5.6,11.7,6.7c0.1,0.3,0.2,0.5,0.3,0.8
	c0.8,2.3,1.1,4.7,1.1,7.1v0.5c-1.9,0.5-3.8,1.2-5.5,2.2c-2.2,1.3-3.8,3.3-4.7,5.7c0,0.2-0.1,0.4-0.1,0.5c-1.4-0.4-2.8-0.7-4.2-0.7
	c-1.3-0.2-2.6,0.2-3.6,1.1c-0.3,0.4-0.6,0.9-0.7,1.4c-0.5,0.5-0.6,1.2-0.9,1.8c-1.1,1.9-3.9,1.3-6,1.8c-2.3,0.6-4.1,2.7-6.4,2.7
	c-0.9-0.1-1.8-0.2-2.7-0.1c-0.9,0.2-1.6,1.4-0.9,2c-1.1-0.1-2.1,0.4-2.7,1.3c-0.7,0.8-1.1,1.8-1.8,2.6c-0.6-0.9-1.7-1.3-2.8-1.1
	c-1,0.2-2,0.6-2.9,1.2c-0.4,0.2-0.8,0.4-1.3,0.5c-0.5,0-1.1,0-1.6-0.1c-2.5-0.4-5.1-0.1-7.4,1c-2,1-4-0.8-6.2-1
	c-0.8,0-1.6-0.2-2.3-0.7c-0.4-0.5-0.7-1.1-0.9-1.8c-1-2.9-3.5-5.1-6.5-5.8c1.2-3.8-0.7-7.9-4.5-9.4c0.3-2.7-0.8-5.3-2.8-7.1
	c-0.5-0.3-1-0.7-1.4-1.1c-0.6-0.7-1-1.5-1.3-2.4c-0.7-1.7-1.3-3.5-2-5.3c-0.9-0.2-1.6-0.5-2.4-0.7v-0.5c0-1.8-0.3-3.6-0.9-5.3
	c-1-2.8-2.4-5.4-4.2-7.7c-1.9-2.6-4-5.3-6.8-6.9c-0.9-0.5-1.9-1-2.9-1.3l-5.1-2.1c-0.3-0.1-0.6-0.2-0.9-0.2c-1.4,0-1.6,2.1-0.8,3.3
	c1.6,2.3,5.1,2.9,6,5.5c-1.7,0.1-3.2,1.2-3.7,2.9c0,0.4-0.2,0.8-0.5,1.1c-0.5,0.4-1.2,0.2-1.7,0.4c-0.9,0.5-0.5,1.8-0.6,2.9
	c-0.2,0.9-0.5,1.8-0.9,2.6C504.2,332.6,504.6,334.3,505.5,335.7L505.5,335.7z M628,693.9l-0.1-1.6c0.1,0.3,0.2,0.6,0.3,0.8
	c0.9,2.4,1.9,4.7,3,7l-0.2-0.1c-0.8-0.4-1.6-0.6-2.4-0.7c-0.2,0-0.5,0-0.7-0.1C628.2,697.6,628.3,695.7,628,693.9L628,693.9z"/>
<path class="st9" d="M614.2,349.2c-0.1,3.7-1.4,7.4-1.6,11.1c11,0.5,21.8-4.8,32.7-3.1c-3-2-4.7-5.5-5.6-9
	c-1.2-4.5-1.6-9.2-1.1-13.8c0-0.3,0.1-0.5,0.1-0.8c0.4-1.8,1.5-4.4,1.2-5.8c-0.4-1.9-2.2-1.5-3.8-1.4c-4.9,0.4-9.8,1-14.7,1.9
	c-1.3,0.2-13.6,3.3-13.8,3c2.2,3.5,3.9,7.2,5.3,11C613.8,344.4,614.2,346.8,614.2,349.2L614.2,349.2z M505.5,337.7
	c0.9,1.3,2.1,2.4,3.4,3.4c0.8,0.7,1.7,1.4,2.6,2c1.6,1.2,3.5,2,5.5,2.2c2.6,0.2,8.2-1.4,9.8-3.6c0.7-1.1,1-2.4,0.9-3.8
	c0-1.8-0.3-3.6-0.9-5.3c-1-2.8-2.4-5.3-4.2-7.7c-1.9-2.6-4-5.2-6.8-6.8c-0.9-0.5-1.9-0.9-2.9-1.3l-5.1-2.1c-0.3-0.1-0.6-0.2-0.9-0.2
	c-1.4,0-1.6,2.1-0.9,3.2c1.6,2.3,5.1,2.9,6.1,5.5c-1.7,0-3.2,1.2-3.6,2.8c0,0.4-0.2,0.8-0.5,1.1c-0.5,0.4-1.2,0.2-1.7,0.4
	c-0.9,0.5-0.5,1.8-0.6,2.9c-0.2,0.9-0.5,1.8-0.9,2.6C504.3,334.7,504.6,336.4,505.5,337.7z"/>
<path class="st1" d="M657,711.8c-0.8-0.8-2.2-0.7-3.4-0.5c-6.4,1-12.8,1.5-19.2,1.5c-0.8-3.9,1.5-7.7,2.3-11.7c0.1-1,0.4-2,0.8-3
	c0.9-1.7,3-2.5,4.9-2.9c3.5-0.7,8.8-2,10.8,1.5C655.4,700.9,656.2,707.1,657,711.8L657,711.8z"/>
<path class="st10" d="M586.8,696.9c2.6,1.8,5.8,2.3,9,2.7s6.4,0.7,9.2,2.1c2.5,1.2,4.5,3.2,7.1,4.1c2.4,0.7,4.9,0.7,7.4,0.1
	c2.9-0.5,6-1.6,7.6-4.1c1.4-2.2,1.3-5.1,1.1-7.7c-0.2-3-0.4-6-0.7-8.9c0-0.8-0.2-1.5-0.6-2.2c-2.1-3.1-7.2,1.3-10,1.3
	c-4.3,0-9-2.4-12.1-5.2c-0.3-0.3-0.6-0.5-0.9-0.7c-1.2-0.5-2.5,0.5-3.6,1.4l-0.4,0.3c-2.5,2-5.9,2.4-9.1,3.2s-6.5,2.5-7.5,5.5
	c-0.1,0.2-0.1,0.4-0.2,0.6C582.6,692.2,584.3,695.2,586.8,696.9L586.8,696.9z"/>
<path class="st11" d="M586.8,696.9c2.6,1.8,5.8,2.3,9,2.7s6.4,0.7,9.2,2.1c2.5,1.2,4.5,3.2,7.1,4.1c2.4,0.7,4.9,0.7,7.4,0.1
	c2.9-0.5,6-1.6,7.6-4.1c1.4-2.2,1.3-5.1,1.1-7.7c-0.2-3-0.4-6-0.7-8.9c0-0.8-0.2-1.5-0.6-2.2c-2.1-3.1-7.2,1.3-10,1.3
	c-4.3,0-9-2.4-12.1-5.2c-0.3-0.3-0.6-0.5-0.9-0.7c-1.2-0.5-2.5,0.5-3.6,1.4l-0.4,0.3c-2.5,2-5.9,2.4-9.1,3.2s-6.5,2.5-7.5,5.5
	c-0.1,0.2-0.1,0.4-0.2,0.6C582.6,692.2,584.3,695.2,586.8,696.9L586.8,696.9z"/>
<path class="st0" d="M586.8,697.9c2.6,1.8,5.8,2.3,9,2.7s6.4,0.7,9.2,2.1c2.5,1.2,4.5,3.2,7.1,4.1c2.4,0.7,4.9,0.7,7.4,0.1
	c3.1-0.7,5.8-2.5,7.6-5.1c1.4-2.2,1.3-5.1,1.1-7.7c-0.2-3-0.4-6-0.7-8.9c0-0.8-0.2-1.5-0.6-2.2c-2.1-3.1-7.2,1.3-10,1.3
	c-4.3,0-9-2.4-12.1-5.2c-0.3-0.3-0.6-0.5-0.9-0.7c-1.2-0.5-2.5,0.5-3.6,1.4c0.7,2.2,1.7,4.3,3,6.3c2.1,3.3,5.6,5.5,9.6,6
	c1.9,0.1,3.9-0.2,5.8,0.3s3.6,2.4,3,4.2s-3,2.2-4.8,2.3c-2.6,0.3-5.3,0.1-7.9-0.6c-1.5-0.5-3-1.4-4.4-2c-6.4-2.6-14.4-1.2-19.7-5.6
	c-0.5-0.5-1-0.9-1.6-1.2C581.8,692.3,584.3,696.3,586.8,697.9L586.8,697.9z"/>
<path class="st11" d="M586.8,697.9c2.6,1.8,5.8,2.3,9,2.7s6.4,0.7,9.2,2.1c2.5,1.2,4.5,3.2,7.1,4.1c2.4,0.7,4.9,0.7,7.4,0.1
	c3.1-0.7,5.8-2.5,7.6-5.1c1.4-2.2,1.3-5.1,1.1-7.7c-0.2-3-0.4-6-0.7-8.9c0-0.8-0.2-1.5-0.6-2.2c-2.1-3.1-7.2,1.3-10,1.3
	c-4.3,0-9-2.4-12.1-5.2c-0.3-0.3-0.6-0.5-0.9-0.7c-1.2-0.5-2.5,0.5-3.6,1.4c0.7,2.2,1.7,4.3,3,6.3c2.1,3.3,5.6,5.5,9.6,6
	c1.9,0.1,3.9-0.2,5.8,0.3s3.6,2.4,3,4.2s-3,2.2-4.8,2.3c-2.6,0.3-5.3,0.1-7.9-0.6c-1.5-0.5-3-1.4-4.4-2c-6.4-2.6-14.4-1.2-19.7-5.6
	c-0.5-0.5-1-0.9-1.6-1.2C581.8,692.3,584.3,696.3,586.8,697.9L586.8,697.9z"/>
<path class="st12" d="M655.8,503.3c2,10,0.1,20.3-5.4,28.9c-1.6,2.2-3.1,4.6-4.3,7c-0.7,1.8-1.3,3.6-1.7,5.5l-4.8,20
	c-1.3,5.4-2.6,10.9-2.2,16.4c0.3,3.9,1.3,8.2-1.1,11.3c-0.6,0.6-1.1,1.3-1.4,2c-0.2,0.9-0.2,1.7,0,2.6c2.4,14.5,4.3,29.7-0.2,43.7
	c-4,12.7-4.2,26.8-7.6,39.7c-0.3,1.6-1,3.2-2.1,4.4c-0.9,0.8-2,1.3-3.2,1.5c-5,1.2-10.3-0.2-15-2.4c-3.3-1.5-6.8-4.2-6.5-7.8
	c0.1-1.7,1.1-3.2,1.8-4.8c1.3-3.1,1.4-6.6,1.8-9.9c0.9-8.4,3.5-16.6,5.5-24.8s3.3-16.9,1.6-25.2c-3.4-17.2-8.8-33.9-16.2-49.9
	c-0.3-0.8-0.8-1.6-1.5-2.2c-0.8-0.4-1.5-0.9-2.1-1.5c-0.5-0.8-0.9-1.7-1-2.6c-0.7-2.6-2.9-4.6-4.4-6.9c-3.7-5.8-2.5-13.3-2.4-20.2
	c0.1-6.7-0.8-13.5,0.3-20.1s4.9-13.4,11.3-15.5c3.2-1,6.6-0.8,9.9-0.5C622.3,493.8,639.4,497,655.8,503.3L655.8,503.3z"/>
<path class="st11" d="M655.8,503.3c2,10,0.1,20.3-5.4,28.9c-1.6,2.2-3.1,4.6-4.3,7c-0.7,1.8-1.3,3.6-1.7,5.5l-4.8,20
	c-1.3,5.4-2.6,10.9-2.2,16.4c0.3,3.9,1.3,8.2-1.1,11.3c-0.6,0.6-1.1,1.3-1.4,2c-0.2,0.9-0.2,1.7,0,2.6c2.4,14.5,4.3,29.7-0.2,43.7
	c-4,12.7-4.2,26.8-7.6,39.7c-0.3,1.6-1,3.2-2.1,4.4c-0.9,0.8-2,1.3-3.2,1.5c-5,1.2-10.3-0.2-15-2.4c-3.3-1.5-6.8-4.2-6.5-7.8
	c0.1-1.7,1.1-3.2,1.8-4.8c1.3-3.1,1.4-6.6,1.8-9.9c0.9-8.4,3.5-16.6,5.5-24.8s3.3-16.9,1.6-25.2c-3.4-17.2-8.8-33.9-16.2-49.9
	c-0.3-0.8-0.8-1.6-1.5-2.2c-0.8-0.4-1.5-0.9-2.1-1.5c-0.5-0.8-0.9-1.7-1-2.6c-0.7-2.6-2.9-4.6-4.4-6.9c-3.7-5.8-2.5-13.3-2.4-20.2
	c0.1-6.7-0.8-13.5,0.3-20.1s4.9-13.4,11.3-15.5c3.2-1,6.6-0.8,9.9-0.5C622.3,493.8,639.4,497,655.8,503.3L655.8,503.3z"/>
<path class="st12" d="M584.4,545.3c0.1,2.6,0.4,5.2,0.9,7.8c3.1,17.3,6.4,34.6,9.9,51.8c0.3,1.5,0.6,3,1,4.5
	c1.3,4.8,3.6,9.3,6.7,13.2c14.6,18.2,15.8,44.5,23.7,66.4c0.5,1.5,1.1,3,1.6,4.4c1.4,3.7,3.1,7.3,4.9,10.9c0.2,0.5,0.6,1,1,1.3
	c0.5,0.2,1,0.3,1.6,0.3c7.1,0,14.1-1.6,20.5-4.7c0.9-0.3,1.7-1,2.2-1.8c0.2-0.7,0.3-1.4,0.2-2.1c-0.2-4.3-0.5-8.8-2.6-12.7
	c-1.4-2.3-3-4.3-5-6.1c-0.5-13.6-2.1-27.2-5-40.6c-1.5-6.8-3.4-13.7-7.4-19.4c-2.9-4.2-7.1-8.4-6.6-13.5c0.2-2.3,1.2-5-0.7-6.4
	c-0.8-0.6-2-0.7-2.5-1.5c-0.2-0.4-0.3-0.8-0.3-1.3c-0.4-3.5-0.2-7.1,0.6-10.5c0.7-2.2,1.2-4.5,1.6-6.8c0.4-2.3-0.3-4.7-1.7-6.6
	c-0.1-4.7,0-9.5-0.1-14.2c-0.2-2.7,0-5.3,0.7-7.9c0.4-1.2,0.9-2.4,1.2-3.6c1-4.5-1.5-9.9,1.4-13.4c1.2-1.5,3.1-2.2,4.7-3.3
	c3.1-2.3,5.4-5.5,6.4-9.2c1-3.7,1.6-7.5,1.8-11.3c0.1-0.8,0.1-1.6,0-2.4c-0.1-0.4-0.2-0.8-0.3-1.2c-0.9-2-3.3-2.8-5.5-3.3
	c-13.7-3.3-27.8-4.9-41.9-4.9c-5.2-3.5-8.2-2.3-10.4,1.5c-1.2,2.3-2.2,4.7-3,7.2c-1,3.1-1.1,20.1-2.1,23.2
	C580.8,533,584.5,541.1,584.4,545.3L584.4,545.3z"/>
<path class="st10" d="M678.8,389.8c0.4,2.7-0.9,5.3-1,8c-0.1,2.4,0.6,4.7,1.1,7c1.7,9.1-1.5,18.3-4.8,27c-0.6,1.4-1,2.9-1.2,4.4
	c-0.1,2.8,1.5,5.4,2,8.2c0.9,5.9-3.4,11.4-3.5,17.3c0,2.7,0.8,5.5,0.1,8.2c-0.6,1.7-1.4,3.4-2.3,4.9c-1.4,2.9-1.8,6.2-3.1,9.2
	c-2.4,5.3-7.5,8.8-12.4,12c-2.8-0.9-5.8-2-7.3-4.5c-0.7-1.2-1.1-2.6-1.3-4c-1.1-6.1-1-12.3-1-18.5c-0.1-5.3,0.2-10.6,0.8-15.9
	c1-6.7,3.2-13.2,4.7-19.8c2-8.3,3-16.9,6-24.9c2.7-7,6.9-13.3,11.3-19.3c1.7-2.3,3-5.6,6.3-5.1C676.1,384.7,678.3,386.9,678.8,389.8
	L678.8,389.8z"/>
<path class="st11" d="M678.8,389.8c0.4,2.7-0.9,5.3-1,8c-0.1,2.4,0.6,4.7,1.1,7c1.7,9.1-1.5,18.3-4.8,27c-0.6,1.4-1,2.9-1.2,4.4
	c-0.1,2.8,1.5,5.4,2,8.2c0.9,5.9-3.4,11.4-3.5,17.3c0,2.7,0.8,5.5,0.1,8.2c-0.6,1.7-1.4,3.4-2.3,4.9c-1.4,2.9-1.8,6.2-3.1,9.2
	c-2.4,5.3-7.5,8.8-12.4,12c-2.8-0.9-5.8-2-7.3-4.5c-0.7-1.2-1.1-2.6-1.3-4c-1.1-6.1-1-12.3-1-18.5c-0.1-5.3,0.2-10.6,0.8-15.9
	c1-6.7,3.2-13.2,4.7-19.8c2-8.3,3-16.9,6-24.9c2.7-7,6.9-13.3,11.3-19.3c1.7-2.3,3-5.6,6.3-5.1C676.1,384.7,678.3,386.9,678.8,389.8
	L678.8,389.8z"/>
<path class="st13" d="M607.8,331.1c2.2,3.5,3.9,7.2,5.3,11c2,0.5,4,0.7,6,0.7c7.9,0,13.5-4.5,18.2-10.2c0.4-1.8,2.9-3.5,2.6-5
	c-0.4-1.9-2.2-1.5-3.8-1.4c-4.9,0.4-9.8,1-14.7,1.9C620.3,328.4,607.9,331.5,607.8,331.1L607.8,331.1z"/>
<circle class="st9" cx="619.1" cy="316.8" r="25.4"/>
<path class="st13" d="M587,498.6c4.4-0.3,8.8-0.1,13.2,0.1c2.8,0,5.5,0.3,8.2,0.8c3.3,0.8,6.5,2.3,9.7,3.2
	c5.3,1.5,10.8,1.6,16.3,2.1c3.6,0.4,7.1,0.9,10.7,1.7c-0.1-0.4-0.2-0.8-0.3-1.2c-0.9-2-3.3-2.8-5.5-3.3c-13.7-3.3-27.8-4.9-41.9-4.9
	C592.2,493.5,589.3,494.8,587,498.6L587,498.6z"/>
<path class="st10" d="M604.4,358.3c1.1,1.3,2.6,2.7,4.2,2.3c0.6-0.2,1.2-0.5,1.7-0.9c2.9-1.9,6.5-2.3,10-2.8
	c6.9-1,13.8-2.6,20.5-4.6c1.9-0.7,4-1.1,6.1-1.2c4.3,0,8.1,2.9,10.8,6.2s4.6,7.3,7.3,10.7c1.9,2.4,4.1,4.5,5.9,7.1
	c4.5,6.3,5.4,14.6,4.3,22.2s-4.2,14.9-7.2,22c-1.6,4.1-3.6,8.1-5.9,11.9c1,5.8,0.5,12.5-2.3,17.7c-0.9,1.7-2,3.4-2.3,5.3
	c-0.1,1.3-0.1,2.6,0.2,3.9l1.3,9.2c0.4,2.8,0.8,5.6,1.3,8.4c0.9,5.1,2.2,10.6-0.2,15.2c-2.8,5.5,0.2,12.6-0.6,18.7
	c-7.9-3.1-16.3-5-24.7-5.9c-5.5-0.5-11-0.6-16.3-2.1c-3.3-1-6.4-2.5-9.7-3.2c-2.7-0.5-5.5-0.8-8.2-0.8c-6.1-0.2-12.2-0.5-18.2,0.4
	c-0.5,0.1-1.1,0.1-1.4-0.3c-0.1-0.2-0.2-0.5-0.2-0.7c-0.1-2.3,0.5-4.5,1.6-6.5c0.8-1.4,1.8-2.7,1.8-4.2c-0.1-0.7-0.2-1.4-0.5-2.1
	l-2.7-7.1c-2.3-6-1.2-13-2.3-19.3c-0.9-4.9-1.5-9.9-1.8-14.9c-0.2-4.3-0.1-8.9,2.5-12.3c0.8-0.8,1.4-1.7,2-2.7
	c0.4-1,0.5-2.1,0.5-3.2c0.1-8.6-0.2-17.1-0.7-25.7c2.3-4,4.6-8.2,6.8-12.2c2.6-4.7,5.3-9.5,6.3-14.8c0.7-3.5,0.7-7.1,1.2-10.6
	c-0.1-2,1.5-3.6,3.4-3.7c0.4,0,0.7,0,1.1,0.1C601.3,357.5,602.9,357.8,604.4,358.3L604.4,358.3z"/>
<path class="st13" d="M511.5,343.1c1.6,1.2,3.5,2,5.5,2.2c2.6,0.2,8.2-1.4,9.8-3.6c0.7-1.1,1-2.4,0.9-3.8c-0.4-0.1-0.7-0.2-1.1-0.2
	c-2.8-0.3-5.7-0.2-8.5,0.3C515.3,338.7,512.8,340.5,511.5,343.1C511.5,343.1,511.5,343.1,511.5,343.1L511.5,343.1z"/>
<path class="st10" d="M595.9,398c-1.5,1.9-3.2,3.9-5.3,5c-2.5,1.3-5.5,1.3-8.3,1.3c-11.7-0.2-23.3-1.5-34.8-3.8
	c-1.3-0.2-2.6-0.6-3.8-1c-1.4-0.7-2.7-1.5-3.9-2.4c-3.8-2.7-7.6-5.5-10.5-9.1c-3.4-4.4-5.5-9.7-6.2-15.2c-2.7-2.5-4.2-6.1-5.5-9.5
	c-0.7-1.5-1.1-3-1.3-4.6c-0.1-1.6,1-3.4,0.7-5c-0.5-2.8-1.9-5.3-4-7.2c-0.5-0.3-0.8-0.8-1-1.3c-0.1-0.4,0-0.9,0.2-1.2
	c1.3-2.6,3.8-4.4,6.6-5c2.8-0.5,5.7-0.7,8.5-0.3c0.9,0.2,1.9,0.4,2.8,0.7l2,5.2c0.3,0.9,0.7,1.7,1.3,2.4c0.4,0.4,0.9,0.8,1.4,1.1
	c2,1.7,3.1,4.3,2.8,7c3.7,1.4,5.7,5.5,4.5,9.3c3,0.7,5.5,2.8,6.5,5.8c0.1,0.7,0.4,1.3,0.9,1.8c0.7,0.5,1.5,0.8,2.3,0.7
	c2.2,0.1,4.2,1.9,6.2,0.9c2.3-1.1,4.9-1.4,7.4-1c0.5,0.1,1,0.2,1.6,0.1c0.5-0.1,0.9-0.2,1.3-0.5c0.9-0.5,1.9-0.9,2.9-1.2
	c1.1-0.2,2.1,0.2,2.8,1.1c0.7-0.8,1.1-1.8,1.8-2.6c0.6-0.9,1.6-1.4,2.7-1.3c-0.7-0.6,0-1.8,0.9-2c0.9-0.1,1.8,0,2.7,0.1
	c2.3,0,4.1-2.1,6.4-2.7c2.1-0.5,4.9,0.1,6-1.8c0.4-0.7,0.5-1.6,1.1-2c0.4-0.2,0.9-0.3,1.4-0.2c1.5,0.2,2.9,0.6,4.3,1.3
	c2.2,8.6,1,17.5-0.6,26.2C600,391.1,598.4,394.8,595.9,398L595.9,398z"/>
<path class="st13" d="M596,428.8l10.9,22c-1.2-2-3.7-2.8-5.6-4.1c-2.5-1.8-4.4-4.3-5.4-7.2c-1-2.9-1.7-5.9-2.1-8.9
	c-0.2-1.4-0.7-3.4,0-4.6C595,426.1,595.5,427.7,596,428.8L596,428.8z M627.4,447.5c2.5,2.4,5.5,4.2,8.2,6.4c6.3,5,10.8,12,15.3,18.8
	c1.2,1.8,2.3,3.7,3.1,5.7c-0.5,0.4-1.3,0-1.8-0.5l-8.6-7.5c-1.1-0.9-2-1.8-2.9-2.9c-1.5-2-2.2-4.5-3.5-6.6c-1.5-2-3.2-3.8-5.2-5.3
	c-2-1.7-11-9.3-8.8-12.3C624.8,444,626.1,446.2,627.4,447.5L627.4,447.5z"/>
<path class="st10" d="M608.7,352c2.8-1.6,5.9-2.6,9.1-3c1.9-0.4,3.8-0.6,5.8-0.4c1.8,0.2,3.5,0.9,5.3,1c2.5,0.1,4.9-0.9,7.4-1.5
	s5.3-0.9,7.3,0.5c0.4,0.4,1,0.7,1.6,0.9c0.6-0.1,1.2-0.4,1.6-0.8c3.6-2.5,8.4-2.3,11.7,0.6c4.7,4.4,4.1,12.9,9.6,16.2
	c1.5,0.9,3.4,1.4,4.3,2.9c0.2,0.5,0.5,1,0.8,1.5c0.4,0.4,0.8,0.7,1.3,0.9c1.6,0.7,3.1,1.6,4.5,2.6c1.4,1,2.3,2.6,2.6,4.3
	c0,1.3-0.2,2.5-0.8,3.6c-5.5,13.4-18.8,21.9-33.3,21.3c-1.3,0.1-2.5-0.3-3.5-1.1c-0.5-0.6-0.9-1.3-1.2-2c-2.6-5.4-7.4-9.3-10.4-14.5
	c-1.8-3-3-6.5-4.9-9.5c-2.9-4.5-7.3-7.9-11.5-11.2c-2.4-1.8-5.1-3.8-8.1-3.6c-2.7,0.1-4.7,0.3-3.7-3.1
	C604.9,355.3,606.5,353.3,608.7,352L608.7,352z"/>
<path class="st11" d="M608.7,352c2.8-1.6,5.9-2.6,9.1-3c1.9-0.4,3.8-0.6,5.8-0.4c1.8,0.2,3.5,0.9,5.3,1c2.5,0.1,4.9-0.9,7.4-1.5
	s5.3-0.9,7.3,0.5c0.4,0.4,1,0.7,1.6,0.9c0.6-0.1,1.2-0.4,1.6-0.8c3.6-2.5,8.4-2.3,11.7,0.6c4.7,4.4,4.1,12.9,9.6,16.2
	c1.5,0.9,3.4,1.4,4.3,2.9c0.2,0.5,0.5,1,0.8,1.5c0.4,0.4,0.8,0.7,1.3,0.9c1.6,0.7,3.1,1.6,4.5,2.6c1.4,1,2.3,2.6,2.6,4.3
	c0,1.3-0.2,2.5-0.8,3.6c-5.5,13.4-18.8,21.9-33.3,21.3c-1.3,0.1-2.5-0.3-3.5-1.1c-0.5-0.6-0.9-1.3-1.2-2c-2.6-5.4-7.4-9.3-10.4-14.5
	c-1.8-3-3-6.5-4.9-9.5c-2.9-4.5-7.3-7.9-11.5-11.2c-2.4-1.8-5.1-3.8-8.1-3.6c-2.7,0.1-4.7,0.3-3.7-3.1
	C604.9,355.3,606.5,353.3,608.7,352L608.7,352z"/>
<path class="st10" d="M595.5,719.7c1.8,1.7,4.4,2.5,6.8,3c5.6,1.1,11.3,1.8,17,2.1l5.5,0.4c5.4,0.4,10.8,0.8,16.3,0.8
	c6.7,0,13.4-0.6,20-1.7c0.9,0.1,1.8-0.6,1.9-1.5c0-0.2,0-0.3,0-0.5c-0.1-6.8-0.9-13.5-2.5-20.1c-0.6-2.7-5.5,3.4-5.7,3.6
	c-1,1.4-2.7,2.3-4.4,2.3c-5.6,0.3-11.8-3.1-16.3-6.1c-0.9-0.7-1.9-1.3-3-1.9c-0.8-0.3-1.6-0.6-2.4-0.7c-2.9-0.3-5.8,0.3-8.3,1.7
	c-3.3,1.7-6.3,4-9.6,5.7c-2.7,1.4-5.6,2.3-8.6,2.7c-3,0.4-6.6,0.6-8.2,3.2C592.7,715.1,593.6,718,595.5,719.7L595.5,719.7z"/>
<path class="st0" d="M595.5,720.7c1.8,1.7,4.4,2.5,6.8,3c5.6,1.1,11.3,1.8,17,2.1l5.5,0.4c5.4,0.4,10.8,0.8,16.3,0.8
	c6.7,0,13.4-0.6,20-1.7c0.6,0,1.2-0.3,1.6-0.8c0.5-0.7,0.9-1.5,1.2-2.3c-0.1-6.8-1.9-13.5-3.5-20.1c-0.6-2.7-5.5,3.4-5.7,3.6
	c-1,1.4-2.7,2.3-4.4,2.3c-5.6,0.3-11.8-3.1-16.3-6.1c-0.9-0.7-1.9-1.3-3-1.9c-0.8-0.3-1.6-0.6-2.4-0.7c0.7,4,6.5,8.9,9.5,10.3
	c6,3,13.2,1.5,19.9,1.8c0.5,0,1,0.1,1.4,0.3c0.8,0.5,0.8,1.7,0.8,2.6c-0.1,1.6-0.3,3.5-1.7,4.3c-0.7,0.3-1.5,0.5-2.2,0.5
	c-16.5,0.7-33.1,0.1-49.5-1.7c-2.8-0.2-5.5-0.8-8.1-1.8c-1.7-0.8-3.3-1.8-4.7-3C591.9,714.5,593.6,719,595.5,720.7z"/>
<path class="st10" d="M609.3,316.5c0.1,2.6-1.7,7.7,3.2,6.3c2.9-0.8,3.8-4.3,7.5-3.5s4.6,5.4,5.8,8.3c2.1,4.8,6.4,8.3,11.6,9.3
	c1,0.2,2.1,0.2,3.2,0c2.4-0.7,3.8-3.1,4.7-5.4c0.8-1.9,1.5-4,2.1-6c0.4-1.4,0.6-2.9,0.8-4.4c0.1-1,0.1-2,0-3
	c-0.4-6-3.8-11.4-8.2-15.5s-9.6-7.1-14.8-10c-1.7-1.1-3.5-1.9-5.5-2.4c-1.9-0.4-3.9-0.5-5.8-0.2c-2.5,0.1-5,0.7-7.3,1.7
	c-1,0.5-1.8,1.1-2.6,1.8c-1.1,1-1.9,2.3-2.2,3.8c-0.9,3.9,1.5,7.3,3.5,10.4C606.9,310.3,609.1,313.1,609.3,316.5L609.3,316.5z"/>
<path class="st13" d="M526.7,372.8c1-2.6,5.5-10,4.2-12.5c-1.3,1.9-2.4,3.9-3.4,6C526.7,368.4,527.4,371.1,526.7,372.8z M605,307.6
	c-2-3-4.5-6.5-3.5-10.4c0.5-1.7,1.5-3.2,2.9-4.3c-0.3,0.6-0.6,1.2-0.7,1.8c-0.9,3.9,1.5,7.3,3.5,10.4c1.8,2.7,4,5.6,4.1,9
	c0.1,2.6-1.7,7.7,3.2,6.3c2.9-0.8,3.8-4.3,7.5-3.5s4.6,5.3,5.8,8.3c2.1,4.8,6.4,8.3,11.6,9.3c1,0.3,2.1,0.3,3.2,0
	c0.5-0.1,1.1-0.4,1.5-0.7c-0.7,1.5-2,2.7-3.6,3.2c-1,0.3-2.1,0.3-3.2,0c-5.2-1-9.5-4.5-11.6-9.3c-1.3-3-2.1-7.5-5.8-8.3
	s-4.5,2.7-7.5,3.5c-4.9,1.4-3.1-3.7-3.2-6.3C609,313.2,606.8,310.3,605,307.6z"/>
<path class="st13" d="M604,302.4c0.5,0.7,1,1.5,1.5,2.1c1,1.3,2.2,2.5,3.5,3.6c0.7,0.6,1.5,1.3,2.3,1.8c1.5,1.1,3.1,2,4.8,2.9
	c4.9,2.3,9.9,4.1,15.2,5.4l10.1,3c1.3,0.9,3.5,2.6,6,4.4c0.4-1.4,0.6-2.9,0.8-4.4c0.1-1,0.1-2,0-3c-0.4-6-3.8-11.4-8.2-15.5
	s-9.6-7.1-14.8-10c-1.7-1.1-3.5-1.9-5.5-2.4c-1.9-0.4-3.9-0.5-5.8-0.2c-2.5,0.1-5,0.7-7.3,1.7c-1,0.5-1.8,1.1-2.6,1.8
	c-0.6,0.8-1,1.8-1.3,2.8C602,298.3,602.8,300.5,604,302.4L604,302.4z"/>
<path class="st12" d="M604,301.7c0.5,0.7,1,1.5,1.5,2.1c1,1.3,2.2,2.5,3.5,3.6c0.7,0.7,1.5,1.3,2.3,1.8c1.5,1.1,3.1,2,4.8,2.8
	c4.9,2.3,9.9,4.1,15.2,5.4l10.1,3c3.5,2.7,15.4,11.4,17.4,10.3c2.3-1.3-10.5-10.4-10.5-10.4l-0.6,0.5c1.9-1.2,2.9-3.9,3.3-6.3
	c0.9-4.2,0.9-8.6,0.1-12.8c-1-4.2-3.5-8.2-7.4-10.1c-1.7-0.9-3.8-1.5-5-2.8c-0.2-0.2-0.4-0.4-0.5-0.6c-0.1-0.1-0.1-0.2-0.2-0.4
	c-0.1-0.4-0.3-0.7-0.5-1c-0.7-0.8-2-0.6-3-0.4h-0.9c-3.8,0.1-7.5-2-11.3-2c-4.2,0-7.8,2.4-11.5,4.1l-2.1,1c-2.7,1.3-4.7,2.6-5.8,6.1
	C601.9,297.6,602.8,299.8,604,301.7L604,301.7z"/>
<path class="st13" d="M633.4,286.4c-0.1,0.3-0.2,0.6-0.2,0.9c0,0.5,0.2,1,0.6,1.4c0.5,0.3,1,0.5,1.6,0.6c0.4,0.1,0.8,0.1,1.3,0.1
	c0.6,0,1.1-0.1,1.6-0.3c0.1-0.1,0.2-0.1,0.3-0.2c-0.2-0.2-0.4-0.4-0.5-0.6c-0.1,0.1-0.2,0-0.6,0c-0.7,0-1.3-0.2-2-0.3
	c-0.3-0.1-0.5-0.2-0.8-0.4c-0.3-0.3-0.6-0.7-0.7-1.1L633.4,286.4z M647.9,320.3c-0.5,0.3-1.1,0.6-1.8,0.6c-1.6,0.5-3.3,0.2-4.7-0.7"
	/>
<linearGradient id="SVGID_2_" gradientUnits="userSpaceOnUse" x1="1707.3553" y1="-1.91" x2="1707.3553" y2="455.4501" gradientTransform="matrix(1 0 0 -1 -1558.1799 721.78)">
	<stop  offset="0" style="stop-color:#808080;stop-opacity:0.25"/>
	<stop  offset="0.54" style="stop-color:#808080;stop-opacity:0.12"/>
	<stop  offset="1" style="stop-color:#808080;stop-opacity:0.1"/>
</linearGradient>
<path class="st14" d="M223.3,406.5c-1.7-11.3-11.9-37.5-11.9-37.5c-0.2-0.8-0.4-1.6-0.6-2.3c-7.3-24.9-17.3-27.1-17.3-27.1
	l-35.9-7.7c0.3,0.2,0.5,0.4,0.7,0.7l-0.6,0.1c-1.6-1.9-2.7-4.3-3.1-6.8c-0.1-0.4-0.1-0.8-0.2-1.1c10-9.7,10.2-25.8,0.4-35.7
	c-0.8-0.8-1.6-1.6-2.5-2.3c-0.4-0.3-0.8-0.6-1.1-0.9c1.7-1.8,1.8-4.3,0.5-6.8c-2.8-5.9-9-9.6-15.3-11.4c-4.8-1.4-10.1-1.8-14.9-0.3
	c-2.7,1-5.3,2.2-7.8,3.6c-4.8,2.4-10,4.3-13.6,8.2c-0.9,0.8-1.4,2-1.4,3.3c0.3,0.9,0.8,1.7,1.4,2.4c1,1.8,0.8,4,0.1,6
	s-1.7,3.8-2.2,5.8s-0.3,4.4,1.2,5.8c0.7,0.6,1.5,1.1,2.3,1.6c0.8,0.7,1.5,1.5,2.1,2.4l4.3,5.8c2,2.6,3.8,5.3,5.3,8.1
	c0.9,2.2,2,4.2,3.3,6.2c0.4,0.5,0.9,1,1.4,1.5l-0.4-0.2c1.3,1.2,3,1.9,4.8,1.8h0.2c0.3,0,0.6-0.1,0.9-0.4v0.8
	c0.1,2.8,0.1,5.7-0.1,8.5l-0.3-0.2c-1-0.5-2.2-0.4-3.1,0.3l-33.1,26.5c0,0-7.2,9.9-6.2,26.8l-5.8,25.5c0,0-7.3,21.6-1.7,37.1
	c5.6,15.4,8.8,24.3,8.8,24.3s2.2,17.5,5.6,19s4.8,2.2,4.8,2.2l0.7,4.2c0,0,0.2,0.4,0.6,1.1c2.4,4.2,11.5,19.2,16.7,17.6
	c0.7,4.1,0.9,8.2,0.9,12.3l5.2,34.9c0,0,3.6,9.5,3.4,14.5c-0.2,5,4.2,12,4.2,12c-2.7,5-3.5,10.7-2.2,16.2c2.1,9.3,4.8,52.1,4.8,52.1
	l3.9,10.4l-0.1,12.2c-0.3,2-1.1,3.8-2.4,5.4c-2.5,2.7-2.3,5.9-8.4,9.6s-9.9,5.1-9.9,10.1c0,0.7-0.1,1.3-0.2,2
	c-0.6,3.6-1.6,5.6,9.5,6.6c7.9,0.6,15.8-2,21.8-7.3c0,0,1.9-3.5,11-4.9c0,0,3.1-0.2,3.3-2.9c0.1-0.9,0-2.8,0-4.7
	c-0.1-3.8-0.5-8.2-1-8.4s-1.7-4.1-2-5.5h2.5c0,0,2.4-17.5,0-28.9c-2.4-11.4-0.2-19.4-0.2-19.4l-0.4-30c0,0-3.1-3.3-0.7-9.2
	s0-34.8,0-34.8s0.9-10.4,3.5-12.8c2.6-2.4,0.1-15.2,0-15.9l4.6,15.3c0,0,2,30.4,6.3,36l1.2,13.8c0,0,8.7,12.7,7,19.5
	c-1.7,6.8,1.8,31.5,1.8,31.5v25.2c0,0-3.9,10.1,1.6,13.8l2.4-0.1c-0.8,0.7-1.4,1.8-2.3,2.7c-1,1.1-1.6,5.2-2,8.7
	c-0.3,3-0.4,5.5-0.4,5.5c1.5,2.3,4,3.7,6.7,4c4.4,0.3,18.7,11.3,18.7,11.3s14.2,0,17.9-0.7l0.2-0.1c1.2-0.4,2.2-1.2,2.8-2.3
	c0.7-1.3,1-2.7,0.7-4.2c-0.5-2.2-2.2-4.6-6-6.6c-9.5-5-11-9.8-11-9.8l-6.2-9.3h0.9c0,0-0.6-9.9,6.2-21.1l-0.5-49.2
	c0,0,2.8-16.9-2-26c0,0-0.4-9.7,2.8-12.7s-4.3-33.1-4.3-33.1s-1.5-16.2-3.4-30.9c7.5,7.1,15.4-18.6,16.7-23.1h0.2l-0.1-0.3l0.1-0.3
	c0,0-1.7-6-0.5-4.7s4.2-3.3,4.2-3.3s-0.4-24.6,4.8-37S223.3,406.4,223.3,406.5L223.3,406.5z M200.9,422.1L200.9,422.1
	c0.8,14.9-0.1,47-0.1,47s-1,4.1-2.1,9l-0.8-30.5l-0.8-28.7L200.9,422.1z M104.9,411.8c0,0,3.8,47.4,0,54.3c-1.1,1.9-2,5.4-2.7,9.4
	c-1.3-3.3-3.9-11-3-15.1c1.2-5.3-2.5-19.2-2.5-19.5s-0.3-7.7,2.4-13.4s0.9-8.1,0.9-8.1S102.2,410,104.9,411.8L104.9,411.8z"/>
<path class="st15" d="M114.1,518.6c-3.3,14.5-16.4-7.4-19.4-12.7c-0.4-0.7-0.6-1.1-0.6-1.1l1.4-6.7l7.5-3.1c1.2,0.6,2.3,1.4,3.4,2.2
	C110.5,500.4,116.7,507.3,114.1,518.6z M216.1,494.8c0,0,0,0.1-0.1,0.3l-0.1,0.4c-1.3,4.5-8.9,30.1-16.3,23
	c-8.1-7.8-4.2-25.6-4.2-25.6h0.1l17-1.8l3.4,3.5L216.1,494.8z"/>
<path class="st10" d="M206.2,620.4l0.4,48.7c-6.7,11.1-6.1,20.9-6.1,20.9l-22,0.9c-5.4-3.6-1.5-13.7-1.5-13.7v-25.1
	c0,0-3.4-24.5-1.8-31.3s-6.9-19.4-6.9-19.4l-1.2-13.7c-4.2-5.5-6.1-35.7-6.1-35.7l-4.5-15.2c0.1,0.7,2.4,13.4,0,15.7
	s-3.4,12.7-3.4,12.7s2.4,28.7,0,34.5s0.6,9.1,0.6,9.1l0.4,29.8c0,0-2.1,8,0.2,19.3s0,28.7,0,28.7h-23.7l0.1-12.2l-3.8-10.3
	c0,0-2.6-42.5-4.7-51.7c-1.3-5.5-0.5-11.2,2.2-16.1c0,0-4.4-7-4.2-11.9s-3.3-14.3-3.3-14.3l-5.1-34.6c0.1-6.7-0.7-13.3-2.6-19.8
	c-3-9.9-7.3-22.8-7.3-22.8l4.9,0.4l24.9,2.2c0,0,60.7-4.1,63.4-0.7c0.6,1.1,1,2.3,1.1,3.5c2.7,12.2,6.3,50.6,6.3,50.6
	s7.3,29.9,4.2,32.8s-2.8,12.6-2.8,12.6C208.9,603.6,206.2,620.4,206.2,620.4L206.2,620.4z"/>
<path class="st12" d="M154.9,705.1c-0.2,2.7-3.2,2.9-3.2,2.9c-8.9,1.4-10.8,4.8-10.8,4.8c-5.8,5.2-13.5,7.8-21.3,7.2
	c-10.9-1.1-9.8-3-9.3-6.6c0.1-0.7,0.2-1.3,0.2-2c0-4.9,3.8-6.3,9.7-10s5.7-6.8,8.2-9.5s2.7-8,2.7-8c2.8-4.8,9.9,0.7,9.9,0.7
	c0.3,1.7,10.8,1.5,10.8,1.5s1.4,5.6,2.1,5.9c0.5,0.2,0.8,4.6,1,8.4C155,702.4,155,704.2,154.9,705.1L154.9,705.1z"/>
<path class="st13" d="M154.9,705.1c-0.2,2.7-3.2,2.9-3.2,2.9c-8.9,1.4-10.8,4.8-10.8,4.8c-5.8,5.2-13.5,7.8-21.3,7.2
	c-10.9-1.1-9.8-3-9.3-6.6c4.9,1.2,14.2,2.9,19.6-0.1c7.6-4.1,13-7,13-7l12-6C155,702.4,155,704.2,154.9,705.1L154.9,705.1z"/>
<path class="st12" d="M221.8,719.7c-0.6,1.1-1.6,1.9-2.7,2.3l-0.2,0.1c-3.6,0.7-17.6,0.7-17.6,0.7s-14.1-10.9-18.4-11.2
	c-2.7-0.3-5.1-1.7-6.6-3.9c0,0,0.1-2.5,0.4-5.5c0.3-3.5,0.9-7.5,1.9-8.6c1.9-2,2.3-4.7,6.6-3c0,0,6.1-10.7,13.2-2.4l7.4,11.2
	c0,0,1.4,4.7,10.8,9.7c3.8,2,5.4,4.4,5.9,6.5C222.7,717,222.5,718.4,221.8,719.7z"/>
<path class="st13" d="M221.8,719.7c-0.8,0.7-1.8,1.5-2.7,2.3l-0.2,0.1c-3.6,0.7-17.6,0.7-17.6,0.7s-14.1-10.9-18.4-11.2
	c-2.7-0.3-5.1-1.7-6.6-3.9c0,0,0.1-2.5,0.4-5.5c4.3,1.3,10.9,3.6,12.7,6.1c2.7,3.8,10.9,9,10.9,9s15.3-1.5,22.1-1.7
	C222.7,717,222.5,718.5,221.8,719.7L221.8,719.7z"/>
<path class="st15" d="M162.1,337.6L141.9,359c0,0-24.5-1.8-20.2-9c2.2-3.7,2.5-11.4,2.3-18.1c-0.2-6.5-0.8-12-0.8-12
	s34.3-17.1,31.7-1.1c-0.6,3-0.6,6.1-0.1,9.1C156.2,335.9,162.1,337.6,162.1,337.6L162.1,337.6z"/>
<path class="st13" d="M154.8,318.8c-0.6,3-0.6,6.1-0.1,9.1c-4.6,4.6-10.9,3.6-18,3.6c-4.7,0-9.7,0.1-13.4-2.1
	c-0.2-6.5-0.2-9.4-0.2-9.4S157.5,302.8,154.8,318.8L154.8,318.8z"/>
<path class="st15" d="M162.1,308.8c0,14-11.3,25.3-25.3,25.3c-14,0-25.3-11.3-25.3-25.3c0.5-14,12.2-24.9,26.2-24.4
	C150.9,284.8,161.6,295.5,162.1,308.8L162.1,308.8z"/>
<path class="st13" d="M196.5,498.5c-6.3,15-46.8,15.3-46.8,15.3v-16.3l-2.4-0.2c1.1,4.7-1.5,16.1-1.5,16.1
	c-32,4.5-39.8-13.7-39.8-13.7l1.1-6.2l25,2.2c0,0,60.7-4.1,63.4-0.7C195.9,496.1,196.3,497.3,196.5,498.5L196.5,498.5z"/>
<path class="st16" d="M149.7,511.9v-16.4l-2.4-0.1c1.1,4.7-1.5,16.1-1.5,16.1c-24.1,3.4-34.5-6.1-38.1-11c-0.7-0.8-1.2-1.8-1.7-2.7
	l9.8-55l2.3-81l3.5-14.2l0.8-6.8v-0.1h0.1l2.5,1.1l14.9,6.5l16.9-12.8l0.2-0.2l0.9-0.6l1.4,1.1l3.5,2.8l11.2,72.1
	c0,0,19.4,55.5,23,77.9c0.1,0.9,0.3,1.7,0.4,2.5C199.6,511.5,149.7,511.9,149.7,511.9z"/>
<circle class="st17" cx="141.6" cy="349.8" r="1.4"/>
<circle class="st17" cx="142.3" cy="362.9" r="1.4"/>
<circle class="st17" cx="143.7" cy="384.2" r="1.4"/>
<circle class="st17" cx="146.1" cy="407.1" r="1.4"/>
<circle class="st17" cx="147.5" cy="428.6" r="1.4"/>
<circle class="st17" cx="149" cy="451.5" r="1.4"/>
<circle class="st17" cx="148.4" cy="474.2" r="1.4"/>
<path class="st13" d="M123.3,450.8c0,0-1.6,21.1-4.6,27.2s-4.3,23.3-4.3,23.3l-6.9-0.8c-0.7-0.8-1.2-1.8-1.7-2.7l9.8-55l2.3-81
	l3.5-14.2l0.8-6.8h0.1c0.8-0.4,1.7-0.4,2.4,0l0.3,0.2c-0.1,0.3-0.2,0.6-0.3,0.9c-2.7,8.4-3.7,23.8-3.7,23.8s3.8,28.3,4.3,41.4
	S123.3,450.8,123.3,450.8L123.3,450.8z"/>
<path class="st13" d="M106.4,497.2c-0.1,0.2-0.2,0.3-0.3,0.5c-2.7,4.5-9.4,7.4-11.4,8.1c-0.4-0.7-0.6-1.1-0.6-1.1l1.4-6.7l7.5-3.1
	C104.2,495.6,105.3,496.4,106.4,497.2L106.4,497.2z"/>
<path class="st12" d="M88.2,389.7l-6.2,3.7l-5.7,25.3c0,0-7.1,21.5-1.7,36.8s8.7,24.1,8.7,24.1s2.2,17.4,5.5,18.8s4.7,2.2,4.7,2.2
	l0.6,4.2c0,0,8.9-3,12.1-8.4s-2.3-18.6-2.3-18.6s-4.7-11.3-3.5-16.5s-2.4-19-2.4-19.4s-0.3-7.7,2.3-13.3s0.9-8,0.9-8l-1.6-16.1
	L88.2,389.7z"/>
<path class="st13" d="M197,493.8c0,0-16.5,6.2-21.8,0.8s-4.7-31.1-4.7-31.1s-5-47.3-8.2-55.1s-1.5-63.8-1.5-63.8s-2.1-7.3-4-9.1
	c-0.1-0.1-0.2-0.2-0.4-0.3l0.6,0.1l2.3,0.5l3.5,2.8l11.2,72.1c0,0,19.4,55.5,23,77.9L197,493.8z"/>
<path class="st13" d="M216.1,495.5h-0.2c-2.1,0.3-20.4,2.5-20.5-1.3c0-0.4,0-0.9,0.1-1.3l17-1.8l3.4,3.5c0.1,0.2,0.1,0.4,0.2,0.6
	L216.1,495.5z"/>
<path class="st12" d="M198.4,364.4l12.1,6.3c0,0,10,26,11.7,37.2c0,0,7.4,29.9,2.3,42.2s-4.7,36.7-4.7,36.7s-3,4.5-4.2,3.3
	s0.4,4.7,0.4,4.7s-20.6,2.7-20.7-1.3s4.7-23.4,4.7-23.4s1.3-46.1-0.6-53.3S198.4,364.4,198.4,364.4z"/>
<path class="st13" d="M162.4,413.5c0,0-6.8,16.6-9,17.7s0.4,5.5,0.4,5.5S166.2,419.4,162.4,413.5L162.4,413.5z M158.3,355.1
	c0.1-0.3-8.1,8-10.3,9.3S156.1,364.3,158.3,355.1z M135.6,412.1c0,0-12.5,8.1-10.8,11.3S135.6,412.1,135.6,412.1z M158.2,529.9
	c0,0,10.6,6.8,27.2,8.5L158.2,529.9z M132.7,546.4c0,0,9.9,12.4,14.3,12.7S132.7,546.4,132.7,546.4z M146.5,594.9
	c-0.4,0.2-5.6,11.2-10.8,11.5S146.5,594.9,146.5,594.9z M192.2,618.8c0,0,9.8-2.2,11.9,4.8C204.1,623.7,203.4,621.5,192.2,618.8z
	 M185.6,658.9c0,0,11.8-2.4,14.3,0.9S185.6,658.9,185.6,658.9z M152.1,664.5c0,0.1-12,2.4-11.6,4s12.9,1.3,13.3-1.1
	c0.3-1.2-0.4-2.5-1.6-2.8C152.2,664.5,152.2,664.5,152.1,664.5L152.1,664.5z M181.7,674.9c0,0,19.8-2.4,18.5,1.8
	S181.7,674.9,181.7,674.9z M78.1,431.2c0.1,0.3,13,2.1,14.8,6.2c0,0-12.7-5.9-14.7-5.9 M96.3,465c0,0-10.7,3.4-10,8.5
	S85.2,471.2,96.3,465z M91.3,491.1c0,0,3.9-5.4,7.6-4.4S91.3,491.1,91.3,491.1z M152.6,289c-0.4,0.4-0.8,0.7-1.3,0.9
	c-3.1,1.8-4,4.6-5.4,7.8c-1.4,2.9-2.9,6-5.6,7.7c-3.6,2.1-8.3,1.4-12,3.2c-3.4,1.8-5.3,5.4-4.9,9.2c0.2,1.4,0.6,2.8,1,4.2
	c0.8,3,1.2,6,1.1,9.1c0,0.1,0,0.2,0,0.3c-12.5-6.3-17.5-21.5-11.3-33.9c6.3-12.5,21.5-17.5,33.9-11.3
	C149.6,286.9,151.1,287.9,152.6,289L152.6,289z"/>
<path class="st12" d="M151.9,281.4c-2.8-5.8-8.8-9.5-15-11.3c-4.7-1.4-9.9-1.8-14.6-0.3c-2.6,1-5.2,2.2-7.6,3.6
	c-4.7,2.4-9.8,4.3-13.4,8.1c-0.9,0.8-1.4,2-1.3,3.3c0.3,0.9,0.8,1.7,1.3,2.4c1,1.8,0.7,4,0.1,6s-1.7,3.7-2.2,5.7s-0.3,4.3,1.2,5.7
	c0.7,0.6,1.4,1.1,2.2,1.6c0.8,0.7,1.5,1.5,2.1,2.4l4.2,5.7c2,2.5,3.7,5.2,5.2,8c0.9,2.1,2,4.2,3.2,6.1c1.4,1.9,3.6,3.3,5.9,3.1
	c0.4,0,0.7-0.2,0.9-0.4c0.1-0.2,0.1-0.4,0.1-0.6c0.1-3.1-0.3-6.1-1.1-9.1c-0.5-1.4-0.8-2.8-1.1-4.2c-0.4-3.8,1.6-7.4,5-9.2
	c3.7-1.9,8.4-1.1,12-3.2c2.8-1.7,4.3-4.8,5.6-7.7c1.5-3.2,2.3-6,5.4-7.8S153.4,284.4,151.9,281.4L151.9,281.4z"/>
<path class="st13" d="M140.6,694.8c0,0,3.9,4.9,2.9,7.7S140.6,694.8,140.6,694.8z M192.9,707.1c0,0,0.9-6.6,4.3-6.7s3.6-0.4,6.2,0.7
	s5.1,2.6,4.3,2.8s-4.5-3.8-8.4-1.7C197,703.5,194.8,705.1,192.9,707.1L192.9,707.1z M129.1,356.5l10.8-7.6c0,0-15.8-9.4-17.7-8
	s-3.2,13.1-3.2,13.1L129.1,356.5z"/>
<path class="st16" d="M129,356l10.8-7.8c0,0-15.8-9.4-17.7-8s-3.2,13.8-3.2,13.8L129,356z"/>
<path class="st18" d="M129,356l10.8-7.8c0,0-15.8-9.4-17.7-8s-3.2,13.8-3.2,13.8L129,356z"/>
<path class="st12" d="M123.9,340.3l-0.3-0.2c-1-0.5-2.1-0.4-3,0.3l-32.5,26.4c0,0-7.1,9.8-6.1,26.6l19.1,27.2c0,0,2.2-9.2,4.8-7.5
	c0,0,3.7,47.1,0,53.9s-5.4,32.2-5.4,32.2l12.6,1.4c0,0,1.3-17.2,4.3-23.3s4.6-27.2,4.6-27.2s2.7-30.6,2.2-43.8s-4.3-41.4-4.3-41.4
	S121,348.4,123.9,340.3z"/>
<path class="st13" d="M156.2,351.7l-13.5-5c0,0,17.2-18.8,19.3-8.4L156.2,351.7z"/>
<path class="st16" d="M156.2,351l-13.5-5c0,0,17.2-18.8,19.3-8.4L156.2,351z"/>
<path class="st18" d="M156.2,351l-13.5-5c0,0,17.2-18.8,19.3-8.4L156.2,351z"/>
<path class="st13" d="M155.8,335c0.2,0,0.4,0,0.6,0.1L155.8,335z"/>
<path class="st12" d="M157.1,333.7l35.8,7.7c0,0,9.9,2.2,17,26.9s-9.7,55.1-9.7,55.1l-3.7-3.2l1.9,72.3c0,0-16.5,6.2-21.8,0.8
	s-4.7-31.1-4.7-31.1s-5-47.3-8.2-55.1s-1.6-63.8-1.6-63.8S159.1,333.2,157.1,333.7L157.1,333.7z"/>
<path class="st13" d="M189.9,379.8c-0.5,0.5-1.1,22.3,1.1,39c1.3,10.1,3.4,20.2,6.2,30l-3.3-66.7
	C193.9,382.1,191.4,378.3,189.9,379.8z M185.5,360.9c0.9,0.5,4.7,9.6,2.9,13.4S185.5,360.9,185.5,360.9z M151.7,281.4
	c-1.8-3.5-4.5-6.3-7.9-8.3c2.5,1.8,4.5,4.2,5.9,6.9c1.5,3.1,1.1,6.1-1.9,7.9s-4,4.6-5.4,7.8c-1.4,2.9-2.9,6-5.6,7.7
	c-3.6,2.1-8.3,1.4-12,3.2c-3.4,1.8-5.3,5.4-4.9,9.2c0.2,1.4,0.6,2.8,1,4.2c0.8,3,1.2,6,1.1,9.1c0,0.2,0,0.4-0.1,0.6
	c-0.2,0.3-0.6,0.5-0.9,0.4c-0.9,0.1-1.9-0.1-2.7-0.5c1.2,1.2,2.9,1.9,4.7,1.8c0.5,0.1,0.9-0.3,1-0.8c0-0.1,0-0.1,0-0.2
	c0.1-3.1-0.3-6.1-1.1-9.1c-0.5-1.4-0.8-2.8-1.1-4.2c-0.4-3.8,1.6-7.4,4.9-9.2c3.7-1.9,8.4-1.1,12-3.2c2.8-1.7,4.3-4.8,5.6-7.7
	c1.5-3.2,2.3-6,5.4-7.8S153.2,284.4,151.7,281.4L151.7,281.4z"/>
<path class="st19" d="M365.8,662.5c201,0,364,19.9,364,44.5s-163,44.5-364,44.5s-364-19.9-364-44.5S164.7,662.5,365.8,662.5z
	 M519.6,768.3c22.6,0,41,2.5,41,5.6s-18.4,5.6-41,5.6s-41-2.5-41-5.6S497,768.3,519.6,768.3z M29.3,735.9c16.1,0,29.1,1.8,29.1,4
	s-13,4-29.1,4s-29.1-1.8-29.1-4S13.2,735.9,29.3,735.9z"/>
<path class="st7" d="M869.9,465.5h59.7c1,0,1.9,0.8,1.9,1.9v11.5c0,1-0.8,1.9-1.9,1.9h-59.7c-1,0-1.9-0.8-1.9-1.9v-11.5
	C868,466.3,868.8,465.5,869.9,465.5z M536.2,766.9c1.8-1.5,3.2-3.5,3.8-5.8c0.5-2.3-0.5-5-2.7-5.9c-2.5-0.9-5.1,0.8-7.1,2.5
	s-4.3,3.7-6.9,3.3c2.7-2.5,4-6.2,3.2-9.8c-0.1-0.7-0.4-1.4-0.9-2c-1.4-1.5-3.8-0.8-5.5,0.3c-5.2,3.7-6.7,10.7-6.7,17.1
	c-0.5-2.3-0.1-4.7-0.1-7s-0.7-5-2.6-6.2c-1.2-0.7-2.6-1-4-0.9c-2.3-0.1-4.9,0.1-6.5,1.8c-2,2.1-1.5,5.7,0.3,8s4.4,3.8,6.8,5.4
	c1.9,1.2,3.6,2.7,4.8,4.6c0.1,0.3,0.3,0.5,0.4,0.8h14.7C530.5,771.5,533.5,769.4,536.2,766.9L536.2,766.9z M37.2,726.8
	c1.8-1.5,3.2-3.5,3.8-5.8c0.5-2.3-0.5-5-2.7-5.9c-2.5-0.9-5.1,0.8-7.1,2.5s-4.3,3.7-6.9,3.3c2.7-2.5,4-6.2,3.2-9.8
	c-0.1-0.7-0.4-1.4-0.9-2c-1.4-1.5-3.8-0.8-5.5,0.3c-5.2,3.7-6.6,10.7-6.7,17.1c-0.5-2.3-0.1-4.7-0.1-7s-0.7-5-2.6-6.2
	c-1.2-0.7-2.6-1-4-0.9c-2.3-0.1-4.9,0.2-6.5,1.8c-2,2.1-1.5,5.7,0.3,8s4.3,3.8,6.8,5.4c1.9,1.2,3.6,2.7,4.8,4.6
	c0.1,0.3,0.3,0.5,0.4,0.8h14.6C31.5,731.4,34.5,729.3,37.2,726.8z M734.9,654.4c0,0,5.5,7.2-2.5,18s-14.7,20-12,26.8
	c0,0,12.1-20.2,22-20.4S745.8,666.5,734.9,654.4z M705.9,654.4c0,0-5.5,7.2,2.5,18s14.7,20,12,26.8c0,0-12.1-20.2-22-20.4
	S695.1,666.5,705.9,654.4z"/>
<path class="st13" d="M734.9,654.4c0.5,0.7,0.9,1.5,1.1,2.3c9.6,11.3,14.7,21.8,5.5,22.1c-8.6,0.3-18.9,15.7-21.4,19.5
	c0.1,0.3,0.2,0.6,0.3,0.9c0,0,12.1-20.2,22-20.4S745.8,666.5,734.9,654.4z M705.9,654.4c-0.5,0.7-0.9,1.5-1.1,2.3
	c-9.6,11.3-14.7,21.8-5.5,22.1c8.6,0.3,18.9,15.7,21.4,19.5c-0.1,0.3-0.2,0.6-0.3,0.9c0,0-12.1-20.2-22-20.4
	S695.1,666.5,705.9,654.4z"/>
<path class="st20" d="M745.1,663.5c0,2.5-0.3,4.6-0.6,4.6s-0.6-2-0.6-4.6s0.3-1.3,0.7-1.3S745.1,661,745.1,663.5z M748.6,666.6
	c-2.2,1.2-4.2,1.9-4.3,1.6s1.5-1.5,3.7-2.7s1.3-0.3,1.5,0S750.8,665.4,748.6,666.6L748.6,666.6z M695.7,663.5c0,2.5,0.3,4.6,0.6,4.6
	s0.6-2,0.6-4.6s-0.3-1.3-0.7-1.3S695.7,661,695.7,663.5z M692.2,666.6c2.2,1.2,4.2,1.9,4.3,1.6s-1.5-1.5-3.7-2.7s-1.3-0.3-1.5,0
	S689.9,665.4,692.2,666.6L692.2,666.6z"/>
<path class="st21" d="M697.4,698.2c0,0,15.4-0.5,20-3.8s23.6-7.2,24.8-2s23.1,26.3,5.7,26.4s-40.3-2.7-44.9-5.5
	S697.4,698.2,697.4,698.2L697.4,698.2z"/>
<path class="st22" d="M748.2,717.1c-17.3,0.1-40.3-2.7-44.9-5.5c-3.5-2.1-4.9-9.8-5.4-13.4h-0.5c0,0,1,12.4,5.6,15.2
	s27.6,5.7,44.9,5.5c5,0,6.7-1.8,6.6-4.5C753.9,716.1,752,717.1,748.2,717.1L748.2,717.1z"/>
</svg>
