<?xml version="1.0" encoding="utf-8"?>
<!-- Generator: Adobe Illustrator 22.1.0, SVG Export Plug-In . SVG Version: 6.00 Build 0)  -->
<svg version="1.1" id="图层_1" xmlns="http://www.w3.org/2000/svg" xmlns:xlink="http://www.w3.org/1999/xlink" x="0px" y="0px"
	 viewBox="0 0 1089.1 792" enable-background="new 0 0 1089.1 792" xml:space="preserve">
<path opacity="0.1" enable-background="new    " d="M604.9,382c-26.5,0-52.5,7.4-75.1,21.4
	C529.2,325.1,465.6,262,387.4,262c-16.9,0-33.8,3-49.6,8.9v-34.5C337.7,157.8,274,94,195.3,94c0,0,0,0,0,0
	c-78.7,0-142.4,63.8-142.4,142.4c0,0,0,0,0,0v378h694.4v-90C747.3,445.8,683.5,382,604.9,382L604.9,382L604.9,382z M654.4,285.1
	c-10,10.1-10.6,25.6-10.6,25.6s15.5-0.9,25.5-11s10.6-25.6,10.6-25.6S664.4,275,654.4,285.1z M569.5,216.1
	c3.5,13.8,16.5,22.3,16.5,22.3s7.2-13.7,3.7-27.5s-16.5-22.3-16.5-22.3S566,202.4,569.5,216.1z M750.4,346.9
	c-10,10.1-10.6,25.6-10.6,25.6s15.5-0.9,25.5-11s10.6-25.6,10.6-25.6S760.3,336.8,750.4,346.9z M790.2,433.9
	c-1.2,14.1,8.3,26.5,8.3,26.5s11.3-10.6,12.5-24.8s-8.3-26.5-8.3-26.5S791.4,419.8,790.2,433.9z M1021.1,368
	c-1.2,14.1,8.3,26.5,8.3,26.5s11.3-10.6,12.5-24.8s-8.3-26.5-8.3-26.5S1022.3,353.9,1021.1,368L1021.1,368z M1075.7,75v193.8
	c0,32.1-39.7,47.6-61.2,23.7l-0.5-0.6c-6.9-7.8-16.4-17.2-26-13.1c-3,1.3-5.2,3.7-7.9,5.5c1.9,4.2,3.6,8.6,4.9,13
	c8.3,27.3,1.8,56.8-7,84S958,435.5,956.5,464c-0.7,13.7,0.8,27.4,2.4,41c3,25.9,6.1,52.2,16.9,75.9c5.9,13,14.3,26.1,12.5,40.2
	c-46.6,2.1-93.2-3.9-137.8-17.5c30.9-31.1,30.8-80.4,28.8-124.1c-1.6-35.2-3.3-70.5-5-105.7c-0.5-10.3-1.1-21-5.8-30.2
	c-6.4-12.5-19.7-20.4-33.4-23.5s-28-2.3-42.1-1.4c-1-5.5,0-11.2,2.9-16c21.9,9.5,45.4,15,69.3,16.3c3,0.1,6.4,0.1,8.6-1.9
	s2.6-5.4,2.7-8.4c0.9-17.5-0.7-35-4.7-52.1c-0.8,0.2-1.5,0.4-2.3,0.6c-11.8,3.6-22.4,12.4-34.7,11.4c-17.1-1.3-27.3-20.5-43.4-26.4
	c-12.4-4.5-26-0.5-38.9,1.8s-28.3,2.2-36.8-7.9c-10.7-12.7-4-32.8-11-47.9c-9.9-21.5-39.8-21.9-63.3-19
	c9.4-14.2,23.4-24.7,39.7-29.9c-8.3-14.9-37.6-14.3-37.4-31.3c0.1-6.6,5.3-11.9,10.2-16.4l22-20.1L637,57
	c-8.7-3.3-18.5-7.6-21.4-16.5c-2.8-8.7,2.3-18,8.7-24.5l0.2-0.2C634.8,5.6,648.8-0.1,663.3,0h337.4C1042.1,0,1075.7,33.6,1075.7,75z
	"/>
<path fill="none" stroke="#535461" stroke-width="2" stroke-miterlimit="10" d="M766.2,597.5c0,0,20-31.3,22.4-44.7
	c1.7-8.7,4-17.3,7-25.7"/>
<path d="M310.7,617.7c0.8,10.1-9.1,17.8-18.5,21.5s-20.2,6-26.7,13.8c-1.8,2-3,4.6-3.3,7.3c-0.3,5.9,5.2,10.4,10.5,13.1
	c15.2,7.5,32.7,8.5,49.4,11.4s34.3,8.9,43.9,22.9c4.5,6.5,6.9,14.3,11.9,20.5c8,9.8,21.7,13.6,34.2,11.9s23.9-8.2,33.7-16.1
	c11-8.9,21.1-20,34.8-23.5c23.6-6.1,45.6,12.1,68.1,21.4c27.2,11.2,58.1,9.3,86.7,2.3c6.4-1.6,12.9-3.5,18.3-7.2
	c6.3-4.3,10.8-10.7,16.7-15.5c14.6-11.9,35.2-12.4,54-12.3l54.7,0.3c10.8,0.1,22.3-0.1,31.4-6c9.3-6.1,14.2-17.7,13.6-28.7
	s-6.1-21.5-13.9-29.4c-17.3-17.6-43.3-22.6-67.8-26C625,583,505.8,584.3,387.1,585.7c-19.9,0.2-39.8,0.4-59.5,3.2
	c-4.9,0.7-25.3,1.7-27.2,6.9C298.6,600.7,310.3,611.7,310.7,617.7L310.7,617.7z"/>
<circle fill="#FFD037" cx="797.9" cy="527.5" r="2.7"/>
<circle fill="#FFD037" cx="793.1" cy="526.2" r="2.7"/>
<path d="M299.2,720.9c14.9,0,26.9,2,26.9,4.5S314,730,299.2,730s-26.9-2-26.9-4.5S284.3,720.9,299.2,720.9z M64.4,603.9
	c0,0,444.3-84.7,934,0S-178.9,675.6,64.4,603.9L64.4,603.9z M172.8,698.1c22.2,0,40.2,3,40.2,6.8s-18,6.8-40.2,6.8s-40.2-3-40.2-6.8
	S150.6,698.1,172.8,698.1z M204.7,754.5c22.2,0,40.2,3,40.2,6.8s-18,6.8-40.2,6.8s-40.2-3-40.2-6.8S182.5,754.5,204.7,754.5z
	 M79.8,662.6c14.9,0,26.9,2,26.9,4.5s-12.1,4.5-26.9,4.5s-26.9-2-26.9-4.5S64.9,662.6,79.8,662.6z M876.8,683.1
	c14.9,0,26.9,2,26.9,4.5s-12.1,4.5-26.9,4.5s-26.9-2-26.9-4.5S861.9,683.1,876.8,683.1z M706.8,727.5c14.9,0,26.9,2,26.9,4.5
	s-12.1,4.5-26.9,4.5s-26.9-2-26.9-4.5S691.9,727.5,706.8,727.5z M829.5,732.1c35.9,0,65,4.9,65,11s-29.1,11-65,11s-65-4.9-65-11
	S793.6,732.1,829.5,732.1z M522.2,761.3c50.1,0,90.8,6.9,90.8,15.3S572.3,792,522.2,792s-90.8-6.9-90.8-15.3
	S472.1,761.3,522.2,761.3z M1008,693.8c1.8-1.5,3.2-3.5,3.8-5.8c0.5-2.3-0.5-5-2.7-5.9c-2.5-0.9-5.1,0.8-7.1,2.5s-4.3,3.7-6.9,3.3
	c2.7-2.5,4-6.2,3.2-9.8c-0.1-0.7-0.4-1.4-0.9-2c-1.4-1.5-3.8-0.8-5.5,0.3c-5.2,3.7-6.7,10.7-6.7,17.1c-0.5-2.3-0.1-4.7-0.1-7
	s-0.7-5-2.7-6.2c-1.2-0.7-2.6-1-4-1c-2.3-0.1-5,0.2-6.5,1.9c-2,2.1-1.5,5.7,0.3,8s4.3,3.8,6.8,5.4c1.9,1.2,3.6,2.7,4.8,4.6
	c0.1,0.3,0.3,0.5,0.3,0.8h14.7C1002.2,698.4,1005.2,696.3,1008,693.8L1008,693.8z M315.8,714.6c1.8-1.5,3.2-3.5,3.8-5.8
	c0.5-2.3-0.5-5-2.7-5.9c-2.5-0.9-5.1,0.8-7.1,2.5s-4.3,3.7-6.9,3.3c2.7-2.5,4-6.2,3.2-9.8c-0.1-0.7-0.4-1.4-0.9-2
	c-1.4-1.5-3.8-0.8-5.5,0.3c-5.2,3.7-6.6,10.7-6.7,17.1c-0.5-2.3-0.1-4.7-0.1-7s-0.7-5-2.6-6.2c-1.2-0.7-2.6-1-4-0.9
	c-2.3-0.1-4.9,0.2-6.5,1.9c-2,2.1-1.5,5.7,0.3,8s4.4,3.8,6.8,5.4c1.9,1.2,3.6,2.7,4.8,4.6c0.1,0.3,0.3,0.5,0.4,0.8h14.6
	C310,719.2,313.1,717.1,315.8,714.6L315.8,714.6z M991.3,698.1c22.2,0,40.2,3,40.2,6.8s-18,6.8-40.2,6.8s-40.2-3-40.2-6.8
	S969.1,698.1,991.3,698.1z"/>
<path d="M998.8,471.3c0,0-20.3,20.3-8.8,50.5c11.5,30.2-19.7,80.3-19.7,80.3l1-0.2c41.8-7.4,62.5-55.1,39.3-90.6
	C1001.9,498.1,994.8,482.7,998.8,471.3L998.8,471.3z M778.1,546.8l10,8C788.1,554.8,775.2,560,778.1,546.8z M801.7,542.8l-11.3,1.5
	C790.3,544.3,800.3,552.5,801.7,542.8z M782.9,538.8l7.5,5.3C790.4,544,781.3,547.9,782.9,538.8z M793.2,534c0,0,9.3-2.5,10.6-1.9
	s0.5,6.4-3.2,6.7S793.2,534,793.2,534z M786.9,527c0,0,5.9,5.6,6.2,7s-4.8,4.5-7.5,0S786.9,527,786.9,527z M767.4,496.6
	c0,2.6-4.7,10.1-4.7,10.1s-4.7-7.5-4.7-10.1c0-2.6,2.1-4.7,4.7-4.7C765.3,491.9,767.4,494,767.4,496.6
	C767.4,496.6,767.4,496.6,767.4,496.6z M775.1,510.9c-1.4,2.2-9.4,5.9-9.4,5.9s0.1-8.8,1.5-11c1.3-2.2,4.2-2.9,6.4-1.6
	c2.2,1.3,2.9,4.2,1.6,6.4C775.2,510.8,775.2,510.8,775.1,510.9L775.1,510.9z M774.8,535.4c-2.3,1.2-11.1,0.4-11.1,0.4
	s4.6-7.6,6.9-8.7c2.3-1.2,5.1-0.2,6.3,2.1C778,531.4,777.1,534.2,774.8,535.4L774.8,535.4L774.8,535.4z M770.4,553.8
	c-2.1,1.5-10.8,2.2-10.8,2.2s3.2-8.2,5.3-9.8c2-1.6,5-1.3,6.6,0.7c1.6,2,1.3,5-0.7,6.6C770.6,553.6,770.5,553.7,770.4,553.8
	L770.4,553.8z M755.9,517.3c1.9,1.8,10.5,3.7,10.5,3.7s-2.1-8.6-4-10.4c-1.9-1.7-4.9-1.6-6.6,0.3
	C754.1,512.7,754.1,515.5,755.9,517.3L755.9,517.3z M751,539c2.3,1.2,11.1,0.4,11.1,0.4s-4.6-7.5-6.9-8.7c-2.3-1.2-5.1-0.4-6.3,1.9
	s-0.4,5.1,1.9,6.3C750.8,538.9,750.9,538.9,751,539L751,539z M749.1,560.7c2.1,1.5,10.9,2.2,10.9,2.2s-3.2-8.2-5.3-9.8
	c-2-1.6-5-1.3-6.6,0.7c-1.6,2-1.3,5,0.7,6.6C748.9,560.5,749,560.6,749.1,560.7z M115.7,547.8c0,0-41-7-12.9,60.9
	c0,0,28.5-10.9,30.7-37.9c0.9-10.9-6.5-20.7-17.2-22.9L115.7,547.8z M800.1,553.8l-12.5,1.1C787.5,554.9,794.2,566.4,800.1,553.8z"
	/>
<path d="M90.5,505.5c15.3,22.6,10.4,103.6,10.4,103.6s-77-25.5-92.4-48.1c-15.6-22.4-10.1-53.3,12.4-68.9
	s53.3-10.1,68.9,12.4C90,504.8,90.2,505.1,90.5,505.5z"/>
<path fill="none" stroke="#535461" stroke-miterlimit="10" d="M998.8,471.3c0,0-11.5,24.9,0,45.3c11.5,20.3,2,77.4-28.5,85.6"/>
<path fill="#FF6347" d="M1035,553.5c0,0-23.2-3.7-25.3,17.1s-44.6,23.7-44.6,23.7l0.8,0.5c35.1,23,68.6,14.7,63.6-15.9
	C1027.5,567.5,1027.7,556.1,1035,553.5z"/>
<path opacity="0.2" fill="#F5F5F5" enable-background="new    " d="M1035,553.5c0,0-23.2-3.7-25.3,17.1s-44.6,23.7-44.6,23.7
	l0.8,0.5c35.1,23,68.6,14.7,63.6-15.9C1027.5,567.5,1027.7,556.1,1035,553.5z"/>
<path fill="none" stroke="#535461" stroke-miterlimit="10" d="M1035,553.5c0,0-18,4-16.5,20.3s-26.7,36-53.4,20.4"/>
<path fill="none" stroke="#535461" stroke-width="2" stroke-miterlimit="10" d="M761.9,573.7c0,0-6.2-21.1,1.2-36.6
	c3.1-6.5,4.1-13.8,2.7-20.9c-0.7-3.4-1.7-6.6-3-9.8"/>
<path fill="#A8A8A8" d="M748.4,571.7c0,0,11.3-2.3,14.4-5.3s16.7-8.3,18.2-4.5s20.4,16.6,7.6,18.9s-30.3,3-34,1.5
	S748.4,571.7,748.4,571.7L748.4,571.7z"/>
<path opacity="0.2" enable-background="new    " d="M788.5,579.3c-12.9,2.3-30.3,3-34,1.5c-2.9-1.2-4.9-6.7-5.7-9.3l-0.4,0.1
	c0,0,2.3,9.1,6,10.6s21.2,0.8,34-1.5c3.7-0.7,4.8-2.2,4.4-4.1C792.5,577.9,791.3,578.8,788.5,579.3z"/>
<path fill="#A8A8A8" d="M665.4,639.5c0,0,34.4-6.9,43.6-16.1s50.5-25.3,55.1-13.8s62,50.5,23,57.4s-91.8,9.2-103.3,4.6
	S665.4,639.5,665.4,639.5z"/>
<path opacity="0.2" enable-background="new    " d="M787.1,662.8c-39,6.9-91.8,9.2-103.3,4.6c-8.7-3.5-14.8-20.3-17.2-28.1l-1.2,0.2
	c0,0,6.9,27.5,18.4,32.1s64.3,2.3,103.3-4.6c11.3-2,14.5-6.7,13.3-12.6C799.4,658.3,795.5,661.3,787.1,662.8L787.1,662.8z"/>
<path opacity="0.1" enable-background="new    " d="M90.5,505.5c15.3,22.6,10.4,103.6,10.4,103.6s-77-25.5-92.4-48.1
	c-15.6-22.4-10.1-53.3,12.4-68.9s53.3-10.1,68.9,12.4C90,504.8,90.2,505.1,90.5,505.5z"/>
<path fill="none" stroke="#535461" stroke-miterlimit="10" d="M22,492.3c0,0,57.7,44.6,79.2,116.9"/>
<path fill="none" stroke="#535461" stroke-miterlimit="10" d="M116.3,547.7c0,0,7.8,37.6-13.6,61"/>
<path d="M966.3,546.3c0,0,5.5,7.2-2.5,18s-14.7,20-12,26.8c0,0,12.1-20.2,22-20.4S977.2,558.4,966.3,546.3z
	 M937.3,546.3c0,0-5.5,7.2,2.5,18s14.7,20,12,26.8c0,0-12.1-20.2-22-20.4S926.4,558.4,937.3,546.3z"/>
<path opacity="0.1" enable-background="new    " d="M966.3,546.3c0.5,0.7,0.9,1.5,1.1,2.3c9.6,11.3,14.7,21.8,5.5,22.1
	c-8.6,0.3-19,15.7-21.4,19.5c0.1,0.3,0.2,0.6,0.3,0.9c0,0,12.1-20.2,22-20.4S977.1,558.4,966.3,546.3z M937.3,546.3
	c-0.5,0.7-0.9,1.5-1.1,2.3c-9.6,11.3-14.8,21.8-5.5,22.1c8.6,0.3,19,15.7,21.4,19.5c-0.1,0.3-0.2,0.6-0.3,0.9c0,0-12.1-20.2-22-20.4
	S926.4,558.4,937.3,546.3z"/>
<path fill="#FFD037" d="M976.5,555.5c0,2.5-0.3,4.6-0.6,4.6s-0.6-2-0.6-4.6s0.4-1.3,0.7-1.3S976.5,552.9,976.5,555.5z M980,558.5
	c-2.2,1.2-4.2,1.9-4.3,1.6s1.5-1.5,3.7-2.7s1.3-0.3,1.5,0S982.2,557.3,980,558.5z M927.1,555.5c0,2.5,0.3,4.6,0.6,4.6s0.6-2,0.6-4.6
	s-0.3-1.3-0.7-1.3S927.1,552.9,927.1,555.5z M923.6,558.5c2.2,1.2,4.2,1.9,4.3,1.6s-1.5-1.5-3.7-2.7s-1.3-0.3-1.5,0
	S921.4,557.3,923.6,558.5L923.6,558.5z"/>
<path fill="#A8A8A8" d="M928.8,590.2c0,0,15.4-0.5,20-3.8s23.6-7.2,24.8-2s23.1,26.3,5.7,26.4s-40.3-2.7-44.9-5.5
	S928.8,590.2,928.8,590.2L928.8,590.2z"/>
<path opacity="0.2" enable-background="new    " d="M979.6,609c-17.3,0.1-40.3-2.7-44.9-5.5c-3.5-2.1-4.9-9.8-5.4-13.4h-0.5
	c0,0,1,12.4,5.6,15.2s27.6,5.7,44.9,5.5c5,0,6.7-1.8,6.6-4.5C985.3,608,983.4,609,979.6,609z"/>
<path fill="none" stroke="#535461" stroke-width="2" stroke-miterlimit="10" d="M216.8,621.5c0,0-14.1-47.7,2.6-82.8
	c7.1-14.7,9.2-31.3,6.1-47.3c-1.6-7.6-3.8-15-6.7-22.2"/>
<path fill="#FC6681" d="M229.2,447c0,5.8-10.6,22.8-10.6,22.8S208,452.8,208,447c0-5.8,4.7-10.6,10.6-10.6
	C224.5,436.4,229.2,441.2,229.2,447L229.2,447L229.2,447z M246.7,479.4c-3.2,4.9-21.3,13.4-21.3,13.4s0.3-20,3.5-24.9
	c3.2-4.9,9.7-6.3,14.6-3.1C248.5,467.9,249.9,474.5,246.7,479.4L246.7,479.4z M245.9,534.7c-5.2,2.6-25.1,0.8-25.1,0.8
	s10.4-17.1,15.6-19.7c5.2-2.7,11.6-0.8,14.3,4.4c2.7,5.2,0.8,11.6-4.4,14.3C246.2,534.6,246.1,534.7,245.9,534.7z M235.9,576.5
	c-4.7,3.5-24.6,5-24.6,5s7.3-18.6,12-22.1c4.5-3.7,11.2-3,14.9,1.5c3.7,4.5,3,11.2-1.5,14.9C236.4,576,236.2,576.2,235.9,576.5
	L235.9,576.5z M203.2,493.9c4.2,4.1,23.7,8.3,23.7,8.3s-4.8-19.4-9-23.5c-4.2-4.1-10.9-4-15,0.2
	C198.9,483.1,198.9,489.8,203.2,493.9C203.1,493.9,203.2,493.9,203.2,493.9L203.2,493.9z M192.1,542.9c5.2,2.6,25.1,0.8,25.1,0.8
	s-10.4-17.1-15.6-19.7c-5.2-2.6-11.6-0.5-14.2,4.7C184.8,533.9,186.9,540.2,192.1,542.9L192.1,542.9z M187.9,591.9
	c4.7,3.5,24.7,5.1,24.7,5.1s-7.3-18.6-12-22.1c-4.5-3.7-11.2-3-14.9,1.5c-3.7,4.5-3,11.2,1.5,14.9
	C187.4,591.6,187.6,591.8,187.9,591.9L187.9,591.9z"/>
<path fill="#A8A8A8" d="M183.6,618.5c0,0,17.1-3.4,21.7-7.9s25.1-12.5,27.4-6.8s30.8,24.9,11.4,28.3s-45.6,4.5-51.3,2.3
	S183.6,618.5,183.6,618.5L183.6,618.5z"/>
<path opacity="0.2" enable-background="new    " d="M244,630c-19.4,3.4-45.6,4.5-51.3,2.3c-4.3-1.7-7.4-10-8.6-13.9l-0.6,0.1
	c0,0,3.4,13.6,9.1,15.9s31.9,1.1,51.3-2.3c5.6-1,7.2-3.3,6.6-6.2C250.1,627.8,248.2,629.2,244,630L244,630z"/>
<linearGradient id="SVGID_1_" gradientUnits="userSpaceOnUse" x1="857.211" y1="67.3398" x2="857.211" y2="657.7585" gradientTransform="matrix(-1 0 0 -1 1267.39 737.91)">
	<stop  offset="0" style="stop-color:#808080;stop-opacity:0.25"/>
	<stop  offset="0.54" style="stop-color:#808080;stop-opacity:0.12"/>
	<stop  offset="1" style="stop-color:#808080;stop-opacity:0.1"/>
</linearGradient>
<path fill="url(#SVGID_1_)" d="M311.3,668.3c0,0,22.9,6.3,34-2.1s15.8-5.7,15.8-5.7s26.3-1.5,28.5-7.7s-10.1-28.8-10.1-28.8
	c-0.9-2-2.1-4.5-2.7-4.5l0.1-9.5l3.8-39.9c8.8-22.5,0.2-51.7,0.2-51.7l-1.6-7.2c-0.9-4.1-0.4-8.3,1.5-12l16-32.2
	c0.9-2.1,1.9-4.2,3-6.2c1-1.8,2.3-4.1,4-6.8c0.5-0.8,1-1.6,1.6-2.4c1.9-3,4.3-6.4,7.1-10.4c7.1-9.8,10.8-22,12.7-31.1l0.9,2.8h0.4
	l0.3,0.1h0.1l0.4,0.1h0.2l4.9,62.5c0.3,24.4,9.3,37.9,9.3,37.9l-1.2,53.8c1.7,13-2,30.3-3.7,37.2l-3.9,8.7c-3.1,1.5-5.2,4.5-5.7,7.9
	c-0.8,6.5-7.6,20.3-7.6,20.3c-2.5,3.4-8.2,12.4-8.2,12.4s-2.8,8.6-1.1,11.8s15.6,2.9,15.6,2.9c15.9,3.5,28.1-5.1,27.3-10.9
	s2.5-7.4,2.5-7.4c6.3-2,5.7-6.3,5.7-6.3c1.4-8.8-0.3-17.9-4.8-25.6l-1,2.3c-0.3-4.6,0.4-9.3,1.9-13.7c-0.2,0.1-0.4,0.3-0.6,0.4
	l-0.2,0.1h-0.1c1-8.8,10.2-25.1,10.2-25.1c17-29.8,10.8-70.1,10.8-70.1l-2.6-12.5l-0.2-4.7c-0.4-11.3,0.5-22.6,2.5-33.8
	c0.9-4.9,1.8-10.9,2.6-17.5c1.5-13.9,6.4-28.2,8.7-34.3l0.7-0.1h0.1l2.8-0.5h0.2c0,0,0.5-2.9,1-7.9c0.3-3.2,0.5-7.2,0.5-11.8
	c0.1-14-2.1-27.9-6.3-41.2l0.5-0.7c0,0,1.2-1.6,3.4-4.5c4.1-5.2,10.4-13,18.2-21.9c14-16,9.9-32.1,9.9-32.1s-10.1-37-14.6-59.3
	c-2.6-12.7-7.4-21.3-11.1-26.4c0.8-3.5,1.3-7.1,1.4-10.7c0.3-6.6,0.1-13.5-2.9-19.4s-9.3-10.6-15.9-9.8c-0.9,0.2-1.9,0.2-2.8,0
	c-0.8-0.4-1.4-0.9-1.9-1.6c-3.9-5.3-4.1-12.5-2.9-18.9s3.7-12.6,4.8-19.1s0.6-13.7-3.5-18.8c-4.8-6-13.3-7.7-19.6-12.2
	c-4.4-3.2-7.7-7.8-12.4-10.6s-9-1.8-14.1-0.7c-8.5,1.8-16.6,2.6-24.7,6.3c-8.2,3.7-15.5,9-21.5,15.6c-2.1,2.1-3.8,4.7-4.8,7.6
	c-2,6.6,1.9,13.7,1.1,20.5c-0.6,4.9-3.5,9.1-5.7,13.4s-4,9.5-2.2,14.1c2.8,7.1,12,8.6,18.6,12.4c0.9,0.4,1.7,1.1,2.2,1.9
	c1.6,2.9-1.7,5.9-3.8,8.4c-1.2,1.5-2.1,3.2-2.5,5.1c-5.6,2.3-9.7,7.2-10.9,13.2c-2.3,10.1,1.2,22.9,4.3,31.3
	c-3.3,18.8,1,26.2,4.2,29c3.3,2.8,5.3,6.7,5.6,11v0.4c0.2,3.4,0.6,6.8,1,10.2c-0.1-0.8-0.2-1.6-0.3-2c-2.6,4.9-7.6,17.2-10.4,38
	c-0.6,4.5-1.4,8.9-2.5,13.3c-2,7.7-2.7,15.7-2.1,23.7l0.5,6.8c-0.5,0-1-0.1-1.4-0.5l3.5,6.5V378c0,4.9-0.9,9.8-2.7,14.3
	c-0.3,0.7-0.5,1.3-0.8,2c-0.9,1.8-1.3,3.9-1.2,5.9c-7.6,11.6-25,76.6-25,76.6c-9.4,21.3,0.8,35.1,0.8,35.1s4.9,59.4,5.9,62.4
	s2.9,39.3,2.9,39.3v2.9c-0.5-0.2-1.1-0.4-1.7-0.5c-8.3-0.5-10.5,12.6-10.5,12.6L323,644.8c0,0-7.7-1.3-19.1,7.2
	S311.3,668.3,311.3,668.3z M479.9,325.2V325l-0.5,0.3l-0.2,0.1h-0.1l-7.9-27.4c-2.1-7.4-2.3-15.1-0.6-22.6l6-26.4v-6.3l19.1,51
	C497.1,300.5,485.8,317.2,479.9,325.2L479.9,325.2z"/>
<path fill="#FDC2CC" d="M488.3,408.1c0,0-7.7,18.8-9.7,36.8c-0.7,6.5-1.6,12.4-2.5,17.3c-2,11-2.8,22.2-2.5,33.4l0.1,4.7l2.6,12.4
	c0,0,6.1,39.8-10.6,69.2c0,0-9.9,17.6-10.1,25.9l-6.7,2.6l-13.5-3.8c0,0,6.5-23.3,4.4-39.7l1.2-53.2c0,0-8.8-13.3-9.1-37.4l-5.1-66
	L488.3,408.1z M426.8,398.7c0,0-1.7,25.8-14.4,43.5s-15.4,25.5-15.4,25.5l-15.7,31.8c-1.8,3.7-2.3,7.9-1.5,11.9l1.5,7.1
	c0,0,8.5,28.8-0.1,51.1l-4.1,43h-23.9c0,0-2-35.8-2.9-38.8s-5.8-61.7-5.8-61.7s-10-13.6-0.8-34.7c0,0,20.9-78.8,26.5-77.4
	S426.8,398.7,426.8,398.7L426.8,398.7z"/>
<path opacity="0.1" enable-background="new    " d="M378.9,518.4l-1.5-7.1c-0.9-4-0.4-8.2,1.5-11.9l15.7-31.8c0,0,2.7-7.7,15.5-25.5
	c12.2-17,14.2-41.5,14.4-43.4l2.4-0.1c0,0-1.7,25.8-14.4,43.5s-15.4,25.5-15.4,25.5l-15.7,31.8c-1.8,3.7-2.3,7.9-1.5,11.9l1.5,7.1
	c0,0,8.5,28.8-0.1,51.1l-4.1,43h-2.4l4.1-43C387.4,547.2,378.9,518.4,378.9,518.4L378.9,518.4z M453.1,607.8
	c0.3-8.3,10.1-25.9,10.1-25.9c16.7-29.4,10.6-69.2,10.6-69.2l-2.6-12.4l-0.1-4.7c-0.4-11.2,0.5-22.4,2.5-33.4
	c0.9-4.9,1.8-10.8,2.5-17.3c1.9-17.4,9.1-35.4,9.7-36.7l2.5-0.1c0,0-7.7,18.8-9.7,36.8c-0.7,6.5-1.6,12.4-2.5,17.3
	c-2,11-2.8,22.2-2.5,33.4l0.1,4.7l2.6,12.4c0,0,6.1,39.8-10.6,69.2c0,0-9.9,17.6-10.1,25.9l-6.7,2.6l-1.4-0.3L453.1,607.8z"/>
<path fill="#D39999" d="M445.4,607.5c3.7,1.5,7.9,1,11.1-1.4c-2.2,6.4-2.5,13.4-0.9,20c2.7,10.9-25.5-8.8-25.5-8.8l6.1-13.8
	C436.2,603.6,438.5,607.9,445.4,607.5L445.4,607.5z"/>
<path opacity="0.1" enable-background="new    " d="M447.5,608.1c3.1,0.6,6.4-0.1,9-2c-2.2,6.4-2.5,13.4-0.9,20
	c2.7,10.9-25.5-8.8-25.5-8.8l6.1-13.8c0,0,1.8,3.3,6.9,3.9C444.5,607.6,446,607.8,447.5,608.1L447.5,608.1z"/>
<path fill="#FDC2CC" d="M381.5,352.6h11.8v-66.8l-8.8-1.6L381.5,352.6z"/>
<path opacity="5.000000e-02" enable-background="new    " d="M381.5,352.6h11.8v-66.8l-8.8-1.6L381.5,352.6z"/>
<path fill="#7E5659" d="M438.8,612.6c0,0,7.4-0.5,10.8,6.2l4.1,3.2l2-4.7c4.4,7.7,6,16.6,4.7,25.3c0,0,0.6,4.2-5.6,6.2
	c0,0-3.2,1.5-2.4,7.3s-11.2,14.2-26.8,10.8c0,0-13.6,0.3-15.3-2.9s1.1-11.7,1.1-11.7s5.6-8.9,8.2-12.2c0,0,6.7-13.7,7.4-20.1
	S434.8,609.2,438.8,612.6L438.8,612.6z"/>
<path fill="#D39999" d="M377.3,618.2l0.1-9.4c0,0-13.5,3.9-24.5-0.5c0,0,0.9,9.5-0.6,10.8s5.1,13.5,5.1,13.5l7.4,7.7l12.7-4.6
	l3.4-10.8C380.9,624.8,378.2,618.2,377.3,618.2L377.3,618.2z"/>
<path opacity="0.1" enable-background="new    " d="M377.3,618.2l0.1-9.4c0,0-13.5,3.9-24.5-0.5c0,0,0.9,9.5-0.6,10.8
	s5.1,13.5,5.1,13.5l7.4,7.7l12.7-4.6l3.4-10.8C380.9,624.8,378.2,618.2,377.3,618.2L377.3,618.2z"/>
<path fill="#7E5659" d="M351.5,614.8c0,0,7.2,0.8,6.3,10s0.4,0,0.4,0s7.6,3.1,10.4,7.4s7.6-3.9,8-6.2s3.4-3.3,3.4-3.3
	s12,22.3,9.9,28.5s-28,7.6-28,7.6s-4.7-2.7-15.5,5.6s-33.3,2-33.3,2s-18.3-7.7-7.2-16s18.7-7.1,18.7-7.1l16.6-16
	C341.2,627.2,343.4,614.4,351.5,614.8L351.5,614.8z"/>
<path fill="#865A61" d="M437.5,87.3c4.6,2.8,7.8,7.3,12.2,10.4c6.2,4.5,14.5,6.1,19.2,12.1c4,5.1,4.5,12.2,3.5,18.6
	s-3.5,12.5-4.7,18.9s-0.9,13.4,2.9,18.7c0.4,0.7,1.1,1.3,1.8,1.6c0.9,0.2,1.9,0.2,2.8,0c6.5-0.8,12.7,3.9,15.6,9.7
	s3.1,12.6,2.8,19.2c-0.3,5.4-0.9,10.8-3.2,15.6c-4,8.2-12.4,13.2-20.6,17.1c-5.4,2.5-10.8,4.7-16.4,6.6c-3.8,1.3-7.9,2.5-11.9,1.8
	c-6.9-1.2-11.7-7.4-18.2-9.9c-5.3-2-11.2-1.3-16.9-0.8c-4.8,0.4-10.4,0.4-13.7-3.1c-4.3-4.5-2.4-11.9-0.2-17.7
	c-6.9-0.5-12.2-6.5-11.7-13.4c0.2-2.6,1.2-5.1,2.8-7.2c2.1-2.5,5.4-5.5,3.8-8.3c-0.5-0.8-1.3-1.5-2.2-1.9
	c-6.5-3.7-15.5-5.2-18.3-12.2c-1.8-4.5,0-9.6,2.2-13.9s5-8.5,5.6-13.3c0.8-6.8-3-13.8-1.1-20.3c1-2.8,2.6-5.4,4.7-7.5
	c5.9-6.5,13.1-11.8,21.1-15.4c7.9-3.6,15.9-4.4,24.2-6.2C428.6,85.6,432.8,84.4,437.5,87.3L437.5,87.3z"/>
<path fill="#FDC2CC" d="M393.3,188.2c0,0-19.2-1-22.8,15.4s7.9,39.8,7.9,39.8L393.3,188.2z"/>
<path opacity="5.000000e-02" enable-background="new    " d="M393.3,188.2c0,0-19.2-1-22.8,15.4s7.9,39.8,7.9,39.8L393.3,188.2z"/>
<path fill="#FDC2CC" d="M381,236.9l7.3,5.8l33.9,1.5l21.2-14.5l21.5-37c-13.2-3.4-18.5-12.4-20.5-21c-1.3-5.8-1.4-11.7-0.4-17.5
	c0,0-34.5-17.9-30.3,10c0.6,3.4,0.7,6.9,0.3,10.4c-2,16.3-17.9,13.3-17.9,13.3l-6.1,9.4l-7,23L381,236.9z"/>
<path opacity="0.1" enable-background="new    " d="M413.8,164.2c0.6,3.4,0.7,6.9,0.3,10.4c9.9,4.5,21.5,3.5,30.5-2.9
	c-1.3-5.8-1.4-11.7-0.4-17.5C444.1,154.2,409.5,136.3,413.8,164.2L413.8,164.2z"/>
<circle fill="#FDC2CC" cx="426.8" cy="145.5" r="30.6"/>
<path fill="#D39999" d="M405.2,231.1c0.7,0.1,1.5,0.1,2.2,0.2c4,0.4,20.8,1.3,30.3-10.1c10.7-12.8,24.9-28.5,25.5-29.2l14.5,4.4
	c0,0-11.5-4.1-19.1,17.2c-3.4,9.2-0.4,19.5,7.5,25.4c2.8,2,6,3.4,9.5,4c0,0,0,0,0,0.1v9.4l-5.9,26c-1.7,7.4-1.5,15,0.6,22.3l9,31.9
	v0c-1.4,0.9-57.4,39-94.8,12.7c0.1-1.1,4.8-38.6,1.6-56.9c-0.8-4.7-1.4-9.4-1.7-14.2V274c-0.3-4.2-2.3-8.1-5.5-10.8
	c-3.4-3-7.9-11-3.4-32.2c1.1-5.2,2.8-10.4,5-15.3l12.5-28.4c0,0,0,0,0,0l11.6,0.2v0.1c-1,1.3-14.4,18-15.9,28.8
	C387.2,226.7,385.5,229.8,405.2,231.1L405.2,231.1z"/>
<path fill="#FDC2CC" d="M487.4,201.4c0,0,11.3,9.7,15.8,31.7s14.4,58.6,14.4,58.6s4,16-9.7,31.7S485,351.5,485,351.5l-9,13.3
	c-1.5,2.3-3.8,3.9-6.5,4.6c-4.1,1.1-10.4,1.9-15.9-1.1c-4.1-2.3-5.9-7.3-4-11.7l2-4.6c0,0-18.6,11.7-20.2,5.3s21.6-12.9,21.6-12.9
	s19.2-3.2,23-12.3c0,0,20.6-26.5,19-35.5L475,243c0,0-24.8-3.3-16.3-31.2S487.4,201.4,487.4,201.4L487.4,201.4z"/>
<path fill="#7E5659" d="M368.4,402.6c0,0,45.5,9.1,56.1,7.9l1.1,3.8c0,0,17.3,3.9,56.3-2.3c2.5-0.4,5.2-0.9,7.9-1.4l0.9-0.2
	c0,0,0.5-2.9,1-7.8c0.9-11.2,1.3-32.8-6.6-55l-6.6-20.2c0,0-40.5,24.3-67.4,22.1c-2.4-0.2-4.8-0.4-7.2-0.5c-5.5-0.2-14,0-19.6-4.4
	l-11.6,2v33.2c0,4.8-0.9,9.6-2.6,14.2c-0.3,0.7-0.5,1.3-0.8,2C368.5,398,367.8,400.4,368.4,402.6L368.4,402.6z"/>
<path opacity="0.1" enable-background="new    " d="M425.7,404v10.3c0,0,19.9,4.4,65.1-3.8c0,0,0.5-2.9,1-7.8
	C477.9,404.8,439.6,410.2,425.7,404L425.7,404z"/>
<path opacity="0.1" enable-background="new    " d="M368.4,402.6c0,0,45.5,9.1,56.1,7.9l1.1,3.8V404c-5.2,2.1-42.1-6.8-55.5-10.1
	c-0.3,0.7-0.5,1.3-0.8,2C368.5,398,367.8,400.4,368.4,402.6z"/>
<path fill="#7E5659" d="M478.6,391l3.4,20.9c2.5-0.4,5.2-0.9,7.9-1.4c-1-6.1-3.4-20-2.7-22.4l-4.2-3.6L478.6,391z"/>
<path opacity="0.1" enable-background="new    " d="M478.6,391l3.4,20.9c2.5-0.4,5.2-0.9,7.9-1.4c-1-6.1-3.4-20-2.7-22.4l-4.2-3.6
	L478.6,391z"/>
<path opacity="5.000000e-02" enable-background="new    " d="M408.8,349.5c-2.4-0.2-4.8-0.4-7.2-0.5c-5.4-0.2-13.5,0-19.1-4.1l2-0.3
	c5.6,4.4,14.1,4.2,19.6,4.4c2.4,0.1,4.8,0.3,7.2,0.5c0.8,0.1,1.6,0.1,2.4,0.1C412,349.7,410.4,349.6,408.8,349.5z M479.5,412
	c2.6-0.4,5.2-0.9,7.9-1.4l0.9-0.2c0,0,0.5-2.9,1-7.8c0.9-11.2,1.3-32.8-6.6-55l-6.2-19c1.3-0.7,2-1.2,2-1.2l6.6,20.2
	c7.9,22.2,7.5,43.8,6.6,55c-0.4,4.9-1,7.8-1,7.8l-0.9,0.2c-2.7,0.5-5.4,1-7.9,1.4c-18.2,2.9-31.7,3.6-40.9,3.5
	C453.9,415.3,466.8,414.1,479.5,412L479.5,412z M422.1,410.4v0.1h-1.3C421.3,410.5,421.8,410.5,422.1,410.4z"/>
<ellipse fill="#D39999" cx="484.3" cy="391.5" rx="1.7" ry="3.5"/>
<path fill="#FDC2CC" d="M374.8,320c2.8-20.6,7.6-32.8,10.2-37.6c0.1,0.7,0.4,2.8,0.5,3.4c0.5,3,0.1,6.8,0.2,10.6l-2.6,46.6l3.4,14.5
	c3.2,11.5-8.7,2.4-8.7,2.4c-2.5,5.5-7,4.9-7,4.9l-0.6-8.3c-0.6-7.9,0.1-15.8,2.1-23.4C373.4,328.8,374.2,324.4,374.8,320L374.8,320z
	"/>
<path opacity="5.000000e-02" enable-background="new    " d="M374.8,320c2.8-20.6,7.6-32.8,10.2-37.6c0.1,0.7,0.4,2.8,0.5,3.4
	c0.5,3,0.1,6.8,0.2,10.6l-2.6,46.6l3.4,14.5c3.2,11.5-8.7,2.4-8.7,2.4c-2.5,5.5-7,4.9-7,4.9l-0.6-8.3c-0.6-7.9,0.1-15.8,2.1-23.4
	C373.4,328.8,374.2,324.4,374.8,320L374.8,320z"/>
<path fill="#FDC2CC" d="M489.9,345c-2.2,2.8-3.4,4.4-3.4,4.4l-9,13.3c-1.5,2.3-3.8,3.9-6.5,4.6c-4.1,1.1-10.4,1.9-15.9-1.1
	c-4.1-2.3-5.9-7.3-4-11.7l2-4.6c0,0-18.6,11.7-20.2,5.3s21.6-12.9,21.6-12.9s19.2-3.2,23-12.3c0,0,1.7-2.2,4-5.5"/>
<path fill="#7E5659" d="M478.6,367.3c0,0-22-2.1-28.9-14.7l-3.1,10.3c0,0,23,15.9,28.3,13.9L478.6,367.3z"/>
<path opacity="0.1" enable-background="new    " d="M478.6,367.3c0,0-22-2.1-28.9-14.7l-3.1,10.3c0,0,23,15.9,28.3,13.9L478.6,367.3
	z"/>
<path fill="#7E5659" d="M378.6,361.5c0,0-7.7,2.7-9.2,1.2l3.5,6.4l6.5-5L378.6,361.5z"/>
<path opacity="0.1" enable-background="new    " d="M378.6,361.5c0,0-7.7,2.7-9.2,1.2l3.5,6.4l6.5-5L378.6,361.5z M425.7,404v-13.3
	l-3.2,13.6L425.7,404L425.7,404z M456.9,129.4c-1.9,2.6-5.1,3.9-8.2,4.3s-6.4,0.1-9.6,0c-5-0.1-10.3,0.7-14.5,3.6
	c-2.6,1.9-4.6,4.5-6.6,7c-6.2,7.6-14.8,14.7-24.6,13.9c-1.7,0-3.4-0.7-4.6-1.9c-0.8-1.2-1.2-2.7-1.2-4.1c-0.4-6.2-0.2-12.5,0.6-18.7
	c0.4-3.8,1.3-7.6,2.8-11.2c1.7-3.6,4-6.9,6.8-9.7c3.3-3.9,7.4-7.1,11.9-9.5c4.6-2.3,9.9-3.3,14.8-1.9c5.8,1.6,10.4,6.2,16,8.5
	C447,112.4,463.9,119.5,456.9,129.4L456.9,129.4z"/>
<path fill="#865A61" d="M456.9,128.2c-1.9,2.6-5.1,3.9-8.2,4.4s-6.4,0.1-9.6,0c-5-0.1-10.3,0.7-14.5,3.6c-2.6,1.9-4.6,4.5-6.6,7
	c-6.2,7.6-14.8,14.7-24.6,13.9c-1.7,0-3.4-0.7-4.6-1.9c-0.8-1.2-1.2-2.7-1.2-4.1c-0.4-6.2-0.2-12.5,0.6-18.7
	c0.4-3.8,1.3-7.6,2.8-11.2c1.7-3.6,4-6.9,6.8-9.7c3.3-3.9,7.4-7.1,11.9-9.5c4.6-2.3,9.9-3.3,14.8-1.9c5.8,1.6,10.4,6.2,16,8.5
	C446.9,111.2,463.9,118.3,456.9,128.2L456.9,128.2z"/>
<path fill="#FDC2CC" d="M384.5,344.6l-0.1,3.7l-0.8-3.5L384.5,344.6z"/>
<path opacity="5.000000e-02" enable-background="new    " d="M384.5,344.6l-0.1,3.7l-0.8-3.5L384.5,344.6z M461.8,209.8
	c-8.5,27.9,16.3,31.2,16.3,31.2l19.9,53.3c1.6,9.1-19,35.5-19,35.5c-1.4,3.4-5,6-8.9,7.9c2.3-1.4,4.1-3.4,5.3-5.8
	c0,0,20.6-26.5,19-35.5l-19.9-53.3c0,0-24.8-3.3-16.3-31.2c2.8-9.3,7-13.6,11.3-15.1C466.5,199.1,463.8,203.2,461.8,209.8
	L461.8,209.8z"/>
<g opacity="0.1">
	<path d="M462.2,235.2c1.2,1.4,2.5,2.7,4,3.8c2.8,2,6,3.4,9.5,4v1c-3.1-0.7-6-2-8.6-3.8C465.2,238.8,463.6,237.2,462.2,235.2z
		 M385.3,275.2v0.4c0.3,4.7,0.9,9.5,1.7,14.2c3,17.3-0.9,51.6-1.5,56.4c-0.3-0.2-0.6-0.4-1-0.6c0.1-1.1,4.8-38.6,1.6-56.9
		c-0.8-4.7-1.4-9.4-1.7-14.2V274c-0.2-2.8-1.1-5.4-2.7-7.7C383.8,268.9,385,272,385.3,275.2L385.3,275.2z M403.8,188.7l-9.8-0.2
		c0,0,0,0,0,0l-12.5,28.4c-2.2,4.9-3.9,10-5,15.3c-3.6,17.1-1.4,25.7,1.4,29.9c-3.1-3.7-6.4-12.1-2.3-31.1c1.1-5.3,2.8-10.4,5-15.3
		l12.5-28.3l11.6,0.2v0.1C404.5,187.7,404.2,188.1,403.8,188.7L403.8,188.7z M477.7,196.4h0.2H477.7z"/>
	<path d="M474.1,196.2l-9.8-3c-0.6,0.6-14.8,16.4-25.5,29.2c-9.5,11.4-26.3,10.5-30.3,10.1c-0.7-0.1-1.5-0.1-2.2-0.2
		c-11-0.7-15.3-2-16.7-4.8c2.1,2,6.6,3,15.8,3.6c0.7,0.1,1.5,0.1,2.2,0.2c4,0.4,20.8,1.3,30.3-10.1c10.7-12.8,24.9-28.5,25.5-29.2
		l14.3,4.3C476.5,196.1,475.3,196,474.1,196.2L474.1,196.2z"/>
</g>
<path opacity="0.1" enable-background="new    " d="M357.7,629.4c0,0-13.8,3.8-16.5-2.2 M445.6,626.6c0,0-16.1,4.1-19.8-2.3"/>
<linearGradient id="SVGID_2_" gradientUnits="userSpaceOnUse" x1="675.9713" y1="115.7144" x2="675.9713" y2="261.7142" gradientTransform="matrix(-1 0 0 -1 1267.39 737.91)">
	<stop  offset="0" style="stop-color:#808080;stop-opacity:0.25"/>
	<stop  offset="0.54" style="stop-color:#808080;stop-opacity:0.12"/>
	<stop  offset="1" style="stop-color:#808080;stop-opacity:0.1"/>
</linearGradient>
<path fill="url(#SVGID_2_)" d="M649.7,555.9c0,0-2-8-3.8-15.9c-0.4-4.9-1.2-11.3-1.6-14v-0.3c0-1.1-0.4-2.1-1.1-2.9
	c1-2.9,4.6-13.8,4-17c-0.8-3.6-3.6-12.5-6.9-15.5c-1-1.6-2.6-2.8-4.4-3.5c-3.2-1.2-6.8-0.9-9.7,0.8l-16.9,9.5
	c-6.8-1-12.3-1.8-12.3-1.8s-4.2-0.5-9.4-1c-1.6-3.9-7-15.6-12.6-17.5c-6-2-13,0.7-14.5,1.3h-0.1l-0.2,0.1c-11,5.1-9.7,26.6-9.3,31.3
	c-2,2.6-4.3,5.1-6.6,7.4c-3.8,3.3-4.9,12-1.4,13.8c1.7,0.8,4,1.9,6.1,2.7c-9.5,20.3-25.6,60.1-11.2,71.4
	c19.6,15.4,56.4,20.5,69,15.4c0.3,0.1,0.7,0,1-0.1c0,0,20.5-4.9,25.2-10.3c3.6-4.5,6.1-9.8,7.2-15.4c5-4.4,8.3-10.3,9.6-16.8
	C652.2,565.1,649.7,555.9,649.7,555.9L649.7,555.9z M636.9,512.3l0.5-2.4l0.8,0.5c-0.1,0.7-0.3,1.4-0.5,2.1L637,517L636.9,512.3z
	 M633.1,492.1c0.9,0.6,6.6,4.9,5.5,15.8c-0.1-0.4-0.2-0.8-0.3-1.2c-0.3-1.6-1.4-3.7-5.3-5c-3.4-1-6.8-1.7-10.2-2.3
	C625.7,496.4,629.2,493.9,633.1,492.1L633.1,492.1z M575.7,493.3c-4.4-0.3-7.9-0.5-8.4-0.1h-0.1c-0.6-0.1-1.1,0-1.7,0.2
	c-1.7,0.4-3.3,1.2-4.8,2.2c2-11.2,7.8-12.1,9.1-12.2C572.5,486.3,574.4,489.6,575.7,493.3L575.7,493.3z M639.3,582
	c-0.6-9.1-1.2-23.4-1.5-31.7l0.5-0.1c0.6-0.1,1.1-0.2,1.7-0.3c0.6,5.4,1.6,11.8,3.3,15.9C645.5,571.1,642.1,577.9,639.3,582
	L639.3,582z"/>
<path fill="#CD939C" d="M635.5,507.3l-11.4-3.5l-12.3,4.4l-0.9,7.7l6.1,3.9l9.6-0.3l8.5-4l1.5-7.3L635.5,507.3L635.5,507.3z"/>
<path opacity="0.2" enable-background="new    " d="M635.5,507.3l-11.4-3.5l-12.3,4.4l-0.9,7.7l6.1,3.9l9.6-0.3l8.5-4l1.5-7.3
	L635.5,507.3L635.5,507.3z"/>
<path fill="#F6C6CD" d="M552.1,511.1c0,0-3.1-26.7,9.2-32.1c0,0,6.6,0.3,9.5,5.1c0,0-9-0.5-9.7,18.2L552.1,511.1z"/>
<path opacity="0.1" enable-background="new    " d="M552.1,511.1c0,0-3.1-26.7,9.2-32.1c0,0,6.6,0.3,9.5,5.1c0,0-9-0.5-9.7,18.2
	L552.1,511.1z"/>
<path fill="#CD939C" d="M558.8,501.5c0,0-9.5,12.7-13.2,16s-4.8,11.9-1.4,13.7s10,4.3,10,4.3L558.8,501.5z"/>
<path opacity="5.000000e-02" enable-background="new    " d="M558.8,501.5c0,0-9.5,12.7-13.2,16s-4.8,11.9-1.4,13.7s10,4.3,10,4.3
	L558.8,501.5z"/>
<path fill="#F6C6CD" d="M588.2,496.2c0,0-6.2-16.3-12.7-18.5s-14.4,1.5-14.4,1.5s9.6-1,15.5,15.8L588.2,496.2z M641.6,523.9
	c0,0,4.8-13.9,4.1-17.5s-3.5-12.4-6.7-15.3s-7.1,1.6-7.1,1.6s8.3,5,4.7,20.1l-1.1,6.7L641.6,523.9z"/>
<path opacity="0.1" enable-background="new    " d="M641.6,523.9c0,0,4.8-13.9,4.1-17.5s-3.5-12.4-6.7-15.3s-7.1,1.6-7.1,1.6
	s8.3,5,4.7,20.1l-1.1,6.7L641.6,523.9z"/>
<path fill="#F6C6CD" d="M606.3,499.2l18.9-10.8c2.9-1.7,6.4-2,9.5-0.8c1.7,0.6,3.2,1.8,4.3,3.4c0,0-9.1-0.5-19.3,11.4L606.3,499.2z
	 M638,540.3c0,0,0.5,17.2,3.9,25.5s-6.8,19.9-6.8,19.9l1.9,10c0,0,8.7-5.6,11.2-18.1s0-21.6,0-21.6s-7-28.1-6-31.1
	S638,540.3,638,540.3z"/>
<path opacity="0.1" enable-background="new    " d="M638,540.3c0,0,0.5,17.2,3.9,25.5s-6.8,19.9-6.8,19.9l1.9,10
	c0,0,8.7-5.6,11.2-18.1s0-21.6,0-21.6s-7-28.1-6-31.1S638,540.3,638,540.3z"/>
<path fill="#CD939C" d="M635.6,510c0,0,1.5,8.8-16.4,4.9l-12,104.8c0,0,19.9-4.8,24.5-10.2s8.1-15.7,7-19.4s-2.5-46.3-2.5-46.3
	L635.6,510z"/>
<path fill="#CD939C" d="M555.9,521.9c0,0-35.8,67.4-16.7,82.7s54.8,20.3,67.1,15.2c0,0,5.7,1.5,4.8-16.2s6.6-67.2,6.6-67.2
	L555.9,521.9z"/>
<path fill="#F6C6CD" d="M557.1,524.9c0,0-33.6,63.4-15.7,77.7s51.5,19.1,63.1,14.3c0,0,5.3,1.4,4.5-15.2s6.2-63.2,6.2-63.2
	L557.1,524.9z"/>
<path opacity="0.1" enable-background="new    " d="M634.9,551c-1.4,1-9.3-1.4-9.3-1.4c-8.5-0.6-5.5-15.3-3.9-21.1
	c0.4-1.5,0.7-2.3,0.7-2.3c4,5.1,11.1,2.9,11.1,2.9s0.2,1.6,0.5,4C634.7,539.3,635.9,550.3,634.9,551L634.9,551z"/>
<path fill="#F6C6CD" d="M635.1,550.5c-1.4,1-9.2-1.4-9.2-1.4c-8.5-0.6-5.5-15.3-3.9-21.1c0.4-1.5,0.7-2.4,0.7-2.4
	c4,5.1,11.1,2.9,11.1,2.9s0.2,1.6,0.5,4C635,538.7,636.1,549.8,635.1,550.5L635.1,550.5z"/>
<path opacity="5.000000e-02" enable-background="new    " d="M635.1,550.9c-1.4,1-9.2-1.4-9.2-1.4c-8.5-0.6-5.5-15.3-3.9-21.1
	c0.4-1.5,0.7-2.3,0.7-2.3c4,5.1,11.1,2.9,11.1,2.9s0.2,1.6,0.5,4C635,539.1,636.1,550.2,635.1,550.9L635.1,550.9z"/>
<path opacity="0.1" enable-background="new    " d="M634.2,532.6c-3.9-0.5-9.8-3.3-12.3-4.6c0.4-1.5,0.7-2.4,0.7-2.4
	c4,5.1,11.1,2.9,11.1,2.9S634,530.3,634.2,532.6z"/>
<path fill="#F6C6CD" d="M630.5,528c0,0-9.7,25.2,6.6,22.3c0,0,7.6-0.8,7.6-6.6s-1.9-18.5-1.9-18.5L630.5,528z"/>
<path opacity="0.1" enable-background="new    " d="M623.2,521.7c0,0-4.9,20.4,10.8,12.8s5.7-12.8,5.7-12.8l-7.5-4.9L623.2,521.7z"
	/>
<path fill="#CD939C" d="M623.2,521.5c0,0-4.9,20.4,10.8,12.8s5.7-12.8,5.7-12.8l-7.5-4.9L623.2,521.5z"/>
<path opacity="0.1" enable-background="new    " d="M626.2,518.6c0,0-4.5,1.2-2.2,5.7c1.1,2,1.6,4.3,1.5,6.5c-0.1,1.5,1,2.9,2.5,3.2
	c1.6,0.3,3.9-0.1,6.8-2.7c0,0,5.8-2.2,5.4-5s-10-9.2-10-9.2L626.2,518.6z"/>
<path fill="#F6C6CD" d="M626.2,518.4c0,0-4.5,1.2-2.2,5.7c1.1,2,1.6,4.3,1.5,6.5c-0.1,1.5,1,2.9,2.5,3.2c1.6,0.3,3.9-0.1,6.8-2.7
	c0,0,5.8-2.2,5.4-5s-10-9.2-10-9.2L626.2,518.4z"/>
<circle opacity="0.1" enable-background="new    " cx="632.3" cy="525.6" r="3"/>
<circle fill="#CD939C" cx="632.3" cy="525.4" r="3"/>
<path opacity="0.1" enable-background="new    " d="M596,496.9c0,0-28.3-3.5-29.7-2.4c0,0-15,2.6-15,30.6c0,0-0.3,16.1,30.6,23.8
	c0,0,24.8,2.2,32.9-7.7s4.1-26.4,4.1-26.4s3.2-12.6,18.2-3.9c0,0,1.6-5-5.2-7.4S596,496.9,596,496.9L596,496.9z"/>
<path fill="#CD939C" d="M596,496.4c0,0-28.3-3.5-29.7-2.4c0,0-15,2.6-15,30.5c0,0-0.3,16.1,30.6,23.8c0,0,24.8,2.2,32.9-7.7
	s4.1-26.4,4.1-26.4s3.2-12.6,18.2-3.9c0,0,1.6-5-5.2-7.4S596,496.4,596,496.4L596,496.4z"/>
<path opacity="0.1" enable-background="new    " d="M596.9,496.5c0,0-27.5-3.3-28.9-2.3c0,0-14.6,2.4-14.6,28.8
	c0,0-0.3,15.1,29.8,22.4c0,0,24.1,2,32-7.2s4-24.8,4-24.8s3.1-11.9,17.7-3.7c0,0,1.5-4.7-5-7S596.9,496.4,596.9,496.5L596.9,496.5z"
	/>
<path fill="#F6C6CD" d="M596.9,496.2c0,0-27.5-3.3-28.9-2.3c0,0-14.6,2.4-14.6,28.8c0,0-0.3,15.1,29.8,22.4c0,0,24.1,2,32-7.2
	s4-24.8,4-24.8s3.1-11.9,17.7-3.7c0,0,1.5-4.7-5-7S596.9,496.2,596.9,496.2L596.9,496.2z"/>
<path fill="#CD939C" d="M583.1,539.5c0,0-7.5-3.4-7.8,3c0,0-2.5,6.5-2.7,7.2s0.4,7.3,6.2,7.1c3.3,0,6.3-1.9,7.8-4.8
	c0,0,1.3-7.1,3-8.6s-1.3-3-2.4-3C585.8,540.2,584.4,539.9,583.1,539.5L583.1,539.5z"/>
<path opacity="0.1" enable-background="new    " d="M582.1,538.5c0,0-7.5-3.4-7.8,3c0,0-2.5,6.5-2.7,7.2s0.4,7.3,6.2,7.1
	c3.3,0,6.3-1.9,7.8-4.8c0,0,1.3-7.1,3-8.6s-1.3-3-2.4-3C584.8,539.2,583.4,538.9,582.1,538.5L582.1,538.5z"/>
<path fill="#F6C6CD" d="M582.3,538.3c0,0-7.5-3.4-7.8,3c0,0-2.5,6.5-2.7,7.2s0.4,7.3,6.2,7.1c3.3,0,6.3-1.9,7.8-4.8
	c0,0,1.3-7.1,3-8.6s-1.3-3-2.4-3C585,539,583.7,538.7,582.3,538.3L582.3,538.3z"/>
<circle opacity="0.1" enable-background="new    " cx="578.6" cy="550.8" r="2.7"/>
<circle fill="#CD939C" cx="578.6" cy="550.6" r="2.7"/>
<path fill="#CD939C" d="M603.9,565.4c0,0-29.5-3.4-50-14c0,0-16.2,40.9-3.3,46.6s39.8,14.9,47.3,11.7c0,0,4.5,0.7,3-14.1
	S603.9,565.4,603.9,565.4L603.9,565.4z"/>
<path opacity="0.1" enable-background="new    " d="M602.1,568.3c0,0-29.5-3.2-50-13.2c0,0-16.2,38.4-3.3,43.8s39.8,14,47.3,11
	c0,0,4.5,0.7,3-13.3S602.1,568.3,602.1,568.3L602.1,568.3z"/>
<path fill="#F6C6CD" d="M602.6,568c0,0-29.4-3.2-50-13.2c0,0-16.2,38.4-3.3,43.8s39.8,14,47.3,11c0,0,4.5,0.7,3-13.3
	S602.6,568,602.6,568L602.6,568z"/>
<path opacity="0.1" enable-background="new    " d="M631.8,502.2c-6.6-2.3-35-6.2-35-6.2s-27.5-3.3-28.9-2.3c0,0-7.1,1.2-11.4,10.9
	c4.3-8.7,10.9-9.8,10.9-9.8c1.4-1,28.9,2.3,28.9,2.3s28.4,3.9,35,6.2c4.4,1.5,5.2,4.1,5.2,5.7l0.3,0.2
	C636.9,509.2,638.4,504.5,631.8,502.2z M619.4,512.1c-0.3,0.6-0.6,1.2-0.8,1.8c0,0,2.8,11.1-1.2,20.2c4.6-9.2,1.6-21.3,1.6-21.3
	S619.3,512.6,619.4,512.1L619.4,512.1z"/>
</svg>
