<?xml version="1.0" encoding="utf-8"?>
<!-- Generator: Adobe Illustrator 22.1.0, SVG Export Plug-In . SVG Version: 6.00 Build 0)  -->
<svg version="1.1" id="图层_1" xmlns="http://www.w3.org/2000/svg" xmlns:xlink="http://www.w3.org/1999/xlink" x="0px" y="0px"
	 viewBox="0 0 1117.5 823.9" enable-background="new 0 0 1117.5 823.9" xml:space="preserve">
<path opacity="0.1" enable-background="new    " d="M393.7,332.5h-19.3c5.3,0,9.6,3.9,9.6,8.7s-4.3,8.7-9.6,8.7H263
	c-5.3,0-9.6-3.9-9.6-8.7s4.3-8.7,9.6-8.7h19.3c-5.3,0-9.6-3.9-9.6-8.7s4.3-8.7,9.6-8.7h-13.8c-5.3,0-9.6-3.9-9.6-8.7
	s4.3-8.7,9.6-8.7H380c5.3,0,9.6,3.9,9.6,8.7s-4.3,8.7-9.6,8.7h13.8c5.3,0,9.6,3.9,9.6,8.7S399,332.5,393.7,332.5L393.7,332.5z
	 M223.7,201.3h-19.3c5.3,0,9.6,3.9,9.6,8.7s-4.3,8.7-9.6,8.7H93c-5.3,0-9.6-3.9-9.6-8.7s4.3-8.7,9.6-8.7h19.3
	c-5.3,0-9.6-3.9-9.6-8.7s4.3-8.7,9.6-8.7H98.5c-5.3,0-9.6-3.9-9.6-8.7s4.3-8.7,9.6-8.7H210c5.3,0,9.6,3.9,9.6,8.7s-4.3,8.7-9.6,8.7
	h13.8c5.3,0,9.6,3.9,9.6,8.7S229,201.3,223.7,201.3L223.7,201.3z M637.3,632c87.6,0,158.5,11.3,158.5,25.3s-71,25.3-158.5,25.3
	s-158.5-11.3-158.5-25.3S549.7,632,637.3,632z M366.1,790.1c87.6,0,158.5,5.6,158.5,12.5s-71,12.5-158.5,12.5s-158.5-5.6-158.5-12.5
	S278.6,790.1,366.1,790.1z M925.8,794.4c19.2,0,34.7,2.3,34.7,5.1s-15.5,5.1-34.7,5.1s-34.7-2.3-34.7-5.1S906.6,794.4,925.8,794.4z
	 M860.7,750.6c14,0,25.3,1.2,25.3,2.6s-11.3,2.6-25.3,2.6s-25.3-1.2-25.3-2.6S846.7,750.6,860.7,750.6z M713.6,729.4
	c12.7,0,23,1.2,23,2.6s-10.3,2.6-23,2.6s-23-1.2-23-2.6S700.9,729.4,713.6,729.4z M932.8,700.5c12.7,0,23,1.2,23,2.6
	s-10.3,2.6-23,2.6s-23-1.2-23-2.6S920.1,700.5,932.8,700.5z M670.8,793.4c19.2,0,34.7,2.3,34.7,5.1s-15.5,5.1-34.7,5.1
	s-34.7-2.3-34.7-5.1S651.6,793.4,670.8,793.4z M201.7,605.2c111.4,0,201.7,5.6,201.7,12.5s-90.3,12.5-201.7,12.5S0,624.5,0,617.6
	S90.3,605.2,201.7,605.2z M807.2,602c46.3,0,83.9,5.6,83.9,12.5S853.5,627,807.2,627s-83.9-5.6-83.9-12.5S760.9,602,807.2,602z
	 M16.1,389c17.4,67.1,54.1,125.2,112.2,153.3c120.7,58.5,392.9,28.3,596.1-6.3c105.1-17.9,197.4-67.3,264.5-136.8L16.1,389z
	 M1081.5,73H970c-5.3,0-9.6-3.9-9.6-8.7s4.3-8.7,9.6-8.7h19.3c-5.3,0-9.6-3.9-9.6-8.7s4.3-8.7,9.6-8.7h-13.8c-5.3,0-9.6-3.9-9.6-8.7
	s4.3-8.7,9.6-8.7h58.2c-12.9-5.4-28-9.3-45.4-11.3C829.7-9.1,773,3.2,753,15.7c-24.9,15.8-52.6,26.8-81.5,32.3
	c-97.9,18.3-280.9,40.2-446.8-7C142.2,17.6,80.9,57.3,44.2,123.6h1056.7c-1.4-19.3-5.5-37.1-13.1-52.7
	C1085.9,72.3,1083.7,73.1,1081.5,73L1081.5,73z M6.7,248.9c-4.3,39-2.8,78.5,4.3,117.1l978.7,32.4c26.9-27.9,49.8-59.5,68-93.8
	L6.7,248.9z M1100.9,124.2L32.4,147.7c-13,30.2-21.6,64.4-25.6,99.8h1075.3c7-20.7,12.2-42,15.5-63.6
	C1100.9,163.1,1102.2,142.9,1100.9,124.2z M926.1,602.6c11.3,0,20.5,1.3,20.5,2.8s-9.2,2.8-20.5,2.8s-20.5-1.3-20.5-2.8
	S914.7,602.6,926.1,602.6z M1004.5,610.5c11.3,0,20.5,1.3,20.5,2.8s-9.2,2.8-20.5,2.8s-20.5-1.3-20.5-2.8S993.2,610.5,1004.5,610.5z
	 M1097,599.8c11.3,0,20.5,1.3,20.5,2.8s-9.2,2.8-20.5,2.8s-20.5-1.3-20.5-2.8S1085.7,599.8,1097,599.8z M973.1,634
	c8,0,14.6,0.9,14.6,2s-6.5,2-14.6,2s-14.6-0.9-14.6-2S965.1,634,973.1,634z M1054.6,632c8,0,14.6,0.9,14.6,2s-6.5,2-14.6,2
	s-14.6-0.9-14.6-2S1046.5,632,1054.6,632z M49,811.4c20.1,0,36.4,2.8,36.4,6.2S69,823.9,49,823.9s-36.4-2.8-36.4-6.2
	S28.9,811.4,49,811.4z M166.1,764.2c15,0,27.2,2.1,27.2,4.7s-12.2,4.7-27.2,4.7s-27.2-2.1-27.2-4.7S151.1,764.2,166.1,764.2z
	 M16.1,630.9c8.4,0,15.2,1.2,15.2,2.6s-6.8,2.6-15.2,2.6s-15.2-1.2-15.2-2.6S7.7,630.9,16.1,630.9z"/>
<path fill="#B77B7F" d="M319.8,608.3l4,8.5v-63.2h-4V608.3z M62.1,608.3l-4,8.5v-63.2h4V608.3z"/>
<path opacity="0.1" enable-background="new    " d="M319.8,608.3l4,8.5v-63.2h-4V608.3z M62.1,608.3l-4,8.5v-63.2h4V608.3z"/>
<path fill="#B77B7F" d="M78.2,437.4h11.1v77.7H78.2V437.4z M300.6,437.4h11v77.7h-11V437.4z"/>
<path opacity="0.1" enable-background="new    " d="M78.2,437.4h11.1v9.1H78.2V437.4z M300.6,437.4h11v9.1h-11V437.4z"/>
<path fill="#DDA2A6" d="M61.2,434.1h266.2v11.6H61.2V434.1z"/>
<path opacity="0.1" enable-background="new    " d="M78.2,450.6h11.1v11.6H78.2V450.6z M300.6,450.6h11v11.6h-11V450.6z"/>
<path fill="#DDA2A6" d="M61.2,449.9h266.2v11.6H61.2V449.9z"/>
<path opacity="0.1" enable-background="new    " d="M78.2,466.4h11.1V478H78.2V466.4z M300.6,466.4h11V478h-11V466.4z"/>
<path fill="#DDA2A6" d="M61.2,465.6h266.2v11.6H61.2V465.6z"/>
<path opacity="0.1" enable-background="new    " d="M78.2,482.1h11.1v11.6H78.2V482.1z M300.6,482.1h11v11.6h-11V482.1z"/>
<path fill="#DDA2A6" d="M61.2,481.4h266.2V493H61.2V481.4z"/>
<path opacity="0.1" enable-background="new    " d="M78.2,497.9h11.1v11.6H78.2V497.9z M300.6,497.9h11v11.6h-11V497.9z"/>
<path fill="#DDA2A6" d="M61.2,497.2h266.2v11.6H61.2V497.2z"/>
<g opacity="0.1">
	<circle cx="83.8" cy="440.6" r="1.6"/>
	<circle cx="83.8" cy="456.4" r="1.6"/>
	<circle cx="83.8" cy="472.2" r="1.6"/>
	<circle cx="83.8" cy="487.9" r="1.6"/>
	<circle cx="83.8" cy="503.7" r="1.6"/>
	<circle cx="306.1" cy="440.6" r="1.6"/>
	<circle cx="306.1" cy="456.4" r="1.6"/>
	<circle cx="306.1" cy="472.2" r="1.6"/>
	<circle cx="306.1" cy="487.9" r="1.6"/>
	<circle cx="306.1" cy="503.7" r="1.6"/>
</g>
<circle fill="#918C9E" cx="83.8" cy="439.9" r="1.6"/>
<circle fill="#918C9E" cx="83.8" cy="455.7" r="1.6"/>
<circle fill="#918C9E" cx="83.8" cy="471.4" r="1.6"/>
<circle fill="#918C9E" cx="83.8" cy="487.2" r="1.6"/>
<circle fill="#918C9E" cx="83.8" cy="503" r="1.6"/>
<circle fill="#918C9E" cx="306.1" cy="439.9" r="1.6"/>
<circle fill="#918C9E" cx="306.1" cy="455.7" r="1.6"/>
<circle fill="#918C9E" cx="306.1" cy="471.4" r="1.6"/>
<path fill="#DDA2A6" d="M333.5,520H54.8l6.3-7.8h266.2L333.5,520z"/>
<path opacity="0.1" enable-background="new    " d="M333.5,520H54.8l6.3-7.8h266.2L333.5,520z"/>
<path fill="#DDA2A6" d="M333.5,519.6H54.8l6.3-7.8h266.2L333.5,519.6z M343.3,532.1l-299-0.7l10.2-10.7h280.1L343.3,532.1z"/>
<path opacity="0.1" enable-background="new    " d="M343.3,532.1l-299-0.7l10.2-10.7h280.1L343.3,532.1z"/>
<path fill="#DDA2A6" d="M343.3,531.8l-299-0.7l10.2-10.7h280.1L343.3,531.8z M352.8,543.2H33.6l9.8-11l300.6,0.4L352.8,543.2z"/>
<path fill="#B77B7F" d="M82.1,553.5v22.8l-3.9,7.6l-1.3-27.2l-0.2-3.3H82.1z M306,553.5l-0.2,3.3l-1.3,27.2l-3.9-7.6v-22.8H306z"/>
<path opacity="0.1" enable-background="new    " d="M82.1,553.5v22.8l-3.9,7.6l-1.3-27.2l-0.2-3.3H82.1z M306,553.5l-0.2,3.3
	l-1.3,27.2l-3.9-7.6v-22.8H306z"/>
<path fill="#B77B7F" d="M68.1,551.7h10.2V584H68.1V551.7z M304.5,551.7h10.1V584h-10.1V551.7z"/>
<path opacity="0.1" enable-background="new    " d="M78.2,553.5h3.9v3.3H68.1v-5.1h10.2V553.5z M314.7,551.7v5.1h-14.1v-3.3h3.9
	v-1.8H314.7z"/>
<path fill="#B77B7F" d="M54.8,548.1h272.5v8H54.8V548.1z"/>
<path fill="#B77B7F" d="M46.5,546.6h11.6v70.1H46.5L46.5,546.6z M335.4,616.8h-11.6v-70.1h11.6V616.8z"/>
<path opacity="0.1" enable-background="new    " d="M54.8,548.1h272.5v0.7H54.8V548.1z"/>
<path fill="#DDA2A6" d="M33.6,543.2h319.1v4.9H33.6V543.2z"/>
<path opacity="0.1" fill="#FFFFFF" enable-background="new    " d="M33.6,543.2h319.1v4.9H33.6V543.2z"/>
<circle opacity="0.1" enable-background="new    " cx="51.6" cy="552.4" r="1.6"/>
<circle fill="#918C9E" cx="51.6" cy="551.7" r="1.6"/>
<g>
	<path d="M1098.3,573.7c0,0,2.8,3.6-1.3,9s-7.3,10-6,13.4c0,0,6.1-10.1,11-10.2S1103.7,579.8,1098.3,573.7z
		 M1083.8,573.7c0,0-2.8,3.6,1.3,9s7.3,10,6,13.4c0,0-6-10.1-11-10.2S1078.4,579.8,1083.8,573.7z"/>
	<path opacity="0.1" enable-background="new    " d="M1098.3,573.7c0.2,0.3,0.4,0.7,0.6,1.1c4.8,5.7,7.4,10.9,2.8,11.1
		c-4.3,0.1-9.5,7.8-10.7,9.8c0,0.2,0.1,0.3,0.2,0.4c0,0,6.1-10.1,11-10.2S1103.7,579.8,1098.3,573.7L1098.3,573.7z M1083.8,573.7
		c-0.2,0.3-0.4,0.7-0.6,1.1c-4.8,5.7-7.4,10.9-2.8,11.1c4.3,0.1,9.5,7.8,10.7,9.8c0,0.2-0.1,0.3-0.2,0.4c0,0-6-10.1-11-10.2
		S1078.4,579.8,1083.8,573.7L1083.8,573.7z"/>
	<path fill="#FFD037" d="M1103.4,578.3c0,1.3-0.1,2.3-0.3,2.3s-0.3-1-0.3-2.3s0.2-0.7,0.3-0.7S1103.4,577,1103.4,578.3z
		 M1105.2,579.8c-1.1,0.6-2.1,1-2.2,0.8s0.8-0.8,1.9-1.4s0.7-0.2,0.8,0S1106.3,579.2,1105.2,579.8z M1078.7,578.3
		c0,1.3,0.1,2.3,0.3,2.3s0.3-1,0.3-2.3s-0.2-0.7-0.3-0.7S1078.7,577,1078.7,578.3z M1077,579.8c1.1,0.6,2.1,1,2.2,0.8
		s-0.7-0.8-1.8-1.4s-0.7-0.2-0.8,0S1075.8,579.2,1077,579.8z"/>
	<path fill="#A8A8A8" d="M1079.6,595.6c0,0,7.7-0.2,10-1.9s11.8-3.6,12.4-1s11.5,13.1,2.9,13.2s-20.1-1.3-22.4-2.8
		S1079.6,595.6,1079.6,595.6z"/>
</g>
<path opacity="0.2" enable-background="new    " d="M1105,605.1c-8.7,0.1-20.1-1.3-22.4-2.8c-1.8-1.1-2.5-4.9-2.7-6.7h-0.3
	c0,0,0.5,6.2,2.8,7.6s13.8,2.8,22.4,2.8c2.5,0,3.4-0.9,3.3-2.2C1107.8,604.6,1106.8,605.1,1105,605.1z"/>
<linearGradient id="SVGID_1_" gradientUnits="userSpaceOnUse" x1="748.6758" y1="169.26" x2="748.6758" y2="394.4518" gradientTransform="matrix(-1 0 0 -1 924.07 785.83)">
	<stop  offset="0" style="stop-color:#808080;stop-opacity:0.25"/>
	<stop  offset="0.54" style="stop-color:#808080;stop-opacity:0.12"/>
	<stop  offset="1" style="stop-color:#808080;stop-opacity:0.1"/>
</linearGradient>
<path fill="url(#SVGID_1_)" d="M96,529.1c0.5,2,11.1,3,17,3.3c-1.3,1.1-2.5,2.3-1.7,4.6c1.4,4.3,0.5,19,0.5,19s14.9-1.8,21.2-7.7
	l5.5,1.2c-2.1,3.4-3.9,7-5.5,10.7c-4.1,9.6-7.6,16.9-9,19.9l-0.3,0.6l-1.4-0.6c0,0-3.8,7.9-5.1,10.4c-1.2,2.1-2.5,4.1-4,6.1
	l-2.8,5.5c0,0-2.7,5.5-2.8,8.7s6.6,3.9,12.8,5.2s3.6-5.7,3.3-8.4s4.3-10.4,4.3-10.4s2.7-3.3,2.6-4.7s2-4.2,2-4.2s2.6-2.9,1.5-3
	c-0.2,0-0.5-0.1-0.7-0.2l0.5-0.5c3.1-3.7,11.4-13,14.6-14.9c3.9-2.3,10.8-10.3,10.1-12.2s7.7-13.7,7.7-13.7c1.8-1.6,3.4-3.4,4.7-5.5
	l0.2-0.4c0.6,1.9,1.3,3.2,2.2,3.2c1.2,0,2.3-1.4,3.2-3.4l0.3,0.3c3,3,8.7,8.7,9.6,9.2c1.2,0.7,3.2,3.9,5.6,7.2
	c1.4,2.1,2.7,4.2,3.8,6.4v3.1c0.2,4.5,6.8,10.1,6.8,10.1s2.4,7.6,4.7,8.2s5.7,6.5,10.6,5.4c1-0.2,1.9-1.4,2.6-3.1l0.7,0.7l0.9,0.9
	l-0.7,0.3c0,0,6.1,9.2,6.3,10.6c0.6,1.7,1.3,3.4,2.1,5c1.5,2.1,2.9,4.4,4.1,6.8c1,2.5,6.3,7.9,6.3,7.9s8.3-1.8,12.5-5.1
	c4.2-3.3,0.9-6.1-2.1-7.3s-4.7-5.6-4.7-5.6c-1.2-1.4-2.2-2.8-3.2-4.3c-0.1-0.6-2.7-1.1-2.8-1.9s-3.5-6.5-3.5-6.5s-4.1-5.2-4.6-4.8
	l-0.2-0.7l-0.2-0.4c-0.8-1.6-3.9-7.4-8-14.7c0.1-1.2,0-2.5-0.3-3.7c-0.9-2.2-2.2-17.9-1.9-20.5s-5.6-8.5-8.8-9.9
	c-2.4-1-3.7-7.3-4.2-10.5h0.3c2.1,0,20.2-0.8,20.8-3.5s-18.5-3.3-19.9-3.3c-0.4-1.2-1.5-4.6-3-5.5c-1.8-1.1-2.5-5.3-2.5-5.3
	s-1.3-3.2-0.6-5.1s-2.6-5.3-2.6-5.3c0-1.3,0-2.7,0.1-4c0.2-2.3-1.8-2.6-1.8-2.8c-0.1-1.2-0.1-2.4,0-3.6c0.1-1.1-2.1-2.3-1.9-3.6
	c0.1-2.1,0.1-4.2,0-6.4c-0.8-1-1.2-2.3-1-3.6c0.2-2.5-2.1-4.7-2.1-4.7l-0.4-7l-3-9.6c-3-9.6-1.1-5.9-5.3-10.3
	c-1.9-1.9-4.9-2.9-7.7-3.4c0-0.6-0.1-1.1-0.2-1.7c-0.5-3.9-1.4-8.1,0.5-11.5c1.1-2.1,3.2-3.8,3.2-6.1c0-0.7-0.1-1.3-0.4-2
	c-1.1-2.9-5.1-4.9-5.6-8.1l0.1,0.3v-0.2c0-0.5-0.1-1.1-0.3-1.6c0-0.1-0.1-0.2-0.1-0.3c-0.2-0.3-0.5-0.5-0.8-0.7
	c-0.5-0.3-1.2-0.7-1.9-1.1c0.5-0.7,0.8-1.5,0.9-2.4c0-0.3,0-0.6-0.1-0.9c-0.2-0.9-0.7-1.7-1.4-2.4c-0.6-0.7-1.4-1.2-2.2-1.6
	c0.1,0.1,0.2,0.2,0.3,0.3c-0.4-0.2-0.9-0.4-1.4-0.5c-0.8-0.1-1.7-0.1-2.5-0.1c-1.4-0.1-2.8-0.4-4.1-0.8c-5-1.2-10.5-1.7-15,0.7
	c-3.6,2-6,5.5-7.9,9.1c-0.8,1.4-1.3,2.9-1.5,4.5c0.1,1.4,0.4,2.9,0.8,4.2c0.1,0.3,0.1,0.6,0,0.9c-0.2,0.7-1.1,0.9-1.8,1.2
	c-1.3,0.6-2.2,1.7-2.7,3c-0.4,1.3-0.7,2.6-0.8,4c-0.2,0.9-0.1,1.8,0.2,2.6c0.6,1.4,2.2,2.1,3.6,2.8c1.6,0.7,3,1.7,4.2,3
	c-3.1,2.3-6,4.8-8.6,7.6c-4,1.1-8.4,2.7-9.4,4.1c-2,2.9-3,1.6-3.3,11.6s-1.4,13.6-1.4,13.6v14c0,0,1.4,9.2,0,11.7
	s-1.2,12.7-1.2,12.7s2,9.7-1.2,12.9s-3.3,9-3.3,9l0.3,0.1C107.3,526.2,95.5,527.1,96,529.1L96,529.1z M129.8,512.9
	c1.2-3,3.6-11.3,3.6-11.3s1.3-6.2,0-7.4s1.9-9.6,1.9-9.6c0.9,1.7,1.3,3.7,1.2,5.6c-0.3,3.3,0,10.3,0,10.3s-2.1,6.8-1.8,10
	c0.3,3.2-5.2,6.8-4.4,8.1c0.6,1.2,1,2.4,1.3,3.7c0,0-0.9,0-2,0.1C129.3,518.7,129.1,514.7,129.8,512.9L129.8,512.9z"/>
<path fill="#EFB7B9" d="M208.4,515.4c0,0,20,0.7,19.4,3.3s-18.2,3.4-20.2,3.4s-5-3.8-5-3.8L208.4,515.4z"/>
<path fill="#67647E" d="M196,516.9h-11.5v-10.6H196V516.9z"/>
<path opacity="0.12" enable-background="new    " d="M196,516.9h-11.5v-10.6H196V516.9z"/>
<path fill="#67647E" d="M202.1,517.3l10.6,21.4l-13.4,4.4l-10.9-9.3l-5.1-9.9l-10.4,0.8l-11.1,5.5l-9,5.5l-5.4,10.1l-7.8,4.4
	l-16.7-3.6l-2.4-11.3l13.6-9.1l4.9-7.5l20-2.9l5.8-8.6l20,4.8L202.1,517.3L202.1,517.3z"/>
<path opacity="0.12" enable-background="new    " d="M202.1,517.5l10.8,23.3l-13.7,2.4l-10.9-9.3l-5.1-9.9l-10.4,0.8l-11.1,5.5
	l-9,5.5l-5.4,10.2l-7.8,4.4l-16.7-3.6l-2.4-11.3l13.6-9.1l4.9-7.5l20-2.9l5.8-8.6l20,4.8L202.1,517.5L202.1,517.5z"/>
<path fill="#E3787D" d="M174.3,404.9c0.3,0.2,0.6,0.4,0.8,0.7c0.2,0.5,0.3,1,0.3,1.6c0.4,3.9,5.8,5.9,5.7,9.8c-0.1,2.3-2.1,4-3.2,6
	c-1.8,3.4-1,7.5-0.5,11.3c0.4,2.9,0.4,6.3-1.8,8.2c-1,0.6-2,1.3-2.9,2.1c-1.7,1.8-1.3,4.7-2.4,6.8c-0.1,0.2-0.3,0.4-0.5,0.6
	c-0.2,0.2-0.4,0.3-0.6,0.3c-2.2,0.6-4.6-0.2-6.1-2c-1.4-1.8-2.1-4-2.1-6.3c0-2.3,0.2-4.5,0.5-6.8c0.4-4.3,0.3-8.7,0.6-13
	c0-1.4,0.3-2.7,0.9-4c0.3-0.6,0.8-1.2,1.1-1.9c0.4-0.9,0.6-1.9,0.7-2.9l1.2-7.6c0.2-1.5,0.4-4.3,2.2-4.9S172.8,404,174.3,404.9
	L174.3,404.9z"/>
<path fill="#E3787D" d="M174.3,404.9c0.3,0.2,0.6,0.4,0.8,0.7c0.2,0.5,0.3,1,0.3,1.6c0.4,3.9,5.8,5.9,5.7,9.8c-0.1,2.3-2.1,4-3.2,6
	c-1.8,3.4-1,7.5-0.5,11.3c0.4,2.9,0.4,6.3-1.8,8.2c-1,0.6-2,1.3-2.9,2.1c-1.7,1.8-1.3,4.7-2.4,6.8c-0.1,0.2-0.3,0.4-0.5,0.6
	c-0.2,0.2-0.4,0.3-0.6,0.3c-2.2,0.6-4.6-0.2-6.1-2c-1.4-1.8-2.1-4-2.1-6.3c0-2.3,0.2-4.5,0.5-6.8c0.4-4.3,0.3-8.7,0.6-13
	c0-1.4,0.3-2.7,0.9-4c0.3-0.6,0.8-1.2,1.1-1.9c0.4-0.9,0.6-1.9,0.7-2.9l1.2-7.6c0.2-1.5,0.4-4.3,2.2-4.9S172.8,404,174.3,404.9
	L174.3,404.9z"/>
<path opacity="0.1" enable-background="new    " d="M175,406v-0.3c0.1,0.1,0.2,0.2,0.2,0.3c0.2,0.5,0.3,1,0.3,1.6v0.2
	C175.2,407.2,175.1,406.6,175,406L175,406z M162.7,449.2c1.4,1.8,3.8,2.6,6.1,2c0.2-0.1,0.5-0.2,0.7-0.3c0.2-0.2,0.3-0.4,0.4-0.6
	c1.1-2.2,0.8-5.1,2.4-6.8c0.9-0.7,1.9-1.4,2.9-2.1c2.2-1.9,2.2-5.3,1.8-8.2c-0.5-3.8-1.3-7.9,0.5-11.3c1.1-2,3.1-3.7,3.1-6
	c0-0.2,0-0.4,0-0.6c0.4,0.7,0.6,1.4,0.6,2.2c-0.1,2.3-2.1,4-3.1,6c-1.8,3.4-1,7.5-0.5,11.3c0.4,2.9,0.4,6.3-1.8,8.2
	c-0.9,0.8-2.1,1.2-2.9,2.1c-1.7,1.8-1.3,4.7-2.4,6.8c-0.1,0.2-0.3,0.5-0.4,0.6c-0.2,0.1-0.4,0.3-0.6,0.3c-2.2,0.6-4.6-0.2-6.1-2
	c-0.8-1-1.4-2.2-1.7-3.5C161.9,447.9,162.3,448.6,162.7,449.2L162.7,449.2z"/>
<path fill="#EFB7B9" d="M117.6,527.1c0,0-20,0.7-19.3,3.3s18.2,3.4,20.2,3.4s5-3.8,5-3.8L117.6,527.1z"/>
<path fill="#67647E" d="M171.4,435.9c0,0,9.8-0.6,13.8,3.7s2.3,0.6,5.1,10.1l2.9,9.5l0.4,6.9c0,0,2.3,2.2,2.1,4.7
	c-0.2,1.3,0.2,2.6,1,3.6c0.1,2.1,0.1,4.2,0,6.3c-0.3,1.2,1.9,2.4,1.8,3.5c-0.1,1.2-0.1,2.4,0,3.6c0,0.2,1.9,0.5,1.7,2.8
	c-0.1,1.3-0.2,2.7-0.1,4c0,0,3.2,3.4,2.6,5.3s0.6,5,0.6,5s0.7,4.1,2.4,5.2s3,5.9,3,5.9s-1.6,4.2-1.6,4.3s1.2,10.9,4.3,12.2
	s8.8,7.2,8.6,9.7s1,18.1,1.9,20.2s-0.1,24.4-4.9,25.5s-8.1-4.7-10.3-5.3s-4.5-8.1-4.5-8.1s-6.5-5.5-6.5-9.9s-0.3-10-0.3-10
	s7.6-12.8,9.1-13.8s5.8-6.4,2.5-11.1c-2.2-3.3-4.1-6.9-5.4-10.6l-3.6-3.2l-3-11.5l-5.5-17.9l-5.2-17.6l-4.4-18.5l-11.6-8.1
	C168,442.3,165.9,436.9,171.4,435.9L171.4,435.9z"/>
<path fill="#EFB7B9" d="M175,537.2l1.8,1.9c2.9,3,8.5,8.5,9.4,9c1.2,0.7,3.1,3.8,5.5,7.1s5.6,10.3,5.6,10.3s8,11.3,12.7,12.5
	c3.2,0.8,7.6,5,10,7.6c1.2,1.3,1.9,2.1,1.9,2.1l9.2-3.6l-1.2-3.2l-0.2-0.4c-0.9-1.7-4.5-8.8-9.4-17.1c-4-6.6-8.7-12.7-14-18.4
	c0,0-7.4-6.8-7.6-9.8c-0.1-1.7-0.1-3.4,0.1-5.1c0.1-2.2,0.4-4.1,0.4-4.1l-11.2-7.3l-8.6,3.6L175,537.2z M124.8,581.9l9.1,4.5
	c0,0,0.4-0.5,1.2-1.4c3.1-3.6,11.1-12.9,14.2-14.7c3.8-2.3,10.5-10.1,9.8-12s7.5-13.5,7.5-13.5c1.8-1.6,3.3-3.4,4.6-5.4
	c0.8-1.3,1.1-2.9,0.9-4.4c-1.1-4.3-4.7-13.7-4.7-13.7l-1.9-3.1c-0.1-0.2-6.4-2.4-6.4-2.4l-6.2-0.6l-7.8,6.7c0,0,0.3,1.6,0.7,3.8
	c0.9,4.8,2.6,12.7,3.4,13.2c1.1,0.7-5.3,6-5.3,6s-4.3,3.7-9.6,16.1c-4,9.4-7.4,16.7-8.7,19.6L124.8,581.9z"/>
<path opacity="0.1" enable-background="new    " d="M179.5,522.3l-4.5,14.9l1.8,1.9c1.2-3.2,2.1-6.5,2.9-9.8
	c1.2-4.9,13.5-3.6,15.6-3.6c0.9,0,2.3,2.2,3.6,4.4c0.1-2.2,0.4-4.1,0.4-4.1l-11.2-7.3L179.5,522.3z M145,521.9c0,0,0.3,1.6,0.7,3.8
	c0.9-2.1,2.3-4,4-5.5c6-5.3,13.9-0.8,13.9-0.8c0.8,0.3,1.2,1.2,2.1,2.2c2.6,3.1,4.1,6.9,4.3,10.9c0.1,2.3,0.5,4.6,1.1,6.9
	c0.8-1.3,1.1-2.9,0.9-4.4c-1.1-4.3-4.7-13.7-4.7-13.7l-1.9-3.1c-0.1-0.2-6.4-2.4-6.4-2.4l-6.2-0.6L145,521.9z"/>
<path fill="#444053" d="M135.7,527.9c0.1,2.1,8,5.5,8,5.5s0-9,6-14.3s13.9-0.8,13.9-0.8c0.8,0.3,1.2,1.2,2.1,2.2
	c2.6,3.1,4.1,6.9,4.3,10.9c0.3,4.5,1.5,10.8,3.4,10.7c3-0.1,5-9,6.2-13.9s13.5-3.6,15.6-3.6s6.2,11.1,7.8,9.7s-1.7-12.1-1.7-12.1
	l-10.4-12.5l-2.2-2.6l-45.4,2.5l-2.2,3.5c-1.1,1.6-2.1,3.3-2.1,3.4S135.7,525.8,135.7,527.9L135.7,527.9z"/>
<path opacity="0.1" enable-background="new    " d="M181.6,514.3c-0.1,0.1-8.3,9.1-8.7,10.4c-0.3,1.5-0.6,3-0.8,4.6
	c-0.1-1.4-0.2-2.7-0.5-4.1c-0.3-0.9,1-3,1.9-3.7c1-0.7,2-1.5,2.8-2.5c0.2-0.5,1.3-6.1,1.3-6.1l3.5-0.8L181.6,514.3z M166,513.4
	c0,0,5.3,6.1,5.2,7S166,513.4,166,513.4z"/>
<path fill="#EFB7B9" d="M138.8,441.5l6.1,8.5l16.9,3.4c0,0,17.1-4.3,5.5-8.7c-1.1-0.4-2.1-1-2.8-1.9c-2.1-2.5-1.3-6.2,0.4-9.8
	c2.1-4,4.7-7.8,7.7-11.2c0,0-24-10.6-21.3,0.5c0.5,1.9,0.4,3.9-0.1,5.9c-1.4,5-6,9-9.1,11.2C141,440.2,139.9,440.9,138.8,441.5
	L138.8,441.5z"/>
<path opacity="0.1" enable-background="new    " d="M138.8,441.5l6.1,8.5l16.9,3.4c0,0,17.1-4.3,5.5-8.7c-1.1-0.4-2.1-1-2.8-1.9
	c-2.8,1.2-5.6,2.2-7.1,1.8c0,0-9.5-2.8-15.4-5.1C141,440.3,139.9,440.9,138.8,441.5z M141.2,513.6c2.3-0.7,4.7-1.3,7.1-1.8
	c2.4-0.4,4.7-0.6,5.7,0c2.4,1.5,8.2,5,10.3,5c1.2,0,2.2-0.6,2.7-1.7c3.5-0.4,7-0.4,10.4,0c2.7,0.5,9.2-2.8,13.2-5l0.5-0.3l-2.2-2.6
	l-45.3,2.5l-2.2,3.5L141.2,513.6z"/>
<path fill="#A36468" d="M142.9,501.2l-1.7,11.4c2.3-0.7,4.7-1.3,7.1-1.8c2.4-0.4,4.7-0.6,5.7,0c2.4,1.5,8.2,5,10.3,5
	c1.2,0,2.2-0.6,2.7-1.7c3.5-0.4,7-0.4,10.4,0c2.7,0.5,9.2-2.8,13.2-5c2-1.1,3.4-2,3.4-2l-2.6-9.1l-7.9-8.4l-1.2-12.1l-1.9-14
	l-2.9-8.5l-5.3-12.5l-0.9-2.2c0,0-1,0.6-2.5,1.4c-0.7,0.4-1.5,0.8-2.4,1.2c-3.3,1.6-7.3,3.2-9.1,2.7c0,0-8.4-2.5-14.4-4.7
	c-2.7-1-4.9-2-5.5-2.7c-0.1-0.1-0.1-0.2-0.1-0.3c0-0.2,0,0-0.1,0.3c-0.4,3.8-1.6,32.6-1.6,32.6L142.9,501.2z"/>
<path opacity="0.1" enable-background="new    " d="M135.7,470.9l7.2,30.2l-1.7,11.4c2.3-0.7,4.7-1.3,7.1-1.8
	c0.4-4.7,0.9-12.6-0.4-15.2c-1.8-3.9-2.8-16-2.8-16l-2.1-38.7l-0.2-3.7c-1.8,0.2-3.6,0.5-5.3,1l-0.2,0
	C137,442.1,135.7,470.9,135.7,470.9L135.7,470.9z M121.4,528.7c4.5,1.3,10.5,2.8,11.1,1.2c0.4-1.1,0.4-3.6,0.3-6.3
	c-2.2,0.2-5.4,0.6-6,1.8S123.3,527.5,121.4,528.7z"/>
<path fill="#67647E" d="M140.8,437.2c-0.4-0.3-14.3,2.8-16.3,5.6s-2.9,1.5-3.2,11.4s-1.4,13.5-1.4,13.5v13.8c0,0,1.4,9.1,0,11.5
	s-1.2,12.6-1.2,12.6s1.9,9.6-1.2,12.7s-3.2,8.8-3.2,8.8s15,5.4,16,2.8s-0.5-12.6,0.6-15.5s3.5-11.1,3.5-11.1s1.3-6.1,0-7.3
	s1.8-9.5,1.8-9.5c0.9,1.7,1.3,3.6,1.1,5.5c-0.3,3.2,0,10.1,0,10.1s-2.1,6.7-1.8,9.9c0.3,3.2-5,6.7-4.3,8c0.6,1.2,1,2.4,1.3,3.7
	c0,0-7.2,0.1-7.9,1.9s-6.7,2.7-7.2,5.2s-5.9,3.3-4.5,7.5s0.5,18.7,0.5,18.7s25.9-3.2,23.1-15s-16.1-6.5-16.1-6.5s10.6-6.3,16.8-5.5
	s8.6-15.4,8.6-15.4s1.8-15,0-18.8s-2.8-16-2.8-16L140.8,437.2z"/>
<path opacity="0.1" enable-background="new    " d="M129,520.9c0,0-0.6-1.2-5.2-0.5s-6.8-0.3-6.8-0.3S126.2,524.4,129,520.9z
	 M130.3,462c0.1,0.2-3.3,5.2-0.8,9.2s4.7,10.5,5.1,11.7s1.1,3.1,1.1,3.1"/>
<path opacity="5.000000e-02" enable-background="new    " d="M142.4,431c0,0-12,9-12,13.3c1,0.9,2.3,1.4,3.6,1.3c2.5,0,7-1.2,7.5-4
	s2.4,0,1.3,1.5s-1.7,2.2-1.7,2.2s-11.4,3.1-13.6,4.6s0.9,3.2,0.9,3.2s3.2,5.8,3,6.7s7.9,13.5,7.9,13.5s2.7,13.6,2.6,16.1
	s-0.3,8-0.3,8l5.2,7c0,0,1.3-21.8,0.4-24.7s-3.1-21.5-3.1-21.5s-2.6-11.3-1.5-12.5s1.4-5.3,1.4-5.3L142.4,431z"/>
<path fill="#67647E" d="M143.4,430.5c0,0-12,9-12,13.3c1,0.9,2.3,1.4,3.6,1.3c2.5,0,7-1.2,7.5-4s2.4,0,1.4,1.5s-1.7,2.2-1.7,2.2
	s-11.4,3.1-13.6,4.6s0.9,3.2,0.9,3.2s3.2,5.8,3,6.7s7.9,13.5,7.9,13.5s2.7,13.6,2.6,16.1s-0.3,8-0.3,8l4.1,7c0,0,2.3-21.8,1.4-24.7
	s-3.1-21.4-3.1-21.4s-2.6-11.3-1.5-12.6s1.4-5.3,1.4-5.3L143.4,430.5z"/>
<path opacity="0.12" enable-background="new    " d="M143.4,430.5c0,0-12,9-12,13.3c1,0.9,2.3,1.4,3.6,1.3c2.5,0,7-1.2,7.5-4
	s2.4,0,1.4,1.5s-1.7,2.2-1.7,2.2s-11.4,3.1-13.6,4.6s0.9,3.2,0.9,3.2s3.2,5.8,3,6.7s7.9,13.5,7.9,13.5s2.7,13.6,2.6,16.1
	s-0.3,8-0.3,8l4.1,7c0,0,2.3-21.8,1.4-24.7s-3.1-21.4-3.1-21.4s-2.6-11.3-1.5-12.6s1.4-5.3,1.4-5.3L143.4,430.5z"/>
<path opacity="0.1" enable-background="new    " d="M166.1,441.2c0.1,0.6,0.2,1.2,0.4,1.8c0.5,1.4,1.2,3.3,1.8,5.3
	c0.9,3,3.7,8.5,5.4,13.7s4.2,16.3,4.2,16.3s-0.5,10.2,2.9,12.8s7.2,12,7.2,12s1.2,3.1,2.6,6.1c2-1.1,3.4-2,3.4-2l-2.6-9.1l-7.9-8.4
	l-1.2-12.1l-1.9-14l-2.9-8.5l-5.3-12.5c-1.4-0.1-2.4-0.2-2.4-0.2s-0.5-0.3-1.1-0.6C167.7,441.2,166,440.4,166.1,441.2L166.1,441.2z"
	/>
<path opacity="5.000000e-02" enable-background="new    " d="M172,442.9c0,0,11.9,1,14.5,0.7s1.5,5.7,1.5,5.7s2.1,12.2,1.6,13.5
	s-2.9,10.9-1.4,13.2s6,14.3,6,14.3s1.5,5.3,2.8,10.6s4.3,15.5,5.1,16.4s7.3,12.7,6.6,14.5s-10.8-15.6-12.9-17.1s-5.8-11.3-5.8-11.3
	s-3.9-9.4-7.2-12s-2.9-12.8-2.9-12.8s-2.5-11.1-4.2-16.3s-4.5-10.7-5.4-13.7s-2.2-6-2.2-7.1S172,442.9,172,442.9L172,442.9z"/>
<path fill="#67647E" d="M171,442.4c0,0,11.9,1,14.5,0.7s1.5,5.7,1.5,5.7s2.1,12.2,1.6,13.5s-2.9,10.9-1.4,13.2s6,14.3,6,14.3
	s1.5,5.3,2.8,10.6s4.3,15.5,5.1,16.4s7.3,12.7,6.6,14.5s-10.8-15.6-12.9-17.1s-5.8-11.3-5.8-11.3s-3.8-9.4-7.2-12
	s-2.9-12.7-2.9-12.7s-2.5-11.1-4.2-16.3s-4.5-10.7-5.4-13.7s-2.2-6-2.2-7.1S171,442.4,171,442.4L171,442.4z"/>
<path opacity="0.12" enable-background="new    " d="M171,442.4c0,0,11.9,1,14.5,0.7s1.5,5.7,1.5,5.7s2.1,12.2,1.6,13.5
	s-2.9,10.9-1.4,13.2s6,14.3,6,14.3s1.5,5.3,2.8,10.6s4.3,15.5,5.1,16.4s7.3,12.7,6.6,14.5s-10.8-15.6-12.9-17.1s-5.8-11.3-5.8-11.3
	s-3.8-9.4-7.2-12s-2.9-12.7-2.9-12.7s-2.5-11.1-4.2-16.3s-4.5-10.7-5.4-13.7s-2.2-6-2.2-7.1S171,442.4,171,442.4L171,442.4z"/>
<path opacity="0.1" enable-background="new    " d="M175.6,474c0,0-1.5,7.4,1,10.9S176.3,475.6,175.6,474z M149.3,498.4
	c0,0,6.8,1.2,9,4.8S149.3,498.4,149.3,498.4z M149.3,505.7c0,0,8.6,2.8,7,3.7s-5.5-0.8-6.6-0.5S149.3,505.7,149.3,505.7z
	 M220.1,585.5c1.2,1.3,1.9,2.1,1.9,2.1l9.2-3.6l-1.2-3.2l-0.2-0.4h-0.1c-0.6,0.4-4.6,3-4.6,3L220.1,585.5z"/>
<path fill="#444053" d="M225.6,584.6c0,0,4.1-2.6,4.6-3s4.5,4.8,4.5,4.8c1.2,2.1,2.4,4.2,3.4,6.4c0.1,0.8,2.6,1.3,2.8,1.9
	c0.9,1.5,2,2.9,3.1,4.3c0,0,1.7,4.4,4.6,5.5s6.1,4,2.1,7.2s-12.1,5-12.1,5s-5.1-5.3-6.1-7.8c-1.1-2.3-2.5-4.6-4-6.7
	c-0.8-1.6-1.5-3.2-2.1-4.9c-0.3-1.3-6.1-10.4-6.1-10.4L225.6,584.6z"/>
<path opacity="0.1" enable-background="new    " d="M124.8,581.9l9.1,4.5c0,0,0.4-0.5,1.2-1.4c-1.5-0.7-3-1.4-4.4-2.2l-5.3-2.3
	L124.8,581.9z"/>
<path fill="#444053" d="M130.2,583.3c0,0,4.1,2.4,5.1,2.4s-1.5,2.9-1.5,2.9s-2,2.8-1.9,4.2s-2.5,4.7-2.5,4.7s-4.4,7.6-4.1,10.3
	s2.9,9.6-3.2,8.2s-12.6-2-12.4-5.2s2.7-8.5,2.7-8.5l2.7-5.5c1.4-1.9,2.7-3.9,3.9-6c1.2-2.4,4.9-10.3,4.9-10.3L130.2,583.3z"/>
<path fill="#E3787D" d="M166.9,445.3c-5.8-2.2-4.5-7.8-1.8-12.9c2.9-1.1,5.4-3.1,7.2-5.6c1.7,0.7,3.3,2.8,2.6,4.5
	c-0.3,0.5-0.6,1-1,1.5c-2.7,3.8-2.3,8.9,0.8,12.3c0.5,0.5,1.1,1,1.1,1.7c0,0.9-0.9,1.4-1.7,1.7c-1.1,0.4-2.2,0.6-3.3,0.6
	C171.3,447.9,170.4,446.6,166.9,445.3L166.9,445.3z"/>
<path opacity="0.1" enable-background="new    " d="M130.4,523.7c0,0-6.2,0.2-8.2,1.6c-1.2,0.8-2.2,2-2.8,3.4 M174.1,432.8
	c-2,2.8-2.3,6.4-1,9.5c-1.9-3.3-1.7-7.4,0.5-10.5c0.4-0.4,0.7-0.9,1-1.5c0.2-0.6,0.2-1.2,0-1.7c0.6,0.8,0.8,1.8,0.5,2.8
	C174.8,431.9,174.5,432.4,174.1,432.8z M171,448.2c0.9-0.1,1.9-0.3,2.8-0.6c0.8-0.3,1.7-0.9,1.7-1.7c0,0,0-0.1,0-0.1
	c0.3,0.3,0.5,0.7,0.5,1.2c0,0.9-0.9,1.4-1.7,1.7c-1.1,0.4-2.2,0.6-3.3,0.7C171.1,448.9,171.1,448.5,171,448.2z M166.5,444.3
	c2.8,1,3.9,2.1,4,3.1c-1-0.9-2.2-1.6-3.5-2c-1.7-0.5-3.1-1.8-3.7-3.4C164.1,443.1,165.2,443.9,166.5,444.3z M151.1,428.3
	c2.1,3.8,8.8,5.6,9,5.6c1.6,0,3.2-0.3,4.7-0.8c2.1-4,4.7-7.8,7.7-11.2c0,0-24-10.6-21.3,0.5C151.8,424.4,151.7,426.4,151.1,428.3
	L151.1,428.3z"/>
<path fill="#EFB7B9" d="M144.9,417.6c0,7.9,6.1,14.5,14,15.1h1.2c8.4,0,15.2-6.8,15.2-15.2c0-8.4-6.8-15.2-15.2-15.2
	C151.8,402.4,145,409.2,144.9,417.6L144.9,417.6z"/>
<path opacity="0.1" enable-background="new    " d="M144.9,417.6c0,7.9,6.1,14.5,14,15.1c2.3-2,4.1-4.5,5.4-7.2c0.7-1.1,1-2.4,1-3.8
	c-0.1-1.1-0.8-2.2-1-3.3c-0.3-1.9,0.6-3.7,1.6-5.3c0.8-1.6,1.8-3.1,3-4.4c0.7-0.6,1.3-1.3,1.9-1.9c-6-5.9-15.6-5.9-21.5,0.1
	C146.5,409.8,144.9,413.6,144.9,417.6L144.9,417.6z"/>
<path fill="#E3787D" d="M171.7,404.9c0.9-0.9,1.5-2.1,1.6-3.3c0-1.2-0.5-2.3-1.4-3.1c-0.8-1-2-1.7-3.2-2c-0.8-0.1-1.6-0.1-2.4,0
	c-1.4-0.1-2.7-0.4-4-0.8c-4.8-1.2-10.2-1.7-14.6,0.7c-3.5,1.9-5.8,5.4-7.6,8.9c-0.8,1.4-1.3,2.9-1.4,4.5c0.1,1.4,0.4,2.8,0.8,4.2
	c0.1,0.3,0.1,0.6,0,0.9c-0.2,0.7-1.1,0.9-1.7,1.2c-1.2,0.6-2.2,1.7-2.6,3c-0.4,1.3-0.7,2.6-0.8,4c-0.2,0.8-0.1,1.7,0.1,2.5
	c0.6,1.4,2.1,2.1,3.5,2.8c1.6,0.7,3,1.7,4.1,3c1.1,1.3,1.5,3.1,1.1,4.8c-0.5,1.4-1.6,2.6-3,3.3c-1.4,0.6-2.8,1.1-4.3,1.4
	c-0.6,0.1-1.3,0.3-1.8,0.7c-1.3,1-1.3,3.1-0.3,4.3c1.1,1.2,2.6,1.9,4.3,2.1c3.6,0.5,7.2-0.3,10.2-2.2c1.9-1.1,3.6-2.8,4-5
	c0.3-1.3,0-2.8,0.6-4c0.7-1.6,2.6-2.3,4.1-3.3c3.1-1.9,5.2-5,6.9-8.3c0.7-1.1,1-2.4,1-3.8c-0.1-1.1-0.8-2.2-1-3.3
	c-0.3-1.9,0.6-3.7,1.6-5.3c0.8-1.6,1.8-3.1,3-4.4C169.5,407.2,170.6,406.1,171.7,404.9L171.7,404.9z"/>
<path opacity="0.1" enable-background="new    " d="M136.4,427.1c1,0.4,1.8,1,2.7,1.6c-0.4-0.2-0.8-0.4-1.1-0.6
	c-1-0.4-1.9-0.9-2.7-1.6L136.4,427.1z M136.5,446.6c3.6,0.5,7.2-0.3,10.2-2.2c1.9-1.1,3.6-2.8,4-5c0.3-1.3,0-2.8,0.6-4
	c0.7-1.6,2.6-2.3,4.1-3.3c3.1-1.9,5.2-5,6.9-8.3c0.7-1.1,1-2.4,1-3.8c-0.1-1.1-0.8-2.2-1-3.3c-0.3-1.9,0.6-3.7,1.6-5.3
	c0.8-1.6,1.8-3.1,3-4.4c1.2-1.1,2.2-2.2,3.2-3.4c0.9-0.9,1.5-2.1,1.6-3.3c0-1.2-0.5-2.3-1.4-3.1c-0.2-0.2-0.4-0.4-0.6-0.6
	c0.8,0.4,1.5,0.9,2.1,1.6c0.8,0.8,1.3,1.9,1.4,3.1c-0.2,1.3-0.7,2.4-1.6,3.3c-1,1.2-2.1,2.4-3.2,3.4c-1.2,1.3-2.2,2.8-3,4.4
	c-1,1.6-1.9,3.5-1.6,5.3c0.2,1.1,0.9,2.1,1,3.3c0,1.3-0.3,2.6-1,3.8c-1.6,3.2-3.8,6.4-6.9,8.3c-1.5,0.9-3.3,1.6-4.1,3.3
	c-0.6,1.2-0.3,2.7-0.6,4c-0.4,2.2-2.1,3.8-4,5c-3.1,1.9-6.7,2.6-10.2,2.2c-1.4-0.1-2.8-0.7-3.9-1.7
	C134.9,446.2,135.7,446.5,136.5,446.6L136.5,446.6z"/>
<path fill="#D3899B" d="M186.4,613.7c-0.1,2.1-0.6,5.5-0.6,5.5s-1.7,0.2-4.4,0.5l-1.8,0.2c-1.4,0.1-2.9,0.2-4.6,0.3
	c-3,0.2-6.3,0.3-9.5,0.2c-1.6,0-3.1-0.1-4.5-0.3c-0.6-0.1-1.2-0.1-1.8-0.2c-3.6-0.5-6.1-1.5-6.4-3.3c-0.1-0.8-0.1-1.5-0.1-2.3
	c0.3-4,3.6-3.2,3.6-3.2c-0.2-1.1,0.6-4.6,1.2-7.1c0.4-1.6,0.8-2.8,0.8-2.8l23.1-1.5h0.1c0.6,0,1.1,0.5,1.1,1.1c0,0,0,0,0,0.1
	c-0.1,2.8-0.3,9.1,0.8,9.3c1.2,0.2,2.3,0.9,2.8,2.1C186.5,612.7,186.5,613.2,186.4,613.7L186.4,613.7z M166.7,583.3
	c0,0-8.7,10.5-12.9,7.6l-0.3-0.2c-2.8-2.2-3.6-5.6-3.8-7.3c-0.1-0.8-0.2-1.5-0.3-2.3c-0.4-2.6-0.1-5.2,0.8-7.7
	c0.1-0.2,0.1-0.4,0.2-0.6C153.3,571.9,166.7,583.3,166.7,583.3L166.7,583.3z"/>
<path fill="#EEC5CD" d="M162.1,584.2c0,0-2.8,1.9-6.6,5.1c-0.6,0.5-1.2,0.9-1.9,1.3c-2.8-2.2-3.6-5.6-3.8-7.3
	c-0.1-0.8-0.2-1.5-0.3-2.3c-0.4-2.6-0.1-5.2,0.8-7.7C155.6,573.8,162.1,584.2,162.1,584.2z"/>
<path opacity="0.1" enable-background="new    " d="M159.1,583.2c0,0-1.5,1-3.5,2.7c-0.3,0.3-0.6,0.5-1,0.7c-1.2-1-1.9-2.4-2-3.9
	c-0.1-0.4-0.1-0.8-0.2-1.2c-0.2-1.4-0.1-2.8,0.4-4.1C155.6,577.6,159.1,583.2,159.1,583.2L159.1,583.2z"/>
<path fill="#D3899B" d="M172.4,583.3c0,0,8.7,10.5,12.9,7.6l0.3-0.2c2.2-1.8,3.5-4.5,3.8-7.3c0.1-0.8,0.2-1.5,0.4-2.3
	c0.4-2.6,0.1-5.2-0.8-7.7c-0.1-0.4-0.2-0.6-0.2-0.6C185.8,571.9,172.4,583.3,172.4,583.3L172.4,583.3z"/>
<path fill="#EEC5CD" d="M177.1,584.2c0,0,2.8,1.9,6.6,5.1c0.6,0.5,1.2,0.9,1.9,1.3c2.2-1.8,3.5-4.5,3.8-7.3c0.1-0.8,0.2-1.5,0.4-2.3
	c0.4-2.6,0.1-5.2-0.8-7.7C183.5,573.8,177.1,584.2,177.1,584.2z"/>
<path opacity="0.1" enable-background="new    " d="M180.1,583.2c0,0,1.5,1,3.5,2.7c0.3,0.3,0.6,0.5,1,0.7c1.2-1,1.9-2.4,2-3.9
	c0-0.4,0.1-0.8,0.2-1.2c0.2-1.4,0.1-2.8-0.4-4.1C183.5,577.6,180.1,583.2,180.1,583.2z M181.6,599.6c-0.9,1.6-2.1,3-3.4,4.3
	c-3.5,3.1-18.4,1.8-19.4,1.7c-0.2,0-0.6-0.6-1.2-1.6c0.4-1.6,0.8-2.8,0.8-2.8L181.6,599.6z"/>
<path fill="#D3899B" d="M169.8,582.4c-0.6,0-1.2,0.1-1.8,0c-3.1,0-13.6,0.1-14.8,4.3c-1.4,5,4.8,18.4,5.7,18.6s15.9,1.4,19.4-1.7
	s8-12.7,7.8-13.6C186.1,590.1,190.4,580.9,169.8,582.4z"/>
<path opacity="0.1" enable-background="new    " d="M169.5,590.5c-4.8-0.5-9.3,2-11.3,6.4c-1.5,3-1.2,6.6,0.7,9.3
	c1.2,1.7,3,3,5.4,1.9C169.7,605.9,169.5,590.5,169.5,590.5z"/>
<path opacity="0.1" enable-background="new    " d="M169.2,590c-4.8-0.5-9.3,2-11.3,6.4c-1.5,3-1.2,6.6,0.7,9.3
	c1.2,1.7,3,2.9,5.4,1.9C169.5,605.4,169.2,590,169.2,590z"/>
<path fill="#EEC5CD" d="M169.2,590.3c-4.8-0.5-9.3,2-11.3,6.4c-1.5,3-1.2,6.6,0.7,9.3c1.2,1.7,3,3,5.4,1.9
	C169.5,605.6,169.2,590.3,169.2,590.3z"/>
<path fill="#3F2B3B" d="M160.9,596.9c0,0-1.1,1-0.6,1.2S160.9,596.9,160.9,596.9z M162.1,598.1c0,0-0.6,1.3-0.2,1.4s0.6-0.9,0.6-0.9
	L162.1,598.1z M159.5,600c0,0-0.6,1.5,0,1.5S159.5,600,159.5,600z"/>
<path stroke="#3F2B3B" stroke-miterlimit="10" d="M158.8,604c0.7,1.6,2.2,2.7,4,2.7 M161.5,604.9
	c0.6,0.6,1.6,0.8,2.4,0.3"/>
<path opacity="0.1" enable-background="new    " d="M170.4,590.5c4.8-0.5,9.3,2.1,11.3,6.4c1.5,3,1.2,6.6-0.7,9.3
	c-1.2,1.7-3,3-5.4,1.9C170.2,605.9,170.4,590.5,170.4,590.5z"/>
<path opacity="0.1" enable-background="new    " d="M170.7,590c4.8-0.5,9.3,2,11.3,6.4c1.5,3,1.2,6.6-0.7,9.3
	c-1.2,1.7-3,2.9-5.4,1.9C170.4,605.4,170.7,590,170.7,590z"/>
<path fill="#EEC5CD" d="M170.7,590.3c4.8-0.5,9.3,2,11.3,6.4c1.5,3,1.2,6.6-0.7,9.3c-1.2,1.7-3,3-5.4,1.9
	C170.4,605.6,170.7,590.3,170.7,590.3z"/>
<path fill="#3F2B3B" d="M179,596.9c0,0,1,1,0.6,1.2S179,596.9,179,596.9z M177.8,598.1c0,0,0.6,1.3,0.2,1.4s-0.6-0.9-0.6-0.9
	L177.8,598.1z M180.4,600c0,0,0.6,1.5,0,1.5S180.4,600,180.4,600z"/>
<path stroke="#3F2B3B" stroke-miterlimit="10" d="M181.1,604c-0.7,1.6-2.3,2.7-4.1,2.7 M178.5,604.9
	c-0.6,0.7-1.6,0.8-2.4,0.3"/>
<path fill="#3F2B3B" d="M166.3,612.2c2.6-1,5.4-1,8,0H166.3z"/>
<path opacity="0.1" enable-background="new    " d="M159.3,619.9c-3.6-0.5-6.1-1.5-6.4-3.3c-0.1-0.8-0.1-1.5-0.1-2.3
	c0.4-0.2,0.9-0.4,1.4-0.5c0.6-0.2,1.4-0.1,3.1,0.4s1.6,2.5,1.9,5.1C159.4,619.5,159.4,619.7,159.3,619.9L159.3,619.9z"/>
<path fill="#D3899B" d="M154,614c0,0-4.7,0.9-2.1,4.9c0.2,0.3,0.5,0.6,0.9,0.7c0.3,0.1,0.6,0.1,0.6-0.3l2.1,2.4c0,0,4.1,0.5,3.8-2.1
	s-0.3-4.6-1.9-5.1S154.7,613.8,154,614z"/>
<path stroke="#3F2B3B" stroke-miterlimit="10" d="M155.1,616.7c0,0,1,2.3,2.4,0.4 M152.9,617.6c0,0,0.5,2.1,2.4,0.5"/>
<path opacity="0.1" enable-background="new    " d="M186.4,613.7c-0.1,2.1-0.6,5.5-0.6,5.5s-1.7,0.2-4.4,0.5c0-0.1,0-0.3,0-0.5
	c0.4-2.6,0.3-4.6,1.9-5.1C184.4,613.8,185.4,613.7,186.4,613.7L186.4,613.7z"/>
<path fill="#D3899B" d="M186.8,614c0,0,4.7,0.9,2.1,4.9c-0.2,0.3-0.5,0.6-0.9,0.7c-0.3,0.1-0.6,0.1-0.6-0.3l-2.1,2.4
	c0,0-4.1,0.5-3.8-2.1s0.2-4.6,1.9-5.1S186.2,613.8,186.8,614z"/>
<path stroke="#3F2B3B" stroke-miterlimit="10" d="M185.7,616.7c0,0-1,2.3-2.4,0.4 M188,617.6c0,0-0.5,2.1-2.5,0.5"/>
<path opacity="0.1" enable-background="new    " d="M165.6,620.4c-1.6,0-3.1-0.1-4.5-0.3l-1.4-4.7c-0.1-0.3-0.1-0.6-0.1-0.8
	c0-1.7,1.3-3,3-3s3,1.3,3,3C165.6,616.4,165.7,618.7,165.6,620.4L165.6,620.4z"/>
<path fill="#D3899B" d="M159.5,615.4l1.6,5.5c0,0-2.8-0.1-2,1.7c0,0,0.7,0.7,1,0.4c0,0-0.4,1.2,1.1,1.2c0,0,1.6,0.8,2.2,0.2
	s1.9-1.5,2-1.9s0-4.9,0-8.1c0-1.7-1.3-3-3-3c-1.7,0-3,1.3-3.1,2.9C159.4,614.8,159.4,615.1,159.5,615.4L159.5,615.4z"/>
<path stroke="#3F2B3B" stroke-miterlimit="10" d="M161.7,622.4c0,0-1.2,1.2-0.6,1.8 M161.2,621.7
	c-0.6,0.2-1.1,0.8-1.1,1.4"/>
<path opacity="0.1" enable-background="new    " d="M181.1,614.6c0,0.3,0,0.6-0.1,0.8l-1.3,4.5c-1.4,0.1-2.9,0.2-4.6,0.3v-5.7
	c0-1.7,1.3-3,3-3S181.1,612.9,181.1,614.6L181.1,614.6z"/>
<path fill="#D3899B" d="M181.2,615.4l-1.6,5.5c0,0,2.8-0.1,2,1.7c0,0-0.7,0.7-0.9,0.4c0,0,0.4,1.2-1.1,1.2c0,0-1.6,0.8-2.2,0.2
	s-1.9-1.5-2-1.9s-0.1-4.9,0-8.1c0-1.7,1.3-3,3-3c1.7,0,3,1.3,3,3C181.4,614.8,181.3,615.1,181.2,615.4L181.2,615.4z"/>
<path stroke="#3F2B3B" stroke-miterlimit="10" d="M179,622.4c0,0,1.2,1.2,0.6,1.8 M179.6,621.7c0.6,0.2,1.1,0.8,1.1,1.4
	"/>
<path opacity="0.1" enable-background="new    " d="M169.2,589c0,0-5.7-0.2-5.9,4.2s8.9,2.5,8.9,2.5s3.8-0.5,3.1-3.2
	S173.3,589.3,169.2,589L169.2,589z"/>
<path opacity="0.1" enable-background="new    " d="M169.2,588.6c0,0-5.7-0.2-5.9,4.2s8.9,2.5,8.9,2.5s3.8-0.5,3.1-3.2
	S173.3,588.8,169.2,588.6L169.2,588.6z"/>
<path fill="#3F2B3B" d="M169.2,588.8c0,0-5.7-0.2-5.9,4.2s8.9,2.5,8.9,2.5s3.8-0.5,3.1-3.2S173.3,589,169.2,588.8L169.2,588.8z"/>
<path opacity="0.1" enable-background="new    " d="M156.5,611c0,0,1.9,0.7,2.3,2 M183.6,610.1c0,0-1.4,0.6-1.3,3"/>
<ellipse transform="matrix(0.866 -0.5 0.5 0.866 -288.8955 161.2822)" fill="#EEC5CD" cx="156.5" cy="619.7" rx="0.9" ry="1.5"/>
<ellipse transform="matrix(0.5 -0.866 0.866 0.5 -444.4991 469.5616)" fill="#EEC5CD" cx="184.4" cy="619.7" rx="1.5" ry="0.9"/>
<path fill="#B77B7F" d="M749.7,602.4c0,0,65.5-2.8,72.4-131s-61.4-150-61.4-150s-21.6-12.1-31.2-12.6s-41.6,2.5-41.6,2.5l35.3-6.8
	c0,0-49.7-18.9-64.6-20.5l53.8,11.4c0,0,0.8-29.8-12.1-39.6c0,0,11-0.8,16.8,20.6c3.4,12.5,12.5,22.8,24.5,27.5
	c19.9,7.8,47.5,20,53.8,30.6c0,0,11.6,12.1,9.8-19.4s-10.1-58.6-13.1-59.3c0,0-23.7-25.2-57-26.7c0,0,19.4-7.8,52.2,16.6
	c0,0,2.8-12.4-9.6-27s-31.5-45.4-52.5-48.7c0,0,29.3-1.8,52.5,36.1c0,0,8.6,5.6,9.3-8.6s5.8-31.8,5.8-31.8s7.1,32.6-7.8,47.2
	c0,0,28.5,37.1,27.3,78.8c0,0,8.8,18.9,12.1-3.3c0,0,1.9-30.6,5.7-56.5c3.1-21.1-2.7-42.6-16.1-59.3c-6.3-7.9-10.7-15.5-8.3-19.5
	l33.1,39.4c0,0,27.8-64.4,48-78.2s22.7-16.9,22.7-16.9L877,135.5l40.9-14.4l-41,18.9c0,0-18.9,15.4-29.8,57.5s-11.9,68.4-11.9,68.4
	s58.3-46.2,69.4-44.7l-37.7,28.6c-20.8,15.7-33.7,39.6-35.5,65.6c0,0,72.9-18.7,90.6-22.2l33.3-34.1l-25.2,32.3l52-0.8l29.8-21.2
	c0,0-23.5,19.7-21.2,20.9s36.6,2.8,36.6,2.8s-87.3-0.5-96.9,5.8s-31,8.6-31,8.6l61.8,9.3l-73.7-5.3c0,0-55.8,10.1-58.8,27.5
	c0,0,11.4,29.6,18.9,41.4c6.3,9.8,18.9,41.4,21.5,69.1s6,70.4-3.5,96.4s-13.1,40.9-8.3,48.7s9.3,17.9-6.3,19.9s-84.3-1-84.3-1
	S745.7,617.9,749.7,602.4L749.7,602.4z"/>
<path opacity="0.1" enable-background="new    " d="M786.4,588.7c6.9-3.5,14.7-4.4,22.2-2.7c12.9,2.8,32.5,1.3,34.3,1 M827.5,437.5
	c0,0,3.1,49.3-2.4,59.1L827.5,437.5z M839,496.6c0,0-4,46.2-6.8,55.2S839,496.6,839,496.6L839,496.6z M843,383
	c2.8,1,15,25.7,12.6,33S843,383,843,383z M812.1,357.4c1.3,0.6,7,14.8,5.8,19S812.1,357.4,812.1,357.4z M864.7,440.2
	c-1.4,14.3-2.2,23.7-1.3,35.2c0.8,8.9,0.6,17.9-0.4,26.8 M712.5,273.4c1.6,2.1,2.4,4.6,2.4,7.3c0.1,2.6-0.3,5.2-0.1,7.8
	s1.5,5.9,4.2,6.3 M759.1,188c3.5,3.4,6.5,7.2,9.1,11.3c0.8,1.3,1.6,2.5,2.6,3.7c1.6,1.5,3.2,2.9,5,4.1c3.9,3.2,6.8,7.6,8,12.5
	 M891.1,114.3c-0.8,1.6-1.9,3.1-3.2,4.3c-1.1,1.1-2.5,2-3.5,3.2c-0.8,1-1.6,2.1-2.2,3.3c-2.8,4.2-5.9,8.2-9.3,11.8 M830,187.3
	c2.2,1.4,2.8,4.3,2.7,6.8s-0.5,5.2,0.5,7.6c0.4,1.1,1.1,2,1.6,3.1c0.7,1.9,0.9,3.9,0.7,5.9c0,2.3-0.1,4.7-0.2,7
	c-0.1,2.8-0.4,5.8-2.3,7.9"/>
<path fill="none" d="M848.2,259.7c-2,1.1-3.9,2.4-5.7,3.9c-1.7,1.5-2.9,3.6-3.3,5.9c-0.1,1-0.1,2-0.3,2.9c-0.4,1.3-1,2.5-1.9,3.5
	c-1.5,1.9-3.1,3.6-4.8,5.3"/>
<path opacity="0.1" enable-background="new    " d="M831.7,325.6c1.4-1.2,3-2.2,4.6-3.2c1.5-0.9,3-1.6,4.7-2.1
	c2.5-0.7,5.2-0.6,7.8-0.8s5.3-1,7.1-2.9 M934.4,293.7c-3.1,0.1-6.3,0.2-9,1.6c-1.4,0.7-2.6,1.8-4,2.5c-1.8,1-3.8,1.5-5.8,1.5
	 M891.8,306.4c0.8-0.4,1.7-0.2,2.2,0.5c0.5,0.6,0.8,1.4,1.4,2c1.1,1.2,3,1.4,4.6,1.4 M874.2,241.1l-3,1.5c-3.1,1.5-6,3.3-8.7,5.3
	 M840.5,270c-1.9-0.5-3.6,1.6-4,3.6s0.1,4-0.5,6c-0.6,1.7-1.6,3.2-2.9,4.4 M807.7,273.6c-1.8,5.3,2,11,0.9,16.5
	c-0.3,1.7-1.1,3.2-1.5,4.9c-1,4.3,0.7,9,3.6,12.4"/>
<linearGradient id="SVGID_2_" gradientUnits="userSpaceOnUse" x1="829.08" y1="183.141" x2="1043.4203" y2="183.141" gradientTransform="matrix(-1 0 0 -1 924.07 785.83)">
	<stop  offset="0" style="stop-color:#808080;stop-opacity:0.25"/>
	<stop  offset="0.54" style="stop-color:#808080;stop-opacity:0.12"/>
	<stop  offset="1" style="stop-color:#808080;stop-opacity:0.1"/>
</linearGradient>
<path fill="url(#SVGID_2_)" d="M475.1,767.9c-2.9,0.4-5.7,1.1-8.5,2.1c-0.2,0.1-0.4,0.2-0.5,0.3c-2.1,0.9-4.4,1-6.6,0.5
	c0,0-9,1.1-14.1-2.9c-1.9-1.5-3.9-3.3-5.6-4.9c-1.2-1.1-3-1.2-4.3-0.3c-0.3-0.2-0.5-0.4-0.9-0.6c-2.2-1.7-6.1-5-7.6-9.4
	c-0.5-1.5-1.2-3-1.9-4.5c-0.9-2-2-4.7-1.9-6.1c0.1-2.1-6-20.3-9.8-29c-1.7-3.8-2.6-7.9-2.9-12c-0.1-1.1,0-2.2,0.2-3.3
	c0.8-1.8,1.1-10.4-1.7-14.2l-7.5-20.7L391,630.7l-0.3-1c-0.9-1.2-1.8-2.5-2.6-3.9c-1.2-2-2.2-4.1-3-6.3c-0.1-0.4-0.3-0.9-0.4-1.3
	c4.1-1.3,0.9-13.1,0.9-13.1s-2-3.3-1.5-13c0.3-7.5,0.1-14.9-0.8-22.3c-0.1-1.1-0.2-2.2-0.3-3.3c9,4.2,32.5,15.1,34.8,15.1
	c2.8,0,10.1,4.6,10.1,4.6s14.8,8.7,27.6,2.8s-10.3-13.6-16.6-12.5s-19.6-7-19.6-7l-24.1-14.3l-10-6c3.8-8.6,7-23.9-0.3-34.7l-2.8-3
	c1.5-8.1,2.2-16.3,2-24.6c0-7.5-0.4-15-0.3-22.5c7.7-5.2,11.3-14.7,8.9-23.7c1.3-0.8,2.5-1.9,3.4-3.1c3.1-4.4,2.8-10.7-0.2-15.1
	c-1-1.9-2.5-3.5-4.3-4.7c-1.8-1-3.7-1.9-5.7-2.5c0.7,0.3,1.3,0.6,1.9,1c0.2,0.1,0.3,0.3,0.5,0.4c-2-0.8-4.1-1.4-6.1-2.4
	c-0.9-0.4-1.7-0.9-2.5-1.3c0.9,0.4,1.9,0.7,2.9,1.1l-0.4-0.1c-3.3-1.6-6.1-4.2-9.4-5.9c-1.4-0.7-2.8-1.3-4.3-1.7l0.5,0.3
	c0.6,0.3,1.2,0.7,1.8,1c-7.7-3.2-17.1-2-24.1,2.6c-7.6,5-12.6,13.4-14.3,22.3c-1.2,6.1-0.9,12.5-3.2,18.2
	c-4.5,11.7-18,18.2-22.5,29.9c-2,5.3-2,11.1-2.2,16.8c-0.9,24.7-6.6,48.9-16.9,71.3c-1.3,2.9-2.9,5.9-5.3,7.8l-0.8,0
	c-0.6,0.4-1.3,0.7-2,1l0.8,0.2c-0.3,0.1-0.5,0.2-0.8,0.3c0.6,0.1,1.2,0.2,1.8,0.3c-0.3,0.2-0.7,0.3-1,0.4c6.7,1.5,13.9-0.3,19.8-3.9
	s10.6-8.7,14.6-14.2c0.3-0.4,0.6-0.9,0.9-1.3c-0.1,0.3-0.2,0.6-0.3,0.8c-0.7,1.8-3.5,31.3-3.5,33.3s-0.6,20.3-1.5,22.5
	s-11.8,30.2,2.6,26.9c9.1-2.1,10.8-11,10.8-17.2l0.7-0.2c1.2-0.4,2.7-0.8,4.2-1.3v2.5c-0.5,2-0.9,4-1.1,6.1c0,2.2-1.5,7-1.5,7
	l-0.1,0.2c-0.7,1.7-6.6,15.2-6.7,25.2l-5.5,14.5l-6,10.5c0,0-17,20.4-20,40.3l-10.1,29.9c0,0-2.3-2.8-2.7-1.7s-1.1,6.8-2.1,7
	s-1.3,4.2-1.3,4.2s-5,6.1-5.6,9.8c0,0.1,0,0.2,0,0.4c-0.2,1.1-0.2,2.1-0.2,3.2c0,0,0,0.1,0,0.1v1.5l0.1,0.5c0,0,0.2,2.8,7.3,4.4
	s14.6,2.6,18.3,4.6s14.2,3.7,14.2,3.7l14-0.7c2.9-0.1,5.1-2.5,5-5.4c-0.1-1.3-0.6-2.6-1.6-3.5l-0.1-0.1l-9.7-2.5l-0.8-0.2
	c0,0-5.3,0.7-6.9-2.9c-4.4-2.6-7-7.4-6.6-12.5c0,0,1.1-11.4-1.7-10.3c-0.3,0.1-0.6,0.3-0.9,0.4c0-0.3,0-0.6,0.1-1v-0.3
	c0-0.3,0.1-0.5,0.1-0.8v-0.3c0.1-0.3,0.2-0.7,0.3-1c0,0,0-0.1,0-0.1c0.1-0.4,0.2-0.8,0.4-1.2c0-0.1,0.1-0.2,0.1-0.3
	c0.1-0.3,0.2-0.6,0.4-0.9c0.1-0.1,0.1-0.3,0.2-0.4s0.3-0.6,0.5-0.8c0.1-0.1,0.1-0.3,0.2-0.4c0.2-0.4,0.5-0.8,0.8-1.2
	c5.2-7,14-23.2,14-23.2l8.2-16.6c0,0,4.5-9.6,8.4-11.4s10.5-8.8,12.7-14.5l16.6-37c0.3,0.7,0.5,1.5,0.6,2.3c0,0,8.7,22.1,13.2,25.8
	c0,0,5.6,7.5,7.4,11.2c0.5,1.1,1,2.1,1.6,3.2c0.9,1.3,1.4,2.7,1.7,4.3c0,2,3.4,7.6,3.4,7.6v7.5c0,0,0.5,18.7,13.3,33.5l6.4,10.8
	l12,18.1l0.5,0.7c-0.6-0.1-1.3-0.3-1.9-0.5l3.7,8.1c0.5,1.4,0.9,2.9,1.2,4.4c0,0.8,3,8.5,3,8.5c0,0,0,0,0,0.1v1.2
	c0,0.1,0,0.2,0.1,0.3l0.1,0.2c0,0.1,0.1,0.2,0.1,0.3l0.1,0.3c0,0.1,0.1,0.2,0.1,0.3c0,0.1,0.1,0.2,0.1,0.3c0.1,0.1,0.1,0.2,0.2,0.3
	s0.1,0.2,0.1,0.2c0.1,0.2,0.2,0.3,0.4,0.5l0.1,0.1l0.2,0.2l0.2,0.2l0.2,0.1c0.2,0.1,0.4,0.2,0.6,0.3l0.2,0.1
	c0.2,0.1,0.4,0.2,0.5,0.2l0.2,0.1c0.3,0.1,0.5,0.1,0.8,0.2h0.2c0.3,0,0.5,0,0.8,0.1h0.3c0.4,0,0.8,0,1.1,0c0,0,16.3-5.4,18.7-6
	s15.2-6,15.2-6s14.3-8,14-13.4S478.4,767.7,475.1,767.9z"/>
<path fill="#864D6C" d="M373.9,445.1c-0.6,1.3-1.1,2.6-1.4,4c-0.3,1.9-0.1,3.8-0.7,5.6c-0.8,2.6-3,4.5-4.8,6.6
	c-3.7,4.3-5.6,9.8-5.6,15.5c0,3.3,0.8,6.5,0.4,9.8c-0.4,2.5-1.4,4.9-2,7.4c-0.5,2.4-0.7,4.8-0.7,7.2c0,8.3,1.5,16.5,4.4,24.2
	c0.1,0.4,0.3,0.7,0.6,1c0.3,0.2,0.7,0.4,1.1,0.4l7.2,1c0.7,0.2,1.4,0.1,2-0.2c0.5-0.4,0.9-0.9,1.1-1.4c5.3-11.7,6.2-24.8,6.1-37.6
	s-1-25.7,0.8-38.4c0.6-4,1.4-8,1.7-12c0.2-2.6-0.9-8.6-4.6-5.5C376.7,435,375.3,441.7,373.9,445.1L373.9,445.1z"/>
<path opacity="0.1" enable-background="new    " d="M382.4,432c0.1,0.7,0.1,1.5,0.1,2.2c-0.3,4-1.1,8-1.7,12
	c-1.8,12.7-0.9,25.6-0.8,38.4s-0.8,26-6.1,37.6c-0.2,0.6-0.6,1.1-1.1,1.4c-0.6,0.3-1.3,0.3-2,0.2l-7.2-1c-0.4,0-0.8-0.1-1.1-0.4
	l-0.1-0.1c0.3,0.9,0.6,1.8,1,2.7c0.1,0.4,0.3,0.7,0.6,1c0.3,0.2,0.7,0.4,1.1,0.4l7.2,1c0.7,0.2,1.4,0.1,2-0.2c0.5-0.4,0.8-0.9,1-1.4
	c5.3-11.7,6.2-24.8,6.1-37.6s-1-25.7,0.8-38.4c0.6-4,1.4-8,1.7-12C384.1,436.3,383.7,433.2,382.4,432L382.4,432z"/>
<path fill="#FFC2C8" d="M370.1,501.9c1.3,2.3,2.6,4.6,4.1,6.8l-20.8-8.5c0,0-20.3-14.9-15.6-15.6c1.1-0.2,2.7-2,4.4-4.6
	c3.4-5.4,6.4-11.1,9.1-16.9c2.5-5.2,4.3-9.2,4.3-9.2l18.5,8.5c-1.9,3-3.6,6.1-5.1,9.3c-1.8,3.6-3.2,7.3-4.1,11.2
	C363.6,488.4,367,496.3,370.1,501.9L370.1,501.9z M329,621.8c0,0-2.6,9.5-2.6,11.7s-1.5,7-1.5,7s-6.6,14.7-6.7,25.3l-5.4,14.5
	l-5.9,10.4c0,0-16.7,20.3-19.6,40.1l-11.4,33.7l20.5,1.3c-1.5-4.8-0.6-10.1,2.4-14.1c5.1-7,13.7-23.1,13.7-23.1l8-16.5
	c0,0,4.4-9.5,8.2-11.4s10.3-8.8,12.5-14.5l20.5-46.4l9.7-23.4L329,621.8z"/>
<path opacity="3.000000e-02" enable-background="new    " d="M371.7,616.5l-9.7,23.4l-20.5,46.3c-2.2,5.7-8.6,12.6-12.5,14.5
	s-8.2,11.4-8.2,11.4l-8.1,16.5c0,0-8.6,16.1-13.7,23.1c-1.7,2.3-2.7,5-3,7.9c-0.2,2.1,0,4.2,0.7,6.2l-20.5-1.3l1.5-4.4l9.9-29.3
	c2.9-19.8,19.6-40.1,19.6-40.1l5.9-10.4l5.4-14.5c0.1-10.6,6.7-25.3,6.7-25.3s1.5-4.8,1.5-7s2.6-11.7,2.6-11.7L371.7,616.5z"/>
<path opacity="0.1" enable-background="new    " d="M296.6,765.8l-20.5-1.3l1.5-4.4c1.7,2.7,13.5,2.9,13.5,2.9
	c1.5-1.3,3.1-2.5,4.8-3.5C295.8,761.7,296,763.8,296.6,765.8L296.6,765.8z"/>
<path fill="#FF8AA1" d="M318.7,797.2L305,798c0,0-10.1-1.6-13.8-3.7s-11-2.9-17.9-4.6s-7.1-4.4-7.1-4.4c-0.3-1.8-0.4-3.6,0-5.3
	c0-0.1,0-0.2,0-0.3c0.5-3.7,5.5-9.7,5.5-9.7s0.4-4,1.3-4.2s1.6-5.9,2-7s2.6,1.7,2.6,1.7c1,3,13.7,3.2,13.7,3.2
	c1.7-1.6,3.6-2.9,5.7-3.8c2.7-1.1,1.6,10.3,1.6,10.3c-0.4,5,2.1,9.9,6.5,12.5c1.5,3.7,6.7,2.9,6.7,2.9l0.8,0.2l9.5,2.5
	c0,0,0.1,0.1,0.1,0.1c2.1,2,2.1,5.2,0.2,7.3C321.3,796.6,320.1,797.2,318.7,797.2L318.7,797.2z"/>
<path fill="#E8F5FF" d="M318.7,797.2L305,798c0,0-10.1-1.6-13.8-3.7s-11-2.9-17.9-4.6s-7.1-4.4-7.1-4.4s0-0.2-0.1-0.6
	s-0.1-0.5-0.1-0.9c-0.1-1.3,0-2.6,0.2-3.9l14.9,5.1c0,0,11,3.7,15.2,4.4c0,0,14.8,1.1,16.3,1.1c1.1,0,1-2.6,0-4.9l9.5,2.5
	c0,0,0.1,0.1,0.1,0.1c2,2,2.1,5.2,0.1,7.3C321.2,796.6,320,797.2,318.7,797.2L318.7,797.2z"/>
<circle fill="#E8F5FF" cx="286.7" cy="783.8" r="0.9"/>
<circle fill="#E8F5FF" cx="290.5" cy="767" r="0.9"/>
<circle fill="#E8F5FF" cx="292" cy="771.4" r="0.9"/>
<circle fill="#E8F5FF" cx="294" cy="775.7" r="0.9"/>
<circle fill="#E8F5FF" cx="296.7" cy="779.5" r="0.9"/>
<circle fill="#E8F5FF" cx="299.7" cy="782.6" r="0.9"/>
<circle fill="#E8F5FF" cx="303.4" cy="785.6" r="0.9"/>
<circle fill="#E8F5FF" cx="307.6" cy="787.9" r="0.9"/>
<circle fill="#E8F5FF" cx="291.1" cy="785.2" r="0.9"/>
<path fill="#FF8AA1" d="M305.1,795.7h-0.1c-4.3,0-11.4-2.2-13-2.9c-1.5-0.6-10.9-2.9-11-2.9s-7.1-2.2-9.4-2.8
	c-1.9-0.6-3.7-1.4-5.5-2.3c0-0.2-0.1-0.5-0.1-0.9c1.9,1,3.8,1.8,5.8,2.5c2.3,0.6,9.4,2.8,9.4,2.8c0.4,0.1,9.5,2.3,11.1,2.9
	s8.7,2.8,12.8,2.8h0.1L305.1,795.7z"/>
<path opacity="0.1" enable-background="new    " d="M354.3,616l-0.2,0.7l-2.3,10.6l-1.5,7l-11.8-3.5l-10.9-3.3v-7.9L354.3,616z"/>
<path fill="#E8F4FF" d="M354.3,615.3l-0.2,0.7l-2.3,10.6l-1.5,7l-11.8-3.5l-10.9-3.3v-7.9L354.3,615.3z"/>
<path opacity="3.000000e-02" enable-background="new    " d="M354.3,615.3l-0.2,0.7l-2.3,10.6l-1.5,7l-11.8-3.5l-10.9-3.3v-7.9
	L354.3,615.3z"/>
<path opacity="0.1" enable-background="new    " d="M374.2,462.3c-1.9,3-3.6,6.1-5.1,9.3h-0.3c-6.8,0-13.3-3.2-17.5-8.6
	c2.5-5.2,4.3-9.2,4.3-9.2L374.2,462.3z"/>
<circle fill="#FFC2C8" cx="368.8" cy="448.2" r="22"/>
<path fill="#FFC2C8" d="M377.2,547.2l15.4,9.3l23.6,14.3c0,0,13,8.1,19.2,7s28.9,6.6,16.3,12.5s-27.1-2.8-27.1-2.8s-7.1-4.6-9.9-4.6
	s-37.5-16.7-37.5-16.7L377.2,547.2z M432.9,763.4v10l-14.8,3l-2.1-3.3l-11.6-18l-6.3-10.7c-12.5-14.7-13-33.3-13-33.3v-7.4
	c0,0-3.3-5.6-3.3-7.6c-0.2-1.5-0.8-3-1.6-4.2c-0.6-1-1.1-2.1-1.6-3.2c-1.7-3.8-7.2-11.2-7.2-11.2c-4.4-3.7-12.9-25.6-12.9-25.6
	c-0.1-2.7-2.9-6.5-5.3-9.3c-1.1-1.2-2.2-2.4-3.3-3.6l28.8-9.1l9.6,0.8l0.3,1l10.5,31.9l7.3,20.6c2.8,3.8,2.4,12.4,1.6,14.1
	c-0.2,1.1-0.3,2.2-0.2,3.3c0.2,4.2,1.1,8.3,2.8,12.1c3.7,8.5,9.7,26.7,9.6,28.8c-0.1,1.4,0.9,4,1.8,6c0.7,1.5,1.3,3,1.8,4.5
	c1.5,4.4,5.3,7.7,7.5,9.4C432.2,762.9,432.9,763.4,432.9,763.4L432.9,763.4z"/>
<path opacity="0.1" enable-background="new    " d="M388.5,631.6c-3.3,1.7-6.9,2.6-10.6,2.7c-4,0-17.4,5.1-24.9,8.2
	c-1.1-1.2-2.2-2.4-3.3-3.6l28.8-9.1l9.6,0.8L388.5,631.6z"/>
<path fill="#E8F4FF" d="M388.2,630.6c-3.4,1.8-7.2,2.8-11,2.9c-5.7,0-30.2,10.3-30.2,10.3l-3-4.8l-5.5-9l-3.1-5.1l-2.7-4.4
	c0,0,10.3-2.5,21.5-4.5c13.3-2.5,27.7-4.3,27.6-0.7c0,1.8,0.3,3.6,1,5.3c0.8,2.2,1.8,4.2,2.9,6.2
	C386.4,628.1,387.3,629.4,388.2,630.6L388.2,630.6z"/>
<path opacity="0.5" fill="#FFFFFF" enable-background="new    " d="M388.2,630.6c-3.4,1.8-7.2,2.8-11,2.9
	c-5.7,0-30.2,10.3-30.2,10.3l-3-4.8l28.4-13c4.4,0.5,8.8,0.7,13.2,0.7C386.4,628.1,387.3,629.4,388.2,630.6z"/>
<path opacity="0.1" enable-background="new    " d="M432.9,763.4v10l-14.8,3l-2.1-3.3c1.1,0.2,2.2,0.3,3.4,0.3
	c4,0.1,9.2-5.1,9.2-5.1c0.8-0.4,1.3-2.1,1.7-4c0.1-0.8,0.6-1.5,1.2-2C432.2,762.9,432.9,763.4,432.9,763.4z"/>
<path fill="#FF8AA1" d="M476.1,774.5c0.3,5.4-13.7,13.3-13.7,13.3s-12.5,5.4-14.9,5.9s-18.4,5.9-18.4,5.9c-7.3,0.7-6.8-5.5-6.8-5.5
	s-3-7.6-3-8.5c-0.3-1.5-0.7-3-1.1-4.4l-3.7-8c0,0,1.5,0.8,5.5,0.8s9.2-5.1,9.2-5.1c0.8-0.4,1.3-2.1,1.7-4c0.3-1.8,2.1-3,3.8-2.6
	c0.6,0.1,1.2,0.4,1.7,0.9c1.7,1.6,3.6,3.4,5.5,4.9c5,4,13.9,2.9,13.9,2.9c2.2,0.6,4.4,0.4,6.5-0.5c0.2-0.1,0.4-0.2,0.5-0.3
	c2.7-0.9,5.5-1.6,8.3-2.1C474.2,767.8,475.8,769.2,476.1,774.5L476.1,774.5z"/>
<path fill="#E8F5FF" d="M476.1,774.5c0.3,5.4-13.7,13.3-13.7,13.3s-12.5,5.4-14.9,5.9s-18.4,5.9-18.4,5.9c-2.5,0.3-4.1-0.3-5.1-1.2
	c-0.3-0.2-0.5-0.5-0.7-0.8c-0.7-1.1-1-2.3-1-3.6c2.7-0.3,5.4-0.8,8-1.6c0,0,21.2-5.9,24-8.1c0,0,10.2-4.6,10.7-6.8
	c0,0-3-4.4-2.9-7.1c0.2-0.1,0.4-0.2,0.5-0.3c2.7-0.9,5.5-1.6,8.3-2.1C474.2,767.8,475.8,769.2,476.1,774.5L476.1,774.5z"/>
<path fill="#FF8AA1" d="M461.3,786.4c-1.9,2.6-12.6,5.6-13.8,5.9s-9.1,2.8-9.2,2.9l-7.6,2.3c-1.8,0.8-3.7,1.2-5.6,1.1h-1
	c-0.3-0.2-0.5-0.5-0.7-0.8c1.8,0.1,4.9,0.2,7.1-1l7.7-2.3c0.3-0.1,8-2.6,9.3-2.9c1.6-0.3,11.7-3.4,13.4-5.6L461.3,786.4z"/>
<path opacity="0.1" enable-background="new    " d="M382.7,620.6c-0.1,0.1-0.3,0.1-0.4,0.2c-4,1.3-19,1.6-19,1.6
	c-3.7,1.8-7.5,3.2-11.5,4.2c-3.6,0.8-7.1,1-9-0.5c-1.5-1.2-4.3-1.4-7.4-1.1c-2.6,0.3-5.2,0.8-7.8,1.6v-7.6l26.7-3.6l-0.2,0.7
	c13.3-2.5,27.7-4.3,27.6-0.7C381.9,617.1,382.2,618.9,382.7,620.6z M374.2,508.7l-20.8-8.5c0,0-20.3-14.9-15.6-15.6
	c1.1-0.2,2.7-2,4.4-4.6c5.6,1.6,10.6,4.8,14.5,9.2c4.1,4.6,11,10.8,13.4,12.8C371.4,504.2,372.7,506.5,374.2,508.7L374.2,508.7z"/>
<path fill="#FFE577" d="M383.2,606.3c0,0,3.1,11.7-0.9,13s-19,1.7-19,1.7s-15.6,7.7-20.6,3.7c-3.5-2.8-13.6-0.1-19.3,1.7
	c-2.3,0.8-3.9,1.4-3.9,1.4s-4.1-20.3,2.5-32s-2-40.1-2.4-42.8c-0.1-0.8-0.1-3.5-0.1-7.1c0.2-9.4,0.8-24.7,1.9-26.8
	c1.1-2.5,2.1-5.2,2.8-7.9c0,0,0.9-7.3,2.4-8.4s2-4.6,2-4.6s1.8-7.7,3.7-9.7s2.6-8.2,2.6-8.2c2.1-0.4,4.3-0.4,6.3,0.3
	c6,1.5,11.4,4.8,15.5,9.4c5,5.6,14.1,13.5,14.1,13.5l11.6,12.7c7.7,11.5,3.5,28.2-0.5,36.3c-2,4.1-1.8,12-1,18.8
	c0.9,7.4,1.1,14.8,0.8,22.2C381.3,603,383.2,606.3,383.2,606.3L383.2,606.3z"/>
<path opacity="0.1" enable-background="new    " d="M351,511.1l-2,12v0.1c0,0-13.2,28.6-15.4,32.1s-4.4,12.4-4.4,12.4
	s-0.7,15.9-2.2,19s-3.1,22.3-3.1,22.3l-0.9,12.8c0.3,1.5,0.4,3,0.5,4.5c-2.3,0.8-3.9,1.4-3.9,1.4s-4.1-20.3,2.5-32s-2-40.1-2.4-42.8
	c-0.1-0.8-0.1-3.5-0.1-7.1l2.6-10l3.3-16.5l1.3-2.3l4.2-7.8l14.1-4.6L351,511.1z"/>
<path fill="#FFC2C8" d="M350.3,509.6l-2,12c0,0-13.2,28.6-15.4,32.1s-4.4,12.4-4.4,12.4s-0.7,15.9-2.2,19s-3.1,22.3-3.1,22.3
	l-0.9,12.8c0,0,4,20-10.1,23.3s-3.5-24.4-2.6-26.6s1.5-20.3,1.5-22.3s2.7-31.3,3.5-33.1c0.8-2.5,1.4-5.1,1.8-7.7l5.1-19.4l3.3-16.5
	l1.2-2.3l4.3-7.8l14.1-4.6L350.3,509.6z"/>
<path opacity="0.1" enable-background="new    " d="M350.3,509.6l-2,12c-0.4-20.7-23.4-2.3-23.4-2.3s0.5-1.5,1.2-3.7l4.3-7.8
	l14.1-4.6L350.3,509.6z"/>
<path fill="#FFE577" d="M343.1,484.7c0,0-9.9,4.4-11.4,10.6s-7,22.5-7,22.5s24.2-19.2,23.4,3.8c1.9-2.2,3-5.1,3.1-8
	c0.4-5.3,5.5-16.7,1.2-21.4C349.8,489.3,346.6,486.7,343.1,484.7L343.1,484.7z"/>
<path opacity="0.1" enable-background="new    " d="M393.4,439.6c4-5.8,2.2-14.7-3.7-18.5c-2.8-1.8-6.1-2.5-9.1-4
	c-3.3-1.6-6-4.1-9.2-5.9c-7.9-4.3-18.1-3.3-25.6,1.7s-12.3,13.4-14,22.2c-1.1,6-0.9,12.4-3.1,18.1c-4.4,11.6-17.6,18.1-22,29.8
	c-2,5.3-2,11-2.1,16.7c-0.8,24.5-6.4,48.6-16.5,71c-1.7,3.8-3.9,7.9-7.9,9.3c6.6,1.5,13.6-0.3,19.4-3.8S310,567.5,314,562
	c11.8-16.5,17.6-36.6,16.6-56.8c-0.2-4.5-0.7-9.4,2-13s7.4-4.6,10.9-7.1c8.6-6.1,8.4-18.6,11.5-28.7c0.5-1.8,1.4-3.5,2.6-4.8
	C367.2,442.3,385.5,450,393.4,439.6L393.4,439.6z"/>
<path fill="#864D6C" d="M392.7,438.8c4-5.8,2.2-14.7-3.7-18.5c-2.8-1.8-6.1-2.5-9.1-4c-3.3-1.6-6-4.1-9.2-5.9
	c-7.9-4.3-18.1-3.3-25.6,1.7s-12.3,13.3-14,22.2c-1.1,6-0.9,12.4-3.1,18.1c-4.4,11.6-17.6,18.1-22,29.8c-2,5.3-2,11-2.1,16.7
	c-0.8,24.5-6.4,48.6-16.5,71c-1.7,3.8-3.9,7.9-7.9,9.3c6.6,1.5,13.6-0.3,19.4-3.8s10.4-8.6,14.4-14.1c11.7-16.5,17.6-36.6,16.6-56.8
	c-0.2-4.5-0.7-9.4,2-13s7.4-4.6,10.9-7.1c8.6-6.1,8.4-18.6,11.5-28.7c0.5-1.8,1.3-3.5,2.6-4.8C366.4,441.6,384.7,449.3,392.7,438.8
	L392.7,438.8z"/>
<circle fill="#E8F5FF" cx="430.9" cy="772.5" r="0.9"/>
<circle fill="#E8F5FF" cx="435.1" cy="775" r="0.9"/>
<circle fill="#E8F5FF" cx="439.5" cy="776.8" r="0.9"/>
<circle fill="#E8F5FF" cx="444.2" cy="777.6" r="0.9"/>
<circle fill="#E8F5FF" cx="448.9" cy="778.2" r="0.9"/>
<circle fill="#E8F5FF" cx="453.7" cy="778.2" r="0.9"/>
<circle fill="#E8F5FF" cx="458.6" cy="777.6" r="0.9"/>
<path opacity="0.1" enable-background="new    " d="M367,408.5c3.2,1.8,6,4.3,9.2,5.9c1.3,0.6,2.6,1.2,4,1.6l-0.4-0.1
	c-3.3-1.6-6-4.1-9.2-5.9c-1.3-0.7-2.7-1.3-4.2-1.7L367,408.5z M389,419.9c-1.8-1-3.6-1.9-5.5-2.5c0.7,0.3,1.3,0.6,1.9,1
	c5.9,3.8,7.6,12.7,3.7,18.5c-8,10.5-26.3,2.8-35.8,11.9c-1.3,1.4-2.1,3-2.6,4.8c-3.2,10.1-3,22.5-11.5,28.7
	c-3.6,2.5-8.3,3.6-10.9,7.1s-2.2,8.5-2,13c1,20.3-4.9,40.3-16.6,56.8c-3.9,5.5-8.6,10.6-14.4,14.1c-4.2,2.6-8.9,4.1-13.9,4.3
	c-0.6,0.4-1.2,0.7-1.9,1c6.6,1.5,13.6-0.3,19.4-3.8s10.4-8.6,14.4-14.1c11.8-16.5,17.6-36.5,16.6-56.8c-0.2-4.5-0.7-9.4,2-13
	s7.4-4.6,10.9-7.1c8.6-6.1,8.4-18.6,11.5-28.7c0.5-1.8,1.3-3.5,2.6-4.8c9.5-9.2,27.8-1.5,35.8-12C396.7,432.6,394.9,423.6,389,419.9
	L389,419.9z M362.4,605.9c0,0,14.6-1.5,17.5-1.2S362.4,605.9,362.4,605.9z M366.1,609.5c0,0,8.8-1.2,12.3,0S366.1,609.5,366.1,609.5
	z M367.4,613.3c0,0,10.8,1,12.7,0.4 M360.5,539.5c0,0,11,4.9,12,7.7s7.6,4.5,7.6,4.5"/>
<path fill="#444053" d="M351.8,440.4l0.7-0.9c0.1-0.1,0.2-0.1,0.3-0.1l1.4,0.5c0.1,0,0.2,0.1,0.2,0.3v1.2c0,0.1-0.1,0.2-0.2,0.3
	l-1.2,0.5c-0.1,0.1-0.3,0-0.4-0.1l-0.9-1.3C351.7,440.6,351.7,440.5,351.8,440.4L351.8,440.4z"/>
<path fill="#FFD2C6" d="M742.9,366.4l-11.3,24c0,0-1.7,4.5-2.7,5.3s-5.8,15.1-5.8,15.1L711,429.4l-0.8,1.3l-4.8-1.3l-3.3-12.4
	l0.2-3.6v-0.5c0,0,7.5-7.8,9.1-8.4c0,0,1.3,0.1,3.8-5.9s4.8-7.4,4.8-7.4l1.3-4.4l14-22.3c0,0,11.7-16.8,14.9-9.4
	S742.9,366.4,742.9,366.4z"/>
<path fill="#D38884" d="M606.6,391.5c-0.6,1.3-1,2.6-1.3,4c-0.1,0.4-0.2,0.7-0.2,1.1c-0.8,4-1.3,9-1.6,11.9
	c-0.1,1.5-0.2,2.4-0.2,2.4s-28.3-1.9-23.4-6.6c1.3-1.3,2.1-2.9,2.6-4.7c0.1-0.5,0.3-1,0.4-1.5c0.2-1.2,0.4-2.4,0.5-3.6v-0.9
	c0.1-2,0-3.9-0.3-5.9c0,0,9.2-0.1,16.2,0.7C603.8,389,607.5,389.9,606.6,391.5L606.6,391.5z"/>
<path fill="#FFD2C6" d="M696.1,536.6c0,0.4-0.2,0.8-0.4,1.2c-1.3,1.9-8.7,40.7-8.7,40.7c0.6,2.6-1.1,7.8-2.1,10.2
	s-3.5,14.7-3.5,14.7s-0.6,26.6-2.1,30.7s0.5,13,0.5,13c-0.2,4.1,2.3,8.4,3.8,10.6c0.1,0.1,0.2,0.3,0.3,0.4c0.5,0.7,0.8,1.1,0.8,1.1
	c0.4,0.8,1,1.5,1.7,2l0.3,0.3c2,1.3,4.3,2.3,6.7,2.8l0.2,0c1,0.2,1.6,0.3,1.6,0.3l0.6,3.3l-6.3,1.3l-12,0.8c0,0-14.1,1.1-10.9-5.2
	c0.2-0.4,0.4-0.9,0.6-1.3c0.1-0.3,0.2-0.6,0.3-0.9c1.9-6,0.6-13.4,0.6-13.4l-2.7-21.5c-4.5-19.9,3.5-42.1,3.5-42.1s-0.7-1.8,0.8-6.3
	s0-14.4,0-14.4s-0.8-12.7-1.9-19c-0.4-2.6-0.6-5.3-0.4-8c0-1.6,0.2-3.1,0.4-4.7l27-3.6C694.9,529.7,696.4,534.1,696.1,536.6
	L696.1,536.6z"/>
<path opacity="0.1" enable-background="new    " d="M695.7,667.9l-6.3,1.3l-12,0.8c0,0-14.1,1.1-10.9-5.2c0.2-0.4,0.4-0.9,0.6-1.3
	c0.1-0.3,0.2-0.6,0.3-0.9c2.4,0.1,4.9,0.6,7.2,1.4c4,1.5,7-2.5,7-2.5l2-3.7l0.3-0.5c0.5,0.7,0.8,1.1,0.8,1.1c0.5,0.9,1.2,1.7,2,2.3
	l-0.3,0.7l-1.9,4c0,0,2.4,0.3,5.8,0.8c1.3,0.4,2.7-0.4,3.1-1.7l0.2,0c1,0.2,1.6,0.3,1.6,0.3L695.7,667.9z"/>
<path fill="#626696" d="M701.5,670.8c-0.5,2.1-13.7,2.8-13.7,2.8s-7.3-0.7-9.4,1s-8.1,1.3-8.4,1.3s-3.4-0.1-4.7-5.9s1.6-6.6,1.8-6.6
	c2.6,0,5.1,0.5,7.5,1.5c4,1.5,7-2.5,7-2.5l2.2-4.3c0.5,0.7,0.8,1.1,0.8,1.1c0.5,0.9,1.2,1.7,2,2.3l-2.2,4.7c0,0,2.4,0.3,5.8,0.8
	c1.5,0.3,3-0.6,3.3-2.1c0-0.2,0.1-0.4,0.1-0.5c0-0.1,0-0.2,0-0.4c0,0,2.1,0.6,4.6,1.3C700.5,666,702,668.4,701.5,670.8L701.5,670.8z
	"/>
<path fill="#FFD2C6" d="M726.4,564.9c-0.3,1.9-0.6,6.8-0.6,6.8c1.1,4.1-1.7,13.9-1.7,13.9l-1.4,5.6c0.6,7.1-3.9,24.5-3.9,24.5
	s-3,16.1-4.6,23.1c-0.9,3.9-0.7,7.9,0.8,11.6c0.1,0.2,0.1,0.3,0.1,0.3c0,0.1,0.1,0.3,0.1,0.4c0,0.2,0.1,0.4,0.2,0.6
	c0.4,1,0.9,1.9,1.6,2.7c0.3,0.3,0.5,0.6,0.8,0.9c1.5,1.3,3.2,2.4,5,3.1l0.8,0.3c0.8,0.3,1.7,0.6,2.5,0.8l0.3,0.1l-0.6,3.7l-8.4-2.2
	l-11.2-3.6l-5.5-3.2l0.2-0.9v-0.1c0-0.3,0.1-0.5,0.2-0.9c0.9-4.9,3-18.6,1.9-28.7c-1.3-12.5,3.9-29.7,5.1-33.8
	c0.8-2.3,1.1-4.8,1-7.3c-2.1-3-2.5-15-2.5-15s-3.8-7.8-6.9-16c-1-2.7-1.8-5.5-2.3-8.3c-0.4-2-0.5-4-0.5-6.1c0,0,25.5-23.3,28.3-0.7
	c0.1,0.8,0.2,1.5,0.3,2.2C727.9,559.3,726.7,563,726.4,564.9L726.4,564.9z"/>
<path opacity="0.1" enable-background="new    " d="M726.4,659.5l-0.6,3.7l-8.4-2.2l-11.2-3.6l-5.5-3.2l0.2-0.9v-0.1
	c0-0.3,0.1-0.5,0.2-0.9l0.8-0.1h0.1c1.6-0.1,3.2,0.1,4.7,0.6c1.8,0.7,4.2,1.5,4.7,1.1c0.8-0.4,1.8-0.5,2.7-0.5l1.2-2.5l0.2-0.4
	c0.4,1,0.9,1.9,1.6,2.7c0.3,0.3,0.6,0.6,0.9,0.9v0.9l-0.1,1.3c1.2,0.8,2.6,1.4,4,1.9c0.4,0.1,0.8,0.1,1.1,0l0.8,0.3
	c0.8,0.3,1.7,0.6,2.5,0.8L726.4,659.5z"/>
<path fill="#626696" d="M722.3,667.4c-2.3-0.7-8-1.8-8.9-0.9s-8.7,0-8.7,0c-1.7,0-3.2-0.9-4-2.4c-1.6-2.5-0.3-10.7-0.3-10.7l0.6-0.1
	l1-0.1h0.1c1.6-0.1,3.2,0.1,4.7,0.6c1.8,0.7,4.2,1.5,4.7,1.1c0.8-0.4,1.8-0.5,2.7-0.5l1.3-2.9c0.4,1,0.9,1.9,1.6,2.7
	c0.3,0.3,0.6,0.6,0.9,0.9l-0.1,2.2c1.2,0.8,2.6,1.4,4,1.9c0.7,0.3,1.5,0,1.9-0.6c0.1-0.1,0.1-0.2,0.2-0.3c0.1,0.1,0.8,0.4,3.3,1.1
	c2.7-0.2,5.3,1,6.5,4.7S724.6,668.1,722.3,667.4L722.3,667.4z"/>
<path opacity="0.1" enable-background="new    " d="M696.1,536.6l-1.5,0.4c-1.1,0.3-2.3,0.6-3.5,0.7c-7.5,1-19.8,0.4-23.7,0.2
	c0-1.6,0.2-3.1,0.4-4.7l27-3.6C694.8,529.7,696.4,534.1,696.1,536.6L696.1,536.6z"/>
<path fill="#626696" d="M719.7,530c0,0-9.9,1.5-18,3.3c-2.7,0.6-5.2,1.2-7,1.8c-1.1,0.3-2.3,0.6-3.5,0.7c-9,1.3-25,0.1-25,0.1
	c-4.4-14.2,5.3-32.1,5.3-32.1c-0.2-1.4,2-5.8,2-5.8v-0.1l1.4-5.1h36.9l0.5,2.2l0.9,4.4l5.8,27.5L719.7,530z"/>
<path opacity="0.1" enable-background="new    " d="M725.4,538.7l-0.2,0.1l-4.3,1.9c-4.7,2.2-18.7,2.6-23.5,2.6
	c-0.4-2-0.5-4-0.5-6.1c0,0,25.5-23.3,28.3-0.7C725.2,537.2,725.3,537.9,725.4,538.7L725.4,538.7z"/>
<path fill="#626696" d="M726.1,536.5l-0.9,0.4l-4.3,1.9c-4.8,2.2-19.2,2.6-23.8,2.6h-1.2c-2.1-0.1-4.3-2.1-4.3-2.6
	c0-0.3-0.2-1.7-0.4-2.9l-0.3-1.8c0,0-9.5-4.1-14.3-7.4c-3.6-2.5-2.7-20-2-28.8c0.2-3,0.5-5,0.5-5l37.3,2.2l5.2,0.3l3,0.7l0.8,0.2
	c0,0,2.1,15.7,3.2,17c1.1,1.3,0.4,5.7,0.2,8.2c0,1.1-0.1,2.1-0.3,3.2c0,0,1.5,4.4,1.2,6.8C725.5,533.1,725.6,534.8,726.1,536.5
	L726.1,536.5z"/>
<path fill="#D38884" d="M557.5,526.3c-9.7-0.3-2.5-20.4-1.4-23.1s-1.7-9.3-1.7-9.3s-3.3-19.1-3.3-20.4c-0.2-2.6-0.5-5.2-1.1-7.8
	c-0.4-2.6,0.1-5.2,1.3-7.6c1.1-1.7,1-8.7,1-8.7v-9l2.1-2.9l5.5,5.2l1.5,1.4l2.7,10.1l-1,14.4l-0.5,14.1l3.3,19.5
	C566.1,502.3,567.2,526.6,557.5,526.3z"/>
<path opacity="0.1" enable-background="new    " d="M560.5,445.2l-8.2-3.4v-1.3l2.1-2.9l5.5,5.2L560.5,445.2L560.5,445.2z"/>
<path fill="#4C4981" d="M556.7,424.6c-1.1,2.6-1.8,5.3-2.3,8.1c-0.4,2.7-1.1,5.3-2.2,7.8l9.2,3.8L556.7,424.6z"/>
<path opacity="5.000000e-02" enable-background="new    " d="M556.7,424.6c-1.1,2.6-1.8,5.3-2.3,8.1c-0.4,2.7-1.1,5.3-2.2,7.8
	l9.2,3.8L556.7,424.6z"/>
<path fill="#D38884" d="M629.5,624.3l-0.8,1.6c0,0-0.8,5.4-0.8,5.5s-2.4,3.7-2.4,3.7l-6,1.3l-2.5-0.3c-0.1-1.5-0.4-2.9-0.7-4.4
	c-0.1-0.4-0.2-0.8-0.3-1.3c-0.9-3.3-2.3-6.5-4.2-9.5c0,0-4.4-10.9-6-12.3s-7.6-15.8-7-19.3c0.3-1.9,0.1-8.3-0.3-13.6
	c-0.3-4.3-0.5-8-0.5-8l15-8.9l1.8,2.8l1,1.6v1c-0.2,2.2-0.6,4.4-1.3,6.6c0,0-1.1,8.1,0,9.5s4.7,20.5,5.5,29.3c0,0.3,0,0.5,0.1,0.8
	c0.3,4,2.8,7.7,5.3,10.3l0.5,0.5C627,622.3,628.2,623.4,629.5,624.3z"/>
<path opacity="0.1" enable-background="new    " d="M617.1,636.1l2.5,0.3l6-1.3c0,0,2.4-3.6,2.4-3.7s0.8-5.5,0.8-5.5l0.8-1.6
	l0.1-0.2c-1.5-1-2.8-2.1-4.1-3.4l-0.4-0.4c0,0,0.8,5.2-3.7,7.6c-2.2,1.1-4,2-5.3,2.6L617.1,636.1z"/>
<path fill="#CEDDF9" d="M630.6,625.1l-0.8,1.9c0,0-0.8,5.4-0.8,5.5s-2.4,3.7-2.4,3.7l-6,1.3l-3.4-0.4c0-0.7-0.1-1.7-0.3-2.9
	c-0.1-0.7-0.3-1.5-0.4-2.4c1.3-0.6,3.3-1.6,5.9-2.9c4.5-2.3,3.7-7.6,3.7-7.6c1,1,2,1.9,3.1,2.8C629.7,624.5,630.3,624.9,630.6,625.1
	L630.6,625.1z"/>
<path opacity="0.1" enable-background="new    " d="M630.6,625.1l-0.8,1.9c0,0-0.8,5.4-0.8,5.5s-2.4,3.7-2.4,3.7l-6,1.3l-3.4-0.4
	c0-0.7-0.1-1.7-0.3-2.9c0.7,0,1.5,0.1,2.2,0.3c0,0,8.2,1.7,8.5-4.7c0.2-3.7,1-5.1,1.6-5.7C629.7,624.5,630.3,624.9,630.6,625.1
	L630.6,625.1z"/>
<path fill="#CC8294" d="M630,624.7c0,0-2-0.5-2.4,6s-8.5,4.7-8.5,4.7s-4-1-4,0.7c0.1,1.5,0.5,3,1.1,4.5c0,0,0.2,3.8,1,4.7
	s0.3,4.3,0.3,4.3s0.3,2.5,6.6,0c0,0,5.6-1.2,10.3-8.1c0.2-0.2-0.6-1,3.5-2.4s15.7-10.8,14.8-15.4c-0.2-1.5-1.3-2.8-2.8-3.3
	c-1.2-0.3-2.5-0.2-3.6,0.5c-1.1,0.6-2.2,1.1-3.4,1.6c-1.6,0.6-3.2,1-4.9,1.2c-1.3,0.1-2.5,0.3-3.8,0.7
	C632.7,624.6,631,625,630,624.7L630,624.7z"/>
<path fill="#D38884" d="M583.9,580.3c-0.9,0.8-1.7,1.6-2.3,2.6c-2.3,3.5-3.7,8.4-5.2,10.5c-2,2.7-2.6,8.1-2.6,8.1
	c-0.5,3.5-7.9,22.2-10,25.5s-4.8,12.3-4.8,12.3c-1.7,2.2-1.6,5.3-1.4,6.8c0,0.3,0.1,0.5,0.1,0.6l0,0.3l0,0.1l-2.7,4.7l-8.7-1.2
	l-4.4-3.1c0.4-0.6,0.7-1.2,1-1.9c2.4-5.4,4.1-15,4.1-15s2.4-11,2.2-13.5c0.1-3.5,0.3-7,0.7-10.4c0,0,6.8-21,9-24.4
	c0.9-1.3,1.5-2.9,1.7-4.5c0-0.3,0-0.7,0-1l3-2.9C563.4,573.9,587.7,577.3,583.9,580.3L583.9,580.3z"/>
<path opacity="0.1" enable-background="new    " d="M557.7,646.2c0,0,0,0.3,0,0.7v0.3l-2.7,4.7l-8.7-1.2l-4.5-3.1
	c0.4-0.6,0.7-1.2,1-1.9c2.2-0.6,7.2,1.2,7.2,1.2S555.4,647.9,557.7,646.2L557.7,646.2z"/>
<path fill="#CEDDF9" d="M555.6,658.6l-8.8,2.2l-8.1-6l0.4-3.4c0.6-0.4,1.1-0.8,1.5-1.4c0.6-0.7,1-1.5,1.2-2.4
	c0.5-2.5,8.2,0.2,8.2,0.2s5.6,1.1,7.8-0.7c-0.2,1.6,0,3.3,0.4,4.9c0.2,0.8,0.7,1.5,1.3,1.9C561.7,655.5,555.6,658.6,555.6,658.6
	L555.6,658.6z"/>
<path opacity="0.1" enable-background="new    " d="M555.6,658.6l-8.8,2.2l-8.1-6l0.4-3.4c0.6-0.4,1.1-0.8,1.5-1.4
	c0.6,0,1.2,0,1.8,0c1.4,0.1,4.6,5.9,4.6,5.9c8,0.5,10.4-2.1,11.3-4c0.2,0.8,0.7,1.5,1.3,1.9C561.7,655.5,555.6,658.6,555.6,658.6
	L555.6,658.6z"/>
<path fill="#CC8294" d="M546.8,656.9c0,0-3.2-5.8-4.6-5.9c-1.1-0.1-2.3-0.1-3.4,0c0,0-3.6,8.4-4.9,9.2s-3.2,4.7-3.2,4.7
	s9.4,9.1,18.5,7.4c2.9,0,5.7,0.7,8.3,2.1c4.2,2.2,21.8,0.5,23.9-3.3c1.6-2.9,2.2-5,0.8-6.5c-0.9-0.9-2.1-1.3-3.3-1.1
	c-2.2,0.3-7.2,0.2-11.5-5.1c0,0-8-7.3-8.7-7.3S559.4,657.8,546.8,656.9L546.8,656.9z"/>
<path opacity="0.1" enable-background="new    " d="M616,564.3L616,564.3c-0.6,0.7-4.5,4.9-5.6,5.2c-1.9,0.7-3.8,1.6-5.7,2.5
	c0,0-2.4,3.2-4.3,3.3c-0.6,0.1-1.1,0.2-1.7,0.5c-0.3-4.3-0.5-8-0.5-8l15-8.9l1.8,2.8c0.4,1.1,0.8,2.1,1,2.5L616,564.3z"/>
<path fill="#CEDDF9" d="M561.3,503.2c0,0-5.8,7.6,0,17.7s12,15.2,12,15.2l19.9,41.3c0,0,5.2-2.8,7.1-3s4.3-3.3,4.3-3.3
	c1.8-0.9,3.7-1.8,5.7-2.5c1.3-0.3,5.7-5.2,5.7-5.2s-2.2-4.8-1.7-6s-1.4-4.4-1.4-4.4c-0.6-1.6-1-3.2-1.3-4.9c0-1.3-2.1-4.3-2.1-4.3
	s-2-3.2-2-4.9s-3-8.5-3-8.5l-0.8-30L561.3,503.2z"/>
<path opacity="5.000000e-02" enable-background="new    " d="M616,563.3c0,0-4.4,4.9-5.6,5.2c-1.9,0.7-3.8,1.6-5.7,2.5
	c0,0-2.4,3.2-4.3,3.3c-1.4,0.3-2.7,0.8-3.9,1.4c-1.7,0.8-3.2,1.6-3.2,1.6l-19.9-41.3c-1.7-1.5-3.4-3.2-4.8-5
	c-2.7-3.2-5.1-6.6-7.2-10.2c-2.3-3.7-3.1-8.1-2.3-12.3c0.4-1.9,1.1-3.8,2.3-5.4l14.2-1l28.2-2l0.2,8.9l0.5,21.2c0,0,0.5,1.1,1,2.5
	c0.9,2.1,2,5,2,6.1c0,1.7,2,4.9,2,4.9s2.1,3,2.1,4.3c0.3,1.7,0.7,3.3,1.3,4.9c0,0,1.9,3.2,1.4,4.4S616,563.3,616,563.3L616,563.3z"
	/>
<path opacity="0.1" enable-background="new    " d="M583.9,580.3c-0.9,0.8-1.7,1.6-2.3,2.6c-8.6,0.6-18.6-3.9-21.2-5.1
	c0-0.3,0-0.7,0-1l3-2.9C563.3,573.9,587.7,577.3,583.9,580.3z"/>
<path fill="#CEDDF9" d="M609.3,512.5c0,0-1.3,4.4-1.7,6.3s-1.4,11.2-1.4,11.2l-0.5,2.6l-9,43.1l-2,9.4c-3.5,1.9-12.2-3.2-12.2-3.2
	c-10.1,1.1-22.6-5.4-22.6-5.4s2.1-6.6,1.6-10s2.8-6,2.8-6c-0.8-3,2-16.1,2-16.1s0.6-4.9,3-6.2s-0.3-3.2-1-4.3
	c-0.3-0.5-0.1-1.8,0.2-2.9c0.2-0.7,0.4-1.5,0.7-2.2c-6-6-7-15.5-7-20.7c0-1.3,0-2.6,0.2-3.8l13.1-2.3l28.5-5l2.9,9l0.7,2.3
	L609.3,512.5z"/>
<path opacity="0.1" enable-background="new    " d="M606.6,391.5c-0.6,1.3-1,2.6-1.3,4c-0.1,0.4-0.2,0.7-0.2,1.1
	c-2.8,1.8-4.5,1.8-8,1.8c-1.2,0-1.9-2.3-3-2.6c0,0-1.7-6.2-2.2-1c-3.3-0.7-6.2,1.9-8.5-0.4v-0.9c0.1-2,0-3.9-0.3-5.9
	c0,0,9.2-0.1,16.2,0.7C603.8,389,607.4,389.9,606.6,391.5L606.6,391.5z"/>
<path fill="#D38884" d="M613.1,380.9c0,9.7-7.9,17.6-17.6,17.6c-1.2,0-2.4-0.1-3.5-0.4c-9.5-2-15.7-11.3-13.7-20.8
	c2-9.5,11.3-15.7,20.8-13.7C607.2,365.4,613.1,372.6,613.1,380.9z"/>
<path opacity="0.1" enable-background="new    " d="M603.4,408.6c-0.1,1.5-0.2,2.4-0.2,2.4s-28.3-1.9-23.4-6.6
	c1.3-1.3,2.1-2.9,2.6-4.7l12.3,2c0,0,3.5,2.7,6.2,5.2C601.6,407.6,602.5,408.1,603.4,408.6L603.4,408.6z M607.7,509.4
	c-1.2,0.2-2.5,0.1-3.7-0.3c-0.5-0.2-1-0.4-1.5-0.7c-2.4-1.4-10.3,0.3-10.3,0.3s-21.5,1.4-22.5,0c-0.5-0.8-4.3-0.7-7.4-0.4
	c-1.3,0.1-2.4,0.2-3.2,0.3c0.4-1.9,1.1-3.8,2.3-5.4l14.2-1l28.5-5l2.9,9C607.3,508,607.7,509.4,607.7,509.4z"/>
<path fill="#4C4981" d="M594.7,402.6l-15.4-2.5c-0.5,1.2-1.6,2.2-2.9,2.5c-2.1,0.5-11.2,5.2-15.3,10.9l-4.1,5.7c0,0-3.3,4.1-2.2,7.4
	s2.4,14.6,2.4,14.6l1.6,12.5c0,0,3,9,2,13s0.5,20.6,0.5,20.6l-3.2,20.6c0,0,10.8-1.4,11.7,0s22.5,0,22.5,0s7.9-1.7,10.3-0.3
	c1.6,0.9,3.4,1.2,5.2,1c0,0-1.9-6.5-0.8-10.1s0.8-10.3,0.8-10.3s1.6-9.6,0.8-11.4s1.7-8.1,1.7-8.1l8.4-44.1c0,0-1-7.9-5.5-10.6
	s-9.5-3.5-12.2-6S594.7,402.6,594.7,402.6L594.7,402.6z"/>
<path fill="#D38884" d="M601.8,446.1v5.2l4.9,13.1l1.8,12.2c0,0,3.2,8.7,3.2,11.7s7.7,17.6,7.7,17.6s2.1,4.9,1.1,5.9
	s-10.2,21.8,1.3,21.2s7.9-22.5,7.9-22.5l-1.6-9.5c0,0-2.2-23.7-2.2-25.5c0,0-2.8-10.1-3.2-12.3s-2.4-13.4-2.4-13.4l-1.7-7.3
	L601.8,446.1z"/>
<path opacity="0.1" enable-background="new    " d="M596.3,462.6l-17.2,9.8l-5.3,8.1l7.1-7.2L596.3,462.6L596.3,462.6z M591.1,481.4
	c0,0-7.8,5.1-11.5,5.1s-12.2,8.8-12.2,8.8s12.1-7.8,13-7.6S591.1,481.4,591.1,481.4z M571.1,484.1c0,0-7.3,6.6-5.5,7.4
	s11.8-7.4,11.8-7.4H571.1z M603.6,460.4c0,0-5.7,7.7-4.2,7.6s5.9-4.5,5.9-4.5L603.6,460.4z M604.4,468c0,0-6.2,7-5.9,8.8
	S604.4,468,604.4,468z M605.9,471.5c0,0-4.2,7.4-2.4,9S605.9,471.5,605.9,471.5z M600.6,452.5c0,0-3.1,5.2-0.8,5.6s2.5,0,2.5,0
	L600.6,452.5z M601.4,433.4c-0.8,3.2-1.8,6.3-3.2,9.3c-0.5-1.5-0.9-3.1-1.2-4.7C598.3,436.3,599.8,434.8,601.4,433.4L601.4,433.4z
	 M610.8,372.3c-0.3,0.7-0.7,1.3-1.2,1.8c-0.8,0.7-1.5,1.6-2.2,2.5c-0.7,1.3-0.5,2.8-0.8,4.2s-1.1,3-2.5,3c-0.7-0.1-1.4-0.3-2.1-0.6
	c-0.7-0.3-1.4-0.3-2.1,0.1c-0.4,0.4-0.6,1-0.7,1.6c-0.2,1.2-0.3,2.5-0.2,3.7c0,0.5,0,1,0.1,1.5c0.2,1.6,0.5,3.3-0.3,4.7
	c-0.7,1.1-1.7,1.9-2.9,2.3c-1.3,0.5-2.7,0.9-4.1,1.1c-2.7,0.3-5.4,0.4-8.1,0.3c-0.2,0-0.5,0-0.7-0.1c-0.1,0-0.2-0.1-0.3-0.2
	c0.3-1.5,0.5-3,0.5-4.5c-7-6.7-7.3-17.9-0.5-24.9c6.7-7,17.9-7.3,24.9-0.5C608.9,369.4,610,370.7,610.8,372.3L610.8,372.3z"/>
<path fill="#1E1637" d="M603.5,357.3c-1.6-0.2-3.1,0.7-4.7,1c-3.3,0.7-6.6-0.8-10-0.8c-2.9,0.2-5.7,1-8.2,2.5c-2,1-3.9,2.3-5.5,3.8
	c-1.6,1.6-2.5,3.7-2.6,6c0,1.3,0.4,2.7-0.1,3.9c-0.3,0.6-0.7,1.3-1.2,1.8c-0.8,1.3-1.1,3-0.6,4.5c0.7,1.5,1.6,2.8,2.7,4
	c2.2,2.8,3.5,6.1,5.5,9.1c0.8,1.3,1.8,2.5,2.8,3.6c0.2,0.2,0.4,0.4,0.6,0.5c0.2,0.1,0.5,0.1,0.7,0.1c4.1,0.1,8.4,0.2,12.2-1.4
	c1.2-0.4,2.2-1.2,2.9-2.3c0.8-1.4,0.4-3.1,0.3-4.7c-0.2-1.7-0.1-3.5,0.1-5.2c0-0.6,0.3-1.1,0.7-1.6c0.6-0.4,1.4-0.4,2.1-0.1
	c0.6,0.3,1.4,0.6,2.1,0.6c1.4,0,2.3-1.6,2.5-3s0.1-2.9,0.8-4.2c0.6-0.9,1.3-1.7,2.1-2.5c2-2.5,2.6-5.8,1.8-8.9
	C609.6,361.3,606.7,357.6,603.5,357.3L603.5,357.3z"/>
<circle fill="#FFD2C6" cx="686.1" cy="391.1" r="15.3"/>
<path fill="#FFD2C6" d="M678.6,397.5c0,0,1.1,14.5-1.9,17.8s-10.7,9.6-10.7,9.6l2.4,9.9l13.4,1.5l15.7-16.7l-3.6-4.4
	c0,0-2.7-9.3-0.5-13.9S678.6,397.5,678.6,397.5z"/>
<path opacity="0.1" enable-background="new    " d="M711,429.4l-0.8,1.3l-4.8-1.3l-3.3-12.4l0.2-3.6l1-1.4c0,0,5.2,0.1,5,4.9
	C708.1,420.9,710.5,427.8,711,429.4L711,429.4z M721.3,498c0,0-3.8,0.8-8.1,1.4s-9.3,0.9-11.4-0.3c-3.4-2-22-1.5-27.4-1.2h-0.9
	l1.4-5.1h36.9l0.5,2.2l5.2,0.3l3,0.7C721,497.2,721.3,498,721.3,498L721.3,498z"/>
<path fill="#FFCDE5" d="M702.4,412.9c0,0,5.2,0.1,5,4.9s2.8,12.9,2.8,12.9l-1.2,2.7c0,0-1.7,6.6-0.4,8.3s6,1.7,3.3,15.3
	c0,0-0.6,10.2,0.8,13.5s1.4,11.3,3.6,14.6s5,11,5,11s-15.4,3.4-19.5,1.1s-28.8-1.2-28.8-1.2s0.1-4.1,0-4.6c-0.2-1,0-2.1,0.6-3
	c0.8-1.1,2.1-3,1.4-4.7s1.8-4.1,0.5-6.7s-2.9-3.1-2.6-4.5s-0.5-3.3-1.5-4.5s-7.3-13.7-7.3-13.7l-1.1-5.9c0,0-8.3-6-8.1-8.9
	s3.1-6.8,3.1-6.8l8-7.8c0,0,4.4,4.8,8.7,3.1s13.4-9.6,13.4-9.6s3.3-1.8,3.5-3.1s2.3-0.1,2.3-0.1s3-1.6,3.6-1s3.2,1,3.2,1
	L702.4,412.9z"/>
<path fill="#FFD2C6" d="M657.5,437.6l-2.5,2c0,0-2.6,4.6-3.2,12.9c-0.7,6.7-1.7,13.4-3.2,20l-5,8.9c0,0-8.2,17.2-9.3,21.8
	s-5.9,12.3-5.9,12.3s-16.5,14.8-5,17.5s11.9-11.8,11.9-11.8s2.7-3,3.1-5s15-27.8,15-27.8s5.1-6.9,4-10.6c0,0,6.6-15.6,6.6-19.5
	c-0.1-3.3-0.5-6.5-1.1-9.8l1.1-8.2L657.5,437.6z"/>
<path opacity="0.1" enable-background="new    " d="M691.7,470.3c0,0-11.6,6.1-13.9,6.4s9.8-1.3,9.8-1.3L691.7,470.3z M701.2,475
	c0,0-15.4,5.2-22.2,4.3C679,479.3,695.8,482.5,701.2,475z"/>
<path opacity="0.1" enable-background="new    " d="M702.1,476.7c0,0-13.9,8.7-22.1,7.3c0,0,19.1,3.8,22.1,1.8l-8.5-2.4
	C693.6,483.4,703.1,478.4,702.1,476.7z M686.1,364.2c-4-0.8-8.5-0.3-11.7,2.2c-2.4,1.9-4,4.7-6.6,6.1c-1.4,0.6-2.9,1.1-4.3,1.5
	c-5.4,2.2-8.5,7.8-7.7,13.5c0.4,2.4,1.5,4.5,2.1,6.9c1,4.1,0.1,8.5-0.9,12.6c-2.9,11.4-7.4,22.4-13.2,32.7c-0.5,0.6-0.7,1.4-0.7,2.2
	c0.1,0.5,0.4,1,0.8,1.4c5.5,6.3,14.4,8.5,22.8,8.8c3.1,0.1,6.3,0,9-1.5c1.7-1,3.3-2.4,4.4-4c2.9-4,4.3-8.9,4.1-13.8
	c-0.2-4-1.6-8-0.6-11.9c0.1-0.5,0.4-1,0.7-1.5c0.9-0.9,2.4-0.7,3.7-0.8c3.5-0.4,5.7-4.1,6.2-7.6s-0.5-7-0.5-10.5
	c0-4.6,1.4-9.1,4.1-12.9c1.2-1.6,2.6-3.2,3-5.2c0.5-2.5-1-4.3-2.2-6.3c-2-3.1-2.9-6.7-5.9-9C690.8,365.7,688.5,364.7,686.1,364.2z"
	/>
<path fill="#985C7E" d="M685.2,363.3c-4-0.8-8.5-0.3-11.7,2.2c-2.4,1.9-4,4.7-6.6,6.1c-1.4,0.6-2.9,1.1-4.3,1.5
	c-5.4,2.2-8.5,7.7-7.6,13.5c0.4,2.4,1.5,4.5,2.1,6.9c1,4.1,0.1,8.5-0.9,12.6c-2.9,11.4-7.3,22.4-13.2,32.7c-0.5,0.6-0.7,1.4-0.7,2.2
	c0.1,0.5,0.4,1,0.8,1.4c5.5,6.3,14.4,8.5,22.8,8.8c3.1,0.1,6.3,0,9-1.5c1.7-1,3.3-2.4,4.4-4c2.9-4,4.3-8.9,4.1-13.8
	c-0.2-4-1.6-8-0.6-11.9c0.1-0.5,0.4-1,0.7-1.5c0.9-0.9,2.4-0.7,3.7-0.8c3.5-0.4,5.7-4.1,6.2-7.6s-0.5-7-0.5-10.5
	c0-4.6,1.4-9.1,4.1-12.9c1.2-1.6,2.6-3.2,3-5.2c0.5-2.5-1-4.3-2.2-6.3c-2-3.1-2.9-6.7-5.9-9C689.9,364.7,687.6,363.7,685.2,363.3
	L685.2,363.3z"/>
<path opacity="0.1" enable-background="new    " d="M620.4,432.3c-0.3,2.1-0.3,4.3,0,6.5c-0.2,1.7,0,11.4,0,11.4
	c-5.2-1.6-18.5,1.6-18.5,1.6l-1.6-4.8c-0.9-1.2-1.6-2.5-2-3.9c-0.5-1.5-0.9-3.1-1.2-4.7c-0.7-3.3-1.2-6.6-1.5-9.9
	c-0.7-5,6.8-10.4,12.5-13.5s10.6,9.8,10.6,9.8S621,429.8,620.4,432.3z"/>
<path fill="#4C4981" d="M620.4,431.4c-0.3,2.1-0.3,4.3,0,6.5c-0.2,1.7,0,11.4,0,11.4c-5.2-1.6-18.5,1.6-18.5,1.6l-1.6-4.8
	c-0.9-1.2-1.6-2.5-2-3.9c-0.5-1.5-0.9-3.1-1.2-4.7c-0.7-3.3-1.2-6.6-1.5-9.9c-0.7-5,6.8-10.4,12.5-13.5s10.6,9.8,10.6,9.8
	S621,428.9,620.4,431.4z"/>
<path opacity="0.1" enable-background="new    " d="M680.1,511.6c0,0,3,14.2,8.1,18.1L680.1,511.6z"/>
<path opacity="0.2" enable-background="new    " d="M610.4,364.3c-0.3-0.9-0.7-1.7-1.2-2.5c0.1,0.2,0.2,0.4,0.2,0.6
	c0.9,3.1,0.2,6.4-1.8,8.9c-0.8,0.7-1.5,1.6-2.2,2.5c-0.7,1.3-0.5,2.8-0.8,4.2s-1.1,3-2.5,3c-0.7-0.1-1.4-0.3-2.1-0.6
	c-0.7-0.3-1.5-0.3-2.1,0.1c-0.4,0.4-0.6,1-0.7,1.6c-0.2,1.7-0.3,3.4-0.1,5.2c0.2,1.6,0.5,3.3-0.3,4.7c-0.7,1.1-1.7,1.9-2.9,2.3
	c-3.8,1.6-8.1,1.5-12.2,1.4c-0.2,0-0.5,0-0.7-0.1c-0.2-0.1-0.4-0.3-0.6-0.5c-1.1-1.1-2-2.3-2.8-3.6c-2-3-3.3-6.3-5.5-9.1
	c-0.6-0.8-1.3-1.5-1.8-2.3c0,0,0,0.1,0,0.1c0.7,1.5,1.6,2.8,2.7,4c2.2,2.8,3.5,6.1,5.5,9.1c0.8,1.3,1.8,2.5,2.8,3.6
	c0.2,0.2,0.4,0.4,0.6,0.5c0.2,0.1,0.5,0.1,0.7,0.1c4.1,0.1,8.4,0.2,12.2-1.4c1.2-0.4,2.2-1.2,2.9-2.3c0.8-1.4,0.4-3.1,0.3-4.7
	c-0.2-1.7-0.1-3.5,0.1-5.2c0-0.6,0.3-1.1,0.7-1.6c0.6-0.4,1.4-0.4,2.1-0.1c0.6,0.3,1.3,0.6,2.1,0.6c1.4,0,2.3-1.6,2.5-3
	s0.1-2.9,0.8-4.2c0.6-0.9,1.3-1.7,2.2-2.5C610.5,370.6,611.2,367.3,610.4,364.3L610.4,364.3z"/>
<path opacity="0.1" enable-background="new    " d="M655.8,389.8c-0.2-0.6-0.3-1.1-0.5-1.7C655.4,388.7,655.6,389.2,655.8,389.8z
	 M699.1,377.4c0,0.4,0,0.9-0.1,1.3c-0.4,2-1.9,3.6-3,5.2c-2.7,3.8-4.2,8.3-4.1,12.9c0,3.5,0.9,7,0.5,10.5s-2.7,7.2-6.1,7.6
	c-1.3,0.1-2.8-0.1-3.7,0.8c-0.4,0.4-0.6,0.9-0.7,1.5c-1,3.9,0.3,7.9,0.6,11.9c0.3,4.9-1.2,9.8-4.1,13.8c-1.2,1.6-2.7,3-4.4,4
	c-2.7,1.5-6,1.6-9,1.5c-8.2-0.3-17-2.4-22.5-8.5c-0.2,0.4-0.2,0.8-0.1,1.1c0.1,0.5,0.4,1,0.8,1.4c5.5,6.3,14.4,8.5,22.8,8.8
	c3.1,0.1,6.3,0,9-1.5c1.7-1,3.3-2.4,4.4-4c2.9-4,4.3-8.9,4.1-13.8c-0.2-4-1.6-8-0.6-11.9c0.1-0.5,0.4-1,0.7-1.5
	c0.9-0.9,2.4-0.7,3.7-0.8c3.5-0.4,5.7-4.1,6.2-7.6s-0.5-7-0.5-10.5c0-4.6,1.4-9.1,4.1-12.9c1.2-1.6,2.6-3.2,3-5.2
	C700.2,380.1,699.9,378.6,699.1,377.4L699.1,377.4z"/>
<path d="M1005,612.7c0,0-28.7-94.2,4.5-131.9c24.9-28.2,53.1-24.8,65.7-21.4c6.6,1.8,12.1,6.3,15.1,12.5
	c4.4,9.5,3.6,25-27.6,43.1c-52.2,30.2-55.5,71.7-55.5,71.7L1005,612.7z M1003.8,613.5c0,0,33.7-68.5,42.9-67c4.4,0.7,6.4,5,7.3,9.4
	c1.1,5.6,0.5,11.4-1.8,16.7C1047.4,583.5,1034.6,604.3,1003.8,613.5L1003.8,613.5z M1004.8,613.5c0,0-33.7-68.5-42.9-67
	c-4.4,0.7-6.4,5-7.3,9.4c-1.1,5.6-0.5,11.4,1.8,16.7C961.2,583.5,974,604.3,1004.8,613.5z M1062.6,629.5c0.9-0.7,1.6-1.8,1.9-2.9
	c0.3-1.2-0.2-2.4-1.3-3c-1.2-0.5-2.6,0.4-3.5,1.2s-2.1,1.8-3.4,1.7c1.4-1.2,2-3.1,1.6-4.9c-0.1-0.4-0.2-0.7-0.5-1
	c-0.7-0.7-1.9-0.4-2.7,0.2c-2.6,1.8-3.3,5.4-3.3,8.5c-0.1-1.2-0.1-2.4,0-3.5c0.1-1.2-0.4-2.4-1.3-3.1c-0.6-0.3-1.3-0.5-2-0.5
	c-1.2-0.2-2.4,0.2-3.3,0.9c-1,1.1-0.7,2.8,0.1,4c1,1.1,2.1,2,3.4,2.7c1,0.6,1.8,1.4,2.4,2.3c0.1,0.1,0.1,0.3,0.2,0.4h7.3
	C1059.8,631.7,1061.3,630.7,1062.6,629.5L1062.6,629.5z M934.4,601.9c0.9-0.7,1.6-1.8,1.9-2.9c0.3-1.2-0.3-2.4-1.3-2.9
	c-1.2-0.5-2.5,0.4-3.5,1.2s-2.1,1.8-3.4,1.7c1.4-1.2,2-3.1,1.6-4.9c-0.1-0.4-0.2-0.7-0.5-1c-0.7-0.7-1.9-0.4-2.7,0.2
	c-2.6,1.8-3.3,5.4-3.3,8.5c-0.1-1.2-0.2-2.3,0-3.5c0.1-1.2-0.4-2.4-1.3-3.1c-0.6-0.3-1.3-0.5-2-0.5c-1.2-0.2-2.4,0.2-3.3,0.9
	c-0.9,1.2-0.8,2.9,0.1,4c1,1.1,2.1,2,3.4,2.7c1,0.6,1.8,1.4,2.4,2.3c0.1,0.1,0.1,0.3,0.2,0.4h7.3C931.5,604.2,933,603.2,934.4,601.9
	L934.4,601.9z M977.1,629.5c0.9-0.7,1.6-1.8,1.9-2.9c0.3-1.2-0.3-2.4-1.3-3c-1.2-0.5-2.5,0.4-3.5,1.2s-2.1,1.8-3.4,1.7
	c1.4-1.2,2-3.1,1.6-4.9c0-0.4-0.2-0.7-0.5-1c-0.7-0.7-1.9-0.4-2.7,0.2c-2.6,1.8-3.3,5.4-3.3,8.5c-0.1-1.2-0.1-2.4,0-3.5
	c0.1-1.2-0.4-2.4-1.3-3.1c-0.6-0.3-1.3-0.5-2-0.5c-1.2-0.2-2.4,0.2-3.3,0.9c-1,1.1-0.7,2.8,0.1,4c1,1.1,2.1,2,3.4,2.7
	c1,0.6,1.8,1.4,2.4,2.3c0.1,0.1,0.1,0.3,0.2,0.4h7.3C974.3,631.7,975.8,630.7,977.1,629.5L977.1,629.5z M65.2,754.8
	c0,0-50.7,26.2-24.5,57c0,0,2.5,6.7,9.6,6.2c0,0-1.4-2.6,4-4.7c1.9-0.8,3.8-1.7,5.5-2.9c2.3-1.6,4-3.9,4.9-6.5
	c0,0,10.4-13.9,2.3-39.5c0,0,1-7.3,0.1-8.4l-6.2,8.4c0,0,6.4,4.3,7.1,10.5c0,0-6.6-10.5-8.1-9.3c-0.3,0.3-3.1,4.6-3.1,4.6
	s11,7.5,11.9,17.2c0,0-6.2-13.6-12.9-15.6l-3.8,6.9c0,0,12,7.3,13.4,18.4c0,0-7-14-14.1-16.8l-2.8,7.2c0,0,11.6,7.4,12.7,16.6
	c0,0-9.7-15.4-13.2-14.9c0,0-2.2,6.8-1.9,8.9c0,0,8.2,5.5,8.4,10.9c0,0-7.6-9.6-8.8-8.9c0,0-0.5,9.6,1.8,14.6c0,0-4-7.1-3.3-14.6
	c0,0-4,3.4-4.9,7.8c0,0-2.2-5.3,5-10.2c0,0,0.7-7.5,1.5-8.4c0,0-7.8,3.8-11.1,8.5c0,0,1.2-7,11.8-10.4l2.7-7.3
	c0,0-10.5,4.5-13.8,8.4c0,0,2.3-6.9,14.6-10.2l3.6-6.8c0,0-9.4,3.2-13.9,6.8c0,0,3.5-5.9,15.1-8.7l3-4.2c0,0-6.8,2.4-8.7,3.3
	s-2.3,0.4-2.3,0.4c3.5-2.9,7.7-4.9,12.2-5.5C59,763.6,65.7,755.3,65.2,754.8z M178.3,721.9c0,0-37.9,19.5-18.3,42.6
	c0,0,1.8,5,7.2,4.6c0,0-1.1-1.9,3-3.5c1.4-0.6,2.8-1.3,4.1-2.2c1.7-1.2,3-2.9,3.7-4.9c0,0,7.7-10.4,1.7-29.5c0,0,0.8-5.4,0.1-6.3
	l-4.6,6.3c0,0,4.8,3.2,5.3,7.9c0,0-5-7.9-6-7c-0.2,0.2-2.3,3.5-2.3,3.5s8.3,5.6,8.9,12.8c0,0-4.6-10.2-9.7-11.6l-2.8,5.1
	c0,0,9,5.5,10,13.7c0,0-5.2-10.5-10.6-12.6l-2.1,5.4c0,0,8.7,5.5,9.5,12.4c0,0-7.3-11.5-9.9-11.1c0,0-1.6,5.1-1.4,6.6
	c0,0,6.1,4.1,6.2,8.1c0,0-5.7-7.2-6.5-6.7c0,0-0.4,7.2,1.4,10.9c0,0-3-5.3-2.5-10.9c-1.8,1.6-3,3.6-3.6,5.8c0,0-1.6-4,3.7-7.6
	c0,0,0.5-5.6,1.1-6.3c0,0-5.8,2.8-8.3,6.3c0,0,0.9-5.2,8.8-7.8l2-5.5c0,0-7.9,3.3-10.3,6.3c0,0,1.8-5.2,10.9-7.6l2.7-5
	c0,0-7,2.4-10.4,5c0,0,2.6-4.4,11.3-6.5l2.2-3.2c0,0-5.1,1.8-6.5,2.5s-1.7,0.3-1.7,0.3c2.6-2.2,5.7-3.6,9.1-4.1
	C173.6,728.5,178.6,722.2,178.3,721.9L178.3,721.9z M22.9,607.3c0,0-21.2,10.9-10.2,23.8c0.6,1.6,2.2,2.7,4,2.6c0,0-0.6-1.1,1.7-2
	c0.8-0.3,1.6-0.7,2.3-1.2c0.9-0.7,1.6-1.6,2-2.7c0,0,4.3-5.8,1-16.5c0,0,0.4-3,0.1-3.5l-2.6,3.5c0,0,2.6,1.8,3,4.4
	c0,0-2.8-4.4-3.4-3.9c-0.1,0.1-1.3,1.9-1.3,1.9s4.6,3.1,4.9,7.2c0,0-2.6-5.7-5.4-6.5l-1.6,2.9c0,0,5,3.1,5.6,7.7c0,0-2.9-5.8-5.9-7
	l-1.2,3c0,0,4.9,3.1,5.3,6.9c0,0-4.1-6.4-5.5-6.2c-0.4,1.2-0.7,2.5-0.8,3.7c0,0,3.4,2.3,3.5,4.5c0,0-3.2-4-3.6-3.7
	c0,0-0.2,4,0.8,6.1c-1-1.9-1.5-4-1.4-6.1c-1,0.9-1.7,2-2,3.3c0,0-0.9-2.2,2.1-4.2c0,0,0.3-3.1,0.6-3.5c0,0-3.3,1.6-4.6,3.5
	c0,0,0.5-2.9,4.9-4.3l1.1-3.1c0,0-4.4,1.9-5.8,3.5c0,0,1-2.9,6.1-4.3l1.5-2.8c-2.1,0.7-4,1.6-5.8,2.8c0,0,1.5-2.5,6.3-3.6l1.2-1.8
	c0,0-2.8,1-3.6,1.4s-1,0.2-1,0.2c1.5-1.2,3.2-2,5.1-2.3C20.3,610.9,23.1,607.5,22.9,607.3L22.9,607.3z M901.2,98.1
	c0,0-27.5-22.8,22.7-59.5c0,0,24.9,47.6-8.5,63.7c0,0,0.6-23.5-2.5-23.5S901.2,98.1,901.2,98.1L901.2,98.1z M859.2,121.3
	c0,0-48.5,4.5-35.5-79.3c0,0,70,22,53.3,69.7c0,0-22.1-23.3-25-20.3S859.2,121.3,859.2,121.3z M628.5,228.5c0,0-48,8.4-41.8-76.2
	c0,0,71.5,16.2,58.8,65.1c0,0-23.9-21.4-26.6-18.2S628.5,228.5,628.5,228.5L628.5,228.5z M989,117.9c0,0,46.2,15.6,52.9-68.9
	c0,0-73.2,5.2-68,55.5c0,0,26.8-17.6,29-13.9S989,117.9,989,117.9L989,117.9z M745.3,142.7c0,0-46.1-15.9,0.4-86.9
	c0,0,54.7,48.9,19.8,85.5c0,0-10.5-30.3-14.4-28.8S745.3,142.7,745.3,142.7z M912.4,117.9c0,0-2.7-25.9,42.2-19.5
	c0,0-11.3,37.5-36.9,29c0,0,12.3-11.9,10.7-13.5S912.4,117.9,912.4,117.9z M867,171.7c0,0-2.7-25.9,42.2-19.5c0,0-11.3,37.6-36.9,29
	c0,0,12.3-12,10.7-13.5S867,171.7,867,171.7z M962.1,183.1c0,0-19.7-17.1,17.5-43c0,0,17.4,35.1-7.2,46.4c0,0,0.8-17.1-1.4-17.1
	S962.1,183.1,962.1,183.1z M882.7,329.9c0,0,24.4-9.3,29.7,35.7c0,0-39.2-1.3-37.5-28.2c0,0,14.7,8.8,15.8,6.9
	S882.7,329.9,882.7,329.9L882.7,329.9z M884.6,284.3c0,0-19.7-17.1,17.5-43c0,0,17.4,35.2-7.2,46.4c0,0,0.8-17.1-1.4-17.2
	S884.6,284.3,884.6,284.3z M733.1,235.8c0,0-23.6,11-32.1-33.6c0,0,39.2-1.5,39.4,25.5c0,0-15.3-7.8-16.2-5.7
	S733.1,235.8,733.1,235.8z M676,182.9c0,0-23.6,11-32.1-33.6c0,0,39.2-1.5,39.4,25.5c0,0-15.3-7.8-16.2-5.7S676,182.9,676,182.9z
	 M755.5,305.7c0,0-26,1-16.6-43.4c0,0,36.7,13.8,26.4,38.8c0,0-11.1-13.1-12.8-11.6S755.5,305.7,755.5,305.7L755.5,305.7z
	 M750.9,337.2c0,0,4.6,25.6-40.6,22.5c0,0,8.5-38.3,34.7-31.6c0,0-11.4,12.8-9.7,14.3S750.9,337.2,750.9,337.2L750.9,337.2z
	 M690.2,317.3c0,0-9.9,24.1-46.4-2.8c0,0,27.7-27.7,46.2-8c0,0-16.5,4.7-15.8,6.8S690.2,317.3,690.2,317.3L690.2,317.3z
	 M895.5,222.7c0,0-27.5-22.8,22.7-59.5c0,0,24.9,47.6-8.5,63.8c0,0,0.6-23.5-2.5-23.5S895.5,222.7,895.5,222.7L895.5,222.7z
	 M1009.1,175.7c0,0-20.1-29.5,38.3-50.9c0,0,10.7,52.7-25.8,58.9c0,0,7.1-22.4,4.1-23.2S1009.1,175.7,1009.1,175.7L1009.1,175.7z
	 M1006,268.6c0,0-27.5-22.8,22.7-59.5c0,0,24.9,47.6-8.5,63.7c0,0,0.6-23.5-2.5-23.5S1006,268.6,1006,268.6L1006,268.6z M956.9,313
	c0,0,10.9-34,63.6-1.1c0,0-34.9,40.8-62.3,15.9c0,0,22-8.2,20.9-11S956.9,313,956.9,313z M1027.3,288.3c0,0,10.9-34,63.6-1.1
	c0,0-34.9,40.8-62.3,15.9c0,0,22-8.2,20.9-11S1027.3,288.3,1027.3,288.3z M801.4,159.5c0,0-35.2-6.3-9.6-62.9
	c0,0,45.1,29.2,24.1,59.6c0,0-11-20.8-13.7-19.2S801.4,159.5,801.4,159.5z M717.7,172.7c0,0-35.4,5.2-29.1-56.6
	c0,0,52.1,13.3,41.8,48.9c0,0-17.1-16.2-19.1-13.9S717.7,172.7,717.7,172.7L717.7,172.7z M695.8,264.4c0,0-35.3,5.2-29.1-56.6
	c0,0,52.1,13.3,41.8,48.9c0,0-17.1-16.2-19.1-13.9S695.8,264.4,695.8,264.4z M658.4,292.2c0,0-30.5,18.6-48.9-40.7
	c0,0,53.1-8.1,57.5,28.7c0,0-22-8.2-23-5.3S658.4,292.2,658.4,292.2L658.4,292.2z M944.8,263.7c0,0-27.5-22.8,22.7-59.5
	c0,0,24.9,47.6-8.5,63.7c0,0,0.6-23.5-2.5-23.5S944.8,263.7,944.8,263.7L944.8,263.7z M352.1,438.8c0,0-5.1-6.5-7.4-6.7
	c0,0,0.5,1.8-0.3,2.7c-0.7,1.1-1.6,2.1-2.6,3c-1,0.7-1.5,1.3-0.8,2.5s1.6,3.1,3.2,2.7s6.2-3,7.1-3.1s-4.9-2.8-5.8-2.7
	c0,0,2.5-0.7,6.1,2.1L352.1,438.8z M348.2,432.4c0-1.2,0.5-2.4,1.4-3.3c0.4-0.4,0.9-0.6,1.5-0.6c1,0.3,1.9,0.8,2.7,1.4
	c0,0,3.2,1.8,4.8,0.1v0.6c0,0.8-0.2,1.5-0.5,2.3c-0.9,1.9-2.7,5.7-3.5,6.3l-0.8-0.4c0,0,1.1-5.4,0-6.8l-0.4,6.7H353l-4.2-4.9
	C348.4,433.5,348.2,433,348.2,432.4z M360.1,433.7c1.2-0.3,2.4-0.1,3.5,0.6c0.5,0.3,0.9,0.8,1,1.4c-0.1,1-0.3,2.1-0.8,3
	c0,0-1,3.5,1.1,4.7l-0.6,0.1c-0.8,0.2-1.5,0.2-2.3,0c-2.1-0.4-6.2-1.3-7-2l0.2-0.9c0,0,5.5-0.2,6.6-1.6l-6.6,1.2l-0.1-0.5l3.7-5.2
	C359.1,434.1,359.5,433.8,360.1,433.7L360.1,433.7z M362.2,445c0.7,1,0.9,2.3,0.6,3.5c-0.1,0.6-0.4,1.1-1,1.4c-1,0.3-2,0.4-3.1,0.3
	c0,0-3.6,0.3-4,2.6l-0.3-0.5c-0.4-0.6-0.7-1.4-0.8-2.1c-0.3-2.1-0.9-6.2-0.5-7.2l0.9-0.1c0,0,2.1,5.1,3.7,5.7l-3.3-5.8l0.4-0.2
	l6.2,1.8C361.4,444.2,361.9,444.6,362.2,445L362.2,445z M351.8,450.5c-0.8,0.9-1.9,1.5-3.1,1.6c-0.6,0.1-1.2-0.1-1.6-0.5
	c-0.6-0.9-1-1.8-1.2-2.8c0,0-1.4-3.4-3.7-3.1l0.4-0.5c0.5-0.6,1.1-1.1,1.8-1.4c1.9-0.9,5.7-2.8,6.7-2.6l0.4,0.8c0,0-4.3,3.5-4.3,5.3
	l4.5-4.9l0.3,0.3l0.2,6.4C352.3,449.5,352.2,450.1,351.8,450.5L351.8,450.5z"/>
<path stroke="#565987" stroke-miterlimit="10" d="M1070.7,472.8c0,0-84.7,26.5-65.7,139.9 M1021.2,482.3
	c0,0,11.7,7.9,8,19.7 M1062.2,489.3c0,0-7.1-7.3-15.8-3.3 M1028.7,525.8c0,0-12.5-6.3-15.8,1.6 M997.7,539c0,0,9.4-0.7,9.6,3.8
	 M1046.5,559.5c0,0-35.3,51.2-42.2,53.5 M1049.7,567.5h-8.3 M1039.8,586.2l-12.9,0.5 M1032,571.3l1.4,6.7 M1018.2,591.7l0.2,6.1
	 M962.2,559.5c0,0,35.3,51.2,42.2,53.5 M958.9,567.5h8.3 M968.8,586.2l12.9,0.5 M976.7,571.3l-1.4,6.7 M990.4,591.7l-0.3,6.1"/>
</svg>
