<svg xmlns="http://www.w3.org/2000/svg" viewBox="0 0 1089.1 792"><path opacity=".1" d="M604.9 382c-26.5 0-52.5 7.4-75.1 21.4-.6-78.3-64.2-141.4-142.4-141.4-16.9 0-33.8 3-49.6 8.9v-34.5C337.7 157.8 274 94 195.3 94S52.9 157.8 52.9 236.4v378h694.4v-90c0-78.6-63.8-142.4-142.4-142.4zm49.5-96.9c-10 10.1-10.6 25.6-10.6 25.6s15.5-.9 25.5-11 10.6-25.6 10.6-25.6-15.5.9-25.5 11zm-84.9-69c3.5 13.8 16.5 22.3 16.5 22.3s7.2-13.7 3.7-27.5-16.5-22.3-16.5-22.3-7.2 13.8-3.7 27.5zm180.9 130.8c-10 10.1-10.6 25.6-10.6 25.6s15.5-.9 25.5-11 10.6-25.6 10.6-25.6-15.6.9-25.5 11zm39.8 87c-1.2 14.1 8.3 26.5 8.3 26.5s11.3-10.6 12.5-24.8-8.3-26.5-8.3-26.5-11.3 10.7-12.5 24.8zm230.9-65.9c-1.2 14.1 8.3 26.5 8.3 26.5s11.3-10.6 12.5-24.8-8.3-26.5-8.3-26.5-11.3 10.7-12.5 24.8zm54.6-293v193.8c0 32.1-39.7 47.6-61.2 23.7l-.5-.6c-6.9-7.8-16.4-17.2-26-13.1-3 1.3-5.2 3.7-7.9 5.5 1.9 4.2 3.6 8.6 4.9 13 8.3 27.3 1.8 56.8-7 84s-20 54.2-21.5 82.7c-.7 13.7.8 27.4 2.4 41 3 25.9 6.1 52.2 16.9 75.9 5.9 13 14.3 26.1 12.5 40.2-46.6 2.1-93.2-3.9-137.8-17.5 30.9-31.1 30.8-80.4 28.8-124.1-1.6-35.2-3.3-70.5-5-105.7-.5-10.3-1.1-21-5.8-30.2-6.4-12.5-19.7-20.4-33.4-23.5s-28-2.3-42.1-1.4c-1-5.5 0-11.2 2.9-16 21.9 9.5 45.4 15 69.3 16.3 3 .1 6.4.1 8.6-1.9s2.6-5.4 2.7-8.4c.9-17.5-.7-35-4.7-52.1-.8.2-1.5.4-2.3.6-11.8 3.6-22.4 12.4-34.7 11.4-17.1-1.3-27.3-20.5-43.4-26.4-12.4-4.5-26-.5-38.9 1.8s-28.3 2.2-36.8-7.9c-10.7-12.7-4-32.8-11-47.9-9.9-21.5-39.8-21.9-63.3-19 9.4-14.2 23.4-24.7 39.7-29.9-8.3-14.9-37.6-14.3-37.4-31.3.1-6.6 5.3-11.9 10.2-16.4l22-20.1L637 57c-8.7-3.3-18.5-7.6-21.4-16.5-2.8-8.7 2.3-18 8.7-24.5l.2-.2A54.68 54.68 0 0 1 663.3 0h337.4c41.4 0 75 33.6 75 75z"/><path fill="none" stroke="#535461" stroke-width="2" stroke-miterlimit="10" d="M766.2 597.5s20-31.3 22.4-44.7c1.7-8.7 4-17.3 7-25.7"/><path d="M310.7 617.7c.8 10.1-9.1 17.8-18.5 21.5s-20.2 6-26.7 13.8c-1.8 2-3 4.6-3.3 7.3-.3 5.9 5.2 10.4 10.5 13.1 15.2 7.5 32.7 8.5 49.4 11.4s34.3 8.9 43.9 22.9c4.5 6.5 6.9 14.3 11.9 20.5 8 9.8 21.7 13.6 34.2 11.9s23.9-8.2 33.7-16.1c11-8.9 21.1-20 34.8-23.5 23.6-6.1 45.6 12.1 68.1 21.4 27.2 11.2 58.1 9.3 86.7 2.3 6.4-1.6 12.9-3.5 18.3-7.2 6.3-4.3 10.8-10.7 16.7-15.5 14.6-11.9 35.2-12.4 54-12.3l54.7.3c10.8.1 22.3-.1 31.4-6 9.3-6.1 14.2-17.7 13.6-28.7s-6.1-21.5-13.9-29.4c-17.3-17.6-43.3-22.6-67.8-26C625 583 505.8 584.3 387.1 585.7c-19.9.2-39.8.4-59.5 3.2-4.9.7-25.3 1.7-27.2 6.9-1.8 4.9 9.9 15.9 10.3 21.9z"/><circle fill="#FFD037" cx="797.9" cy="527.5" r="2.7"/><circle fill="#FFD037" cx="793.1" cy="526.2" r="2.7"/><path d="M299.2 720.9c14.9 0 26.9 2 26.9 4.5S314 730 299.2 730s-26.9-2-26.9-4.5 12-4.6 26.9-4.6zm-234.8-117s444.3-84.7 934 0-1177.3 71.7-934 0zm108.4 94.2c22.2 0 40.2 3 40.2 6.8s-18 6.8-40.2 6.8-40.2-3-40.2-6.8 18-6.8 40.2-6.8zm31.9 56.4c22.2 0 40.2 3 40.2 6.8s-18 6.8-40.2 6.8-40.2-3-40.2-6.8 18-6.8 40.2-6.8zM79.8 662.6c14.9 0 26.9 2 26.9 4.5s-12.1 4.5-26.9 4.5-26.9-2-26.9-4.5 12-4.5 26.9-4.5zm797 20.5c14.9 0 26.9 2 26.9 4.5s-12.1 4.5-26.9 4.5-26.9-2-26.9-4.5 12-4.5 26.9-4.5zm-170 44.4c14.9 0 26.9 2 26.9 4.5s-12.1 4.5-26.9 4.5-26.9-2-26.9-4.5 12-4.5 26.9-4.5zm122.7 4.6c35.9 0 65 4.9 65 11s-29.1 11-65 11-65-4.9-65-11 29.1-11 65-11zm-307.3 29.2c50.1 0 90.8 6.9 90.8 15.3S572.3 792 522.2 792s-90.8-6.9-90.8-15.3 40.7-15.4 90.8-15.4zm485.8-67.5c1.8-1.5 3.2-3.5 3.8-5.8.5-2.3-.5-5-2.7-5.9-2.5-.9-5.1.8-7.1 2.5s-4.3 3.7-6.9 3.3c2.7-2.5 4-6.2 3.2-9.8-.1-.7-.4-1.4-.9-2-1.4-1.5-3.8-.8-5.5.3-5.2 3.7-6.7 10.7-6.7 17.1-.5-2.3-.1-4.7-.1-7s-.7-5-2.7-6.2c-1.2-.7-2.6-1-4-1-2.3-.1-5 .2-6.5 1.9-2 2.1-1.5 5.7.3 8s4.3 3.8 6.8 5.4c1.9 1.2 3.6 2.7 4.8 4.6.1.3.3.5.3.8h14.7c3.4-1.6 6.4-3.7 9.2-6.2zm-692.2 20.8c1.8-1.5 3.2-3.5 3.8-5.8.5-2.3-.5-5-2.7-5.9-2.5-.9-5.1.8-7.1 2.5s-4.3 3.7-6.9 3.3c2.7-2.5 4-6.2 3.2-9.8-.1-.7-.4-1.4-.9-2-1.4-1.5-3.8-.8-5.5.3-5.2 3.7-6.6 10.7-6.7 17.1-.5-2.3-.1-4.7-.1-7s-.7-5-2.6-6.2c-1.2-.7-2.6-1-4-.9-2.3-.1-4.9.2-6.5 1.9-2 2.1-1.5 5.7.3 8s4.4 3.8 6.8 5.4c1.9 1.2 3.6 2.7 4.8 4.6.1.3.3.5.4.8h14.6c3.3-1.7 6.4-3.8 9.1-6.3zm675.5-16.5c22.2 0 40.2 3 40.2 6.8s-18 6.8-40.2 6.8-40.2-3-40.2-6.8 18-6.8 40.2-6.8z"/><path d="M998.8 471.3s-20.3 20.3-8.8 50.5-19.7 80.3-19.7 80.3l1-.2c41.8-7.4 62.5-55.1 39.3-90.6-8.7-13.2-15.8-28.6-11.8-40zm-220.7 75.5l10 8s-12.9 5.2-10-8zm23.6-4l-11.3 1.5c-.1 0 9.9 8.2 11.3-1.5zm-18.8-4l7.5 5.3c0-.1-9.1 3.8-7.5-5.3zm10.3-4.8s9.3-2.5 10.6-1.9.5 6.4-3.2 6.7-7.4-4.8-7.4-4.8zm-6.3-7s5.9 5.6 6.2 7-4.8 4.5-7.5 0 1.3-7 1.3-7zm-19.5-30.4c0 2.6-4.7 10.1-4.7 10.1s-4.7-7.5-4.7-10.1c0-2.6 2.1-4.7 4.7-4.7s4.7 2.1 4.7 4.7zm7.7 14.3c-1.4 2.2-9.4 5.9-9.4 5.9s.1-8.8 1.5-11c1.3-2.2 4.2-2.9 6.4-1.6 2.2 1.3 2.9 4.2 1.6 6.4 0 .2 0 .2-.1.3zm-.3 24.5c-2.3 1.2-11.1.4-11.1.4s4.6-7.6 6.9-8.7c2.3-1.2 5.1-.2 6.3 2.1 1.1 2.2.2 5-2.1 6.2zm-4.4 18.4c-2.1 1.5-10.8 2.2-10.8 2.2s3.2-8.2 5.3-9.8c2-1.6 5-1.3 6.6.7 1.6 2 1.3 5-.7 6.6-.2.1-.3.2-.4.3zm-14.5-36.5c1.9 1.8 10.5 3.7 10.5 3.7s-2.1-8.6-4-10.4c-1.9-1.7-4.9-1.6-6.6.3-1.7 1.8-1.7 4.6.1 6.4zM751 539c2.3 1.2 11.1.4 11.1.4s-4.6-7.5-6.9-8.7c-2.3-1.2-5.1-.4-6.3 1.9s-.4 5.1 1.9 6.3c0 0 .1 0 .2.1zm-1.9 21.7c2.1 1.5 10.9 2.2 10.9 2.2s-3.2-8.2-5.3-9.8c-2-1.6-5-1.3-6.6.7-1.6 2-1.3 5 .7 6.6l.3.3zm-633.4-12.9s-41-7-12.9 60.9c0 0 28.5-10.9 30.7-37.9.9-10.9-6.5-20.7-17.2-22.9l-.6-.1zm684.4 6l-12.5 1.1c-.1 0 6.6 11.5 12.5-1.1z"/><path d="M90.5 505.5c15.3 22.6 10.4 103.6 10.4 103.6s-77-25.5-92.4-48.1c-15.6-22.4-10.1-53.3 12.4-68.9s53.3-10.1 68.9 12.4c.2.3.4.6.7 1z"/><path fill="none" stroke="#535461" stroke-miterlimit="10" d="M998.8 471.3s-11.5 24.9 0 45.3c11.5 20.3 2 77.4-28.5 85.6"/><path fill="tomato" d="M1035 553.5s-23.2-3.7-25.3 17.1-44.6 23.7-44.6 23.7l.8.5c35.1 23 68.6 14.7 63.6-15.9-2-11.4-1.8-22.8 5.5-25.4z"/><path opacity=".2" fill="#F5F5F5" d="M1035 553.5s-23.2-3.7-25.3 17.1-44.6 23.7-44.6 23.7l.8.5c35.1 23 68.6 14.7 63.6-15.9-2-11.4-1.8-22.8 5.5-25.4z"/><path fill="none" stroke="#535461" stroke-miterlimit="10" d="M1035 553.5s-18 4-16.5 20.3-26.7 36-53.4 20.4"/><path fill="none" stroke="#535461" stroke-width="2" stroke-miterlimit="10" d="M761.9 573.7s-6.2-21.1 1.2-36.6c3.1-6.5 4.1-13.8 2.7-20.9-.7-3.4-1.7-6.6-3-9.8"/><path fill="#A8A8A8" d="M748.4 571.7s11.3-2.3 14.4-5.3 16.7-8.3 18.2-4.5 20.4 16.6 7.6 18.9-30.3 3-34 1.5-6.2-10.6-6.2-10.6z"/><path opacity=".2" d="M788.5 579.3c-12.9 2.3-30.3 3-34 1.5-2.9-1.2-4.9-6.7-5.7-9.3l-.4.1s2.3 9.1 6 10.6 21.2.8 34-1.5c3.7-.7 4.8-2.2 4.4-4.1-.3 1.3-1.5 2.2-4.3 2.7z"/><path fill="#A8A8A8" d="M665.4 639.5s34.4-6.9 43.6-16.1 50.5-25.3 55.1-13.8 62 50.5 23 57.4-91.8 9.2-103.3 4.6-18.4-32.1-18.4-32.1z"/><path opacity=".2" d="M787.1 662.8c-39 6.9-91.8 9.2-103.3 4.6-8.7-3.5-14.8-20.3-17.2-28.1l-1.2.2s6.9 27.5 18.4 32.1 64.3 2.3 103.3-4.6c11.3-2 14.5-6.7 13.3-12.6-1 3.9-4.9 6.9-13.3 8.4z"/><path opacity=".1" d="M90.5 505.5c15.3 22.6 10.4 103.6 10.4 103.6s-77-25.5-92.4-48.1c-15.6-22.4-10.1-53.3 12.4-68.9s53.3-10.1 68.9 12.4c.2.3.4.6.7 1z"/><path fill="none" stroke="#535461" stroke-miterlimit="10" d="M22 492.3s57.7 44.6 79.2 116.9M116.3 547.7s7.8 37.6-13.6 61"/><path d="M966.3 546.3s5.5 7.2-2.5 18-14.7 20-12 26.8c0 0 12.1-20.2 22-20.4s3.4-12.3-7.5-24.4zm-29 0s-5.5 7.2 2.5 18 14.7 20 12 26.8c0 0-12.1-20.2-22-20.4s-3.4-12.3 7.5-24.4z"/><path opacity=".1" d="M966.3 546.3c.5.7.9 1.5 1.1 2.3 9.6 11.3 14.7 21.8 5.5 22.1-8.6.3-19 15.7-21.4 19.5l.3.9s12.1-20.2 22-20.4 3.3-12.3-7.5-24.4zm-29 0c-.5.7-.9 1.5-1.1 2.3-9.6 11.3-14.8 21.8-5.5 22.1 8.6.3 19 15.7 21.4 19.5l-.3.9s-12.1-20.2-22-20.4-3.4-12.3 7.5-24.4z"/><path fill="#FFD037" d="M976.5 555.5c0 2.5-.3 4.6-.6 4.6s-.6-2-.6-4.6.4-1.3.7-1.3.5-1.3.5 1.3zm3.5 3c-2.2 1.2-4.2 1.9-4.3 1.6s1.5-1.5 3.7-2.7 1.3-.3 1.5 0 1.3-.1-.9 1.1zm-52.9-3c0 2.5.3 4.6.6 4.6s.6-2 .6-4.6-.3-1.3-.7-1.3-.5-1.3-.5 1.3zm-3.5 3c2.2 1.2 4.2 1.9 4.3 1.6s-1.5-1.5-3.7-2.7-1.3-.3-1.5 0-1.3-.1.9 1.1z"/><path fill="#A8A8A8" d="M928.8 590.2s15.4-.5 20-3.8 23.6-7.2 24.8-2 23.1 26.3 5.7 26.4-40.3-2.7-44.9-5.5-5.6-15.1-5.6-15.1z"/><path opacity=".2" d="M979.6 609c-17.3.1-40.3-2.7-44.9-5.5-3.5-2.1-4.9-9.8-5.4-13.4h-.5s1 12.4 5.6 15.2 27.6 5.7 44.9 5.5c5 0 6.7-1.8 6.6-4.5-.6 1.7-2.5 2.7-6.3 2.7z"/><path fill="none" stroke="#535461" stroke-width="2" stroke-miterlimit="10" d="M216.8 621.5s-14.1-47.7 2.6-82.8c7.1-14.7 9.2-31.3 6.1-47.3-1.6-7.6-3.8-15-6.7-22.2"/><path fill="#FC6681" d="M229.2 447c0 5.8-10.6 22.8-10.6 22.8S208 452.8 208 447c0-5.8 4.7-10.6 10.6-10.6 5.9 0 10.6 4.8 10.6 10.6zm17.5 32.4c-3.2 4.9-21.3 13.4-21.3 13.4s.3-20 3.5-24.9c3.2-4.9 9.7-6.3 14.6-3.1 5 3.1 6.4 9.7 3.2 14.6zm-.8 55.3c-5.2 2.6-25.1.8-25.1.8s10.4-17.1 15.6-19.7c5.2-2.7 11.6-.8 14.3 4.4 2.7 5.2.8 11.6-4.4 14.3-.1.1-.2.2-.4.2zm-10 41.8c-4.7 3.5-24.6 5-24.6 5s7.3-18.6 12-22.1c4.5-3.7 11.2-3 14.9 1.5 3.7 4.5 3 11.2-1.5 14.9-.3.2-.5.4-.8.7zm-32.7-82.6c4.2 4.1 23.7 8.3 23.7 8.3s-4.8-19.4-9-23.5c-4.2-4.1-10.9-4-15 .2-4 4.2-4 10.9.3 15-.1 0 0 0 0 0zm-11.1 49c5.2 2.6 25.1.8 25.1.8s-10.4-17.1-15.6-19.7c-5.2-2.6-11.6-.5-14.2 4.7-2.6 5.2-.5 11.5 4.7 14.2zm-4.2 49c4.7 3.5 24.7 5.1 24.7 5.1s-7.3-18.6-12-22.1c-4.5-3.7-11.2-3-14.9 1.5-3.7 4.5-3 11.2 1.5 14.9.2.3.4.5.7.6z"/><path fill="#A8A8A8" d="M183.6 618.5s17.1-3.4 21.7-7.9 25.1-12.5 27.4-6.8 30.8 24.9 11.4 28.3-45.6 4.5-51.3 2.3-9.2-15.9-9.2-15.9z"/><path opacity=".2" d="M244 630c-19.4 3.4-45.6 4.5-51.3 2.3-4.3-1.7-7.4-10-8.6-13.9l-.6.1s3.4 13.6 9.1 15.9 31.9 1.1 51.3-2.3c5.6-1 7.2-3.3 6.6-6.2-.4 1.9-2.3 3.3-6.5 4.1z"/><linearGradient id="a" gradientUnits="userSpaceOnUse" x1="857.211" y1="67.34" x2="857.211" y2="657.759" gradientTransform="rotate(180 633.695 368.955)"><stop offset="0" stop-color="gray" stop-opacity=".25"/><stop offset=".54" stop-color="gray" stop-opacity=".12"/><stop offset="1" stop-color="gray" stop-opacity=".1"/></linearGradient><path fill="url(#a)" d="M311.3 668.3s22.9 6.3 34-2.1 15.8-5.7 15.8-5.7 26.3-1.5 28.5-7.7-10.1-28.8-10.1-28.8c-.9-2-2.1-4.5-2.7-4.5l.1-9.5 3.8-39.9c8.8-22.5.2-51.7.2-51.7l-1.6-7.2c-.9-4.1-.4-8.3 1.5-12l16-32.2c.9-2.1 1.9-4.2 3-6.2 1-1.8 2.3-4.1 4-6.8.5-.8 1-1.6 1.6-2.4 1.9-3 4.3-6.4 7.1-10.4 7.1-9.8 10.8-22 12.7-31.1l.9 2.8h.4l.3.1h.1l.4.1h.2l4.9 62.5c.3 24.4 9.3 37.9 9.3 37.9l-1.2 53.8c1.7 13-2 30.3-3.7 37.2l-3.9 8.7c-3.1 1.5-5.2 4.5-5.7 7.9-.8 6.5-7.6 20.3-7.6 20.3-2.5 3.4-8.2 12.4-8.2 12.4s-2.8 8.6-1.1 11.8 15.6 2.9 15.6 2.9c15.9 3.5 28.1-5.1 27.3-10.9s2.5-7.4 2.5-7.4c6.3-2 5.7-6.3 5.7-6.3 1.4-8.8-.3-17.9-4.8-25.6l-1 2.3c-.3-4.6.4-9.3 1.9-13.7-.2.1-.4.3-.6.4l-.2.1h-.1c1-8.8 10.2-25.1 10.2-25.1 17-29.8 10.8-70.1 10.8-70.1l-2.6-12.5-.2-4.7c-.4-11.3.5-22.6 2.5-33.8.9-4.9 1.8-10.9 2.6-17.5 1.5-13.9 6.4-28.2 8.7-34.3l.7-.1h.1l2.8-.5h.2s.5-2.9 1-7.9c.3-3.2.5-7.2.5-11.8.1-14-2.1-27.9-6.3-41.2l.5-.7s1.2-1.6 3.4-4.5c4.1-5.2 10.4-13 18.2-21.9 14-16 9.9-32.1 9.9-32.1s-10.1-37-14.6-59.3c-2.6-12.7-7.4-21.3-11.1-26.4.8-3.5 1.3-7.1 1.4-10.7.3-6.6.1-13.5-2.9-19.4s-9.3-10.6-15.9-9.8c-.9.2-1.9.2-2.8 0-.8-.4-1.4-.9-1.9-1.6-3.9-5.3-4.1-12.5-2.9-18.9s3.7-12.6 4.8-19.1.6-13.7-3.5-18.8c-4.8-6-13.3-7.7-19.6-12.2-4.4-3.2-7.7-7.8-12.4-10.6s-9-1.8-14.1-.7c-8.5 1.8-16.6 2.6-24.7 6.3-8.2 3.7-15.5 9-21.5 15.6-2.1 2.1-3.8 4.7-4.8 7.6-2 6.6 1.9 13.7 1.1 20.5-.6 4.9-3.5 9.1-5.7 13.4s-4 9.5-2.2 14.1c2.8 7.1 12 8.6 18.6 12.4.9.4 1.7 1.1 2.2 1.9 1.6 2.9-1.7 5.9-3.8 8.4-1.2 1.5-2.1 3.2-2.5 5.1-5.6 2.3-9.7 7.2-10.9 13.2-2.3 10.1 1.2 22.9 4.3 31.3-3.3 18.8 1 26.2 4.2 29 3.3 2.8 5.3 6.7 5.6 11v.4c.2 3.4.6 6.8 1 10.2-.1-.8-.2-1.6-.3-2-2.6 4.9-7.6 17.2-10.4 38-.6 4.5-1.4 8.9-2.5 13.3-2 7.7-2.7 15.7-2.1 23.7l.5 6.8c-.5 0-1-.1-1.4-.5l3.5 6.5V378c0 4.9-.9 9.8-2.7 14.3-.3.7-.5 1.3-.8 2-.9 1.8-1.3 3.9-1.2 5.9-7.6 11.6-25 76.6-25 76.6-9.4 21.3.8 35.1.8 35.1s4.9 59.4 5.9 62.4 2.9 39.3 2.9 39.3v2.9c-.5-.2-1.1-.4-1.7-.5-8.3-.5-10.5 12.6-10.5 12.6l-17 16.2s-7.7-1.3-19.1 7.2 7.4 16.3 7.4 16.3zm168.6-343.1v-.2l-.5.3-.2.1h-.1l-7.9-27.4c-2.1-7.4-2.3-15.1-.6-22.6l6-26.4v-6.3l19.1 51c1.4 6.8-9.9 23.5-15.8 31.5z"/><path fill="#FDC2CC" d="M488.3 408.1s-7.7 18.8-9.7 36.8c-.7 6.5-1.6 12.4-2.5 17.3-2 11-2.8 22.2-2.5 33.4l.1 4.7 2.6 12.4s6.1 39.8-10.6 69.2c0 0-9.9 17.6-10.1 25.9l-6.7 2.6-13.5-3.8s6.5-23.3 4.4-39.7l1.2-53.2s-8.8-13.3-9.1-37.4l-5.1-66 61.5-2.2zm-61.5-9.4s-1.7 25.8-14.4 43.5-15.4 25.5-15.4 25.5l-15.7 31.8c-1.8 3.7-2.3 7.9-1.5 11.9l1.5 7.1s8.5 28.8-.1 51.1l-4.1 43h-23.9s-2-35.8-2.9-38.8-5.8-61.7-5.8-61.7-10-13.6-.8-34.7c0 0 20.9-78.8 26.5-77.4s56.6-1.3 56.6-1.3z"/><path opacity=".1" d="M378.9 518.4l-1.5-7.1c-.9-4-.4-8.2 1.5-11.9l15.7-31.8s2.7-7.7 15.5-25.5c12.2-17 14.2-41.5 14.4-43.4l2.4-.1s-1.7 25.8-14.4 43.5-15.4 25.5-15.4 25.5l-15.7 31.8c-1.8 3.7-2.3 7.9-1.5 11.9l1.5 7.1s8.5 28.8-.1 51.1l-4.1 43h-2.4l4.1-43c8.5-22.3 0-51.1 0-51.1zm74.2 89.4c.3-8.3 10.1-25.9 10.1-25.9 16.7-29.4 10.6-69.2 10.6-69.2l-2.6-12.4-.1-4.7c-.4-11.2.5-22.4 2.5-33.4.9-4.9 1.8-10.8 2.5-17.3 1.9-17.4 9.1-35.4 9.7-36.7l2.5-.1s-7.7 18.8-9.7 36.8c-.7 6.5-1.6 12.4-2.5 17.3-2 11-2.8 22.2-2.5 33.4l.1 4.7 2.6 12.4s6.1 39.8-10.6 69.2c0 0-9.9 17.6-10.1 25.9l-6.7 2.6-1.4-.3 5.6-2.3z"/><path fill="#D39999" d="M445.4 607.5c3.7 1.5 7.9 1 11.1-1.4-2.2 6.4-2.5 13.4-.9 20 2.7 10.9-25.5-8.8-25.5-8.8l6.1-13.8c0 .1 2.3 4.4 9.2 4z"/><path opacity=".1" d="M447.5 608.1c3.1.6 6.4-.1 9-2-2.2 6.4-2.5 13.4-.9 20 2.7 10.9-25.5-8.8-25.5-8.8l6.1-13.8s1.8 3.3 6.9 3.9c1.4.2 2.9.4 4.4.7z"/><path fill="#FDC2CC" d="M381.5 352.6h11.8v-66.8l-8.8-1.6-3 68.4z"/><path opacity=".05" d="M381.5 352.6h11.8v-66.8l-8.8-1.6-3 68.4z"/><path fill="#7E5659" d="M438.8 612.6s7.4-.5 10.8 6.2l4.1 3.2 2-4.7c4.4 7.7 6 16.6 4.7 25.3 0 0 .6 4.2-5.6 6.2 0 0-3.2 1.5-2.4 7.3s-11.2 14.2-26.8 10.8c0 0-13.6.3-15.3-2.9s1.1-11.7 1.1-11.7 5.6-8.9 8.2-12.2c0 0 6.7-13.7 7.4-20.1s7.8-10.8 11.8-7.4z"/><path fill="#D39999" d="M377.3 618.2l.1-9.4s-13.5 3.9-24.5-.5c0 0 .9 9.5-.6 10.8s5.1 13.5 5.1 13.5l7.4 7.7 12.7-4.6 3.4-10.8c0-.1-2.7-6.7-3.6-6.7z"/><path opacity=".1" d="M377.3 618.2l.1-9.4s-13.5 3.9-24.5-.5c0 0 .9 9.5-.6 10.8s5.1 13.5 5.1 13.5l7.4 7.7 12.7-4.6 3.4-10.8c0-.1-2.7-6.7-3.6-6.7z"/><path fill="#7E5659" d="M351.5 614.8s7.2.8 6.3 10 .4 0 .4 0 7.6 3.1 10.4 7.4 7.6-3.9 8-6.2 3.4-3.3 3.4-3.3 12 22.3 9.9 28.5-28 7.6-28 7.6-4.7-2.7-15.5 5.6-33.3 2-33.3 2-18.3-7.7-7.2-16 18.7-7.1 18.7-7.1l16.6-16c0-.1 2.2-12.9 10.3-12.5z"/><path fill="#865A61" d="M437.5 87.3c4.6 2.8 7.8 7.3 12.2 10.4 6.2 4.5 14.5 6.1 19.2 12.1 4 5.1 4.5 12.2 3.5 18.6s-3.5 12.5-4.7 18.9-.9 13.4 2.9 18.7c.4.7 1.1 1.3 1.8 1.6.9.2 1.9.2 2.8 0 6.5-.8 12.7 3.9 15.6 9.7s3.1 12.6 2.8 19.2c-.3 5.4-.9 10.8-3.2 15.6-4 8.2-12.4 13.2-20.6 17.1-5.4 2.5-10.8 4.7-16.4 6.6-3.8 1.3-7.9 2.5-11.9 1.8-6.9-1.2-11.7-7.4-18.2-9.9-5.3-2-11.2-1.3-16.9-.8-4.8.4-10.4.4-13.7-3.1-4.3-4.5-2.4-11.9-.2-17.7-6.9-.5-12.2-6.5-11.7-13.4.2-2.6 1.2-5.1 2.8-7.2 2.1-2.5 5.4-5.5 3.8-8.3-.5-.8-1.3-1.5-2.2-1.9-6.5-3.7-15.5-5.2-18.3-12.2-1.8-4.5 0-9.6 2.2-13.9s5-8.5 5.6-13.3c.8-6.8-3-13.8-1.1-20.3 1-2.8 2.6-5.4 4.7-7.5 5.9-6.5 13.1-11.8 21.1-15.4 7.9-3.6 15.9-4.4 24.2-6.2 5-.9 9.2-2.1 13.9.8z"/><path fill="#FDC2CC" d="M393.3 188.2s-19.2-1-22.8 15.4 7.9 39.8 7.9 39.8l14.9-55.2z"/><path opacity=".05" d="M393.3 188.2s-19.2-1-22.8 15.4 7.9 39.8 7.9 39.8l14.9-55.2z"/><path fill="#FDC2CC" d="M381 236.9l7.3 5.8 33.9 1.5 21.2-14.5 21.5-37c-13.2-3.4-18.5-12.4-20.5-21-1.3-5.8-1.4-11.7-.4-17.5 0 0-34.5-17.9-30.3 10 .6 3.4.7 6.9.3 10.4-2 16.3-17.9 13.3-17.9 13.3l-6.1 9.4-7 23-2 16.6z"/><path opacity=".1" d="M413.8 164.2c.6 3.4.7 6.9.3 10.4 9.9 4.5 21.5 3.5 30.5-2.9-1.3-5.8-1.4-11.7-.4-17.5-.1 0-34.7-17.9-30.4 10z"/><circle fill="#FDC2CC" cx="426.8" cy="145.5" r="30.6"/><path fill="#D39999" d="M405.2 231.1c.7.1 1.5.1 2.2.2 4 .4 20.8 1.3 30.3-10.1 10.7-12.8 24.9-28.5 25.5-29.2l14.5 4.4s-11.5-4.1-19.1 17.2c-3.4 9.2-.4 19.5 7.5 25.4 2.8 2 6 3.4 9.5 4v9.5l-5.9 26c-1.7 7.4-1.5 15 .6 22.3l9 31.9c-1.4.9-57.4 39-94.8 12.7.1-1.1 4.8-38.6 1.6-56.9-.8-4.7-1.4-9.4-1.7-14.2v-.3c-.3-4.2-2.3-8.1-5.5-10.8-3.4-3-7.9-11-3.4-32.2 1.1-5.2 2.8-10.4 5-15.3l12.5-28.4 11.6.2v.1c-1 1.3-14.4 18-15.9 28.8-1.5 10.3-3.2 13.4 16.5 14.7z"/><path fill="#FDC2CC" d="M487.4 201.4s11.3 9.7 15.8 31.7 14.4 58.6 14.4 58.6 4 16-9.7 31.7-22.9 28.1-22.9 28.1l-9 13.3c-1.5 2.3-3.8 3.9-6.5 4.6-4.1 1.1-10.4 1.9-15.9-1.1-4.1-2.3-5.9-7.3-4-11.7l2-4.6s-18.6 11.7-20.2 5.3 21.6-12.9 21.6-12.9 19.2-3.2 23-12.3c0 0 20.6-26.5 19-35.5L475 243s-24.8-3.3-16.3-31.2 28.7-10.4 28.7-10.4z"/><path fill="#7E5659" d="M368.4 402.6s45.5 9.1 56.1 7.9l1.1 3.8s17.3 3.9 56.3-2.3c2.5-.4 5.2-.9 7.9-1.4l.9-.2s.5-2.9 1-7.8c.9-11.2 1.3-32.8-6.6-55l-6.6-20.2s-40.5 24.3-67.4 22.1c-2.4-.2-4.8-.4-7.2-.5-5.5-.2-14 0-19.6-4.4l-11.6 2v33.2c0 4.8-.9 9.6-2.6 14.2-.3.7-.5 1.3-.8 2-.8 2-1.5 4.4-.9 6.6z"/><path opacity=".1" d="M425.7 404v10.3s19.9 4.4 65.1-3.8c0 0 .5-2.9 1-7.8-13.9 2.1-52.2 7.5-66.1 1.3zM368.4 402.6s45.5 9.1 56.1 7.9l1.1 3.8V404c-5.2 2.1-42.1-6.8-55.5-10.1-.3.7-.5 1.3-.8 2-.8 2.1-1.5 4.5-.9 6.7z"/><path fill="#7E5659" d="M478.6 391l3.4 20.9c2.5-.4 5.2-.9 7.9-1.4-1-6.1-3.4-20-2.7-22.4l-4.2-3.6-4.4 6.5z"/><path opacity=".1" d="M478.6 391l3.4 20.9c2.5-.4 5.2-.9 7.9-1.4-1-6.1-3.4-20-2.7-22.4l-4.2-3.6-4.4 6.5z"/><path opacity=".05" d="M408.8 349.5c-2.4-.2-4.8-.4-7.2-.5-5.4-.2-13.5 0-19.1-4.1l2-.3c5.6 4.4 14.1 4.2 19.6 4.4 2.4.1 4.8.3 7.2.5.8.1 1.6.1 2.4.1-1.7.1-3.3 0-4.9-.1zm70.7 62.5c2.6-.4 5.2-.9 7.9-1.4l.9-.2s.5-2.9 1-7.8c.9-11.2 1.3-32.8-6.6-55l-6.2-19c1.3-.7 2-1.2 2-1.2l6.6 20.2c7.9 22.2 7.5 43.8 6.6 55-.4 4.9-1 7.8-1 7.8l-.9.2c-2.7.5-5.4 1-7.9 1.4-18.2 2.9-31.7 3.6-40.9 3.5 12.9-.2 25.8-1.4 38.5-3.5zm-57.4-1.6v.1h-1.3c.5 0 1 0 1.3-.1z"/><ellipse fill="#D39999" cx="484.3" cy="391.5" rx="1.7" ry="3.5"/><path fill="#FDC2CC" d="M374.8 320c2.8-20.6 7.6-32.8 10.2-37.6.1.7.4 2.8.5 3.4.5 3 .1 6.8.2 10.6l-2.6 46.6 3.4 14.5c3.2 11.5-8.7 2.4-8.7 2.4-2.5 5.5-7 4.9-7 4.9l-.6-8.3c-.6-7.9.1-15.8 2.1-23.4 1.1-4.3 1.9-8.7 2.5-13.1z"/><path opacity=".05" d="M374.8 320c2.8-20.6 7.6-32.8 10.2-37.6.1.7.4 2.8.5 3.4.5 3 .1 6.8.2 10.6l-2.6 46.6 3.4 14.5c3.2 11.5-8.7 2.4-8.7 2.4-2.5 5.5-7 4.9-7 4.9l-.6-8.3c-.6-7.9.1-15.8 2.1-23.4 1.1-4.3 1.9-8.7 2.5-13.1z"/><path fill="#FDC2CC" d="M489.9 345c-2.2 2.8-3.4 4.4-3.4 4.4l-9 13.3c-1.5 2.3-3.8 3.9-6.5 4.6-4.1 1.1-10.4 1.9-15.9-1.1-4.1-2.3-5.9-7.3-4-11.7l2-4.6s-18.6 11.7-20.2 5.3 21.6-12.9 21.6-12.9 19.2-3.2 23-12.3c0 0 1.7-2.2 4-5.5"/><path fill="#7E5659" d="M478.6 367.3s-22-2.1-28.9-14.7l-3.1 10.3s23 15.9 28.3 13.9l3.7-9.5z"/><path opacity=".1" d="M478.6 367.3s-22-2.1-28.9-14.7l-3.1 10.3s23 15.9 28.3 13.9l3.7-9.5z"/><path fill="#7E5659" d="M378.6 361.5s-7.7 2.7-9.2 1.2l3.5 6.4 6.5-5-.8-2.6z"/><path opacity=".1" d="M378.6 361.5s-7.7 2.7-9.2 1.2l3.5 6.4 6.5-5-.8-2.6zm47.1 42.5v-13.3l-3.2 13.6 3.2-.3zm31.2-274.6c-1.9 2.6-5.1 3.9-8.2 4.3s-6.4.1-9.6 0c-5-.1-10.3.7-14.5 3.6-2.6 1.9-4.6 4.5-6.6 7-6.2 7.6-14.8 14.7-24.6 13.9-1.7 0-3.4-.7-4.6-1.9-.8-1.2-1.2-2.7-1.2-4.1-.4-6.2-.2-12.5.6-18.7.4-3.8 1.3-7.6 2.8-11.2 1.7-3.6 4-6.9 6.8-9.7 3.3-3.9 7.4-7.1 11.9-9.5 4.6-2.3 9.9-3.3 14.8-1.9 5.8 1.6 10.4 6.2 16 8.5 6.5 2.7 23.4 9.8 16.4 19.7z"/><path fill="#865A61" d="M456.9 128.2c-1.9 2.6-5.1 3.9-8.2 4.4s-6.4.1-9.6 0c-5-.1-10.3.7-14.5 3.6-2.6 1.9-4.6 4.5-6.6 7-6.2 7.6-14.8 14.7-24.6 13.9-1.7 0-3.4-.7-4.6-1.9-.8-1.2-1.2-2.7-1.2-4.1-.4-6.2-.2-12.5.6-18.7.4-3.8 1.3-7.6 2.8-11.2 1.7-3.6 4-6.9 6.8-9.7 3.3-3.9 7.4-7.1 11.9-9.5 4.6-2.3 9.9-3.3 14.8-1.9 5.8 1.6 10.4 6.2 16 8.5 6.4 2.6 23.4 9.7 16.4 19.6z"/><path fill="#FDC2CC" d="M384.5 344.6l-.1 3.7-.8-3.5.9-.2z"/><path opacity=".05" d="M384.5 344.6l-.1 3.7-.8-3.5.9-.2zm77.3-134.8c-8.5 27.9 16.3 31.2 16.3 31.2l19.9 53.3c1.6 9.1-19 35.5-19 35.5-1.4 3.4-5 6-8.9 7.9 2.3-1.4 4.1-3.4 5.3-5.8 0 0 20.6-26.5 19-35.5l-19.9-53.3s-24.8-3.3-16.3-31.2c2.8-9.3 7-13.6 11.3-15.1-3 2.3-5.7 6.4-7.7 13z"/><g opacity=".1"><path d="M462.2 235.2c1.2 1.4 2.5 2.7 4 3.8 2.8 2 6 3.4 9.5 4v1c-3.1-.7-6-2-8.6-3.8-1.9-1.4-3.5-3-4.9-5zm-76.9 40v.4c.3 4.7.9 9.5 1.7 14.2 3 17.3-.9 51.6-1.5 56.4-.3-.2-.6-.4-1-.6.1-1.1 4.8-38.6 1.6-56.9-.8-4.7-1.4-9.4-1.7-14.2v-.5c-.2-2.8-1.1-5.4-2.7-7.7 2.1 2.6 3.3 5.7 3.6 8.9zm18.5-86.5l-9.8-.2-12.5 28.4c-2.2 4.9-3.9 10-5 15.3-3.6 17.1-1.4 25.7 1.4 29.9-3.1-3.7-6.4-12.1-2.3-31.1 1.1-5.3 2.8-10.4 5-15.3l12.5-28.3 11.6.2v.1c-.2 0-.5.4-.9 1zm73.9 7.7h.2-.2z"/><path d="M474.1 196.2l-9.8-3c-.6.6-14.8 16.4-25.5 29.2-9.5 11.4-26.3 10.5-30.3 10.1-.7-.1-1.5-.1-2.2-.2-11-.7-15.3-2-16.7-4.8 2.1 2 6.6 3 15.8 3.6.7.1 1.5.1 2.2.2 4 .4 20.8 1.3 30.3-10.1 10.7-12.8 24.9-28.5 25.5-29.2l14.3 4.3c-1.2-.2-2.4-.3-3.6-.1z"/></g><path opacity=".1" d="M357.7 629.4s-13.8 3.8-16.5-2.2m104.4-.6s-16.1 4.1-19.8-2.3"/><linearGradient id="b" gradientUnits="userSpaceOnUse" x1="675.971" y1="115.714" x2="675.971" y2="261.714" gradientTransform="rotate(180 633.695 368.955)"><stop offset="0" stop-color="gray" stop-opacity=".25"/><stop offset=".54" stop-color="gray" stop-opacity=".12"/><stop offset="1" stop-color="gray" stop-opacity=".1"/></linearGradient><path fill="url(#b)" d="M649.7 555.9s-2-8-3.8-15.9c-.4-4.9-1.2-11.3-1.6-14v-.3c0-1.1-.4-2.1-1.1-2.9 1-2.9 4.6-13.8 4-17-.8-3.6-3.6-12.5-6.9-15.5-1-1.6-2.6-2.8-4.4-3.5-3.2-1.2-6.8-.9-9.7.8l-16.9 9.5c-6.8-1-12.3-1.8-12.3-1.8s-4.2-.5-9.4-1c-1.6-3.9-7-15.6-12.6-17.5-6-2-13 .7-14.5 1.3h-.1l-.2.1c-11 5.1-9.7 26.6-9.3 31.3-2 2.6-4.3 5.1-6.6 7.4-3.8 3.3-4.9 12-1.4 13.8 1.7.8 4 1.9 6.1 2.7-9.5 20.3-25.6 60.1-11.2 71.4 19.6 15.4 56.4 20.5 69 15.4.3.1.7 0 1-.1 0 0 20.5-4.9 25.2-10.3 3.6-4.5 6.1-9.8 7.2-15.4 5-4.4 8.3-10.3 9.6-16.8 2.4-12.5-.1-21.7-.1-21.7zm-12.8-43.6l.5-2.4.8.5c-.1.7-.3 1.4-.5 2.1l-.7 4.5-.1-4.7zm-3.8-20.2c.9.6 6.6 4.9 5.5 15.8l-.3-1.2c-.3-1.6-1.4-3.7-5.3-5-3.4-1-6.8-1.7-10.2-2.3 2.9-3 6.4-5.5 10.3-7.3zm-57.4 1.2c-4.4-.3-7.9-.5-8.4-.1h-.1c-.6-.1-1.1 0-1.7.2-1.7.4-3.3 1.2-4.8 2.2 2-11.2 7.8-12.1 9.1-12.2 2.7 2.9 4.6 6.2 5.9 9.9zm63.6 88.7c-.6-9.1-1.2-23.4-1.5-31.7l.5-.1c.6-.1 1.1-.2 1.7-.3.6 5.4 1.6 11.8 3.3 15.9 2.2 5.3-1.2 12.1-4 16.2z"/><path fill="#CD939C" d="M635.5 507.3l-11.4-3.5-12.3 4.4-.9 7.7 6.1 3.9 9.6-.3 8.5-4 1.5-7.3-1.1-.9z"/><path opacity=".2" d="M635.5 507.3l-11.4-3.5-12.3 4.4-.9 7.7 6.1 3.9 9.6-.3 8.5-4 1.5-7.3-1.1-.9z"/><path fill="#F6C6CD" d="M552.1 511.1s-3.1-26.7 9.2-32.1c0 0 6.6.3 9.5 5.1 0 0-9-.5-9.7 18.2l-9 8.8z"/><path opacity=".1" d="M552.1 511.1s-3.1-26.7 9.2-32.1c0 0 6.6.3 9.5 5.1 0 0-9-.5-9.7 18.2l-9 8.8z"/><path fill="#CD939C" d="M558.8 501.5s-9.5 12.7-13.2 16-4.8 11.9-1.4 13.7 10 4.3 10 4.3l4.6-34z"/><path opacity=".05" d="M558.8 501.5s-9.5 12.7-13.2 16-4.8 11.9-1.4 13.7 10 4.3 10 4.3l4.6-34z"/><path fill="#F6C6CD" d="M588.2 496.2s-6.2-16.3-12.7-18.5-14.4 1.5-14.4 1.5 9.6-1 15.5 15.8l11.6 1.2zm53.4 27.7s4.8-13.9 4.1-17.5-3.5-12.4-6.7-15.3-7.1 1.6-7.1 1.6 8.3 5 4.7 20.1l-1.1 6.7 6.1 4.4z"/><path opacity=".1" d="M641.6 523.9s4.8-13.9 4.1-17.5-3.5-12.4-6.7-15.3-7.1 1.6-7.1 1.6 8.3 5 4.7 20.1l-1.1 6.7 6.1 4.4z"/><path fill="#F6C6CD" d="M606.3 499.2l18.9-10.8c2.9-1.7 6.4-2 9.5-.8 1.7.6 3.2 1.8 4.3 3.4 0 0-9.1-.5-19.3 11.4l-13.4-3.2zm31.7 41.1s.5 17.2 3.9 25.5-6.8 19.9-6.8 19.9l1.9 10s8.7-5.6 11.2-18.1 0-21.6 0-21.6-7-28.1-6-31.1-4.2 15.4-4.2 15.4z"/><path opacity=".1" d="M638 540.3s.5 17.2 3.9 25.5-6.8 19.9-6.8 19.9l1.9 10s8.7-5.6 11.2-18.1 0-21.6 0-21.6-7-28.1-6-31.1-4.2 15.4-4.2 15.4z"/><path fill="#CD939C" d="M635.6 510s1.5 8.8-16.4 4.9l-12 104.8s19.9-4.8 24.5-10.2 8.1-15.7 7-19.4-2.5-46.3-2.5-46.3l-.6-33.8z"/><path fill="#CD939C" d="M555.9 521.9s-35.8 67.4-16.7 82.7 54.8 20.3 67.1 15.2c0 0 5.7 1.5 4.8-16.2s6.6-67.2 6.6-67.2l-61.8-14.5z"/><path fill="#F6C6CD" d="M557.1 524.9s-33.6 63.4-15.7 77.7 51.5 19.1 63.1 14.3c0 0 5.3 1.4 4.5-15.2s6.2-63.2 6.2-63.2l-58.1-13.6z"/><path opacity=".1" d="M634.9 551c-1.4 1-9.3-1.4-9.3-1.4-8.5-.6-5.5-15.3-3.9-21.1.4-1.5.7-2.3.7-2.3 4 5.1 11.1 2.9 11.1 2.9l.5 4c.7 6.2 1.9 17.2.9 17.9z"/><path fill="#F6C6CD" d="M635.1 550.5c-1.4 1-9.2-1.4-9.2-1.4-8.5-.6-5.5-15.3-3.9-21.1.4-1.5.7-2.4.7-2.4 4 5.1 11.1 2.9 11.1 2.9l.5 4c.7 6.2 1.8 17.3.8 18z"/><path opacity=".05" d="M635.1 550.9c-1.4 1-9.2-1.4-9.2-1.4-8.5-.6-5.5-15.3-3.9-21.1.4-1.5.7-2.3.7-2.3 4 5.1 11.1 2.9 11.1 2.9l.5 4c.7 6.1 1.8 17.2.8 17.9z"/><path opacity=".1" d="M634.2 532.6c-3.9-.5-9.8-3.3-12.3-4.6.4-1.5.7-2.4.7-2.4 4 5.1 11.1 2.9 11.1 2.9s.3 1.8.5 4.1z"/><path fill="#F6C6CD" d="M630.5 528s-9.7 25.2 6.6 22.3c0 0 7.6-.8 7.6-6.6s-1.9-18.5-1.9-18.5l-12.3 2.8z"/><path opacity=".1" d="M623.2 521.7s-4.9 20.4 10.8 12.8 5.7-12.8 5.7-12.8l-7.5-4.9-9 4.9z"/><path fill="#CD939C" d="M623.2 521.5s-4.9 20.4 10.8 12.8 5.7-12.8 5.7-12.8l-7.5-4.9-9 4.9z"/><path opacity=".1" d="M626.2 518.6s-4.5 1.2-2.2 5.7c1.1 2 1.6 4.3 1.5 6.5-.1 1.5 1 2.9 2.5 3.2 1.6.3 3.9-.1 6.8-2.7 0 0 5.8-2.2 5.4-5s-10-9.2-10-9.2l-4 1.5z"/><path fill="#F6C6CD" d="M626.2 518.4s-4.5 1.2-2.2 5.7c1.1 2 1.6 4.3 1.5 6.5-.1 1.5 1 2.9 2.5 3.2 1.6.3 3.9-.1 6.8-2.7 0 0 5.8-2.2 5.4-5s-10-9.2-10-9.2l-4 1.5z"/><circle opacity=".1" cx="632.3" cy="525.6" r="3"/><circle fill="#CD939C" cx="632.3" cy="525.4" r="3"/><path opacity=".1" d="M596 496.9s-28.3-3.5-29.7-2.4c0 0-15 2.6-15 30.6 0 0-.3 16.1 30.6 23.8 0 0 24.8 2.2 32.9-7.7s4.1-26.4 4.1-26.4 3.2-12.6 18.2-3.9c0 0 1.6-5-5.2-7.4s-35.9-6.6-35.9-6.6z"/><path fill="#CD939C" d="M596 496.4s-28.3-3.5-29.7-2.4c0 0-15 2.6-15 30.5 0 0-.3 16.1 30.6 23.8 0 0 24.8 2.2 32.9-7.7s4.1-26.4 4.1-26.4 3.2-12.6 18.2-3.9c0 0 1.6-5-5.2-7.4s-35.9-6.5-35.9-6.5z"/><path opacity=".1" d="M596.9 496.5s-27.5-3.3-28.9-2.3c0 0-14.6 2.4-14.6 28.8 0 0-.3 15.1 29.8 22.4 0 0 24.1 2 32-7.2s4-24.8 4-24.8 3.1-11.9 17.7-3.7c0 0 1.5-4.7-5-7s-35-6.3-35-6.2z"/><path fill="#F6C6CD" d="M596.9 496.2s-27.5-3.3-28.9-2.3c0 0-14.6 2.4-14.6 28.8 0 0-.3 15.1 29.8 22.4 0 0 24.1 2 32-7.2s4-24.8 4-24.8 3.1-11.9 17.7-3.7c0 0 1.5-4.7-5-7s-35-6.2-35-6.2z"/><path fill="#CD939C" d="M583.1 539.5s-7.5-3.4-7.8 3c0 0-2.5 6.5-2.7 7.2s.4 7.3 6.2 7.1c3.3 0 6.3-1.9 7.8-4.8 0 0 1.3-7.1 3-8.6s-1.3-3-2.4-3c-1.4-.2-2.8-.5-4.1-.9z"/><path opacity=".1" d="M582.1 538.5s-7.5-3.4-7.8 3c0 0-2.5 6.5-2.7 7.2s.4 7.3 6.2 7.1c3.3 0 6.3-1.9 7.8-4.8 0 0 1.3-7.1 3-8.6s-1.3-3-2.4-3c-1.4-.2-2.8-.5-4.1-.9z"/><path fill="#F6C6CD" d="M582.3 538.3s-7.5-3.4-7.8 3c0 0-2.5 6.5-2.7 7.2s.4 7.3 6.2 7.1c3.3 0 6.3-1.9 7.8-4.8 0 0 1.3-7.1 3-8.6s-1.3-3-2.4-3c-1.4-.2-2.7-.5-4.1-.9z"/><circle opacity=".1" cx="578.6" cy="550.8" r="2.7"/><circle fill="#CD939C" cx="578.6" cy="550.6" r="2.7"/><path fill="#CD939C" d="M603.9 565.4s-29.5-3.4-50-14c0 0-16.2 40.9-3.3 46.6s39.8 14.9 47.3 11.7c0 0 4.5.7 3-14.1s3-30.2 3-30.2z"/><path opacity=".1" d="M602.1 568.3s-29.5-3.2-50-13.2c0 0-16.2 38.4-3.3 43.8s39.8 14 47.3 11c0 0 4.5.7 3-13.3s3-28.3 3-28.3z"/><path fill="#F6C6CD" d="M602.6 568s-29.4-3.2-50-13.2c0 0-16.2 38.4-3.3 43.8s39.8 14 47.3 11c0 0 4.5.7 3-13.3s3-28.3 3-28.3z"/><path opacity=".1" d="M631.8 502.2c-6.6-2.3-35-6.2-35-6.2s-27.5-3.3-28.9-2.3c0 0-7.1 1.2-11.4 10.9 4.3-8.7 10.9-9.8 10.9-9.8 1.4-1 28.9 2.3 28.9 2.3s28.4 3.9 35 6.2c4.4 1.5 5.2 4.1 5.2 5.7l.3.2c.1 0 1.6-4.7-5-7zm-12.4 9.9c-.3.6-.6 1.2-.8 1.8 0 0 2.8 11.1-1.2 20.2 4.6-9.2 1.6-21.3 1.6-21.3s.3-.2.4-.7z"/></svg>