<?xml version="1.0" encoding="utf-8"?>
<!-- Generator: Adobe Illustrator 22.1.0, SVG Export Plug-In . SVG Version: 6.00 Build 0)  -->
<svg version="1.1" id="图层_1" xmlns="http://www.w3.org/2000/svg" xmlns:xlink="http://www.w3.org/1999/xlink" x="0px" y="0px"
	 viewBox="0 0 1081.2 638.5" enable-background="new 0 0 1081.2 638.5" xml:space="preserve">
<path fill="#65617D" d="M25.6,609.6h1055.6v28.9H25.6V609.6z"/>
<path opacity="0.1" d="M329.7,19.4h65c5.5,0,9.9,4.4,9.9,9.9v18.9c0,5.5-4.4,9.9-9.9,9.9h-65c-5.5,0-9.9-4.4-9.9-9.9
	V29.3C319.8,23.8,324.2,19.4,329.7,19.4z M414.5,19.4h65c5.5,0,9.9,4.4,9.9,9.9v18.9c0,5.5-4.4,9.9-9.9,9.9h-65
	c-5.5,0-9.9-4.4-9.9-9.9V29.3C404.6,23.8,409,19.4,414.5,19.4z M499.3,19.4h65c5.5,0,9.9,4.4,9.9,9.9v18.9c0,5.5-4.4,9.9-9.9,9.9
	h-65c-5.5,0-9.9-4.4-9.9-9.9V29.3C489.4,23.8,493.8,19.4,499.3,19.4z M584.1,19.4h65c5.5,0,9.9,4.4,9.9,9.9v18.9
	c0,5.5-4.4,9.9-9.9,9.9h-65c-5.5,0-9.9-4.4-9.9-9.9V29.3C574.2,23.8,578.6,19.4,584.1,19.4z M329.7,55.9h65c5.5,0,9.9,4.4,9.9,9.9
	v18.9c0,5.5-4.4,9.9-9.9,9.9h-65c-5.5,0-9.9-4.4-9.9-9.9V65.9C319.8,60.4,324.2,55.9,329.7,55.9z M414.5,55.9h65
	c5.5,0,9.9,4.4,9.9,9.9v18.9c0,5.5-4.4,9.9-9.9,9.9h-65c-5.5,0-9.9-4.4-9.9-9.9V65.9C404.6,60.4,409,55.9,414.5,55.9z M499.3,55.9
	h65c5.5,0,9.9,4.4,9.9,9.9v18.9c0,5.5-4.4,9.9-9.9,9.9h-65c-5.5,0-9.9-4.4-9.9-9.9V65.9C489.4,60.4,493.8,55.9,499.3,55.9z
	 M584.1,55.9h65c5.5,0,9.9,4.4,9.9,9.9v18.9c0,5.5-4.4,9.9-9.9,9.9h-65c-5.5,0-9.9-4.4-9.9-9.9V65.9
	C574.2,60.4,578.6,55.9,584.1,55.9z M246.7,92.4H308c6.5,0,11.8,5.3,11.8,11.8v15.1c0,6.5-5.3,11.8-11.8,11.8h-61.2
	c-6.5,0-11.8-5.3-11.8-11.8v-15.1C234.9,97.7,240.2,92.4,246.7,92.4z M416.4,92.4h61.2c6.5,0,11.8,5.3,11.8,11.8v15.1
	c0,6.5-5.3,11.8-11.8,11.8h-61.2c-6.5,0-11.8-5.3-11.8-11.8v-15.1C404.6,97.7,409.9,92.4,416.4,92.4z M501.2,92.4h61.2
	c6.5,0,11.8,5.3,11.8,11.8v15.1c0,6.5-5.3,11.8-11.8,11.8h-61.2c-6.5,0-11.8-5.3-11.8-11.8v-15.1C489.4,97.7,494.7,92.4,501.2,92.4z
	 M586,92.4h61.2c6.5,0,11.8,5.3,11.8,11.8v15.1c0,6.5-5.3,11.8-11.8,11.8H586c-6.5,0-11.8-5.3-11.8-11.8v-15.1
	C574.2,97.7,579.5,92.4,586,92.4z M331.5,129h61.2c6.5,0,11.8,5.3,11.8,11.8v15.1c0,6.5-5.3,11.8-11.8,11.8h-61.2
	c-6.5,0-11.8-5.3-11.8-11.8v-15.1C319.8,134.3,325,129,331.5,129z M416.4,129h61.2c6.5,0,11.8,5.3,11.8,11.8v15.1
	c0,6.5-5.3,11.8-11.8,11.8h-61.2c-6.5,0-11.8-5.3-11.8-11.8v-15.1C404.6,134.3,409.9,129,416.4,129z M501.2,129h61.2
	c6.5,0,11.8,5.3,11.8,11.8v15.1c0,6.5-5.3,11.8-11.8,11.8h-61.2c-6.5,0-11.8-5.3-11.8-11.8v-15.1C489.4,134.3,494.7,129,501.2,129z
	 M246.7,165.5H308c6.5,0,11.8,5.3,11.8,11.8v15.1c0,6.5-5.3,11.8-11.8,11.8h-61.2c-6.5,0-11.8-5.3-11.8-11.8v-15.1
	C234.9,170.8,240.2,165.5,246.7,165.5z M246.7,275.1H308c6.5,0,11.8,5.3,11.8,11.8v15.1c0,6.5-5.3,11.8-11.8,11.8h-61.2
	c-6.5,0-11.8-5.3-11.8-11.8v-15.1C234.9,280.4,240.2,275.1,246.7,275.1z M416.4,165.5h61.2c6.5,0,11.8,5.3,11.8,11.8v15.1
	c0,6.5-5.3,11.8-11.8,11.8h-61.2c-6.5,0-11.8-5.3-11.8-11.8v-15.1C404.6,170.8,409.9,165.5,416.4,165.5z M501.2,165.5h61.2
	c6.5,0,11.8,5.3,11.8,11.8v15.1c0,6.5-5.3,11.8-11.8,11.8h-61.2c-6.5,0-11.8-5.3-11.8-11.8v-15.1
	C489.4,170.8,494.7,165.5,501.2,165.5z M586,165.5h61.2c6.5,0,11.8,5.3,11.8,11.8v15.1c0,6.5-5.3,11.8-11.8,11.8H586
	c-6.5,0-11.8-5.3-11.8-11.8v-15.1C574.2,170.8,579.5,165.5,586,165.5z M670.8,55.9H732c6.5,0,11.8,5.3,11.8,11.8v15.1
	c0,6.5-5.3,11.8-11.8,11.8h-61.2c-6.5,0-11.8-5.3-11.8-11.8V67.7C659,61.2,664.3,55.9,670.8,55.9z M665.8,129h71.3
	c3.7,0,6.8,3,6.8,6.8V161c0,3.7-3,6.8-6.8,6.8h-71.3c-3.7,0-6.8-3-6.8-6.8v-25.2C659,132,662,129,665.8,129z M665.8,165.5h71.3
	c3.7,0,6.8,3,6.8,6.8v25.2c0,3.7-3,6.8-6.8,6.8h-71.3c-3.7,0-6.8-3-6.8-6.8v-25.2C659,168.5,662,165.5,665.8,165.5z M331.3,202.1
	H393c6.4,0,11.6,5.2,11.6,11.6v15.6c0,6.4-5.2,11.6-11.6,11.6h-61.7c-6.4,0-11.6-5.2-11.6-11.6v-15.6
	C319.8,207.3,324.9,202.1,331.3,202.1z M416.1,202.1h61.7c6.4,0,11.6,5.2,11.6,11.6v15.6c0,6.4-5.2,11.6-11.6,11.6h-61.7
	c-6.4,0-11.6-5.2-11.6-11.6v-15.6C404.6,207.3,409.7,202.1,416.1,202.1z M501,202.1h61.7c6.4,0,11.6,5.2,11.6,11.6v15.6
	c0,6.4-5.2,11.6-11.6,11.6H501c-6.4,0-11.6-5.2-11.6-11.6v-15.6C489.4,207.3,494.6,202.1,501,202.1z M585.8,202.1h61.7
	c6.4,0,11.6,5.2,11.6,11.6v15.6c0,6.4-5.2,11.6-11.6,11.6h-61.7c-6.4,0-11.6-5.2-11.6-11.6v-15.6
	C574.2,207.3,579.4,202.1,585.8,202.1z M246.5,238.5h61.7c6.4,0,11.6,5.2,11.6,11.6v15.6c0,6.4-5.2,11.6-11.6,11.6h-61.7
	c-6.4,0-11.6-5.2-11.6-11.6v-15.6C234.9,243.7,240.1,238.5,246.5,238.5z M161.7,238.5h61.7c6.4,0,11.6,5.2,11.6,11.6v15.6
	c0,6.4-5.2,11.6-11.6,11.6h-61.7c-6.4,0-11.6-5.2-11.6-11.6v-15.6C150.1,243.7,155.3,238.5,161.7,238.5z M140.6,0h61.7
	c6.4,0,11.6,5.2,11.6,11.6v15.6c0,6.4-5.2,11.6-11.6,11.6h-61.7c-6.4,0-11.6-5.2-11.6-11.6V11.6C129,5.2,134.2,0,140.6,0z
	 M88.6,38.7h61.7c6.4,0,11.6,5.2,11.6,11.6v15.6c0,6.4-5.2,11.6-11.6,11.6H88.6c-6.4,0-11.6-5.2-11.6-11.6V50.3
	C77,43.9,82.2,38.7,88.6,38.7z M11.6,180.5h61.7c6.4,0,11.6,5.2,11.6,11.6v15.6c0,6.4-5.2,11.6-11.6,11.6H11.6
	C5.2,219.2,0,214,0,207.7V192C0,185.7,5.2,180.5,11.6,180.5z M54,219.2h61.7c6.4,0,11.6,5.2,11.6,11.6v15.6
	c0,6.4-5.2,11.6-11.6,11.6H54c-6.4,0-11.6-5.2-11.6-11.6v-15.6C42.4,224.4,47.6,219.2,54,219.2z M331.3,238.5H393
	c6.4,0,11.6,5.2,11.6,11.6v15.6c0,6.4-5.2,11.6-11.6,11.6h-61.7c-6.4,0-11.6-5.2-11.6-11.6v-15.6
	C319.8,243.7,324.9,238.5,331.3,238.5z M416.1,238.5h61.7c6.4,0,11.6,5.2,11.6,11.6v15.6c0,6.4-5.2,11.6-11.6,11.6h-61.7
	c-6.4,0-11.6-5.2-11.6-11.6v-15.6C404.6,243.7,409.7,238.5,416.1,238.5z M501,238.5h61.7c6.4,0,11.6,5.2,11.6,11.6v15.6
	c0,6.4-5.2,11.6-11.6,11.6H501c-6.4,0-11.6-5.2-11.6-11.6v-15.6C489.4,243.7,494.6,238.5,501,238.5z M585.8,238.5h61.7
	c6.4,0,11.6,5.2,11.6,11.6v15.6c0,6.4-5.2,11.6-11.6,11.6h-61.7c-6.4,0-11.6-5.2-11.6-11.6v-15.6
	C574.2,243.7,579.4,238.5,585.8,238.5z M415.8,275.1h62.4c6.2,0,11.2,5,11.2,11.2v16.3c0,6.2-5,11.2-11.2,11.2h-62.4
	c-6.2,0-11.2-5-11.2-11.2v-16.3C404.6,280.2,409.6,275.1,415.8,275.1z M500.6,275.1H563c6.2,0,11.2,5,11.2,11.2v16.3
	c0,6.2-5,11.2-11.2,11.2h-62.4c-6.2,0-11.2-5-11.2-11.2v-16.3C489.4,280.2,494.4,275.1,500.6,275.1z M246.1,311.6h62.4
	c6.2,0,11.2,5,11.2,11.2v16.3c0,6.2-5,11.2-11.2,11.2h-62.4c-6.2,0-11.2-5-11.2-11.2v-16.3C234.9,316.6,239.9,311.6,246.1,311.6z
	 M331,311.6h62.4c6.2,0,11.2,5,11.2,11.2v16.3c0,6.2-5,11.2-11.2,11.2H331c-6.2,0-11.2-5-11.2-11.2v-16.3
	C319.8,316.6,324.8,311.6,331,311.6z M331,348.1h62.4c6.2,0,11.2,5,11.2,11.2v16.3c0,6.2-5,11.2-11.2,11.2H331
	c-6.2,0-11.2-5-11.2-11.2v-16.3C319.8,353.2,324.8,348.1,331,348.1z M415.8,311.6h62.4c6.2,0,11.2,5,11.2,11.2v16.3
	c0,6.2-5,11.2-11.2,11.2h-62.4c-6.2,0-11.2-5-11.2-11.2v-16.3C404.6,316.6,409.6,311.6,415.8,311.6z M500.6,311.6H563
	c6.2,0,11.2,5,11.2,11.2v16.3c0,6.2-5,11.2-11.2,11.2h-62.4c-6.2,0-11.2-5-11.2-11.2v-16.3C489.4,316.6,494.4,311.6,500.6,311.6z
	 M585.4,311.6h62.4c6.2,0,11.2,5,11.2,11.2v16.3c0,6.2-5,11.2-11.2,11.2h-62.4c-6.2,0-11.2-5-11.2-11.2v-16.3
	C574.2,316.6,579.2,311.6,585.4,311.6z M415.8,348.2h62.4c6.2,0,11.2,5,11.2,11.2v16.3c0,6.2-5,11.2-11.2,11.2h-62.4
	c-6.2,0-11.2-5-11.2-11.2v-16.3C404.6,353.2,409.6,348.2,415.8,348.2z M500.6,348.2H563c6.2,0,11.2,5,11.2,11.2v16.3
	c0,6.2-5,11.2-11.2,11.2h-62.4c-6.2,0-11.2-5-11.2-11.2v-16.3C489.4,353.2,494.4,348.2,500.6,348.2z M246.1,384.7h62.4
	c6.2,0,11.2,5,11.2,11.2v16.3c0,6.2-5,11.2-11.2,11.2h-62.4c-6.2,0-11.2-5-11.2-11.2v-16.3C234.9,389.7,239.9,384.7,246.1,384.7z
	 M331,384.7h62.4c6.2,0,11.2,5,11.2,11.2v16.3c0,6.2-5,11.2-11.2,11.2H331c-6.2,0-11.2-5-11.2-11.2v-16.3
	C319.8,389.7,324.8,384.7,331,384.7z M415.8,384.7h62.4c6.2,0,11.2,5,11.2,11.2v16.3c0,6.2-5,11.2-11.2,11.2h-62.4
	c-6.2,0-11.2-5-11.2-11.2v-16.3C404.6,389.7,409.6,384.7,415.8,384.7z M500.6,384.7H563c6.2,0,11.2,5,11.2,11.2v16.3
	c0,6.2-5,11.2-11.2,11.2h-62.4c-6.2,0-11.2-5-11.2-11.2v-16.3C489.4,389.7,494.4,384.7,500.6,384.7z M585.4,384.7h62.4
	c6.2,0,11.2,5,11.2,11.2v16.3c0,6.2-5,11.2-11.2,11.2h-62.4c-6.2,0-11.2-5-11.2-11.2v-16.3C574.2,389.7,579.2,384.7,585.4,384.7z
	 M665.8,384.7h71.3c3.7,0,6.8,3,6.8,6.8v25.2c0,3.7-3,6.8-6.8,6.8h-71.3c-3.7,0-6.8-3-6.8-6.8v-25.2
	C659,387.7,662,384.7,665.8,384.7z M327.9,421.3h68.5c4.5,0,8.1,3.6,8.1,8.1v22.4c0,4.5-3.6,8.1-8.1,8.1h-68.5
	c-4.5,0-8.1-3.6-8.1-8.1v-22.4C319.8,424.9,323.4,421.3,327.9,421.3z M412.7,421.3h68.5c4.5,0,8.1,3.6,8.1,8.1v22.4
	c0,4.5-3.6,8.1-8.1,8.1h-68.5c-4.5,0-8.1-3.6-8.1-8.1v-22.4C404.6,424.9,408.2,421.3,412.7,421.3z M497.5,421.3h68.5
	c4.5,0,8.2,3.6,8.2,8.1v22.4c0,4.5-3.6,8.1-8.2,8.1h-68.5c-4.5,0-8.1-3.6-8.1-8.1v-22.4C489.4,424.9,493,421.3,497.5,421.3z
	 M582.4,421.3h68.5c4.5,0,8.2,3.6,8.2,8.1v22.4c0,4.5-3.6,8.1-8.2,8.1h-68.5c-4.5,0-8.2-3.6-8.2-8.1v-22.4
	C574.2,424.9,577.8,421.3,582.4,421.3z M327.9,457.7h68.5c4.5,0,8.1,3.6,8.1,8.1v22.4c0,4.5-3.6,8.1-8.1,8.1h-68.5
	c-4.5,0-8.1-3.6-8.1-8.1v-22.4C319.8,461.4,323.4,457.7,327.9,457.7z M412.7,457.7h68.5c4.5,0,8.1,3.6,8.1,8.1v22.4
	c0,4.5-3.6,8.1-8.1,8.1h-68.5c-4.5,0-8.1-3.6-8.1-8.1v-22.4C404.6,461.4,408.2,457.7,412.7,457.7z M497.5,457.7h68.5
	c4.5,0,8.2,3.6,8.2,8.1v22.4c0,4.5-3.6,8.1-8.2,8.1h-68.5c-4.5,0-8.1-3.6-8.1-8.1v-22.4C489.4,461.4,493,457.7,497.5,457.7z
	 M582.4,457.7h68.5c4.5,0,8.2,3.6,8.2,8.1v22.4c0,4.5-3.6,8.1-8.2,8.1h-68.5c-4.5,0-8.2-3.6-8.2-8.1v-22.4
	C574.2,461.4,577.8,457.7,582.4,457.7z M243.1,494.3h68.5c4.5,0,8.1,3.6,8.1,8.1v22.4c0,4.5-3.6,8.2-8.1,8.2h-68.5
	c-4.5,0-8.1-3.6-8.1-8.2v-22.4C234.9,498,238.6,494.3,243.1,494.3z M327.9,494.3h68.5c4.5,0,8.1,3.6,8.1,8.1v22.4
	c0,4.5-3.6,8.2-8.1,8.2h-68.5c-4.5,0-8.1-3.6-8.1-8.2v-22.4C319.8,498,323.4,494.3,327.9,494.3z M412.7,494.3h68.5
	c4.5,0,8.1,3.6,8.1,8.1v22.4c0,4.5-3.6,8.2-8.1,8.2h-68.5c-4.5,0-8.1-3.6-8.1-8.2v-22.4C404.6,498,408.2,494.3,412.7,494.3z
	 M497.5,494.3h68.5c4.5,0,8.2,3.6,8.2,8.1v22.4c0,4.5-3.6,8.2-8.2,8.2h-68.5c-4.5,0-8.1-3.6-8.1-8.2v-22.4
	C489.4,498,493,494.3,497.5,494.3z M582.4,494.3h68.5c4.5,0,8.2,3.6,8.2,8.1v22.4c0,4.5-3.6,8.2-8.2,8.2h-68.5
	c-4.5,0-8.2-3.6-8.2-8.2v-22.4C574.2,498,577.8,494.3,582.4,494.3z M243.1,530.8h68.5c4.5,0,8.1,3.6,8.1,8.2v22.4
	c0,4.5-3.6,8.2-8.1,8.2h-68.5c-4.5,0-8.1-3.6-8.1-8.2v-22.4C234.9,534.4,238.6,530.8,243.1,530.8z M326.5,530.8h71.3
	c3.7,0,6.8,3,6.8,6.8v25.2c0,3.7-3,6.8-6.8,6.8h-71.3c-3.7,0-6.8-3-6.8-6.8v-25.2C319.8,533.8,322.8,530.8,326.5,530.8z
	 M412.7,530.8h68.5c4.5,0,8.1,3.6,8.1,8.2v22.4c0,4.5-3.6,8.2-8.1,8.2h-68.5c-4.5,0-8.1-3.6-8.1-8.2v-22.4
	C404.6,534.4,408.2,530.8,412.7,530.8z M497.5,530.8h68.5c4.5,0,8.2,3.6,8.2,8.2v22.4c0,4.5-3.6,8.2-8.2,8.2h-68.5
	c-4.5,0-8.1-3.6-8.1-8.2v-22.4C489.4,534.4,493,530.8,497.5,530.8z M580.8,530.8h71.6c3.6,0,6.6,3,6.6,6.6v25.5c0,3.6-3,6.6-6.6,6.6
	h-71.6c-3.6,0-6.6-3-6.6-6.6v-25.5C574.2,533.7,577.2,530.8,580.8,530.8z M243.1,567.4h68.5c4.5,0,8.1,3.6,8.1,8.2V598
	c0,4.5-3.6,8.2-8.1,8.2h-68.5c-4.5,0-8.1-3.6-8.1-8.2v-22.4C234.9,571,238.6,567.4,243.1,567.4z M327.9,567.4h68.5
	c4.5,0,8.1,3.6,8.1,8.2V598c0,4.5-3.6,8.2-8.1,8.2h-68.5c-4.5,0-8.1-3.6-8.1-8.2v-22.4C319.8,571,323.4,567.4,327.9,567.4z
	 M412.7,567.4h68.5c4.5,0,8.1,3.6,8.1,8.2V598c0,4.5-3.6,8.2-8.1,8.2h-68.5c-4.5,0-8.1-3.6-8.1-8.2v-22.4
	C404.6,571,408.2,567.4,412.7,567.4z M496,567.4h71.6c3.6,0,6.6,3,6.6,6.6v25.5c0,3.6-3,6.6-6.6,6.6H496c-3.6,0-6.6-3-6.6-6.6V574
	C489.4,570.3,492.3,567.4,496,567.4z M580.8,567.4h71.6c3.6,0,6.6,3,6.6,6.6v25.5c0,3.6-3,6.6-6.6,6.6h-71.6c-3.6,0-6.6-3-6.6-6.6
	V574C574.2,570.3,577.2,567.4,580.8,567.4z M667.2,494.3h68.5c4.5,0,8.2,3.6,8.2,8.1v22.4c0,4.5-3.6,8.2-8.2,8.2h-68.5
	c-4.5,0-8.2-3.6-8.2-8.2v-22.4C659,498,662.7,494.3,667.2,494.3z M665.6,567.4h71.6c3.6,0,6.6,3,6.6,6.6v25.5c0,3.6-3,6.6-6.6,6.6
	h-71.6c-3.6,0-6.6-3-6.6-6.6V574C659,570.3,662,567.4,665.6,567.4z"/>
<path opacity="0.1" fill="#FF6347" enable-background="new    " d="M749.6,235.3c0,0.8,0.1,1.5,0.2,2.3
	C749.6,236.9,749.6,236.1,749.6,235.3z M759,250.9c-1.4-0.7-2.6-1.6-3.8-2.6C756.4,249.3,757.7,250.2,759,250.9z"/>
<path opacity="0.1" enable-background="new    " d="M613.1,568.3c-0.2-0.2-0.5-0.4-0.8-0.5c0,0-1-11.4-7.2-18.5s-7.4-26.6-7.4-26.6
	c-0.8-0.1-1.6-0.2-2.3-0.2c-0.3-0.6-0.7-1.6-1.2-2.7c-1-2.5-2.3-5.7-2.4-7.4c-0.2-3-7.4-19.4-7.4-19.4s-7.6-38.2-21.4-50.3
	c0,0-5.5-7.8-5.5-12s-6.4-6.1-6.4-6.1s-4.2-12.3-3.9-15.6s-9.3-14.6-9.3-14.6s-1.3-11.4-3.7-14.3s-2-10.6-2-10.6s-7.2-6.7-6.6-11.1
	s-2.2-11.6-2.2-11.6s5-8.8,5.6-16c0.1-0.9,0.1-1.8,0-2.7c1.1-0.2,2.2-0.5,3.2-1.1c5-4.2-1.2-43.4-1.2-43.4s-6.9-22-3.4-38.5
	s-11.6-93.1-11.6-93.1s-2.4-8.8-5.1-13.9c-0.2-0.3-0.3-0.6-0.5-0.9c1.9-1.4,2.5-4.6,2.5-4.6s7.3-10.1,3-13
	c-3.9-2.6-10.2-3.7-11.9-7.5c-0.1-0.2-0.2-0.5-0.2-0.7c4.1,0.9,7.6,1.7,8.7,2.1c3,1.1,10.5,2.5,11.6-5s-13.9-25.9-15.3-26.6
	s-3.6-6.3-3.6-6.3c1.6-2.9-2.7-6.3-2.7-6.3l-2.2,1.2c-0.3-5.4-0.9-11.5-0.9-11.5s-1.7-3.8-4.7-16.8s-9.4-7-11.7-7.3
	s-14.7,1.7-19.4,2.8s-25.5,16.3-27,16.6s-7.2,10.8-7.9,13c-0.2,0.8,1,1.7,2.6,2.6c-0.2,0.3-0.5,0.6-0.7,1c-8.5,12.6-5.7,29.6,6.3,39
	c-0.4,0.9-0.7,1.7-1,2.6c-0.2,0.6-0.3,1.1-0.5,1.7c-3.8,1.8-6.5,5.1-7.6,9.2c-1.4,5.3-2.8,12.2-1.1,14.7c1.6,2.3,2.3,5.1,2,7.9
	c0.1,0.7,11.3,10.1,11.3,15.3s7.4-0.9,8.8-2c0.3-0.2,1.6-1.2,3.5-2.6l-0.8,1.9c-2.8,6.5-6.8,15.6-8.1,16.5
	c-2,1.5-14.1,44.1-13.8,49.1s-1,32.7-1,32.7s-4.2,39.4-7.4,44.4c0,0-2.2,18.7-4.2,19.2s-2.9,4.5,7.8,6.4c3.6,0.6,8.6,1.3,13.8,1.9
	l-1.4,2.5l-17.9,31.4l-15,35.8c0,0-2.7,9.1-5.4,9.1s-4.5,8.9-4.5,8.9s-4.9,9.6-3.2,12s3.2,8.6,1,9.4s-3.7,23-3.7,23l-12,42.9
	c0,0-3.4,3-2.7,6.6s-3.4,3.9-3.4,3.9c-0.9,1.6-1.7,3.3-2.2,5c0,0.2-0.1,0.4-0.1,0.5c-1,0.4-1.8,1.1-2.3,2.1
	c-4,6.9-10.1,21.2-13.6,22.9s-10.9,3.2-16.7,2.7s-12.8,1.9-15.8,0.1c-3.3-1.6-6.8-2.6-10.5-3c-3.5-0.2-5.9,1-3.2,5.7
	c5.7,9.7,21.9,21.2,25.6,22.2s35.7,14.1,39,15.7s11.9,3,12.3,0s-0.9-9.8-0.9-9.8c0,0,0-0.1,0-0.1c0.6-1.2,6.7-13.5,6.2-16.9
	c-0.5-3.5,14.8-22.5,11.4-28.1c0,0,0.2-1.1,0.5-2.5c0.4-2.2,0.7-4.5,0.9-6.7c0-2.5,11.6-22.2,11.6-22.2s13.5-29.3,14-37.7
	s4.2-9.8,4.2-9.8s0.7-0.7,1.7-4.5s0.2-10.6,0.2-10.6s5.7-4,5.9-6.6s38-51.3,38-51.3s2.5,0.5,3.7,4.9S514,450,514,450
	s14.6,4.2,15.7,13.8l6.1,10.6l11.8,21c0,0,3.7,11.1,8.4,14.6c0,0,3,6.1,1.8,8.9s4.5,5.1,4.5,5.1s0.9,4.5,1.4,7.6
	c0.1,0.8,0.2,1.6,0.2,2.4c-1.6,1.8-2.1,4.4-1.3,6.7c3.4,11.3,7.4,18.2,4,22s-12.1,14.6-12.1,14.6s-13,3.9-15.8,5
	c-1.8,0.7-2.7,3.3-1.4,5.7c1.2,1.9,3,3.4,5.1,4c7.2,2.7,40.5,1.5,40.5,1.5s32-11.9,33.3-17.5C617.4,572.1,614.6,569.3,613.1,568.3
	L613.1,568.3z"/>
<path fill="#FDC2CC" d="M720.4,123.4c0,0.8,0,1.6-0.1,2.4c-1.4,15.9-15.4,27.6-31.2,26.2c-15.9-1.4-27.6-15.4-26.2-31.2
	c1.4-15.9,15.4-27.6,31.2-26.2C709,95.9,720.5,108.5,720.4,123.4z"/>
<path fill="#464A5F" d="M671.2,108.8c-0.2,1.3,0.2,2.6,0.1,3.9c-0.2,1.7-1.1,3.2-1.9,4.7s-1.3,3.4-0.5,4.9c0.6,1.3,2,2,3,3.2
	c1.5,1.8,1.6,4.5,0.9,6.7c-0.5,1.6-1.3,3.4-0.4,4.9c0.7,1.3,2.5,1.7,3,3.1c0.2,0.9,0.1,1.8-0.3,2.6c-0.8,2.1-1.8,4-2.4,6.1
	c-0.8,2.1-0.9,4.3-0.3,6.4c0.1,0.3,0.2,0.5,0.4,0.7c0.3,0.2,0.6,0.3,1,0.3l2.8,0.3c1.1,0.1,2.4,0.1,3-0.9c0.3-0.5,0.3-1.1,0.7-1.4
	s1.3,0.2,1.7,0.7c2.8,2.8,6.4,4.5,10.3,5c1,0.2,2.1,0.1,3-0.5c0.8-0.6,1.2-1.6,2-2.2c1.8-1.4,4.6,0.2,6.7-0.7
	c1.9-0.8,2.6-3.1,2.7-5.1s-0.2-4.2,0.7-6c0.8-1.2,1.6-2.4,2.6-3.4c1.5-2.4,2.1-5.2,1.7-8c-0.5-2.7-1.3-5.4-2.5-7.9
	c-1.9-4.4-4.1-8.8-7.7-12c-0.8-0.6-1.5-1.3-2.2-2.1c-1.6-2.3-1.2-5.6-3-7.8c-1.5-1.7-3.9-2.1-6.2-2.1c-3.1,0-6.2,0.8-9,2.1
	c-0.9,0.4-1.8,0.8-2.7,1c-1.8,0.3-2.6-1.2-4.3-0.4C672.5,105.7,671.4,107.1,671.2,108.8L671.2,108.8z"/>
<path opacity="0.1" enable-background="new    " d="M679.7,105.5c0.9-0.2,1.9-0.5,2.7-1c2.7-1.2,5.7-1.9,8.7-2h-1
	c-3.1,0-6.2,0.8-9,2.1c-0.8,0.4-1.7,0.8-2.5,1C678.9,105.7,679.3,105.6,679.7,105.5z M677.8,156.7l-2.8-0.3c-0.4,0-0.7-0.1-1-0.3
	c-0.2-0.2-0.3-0.4-0.4-0.7c-0.6-2.1-0.4-4.4,0.3-6.4c0.7-2.1,1.7-4,2.4-6.1c0.4-0.8,0.5-1.7,0.3-2.6c-0.5-1.4-2.3-1.8-3-3.1
	c-0.9-1.4,0-3.3,0.4-4.9c0.7-2.3,0.6-4.9-0.9-6.7c-0.9-1.1-2.3-1.8-3-3.2c-0.8-1.5-0.2-3.4,0.5-4.9s1.7-3,1.9-4.8
	c0.1-1.3-0.3-2.6-0.1-3.9c0.2-1.6,1.3-3.1,2.8-3.7c0.1,0,0.2-0.1,0.3-0.1c-0.5-0.2-1.1-0.1-1.7,0.1c-1.5,0.7-2.6,2.1-2.8,3.7
	c-0.2,1.3,0.2,2.6,0.1,3.9c-0.2,1.7-1.1,3.2-1.9,4.8s-1.3,3.4-0.5,4.9c0.6,1.3,2,2,3,3.2c1.5,1.8,1.6,4.5,0.9,6.7
	c-0.5,1.6-1.3,3.4-0.4,4.9c0.7,1.3,2.5,1.7,3,3.1c0.2,0.9,0.1,1.8-0.3,2.6c-0.8,2.1-1.8,4-2.4,6.1c-0.8,2.1-0.9,4.3-0.3,6.4
	c0.1,0.3,0.2,0.5,0.4,0.7c0.3,0.2,0.6,0.3,1,0.3l2.8,0.3C677,156.7,677.4,156.7,677.8,156.7L677.8,156.7z M693.6,160.2
	c-3.9-0.5-7.5-2.2-10.3-5c-0.5-0.5-1.2-1-1.7-0.7c-0.1,0-0.1,0.1-0.2,0.2c0.2,0.2,0.4,0.3,0.6,0.5c2.8,2.8,6.4,4.5,10.3,5
	c0.5,0.1,1.1,0.1,1.6,0H693.6z M700.1,157c0.9,0.1,1.8,0.1,2.8,0.1C702,156.9,701,156.9,700.1,157z"/>
<path fill="#5F5D7E" d="M832.4,559.6c-1.8,9.9-32.3,11.6-31.8,11.3c0.1-0.9,0.1-1.8-0.2-2.7c-0.4-3-1.4-7.6-1.4-7.6
	s-5.7-2.2-4.5-5.1s-1.8-8.9-1.8-8.9c-4.7-3.5-8.4-14.7-8.4-14.7l-11.8-21l-6.1-10.6c-1-9.6-15.7-13.8-15.7-13.8
	s-32.5-59.4-33.7-63.8s-3.7-4.9-3.7-4.9s-37.8,48.8-38,51.3s-5.9,6.6-5.9,6.6s0.8,6.7-0.2,10.6s-1.7,4.5-1.7,4.5s-3.7,1.4-4.2,9.8
	s-14,37.7-14,37.7s-11.6,19.7-11.6,22.2c-0.1,2.3-0.4,4.5-0.9,6.7c-0.3,1.4-0.5,2.5-0.5,2.5s-28.9-10.8-31.1-11.6
	c-0.8-0.3-0.8-1.3-0.5-2.4c0.5-1.7,1.3-3.4,2.2-5c0,0,4-0.3,3.4-3.9s2.7-6.6,2.7-6.6l12-42.9c0,0,1.5-22.2,3.7-23s0.7-7.1-1-9.4
	s3.2-12,3.2-12s1.8-8.9,4.5-8.9s5.4-9.1,5.4-9.1l15-35.8l17.9-31.4l3.8-6.6c0,0,75.4-6.7,84.7-2.4c3.1,1.5,3.9,4.7,3.6,8.4
	c-0.6,7.2-5.6,16-5.6,16s2.9,7.3,2.2,11.6s6.6,11.1,6.6,11.1s-0.5,7.8,2,10.6s3.7,14.3,3.7,14.3s9.6,11.3,9.3,14.6
	s3.9,15.6,3.9,15.6s6.4,1.9,6.4,6.1s5.5,12,5.5,12c13.7,12.1,21.3,50.3,21.3,50.3s7.2,16.3,7.4,19.3c0.1,1.7,1.3,4.9,2.4,7.4
	C831.7,558.1,832.4,559.6,832.4,559.6L832.4,559.6z"/>
<path opacity="0.1" enable-background="new    " d="M720.4,123.4c0,0.8,0,1.6-0.1,2.4c-3.4,1.8-6.8,3.5-9.6,4.9
	c-4,2-6.8,3.4-6.8,3.4s-14.7-9-17.4-13.1s-11-10.4-11-10.4s-2.1-0.6-4.3-1.5c-1.3-0.5-2.5-1.1-3.7-1.7c9-13.3,27-16.7,40.3-7.7
	C715.6,104.9,720.4,113.9,720.4,123.4L720.4,123.4z"/>
<path fill="#65617D" d="M675.5,109.2c0,0-10.7-3.3-10-5.5s6.3-12.7,7.8-13s22.3-15.5,27-16.6s17.2-3.1,19.4-2.8s8.6-5.7,11.7,7.3
	s4.7,16.8,4.7,16.8s1.8,16.9,0.8,19.3s-33.1,18.1-33.1,18.1s-14.7-9-17.4-13.1S675.5,109.2,675.5,109.2L675.5,109.2z"/>
<path opacity="0.1" enable-background="new    " d="M765.8,367.2c-14.5,3.1-70.3,3.1-70.3,3.1s-11.3-1.1-21.8-2.5l3.8-6.6
	c0,0,75.4-6.7,84.7-2.4C765.4,360.3,766.1,363.5,765.8,367.2z"/>
<path d="M769,363.4c-5,4.2-73.4,4.2-73.4,4.2s-23.6-2.4-34.2-4.2s-9.8-5.9-7.8-6.4s4.2-19.2,4.2-19.2
	c3.2-5.1,7.4-44.4,7.4-44.4s1.3-27.6,1-32.7c-0.3-5.1,11.8-47.6,13.8-49.1c1.3-1,5.3-10,8.1-16.5c1.6-3.8,2.8-6.7,2.8-6.7
	c8.6-15.5,50.8-19.2,54.2-17.2c1.1,0.9,2,2,2.5,3.3c2.6,5.1,5.1,13.8,5.1,13.8s15.2,76.6,11.6,93.1s3.4,38.5,3.4,38.5
	S774,359.2,769,363.4L769,363.4z"/>
<path fill="#5F5D7E" d="M706.5,350.1h15.2v6.7h-15.2V350.1z"/>
<path opacity="0.1" enable-background="new    " d="M683.5,362.7c0,0-7.8,14-10.4,14.5s-6.6,21.7,8.9,29s16-21.7,16-21.7l6.2-24.4
	l-16.8-6.2L683.5,362.7z"/>
<path fill="#464A5F" d="M682.1,361.3c0,0-7.7,14-10.4,14.5s-6.6,21.7,8.9,28.9s16-21.7,16-21.7l6.2-24.4l-16.8-6.2L682.1,361.3z"/>
<path opacity="0.1" enable-background="new    " d="M747.3,423.4c0,0,12.1,13,18.7,7.2S747.3,423.4,747.3,423.4z M766.3,443.6
	c0,0,9.9,12.5,10.1,5.7S766.3,443.6,766.3,443.6z M776.4,473.3c0,0,7.1,0.5,9.6-3.2L776.4,473.3z M783.4,484.4c0,0,4.7,2.5,7.9-1.3
	L783.4,484.4z M698,394c0,0,3,17.2,15.5,23.9L698,394z M647.8,488.3c0,0-1.5,4.4,6.9,5.6S647.8,488.3,647.8,488.3z M651.7,473.3
	c0,0,5.5,10.4,7.7,9.7L651.7,473.3z M658.7,464.1c0,0,1.7,4.8,5.9,4.3S658.7,464.1,658.7,464.1z M637,567.3
	c-0.3,1.4-0.5,2.5-0.5,2.5s-29-10.8-31.1-11.6c-0.8-0.3-0.8-1.3-0.5-2.4c4.9-4.3,16.2,3.6,16.2,3.6S632.6,562.5,637,567.3z"/>
<path fill="#464A5F" d="M618.9,614.9C618.9,614.9,618.9,614.9,618.9,614.9c0,0.1,1.2,6.8,0.8,9.9s-8.9,1.5-12.3,0
	s-35.3-14.7-39-15.7s-19.9-12.5-25.6-22.2c-2.8-4.7-0.4-6,3.2-5.7c3.6,0.4,7.2,1.4,10.5,3c3,1.8,10.1-0.6,15.8-0.1s13.1-1,16.7-2.7
	s9.6-16,13.6-22.9s17.2,2.4,17.2,2.4s13.4,3.5,16.8,9.1s-12,24.6-11.4,28.1S619.5,613.6,618.9,614.9L618.9,614.9z"/>
<path fill="#464A5F" d="M619.7,624.7c-0.3,3-8.9,1.5-12.3,0s-35.3-14.7-39-15.7s-19.9-12.5-25.6-22.2c-2.8-4.7-0.4-6,3.2-5.7
	c1.9,4.1,4.9,7.5,8.6,10c9.9,7,31.5,16.9,31.5,16.9s12.1-0.5,17.7,3c3.7,2.3,10.8,3.3,15.2,3.8c0,0,0,0.1,0,0.1
	C618.9,614.9,620,621.7,619.7,624.7L619.7,624.7z"/>
<path fill="#464A5F" d="M615,570.9c0,0-12,22.7-12,24.2s-4.7,15.7-4.7,15.7l8.3,3.4l3.1-18.2l11.1-21.9L615,570.9z"/>
<path opacity="0.1" enable-background="new    " d="M832.4,559.6c-1.8,9.9-32.3,11.6-31.8,11.3c0.1-0.9,0.1-1.8-0.2-2.7
	c4-4.9,15.2-4.9,15.2-4.9c4-4.2,9.5-6.7,15.3-7C831.7,558.1,832.4,559.6,832.4,559.6L832.4,559.6z"/>
<path fill="#464A5F" d="M853.1,612.8c-1.3,5.6-33.3,17.5-33.3,17.5s-33.3,1.2-40.5-1.5c-2.2-0.6-4-2.1-5.1-4c-1.3-2.5-0.3-5,1.4-5.7
	c2.9-1.2,15.8-5,15.8-5s8.8-10.8,12.1-14.7s-0.7-10.8-4-22s16.1-11.3,16.1-11.3c8.8-8.9,18.8-6.9,18.8-6.9s1.2,19.5,7.4,26.6
	s7.2,18.5,7.2,18.5c0.3,0.2,0.5,0.3,0.8,0.5C851.3,605.8,854.1,608.6,853.1,612.8L853.1,612.8z"/>
<path fill="#464A5F" d="M853.1,612.8c-1.3,5.6-33.3,17.5-33.3,17.5s-33.3,1.2-40.5-1.5c-2.2-0.6-4-2.1-5.1-4c6.9,1.1,19.9,3,22,2.5
	c2.8-0.7,14,0.5,20.4-5.1s16-9.4,16-9.4s11.5-4.7,17.4-8C851.3,605.8,854.1,608.6,853.1,612.8L853.1,612.8z"/>
<path fill="#464A5F" d="M820,575.8l5.9,22.2l7.6,17.5l6.1-2.9l-8.9-17l-6.4-19.9L820,575.8L820,575.8z"/>
<path opacity="0.1" enable-background="new    " d="M620.9,574.1l-5.9-3.2c0,0-12,22.7-12,24.2c0,1.2-3,10.4-4.2,14.1
	c-4.2-0.9-8.5-1.3-12.8-1.1c0,0-21.5-9.9-31.5-16.9c-3.7-2.5-6.7-5.9-8.6-10c-3.5-0.2-5.9,1-3.2,5.7c5.7,9.8,21.9,21.2,25.6,22.2
	s35.7,14.1,39,15.7s11.9,3,12.3,0s-0.8-9.8-0.8-9.8c0,0,0-0.1,0-0.1c-4.1-0.3-8.1-1.1-12-2.3l2.8-16.6L620.9,574.1z M849.8,604.7
	c-3.2,1.8-7.8,4-11.6,5.6l-7.7-14.7l-6.4-19.8H820l5.9,22.2l6.4,14.9c-1.2,0.5-9.9,4.2-15.8,9.4c-6.4,5.6-17.5,4.4-20.4,5.1
	c-2.1,0.5-15.1-1.4-22-2.5c1.2,1.9,3,3.4,5.1,4c7.2,2.7,40.5,1.5,40.5,1.5s32-11.9,33.3-17.5C854.1,608.6,851.3,605.8,849.8,604.7z"
	/>
<path d="M696,139c0,0,14.9-17.6,19.6-20.4s23.7-12.9,23.7-12.9s4.3,3.4,2.7,6.3c0,0,2.3,5.6,3.6,6.3
	s16.3,19.1,15.3,26.6s-8.5,6.2-11.6,5s-26.5-5.7-26.5-5.7L696,139z"/>
<path opacity="0.1" enable-background="new    " d="M718.8,126.9c0,0,10.2-3,11,0S718.8,126.9,718.8,126.9z M747.7,174.5
	c-0.2,0.2-0.4,0.4-0.7,0.5c-2,1.3-23.4,1.3-28.3,1.3c-4.1,0-23.3,13.4-30.6,18.7c1.6-3.8,2.8-6.7,2.8-6.7
	c8.6-15.5,50.8-19.2,54.2-17.2C746.3,172.1,747.2,173.2,747.7,174.5L747.7,174.5z"/>
<path fill="#5F5D7E" d="M749.8,169c0,0-0.7,3.4-2.7,4.7s-23.4,1.4-28.3,1.4s-32,19.5-33.3,20.7s-8.8,7.2-8.8,2s-11.1-14.6-11.3-15.3
	c0.3-2.8-0.4-5.6-2-7.9c-1.7-2.5-0.3-9.4,1.1-14.7c1.1-4,3.9-7.4,7.6-9.2c6.2-3,15.8-7.8,20.9-10.9c1.2-0.8,3.3-1.1,5.9-1.1
	c13.6,0,41.6,8.9,41.6,8.9c0.1,0.4,0.2,0.7,0.3,1.1c1.7,3.8,8,4.8,11.9,7.5C757,158.9,749.8,169,749.8,169L749.8,169z"/>
<path opacity="0.1" enable-background="new    " d="M672.2,167.5c0,0,16.3,0.8,17.2,1.6S672.2,167.5,672.2,167.5z M717,185
	c0,0-25.5,12.4-23.6,22.6c0,0,3.3,3.5,1.7,7.4s-2.9,31.1-1,33.1s3.9,6.9,2.9,10.3c-1,3.4,1.5,18.5,1.5,18.5s3.7,7.6-0.7,9.3
	s-0.5,7.2-0.5,7.2s0,6.9-4.1,7.2s-0.8,9.1-0.8,9.1s-2,5.9-5.2,5.4s1.8,8.4,1.8,8.4s-12.3,8.2-10.8,21.9l-1.7,9.3l24.2,10.4l3.2-6.1
	c0,0,6.6-1.5,5.7-5.6s4.4-6.4,4.4-6.4s1-6.2,4.4-8.9S727,324,727,324s3-6.4,7.2-9.1s7.6-15.8,7.6-15.8l2.5-90.4
	C744.4,208.7,735.1,180.9,717,185L717,185z"/>
<path opacity="0.1" enable-background="new    " d="M722.3,185c0,0-25.5,12.4-23.6,22.6c0,0,3.3,3.5,1.7,7.4s-2.9,31.1-1,33.1
	s3.9,6.9,2.9,10.3c-1,3.4,1.5,18.5,1.5,18.5s3.7,7.6-0.7,9.3s-0.5,7.2-0.5,7.2s0.1,6.9-4.1,7.2s-0.8,9.1-0.8,9.1s-2,5.9-5.2,5.4
	s1.9,8.4,1.9,8.4s-12.3,8.2-10.8,21.9l-1.7,9.3l24.2,10.4l3.2-6.1c0,0,6.6-1.5,5.7-5.6s4.4-6.4,4.4-6.4s1-6.2,4.4-8.9
	s8.6-14.1,8.6-14.1s3-6.4,7.2-9.1s7.6-15.8,7.6-15.8l2.5-90.4C749.8,208.7,740.6,180.9,722.3,185L722.3,185z"/>
<path d="M719.7,185c0,0-25.5,12.4-23.6,22.6c0,0,3.3,3.5,1.7,7.4s-2.9,31.1-1,33.1s3.9,6.9,2.9,10.3
	c-1,3.4,1.5,18.5,1.5,18.5s3.7,7.6-0.7,9.3s-0.5,7.2-0.5,7.2s0,6.9-4.1,7.2s-0.8,9.1-0.8,9.1s-2,5.9-5.2,5.4s1.8,8.4,1.8,8.4
	s-12.3,8.2-10.8,21.9l-1.7,9.3l24.2,10.4l3.2-6.1c0,0,6.6-1.5,5.7-5.6s4.4-6.4,4.4-6.4s1-6.2,4.4-8.9s8.6-14.1,8.6-14.1
	s3-6.4,7.2-9.1s7.6-15.8,7.6-15.8l2.5-90.4C747.1,208.7,737.8,180.9,719.7,185L719.7,185z"/>
<path opacity="0.1" enable-background="new    " d="M702,299.3c0,0,6.9,6.6,6.9,8.4s-9.1-3.4-9.1-3.4L702,299.3z M698,315.4
	c0,0,6.7,7.6,4.5,7.9S698,315.4,698,315.4z M708.9,339.1c0,0-15.3,2.5-11.8,3.5S708.9,339.1,708.9,339.1z M713.2,289.1
	c0,0,27.7,12.5,23,15.8S713.2,289.1,713.2,289.1z M740.9,148.6C740.3,148,696,139,696,139l2.9-0.4c13.6,0,41.6,8.9,41.6,8.9
	C740.7,147.8,740.8,148.2,740.9,148.6z M709.4,83.9c0,0,13.2,17.5,19.5,13S719,82.6,709.4,83.9z M679.3,185.8c0,0,11.2-3.4,12.2-4
	S679.3,185.8,679.3,185.8z M731.8,168.9c0,0,11.7,1,12.8,0.7S731.8,168.9,731.8,168.9z M738,156.9c0,0,11.7,1,12.8,0.7
	S738,156.9,738,156.9z M705.2,156.1c0,0,11.7,1,12.8,0.7S705.2,156.1,705.2,156.1z M676.6,179.8c0,0,11.2-3.4,12.2-4
	S676.6,179.8,676.6,179.8z"/>
<path fill="#464A5F" d="M1061.8,476l-7.6,121.8c-0.6,9.4-8.4,16.8-17.9,16.8h-91.7c-9.5,0-17.3-7.4-17.9-16.8L919.1,476
	c-0.1-2.5,1.8-4.6,4.3-4.7c0.1,0,0.2,0,0.2,0h133.8c2.5,0,4.5,2,4.4,4.5C1061.8,475.9,1061.8,475.9,1061.8,476L1061.8,476z"/>
<path d="M974.6,468.6c2.3,0.9,6.4,2.7,6.4-0.6c0-1.4-1.1-1.5-2.2-1.9c-4.1-1.5-7.5-4.2-9.9-7.9
	c-4.2-6.3-5.2-12.5-5.2-20c0-16.6,22.8-19.6,22.8-36.2c0-6.4-4-8.2-4-10c0-1.1,0.4-1.1,1.5-1.1c4.1,0,9.9,6.9,11.6,10.2
	c1,1.7,1.4,3.7,1.2,5.7c0,3.6-0.4,7.3-0.4,11c0,14,16.5,10.2,16.5,3.5c0-3.1-1.9-6-1.9-9c0-0.4,0-0.6,0.4-0.6c1.8,0,4.8,4,5.7,5.2
	c3,4.6,4.4,10.8,4.4,16.2c0,16.7-15.2,25.3-15.2,28.9c0,0.5,1.5,4,6.3,1c15.3-7.8,27.4-24.6,27.4-46.4c0-17.4-4.5-29.8-16.6-42.7
	c-2-2.1-8.5-8.7-11.6-8.7c-4.2,0,3.7,9.6,3.7,16.1c0.2,3.3-2.3,6.2-5.6,6.4c-0.2,0-0.5,0-0.7,0c-6,0-7.5-13.1-8.2-17.2
	c-3-17.5-6.6-30.1-24-38.3c-5.4-2.6-18.9-6.1-18.9-1.1c0,1.2,1.4,2.1,2.4,2.6c4.8,2.9,10.1,11.1,10.1,19.7
	c0,23.8-29.8,45.6-29.8,70.4C940.7,444.8,955.3,461.4,974.6,468.6L974.6,468.6z"/>
</svg>
