<?xml version="1.0" encoding="utf-8"?>
<!-- Generator: Adobe Illustrator 22.1.0, SVG Export Plug-In . SVG Version: 6.00 Build 0)  -->
<svg version="1.1" id="图层_1" xmlns="http://www.w3.org/2000/svg" xmlns:xlink="http://www.w3.org/1999/xlink" x="0px" y="0px"
	 viewBox="0 0 1077.9 757.3" style="enable-background:new 0 0 1077.9 757.3;" xml:space="preserve">
<style type="text/css">
	.st0{opacity:0.1;}
	.st1{opacity:0.1;}
	.st2{fill:#F7F7FD;}
	.st3{fill:#FFFFFF;}
	.st4{opacity:0.2;}
	.st5{fill:#D38884;}
	.st6{fill:#4C4981;}
	.st7{opacity:5.000000e-02;}
	.st8{fill:#CEDDF9;}
	.st9{fill:#CC8294;}
	.st10{fill:#1E1637;}
	.st11{opacity:0.2;}
	.st12{fill:#FFD2C6;}
	.st13{fill:#626696;}
	.st14{fill:#FFCDE5;}
	.st15{fill:#985C7E;}
	.st16{opacity:0.1;}
	.st17{fill:url(#SVGID_1_);}
	.st18{fill:#DB8B8B;}
	.st19{fill:#2E3037;}
	.st20{fill:#474463;}
	.st21{fill:#FC6681;}
	.st22{fill:#472727;}
	.st23{opacity:0.1;fill:#FF6347;}
	.st24{}
	.st25{stroke:#565987;stroke-miterlimit:10;}
	.st26{fill:#FFD037;}
	.st27{fill:#A8A8A8;}
</style>
<path class="st0" d="M663.8,91.8c-46.3,32.4-106.2,30.3-158.8,13.4S404.2,58.4,352.9,37.1C310.2,19.3,265.3,7.6,219.3,2.3
	C154-5.2,81.1,3.9,35.7,56.3c-50.7,58.3-46.8,163.4,8,217c27.9,27.2,64.4,40.6,96.2,61.8s61.3,56.5,58.6,97.5
	c-2.5,38-31.7,67.1-61.9,85.4c-23.3,14.1-52.1,29.6-54.9,58.8c-2.7,28.3,21.4,50.5,44.5,63.1c75.3,41.2,168,40.8,243-1
	c26.7-15,51.3-34.8,79.4-46.4c73.6-30.5,154.8,0.2,232.8,11.4c66.3,9.5,133.8,4.6,198-14.4c38.6-11.4,77.4-28.8,104.5-61.3
	c19.6-23.4,31.8-53.1,43.2-82.4c12.2-31.2,23.9-62.7,35.2-94.3c6.8-19,13.4-38.4,15.2-58.7c3.2-36.9-10.2-73.3-28.3-104.4
	c-43.1-73.9-115.6-125.8-194.2-139s-161.7,12.6-222.6,68.9"/>
<path class="st1" d="M540.7,103.4l-3.8,221c0,0,137.9,0,255.3,38.1l2.3-223.3C794.4,139.2,606.2,94.3,540.7,103.4z"/>
<path class="st2" d="M537.7,99.4l-3.8,221c0,0,137.9,0,255.3,38.1l2.3-223.3C791.4,135.2,603.2,90.3,537.7,99.4z"/>
<path class="st1" d="M471.4,109.7l3.8,221c0,0-137.9,0-255.3,38.1l-2.3-223.3C217.7,145.6,405.9,100.6,471.4,109.7L471.4,109.7z"/>
<path class="st2" d="M474.4,104.7l3.8,221c0,0-137.9,0-255.3,38.1l-2.3-223.3C220.7,140.6,408.9,95.6,474.4,104.7L474.4,104.7z"/>
<path class="st1" d="M875.7,184.7v218.7c0,0,45-5.3,139.5,111.3l8.4-218.7C1023.5,295.9,925.2,190,875.7,184.7z"/>
<path class="st2" d="M873.7,181.7v218.7c0,0,45-5.3,139.5,111.3l8.4-218.7C1021.5,292.9,923.2,187,873.7,181.7z"/>
<path class="st1" d="M148.3,185.7v218.7c0,0-45-5.3-139.4,111.3L0.5,296.9C0.5,296.9,98.8,191,148.3,185.7z"/>
<path class="st2" d="M151.3,181.7v218.7c0,0-45-5.3-139.4,111.3L3.5,292.9C3.5,292.9,101.8,187,151.3,181.7z"/>
<path class="st3" d="M394.5,276.9l-93.4,16.7v13.6l93.4-17.9V276.9L394.5,276.9z M575.7,170.7L746.5,206v13.6l-170.8-36.5V170.7z
	 M575.7,196.1l170.8,35.3V245l-170.8-36.5V196.1z"/>
<path class="st3" d="M913.5,368.3v12l36.6,29.8l1.7-10.3L913.5,368.3L913.5,368.3z M914.1,272.9l-0.6,12l69.3,65.2l-1.1-13.7
	L914.1,272.9L914.1,272.9z M913.5,295.2v11.4l69.3,66.4v-14.9L913.5,295.2L913.5,295.2z"/>
<path class="st4" d="M574.5,145.4l93.4,16.7v13.6l-93.4-17.9V145.4L574.5,145.4z M913.5,252.3v12l36.6,29.8l1.7-10.3L913.5,252.3
	L913.5,252.3z M412.5,130.5l2,118.5c0,0-74,0-136.9,20.4l-1.2-119.7C276.4,149.7,377.3,125.6,412.5,130.5L412.5,130.5z M110.9,254.9
	l0.6,12l-69.2,65.2l1.1-13.7L110.9,254.9L110.9,254.9z M111.5,277.2v11.4l-69.2,66.4v-14.9L111.5,277.2L111.5,277.2z"/>
<path class="st5" d="M581.5,253.4c-0.5,1-0.8,2-1,3.1c-0.1,0.3-0.1,0.5-0.2,0.8c-0.6,3.1-1,6.9-1.2,9.1c-0.1,1.1-0.2,1.8-0.2,1.8
	s-21.7-1.5-17.9-5.1c1-1,1.7-2.2,2-3.6c0.1-0.4,0.2-0.8,0.3-1.2c0.2-0.9,0.3-1.8,0.3-2.8V255c0-1.5,0-3-0.2-4.5c0,0,7,0,12.4,0.6
	C579.4,251.5,582.2,252.2,581.5,253.4L581.5,253.4z M543.9,356.6c-7.4-0.2-1.9-15.6-1.1-17.7s-1.3-7.1-1.3-7.1s-2.5-14.7-2.5-15.6
	c-0.1-2-0.4-4-0.8-5.9c-0.3-2,0.1-4,1-5.8c0.8-1.3,0.7-6.7,0.7-6.7v-6.9l1.7-2.2l4.2,4l1.2,1.1l2.1,7.7l-0.7,11.1l-0.4,10.8
	l2.5,14.9C550.5,338.2,551.4,356.9,543.9,356.6L543.9,356.6z"/>
<path class="st1" d="M546.3,294.5l-6.3-2.6v-1l1.6-2.2l4.2,4L546.3,294.5L546.3,294.5z"/>
<path class="st6" d="M543.4,278.7c-0.8,2-1.4,4.1-1.8,6.2c-0.3,2-0.9,4-1.7,5.9l7,2.9L543.4,278.7z"/>
<path class="st7" d="M543.4,278.7c-0.8,2-1.4,4.1-1.8,6.2c-0.3,2-0.9,4-1.7,5.9l7,2.9L543.4,278.7z"/>
<path class="st5" d="M599.1,431.7l-0.6,1.2c0,0-0.6,4.1-0.6,4.2s-1.8,2.8-1.8,2.8l-4.6,1l-1.9-0.2c-0.1-1.1-0.3-2.3-0.5-3.4
	c-0.1-0.3-0.1-0.6-0.2-1c-0.7-2.6-1.8-5-3.2-7.2c0,0-3.4-8.4-4.6-9.5s-5.8-12.1-5.3-14.8c0.3-1.5,0-6.4-0.2-10.4
	c-0.2-3.3-0.4-6.1-0.4-6.1l11.5-6.8l1.3,2.1l0.8,1.3c0,0,0,0.2,0,0.6v0.1c-0.1,1.7-0.5,3.4-1,5c0,0-0.9,6.2,0,7.3s3.6,15.7,4.2,22.4
	v0.6c0.2,3.1,2.2,5.9,4.1,7.9c0.1,0.1,0.3,0.3,0.4,0.4C597.3,430.2,598.2,431,599.1,431.7L599.1,431.7z"/>
<path class="st1" d="M589.6,440.8l1.9,0.2l4.6-1c0,0,1.8-2.8,1.8-2.8s0.6-4.2,0.6-4.2l0.6-1.2l0.1-0.1c-1.1-0.8-2.2-1.6-3.1-2.6
	c-0.1-0.1-0.2-0.2-0.3-0.3s0.7,4-2.8,5.8c-1.7,0.9-3.1,1.5-4,2L589.6,440.8z"/>
<path class="st8" d="M599.9,432.3l-0.7,1.4c0,0-0.6,4.1-0.6,4.2s-1.8,2.8-1.8,2.8l-4.6,1l-2.6-0.3c0-0.5-0.1-1.3-0.2-2.2
	c-0.1-0.5-0.2-1.2-0.3-1.8c1-0.5,2.5-1.2,4.5-2.2c3.5-1.8,2.8-5.8,2.8-5.8c0.8,0.8,1.6,1.5,2.4,2.1
	C599.3,431.9,599.7,432.1,599.9,432.3L599.9,432.3z"/>
<path class="st1" d="M599.9,432.3l-0.7,1.4c0,0-0.6,4.1-0.6,4.2s-1.8,2.8-1.8,2.8l-4.6,1l-2.6-0.3c0-0.5-0.1-1.3-0.2-2.2
	c0.6,0,1.1,0.1,1.7,0.2c0,0,6.2,1.3,6.5-3.6c0.2-2.8,0.8-3.9,1.2-4.3C599.3,431.9,599.7,432.2,599.9,432.3L599.9,432.3z"/>
<path class="st9" d="M599.5,432c0,0-1.5-0.3-1.9,4.6s-6.5,3.6-6.5,3.6s-3.1-0.8-3.1,0.5c0.1,1.2,0.4,2.3,0.8,3.4
	c0,0,0.2,2.9,0.8,3.6s0.2,3.3,0.2,3.3s0.2,1.9,5.1,0c0,0,4.3-0.9,7.9-6.2c0.1-0.2-0.4-0.7,2.7-1.9s12-8.3,11.4-11.8
	c-0.1-1.2-1-2.2-2.1-2.5c-0.9-0.3-1.9-0.1-2.8,0.4c-0.8,0.5-1.7,0.9-2.6,1.2c-1.2,0.5-2.4,0.8-3.7,0.9c-1,0.1-1.9,0.3-2.9,0.5
	C601.6,432,600.5,432.2,599.5,432L599.5,432z"/>
<path class="st5" d="M564.2,398c-0.7,0.6-1.3,1.2-1.8,2c-1.8,2.7-2.8,6.5-4,8.1c-1.5,2.1-2,6.2-2,6.2c-0.4,2.7-6.1,17-7.6,19.5
	s-3.7,9.5-3.7,9.5c-1.3,1.6-1.2,4.1-1.1,5.2c0,0.2,0,0.4,0.1,0.5s0,0.2,0,0.2v0.1l-2.1,3.6l-6.7-0.9l-3.5-2.3
	c0.3-0.5,0.5-0.9,0.8-1.4c1.8-4.1,3.2-11.5,3.2-11.5s1.9-8.4,1.7-10.4c0-2.7,0.2-5.3,0.5-8c0,0,5.3-16,6.9-18.6
	c0.7-1,1.1-2.2,1.3-3.5c0-0.2,0-0.5,0-0.8l2.3-2.3C548.5,393.2,567.1,395.7,564.2,398L564.2,398z"/>
<path class="st1" d="M544.1,448.5v0.8l-2.1,3.6l-6.7-0.9l-3.5-2.3c0.3-0.5,0.5-0.9,0.8-1.4c1.7-0.5,5.5,0.9,5.5,0.9
	S542.3,449.8,544.1,448.5C544.1,448.5,544.1,448.5,544.1,448.5L544.1,448.5z"/>
<path class="st8" d="M542.5,458l-6.8,1.6l-6.2-4.6l0.3-2.6c0.4-0.3,0.8-0.6,1.1-1c0.5-0.5,0.8-1.2,0.9-1.9c0.4-1.9,6.3,0.2,6.3,0.2
	s4.3,0.8,6-0.5c-0.1,1.3,0,2.5,0.3,3.7c0.2,0.6,0.5,1.1,1,1.5C547.2,455.6,542.5,458,542.5,458L542.5,458z"/>
<path class="st1" d="M542.5,458l-6.8,1.6l-6.2-4.6l0.3-2.6c0.4-0.3,0.8-0.6,1.1-1h1.4c1,0.1,3.5,4.5,3.5,4.5c6.1,0.4,8-1.6,8.6-3.1
	c0.2,0.6,0.5,1.1,1,1.5C547.2,455.6,542.5,458,542.5,458L542.5,458z"/>
<path class="st9" d="M535.8,456.7c0,0-2.5-4.5-3.5-4.5c-0.9,0-1.8,0-2.6,0c0,0-2.7,6.5-3.7,7s-2.5,3.6-2.5,3.6s7.2,7,14.2,5.6
	c2.2,0,4.4,0.6,6.4,1.6c3.2,1.7,16.7,0.4,18.3-2.5c1.2-2.2,1.7-3.8,0.6-5c-0.7-0.7-1.6-1-2.5-0.9c-1.7,0.2-5.5,0.2-8.8-3.9
	c0,0-6.1-5.6-6.6-5.6S545.4,457.4,535.8,456.7L535.8,456.7z"/>
<path class="st1" d="M588.8,385.7L588.8,385.7c-0.5,0.5-3.4,3.8-4.3,4c-1.5,0.6-2.9,1.2-4.4,1.9c0,0-1.8,2.4-3.3,2.5
	c-0.4,0.1-0.9,0.2-1.3,0.3c-0.2-3.3-0.4-6.1-0.4-6.1l11.5-6.8l1.3,2.1C588.3,384.6,588.6,385.4,588.8,385.7L588.8,385.7z"/>
<path class="st8" d="M546.9,338.9c0,0-4.5,5.8,0,13.6c2.4,4.4,5.5,8.3,9.2,11.6l15.3,31.6c0,0,4-2.2,5.5-2.3s3.3-2.5,3.3-2.5
	c1.4-0.7,2.9-1.4,4.4-1.9c1-0.2,4.3-4,4.3-4s-1.7-3.6-1.3-4.6s-1.1-3.4-1.1-3.4c-0.5-1.2-0.8-2.5-1-3.8c0-1-1.6-3.3-1.6-3.3
	s-1.6-2.4-1.6-3.8s-2.3-6.6-2.3-6.6l-0.6-23L546.9,338.9z"/>
<path class="st7" d="M588.8,385c0,0-3.4,3.8-4.3,4c-1.5,0.6-2.9,1.2-4.4,1.9c0,0-1.8,2.4-3.3,2.5c-1,0.2-2.1,0.6-3,1.1
	c-1.3,0.6-2.5,1.2-2.5,1.2l-15.3-31.6c-1.3-1.2-2.6-2.4-3.7-3.8c-2.1-2.4-3.9-5.1-5.5-7.8c-1.8-2.8-2.4-6.2-1.7-9.4
	c0.3-1.5,0.9-2.9,1.7-4.1l10.9-0.8l21.6-1.5l0.2,6.8l0.4,16.2c0,0,0.3,0.8,0.8,1.9c0.7,1.5,1.2,3.1,1.5,4.7c0,1.3,1.6,3.8,1.6,3.8
	s1.6,2.3,1.6,3.3c0.2,1.3,0.5,2.5,1,3.8c0,0,1.5,2.4,1.1,3.4S588.8,385,588.8,385L588.8,385z"/>
<path class="st1" d="M564.2,398c-0.7,0.6-1.3,1.2-1.8,2c-6.6,0.5-14.3-3-16.2-3.9c0-0.2,0-0.5,0-0.8l2.3-2.3
	C548.4,393.1,567.1,395.7,564.2,398z"/>
<path class="st8" d="M583.6,346.1c0,0-1,3.4-1.3,4.8s-1.1,8.6-1.1,8.6l-0.4,2l-6.9,33l-1.5,7.2c-2.7,1.5-9.3-2.4-9.3-2.4
	c-7.8,0.9-17.3-4.1-17.3-4.1s1.6-5.1,1.2-7.6s2.2-4.6,2.2-4.6c-0.6-2.3,1.6-12.4,1.6-12.4s0.5-3.8,2.3-4.7s-0.2-2.4-0.7-3.3
	c-0.2-0.7-0.1-1.5,0.2-2.2c0.2-0.6,0.3-1.1,0.6-1.6c-4.6-4.6-5.3-11.8-5.3-15.9c0-1,0-2,0.1-2.9l10-1.8l21.8-3.8l2.2,6.9l0.6,1.7
	L583.6,346.1z"/>
<path class="st1" d="M581.5,253.4c-0.5,1-0.8,2-1,3.1c-0.1,0.3-0.1,0.5-0.2,0.8c-2.1,1.4-3.4,1.4-6.1,1.4c-0.9,0-1.5-1.8-2.3-2
	c0,0-1.3-4.8-1.7-0.8c-2.5-0.5-4.7,1.5-6.5-0.3V255c0-1.5,0-3-0.2-4.5c0,0,7,0,12.4,0.6C579.4,251.5,582.2,252.2,581.5,253.4
	L581.5,253.4z"/>
<path class="st5" d="M586.5,245.3c0,7.5-6.1,13.5-13.5,13.5c-0.9,0-1.8-0.1-2.7-0.3c-7.3-1.5-12-8.6-10.5-15.9
	c1.5-7.3,8.6-12,15.9-10.5c3.8,0.8,7.1,3.2,9,6.6C586,240.7,586.6,242.9,586.5,245.3L586.5,245.3z"/>
<path class="st1" d="M579.2,266.5c-0.1,1.1-0.2,1.8-0.2,1.8s-21.7-1.5-17.9-5.1c1-1,1.7-2.2,2-3.6l9.4,1.5c0,0,2.7,2.1,4.7,4
	C577.8,265.7,578.4,266.1,579.2,266.5L579.2,266.5z M582.4,343.6c-1,0.1-1.9,0.1-2.8-0.2c-0.4-0.1-0.8-0.3-1.2-0.5
	c-1.8-1.1-7.9,0.3-7.9,0.3s-16.5,1.1-17.2,0c-0.4-0.6-3.3-0.5-5.7-0.4c-1,0.1-1.8,0.2-2.5,0.2c0.3-1.5,0.9-2.9,1.7-4.1l10.9-0.8
	l21.8-3.8l2.2,6.9C582,342,582.2,342.8,582.4,343.6L582.4,343.6z"/>
<path class="st6" d="M572.5,261.9l-11.8-1.9c-0.4,0.9-1.2,1.7-2.2,1.9c-1.6,0.4-8.6,4-11.8,8.4l-3.2,4.4c0,0-2.5,3.1-1.7,5.7
	s1.8,11.1,1.8,11.1l1.2,9.6c0,0,2.3,6.9,1.6,9.9s0.4,15.8,0.4,15.8l-2.4,15.8c0,0,8.2-1.1,9,0s17.2,0,17.2,0s6-1.3,7.9-0.3
	c1.2,0.7,2.6,0.9,4,0.7c0,0-1.5-5-0.6-7.8s0.6-7.9,0.6-7.9s1.2-7.4,0.6-8.7s1.3-6.2,1.3-6.2l6.4-33.8c0,0-0.8-6.1-4.2-8.1
	s-7.3-2.7-9.4-4.6S572.5,261.9,572.5,261.9z"/>
<path class="st5" d="M577.9,295.2v4l3.7,10.1l1.3,9.3c0,0,2.4,6.7,2.4,9s5.9,13.5,5.9,13.5s1.6,3.8,0.8,4.5s-7.8,16.7,1,16.2
	s6.1-17.2,6.1-17.2l-1.2-7.3c0,0-1.7-18.2-1.7-19.5c0,0-2.2-7.8-2.4-9.5s-1.8-10.3-1.8-10.3l-1.3-5.6L577.9,295.2z"/>
<path class="st1" d="M573.7,307.8l-13.2,7.5l-4.1,6.2l5.5-5.5L573.7,307.8z M569.7,322.3c0,0-6,3.9-8.8,3.9s-9.4,6.7-9.4,6.7
	s9.3-6,10-5.8S569.7,322.3,569.7,322.3z M554.3,324.4c0,0-5.6,5.1-4.2,5.6s9-5.6,9-5.6H554.3z M579.2,306.2c0,0-4.4,5.9-3.2,5.8
	s4.5-3.5,4.5-3.5L579.2,306.2z M579.9,312c0,0-4.7,5.4-4.5,6.7S579.9,312,579.9,312z M581.1,314.7c0,0-3.2,5.7-1.8,6.9
	S581.1,314.7,581.1,314.7z M576.9,300.1c0,0-2.4,4-0.6,4.3s1.9,0,1.9,0L576.9,300.1z M577.6,285.5c-0.6,2.4-1.4,4.8-2.4,7.1
	c-0.4-1.2-0.7-2.4-0.9-3.6C575.2,287.7,576.4,286.5,577.6,285.5z M584.8,238.6c-0.2,0.5-0.5,1-0.9,1.4c-0.6,0.6-1.2,1.2-1.6,1.9
	c-0.4,1-0.6,2.1-0.6,3.2c-0.2,1.1-0.9,2.3-2,2.3c-0.6,0-1.1-0.2-1.6-0.5c-0.5-0.3-1.1-0.2-1.6,0.1c-0.3,0.3-0.5,0.7-0.5,1.2
	c-0.1,0.9-0.2,1.9-0.2,2.8c0,0.4,0,0.8,0.1,1.1c0.3,1.2,0.2,2.4-0.2,3.6c-0.5,0.8-1.3,1.5-2.2,1.8c-1,0.4-2.1,0.7-3.1,0.9
	c-2.1,0.3-4.1,0.3-6.2,0.2c-0.2,0-0.4,0-0.6-0.1c-0.1,0-0.2-0.1-0.2-0.1c0.2-1.1,0.4-2.3,0.4-3.4c-5.3-5.2-5.5-13.7-0.3-19.1
	s13.7-5.5,19.1-0.3C583.4,236.5,584.2,237.5,584.8,238.6L584.8,238.6z"/>
<path class="st10" d="M579.2,227.2c-1.2-0.1-2.4,0.5-3.6,0.8c-2.5,0.6-5.1-0.6-7.7-0.6c-2.2,0.1-4.4,0.8-6.3,1.9
	c-1.6,0.7-3,1.7-4.2,2.9c-1.2,1.2-1.9,2.9-2,4.6c0.2,1,0.1,2-0.1,3c-0.3,0.5-0.6,1-0.9,1.4c-0.6,1-0.8,2.3-0.4,3.5
	c0.5,1.1,1.2,2.2,2.1,3.1c1.7,2.1,2.7,4.7,4.2,6.9c0.6,1,1.4,1.9,2.2,2.8c0.1,0.2,0.3,0.3,0.5,0.4c0.2,0.1,0.4,0.1,0.5,0.1
	c3.2,0.1,6.4,0.2,9.3-1.1c0.9-0.3,1.7-1,2.2-1.8c0.4-1.2,0.5-2.4,0.2-3.6c-0.1-1.3-0.1-2.7,0.1-4c0-0.4,0.2-0.9,0.5-1.2
	c0.5-0.3,1.1-0.3,1.6-0.1c0.5,0.3,1,0.4,1.6,0.5c1.1,0,1.8-1.2,2-2.3c-0.2-2,0.6-3.9,2.2-5.1c1.5-1.9,2-4.5,1.4-6.8
	C583.9,230.3,581.7,227.4,579.2,227.2L579.2,227.2z"/>
<path class="st1" d="M592.1,284.6c-0.3,1.7-0.3,3.3,0,5c-0.1,1.3,0,8.7,0,8.7c-4-1.2-14.2,1.2-14.2,1.2l-1.2-3.6
	c-0.7-0.9-1.2-1.9-1.5-3c-0.4-1.2-0.7-2.4-0.9-3.6c-0.5-2.5-0.9-5.1-1.2-7.6c-0.5-3.9,5.2-8,9.6-10.3s8.1,7.5,8.1,7.5
	S592.6,282.7,592.1,284.6L592.1,284.6z"/>
<path class="st6" d="M592.1,283.9c-0.3,1.7-0.3,3.3,0,5c-0.1,1.3,0,8.7,0,8.7c-4-1.2-14.2,1.2-14.2,1.2l-1.2-3.6
	c-0.7-0.9-1.2-1.9-1.5-3c-0.4-1.2-0.7-2.4-0.9-3.6c-0.5-2.5-0.9-5.1-1.2-7.6c-0.5-3.9,5.2-8,9.6-10.3s8.1,7.5,8.1,7.5
	S592.6,282,592.1,283.9z"/>
<path class="st11" d="M584.5,232.5c-0.2-0.7-0.5-1.3-0.9-1.9c0.1,0.2,0.1,0.3,0.2,0.5c0.7,2.4,0.1,4.9-1.4,6.8
	c-1.6,1.2-2.5,3.1-2.2,5.1c-0.2,1.1-0.9,2.3-2,2.3c-0.6,0-1.1-0.2-1.6-0.5c-0.5-0.3-1.1-0.2-1.6,0.1c-0.3,0.3-0.5,0.7-0.5,1.2
	c-0.2,1.3-0.2,2.7-0.1,4c0.1,1.2,0.3,2.5-0.2,3.6c-0.5,0.8-1.3,1.5-2.2,1.8c-2.9,1.2-6.2,1.2-9.3,1.1c-0.2,0-0.4,0-0.5-0.1
	c-0.2-0.1-0.3-0.2-0.5-0.4c-0.8-0.9-1.5-1.8-2.2-2.8c-1.5-2.3-2.5-4.8-4.2-6.9c-0.5-0.6-1-1.1-1.4-1.8v0.1c0.5,1.1,1.2,2.2,2.1,3.1
	c1.7,2.1,2.7,4.7,4.2,6.9c0.7,1,1.4,1.9,2.2,2.8c0.1,0.2,0.3,0.3,0.5,0.4c0.2,0.1,0.4,0.1,0.5,0.1c3.2,0.1,6.4,0.2,9.3-1.1
	c0.9-0.3,1.7-1,2.2-1.8c0.4-1.2,0.5-2.4,0.2-3.6c-0.1-1.3-0.1-2.7,0.1-4c0-0.4,0.2-0.9,0.5-1.2c0.5-0.3,1.1-0.3,1.6-0.1
	c0.5,0.3,1,0.4,1.6,0.5c1.1,0,1.8-1.2,2-2.3c0-1.1,0.2-2.2,0.6-3.2c0.5-0.7,1-1.3,1.6-1.9C584.6,237.4,585.1,234.9,584.5,232.5
	L584.5,232.5z"/>
<path class="st12" d="M681.9,235.1l-8.6,18.4c0,0-1.3,3.5-2.1,4.1s-4.5,11.5-4.5,11.5l-9.3,14.3l-0.6,1l-3.6-1l-2.5-9.5l0.2-2.8
	v-0.4c0,0,5.7-6,7-6.5c0,0,1,0.1,2.9-4.5s3.6-5.6,3.6-5.6l1-3.4l10.7-17.1c0,0,9-12.9,11.5-7.2S681.9,235.1,681.9,235.1z
	 M646.1,365.6c0,0.3-0.1,0.6-0.3,0.9c-1,1.5-6.6,31.2-6.6,31.2c0.5,2-0.8,6-1.6,7.8s-2.6,11.3-2.6,11.3s-0.5,20.4-1.6,23.5
	s0.4,10,0.4,10c-0.1,3.1,1.8,6.5,2.9,8.1l0.2,0.3c0.4,0.5,0.6,0.8,0.6,0.8c0.3,0.6,0.7,1.1,1.3,1.6l0.3,0.2c1.5,1,3.3,1.8,5.1,2.1
	h0.2c0.7,0.2,1.2,0.2,1.2,0.2l0.5,2.5l-4.8,1l-9.2,0.6c0,0-10.8,0.8-8.4-4c0.2-0.3,0.3-0.7,0.4-1c0.1-0.2,0.2-0.5,0.3-0.7
	c1.5-4.6,0.5-10.3,0.5-10.3l-2.1-16.4c-3.5-15.3,2.7-32.3,2.7-32.3s-0.5-1.4,0.7-4.8s0-11,0-11s-0.6-9.7-1.5-14.5
	c-0.3-2-0.4-4.1-0.3-6.1c0-1.2,0.1-2.4,0.3-3.6l20.7-2.8C645.1,360.3,646.3,363.6,646.1,365.6L646.1,365.6z"/>
<path class="st1" d="M645.8,466.1l-4.8,1l-9.2,0.6c0,0-10.8,0.8-8.4-4c0.2-0.3,0.3-0.7,0.4-1c0.1-0.2,0.2-0.5,0.3-0.7
	c1.9,0.1,3.7,0.4,5.5,1.1c3.1,1.2,5.4-1.9,5.4-1.9l1.5-2.9l0.2-0.4c0.4,0.5,0.6,0.8,0.6,0.8c0.4,0.7,0.9,1.3,1.5,1.8l-0.3,0.5
	l-1.5,3.1c0,0,1.9,0.2,4.4,0.6c1,0.3,2.1-0.3,2.4-1.3h0.2c0.7,0.2,1.2,0.2,1.2,0.2L645.8,466.1z"/>
<path class="st13" d="M650.2,468.4c-0.4,1.6-10.5,2.1-10.5,2.1s-5.6-0.5-7.2,0.8s-6.2,1-6.4,1s-2.6-0.1-3.6-4.5s1.3-5,1.3-5.1
	c2,0,3.9,0.4,5.7,1.1c3.1,1.2,5.4-1.9,5.4-1.9l1.7-3.3c0.4,0.5,0.6,0.8,0.6,0.8c0.4,0.7,0.9,1.3,1.5,1.8l-1.7,3.6
	c0,0,1.9,0.2,4.4,0.6c1.1,0.3,2.3-0.5,2.5-1.6c0-0.1,0-0.3,0.1-0.4c0-0.1,0-0.2,0-0.3c0,0,1.6,0.5,3.5,1
	C649.5,464.7,650.6,466.5,650.2,468.4z"/>
<path class="st12" d="M669.3,387.2c-0.2,1.5-0.5,5.2-0.5,5.2c0.8,3.1-1.3,10.6-1.3,10.6l-1.1,4.3c0.5,5.5-3,18.8-3,18.8
	s-2.3,12.4-3.5,17.7c-0.7,3-0.5,6.1,0.6,8.9l0.1,0.2c0,0.1,0,0.2,0.1,0.3c0,0.1,0.1,0.3,0.1,0.4c0.3,0.7,0.7,1.4,1.2,2
	c0.2,0.2,0.4,0.5,0.7,0.7c1.1,1,2.4,1.8,3.9,2.4l0.6,0.2c0.6,0.2,1.3,0.4,1.9,0.6h0.2l-0.5,2.9l-6.4-1.6l-8.6-2.8l-4.2-2.3
	c0,0,0-0.2,0.1-0.7c0,0,0-0.1,0-0.1c0-0.2,0.1-0.4,0.1-0.7c0.7-3.8,2.3-14.2,1.5-22c-1-9.6,3-22.8,3.9-25.9c0.6-1.8,0.8-3.7,0.7-5.6
	c-1.6-2.3-1.9-11.5-1.9-11.5s-2.9-5.9-5.3-12.2c-0.8-2.1-1.4-4.2-1.7-6.4c-0.3-1.5-0.4-3.1-0.3-4.6c0,0,19.5-17.8,21.7-0.6
	c0.1,0.6,0.1,1.1,0.2,1.7C670.4,382.9,669.5,385.8,669.3,387.2L669.3,387.2z"/>
<path class="st1" d="M669.3,459.6l-0.5,2.9l-6.4-1.6l-8.6-2.8l-4.2-2.4c0,0,0-0.2,0.1-0.7c0,0,0-0.1,0-0.1c0-0.2,0.1-0.4,0.1-0.7
	h0.6c1.2-0.1,2.5,0,3.6,0.5c1.4,0.5,3.2,1.1,3.6,0.9c0.6-0.3,1.4-0.4,2.1-0.4l0.9-2l0.1-0.3c0.3,0.7,0.7,1.4,1.2,2
	c0.2,0.3,0.4,0.5,0.7,0.7v0.7l0,1c1,0.6,2,1.1,3.1,1.4c0.3,0.1,0.6,0.1,0.9,0l0.6,0.2c0.6,0.2,1.3,0.4,1.9,0.6L669.3,459.6z"/>
<path class="st13" d="M666.1,465.8c-1.8-0.5-6.1-1.3-6.8-0.7s-6.7,0-6.7,0c-1.3,0-2.4-0.7-3.1-1.8c-1.3-1.9-0.2-8.2-0.2-8.2h0.4
	l0.7-0.1c1.2-0.1,2.5,0,3.6,0.5c1.4,0.5,3.2,1.1,3.6,0.9c0.6-0.3,1.4-0.4,2.1-0.4l1-2.3c0.3,0.7,0.7,1.4,1.2,2
	c0.2,0.3,0.4,0.5,0.7,0.7l-0.1,1.7c1,0.6,2,1.1,3.1,1.4c0.5,0.2,1.2,0,1.5-0.5c0-0.1,0.1-0.2,0.1-0.3c0.8,0.4,1.7,0.7,2.5,0.8
	c2.3-0.2,4.5,1.3,5,3.6C675.7,466,667.9,466.3,666.1,465.8L666.1,465.8z"/>
<path class="st1" d="M646.1,365.6l-1.1,0.3c-0.9,0.3-1.8,0.5-2.7,0.6c-5.7,0.8-15.2,0.3-18.2,0.1c0-1.2,0.1-2.4,0.3-3.6l20.7-2.8
	C645.1,360.3,646.3,363.6,646.1,365.6L646.1,365.6z"/>
<path class="st13" d="M664.1,360.5c0,0-7.6,1.2-13.8,2.5c-2.1,0.5-4,0.9-5.4,1.4c-0.9,0.3-1.8,0.5-2.7,0.6c-6.9,1-19.1,0.1-19.1,0.1
	c-3.4-10.9,4.1-24.6,4.1-24.6c-0.2-1.1,1.5-4.4,1.5-4.4v-0.1l1.1-3.9h28.3l0.3,1.7l0.7,3.4l4.4,21.1L664.1,360.5z"/>
<path class="st1" d="M668.5,367.1l-0.2,0.1l-3.3,1.5c-3.6,1.6-14.3,2-18,2c-0.3-1.5-0.4-3.1-0.3-4.6c0,0,19.5-17.8,21.7-0.6
	C668.4,366,668.4,366.6,668.5,367.1L668.5,367.1z"/>
<path class="st13" d="M669,365.5l-0.7,0.3l-3.3,1.5c-3.6,1.7-14.7,2-18.2,2h-0.9c-1.6,0-3.3-1.6-3.3-2c0-0.2-0.2-1.3-0.3-2.2
	c-0.1-0.7-0.2-1.4-0.2-1.4c-3.8-1.6-7.5-3.5-11-5.7c-2.8-1.9-2.1-15.3-1.5-22.1c0.2-2.3,0.4-3.9,0.4-3.9l28.6,1.7l4,0.2l2.3,0.5
	l0.6,0.1c0,0,1.7,12,2.5,13s0.3,4.4,0.2,6.3c0,0.8-0.1,1.6-0.3,2.5c0,0,1.2,3.4,0.9,5.2C668.5,362.8,668.7,364.2,669,365.5
	L669,365.5z"/>
<circle class="st12" cx="638.4" cy="254.1" r="11.7"/>
<path class="st12" d="M632.7,259c0,0,0.8,11.1-1.5,13.6c-2.6,2.6-5.3,5.1-8.2,7.4l1.8,7.5l10.3,1.2l12-12.8l-2.7-3.3
	c0,0-2.1-7.1-0.4-10.6S632.7,259,632.7,259L632.7,259z"/>
<path class="st1" d="M657.5,283.4l-0.6,1l-3.6-1l-2.5-9.5l0.2-2.8l0.8-1.1c0,0,4,0.1,3.8,3.7C655.2,277,657.1,282.2,657.5,283.4
	L657.5,283.4z M665.4,336c0,0-2.9,0.6-6.2,1.1s-7.1,0.7-8.7-0.3c-2.6-1.6-16.9-1.1-21-1h-0.7l1.1-3.9h28.3l0.3,1.7l4,0.2l2.3,0.5
	C665.2,335.4,665.4,336,665.4,336L665.4,336z"/>
<path class="st14" d="M650.9,270.8c0,0,4,0.1,3.8,3.7s2.2,9.9,2.2,9.9l-0.9,2.1c0,0-1.3,5.1-0.3,6.4s4.6,1.3,2.5,11.7
	c0,0-0.5,7.8,0.6,10.4s1.1,8.6,2.7,11.2c1.5,2.7,2.8,5.5,3.8,8.5c0,0-11.8,2.6-14.9,0.8s-22.1-0.9-22.1-0.9s0.1-3.2,0-3.5
	c-0.2-0.8,0-1.6,0.5-2.3c0.6-0.9,1.6-2.3,1.1-3.6s1.4-3.1,0.4-5.1s-2.2-2.4-2-3.4c0.1-1.3-0.3-2.5-1.1-3.4
	c-0.7-0.9-5.6-10.5-5.6-10.5l-0.8-4.5c0,0-6.3-4.6-6.2-6.8s2.4-5.2,2.4-5.2l6.1-6c0,0,3.4,3.6,6.6,2.4S640,275,640,275
	s2.5-1.4,2.7-2.4s1.7-0.1,1.7-0.1s2.3-1.3,2.7-0.8c0.8,0.4,1.6,0.7,2.5,0.8L650.9,270.8z"/>
<path class="st12" d="M616.5,289.7l-1.9,1.5c-1.5,3.1-2.3,6.5-2.4,9.9c-0.5,5.2-1.3,10.3-2.5,15.3l-3.8,6.8c0,0-6.3,13.2-7.1,16.7
	s-4.5,9.4-4.5,9.4s-12.6,11.4-3.8,13.4s9.1-9,9.1-9s2-2.3,2.4-3.8s11.5-21.3,11.5-21.3s3.9-5.3,3.1-8.1c0,0,5.1-12,5.1-15
	c-0.1-2.5-0.4-5-0.8-7.5l0.8-6.3L616.5,289.7z"/>
<path class="st1" d="M642.7,314.7c0,0-8.9,4.7-10.6,4.9s7.5-1,7.5-1L642.7,314.7z M649.9,318.4c0,0-11.8,4-17,3.3
	C632.9,321.6,645.9,324.1,649.9,318.4z"/>
<path class="st1" d="M650.7,319.7c0,0-10.6,6.7-16.9,5.6c0,0,14.6,2.9,16.9,1.4l-6.5-1.8C644.1,324.8,651.4,321,650.7,319.7z
	 M638.4,233.5c-3.1-0.8-6.4-0.1-9,1.7c-1.8,1.4-3,3.6-5.1,4.7c-1.1,0.5-2.2,0.9-3.3,1.2c-4.1,1.7-6.5,5.9-5.8,10.3
	c0.3,1.8,1.2,3.5,1.6,5.2c0.7,3.2,0.1,6.5-0.7,9.6c-2.2,8.8-5.6,17.2-10.1,25c-0.4,0.5-0.5,1.1-0.5,1.7c0.1,0.4,0.3,0.8,0.6,1.1
	c4.2,4.9,11,6.5,17.5,6.7c2.4,0.2,4.8-0.2,6.9-1.1c1.3-0.8,2.5-1.8,3.4-3.1c2.2-3.1,3.3-6.8,3.1-10.6c-0.2-3-1.2-6.1-0.4-9.1
	c0.1-0.4,0.3-0.8,0.5-1.1c0.7-0.7,1.8-0.5,2.8-0.6c2.7-0.3,4.4-3.1,4.7-5.8s-0.3-5.4-0.4-8c0-3.5,1.1-7,3.2-9.9
	c0.9-1.2,2-2.4,2.3-3.9c0.4-1.9-0.7-3.3-1.7-4.8c-1.5-2.4-2.2-5.1-4.5-6.9C642,234.6,640.3,233.9,638.4,233.5L638.4,233.5z"/>
<path class="st15" d="M637.7,232.8c-3.1-0.8-6.3-0.1-8.9,1.7c-1.8,1.4-3,3.6-5.1,4.7c-1.1,0.5-2.2,0.8-3.3,1.2
	c-4.1,1.7-6.5,5.9-5.8,10.3c0.3,1.8,1.2,3.5,1.6,5.2c0.7,3.2,0.1,6.5-0.7,9.7c-2.2,8.7-5.6,17.2-10.1,25c-0.4,0.5-0.5,1.1-0.5,1.7
	c0.1,0.4,0.3,0.8,0.6,1.1c4.2,4.9,11,6.5,17.5,6.7c2.4,0.2,4.8-0.2,6.9-1.1c1.3-0.8,2.5-1.8,3.4-3.1c2.2-3.1,3.3-6.8,3.1-10.6
	c-0.2-3-1.2-6.1-0.4-9.1c0.1-0.4,0.3-0.8,0.5-1.1c0.7-0.7,1.8-0.5,2.8-0.6c2.7-0.3,4.4-3.1,4.7-5.8s-0.3-5.4-0.4-8
	c0-3.5,1.1-7,3.2-9.9c0.9-1.2,2-2.4,2.3-4c0.4-1.9-0.7-3.3-1.7-4.8c-1.5-2.4-2.2-5.1-4.5-6.9C641.3,233.9,639.6,233.1,637.7,232.8z"
	/>
<path class="st1" d="M633.8,346.4c0,0,2.3,10.9,6.2,13.9L633.8,346.4z"/>
<g class="st16">
	<path d="M615.2,253.1c-0.1-0.4-0.3-0.9-0.4-1.3C614.9,252.2,615,252.6,615.2,253.1z M648.3,243.6c0,0.3,0,0.7,0,1
		c-0.3,1.5-1.4,2.7-2.3,3.9c-2.1,2.9-3.2,6.3-3.2,9.9c0,2.7,0.7,5.4,0.4,8s-2,5.5-4.7,5.8c-1,0.1-2.1-0.1-2.8,0.6
		c-0.3,0.3-0.5,0.7-0.5,1.1c-0.8,3,0.3,6,0.4,9.1c0.2,3.8-0.9,7.5-3.2,10.5c-0.9,1.3-2,2.3-3.4,3.1c-2.2,1-4.5,1.4-6.9,1.1
		c-6.3-0.2-13-1.8-17.2-6.5c-0.1,0.3-0.1,0.6-0.1,0.9c0.1,0.4,0.3,0.8,0.6,1.1c4.2,4.9,11,6.5,17.5,6.7c2.4,0.2,4.8-0.2,6.9-1.1
		c1.3-0.8,2.5-1.8,3.4-3.1c2.2-3.1,3.3-6.8,3.1-10.6c-0.2-3-1.2-6.1-0.4-9.1c0.1-0.4,0.3-0.8,0.5-1.1c0.7-0.7,1.8-0.5,2.8-0.6
		c2.7-0.3,4.4-3.1,4.7-5.8s-0.3-5.4-0.4-8c0-3.5,1.1-7,3.2-9.9c0.9-1.2,2-2.4,2.3-4C649.2,245.7,648.9,244.6,648.3,243.6
		L648.3,243.6z"/>
</g>
<linearGradient id="SVGID_1_" gradientUnits="userSpaceOnUse" x1="2973.064" y1="63.8033" x2="2973.064" y2="346.4097" gradientTransform="matrix(-1 0 0 -1 3170.9399 688.63)">
	<stop  offset="0" style="stop-color:#808080;stop-opacity:0.25"/>
	<stop  offset="0.54" style="stop-color:#808080;stop-opacity:0.12"/>
	<stop  offset="1" style="stop-color:#808080;stop-opacity:0.1"/>
</linearGradient>
<path class="st17" d="M163.8,490.1c2.9,1.7,7.4,2.8,13.1-0.8l-0.1,8.1c0.4,5.6,7.3,25.8,7.3,25.8l4.9,16.7c3.5,11.8,5.3,24,5.3,36.3
	c-0.1,3.9,0.4,7.7,1.6,11.4c2.6,7-1,16-2.6,19.3c-2.9,1-5.9,1.8-8,2.3c-0.2,0.1-0.5,0.1-0.7,0.2v0c0,0-7.3,2.9-10.5,2.5
	c-2.4-0.3-3.9,2.7-2,4.9c-1.6,0.5-3.2,0.7-4.9,0.6c-3.2-0.4-4.9,5.2,1.2,6.8s40.5,0,40.5,0c2-1,3.1-3.2,2.6-5.4
	c2.6-0.1,4.3-0.2,4.3-0.2s6.1-2.8,0-10.3l-0.3,0.3l-1.3-3.8v-5.2c0,0,7.7-37,5.3-41.3s-3.6-26.6-3.6-26.6l0.8-24.2
	c2.2-4.5,3.3-11.6,3.9-17.2c0.8-2.6,1.3-5.4,1.5-8.2c0.1-1.3,0.2-2.7,0.2-4.1c0-3.1-0.5-6.2-1.5-9.2c2.7-4.1,5.8-7.9,9.2-11.5
	c2.8-2.6,4.2-6.5,3.6-10.3l-2-13.5l-4.9-23c0.6-6.4-0.7-10.1-2.2-12.2c0.4-2.1,0.7-4.1,0.9-6.2c1.1-9,0.6-18.1-1.4-27
	c-0.7-3.1-1.7-6.3-3.8-8.6c-2.5-2.6-6.4-4.3-7.4-7.7c-0.1-0.9-0.3-1.8-0.6-2.6c-0.9-2.3-3.7-3.1-6.2-3.4c-4.4-0.5-10.7-0.9-14.9,0.8
	c-2.9,1.2-7,4.5-8.6,8.1c-1,1.5-1.3,3.3-1,5c0.2,0.6,0.4,1.2,0.7,1.7c-0.6,1.7-1,3.5-1,5.3c0,6.4,4,12.1,9.9,14.4
	c0.1,0.3,0.2,0.6,0.3,0.9c0.2,0.7,0.3,1.4,0.4,2.2c-0.1,1.4-0.2,2.8-0.2,4.2c0,0.2-0.1,0.4-0.1,0.6c-3.5,1.5-6.9,3.3-10.2,5.2
	c2.4,3.6-0.4,18.7-0.4,18.7c-6.1,3.6-12.1,12.7-5.7,22.3s2.8,19.7,2.8,19.7l-1,15.5l-0.2,3.1h0.1l-0.1,1.2h0.2v1.3
	c-2.9,1-7,3.1-9.5,7c-1.2,1.9-2.6,3.7-4.2,5.2c-1.3,1.1-1.6,3-0.5,4.4C163.1,489.6,163.4,489.9,163.8,490.1L163.8,490.1z
	 M212.6,448.8c-0.2-2.7,0.3-5.4,1.4-7.8h2.9c0.1,0.7,0.2,1.3,0.4,1.9C218.1,446.4,214.8,448.1,212.6,448.8z"/>
<path class="st18" d="M213.4,602.8l1.6,4.7l-5,5.1l-16.7,3.9l-12.1-1.2l0.8-4.3c0.5-1.9,1.9-3.3,3.8-3.8c5-1.2,14.4-3.8,16.4-7.5
	L213.4,602.8z"/>
<path class="st1" d="M213.4,602.8l1.6,4.7l-5,5.1l-16.7,3.9l-12.1-1.2l0.8-4.3c0.5-1.9,1.9-3.3,3.8-3.8c5-1.2,14.4-3.8,16.4-7.5
	L213.4,602.8z"/>
<path class="st19" d="M185,614.1l2.3-3.1l-2.3-3.6c0,0-7,2.8-10.1,2.4s-4.7,5.1,1.2,6.6s38.9,0,38.9,0s5.8-2.7,0-10.1l-5,3.9
	c0,0-8.6,4.7-12.9,3.9L185,614.1z"/>
<path class="st18" d="M174.5,620.7l12.1,1.2l16.7-3.9l5.1-5.1l-0.4-1.2l-0.6-1.7l-0.6-1.7l-11.3-3.1c-0.6,0.9-1.4,1.7-2.3,2.3
	c-3.7,2.5-10.3,4.3-14.1,5.2l-0.5,0.1c-0.8,0.2-1.4,0.7-2,1.2c-0.7,0.7-1.2,1.5-1.4,2.4L174.5,620.7z"/>
<path class="st1" d="M174.5,620.7l12.1,1.2l16.7-3.9l5.1-5.1l-0.4-1.2l-4.6,3.6c0,0-8.6,4.7-12.9,3.9h-12.1l2.3-3.1l-2.1-3.2
	c-0.8,0.2-1.4,0.7-2,1.2c-0.7,0.7-1.2,1.5-1.4,2.4L174.5,620.7z"/>
<path class="st19" d="M178.4,619.6l2.3-3.1l-2.3-3.6c0,0-7,2.8-10.1,2.4s-4.7,5.1,1.2,6.6s38.9,0,38.9,0s5.8-2.7,0-10.1l-5.1,3.8
	c0,0-8.6,4.7-12.9,3.9L178.4,619.6z"/>
<path class="st18" d="M188.1,393.8c0,0,18.7,1.9,16-5.8c-0.8-2.2-1-4.6-0.6-6.9c0.5-2.9,1.6-5.6,3.3-7.9l-17.5,2.7
	c1,1.8,1.8,3.6,2.4,5.6C193.7,389.7,188.1,393.8,188.1,393.8L188.1,393.8z"/>
<path class="st20" d="M220,482.5c0,0-0.4,16.7-4.3,24.9l-0.8,23.7c0,0,1.2,21.8,3.5,26.1s-5.1,40.5-5.1,40.5v6.2
	c0,0-12.4,4.7-16-0.8l3.6-46.3l-1.5-64.3L220,482.5z"/>
<path class="st1" d="M220,482.5c0,0-0.4,16.7-4.3,24.9l-0.8,23.7c0,0,1.2,21.8,3.5,26.1s-5.1,40.5-5.1,40.5v6.2c0,0-12.4,4.7-16-0.8
	l3.6-46.3l-1.5-64.3L220,482.5z"/>
<path class="st21" d="M227.8,428.8l2.3,6.2l1.9,13.2c0.5,3.7-0.8,7.5-3.5,10.1c-4.7,4.7-10.9,14.4-10.9,14.4l-7.4-22.2
	c0,0,7.4-1.2,6.2-6.2s-0.8-14.4-0.8-14.4L227.8,428.8z"/>
<path class="st7" d="M227.8,428.8l2.3,6.2l1.9,13.2c0.5,3.7-0.8,7.5-3.5,10.1c-4.7,4.7-10.9,14.4-10.9,14.4l-7.4-22.2
	c0,0,7.4-1.2,6.2-6.2s-0.8-14.4-0.8-14.4L227.8,428.8z"/>
<path class="st1" d="M193.2,607.5c5,7.9,12.8,3.4,14.1,2.5l-0.6-1.7l-11.3-3.1C194.9,606.1,194.2,606.9,193.2,607.5L193.2,607.5z"/>
<path class="st20" d="M177.6,497.7c0.4,5.5,7,25.3,7,25.3l4.7,16.3c3.4,11.6,5.1,23.5,5.1,35.5c-0.1,3.8,0.4,7.6,1.5,11.2
	c3.1,8.6-3.1,20.2-3.1,20.2c5.4,9.7,14.8,3.1,14.8,3.1v-6.2c0,0,7.4-33.9,5.4-40.5s-2.7-24.5-2.7-24.5v-32.3
	c6.2-6.2,10-14.5,10.6-23.3c0.1-1.3,0.2-2.6,0.2-4c0.3-8.8-5.7-19.1-8-22.8c-0.6-0.9-0.9-1.4-0.9-1.4l-34.4,13.6h-0.1v4.3
	L177.6,497.7z"/>
<path class="st1" d="M189.3,375.9c1,1.8,1.8,3.6,2.4,5.6c3.8,1.5,8.1,1.3,11.8-0.4c0.5-2.9,1.6-5.6,3.3-7.9L189.3,375.9z"/>
<circle class="st18" cx="197.1" cy="366.5" r="15.2"/>
<path class="st1" d="M177.6,472.4h0.2c16.3,3.4,36.8-13.7,36.8-13.7c-0.5-0.9-1-1.9-1.4-2.9c-0.6-0.9-0.9-1.4-0.9-1.4l-34.4,13.7
	l-0.1,1.4L177.6,472.4z"/>
<path class="st21" d="M181.9,393.4c0,0,21.8-13.2,28.8-7.8l9.7,12.5c0,0,6.2,1.9,5.1,14.4l4.7,22.6l-14,3.5c0,0-8.3,7.8-1.6,19.1
	c0,0-20.6,17.1-37,13.6l1.2-18.3c0,0,3.5-10.1-2.7-19.5s-0.4-18.3,5.4-21.8C181.5,411.6,184.2,396.9,181.9,393.4z"/>
<path class="st18" d="M180.7,472.8c0,0-8.2,1.5-12.1,7.8c-1.1,1.9-2.5,3.6-4.1,5.1c-1.3,1.1-1.4,3.1-0.2,4.4
	c0.2,0.2,0.4,0.4,0.7,0.6c3.1,1.9,8.1,3,14.5-2.2C190.4,479.4,180.7,472.8,180.7,472.8L180.7,472.8z"/>
<path class="st1" d="M192.8,400.8c0,0,7.8-0.8,9.7,19.5s5.1,24.9,5.1,24.9s1.9,10.5-2.7,16.7s-13.6,19.5-13.6,19.5s-9.7,2.7-11.7-7
	l12.1-22.6c0,0,1.9-7.8-2.7-13.2S180.7,396.9,192.8,400.8z"/>
<path class="st21" d="M192,399.6c0,0,7.8-0.8,9.7,19.5s5.1,24.9,5.1,24.9s1.9,10.5-2.7,16.7s-13.6,19.5-13.6,19.5s-9.7,2.7-11.7-7
	l12.1-22.6c0,0,1.9-7.8-2.7-13.2S179.9,395.7,192,399.6z"/>
<path class="st1" d="M185.6,414.2c0,0-0.8,12.1,2.7,18.7s3.5,15.2,0,19.9 M183.6,399.4c0,0,3.1-3.1,12.1-3.5s12.9-3.1,12.9-3.1"/>
<path class="st1" d="M205.3,346.9c2.4,0.3,5.1,1.1,5.9,3.3c0.2,0.8,0.4,1.7,0.5,2.6c0.9,3.4,4.7,5,7.1,7.6c2.1,2.3,3,5.4,3.7,8.4
	c1.9,8.7,2.4,17.6,1.4,26.5c-0.8,6.5-2.3,12.8-2.8,19.3s0.4,13.3,3.9,18.8c1.5,2.3,3.5,4.4,4.6,7c-2.2,1.8-5.3,2.1-8.2,2.2
	c-3.3,0.1-6.7,0.1-10,0c-1.8,0.1-3.5-0.3-5.1-1.1c-1.1-0.7-2-1.7-2.7-2.9c-1.9-3.3-2.4-7.1-2.3-10.9s0.7-7.5,0.8-11.3
	c0-2.1-0.1-4.2-1.3-5.9c-1-1.1-2.1-2.1-3.3-3c-4.2-3.7-5.6-9.6-5.7-15.2s0.8-11.1,0.3-16.7c-0.2-2.2-1-4.8-3.1-5.2
	c-0.7,0-1.3-0.1-2-0.3c-1.7-0.7-1.6-3.1-2-4.9c-0.6-2-2.2-3.5-2.7-5.5c-1.1-4.7,4.9-10.3,8.8-12S201.1,346.4,205.3,346.9
	L205.3,346.9z"/>
<path class="st22" d="M205.7,346.1c2.4,0.3,5.1,1.1,5.9,3.3c0.2,0.8,0.4,1.7,0.5,2.6c0.9,3.4,4.7,5,7.1,7.6c2.1,2.3,3,5.4,3.7,8.4
	c1.9,8.7,2.4,17.6,1.4,26.5c-0.8,6.5-2.3,12.8-2.8,19.3s0.4,13.3,3.9,18.8c1.5,2.3,3.5,4.4,4.6,7c-2.2,1.8-5.3,2.1-8.2,2.2
	c-3.3,0.1-6.7,0.1-10.1,0c-1.8,0.1-3.5-0.3-5.1-1.1c-1.1-0.7-2-1.7-2.7-2.9c-1.9-3.3-2.4-7.2-2.3-10.9s0.7-7.5,0.8-11.3
	c0-2-0.1-4.2-1.3-5.9c-1-1.1-2.1-2.1-3.3-3c-4.2-3.7-5.6-9.6-5.7-15.2s0.8-11.1,0.3-16.7c-0.2-2.2-1-4.8-3.1-5.2
	c-0.7,0-1.3-0.1-2-0.3c-1.7-0.7-1.6-3.1-2-4.9c-0.6-2-2.2-3.5-2.7-5.5c-1.1-4.7,4.9-10.3,8.8-12S201.5,345.6,205.7,346.1
	L205.7,346.1z"/>
<ellipse class="st23" cx="760.9" cy="689.4" rx="24" ry="3.3"/>
<path class="st24" d="M136.6,464.7c0,0-27.6,14.3-13.3,31c0.8,2.1,2.9,3.5,5.2,3.4c0,0-0.8-1.4,2.2-2.5c1.1-0.4,2.1-0.9,3-1.6
	c1.3-0.9,2.2-2.1,2.7-3.6c0,0,5.6-7.5,1.3-21.5c0,0,0.6-4,0.1-4.6l-3.4,4.6c0,0,3.5,2.3,3.9,5.8c0,0-3.6-5.7-4.4-5.1
	c-0.2,0.1-1.7,2.5-1.7,2.5s6,4.1,6.4,9.4c0,0-3.4-7.4-7-8.5l-2.1,3.7c0,0,6.6,4,7.3,10c0,0-3.8-7.6-7.7-9.1l-1.5,3.9
	c0,0,6.3,4,6.9,9c0,0-5.3-8.4-7.2-8.1c0,0-1.2,3.7-1,4.8c0,0,4.5,3,4.6,5.9c0,0-4.1-5.2-4.8-4.9c0,0-0.3,5.2,1,8
	c-1.3-2.5-1.9-5.2-1.8-8c-1.3,1.1-2.2,2.6-2.6,4.3c0,0-1.2-2.9,2.7-5.5c0,0,0.4-4.1,0.8-4.6c0,0-4.2,2.1-6,4.6c0,0,0.7-3.8,6.4-5.7
	l1.5-4c0,0-5.7,2.4-7.5,4.6c0,0,1.3-3.8,8-5.5l2-3.7c0,0-5.1,1.7-7.6,3.7c0,0,1.9-3.2,8.2-4.7l1.6-2.3c0,0-3.7,1.3-4.7,1.8
	s-1.2,0.2-1.2,0.2c1.9-1.6,4.2-2.6,6.6-3C133.4,469.4,136.8,465,136.6,464.7L136.6,464.7z M868.7,701.3c0,0,33.7-110.3-5.3-154.5
	c-29.1-33.1-62.2-29.1-77-25c-7.8,2.1-14.2,7.4-17.7,14.7c-5.2,11.2-4.2,29.3,32.3,50.4c61.2,35.4,65,84,65,84L868.7,701.3z
	 M870,702.1c0,0-39.4-80.2-50.3-78.4c-5.1,0.8-7.5,5.9-8.6,11c-1.3,6.6-0.6,13.4,2.2,19.5C818.9,667,833.9,691.4,870,702.1z
	 M868.9,702.1c0,0,39.4-80.2,50.3-78.4c5.2,0.8,7.5,5.9,8.6,11c1.3,6.6,0.6,13.4-2.2,19.5C919.9,667,904.9,691.4,868.9,702.1z
	 M801.2,720.9c-1.1-0.9-1.9-2.1-2.2-3.4c-0.4-1.4,0.3-2.8,1.6-3.5c1.4-0.5,3,0.5,4.1,1.5s2.5,2.2,4,2c-1.6-1.5-2.3-3.6-1.9-5.8
	c0.1-0.4,0.3-0.8,0.5-1.2c0.8-0.9,2.3-0.5,3.2,0.2c3,2.1,3.9,6.3,3.9,10c0.2-1.4,0.2-2.8,0-4.1c-0.1-1.4,0.5-2.8,1.5-3.6
	c0.7-0.4,1.5-0.6,2.4-0.6c1.4-0.2,2.8,0.2,3.8,1.1c1.2,1.2,0.9,3.3-0.2,4.7c-1.1,1.3-2.5,2.4-4,3.2c-1.1,0.7-2.1,1.6-2.8,2.7
	c-0.1,0.2-0.2,0.3-0.2,0.5h-8.6C804.5,723.5,802.8,722.3,801.2,720.9L801.2,720.9z M951.4,688.6c-1.1-0.9-1.9-2.1-2.2-3.4
	c-0.4-1.4,0.3-2.8,1.6-3.4c1.4-0.6,3,0.4,4.2,1.5s2.5,2.2,4,2c-1.6-1.5-2.3-3.6-1.9-5.8c0.1-0.4,0.3-0.8,0.5-1.2
	c0.8-0.9,2.3-0.5,3.2,0.2c3,2.1,3.9,6.3,3.9,10c0.2-1.4,0.2-2.8,0-4.1c-0.1-1.4,0.5-2.8,1.5-3.6c0.7-0.4,1.5-0.6,2.4-0.6
	c1.4-0.2,2.8,0.2,3.8,1.1c1.2,1.2,0.9,3.3-0.2,4.7c-1.1,1.3-2.5,2.4-4,3.2c-1.1,0.7-2.1,1.6-2.8,2.7c-0.1,0.2-0.2,0.3-0.2,0.5h-8.6
	C954.7,691.3,953,690,951.4,688.6L951.4,688.6z M901.3,720.9c-1.1-0.9-1.9-2.1-2.3-3.4c-0.4-1.4,0.3-2.8,1.6-3.5
	c1.4-0.5,3,0.5,4.2,1.5s2.5,2.2,4,2c-1.6-1.4-2.3-3.6-1.9-5.8c0.1-0.4,0.2-0.8,0.5-1.2c0.8-0.9,2.2-0.5,3.2,0.2
	c3,2.1,3.9,6.3,3.9,10c0.2-1.4,0.2-2.7,0.1-4.1c-0.1-1.4,0.5-2.8,1.5-3.6c0.7-0.4,1.5-0.6,2.4-0.6c1.4-0.2,2.8,0.2,3.8,1.1
	c1.2,1.2,0.9,3.3-0.2,4.7c-1.1,1.3-2.5,2.4-4,3.2c-1.1,0.7-2.1,1.6-2.8,2.7c-0.1,0.2-0.2,0.3-0.2,0.5h-8.6
	C904.7,723.5,902.9,722.3,901.3,720.9L901.3,720.9z M759.4,655.6c0,0-3.2,4.2,1.5,10.5s8.6,11.7,7,15.7c0,0-7.1-11.8-12.9-12
	S753,662.6,759.4,655.6z M69.4,565.5c0,0,5.5,7.2-2.5,18s-14.7,20-12,26.8c0,0,12.1-20.1,22-20.4S80.3,577.6,69.4,565.5z
	 M40.4,565.5c0,0-5.5,7.2,2.5,18s14.6,20,12,26.8c0,0-12.1-20.1-22-20.4S29.6,577.6,40.4,565.5L40.4,565.5z M776.3,655.6
	c0,0,3.2,4.2-1.5,10.5s-8.6,11.7-7,15.7c0,0,7.1-11.8,12.9-12S782.7,662.6,776.3,655.6z"/>
<path class="st25" d="M791.7,537.3c0,0,99.2,31,77,163.9 M849.7,548.5c0,0-13.7,9.2-9.3,23 M801.7,556.6c0,0,8.4-8.5,18.5-3.8
	 M840.9,599.4c0,0,14.7-7.4,18.5,1.9 M877.2,614.9c0,0-11-0.9-11.2,4.4 M820.1,638.9c0,0,41.4,60,49.4,62.6 M816.3,648.3h9.7
	 M827.8,670.2l15.1,0.7 M837.1,652.7l-1.6,7.9 M853.2,676.7l-0.3,7.2 M918.8,638.9c0,0-41.4,60-49.4,62.6 M922.6,648.3H913
	 M911.1,670.2l-15.1,0.7 M901.9,652.7l1.6,7.9 M885.8,676.7l0.3,7.2"/>
<path class="st1" d="M69.4,565.5c0.5,0.7,0.9,1.4,1.1,2.3c9.6,11.3,14.8,21.8,5.5,22.1c-8.6,0.2-19,15.7-21.4,19.5
	c0.1,0.3,0.2,0.6,0.3,0.9c0,0,12.1-20.1,22-20.4S80.3,577.6,69.4,565.5z M40.4,565.5c-0.5,0.7-0.9,1.5-1.1,2.3
	c-9.6,11.3-14.8,21.8-5.5,22.1c8.6,0.2,19,15.7,21.4,19.5c-0.1,0.3-0.2,0.6-0.3,0.9c0,0-12.1-20.1-22-20.4S29.6,577.6,40.4,565.5z
	 M759.4,655.6c-0.3,0.4-0.5,0.8-0.7,1.3c-5.6,6.6-8.6,12.8-3.2,12.9c5,0.2,11.1,9.2,12.5,11.4c0,0.2-0.1,0.4-0.2,0.5
	c0,0-7.1-11.8-12.9-12S753,662.6,759.4,655.6L759.4,655.6z M776.3,655.6c0.3,0.4,0.5,0.9,0.7,1.3c5.6,6.6,8.6,12.8,3.2,12.9
	c-5,0.2-11.1,9.2-12.5,11.4c0,0.2,0.1,0.3,0.2,0.5c0,0,7.1-11.8,12.9-12S782.7,662.6,776.3,655.6L776.3,655.6z"/>
<path class="st26" d="M79.6,574.6c0,2.5-0.3,4.6-0.6,4.6s-0.6-2-0.6-4.6s0.4-1.3,0.7-1.3S79.6,572.1,79.6,574.6z M83.2,577.6
	c-2.2,1.2-4.2,1.9-4.3,1.6s1.5-1.5,3.7-2.8s1.3-0.3,1.5,0S85.4,576.4,83.2,577.6z M30.2,574.6c0,2.5,0.3,4.6,0.6,4.6s0.6-2,0.6-4.6
	s-0.4-1.3-0.7-1.3S30.2,572.1,30.2,574.6z M26.7,577.6c2.2,1.2,4.1,1.9,4.3,1.6s-1.5-1.5-3.7-2.8s-1.3-0.3-1.5,0
	S24.5,576.4,26.7,577.6z M753.4,660.9c0,1.5,0.2,2.7,0.4,2.7s0.4-1.2,0.4-2.7s-0.2-0.8-0.4-0.8S753.4,659.4,753.4,660.9z
	 M751.3,662.7c1.3,0.7,2.4,1.1,2.5,1s-0.9-0.9-2.2-1.6s-0.8-0.2-0.9,0S750,662,751.3,662.7L751.3,662.7z M782.3,660.9
	c0,1.5-0.2,2.7-0.4,2.7s-0.4-1.2-0.4-2.7s0.2-0.8,0.4-0.8S782.3,659.4,782.3,660.9z M784.4,662.7c-1.3,0.7-2.4,1.1-2.5,1
	s0.9-0.9,2.2-1.6s0.8-0.2,0.9,0S785.7,662,784.4,662.7L784.4,662.7z"/>
<path class="st27" d="M31.9,609.3c0,0,15.4-0.5,20-3.8s23.6-7.2,24.8-1.9s23.1,26.3,5.7,26.4s-40.3-2.7-44.9-5.5
	S31.9,609.3,31.9,609.3L31.9,609.3z M781.3,681.2c0,0-9-0.3-11.7-2.2s-13.8-4.2-14.5-1.1s-13.5,15.4-3.4,15.5s23.6-1.6,26.3-3.2
	S781.3,681.2,781.3,681.2L781.3,681.2z"/>
<path class="st11" d="M82.8,628.2c-17.3,0.1-40.3-2.7-44.9-5.5c-3.5-2.1-4.9-9.8-5.4-13.4H32c0,0,1,12.4,5.6,15.2s27.6,5.7,44.9,5.5
	c5,0,6.7-1.8,6.6-4.5C88.4,627.2,86.5,628.2,82.8,628.2z M751.5,692.3c10.2,0.1,23.6-1.6,26.3-3.2c2-1.3,2.9-5.8,3.2-7.8h0.3
	c0,0-0.6,7.3-3.3,8.9s-16.1,3.3-26.3,3.2c-2.9,0-4-1.1-3.9-2.6C748.3,691.7,749.4,692.3,751.5,692.3z"/>
<path class="st0" d="M204.6,611.6c31.5,0,57,4.6,57,10.3s-25.5,10.3-57,10.3s-57-4.6-57-10.3S173.1,611.6,204.6,611.6z M600.5,454.6
	c51.9,0,94,7.2,94,16.1s-42.1,16.1-94,16.1s-94-7.2-94-16.1S548.6,454.6,600.5,454.6z M129.2,498c11.7,0,21.2,1,21.2,2.1
	s-9.5,2.1-21.2,2.1s-21.2-1-21.2-2.1S117.5,498,129.2,498z M961.1,689.4c13.3,0,24,1.5,24,3.3s-10.7,3.3-24,3.3s-24-1.5-24-3.3
	S947.9,689.4,961.1,689.4z M869.2,698.7c13.3,0,24,1.5,24,3.3s-10.7,3.3-24,3.3s-24-1.5-24-3.3S855.9,698.7,869.2,698.7z M906,726.2
	c9.4,0,17.1,1,17.1,2.3s-7.6,2.3-17.1,2.3s-17.1-1-17.1-2.3S896.6,726.2,906,726.2z M810.6,723.8c9.4,0,17.1,1,17.1,2.3
	s-7.6,2.3-17.1,2.3s-17.1-1-17.1-2.3S801.2,723.8,810.6,723.8z M167.3,701c19.2,0,34.7,2.3,34.7,5.1s-15.5,5.1-34.7,5.1
	s-34.7-2.3-34.7-5.1S148.1,701,167.3,701z M251.4,747c19.2,0,34.7,2.3,34.7,5.1s-15.5,5.1-34.7,5.1s-34.7-2.3-34.7-5.1
	S232.2,747,251.4,747z M622.3,629.6c12.7,0,23,1.2,23,2.6s-10.3,2.6-23,2.6s-23-1.2-23-2.6S609.6,629.6,622.3,629.6z M514.8,703.5
	c12.7,0,23,1.2,23,2.6s-10.3,2.6-23,2.6s-23-1.2-23-2.6S502.1,703.5,514.8,703.5z M466.3,749.6c12.7,0,23,1.2,23,2.6
	s-10.3,2.6-23,2.6s-23-1.2-23-2.6S453.6,749.6,466.3,749.6z"/>
</svg>
