<?xml version="1.0" encoding="utf-8"?>
<!-- Generator: Adobe Illustrator 22.1.0, SVG Export Plug-In . SVG Version: 6.00 Build 0)  -->
<svg version="1.1" id="图层_1" xmlns="http://www.w3.org/2000/svg" xmlns:xlink="http://www.w3.org/1999/xlink" x="0px" y="0px"
	 viewBox="0 0 972.5 832.6" style="enable-background:new 0 0 972.5 832.6;" xml:space="preserve">
<style type="text/css">
	.st0{opacity:0.1;}
	.st1{fill:none;stroke:#535461;stroke-width:2;stroke-miterlimit:10;}
	.st3{opacity:0.1;}
	.st4{fill:#FFD037;}
	.st5{fill:#A8A8A8;}
	.st6{opacity:0.2;}
	.st7{opacity:0.1;fill:#FFFFFF;}
	.st8{fill:url(#SVGID_1_);}
	.st9{fill:#EFB4B6;}
	.st10{fill:#565388;}
	.st11{fill:#7679B4;}
	.st12{fill:#A66477;}
</style>
<ellipse class="st0" cx="506" cy="416.3" rx="466.5" ry="416.3"/>
<path class="st1" d="M78.7,573.1c0,0-21.2-72,4-124.9c10.7-22.1,13.9-47.2,9.2-71.3c-2.3-11.4-5.7-22.6-10.1-33.5"/>
<path class="st2" d="M97.4,310c0,8.8-16,34.4-16,34.4s-16-25.6-16-34.4c-0.6-8.8,6.1-16.4,14.9-17c8.8-0.6,16.4,6.1,17,14.9
	C97.4,308.6,97.4,309.3,97.4,310L97.4,310z M123.8,358.8C119,366.2,91.7,379,91.7,379s0.5-30.1,5.3-37.5c4.3-7.7,14-10.5,21.8-6.2
	s10.5,14,6.2,21.8C124.6,357.6,124.2,358.2,123.8,358.8z M122.6,442.3c-7.9,4-37.9,1.2-37.9,1.2s15.7-25.8,23.5-29.7
	c7.6-4.5,17.4-2,21.9,5.7c4.5,7.6,2,17.4-5.7,21.9C123.9,441.7,123.3,442,122.6,442.3L122.6,442.3z M58.2,380.7
	c6.3,6.1,35.8,12.5,35.8,12.5s-7.2-29.3-13.5-35.4c-6.7-5.7-16.8-4.9-22.6,1.8C52.7,365.8,52.8,374.8,58.2,380.7z M41.5,454.6
	c7.9,4,37.9,1.2,37.9,1.2S63.7,430,55.8,426.1c-8.1-3.4-17.5,0.4-21,8.5C31.8,442,34.6,450.5,41.5,454.6L41.5,454.6z M35.1,528.6
	c7.1,5.2,37.1,7.6,37.1,7.6s-11.1-28-18.2-33.3c-6.8-5.7-16.9-4.8-22.5,2c-5.7,6.8-4.8,16.9,2,22.5C34,527.9,34.5,528.2,35.1,528.6
	L35.1,528.6z"/>
<path class="st0" d="M781,295.3c-65.7,0-119,53.3-119,119l0,0c0,65.7,119,229,119,229s119-163.3,119-229
	C900,348.6,846.7,295.3,781,295.3L781,295.3z M781,475.6c-33.8,0-61.2-27.5-61.2-61.3s27.5-61.2,61.3-61.2
	c33.8,0,61.2,27.4,61.2,61.2C842.2,448.1,814.8,475.6,781,475.6C781,475.5,781,475.5,781,475.6L781,475.6z M377.5,105.6h-6.3
	c2.4-0.1,4.3-2.2,4.2-4.6c-0.1-2.3-1.9-4.1-4.2-4.2h-50.9c-2.4-0.1-4.5,1.8-4.6,4.2c-0.1,2.4,1.8,4.5,4.2,4.6c0.1,0,0.3,0,0.4,0h6.3
	c-2.4,0-4.4,2-4.4,4.4s2,4.4,4.4,4.4h-8.8c-2.4-0.1-4.5,1.8-4.6,4.2c-0.1,2.4,1.8,4.5,4.2,4.6c0.1,0,0.3,0,0.4,0h50.9
	c2.4,0.1,4.5-1.8,4.6-4.2c0.1-2.4-1.8-4.5-4.2-4.6c-0.1,0-0.3,0-0.4,0h8.8c2.4,0,4.4-2,4.4-4.4S379.9,105.6,377.5,105.6L377.5,105.6
	L377.5,105.6z M845,258.1h-6.3c2.4,0,4.4-2,4.4-4.4c0-2.4-2-4.4-4.4-4.4h-50.9c-2.4,0-4.4,2-4.4,4.4c0,2.4,2,4.4,4.4,4.4h6.3
	c-2.4-0.1-4.5,1.8-4.6,4.2c-0.1,2.4,1.8,4.5,4.2,4.6c0.1,0,0.3,0,0.4,0h-8.8c-2.4-0.1-4.5,1.8-4.6,4.2c-0.1,2.4,1.8,4.5,4.2,4.6
	c0.1,0,0.3,0,0.4,0h50.9c2.4,0.1,4.5-1.8,4.6-4.2c0.1-2.4-1.8-4.5-4.2-4.6c-0.1,0-0.3,0-0.4,0h8.8c2.4-0.1,4.3-2.2,4.2-4.6
	C849.1,260.1,847.3,258.2,845,258.1L845,258.1z M282.3,231.8H276c2.4,0,4.4-2,4.4-4.4c0-2.4-2-4.4-4.4-4.4h-50.9
	c-2.4,0-4.4,2-4.4,4.4c0,2.4,2,4.4,4.4,4.4h6.3c-2.4,0.1-4.3,2.2-4.2,4.6c0.1,2.3,1.9,4.1,4.2,4.2h-8.8c-2.4-0.1-4.5,1.8-4.6,4.2
	c-0.1,2.4,1.8,4.5,4.2,4.6c0.1,0,0.3,0,0.4,0h50.9c2.4-0.1,4.3-2.2,4.2-4.6c-0.1-2.3-1.9-4.1-4.2-4.2h8.8c2.4,0.1,4.5-1.8,4.6-4.2
	s-1.8-4.5-4.2-4.6C282.5,231.8,282.4,231.8,282.3,231.8z M515.7,614.9c156.8,0,284,20.5,284,45.8s-127.1,45.8-284,45.8
	s-284-20.5-284-45.8S358.9,614.9,515.7,614.9z"/>
<path class="st2" d="M679.3,758.2c0,0,5.5,7.2-2.5,18s-14.7,20-12,26.8c0,0,12.1-20.1,22-20.4S690.1,770.3,679.3,758.2z
	 M650.3,758.2c0,0-5.5,7.2,2.5,18s14.7,20,12,26.8c0,0-12.1-20.1-22-20.4S639.4,770.3,650.3,758.2z"/>
<path class="st3" d="M679.3,758.2c0.5,0.7,0.9,1.5,1.1,2.3c9.6,11.3,14.7,21.8,5.5,22.1c-8.6,0.3-19,15.7-21.4,19.5
	c0.1,0.3,0.2,0.6,0.3,0.9c0,0,12.1-20.1,22-20.4S690.1,770.3,679.3,758.2z M650.3,758.2c-0.5,0.7-0.9,1.4-1.1,2.3
	c-9.6,11.3-14.8,21.8-5.5,22.1c8.6,0.3,19,15.7,21.4,19.5c-0.1,0.3-0.2,0.6-0.3,0.9c0,0-12.1-20.1-22-20.4S639.4,770.3,650.3,758.2z
	"/>
<path class="st4" d="M689.5,767.3c0,2.5-0.3,4.6-0.6,4.6s-0.6-2-0.6-4.6s0.3-1.3,0.7-1.3S689.5,764.8,689.5,767.3z M693,770.4
	c-2.2,1.2-4.2,1.9-4.3,1.6s1.5-1.5,3.7-2.7s1.3-0.3,1.5,0S695.2,769.2,693,770.4z M640,767.3c0,2.5,0.3,4.6,0.6,4.6s0.6-2,0.6-4.6
	s-0.3-1.3-0.7-1.3S640,764.8,640,767.3z M636.5,770.4c2.2,1.2,4.2,1.9,4.3,1.6s-1.5-1.5-3.7-2.7s-1.3-0.3-1.5,0
	S634.3,769.2,636.5,770.4L636.5,770.4z"/>
<path class="st5" d="M244.3,750.8c0,0,28-5.6,35.5-13.1s41.1-20.5,44.8-11.2s50.4,41.1,18.7,46.7s-74.7,7.5-84,3.7
	S244.3,750.8,244.3,750.8L244.3,750.8z M726,656c0,0,28-5.6,35.5-13.1s41.1-20.6,44.8-11.2s50.4,41.1,18.7,46.7s-74.7,7.5-84,3.7
	S726,656,726,656L726,656z M641.8,802.1c0,0,15.4-0.5,20-3.8s23.6-7.2,24.8-2s23.1,26.3,5.7,26.4s-40.3-2.7-44.9-5.5
	S641.8,802.1,641.8,802.1L641.8,802.1z"/>
<path class="st6" d="M343.3,769.8c-31.7,5.6-74.7,7.5-84,3.7c-7.1-2.8-12.1-16.5-14-22.9c-0.6,0.1-0.9,0.2-0.9,0.2
	s5.6,22.4,14.9,26.2c9.3,3.7,52.3,1.9,84-3.7c9.2-1.6,11.8-5.4,10.8-10.2C353.3,766.2,350.1,768.6,343.3,769.8L343.3,769.8z
	 M824.9,674.9c-31.7,5.6-74.7,7.5-84,3.7c-7.1-2.8-12-16.5-14-22.9L726,656c0,0,5.6,22.4,14.9,26.1s52.3,1.9,84-3.7
	c9.2-1.6,11.8-5.4,10.8-10.2C835,671.3,831.8,673.7,824.9,674.9L824.9,674.9z M692.6,820.9c-17.3,0.1-40.3-2.7-44.9-5.5
	c-3.5-2.1-4.9-9.8-5.4-13.4h-0.5c0,0,1,12.4,5.6,15.2s27.6,5.7,44.9,5.5c5,0,6.7-1.8,6.6-4.5C698.3,819.9,696.3,820.9,692.6,820.9z"
	/>
<path class="st5" d="M16.7,577.5c-10.4,20.2-9.1,44.4,3.3,63.4c2,3,3.8,5.2,5.3,5.7c7,2.8,21.2,9.6,21.2,9.6l34-13.4
	c0,0,5.5-29.2,10.7-54.3c3.6-17.1,7-32.3,8.4-34.9c3.5-6.5,0-77.9,0-77.9s-34-2.3-43.3,23.9l-4.1,8L16.7,577.5z"/>
<path class="st7" d="M61.9,585.4c20.7,23.7,29.4,3.2,29.4,3.2c3.6-17.1,7-32.3,8.4-34.9c3.5-6.5,0-77.9,0-77.9s-34-2.3-43.3,23.9
	l-4.1,8C49.6,528.7,47,568.4,61.9,585.4L61.9,585.4z"/>
<path class="st5" d="M66.4,651.5l120-13.9l21.4-140.9l-16.2-36.6c-6.8-15.6-16.3-29.9-28-42.3c-8.1-8.6-18-16.9-28.4-21
	c-1.4-0.6-2.9-1.1-4.3-1.5c-3.4-1-7.1-0.4-10,1.8c-14.8,10.5-20.1,55.1-21.8,76.6c-0.7,8.8-1.9,17.6-3.6,26.3L66.4,651.5z"/>
<path class="st7" d="M146.3,495.2l-25,61.5c13.1-9.6,32.5-61.8,32.5-61.8l17.4,59.5l-13.9-62.7c2-13.6,2.6-27.4,1.8-41.1
	c-1.1-15.7-15.9-41-23.9-53.7c-1.4-0.6-2.9-1.1-4.3-1.5c-3.4-1-7.1-0.4-10,1.8c6.3,12.6,22,44.3,26.9,53.7
	C153.9,462.7,146.3,495.2,146.3,495.2L146.3,495.2z"/>
<path class="st5" d="M166.7,656.3h85.7c0,0-2-84.2-14.6-130c-4.7-17-10.1-26-15.1-30.4c-2.3-2.3-5.4-3.7-8.6-4
	c-2.5-0.2-4.9,0.4-7,1.7c-12.1,11.6-26.2,72.6-26.2,72.6L166.7,656.3z"/>
<path class="st7" d="M226.9,602.2c2.7,7.4,3.7,16,0,24.3l-14.5,7.2c0,0-39-16.5-34.3-50.4c0,0,1.3-7,14.7-6.5
	C208.2,577.6,221.7,587.6,226.9,602.2L226.9,602.2z M211.3,513.1c-0.4-11.9,6-16,11.3-17.3c-2.3-2.3-5.4-3.7-8.6-4
	c-3.7,3.1-6.3,7.3-7.5,12L192.9,570C192.9,570,212.1,533,211.3,513.1L211.3,513.1z"/>
<path class="st5" d="M149.6,565.5l32.3,44.1l5.6,36.4l-20.7,10.2l-34.3,7.6l-85.9-7.6l11.1-25.7l38.3-53.8L149.6,565.5L149.6,565.5z
	"/>
<path class="st7" d="M137.1,550.4c0,0,22,1.5,13.7,39.3s-93.3,40.8-93.3,40.8s18.1-32.1,45.8-54.9c3.1-2.6,6.1-5.3,9-8.1
	C118.9,561.1,131,549.9,137.1,550.4L137.1,550.4z"/>
<path class="st3" d="M156.9,578.9c0,0,29.8,27.1,27,68.9 M207,493.4c0,0-31.3,41.6-34.8,105.6 M99.7,475.8c0,0,15.2,68.8-22.7,120.6
	"/>
<path class="st2" d="M227.6,655.5c-2.2-2-4.2-4.4-4.8-7.3s0.6-6.4,3.4-7.4c3.1-1.2,6.4,1,8.9,3.1s5.4,4.7,8.7,4.2
	c-3.4-3.1-5-7.8-4.1-12.4c0.1-0.9,0.5-1.8,1.1-2.5c1.7-1.8,4.9-1,6.9,0.4c6.6,4.6,8.4,13.5,8.4,21.5c0.7-2.9,0.1-5.9,0.1-8.9
	s0.8-6.3,3.3-7.8c1.6-0.8,3.3-1.3,5.1-1.2c3-0.1,6.2,0.2,8.2,2.3c2.5,2.7,1.9,7.2-0.3,10.1s-5.5,4.8-8.5,6.8
	c-2.4,1.5-4.5,3.4-6.1,5.8c-0.2,0.3-0.3,0.7-0.5,1h-18.5C234.9,661.3,231.1,658.6,227.6,655.5L227.6,655.5z M113.3,661.2
	c-2.2-2-4.2-4.4-4.8-7.3s0.6-6.4,3.4-7.4c3.1-1.2,6.4,1,8.9,3.1s5.4,4.7,8.7,4.2c-3.4-3.1-5-7.8-4.1-12.4c0.1-0.9,0.5-1.8,1.1-2.5
	c1.7-1.8,4.9-1.1,6.9,0.4c6.6,4.6,8.4,13.5,8.4,21.5c0.7-2.9,0.1-5.9,0.1-8.9s0.8-6.3,3.3-7.8c1.6-0.8,3.3-1.3,5.1-1.2
	c2.9-0.1,6.2,0.2,8.2,2.3c2.5,2.7,1.9,7.2-0.3,10.1s-5.5,4.8-8.5,6.8c-2.4,1.5-4.5,3.4-6.1,5.8c-0.2,0.3-0.3,0.7-0.4,1h-18.5
	C120.5,667,116.7,664.3,113.3,661.2L113.3,661.2z M5,645.6c-2.2-2-4.2-4.4-4.8-7.3s0.6-6.4,3.4-7.4c3.1-1.2,6.4,1,8.9,3.1
	s5.4,4.7,8.7,4.2c-3.4-3.1-5-7.8-4.1-12.4c0.2-0.9,0.6-1.8,1.2-2.5c1.7-1.8,4.8-1,6.9,0.4c6.6,4.6,8.4,13.5,8.4,21.5
	c0.7-2.9,0.1-5.9,0.1-8.9s0.8-6.3,3.3-7.8c1.6-0.8,3.3-1.2,5.1-1.2c3-0.1,6.2,0.2,8.3,2.3c2.5,2.7,1.9,7.2-0.3,10.1
	s-5.5,4.8-8.5,6.8c-2.4,1.5-4.5,3.4-6.1,5.8c-0.2,0.3-0.3,0.7-0.5,1H16.4C12.3,651.4,8.4,648.7,5,645.6L5,645.6z"/>
<linearGradient id="SVGID_1_" gradientUnits="userSpaceOnUse" x1="617.0591" y1="134.1151" x2="617.0591" y2="663.1768" gradientTransform="matrix(0.9997 -2.338528e-02 -2.338528e-02 -0.9997 -107.452 821.6573)">
	<stop  offset="0" style="stop-color:#808080;stop-opacity:0.25"/>
	<stop  offset="0.54" style="stop-color:#808080;stop-opacity:0.12"/>
	<stop  offset="1" style="stop-color:#808080;stop-opacity:0.1"/>
</linearGradient>
<path class="st8" d="M648.1,652.8c-1.2-5.2-4.5-7-11.8-6.1c-7.9,1-15.8,1.9-25.5-4.9c-5.1-3.6-9.1-6.8-11.7-9l0.4-0.1
	c0,0-19.6-24.5-18.3-38.6s-9.1-50.5-9.1-50.5s-0.6-23.8-6-37.6c-1.5-3.6-2.6-7.4-3.3-11.2c-3.3-17.4-13-63.4-28.7-83.8l-1-40.6v-1.6
	l0.4,0.4c1.5-1.6,2.7-3.4,3.5-5.4c4.6,2.4,14.5,7.3,19.9,8.3c7.2,1.4,16,7.4,16,7.4s20.3,23.7,35.9,13.2s-29.2-27.4-29.2-27.4
	s-15.2-8.2-21.6-10.4c-4.5-1.5-13.9-7.7-19-11.1c-0.1-0.6-0.2-1.1-0.3-1.7c-3-15.2-7.3-21-5.5-30.4c0.5-2.4,1.2-4.8,2.2-7
	c6-14.2-19-33.9-19-33.9s-17-14.4-10.8-22.4c0,0,9.5-1,1.4-8.6c-1.4-1.3-2.8-2.5-4.3-3.6c0.1-0.2,0.1-0.4,0.2-0.6
	c1.7-5.2,4.3-10.1,7.8-14.3c0.5-0.7,1.1-1.3,1.7-2c13.5-3.6,22.9-16,22.6-30c-0.2-7.4-3.1-14.5-8.2-19.9c1.9-1.7,2.9-4.3,2.6-6.8
	c0.8-9.9-19-19.9-27.3-18.4c-4.7,0.8-9,3.4-13.7,4.2c-4.9,0.9-10-0.1-15,0c-6.7,0.1-13.2,2-18.9,5.5c-1.4,0.8-2.6,1.9-3.5,3.3
	c-0.7,1.6-1,3.4-1,5.1c-1.4,18.2-14.6,33.4-28.6,45.3c-1.9,1.4-3.5,3.2-4.8,5.1c-1.4,2.7-1.4,5.9-1.4,8.9
	c-0.2,30.2-10.9,61.9-35.2,80.3c0.4,0.2,0.8,0.5,1.1,0.7l-1.1,0.9c7.9,5.1,19.8,2.6,25-5c-1.9,8.3-5.3,16.3-10,23.5c0.4,0,0.7,0,1,0
	c-0.3,0.5-0.6,1.1-1,1.6c11-0.3,19-9.7,25.4-18.3c0.1,0.8,0.1,1.7,0.1,2.5c0,9.3-2.5,18.5-7.4,26.4l1-0.1c-0.3,0.6-0.6,1.1-1,1.6
	c1.6-0.1,3.2-0.3,4.8-0.5c-6.4,13-16.4,36.7-16.4,36.7l-3.8,9.3c-2,4.9-4.9,9.5-8.6,13.3c-4,4.2-9.2,9.4-11.4,10.7
	c-3.9,2.4-13.5,33.9,3.8,28.8c17.3-5.1,23.9-29.4,23.9-29.4c0.5-4,2.1-7.8,4.5-11c1.3-1.8,2.4-3.8,3.3-5.9
	c4.8-10.6,10.2-20.9,16.1-30.9c3.4-5.7,6.3-11.6,8.7-17.8c1.3-3.5,3-6.9,5.1-10c3.9-1.6,7.6-3.7,11-6.1c2.9-2,5.4-4.6,7.4-7.5
	c1.2,4.9,2.7,9.8,4.5,14.5c4.2,11.4,11.9,37.7,0.8,55.3c-10.2,16.1-10.4,24-9.7,27.2c0,0.2-0.1,0.3-0.1,0.5
	c-1.9,7.2-1,14.9,2.6,21.4c1.9,3.7,3,7.8,3.1,11.9v1.2c0.1,2.8-0.3,5.5-1.1,8.1c-2.2,7.4-6.7,23.6-8.2,35.3
	c-2,15.7-15.1,30.8-15.1,30.8s-34.8,37.5-48,81.5c0,0-7.5,18.9-12.9,22.9c0,0-10.4,6.2-12.1,18c0,0.3-0.1,0.6-0.1,1l-2.1,5.6
	c0,0,19.3,10.5,23.2,10.4l2.3-4.7l20.2,15.1l30.1-0.7c0.8-0.5,1.6-1.2,2.2-2c1.4-1.9,2.3-4.8-2.3-7.9c-2.3-1.5-5-2-7.7-1.6
	c-3.9,0.6-11.3-0.7-18.2-15.2l-3.8-7.1l0.5,0.2c0,0-6.6-10.8,6.5-25.1s32-52.3,32-52.3s25.6-20.9,30.1-34.3c0,0,17.1-28.9,27-46
	c1.7,3.6,3,6.3,3,6.3s20.4,27.6,23.3,48.6s22.3,72.8,30.5,86.7s8.4,19.3,8.4,19.3s-5.2,13.1-2,23.9c0,0.1,0.1,0.2,0.1,0.3l0.2,6.2
	l23,0.3l-0.1-3.1l29.3,0.9c0,0,28.3-8.5,27.4-14.7C648.3,653.7,648.2,653.2,648.1,652.8z"/>
<path class="st9" d="M520.1,219.8c-3.6,2.5-6.8,5.5-9.6,8.9c-3.4,4.2-5.9,8.9-7.5,14c-1.4,4.1-2.1,8.4-2,12.7l-14.8-12.6l-19,4.3
	c4-3.8,7.4-8.1,10.2-12.8c2.5-4.2,4.5-8.8,6-13.5c1-3,1.7-6.2,2.1-9.3C485.5,211.4,540.5,205.5,520.1,219.8L520.1,219.8z"/>
<path class="st10" d="M443.2,667.7c-0.6,0.8-1.3,1.4-2.1,2l-29.1,0.7l-19.5-14.9l-2.2,4.7c-3.8,0.1-22.4-10.2-22.4-10.2l2.2-5.4
	c0-0.3,0.1-0.6,0.1-1c1.7-11.7,11.7-17.7,11.7-17.7l3.8-1.6l23.1,5.6l7.2,13.6c6.7,14.2,13.9,15.5,17.6,14.9
	c2.6-0.4,5.2,0.1,7.4,1.6C445.4,662.9,444.6,665.8,443.2,667.7L443.2,667.7z M643.6,653.4c0.9,6.1-26.5,14.4-26.5,14.4l-28.4-0.9
	l0.1,3.1l-22.2-0.2l-0.1-6.1c0-0.1-0.1-0.2-0.1-0.3c-3.1-10.6,1.8-23.5,1.8-23.5l2.2-3.9l22.1-6.7c4.7,4.3,9.6,8.3,14.8,11.9
	c9.3,6.7,17,5.7,24.6,4.8c7-0.9,10.2,1,11.4,6C643.5,652.5,643.6,652.9,643.6,653.4L643.6,653.4z"/>
<path class="st11" d="M511.5,470.4c-0.7,1.6-3.1,5.9-6.3,11.5c-9.5,16.8-26,45.2-26,45.2c-4.3,13.1-29.1,33.6-29.1,33.6
	s-18.3,37.2-31,51.3s-6.3,24.7-6.3,24.7l-30.9-10.8c5.3-4,12.5-22.5,12.5-22.5c12.8-43.2,46.4-80,46.4-80s12.7-14.9,14.6-30.2
	c1.5-11.5,5.8-27.4,7.9-34.7c0.7-2.6,1.1-5.3,1-8v-1.2c-0.1-4.1-1.1-8.1-3-11.7c-3.4-6.4-4.3-13.9-2.5-21c0.6-2.5,1.6-4.9,3-7.1
	l7.5-2.2l26.7-7.8c0,0,1.6,5.8,3.9,14.1C505.1,433.1,513.5,466.1,511.5,470.4L511.5,470.4z"/>
<path class="st3" d="M510.9,469.5c-0.7,1.6-3.1,5.9-6.3,11.5c-9.5,16.8-26,45.2-26,45.2c-4.3,13.1-29.1,33.6-29.1,33.6
	s-18.3,37.2-31,51.3s-6.2,24.7-6.2,24.7L381.4,625c5.3-4,12.5-22.5,12.5-22.5c12.8-43.2,46.4-80,46.4-80s12.6-14.8,14.6-30.1
	c1.5-11.5,5.8-27.4,7.9-34.7c0.7-2.6,1.1-5.3,1-8v-1.2c-0.1-4.1-1.1-8.1-3-11.7c-3.4-6.4-4.3-13.9-2.5-21c0.6-2.5,1.6-4.9,3-7.1
	l7.5-2.2l26.7-7.8c0,0,1.7,5.8,3.9,14.1C504.6,432.2,513,465.2,510.9,469.5L510.9,469.5z"/>
<path class="st11" d="M596.4,632.3l-28.2,7.5c0,0-0.1-5.3-8.1-19s-26.8-64.5-29.6-85.1S508,488.1,508,488.1s-1.3-2.7-2.9-6.2
	c-1.5-3.3-3.2-7.2-4.4-10.5c-2.5-6.8-13.4-16.5-13.4-16.5c-20-11.1-24-24.4-24.2-32.8c-0.1-2.7,0.2-5.5,1.1-8.1l5.1-6.7l9.7-12.8
	l32.9-35.2l20,4.1l1.2,51.3c15.2,19.9,24.6,65.1,27.7,82.2c0.7,3.8,1.8,7.4,3.2,11c5.3,13.5,5.8,36.9,5.8,36.9s10,35.8,8.8,49.6
	S596.4,632.3,596.4,632.3L596.4,632.3z"/>
<path class="st9" d="M534.6,346.6c0,0,15.6,11.1,21.8,13.3s20.9,10.2,20.9,10.2s43.3,16.6,28.2,26.9s-34.8-13-34.8-13
	s-8.6-5.9-15.5-7.3s-21.7-9.4-21.7-9.4L534.6,346.6z"/>
<path class="st3" d="M520.1,219.8c-3.6,2.5-6.8,5.5-9.6,8.9c-1.8,0.4-3.7,0.6-5.5,0.6c-8.4,0.2-12.8-9-18.3-14.5
	c1.8-5.6-1.2-3.4-1.2-3.4S540.5,205.5,520.1,219.8z"/>
<circle class="st9" cx="504.3" cy="197.9" r="29.9"/>
<path class="st3" d="M501.1,255.5l-14.8-12.7l-19,4.3c4-3.8,7.4-8.1,10.2-12.8h0.1c6.4-1.2,13,0.1,18.5,3.5c2.4,1.5,4.8,3.2,7.1,5
	C501.7,246.9,501,251.2,501.1,255.5z M531.9,363.5l0.3,11.5c-2.3-2.3-13.8-13.2-10.7,2.6c3.5,17.5-16.9,30.3-16.9,30.3
	c-1.6,2.2-3.2,4.1-4.7,5.9c-16.2,17.9-30.5,12.5-36.8,8.5c-1.2-0.8-2.4-1.6-3.4-2.6c-0.6-0.8-1-1.9-1-2.9c0.6-2.5,1.6-4.9,3-7.1
	l7.5-2.2l9.7-12.8l32.9-35.2L531.9,363.5z"/>
<path class="st10" d="M532.5,373.8c0,0-14.5-15.4-11,2.2s-16.9,30.3-16.9,30.3C480.9,439,459.7,418,459.7,418s-5.5-6,8.5-28.5
	c10.7-17.3,3.3-43.1-0.8-54.2c-1.7-4.8-3.2-9.7-4.5-14.7l-1-4l-2.3-9.4c-2.7-10.9-3.5-22.2-2.5-33.4c0.7-7.5,2.2-14.9,4.7-22
	c1.5-4.6,3.3-8.5,5.1-10.8c2.7-3.2,6.4-5.3,10.5-6c6.4-1.2,13,0,18.5,3.5c3.9,2.4,7.6,5.2,11,8.4c7.8,7.5-1.3,8.4-1.3,8.4
	c-5.9,7.8,10.5,22,10.5,22s24.2,19.3,18.4,33.3s-0.3,18.4,3.2,36.7S532.5,373.8,532.5,373.8L532.5,373.8z"/>
<path class="st3" d="M502.3,154.4c-4.6,0.8-8.7,3.3-13.3,4.2c-4.8,0.9-9.6-0.1-14.5,0c-6.5,0.1-12.8,1.9-18.3,5.4
	c-1.4,0.8-2.6,1.9-3.4,3.2c-0.7,1.6-1,3.3-1,5c-1.4,17.9-14.1,32.7-27.6,44.5c-1.8,1.4-3.4,3.1-4.6,5c-1.4,2.6-1.3,5.7-1.4,8.7
	c-0.2,29.6-10.5,60.7-34,78.8c7.9,5.2,20,2.4,24.8-5.8c-1.7,9-5.2,17.7-10.1,25.5c10.5-0.2,18.2-9.5,24.4-17.9
	c0.9,10.5-1.6,20.9-7,29.9c14-1.2,28.3-4.2,39.6-12.5c5.2-3.8,9.9-9.3,9.8-15.7c-0.1-3.7-1.7-7.1-2.9-10.6c-3-9.1-2.3-20.5,5.2-26.4
	c1.4-0.9,2.8-2,4-3.1c1.7-1.9,2.3-4.6,2.7-7.2c0.9-6.3,0.5-12.7-0.9-18.8c-0.4-1.3-0.6-2.6-0.6-4c0.2-2.8,2.3-5.2,4.7-6.7
	s5.2-2.3,7.8-3.5c9-4.4,14.7-13.5,14.9-23.5c0-2.9-0.4-6.1,1.4-8.3c2.7-3.3,8.3-2.2,11.5-4.9c3-2.6,2.7-7.5,4.8-10.9
	c1.8-2.8,5-4.3,7.4-6.5C537.6,167.1,511.9,152.7,502.3,154.4L502.3,154.4z"/>
<path class="st3" d="M499.8,267.6v0.2L481,293.3L469.4,309c0,0-3.1,3-7.4,7.5l-2.3-9.4c-2.7-10.9-3.5-22.2-2.5-33.4
	c4.4-8.7,9.1-14.6,13.5-18.5c7.2-6.4,18.3-5.8,24.7,1.5C498.1,259.7,499.6,263.6,499.8,267.6L499.8,267.6z"/>
<path class="st12" d="M502.3,152.9c-4.6,0.8-8.7,3.3-13.3,4.2c-4.8,0.9-9.6-0.1-14.5,0c-6.5,0.1-12.8,1.9-18.2,5.4
	c-1.4,0.8-2.6,1.9-3.4,3.2c-0.7,1.6-1,3.3-1,5c-1.3,17.9-14.1,32.7-27.6,44.5c-1.8,1.4-3.4,3.1-4.6,5c-1.4,2.6-1.3,5.7-1.4,8.7
	c-0.2,29.6-10.5,60.7-34,78.8c7.9,5.2,20,2.4,24.8-5.8c-1.7,9.1-5.2,17.7-10.1,25.5c10.5-0.2,18.2-9.5,24.4-17.9
	c0.9,10.5-1.6,20.9-7,29.9c14-1.2,28.3-4.2,39.6-12.5c5.2-3.8,9.9-9.3,9.8-15.7c-0.1-3.7-1.7-7.1-2.9-10.6
	c-3.1-9.1-2.3-20.5,5.2-26.4c1.4-0.9,2.8-2,4-3.2c1.7-1.9,2.3-4.6,2.7-7.2c0.8-6.3,0.5-12.7-0.9-18.8c-0.4-1.3-0.6-2.6-0.6-4
	c0.2-2.8,2.3-5.2,4.7-6.7s5.2-2.3,7.8-3.5c9-4.4,14.7-13.4,14.9-23.4c0-2.9-0.4-6.1,1.4-8.3c2.7-3.3,8.3-2.1,11.5-4.9
	c3.1-2.6,2.7-7.5,4.8-10.9c1.8-2.8,5-4.3,7.4-6.5C537.6,165.6,511.9,151.2,502.3,152.9L502.3,152.9z"/>
<path class="st9" d="M498.3,266.1v0.2l-18.9,25.6l-11.6,15.7c0,0-21.7,20.4-27.5,36.6c-2.2,6.1-5,11.9-8.3,17.4
	c-5.7,9.8-10.9,19.9-15.6,30.3c-0.8,2-1.9,4-3.2,5.8c-2.3,3.2-3.8,6.9-4.3,10.8c0,0-6.3,23.9-23.1,28.9s-7.5-25.9-3.7-28.3
	c2.1-1.3,7-6.4,11-10.5c3.6-3.8,6.4-8.2,8.4-13.1l3.6-9.1c0,0,17.4-41.8,20.4-44.1c0.9-0.8,1.6-1.7,2.2-2.7
	c2.4-3.9,4.9-7.8,7.4-11.7c3.3-5.1,8.5-15.1,16.1-35.3c0.5-1.4,1.1-2.8,1.6-4.1c5.1-12.3,11-20,16.4-24.8c7.2-6.4,18.3-5.7,24.7,1.5
	C496.5,258.3,498.1,262.1,498.3,266.1L498.3,266.1z"/>
<path class="st10" d="M498.7,266v0.2l-19.2,26.1l-27.1-13.5c5.2-12.5,11.2-20.4,16.7-25.3c7.4-6.5,18.6-5.9,25.2,1.5
	C496.9,258,498.5,261.9,498.7,266L498.7,266z"/>
<path class="st3" d="M474.9,245.7c0,0,20.4,8.7,30.4,9.3 M643.6,653.4c0.9,6.1-26.5,14.4-26.5,14.4l-28.4-0.9l0.1,3.1l-22.2-0.2
	l-0.1-6.1c0-0.1-0.1-0.2-0.1-0.3l51,1.1l25.9-12.3C643.5,652.5,643.6,652.9,643.6,653.4L643.6,653.4z M443.2,667.7
	c-0.6,0.8-1.3,1.4-2.1,2l-29.1,0.7l-19.5-14.9l-2.2,4.7c-3.8,0.1-22.4-10.2-22.4-10.2l2.2-5.4c0-0.3,0.1-0.6,0.1-1l22.7,10
	l19.5,14.1L443.2,667.7z M463,413.7c0,0,10.9-23.2,22.2-30.4 M506.5,310.1c0,0,6.4,11.9,25.8,7.4"/>
</svg>
