<svg xmlns="http://www.w3.org/2000/svg" viewBox="0 0 1117.5 823.9"><path opacity=".1" d="M393.7 332.5h-19.3c5.3 0 9.6 3.9 9.6 8.7s-4.3 8.7-9.6 8.7H263c-5.3 0-9.6-3.9-9.6-8.7s4.3-8.7 9.6-8.7h19.3c-5.3 0-9.6-3.9-9.6-8.7s4.3-8.7 9.6-8.7h-13.8c-5.3 0-9.6-3.9-9.6-8.7s4.3-8.7 9.6-8.7H380c5.3 0 9.6 3.9 9.6 8.7s-4.3 8.7-9.6 8.7h13.8c5.3 0 9.6 3.9 9.6 8.7s-4.4 8.7-9.7 8.7zm-170-131.2h-19.3c5.3 0 9.6 3.9 9.6 8.7s-4.3 8.7-9.6 8.7H93c-5.3 0-9.6-3.9-9.6-8.7s4.3-8.7 9.6-8.7h19.3c-5.3 0-9.6-3.9-9.6-8.7s4.3-8.7 9.6-8.7H98.5c-5.3 0-9.6-3.9-9.6-8.7s4.3-8.7 9.6-8.7H210c5.3 0 9.6 3.9 9.6 8.7s-4.3 8.7-9.6 8.7h13.8c5.3 0 9.6 3.9 9.6 8.7s-4.4 8.7-9.7 8.7zM637.3 632c87.6 0 158.5 11.3 158.5 25.3s-71 25.3-158.5 25.3-158.5-11.3-158.5-25.3S549.7 632 637.3 632zM366.1 790.1c87.6 0 158.5 5.6 158.5 12.5s-71 12.5-158.5 12.5-158.5-5.6-158.5-12.5 71-12.5 158.5-12.5zm559.7 4.3c19.2 0 34.7 2.3 34.7 5.1s-15.5 5.1-34.7 5.1-34.7-2.3-34.7-5.1 15.5-5.1 34.7-5.1zm-65.1-43.8c14 0 25.3 1.2 25.3 2.6s-11.3 2.6-25.3 2.6-25.3-1.2-25.3-2.6 11.3-2.6 25.3-2.6zm-147.1-21.2c12.7 0 23 1.2 23 2.6s-10.3 2.6-23 2.6-23-1.2-23-2.6 10.3-2.6 23-2.6zm219.2-28.9c12.7 0 23 1.2 23 2.6s-10.3 2.6-23 2.6-23-1.2-23-2.6 10.3-2.6 23-2.6zm-262 92.9c19.2 0 34.7 2.3 34.7 5.1s-15.5 5.1-34.7 5.1-34.7-2.3-34.7-5.1 15.5-5.1 34.7-5.1zM201.7 605.2c111.4 0 201.7 5.6 201.7 12.5s-90.3 12.5-201.7 12.5S0 624.5 0 617.6s90.3-12.4 201.7-12.4zm605.5-3.2c46.3 0 83.9 5.6 83.9 12.5S853.5 627 807.2 627s-83.9-5.6-83.9-12.5 37.6-12.5 83.9-12.5zM16.1 389c17.4 67.1 54.1 125.2 112.2 153.3 120.7 58.5 392.9 28.3 596.1-6.3 105.1-17.9 197.4-67.3 264.5-136.8L16.1 389zM1081.5 73H970c-5.3 0-9.6-3.9-9.6-8.7s4.3-8.7 9.6-8.7h19.3c-5.3 0-9.6-3.9-9.6-8.7s4.3-8.7 9.6-8.7h-13.8c-5.3 0-9.6-3.9-9.6-8.7s4.3-8.7 9.6-8.7h58.2c-12.9-5.4-28-9.3-45.4-11.3C829.7-9.1 773 3.2 753 15.7c-24.9 15.8-52.6 26.8-81.5 32.3-97.9 18.3-280.9 40.2-446.8-7-82.5-23.4-143.8 16.3-180.5 82.6h1056.7c-1.4-19.3-5.5-37.1-13.1-52.7-1.9 1.4-4.1 2.2-6.3 2.1zM6.7 248.9c-4.3 39-2.8 78.5 4.3 117.1l978.7 32.4c26.9-27.9 49.8-59.5 68-93.8L6.7 248.9zm1094.2-124.7L32.4 147.7c-13 30.2-21.6 64.4-25.6 99.8h1075.3c7-20.7 12.2-42 15.5-63.6 3.3-20.8 4.6-41 3.3-59.7zM926.1 602.6c11.3 0 20.5 1.3 20.5 2.8s-9.2 2.8-20.5 2.8-20.5-1.3-20.5-2.8 9.1-2.8 20.5-2.8zm78.4 7.9c11.3 0 20.5 1.3 20.5 2.8s-9.2 2.8-20.5 2.8-20.5-1.3-20.5-2.8 9.2-2.8 20.5-2.8zm92.5-10.7c11.3 0 20.5 1.3 20.5 2.8s-9.2 2.8-20.5 2.8-20.5-1.3-20.5-2.8 9.2-2.8 20.5-2.8zM973.1 634c8 0 14.6.9 14.6 2s-6.5 2-14.6 2-14.6-.9-14.6-2 6.6-2 14.6-2zm81.5-2c8 0 14.6.9 14.6 2s-6.5 2-14.6 2-14.6-.9-14.6-2 6.5-2 14.6-2zM49 811.4c20.1 0 36.4 2.8 36.4 6.2S69 823.9 49 823.9s-36.4-2.8-36.4-6.2 16.3-6.3 36.4-6.3zm117.1-47.2c15 0 27.2 2.1 27.2 4.7s-12.2 4.7-27.2 4.7-27.2-2.1-27.2-4.7 12.2-4.7 27.2-4.7zm-150-133.3c8.4 0 15.2 1.2 15.2 2.6s-6.8 2.6-15.2 2.6S.9 634.9.9 633.5s6.8-2.6 15.2-2.6z"/><path fill="#B77B7F" d="M319.8 608.3l4 8.5v-63.2h-4v54.7zm-257.7 0l-4 8.5v-63.2h4v54.7z"/><path opacity=".1" d="M319.8 608.3l4 8.5v-63.2h-4v54.7zm-257.7 0l-4 8.5v-63.2h4v54.7z"/><path fill="#B77B7F" d="M78.2 437.4h11.1v77.7H78.2v-77.7zm222.4 0h11v77.7h-11v-77.7z"/><path opacity=".1" d="M78.2 437.4h11.1v9.1H78.2v-9.1zm222.4 0h11v9.1h-11v-9.1z"/><path fill="#DDA2A6" d="M61.2 434.1h266.2v11.6H61.2v-11.6z"/><path opacity=".1" d="M78.2 450.6h11.1v11.6H78.2v-11.6zm222.4 0h11v11.6h-11v-11.6z"/><path fill="#DDA2A6" d="M61.2 449.9h266.2v11.6H61.2v-11.6z"/><path opacity=".1" d="M78.2 466.4h11.1V478H78.2v-11.6zm222.4 0h11V478h-11v-11.6z"/><path fill="#DDA2A6" d="M61.2 465.6h266.2v11.6H61.2v-11.6z"/><path opacity=".1" d="M78.2 482.1h11.1v11.6H78.2v-11.6zm222.4 0h11v11.6h-11v-11.6z"/><path fill="#DDA2A6" d="M61.2 481.4h266.2V493H61.2v-11.6z"/><path opacity=".1" d="M78.2 497.9h11.1v11.6H78.2v-11.6zm222.4 0h11v11.6h-11v-11.6z"/><path fill="#DDA2A6" d="M61.2 497.2h266.2v11.6H61.2v-11.6z"/><g opacity=".1"><circle cx="83.8" cy="440.6" r="1.6"/><circle cx="83.8" cy="456.4" r="1.6"/><circle cx="83.8" cy="472.2" r="1.6"/><circle cx="83.8" cy="487.9" r="1.6"/><circle cx="83.8" cy="503.7" r="1.6"/><circle cx="306.1" cy="440.6" r="1.6"/><circle cx="306.1" cy="456.4" r="1.6"/><circle cx="306.1" cy="472.2" r="1.6"/><circle cx="306.1" cy="487.9" r="1.6"/><circle cx="306.1" cy="503.7" r="1.6"/></g><circle fill="#918C9E" cx="83.8" cy="439.9" r="1.6"/><circle fill="#918C9E" cx="83.8" cy="455.7" r="1.6"/><circle fill="#918C9E" cx="83.8" cy="471.4" r="1.6"/><circle fill="#918C9E" cx="83.8" cy="487.2" r="1.6"/><circle fill="#918C9E" cx="83.8" cy="503" r="1.6"/><circle fill="#918C9E" cx="306.1" cy="439.9" r="1.6"/><circle fill="#918C9E" cx="306.1" cy="455.7" r="1.6"/><circle fill="#918C9E" cx="306.1" cy="471.4" r="1.6"/><path fill="#DDA2A6" d="M333.5 520H54.8l6.3-7.8h266.2l6.2 7.8z"/><path opacity=".1" d="M333.5 520H54.8l6.3-7.8h266.2l6.2 7.8z"/><path fill="#DDA2A6" d="M333.5 519.6H54.8l6.3-7.8h266.2l6.2 7.8zm9.8 12.5l-299-.7 10.2-10.7h280.1l8.7 11.4z"/><path opacity=".1" d="M343.3 532.1l-299-.7 10.2-10.7h280.1l8.7 11.4z"/><path fill="#DDA2A6" d="M343.3 531.8l-299-.7 10.2-10.7h280.1l8.7 11.4zm9.5 11.4H33.6l9.8-11 300.6.4 8.8 10.6z"/><path fill="#B77B7F" d="M82.1 553.5v22.8l-3.9 7.6-1.3-27.2-.2-3.3h5.4zm223.9 0l-.2 3.3-1.3 27.2-3.9-7.6v-22.8h5.4z"/><path opacity=".1" d="M82.1 553.5v22.8l-3.9 7.6-1.3-27.2-.2-3.3h5.4zm223.9 0l-.2 3.3-1.3 27.2-3.9-7.6v-22.8h5.4z"/><path fill="#B77B7F" d="M68.1 551.7h10.2V584H68.1v-32.3zm236.4 0h10.1V584h-10.1v-32.3z"/><path opacity=".1" d="M78.2 553.5h3.9v3.3h-14v-5.1h10.2v1.8zm236.5-1.8v5.1h-14.1v-3.3h3.9v-1.8h10.2z"/><path fill="#B77B7F" d="M54.8 548.1h272.5v8H54.8v-8z"/><path fill="#B77B7F" d="M46.5 546.6h11.6v70.1H46.5v-70.1zm288.9 70.2h-11.6v-70.1h11.6v70.1z"/><path opacity=".1" d="M54.8 548.1h272.5v.7H54.8v-.7z"/><path fill="#DDA2A6" d="M33.6 543.2h319.1v4.9H33.6v-4.9z"/><path opacity=".1" fill="#FFF" d="M33.6 543.2h319.1v4.9H33.6v-4.9z"/><circle opacity=".1" cx="51.6" cy="552.4" r="1.6"/><circle fill="#918C9E" cx="51.6" cy="551.7" r="1.6"/><path d="M1098.3 573.7s2.8 3.6-1.3 9-7.3 10-6 13.4c0 0 6.1-10.1 11-10.2s1.7-6.1-3.7-12.2zm-14.5 0s-2.8 3.6 1.3 9 7.3 10 6 13.4c0 0-6-10.1-11-10.2s-1.7-6.1 3.7-12.2z"/><path opacity=".1" d="M1098.3 573.7c.2.3.4.7.6 1.1 4.8 5.7 7.4 10.9 2.8 11.1-4.3.1-9.5 7.8-10.7 9.8 0 .2.1.3.2.4 0 0 6.1-10.1 11-10.2s1.5-6.1-3.9-12.2zm-14.5 0c-.2.3-.4.7-.6 1.1-4.8 5.7-7.4 10.9-2.8 11.1 4.3.1 9.5 7.8 10.7 9.8 0 .2-.1.3-.2.4 0 0-6-10.1-11-10.2s-1.5-6.1 3.9-12.2z"/><path fill="#FFD037" d="M1103.4 578.3c0 1.3-.1 2.3-.3 2.3s-.3-1-.3-2.3.2-.7.3-.7.3-.6.3.7zm1.8 1.5c-1.1.6-2.1 1-2.2.8s.8-.8 1.9-1.4.7-.2.8 0 .6 0-.5.6zm-26.5-1.5c0 1.3.1 2.3.3 2.3s.3-1 .3-2.3-.2-.7-.3-.7-.3-.6-.3.7zm-1.7 1.5c1.1.6 2.1 1 2.2.8s-.7-.8-1.8-1.4-.7-.2-.8 0-.8 0 .4.6z"/><path fill="#A8A8A8" d="M1079.6 595.6s7.7-.2 10-1.9 11.8-3.6 12.4-1 11.5 13.1 2.9 13.2-20.1-1.3-22.4-2.8-2.9-7.5-2.9-7.5z"/><path opacity=".2" d="M1105 605.1c-8.7.1-20.1-1.3-22.4-2.8-1.8-1.1-2.5-4.9-2.7-6.7h-.3s.5 6.2 2.8 7.6 13.8 2.8 22.4 2.8c2.5 0 3.4-.9 3.3-2.2-.3.8-1.3 1.3-3.1 1.3z"/><linearGradient id="a" gradientUnits="userSpaceOnUse" x1="748.676" y1="169.26" x2="748.676" y2="394.452" gradientTransform="rotate(180 462.035 392.915)"><stop offset="0" stop-color="gray" stop-opacity=".25"/><stop offset=".54" stop-color="gray" stop-opacity=".12"/><stop offset="1" stop-color="gray" stop-opacity=".1"/></linearGradient><path fill="url(#a)" d="M96 529.1c.5 2 11.1 3 17 3.3-1.3 1.1-2.5 2.3-1.7 4.6 1.4 4.3.5 19 .5 19s14.9-1.8 21.2-7.7l5.5 1.2c-2.1 3.4-3.9 7-5.5 10.7-4.1 9.6-7.6 16.9-9 19.9l-.3.6-1.4-.6s-3.8 7.9-5.1 10.4c-1.2 2.1-2.5 4.1-4 6.1l-2.8 5.5s-2.7 5.5-2.8 8.7 6.6 3.9 12.8 5.2 3.6-5.7 3.3-8.4 4.3-10.4 4.3-10.4 2.7-3.3 2.6-4.7 2-4.2 2-4.2 2.6-2.9 1.5-3c-.2 0-.5-.1-.7-.2l.5-.5c3.1-3.7 11.4-13 14.6-14.9 3.9-2.3 10.8-10.3 10.1-12.2s7.7-13.7 7.7-13.7c1.8-1.6 3.4-3.4 4.7-5.5l.2-.4c.6 1.9 1.3 3.2 2.2 3.2 1.2 0 2.3-1.4 3.2-3.4l.3.3c3 3 8.7 8.7 9.6 9.2 1.2.7 3.2 3.9 5.6 7.2 1.4 2.1 2.7 4.2 3.8 6.4v3.1c.2 4.5 6.8 10.1 6.8 10.1s2.4 7.6 4.7 8.2 5.7 6.5 10.6 5.4c1-.2 1.9-1.4 2.6-3.1l.7.7.9.9-.7.3s6.1 9.2 6.3 10.6c.6 1.7 1.3 3.4 2.1 5 1.5 2.1 2.9 4.4 4.1 6.8 1 2.5 6.3 7.9 6.3 7.9s8.3-1.8 12.5-5.1c4.2-3.3.9-6.1-2.1-7.3s-4.7-5.6-4.7-5.6c-1.2-1.4-2.2-2.8-3.2-4.3-.1-.6-2.7-1.1-2.8-1.9s-3.5-6.5-3.5-6.5-4.1-5.2-4.6-4.8l-.2-.7-.2-.4c-.8-1.6-3.9-7.4-8-14.7.1-1.2 0-2.5-.3-3.7-.9-2.2-2.2-17.9-1.9-20.5s-5.6-8.5-8.8-9.9c-2.4-1-3.7-7.3-4.2-10.5h.3c2.1 0 20.2-.8 20.8-3.5s-18.5-3.3-19.9-3.3c-.4-1.2-1.5-4.6-3-5.5-1.8-1.1-2.5-5.3-2.5-5.3s-1.3-3.2-.6-5.1-2.6-5.3-2.6-5.3c0-1.3 0-2.7.1-4 .2-2.3-1.8-2.6-1.8-2.8-.1-1.2-.1-2.4 0-3.6.1-1.1-2.1-2.3-1.9-3.6.1-2.1.1-4.2 0-6.4-.8-1-1.2-2.3-1-3.6.2-2.5-2.1-4.7-2.1-4.7l-.4-7-3-9.6c-3-9.6-1.1-5.9-5.3-10.3-1.9-1.9-4.9-2.9-7.7-3.4 0-.6-.1-1.1-.2-1.7-.5-3.9-1.4-8.1.5-11.5 1.1-2.1 3.2-3.8 3.2-6.1 0-.7-.1-1.3-.4-2-1.1-2.9-5.1-4.9-5.6-8.1l.1.3v-.2c0-.5-.1-1.1-.3-1.6 0-.1-.1-.2-.1-.3-.2-.3-.5-.5-.8-.7-.5-.3-1.2-.7-1.9-1.1.5-.7.8-1.5.9-2.4 0-.3 0-.6-.1-.9-.2-.9-.7-1.7-1.4-2.4-.6-.7-1.4-1.2-2.2-1.6l.3.3c-.4-.2-.9-.4-1.4-.5-.8-.1-1.7-.1-2.5-.1-1.4-.1-2.8-.4-4.1-.8-5-1.2-10.5-1.7-15 .7-3.6 2-6 5.5-7.9 9.1-.8 1.4-1.3 2.9-1.5 4.5.1 1.4.4 2.9.8 4.2.1.3.1.6 0 .9-.2.7-1.1.9-1.8 1.2-1.3.6-2.2 1.7-2.7 3-.4 1.3-.7 2.6-.8 4-.2.9-.1 1.8.2 2.6.6 1.4 2.2 2.1 3.6 2.8 1.6.7 3 1.7 4.2 3-3.1 2.3-6 4.8-8.6 7.6-4 1.1-8.4 2.7-9.4 4.1-2 2.9-3 1.6-3.3 11.6s-1.4 13.6-1.4 13.6v14s1.4 9.2 0 11.7-1.2 12.7-1.2 12.7 2 9.7-1.2 12.9-3.3 9-3.3 9l.3.1c-5.4.5-17.2 1.4-16.7 3.4zm33.8-16.2c1.2-3 3.6-11.3 3.6-11.3s1.3-6.2 0-7.4 1.9-9.6 1.9-9.6c.9 1.7 1.3 3.7 1.2 5.6-.3 3.3 0 10.3 0 10.3s-2.1 6.8-1.8 10c.3 3.2-5.2 6.8-4.4 8.1.6 1.2 1 2.4 1.3 3.7 0 0-.9 0-2 .1-.3-3.7-.5-7.7.2-9.5z"/><path fill="#EFB7B9" d="M208.4 515.4s20 .7 19.4 3.3-18.2 3.4-20.2 3.4-5-3.8-5-3.8l5.8-2.9z"/><path fill="#67647E" d="M196 516.9h-11.5v-10.6H196v10.6z"/><path opacity=".12" d="M196 516.9h-11.5v-10.6H196v10.6z"/><path fill="#67647E" d="M202.1 517.3l10.6 21.4-13.4 4.4-10.9-9.3-5.1-9.9-10.4.8-11.1 5.5-9 5.5-5.4 10.1-7.8 4.4-16.7-3.6-2.4-11.3 13.6-9.1 4.9-7.5 20-2.9 5.8-8.6 20 4.8 17.3 5.3z"/><path opacity=".12" d="M202.1 517.5l10.8 23.3-13.7 2.4-10.9-9.3-5.1-9.9-10.4.8-11.1 5.5-9 5.5-5.4 10.2-7.8 4.4-16.7-3.6-2.4-11.3 13.6-9.1 4.9-7.5 20-2.9 5.8-8.6 20 4.8 17.4 5.3z"/><path fill="#E3787D" d="M174.3 404.9c.3.2.6.4.8.7.2.5.3 1 .3 1.6.4 3.9 5.8 5.9 5.7 9.8-.1 2.3-2.1 4-3.2 6-1.8 3.4-1 7.5-.5 11.3.4 2.9.4 6.3-1.8 8.2-1 .6-2 1.3-2.9 2.1-1.7 1.8-1.3 4.7-2.4 6.8-.1.2-.3.4-.5.6-.2.2-.4.3-.6.3-2.2.6-4.6-.2-6.1-2-1.4-1.8-2.1-4-2.1-6.3s.2-4.5.5-6.8c.4-4.3.3-8.7.6-13 0-1.4.3-2.7.9-4 .3-.6.8-1.2 1.1-1.9.4-.9.6-1.9.7-2.9l1.2-7.6c.2-1.5.4-4.3 2.2-4.9s4.6 1.1 6.1 2z"/><path fill="#E3787D" d="M174.3 404.9c.3.2.6.4.8.7.2.5.3 1 .3 1.6.4 3.9 5.8 5.9 5.7 9.8-.1 2.3-2.1 4-3.2 6-1.8 3.4-1 7.5-.5 11.3.4 2.9.4 6.3-1.8 8.2-1 .6-2 1.3-2.9 2.1-1.7 1.8-1.3 4.7-2.4 6.8-.1.2-.3.4-.5.6-.2.2-.4.3-.6.3-2.2.6-4.6-.2-6.1-2-1.4-1.8-2.1-4-2.1-6.3s.2-4.5.5-6.8c.4-4.3.3-8.7.6-13 0-1.4.3-2.7.9-4 .3-.6.8-1.2 1.1-1.9.4-.9.6-1.9.7-2.9l1.2-7.6c.2-1.5.4-4.3 2.2-4.9s4.6 1.1 6.1 2z"/><path opacity=".1" d="M175 406v-.3c.1.1.2.2.2.3.2.5.3 1 .3 1.6v.2c-.3-.6-.4-1.2-.5-1.8zm-12.3 43.2c1.4 1.8 3.8 2.6 6.1 2 .2-.1.5-.2.7-.3.2-.2.3-.4.4-.6 1.1-2.2.8-5.1 2.4-6.8.9-.7 1.9-1.4 2.9-2.1 2.2-1.9 2.2-5.3 1.8-8.2-.5-3.8-1.3-7.9.5-11.3 1.1-2 3.1-3.7 3.1-6v-.6c.4.7.6 1.4.6 2.2-.1 2.3-2.1 4-3.1 6-1.8 3.4-1 7.5-.5 11.3.4 2.9.4 6.3-1.8 8.2-.9.8-2.1 1.2-2.9 2.1-1.7 1.8-1.3 4.7-2.4 6.8-.1.2-.3.5-.4.6-.2.1-.4.3-.6.3-2.2.6-4.6-.2-6.1-2-.8-1-1.4-2.2-1.7-3.5.2.6.6 1.3 1 1.9z"/><path fill="#EFB7B9" d="M117.6 527.1s-20 .7-19.3 3.3 18.2 3.4 20.2 3.4 5-3.8 5-3.8l-5.9-2.9z"/><path fill="#67647E" d="M171.4 435.9s9.8-.6 13.8 3.7 2.3.6 5.1 10.1l2.9 9.5.4 6.9s2.3 2.2 2.1 4.7c-.2 1.3.2 2.6 1 3.6.1 2.1.1 4.2 0 6.3-.3 1.2 1.9 2.4 1.8 3.5-.1 1.2-.1 2.4 0 3.6 0 .2 1.9.5 1.7 2.8-.1 1.3-.2 2.7-.1 4 0 0 3.2 3.4 2.6 5.3s.6 5 .6 5 .7 4.1 2.4 5.2 3 5.9 3 5.9-1.6 4.2-1.6 4.3 1.2 10.9 4.3 12.2 8.8 7.2 8.6 9.7 1 18.1 1.9 20.2-.1 24.4-4.9 25.5-8.1-4.7-10.3-5.3-4.5-8.1-4.5-8.1-6.5-5.5-6.5-9.9-.3-10-.3-10 7.6-12.8 9.1-13.8 5.8-6.4 2.5-11.1c-2.2-3.3-4.1-6.9-5.4-10.6l-3.6-3.2-3-11.5-5.5-17.9-5.2-17.6-4.4-18.5-11.6-8.1c-.3 0-2.4-5.4 3.1-6.4z"/><path fill="#EFB7B9" d="M175 537.2l1.8 1.9c2.9 3 8.5 8.5 9.4 9 1.2.7 3.1 3.8 5.5 7.1s5.6 10.3 5.6 10.3 8 11.3 12.7 12.5c3.2.8 7.6 5 10 7.6 1.2 1.3 1.9 2.1 1.9 2.1l9.2-3.6-1.2-3.2-.2-.4c-.9-1.7-4.5-8.8-9.4-17.1-4-6.6-8.7-12.7-14-18.4 0 0-7.4-6.8-7.6-9.8-.1-1.7-.1-3.4.1-5.1.1-2.2.4-4.1.4-4.1l-11.2-7.3-8.6 3.6-4.4 14.9zm-50.2 44.7l9.1 4.5s.4-.5 1.2-1.4c3.1-3.6 11.1-12.9 14.2-14.7 3.8-2.3 10.5-10.1 9.8-12s7.5-13.5 7.5-13.5c1.8-1.6 3.3-3.4 4.6-5.4.8-1.3 1.1-2.9.9-4.4-1.1-4.3-4.7-13.7-4.7-13.7l-1.9-3.1c-.1-.2-6.4-2.4-6.4-2.4l-6.2-.6-7.8 6.7s.3 1.6.7 3.8c.9 4.8 2.6 12.7 3.4 13.2 1.1.7-5.3 6-5.3 6s-4.3 3.7-9.6 16.1c-4 9.4-7.4 16.7-8.7 19.6l-.8 1.3z"/><path opacity=".1" d="M179.5 522.3l-4.5 14.9 1.8 1.9c1.2-3.2 2.1-6.5 2.9-9.8 1.2-4.9 13.5-3.6 15.6-3.6.9 0 2.3 2.2 3.6 4.4.1-2.2.4-4.1.4-4.1l-11.2-7.3-8.6 3.6zm-34.5-.4s.3 1.6.7 3.8c.9-2.1 2.3-4 4-5.5 6-5.3 13.9-.8 13.9-.8.8.3 1.2 1.2 2.1 2.2 2.6 3.1 4.1 6.9 4.3 10.9.1 2.3.5 4.6 1.1 6.9.8-1.3 1.1-2.9.9-4.4-1.1-4.3-4.7-13.7-4.7-13.7l-1.9-3.1c-.1-.2-6.4-2.4-6.4-2.4l-6.2-.6-7.8 6.7z"/><path fill="#444053" d="M135.7 527.9c.1 2.1 8 5.5 8 5.5s0-9 6-14.3 13.9-.8 13.9-.8c.8.3 1.2 1.2 2.1 2.2 2.6 3.1 4.1 6.9 4.3 10.9.3 4.5 1.5 10.8 3.4 10.7 3-.1 5-9 6.2-13.9s13.5-3.6 15.6-3.6 6.2 11.1 7.8 9.7-1.7-12.1-1.7-12.1l-10.4-12.5-2.2-2.6-45.4 2.5-2.2 3.5c-1.1 1.6-2.1 3.3-2.1 3.4s-3.3 9.3-3.3 11.4z"/><path opacity=".1" d="M181.6 514.3c-.1.1-8.3 9.1-8.7 10.4-.3 1.5-.6 3-.8 4.6-.1-1.4-.2-2.7-.5-4.1-.3-.9 1-3 1.9-3.7 1-.7 2-1.5 2.8-2.5.2-.5 1.3-6.1 1.3-6.1l3.5-.8.5 2.2zm-15.6-.9s5.3 6.1 5.2 7-5.2-7-5.2-7z"/><path fill="#EFB7B9" d="M138.8 441.5l6.1 8.5 16.9 3.4s17.1-4.3 5.5-8.7c-1.1-.4-2.1-1-2.8-1.9-2.1-2.5-1.3-6.2.4-9.8 2.1-4 4.7-7.8 7.7-11.2 0 0-24-10.6-21.3.5.5 1.9.4 3.9-.1 5.9-1.4 5-6 9-9.1 11.2-1.1.8-2.2 1.5-3.3 2.1z"/><path opacity=".1" d="M138.8 441.5l6.1 8.5 16.9 3.4s17.1-4.3 5.5-8.7c-1.1-.4-2.1-1-2.8-1.9-2.8 1.2-5.6 2.2-7.1 1.8 0 0-9.5-2.8-15.4-5.1-1 .8-2.1 1.4-3.2 2zm2.4 72.1c2.3-.7 4.7-1.3 7.1-1.8 2.4-.4 4.7-.6 5.7 0 2.4 1.5 8.2 5 10.3 5 1.2 0 2.2-.6 2.7-1.7 3.5-.4 7-.4 10.4 0 2.7.5 9.2-2.8 13.2-5l.5-.3-2.2-2.6-45.3 2.5-2.2 3.5-.2.4z"/><path fill="#A36468" d="M142.9 501.2l-1.7 11.4c2.3-.7 4.7-1.3 7.1-1.8 2.4-.4 4.7-.6 5.7 0 2.4 1.5 8.2 5 10.3 5 1.2 0 2.2-.6 2.7-1.7 3.5-.4 7-.4 10.4 0 2.7.5 9.2-2.8 13.2-5 2-1.1 3.4-2 3.4-2l-2.6-9.1-7.9-8.4-1.2-12.1-1.9-14-2.9-8.5-5.3-12.5-.9-2.2s-1 .6-2.5 1.4c-.7.4-1.5.8-2.4 1.2-3.3 1.6-7.3 3.2-9.1 2.7 0 0-8.4-2.5-14.4-4.7-2.7-1-4.9-2-5.5-2.7-.1-.1-.1-.2-.1-.3 0-.2 0 0-.1.3-.4 3.8-1.6 32.6-1.6 32.6l7.3 30.4z"/><path opacity=".1" d="M135.7 470.9l7.2 30.2-1.7 11.4c2.3-.7 4.7-1.3 7.1-1.8.4-4.7.9-12.6-.4-15.2-1.8-3.9-2.8-16-2.8-16l-2.1-38.7-.2-3.7c-1.8.2-3.6.5-5.3 1h-.2c-.3 4-1.6 32.8-1.6 32.8zm-14.3 57.8c4.5 1.3 10.5 2.8 11.1 1.2.4-1.1.4-3.6.3-6.3-2.2.2-5.4.6-6 1.8s-3.5 2.1-5.4 3.3z"/><path fill="#67647E" d="M140.8 437.2c-.4-.3-14.3 2.8-16.3 5.6s-2.9 1.5-3.2 11.4-1.4 13.5-1.4 13.5v13.8s1.4 9.1 0 11.5-1.2 12.6-1.2 12.6 1.9 9.6-1.2 12.7-3.2 8.8-3.2 8.8 15 5.4 16 2.8-.5-12.6.6-15.5 3.5-11.1 3.5-11.1 1.3-6.1 0-7.3 1.8-9.5 1.8-9.5c.9 1.7 1.3 3.6 1.1 5.5-.3 3.2 0 10.1 0 10.1s-2.1 6.7-1.8 9.9c.3 3.2-5 6.7-4.3 8 .6 1.2 1 2.4 1.3 3.7 0 0-7.2.1-7.9 1.9s-6.7 2.7-7.2 5.2-5.9 3.3-4.5 7.5.5 18.7.5 18.7 25.9-3.2 23.1-15-16.1-6.5-16.1-6.5 10.6-6.3 16.8-5.5 8.6-15.4 8.6-15.4 1.8-15 0-18.8-2.8-16-2.8-16l-2.2-42.6z"/><path opacity=".1" d="M129 520.9s-.6-1.2-5.2-.5-6.8-.3-6.8-.3 9.2 4.3 12 .8zm1.3-58.9c.1.2-3.3 5.2-.8 9.2s4.7 10.5 5.1 11.7 1.1 3.1 1.1 3.1"/><path opacity=".05" d="M142.4 431s-12 9-12 13.3c1 .9 2.3 1.4 3.6 1.3 2.5 0 7-1.2 7.5-4s2.4 0 1.3 1.5-1.7 2.2-1.7 2.2-11.4 3.1-13.6 4.6.9 3.2.9 3.2 3.2 5.8 3 6.7 7.9 13.5 7.9 13.5 2.7 13.6 2.6 16.1-.3 8-.3 8l5.2 7s1.3-21.8.4-24.7-3.1-21.5-3.1-21.5-2.6-11.3-1.5-12.5 1.4-5.3 1.4-5.3l-1.6-9.4z"/><path fill="#67647E" d="M143.4 430.5s-12 9-12 13.3c1 .9 2.3 1.4 3.6 1.3 2.5 0 7-1.2 7.5-4s2.4 0 1.4 1.5-1.7 2.2-1.7 2.2-11.4 3.1-13.6 4.6.9 3.2.9 3.2 3.2 5.8 3 6.7 7.9 13.5 7.9 13.5 2.7 13.6 2.6 16.1-.3 8-.3 8l4.1 7s2.3-21.8 1.4-24.7-3.1-21.4-3.1-21.4-2.6-11.3-1.5-12.6 1.4-5.3 1.4-5.3l-1.6-9.4z"/><path opacity=".12" d="M143.4 430.5s-12 9-12 13.3c1 .9 2.3 1.4 3.6 1.3 2.5 0 7-1.2 7.5-4s2.4 0 1.4 1.5-1.7 2.2-1.7 2.2-11.4 3.1-13.6 4.6.9 3.2.9 3.2 3.2 5.8 3 6.7 7.9 13.5 7.9 13.5 2.7 13.6 2.6 16.1-.3 8-.3 8l4.1 7s2.3-21.8 1.4-24.7-3.1-21.4-3.1-21.4-2.6-11.3-1.5-12.6 1.4-5.3 1.4-5.3l-1.6-9.4z"/><path opacity=".1" d="M166.1 441.2c.1.6.2 1.2.4 1.8.5 1.4 1.2 3.3 1.8 5.3.9 3 3.7 8.5 5.4 13.7s4.2 16.3 4.2 16.3-.5 10.2 2.9 12.8 7.2 12 7.2 12 1.2 3.1 2.6 6.1c2-1.1 3.4-2 3.4-2l-2.6-9.1-7.9-8.4-1.2-12.1-1.9-14-2.9-8.5-5.3-12.5c-1.4-.1-2.4-.2-2.4-.2s-.5-.3-1.1-.6c-1-.6-2.7-1.4-2.6-.6z"/><path opacity=".05" d="M172 442.9s11.9 1 14.5.7 1.5 5.7 1.5 5.7 2.1 12.2 1.6 13.5-2.9 10.9-1.4 13.2 6 14.3 6 14.3 1.5 5.3 2.8 10.6 4.3 15.5 5.1 16.4 7.3 12.7 6.6 14.5-10.8-15.6-12.9-17.1-5.8-11.3-5.8-11.3-3.9-9.4-7.2-12-2.9-12.8-2.9-12.8-2.5-11.1-4.2-16.3-4.5-10.7-5.4-13.7-2.2-6-2.2-7.1 3.9 1.4 3.9 1.4z"/><path fill="#67647E" d="M171 442.4s11.9 1 14.5.7 1.5 5.7 1.5 5.7 2.1 12.2 1.6 13.5-2.9 10.9-1.4 13.2 6 14.3 6 14.3 1.5 5.3 2.8 10.6 4.3 15.5 5.1 16.4 7.3 12.7 6.6 14.5-10.8-15.6-12.9-17.1-5.8-11.3-5.8-11.3-3.8-9.4-7.2-12-2.9-12.7-2.9-12.7-2.5-11.1-4.2-16.3-4.5-10.7-5.4-13.7-2.2-6-2.2-7.1 3.9 1.3 3.9 1.3z"/><path opacity=".12" d="M171 442.4s11.9 1 14.5.7 1.5 5.7 1.5 5.7 2.1 12.2 1.6 13.5-2.9 10.9-1.4 13.2 6 14.3 6 14.3 1.5 5.3 2.8 10.6 4.3 15.5 5.1 16.4 7.3 12.7 6.6 14.5-10.8-15.6-12.9-17.1-5.8-11.3-5.8-11.3-3.8-9.4-7.2-12-2.9-12.7-2.9-12.7-2.5-11.1-4.2-16.3-4.5-10.7-5.4-13.7-2.2-6-2.2-7.1 3.9 1.3 3.9 1.3z"/><path opacity=".1" d="M175.6 474s-1.5 7.4 1 10.9-.3-9.3-1-10.9zm-26.3 24.4s6.8 1.2 9 4.8-9-4.8-9-4.8zm0 7.3s8.6 2.8 7 3.7-5.5-.8-6.6-.5-.4-3.2-.4-3.2zm70.8 79.8c1.2 1.3 1.9 2.1 1.9 2.1l9.2-3.6-1.2-3.2-.2-.4h-.1c-.6.4-4.6 3-4.6 3l-5 2.1z"/><path fill="#444053" d="M225.6 584.6s4.1-2.6 4.6-3 4.5 4.8 4.5 4.8c1.2 2.1 2.4 4.2 3.4 6.4.1.8 2.6 1.3 2.8 1.9.9 1.5 2 2.9 3.1 4.3 0 0 1.7 4.4 4.6 5.5s6.1 4 2.1 7.2-12.1 5-12.1 5-5.1-5.3-6.1-7.8c-1.1-2.3-2.5-4.6-4-6.7-.8-1.6-1.5-3.2-2.1-4.9-.3-1.3-6.1-10.4-6.1-10.4l5.3-2.3z"/><path opacity=".1" d="M124.8 581.9l9.1 4.5s.4-.5 1.2-1.4c-1.5-.7-3-1.4-4.4-2.2l-5.3-2.3-.6 1.4z"/><path fill="#444053" d="M130.2 583.3s4.1 2.4 5.1 2.4-1.5 2.9-1.5 2.9-2 2.8-1.9 4.2-2.5 4.7-2.5 4.7-4.4 7.6-4.1 10.3 2.9 9.6-3.2 8.2-12.6-2-12.4-5.2 2.7-8.5 2.7-8.5l2.7-5.5c1.4-1.9 2.7-3.9 3.9-6 1.2-2.4 4.9-10.3 4.9-10.3l6.3 2.8z"/><path fill="#E3787D" d="M166.9 445.3c-5.8-2.2-4.5-7.8-1.8-12.9 2.9-1.1 5.4-3.1 7.2-5.6 1.7.7 3.3 2.8 2.6 4.5-.3.5-.6 1-1 1.5-2.7 3.8-2.3 8.9.8 12.3.5.5 1.1 1 1.1 1.7 0 .9-.9 1.4-1.7 1.7-1.1.4-2.2.6-3.3.6.5-1.2-.4-2.5-3.9-3.8z"/><path opacity=".1" d="M130.4 523.7s-6.2.2-8.2 1.6c-1.2.8-2.2 2-2.8 3.4m54.7-95.9c-2 2.8-2.3 6.4-1 9.5-1.9-3.3-1.7-7.4.5-10.5.4-.4.7-.9 1-1.5.2-.6.2-1.2 0-1.7.6.8.8 1.8.5 2.8-.3.5-.6 1-1 1.4zm-3.1 15.4c.9-.1 1.9-.3 2.8-.6.8-.3 1.7-.9 1.7-1.7v-.1c.3.3.5.7.5 1.2 0 .9-.9 1.4-1.7 1.7-1.1.4-2.2.6-3.3.7.1-.5.1-.9 0-1.2zm-4.5-3.9c2.8 1 3.9 2.1 4 3.1-1-.9-2.2-1.6-3.5-2-1.7-.5-3.1-1.8-3.7-3.4.8 1.1 1.9 1.9 3.2 2.3zm-15.4-16c2.1 3.8 8.8 5.6 9 5.6 1.6 0 3.2-.3 4.7-.8 2.1-4 4.7-7.8 7.7-11.2 0 0-24-10.6-21.3.5.6 2 .5 4-.1 5.9z"/><path fill="#EFB7B9" d="M144.9 417.6c0 7.9 6.1 14.5 14 15.1h1.2c8.4 0 15.2-6.8 15.2-15.2 0-8.4-6.8-15.2-15.2-15.2-8.3.1-15.1 6.9-15.2 15.3z"/><path opacity=".1" d="M144.9 417.6c0 7.9 6.1 14.5 14 15.1 2.3-2 4.1-4.5 5.4-7.2.7-1.1 1-2.4 1-3.8-.1-1.1-.8-2.2-1-3.3-.3-1.9.6-3.7 1.6-5.3.8-1.6 1.8-3.1 3-4.4.7-.6 1.3-1.3 1.9-1.9-6-5.9-15.6-5.9-21.5.1-2.8 2.9-4.4 6.7-4.4 10.7z"/><path fill="#E3787D" d="M171.7 404.9c.9-.9 1.5-2.1 1.6-3.3 0-1.2-.5-2.3-1.4-3.1-.8-1-2-1.7-3.2-2-.8-.1-1.6-.1-2.4 0-1.4-.1-2.7-.4-4-.8-4.8-1.2-10.2-1.7-14.6.7-3.5 1.9-5.8 5.4-7.6 8.9-.8 1.4-1.3 2.9-1.4 4.5.1 1.4.4 2.8.8 4.2.1.3.1.6 0 .9-.2.7-1.1.9-1.7 1.2-1.2.6-2.2 1.7-2.6 3-.4 1.3-.7 2.6-.8 4-.2.8-.1 1.7.1 2.5.6 1.4 2.1 2.1 3.5 2.8 1.6.7 3 1.7 4.1 3 1.1 1.3 1.5 3.1 1.1 4.8-.5 1.4-1.6 2.6-3 3.3-1.4.6-2.8 1.1-4.3 1.4-.6.1-1.3.3-1.8.7-1.3 1-1.3 3.1-.3 4.3 1.1 1.2 2.6 1.9 4.3 2.1 3.6.5 7.2-.3 10.2-2.2 1.9-1.1 3.6-2.8 4-5 .3-1.3 0-2.8.6-4 .7-1.6 2.6-2.3 4.1-3.3 3.1-1.9 5.2-5 6.9-8.3.7-1.1 1-2.4 1-3.8-.1-1.1-.8-2.2-1-3.3-.3-1.9.6-3.7 1.6-5.3.8-1.6 1.8-3.1 3-4.4 1-1.2 2.1-2.3 3.2-3.5z"/><path opacity=".1" d="M136.4 427.1c1 .4 1.8 1 2.7 1.6-.4-.2-.8-.4-1.1-.6-1-.4-1.9-.9-2.7-1.6l1.1.6zm.1 19.5c3.6.5 7.2-.3 10.2-2.2 1.9-1.1 3.6-2.8 4-5 .3-1.3 0-2.8.6-4 .7-1.6 2.6-2.3 4.1-3.3 3.1-1.9 5.2-5 6.9-8.3.7-1.1 1-2.4 1-3.8-.1-1.1-.8-2.2-1-3.3-.3-1.9.6-3.7 1.6-5.3.8-1.6 1.8-3.1 3-4.4 1.2-1.1 2.2-2.2 3.2-3.4.9-.9 1.5-2.1 1.6-3.3 0-1.2-.5-2.3-1.4-3.1l-.6-.6c.8.4 1.5.9 2.1 1.6.8.8 1.3 1.9 1.4 3.1-.2 1.3-.7 2.4-1.6 3.3-1 1.2-2.1 2.4-3.2 3.4-1.2 1.3-2.2 2.8-3 4.4-1 1.6-1.9 3.5-1.6 5.3.2 1.1.9 2.1 1 3.3 0 1.3-.3 2.6-1 3.8-1.6 3.2-3.8 6.4-6.9 8.3-1.5.9-3.3 1.6-4.1 3.3-.6 1.2-.3 2.7-.6 4-.4 2.2-2.1 3.8-4 5-3.1 1.9-6.7 2.6-10.2 2.2-1.4-.1-2.8-.7-3.9-1.7.8.3 1.6.6 2.4.7z"/><path fill="#D3899B" d="M186.4 613.7c-.1 2.1-.6 5.5-.6 5.5s-1.7.2-4.4.5l-1.8.2c-1.4.1-2.9.2-4.6.3-3 .2-6.3.3-9.5.2-1.6 0-3.1-.1-4.5-.3-.6-.1-1.2-.1-1.8-.2-3.6-.5-6.1-1.5-6.4-3.3-.1-.8-.1-1.5-.1-2.3.3-4 3.6-3.2 3.6-3.2-.2-1.1.6-4.6 1.2-7.1.4-1.6.8-2.8.8-2.8l23.1-1.5h.1c.6 0 1.1.5 1.1 1.1v.1c-.1 2.8-.3 9.1.8 9.3 1.2.2 2.3.9 2.8 2.1.3.4.3.9.2 1.4zm-19.7-30.4s-8.7 10.5-12.9 7.6l-.3-.2c-2.8-2.2-3.6-5.6-3.8-7.3-.1-.8-.2-1.5-.3-2.3-.4-2.6-.1-5.2.8-7.7.1-.2.1-.4.2-.6 2.9-.9 16.3 10.5 16.3 10.5z"/><path fill="#EEC5CD" d="M162.1 584.2s-2.8 1.9-6.6 5.1c-.6.5-1.2.9-1.9 1.3-2.8-2.2-3.6-5.6-3.8-7.3-.1-.8-.2-1.5-.3-2.3-.4-2.6-.1-5.2.8-7.7 5.3.5 11.8 10.9 11.8 10.9z"/><path opacity=".1" d="M159.1 583.2s-1.5 1-3.5 2.7c-.3.3-.6.5-1 .7-1.2-1-1.9-2.4-2-3.9-.1-.4-.1-.8-.2-1.2-.2-1.4-.1-2.8.4-4.1 2.8.2 6.3 5.8 6.3 5.8z"/><path fill="#D3899B" d="M172.4 583.3s8.7 10.5 12.9 7.6l.3-.2c2.2-1.8 3.5-4.5 3.8-7.3.1-.8.2-1.5.4-2.3.4-2.6.1-5.2-.8-7.7-.1-.4-.2-.6-.2-.6-3-.9-16.4 10.5-16.4 10.5z"/><path fill="#EEC5CD" d="M177.1 584.2s2.8 1.9 6.6 5.1c.6.5 1.2.9 1.9 1.3 2.2-1.8 3.5-4.5 3.8-7.3.1-.8.2-1.5.4-2.3.4-2.6.1-5.2-.8-7.7-5.5.5-11.9 10.9-11.9 10.9z"/><path opacity=".1" d="M180.1 583.2s1.5 1 3.5 2.7c.3.3.6.5 1 .7 1.2-1 1.9-2.4 2-3.9 0-.4.1-.8.2-1.2.2-1.4.1-2.8-.4-4.1-2.9.2-6.3 5.8-6.3 5.8zm1.5 16.4c-.9 1.6-2.1 3-3.4 4.3-3.5 3.1-18.4 1.8-19.4 1.7-.2 0-.6-.6-1.2-1.6.4-1.6.8-2.8.8-2.8l23.2-1.6z"/><path fill="#D3899B" d="M169.8 582.4c-.6 0-1.2.1-1.8 0-3.1 0-13.6.1-14.8 4.3-1.4 5 4.8 18.4 5.7 18.6s15.9 1.4 19.4-1.7 8-12.7 7.8-13.6c0 .1 4.3-9.1-16.3-7.6z"/><path opacity=".1" d="M169.5 590.5c-4.8-.5-9.3 2-11.3 6.4-1.5 3-1.2 6.6.7 9.3 1.2 1.7 3 3 5.4 1.9 5.4-2.2 5.2-17.6 5.2-17.6z"/><path opacity=".1" d="M169.2 590c-4.8-.5-9.3 2-11.3 6.4-1.5 3-1.2 6.6.7 9.3 1.2 1.7 3 2.9 5.4 1.9 5.5-2.2 5.2-17.6 5.2-17.6z"/><path fill="#EEC5CD" d="M169.2 590.3c-4.8-.5-9.3 2-11.3 6.4-1.5 3-1.2 6.6.7 9.3 1.2 1.7 3 3 5.4 1.9 5.5-2.3 5.2-17.6 5.2-17.6z"/><path fill="#3F2B3B" d="M160.9 596.9s-1.1 1-.6 1.2.6-1.2.6-1.2zm1.2 1.2s-.6 1.3-.2 1.4.6-.9.6-.9l-.4-.5zm-2.6 1.9s-.6 1.5 0 1.5 0-1.5 0-1.5z"/><path stroke="#3F2B3B" stroke-miterlimit="10" d="M158.8 604c.7 1.6 2.2 2.7 4 2.7m-1.3-1.8c.6.6 1.6.8 2.4.3"/><path opacity=".1" d="M170.4 590.5c4.8-.5 9.3 2.1 11.3 6.4 1.5 3 1.2 6.6-.7 9.3-1.2 1.7-3 3-5.4 1.9-5.4-2.2-5.2-17.6-5.2-17.6z"/><path opacity=".1" d="M170.7 590c4.8-.5 9.3 2 11.3 6.4 1.5 3 1.2 6.6-.7 9.3-1.2 1.7-3 2.9-5.4 1.9-5.5-2.2-5.2-17.6-5.2-17.6z"/><path fill="#EEC5CD" d="M170.7 590.3c4.8-.5 9.3 2 11.3 6.4 1.5 3 1.2 6.6-.7 9.3-1.2 1.7-3 3-5.4 1.9-5.5-2.3-5.2-17.6-5.2-17.6z"/><path fill="#3F2B3B" d="M179 596.9s1 1 .6 1.2-.6-1.2-.6-1.2zm-1.2 1.2s.6 1.3.2 1.4-.6-.9-.6-.9l.4-.5zm2.6 1.9s.6 1.5 0 1.5 0-1.5 0-1.5z"/><path stroke="#3F2B3B" stroke-miterlimit="10" d="M181.1 604c-.7 1.6-2.3 2.7-4.1 2.7m1.5-1.8c-.6.7-1.6.8-2.4.3"/><path fill="#3F2B3B" d="M166.3 612.2c2.6-1 5.4-1 8 0h-8z"/><path opacity=".1" d="M159.3 619.9c-3.6-.5-6.1-1.5-6.4-3.3-.1-.8-.1-1.5-.1-2.3.4-.2.9-.4 1.4-.5.6-.2 1.4-.1 3.1.4s1.6 2.5 1.9 5.1c.2.2.2.4.1.6z"/><path fill="#D3899B" d="M154 614s-4.7.9-2.1 4.9c.2.3.5.6.9.7.3.1.6.1.6-.3l2.1 2.4s4.1.5 3.8-2.1-.3-4.6-1.9-5.1-2.7-.7-3.4-.5z"/><path stroke="#3F2B3B" stroke-miterlimit="10" d="M155.1 616.7s1 2.3 2.4.4m-4.6.5s.5 2.1 2.4.5"/><path opacity=".1" d="M186.4 613.7c-.1 2.1-.6 5.5-.6 5.5s-1.7.2-4.4.5v-.5c.4-2.6.3-4.6 1.9-5.1 1.1-.3 2.1-.4 3.1-.4z"/><path fill="#D3899B" d="M186.8 614s4.7.9 2.1 4.9c-.2.3-.5.6-.9.7-.3.1-.6.1-.6-.3l-2.1 2.4s-4.1.5-3.8-2.1.2-4.6 1.9-5.1 2.8-.7 3.4-.5z"/><path stroke="#3F2B3B" stroke-miterlimit="10" d="M185.7 616.7s-1 2.3-2.4.4m4.7.5s-.5 2.1-2.5.5"/><path opacity=".1" d="M165.6 620.4c-1.6 0-3.1-.1-4.5-.3l-1.4-4.7c-.1-.3-.1-.6-.1-.8 0-1.7 1.3-3 3-3s3 1.3 3 3c0 1.8.1 4.1 0 5.8z"/><path fill="#D3899B" d="M159.5 615.4l1.6 5.5s-2.8-.1-2 1.7c0 0 .7.7 1 .4 0 0-.4 1.2 1.1 1.2 0 0 1.6.8 2.2.2s1.9-1.5 2-1.9 0-4.9 0-8.1c0-1.7-1.3-3-3-3s-3 1.3-3.1 2.9c.1.5.1.8.2 1.1z"/><path stroke="#3F2B3B" stroke-miterlimit="10" d="M161.7 622.4s-1.2 1.2-.6 1.8m.1-2.5c-.6.2-1.1.8-1.1 1.4"/><path opacity=".1" d="M181.1 614.6c0 .3 0 .6-.1.8l-1.3 4.5c-1.4.1-2.9.2-4.6.3v-5.7c0-1.7 1.3-3 3-3s3 1.4 3 3.1z"/><path fill="#D3899B" d="M181.2 615.4l-1.6 5.5s2.8-.1 2 1.7c0 0-.7.7-.9.4 0 0 .4 1.2-1.1 1.2 0 0-1.6.8-2.2.2s-1.9-1.5-2-1.9-.1-4.9 0-8.1c0-1.7 1.3-3 3-3s3 1.3 3 3c0 .4-.1.7-.2 1z"/><path stroke="#3F2B3B" stroke-miterlimit="10" d="M179 622.4s1.2 1.2.6 1.8m0-2.5c.6.2 1.1.8 1.1 1.4"/><path opacity=".1" d="M169.2 589s-5.7-.2-5.9 4.2 8.9 2.5 8.9 2.5 3.8-.5 3.1-3.2-2-3.2-6.1-3.5z"/><path opacity=".1" d="M169.2 588.6s-5.7-.2-5.9 4.2 8.9 2.5 8.9 2.5 3.8-.5 3.1-3.2-2-3.3-6.1-3.5z"/><path fill="#3F2B3B" d="M169.2 588.8s-5.7-.2-5.9 4.2 8.9 2.5 8.9 2.5 3.8-.5 3.1-3.2-2-3.3-6.1-3.5z"/><path opacity=".1" d="M156.5 611s1.9.7 2.3 2m24.8-2.9s-1.4.6-1.3 3"/><ellipse transform="rotate(-30 156.478 619.727)" fill="#EEC5CD" cx="156.5" cy="619.7" rx=".9" ry="1.5"/><ellipse transform="rotate(-60 184.399 619.744)" fill="#EEC5CD" cx="184.4" cy="619.7" rx="1.5" ry=".9"/><path fill="#B77B7F" d="M749.7 602.4s65.5-2.8 72.4-131-61.4-150-61.4-150-21.6-12.1-31.2-12.6-41.6 2.5-41.6 2.5l35.3-6.8s-49.7-18.9-64.6-20.5l53.8 11.4s.8-29.8-12.1-39.6c0 0 11-.8 16.8 20.6 3.4 12.5 12.5 22.8 24.5 27.5 19.9 7.8 47.5 20 53.8 30.6 0 0 11.6 12.1 9.8-19.4s-10.1-58.6-13.1-59.3c0 0-23.7-25.2-57-26.7 0 0 19.4-7.8 52.2 16.6 0 0 2.8-12.4-9.6-27s-31.5-45.4-52.5-48.7c0 0 29.3-1.8 52.5 36.1 0 0 8.6 5.6 9.3-8.6s5.8-31.8 5.8-31.8 7.1 32.6-7.8 47.2c0 0 28.5 37.1 27.3 78.8 0 0 8.8 18.9 12.1-3.3 0 0 1.9-30.6 5.7-56.5 3.1-21.1-2.7-42.6-16.1-59.3-6.3-7.9-10.7-15.5-8.3-19.5l33.1 39.4s27.8-64.4 48-78.2 22.7-16.9 22.7-16.9L877 135.5l40.9-14.4-41 18.9s-18.9 15.4-29.8 57.5-11.9 68.4-11.9 68.4 58.3-46.2 69.4-44.7l-37.7 28.6c-20.8 15.7-33.7 39.6-35.5 65.6 0 0 72.9-18.7 90.6-22.2l33.3-34.1-25.2 32.3 52-.8 29.8-21.2s-23.5 19.7-21.2 20.9 36.6 2.8 36.6 2.8-87.3-.5-96.9 5.8-31 8.6-31 8.6l61.8 9.3-73.7-5.3s-55.8 10.1-58.8 27.5c0 0 11.4 29.6 18.9 41.4 6.3 9.8 18.9 41.4 21.5 69.1s6 70.4-3.5 96.4-13.1 40.9-8.3 48.7 9.3 17.9-6.3 19.9-84.3-1-84.3-1-21 4.4-17-11.1z"/><path opacity=".1" d="M786.4 588.7c6.9-3.5 14.7-4.4 22.2-2.7 12.9 2.8 32.5 1.3 34.3 1m-15.4-149.5s3.1 49.3-2.4 59.1l2.4-59.1zm11.5 59.1s-4 46.2-6.8 55.2 6.8-55.2 6.8-55.2zm4-113.6c2.8 1 15 25.7 12.6 33S843 383 843 383zm-30.9-25.6c1.3.6 7 14.8 5.8 19s-5.8-19-5.8-19zm52.6 82.8c-1.4 14.3-2.2 23.7-1.3 35.2.8 8.9.6 17.9-.4 26.8M712.5 273.4c1.6 2.1 2.4 4.6 2.4 7.3.1 2.6-.3 5.2-.1 7.8s1.5 5.9 4.2 6.3M759.1 188c3.5 3.4 6.5 7.2 9.1 11.3.8 1.3 1.6 2.5 2.6 3.7 1.6 1.5 3.2 2.9 5 4.1 3.9 3.2 6.8 7.6 8 12.5m107.3-105.3c-.8 1.6-1.9 3.1-3.2 4.3-1.1 1.1-2.5 2-3.5 3.2-.8 1-1.6 2.1-2.2 3.3-2.8 4.2-5.9 8.2-9.3 11.8M830 187.3c2.2 1.4 2.8 4.3 2.7 6.8s-.5 5.2.5 7.6c.4 1.1 1.1 2 1.6 3.1.7 1.9.9 3.9.7 5.9 0 2.3-.1 4.7-.2 7-.1 2.8-.4 5.8-2.3 7.9"/><path fill="none" d="M848.2 259.7c-2 1.1-3.9 2.4-5.7 3.9-1.7 1.5-2.9 3.6-3.3 5.9-.1 1-.1 2-.3 2.9-.4 1.3-1 2.5-1.9 3.5-1.5 1.9-3.1 3.6-4.8 5.3"/><path opacity=".1" d="M831.7 325.6c1.4-1.2 3-2.2 4.6-3.2 1.5-.9 3-1.6 4.7-2.1 2.5-.7 5.2-.6 7.8-.8s5.3-1 7.1-2.9m78.5-22.9c-3.1.1-6.3.2-9 1.6-1.4.7-2.6 1.8-4 2.5-1.8 1-3.8 1.5-5.8 1.5m-23.8 7.1c.8-.4 1.7-.2 2.2.5.5.6.8 1.4 1.4 2 1.1 1.2 3 1.4 4.6 1.4m-25.8-69.2l-3 1.5c-3.1 1.5-6 3.3-8.7 5.3m-22 22.1c-1.9-.5-3.6 1.6-4 3.6s.1 4-.5 6c-.6 1.7-1.6 3.2-2.9 4.4m-25.4-10.4c-1.8 5.3 2 11 .9 16.5-.3 1.7-1.1 3.2-1.5 4.9-1 4.3.7 9 3.6 12.4"/><linearGradient id="b" gradientUnits="userSpaceOnUse" x1="829.08" y1="183.141" x2="1043.42" y2="183.141" gradientTransform="rotate(180 462.035 392.915)"><stop offset="0" stop-color="gray" stop-opacity=".25"/><stop offset=".54" stop-color="gray" stop-opacity=".12"/><stop offset="1" stop-color="gray" stop-opacity=".1"/></linearGradient><path fill="url(#b)" d="M475.1 767.9c-2.9.4-5.7 1.1-8.5 2.1-.2.1-.4.2-.5.3-2.1.9-4.4 1-6.6.5 0 0-9 1.1-14.1-2.9-1.9-1.5-3.9-3.3-5.6-4.9-1.2-1.1-3-1.2-4.3-.3-.3-.2-.5-.4-.9-.6-2.2-1.7-6.1-5-7.6-9.4-.5-1.5-1.2-3-1.9-4.5-.9-2-2-4.7-1.9-6.1.1-2.1-6-20.3-9.8-29-1.7-3.8-2.6-7.9-2.9-12-.1-1.1 0-2.2.2-3.3.8-1.8 1.1-10.4-1.7-14.2l-7.5-20.7-10.5-32.2-.3-1c-.9-1.2-1.8-2.5-2.6-3.9-1.2-2-2.2-4.1-3-6.3-.1-.4-.3-.9-.4-1.3 4.1-1.3.9-13.1.9-13.1s-2-3.3-1.5-13c.3-7.5.1-14.9-.8-22.3l-.3-3.3c9 4.2 32.5 15.1 34.8 15.1 2.8 0 10.1 4.6 10.1 4.6s14.8 8.7 27.6 2.8-10.3-13.6-16.6-12.5-19.6-7-19.6-7l-24.1-14.3-10-6c3.8-8.6 7-23.9-.3-34.7l-2.8-3c1.5-8.1 2.2-16.3 2-24.6 0-7.5-.4-15-.3-22.5 7.7-5.2 11.3-14.7 8.9-23.7 1.3-.8 2.5-1.9 3.4-3.1 3.1-4.4 2.8-10.7-.2-15.1-1-1.9-2.5-3.5-4.3-4.7-1.8-1-3.7-1.9-5.7-2.5.7.3 1.3.6 1.9 1 .2.1.3.3.5.4-2-.8-4.1-1.4-6.1-2.4-.9-.4-1.7-.9-2.5-1.3.9.4 1.9.7 2.9 1.1l-.4-.1c-3.3-1.6-6.1-4.2-9.4-5.9-1.4-.7-2.8-1.3-4.3-1.7l.5.3c.6.3 1.2.7 1.8 1-7.7-3.2-17.1-2-24.1 2.6-7.6 5-12.6 13.4-14.3 22.3-1.2 6.1-.9 12.5-3.2 18.2-4.5 11.7-18 18.2-22.5 29.9-2 5.3-2 11.1-2.2 16.8-.9 24.7-6.6 48.9-16.9 71.3-1.3 2.9-2.9 5.9-5.3 7.8h-.8c-.6.4-1.3.7-2 1l.8.2c-.3.1-.5.2-.8.3l1.8.3c-.3.2-.7.3-1 .4 6.7 1.5 13.9-.3 19.8-3.9s10.6-8.7 14.6-14.2c.3-.4.6-.9.9-1.3-.1.3-.2.6-.3.8-.7 1.8-3.5 31.3-3.5 33.3s-.6 20.3-1.5 22.5-11.8 30.2 2.6 26.9c9.1-2.1 10.8-11 10.8-17.2l.7-.2c1.2-.4 2.7-.8 4.2-1.3v2.5c-.5 2-.9 4-1.1 6.1 0 2.2-1.5 7-1.5 7l-.1.2c-.7 1.7-6.6 15.2-6.7 25.2l-5.5 14.5-6 10.5s-17 20.4-20 40.3l-10.1 29.9s-2.3-2.8-2.7-1.7-1.1 6.8-2.1 7-1.3 4.2-1.3 4.2-5 6.1-5.6 9.8v.4c-.2 1.1-.2 2.1-.2 3.2v1.6l.1.5s.2 2.8 7.3 4.4 14.6 2.6 18.3 4.6 14.2 3.7 14.2 3.7l14-.7c2.9-.1 5.1-2.5 5-5.4-.1-1.3-.6-2.6-1.6-3.5l-.1-.1-9.7-2.5-.8-.2s-5.3.7-6.9-2.9c-4.4-2.6-7-7.4-6.6-12.5 0 0 1.1-11.4-1.7-10.3-.3.1-.6.3-.9.4 0-.3 0-.6.1-1v-.3c0-.3.1-.5.1-.8v-.3c.1-.3.2-.7.3-1v-.1c.1-.4.2-.8.4-1.2 0-.1.1-.2.1-.3.1-.3.2-.6.4-.9.1-.1.1-.3.2-.4s.3-.6.5-.8c.1-.1.1-.3.2-.4.2-.4.5-.8.8-1.2 5.2-7 14-23.2 14-23.2l8.2-16.6s4.5-9.6 8.4-11.4 10.5-8.8 12.7-14.5l16.6-37c.3.7.5 1.5.6 2.3 0 0 8.7 22.1 13.2 25.8 0 0 5.6 7.5 7.4 11.2.5 1.1 1 2.1 1.6 3.2.9 1.3 1.4 2.7 1.7 4.3 0 2 3.4 7.6 3.4 7.6v7.5s.5 18.7 13.3 33.5l6.4 10.8 12 18.1.5.7c-.6-.1-1.3-.3-1.9-.5l3.7 8.1c.5 1.4.9 2.9 1.2 4.4 0 .8 3 8.5 3 8.5v1.3c0 .1 0 .2.1.3l.1.2c0 .1.1.2.1.3l.1.3c0 .1.1.2.1.3 0 .1.1.2.1.3.1.1.1.2.2.3s.1.2.1.2c.1.2.2.3.4.5l.1.1.2.2.2.2.2.1.6.3.2.1c.2.1.4.2.5.2l.2.1c.3.1.5.1.8.2h.2c.3 0 .5 0 .8.1h1.4s16.3-5.4 18.7-6 15.2-6 15.2-6 14.3-8 14-13.4-1.6-7-4.9-6.8z"/><path fill="#864D6C" d="M373.9 445.1c-.6 1.3-1.1 2.6-1.4 4-.3 1.9-.1 3.8-.7 5.6-.8 2.6-3 4.5-4.8 6.6-3.7 4.3-5.6 9.8-5.6 15.5 0 3.3.8 6.5.4 9.8-.4 2.5-1.4 4.9-2 7.4-.5 2.4-.7 4.8-.7 7.2 0 8.3 1.5 16.5 4.4 24.2.1.4.3.7.6 1 .3.2.7.4 1.1.4l7.2 1c.7.2 1.4.1 2-.2.5-.4.9-.9 1.1-1.4 5.3-11.7 6.2-24.8 6.1-37.6s-1-25.7.8-38.4c.6-4 1.4-8 1.7-12 .2-2.6-.9-8.6-4.6-5.5-2.8 2.3-4.2 9-5.6 12.4z"/><path opacity=".1" d="M382.4 432c.1.7.1 1.5.1 2.2-.3 4-1.1 8-1.7 12-1.8 12.7-.9 25.6-.8 38.4s-.8 26-6.1 37.6c-.2.6-.6 1.1-1.1 1.4-.6.3-1.3.3-2 .2l-7.2-1c-.4 0-.8-.1-1.1-.4l-.1-.1c.3.9.6 1.8 1 2.7.1.4.3.7.6 1 .3.2.7.4 1.1.4l7.2 1c.7.2 1.4.1 2-.2.5-.4.8-.9 1-1.4 5.3-11.7 6.2-24.8 6.1-37.6s-1-25.7.8-38.4c.6-4 1.4-8 1.7-12 .2-1.5-.2-4.6-1.5-5.8z"/><path fill="#FFC2C8" d="M370.1 501.9c1.3 2.3 2.6 4.6 4.1 6.8l-20.8-8.5s-20.3-14.9-15.6-15.6c1.1-.2 2.7-2 4.4-4.6 3.4-5.4 6.4-11.1 9.1-16.9 2.5-5.2 4.3-9.2 4.3-9.2l18.5 8.5c-1.9 3-3.6 6.1-5.1 9.3-1.8 3.6-3.2 7.3-4.1 11.2-1.3 5.5 2.1 13.4 5.2 19zM329 621.8s-2.6 9.5-2.6 11.7-1.5 7-1.5 7-6.6 14.7-6.7 25.3l-5.4 14.5-5.9 10.4s-16.7 20.3-19.6 40.1l-11.4 33.7 20.5 1.3c-1.5-4.8-.6-10.1 2.4-14.1 5.1-7 13.7-23.1 13.7-23.1l8-16.5s4.4-9.5 8.2-11.4 10.3-8.8 12.5-14.5l20.5-46.4 9.7-23.4-42.4 5.4z"/><path opacity=".03" d="M371.7 616.5l-9.7 23.4-20.5 46.3c-2.2 5.7-8.6 12.6-12.5 14.5s-8.2 11.4-8.2 11.4l-8.1 16.5s-8.6 16.1-13.7 23.1c-1.7 2.3-2.7 5-3 7.9-.2 2.1 0 4.2.7 6.2l-20.5-1.3 1.5-4.4 9.9-29.3c2.9-19.8 19.6-40.1 19.6-40.1l5.9-10.4 5.4-14.5c.1-10.6 6.7-25.3 6.7-25.3s1.5-4.8 1.5-7 2.6-11.7 2.6-11.7l42.4-5.3z"/><path opacity=".1" d="M296.6 765.8l-20.5-1.3 1.5-4.4c1.7 2.7 13.5 2.9 13.5 2.9 1.5-1.3 3.1-2.5 4.8-3.5-.1 2.2.1 4.3.7 6.3z"/><path fill="#FF8AA1" d="M318.7 797.2l-13.7.8s-10.1-1.6-13.8-3.7-11-2.9-17.9-4.6-7.1-4.4-7.1-4.4c-.3-1.8-.4-3.6 0-5.3v-.3c.5-3.7 5.5-9.7 5.5-9.7s.4-4 1.3-4.2 1.6-5.9 2-7 2.6 1.7 2.6 1.7c1 3 13.7 3.2 13.7 3.2 1.7-1.6 3.6-2.9 5.7-3.8 2.7-1.1 1.6 10.3 1.6 10.3-.4 5 2.1 9.9 6.5 12.5 1.5 3.7 6.7 2.9 6.7 2.9l.8.2 9.5 2.5.1.1c2.1 2 2.1 5.2.2 7.3-1.1.9-2.3 1.5-3.7 1.5z"/><path fill="#E8F5FF" d="M318.7 797.2l-13.7.8s-10.1-1.6-13.8-3.7-11-2.9-17.9-4.6-7.1-4.4-7.1-4.4 0-.2-.1-.6-.1-.5-.1-.9c-.1-1.3 0-2.6.2-3.9l14.9 5.1s11 3.7 15.2 4.4c0 0 14.8 1.1 16.3 1.1 1.1 0 1-2.6 0-4.9l9.5 2.5.1.1c2 2 2.1 5.2.1 7.3-1.1 1.1-2.3 1.7-3.6 1.7z"/><circle fill="#E8F5FF" cx="286.7" cy="783.8" r=".9"/><circle fill="#E8F5FF" cx="290.5" cy="767" r=".9"/><circle fill="#E8F5FF" cx="292" cy="771.4" r=".9"/><circle fill="#E8F5FF" cx="294" cy="775.7" r=".9"/><circle fill="#E8F5FF" cx="296.7" cy="779.5" r=".9"/><circle fill="#E8F5FF" cx="299.7" cy="782.6" r=".9"/><circle fill="#E8F5FF" cx="303.4" cy="785.6" r=".9"/><circle fill="#E8F5FF" cx="307.6" cy="787.9" r=".9"/><circle fill="#E8F5FF" cx="291.1" cy="785.2" r=".9"/><path fill="#FF8AA1" d="M305.1 795.7h-.1c-4.3 0-11.4-2.2-13-2.9-1.5-.6-10.9-2.9-11-2.9s-7.1-2.2-9.4-2.8c-1.9-.6-3.7-1.4-5.5-2.3 0-.2-.1-.5-.1-.9 1.9 1 3.8 1.8 5.8 2.5 2.3.6 9.4 2.8 9.4 2.8.4.1 9.5 2.3 11.1 2.9s8.7 2.8 12.8 2.8h.1l-.1.8z"/><path opacity=".1" d="M354.3 616l-.2.7-2.3 10.6-1.5 7-11.8-3.5-10.9-3.3v-7.9l26.7-3.6z"/><path fill="#E8F4FF" d="M354.3 615.3l-.2.7-2.3 10.6-1.5 7-11.8-3.5-10.9-3.3v-7.9l26.7-3.6z"/><path opacity=".03" d="M354.3 615.3l-.2.7-2.3 10.6-1.5 7-11.8-3.5-10.9-3.3v-7.9l26.7-3.6z"/><path opacity=".1" d="M374.2 462.3c-1.9 3-3.6 6.1-5.1 9.3h-.3c-6.8 0-13.3-3.2-17.5-8.6 2.5-5.2 4.3-9.2 4.3-9.2l18.6 8.5z"/><circle fill="#FFC2C8" cx="368.8" cy="448.2" r="22"/><path fill="#FFC2C8" d="M377.2 547.2l15.4 9.3 23.6 14.3s13 8.1 19.2 7 28.9 6.6 16.3 12.5-27.1-2.8-27.1-2.8-7.1-4.6-9.9-4.6-37.5-16.7-37.5-16.7v-19zm55.7 216.2v10l-14.8 3-2.1-3.3-11.6-18-6.3-10.7c-12.5-14.7-13-33.3-13-33.3v-7.4s-3.3-5.6-3.3-7.6c-.2-1.5-.8-3-1.6-4.2-.6-1-1.1-2.1-1.6-3.2-1.7-3.8-7.2-11.2-7.2-11.2-4.4-3.7-12.9-25.6-12.9-25.6-.1-2.7-2.9-6.5-5.3-9.3l-3.3-3.6 28.8-9.1 9.6.8.3 1 10.5 31.9 7.3 20.6c2.8 3.8 2.4 12.4 1.6 14.1-.2 1.1-.3 2.2-.2 3.3.2 4.2 1.1 8.3 2.8 12.1 3.7 8.5 9.7 26.7 9.6 28.8-.1 1.4.9 4 1.8 6 .7 1.5 1.3 3 1.8 4.5 1.5 4.4 5.3 7.7 7.5 9.4.9.5 1.6 1 1.6 1z"/><path opacity=".1" d="M388.5 631.6c-3.3 1.7-6.9 2.6-10.6 2.7-4 0-17.4 5.1-24.9 8.2l-3.3-3.6 28.8-9.1 9.6.8.4 1z"/><path fill="#E8F4FF" d="M388.2 630.6c-3.4 1.8-7.2 2.8-11 2.9-5.7 0-30.2 10.3-30.2 10.3l-3-4.8-5.5-9-3.1-5.1-2.7-4.4s10.3-2.5 21.5-4.5c13.3-2.5 27.7-4.3 27.6-.7 0 1.8.3 3.6 1 5.3.8 2.2 1.8 4.2 2.9 6.2.7 1.3 1.6 2.6 2.5 3.8z"/><path opacity=".5" fill="#FFF" d="M388.2 630.6c-3.4 1.8-7.2 2.8-11 2.9-5.7 0-30.2 10.3-30.2 10.3l-3-4.8 28.4-13c4.4.5 8.8.7 13.2.7.8 1.4 1.7 2.7 2.6 3.9z"/><path opacity=".1" d="M432.9 763.4v10l-14.8 3-2.1-3.3c1.1.2 2.2.3 3.4.3 4 .1 9.2-5.1 9.2-5.1.8-.4 1.3-2.1 1.7-4 .1-.8.6-1.5 1.2-2 .7.6 1.4 1.1 1.4 1.1z"/><path fill="#FF8AA1" d="M476.1 774.5c.3 5.4-13.7 13.3-13.7 13.3s-12.5 5.4-14.9 5.9-18.4 5.9-18.4 5.9c-7.3.7-6.8-5.5-6.8-5.5s-3-7.6-3-8.5c-.3-1.5-.7-3-1.1-4.4l-3.7-8s1.5.8 5.5.8 9.2-5.1 9.2-5.1c.8-.4 1.3-2.1 1.7-4 .3-1.8 2.1-3 3.8-2.6.6.1 1.2.4 1.7.9 1.7 1.6 3.6 3.4 5.5 4.9 5 4 13.9 2.9 13.9 2.9 2.2.6 4.4.4 6.5-.5.2-.1.4-.2.5-.3 2.7-.9 5.5-1.6 8.3-2.1 3.1-.3 4.7 1.1 5 6.4z"/><path fill="#E8F5FF" d="M476.1 774.5c.3 5.4-13.7 13.3-13.7 13.3s-12.5 5.4-14.9 5.9-18.4 5.9-18.4 5.9c-2.5.3-4.1-.3-5.1-1.2-.3-.2-.5-.5-.7-.8-.7-1.1-1-2.3-1-3.6 2.7-.3 5.4-.8 8-1.6 0 0 21.2-5.9 24-8.1 0 0 10.2-4.6 10.7-6.8 0 0-3-4.4-2.9-7.1.2-.1.4-.2.5-.3 2.7-.9 5.5-1.6 8.3-2.1 3.3-.2 4.9 1.2 5.2 6.5z"/><path fill="#FF8AA1" d="M461.3 786.4c-1.9 2.6-12.6 5.6-13.8 5.9s-9.1 2.8-9.2 2.9l-7.6 2.3c-1.8.8-3.7 1.2-5.6 1.1h-1c-.3-.2-.5-.5-.7-.8 1.8.1 4.9.2 7.1-1l7.7-2.3c.3-.1 8-2.6 9.3-2.9 1.6-.3 11.7-3.4 13.4-5.6l.4.4z"/><path opacity=".1" d="M382.7 620.6c-.1.1-.3.1-.4.2-4 1.3-19 1.6-19 1.6-3.7 1.8-7.5 3.2-11.5 4.2-3.6.8-7.1 1-9-.5-1.5-1.2-4.3-1.4-7.4-1.1-2.6.3-5.2.8-7.8 1.6V619l26.7-3.6-.2.7c13.3-2.5 27.7-4.3 27.6-.7.2 1.7.5 3.5 1 5.2zm-8.5-111.9l-20.8-8.5s-20.3-14.9-15.6-15.6c1.1-.2 2.7-2 4.4-4.6 5.6 1.6 10.6 4.8 14.5 9.2 4.1 4.6 11 10.8 13.4 12.8 1.3 2.2 2.6 4.5 4.1 6.7z"/><path fill="#FFE577" d="M383.2 606.3s3.1 11.7-.9 13-19 1.7-19 1.7-15.6 7.7-20.6 3.7c-3.5-2.8-13.6-.1-19.3 1.7-2.3.8-3.9 1.4-3.9 1.4s-4.1-20.3 2.5-32-2-40.1-2.4-42.8c-.1-.8-.1-3.5-.1-7.1.2-9.4.8-24.7 1.9-26.8 1.1-2.5 2.1-5.2 2.8-7.9 0 0 .9-7.3 2.4-8.4s2-4.6 2-4.6 1.8-7.7 3.7-9.7 2.6-8.2 2.6-8.2c2.1-.4 4.3-.4 6.3.3 6 1.5 11.4 4.8 15.5 9.4 5 5.6 14.1 13.5 14.1 13.5l11.6 12.7c7.7 11.5 3.5 28.2-.5 36.3-2 4.1-1.8 12-1 18.8.9 7.4 1.1 14.8.8 22.2-.4 9.5 1.5 12.8 1.5 12.8z"/><path opacity=".1" d="M351 511.1l-2 12v.1s-13.2 28.6-15.4 32.1-4.4 12.4-4.4 12.4-.7 15.9-2.2 19-3.1 22.3-3.1 22.3l-.9 12.8c.3 1.5.4 3 .5 4.5-2.3.8-3.9 1.4-3.9 1.4s-4.1-20.3 2.5-32-2-40.1-2.4-42.8c-.1-.8-.1-3.5-.1-7.1l2.6-10 3.3-16.5 1.3-2.3 4.2-7.8 14.1-4.6 5.9 6.5z"/><path fill="#FFC2C8" d="M350.3 509.6l-2 12s-13.2 28.6-15.4 32.1-4.4 12.4-4.4 12.4-.7 15.9-2.2 19-3.1 22.3-3.1 22.3l-.9 12.8s4 20-10.1 23.3-3.5-24.4-2.6-26.6 1.5-20.3 1.5-22.3 2.7-31.3 3.5-33.1c.8-2.5 1.4-5.1 1.8-7.7l5.1-19.4 3.3-16.5 1.2-2.3 4.3-7.8 14.1-4.6 5.9 6.4z"/><path opacity=".1" d="M350.3 509.6l-2 12c-.4-20.7-23.4-2.3-23.4-2.3s.5-1.5 1.2-3.7l4.3-7.8 14.1-4.6 5.8 6.4z"/><path fill="#FFE577" d="M343.1 484.7s-9.9 4.4-11.4 10.6-7 22.5-7 22.5 24.2-19.2 23.4 3.8c1.9-2.2 3-5.1 3.1-8 .4-5.3 5.5-16.7 1.2-21.4-2.6-2.9-5.8-5.5-9.3-7.5z"/><path opacity=".1" d="M393.4 439.6c4-5.8 2.2-14.7-3.7-18.5-2.8-1.8-6.1-2.5-9.1-4-3.3-1.6-6-4.1-9.2-5.9-7.9-4.3-18.1-3.3-25.6 1.7s-12.3 13.4-14 22.2c-1.1 6-.9 12.4-3.1 18.1-4.4 11.6-17.6 18.1-22 29.8-2 5.3-2 11-2.1 16.7-.8 24.5-6.4 48.6-16.5 71-1.7 3.8-3.9 7.9-7.9 9.3 6.6 1.5 13.6-.3 19.4-3.8S310 567.5 314 562c11.8-16.5 17.6-36.6 16.6-56.8-.2-4.5-.7-9.4 2-13s7.4-4.6 10.9-7.1c8.6-6.1 8.4-18.6 11.5-28.7.5-1.8 1.4-3.5 2.6-4.8 9.6-9.3 27.9-1.6 35.8-12z"/><path fill="#864D6C" d="M392.7 438.8c4-5.8 2.2-14.7-3.7-18.5-2.8-1.8-6.1-2.5-9.1-4-3.3-1.6-6-4.1-9.2-5.9-7.9-4.3-18.1-3.3-25.6 1.7s-12.3 13.3-14 22.2c-1.1 6-.9 12.4-3.1 18.1-4.4 11.6-17.6 18.1-22 29.8-2 5.3-2 11-2.1 16.7-.8 24.5-6.4 48.6-16.5 71-1.7 3.8-3.9 7.9-7.9 9.3 6.6 1.5 13.6-.3 19.4-3.8s10.4-8.6 14.4-14.1c11.7-16.5 17.6-36.6 16.6-56.8-.2-4.5-.7-9.4 2-13s7.4-4.6 10.9-7.1c8.6-6.1 8.4-18.6 11.5-28.7.5-1.8 1.3-3.5 2.6-4.8 9.5-9.3 27.8-1.6 35.8-12.1z"/><circle fill="#E8F5FF" cx="430.9" cy="772.5" r=".9"/><circle fill="#E8F5FF" cx="435.1" cy="775" r=".9"/><circle fill="#E8F5FF" cx="439.5" cy="776.8" r=".9"/><circle fill="#E8F5FF" cx="444.2" cy="777.6" r=".9"/><circle fill="#E8F5FF" cx="448.9" cy="778.2" r=".9"/><circle fill="#E8F5FF" cx="453.7" cy="778.2" r=".9"/><circle fill="#E8F5FF" cx="458.6" cy="777.6" r=".9"/><path opacity=".1" d="M367 408.5c3.2 1.8 6 4.3 9.2 5.9 1.3.6 2.6 1.2 4 1.6l-.4-.1c-3.3-1.6-6-4.1-9.2-5.9-1.3-.7-2.7-1.3-4.2-1.7l.6.2zm22 11.4c-1.8-1-3.6-1.9-5.5-2.5.7.3 1.3.6 1.9 1 5.9 3.8 7.6 12.7 3.7 18.5-8 10.5-26.3 2.8-35.8 11.9-1.3 1.4-2.1 3-2.6 4.8-3.2 10.1-3 22.5-11.5 28.7-3.6 2.5-8.3 3.6-10.9 7.1s-2.2 8.5-2 13c1 20.3-4.9 40.3-16.6 56.8-3.9 5.5-8.6 10.6-14.4 14.1-4.2 2.6-8.9 4.1-13.9 4.3-.6.4-1.2.7-1.9 1 6.6 1.5 13.6-.3 19.4-3.8s10.4-8.6 14.4-14.1c11.8-16.5 17.6-36.5 16.6-56.8-.2-4.5-.7-9.4 2-13s7.4-4.6 10.9-7.1c8.6-6.1 8.4-18.6 11.5-28.7.5-1.8 1.3-3.5 2.6-4.8 9.5-9.2 27.8-1.5 35.8-12 4-5.7 2.2-14.7-3.7-18.4zm-26.6 186s14.6-1.5 17.5-1.2-17.5 1.2-17.5 1.2zm3.7 3.6s8.8-1.2 12.3 0-12.3 0-12.3 0zm1.3 3.8s10.8 1 12.7.4m-19.6-74.2s11 4.9 12 7.7 7.6 4.5 7.6 4.5"/><path fill="#444053" d="M351.8 440.4l.7-.9c.1-.1.2-.1.3-.1l1.4.5c.1 0 .2.1.2.3v1.2c0 .1-.1.2-.2.3l-1.2.5c-.1.1-.3 0-.4-.1l-.9-1.3c0-.2 0-.3.1-.4z"/><path fill="#FFD2C6" d="M742.9 366.4l-11.3 24s-1.7 4.5-2.7 5.3-5.8 15.1-5.8 15.1L711 429.4l-.8 1.3-4.8-1.3-3.3-12.4.2-3.6v-.5s7.5-7.8 9.1-8.4c0 0 1.3.1 3.8-5.9s4.8-7.4 4.8-7.4l1.3-4.4 14-22.3s11.7-16.8 14.9-9.4-7.3 11.3-7.3 11.3z"/><path fill="#D38884" d="M606.6 391.5c-.6 1.3-1 2.6-1.3 4-.1.4-.2.7-.2 1.1-.8 4-1.3 9-1.6 11.9-.1 1.5-.2 2.4-.2 2.4s-28.3-1.9-23.4-6.6c1.3-1.3 2.1-2.9 2.6-4.7.1-.5.3-1 .4-1.5.2-1.2.4-2.4.5-3.6v-.9c.1-2 0-3.9-.3-5.9 0 0 9.2-.1 16.2.7 4.5.6 8.2 1.5 7.3 3.1z"/><path fill="#FFD2C6" d="M696.1 536.6c0 .4-.2.8-.4 1.2-1.3 1.9-8.7 40.7-8.7 40.7.6 2.6-1.1 7.8-2.1 10.2s-3.5 14.7-3.5 14.7-.6 26.6-2.1 30.7.5 13 .5 13c-.2 4.1 2.3 8.4 3.8 10.6.1.1.2.3.3.4.5.7.8 1.1.8 1.1.4.8 1 1.5 1.7 2l.3.3c2 1.3 4.3 2.3 6.7 2.8h.2c1 .2 1.6.3 1.6.3l.6 3.3-6.3 1.3-12 .8s-14.1 1.1-10.9-5.2c.2-.4.4-.9.6-1.3l.3-.9c1.9-6 .6-13.4.6-13.4l-2.7-21.5c-4.5-19.9 3.5-42.1 3.5-42.1s-.7-1.8.8-6.3 0-14.4 0-14.4-.8-12.7-1.9-19c-.4-2.6-.6-5.3-.4-8 0-1.6.2-3.1.4-4.7l27-3.6c.1.1 1.6 4.5 1.3 7z"/><path opacity=".1" d="M695.7 667.9l-6.3 1.3-12 .8s-14.1 1.1-10.9-5.2c.2-.4.4-.9.6-1.3l.3-.9c2.4.1 4.9.6 7.2 1.4 4 1.5 7-2.5 7-2.5l2-3.7.3-.5c.5.7.8 1.1.8 1.1.5.9 1.2 1.7 2 2.3l-.3.7-1.9 4s2.4.3 5.8.8c1.3.4 2.7-.4 3.1-1.7h.2c1 .2 1.6.3 1.6.3l.5 3.1z"/><path fill="#626696" d="M701.5 670.8c-.5 2.1-13.7 2.8-13.7 2.8s-7.3-.7-9.4 1-8.1 1.3-8.4 1.3-3.4-.1-4.7-5.9 1.6-6.6 1.8-6.6c2.6 0 5.1.5 7.5 1.5 4 1.5 7-2.5 7-2.5l2.2-4.3c.5.7.8 1.1.8 1.1.5.9 1.2 1.7 2 2.3l-2.2 4.7s2.4.3 5.8.8c1.5.3 3-.6 3.3-2.1 0-.2.1-.4.1-.5v-.4s2.1.6 4.6 1.3c2.3.7 3.8 3.1 3.3 5.5z"/><path fill="#FFD2C6" d="M726.4 564.9c-.3 1.9-.6 6.8-.6 6.8 1.1 4.1-1.7 13.9-1.7 13.9l-1.4 5.6c.6 7.1-3.9 24.5-3.9 24.5s-3 16.1-4.6 23.1c-.9 3.9-.7 7.9.8 11.6.1.2.1.3.1.3 0 .1.1.3.1.4 0 .2.1.4.2.6.4 1 .9 1.9 1.6 2.7.3.3.5.6.8.9 1.5 1.3 3.2 2.4 5 3.1l.8.3c.8.3 1.7.6 2.5.8l.3.1-.6 3.7-8.4-2.2-11.2-3.6-5.5-3.2.2-.9v-.1c0-.3.1-.5.2-.9.9-4.9 3-18.6 1.9-28.7-1.3-12.5 3.9-29.7 5.1-33.8.8-2.3 1.1-4.8 1-7.3-2.1-3-2.5-15-2.5-15s-3.8-7.8-6.9-16c-1-2.7-1.8-5.5-2.3-8.3-.4-2-.5-4-.5-6.1 0 0 25.5-23.3 28.3-.7.1.8.2 1.5.3 2.2 2.4 20.6 1.2 24.3.9 26.2z"/><path opacity=".1" d="M726.4 659.5l-.6 3.7-8.4-2.2-11.2-3.6-5.5-3.2.2-.9v-.1c0-.3.1-.5.2-.9l.8-.1h.1c1.6-.1 3.2.1 4.7.6 1.8.7 4.2 1.5 4.7 1.1.8-.4 1.8-.5 2.7-.5l1.2-2.5.2-.4c.4 1 .9 1.9 1.6 2.7l.9.9v.9l-.1 1.3c1.2.8 2.6 1.4 4 1.9.4.1.8.1 1.1 0l.8.3c.8.3 1.7.6 2.5.8l.1.2z"/><path fill="#626696" d="M722.3 667.4c-2.3-.7-8-1.8-8.9-.9s-8.7 0-8.7 0c-1.7 0-3.2-.9-4-2.4-1.6-2.5-.3-10.7-.3-10.7l.6-.1 1-.1h.1c1.6-.1 3.2.1 4.7.6 1.8.7 4.2 1.5 4.7 1.1.8-.4 1.8-.5 2.7-.5l1.3-2.9c.4 1 .9 1.9 1.6 2.7l.9.9-.1 2.2c1.2.8 2.6 1.4 4 1.9.7.3 1.5 0 1.9-.6.1-.1.1-.2.2-.3.1.1.8.4 3.3 1.1 2.7-.2 5.3 1 6.5 4.7s-9.2 4-11.5 3.3z"/><path opacity=".1" d="M696.1 536.6l-1.5.4c-1.1.3-2.3.6-3.5.7-7.5 1-19.8.4-23.7.2 0-1.6.2-3.1.4-4.7l27-3.6c0 .1 1.6 4.5 1.3 7z"/><path fill="#626696" d="M719.7 530s-9.9 1.5-18 3.3c-2.7.6-5.2 1.2-7 1.8-1.1.3-2.3.6-3.5.7-9 1.3-25 .1-25 .1-4.4-14.2 5.3-32.1 5.3-32.1-.2-1.4 2-5.8 2-5.8v-.1l1.4-5.1h36.9l.5 2.2.9 4.4 5.8 27.5.7 3.1z"/><path opacity=".1" d="M725.4 538.7l-.2.1-4.3 1.9c-4.7 2.2-18.7 2.6-23.5 2.6-.4-2-.5-4-.5-6.1 0 0 25.5-23.3 28.3-.7 0 .7.1 1.4.2 2.2z"/><path fill="#626696" d="M726.1 536.5l-.9.4-4.3 1.9c-4.8 2.2-19.2 2.6-23.8 2.6h-1.2c-2.1-.1-4.3-2.1-4.3-2.6 0-.3-.2-1.7-.4-2.9l-.3-1.8s-9.5-4.1-14.3-7.4c-3.6-2.5-2.7-20-2-28.8.2-3 .5-5 .5-5l37.3 2.2 5.2.3 3 .7.8.2s2.1 15.7 3.2 17c1.1 1.3.4 5.7.2 8.2 0 1.1-.1 2.1-.3 3.2 0 0 1.5 4.4 1.2 6.8-.2 1.6-.1 3.3.4 5z"/><path fill="#D38884" d="M557.5 526.3c-9.7-.3-2.5-20.4-1.4-23.1s-1.7-9.3-1.7-9.3-3.3-19.1-3.3-20.4c-.2-2.6-.5-5.2-1.1-7.8-.4-2.6.1-5.2 1.3-7.6 1.1-1.7 1-8.7 1-8.7v-9l2.1-2.9 5.5 5.2 1.5 1.4 2.7 10.1-1 14.4-.5 14.1 3.3 19.5c.2.1 1.3 24.4-8.4 24.1z"/><path opacity=".1" d="M560.5 445.2l-8.2-3.4v-1.3l2.1-2.9 5.5 5.2.6 2.4z"/><path fill="#4C4981" d="M556.7 424.6c-1.1 2.6-1.8 5.3-2.3 8.1-.4 2.7-1.1 5.3-2.2 7.8l9.2 3.8-4.7-19.7z"/><path opacity=".05" d="M556.7 424.6c-1.1 2.6-1.8 5.3-2.3 8.1-.4 2.7-1.1 5.3-2.2 7.8l9.2 3.8-4.7-19.7z"/><path fill="#D38884" d="M629.5 624.3l-.8 1.6s-.8 5.4-.8 5.5-2.4 3.7-2.4 3.7l-6 1.3-2.5-.3c-.1-1.5-.4-2.9-.7-4.4-.1-.4-.2-.8-.3-1.3-.9-3.3-2.3-6.5-4.2-9.5 0 0-4.4-10.9-6-12.3s-7.6-15.8-7-19.3c.3-1.9.1-8.3-.3-13.6-.3-4.3-.5-8-.5-8l15-8.9 1.8 2.8 1 1.6v1c-.2 2.2-.6 4.4-1.3 6.6 0 0-1.1 8.1 0 9.5s4.7 20.5 5.5 29.3c0 .3 0 .5.1.8.3 4 2.8 7.7 5.3 10.3l.5.5c1.1 1.1 2.3 2.2 3.6 3.1z"/><path opacity=".1" d="M617.1 636.1l2.5.3 6-1.3s2.4-3.6 2.4-3.7.8-5.5.8-5.5l.8-1.6.1-.2c-1.5-1-2.8-2.1-4.1-3.4l-.4-.4s.8 5.2-3.7 7.6c-2.2 1.1-4 2-5.3 2.6l.9 5.6z"/><path fill="#CEDDF9" d="M630.6 625.1l-.8 1.9s-.8 5.4-.8 5.5-2.4 3.7-2.4 3.7l-6 1.3-3.4-.4c0-.7-.1-1.7-.3-2.9-.1-.7-.3-1.5-.4-2.4 1.3-.6 3.3-1.6 5.9-2.9 4.5-2.3 3.7-7.6 3.7-7.6 1 1 2 1.9 3.1 2.8.5.4 1.1.8 1.4 1z"/><path opacity=".1" d="M630.6 625.1l-.8 1.9s-.8 5.4-.8 5.5-2.4 3.7-2.4 3.7l-6 1.3-3.4-.4c0-.7-.1-1.7-.3-2.9.7 0 1.5.1 2.2.3 0 0 8.2 1.7 8.5-4.7.2-3.7 1-5.1 1.6-5.7.5.4 1.1.8 1.4 1z"/><path fill="#CC8294" d="M630 624.7s-2-.5-2.4 6-8.5 4.7-8.5 4.7-4-1-4 .7c.1 1.5.5 3 1.1 4.5 0 0 .2 3.8 1 4.7s.3 4.3.3 4.3.3 2.5 6.6 0c0 0 5.6-1.2 10.3-8.1.2-.2-.6-1 3.5-2.4s15.7-10.8 14.8-15.4c-.2-1.5-1.3-2.8-2.8-3.3-1.2-.3-2.5-.2-3.6.5-1.1.6-2.2 1.1-3.4 1.6-1.6.6-3.2 1-4.9 1.2-1.3.1-2.5.3-3.8.7-1.5.2-3.2.6-4.2.3z"/><path fill="#D38884" d="M583.9 580.3c-.9.8-1.7 1.6-2.3 2.6-2.3 3.5-3.7 8.4-5.2 10.5-2 2.7-2.6 8.1-2.6 8.1-.5 3.5-7.9 22.2-10 25.5s-4.8 12.3-4.8 12.3c-1.7 2.2-1.6 5.3-1.4 6.8 0 .3.1.5.1.6v.4l-2.7 4.7-8.7-1.2-4.4-3.1c.4-.6.7-1.2 1-1.9 2.4-5.4 4.1-15 4.1-15s2.4-11 2.2-13.5c.1-3.5.3-7 .7-10.4 0 0 6.8-21 9-24.4.9-1.3 1.5-2.9 1.7-4.5v-1l3-2.9c-.2 0 24.1 3.4 20.3 6.4z"/><path opacity=".1" d="M557.7 646.2v1l-2.7 4.7-8.7-1.2-4.5-3.1c.4-.6.7-1.2 1-1.9 2.2-.6 7.2 1.2 7.2 1.2s5.4 1 7.7-.7z"/><path fill="#CEDDF9" d="M555.6 658.6l-8.8 2.2-8.1-6 .4-3.4c.6-.4 1.1-.8 1.5-1.4.6-.7 1-1.5 1.2-2.4.5-2.5 8.2.2 8.2.2s5.6 1.1 7.8-.7c-.2 1.6 0 3.3.4 4.9.2.8.7 1.5 1.3 1.9 2.2 1.6-3.9 4.7-3.9 4.7z"/><path opacity=".1" d="M555.6 658.6l-8.8 2.2-8.1-6 .4-3.4c.6-.4 1.1-.8 1.5-1.4h1.8c1.4.1 4.6 5.9 4.6 5.9 8 .5 10.4-2.1 11.3-4 .2.8.7 1.5 1.3 1.9 2.1 1.7-4 4.8-4 4.8z"/><path fill="#CC8294" d="M546.8 656.9s-3.2-5.8-4.6-5.9c-1.1-.1-2.3-.1-3.4 0 0 0-3.6 8.4-4.9 9.2s-3.2 4.7-3.2 4.7 9.4 9.1 18.5 7.4c2.9 0 5.7.7 8.3 2.1 4.2 2.2 21.8.5 23.9-3.3 1.6-2.9 2.2-5 .8-6.5-.9-.9-2.1-1.3-3.3-1.1-2.2.3-7.2.2-11.5-5.1 0 0-8-7.3-8.7-7.3s.7 6.7-11.9 5.8z"/><path opacity=".1" d="M616 564.3c-.6.7-4.5 4.9-5.6 5.2-1.9.7-3.8 1.6-5.7 2.5 0 0-2.4 3.2-4.3 3.3-.6.1-1.1.2-1.7.5-.3-4.3-.5-8-.5-8l15-8.9 1.8 2.8c.4 1.1.8 2.1 1 2.5v.1z"/><path fill="#CEDDF9" d="M561.3 503.2s-5.8 7.6 0 17.7 12 15.2 12 15.2l19.9 41.3s5.2-2.8 7.1-3 4.3-3.3 4.3-3.3c1.8-.9 3.7-1.8 5.7-2.5 1.3-.3 5.7-5.2 5.7-5.2s-2.2-4.8-1.7-6-1.4-4.4-1.4-4.4c-.6-1.6-1-3.2-1.3-4.9 0-1.3-2.1-4.3-2.1-4.3s-2-3.2-2-4.9-3-8.5-3-8.5l-.8-30-42.4 2.8z"/><path opacity=".05" d="M616 563.3s-4.4 4.9-5.6 5.2c-1.9.7-3.8 1.6-5.7 2.5 0 0-2.4 3.2-4.3 3.3-1.4.3-2.7.8-3.9 1.4-1.7.8-3.2 1.6-3.2 1.6L573.4 536c-1.7-1.5-3.4-3.2-4.8-5-2.7-3.2-5.1-6.6-7.2-10.2-2.3-3.7-3.1-8.1-2.3-12.3.4-1.9 1.1-3.8 2.3-5.4l14.2-1 28.2-2 .2 8.9.5 21.2s.5 1.1 1 2.5c.9 2.1 2 5 2 6.1 0 1.7 2 4.9 2 4.9s2.1 3 2.1 4.3c.3 1.7.7 3.3 1.3 4.9 0 0 1.9 3.2 1.4 4.4s1.7 6 1.7 6z"/><path opacity=".1" d="M583.9 580.3c-.9.8-1.7 1.6-2.3 2.6-8.6.6-18.6-3.9-21.2-5.1v-1l3-2.9c-.1 0 24.3 3.4 20.5 6.4z"/><path fill="#CEDDF9" d="M609.3 512.5s-1.3 4.4-1.7 6.3-1.4 11.2-1.4 11.2l-.5 2.6-9 43.1-2 9.4c-3.5 1.9-12.2-3.2-12.2-3.2-10.1 1.1-22.6-5.4-22.6-5.4s2.1-6.6 1.6-10 2.8-6 2.8-6c-.8-3 2-16.1 2-16.1s.6-4.9 3-6.2-.3-3.2-1-4.3c-.3-.5-.1-1.8.2-2.9.2-.7.4-1.5.7-2.2-6-6-7-15.5-7-20.7 0-1.3 0-2.6.2-3.8l13.1-2.3 28.5-5 2.9 9 .7 2.3 1.7 4.2z"/><path opacity=".1" d="M606.6 391.5c-.6 1.3-1 2.6-1.3 4-.1.4-.2.7-.2 1.1-2.8 1.8-4.5 1.8-8 1.8-1.2 0-1.9-2.3-3-2.6 0 0-1.7-6.2-2.2-1-3.3-.7-6.2 1.9-8.5-.4v-.9c.1-2 0-3.9-.3-5.9 0 0 9.2-.1 16.2.7 4.5.7 8.1 1.6 7.3 3.2z"/><path fill="#D38884" d="M613.1 380.9c0 9.7-7.9 17.6-17.6 17.6-1.2 0-2.4-.1-3.5-.4-9.5-2-15.7-11.3-13.7-20.8s11.3-15.7 20.8-13.7c8.1 1.8 14 9 14 17.3z"/><path opacity=".1" d="M603.4 408.6c-.1 1.5-.2 2.4-.2 2.4s-28.3-1.9-23.4-6.6c1.3-1.3 2.1-2.9 2.6-4.7l12.3 2s3.5 2.7 6.2 5.2c.7.7 1.6 1.2 2.5 1.7zm4.3 100.8c-1.2.2-2.5.1-3.7-.3-.5-.2-1-.4-1.5-.7-2.4-1.4-10.3.3-10.3.3s-21.5 1.4-22.5 0c-.5-.8-4.3-.7-7.4-.4-1.3.1-2.4.2-3.2.3.4-1.9 1.1-3.8 2.3-5.4l14.2-1 28.5-5 2.9 9c.3 1.8.7 3.2.7 3.2z"/><path fill="#4C4981" d="M594.7 402.6l-15.4-2.5c-.5 1.2-1.6 2.2-2.9 2.5-2.1.5-11.2 5.2-15.3 10.9l-4.1 5.7s-3.3 4.1-2.2 7.4 2.4 14.6 2.4 14.6l1.6 12.5s3 9 2 13 .5 20.6.5 20.6l-3.2 20.6s10.8-1.4 11.7 0 22.5 0 22.5 0 7.9-1.7 10.3-.3c1.6.9 3.4 1.2 5.2 1 0 0-1.9-6.5-.8-10.1s.8-10.3.8-10.3 1.6-9.6.8-11.4 1.7-8.1 1.7-8.1l8.4-44.1s-1-7.9-5.5-10.6-9.5-3.5-12.2-6-6.3-5.4-6.3-5.4z"/><path fill="#D38884" d="M601.8 446.1v5.2l4.9 13.1 1.8 12.2s3.2 8.7 3.2 11.7 7.7 17.6 7.7 17.6 2.1 4.9 1.1 5.9-10.2 21.8 1.3 21.2 7.9-22.5 7.9-22.5l-1.6-9.5s-2.2-23.7-2.2-25.5c0 0-2.8-10.1-3.2-12.3s-2.4-13.4-2.4-13.4l-1.7-7.3-16.8 3.6z"/><path opacity=".1" d="M596.3 462.6l-17.2 9.8-5.3 8.1 7.1-7.2 15.4-10.7zm-5.2 18.8s-7.8 5.1-11.5 5.1-12.2 8.8-12.2 8.8 12.1-7.8 13-7.6 10.7-6.3 10.7-6.3zm-20 2.7s-7.3 6.6-5.5 7.4 11.8-7.4 11.8-7.4h-6.3zm32.5-23.7s-5.7 7.7-4.2 7.6 5.9-4.5 5.9-4.5l-1.7-3.1zm.8 7.6s-6.2 7-5.9 8.8 5.9-8.8 5.9-8.8zm1.5 3.5s-4.2 7.4-2.4 9 2.4-9 2.4-9zm-5.3-19s-3.1 5.2-.8 5.6 2.5 0 2.5 0l-1.7-5.6zm.8-19.1c-.8 3.2-1.8 6.3-3.2 9.3-.5-1.5-.9-3.1-1.2-4.7 1.3-1.7 2.8-3.2 4.4-4.6zm9.4-61.1c-.3.7-.7 1.3-1.2 1.8-.8.7-1.5 1.6-2.2 2.5-.7 1.3-.5 2.8-.8 4.2s-1.1 3-2.5 3c-.7-.1-1.4-.3-2.1-.6-.7-.3-1.4-.3-2.1.1-.4.4-.6 1-.7 1.6-.2 1.2-.3 2.5-.2 3.7 0 .5 0 1 .1 1.5.2 1.6.5 3.3-.3 4.7-.7 1.1-1.7 1.9-2.9 2.3-1.3.5-2.7.9-4.1 1.1-2.7.3-5.4.4-8.1.3-.2 0-.5 0-.7-.1-.1 0-.2-.1-.3-.2.3-1.5.5-3 .5-4.5-7-6.7-7.3-17.9-.5-24.9 6.7-7 17.9-7.3 24.9-.5 1.3 1.1 2.4 2.4 3.2 4z"/><path fill="#1E1637" d="M603.5 357.3c-1.6-.2-3.1.7-4.7 1-3.3.7-6.6-.8-10-.8-2.9.2-5.7 1-8.2 2.5-2 1-3.9 2.3-5.5 3.8-1.6 1.6-2.5 3.7-2.6 6 0 1.3.4 2.7-.1 3.9-.3.6-.7 1.3-1.2 1.8-.8 1.3-1.1 3-.6 4.5.7 1.5 1.6 2.8 2.7 4 2.2 2.8 3.5 6.1 5.5 9.1.8 1.3 1.8 2.5 2.8 3.6.2.2.4.4.6.5.2.1.5.1.7.1 4.1.1 8.4.2 12.2-1.4 1.2-.4 2.2-1.2 2.9-2.3.8-1.4.4-3.1.3-4.7-.2-1.7-.1-3.5.1-5.2 0-.6.3-1.1.7-1.6.6-.4 1.4-.4 2.1-.1.6.3 1.4.6 2.1.6 1.4 0 2.3-1.6 2.5-3s.1-2.9.8-4.2c.6-.9 1.3-1.7 2.1-2.5 2-2.5 2.6-5.8 1.8-8.9-.9-2.7-3.8-6.4-7-6.7z"/><circle fill="#FFD2C6" cx="686.1" cy="391.1" r="15.3"/><path fill="#FFD2C6" d="M678.6 397.5s1.1 14.5-1.9 17.8-10.7 9.6-10.7 9.6l2.4 9.9 13.4 1.5 15.7-16.7-3.6-4.4s-2.7-9.3-.5-13.9-14.8-3.8-14.8-3.8z"/><path opacity=".1" d="M711 429.4l-.8 1.3-4.8-1.3-3.3-12.4.2-3.6 1-1.4s5.2.1 5 4.9c-.2 4 2.2 10.9 2.7 12.5zm10.3 68.6s-3.8.8-8.1 1.4-9.3.9-11.4-.3c-3.4-2-22-1.5-27.4-1.2h-.9l1.4-5.1h36.9l.5 2.2 5.2.3 3 .7c.5 1.2.8 2 .8 2z"/><path fill="#FFCDE5" d="M702.4 412.9s5.2.1 5 4.9 2.8 12.9 2.8 12.9l-1.2 2.7s-1.7 6.6-.4 8.3 6 1.7 3.3 15.3c0 0-.6 10.2.8 13.5s1.4 11.3 3.6 14.6 5 11 5 11-15.4 3.4-19.5 1.1S673 496 673 496s.1-4.1 0-4.6c-.2-1 0-2.1.6-3 .8-1.1 2.1-3 1.4-4.7s1.8-4.1.5-6.7-2.9-3.1-2.6-4.5-.5-3.3-1.5-4.5-7.3-13.7-7.3-13.7l-1.1-5.9s-8.3-6-8.1-8.9 3.1-6.8 3.1-6.8l8-7.8s4.4 4.8 8.7 3.1 13.4-9.6 13.4-9.6 3.3-1.8 3.5-3.1 2.3-.1 2.3-.1 3-1.6 3.6-1 3.2 1 3.2 1l1.7-2.3z"/><path fill="#FFD2C6" d="M657.5 437.6l-2.5 2s-2.6 4.6-3.2 12.9c-.7 6.7-1.7 13.4-3.2 20l-5 8.9s-8.2 17.2-9.3 21.8-5.9 12.3-5.9 12.3-16.5 14.8-5 17.5 11.9-11.8 11.9-11.8 2.7-3 3.1-5 15-27.8 15-27.8 5.1-6.9 4-10.6c0 0 6.6-15.6 6.6-19.5-.1-3.3-.5-6.5-1.1-9.8l1.1-8.2-6.5-2.7z"/><path opacity=".1" d="M691.7 470.3s-11.6 6.1-13.9 6.4 9.8-1.3 9.8-1.3l4.1-5.1zm9.5 4.7s-15.4 5.2-22.2 4.3c0 0 16.8 3.2 22.2-4.3z"/><path opacity=".1" d="M702.1 476.7s-13.9 8.7-22.1 7.3c0 0 19.1 3.8 22.1 1.8l-8.5-2.4s9.5-5 8.5-6.7zm-16-112.5c-4-.8-8.5-.3-11.7 2.2-2.4 1.9-4 4.7-6.6 6.1-1.4.6-2.9 1.1-4.3 1.5-5.4 2.2-8.5 7.8-7.7 13.5.4 2.4 1.5 4.5 2.1 6.9 1 4.1.1 8.5-.9 12.6-2.9 11.4-7.4 22.4-13.2 32.7-.5.6-.7 1.4-.7 2.2.1.5.4 1 .8 1.4 5.5 6.3 14.4 8.5 22.8 8.8 3.1.1 6.3 0 9-1.5 1.7-1 3.3-2.4 4.4-4 2.9-4 4.3-8.9 4.1-13.8-.2-4-1.6-8-.6-11.9.1-.5.4-1 .7-1.5.9-.9 2.4-.7 3.7-.8 3.5-.4 5.7-4.1 6.2-7.6s-.5-7-.5-10.5c0-4.6 1.4-9.1 4.1-12.9 1.2-1.6 2.6-3.2 3-5.2.5-2.5-1-4.3-2.2-6.3-2-3.1-2.9-6.7-5.9-9-1.9-1.4-4.2-2.4-6.6-2.9z"/><path fill="#985C7E" d="M685.2 363.3c-4-.8-8.5-.3-11.7 2.2-2.4 1.9-4 4.7-6.6 6.1-1.4.6-2.9 1.1-4.3 1.5-5.4 2.2-8.5 7.7-7.6 13.5.4 2.4 1.5 4.5 2.1 6.9 1 4.1.1 8.5-.9 12.6-2.9 11.4-7.3 22.4-13.2 32.7-.5.6-.7 1.4-.7 2.2.1.5.4 1 .8 1.4 5.5 6.3 14.4 8.5 22.8 8.8 3.1.1 6.3 0 9-1.5 1.7-1 3.3-2.4 4.4-4 2.9-4 4.3-8.9 4.1-13.8-.2-4-1.6-8-.6-11.9.1-.5.4-1 .7-1.5.9-.9 2.4-.7 3.7-.8 3.5-.4 5.7-4.1 6.2-7.6s-.5-7-.5-10.5c0-4.6 1.4-9.1 4.1-12.9 1.2-1.6 2.6-3.2 3-5.2.5-2.5-1-4.3-2.2-6.3-2-3.1-2.9-6.7-5.9-9-2-1.5-4.3-2.5-6.7-2.9z"/><path opacity=".1" d="M620.4 432.3c-.3 2.1-.3 4.3 0 6.5-.2 1.7 0 11.4 0 11.4-5.2-1.6-18.5 1.6-18.5 1.6l-1.6-4.8c-.9-1.2-1.6-2.5-2-3.9-.5-1.5-.9-3.1-1.2-4.7-.7-3.3-1.2-6.6-1.5-9.9-.7-5 6.8-10.4 12.5-13.5s10.6 9.8 10.6 9.8 2.3 5 1.7 7.5z"/><path fill="#4C4981" d="M620.4 431.4c-.3 2.1-.3 4.3 0 6.5-.2 1.7 0 11.4 0 11.4-5.2-1.6-18.5 1.6-18.5 1.6l-1.6-4.8c-.9-1.2-1.6-2.5-2-3.9-.5-1.5-.9-3.1-1.2-4.7-.7-3.3-1.2-6.6-1.5-9.9-.7-5 6.8-10.4 12.5-13.5s10.6 9.8 10.6 9.8 2.3 5 1.7 7.5z"/><path opacity=".1" d="M680.1 511.6s3 14.2 8.1 18.1l-8.1-18.1z"/><path opacity=".2" d="M610.4 364.3c-.3-.9-.7-1.7-1.2-2.5.1.2.2.4.2.6.9 3.1.2 6.4-1.8 8.9-.8.7-1.5 1.6-2.2 2.5-.7 1.3-.5 2.8-.8 4.2s-1.1 3-2.5 3c-.7-.1-1.4-.3-2.1-.6-.7-.3-1.5-.3-2.1.1-.4.4-.6 1-.7 1.6-.2 1.7-.3 3.4-.1 5.2.2 1.6.5 3.3-.3 4.7-.7 1.1-1.7 1.9-2.9 2.3-3.8 1.6-8.1 1.5-12.2 1.4-.2 0-.5 0-.7-.1-.2-.1-.4-.3-.6-.5-1.1-1.1-2-2.3-2.8-3.6-2-3-3.3-6.3-5.5-9.1-.6-.8-1.3-1.5-1.8-2.3v.1c.7 1.5 1.6 2.8 2.7 4 2.2 2.8 3.5 6.1 5.5 9.1.8 1.3 1.8 2.5 2.8 3.6.2.2.4.4.6.5.2.1.5.1.7.1 4.1.1 8.4.2 12.2-1.4 1.2-.4 2.2-1.2 2.9-2.3.8-1.4.4-3.1.3-4.7-.2-1.7-.1-3.5.1-5.2 0-.6.3-1.1.7-1.6.6-.4 1.4-.4 2.1-.1.6.3 1.3.6 2.1.6 1.4 0 2.3-1.6 2.5-3s.1-2.9.8-4.2c.6-.9 1.3-1.7 2.2-2.5 2-2.5 2.7-5.8 1.9-8.8z"/><path opacity=".1" d="M655.8 389.8c-.2-.6-.3-1.1-.5-1.7.1.6.3 1.1.5 1.7zm43.3-12.4c0 .4 0 .9-.1 1.3-.4 2-1.9 3.6-3 5.2-2.7 3.8-4.2 8.3-4.1 12.9 0 3.5.9 7 .5 10.5s-2.7 7.2-6.1 7.6c-1.3.1-2.8-.1-3.7.8-.4.4-.6.9-.7 1.5-1 3.9.3 7.9.6 11.9.3 4.9-1.2 9.8-4.1 13.8-1.2 1.6-2.7 3-4.4 4-2.7 1.5-6 1.6-9 1.5-8.2-.3-17-2.4-22.5-8.5-.2.4-.2.8-.1 1.1.1.5.4 1 .8 1.4 5.5 6.3 14.4 8.5 22.8 8.8 3.1.1 6.3 0 9-1.5 1.7-1 3.3-2.4 4.4-4 2.9-4 4.3-8.9 4.1-13.8-.2-4-1.6-8-.6-11.9.1-.5.4-1 .7-1.5.9-.9 2.4-.7 3.7-.8 3.5-.4 5.7-4.1 6.2-7.6s-.5-7-.5-10.5c0-4.6 1.4-9.1 4.1-12.9 1.2-1.6 2.6-3.2 3-5.2.1-1.4-.2-2.9-1-4.1z"/><path d="M1005 612.7s-28.7-94.2 4.5-131.9c24.9-28.2 53.1-24.8 65.7-21.4 6.6 1.8 12.1 6.3 15.1 12.5 4.4 9.5 3.6 25-27.6 43.1-52.2 30.2-55.5 71.7-55.5 71.7l-2.2 26zm-1.2.8s33.7-68.5 42.9-67c4.4.7 6.4 5 7.3 9.4 1.1 5.6.5 11.4-1.8 16.7-4.8 10.9-17.6 31.7-48.4 40.9zm1 0s-33.7-68.5-42.9-67c-4.4.7-6.4 5-7.3 9.4-1.1 5.6-.5 11.4 1.8 16.7 4.8 10.9 17.6 31.7 48.4 40.9zm57.8 16c.9-.7 1.6-1.8 1.9-2.9.3-1.2-.2-2.4-1.3-3-1.2-.5-2.6.4-3.5 1.2s-2.1 1.8-3.4 1.7c1.4-1.2 2-3.1 1.6-4.9-.1-.4-.2-.7-.5-1-.7-.7-1.9-.4-2.7.2-2.6 1.8-3.3 5.4-3.3 8.5-.1-1.2-.1-2.4 0-3.5.1-1.2-.4-2.4-1.3-3.1-.6-.3-1.3-.5-2-.5-1.2-.2-2.4.2-3.3.9-1 1.1-.7 2.8.1 4 1 1.1 2.1 2 3.4 2.7 1 .6 1.8 1.4 2.4 2.3.1.1.1.3.2.4h7.3c1.6-.8 3.1-1.8 4.4-3zm-128.2-27.6c.9-.7 1.6-1.8 1.9-2.9.3-1.2-.3-2.4-1.3-2.9-1.2-.5-2.5.4-3.5 1.2s-2.1 1.8-3.4 1.7c1.4-1.2 2-3.1 1.6-4.9-.1-.4-.2-.7-.5-1-.7-.7-1.9-.4-2.7.2-2.6 1.8-3.3 5.4-3.3 8.5-.1-1.2-.2-2.3 0-3.5.1-1.2-.4-2.4-1.3-3.1-.6-.3-1.3-.5-2-.5-1.2-.2-2.4.2-3.3.9-.9 1.2-.8 2.9.1 4 1 1.1 2.1 2 3.4 2.7 1 .6 1.8 1.4 2.4 2.3.1.1.1.3.2.4h7.3c1.5-.8 3-1.8 4.4-3.1zm42.7 27.6c.9-.7 1.6-1.8 1.9-2.9.3-1.2-.3-2.4-1.3-3-1.2-.5-2.5.4-3.5 1.2s-2.1 1.8-3.4 1.7c1.4-1.2 2-3.1 1.6-4.9 0-.4-.2-.7-.5-1-.7-.7-1.9-.4-2.7.2-2.6 1.8-3.3 5.4-3.3 8.5-.1-1.2-.1-2.4 0-3.5.1-1.2-.4-2.4-1.3-3.1-.6-.3-1.3-.5-2-.5-1.2-.2-2.4.2-3.3.9-1 1.1-.7 2.8.1 4 1 1.1 2.1 2 3.4 2.7 1 .6 1.8 1.4 2.4 2.3.1.1.1.3.2.4h7.3c1.6-.8 3.1-1.8 4.4-3zM65.2 754.8s-50.7 26.2-24.5 57c0 0 2.5 6.7 9.6 6.2 0 0-1.4-2.6 4-4.7 1.9-.8 3.8-1.7 5.5-2.9 2.3-1.6 4-3.9 4.9-6.5 0 0 10.4-13.9 2.3-39.5 0 0 1-7.3.1-8.4l-6.2 8.4s6.4 4.3 7.1 10.5c0 0-6.6-10.5-8.1-9.3-.3.3-3.1 4.6-3.1 4.6s11 7.5 11.9 17.2c0 0-6.2-13.6-12.9-15.6l-3.8 6.9s12 7.3 13.4 18.4c0 0-7-14-14.1-16.8l-2.8 7.2s11.6 7.4 12.7 16.6c0 0-9.7-15.4-13.2-14.9 0 0-2.2 6.8-1.9 8.9 0 0 8.2 5.5 8.4 10.9 0 0-7.6-9.6-8.8-8.9 0 0-.5 9.6 1.8 14.6 0 0-4-7.1-3.3-14.6 0 0-4 3.4-4.9 7.8 0 0-2.2-5.3 5-10.2 0 0 .7-7.5 1.5-8.4 0 0-7.8 3.8-11.1 8.5 0 0 1.2-7 11.8-10.4l2.7-7.3s-10.5 4.5-13.8 8.4c0 0 2.3-6.9 14.6-10.2l3.6-6.8s-9.4 3.2-13.9 6.8c0 0 3.5-5.9 15.1-8.7l3-4.2s-6.8 2.4-8.7 3.3-2.3.4-2.3.4c3.5-2.9 7.7-4.9 12.2-5.5 0 0 6.7-8.3 6.2-8.8zm113.1-32.9s-37.9 19.5-18.3 42.6c0 0 1.8 5 7.2 4.6 0 0-1.1-1.9 3-3.5 1.4-.6 2.8-1.3 4.1-2.2 1.7-1.2 3-2.9 3.7-4.9 0 0 7.7-10.4 1.7-29.5 0 0 .8-5.4.1-6.3l-4.6 6.3s4.8 3.2 5.3 7.9c0 0-5-7.9-6-7-.2.2-2.3 3.5-2.3 3.5s8.3 5.6 8.9 12.8c0 0-4.6-10.2-9.7-11.6l-2.8 5.1s9 5.5 10 13.7c0 0-5.2-10.5-10.6-12.6l-2.1 5.4s8.7 5.5 9.5 12.4c0 0-7.3-11.5-9.9-11.1 0 0-1.6 5.1-1.4 6.6 0 0 6.1 4.1 6.2 8.1 0 0-5.7-7.2-6.5-6.7 0 0-.4 7.2 1.4 10.9 0 0-3-5.3-2.5-10.9-1.8 1.6-3 3.6-3.6 5.8 0 0-1.6-4 3.7-7.6 0 0 .5-5.6 1.1-6.3 0 0-5.8 2.8-8.3 6.3 0 0 .9-5.2 8.8-7.8l2-5.5s-7.9 3.3-10.3 6.3c0 0 1.8-5.2 10.9-7.6l2.7-5s-7 2.4-10.4 5c0 0 2.6-4.4 11.3-6.5l2.2-3.2s-5.1 1.8-6.5 2.5-1.7.3-1.7.3c2.6-2.2 5.7-3.6 9.1-4.1-.1.4 4.9-5.9 4.6-6.2zM22.9 607.3s-21.2 10.9-10.2 23.8c.6 1.6 2.2 2.7 4 2.6 0 0-.6-1.1 1.7-2 .8-.3 1.6-.7 2.3-1.2.9-.7 1.6-1.6 2-2.7 0 0 4.3-5.8 1-16.5 0 0 .4-3 .1-3.5l-2.6 3.5s2.6 1.8 3 4.4c0 0-2.8-4.4-3.4-3.9-.1.1-1.3 1.9-1.3 1.9s4.6 3.1 4.9 7.2c0 0-2.6-5.7-5.4-6.5l-1.6 2.9s5 3.1 5.6 7.7c0 0-2.9-5.8-5.9-7l-1.2 3s4.9 3.1 5.3 6.9c0 0-4.1-6.4-5.5-6.2-.4 1.2-.7 2.5-.8 3.7 0 0 3.4 2.3 3.5 4.5 0 0-3.2-4-3.6-3.7 0 0-.2 4 .8 6.1-1-1.9-1.5-4-1.4-6.1-1 .9-1.7 2-2 3.3 0 0-.9-2.2 2.1-4.2 0 0 .3-3.1.6-3.5 0 0-3.3 1.6-4.6 3.5 0 0 .5-2.9 4.9-4.3l1.1-3.1s-4.4 1.9-5.8 3.5c0 0 1-2.9 6.1-4.3l1.5-2.8c-2.1.7-4 1.6-5.8 2.8 0 0 1.5-2.5 6.3-3.6l1.2-1.8s-2.8 1-3.6 1.4-1 .2-1 .2c1.5-1.2 3.2-2 5.1-2.3 0-.1 2.8-3.5 2.6-3.7zM901.2 98.1s-27.5-22.8 22.7-59.5c0 0 24.9 47.6-8.5 63.7 0 0 .6-23.5-2.5-23.5s-11.7 19.3-11.7 19.3zm-42 23.2s-48.5 4.5-35.5-79.3c0 0 70 22 53.3 69.7 0 0-22.1-23.3-25-20.3s7.2 29.9 7.2 29.9zM628.5 228.5s-48 8.4-41.8-76.2c0 0 71.5 16.2 58.8 65.1 0 0-23.9-21.4-26.6-18.2s9.6 29.3 9.6 29.3zM989 117.9s46.2 15.6 52.9-68.9c0 0-73.2 5.2-68 55.5 0 0 26.8-17.6 29-13.9S989 117.9 989 117.9zm-243.7 24.8s-46.1-15.9.4-86.9c0 0 54.7 48.9 19.8 85.5 0 0-10.5-30.3-14.4-28.8s-5.8 30.2-5.8 30.2zm167.1-24.8s-2.7-25.9 42.2-19.5c0 0-11.3 37.5-36.9 29 0 0 12.3-11.9 10.7-13.5s-16 4-16 4zM867 171.7s-2.7-25.9 42.2-19.5c0 0-11.3 37.6-36.9 29 0 0 12.3-12 10.7-13.5s-16 4-16 4zm95.1 11.4s-19.7-17.1 17.5-43c0 0 17.4 35.1-7.2 46.4 0 0 .8-17.1-1.4-17.1s-8.9 13.7-8.9 13.7zm-79.4 146.8s24.4-9.3 29.7 35.7c0 0-39.2-1.3-37.5-28.2 0 0 14.7 8.8 15.8 6.9s-8-14.4-8-14.4zm1.9-45.6s-19.7-17.1 17.5-43c0 0 17.4 35.2-7.2 46.4 0 0 .8-17.1-1.4-17.2s-8.9 13.8-8.9 13.8zm-151.5-48.5s-23.6 11-32.1-33.6c0 0 39.2-1.5 39.4 25.5 0 0-15.3-7.8-16.2-5.7s8.9 13.8 8.9 13.8zM676 182.9s-23.6 11-32.1-33.6c0 0 39.2-1.5 39.4 25.5 0 0-15.3-7.8-16.2-5.7s8.9 13.8 8.9 13.8zm79.5 122.8s-26 1-16.6-43.4c0 0 36.7 13.8 26.4 38.8 0 0-11.1-13.1-12.8-11.6s3 16.2 3 16.2zm-4.6 31.5s4.6 25.6-40.6 22.5c0 0 8.5-38.3 34.7-31.6 0 0-11.4 12.8-9.7 14.3s15.6-5.2 15.6-5.2zm-60.7-19.9s-9.9 24.1-46.4-2.8c0 0 27.7-27.7 46.2-8 0 0-16.5 4.7-15.8 6.8s16 4 16 4zm205.3-94.6s-27.5-22.8 22.7-59.5c0 0 24.9 47.6-8.5 63.8 0 0 .6-23.5-2.5-23.5s-11.7 19.2-11.7 19.2zm113.6-47s-20.1-29.5 38.3-50.9c0 0 10.7 52.7-25.8 58.9 0 0 7.1-22.4 4.1-23.2s-16.6 15.2-16.6 15.2zm-3.1 92.9s-27.5-22.8 22.7-59.5c0 0 24.9 47.6-8.5 63.7 0 0 .6-23.5-2.5-23.5s-11.7 19.3-11.7 19.3zM956.9 313s10.9-34 63.6-1.1c0 0-34.9 40.8-62.3 15.9 0 0 22-8.2 20.9-11s-22.2-3.8-22.2-3.8zm70.4-24.7s10.9-34 63.6-1.1c0 0-34.9 40.8-62.3 15.9 0 0 22-8.2 20.9-11s-22.2-3.8-22.2-3.8zM801.4 159.5s-35.2-6.3-9.6-62.9c0 0 45.1 29.2 24.1 59.6 0 0-11-20.8-13.7-19.2s-.8 22.5-.8 22.5zm-83.7 13.2s-35.4 5.2-29.1-56.6c0 0 52.1 13.3 41.8 48.9 0 0-17.1-16.2-19.1-13.9s6.4 21.6 6.4 21.6zm-21.9 91.7s-35.3 5.2-29.1-56.6c0 0 52.1 13.3 41.8 48.9 0 0-17.1-16.2-19.1-13.9s6.4 21.6 6.4 21.6zm-37.4 27.8s-30.5 18.6-48.9-40.7c0 0 53.1-8.1 57.5 28.7 0 0-22-8.2-23-5.3s14.4 17.3 14.4 17.3zm286.4-28.5s-27.5-22.8 22.7-59.5c0 0 24.9 47.6-8.5 63.7 0 0 .6-23.5-2.5-23.5s-11.7 19.3-11.7 19.3zM352.1 438.8s-5.1-6.5-7.4-6.7c0 0 .5 1.8-.3 2.7-.7 1.1-1.6 2.1-2.6 3-1 .7-1.5 1.3-.8 2.5s1.6 3.1 3.2 2.7 6.2-3 7.1-3.1-4.9-2.8-5.8-2.7c0 0 2.5-.7 6.1 2.1l.5-.5zm-3.9-6.4c0-1.2.5-2.4 1.4-3.3.4-.4.9-.6 1.5-.6 1 .3 1.9.8 2.7 1.4 0 0 3.2 1.8 4.8.1v.6c0 .8-.2 1.5-.5 2.3-.9 1.9-2.7 5.7-3.5 6.3l-.8-.4s1.1-5.4 0-6.8l-.4 6.7h-.4l-4.2-4.9c-.4-.3-.6-.8-.6-1.4zm11.9 1.3c1.2-.3 2.4-.1 3.5.6.5.3.9.8 1 1.4-.1 1-.3 2.1-.8 3 0 0-1 3.5 1.1 4.7l-.6.1c-.8.2-1.5.2-2.3 0-2.1-.4-6.2-1.3-7-2l.2-.9s5.5-.2 6.6-1.6l-6.6 1.2-.1-.5 3.7-5.2c.3-.4.7-.7 1.3-.8zm2.1 11.3c.7 1 .9 2.3.6 3.5-.1.6-.4 1.1-1 1.4-1 .3-2 .4-3.1.3 0 0-3.6.3-4 2.6l-.3-.5c-.4-.6-.7-1.4-.8-2.1-.3-2.1-.9-6.2-.5-7.2l.9-.1s2.1 5.1 3.7 5.7l-3.3-5.8.4-.2 6.2 1.8c.4-.2.9.2 1.2.6zm-10.4 5.5c-.8.9-1.9 1.5-3.1 1.6-.6.1-1.2-.1-1.6-.5-.6-.9-1-1.8-1.2-2.8 0 0-1.4-3.4-3.7-3.1l.4-.5c.5-.6 1.1-1.1 1.8-1.4 1.9-.9 5.7-2.8 6.7-2.6l.4.8s-4.3 3.5-4.3 5.3l4.5-4.9.3.3.2 6.4c.1.4 0 1-.4 1.4z"/><path stroke="#565987" stroke-miterlimit="10" d="M1070.7 472.8S986 499.3 1005 612.7m16.2-130.4s11.7 7.9 8 19.7m33-12.7s-7.1-7.3-15.8-3.3m-17.7 39.8s-12.5-6.3-15.8 1.6M997.7 539s9.4-.7 9.6 3.8m39.2 16.7s-35.3 51.2-42.2 53.5m45.4-45.5h-8.3m-1.6 18.7l-12.9.5m5.1-15.4l1.4 6.7m-15.2 13.7l.2 6.1m-56.2-38.3s35.3 51.2 42.2 53.5m-45.5-45.5h8.3m1.6 18.7l12.9.5m-5-15.4l-1.4 6.7m15.1 13.7l-.3 6.1"/></svg>