<svg version="1.1" id="图层_1" xmlns="http://www.w3.org/2000/svg" x="0" y="0" viewBox="0 0 972.5 832.6" xml:space="preserve"><style>.st0,.st3{opacity:.1}.st5{fill:#a8a8a8}.st7{opacity:.1;fill:#fff}.st9{fill:#efb4b6}.st10{fill:#565388}.st11{fill:#7679b4}</style><ellipse class="st0" cx="506" cy="416.3" rx="466.5" ry="416.3"/><path d="M78.7 573.1s-21.2-72 4-124.9c10.7-22.1 13.9-47.2 9.2-71.3-2.3-11.4-5.7-22.6-10.1-33.5" fill="none" stroke="#535461" stroke-width="2" stroke-miterlimit="10"/><path class="st2" d="M97.4 310c0 8.8-16 34.4-16 34.4s-16-25.6-16-34.4c-.6-8.8 6.1-16.4 14.9-17 8.8-.6 16.4 6.1 17 14.9.1.7.1 1.4.1 2.1zm26.4 48.8C119 366.2 91.7 379 91.7 379s.5-30.1 5.3-37.5c4.3-7.7 14-10.5 21.8-6.2s10.5 14 6.2 21.8c-.4.5-.8 1.1-1.2 1.7zm-1.2 83.5c-7.9 4-37.9 1.2-37.9 1.2s15.7-25.8 23.5-29.7c7.6-4.5 17.4-2 21.9 5.7 4.5 7.6 2 17.4-5.7 21.9-.5.3-1.1.6-1.8.9zm-64.4-61.6c6.3 6.1 35.8 12.5 35.8 12.5s-7.2-29.3-13.5-35.4c-6.7-5.7-16.8-4.9-22.6 1.8-5.2 6.2-5.1 15.2.3 21.1zm-16.7 73.9c7.9 4 37.9 1.2 37.9 1.2S63.7 430 55.8 426.1c-8.1-3.4-17.5.4-21 8.5-3 7.4-.2 15.9 6.7 20zm-6.4 74c7.1 5.2 37.1 7.6 37.1 7.6s-11.1-28-18.2-33.3c-6.8-5.7-16.9-4.8-22.5 2-5.7 6.8-4.8 16.9 2 22.5.5.5 1 .8 1.6 1.2z"/><path class="st0" d="M781 295.3c-65.7 0-119 53.3-119 119s119 229 119 229 119-163.3 119-229c0-65.7-53.3-119-119-119zm0 180.3c-33.8 0-61.2-27.5-61.2-61.3s27.5-61.2 61.3-61.2 61.2 27.4 61.2 61.2c-.1 33.8-27.5 61.3-61.3 61.3 0-.1 0-.1 0 0zm-403.5-370h-6.3c2.4-.1 4.3-2.2 4.2-4.6-.1-2.3-1.9-4.1-4.2-4.2h-50.9c-2.4-.1-4.5 1.8-4.6 4.2-.1 2.4 1.8 4.5 4.2 4.6h6.7c-2.4 0-4.4 2-4.4 4.4s2 4.4 4.4 4.4h-8.8c-2.4-.1-4.5 1.8-4.6 4.2-.1 2.4 1.8 4.5 4.2 4.6h51.3c2.4.1 4.5-1.8 4.6-4.2.1-2.4-1.8-4.5-4.2-4.6h-.4 8.8c2.4 0 4.4-2 4.4-4.4s-2-4.4-4.4-4.4zM845 258.1h-6.3c2.4 0 4.4-2 4.4-4.4 0-2.4-2-4.4-4.4-4.4h-50.9c-2.4 0-4.4 2-4.4 4.4 0 2.4 2 4.4 4.4 4.4h6.3c-2.4-.1-4.5 1.8-4.6 4.2-.1 2.4 1.8 4.5 4.2 4.6h.4-8.8c-2.4-.1-4.5 1.8-4.6 4.2-.1 2.4 1.8 4.5 4.2 4.6h51.3c2.4.1 4.5-1.8 4.6-4.2.1-2.4-1.8-4.5-4.2-4.6h-.4 8.8c2.4-.1 4.3-2.2 4.2-4.6-.1-2.2-1.9-4.1-4.2-4.2zm-562.7-26.3H276c2.4 0 4.4-2 4.4-4.4 0-2.4-2-4.4-4.4-4.4h-50.9c-2.4 0-4.4 2-4.4 4.4 0 2.4 2 4.4 4.4 4.4h6.3c-2.4.1-4.3 2.2-4.2 4.6.1 2.3 1.9 4.1 4.2 4.2h-8.8c-2.4-.1-4.5 1.8-4.6 4.2-.1 2.4 1.8 4.5 4.2 4.6h51.3c2.4-.1 4.3-2.2 4.2-4.6-.1-2.3-1.9-4.1-4.2-4.2h8.8c2.4.1 4.5-1.8 4.6-4.2s-1.8-4.5-4.2-4.6h-.4zm233.4 383.1c156.8 0 284 20.5 284 45.8s-127.1 45.8-284 45.8-284-20.5-284-45.8 127.2-45.8 284-45.8z"/><path class="st2" d="M679.3 758.2s5.5 7.2-2.5 18-14.7 20-12 26.8c0 0 12.1-20.1 22-20.4s3.3-12.3-7.5-24.4zm-29 0s-5.5 7.2 2.5 18 14.7 20 12 26.8c0 0-12.1-20.1-22-20.4s-3.4-12.3 7.5-24.4z"/><path class="st3" d="M679.3 758.2c.5.7.9 1.5 1.1 2.3 9.6 11.3 14.7 21.8 5.5 22.1-8.6.3-19 15.7-21.4 19.5l.3.9s12.1-20.1 22-20.4 3.3-12.3-7.5-24.4zm-29 0c-.5.7-.9 1.4-1.1 2.3-9.6 11.3-14.8 21.8-5.5 22.1 8.6.3 19 15.7 21.4 19.5l-.3.9s-12.1-20.1-22-20.4-3.4-12.3 7.5-24.4z"/><path d="M689.5 767.3c0 2.5-.3 4.6-.6 4.6s-.6-2-.6-4.6.3-1.3.7-1.3.5-1.2.5 1.3zm3.5 3.1c-2.2 1.2-4.2 1.9-4.3 1.6s1.5-1.5 3.7-2.7 1.3-.3 1.5 0 1.3-.1-.9 1.1zm-53-3.1c0 2.5.3 4.6.6 4.6s.6-2 .6-4.6-.3-1.3-.7-1.3-.5-1.2-.5 1.3zm-3.5 3.1c2.2 1.2 4.2 1.9 4.3 1.6s-1.5-1.5-3.7-2.7-1.3-.3-1.5 0-1.3-.1.9 1.1z" fill="#ffd037"/><path class="st5" d="M244.3 750.8s28-5.6 35.5-13.1 41.1-20.5 44.8-11.2 50.4 41.1 18.7 46.7-74.7 7.5-84 3.7-15-26.1-15-26.1zM726 656s28-5.6 35.5-13.1 41.1-20.6 44.8-11.2 50.4 41.1 18.7 46.7-74.7 7.5-84 3.7-15-26.1-15-26.1zm-84.2 146.1s15.4-.5 20-3.8 23.6-7.2 24.8-2 23.1 26.3 5.7 26.4-40.3-2.7-44.9-5.5-5.6-15.1-5.6-15.1z"/><path d="M343.3 769.8c-31.7 5.6-74.7 7.5-84 3.7-7.1-2.8-12.1-16.5-14-22.9-.6.1-.9.2-.9.2s5.6 22.4 14.9 26.2c9.3 3.7 52.3 1.9 84-3.7 9.2-1.6 11.8-5.4 10.8-10.2-.8 3.1-4 5.5-10.8 6.7zm481.6-94.9c-31.7 5.6-74.7 7.5-84 3.7-7.1-2.8-12-16.5-14-22.9l-.9.3s5.6 22.4 14.9 26.1 52.3 1.9 84-3.7c9.2-1.6 11.8-5.4 10.8-10.2-.7 3.1-3.9 5.5-10.8 6.7zm-132.3 146c-17.3.1-40.3-2.7-44.9-5.5-3.5-2.1-4.9-9.8-5.4-13.4h-.5s1 12.4 5.6 15.2 27.6 5.7 44.9 5.5c5 0 6.7-1.8 6.6-4.5-.6 1.7-2.6 2.7-6.3 2.7z" opacity=".2"/><path class="st5" d="M16.7 577.5c-10.4 20.2-9.1 44.4 3.3 63.4 2 3 3.8 5.2 5.3 5.7 7 2.8 21.2 9.6 21.2 9.6l34-13.4s5.5-29.2 10.7-54.3c3.6-17.1 7-32.3 8.4-34.9 3.5-6.5 0-77.9 0-77.9s-34-2.3-43.3 23.9l-4.1 8-35.5 69.9z"/><path class="st7" d="M61.9 585.4c20.7 23.7 29.4 3.2 29.4 3.2 3.6-17.1 7-32.3 8.4-34.9 3.5-6.5 0-77.9 0-77.9s-34-2.3-43.3 23.9l-4.1 8c-2.7 21-5.3 60.7 9.6 77.7z"/><path class="st5" d="M66.4 651.5l120-13.9 21.4-140.9-16.2-36.6c-6.8-15.6-16.3-29.9-28-42.3-8.1-8.6-18-16.9-28.4-21-1.4-.6-2.9-1.1-4.3-1.5-3.4-1-7.1-.4-10 1.8-14.8 10.5-20.1 55.1-21.8 76.6-.7 8.8-1.9 17.6-3.6 26.3L66.4 651.5z"/><path class="st7" d="M146.3 495.2l-25 61.5c13.1-9.6 32.5-61.8 32.5-61.8l17.4 59.5-13.9-62.7c2-13.6 2.6-27.4 1.8-41.1-1.1-15.7-15.9-41-23.9-53.7-1.4-.6-2.9-1.1-4.3-1.5-3.4-1-7.1-.4-10 1.8 6.3 12.6 22 44.3 26.9 53.7 6.1 11.8-1.5 44.3-1.5 44.3z"/><path class="st5" d="M166.7 656.3h85.7s-2-84.2-14.6-130c-4.7-17-10.1-26-15.1-30.4-2.3-2.3-5.4-3.7-8.6-4-2.5-.2-4.9.4-7 1.7-12.1 11.6-26.2 72.6-26.2 72.6l-14.2 90.1z"/><path class="st7" d="M226.9 602.2c2.7 7.4 3.7 16 0 24.3l-14.5 7.2s-39-16.5-34.3-50.4c0 0 1.3-7 14.7-6.5 15.4.8 28.9 10.8 34.1 25.4zm-15.6-89.1c-.4-11.9 6-16 11.3-17.3-2.3-2.3-5.4-3.7-8.6-4-3.7 3.1-6.3 7.3-7.5 12L192.9 570s19.2-37 18.4-56.9z"/><path class="st5" d="M149.6 565.5l32.3 44.1 5.6 36.4-20.7 10.2-34.3 7.6-85.9-7.6 11.1-25.7L96 576.7l53.6-11.2z"/><path class="st7" d="M137.1 550.4s22 1.5 13.7 39.3-93.3 40.8-93.3 40.8 18.1-32.1 45.8-54.9c3.1-2.6 6.1-5.3 9-8.1 6.6-6.4 18.7-17.6 24.8-17.1z"/><path class="st3" d="M156.9 578.9s29.8 27.1 27 68.9M207 493.4S175.7 535 172.2 599M99.7 475.8s15.2 68.8-22.7 120.6"/><path class="st2" d="M227.6 655.5c-2.2-2-4.2-4.4-4.8-7.3s.6-6.4 3.4-7.4c3.1-1.2 6.4 1 8.9 3.1s5.4 4.7 8.7 4.2c-3.4-3.1-5-7.8-4.1-12.4.1-.9.5-1.8 1.1-2.5 1.7-1.8 4.9-1 6.9.4 6.6 4.6 8.4 13.5 8.4 21.5.7-2.9.1-5.9.1-8.9s.8-6.3 3.3-7.8c1.6-.8 3.3-1.3 5.1-1.2 3-.1 6.2.2 8.2 2.3 2.5 2.7 1.9 7.2-.3 10.1s-5.5 4.8-8.5 6.8c-2.4 1.5-4.5 3.4-6.1 5.8-.2.3-.3.7-.5 1h-18.5c-4-1.9-7.8-4.6-11.3-7.7zm-114.3 5.7c-2.2-2-4.2-4.4-4.8-7.3s.6-6.4 3.4-7.4c3.1-1.2 6.4 1 8.9 3.1s5.4 4.7 8.7 4.2c-3.4-3.1-5-7.8-4.1-12.4.1-.9.5-1.8 1.1-2.5 1.7-1.8 4.9-1.1 6.9.4 6.6 4.6 8.4 13.5 8.4 21.5.7-2.9.1-5.9.1-8.9s.8-6.3 3.3-7.8c1.6-.8 3.3-1.3 5.1-1.2 2.9-.1 6.2.2 8.2 2.3 2.5 2.7 1.9 7.2-.3 10.1s-5.5 4.8-8.5 6.8c-2.4 1.5-4.5 3.4-6.1 5.8-.2.3-.3.7-.4 1h-18.5c-4.2-1.9-8-4.6-11.4-7.7zM5 645.6c-2.2-2-4.2-4.4-4.8-7.3s.6-6.4 3.4-7.4c3.1-1.2 6.4 1 8.9 3.1s5.4 4.7 8.7 4.2c-3.4-3.1-5-7.8-4.1-12.4.2-.9.6-1.8 1.2-2.5 1.7-1.8 4.8-1 6.9.4 6.6 4.6 8.4 13.5 8.4 21.5.7-2.9.1-5.9.1-8.9s.8-6.3 3.3-7.8c1.6-.8 3.3-1.2 5.1-1.2 3-.1 6.2.2 8.3 2.3 2.5 2.7 1.9 7.2-.3 10.1s-5.5 4.8-8.5 6.8c-2.4 1.5-4.5 3.4-6.1 5.8-.2.3-.3.7-.5 1H16.4c-4.1-1.9-8-4.6-11.4-7.7z"/><linearGradient id="SVGID_1_" gradientUnits="userSpaceOnUse" x1="617.059" y1="134.115" x2="617.059" y2="663.177" gradientTransform="scale(.99997 -.99997) rotate(1.34 35077.13 -5005.067)"><stop offset="0" stop-color="gray" stop-opacity=".25"/><stop offset=".54" stop-color="gray" stop-opacity=".12"/><stop offset="1" stop-color="gray" stop-opacity=".1"/></linearGradient><path d="M648.1 652.8c-1.2-5.2-4.5-7-11.8-6.1-7.9 1-15.8 1.9-25.5-4.9-5.1-3.6-9.1-6.8-11.7-9l.4-.1s-19.6-24.5-18.3-38.6-9.1-50.5-9.1-50.5-.6-23.8-6-37.6c-1.5-3.6-2.6-7.4-3.3-11.2-3.3-17.4-13-63.4-28.7-83.8l-1-40.6v-1.6l.4.4c1.5-1.6 2.7-3.4 3.5-5.4 4.6 2.4 14.5 7.3 19.9 8.3 7.2 1.4 16 7.4 16 7.4s20.3 23.7 35.9 13.2-29.2-27.4-29.2-27.4-15.2-8.2-21.6-10.4c-4.5-1.5-13.9-7.7-19-11.1-.1-.6-.2-1.1-.3-1.7-3-15.2-7.3-21-5.5-30.4.5-2.4 1.2-4.8 2.2-7 6-14.2-19-33.9-19-33.9s-17-14.4-10.8-22.4c0 0 9.5-1 1.4-8.6-1.4-1.3-2.8-2.5-4.3-3.6.1-.2.1-.4.2-.6 1.7-5.2 4.3-10.1 7.8-14.3.5-.7 1.1-1.3 1.7-2 13.5-3.6 22.9-16 22.6-30-.2-7.4-3.1-14.5-8.2-19.9 1.9-1.7 2.9-4.3 2.6-6.8.8-9.9-19-19.9-27.3-18.4-4.7.8-9 3.4-13.7 4.2-4.9.9-10-.1-15 0-6.7.1-13.2 2-18.9 5.5-1.4.8-2.6 1.9-3.5 3.3-.7 1.6-1 3.4-1 5.1-1.4 18.2-14.6 33.4-28.6 45.3-1.9 1.4-3.5 3.2-4.8 5.1-1.4 2.7-1.4 5.9-1.4 8.9-.2 30.2-10.9 61.9-35.2 80.3.4.2.8.5 1.1.7l-1.1.9c7.9 5.1 19.8 2.6 25-5-1.9 8.3-5.3 16.3-10 23.5h1c-.3.5-.6 1.1-1 1.6 11-.3 19-9.7 25.4-18.3.1.8.1 1.7.1 2.5 0 9.3-2.5 18.5-7.4 26.4l1-.1c-.3.6-.6 1.1-1 1.6 1.6-.1 3.2-.3 4.8-.5-6.4 13-16.4 36.7-16.4 36.7l-3.8 9.3c-2 4.9-4.9 9.5-8.6 13.3-4 4.2-9.2 9.4-11.4 10.7-3.9 2.4-13.5 33.9 3.8 28.8 17.3-5.1 23.9-29.4 23.9-29.4.5-4 2.1-7.8 4.5-11 1.3-1.8 2.4-3.8 3.3-5.9 4.8-10.6 10.2-20.9 16.1-30.9 3.4-5.7 6.3-11.6 8.7-17.8 1.3-3.5 3-6.9 5.1-10 3.9-1.6 7.6-3.7 11-6.1 2.9-2 5.4-4.6 7.4-7.5 1.2 4.9 2.7 9.8 4.5 14.5 4.2 11.4 11.9 37.7.8 55.3-10.2 16.1-10.4 24-9.7 27.2 0 .2-.1.3-.1.5-1.9 7.2-1 14.9 2.6 21.4 1.9 3.7 3 7.8 3.1 11.9v1.2c.1 2.8-.3 5.5-1.1 8.1-2.2 7.4-6.7 23.6-8.2 35.3-2 15.7-15.1 30.8-15.1 30.8s-34.8 37.5-48 81.5c0 0-7.5 18.9-12.9 22.9 0 0-10.4 6.2-12.1 18 0 .3-.1.6-.1 1l-2.1 5.6s19.3 10.5 23.2 10.4l2.3-4.7 20.2 15.1 30.1-.7c.8-.5 1.6-1.2 2.2-2 1.4-1.9 2.3-4.8-2.3-7.9-2.3-1.5-5-2-7.7-1.6-3.9.6-11.3-.7-18.2-15.2l-3.8-7.1.5.2s-6.6-10.8 6.5-25.1 32-52.3 32-52.3 25.6-20.9 30.1-34.3c0 0 17.1-28.9 27-46 1.7 3.6 3 6.3 3 6.3s20.4 27.6 23.3 48.6 22.3 72.8 30.5 86.7 8.4 19.3 8.4 19.3-5.2 13.1-2 23.9c0 .1.1.2.1.3l.2 6.2 23 .3-.1-3.1 29.3.9s28.3-8.5 27.4-14.7c0-.4-.1-.9-.2-1.3z" fill="url(#SVGID_1_)"/><path class="st9" d="M520.1 219.8c-3.6 2.5-6.8 5.5-9.6 8.9-3.4 4.2-5.9 8.9-7.5 14-1.4 4.1-2.1 8.4-2 12.7l-14.8-12.6-19 4.3c4-3.8 7.4-8.1 10.2-12.8 2.5-4.2 4.5-8.8 6-13.5 1-3 1.7-6.2 2.1-9.3 0-.1 55-6 34.6 8.3z"/><path class="st10" d="M443.2 667.7c-.6.8-1.3 1.4-2.1 2l-29.1.7-19.5-14.9-2.2 4.7c-3.8.1-22.4-10.2-22.4-10.2l2.2-5.4c0-.3.1-.6.1-1 1.7-11.7 11.7-17.7 11.7-17.7l3.8-1.6 23.1 5.6 7.2 13.6c6.7 14.2 13.9 15.5 17.6 14.9 2.6-.4 5.2.1 7.4 1.6 4.4 2.9 3.6 5.8 2.2 7.7zm200.4-14.3c.9 6.1-26.5 14.4-26.5 14.4l-28.4-.9.1 3.1-22.2-.2-.1-6.1c0-.1-.1-.2-.1-.3-3.1-10.6 1.8-23.5 1.8-23.5l2.2-3.9 22.1-6.7c4.7 4.3 9.6 8.3 14.8 11.9 9.3 6.7 17 5.7 24.6 4.8 7-.9 10.2 1 11.4 6 .2.5.3.9.3 1.4z"/><path class="st11" d="M511.5 470.4c-.7 1.6-3.1 5.9-6.3 11.5-9.5 16.8-26 45.2-26 45.2-4.3 13.1-29.1 33.6-29.1 33.6s-18.3 37.2-31 51.3-6.3 24.7-6.3 24.7l-30.9-10.8c5.3-4 12.5-22.5 12.5-22.5 12.8-43.2 46.4-80 46.4-80s12.7-14.9 14.6-30.2c1.5-11.5 5.8-27.4 7.9-34.7.7-2.6 1.1-5.3 1-8v-1.2c-.1-4.1-1.1-8.1-3-11.7-3.4-6.4-4.3-13.9-2.5-21 .6-2.5 1.6-4.9 3-7.1l7.5-2.2 26.7-7.8s1.6 5.8 3.9 14.1c5.2 19.5 13.6 52.5 11.6 56.8z"/><path class="st3" d="M510.9 469.5c-.7 1.6-3.1 5.9-6.3 11.5-9.5 16.8-26 45.2-26 45.2-4.3 13.1-29.1 33.6-29.1 33.6s-18.3 37.2-31 51.3-6.2 24.7-6.2 24.7L381.4 625c5.3-4 12.5-22.5 12.5-22.5 12.8-43.2 46.4-80 46.4-80s12.6-14.8 14.6-30.1c1.5-11.5 5.8-27.4 7.9-34.7.7-2.6 1.1-5.3 1-8v-1.2c-.1-4.1-1.1-8.1-3-11.7-3.4-6.4-4.3-13.9-2.5-21 .6-2.5 1.6-4.9 3-7.1l7.5-2.2 26.7-7.8s1.7 5.8 3.9 14.1c5.2 19.4 13.6 52.4 11.5 56.7z"/><path class="st11" d="M596.4 632.3l-28.2 7.5s-.1-5.3-8.1-19-26.8-64.5-29.6-85.1-22.5-47.6-22.5-47.6-1.3-2.7-2.9-6.2c-1.5-3.3-3.2-7.2-4.4-10.5-2.5-6.8-13.4-16.5-13.4-16.5-20-11.1-24-24.4-24.2-32.8-.1-2.7.2-5.5 1.1-8.1l5.1-6.7 9.7-12.8 32.9-35.2 20 4.1 1.2 51.3c15.2 19.9 24.6 65.1 27.7 82.2.7 3.8 1.8 7.4 3.2 11 5.3 13.5 5.8 36.9 5.8 36.9s10 35.8 8.8 49.6 17.8 37.9 17.8 37.9z"/><path class="st9" d="M534.6 346.6s15.6 11.1 21.8 13.3 20.9 10.2 20.9 10.2 43.3 16.6 28.2 26.9-34.8-13-34.8-13-8.6-5.9-15.5-7.3-21.7-9.4-21.7-9.4l1.1-20.7z"/><path class="st3" d="M520.1 219.8c-3.6 2.5-6.8 5.5-9.6 8.9-1.8.4-3.7.6-5.5.6-8.4.2-12.8-9-18.3-14.5 1.8-5.6-1.2-3.4-1.2-3.4s55-5.9 34.6 8.4z"/><circle class="st9" cx="504.3" cy="197.9" r="29.9"/><path class="st3" d="M501.1 255.5l-14.8-12.7-19 4.3c4-3.8 7.4-8.1 10.2-12.8h.1c6.4-1.2 13 .1 18.5 3.5 2.4 1.5 4.8 3.2 7.1 5-1.5 4.1-2.2 8.4-2.1 12.7zm30.8 108l.3 11.5c-2.3-2.3-13.8-13.2-10.7 2.6 3.5 17.5-16.9 30.3-16.9 30.3-1.6 2.2-3.2 4.1-4.7 5.9-16.2 17.9-30.5 12.5-36.8 8.5-1.2-.8-2.4-1.6-3.4-2.6-.6-.8-1-1.9-1-2.9.6-2.5 1.6-4.9 3-7.1l7.5-2.2 9.7-12.8 32.9-35.2 20.1 4z"/><path class="st10" d="M532.5 373.8s-14.5-15.4-11 2.2-16.9 30.3-16.9 30.3C480.9 439 459.7 418 459.7 418s-5.5-6 8.5-28.5c10.7-17.3 3.3-43.1-.8-54.2-1.7-4.8-3.2-9.7-4.5-14.7l-1-4-2.3-9.4c-2.7-10.9-3.5-22.2-2.5-33.4.7-7.5 2.2-14.9 4.7-22 1.5-4.6 3.3-8.5 5.1-10.8 2.7-3.2 6.4-5.3 10.5-6 6.4-1.2 13 0 18.5 3.5 3.9 2.4 7.6 5.2 11 8.4 7.8 7.5-1.3 8.4-1.3 8.4-5.9 7.8 10.5 22 10.5 22s24.2 19.3 18.4 33.3-.3 18.4 3.2 36.7-5.2 26.5-5.2 26.5z"/><path class="st3" d="M502.3 154.4c-4.6.8-8.7 3.3-13.3 4.2-4.8.9-9.6-.1-14.5 0-6.5.1-12.8 1.9-18.3 5.4-1.4.8-2.6 1.9-3.4 3.2-.7 1.6-1 3.3-1 5-1.4 17.9-14.1 32.7-27.6 44.5-1.8 1.4-3.4 3.1-4.6 5-1.4 2.6-1.3 5.7-1.4 8.7-.2 29.6-10.5 60.7-34 78.8 7.9 5.2 20 2.4 24.8-5.8-1.7 9-5.2 17.7-10.1 25.5 10.5-.2 18.2-9.5 24.4-17.9.9 10.5-1.6 20.9-7 29.9 14-1.2 28.3-4.2 39.6-12.5 5.2-3.8 9.9-9.3 9.8-15.7-.1-3.7-1.7-7.1-2.9-10.6-3-9.1-2.3-20.5 5.2-26.4 1.4-.9 2.8-2 4-3.1 1.7-1.9 2.3-4.6 2.7-7.2.9-6.3.5-12.7-.9-18.8-.4-1.3-.6-2.6-.6-4 .2-2.8 2.3-5.2 4.7-6.7s5.2-2.3 7.8-3.5c9-4.4 14.7-13.5 14.9-23.5 0-2.9-.4-6.1 1.4-8.3 2.7-3.3 8.3-2.2 11.5-4.9 3-2.6 2.7-7.5 4.8-10.9 1.8-2.8 5-4.3 7.4-6.5 11.9-11.2-13.8-25.6-23.4-23.9z"/><path class="st3" d="M499.8 267.6v.2L481 293.3 469.4 309s-3.1 3-7.4 7.5l-2.3-9.4c-2.7-10.9-3.5-22.2-2.5-33.4 4.4-8.7 9.1-14.6 13.5-18.5 7.2-6.4 18.3-5.8 24.7 1.5 2.7 3 4.2 6.9 4.4 10.9z"/><path d="M502.3 152.9c-4.6.8-8.7 3.3-13.3 4.2-4.8.9-9.6-.1-14.5 0-6.5.1-12.8 1.9-18.2 5.4-1.4.8-2.6 1.9-3.4 3.2-.7 1.6-1 3.3-1 5-1.3 17.9-14.1 32.7-27.6 44.5-1.8 1.4-3.4 3.1-4.6 5-1.4 2.6-1.3 5.7-1.4 8.7-.2 29.6-10.5 60.7-34 78.8 7.9 5.2 20 2.4 24.8-5.8-1.7 9.1-5.2 17.7-10.1 25.5 10.5-.2 18.2-9.5 24.4-17.9.9 10.5-1.6 20.9-7 29.9 14-1.2 28.3-4.2 39.6-12.5 5.2-3.8 9.9-9.3 9.8-15.7-.1-3.7-1.7-7.1-2.9-10.6-3.1-9.1-2.3-20.5 5.2-26.4 1.4-.9 2.8-2 4-3.2 1.7-1.9 2.3-4.6 2.7-7.2.8-6.3.5-12.7-.9-18.8-.4-1.3-.6-2.6-.6-4 .2-2.8 2.3-5.2 4.7-6.7s5.2-2.3 7.8-3.5c9-4.4 14.7-13.4 14.9-23.4 0-2.9-.4-6.1 1.4-8.3 2.7-3.3 8.3-2.1 11.5-4.9 3.1-2.6 2.7-7.5 4.8-10.9 1.8-2.8 5-4.3 7.4-6.5 11.8-11.2-13.9-25.6-23.5-23.9z" fill="#a66477"/><path class="st9" d="M498.3 266.1v.2l-18.9 25.6-11.6 15.7s-21.7 20.4-27.5 36.6c-2.2 6.1-5 11.9-8.3 17.4-5.7 9.8-10.9 19.9-15.6 30.3-.8 2-1.9 4-3.2 5.8-2.3 3.2-3.8 6.9-4.3 10.8 0 0-6.3 23.9-23.1 28.9s-7.5-25.9-3.7-28.3c2.1-1.3 7-6.4 11-10.5 3.6-3.8 6.4-8.2 8.4-13.1l3.6-9.1s17.4-41.8 20.4-44.1c.9-.8 1.6-1.7 2.2-2.7 2.4-3.9 4.9-7.8 7.4-11.7 3.3-5.1 8.5-15.1 16.1-35.3.5-1.4 1.1-2.8 1.6-4.1 5.1-12.3 11-20 16.4-24.8 7.2-6.4 18.3-5.7 24.7 1.5 2.6 3.1 4.2 6.9 4.4 10.9z"/><path class="st10" d="M498.7 266v.2l-19.2 26.1-27.1-13.5c5.2-12.5 11.2-20.4 16.7-25.3 7.4-6.5 18.6-5.9 25.2 1.5 2.6 3 4.2 6.9 4.4 11z"/><path class="st3" d="M474.9 245.7s20.4 8.7 30.4 9.3m138.3 398.4c.9 6.1-26.5 14.4-26.5 14.4l-28.4-.9.1 3.1-22.2-.2-.1-6.1c0-.1-.1-.2-.1-.3l51 1.1 25.9-12.3c.2.3.3.7.3 1.2zm-200.4 14.3c-.6.8-1.3 1.4-2.1 2l-29.1.7-19.5-14.9-2.2 4.7c-3.8.1-22.4-10.2-22.4-10.2l2.2-5.4c0-.3.1-.6.1-1l22.7 10 19.5 14.1h30.8zm19.8-254s10.9-23.2 22.2-30.4m21.3-73.2s6.4 11.9 25.8 7.4"/></svg>