<?xml version="1.0" encoding="utf-8"?>
<!-- Generator: Adobe Illustrator 22.1.0, SVG Export Plug-In . SVG Version: 6.00 Build 0)  -->
<svg version="1.1" id="图层_1" xmlns="http://www.w3.org/2000/svg" xmlns:xlink="http://www.w3.org/1999/xlink" x="0px" y="0px"
	 viewBox="0 0 1110.7 771.7" style="enable-background:new 0 0 1110.7 771.7;" xml:space="preserve">
<style type="text/css">
	.st0{opacity:0.1;}
	.st2{fill:#444053;}
	.st3{fill:#F8BDA5;}
	.st4{fill:#FFCCB2;}
	.st5{opacity:0.1;fill:none;stroke:#000000;stroke-miterlimit:10;}
	.st6{opacity:0.1;}
	.st7{fill:#FFD037;}
	.st8{fill:#A8A8A8;}
	.st9{opacity:0.2;}
	.st10{fill:url(#SVGID_1_);}
	.st11{fill:#434175;}
	.st12{fill:#565387;}
	.st13{fill:#CD939C;}
	.st14{opacity:5.000000e-02;}
	.st15{opacity:0.1;}
	.st16{fill:url(#SVGID_2_);}
	.st17{fill:#EE8E9E;}
	.st18{fill:#DFE5EE;}
	.st19{fill:#603556;}
	.st20{fill:#464A5F;}
	.st21{fill:#9C9CA1;}
	.st22{fill:#939498;}
	.st23{fill:#FFFFFF;}
	.st24{fill:#E5EDF6;}
	.st25{fill:url(#SVGID_3_);}
	.st26{fill:#535184;}
	.st27{fill:#FFB9B9;}
	.st28{fill:#787C9C;}
	.st29{fill:#4C4C78;}
	.st30{opacity:0.15;}
	.st31{fill:#504F60;}
	.st32{fill:#FFEDBA;}
	.st33{fill:#FF849D;}
</style>
<path id="背景" class="st0" d="M12,428.4C29.6,500.6,66.8,563,125.6,593.3c122.2,62.9,397.8,30.5,603.4-6.8
	c106.3-19.3,199.9-72.3,267.8-147.2L12,428.4z M1090.5,88.5H977.7c-5.2,0.2-9.5-3.9-9.7-9.1c-0.2-5.2,3.9-9.5,9.1-9.7
	c0.2,0,0.4,0,0.6,0h19.5c-5.2,0.2-9.5-3.9-9.7-9.1s3.9-9.5,9.1-9.7c0.2,0,0.4,0,0.6,0h-13.9c-5.2,0.2-9.5-3.9-9.7-9.1
	s3.9-9.5,9.1-9.7c0.2,0,0.4,0,0.6,0h58.9c-13.1-5.8-28.3-10-46-12.2C835.6,0.3,778.3,13.4,758,26.8c-25,16.6-52.8,28.9-82.5,34.8
	c-99.1,19.7-284.4,43.3-452.4-7.6C139.6,28.8,77.6,71.5,40.4,142.9h1069.7c-1.4-20.8-5.6-39.9-13.3-56.7
	C1095.1,87.7,1092.8,88.5,1090.5,88.5z M688.3,316.3l-1.5-0.1l-15.3-0.9l-147.2-8.3l-15.9-0.9L274.1,293l-65.7-3.7l-10.4-0.6
	l-9.2-0.5L2.4,277.7c-4.3,42-2.9,84.4,4.4,126l156.8,5.5l12.4,0.5l2.2,0.1l74.4,2.6l4,0.1l8.6,0.3l75,2.6l10.3,0.4l35.9,1.2h0.7
	l5.3,0.2l18,0.6l15.8,0.5l30,1h0.6l2.7,0.1l2.8,0.1h0.6l47.8,1.7l13.4,0.5h0.6l6.5,0.2h1.7l5.7,0.2l17.3,0.6l6.5,0.2l8.3,0.3h0.3
	l11.5,0.4l33.1,1.2l9.1,0.3h1l44.2,1.5l25.7,0.9l32,1.3l5.1,0.2l8.3,0.3l30.1,1.1l226.8,8c27.5-30.3,50.6-64.3,68.8-100.9
	L688.3,316.3z M262,386.3c-2.4,0-4.7-0.8-6.5-2.4c-0.8-0.7-1.5-1.5-2.1-2.5c-1.7-3-1.6-6.7,0.4-9.6c0.3-0.5,0.7-0.9,1.1-1.3
	c1.9-1.9,4.4-2.9,7.1-2.9h19.5c-5.2,0.2-9.6-3.8-9.8-8.9c-0.2-5.2,3.8-9.6,8.9-9.8c0.3,0,0.6,0,0.9,0h-14c-0.3,0-0.6,0-0.9,0
	c-5.2-0.3-9.1-4.6-8.9-9.8c0.3-5.2,4.6-9.1,9.8-8.9h112.8c5.2-0.4,9.7,3.4,10.1,8.6c0.4,5.2-3.4,9.7-8.6,10.1c-0.5,0-1,0-1.5,0h14
	c5.2-0.2,9.6,3.8,9.8,8.9c0.2,5.2-3.8,9.6-8.9,9.8c-0.3,0-0.6,0-0.9,0h-19.5c5.2-0.2,9.6,3.8,9.8,8.9c0.2,5.2-3.8,9.6-8.9,9.8
	c-0.3,0-0.6,0-0.9,0L262,386.3z M1110.1,143.6l-778.4,18.2l-85.6,2l-217.8,5.1C15.3,201.4,6.6,238.1,2.6,276.2h1088.6
	c7.1-22.3,12.3-45.2,15.7-68.4C1110.1,185.4,1111.5,163.7,1110.1,143.6z M222.1,226.4h-19.5c5.3-0.1,9.6,4.1,9.8,9.4v0.6
	c-0.2,3-1.8,5.6-4.3,7.2c-1.6,1-3.5,1.6-5.4,1.6H89.8c-5.2,0.2-9.5-3.9-9.7-9.1c-0.2-5.2,3.9-9.5,9.1-9.7c0.2,0,0.4,0,0.6,0h19.5
	c-5.2,0.2-9.5-3.9-9.7-9.1c-0.2-5.2,3.9-9.5,9.1-9.7c0.2,0,0.4,0,0.6,0H95.4c-5.2,0.2-9.5-3.9-9.7-9.1c-0.2-5.2,3.9-9.5,9.1-9.7
	c0.2,0,0.4,0,0.6,0h112.8c5.2-0.2,9.5,3.9,9.7,9.1c0.2,5.2-3.9,9.5-9.1,9.7c-0.2,0-0.4,0-0.6,0h13.9c1.6,0,3.2,0.4,4.6,1.1
	c3.1,1.6,5.1,4.7,5.1,8.2C231.8,222.3,227.4,226.5,222.1,226.4L222.1,226.4z M119.2,761.5c18.6,0,33.6,2.1,33.6,4.6
	s-15,4.6-33.6,4.6s-33.6-2.1-33.6-4.6S100.6,761.5,119.2,761.5z M387.1,662.8c21,0,38,2.6,38,5.8s-17,5.8-38,5.8s-38-2.6-38-5.8
	S366.1,662.8,387.1,662.8z M934.4,670.8c21,0,38,2.6,38,5.8s-17,5.8-38,5.8s-38-2.6-38-5.8S913.5,670.8,934.4,670.8z M841,724.7
	c21,0,38,2.6,38,5.8s-17,5.8-38,5.8s-38-2.6-38-5.8S820,724.7,841,724.7z M268.5,702.4c27.2,0,49.2,4.8,49.2,10.6
	s-22,10.6-49.2,10.6s-49.2-4.8-49.2-10.6S241.3,702.4,268.5,702.4z M991.3,713.5c16.2,0,29.3,2.2,29.3,5s-13.1,5-29.3,5
	s-29.3-2.2-29.3-5S975.2,713.5,991.3,713.5z M585.9,735.7c16.2,0,29.3,2.2,29.3,5s-13.1,5-29.3,5s-29.3-2.2-29.3-5
	S569.8,735.7,585.9,735.7z"/>
<path class="st1" d="M163,584.1c0,0,19.3-3.1,30.8,10.5c0,0-8.5,6.7-26.7-2.6L163,584.1z M160.9,583.8c0,0-12.3,15.2-6.3,32
	c0,0,10-4,11.1-24.4L160.9,583.8z M149.9,559c0,0,7.7-14.1,38.5,5.6c0,0-4.1,9.5-17.7,8.7S153.5,566.4,149.9,559z M147.9,558
	c0,0-16-1.8-17.5,34.7c0,0,10.1,2.1,17.3-9.5S151.9,565.2,147.9,558L147.9,558z M138.6,528.8c0,0,9-24.9,41.6-7.2
	c0,0-7.4,22.8-38.3,15.7L138.6,528.8z M128.6,491.6c0,0,16.9-25.1,47-1.8c0,0-10.5,23.6-44.4,10.8L128.6,491.6z M125,456.1
	c0,0,19.8-23.1,49.5,0c0,0-18.7,20.3-49.5,5.9L125,456.1z M121.9,421.8c0,0,20-24.1,48.5-1.3c0,0-22.6,21.3-48.5,6.9V421.8z
	 M123.7,391.2c0,0,21-31.1,47.7-10c0,0-22.6,26.7-47.7,15.9V391.2z M128.6,355.5c0,0,22.3-30.8,48.3-7.2c0,0-26.4,26.7-48.3,12.8
	V355.5z M136,323.6c0,0,26.4-28.9,49.5-17.4c0,0-27.6,30.7-50.6,25.1L136,323.6z M145.3,293.4c0,0,30.5-35.4,48.2-23.6
	c0,0-22.5,27.5-50.4,30.3L145.3,293.4z M158.6,258.4c0,0,26.7-28.9,46.2-21.8c0,0-22.9,30-49.8,30.8L158.6,258.4z M170.7,225.6
	c0,0,29.5-27.7,42.4-22.8c0,0-21.3,30.8-43.6,29L170.7,225.6z M182.5,195.3c0,0,25.4-33.1,39.3-30.6c0,0-15.4,29.5-39.3,33.9V195.3z
	 M195.3,154.4c0,0,22.5-25.4,34.6-25.3c0,0-17.7,33.9-35.5,33.6L195.3,154.4z M202.9,127.3l21.7-52.9c0,0,1.1,47.8-24.4,62.7
	L202.9,127.3z M211.7,68.9c0,0,3.6-44.1,1.3-47.8c0,0,15.5,36.7-1.4,67.3L211.7,68.9z M137.8,528.2c0,0-22.5-13.9-37.1,20.2
	c0,0,20,13.3,39.7-11.5L137.8,528.2z M127.9,490.1c0,0-27.6-12.6-41,23c0,0,21.3,14.6,43.5-14L127.9,490.1z M123.7,458.3
	c0,0-19.8-23.1-49.5,0c0,0,18.7,20.3,49.5,5.9V458.3z M121.3,421.8c0,0-20-24.1-48.5-1.3c0,0,22.6,21.3,48.5,6.9V421.8z
	 M123.7,392.1c0,0-14.1-34.8-44.6-19.8c0,0,16.5,30.9,43.3,25.6L123.7,392.1z M130.3,355.4c0,0-13.9-35.4-44.9-19
	c0,0,19,32.4,43.5,24.5L130.3,355.4z M139,323.8c0,0-5.5-38.8-31.1-42.3c0,0,5.4,40.9,27.7,49.3L139,323.8z M145.9,293.5
	c0,0-2.1-46.7-23.4-48.4c0,0,0.7,35.5,21,55L145.9,293.5z M160.8,257c0,0-6.3-38.9-26.6-43.6c0,0,2.5,37.6,24.6,53.1L160.8,257z
	 M173.1,225.8c0,0-0.2-40.5-12.6-46.4c0,0-7.7,36.7,9,51.6L173.1,225.8z M183.4,194.8c0,0-1.7-41.7-14.6-47.6c0,0-4.4,33,12.6,50.3
	L183.4,194.8z M197.1,157.8c0,0-0.1-33.9-9.2-41.9c0,0-9.1,37.2,4.4,48.7L197.1,157.8z M201.8,125.6l-8.9-56.5
	c0,0-12.1,46.3,9.3,66.6L201.8,125.6z M203.6,69.5c0,0-22.8-37.9-22.4-42.2c0,0,2.4,39.8,31.2,59.6L203.6,69.5z M206.2,58.3
	c0,0-21.6-53.9-31.3-58.3c0,0,30.8,15.7,33.1,56.7L206.2,58.3z M199.1,479.8c0,0,9.3-10.9,23.4,0c0,0-8.8,9.6-23.4,2.8V479.8z
	 M197.7,463.6c0,0,9.4-11.4,22.9-0.6c0,0-10.7,10.1-22.9,3.3V463.6z M198.5,449.2c0,0,9.9-14.7,22.5-4.7c0,0-10.6,12.6-22.5,7.5
	V449.2z M200.8,432.4c0,0,10.5-14.5,22.8-3.4c0,0-12.5,12.6-22.8,6V432.4z M204.3,417.3c0,0,12.5-13.7,23.4-8.2
	c0,0-13,14.5-23.9,11.8L204.3,417.3z M208.7,403.1c0,0,14.4-16.7,22.8-11.1c0,0-10.6,13-23.8,14.3L208.7,403.1z M215,386.5
	c0,0,12.6-13.7,21.8-10.3c0,0-10.8,14.2-23.5,14.5L215,386.5z M220.7,371c0,0,13.9-13.1,20-10.8c0,0-10.1,14.5-20.6,13.7L220.7,371z
	 M226.3,356.8c0,0,12-15.6,18.5-14.4c0,0-7.3,13.9-18.5,16V356.8z M232.3,337.5c0,0,10.6-12,16.3-12c0,0-8.4,16-16.8,15.9
	L232.3,337.5z M235.9,324.6l10.2-25c0,0,0.5,22.6-11.5,29.6L235.9,324.6z M240.1,297.1c0,0,1.7-20.8,0.6-22.5c0,0,7.3,17.3-0.7,31.7
	L240.1,297.1z M198.5,480.8c0,0-9.3-10.9-23.4,0c0,0,8.8,9.6,23.4,2.8V480.8z M197.4,463.6c0,0-9.4-11.4-22.9-0.6
	c0,0,10.7,10.1,22.9,3.3V463.6z M198.5,449.6c0,0-6.6-16.4-21-9.4c0,0,7.8,14.6,20.4,12.1L198.5,449.6z M201.7,432.3
	c0,0-6.6-16.7-21.2-9c0,0,9,15.3,20.6,11.5L201.7,432.3z M205.8,417.4c0,0-2.6-18.3-14.7-20c0,0,2.6,19.3,13.1,23.3L205.8,417.4z
	 M209,403.1c0,0-1-22-11-22.8c0,0,0.3,16.8,9.9,26L209,403.1z M216,385.9c0,0-3-18.3-12.5-20.6c0,0,1.2,17.8,11.6,25.1L216,385.9z
	 M221.8,371.2c0,0-0.1-19.1-5.9-21.9c0,0-3.6,17.3,4.3,24.4L221.8,371.2z M226.7,356.5c0,0-0.8-19.7-6.9-22.5c0,0-2.1,15.6,6,23.7
	L226.7,356.5z M233.2,339c0,0,0-16-4.4-19.8c0,0-4.3,17.5,2.1,23L233.2,339z M235.4,323.8l-4.2-26.6c0,0-5.7,21.8,4.4,31.4
	L235.4,323.8z M236.2,297.4c0,0-10.8-17.9-10.6-19.9c0,0,1.1,18.8,14.7,28.1L236.2,297.4z M237.5,292.1c0,0-10.2-25.4-14.8-27.5
	c0,0,14.5,7.4,15.6,26.8L237.5,292.1z M414.1,151.2c0,0,20.2,28.5,36.7,10c0,0,3.9-2.1,3-6.4c0,0-1.5,1.1-3.2-2
	c-0.6-1.1-1.4-2.1-2.2-3.1c-1.2-1.3-2.7-2.1-4.4-2.4c0,0-9.3-5.1-24.2,1.9c0,0-4.5,0-5.1,0.6l5.6,3c0,0,2.1-4.2,5.8-5.2
	c0,0-5.8,4.9-5,5.7c0.2,0.1,3.1,1.5,3.1,1.5s3.6-7.3,9.4-8.6c0,0-7.7,4.9-8.3,9.2l4.5,1.7c0,0,3.4-7.9,10-9.7c0,0-7.9,5.4-9,10
	l4.6,1.1c0,0,3.5-7.7,9-9.1c0,0-8.5,7.2-7.9,9.3c0,0,4.3,0.8,5.5,0.4c0,0,2.6-5.4,5.9-6c0,0-5.2,5.4-4.7,6.1c0,0,5.9-0.5,8.7-2.4
	c-2.5,1.8-5.5,2.9-8.6,3.3c1.5,1.3,3.3,2,5.2,2.3c0,0-3,1.8-6.6-2.2c0,0-4.6,0.2-5.2-0.2c0,0,3,4.4,6.1,6c0,0-4.3-0.1-7.3-6.3
	l-4.7-1c0,0,3.6,6,6.3,7.7c0,0-4.4-0.8-7.4-8l-4.4-1.6c0,0,2.7,5.4,5.3,7.9c0,0-3.9-1.6-6.5-8.4l-2.9-1.4c0,0,2,3.9,2.8,5
	s0.5,1.4,0.5,1.4c-2.1-1.9-3.6-4.3-4.4-6.9C419.9,154.3,414.3,150.8,414.1,151.2L414.1,151.2z M382.3,180.4c0,0-33.9-8.6-34.5,16.1
	c0,0-1.6,4.1,1.9,6.8c0,0,0.4-1.8,3.7-0.5c1.2,0.4,2.4,0.7,3.7,0.9c1.7,0.2,3.4-0.1,4.9-1c0,0,10.4-2.1,17.1-17.1
	c0,0,3.4-2.9,3.5-3.8l-6.3,1.4c0,0,1.2,4.6-1,7.7c0,0,1.2-7.5,0.1-7.6c-0.2,0-3.3,0.9-3.3,0.9s2,7.9-1.6,12.7c0,0,2.7-8.8,0.4-12.4
	l-4.5,1.6c0,0,2.5,8.3-1.3,13.9c0,0,2.5-9.3,0.4-13.4l-4.3,2.1c0,0,2.3,8.1-0.9,12.8c0,0,1.8-11,0-12.2c0,0-3.8,2.2-4.5,3.3
	c0,0,1.5,5.9-0.6,8.4c0,0,0.4-7.5-0.4-7.6c0,0-4.1,4.2-5.1,7.4c0.7-3,2.3-5.8,4.4-8.1c-1.9,0-3.8,0.5-5.4,1.6c0,0,1.1-3.3,6.4-2.6
	c0,0,3.4-3.1,4.1-3.2c0,0-5.1-1.4-8.5-0.6c0,0,3.4-2.7,9.6,0l4.2-2.3c0,0-6.6-2.2-9.7-1.8c0,0,3.9-2.2,10.9,1.3l4.4-1.6
	c0,0-5.6-2.4-9.1-2.6c0,0,4-1.3,10.4,2.2l3.1-0.7c0,0-4.1-1.6-5.3-2s-1.2-0.7-1.2-0.7c2.8,0.1,5.5,0.9,7.8,2.4
	C375.9,181.9,382.3,180.8,382.3,180.4L382.3,180.4z M305.7,65.5c0,0-16.2,30.9,7.8,37.2c0,0,3.6,2.5,7-0.3c0,0-1.6-0.8,0.4-3.8
	c0.7-1.1,1.3-2.2,1.7-3.4c0.6-1.6,0.6-3.4,0.1-5c0,0,0.3-10.6-12.7-20.7c0,0-2-4-2.9-4.3l-0.1,6.4c0,0,4.7-0.1,7.3,2.8
	c0,0-7-3-7.3-1.8c-0.1,0.2,0.1,3.4,0.1,3.4s8.2-0.1,12,4.5c0,0-7.9-4.6-12-3.3l0.5,4.8c0,0,8.6-0.6,13.2,4.5c0,0-8.4-4.6-13-3.5
	l1.1,4.6c0,0,8.4-0.4,12.2,3.9c0,0-10.3-4.3-11.9-2.8c0,0,1.3,4.2,2.2,5.1c0,0,6-0.1,8,2.5c0,0-7.2-2.1-7.5-1.4c0,0,3.1,5,6.1,6.7
	c-2.8-1.4-5.1-3.5-6.8-6.2c-0.4,1.9-0.3,3.8,0.3,5.6c0,0-3-1.9-1.1-6.9c0,0-2.3-4-2.2-4.7c0,0-2.6,4.6-2.6,8.1c0,0-1.8-3.9,2.2-9.3
	l-1.2-4.6c0,0-3.7,5.9-4,9.1c0,0-1.3-4.3,3.8-10.3l-0.5-4.7c0,0-3.6,4.9-4.6,8.3c0,0-0.3-4.2,4.5-9.6v-3.2c0,0-2.6,3.6-3.2,4.7
	s-1,1-1,1c0.7-2.7,2.1-5.1,4.2-7.1C305.6,72.1,306.1,65.5,305.7,65.5z M1019.8,682c0,0-41.4-2.5-36.5,26.5c0,0-1,5.1,3.7,7.5
	c0,0,0.1-2.2,4.2-1.4c1.5,0.3,3,0.3,4.5,0.2c2-0.1,4-0.9,5.5-2.3c0,0,11.6-4.8,16.2-23.8c0,0,3.3-4.1,3.2-5.2l-7,3
	c0,0,2.4,5,0.5,9.2c0,0-0.2-9-1.6-8.8c-0.3,0-3.6,1.7-3.6,1.7s4.1,8.8,1,15.2c0,0,1.2-10.8-2.3-14.5l-4.9,2.9c0,0,4.8,9.1,1.5,16.5
	c0,0,0.8-11.3-2.6-15.8l-4.5,3.5c0,0,4.5,8.9,1.8,15.1c0,0-0.4-13.2-2.7-14.2c0,0-3.9,3.4-4.5,4.8c0,0,3.1,6.5,1.2,9.9
	c0,0-1.2-8.8-2.1-8.8c0,0-3.9,5.8-4.3,9.8c0,0,0.2-5.9,3.3-10.4c-2.3,0.4-4.3,1.5-6,3.1c0,0,0.6-4.1,6.9-4.5c0,0,3.2-4.4,4.1-4.7
	c0,0-6.3-0.5-10.1,1.2c0,0,3.3-3.9,11.2-2.1l4.4-3.6c0,0-8.3-1.1-11.8,0.1c0,0,4-3.4,12.9-0.9l4.8-2.9c0,0-7-1.5-11.2-1
	c0,0,4.4-2.4,12.6,0.2l3.4-1.5c0,0-5.2-1-6.7-1.2s-1.6-0.6-1.6-0.6c3.3-0.5,6.6-0.2,9.7,1.1C1012.6,685.2,1019.9,682.5,1019.8,682
	L1019.8,682z M614.4,704.2c0,0-41.4-2.5-36.5,26.5c0,0-1,5.1,3.7,7.5c0,0,0.1-2.2,4.2-1.4c1.5,0.2,3,0.3,4.5,0.2
	c2-0.1,4-0.9,5.5-2.3c0,0,11.6-4.8,16.2-23.8c0,0,3.3-4.2,3.2-5.2l-7,3c0,0,2.4,5,0.5,9.2c0,0-0.2-9-1.6-8.8c-0.3,0-3.6,1.8-3.6,1.8
	s4.1,8.8,1,15.2c0,0,1.2-10.8-2.3-14.5l-4.9,2.8c0,0,4.8,9.1,1.5,16.5c0,0,0.8-11.3-2.6-15.8l-4.5,3.5c0,0,4.5,8.9,1.8,15.1
	c0,0-0.4-13.2-2.7-14.2c0,0-3.9,3.4-4.5,4.8c0,0,3.1,6.5,1.2,9.9c0,0-1.2-8.8-2.1-8.8c0,0-3.9,5.8-4.3,9.8c0,0,0.2-5.9,3.3-10.4
	c-2.2,0.4-4.3,1.5-5.9,3.1c0,0,0.6-4.1,6.9-4.5c0,0,3.2-4.4,4.1-4.7c0,0-6.3-0.5-10.1,1.2c0,0,3.3-3.9,11.2-2.1l4.4-3.6
	c0,0-8.3-1.1-11.8,0.1c0,0,4-3.4,12.9-0.9l4.8-2.9c0,0-7-1.5-11.2-1c0,0,4.4-2.4,12.6,0.2l3.4-1.5c0,0-5.2-1-6.7-1.2
	s-1.6-0.6-1.6-0.6c3.3-0.5,6.6-0.2,9.7,1.1C607.3,707.4,614.5,704.7,614.4,704.2L614.4,704.2z M121.3,718.7c0,0,4.5,5.9-2.1,14.8
	s-12,16.4-9.8,21.9c0,0,9.9-16.5,18-16.8S130.2,728.7,121.3,718.7L121.3,718.7z M97.5,718.7c0,0-4.5,5.9,2.1,14.8s12,16.4,9.8,21.9
	c0,0-9.9-16.5-18-16.8S88.7,728.7,97.5,718.7L97.5,718.7z"/>
<path class="st2" d="M194.3,163l-1.5-0.4c18.2-59.3,22.7-97.2,12.8-106.6l1.1-1.1C217.2,64.8,212.9,102.2,194.3,163z M144.2,301.9
	l-2.2-0.8c1.9-5.4,4-11,6.2-16.4c19-47.3,35.2-91.4,45.5-125.2l1.9-0.9c-10.4,33.9-26.3,79.6-45.3,127
	C148.2,291,146.1,296.5,144.2,301.9L144.2,301.9z M190.1,628.5c-0.3-0.3-29.8-33.5-50.3-90.2c-12-33.2-18.8-68.1-19.9-103.4
	c-1.4-44.1,7.8-93.4,23.7-138.1l1.7,2c-35.6,100.4-21.5,186.5-2.7,238.3c20.4,56.2,49.5,89,49.8,89.3L190.1,628.5z M231.8,341.5
	l-0.7-0.2c8.6-28,10.7-45.9,6-50.3l0.5-0.5C242.6,295.2,240.6,312.8,231.8,341.5z M208.2,407.1l-1-0.4c0.9-2.6,1.9-5.2,2.9-7.7
	c9-22.3,16.6-43.1,21.5-59.1l0.9-0.5c-4.9,16-12.4,37.6-21.4,59.9C210.1,401.9,209.1,404.5,208.2,407.1L208.2,407.1z M229.9,561.2
	c-0.1-0.2-14.1-15.8-23.8-42.6c-5.7-15.7-8.9-32.1-9.4-48.8c-0.7-20.8,3.7-44.1,11.2-65.2l0.8,1c-16.8,47.4-10.1,88-1.3,112.5
	c9.6,26.5,23.4,42,23.5,42.2L229.9,561.2z"/>
<path class="st3" d="M873,579.1c-1.3,7.6-8.9,33-8.9,33s-11.4,38-14.6,38.7s-152.2-3.2-158.6,0s-42.5,0.1-42.5,0.1s-22.2,1.8-33,5
	s-69.1,8.2-72,8.2s-28.6-10.2-33.2-8.9s-31.9-3.2-38.2-1.3s-32.4-10.1-36.2-8.2s-21.6,3.2-26.6,5.7s-133.8-3.8-136.4-3.2
	c-0.4,0.1-2,0.4-4.3,0.8c-12,2.1-44.6,7.5-44.6,7.5l-20.3-7c0,0-17.8-1.3-23.5-0.6s-31.7-24.1-31.7-24.1s-2.5-12.1,0-15.2s0-19,0-19
	c0-10.6,2.4-21,7-30.5c7.6-15.2,12.1-37.4,12.1-37.4s5.7-28,12.7-34.3s32.3-6.4,44.4-4.4l1.1,0.1c16,2.3,113.4,12.5,122.6,11.9
	c9.5-0.6,44.4,1.3,49.5-0.6s121.2,3.8,121.2,3.8s19.7-7,24.4-8.3s20.6-34.9,25.7-38.7c1.6-1.2,3-2.4,4.4-3.7c3.8-3.6,8.1-6.6,12.7-9
	c9.5-5.1,34.3,15.9,30.5,24.7c-3.4,8-5.8,8.3-8.1,9.2c-0.3,0.1-0.5,0.2-0.8,0.3c-2.5,1.3-12,18.4-12,18.4s125-3.2,138.9-4.4
	s55.8,0,60.3-3.2s48.2,5.7,48.2,5.7l22.8,48.2C866.1,538.5,874.3,571.5,873,579.1L873,579.1z"/>
<path class="st4" d="M268.7,649c-12,2.1-44.6,7.5-44.6,7.5l-20.3-7c0,0-17.8-1.3-23.5-0.6s-31.7-24-31.7-24s-2.5-12.1,0-15.2
	s0-19,0-19c0-10.6,2.4-21,7-30.5c7.6-15.2,12.1-37.4,12.1-37.4s5.7-28,12.7-34.3s32.4-6.4,44.4-4.4l1.1,0.1
	c25.6,39.4,67.4,107.2,68.7,130.5C295.3,629.5,282.8,640.9,268.7,649L268.7,649z"/>
<path class="st5" d="M380.8,587.6c0,0-8.2,2.3-20.3,0.4s-27.3,3.2-27.3,3.2 M411.8,591.2c0,0,9.5,2.5,34.9,3.2s28.5-1.9,40,0
	s23.6,3.2,23.6,3.2 M337,602.6c0,0,34.9-6.3,50.1,0s45-1.9,49.5,0s27.3,2.3,34.3,2.5s11.4,1.8,20.3,0s44.4,0.8,44.4,0.8
	 M490.5,551.4c0,0,18.4-4.8,32.3,0c13.9,4.8,41.9,1,56.5,3.6s57.1,10.8,61.5,5.7 M575.5,573.4c0,0,12.7-3.2,24.7,0
	s34.3,6.3,40.6,4.4c8.1-2.5,16.4-4.4,24.7-5.8c10.2-1.8,37.4-11.8,47.6-9.7s22.2-4.4,33-6.5s15.9-2.4,29.2,0s20.3,8.8,22.2,6.5
	 M736,533.4c1.9-1.3,10.8,5.7,29.2,6.3s35.5-6.5,35.5-6.5s-1.9-2.1,9.5,0s55.8,5.2,55.8,5.2 M813.4,515c0,0-22.8-6.4-32.3,0
	c-9.5,6.4-19.7,0.6-22.8,0s-31.1-0.6-39.3-2.8s-32.3,2.9-32.3,2.9s-30.5-1.8-41.2-0.3s-35.5,6.8-37.4,3.2s-22.2-9.7-29.2-6.4
	 M565.7,522.7c0,0,17.4-3.2,23.2,0s26,0,26,0s16.5,3.2,19,4.4 M745.5,506.2c0,0,7.6-2.5,24.1,0c10.5,1.5,21.1,1.1,31.4-1.1
	c0,0,16.8-1.5,25.1,2s24.5-1.2,24.5-1.2 M268.5,544.2c0,0,5.1-3.8,23.5,0s27.3-1.7,27.3-1.7s-7.6-0.4,8.9,0s25.4-6.4,25.4-6.4
	 M251.3,532.4c0,0-0.6-6.8,17.1,0s27.9,3.7,27.9,3.7c7.3-2.6,15.1-3.6,22.8-3c12.7,1,29.8,0,29.8,0 M239.3,515c0,0,3.8-4.5,20.9,0
	c17.1,4.5,22.8,0,22.8,0s17.1,0.2,27.9,4.3 M261.5,508.4c0,0,5.1-0.3,17.1,0s24.7,0,24.7,0 M213.3,587.6c0,0-9.5-7.8-3.2-12.3
	s15.2,0.5,15.2,3.1v15.9c0,0-27.9,10.2-27.9,3.2s8.3-39.6,11.4-41.7s10.8-22.2,13.3-15s17.2,50.3,17.2,50.3
	c-2.1,6.4-6.7,11.7-12.7,14.7c-10.1,5-46.9,5.4-46.3-3s10.8-51.4,10.8-51.4s17.1-46.4,26.6-35.4s14,30.2,21.6,38.1
	s24.1,37.8,17.1,51.7S199.3,633,199.3,633s-40-9.5-31.7-41.9s13.3-86.9,25.4-90.1s24.1-7,34.3,0s30.4,49.7,34.2,53.1
	s24.7,35.2,20.9,45.6s-25.4,40.9-36.8,45.3s-38.1-4.4-38.1-4.4 M678.3,591.2c0,0,24.1-0.6,29.8,0s17.1-14.7,23.5-12.8
	s8.9,13,20.3,11s40.6-4.7,40.6-4.7s15.9,1.2,26.6,0s19-0.1,24.7,0s22.2,0,22.2,0l5,2.8"/>
<path class="st5" d="M696,571.7c8-0.6,16.1-0.6,24.1,0c10.8,1,45.7-6.2,60.9-5.5s22.8-4.9,29.8-4s12.1,4.7,22.8,4.7
	s37.4-4.7,37.4-4.7 M373.8,624.8c0,0,44.4,5.7,59,0s22.2-7.6,32.4-5.7s7-5.2,25.4-0.7s50.8,6.7,59,3.7s66,9.7,66,9.7 M445.5,636.8
	c0,0,18.4,1.9,30.5,3.2s67.2,5.7,78.7,0s82.5-0.2,82.5-0.2s15.9,1.1,25.4,0s33.6-3,33.6-3"/>
<path class="st4" d="M616.7,464.3c-3.4,8-5.8,8.3-8.1,9.2c-11.5-5.2-26.2-17.2-35.1-24.9c3.8-3.6,8.1-6.6,12.7-9
	C595.8,434.5,620.5,455.4,616.7,464.3L616.7,464.3z"/>
<path class="st1" d="M303.3,652.4v-24.7l8.8,12.4c0,0,12-75.8,15.2-72.3s0,65,0,65l7.6-5.1l3.8,11.1c0,0,21.6-33.1,23.5-28.7
	s-4.4,28.7-4.4,28.7l31.7-64.6c0,0-10.8,55.4-7,58.6s18.4-9.5,20.9-5.1S380,655.4,380,655.4L303.3,652.4z M707.4,650.8l9.5-24.7
	c0,0,7.6,10.8,9.5,11.1s12-6,12-6v-27.9l15.9,30.9l7.6-3l3.2-12.5l3.8,7.5c0,0,28.5-71.7,44.4-64.7l-22.8,61.5l22.8-17.1
	c0,0-10.2,28.2-12.4,28.3s20-3,20-3l-7.6,19.7L707.4,650.8z"/>
<path class="st6" d="M121.3,718.7c0.4,0.6,0.7,1.2,0.9,1.8c7.9,9.3,12.1,17.9,4.5,18.1c-7.1,0.2-15.5,12.8-17.6,16
	c0.1,0.2,0.2,0.5,0.2,0.7c0,0,9.9-16.5,18-16.8S130.2,728.7,121.3,718.7L121.3,718.7z M97.5,718.7c-0.4,0.6-0.7,1.2-0.9,1.8
	c-7.9,9.3-12.1,17.9-4.5,18.1c7.1,0.2,15.5,12.8,17.6,16c-0.1,0.2-0.1,0.5-0.2,0.7c0,0-9.9-16.5-18-16.8S88.7,728.7,97.5,718.7
	L97.5,718.7z"/>
<path class="st7" d="M129.7,726.2c0,2.1-0.2,3.8-0.5,3.8s-0.5-1.7-0.5-3.8s0.3-1.1,0.6-1.1S129.7,724.2,129.7,726.2z M132.6,728.7
	c-1.8,1-3.4,1.6-3.6,1.3s1.2-1.3,3.1-2.3s1.1-0.3,1.2,0S134.4,727.7,132.6,728.7z M89.2,726.2c0,2.1,0.2,3.8,0.5,3.8
	s0.5-1.7,0.5-3.8s-0.3-1.1-0.6-1.1S89.2,724.2,89.2,726.2z M86.3,728.7c1.8,1,3.4,1.6,3.5,1.3s-1.2-1.3-3.1-2.3s-1.1-0.3-1.2,0
	S84.5,727.7,86.3,728.7z"/>
<path class="st8" d="M90.6,754.7c0,0,12.6-0.4,16.4-3.1s19.4-5.9,20.3-1.6c0.9,4.3,18.9,21.5,4.7,21.7s-33-2.2-36.8-4.5
	S90.6,754.7,90.6,754.7L90.6,754.7z"/>
<path class="st9" d="M132.3,770.2c-14.2,0.1-33-2.2-36.8-4.5c-2.9-1.8-4-8.1-4.4-11h-0.4c0,0,0.8,10.2,4.6,12.5s22.6,4.6,36.8,4.5
	c4.1,0,5.5-1.5,5.4-3.7C136.9,769.3,135.3,770.1,132.3,770.2L132.3,770.2z"/>
<path class="st5" d="M585.9,452.3c0,0,7.6,12.5,14.9,12s11.2-6.3,8.9-9.9s-18-10.5-18-10.5"/>
<path class="st5" d="M591.4,451c0,0,3.8,8.9,6.7,5.2S591.4,451,591.4,451z"/>
<linearGradient id="SVGID_1_" gradientUnits="userSpaceOnUse" x1="539.2877" y1="16.8628" x2="539.2877" y2="163.6424" gradientTransform="matrix(1 0 0 -1 -44.68 709.83)">
	<stop  offset="0" style="stop-color:#808080;stop-opacity:0.25"/>
	<stop  offset="0.54" style="stop-color:#808080;stop-opacity:0.12"/>
	<stop  offset="1" style="stop-color:#808080;stop-opacity:0.1"/>
</linearGradient>
<path class="st10" d="M553.2,626.3c0,0-2-8-3.8-16c-0.4-5-1.2-11.4-1.6-14V596c0-1.1-0.4-2.1-1.1-2.9c1-2.9,4.6-13.9,4-17.1
	c-0.8-3.7-3.6-12.6-6.9-15.5c-1.1-1.6-2.6-2.8-4.4-3.5c-3.2-1.2-6.8-0.9-9.8,0.8l-17,9.5c-6.8-1-12.3-1.8-12.3-1.8s-4.2-0.5-9.5-1
	c-1.7-3.9-7-15.7-12.6-17.6c-6-2-13.1,0.7-14.6,1.3h-0.1l-0.2,0.1c-11,5.1-9.8,26.8-9.4,31.5c-2.1,2.6-4.3,5.1-6.6,7.4
	c-3.8,3.3-5,12.1-1.4,13.9c1.7,0.8,4,1.9,6.1,2.7c-9.6,20.3-25.8,60.4-11.3,71.8c19.7,15.5,56.7,20.6,69.3,15.5c0.3,0.1,0.7,0,1-0.1
	c0,0,20.6-4.9,25.4-10.4c3.6-4.5,6.1-9.8,7.2-15.5c5-4.4,8.4-10.3,9.7-16.9C555.8,635.5,553.2,626.3,553.2,626.3L553.2,626.3z
	 M540.4,582.4l0.5-2.4c0.3,0.2,0.5,0.3,0.8,0.5c-0.1,0.7-0.3,1.4-0.4,2.1l-0.8,4.7L540.4,582.4z M536.5,562.1
	c0.9,0.6,6.7,4.9,5.5,15.9c-0.1-0.4-0.2-0.8-0.3-1.3c-0.3-1.6-1.4-3.7-5.3-5c-3.4-1-6.8-1.7-10.3-2.3
	C529.1,566.4,532.6,563.9,536.5,562.1L536.5,562.1z M478.9,563.3c-4.5-0.3-8-0.5-8.4-0.2h-0.1c-0.6-0.1-1.1,0-1.7,0.2
	c-1.7,0.4-3.4,1.2-4.8,2.2c2-11.2,7.9-12.2,9.2-12.3C475.6,556.3,477.5,559.6,478.9,563.3L478.9,563.3z M542.7,652.5
	c-0.6-9.2-1.2-23.5-1.5-31.9l0.5-0.1c0.6-0.1,1.1-0.2,1.7-0.3c0.6,5.4,1.6,11.8,3.3,16C549,641.6,545.5,648.3,542.7,652.5
	L542.7,652.5z"/>
<path class="st11" d="M539,577.4l-11.5-3.6l-12.3,4.5l-0.9,7.8l6.1,4l9.7-0.3l8.5-4l1.5-7.4L539,577.4z"/>
<path class="st9" d="M539,577.4l-11.5-3.6l-12.3,4.5l-0.9,7.8l6.1,4l9.7-0.3l8.5-4l1.5-7.4L539,577.4z"/>
<path class="st12" d="M455.1,581.2c0,0-3.1-26.8,9.3-32.3c0,0,6.6,0.3,9.5,5.1c0,0-9-0.5-9.8,18.3L455.1,581.2z"/>
<path class="st6" d="M455.1,581.7c0,0-3.1-26.8,9.3-32.3c0,0,6.6,0.3,9.5,5.1c0,0-9-0.5-9.8,18.3L455.1,581.7z"/>
<path class="st13" d="M461.8,571.6c0,0-9.5,12.7-13.2,16s-4.8,12-1.4,13.8s10.1,4.3,10.1,4.3L461.8,571.6z"/>
<path class="st11" d="M461.8,571.6c0,0-9.5,12.7-13.2,16s-4.8,12-1.4,13.8s10.1,4.3,10.1,4.3L461.8,571.6z"/>
<path class="st12" d="M491.4,566.2c0,0-6.2-16.4-12.8-18.7s-14.5,1.5-14.5,1.5s9.7-1,15.6,15.9L491.4,566.2z M545,594.1
	c0,0,4.9-14,4.1-17.6s-3.5-12.5-6.8-15.4s-7.1,1.7-7.1,1.7s8.3,5,4.7,20.3l-1.1,6.8L545,594.1z"/>
<path class="st6" d="M545,594.1c0,0,4.9-14,4.1-17.6s-3.5-12.5-6.8-15.4s-7.1,1.7-7.1,1.7s8.3,5,4.7,20.3l-1.1,6.8L545,594.1z"/>
<path class="st12" d="M509.6,569.2l19-10.9c2.9-1.7,6.4-2,9.5-0.8c1.8,0.7,3.2,1.9,4.3,3.4c0,0-9.2-0.5-19.3,11.5L509.6,569.2z
	 M541.5,610.5c0,0,0.5,17.3,3.9,25.6s-6.8,20-6.8,20l1.9,10c0,0,8.7-5.6,11.2-18.2s0-21.7,0-21.7s-7-28.2-6-31.2
	S541.5,610.6,541.5,610.5L541.5,610.5z"/>
<path class="st6" d="M541.5,610.5c0,0,0.5,17.3,3.9,25.6s-6.8,20-6.8,20l1.9,10c0,0,8.7-5.6,11.2-18.2s0-21.7,0-21.7s-7-28.2-6-31.2
	S541.5,610.6,541.5,610.5L541.5,610.5z"/>
<path class="st11" d="M539.1,580.2c0,0,1.5,8.8-16.5,4.9l-12,105.4c0,0,20-4.8,24.7-10.3s8.1-15.8,7-19.5s-2.5-46.5-2.5-46.5
	L539.1,580.2z"/>
<path class="st11" d="M459,592.1c0,0-36,67.8-16.8,83.1s55.1,20.4,67.5,15.3c0,0,5.7,1.5,4.9-16.3s6.6-67.6,6.6-67.6L459,592.1z"/>
<path class="st12" d="M460.1,595.1c0,0-33.8,63.7-15.8,78.1s51.8,19.2,63.4,14.4c0,0,5.4,1.4,4.6-15.3s6.2-63.5,6.2-63.5
	L460.1,595.1z"/>
<path class="st6" d="M538.3,621.4c-1.4,1-9.3-1.4-9.3-1.4c-8.6-0.6-5.5-15.3-4-21.2c0.4-1.5,0.7-2.4,0.7-2.4
	c4,5.1,11.2,2.9,11.2,2.9s0.2,1.6,0.5,4C538.2,609.5,539.3,620.6,538.3,621.4z"/>
<path class="st11" d="M538.6,620.8c-1.4,1-9.3-1.4-9.3-1.4c-8.6-0.6-5.5-15.3-4-21.2c0.4-1.5,0.7-2.4,0.7-2.4
	c4,5.1,11.2,2.9,11.2,2.9s0.2,1.6,0.5,4C538.4,609,539.6,620.1,538.6,620.8z"/>
<path class="st14" d="M538.6,620.8c-1.4,1-9.3-1.4-9.3-1.4c-8.6-0.6-5.5-15.3-4-21.2c0.4-1.5,0.7-2.4,0.7-2.4
	c4,5.1,11.2,2.9,11.2,2.9s0.2,1.6,0.5,4C538.4,609,539.6,620.1,538.6,620.8z"/>
<path class="st6" d="M537.7,602.8c-3.9-0.5-9.9-3.3-12.3-4.6c0.4-1.5,0.7-2.4,0.7-2.4c4,5.1,11.2,2.9,11.2,2.9
	S537.4,600.5,537.7,602.8z"/>
<path class="st12" d="M533.9,598.2c0,0-9.7,25.3,6.6,22.4c0,0,7.7-0.8,7.6-6.6s-1.9-18.6-1.9-18.6L533.9,598.2z"/>
<path class="st6" d="M526.6,591.9c0,0-5,20.5,10.9,12.9s5.7-12.9,5.7-12.9l-7.6-4.9L526.6,591.9z"/>
<path class="st11" d="M526.6,591.7c0,0-5,20.5,10.9,12.9s5.7-12.9,5.7-12.9l-7.6-4.9L526.6,591.7z"/>
<path class="st6" d="M529.6,588.8c0,0-4.5,1.2-2.2,5.7c1.1,2,1.6,4.3,1.5,6.6c-0.1,1.5,1,2.9,2.5,3.2c1.6,0.3,3.9-0.1,6.9-2.7
	c0,0,5.8-2.2,5.4-5s-10.1-9.2-10.1-9.2L529.6,588.8z"/>
<path class="st12" d="M529.6,588.5c0,0-4.5,1.2-2.2,5.7c1.1,2,1.6,4.3,1.5,6.6c-0.1,1.5,1,2.9,2.5,3.2c1.6,0.3,3.9-0.1,6.9-2.7
	c0,0,5.8-2.2,5.4-5s-10.1-9.2-10.1-9.2L529.6,588.5z"/>
<circle class="st6" cx="535.7" cy="595.8" r="3"/>
<circle class="st11" cx="535.7" cy="595.6" r="3"/>
<path class="st6" d="M499.2,566.9c0,0-28.4-3.5-29.9-2.4c0,0-15.1,2.6-15.1,30.7c0,0-0.3,16.2,30.8,24c0,0,25,2.2,33.1-7.7
	c8.1-9.9,4.1-26.5,4.1-26.5s3.2-12.7,18.3-3.9c0,0,1.6-5-5.2-7.5S499.2,566.9,499.2,566.9L499.2,566.9z"/>
<path class="st11" d="M499.2,566.4c0,0-28.4-3.5-29.9-2.4c0,0-15.1,2.6-15.1,30.7c0,0-0.3,16.2,30.8,24c0,0,25,2.2,33.1-7.7
	c8.1-9.9,4.1-26.5,4.1-26.5s3.2-12.7,18.3-3.9c0,0,1.6-5-5.2-7.5S499.2,566.4,499.2,566.4L499.2,566.4z"/>
<path class="st6" d="M500.1,566.5c0,0-27.6-3.3-29-2.3c0,0-14.6,2.4-14.6,28.9c0,0-0.3,15.2,29.9,22.5c0,0,24.3,2.1,32.2-7.2
	c7.9-9.3,4-25,4-25s3.2-12,17.8-3.7c0,0,1.5-4.7-5.1-7S500.1,566.5,500.1,566.5L500.1,566.5z"/>
<path class="st12" d="M500.1,566.2c0,0-27.6-3.3-29-2.3c0,0-14.6,2.4-14.6,28.9c0,0-0.3,15.2,29.9,22.5c0,0,24.3,2.1,32.2-7.3
	c7.9-9.3,4-25,4-25s3.2-12,17.8-3.7c0,0,1.5-4.7-5.1-7S500.1,566.2,500.1,566.2z"/>
<path class="st11" d="M486.2,609.8c0,0-7.5-3.4-7.9,3.1c0,0-2.5,6.5-2.7,7.3s0.4,7.4,6.2,7.1c3.3,0,6.4-1.9,7.9-4.8
	c0,0,1.3-7.1,3.1-8.7s-1.3-3-2.4-3C489,610.6,487.6,610.3,486.2,609.8L486.2,609.8z"/>
<path class="st6" d="M485.2,608.8c0,0-7.5-3.4-7.9,3.1c0,0-2.5,6.5-2.7,7.3s0.4,7.4,6.2,7.1c3.3,0,6.4-1.9,7.9-4.8
	c0,0,1.3-7.1,3-8.6s-1.3-3.1-2.4-3.1C488,609.5,486.6,609.2,485.2,608.8L485.2,608.8z"/>
<path class="st12" d="M485.5,608.5c0,0-7.5-3.4-7.9,3.1c0,0-2.5,6.5-2.7,7.3s0.4,7.4,6.2,7.1c3.3-0.1,6.3-1.9,7.9-4.8
	c0,0,1.3-7.1,3.1-8.7s-1.3-3.1-2.4-3.1C488.3,609.2,486.8,608.9,485.5,608.5L485.5,608.5z"/>
<circle class="st6" cx="481.7" cy="621.1" r="2.7"/>
<circle class="st11" cx="481.7" cy="620.9" r="2.7"/>
<path class="st11" d="M507.2,635.8c0,0-29.6-3.5-50.3-14.1c0,0-16.3,41.1-3.3,46.8s40,15,47.6,11.8c0,0,4.5,0.7,3-14.2
	S507.2,635.8,507.2,635.8z"/>
<path class="st6" d="M505.4,638.7c0,0-29.6-3.3-50.3-13.2c0,0-16.3,38.6-3.3,44s40,14.1,47.5,11.1c0,0,4.5,0.7,3.1-13.4
	S505.4,638.7,505.4,638.7L505.4,638.7z"/>
<path class="st12" d="M505.9,638.4c0,0-29.6-3.3-50.3-13.3c0,0-16.3,38.7-3.3,44.1s40,14.1,47.6,11.1c0,0,4.5,0.7,3.1-13.4
	S505.9,638.4,505.9,638.4L505.9,638.4z"/>
<g class="st15">
	<path d="M535.3,572.3c-6.6-2.3-35.1-6.2-35.1-6.2s-27.6-3.3-29-2.3c0,0-7.1,1.2-11.5,10.9c4.3-8.7,10.9-9.8,10.9-9.8
		c1.4-1,29,2.3,29,2.3s28.5,3.9,35.2,6.2c4.4,1.5,5.2,4.2,5.2,5.7l0.3,0.2C540.3,579.3,541.9,574.6,535.3,572.3L535.3,572.3z
		 M522.8,582.3c-0.3,0.6-0.6,1.2-0.8,1.8c0,0,2.8,11.2-1.1,20.3c4.7-9.3,1.6-21.4,1.6-21.4C522.6,582.7,522.7,582.5,522.8,582.3z"/>
</g>
<linearGradient id="SVGID_2_" gradientUnits="userSpaceOnUse" x1="801.8636" y1="38.8643" x2="801.8636" y2="542.9384" gradientTransform="matrix(1 0 0 -1 -44.68 709.83)">
	<stop  offset="0" style="stop-color:#808080;stop-opacity:0.25"/>
	<stop  offset="0.54" style="stop-color:#808080;stop-opacity:0.12"/>
	<stop  offset="1" style="stop-color:#808080;stop-opacity:0.1"/>
</linearGradient>
<path class="st16" d="M879.3,649.5c-5.7-0.2-5.9-2.4-13.3-6.3c-4.2-2.2-10.5-8.5-15.2-13.5l-1.1-1.2h2c0,0-1.8-16.1-0.2-20
	S852,582,852,582s1-17.3-0.8-21.4s0.6-29.8,0.6-29.8s1.6-15.3,2-46.6s-18-32.3-18-32.3s-2.5-0.2-6.2-0.5l-1.1-0.1
	c2.4-5,3.8-8.8,3.8-8.8s-3.1-29.2-3.9-34.3c-0.8-5-5.7-25.8-5.7-25.8s-3.5-8.9-5.5-15.1s-8.2-13.5-8.2-13.5s-11-21.8-14.1-25
	c-1.4-1.5-3.4-3.4-5.2-5l-0.9-0.8c0.5-2.3,0.7-4.6,0.7-6.9c0,0-11.5-11.3-12.3-14.1s-11.6-13.3-11.6-13.3s-6.1-11.3-13.1-11.5
	c-3.3-0.2-6.6-0.1-9.8,0.3c1.4-5.3,3.1-10.8,4.6-15.6c0.2-0.5,0.3-1,0.5-1.5c5.6-3.8,9.9-9,12.6-15.2c0.1-0.3,0.3-0.7,0.4-1h0.2
	c0.3,0,0.6,0,0.9-0.1c2.3-0.4,4.2-3,3.2-5c0.1,0.2,0.4,0.4,0.7,0.4c0.8,0,1.7-1.1,1.9-2.1c0-0.2,0-0.3,0.1-0.5l0.1-0.6v-0.6
	c0-0.2,0-0.4,0-0.6s0-0.4,0-0.6v-0.7v-0.5c0-0.2,0-0.5-0.1-0.8v-0.3c-0.1-1.1-0.3-2.2-0.7-3.3c-1.1-3.7-3.5-7.5-2.6-11.3v-0.1
	c0.8-3,3.3-5.1,4.9-7.7c0.2-0.3,0.3-0.5,0.4-0.8l0.1-0.1c0.1-0.2,0.2-0.4,0.3-0.6s0.1-0.3,0.2-0.4s0.1-0.4,0.2-0.5s0.1-0.3,0.2-0.5
	s0.1-0.3,0.1-0.5s0.1-0.4,0.1-0.6s0-0.3,0.1-0.4s0.1-0.4,0.1-0.7s0-0.3,0-0.4v-1v-0.8V202c0-0.3,0-0.6-0.1-0.9V201
	c-0.3-2.6-1.3-5-2.9-7c-3.6-4.2-9.1-6.5-14.6-6.2c-1.5,0.2-3.1,0.2-4.6,0.1c-2.6-0.4-4.7-2-6.8-3.6l-17.1-13.2
	c-1.9-1.7-4.1-3-6.5-3.9c-2.4-0.7-5.3-0.5-7.1,1.3c-3.2,3.2-1.2,8.6-2.5,12.9c-1.1,3.7-4.7,6.2-8.4,7.5s-7.7,1.5-11.5,2.4
	c-1.1,0.2-2.2,0.7-3.1,1.4c-1,1.2-1.5,2.7-1.3,4.3c0,3.8,0.9,7.5,2.7,10.9c0.7,1.4,1.6,2.8,2.4,4.2c0.1,0.1,0.1,0.2,0.2,0.3
	s0.2,0.3,0.3,0.5s0.3,0.5,0.4,0.8l0.2,0.3l0.2,0.6l0.1,0.4c0.1,0.2,0.1,0.4,0.2,0.7c0.4,1.3,0.4,2.7,0.1,4c-0.6,2.2-2.3,3.8-3.8,5.5
	c-1.2,1.3-2.1,2.9-2.5,4.7c-0.1,0.4-0.1,0.8,0,1.2v0.1c0,0.1,0,0.2,0.1,0.3c0,0.1,0,0.1,0.1,0.2c0,0.1,0.1,0.1,0.1,0.2
	c0.1,0.1,0.2,0.2,0.3,0.3l0.2,0.1c0.1,0.1,0.2,0.1,0.3,0.2c0.1,0,0.1,0.1,0.2,0.1c0.1,0.1,0.3,0.1,0.4,0.1h0.1c0.2,0,0.4,0,0.7,0
	h0.2c0.2,0,0.4,0,0.6-0.1h0.2c0.3-0.1,0.6-0.1,1-0.2c1.1-0.3,2.3-0.8,3.3-1.3v1c0.1,4,0.8,7.9,2.2,11.6c2.2,5.8,5.9,10.8,10.7,14.7
	c-0.1,0.3-0.1,0.7-0.2,1c-1,4.8-3,9.7-4.3,9.3c-1.2-0.3-2.5-0.4-3.8-0.4H696c-1.2-0.1-2.3-0.1-3.5,0c-0.5,0-1,0-1.5-0.2
	c-3.3-1-6.8-1.2-10.2-0.6c-7.1,1.5-17.8,4.1-20.8,7.3c-4.5,4.8-11,9.5-18.4,29.6c0,0-3.7,12.3-6.5,13.9c0.6-0.3,1.3-0.6,1.9-0.9
	c-0.4,0.7-0.9,1.2-1.5,1.7c1-0.5,2.1-1,3.2-1.3c-2.2,13.1,1.1,50.7,1.1,50.7s-2.7,6.5,0.8,10.3c2.1,2.3,3.2,5.8,3.8,8.3l-0.5,0.8
	c-1.8,2.8-4.3,6.6-5.9,8.6c-2.9,3.6-2,15.1-2,15.1s-0.6,5.4-2.7,7.5c-2,2-1.6,9.5-1.6,9.5l-5.3,19.7c0,0-4.9,4.4-4.9,6.5
	s-3.9,7.7-3.9,7.7s-5.9,9.7,0,8.3c2.2-0.6,4.2-1.6,6-3v1.3c-0.2,10.5,1,25.4,8.8,25.4c12,0,43.1,14.3,43.1,14.3
	c6.3,4.8,14.9,3.2,14.9,3.2s-15.1,15.1-14.7,21.4s-8.6,16.5-8.6,16.5L639.2,604c0.2,3.8,0.8,7.5,2,11.1l-0.4,0.3
	c-10.7,9.8-11.6,29.1-11.6,29.1l-2.5,9.9l37.2,16.3c0,0,48.2,1,56.6-1.2s6.5-11.5-4.5-13.3s-13.7-6.7-17.4-8.9
	c-2.5-1.5-11.3-11.2-16.8-17.3l-0.2-0.3l1.3-7c2.5-1.2,6.1-13.3,6.1-13.3s0-4.8,2.5-6.3s7.6-15.9,7.6-15.9s11-18.3,10.4-20.8
	s8-14.7,8-14.7s14.5-14.1,13.9-16.6s11.7-15.4,11.7-15.4c4.4-3.4,8.1-7.6,10.8-12.5l3.5-0.6c16-2.6,42.7-7.4,45.7-8.7
	c4.1-1.8,3.3,6.3,1.6,13.1s-2.9,39.7-1,44s1,11.1,1,11.1l-2.5,36.9l1.6,7.9c0,0-5.5,4.4-3.3,7.1s0.2,13.9,0.2,13.9
	c0.2-0.1,0.4-0.1,0.7-0.2c-0.2,0.4-0.4,0.9-0.5,1.4c-3.2,9-1.3,23.8-1.3,23.8v11.7c0,0,56.6,1,69.1,1s29.6-6,30.7-10.9
	S885,649.7,879.3,649.5L879.3,649.5z M718.3,439.6l-3.7,0.3C715.8,439.7,717.1,439.6,718.3,439.6z M740.9,284.8
	c0.5-2.3,1.2-4.8,1.8-7.4L740.9,284.8z M747.9,445.3c-3.5,1.4-7.5,1.4-11,0c0,0,0.2-14.1,1.8-20s3.9-16.5,3.9-16.5
	s1.8-14.7,3.7-21.4c1.8-6.6,9-43.8,12.7-46.2s5.7,1.8,5.7,1.8s0.5,0,1.5-0.1c0.2,0.4,0.4,0.8,0.6,1.2c4.4,8.8,17.2,26.9,17.2,26.9
	c3.8,2.3,7,5.5,9.4,9.3c3.5,5.8,4.5,19.6,4.5,19.6s7.8,30.5,11.4,34.7c1.8,2.1,1,3.4-0.3,4.1c-2.6,1.4-4.8,3.5-6.5,6
	c-0.5,0.8-1.1,1.8-1.6,2.7c-1.4-0.3-2.7-0.7-3.7-1C787.1,443,753.4,442.8,747.9,445.3L747.9,445.3z"/>
<path class="st11" d="M798.3,656.9v11.6c0,0,55.4,1,67.6,1s29-6,30-10.8s-14-8.8-19.6-9s-5.8-2.4-13-6.2
	c-4.1-2.2-10.2-8.4-14.8-13.4c-3.5-3.9-6.2-7-6.2-7s-29.8-0.6-38.4,4.2c-2,1.1-3.3,3.3-4.3,6C796.5,642.2,798.2,656.9,798.3,656.9
	L798.3,656.9z"/>
<path class="st6" d="M799.6,633.3c6.3-2.2,42.8-3,48.8-3.1c-3.5-3.9-6.2-7-6.2-7s-29.8-0.6-38.4,4.2
	C801.9,628.4,800.5,630.6,799.6,633.3z"/>
<path class="st12" d="M638.9,448.3l3.2,2l1.2,0.7l4.7,2.8c25.1,15.1,93.7,56.2,97.5,55.9c1-0.1,3.9-0.5,8-1.2l3.5-0.6
	c15.7-2.6,41.8-7.3,44.7-8.6c4-1.8,3.2,6.2,1.6,13c-1.6,6.8-2.8,39.4-1,43.6s1,11,1,11l-2.4,36.6l1.6,7.8c0,0-5.4,4.4-3.2,7
	s0.2,13.8,0.2,13.8c6.4-2.4,49.8-3.2,49.8-3.2s-1.8-16-0.2-19.8s0.4-26.4,0.4-26.4s1-17.2-0.8-21.2s0.6-29.6,0.6-29.6
	s1.6-15.2,2-46.2s-17.6-32-17.6-32s-2.4-0.2-6-0.5c-7.1-0.7-19-2-26.9-3.7c-1.6-0.3-3.2-0.8-4.8-1.3c-9.8-3.3-42.8-3.5-48.2-1.1
	c-3.5,1.4-7.3,1.4-10.8,0l-4.2-6.8l-40.1,3.4l-4.3,0.4l-39.5,3.4l-2.7,0.2L638.9,448.3z"/>
<path class="st6" d="M799.7,479c11.7,5.7,22.8-14.5,28-25.8c-7.1-0.7-19-2-26.9-3.7C795.4,458.2,788.5,473.6,799.7,479z"/>
<path class="st17" d="M764.7,343c0.3,1.4,0.7,2.7,1.4,3.9c4.3,8.7,16.8,26.7,16.8,26.7c3.7,2.3,6.9,5.5,9.2,9.2
	c3.4,5.8,4.4,19.4,4.4,19.4s7.6,30.2,11.2,34.4c1.8,2.1,1,3.4-0.3,4.1c-2.6,1.4-4.7,3.5-6.3,5.9c-5.2,8.4-13.6,25.1-1.8,30.9
	c16,7.8,31-33.1,31-33.1s-3-29-3.8-34s-5.6-25.6-5.6-25.6s-3.4-8.8-5.4-15s-8-13.4-8-13.4s-10.8-21.6-13.8-24.8
	c-1.4-1.5-3.3-3.4-5-4.9c-2-1.8-3.6-3.3-3.6-3.3S764.5,338.1,764.7,343z"/>
<path class="st11" d="M629.1,654.5l36.4,16.2c0,0,47.2,1,55.4-1.2s6.4-11.4-4.4-13.2s-13.4-6.6-17-8.8c-2.4-1.5-11-11.1-16.4-17.2
	c-2.6-2.9-4.4-5-4.4-5s-7-18.6-26.4-14.4c-3.5,0.8-6.8,2.5-9.4,5c-10.5,9.7-11.4,28.8-11.4,28.8L629.1,654.5z"/>
<path class="st6" d="M643.3,451l4.7,2.8c25.1,15.1,93.7,56.2,97.5,55.9c1-0.1,3.9-0.5,8-1.2l3.5-0.6c0-0.1,0.1-0.2,0.1-0.2
	c2-3.5,3.6-7.3,4.6-11.2c4.2-16-16.6-28.2-16.6-28.2l-4.4-3.4c-5-8.4-41-16.4-41-16.4l-4.6-3.1l-2.5-1.7l-0.7-0.4l-5.6-3.8l-28.2,2
	l-8.4,5.4l-0.9,0.6l-3.1,2L643.3,451z M642.8,615.9c7.7,26.5,39.6,17.8,39.6,17.8l0.6-3.4c-2.6-2.9-4.4-5-4.4-5s-7-18.6-26.4-14.4
	C648.7,611.7,645.5,613.4,642.8,615.9L642.8,615.9z"/>
<path class="st12" d="M634.5,495.7c11.8,0,42.2,14.2,42.2,14.2c6.2,4.8,14.6,3.2,14.6,3.2s-14.8,15-14.4,21.2s-8.4,16.4-8.4,16.4
	l-27.2,53.8c2,38.2,41.2,27.6,41.2,27.6l1.6-9c2.4-1.2,6-13.2,6-13.2s0-4.8,2.4-6.2s7.4-15.8,7.4-15.8s10.8-18.2,10.2-20.6
	s7.8-14.6,7.8-14.6s14.2-14,13.6-16.5s11.4-15.3,11.4-15.3c4.3-3.4,8-7.6,10.6-12.4c2-3.5,3.6-7.3,4.6-11.2
	c3.4-12.9-9.4-23.3-14.6-26.9c-1.2-0.9-2-1.3-2-1.3l-4.4-3.4c-2.3-3.8-11-7.6-19.8-10.5c-6.3-2.1-12.7-3.8-16.8-4.8
	c-2.7-0.7-4.4-1-4.4-1l-4.6-3.1l-1.6-1.1l-1.5-1l-5.6-3.8l-12.5,0.9l-15.7,1.1l-8.4,5.4l-4,2.6l-15.6,10c0,0-0.4,3.9-0.5,9v1.2
	C625.7,481,626.9,495.7,634.5,495.7L634.5,495.7z"/>
<path class="st17" d="M694.7,271.8l4.2,15c0,0,7.4,25.8,8.2,27.6s20.2,20,21,20.4s11.4,6.4,11.4,6.4s0.8-33,0-42.6
	c-0.1-2.1,0.1-4.2,0.5-6.3c1.3-7.5,4.5-18.6,7.2-27c2.2-7.1,4.1-12.5,4.1-12.5s-46.8-2-45.2,2.6c0.6,1.7,0.4,4.7-0.2,7.6
	c-1,4.8-3,9.6-4.2,9.2c-1.2-0.3-2.5-0.4-3.7-0.4C696.2,271.7,694.7,271.8,694.7,271.8z"/>
<path class="st6" d="M705.9,262.9c11.7,9.8,28.5,10.7,41.3,2.3c2.2-7.1,4.1-12.5,4.1-12.5s-46.8-2-45.2,2.6
	C706.7,257.1,706.5,260,705.9,262.9z"/>
<path class="st17" d="M762.7,235.2c0,3.7-0.6,7.3-1.7,10.8c-0.3,0.9-0.6,1.8-1,2.6c-7.4,17.6-27.7,25.8-45.3,18.4
	c-8.8-3.7-15.6-10.8-18.9-19.8c-1.4-3.7-2.1-7.5-2.2-11.4v-0.6c-0.3-19.1,14.9-34.9,34-35.2c19.1-0.3,34.9,14.9,35.2,34
	C762.7,234.4,762.7,234.8,762.7,235.2L762.7,235.2z"/>
<path class="st6" d="M694.7,271.8l4.2,15c0,0,7.4,25.8,8.2,27.6s20.2,20,21,20.4s11.4,6.4,11.4,6.4s0.8-33,0-42.6
	c-0.1-2.1,0.1-4.2,0.5-6.3l-2.7,11.1l0.2,22.2l1.6,1.2l-3.6,5.4v-4c0,0-12.8-12.4-14.8-17.6s-9.2-14.6-9.2-14.6s-8.2-13.8-8.4-16.2
	c-0.2-1.9-3.6-6.2-5.1-8C696.2,271.7,694.7,271.8,694.7,271.8L694.7,271.8z M764.7,343c0.3,1.4,0.7,2.7,1.4,3.9
	c4.4-0.5,19.3-3.2,22.5-20.3c-2-1.8-3.6-3.3-3.6-3.3S764.5,338.1,764.7,343L764.7,343z M625.9,470.6c4-2.9,7.9-6.8,10.2-7.8
	c3.4-1.6,8.6-6.8,8.6-6.8s1.3-0.9,3.3-2.1c3.7-2.2,9.8-5.3,14.5-5.7c4.2-0.3,18-1.2,29-1.9l14.2-0.9c0,0,13-4.6,18.6-1.6
	c4,2,8.2,3.6,12.6,4.6v-1.2l-4.2-6.8l-44.4,3.8l-5.6-3.8l-28.2,2l-8.4,5.4l-7.2,0.6l3.2,2l-15.6,10
	C626.5,460.3,626,464.8,625.9,470.6L625.9,470.6z"/>
<path class="st18" d="M620.1,472.3c2.1-0.6,4.1-1.7,5.9-3c4-2.9,7.8-6.7,10.1-7.8c3.4-1.6,8.6-6.8,8.6-6.8s10.6-7.2,17.8-7.8
	c2-0.2,6.1-0.4,11-0.8s11-0.7,16.3-1l8.5-0.5l7.4-0.5c0,0,13-4.6,18.6-1.6c4,2,8.2,3.6,12.6,4.6c0,0,0.2-14,1.8-19.8
	s3.8-16.4,3.8-16.4s1.8-14.6,3.6-21.2s8.8-43.4,12.4-45.8s5.6,1.8,5.6,1.8s24-0.4,24.4-26.8c0,0-11.2-11.2-12-14
	S765,291.8,765,291.8s-6-11.2-12.8-11.4c-3.2-0.2-6.4-0.1-9.6,0.3l-5.8,23.5l0.2,22.2l1.6,1.2l-3.6,5.4v-4c0,0-12.8-12.4-14.8-17.6
	s-9.2-14.6-9.2-14.6s-8.2-13.8-8.4-16.2s-5.8-8.8-5.8-8.8c-1.1-0.1-2.3-0.1-3.4,0c-0.5,0-1,0-1.5-0.2c-3.2-1-6.7-1.2-10-0.6
	c-6.9,1.4-17.4,4.1-20.3,7.2c-4.4,4.8-10.8,9.4-18,29.4l38.8,14l-3.3,6.2l-30.8,58.7c0,0-1,1.7-2.4,3.9c-1.8,2.8-4.2,6.5-5.8,8.5
	c-2.8,3.6-2,15-2,15s-0.6,5.4-2.6,7.4s-1.6,9.4-1.6,9.4l-5.2,19.4c0,0-4.8,4.4-4.8,6.4s-3.8,7.6-3.8,7.6S614.3,473.7,620.1,472.3
	L620.1,472.3z"/>
<path class="st6" d="M824.8,486.7c0,0-12.6,4.2-16,10.2S824.8,486.7,824.8,486.7z M818.5,473.5c-0.4,0.6-17.3,17.5-16.2,21.6
	S818.5,473.5,818.5,473.5z M725.9,485.5c0,0-18.8,8.9-20.4,12.7S725.9,485.5,725.9,485.5z M724.7,496.9c0,0-17,7.2-19.3,9
	S724.7,496.9,724.7,496.9z M716.9,512.3c0,0-7.5,5.6-11.7,1.2S716.9,512.3,716.9,512.3z M745.1,366.4c-0.4,0.6-25.4,45.6-32,49
	S745.1,366.4,745.1,366.4z M743.9,383.3c0,1-24.4,53.2-28.4,53.8S743.9,383.3,743.9,383.3z M651.1,416.9c0,0-11.8,25.2-16.4,26.6
	S651.1,416.9,651.1,416.9z M649.1,405.7c0,0-4.1,8.8-6.5,8.8S649.1,405.7,649.1,405.7z M762.7,235.2c0,3.7-0.6,7.3-1.7,10.8
	c-0.3,0.9-0.6,1.8-1,2.6c-1.8-0.3-3.4-1-4.8-2.1c-1.5-1-2.7-2.3-3.6-3.9c-0.7-1.6-1.3-3.3-1.8-5c-1.6-3.9-5.3-6.7-9.5-7.2
	c1.2,2-0.7,4.6-2.9,5s-4.4-1-6-2.7s-2.7-3.7-4.2-5.4s-3.7-3-6-2.7c-2,0.3-3.5,1.8-5.2,2.9s-4,1.9-5.6,0.7c-0.9-0.7-1.3-1.8-2.2-2.5
	c-2.2-1.9-5.7,0.1-7.3,2.4c-2.5,3.7-4,5.9-7.3,7.6v-0.6c-0.3-19.1,14.9-34.9,34-35.2c19.1-0.3,34.9,14.9,35.2,34
	C762.7,234.4,762.7,234.8,762.7,235.2L762.7,235.2z"/>
<path class="st19" d="M700.8,227.2c1.6-2.4,5.1-4.3,7.3-2.4c0.9,0.7,1.3,1.9,2.2,2.5c1.6,1.2,3.9,0.5,5.6-0.7s3.2-2.6,5.2-2.9
	c2.3-0.3,4.4,1,6,2.7s2.7,3.7,4.2,5.4s3.7,3,6,2.7s4.1-3,2.9-5c4.2,0.5,7.9,3.3,9.5,7.2c0.5,1.7,1.1,3.4,1.8,5
	c0.9,1.5,2.2,2.9,3.6,3.9c1.8,1.3,4.1,2.5,6.3,2.1s4.1-3,3.1-5c0.7,1.1,2.3-0.4,2.5-1.7c0.5-2.8,0.4-5.7-0.5-8.4
	c-1.1-3.7-3.4-7.4-2.5-11.2c0.7-3,3.3-5.1,4.8-7.8c2.8-4.7,2-11-1.3-15.3c-3.5-4.3-8.9-6.6-14.4-6.3c-1.5,0.2-3,0.2-4.5,0.1
	c-2.5-0.4-4.6-2-6.6-3.6l-16.8-13.1c-1.9-1.6-4-2.9-6.3-3.8c-2.4-0.7-5.2-0.5-7,1.3c-3.1,3.1-1.2,8.5-2.4,12.8
	c-1.1,3.7-4.6,6.2-8.2,7.4s-7.5,1.5-11.3,2.4c-1.1,0.2-2.1,0.7-3,1.4c-1,1.2-1.4,2.7-1.3,4.3c0,3.8,0.9,7.5,2.6,10.8
	c1.9,3.7,5,7.6,3.9,11.6c-0.6,2.1-2.2,3.8-3.7,5.5c-3.2,3.6-4.2,9,1.7,7.1C695.9,234.3,697.5,232,700.8,227.2L700.8,227.2z"/>
<g class="st15">
	<path d="M767,236.9c-0.2,1.3-1.8,2.8-2.5,1.7c1,2-0.9,4.6-3.1,5s-4.5-0.7-6.3-2.1c-1.5-1-2.7-2.3-3.6-3.9c-0.7-1.6-1.3-3.3-1.8-5
		c-1.6-3.9-5.3-6.7-9.5-7.2c1.2,2-0.7,4.6-2.9,5s-4.4-1-6-2.7s-2.7-3.7-4.2-5.4s-3.7-3-6-2.7c-2,0.3-3.5,1.8-5.2,2.9s-4,1.9-5.6,0.7
		c-0.9-0.7-1.3-1.8-2.2-2.5c-2.2-1.9-5.7,0.1-7.3,2.4c-3.2,4.8-4.8,7.1-10.6,8.9c-1.9,0.6-3.1,0.5-3.7-0.1c-1.3,2.9-0.7,5.4,3.7,4.1
		c5.7-1.8,7.3-4.2,10.6-8.9c1.6-2.4,5.1-4.3,7.3-2.4c0.9,0.7,1.3,1.9,2.2,2.5c1.6,1.2,3.9,0.5,5.6-0.7s3.2-2.6,5.2-2.9
		c2.3-0.3,4.4,1,6,2.7s2.7,3.7,4.2,5.4s3.7,3,6,2.7s4.1-3,2.9-5c4.2,0.5,7.9,3.2,9.5,7.2c0.5,1.7,1.1,3.4,1.8,5
		c0.9,1.5,2.1,2.9,3.6,3.9c1.8,1.3,4.1,2.5,6.3,2.1s4.1-3,3.1-5c0.7,1.1,2.3-0.4,2.5-1.7c0.3-1.7,0.4-3.5,0.2-5.2
		C767.1,236.1,767,236.5,767,236.9L767,236.9z M692.1,219.7c0-0.1,0-0.1,0-0.1c1.1-4.1-2-7.9-3.9-11.6c-1.4-2.6-2.2-5.5-2.5-8.4
		c-0.1,0.5-0.1,1-0.1,1.6c0,3.8,0.9,7.5,2.6,10.8C689.6,214.4,691.4,217,692.1,219.7z M768.8,209.5c-1.5,2.6-4.1,4.8-4.8,7.8
		c-0.3,1.3-0.3,2.6,0,3.8c0.7-2.9,3.2-5.1,4.8-7.7c1.5-2.6,2-5.5,1.5-8.4C770.1,206.6,769.6,208.2,768.8,209.5z"/>
</g>
<path class="st20" d="M200.1,659.2l2.6,4.8l86.2-18.3l-3.4-5.4L200.1,659.2L200.1,659.2z"/>
<path class="st20" d="M189.8,663.8l-13.1-77.5c-0.2-1.3,0.7-2.6,2-2.8c0.1,0,0.1,0,0.2,0l99-10.6c1.3-0.1,2.5,0.8,2.7,2.1l9.3,67.8
	L189.8,663.8z"/>
<path class="st6" d="M189.8,663.8l-13.1-77.5c-0.2-1.3,0.7-2.6,2-2.8c0.1,0,0.1,0,0.2,0l99-10.6c1.3-0.1,2.5,0.8,2.7,2.1l9.3,67.8
	L189.8,663.8z"/>
<path class="st20" d="M191.3,663.8l-13-77.5c-0.2-1.3,0.7-2.6,2-2.8c0.1,0,0.1,0,0.2,0l99-10.6c1.3-0.1,2.5,0.8,2.7,2.1l9.3,67.8
	L191.3,663.8z"/>
<path class="st1" d="M185.1,589.8l10.7,65.8l89.5-18.4l-8.3-58.5L185.1,589.8L185.1,589.8z"/>
<path class="st21" d="M202.3,662.4l-0.6-1.3l-11.9,2.7l30.2,46.1c0.9,1.4,2.7,2.1,4.4,1.6l106-30.8c2.1-0.6,3.3-2.7,2.7-4.8
	c-0.2-0.8-0.7-1.6-1.4-2.1l-41.1-31.1l-8.6,2l0.4,0.9L202.3,662.4z"/>
<path class="st6" d="M202.3,662.4l-0.6-1.3l-11.9,2.7l30.2,46.1c0.9,1.4,2.7,2.1,4.4,1.6l106-30.8c2.1-0.6,3.3-2.7,2.7-4.8
	c-0.2-0.8-0.7-1.6-1.4-2.1l-41.1-31.1l-8.6,2l0.4,0.9L202.3,662.4z"/>
<path class="st21" d="M203.8,662.4l-0.6-1.3l-11.9,2.7l30.2,46.1c0.9,1.4,2.7,2.1,4.4,1.6l106-30.8c2.1-0.6,3.3-2.8,2.7-4.8
	c-0.2-0.8-0.7-1.5-1.4-2l-41.1-31.1l-8.6,2l0.4,0.9L203.8,662.4z"/>
<path class="st6" d="M251.1,681.3l34.1-8.8c0.2-0.1,0.4,0,0.6,0.2l15.1,13.7c0.3,0.2,0.3,0.7,0,0.9c-0.1,0.1-0.2,0.2-0.3,0.2
	l-36,10.6c-0.3,0.1-0.5,0-0.7-0.2l-13.2-15.5c-0.2-0.3-0.2-0.7,0.1-0.9C250.9,681.4,251,681.4,251.1,681.3L251.1,681.3z"/>
<path class="st22" d="M251.8,680.6l34.1-8.8c0.2-0.1,0.4,0,0.6,0.2l15.1,13.7c0.3,0.2,0.3,0.7,0,0.9c-0.1,0.1-0.2,0.2-0.3,0.2
	l-36,10.6c-0.2,0.1-0.5,0-0.7-0.2l-13.2-15.5c-0.2-0.3-0.2-0.7,0.1-0.9C251.7,680.6,251.7,680.6,251.8,680.6L251.8,680.6z"/>
<g class="st15">
	<path d="M203.9,668.8l1.5,2.5c0.1,0.1,0.2,0.2,0.3,0.1l5.2-1.2c0.2,0,0.3-0.2,0.2-0.4c0,0,0-0.1,0-0.1l-1.7-2.3
		c-0.1-0.1-0.2-0.1-0.3-0.1l-5,1.1C203.9,668.5,203.8,668.7,203.9,668.8C203.9,668.8,203.9,668.8,203.9,668.8L203.9,668.8z
		 M210.6,667.5l1.5,2.5c0.1,0.1,0.2,0.2,0.3,0.1l5.2-1.2c0.2,0,0.3-0.2,0.2-0.4c0,0,0-0.1,0-0.1l-1.7-2.4c-0.1-0.1-0.2-0.1-0.3-0.1
		l-5,1.1C210.6,667,210.5,667.2,210.6,667.5C210.6,667.4,210.6,667.4,210.6,667.5L210.6,667.5z M217.2,666l1.5,2.5
		c0.1,0.1,0.2,0.2,0.3,0.1l5.2-1.2c0.2,0,0.3-0.2,0.2-0.3c0,0,0-0.1,0-0.1l-1.7-2.4c-0.1-0.1-0.2-0.1-0.3-0.1l-5,1.1
		C217.2,665.6,217.1,665.8,217.2,666C217.1,666,217.2,666,217.2,666L217.2,666z M223.6,664.6l1.5,2.4c0.1,0.1,0.2,0.2,0.3,0.1
		l5.1-1.1c0.2,0,0.3-0.2,0.2-0.4c0,0,0-0.1-0.1-0.1l-1.7-2.3c-0.1-0.1-0.2-0.2-0.3-0.1l-4.9,1.1
		C223.6,664.2,223.5,664.4,223.6,664.6C223.6,664.6,223.6,664.6,223.6,664.6L223.6,664.6z M223.1,668.4l1.5,2.4
		c0.1,0.1,0.2,0.2,0.3,0.1l5.2-1.2c0.2,0,0.3-0.2,0.2-0.4c0,0,0-0.1,0-0.1l-1.7-2.4c-0.1-0.1-0.2-0.1-0.3-0.1l-5,1.1
		c-0.2,0-0.3,0.2-0.2,0.3C223,668.3,223.1,668.4,223.1,668.4L223.1,668.4z M216.4,669.8l1.5,2.5c0.1,0.1,0.2,0.2,0.3,0.1l5.2-1.2
		c0.2,0,0.3-0.2,0.2-0.4c0,0,0-0.1,0-0.1l-1.7-2.4c-0.1-0.1-0.2-0.1-0.3-0.1l-5,1.1C216.4,669.4,216.3,669.6,216.4,669.8
		C216.4,669.8,216.4,669.8,216.4,669.8L216.4,669.8z M220.8,672.8l1.5,2.5c0.1,0.1,0.2,0.2,0.3,0.1l5.2-1.2c0.2,0,0.3-0.2,0.2-0.4
		c0,0,0-0.1,0-0.1l-1.7-2.4c-0.1-0.1-0.2-0.1-0.3-0.1l-5,1.1C220.8,672.4,220.7,672.6,220.8,672.8
		C220.7,672.8,220.7,672.8,220.8,672.8L220.8,672.8z M226.9,675.5l1.5,2.5c0.1,0.1,0.2,0.2,0.3,0.1l5.2-1.2c0.2,0,0.3-0.2,0.2-0.3
		c0,0,0-0.1-0.1-0.1l-1.7-2.4c-0.1-0.1-0.2-0.1-0.3-0.1l-5,1.1C226.9,675.1,226.8,675.2,226.9,675.5
		C226.9,675.4,226.9,675.5,226.9,675.5L226.9,675.5z M228,679.8l2.5,3.1c0.1,0.1,0.2,0.1,0.3,0.1l5.2-1.3c0.2,0,0.2-0.2,0.2-0.4
		c0,0,0-0.1-0.1-0.1l-2.6-3.1c-0.1-0.1-0.2-0.1-0.3-0.1l-5.1,1.4c-0.2,0-0.3,0.2-0.2,0.4C227.9,679.7,227.9,679.7,228,679.8
		L228,679.8z M234.8,678.1l2.5,3.2c0.1,0.1,0.2,0.1,0.3,0.1l6.8-1.9c0.2,0,0.2-0.2,0.2-0.4c0,0,0-0.1-0.1-0.1l-2.6-3.1
		c-0.1-0.1-0.2-0.1-0.3-0.1l-6.8,1.8c-0.2,0-0.2,0.2-0.2,0.4C234.7,678,234.8,678,234.8,678.1L234.8,678.1z M221.3,681.4l2.5,3.1
		c0.1,0.1,0.2,0.1,0.3,0.1l5.2-1.3c0.2,0,0.2-0.2,0.2-0.4c0,0,0-0.1-0.1-0.1l-2.6-3.1c-0.1-0.1-0.2-0.1-0.3-0.1l-5.1,1.4
		c-0.2,0-0.3,0.2-0.2,0.4C221.3,681.3,221.3,681.4,221.3,681.4L221.3,681.4z M214.3,683.2l2.5,3.1c0.1,0.1,0.2,0.1,0.3,0.1l5.2-1.3
		c0.2,0,0.2-0.2,0.2-0.4c0,0,0-0.1-0.1-0.1l-2.6-3.1c-0.1-0.1-0.2-0.1-0.3-0.1l-5.1,1.4c-0.2,0-0.2,0.2-0.2,0.3
		C214.3,683.2,214.3,683.2,214.3,683.2L214.3,683.2z M230.1,663.1l1.5,2.4c0.1,0.1,0.2,0.2,0.3,0.1l5.1-1.1c0.2,0,0.3-0.2,0.2-0.4
		c0,0,0-0.1,0-0.1l-1.7-2.3c-0.1-0.1-0.2-0.2-0.3-0.1l-4.9,1.1c-0.2,0-0.3,0.2-0.3,0.4C230,663,230.1,663.1,230.1,663.1L230.1,663.1
		z M229.7,666.9l1.5,2.4c0.1,0.1,0.2,0.2,0.3,0.1l5.1-1.1c0.2,0,0.3-0.2,0.2-0.4c0,0,0-0.1-0.1-0.1l-1.7-2.3
		c-0.1-0.1-0.2-0.2-0.3-0.1l-4.9,1.1C229.7,666.5,229.6,666.6,229.7,666.9C229.6,666.8,229.6,666.9,229.7,666.9L229.7,666.9z
		 M236.3,661.7l1.5,2.4c0.1,0.1,0.2,0.2,0.3,0.1l5.2-1.1c0.2,0,0.3-0.2,0.2-0.4c0,0,0-0.1-0.1-0.1l-1.7-2.3
		c-0.1-0.1-0.2-0.1-0.3-0.1l-4.9,1.1c-0.2,0-0.3,0.2-0.3,0.4C236.3,661.6,236.3,661.7,236.3,661.7z M254.7,657.7l2.1,2.3
		c0.1,0.1,0.2,0.1,0.2,0.1l4.6-1.1c0.1,0,0.2-0.2,0.2-0.3c0-0.1,0-0.1-0.1-0.1l-2.4-2.3c-0.1-0.1-0.1-0.1-0.2-0.1l-4.3,1.1
		c-0.1,0-0.2,0.2-0.2,0.3C254.6,657.6,254.7,657.7,254.7,657.7L254.7,657.7z M260.5,656.3l2.1,2.3c0.1,0.1,0.2,0.1,0.2,0.1l4.6-1.1
		c0.1,0,0.2-0.2,0.2-0.3c0-0.1,0-0.1-0.1-0.1l-2.4-2.3c-0.1-0.1-0.1-0.1-0.2-0.1l-4.3,1.1c-0.1,0-0.2,0.2-0.2,0.3
		C260.5,656.3,260.5,656.3,260.5,656.3z M254.8,661.4l2.1,2.3c0.1,0.1,0.2,0.1,0.2,0.1l4.6-1.1c0.1,0,0.2-0.2,0.2-0.3
		c0-0.1,0-0.1-0.1-0.1l-2.4-2.3c-0.1-0.1-0.2-0.1-0.2-0.1l-4.3,1.1C254.8,661,254.7,661.1,254.8,661.4
		C254.8,661.3,254.8,661.3,254.8,661.4L254.8,661.4z M248.8,662.8l2,2.2c0.1,0.1,0.2,0.1,0.3,0.1l4.4-1c0.2,0,0.3-0.2,0.2-0.4
		c0-0.1,0-0.1-0.1-0.2l-2.3-2.2c-0.1-0.1-0.2-0.1-0.3-0.1l-4.2,1c-0.2,0-0.3,0.2-0.2,0.4C248.7,662.7,248.8,662.7,248.8,662.8
		L248.8,662.8z M253.4,669.6l2,2.2c0.1,0.1,0.2,0.1,0.3,0.1l4.4-1c0.2,0,0.3-0.2,0.2-0.4c0-0.1,0-0.1-0.1-0.2l-2.3-2.2
		c-0.1-0.1-0.2-0.1-0.3-0.1l-4.2,1c-0.2,0.1-0.3,0.2-0.2,0.4C253.3,669.5,253.3,669.5,253.4,669.6L253.4,669.6z M247.1,671l2,2.2
		c0.1,0.1,0.2,0.1,0.3,0.1l4.4-1c0.2,0,0.3-0.2,0.2-0.4c0-0.1,0-0.1-0.1-0.2l-2.3-2.2c-0.1-0.1-0.2-0.1-0.3-0.1l-4.2,1
		c-0.2,0.1-0.3,0.2-0.2,0.4C247,670.9,247.1,670.9,247.1,671L247.1,671z M240.7,672.6l2,2.2c0.1,0.1,0.2,0.1,0.3,0.1l4.4-1
		c0.2,0,0.3-0.2,0.2-0.4c0-0.1,0-0.1-0.1-0.2l-2.3-2.2c-0.1-0.1-0.2-0.1-0.3-0.1l-4.2,1c-0.2,0-0.3,0.2-0.2,0.4
		C240.6,672.5,240.7,672.5,240.7,672.6L240.7,672.6z M234,673.9l2.1,2.2c0.1,0.1,0.2,0.1,0.3,0.1l4.5-1c0.2,0,0.3-0.2,0.2-0.4
		c0,0,0-0.1-0.1-0.1l-2.3-2.2c-0.1-0.1-0.2-0.1-0.3-0.1l-4.2,1c-0.2,0-0.3,0.2-0.2,0.4C233.9,673.8,234,673.9,234,673.9z M247,667
		l2,2.2c0.1,0.1,0.2,0.1,0.3,0.1l4.4-1c0.2,0,0.3-0.2,0.2-0.4c0-0.1,0-0.1-0.1-0.1l-2.3-2.2c-0.1-0.1-0.2-0.1-0.3-0.1l-4.2,1
		c-0.2,0.1-0.3,0.2-0.2,0.4C247,667,247,667,247,667L247,667z M240.9,668.5l2,2.2c0.1,0.1,0.2,0.1,0.3,0.1l4.4-1
		c0.2,0,0.3-0.2,0.2-0.4c0-0.1,0-0.1-0.1-0.2l-2.3-2.2c-0.1-0.1-0.2-0.1-0.3-0.1l-4.2,1c-0.2,0.1-0.2,0.2-0.2,0.4
		C240.9,668.4,240.9,668.4,240.9,668.5L240.9,668.5z M234.3,669.8l2,2.2c0.1,0.1,0.2,0.1,0.3,0.1l4.4-1c0.2,0,0.3-0.2,0.2-0.4
		c0-0.1,0-0.1-0.1-0.2l-2.3-2.2c-0.1-0.1-0.2-0.1-0.3-0.1l-4.2,1c-0.2,0-0.3,0.2-0.2,0.4C234.3,669.7,234.3,669.8,234.3,669.8z
		 M227.7,671.4l2.1,2.2c0.1,0.1,0.2,0.1,0.3,0.1l4.5-1c0.2,0,0.3-0.2,0.2-0.4c0-0.1,0-0.1-0.1-0.1l-2.3-2.2
		c-0.1-0.1-0.2-0.1-0.3-0.1l-4.2,1c-0.2,0-0.3,0.2-0.3,0.3C227.6,671.3,227.6,671.3,227.7,671.4L227.7,671.4z M253.3,665.6l2,2.2
		c0.1,0.1,0.2,0.1,0.3,0.1l4.4-1c0.2,0,0.3-0.2,0.2-0.4c0-0.1,0-0.1-0.1-0.2l-2.3-2.2c-0.1-0.1-0.2-0.1-0.3-0.1l-4.2,1
		c-0.2,0.1-0.3,0.2-0.2,0.4C253.3,665.5,253.3,665.5,253.3,665.6L253.3,665.6z M242.6,664.3l2,2.2c0.1,0.1,0.2,0.1,0.3,0.1l4.4-1
		c0.2,0,0.3-0.2,0.2-0.4c0-0.1,0-0.1-0.1-0.2l-2.3-2.2c-0.1-0.1-0.2-0.1-0.3-0.1l-4.2,1c-0.2,0-0.3,0.2-0.3,0.4
		C242.5,664.2,242.6,664.3,242.6,664.3z M266.2,654.9l2.2,2.4c0.1,0,0.1,0,0.2,0l4.7-1.1c0.1,0,0.2-0.1,0.1-0.2c0,0,0-0.1-0.1-0.1
		l-2.5-2.4c0,0-0.1-0.1-0.2,0l-4.4,1.1c-0.1,0-0.2,0.1-0.2,0.2C266.1,654.8,266.1,654.9,266.2,654.9L266.2,654.9z M271.9,653.7
		l2.2,2.4c0.1,0,0.1,0,0.2,0l4.7-1.1c0.1,0,0.2-0.1,0.1-0.2c0,0,0-0.1-0.1-0.1l-2.5-2.4c0,0-0.1-0.1-0.2,0l-4.4,1.1
		c-0.1,0-0.2,0-0.2,0.2C271.8,653.5,271.8,653.6,271.9,653.7L271.9,653.7z M277.8,652.3l2,2.2c0,0.1,0.1,0.1,0.2,0l4.4-1.2
		c0.1,0,0.2-0.1,0.1-0.2c0,0,0-0.1-0.1-0.1l-2.3-1.9c-0.1,0-0.1,0-0.2,0l-4.2,0.9C277.7,652.1,277.7,652.2,277.8,652.3
		C277.8,652.3,277.8,652.3,277.8,652.3L277.8,652.3z M283.9,654.3l2,2.2c0.1,0,0.1,0,0.2,0l4.4-1.2c0.1,0,0.2-0.1,0.1-0.2
		c0,0,0-0.1-0.1-0.1l-2.3-1.9c-0.1,0-0.1,0-0.2,0l-4.2,0.9C283.9,654.1,283.9,654.2,283.9,654.3
		C283.9,654.3,283.9,654.3,283.9,654.3z M283.2,658.3l1.9,2.1c0.1,0.1,0.2,0.1,0.3,0.1l4.2-1.2c0.1,0,0.2-0.2,0.2-0.3
		c0,0,0-0.1-0.1-0.1l-2.2-1.8c-0.1,0-0.1,0-0.2,0l-4,0.9C283.2,658,283.1,658.1,283.2,658.3C283.2,658.3,283.2,658.3,283.2,658.3
		L283.2,658.3z M278.2,663.4l1.9,2.1c0.1,0.1,0.2,0.1,0.3,0.1l4.2-1.2c0.1,0,0.2-0.2,0.2-0.3c0,0,0-0.1-0.1-0.1l-2.2-1.8
		c-0.1-0.1-0.1-0.1-0.2,0l-4,0.9c-0.1,0-0.2,0.1-0.2,0.3C278.1,663.3,278.1,663.4,278.2,663.4L278.2,663.4z M272.1,665l1.9,2.1
		c0.1,0.1,0.2,0.1,0.3,0.1l4.2-1.2c0.1,0,0.2-0.2,0.2-0.3c0,0,0-0.1-0.1-0.1l-2.2-1.8c-0.1,0-0.1-0.1-0.2-0.1l-4,0.9
		c-0.1,0-0.2,0.1-0.2,0.3C272.1,664.9,272.1,665,272.1,665L272.1,665z M283.8,661.9l1.9,2.1c0.1,0.1,0.2,0.1,0.3,0.1l4.2-1.2
		c0.1,0,0.2-0.2,0.2-0.3c0,0,0-0.1-0.1-0.1l-2.2-1.8c-0.1-0.1-0.1-0.1-0.2,0l-4,0.9c-0.1,0-0.2,0.2-0.2,0.3
		C283.8,661.9,283.8,661.9,283.8,661.9L283.8,661.9z M282.9,666.4l2.9,2.6c0.1,0,0.2,0,0.2,0l4.2-1.2c0.1,0,0.2-0.2,0.2-0.3
		c0,0,0-0.1-0.1-0.1l-3.1-2.8c-0.1,0-0.2,0-0.3,0l-4,1.3C282.8,666.1,282.7,666.2,282.9,666.4C282.8,666.4,282.8,666.4,282.9,666.4z
		 M272.7,657.2l2,2.2c0.1,0,0.1,0.1,0.2,0.1l4.4-1.2c0.1,0,0.2-0.2,0.1-0.3c0,0,0-0.1,0-0.1l-2.3-1.9c0,0-0.1,0-0.2,0l-4.2,0.9
		C272.6,657,272.6,657.1,272.7,657.2C272.7,657.2,272.7,657.2,272.7,657.2z M267,658.6l1.9,2.1c0.1,0.1,0.2,0.1,0.3,0.1l4.2-1.2
		c0.1,0,0.2-0.2,0.2-0.3c0,0,0-0.1-0.1-0.1l-2.2-1.8c-0.1,0-0.1,0-0.2,0l-4,0.9C267,658.3,266.9,658.4,267,658.6
		C267,658.6,267,658.6,267,658.6L267,658.6z M265.8,662.6l1.9,2.1c0.1,0.1,0.2,0.1,0.3,0.1l4.3-1.2c0.1,0,0.2-0.2,0.2-0.3
		c0,0,0-0.1-0.1-0.1l-2.1-1.8c-0.1,0-0.2,0-0.2,0l-4,0.9C265.8,662.3,265.7,662.4,265.8,662.6C265.8,662.6,265.8,662.6,265.8,662.6z
		 M259.8,664.1l1.9,2.1c0.1,0.1,0.2,0.1,0.3,0.1l4.3-1.2c0.1,0,0.2-0.2,0.2-0.3c0,0,0-0.1-0.1-0.1l-2.1-1.8c-0.1,0-0.2,0-0.2,0
		l-4,0.9C259.8,663.8,259.8,663.9,259.8,664.1C259.8,664,259.8,664.1,259.8,664.1z M260.9,660l1.9,2.1c0.1,0.1,0.2,0.1,0.3,0.1
		l4.2-1.2c0.1,0,0.2-0.2,0.2-0.3c0,0,0-0.1-0.1-0.1l-2.1-1.8c-0.1,0-0.1-0.1-0.2-0.1l-4,0.9c-0.1,0-0.2,0.2-0.2,0.3
		C260.8,659.9,260.9,659.9,260.9,660L260.9,660z M265.9,666.3l1.9,2.1c0.1,0.1,0.2,0.1,0.3,0.1l4.2-1.2c0.1,0,0.2-0.2,0.2-0.3
		c0,0,0-0.1-0.1-0.1l-2.1-1.8c-0.1,0-0.1,0-0.2,0l-4,0.9c-0.1,0-0.2,0.1-0.2,0.2C265.9,666.3,265.9,666.3,265.9,666.3z M260,667.9
		l1.8,2c0.1,0.1,0.2,0.1,0.3,0.1l4.1-1.1c0.2,0,0.3-0.2,0.2-0.4c0-0.1-0.1-0.1-0.1-0.2l-2-1.7c-0.1-0.1-0.2-0.1-0.3-0.1l-3.9,0.9
		c-0.2,0-0.3,0.2-0.3,0.4C260,667.9,260,667.9,260,667.9L260,667.9z M278.5,655.7l2,2.2c0,0.1,0.1,0.1,0.2,0.1l4.4-1.2
		c0.1,0,0.2-0.2,0.1-0.3c0,0,0-0.1,0-0.1l-2.3-1.9c-0.1,0-0.1,0-0.2,0l-4.2,0.9C278.4,655.5,278.4,655.6,278.5,655.7
		C278.5,655.7,278.5,655.7,278.5,655.7z M277.7,659.7l1.9,2.1c0.1,0.1,0.2,0.1,0.3,0.1l4.3-1.2c0.1,0,0.2-0.2,0.2-0.3
		c0,0,0-0.1-0.1-0.1l-2.1-1.8c-0.1-0.1-0.1-0.1-0.2,0l-4,0.9c-0.1,0-0.2,0.1-0.2,0.3C277.6,659.6,277.6,659.7,277.7,659.7z
		 M271.9,661.3l1.9,2.1c0.1,0.1,0.2,0.1,0.3,0.1l4.2-1.2c0.1,0,0.2-0.2,0.2-0.3c0,0,0-0.1-0.1-0.1l-2.1-1.8c-0.1-0.1-0.1-0.1-0.2,0
		l-4,0.9c-0.1,0-0.2,0.2-0.2,0.3C271.8,661.2,271.9,661.2,271.9,661.3L271.9,661.3z M248.7,659l2.1,2.3c0.1,0.1,0.2,0.1,0.2,0.1
		l4.6-1c0.1,0,0.2-0.2,0.2-0.3c0-0.1,0-0.1-0.1-0.1l-2.4-2.3c-0.1-0.1-0.1-0.1-0.2-0.1l-4.3,1.1C248.7,658.7,248.6,658.8,248.7,659
		C248.7,659,248.7,659,248.7,659L248.7,659z M242.6,660.5l2,2.2c0.1,0.1,0.2,0.1,0.3,0.1l4.4-1c0.2,0,0.3-0.2,0.2-0.4
		c0-0.1,0-0.1-0.1-0.2l-2.3-2.2c-0.1-0.1-0.2-0.1-0.3-0.1l-4.2,1c-0.2,0.1-0.3,0.2-0.2,0.4C242.5,660.4,242.6,660.5,242.6,660.5
		L242.6,660.5z M236.1,665.5l1.5,2.4c0.1,0.1,0.2,0.2,0.3,0.1l5.1-1.1c0.2,0,0.3-0.2,0.2-0.4c0,0,0-0.1,0-0.1l-1.7-2.3
		c-0.1-0.1-0.2-0.1-0.3-0.1l-4.9,1.1c-0.2,0-0.3,0.2-0.2,0.4C236,665.5,236,665.5,236.1,665.5L236.1,665.5z M202.6,666.5l5.1-1.2
		c0.1,0,0.2,0,0.3,0.1l0.9,1.2c0.1,0.1,0.1,0.3-0.1,0.4c0,0-0.1,0-0.1,0.1l-5.2,1.2c-0.1,0-0.3,0-0.3-0.1l-0.7-1.2
		C202.3,666.7,202.3,666.6,202.6,666.5C202.5,666.5,202.5,666.5,202.6,666.5L202.6,666.5z M209.5,664.9l5.1-1.2c0.1,0,0.2,0,0.3,0.1
		l0.9,1.2c0.1,0.1,0.1,0.3-0.1,0.4c0,0-0.1,0-0.1,0.1l-5.3,1.2c-0.1,0-0.3,0-0.3-0.1l-0.7-1.2C209.2,665.2,209.3,665.1,209.5,664.9
		C209.4,665,209.5,664.9,209.5,664.9z M216.2,663.5l5.1-1.2c0.1,0,0.2,0,0.3,0.1l0.9,1.2c0.1,0.1,0.1,0.3-0.1,0.4c0,0-0.1,0-0.1,0.1
		l-5.2,1.2c-0.1,0-0.3,0-0.3-0.1l-0.7-1.2C215.9,663.8,216,663.6,216.2,663.5C216.2,663.5,216.2,663.5,216.2,663.5L216.2,663.5z
		 M222.7,662l5-1.2c0.1,0,0.2,0,0.3,0.1l0.9,1.2c0.1,0.1,0.1,0.3-0.1,0.4c0,0-0.1,0-0.1,0.1l-5.2,1.3c-0.1,0-0.3,0-0.3-0.1l-0.7-1.2
		c-0.1-0.1-0.1-0.3,0.1-0.4C222.6,662,222.7,662,222.7,662z M229.4,660.5l5-1.2c0.1,0,0.2,0,0.3,0.1l0.9,1.1
		c0.1,0.1,0.1,0.3-0.1,0.4c0,0-0.1,0-0.1,0.1l-5.2,1.2c-0.1,0-0.3,0-0.3-0.2l-0.7-1.2C229.1,660.9,229.2,660.7,229.4,660.5
		C229.3,660.6,229.4,660.5,229.4,660.5L229.4,660.5z M235.9,659.2l5-1.2c0.1,0,0.2,0,0.3,0.1l0.9,1.1c0.1,0.1,0.1,0.3-0.1,0.4
		c0,0-0.1,0-0.1,0.1l-5.2,1.2c-0.1,0-0.3,0-0.3-0.2l-0.7-1.2C235.5,659.5,235.6,659.3,235.9,659.2
		C235.8,659.2,235.8,659.2,235.9,659.2L235.9,659.2z M242.2,657.9l4.6-1.1c0.1,0,0.2,0,0.3,0.1l0.9,1c0.1,0.1,0.1,0.3,0,0.5
		c0,0-0.1,0.1-0.1,0.1l-4.5,1.1c-0.1,0-0.2,0-0.3-0.1l-0.9-1C242,658.2,242,658,242.2,657.9C242.1,657.9,242.1,657.9,242.2,657.9
		L242.2,657.9z M248.3,656.5l4.8-1.2c0.1,0,0.2,0,0.2,0.1l1,1c0.1,0.1,0.1,0.3,0,0.4c0,0-0.1,0.1-0.1,0.1l-4.7,1.2
		c-0.1,0-0.2,0-0.2-0.1l-1.1-1.1c-0.1-0.1-0.1-0.3,0-0.4C248.2,656.5,248.3,656.5,248.3,656.5z M254.4,655l4.8-1.2
		c0.1,0,0.2,0,0.3,0.1l1,1c0.1,0.1,0.1,0.3,0,0.4c0,0-0.1,0.1-0.1,0.1l-4.7,1.2c-0.1,0-0.2,0-0.2-0.1l-1.1-1c-0.1-0.1-0.1-0.3,0-0.4
		C254.3,655.1,254.4,655,254.4,655z M260.5,653.8l4.8-1.2c0.1,0,0.2,0,0.2,0.1l1,1c0.1,0.1,0.1,0.3,0,0.4c0,0-0.1,0.1-0.1,0.1
		l-4.7,1.2c-0.1,0-0.2,0-0.2-0.1l-1-1.1C260.4,654,260.4,653.9,260.5,653.8C260.5,653.8,260.5,653.8,260.5,653.8z M266.3,652.4
		l4.9-1.2c0.1,0,0.1,0,0.2,0l1.1,1.2c0.1,0.1,0.1,0.2,0,0.3c0,0,0,0-0.1,0l-4.9,1.2c-0.1,0-0.1,0-0.2,0l-1.2-1.2
		C266.2,652.6,266.2,652.4,266.3,652.4C266.3,652.4,266.3,652.4,266.3,652.4L266.3,652.4z M272.2,651.1l4.9-1.2c0.1,0,0.1,0,0.2,0
		l1.1,1.2c0.1,0.1,0.1,0.2,0,0.3c0,0-0.1,0-0.1,0.1l-4.9,1.2c-0.1,0-0.1,0-0.2,0l-1.2-1.2C272.1,651.3,272.1,651.2,272.2,651.1
		C272.2,651.1,272.2,651.1,272.2,651.1z M278,649.8l4.5-1c0.1,0,0.1,0,0.2,0.1l0.9,1.1c0.1,0.1,0.1,0.2,0,0.3c0,0,0,0-0.1,0l-4.3,1
		c-0.1,0-0.1,0-0.2,0l-1.1-1.2C277.9,650.1,277.9,649.9,278,649.8C278,649.9,278,649.8,278,649.8z M283.6,648.5l4.5-1
		c0.1,0,0.1,0,0.2,0.1l0.9,1.1c0.1,0.1,0.1,0.2,0,0.3c0,0-0.1,0-0.1,0l-4.3,1.1c-0.1,0-0.1,0-0.2,0l-1.1-1.2c-0.1-0.1-0.1-0.2,0-0.3
		C283.5,648.5,283.6,648.5,283.6,648.5z M206.1,672.5l1.7,2.4c0.1,0.1,0.2,0.1,0.3,0.1l8.8-2c0.2,0,0.3-0.2,0.2-0.3
		c0,0,0-0.1-0.1-0.1l-1.9-2.4c-0.1-0.1-0.2-0.1-0.3-0.1l-8.6,2.1C206.1,672.1,206,672.3,206.1,672.5
		C206.1,672.4,206.1,672.5,206.1,672.5L206.1,672.5z M208.7,675.7l1.7,2.7c0.1,0.1,0.2,0.2,0.3,0.1l10.6-2.5c0.2,0,0.3-0.2,0.2-0.3
		c0,0,0-0.1-0.1-0.1l-2.1-2.6c-0.1-0.1-0.2-0.1-0.3-0.1l-10.2,2.4C208.8,675.3,208.7,675.4,208.7,675.7
		C208.7,675.6,208.7,675.7,208.7,675.7z M211.1,679.2l2.1,2.9c0.1,0.1,0.2,0.1,0.3,0.1l14-3.5c0.2,0,0.3-0.2,0.2-0.4
		c0,0,0-0.1-0.1-0.1l-2.3-2.9c-0.1-0.1-0.2-0.1-0.3-0.1l-13.8,3.5c-0.2,0-0.3,0.2-0.2,0.4C211.1,679.1,211.1,679.2,211.1,679.2z
		 M243.2,676l2.6,3.1c0.1,0.1,0.2,0.1,0.3,0.1l30.8-7.7c0.2,0,0.3-0.2,0.2-0.4c0-0.1,0-0.1-0.1-0.1l-3.1-3.1
		c-0.1-0.1-0.2-0.1-0.3-0.1l-30.2,7.7c-0.2,0.1-0.3,0.2-0.2,0.4C243.1,676,243.2,676,243.2,676L243.2,676z M275,668.1l3,3
		c0.1,0.1,0.2,0.1,0.2,0.1l6.3-1.7c0.1,0,0.2-0.2,0.2-0.3c0,0,0-0.1-0.1-0.1l-3.1-3.1c-0.1-0.1-0.2-0.1-0.2-0.1l-6.2,1.7
		c-0.1,0-0.2,0.2-0.2,0.3C274.9,668,274.9,668,275,668.1z M290.2,666.2l1.4,1.5c0,0.1,0.1,0.1,0.2,0l4.7-1.3c0.1,0,0.2-0.1,0.1-0.2
		c0,0,0-0.1-0.1-0.1l-1.7-1.6c0,0-0.1-0.1-0.2,0l-4.4,1.3c-0.1,0-0.2,0.1-0.2,0.2C290.2,666.1,290.2,666.1,290.2,666.2L290.2,666.2z
		 M294.2,663.1l1.6,1.7c0.1,0,0.1,0,0.2,0l4.3-1.5c0.1,0,0.1-0.1,0.1-0.2c0,0,0-0.1-0.1-0.1l-1.6-1.4c-0.1,0-0.1,0-0.2,0l-4.3,1.2
		c-0.1,0-0.2,0.1-0.2,0.2C294.1,663,294.2,663,294.2,663.1L294.2,663.1z"/>
	<path d="M297.4,666l-1.2-1c-0.1-0.1-0.1-0.2,0-0.3c0,0,0.1-0.1,0.1-0.1l4.3-1.5c0.1,0,0.1,0,0.2,0l1.3,1.3c0.1,0.1,0.1,0.2,0,0.3
		c0,0,0,0-0.1,0l-4.4,1.2C297.5,666,297.4,666,297.4,666z M301.8,663.4c0.4,0.4,1,1.1,1.3,1.3c0.1,0,0.1,0,0.2,0l4.5-1.2
		c0.1,0,0.2-0.1,0.1-0.2c0,0,0-0.1-0.1-0.1l-1.6-1.3c-0.1,0-0.1,0-0.2,0l-4.1,1.3C301.7,663.2,301.7,663.3,301.8,663.4L301.8,663.4z
		 M289.3,660.6l2.4,2.3c0.1,0,0.1,0,0.2,0l11.5-3c0.1,0,0.2-0.1,0.1-0.2c0,0,0-0.1-0.1-0.1l-2.8-2.3c-0.1,0-0.1,0-0.2,0l-11.1,3
		c-0.1,0-0.2,0.1-0.1,0.2C289.2,660.5,289.2,660.6,289.3,660.6L289.3,660.6z M288.5,657l2.5,2.2c0,0,0.1,0,0.2,0l8.6-2
		c0.1,0,0.2-0.1,0.1-0.2c0,0,0-0.1-0.1-0.1l-2.8-2.4c-0.1,0-0.1,0-0.2,0l-8.3,2.2C288.5,656.8,288.4,656.9,288.5,657
		C288.5,657,288.5,657,288.5,657z M289.3,653.3l2.3,2.1c0.1,0,0.1,0,0.2,0l4.4-1c0.1,0,0.2-0.1,0.1-0.2c0,0,0-0.1-0.1-0.1l-2.8-2.4
		c-0.1,0-0.1,0-0.2,0l-4,1.3c-0.1,0-0.2,0.1-0.2,0.2C289.2,653.2,289.3,653.2,289.3,653.3L289.3,653.3z M283.2,651.2l2.3,2
		c0.1,0,0.1,0,0.2,0l7-1.7c0.1,0,0.2-0.1,0.1-0.2c0,0,0-0.1-0.1-0.1L290,649c-0.1,0-0.1,0-0.2,0l-6.5,1.9c-0.1,0-0.2,0-0.2,0.1
		C283.1,651.1,283.1,651.2,283.2,651.2z"/>
</g>
<path class="st20" d="M203.9,668.1l1.5,2.5c0.1,0.1,0.2,0.2,0.3,0.1l5.2-1.2c0.2,0,0.3-0.2,0.2-0.3c0,0,0-0.1,0-0.1l-1.7-2.4
	c-0.1-0.1-0.2-0.1-0.3-0.1l-5,1.1C203.9,667.7,203.8,667.9,203.9,668.1C203.8,668.1,203.9,668.1,203.9,668.1z M210.6,666.7l1.5,2.5
	c0.1,0.1,0.2,0.2,0.3,0.1l5.2-1.2c0.2,0,0.3-0.2,0.2-0.4c0,0,0-0.1,0-0.1l-1.7-2.4c-0.1-0.1-0.2-0.1-0.3-0.1l-5,1.1
	C210.6,666.3,210.5,666.4,210.6,666.7C210.6,666.6,210.6,666.7,210.6,666.7L210.6,666.7z M217.2,665.3l1.5,2.5
	c0.1,0.1,0.2,0.2,0.3,0.1l5.2-1.2c0.2,0,0.3-0.2,0.2-0.4c0,0,0-0.1,0-0.1l-1.7-2.4c-0.1-0.1-0.2-0.1-0.3-0.1l-5,1.1
	C217.2,664.9,217.1,665,217.2,665.3C217.1,665.2,217.2,665.2,217.2,665.3L217.2,665.3z M223.6,663.9l1.5,2.4
	c0.1,0.1,0.2,0.2,0.3,0.1l5.1-1.1c0.2,0,0.3-0.2,0.2-0.4c0,0,0-0.1,0-0.1l-1.7-2.3c-0.1-0.1-0.2-0.2-0.3-0.1l-4.9,1.1
	c-0.2,0-0.3,0.2-0.2,0.4C223.6,663.8,223.6,663.8,223.6,663.9L223.6,663.9z M223.1,667.6l1.5,2.5c0.1,0.1,0.2,0.2,0.3,0.1l5.2-1.2
	c0.2,0,0.3-0.2,0.2-0.4c0,0,0-0.1,0-0.1l-1.7-2.4c-0.1-0.1-0.2-0.1-0.3-0.1l-5,1.1C223.1,667.2,223,667.4,223.1,667.6
	C223.1,667.6,223.1,667.6,223.1,667.6L223.1,667.6z M216.4,669l1.5,2.5c0.1,0.1,0.2,0.2,0.3,0.1l5.2-1.2c0.2,0,0.3-0.2,0.2-0.4
	c0,0,0-0.1,0-0.1l-1.7-2.4c-0.1-0.1-0.2-0.1-0.3-0.1l-5,1.1C216.4,668.6,216.3,668.8,216.4,669C216.4,669,216.4,669,216.4,669
	L216.4,669z M220.8,672.1l1.5,2.5c0.1,0.1,0.2,0.2,0.3,0.1l5.2-1.2c0.2,0,0.3-0.2,0.2-0.3c0,0,0-0.1,0-0.1l-1.7-2.4
	c-0.1-0.1-0.2-0.1-0.3-0.1l-5,1.1C220.8,671.7,220.7,671.8,220.8,672.1C220.7,672,220.7,672.1,220.8,672.1L220.8,672.1z
	 M226.9,674.7l1.5,2.5c0.1,0.1,0.2,0.2,0.3,0.1l5.2-1.2c0.2,0,0.3-0.2,0.2-0.3c0,0,0-0.1-0.1-0.1l-1.7-2.4c-0.1-0.1-0.2-0.1-0.3-0.1
	l-5,1.1C226.9,674.3,226.8,674.5,226.9,674.7C226.9,674.7,226.9,674.7,226.9,674.7L226.9,674.7z M228,679l2.5,3.1
	c0.1,0.1,0.2,0.1,0.3,0.1l5.2-1.3c0.2,0,0.2-0.2,0.2-0.4c0,0,0-0.1-0.1-0.1l-2.6-3.1c-0.1-0.1-0.2-0.1-0.3-0.1l-5.1,1.4
	c-0.2,0-0.3,0.2-0.2,0.4C227.9,678.9,227.9,679,228,679L228,679z M234.8,677.3l2.5,3.2c0.1,0.1,0.2,0.1,0.3,0.1l6.8-1.9
	c0.2,0,0.2-0.2,0.2-0.4c0,0,0-0.1-0.1-0.1l-2.6-3.1c-0.1-0.1-0.2-0.1-0.3-0.1l-6.8,1.8c-0.2,0-0.3,0.2-0.2,0.4
	C234.7,677.2,234.8,677.3,234.8,677.3z M221.3,680.7l2.5,3.1c0.1,0.1,0.2,0.1,0.3,0.1l5.2-1.3c0.2,0,0.2-0.2,0.2-0.4
	c0,0,0-0.1-0.1-0.1l-2.6-3.1c-0.1-0.1-0.2-0.1-0.3-0.1l-5.1,1.4c-0.2,0-0.3,0.2-0.2,0.4C221.3,680.6,221.3,680.6,221.3,680.7
	L221.3,680.7z M214.3,682.5l2.5,3.1c0.1,0.1,0.2,0.1,0.3,0.1l5.2-1.3c0.2,0,0.2-0.2,0.2-0.4c0,0,0-0.1-0.1-0.1l-2.6-3.1
	c-0.1-0.1-0.2-0.1-0.3-0.1l-5.1,1.4c-0.2,0-0.2,0.2-0.2,0.4C214.3,682.4,214.3,682.4,214.3,682.5L214.3,682.5z M230.1,662.4l1.5,2.4
	c0.1,0.1,0.2,0.2,0.3,0.1l5.1-1.1c0.2,0,0.3-0.2,0.2-0.4c0,0,0-0.1-0.1-0.1l-1.7-2.3c-0.1-0.1-0.2-0.2-0.3-0.1l-4.9,1.1
	c-0.2,0-0.3,0.2-0.3,0.3C230,662.3,230,662.3,230.1,662.4L230.1,662.4z M229.7,666.2l1.5,2.4c0.1,0.1,0.2,0.2,0.3,0.2l5.1-1.2
	c0.2,0,0.3-0.2,0.2-0.4c0,0,0-0.1,0-0.1l-1.7-2.3c-0.1-0.1-0.2-0.2-0.3-0.1l-4.9,1.1c-0.2,0-0.3,0.2-0.2,0.4
	C229.6,666.1,229.6,666.1,229.7,666.2L229.7,666.2z M236.3,661l1.5,2.4c0.1,0.1,0.2,0.2,0.3,0.2l5.1-1.2c0.2,0,0.3-0.2,0.2-0.4
	c0,0,0-0.1,0-0.1l-1.7-2.3c-0.1-0.1-0.2-0.1-0.3-0.1l-4.9,1.1c-0.2,0-0.3,0.2-0.2,0.4C236.3,660.9,236.3,660.9,236.3,661z
	 M254.7,656.9l2.1,2.3c0.1,0.1,0.2,0.1,0.2,0.1l4.6-1.1c0.1,0,0.2-0.2,0.2-0.3c0-0.1,0-0.1-0.1-0.1l-2.4-2.3
	c-0.1-0.1-0.1-0.1-0.2-0.1l-4.3,1.1C254.7,656.6,254.6,656.7,254.7,656.9C254.6,656.9,254.7,656.9,254.7,656.9L254.7,656.9z
	 M260.5,655.6l2.1,2.3c0.1,0.1,0.2,0.1,0.2,0.1l4.6-1.1c0.1,0,0.2-0.2,0.2-0.3c0-0.1,0-0.1-0.1-0.1l-2.4-2.3
	c-0.1-0.1-0.1-0.1-0.2-0.1l-4.3,1.1c-0.1,0-0.2,0.2-0.2,0.3C260.5,655.5,260.5,655.6,260.5,655.6z M254.8,660.6l2.1,2.3
	c0.1,0.1,0.2,0.1,0.2,0.1l4.6-1.1c0.1,0,0.2-0.2,0.2-0.3c0-0.1,0-0.1-0.1-0.1l-2.4-2.3c-0.1-0.1-0.2-0.1-0.2-0.1l-4.3,1.1
	C254.8,660.2,254.7,660.4,254.8,660.6C254.8,660.5,254.8,660.6,254.8,660.6L254.8,660.6z M248.8,662l2,2.2c0.1,0.1,0.2,0.1,0.3,0.1
	l4.4-1c0.2,0,0.3-0.2,0.2-0.4c0-0.1,0-0.1-0.1-0.2l-2.3-2.2c-0.1-0.1-0.2-0.1-0.3-0.1l-4.2,1c-0.2,0.1-0.3,0.2-0.2,0.4
	C248.7,661.9,248.8,662,248.8,662L248.8,662z M253.4,668.8l2,2.2c0.1,0.1,0.2,0.1,0.3,0.1l4.4-1c0.2,0,0.3-0.2,0.2-0.4
	c0-0.1,0-0.1-0.1-0.2l-2.3-2.2c-0.1-0.1-0.2-0.1-0.3-0.1l-4.2,1c-0.2,0.1-0.3,0.2-0.2,0.4C253.3,668.7,253.3,668.8,253.4,668.8
	L253.4,668.8z M247.1,670.2l2,2.2c0.1,0.1,0.2,0.1,0.3,0.1l4.4-1c0.2,0,0.3-0.2,0.2-0.4c0-0.1,0-0.1-0.1-0.2l-2.3-2.2
	c-0.1-0.1-0.2-0.1-0.3-0.1l-4.2,1c-0.2,0-0.3,0.2-0.2,0.4C247,670.1,247.1,670.2,247.1,670.2L247.1,670.2z M240.7,671.8l2,2.2
	c0.1,0.1,0.2,0.1,0.3,0.1l4.4-1c0.2,0,0.3-0.2,0.2-0.4c0-0.1,0-0.1-0.1-0.2l-2.3-2.2c-0.1-0.1-0.2-0.1-0.3-0.1l-4.2,1
	c-0.2,0-0.3,0.2-0.3,0.4C240.6,671.7,240.7,671.8,240.7,671.8z M234,673.1l2.1,2.2c0.1,0.1,0.2,0.1,0.3,0.1l4.5-1
	c0.2,0,0.3-0.2,0.2-0.4c0,0,0-0.1-0.1-0.1l-2.3-2.2c-0.1-0.1-0.2-0.1-0.3-0.1l-4.2,1c-0.2,0-0.3,0.2-0.2,0.3
	C233.9,673,234,673.1,234,673.1z M247,666.3l2,2.2c0.1,0.1,0.2,0.1,0.3,0.1l4.4-1c0.2,0,0.3-0.2,0.2-0.4c0-0.1,0-0.1-0.1-0.2
	l-2.3-2.2c-0.1-0.1-0.2-0.1-0.3-0.1l-4.2,1c-0.2,0-0.3,0.2-0.3,0.4C246.9,666.2,247,666.2,247,666.3z M240.9,667.7l2,2.2
	c0.1,0.1,0.2,0.1,0.3,0.1l4.4-1c0.2,0,0.3-0.2,0.2-0.4c0-0.1,0-0.1-0.1-0.2l-2.3-2.2c-0.1-0.1-0.2-0.1-0.3-0.1l-4.2,1
	c-0.2,0.1-0.3,0.2-0.2,0.4C240.9,667.6,240.9,667.7,240.9,667.7L240.9,667.7z M234.3,669.1l2,2.2c0.1,0.1,0.2,0.1,0.3,0.1l4.4-1
	c0.2,0,0.3-0.2,0.2-0.4c0-0.1,0-0.1-0.1-0.2l-2.3-2.2c-0.1-0.1-0.2-0.1-0.3-0.1l-4.2,1c-0.2,0.1-0.3,0.2-0.2,0.4
	C234.3,669,234.3,669.1,234.3,669.1z M227.7,670.6l2.1,2.2c0.1,0.1,0.2,0.1,0.3,0.1l4.5-1c0.2,0,0.3-0.2,0.2-0.3
	c0-0.1,0-0.1-0.1-0.2l-2.3-2.2c-0.1-0.1-0.2-0.1-0.3-0.1l-4.2,1c-0.2,0-0.3,0.1-0.3,0.3C227.5,670.5,227.6,670.6,227.7,670.6
	L227.7,670.6z M253.3,664.8l2,2.2c0.1,0.1,0.2,0.1,0.3,0.1l4.4-1c0.2,0,0.3-0.2,0.2-0.4c0-0.1,0-0.1-0.1-0.1l-2.3-2.2
	c-0.1-0.1-0.2-0.1-0.3-0.1l-4.2,1c-0.2,0-0.3,0.2-0.2,0.4C253.2,664.7,253.3,664.8,253.3,664.8L253.3,664.8z M242.6,663.6l2,2.2
	c0.1,0.1,0.2,0.1,0.3,0.1l4.4-1c0.2,0,0.3-0.2,0.2-0.4c0-0.1,0-0.1-0.1-0.2l-2.3-2.2c-0.1-0.1-0.2-0.1-0.3-0.1l-4.2,1
	c-0.2,0-0.3,0.2-0.2,0.4C242.6,663.5,242.6,663.5,242.6,663.6L242.6,663.6z M266.2,654.2l2.2,2.4c0.1,0,0.1,0,0.2,0l4.7-1.1
	c0.1,0,0.2-0.1,0.1-0.2c0,0,0-0.1-0.1-0.1l-2.5-2.3c-0.1,0-0.1,0-0.2,0l-4.4,1c-0.1,0-0.2,0.1-0.2,0.2
	C266.2,654.1,266.2,654.1,266.2,654.2L266.2,654.2z M271.9,652.9l2.2,2.4c0,0.1,0.1,0.1,0.2,0l4.7-1.1c0.1,0,0.2-0.1,0.1-0.2
	c0,0,0-0.1-0.1-0.1l-2.5-2.4c-0.1,0-0.1,0-0.2,0l-4.4,1.1C271.9,652.7,271.9,652.8,271.9,652.9C271.9,652.9,271.9,652.9,271.9,652.9
	z M277.8,651.5l2,2.2c0,0,0.1,0.1,0.2,0.1l4.4-1.2c0.1,0,0.2-0.1,0.1-0.2c0,0,0-0.1-0.1-0.1l-2.3-1.9c-0.1,0-0.1,0-0.2,0l-4.2,0.9
	C277.7,651.3,277.7,651.4,277.8,651.5C277.8,651.5,277.8,651.5,277.8,651.5L277.8,651.5z M283.9,653.6l2,2.2c0.1,0,0.1,0,0.2,0
	l4.4-1.2c0.1,0,0.2-0.1,0.1-0.2c0,0,0-0.1-0.1-0.1l-2.3-1.9c-0.1,0-0.1,0-0.2,0l-4.2,0.9C283.9,653.4,283.9,653.5,283.9,653.6
	C283.9,653.6,283.9,653.6,283.9,653.6z M283.2,657.6l1.9,2.1c0.1,0.1,0.2,0.1,0.3,0.1l4.2-1.2c0.1,0,0.2-0.2,0.2-0.3
	c0,0,0-0.1-0.1-0.1l-2.2-1.8c-0.1,0-0.1,0-0.2,0l-4,0.9C283.2,657.3,283.1,657.4,283.2,657.6C283.2,657.5,283.2,657.6,283.2,657.6
	L283.2,657.6z M278.2,662.7l1.9,2.1c0.1,0.1,0.2,0.1,0.3,0.1l4.2-1.2c0.1,0,0.2-0.2,0.2-0.3c0,0,0-0.1-0.1-0.1l-2.2-1.8
	c-0.1,0-0.1-0.1-0.2-0.1l-4,0.9c-0.1,0-0.2,0.1-0.2,0.3C278.1,662.6,278.1,662.6,278.2,662.7L278.2,662.7z M272.1,664.2l1.9,2.1
	c0.1,0.1,0.2,0.1,0.3,0.1l4.2-1.2c0.1,0,0.2-0.2,0.2-0.3c0,0,0-0.1-0.1-0.1l-2.2-1.8c-0.1,0-0.1,0-0.2,0l-4,0.9
	C272.2,663.9,272.1,664,272.1,664.2C272.1,664.2,272.1,664.2,272.1,664.2L272.1,664.2z M283.8,661.2l1.9,2.1
	c0.1,0.1,0.2,0.1,0.3,0.1l4.2-1.2c0.1,0,0.2-0.2,0.2-0.3c0,0,0-0.1-0.1-0.1l-2.2-1.8c-0.1-0.1-0.1-0.1-0.2,0l-4,0.9
	c-0.1,0-0.2,0.1-0.2,0.3C283.8,661.1,283.8,661.1,283.8,661.2z M282.9,665.7l2.9,2.6c0.1,0.1,0.2,0.1,0.2,0.1l4.2-1.2
	c0.1,0,0.2-0.2,0.2-0.3c0,0,0-0.1-0.1-0.1l-3.1-2.8c-0.1,0-0.2,0-0.3,0l-4,1.3C282.8,665.4,282.8,665.5,282.9,665.7
	C282.8,665.7,282.8,665.7,282.9,665.7z M272.7,656.4l2,2.2c0,0.1,0.1,0.1,0.2,0l4.4-1.2c0.1,0,0.2-0.1,0.1-0.2c0,0,0-0.1-0.1-0.1
	l-2.3-1.9c-0.1,0-0.1,0-0.2,0l-4.2,0.9C272.6,656.2,272.6,656.3,272.7,656.4C272.7,656.4,272.7,656.4,272.7,656.4z M267,657.8
	l1.9,2.1c0.1,0.1,0.2,0.1,0.3,0.1l4.2-1.2c0.1,0,0.2-0.2,0.2-0.3c0,0,0-0.1-0.1-0.1l-2.2-1.8c-0.1,0-0.1,0-0.2,0l-4,0.9
	C267,657.5,266.9,657.7,267,657.8C267,657.8,267,657.8,267,657.8z M265.8,661.8l1.9,2.1c0.1,0.1,0.2,0.1,0.3,0.1l4.3-1.2
	c0.1,0,0.2-0.2,0.2-0.3c0-0.1,0-0.1-0.1-0.1l-2.1-1.8c-0.1,0-0.1-0.1-0.2-0.1l-4,0.9c-0.1,0-0.2,0.2-0.2,0.3
	C265.8,661.8,265.8,661.8,265.8,661.8L265.8,661.8z M259.8,663.3l1.9,2.1c0.1,0.1,0.2,0.1,0.3,0.1l4.3-1.2c0.1,0,0.2-0.2,0.2-0.3
	c0-0.1,0-0.1-0.1-0.1l-2.1-1.8c-0.1,0-0.1-0.1-0.2-0.1l-4,0.9c-0.1,0-0.2,0.2-0.2,0.3C259.8,663.2,259.8,663.3,259.8,663.3
	L259.8,663.3z M260.9,659.2l1.9,2.1c0.1,0.1,0.2,0.1,0.3,0.1l4.2-1.2c0.1,0,0.2-0.2,0.2-0.3c0,0,0-0.1-0.1-0.1l-2.1-1.8
	c-0.1-0.1-0.1-0.1-0.2,0l-4,0.9c-0.1,0-0.2,0.2-0.2,0.3C260.8,659.1,260.9,659.2,260.9,659.2L260.9,659.2z M265.9,665.6l1.9,2.1
	c0.1,0.1,0.2,0.1,0.3,0.1l4.2-1.2c0.1,0,0.2-0.2,0.2-0.3c0,0,0-0.1-0.1-0.1l-2.1-1.8c-0.1,0-0.1-0.1-0.2-0.1l-4,0.9
	c-0.1,0-0.3,0.1-0.3,0.2C265.8,665.5,265.9,665.5,265.9,665.6L265.9,665.6z M260,667.2l1.8,2c0.1,0.1,0.2,0.1,0.3,0.1l4.1-1.1
	c0.2,0,0.3-0.2,0.2-0.4c0-0.1-0.1-0.1-0.1-0.2l-2.1-1.8c-0.1-0.1-0.2-0.1-0.3-0.1l-3.9,0.9c-0.2,0-0.3,0.2-0.2,0.4
	C259.9,667.1,260,667.1,260,667.2L260,667.2z M278.5,655l2,2.2c0.1,0,0.1,0,0.2,0l4.4-1.2c0.1,0,0.2-0.1,0.1-0.2c0,0,0-0.1-0.1-0.1
	l-2.2-1.8c-0.1,0-0.1,0-0.2,0l-4.2,0.9C278.5,654.8,278.4,654.9,278.5,655L278.5,655z M277.7,658.9l1.9,2.1c0.1,0.1,0.2,0.1,0.3,0.1
	l4.3-1.2c0.1,0,0.2-0.2,0.2-0.3c0-0.1,0-0.1-0.1-0.1l-2.1-1.8c-0.1,0-0.1-0.1-0.2-0.1l-4,0.9c-0.1,0-0.2,0.2-0.2,0.3
	C277.6,658.9,277.6,658.9,277.7,658.9L277.7,658.9z M271.9,660.5l1.9,2.1c0.1,0.1,0.2,0.1,0.3,0.1l4.2-1.2c0.1,0,0.2-0.2,0.2-0.3
	c0,0,0-0.1-0.1-0.1l-2.1-1.8c-0.1,0-0.2,0-0.2,0l-4,0.9C271.9,660.2,271.8,660.3,271.9,660.5C271.9,660.5,271.9,660.5,271.9,660.5z
	 M248.7,658.2l2.1,2.3c0.1,0.1,0.2,0.1,0.2,0.1l4.6-1.1c0.1,0,0.2-0.2,0.2-0.3c0-0.1,0-0.1-0.1-0.1l-2.4-2.3
	c-0.1-0.1-0.1-0.1-0.2-0.1l-4.3,1.1c-0.1,0-0.2,0.2-0.2,0.3C248.7,658.2,248.7,658.2,248.7,658.2L248.7,658.2z M242.6,659.7l2,2.2
	c0.1,0.1,0.2,0.1,0.3,0.1l4.4-1c0.2,0,0.3-0.2,0.2-0.4c0-0.1,0-0.1-0.1-0.2l-2.3-2.2c-0.1-0.1-0.2-0.1-0.3-0.1l-4.2,1
	c-0.2,0.1-0.2,0.2-0.2,0.4C242.5,659.7,242.6,659.7,242.6,659.7L242.6,659.7z M236.1,664.8l1.5,2.4c0.1,0.1,0.2,0.2,0.3,0.1l5.1-1.1
	c0.2,0,0.3-0.2,0.2-0.4c0,0,0-0.1,0-0.1l-1.7-2.3c-0.1-0.1-0.2-0.1-0.3-0.1l-4.9,1.1C236.1,664.4,236,664.6,236.1,664.8
	C236,664.8,236,664.8,236.1,664.8L236.1,664.8z M202.6,665.7l5.1-1.2c0.1,0,0.2,0,0.3,0.1l0.9,1.2c0.1,0.1,0.1,0.3-0.1,0.4
	c0,0-0.1,0-0.1,0.1l-5.2,1.2c-0.1,0-0.3,0-0.3-0.1l-0.7-1.2C202.3,666,202.3,665.8,202.6,665.7C202.5,665.7,202.5,665.7,202.6,665.7
	L202.6,665.7z M209.5,664.2l5.1-1.2c0.1,0,0.2,0,0.3,0.1l0.9,1.2c0.1,0.1,0.1,0.3-0.1,0.4c0,0-0.1,0-0.1,0.1l-5.3,1.2
	c-0.1,0-0.3,0-0.3-0.1l-0.7-1.2C209.2,664.5,209.3,664.3,209.5,664.2C209.4,664.2,209.5,664.2,209.5,664.2L209.5,664.2z
	 M216.2,662.7l5.1-1.2c0.1,0,0.2,0,0.3,0.1l0.9,1.2c0.1,0.1,0.1,0.3-0.1,0.4c0,0-0.1,0-0.1,0.1l-5.2,1.2c-0.1,0-0.3,0-0.3-0.1
	l-0.7-1.2C215.9,663,216,662.9,216.2,662.7C216.2,662.8,216.2,662.7,216.2,662.7z M222.7,661.3l5-1.2c0.1,0,0.2,0,0.3,0.1l0.9,1.2
	c0.1,0.1,0.1,0.3-0.1,0.4c0,0-0.1,0-0.1,0.1l-5.2,1.2c-0.1,0-0.3,0-0.3-0.1l-0.7-1.2c-0.1-0.1,0-0.3,0.1-0.4
	C222.6,661.3,222.7,661.3,222.7,661.3L222.7,661.3z M229.4,659.8l5-1.2c0.1,0,0.2,0,0.3,0.1l0.9,1.1c0.1,0.1,0.1,0.3-0.1,0.4
	c0,0-0.1,0-0.1,0.1l-5.2,1.2c-0.1,0-0.3,0-0.3-0.1l-0.7-1.2C229.1,660.1,229.2,660,229.4,659.8C229.3,659.8,229.4,659.8,229.4,659.8
	L229.4,659.8z M235.9,658.4l5-1.2c0.1,0,0.2,0,0.3,0.1l0.9,1.1c0.1,0.1,0.1,0.3-0.1,0.4c0,0-0.1,0-0.1,0.1l-5.2,1.2
	c-0.1,0-0.3,0-0.3-0.2l-0.7-1.2C235.5,658.7,235.6,658.6,235.9,658.4C235.8,658.4,235.8,658.4,235.9,658.4L235.9,658.4z
	 M242.2,657.1l4.6-1.1c0.1,0,0.2,0,0.3,0.1l0.9,1c0.1,0.1,0.1,0.3,0,0.5c0,0-0.1,0.1-0.1,0.1l-4.5,1.1c-0.1,0-0.2,0-0.3-0.1l-0.9-1
	C242,657.5,242,657.3,242.2,657.1C242.1,657.1,242.1,657.1,242.2,657.1L242.2,657.1z M248.3,655.7l4.8-1.2c0.1,0,0.2,0,0.2,0.1l1,1
	c0.1,0.1,0.1,0.3,0,0.4c0,0-0.1,0.1-0.1,0.1l-4.7,1.2c-0.1,0-0.2,0-0.2-0.1l-1.1-1.1C248.1,656,248.1,655.8,248.3,655.7
	C248.3,655.7,248.3,655.7,248.3,655.7z M254.4,654.3l4.8-1.2c0.1,0,0.2,0,0.3,0.1l1,1c0.1,0.1,0.1,0.3,0,0.4c0,0-0.1,0.1-0.1,0.1
	l-4.7,1.2c-0.1,0-0.2,0-0.2-0.1l-1-1.1c-0.1-0.1-0.1-0.3,0-0.4C254.4,654.3,254.4,654.3,254.4,654.3L254.4,654.3z M260.5,653
	l4.8-1.2c0.1,0,0.2,0,0.2,0.1l1,1c0.1,0.1,0.1,0.3,0,0.4c0,0-0.1,0.1-0.1,0.1l-4.7,1.2c-0.1,0-0.2,0-0.2-0.1l-1-1.1
	C260.4,653.2,260.4,653.1,260.5,653C260.5,653,260.5,653,260.5,653z M266.3,651.6l4.9-1.2c0.1,0,0.1,0,0.2,0.1l1.1,1.2
	c0.1,0.1,0.1,0.2,0,0.3c0,0,0,0-0.1,0l-4.9,1.2c-0.1,0-0.1,0-0.2,0l-1.2-1.2c-0.1-0.1-0.1-0.2,0-0.3
	C266.2,651.6,266.3,651.6,266.3,651.6z M272.2,650.4l4.9-1.2c0.1,0,0.1,0,0.2,0l1.1,1.2c0.1,0.1,0.1,0.2,0,0.3c0,0,0,0-0.1,0
	l-4.9,1.2c0,0-0.1,0-0.1,0l-1.2-1.2C272.1,650.6,272.1,650.4,272.2,650.4C272.2,650.4,272.2,650.4,272.2,650.4L272.2,650.4z
	 M278,649l4.5-1c0.1,0,0.1,0,0.2,0.1l0.9,1.1c0.1,0.1,0.1,0.2,0,0.3c0,0-0.1,0-0.1,0l-4.3,1.1c-0.1,0-0.1,0-0.2,0l-1.1-1.2
	C277.9,649.3,277.9,649.1,278,649C278,649,278,649,278,649z M283.6,647.8l4.5-1c0.1,0,0.1,0,0.2,0.1l0.9,1.1c0.1,0.1,0.1,0.2,0,0.3
	c0,0,0,0-0.1,0l-4.3,1.1c-0.1,0-0.1,0-0.2,0l-1.1-1.2c-0.1-0.1-0.1-0.2-0.1-0.3C283.5,647.8,283.6,647.8,283.6,647.8L283.6,647.8z
	 M206.1,671.7l1.7,2.4c0.1,0.1,0.2,0.1,0.3,0.1l8.8-2c0.2,0,0.3-0.2,0.2-0.4c0,0,0-0.1-0.1-0.1l-1.9-2.4c-0.1-0.1-0.2-0.1-0.3-0.1
	l-8.6,2.1C206.1,671.4,206,671.5,206.1,671.7C206.1,671.7,206.1,671.7,206.1,671.7L206.1,671.7z M208.7,674.9l1.7,2.7
	c0.1,0.1,0.2,0.2,0.3,0.1l10.6-2.5c0.2,0,0.3-0.2,0.2-0.3c0,0,0-0.1-0.1-0.1l-2.1-2.6c-0.1-0.1-0.2-0.1-0.3-0.1l-10.2,2.4
	C208.8,674.5,208.7,674.7,208.7,674.9C208.7,674.9,208.7,674.9,208.7,674.9z M211.1,678.5l2.1,2.9c0.1,0.1,0.2,0.1,0.3,0.1l14-3.5
	c0.2,0,0.3-0.2,0.2-0.4c0,0,0-0.1,0-0.1l-2.3-2.9c-0.1-0.1-0.2-0.1-0.3-0.1l-13.8,3.5c-0.2,0-0.3,0.2-0.2,0.3
	C211.1,678.4,211.1,678.4,211.1,678.5z M243.2,675.3l2.6,3.1c0.1,0.1,0.2,0.1,0.3,0.1l30.8-7.7c0.2,0,0.3-0.2,0.2-0.4
	c0-0.1,0-0.1-0.1-0.1l-3.1-3.1c-0.1-0.1-0.2-0.1-0.3-0.1l-30.2,7.7C243.2,674.9,243.1,675.1,243.2,675.3
	C243.2,675.3,243.2,675.3,243.2,675.3L243.2,675.3z M275,667.3l3,3c0.1,0.1,0.2,0.1,0.2,0.1l6.3-1.7c0.1,0,0.2-0.2,0.2-0.3
	c0,0,0-0.1-0.1-0.1l-3.1-3.1c-0.1-0.1-0.2-0.1-0.2-0.1l-6.2,1.7c-0.1,0-0.2,0.2-0.2,0.3C274.9,667.2,274.9,667.3,275,667.3
	L275,667.3z M290.2,665.4l1.4,1.5c0,0.1,0.1,0.1,0.2,0l4.7-1.3c0.1,0,0.2-0.1,0.1-0.2c0,0,0-0.1-0.1-0.1l-1.7-1.5
	c-0.1,0-0.1,0-0.2,0l-4.4,1.3C290.2,665.1,290.2,665.2,290.2,665.4C290.2,665.4,290.2,665.4,290.2,665.4z M294.2,662.3l1.6,1.7
	c0.1,0,0.1,0,0.2,0l4.3-1.5c0.1,0,0.1-0.1,0.1-0.2c0,0,0-0.1-0.1-0.1l-1.6-1.4c-0.1,0-0.1,0-0.2,0l-4.3,1.2
	C294.2,662,294.1,662.1,294.2,662.3C294.2,662.2,294.2,662.3,294.2,662.3L294.2,662.3z M297.4,665.3l-1.2-1c-0.1-0.1-0.1-0.2,0-0.3
	c0,0,0.1-0.1,0.1-0.1l4.3-1.5c0.1,0,0.1,0,0.2,0l1.3,1.3c0.1,0.1,0.1,0.2,0,0.3c0,0,0,0-0.1,0l-4.4,1.1
	C297.5,665.3,297.4,665.3,297.4,665.3z M301.8,662.6c0.4,0.3,1,1.1,1.3,1.3c0.1,0,0.1,0,0.2,0l4.5-1.2c0.1,0,0.2-0.1,0.1-0.2
	c0,0,0-0.1-0.1-0.1l-1.6-1.4c-0.1,0-0.1,0-0.2,0l-4.1,1.3C301.7,662.4,301.7,662.5,301.8,662.6C301.7,662.6,301.7,662.6,301.8,662.6
	z M289.3,659.8l2.4,2.3c0.1,0,0.1,0.1,0.2,0l11.5-3c0.1,0,0.2-0.1,0.1-0.2c0,0,0-0.1-0.1-0.1l-2.8-2.3c-0.1,0-0.1,0-0.2,0l-11.1,3
	C289.2,659.6,289.2,659.7,289.3,659.8C289.2,659.8,289.2,659.8,289.3,659.8L289.3,659.8z M288.5,656.3l2.5,2.2c0.1,0,0.1,0,0.2,0
	l8.6-2c0.1,0,0.2-0.1,0.1-0.2c0,0,0-0.1-0.1-0.1l-2.8-2.4c-0.1,0-0.1,0-0.2,0l-8.3,2.2C288.5,656,288.4,656.2,288.5,656.3
	C288.5,656.3,288.5,656.3,288.5,656.3z M289.3,652.5l2.3,2.1c0.1,0,0.1,0,0.2,0l4.4-1c0.1,0,0.2-0.1,0.1-0.2c0,0,0-0.1-0.1-0.1
	l-2.8-2.4c-0.1,0-0.1,0-0.2,0l-4,1.3c-0.1,0-0.2,0.1-0.1,0.2C289.3,652.4,289.3,652.5,289.3,652.5L289.3,652.5z M283.2,650.4l2.3,2
	c0,0,0.1,0.1,0.2,0l7-1.7c0.1,0,0.2-0.1,0.1-0.2c0,0,0-0.1-0.1-0.1l-2.7-2.3c-0.1,0-0.1,0-0.2,0l-6.6,1.9
	C283.1,650.2,283.1,650.3,283.2,650.4C283.2,650.4,283.2,650.4,283.2,650.4z"/>
<path class="st23" d="M737.8,532l-6.2-16.4L701,435.1l13.6-1.7l4.9-6.2l4.3-5.4l11.1-2.1l9.3-1.8l0-0.1l9.9-14.1l12.3-5l0,0
	l5.5-12.5l26.9,20.1l19.7,14.8l1.5,1.1l37.7,28.2l-8.9,27.6l0,0l-24,1.8l-0.2,0.4l-13.1,29.3l-30.4,0.3h-0.1l-7.8,15l-0.4,0.8
	l-5.7,10.8l-0.1,0.2L737.8,532L737.8,532z"/>
<path class="st24" d="M738,529l-5.8-15.5L703.7,437l13.1-1.8l4.8-5.9l4.2-5.2l10.8-2.2l9-1.8l0-0.1l9.7-13.5l12-4.9l0,0l5.5-11.9
	l25.7,18.9l18.8,13.8l1.4,1l36,26.5l-9,26.5h0l-23.2,2l-0.2,0.3l-13,28.1l-29.4,0.6H780l-7.8,14.4l-0.4,0.8l-5.6,10.4l-0.1,0.2
	L738,529z"/>
<path class="st1" d="M763.4,509c-0.7-3.7-0.9-7.5-0.7-11.3c0-1.3,0.1-2.8,1-3.7c0.8-0.8,2.1-0.8,2.8,0c0,0,0.1,0.1,0.1,0.1
	c-0.1-1,1.3-2,2.5-2.1c0.4,0,0.8,0,1.1,0c1,0.2,2,0,2.8-0.6c-1.2-1.5-2.2-3.2-2.8-5.1c-0.6-1.9-0.1-4,1.3-5.4
	c2.4-2.1,6.1-0.5,8.9,1.1l11.2,6.4c1.6,0.9,3.1,1.9,4.5,3c0.3-0.6,0.6-1.2,0.8-1.8c1.9-4.7,2.4-9.8,1.4-14.7c-1-4.7-3.2-9.9-0.7-14
	c0.3-0.6,0.8-1.1,1.5-1.3c0.6-0.1,1.2,0.3,1.3,0.8c0,0.1,0,0.1,0,0.2c0.2-1.6,0.6-3.1,1.2-4.6c0.6-1.6,1.5-3,2.6-4.2
	c2.3-2.4,6-3.6,8.9-2.1c0.6,0.4,1.3,0.7,2,0.9c1.1,0.2,2.1-0.2,2.8-1c0.5-0.5,0.9-1.2,1.1-2c0.2-1.8-0.1-3.7-0.9-5.4
	c-1.2-3.2-2.8-6.2-4.6-9.2c-0.9-1.4-1.8-3-1.5-4.6c0.4-1.2,1.2-2.3,2.3-2.9c1.4-0.9,2.8-1.7,4.4-2.4l36,26.5l-9,26.5h0l-23.2,2
	l-0.2,0.3l-13,28.1l-29.4,0.6H780l-7.7,14.3l-0.4,0.8c-0.3-0.1-0.5-0.3-0.8-0.4c-1.3-0.8-2.4-1.9-3.3-3.2
	C765.7,515.9,764.2,512.5,763.4,509L763.4,509z M736.6,421.8l9-1.8l0-0.1l9.7-13.5l12-4.9l5.5-11.9l25.7,18.9l-0.2,0.2
	c-1.1,1.9-2.1,3.8-2.9,5.9c-0.4,0.9-0.7,1.8-0.7,2.8c0.2,1.4,0.9,2.6,1.9,3.6c3.2,3.7,6.7,7.1,10.5,10.2c-1.4,0.5-3,0.3-4.2-0.5
	c0.3,1.3-0.3,2.7-1.4,3.4c-0.4,0.3-0.8,0.5-1.2,0.6c-1.7,0.4-3.5,0.4-5.3-0.1c-2.4-0.3-4.7-1-6.9-2c-5.1-2.6-7.8-8.1-10.3-13.2
	c-0.8,2.5-2.7,4.6-4.1,6.9c-0.8,1.2-1.4,2.6-1.6,4c-0.2,0.9,0,1.9,0.5,2.7c0.8,0.8,1.7,1.5,2.7,2c2.7,1.9,3.5,5.5,4.1,8.7
	c0.3,1,0.3,2,0,3c-0.3,1-1.3,1.7-2.3,1.5c-1.3-0.3-1.6-2-2.4-3.1c-1.2-1.6-3.5-1.8-5.5-2.3c-2.3-0.6-4.4-2.1-5.9-4
	c-0.2,1.7-0.3,3.4-0.2,5.1v0.6c-6-2.9-11.6-6.8-16.4-11.4c1.4-0.8,1.9-2.7,1.1-4.1c-0.2-0.4-0.6-0.8-1-1c-0.8-0.3-1.7-0.5-2.5-0.6
	C741.2,426.7,738.8,424.2,736.6,421.8L736.6,421.8z M732.2,513.4L703.7,437l13.1-1.8l4.8-5.9c1,1.4,1.9,2.8,2.8,4.2
	c3,4.3,7.2,7.5,11.4,10.7c0.5,0.4,1,0.7,1.6,0.9c0.7,0.1,1.4,0.1,2-0.1c2.1-0.5,4.9-1.1,5.9,0.9c0.3,0.7,0.3,1.5,0.6,2.2
	c0.6,1.4,2.5,1.8,4,1.4s2.8-1.2,4.3-1.5c2.2-0.5,4.5,0.2,6.2,1.8c1.9,1.9,3.2,5.1,5.9,5c1.4-0.2,2.6-1,3.3-2.1l0.4-0.5l4.4,4.3
	l6.2-2.6c1.9,2.3,2.1,5.5,0.5,8c-0.6,0.8-1.4,1.5-2,2.3c-0.2,0.2-0.3,0.4-0.5,0.6c-1.2,1.8-1.9,4-3.2,5.8c-2.2,3-6.1,4.4-9.8,4.5
	c-2.4,0-4.7-0.2-7-0.8c-1.3-0.3-2.6-0.6-3.9-1c1.9,1.7,3.6,3.6,4.9,5.9c1.3,2.3,1.5,5,0.4,7.4c-1.5,2.7-4.8,3.8-7.6,2.7l2.7,2.7
	c-3.1,1.6-3.6,6-2.5,9.4s3.2,6.4,3.8,9.9c0.1,0.7,0.2,1.5,0.1,2.2c-0.1,0.5-0.2,1-0.4,1.4c-1.3,2.5-4.8,2.6-7.5,1.8
	c-4.6-1.5-8.5-4.8-10.7-9.1c-1.6,2-2.4,4.6-2.2,7.2C735.7,514.5,734.1,514,732.2,513.4L732.2,513.4z"/>
<path class="st6" d="M755.4,406.4l12-4.9l0,0l34.1,32.5l16.5,15.7l27.9,26.5l-23.2,2l-0.2,0.3l-20.9-22.5l-27.9-30L755.4,406.4z
	 M780.2,507.4l-10-15.3l-11.6-17.7l-19.1-29.4L725.8,424l10.8-2.2l9-1.8l0-0.1l17.6,23.9l6.4,8.7l9,12.3l18.3,24.9l12.5,17
	L780.2,507.4L780.2,507.4z M738,529l-5.8-15.5L703.7,437l13.1-1.8l39.6,78.2l9.8,19.5l-0.1,0.2L738,529L738,529z"/>
<path class="st6" d="M645.9,390.4c0.3,1.1,0.5,2.2,0.6,3.4c0,0,15.8,37,17.8,39.2c0.6,0.7,2.9,4,5.8,8.3l3.3,5
	c6,9,12.8,19.2,12.8,19.2l14.8,13c0,0,32.2,2.6,42.4-7.9c-1.2-0.9-2-1.3-2-1.3l-4.4-3.4c-2.3-3.8-11-7.6-19.8-10.5
	c-8.1,0.1-14.7,0.7-14.7,0.7l-2.1-5.5l-2.2-5.8l-11.2-29.5c0,0-7.2-37.2-9.6-39s-1.8-7.4-1.8-7.4s4.4-15.8,2.8-18s2.6-18.4,2.6-18.4
	c-0.4-1.6-1.1-3.1-1.9-4.5l-30.8,58.7C648.3,386.5,647.2,388.2,645.9,390.4L645.9,390.4z"/>
<path class="st17" d="M681.5,331.1c0,0-4.2,16.2-2.6,18.4s-2.8,18-2.8,18s-0.6,5.6,1.8,7.4s9.6,39,9.6,39l15.5,40.8
	c0,0,48.5-4.8,43.5,10.4s-45,12-45,12l-14.8-13c0,0-20-30.2-22-32.4s-17.8-39.2-17.8-39.2s-0.8-7.4-4.2-11.2s-0.8-10.2-0.8-10.2
	s-4.2-48.4,0.2-54.2S676.9,313.7,681.5,331.1L681.5,331.1z"/>
<path class="st6" d="M656.7,300.8l-12.6,7.6c0,0-3.6,12.2-6.4,13.8c0,0,25.2-14,44.2,18.2c0,0-0.6-4.2,2-6.2s2-10.6,2-10.6
	c0.7-1.4,1.3-2.8,1.8-4.2C689.5,314.9,680.1,289.8,656.7,300.8L656.7,300.8z"/>
<path class="st18" d="M656.3,300l-12.6,7.6c0,0-3.6,12.2-6.4,13.8c0,0,25.2-14,44.2,18.2c0,0-0.6-4.2,2-6.2s2-10.6,2-10.6
	c0.7-1.4,1.3-2.8,1.8-4.2C689.1,314.1,679.7,289,656.3,300L656.3,300z"/>
<linearGradient id="SVGID_3_" gradientUnits="userSpaceOnUse" x1="417.9629" y1="173.2503" x2="417.9629" y2="470.7881" gradientTransform="matrix(1 0 0 -1 -44.68 709.83)">
	<stop  offset="0" style="stop-color:#808080;stop-opacity:0.25"/>
	<stop  offset="0.54" style="stop-color:#808080;stop-opacity:0.12"/>
	<stop  offset="1" style="stop-color:#808080;stop-opacity:0.1"/>
</linearGradient>
<path class="st25" d="M359.2,405.2c-1.7,1-3.3,2.1-4.8,3.4c-0.3,0.2-0.6,0.5-0.9,0.7c0.1,0.3,0.3,0.7,0.4,1c0.1-0.2,0.2-0.5,0.3-0.6
	l0.1-0.3c0-0.1,0.1-0.2,0.1-0.3c0.2-0.3,0.4-0.6,0.6-0.9l4.6-3.3C359.7,405,359.4,405.1,359.2,405.2L359.2,405.2z M359.2,405.2
	c-1.7,1-3.3,2.1-4.8,3.4c-0.3,0.2-0.6,0.5-0.9,0.7c0.1,0.3,0.3,0.7,0.4,1c0.1-0.2,0.2-0.5,0.3-0.6l0.1-0.3c0-0.1,0.1-0.2,0.1-0.3
	c0.2-0.3,0.4-0.6,0.6-0.9l4.6-3.3C359.7,405,359.4,405.1,359.2,405.2L359.2,405.2z M509.7,521.4c1.4-4.3-15.4-9.8-21.1-11.5v-0.2
	l-0.2,0.1l-1.6-0.5c0,0-2.6-1.9-5.7-4.1l-0.2-0.6l-0.5,0.2c-1.5-1.1-3.2-2.2-4.7-3.3c0.1-0.1,0.3-0.1,0.4-0.1l-0.1-0.8
	c-0.3,0.1-0.5,0.2-0.8,0.3v-0.3c-0.2,0-0.4,0.1-0.5,0.2c-1.5-1-2.8-1.9-3.8-2.5s-2.5-1.8-4.5-3.3c-1.9-1.5-4.2-3.3-6.4-5.1
	c0.1-0.2,0.2-0.5,0.3-0.7l0.4-1l-1,0.5h-0.1l0.2-0.5l-1,0.5l-0.2,0.1l-2.3-1.7c0,0,0.1-0.1,0.1-0.1l0.9-0.5l1.1-0.6l1.3-0.7l0.3-0.1
	l3.4-2c7.9-4.5,14.6-10.8,19.5-18.6c6.6-10.5-0.7-20-5.3-25.6l-0.1-0.2c0.3-0.1,0.6-0.2,0.9-0.3c2-0.8,3.4-2.7,3.5-4.9
	c0.1-0.7,0-1.4-0.3-2.1c-0.8-2.4-2.8-9.2-0.4-11.8c0.6-0.6,1.4-1,2.3-1c4.4-0.3,11.1-0.8,14.9-2.2c0.8-0.3,1.5-0.7,2.2-1.2
	c0.5-0.4,0.9-1,0.9-1.6c0-2.4-0.8-6-3.2-7.6c-0.1-0.1-0.3-0.2-0.5-0.3c0,0,0,0-0.1,0c-1.2-0.8-3-1.2-6-1.1
	c-5.4,0.1-10.7-0.5-15.9-1.9l-0.3,0.3l-0.6-0.6l-0.5-0.5l-11.1-10.7l-2.5,2.5l-1.2-1.1l-2.4-2.4l-0.1-0.1l-4.4-4.2
	c-1-8.5-2.8-16.8-5.7-22.4c-1.1-2.3-2.7-4.2-4.7-5.7l-5.3-5.1l-0.4-0.4l0.2-0.2c0.1-0.1,0.2-0.2,0.3-0.4c0.3-0.4,0.6-0.8,0.8-1.2
	c1-2.1,0.5-4.7-1.2-6.3l-0.1-0.2c-2.1-2-5.4-2.1-7.7-0.3c-0.1,0.1-0.3,0.2-0.4,0.3c-0.1,0.1-0.1,0.2-0.2,0.2l-1.5-1.5
	c-2.4-2.3-6.1-2.3-8.4,0.1l-7.7,7.7c-0.7-2-1.4-4-2.3-6c-2.2-4.5-9.6-8.3-17-11c-3.5-1.3-7.1-2.4-9.9-3.2c-1.7-0.5-3.2-0.8-4.3-1.1
	l-0.4-0.1c-0.8-0.2-1.3-0.3-1.5-0.3l0.4-0.5c0.1-0.1,0.2-0.3,0.3-0.4l0.5-0.6c0.1-0.1,0.3-0.3,0.4-0.4c0.5,0.3,0.9,0.6,1.4,0.9
	c15.5,9,35.3,4.8,45.7-9.7c0.2-0.3,0.4-0.6,0.6-0.9c0.1-0.2,0.3-0.4,0.4-0.6c0.1-0.1,0.1-0.2,0.2-0.4c0.1-0.2,0.3-0.4,0.4-0.7
	l0.7-0.1c2.4-0.3,4.9-1,6.3-2.9c0.2-0.2,0.3-0.4,0.4-0.7c0.1-0.2,0.2-0.4,0.3-0.6c0.1-0.2,0.2-0.5,0.2-0.7c0.2-1,0.4-2,0.5-3
	c0-0.3,0.1-0.6,0.1-0.9c0-0.2,0.1-0.5,0.1-0.7l0.1,0.1c0.7,0.6,1.4,1.3,2,2c0.1,0,0.1,0.1,0.1,0.2v-0.8c0-2.9,5.9-3.6,7.8-5.4
	c0.5-0.4,0.7-1.1,0.5-1.7c0.4,0-0.1-1.8-0.3-3.1c-0.1-0.7-0.1-1.2,0-1.3l0.3-0.1c1-0.5,0.5-1.4,0.4-2.3c0-0.3,0-0.7,0.2-1
	c0.1-0.2,0.3-0.5,0.5-0.6c1.2-1.1-1.9-1.7-0.4-2.4c-0.6-2-1.3-4-2-6c-0.3-1.1-0.8-2.2-1.3-3.2c-0.3-0.5-0.7-1-1.1-1.5
	c-1.3-4.4-4-8.3-7.7-11c-2.3-1.7-4.9-2.9-7.1-4.6c-5.6-4.2-8.6-10.9-13.1-16.3c-2.2-2.7-5-4.9-8.1-6.4c-3-1.5-6.5-1.7-9.7-0.5
	c-0.2,0.1-0.4,0.2-0.6,0.3c-4.6,2.2-6.8,7.5-10.9,10.5c-5.8,4.1-13.7,2.9-20.8,2.1c-7.4-0.7-14.8-0.7-22.1,0.2c-1.1,0-2.2,0.4-3.1,1
	c-0.9,0.9-1.3,2.2-1.3,3.4v1.5c0,5,2.1,9.9,2.3,14.9c0,0.5,0,1-0.1,1.4c-0.6,6.2-5.2,11.4-10.5,14.6c-4.6,2.8-10.8,5.7-10.5,11v0.2
	c0,0.2,0,0.4,0,0.6c0.1,0.9,0.3,1.7,0.6,2.5c-5.2,0-9.3-0.2-9.3-0.2c-5.4-0.7-10.8,0-15.8,2.2c-4.8,2.2-8.9,5.6-11.8,10
	c-1.5,2.2-2.7,4.6-3.7,7.1c0,0-5.5,26.6-11.3,33.7c-5.8,7.1-6.2,17-6.2,17c-0.8,3-1.7,5.9-2.8,8.7c-1,2.5-2.1,4.9-3.3,6
	c-3,2.7-1.4,6.8-1.4,6.8s-3.6,3.5-3.3,5.7s-1.9,7.1-1.9,7.1s-2.2,5.2-1.1,7.6c0.7,1.5-1,5.3-2.4,8l-1.2-0.1
	c-1.5,3.1-2.7,6.3-3.6,9.6c-0.5,1.7-0.8,3.4-0.8,5.1c0.3,4.9-3.3,13.3-3.3,13.3c-1.4,4.7-2.2,9.6-2.3,14.5v0.4
	c-0.1,9.4,2.3,21.2,13.2,29.4c4.1,3,8.7,5.3,13.6,6.7c1.5,0.5,3.1,0.9,4.9,1.3l3.9,0.8c5.5,2.9,11.3,5.2,17.3,6.9
	c2.9,0.9,6,1.4,9,1.7c5.1,0.4,10.2,0,15.1-1.3c0.6,0.1,1.3,0.2,1.9,0.3l0.6,0.1h0.1c9.8,1.3,16.5,1.8,19.8,2c0,0.1,0,0.1,0,0.2
	c-0.7,3.3-1.1,5.7-1.1,5.7l0.6,0.7c0,0.2,0,0.3,0,0.3l8.8,11c0.5-0.1,0.9-0.2,1.3-0.4c1.8-0.8,3.4-2.1,4.6-3.6
	c0.5,0.1,1,0.2,1.5,0.2h0.2c0.8,0,1.5-0.2,2.3-0.4c0,0,1.6-1.1,3.7-2.5l0.2,0.4l1.4-0.9l1.2-0.8l3.1-2l0-0.1l0.2-0.3l0.8-0.4
	c0.4-0.2,0.8-0.4,1.2-0.5c0.7-0.3,1.3-0.5,2-0.6c1.5-0.1,3.9-1.3,6.2-2.6l0.4,0.3c0.3-0.3,0.6-0.6,0.8-1l0.5-0.3
	c0.4-0.2,0.8-0.5,1.1-0.7c2-1.2,3.4-2.3,3.4-2.3s25.1-2.5,34.5-4.7v0.4c0,0.1,0,0.4-0.1,0.6c-0.9,0-1.7-0.1-2.4-0.1
	c-0.7,0-1.4,0-2.1,0.1c-0.6,0-1.2,0.2-1.7,0.6c-2,1.6,1.2,5.6,1.2,5.6h0.1c3,1,60.3,19.3,66,20.1c2.4,0.3,9,0,16.2-0.9
	c9-1.1,18.9-3,23-5.3c0.6-0.3,1.1-0.7,1.5-1.1c0-0.1,0.1-0.1,0.1-0.2C515.2,526,512.3,523.1,509.7,521.4L509.7,521.4z M427.4,401.3
	l-1.6,1.6l-1.8-3.8l-0.9-1.9l3.5,3.3L427.4,401.3z M345.6,460.7h-1.8c0.5-2.7,0.8-4.4,0.8-4.4s2.6-12.2,4.2-22.7
	c0.9-5.7,1.5-10.9,1.3-13.5c-0.2-2.3,0.1-4.5,0.7-6.7c0.2-0.8,0.5-1.6,0.9-2.4c0.2-0.4,0.3-0.7,0.5-1.1l1.1-1
	c0.1,0.1,0.1,0.3,0.2,0.4c0.1,0.3,0.3,0.6,0.4,1l0.1,0.2c2.8,6,8.6,14.3,14.1,21.6c6.6,8.6,12.6,15.7,12.6,15.7l3.1,3.4
	c-6.8,2.5-13.3,4.9-13.3,4.9l-20.6,5.3C348.6,461,347.1,460.7,345.6,460.7L345.6,460.7z M430.2,412.7l-0.3-0.6l-1.5-3.3l-0.9-2
	l1,0.9l0.5,0.5c0.1,0.2,0.1,0.3,0.2,0.5c0.3,0.5,0.6,1,0.7,1.5C430.2,411.1,430.3,411.9,430.2,412.7L430.2,412.7z M359.2,405.2
	c-1.7,1-3.3,2.1-4.8,3.4c-0.3,0.2-0.6,0.5-0.9,0.7c0.1,0.3,0.3,0.6,0.4,1c0.1-0.2,0.2-0.5,0.3-0.6l0.1-0.3c0-0.1,0.1-0.2,0.1-0.3
	c0.2-0.3,0.4-0.6,0.6-0.9l4.6-3.3C359.7,405,359.4,405.1,359.2,405.2L359.2,405.2z M359.2,405.2c-1.7,1-3.3,2.1-4.8,3.4
	c-0.3,0.2-0.6,0.5-0.9,0.7c0.1,0.3,0.3,0.6,0.4,1c0.1-0.2,0.2-0.5,0.3-0.6l0.1-0.3c0-0.1,0.1-0.2,0.1-0.3c0.2-0.3,0.4-0.6,0.6-0.9
	l4.6-3.3C359.7,405,359.4,405.1,359.2,405.2L359.2,405.2z"/>
<path class="st26" d="M504.7,519.9c0,0,10,4.6,5.9,9.5s-34.1,8.1-39.7,7.3s-64.6-20-64.6-20s-4.3-5.7,0.5-6.2s25.4,2.1,25.4,2.1
	l28.1,1.6L504.7,519.9z"/>
<path class="st27" d="M406.8,418.3l13.2,29l17.6-17.2l-13-20.9L406.8,418.3z"/>
<path class="st14" d="M437.6,430l-13.3,13l-4.3,4.2l-2.6-5.6l-7.4-16.2l-3.2-7.1l4.6-2.4l13.2-6.8l4.9,8l3.4,5.5L437.6,430
	L437.6,430z"/>
<path class="st27" d="M390.1,316.6c-4.7,3.7-9,7.8-13,12.2l-0.7,0.8c-2.2,2.6-4.3,5.3-6.1,8.2c-1.4,2.2-2.5,4.5-3.5,6.9
	c-2.7,7-1.6,11.1-1.6,11.1c-7.7-6.5-15-13.5-22-20.8c-11.3-12-20.5-25.1-9.6-27.1c13.5-2.5,24.7-10.8,31-16.4
	c1.9-1.6,3.6-3.4,5.3-5.2C369.9,286.3,419.3,293.1,390.1,316.6L390.1,316.6z M342.1,464.5l29.6-7.7c0,0,26.8-10.1,28.4-10.3
	s56-14.2,56-14.2l-25.8,57.2l-61,20.9l-36.3-3.5L342.1,464.5z"/>
<path class="st6" d="M342.1,464.5l29.6-7.7c0,0,26.8-10.1,28.4-10.3s56-14.2,56-14.2l-25.8,57.2l-61,20.9l-36.3-3.5L342.1,464.5z"/>
<path class="st28" d="M347,320.4c-0.8-4.5-2.3-14.4-0.7-17.3c0,0-2.4-0.3-11.4,1.4s-23.3,0.8-23.3,0.8s-21.4-4.1-30.5,19.2
	c0,0-5.4,26.5-11.1,33.5s-6.2,17-6.2,17s-3,11.9-6,14.6s-1.4,6.8-1.4,6.8s-3.5,3.5-3.3,5.7s-1.9,7-1.9,7s-2.2,5.1-1.1,7.6
	s-4,11.1-4,11.1l91.7,19.2l24.4-76.5l0.5-31.9c0,0-13.4-1.2-15.2-14.2C347.4,323,347.2,321.7,347,320.4L347,320.4z"/>
<path class="st1" d="M271.2,398l-3.2,6c0,0,19.5,5.7,26.5,3.8s29.7-17.3,29.7-17.3L271.2,398z"/>
<path class="st6" d="M271.2,398l-3.2,6c0,0,19.5,5.7,26.5,3.8s29.7-17.3,29.7-17.3L271.2,398z"/>
<path class="st29" d="M286,429.6c0,0-18.6-3.8-21.6-3.8s-17.6-1.4-17.6-1.4s-4.6,9.7-4.3,14.6s-3.2,13.3-3.2,13.3
	S225,494.8,268,504.2s68.4,10.5,68.4,10.5s14.1-39.7,16.8-45.1s1.9-9.2-10.8-8.1S286,429.6,286,429.6L286,429.6z"/>
<path class="st28" d="M434,422.5l-1,0.1c-1.1,0.1-3.1,0.2-5.4,0.4c-3.7,0.3-8.3,0.8-12.2,1.4c-2.1,0.3-3.9,0.6-5.3,1
	c-1.8,0.4-2.8,0.9-2.8,1.4c0,1.2-10.7-20.5-21.3-42.4l-1-2.1c-0.3-0.7-0.7-1.4-1-2.1l-1.7-3.6c-2.6-5.4-5.1-10.6-7.3-15.2
	c-0.4-0.9-0.8-1.7-1.2-2.5l-6.8-14.1c-0.9-1.9-1.4-2.9-1.4-2.9s1.7-2,3.9-4.6s4.9-5.6,7-7.6h0.1c1.7,0.4,27.9,6.4,32.2,15.7
	c1.3,3,2.4,6.1,3.2,9.2c0.3,1.1,0.7,2.2,1,3.4c1.4,4.8,2.8,10.2,4.2,15.5c0.3,1,0.5,2.1,0.8,3.1C420.7,388,423,398,423,398l7,15.6
	L434,422.5z"/>
<path class="st27" d="M453,421.3c0,0-6,20.6-8.7,28.5c-0.3,1.1-0.7,2.1-1.2,3.1c-3.2,2.5-7,4.3-11,5c-0.8,0.1-1.6,0.2-2.4,0.1
	c-1.2-0.1-2.4-0.4-3.5-0.9c-6.4-3.2-10.9-11.7-10.9-11.7l2.1-3.8l3.3-6l6.9-12.6l0.7-1.3c0.5-1.5,1-3.1,1.3-4.6
	c0.2-1.1,0.4-2.3,0.4-3.5c0.1-1.4-0.2-2.7-0.9-3.9c-2.4-3.2-2.6-59.8,12-51.7S453,421.3,453,421.3L453,421.3z"/>
<path class="st27" d="M455.3,432.9l0.8-0.6c0,0,14.6-0.4,17.6,4s15.6,15.8,7.7,28.6c-4.7,7.6-11.3,14-19.1,18.5
	c0,0-41.7,23.5-49.4,25.8s-35.3,5.1-35.3,5.1s-8.7,6.3-12.2,6.5s-13.6,7.7-13.6,7.7S340.7,532,349,517s9.3-18,9.3-18s7.9,4.5,12.4,0
	s31.6-21.5,31.6-21.5s17.4-14,20.9-15.8s25.4-14.2,25.4-14.2C448.4,441.8,450.9,436.4,455.3,432.9z"/>
<path class="st14" d="M481.4,464.9c-4.7,7.6-11.3,14-19.1,18.5c0,0-2.3,1.3-6,3.4c-11.8,6.5-37.2,20.5-43.3,22.4h-0.1
	c-7.7,2.2-35.3,5.1-35.3,5.1s-8.7,6.3-12.2,6.5s-13.6,7.7-13.6,7.7S340.7,532,349,517s9.3-18,9.3-18s7.9,4.5,12.4,0
	s31.6-21.5,31.6-21.5l3.2-2.5c5.2-4.1,15.2-11.9,17.7-13.3c1-0.5,3.5-1.9,6.5-3.6l1.9-1.1c4.3-2.4,9.3-5.2,12.7-7.1l4.3-2.4V447
	c0-5.5,2.5-10.7,6.8-14.1l0.8-0.6c0,0,14.6-0.4,17.6,4S489.3,452.1,481.4,464.9L481.4,464.9z"/>
<path class="st26" d="M333.5,521.6l8.6,10.9c0,0,8-0.5,14.1-21.3s-1.8-22.8-1.8-22.8s-11.5,6.6-15,11.8S333.5,521.6,333.5,521.6
	L333.5,521.6z"/>
<path class="st26" d="M333,520.5l8.5,10.4c0,0,7.3-0.5,13.2-20.2S353,489,353,489s-10.9,6.3-14.3,11.2S333,520.5,333,520.5
	L333,520.5z"/>
<path class="st30" d="M333,520.5l8.5,10.4c0,0,7.3-0.5,13.2-20.2S353,489,353,489s-10.9,6.3-14.3,11.2S333,520.5,333,520.5
	L333,520.5z"/>
<path class="st26" d="M355.7,526.2l-0.4-0.7c1.5-1,5-15.8,6.8-24.9l0.8,0.2c-0.7,3.4-3.9,18.5-6.1,23.7l4-2.6
	c0.6-1.2,7.2-14.1,3.6-20.5L364,501l4.5-0.7l0.1,0.2c0.3,0.5,8,13.3,3.2,17.9l-0.5-0.6c4-3.9-2.2-15-3.2-16.7l-2.8,0.4
	c3.4,7.1-3.6,20.3-3.9,20.8l0,0.1L355.7,526.2L355.7,526.2z"/>
<path class="st6" d="M325.5,330.5c0.8,1.2,1.6,11.5,4.7,11.8S325.5,330.5,325.5,330.5z M307.7,310c0,0,8.7,1,9.3,8.9
	S307.7,310,307.7,310z"/>
<path class="st1" d="M261.2,406.9c0,0,3.5,10.5,11.1,12.6L261.2,406.9z M273.4,409.1c0,0-0.8,8.1,4.9,10.1S273.4,409.1,273.4,409.1z
	"/>
<path class="st6" d="M269.1,456.2c0,0-17,8.3-16.6,11.1S269.1,456.2,269.1,456.2z M248.7,455.2c0,0,8.5-9.1,14.6-8.3L248.7,455.2z
	 M413.1,386.8c0,0-2.4,17,1.2,18.3S413.1,386.8,413.1,386.8z"/>
<path class="st27" d="M269.8,471.8c0,0-6.8,29.2-0.5,31.9c6.1,3.5,12.6,6.3,19.3,8.3c20.4,6,42.3-3.5,51.1-22.8c0.9-1.9,1.6-3.9,2-6
	c1.6-10.4,4.6-26.3,4.6-26.3s5.9-28.6,5.4-36c-0.3-4.5,1-9,3.5-12.7l38.1-27.5l-10.5-28.9c0,0-27.3-38.7-51.9-3
	s-44.6,77.3-44.6,77.3S270.3,450.2,269.8,471.8z"/>
<path class="st6" d="M393.3,379.9l-7.4,5.4c-1.3-2.6-2.5-5.2-3.8-7.8c-6.6-13.7-12.7-26.4-15.3-31.9c-2.7,7-1.6,11.1-1.6,11.1
	c-7.7-6.5-15-13.5-22-20.8c9.7-5.5,19-2.5,26.1,2.2l0.9,0.6c4.8,3.4,9,7.6,12.5,12.3L393.3,379.9z"/>
<path class="st27" d="M269.8,471.8c0,0-6.8,29.2-0.5,31.9c6.1,3.5,12.6,6.3,19.3,8.3c20.4,6,42.3-3.5,51.1-22.8c0.9-1.9,1.6-3.9,2-6
	c1.6-10.4,4.6-26.3,4.6-26.3s5.9-28.6,5.4-36c-0.3-4.5,1-9,3.5-12.7l38.1-27.5l-10.5-28.9c0,0-27.3-38.7-51.9-3
	s-44.6,77.3-44.6,77.3S270.3,450.2,269.8,471.8z"/>
<path class="st6" d="M413,509.1c0.3-4.9,0.3-15.6,0.3-15.6s-0.3-7.8-6.8-17c-0.3-0.5-0.7-1-1.1-1.5c5.2-4.1,15.2-11.9,17.7-13.3
	c1-0.5,3.5-1.9,6.5-3.6c-1.2-0.1-2.4-0.4-3.5-0.9c-6.5-3.3-11-11.8-11-11.8l2.1-3.8l-7.4-16.2c-1.8,0.4-2.8,0.9-2.8,1.4
	c0,1.4-13.4-26.1-25-50.2c2.7-2.1,4.4-3.5,4.4-3.5l8.4,7.6l16.5,35.2l3,6.4c0,0,0.3,0.8,0.9,2.1c1.1,2.3,2.9,6.4,5.3,11.3
	c1.1,2.3,2.3,4.8,3.6,7.4c2.3,4.5,4.8,9.4,7.3,14c0.2,0.3,0.4,0.6,0.5,1c5.7,10.2,11.5,19.1,15.6,21.4c0,0,3.9,3.4,8.6,7.3
	C444.6,493.2,419.2,507.2,413,509.1L413,509.1z"/>
<path class="st27" d="M385,373.1l8.4,7.6l19.5,41.6c0,0,22.7,51.1,33.3,57c0,0,19.2,16.5,23.5,19.2s15.7,11.1,15.7,11.1
	s33.8,9.7,18.7,14.6s-35.7,1.1-35.7,1.1s-22.7-4.9-29.2-8.7c0,0-3.8,0.3-6.5,0.3s-21.9-3.3-21.4-6s0.5-17.6,0.5-17.6
	s-0.3-7.8-6.8-17s-23.3-27.9-23.3-27.9s-28.7-34.1-27.9-43.3S385,373.1,385,373.1L385,373.1z"/>
<path class="st27" d="M385,373.1l8.4,7.6l19.5,41.6c0,0,22.7,51.1,33.3,57c0,0,19.2,16.5,23.5,19.2s15.7,11.1,15.7,11.1
	s33.8,9.7,18.7,14.6s-35.7,1.1-35.7,1.1s-22.7-4.9-29.2-8.7c0,0-3.8,0.3-6.5,0.3s-21.9-3.3-21.4-6s0.5-17.6,0.5-17.6
	s-0.3-7.8-6.8-17s-23.3-27.9-23.3-27.9s-28.7-34.1-27.9-43.3S385,373.1,385,373.1L385,373.1z"/>
<path class="st6" d="M466.2,526.8l-0.7-0.3c4.5-8.3,12.4-14.3,21.6-16.5l0.2,0.8C478.3,512.9,470.6,518.7,466.2,526.8L466.2,526.8z
	 M451.6,522l-0.7-0.4c4.9-9.8,27.7-16.4,28.6-16.7l0.2,0.8C479.5,505.8,456.3,512.5,451.6,522z"/>
<path class="st6" d="M463.5,524.1l-0.8-0.3c0.8-2.3,8-22.4,12-23l0.1,0.8C472.2,502,466.6,515.3,463.5,524.1z"/>
<path class="st26" d="M465.4,526.8l-0.7-0.3c4.5-8.3,12.4-14.3,21.6-16.5l0.2,0.8C477.5,512.9,469.8,518.7,465.4,526.8L465.4,526.8z
	 M450.8,522l-0.7-0.4c4.9-9.8,27.7-16.4,28.6-16.7l0.2,0.8C478.7,505.8,455.5,512.5,450.8,522z"/>
<path class="st26" d="M462.7,524.1l-0.8-0.3c0.8-2.3,8-22.4,12-23l0.1,0.8C471.4,502,465.8,515.3,462.7,524.1L462.7,524.1z"/>
<path class="st6" d="M448.6,520.5c-0.5-3.2,7.6-25.4,9.4-30.4c-12.6,5.8-45.6,12.5-46,12.6l-0.2-0.8c0.4-0.1,35-7.1,46.7-12.9
	l0.9-0.5l-0.4,1c-2.9,7.6-10.1,28.1-9.7,30.9L448.6,520.5z"/>
<path class="st26" d="M447.8,520.5c-0.5-3.2,7.6-25.4,9.4-30.4c-12.6,5.8-45.6,12.5-46,12.6l-0.2-0.8c0.4-0.1,35-7.1,46.7-12.9
	l0.9-0.5l-0.4,1c-2.9,7.6-10.1,28.1-9.7,30.9L447.8,520.5z"/>
<path class="st6" d="M417.8,376.5c-13.2,2.7-30.7,3.2-30.7,3.2l-2.2,2.6l-1.8,2.1c0,0-16.6,20.5-22.5,21.9s-23.3,21.3-23.3,21.3
	s-14.2,9.5-26.8,16.8s-21.5-10.5-21.5-10.5l-4.5-41l27.6-5.3l1.6,12c0,0,18-7.5,20.7-8.1s33.7-27.4,36.1-28c1.5-0.6,3-1.3,4.3-2.1
	c3.1-1.8,6.4-4.1,6.4-4.1s17-1.6,31.6,0.7c1.4,4.8,2.8,10.2,4.2,15.5C417.3,374.5,417.6,375.5,417.8,376.5L417.8,376.5z"/>
<path class="st6" d="M417,373.4c-13.1,2.6-29.9,3.1-29.9,3.1l-3.2,3.7l-0.8,0.9c0,0-16.6,20.5-22.5,21.9s-23.3,21.3-23.3,21.3
	s-14.2,9.5-26.8,16.8S289,430.6,289,430.6l-4.5-41l27.6-5.3l1.6,12c0,0,18-7.5,20.7-8.1s33.7-27.4,36.1-28c1.1-0.4,2.1-0.9,3.1-1.5
	l0.7-0.4c5.3-3.1,11.3-4.8,17.4-5c6.7-0.2,13.4,0.2,20.1,1.1C413.5,360,415.3,366.8,417,373.4L417,373.4z M448.1,515.7l7.1,3.8
	l-3.5,5l-6-2.8L448.1,515.7L448.1,515.7z"/>
<path class="st26" d="M448.1,514.9l7.1,3.8l-3.5,5l-6-2.8L448.1,514.9L448.1,514.9z"/>
<path class="st6" d="M462.4,521l7.6,2.2l-2.8,5.2l-7.2-2.9L462.4,521L462.4,521z"/>
<path class="st26" d="M462.4,520.1l7.6,2.2l-2.8,5.2l-7.2-2.9L462.4,520.1z"/>
<path class="st6" d="M311.2,402.6c0,0-13.8,8.4-12.7,14.3L311.2,402.6z M415.5,390.7l17.6-17.9l12.4,12.2L428,403L415.5,390.7z"/>
<path class="st31" d="M416.7,391.9l17.6-17.9l12.4,12.2l-17.6,17.9L416.7,391.9z"/>
<path class="st6" d="M426.1,401.1l17.6-17.9l3,3l-17.6,17.9L426.1,401.1z"/>
<path class="st31" d="M424.6,405l22.8-23.1l14.2,13.9L438.7,419L424.6,405z"/>
<path class="st6" d="M436,416.3l22.8-23.1l2.7,2.7L438.7,419L436,416.3z"/>
<path class="st31" d="M434.1,420.4l28.2-28.6l13.9,13.7L448,434.1L434.1,420.4z"/>
<path class="st6" d="M454.2,457c-1.1,0.7-3.1-0.2-4-0.8c-4.2-5.6-4.4-23.7-4.4-23.7l0.4-0.4l-1.2-1.1l28.2-28.6l1.2,1.1l0.3-0.3
	c5.4,1.7,10.9,2.7,16.5,2.9c3.1,0.1,4.2-0.5,5.4,0.4c1.2,1.9,1.8,4.1,1.9,6.4c0,3.7-11.1,4.6-17.6,5c-5.5,0.4-2.8,9.9-1.9,12.8
	c0.2,0.7,0.3,1.4,0.3,2c-0.6,6.1-7.4,6.5-13.2,5c-6.2-1.6-9,6.5-9,6.5S461.6,451.9,454.2,457L454.2,457z"/>
<path class="st31" d="M455.3,458.2c-1.6,1.1-4-0.4-5.1-1.9c-4.2-5.6-4.4-23.7-4.4-23.7l28.8-29.3c5.4,1.7,10.9,2.7,16.5,2.9
	c3.1,0.1,4.2-0.5,5.4,0.4c2.2,1.5,3.1,5.2,3.1,7.5c0,3.7-11.1,4.6-17.6,5c-5.5,0.4-2.8,9.9-1.9,12.8c0.2,0.7,0.3,1.4,0.3,2
	c-0.6,6.1-7.4,6.5-13.2,5c-6.2-1.6-9,6.5-9,6.5S462.7,453,455.3,458.2L455.3,458.2z"/>
<path class="st6" d="M455.3,458.2c-1.6,1.1-4-0.4-5.1-1.9c-4.2-5.6-4.4-23.7-4.4-23.7l28.8-29.3c5.4,1.7,10.9,2.7,16.5,2.9
	c3.1,0.1,4.2-0.5,5.4,0.4c2.2,1.5,3.1,5.2,3.1,7.5c0,3.7-11.1,4.6-17.6,5c-5.5,0.4-2.8,9.9-1.9,12.8c0.2,0.7,0.3,1.4,0.3,2
	c-0.6,6.1-7.4,6.5-13.2,5c-6.2-1.6-9,6.5-9,6.5S462.7,453,455.3,458.2L455.3,458.2z"/>
<path class="st31" d="M453.5,456.4c-1.5,1.1-2.8,0.7-3.8-0.7c-3.7-5.1-4-23.1-4-23.1l28.8-29.3c5.1,1.4,10.3,2,15.5,1.9
	c3-0.1,4.8,0.4,5.9,1.1c2,1.4,1.8,3.8,1.7,6c-0.2,3.5-10.8,4.9-16.9,5.7c-5.1,0.6-3.2,9.3-2.5,12.1c0.2,0.7,0.3,1.4,0.2,2.1
	c-0.9,5.7-7.4,6.5-12.8,5.3c-5.8-1.2-8.8,6.7-8.8,6.7S460.8,451.1,453.5,456.4L453.5,456.4z M436.4,352.8c-2.2,2.2-5.7,2.2-7.9,0.1
	l-0.1-0.1c-2.2-2.2-2.2-5.7-0.1-7.9c0,0,0,0,0,0c0.1-0.1,0.2-0.2,0.4-0.3c2.2-1.9,5.4-1.7,7.5,0.3l0.1,0.1c2,2,2.2,5.3,0.4,7.5
	C436.6,352.6,436.5,352.7,436.4,352.8L436.4,352.8z"/>
<path class="st6" d="M436.4,352.8c-2.2,2.2-5.7,2.2-7.9,0.1l-0.1-0.1c-2.2-2.2-2.2-5.7-0.1-7.9c0,0,0,0,0,0c0.1-0.1,0.2-0.2,0.4-0.3
	l8,7.9C436.6,352.6,436.5,352.7,436.4,352.8L436.4,352.8z M416.7,391.9l17.6-17.9l2.3,2.3L419,394.2L416.7,391.9z"/>
<path class="st31" d="M429,346l11.8,11.6c3.6,3.6,3.7,9.4,0.1,13.1l-26.5,26.9l-25-24.6l26.5-26.9C419.5,342.4,425.4,342.4,429,346
	C429,346,429,346,429,346L429,346z"/>
<path class="st6" d="M390.1,316.6c-4.7,3.7-9,7.8-13,12.2c-8.8-6.3-14.1-16.5-14.1-27.3c0-3.4,0.5-6.7,1.5-9.9
	c1.9-1.6,3.6-3.4,5.3-5.2C369.8,286.3,419.3,293.1,390.1,316.6L390.1,316.6z"/>
<path class="st27" d="M430.1,299.8v0.8c0,2-0.3,3.9-0.6,5.8c-0.1,0.6-0.3,1.3-0.4,1.9c0,0,0,0.1,0,0.1
	c-4.6,17.9-22.9,28.7-40.9,24.1c-17.9-4.6-28.7-22.9-24.1-40.9c0.5-2.1,1.3-4.1,2.2-6c0.4-0.9,0.9-1.8,1.4-2.7
	c1.7-2.7,3.7-5.3,6-7.5c13.5-12.7,34.7-12,47.4,1.5C426.9,283.2,430.1,291.3,430.1,299.8L430.1,299.8z M387.1,378.1l-3.3,3.8
	l-0.8,0.9c0,0-1.7,2.1-4.2,5c-5.3,6.1-14.3,16-18.3,16.9c-5.9,1.4-23.3,21.3-23.3,21.3s-14.2,9.5-26.8,16.8S289,432.3,289,432.3
	l-4.5-41l27.6-5.3l1.6,12c0,0,18-7.5,20.7-8.1c2.2-0.5,24.5-19.5,33-25.9c0.9-0.8,2-1.5,3.1-2.1c1.3-0.5,2.6-1.1,3.7-1.8l0.1-0.1
	c5.3-3.1,11.2-4.8,17.3-4.9c12.5-0.2,32.6,0.8,39.5,9C441.3,376.5,387.1,378.1,387.1,378.1L387.1,378.1z"/>
<path class="st6" d="M300.3,324c-1.8,0.3-3.7,0.4-5.6,0.4c-4.8,0-14.8,3.3-17.6,29.3c-3.8,34.6-9.2,51.9-9.2,51.9s20.3-7,31.9-5.1
	s29.5-5.9,29.5-5.9s-0.8-28.1-2.7-33.8C324.8,355.3,318.8,321.2,300.3,324L300.3,324z"/>
<path class="st28" d="M300.3,322.4c-1.8,0.3-3.7,0.4-5.6,0.4c-4.8,0-14.8,3.3-17.6,29.3c-3.8,34.6-9.2,51.9-9.2,51.9
	s20.3-7,31.9-5.1s29.5-6,29.5-6s-0.8-28.1-2.7-33.8C324.8,353.7,318.8,319.6,300.3,322.4L300.3,322.4z"/>
<path class="st6" d="M316.6,365.1c0,0-9.5,6.3-5.5,7.5S318.2,372,316.6,365.1z M315.6,376.3c0,0-26,8.1-16.8,11.5
	S315.6,376.3,315.6,376.3z M413.3,317.8l11.5-1.1c2.8-0.3,6-0.7,7.7-3.1s1.1-5.5,2.1-8.1c0.7-1.8,2.1-3.3,3.3-4.8
	c6.9-9.2,4.8-23.9-4.5-30.7c-2.2-1.6-4.8-2.9-7-4.5c-5.5-4.2-8.4-10.9-12.8-16.2s-11.8-9.7-18-6.6c-4.5,2.2-6.6,7.4-10.6,10.4
	c-5.6,4.1-13.4,2.9-20.3,2.1c-7.2-0.7-14.5-0.7-21.6,0.2c-1.1,0-2.1,0.4-3,1c-0.8,0.9-1.3,2.1-1.3,3.4c-0.3,6,2.7,11.8,2.1,17.8
	c-0.6,6.1-5.1,11.3-10.3,14.5c-4.5,2.8-10.5,5.7-10.3,11c0.3,1.8,0.9,3.6,1.8,5.2c7.4,15.3,7.5,33.1,0.2,48.4
	c-1,2.1-2.5,4.4-4.8,4.9c6.4,1.7,13.1-1.2,16.2-7.1c2.5-5.1,2-12,6.5-15.5c3.1-2.4,7.5-2.2,11.1-3.9c4.9-2.2,7.6-7.5,9.9-12.4
	l6.4-13.4c1.9-4.1,4.4-9,8.6-11c4.6-2.2,10.2-0.1,15,0.3c7.9,0.5,16.2,1.1,13.8,11.6C410.3,307.4,412.6,313.9,413.3,317.8
	L413.3,317.8z"/>
<path class="st32" d="M437.9,299.8c-1.2,1.5-2.6,3-3.3,4.8c-0.3,1-0.6,2-0.6,3c-0.2,1.8-0.4,3.7-1.4,5.2c-1.6,2.3-4.9,2.8-7.7,3
	c-3.8,0.4-7.7,0.7-11.5,1.1c-0.7-3.9-3-10.3-8.2-7.7c2.4-10.5-5.9-11-13.8-11.6c-4.8-0.3-10.5-2.5-15-0.3c-4.3,2.1-6.7,7-8.6,11
	l-6.4,13.4c-2.3,4.9-5,10.1-9.9,12.4c-3.6,1.6-8,1.4-11.1,3.9c-4.5,3.5-4,10.4-6.5,15.5c-3.1,5.8-9.8,8.8-16.2,7
	c2.3-0.4,3.8-2.7,4.8-4.9c7.3-15.3,7.2-33.1-0.2-48.4c-1-1.6-1.6-3.4-1.8-5.2c-0.3-5.3,5.8-8.2,10.3-11c5.2-3.2,9.7-8.4,10.3-14.5
	c0.6-6-2.4-11.8-2.1-17.8c0-1.3,0.4-2.5,1.3-3.4c0.9-0.6,2-1,3.1-1c7.2-0.9,14.4-1,21.6-0.2c7,0.7,14.7,2,20.3-2.1
	c4-2.9,6.1-8.2,10.6-10.4c6.2-3.1,13.6,1.2,18,6.6s7.3,12,12.8,16.2c2.2,1.7,4.8,2.9,7,4.5c4,3,6.7,7.3,7.9,12.2
	C443,287.7,441.7,294.5,437.9,299.8L437.9,299.8z"/>
<g class="st15">
	<path d="M341.7,271.3c0.5-5.1-1.6-10-2.1-15.1c-0.6,0.9-0.9,1.9-0.9,3c-0.3,5.2,2,10.3,2.2,15.5
		C341.3,273.6,341.5,272.4,341.7,271.3z M327.5,337.2c2.3-11.9,0.8-24.3-4.5-35.2c-0.6-1.1-1.1-2.3-1.5-3.5c-0.8,1.2-1.2,2.6-1.1,4
		c0.3,1.8,0.9,3.6,1.8,5.2C326.6,316.9,328.4,327.1,327.5,337.2L327.5,337.2z M438.7,294.4c-1.2,1.5-2.6,3-3.3,4.8
		c-1,2.6-0.4,5.9-2.1,8.2s-4.9,2.8-7.7,3.1l-11.5,1.1c-0.7-3.9-3-10.3-8.2-7.7c2.4-10.5-5.9-11-13.8-11.6c-4.8-0.3-10.5-2.5-15-0.3
		c-4.3,2.1-6.7,7-8.6,11l-6.4,13.4c-2.3,4.9-5,10.1-9.9,12.4c-3.6,1.6-8,1.4-11.1,3.9c-4.5,3.5-4,10.4-6.5,15.5
		c-2.4,4.5-6.9,7.3-12,7.5c0,0.1-0.1,0.2-0.1,0.3c-1,2.1-2.5,4.4-4.8,4.9c6.4,1.7,13.1-1.2,16.2-7.1c2.5-5.1,2-12,6.5-15.5
		c3.1-2.4,7.5-2.2,11.1-3.9c4.9-2.2,7.6-7.5,9.9-12.4l6.4-13.4c1.9-4.1,4.4-9,8.6-11c4.6-2.2,10.2-0.1,15,0.3
		c7.9,0.5,16.2,1.1,13.8,11.6c5.2-2.6,7.6,3.8,8.2,7.7l11.5-1.1c2.8-0.3,6-0.7,7.7-3.1s1.1-5.5,2.1-8.1c0.7-1.8,2.1-3.3,3.3-4.8
		c2.6-3.6,4.1-7.9,4.1-12.4C441.3,290.2,440.2,292.4,438.7,294.4L438.7,294.4z"/>
</g>
<path class="st6" d="M437.9,299.8c-1.2,1.5-2.6,3-3.3,4.8c-0.3,1-0.6,2-0.6,3c-0.8-0.7-1.7-1.4-2.6-2c-3.9-2.6-8.3-4.3-12.6-6
	l-19.4-7.5c-4.6-1.8-9.1-3.5-13.7-5.3c-1.7-0.7-3.5-1.3-5.3-1.8l-0.6-0.1c-3.1-0.6-6.3-0.5-9.4,0.3c-0.8,0.2-1.6,0.4-2.4,0.6
	c0-0.3,0-0.6,0-0.9c0-0.5,0-1-0.1-1.5c2.3,0.5,4.6,0.2,6.8-0.6c1.7-0.9,3.2-2,4.5-3.4c3.5-3,7.5-5.4,11.8-7.1
	c6.6-2.4,13.8-2.7,20.9-2.5c3.5,0,7.1,0.4,10.5,1.2c4.2,1.3,8.2,3.1,12,5.3c2.5,1.3,5,2.8,6.7,5
	C442.9,287.7,441.7,294.5,437.9,299.8L437.9,299.8z"/>
<path class="st33" d="M445.2,290.8c-1.5,0.6,1.5,1.3,0.4,2.3c-1.7,1.5,0.7,3.2-1.4,4.1c-0.5,0.2,0.8,4.3,0.3,4.3
	c1.1,3.3-8.1,3.4-8.1,7v0.8c-1.5-1.7-3.1-3.2-5-4.4c-3.9-2.6-8.3-4.3-12.6-6l-19.4-7.5l-13.7-5.3c-1.7-0.7-3.5-1.3-5.3-1.8l-0.6-0.1
	c-3.1-0.6-6.3-0.5-9.4,0.3c-0.8,0.2-1.6,0.4-2.4,0.6V284c0-0.5,0-1-0.1-1.5c2.3,0.5,4.6,0.2,6.8-0.6c1.7-0.9,3.2-2,4.5-3.4
	c3.5-3,7.5-5.4,11.8-7c6.6-2.4,13.8-2.7,20.9-2.5c3.5,0,7.1,0.4,10.5,1.2c4.3,1.1,8.2,3.2,12,5.3c2.9,1.5,5.9,3.3,7.4,6.1
	c0.5,1,0.9,2.1,1.3,3.2C443.9,286.8,444.5,288.8,445.2,290.8L445.2,290.8z"/>
<path class="st6" d="M440.8,301.1c-6-15-35.5-14.6-35.9-14.6v-0.8c1.2,0,30.4-0.4,36.6,15.1L440.8,301.1z M443,294.2
	c-3.9-10.4-26.2-11.4-26.4-11.4V282c0.9,0,23,1,27.1,11.9L443,294.2z"/>
</svg>
