<svg xmlns="http://www.w3.org/2000/svg" viewBox="0 0 949.8 661.5"><path opacity=".1" d="M469.8 579.4c236.2 0 427.7 18.4 427.7 41.1s-191.5 41-427.7 41-427.7-18.4-427.7-41.1 191.5-41 427.7-41zM89.4 160.7c19.5 44.1-5.4 94.9-34.7 133.1-9.8 12.8-20.6 26.3-22 42.3-1.6 19.7 11.7 37.8 27.5 49.6 28.8 21.5 68.2 28.2 102.5 17.3 29.6-9.4 54.6-30.6 84.5-39.1 50-14.3 103 9.4 145.8 39 30.3 20.9 62.8 46.4 99.3 41.9 25.7-3.1 47.5-21.2 62.3-42.5 7.2-10.3 13.4-21.8 23.8-28.7 6.2-4.1 13.5-6.3 20.7-7.9 66.4-14.2 136.8 20.4 202.4 2.6 44.3-12 79.5-47 101.5-87.3s32.2-85.7 40.7-130.8c6.1-32 11.1-66.6-2.8-96C926.1 23.2 892 4.3 857.7.7S789 7 757.4 20.8C718 38 679.3 62.2 636.2 62.3c-29.3.1-57.3-11.2-85.4-19.8-46.9-14.4-95.6-21.5-144.2-28.1C360 8.1 313 2.2 266.2 6c-33.1 2.6-62.4 15.3-94.5 21.1-20.9 3.8-42 1-62.6 7.4-25.3 7.9-51.4 26.3-52.8 55.2-1.2 27.5 22.8 47.6 33.1 71z"/><linearGradient id="a" gradientUnits="userSpaceOnUse" x1="585.649" y1="-1.054" x2="585.649" y2="412.911" gradientTransform="matrix(1 0 0 -1 -125.1 542.65)"><stop offset="0" stop-color="gray" stop-opacity=".25"/><stop offset=".54" stop-color="gray" stop-opacity=".12"/><stop offset="1" stop-color="gray" stop-opacity=".1"/></linearGradient><path fill="url(#a)" d="M601.9 199.9c-4.3-11.1-15.3-37.3-22.5-32.1-9.2 6.6 9.2 35.5 9.2 35.5.5 5.3-9.8 16.4-15.3 21.9v-.7c-.1.2-.1.4-.2.6l-.5-.3c-.1.4-.3.8-.7 1.2v-1.2c-1.1 4.5-19.6 10.2-19.6 10.2h-1.4c-5.1 0-18.5-1.2-24.7-11.1-3.2-5.4-7.3-10.2-12.1-14.1-1.7-1.3-3.7-2.1-5.8-2.2-17.1-1.1-31-9.8-33.8-11.6l-.5-.4-.1.3c-.7-.9-1.3-1.9-1.9-2.9l-.3-.5c8.5-4.2 13.8-12.9 13.8-22.3v-.5c1.5-2.6 2.3-5.6 2.3-8.6v-3l3.9-3.5c1.8-1.6 3.6-3.3 4.5-5.5.4-.9.5-1.8.5-2.8.2-1.7-.5-3.3-1.8-4.3-3-2.1-8 0-10.2-2.9-1-1.3-.8-3.1-1.3-4.6-1-3.1-4.6-4.8-7.9-4.8s-6.5 1.2-9.7 2.1c-6.7 1.9-13.7 2.6-20.7 1.9-1.9-.3-3.8-.3-5.7.2-2.3.9-4 2.9-4.6 5.3-.2.9-.4 1.8-.4 2.7-2.8 3.1-4.3 7.2-4.3 11.4v7.7c0 4.1 1.5 8.1 4.2 11.2.6 7.3 4.5 14 10.5 18.2v.6l.1.1c-.2 2.4-.5 4.7-1.1 7.1v-.5s-14 7.5-29 7.6h-1.7c-3-.1-5.8 1-8 3-4.4 4.2-12.2 10.8-17 10.8-1 0-26.2 4.9-30.4 5.8l-7.8-7.6-.2.5-.5-.5c-.9.1-1.7.2-2.5.4-4-4.7-12-15.8-13.9-30.5 0 0 17.3-19.7 10.9-38-5.4-15.6-20.4 17.9-24.6 28-.7 1.8-.8 3.7-.3 5.5l14 45.2c-1.3 3.5-1.7 7.3-1.1 11h-.2l10.2 13.1s7.7 3.3 19.7 3.2c8.8 0 17.6-1.7 25.7-4.9h2.4l-.5.2h12.2l7.7 23.4c-.3 2.1-4 31.9-7 38.5-.9 2.2-1.3 4.6-1.2 7 .2 4.6.9 9.1 2.2 13.5l6.8-.3-.3.5c-5.7 11.8-15.3 32.7-21 52.3l-9.9 20 7.4 89.7h.3l.6.1c.8.1 2 .3 3.6.5l-.6 1-16.3 27s-11.6 23.8 14.1 19.3c0 0 9.5-2.8 13.4-19l16.9-15.9s.8-10.5-4-14.8c-.3-4.9-1.1-19.1.1-22.5 1.4-4.1-6-51.8-6-51.8s26.8-55.5 43-56.9c1.2-.1 2.4.1 3.5.5 13.3 4.3 29.5 36.6 34.2 46.6l.2.5v.1l.2.4v.1l.2.3v.1l.1.3v.1l.1.3v.1l.1.2v.1l.1.1V412.2l2.1 62.5.2.1h.1l-.2 1.3-.9 6.5s11.6 24.5 10.9 27.6c-.7 3.1 7.8 15.5 19.7 12.1 12-3.5 4.8-22.9 4.8-22.9l-11.5-23.8-.5-1.1c1.1-.7 2.2-1.5 3.2-2.4 0 0-3.5-25.5 0-31s4.6-30.7 4.6-30.7-2.5-17.3-6.7-24.8l-17.7-63.3c5.3 4.9 9.4 6.9 12.9 6.7h.6c1.5 0 3-.3 4.3-1.1.7-.4 1.4-.9 2-1.4l.3-.3c4.9-4.1-5.6-20.4-11.6-30-5.8-9.3 2.2-34.6 2.8-36.5.5-.4 1.1-.7 1.7-1 1.2-.5 2.6-.8 3.9-.9 5.7.2 12.8 3.5 21.5 5.2 6.1 1 12.2 1.5 18.4 1.4h.4c2.5 0 4.7 0 6.5-.1 1.6-.1 3.2-.5 4.7-1.3 1.2-.7 2.4-1.6 3.3-2.7l15.3-17.3-.4.2c.7-2 .7-4.1 0-6.1l16.2-28c2.2-2.7 2.5-6.1 1.3-9.2z"/><path fill="#444176" d="M419.8 505.9l-16.3 15.6c-3.7 16-12.9 18.7-12.9 18.7-24.8 4.4-13.6-19-13.6-19l15.8-26.6 1.9-3.3s11.2-3.4 18.7-1.4c.9.3 1.8.7 2.5 1.4 4.7 4.1 3.9 14.6 3.9 14.6zm100.7 13.9c-11.6 3.4-19.7-8.8-19-11.9s-10.6-27.2-10.6-27.2l.9-6.4.8-5.9 19 1.4 1.8 3.8 11.1 23.5s7.5 19.4-4 22.7z"/><path opacity=".1" d="M416 494c-1.8 3.1-16.3 1.5-23.4.6l1.9-3.3s11.2-3.4 18.7-1.4c.9.3 1.8.7 2.5 1.4.3 1.7.3 2.7.3 2.7zm97.4-20.4c-9.7 6.5-20.1 1.6-21.6.8l.8-5.9 19 1.4 1.8 3.7z"/><path fill="#565387" d="M516 439.6c-3.4 5.4 0 30.6 0 30.6-11.2 10.2-24.5 2.7-24.5 2.7l-2-61.6s-22.1-50.7-37.8-49.3-41.5 56.1-41.5 56.1 7.1 46.9 5.8 51 0 23.8 0 23.8c-2.4 4.1-27.2 0-27.2 0l-7.1-88.5 9.5-19.7c5.5-19.3 14.7-40 20.3-51.6 2.8-5.8 4.6-9.3 4.6-9.3l18.1-3.8 58.8-12.2 21.1 76.8c4.1 7.5 6.5 24.5 6.5 24.5s-1.1 25-4.6 30.5z"/><g opacity=".1"><path d="M497 472.9l-2-61.6s-22.1-50.7-37.8-49.3c-.7.1-1.4.2-2 .5 15.3 5.1 34.4 48.9 34.4 48.9l2 61.6c4.2 2.1 8.9 3 13.5 2.5-2.8-.5-5.6-1.3-8.1-2.6z"/><path d="M394.3 493l-7.1-88.4 9.5-19.8c5.5-19.3 14.7-40 20.3-51.6 2.8-5.8 4.6-9.3 4.6-9.3l18.1-3.8 53.6-11.1-.3-1.1-58.8 12.2-18.1 3.8s-1.8 3.5-4.6 9.3c-5.6 11.6-14.8 32.3-20.3 51.6l-9.5 19.7 7.1 88.5s13.6 2.2 21.6 1.7c-5.4-.3-10.8-.9-16.1-1.7z"/></g><path fill="#CED2DF" d="M352.9 219s-19.4 1-16.7 21.4l5.4.7 8.2-8.8 4.1-7.5v-1.7l-1-4.1z"/><path opacity=".1" d="M352.9 219s-19.4 1-16.7 21.4l5.4.7 8.2-8.8 4.1-7.5v-1.7l-1-4.1z"/><path fill="#CED2DF" d="M568.6 226.4s16 8.5 11.9 18.4l-5.1 2-6.8-3.7-1-8.8.7-6.1.3-1.8z"/><path opacity=".1" d="M568.6 226.4s16 8.5 11.9 18.4l-5.1 2-6.8-3.7-1-8.8.7-6.1.3-1.8z"/><path fill="#88455E" d="M452.3 138.7h13.6c11.6 0 21.1 9.4 21.1 21.1 0 11.6-9.4 21.1-21.1 21.1h-13.6c-11.6 0-21.1-9.4-21.1-21.1 0-11.7 9.4-21.1 21.1-21.1z"/><path fill="#EC8C9C" d="M352.8 221.9l-11.9 19-1-3.4-16.2-52.7c-.6-1.8-.5-3.7.3-5.5 4.1-9.9 18.5-43 23.7-27.6 6.1 18-10.5 37.4-10.5 37.4 1.9 15.8 10.8 27.2 14.2 31.1.8 1.1 1.4 1.7 1.4 1.7zm213.3 8.1s18.7-17.7 18-24.8c0 0-17.7-28.6-8.8-35 7-5.1 17.6 20.7 21.8 31.6 1.1 3 .8 6.3-.7 9L574 250.4l-7.9-20.4zM445 180.7s3.4 21.8-6.5 29.9 28.2 8.1 28.2 8.1l13.6-12.6s-15.6-14.6-10.9-25.5l-24.4.1z"/><path opacity=".1" d="M444.3 205.5s14.6 10.9 29.3-1.4l23.8 49.3-1.4 60.2s-49.3 25.5-69.7 9.9-3.4-23.8-3.4-23.8l-4.8-46.3 5.1-29.9s9.2-14.3 9.9-14.3 11.2-3.7 11.2-3.7z"/><path fill="#EBF1F6" d="M444.3 204.8s14.6 10.9 29.3-1.4l23.8 49.3L496 313s-49.3 25.5-69.7 9.9-3.4-23.8-3.4-23.8l-4.8-46.3 5.1-29.9s9.2-14.3 9.9-14.3 11.2-3.8 11.2-3.8z"/><path opacity=".1" d="M444.3 199.8s-13.9 7.9-28.9 7.5c-2.9-.1-5.6 1-7.7 2.9-4.3 4.1-11.8 10.6-16.5 10.6-1 0-29.9 5.8-29.9 5.8l-7.6-7.6s-11.4 22.3-16.8 21.3l9.9 12.9s18.7 8.2 43.2-1.7h14.3l7.5 23.1s-3.7 31.3-6.8 38.1 1 20.1 1 20.1l26.9-1s1.4-13.3 3.4-15-7.1-60.2-7.1-60.2-6.1-33 16.3-44.9l-1.2-11.9z"/><path opacity=".1" d="M434.1 320.1c-1 4-1.7 8.1-2.1 12.3l-20.6.8c2.8-5.8 4.6-9.3 4.6-9.3l18.1-3.8zm-81.3-98.2l-11.9 19-1-3.4c4.4-4.3 9.5-13.4 11.5-17.2.8 1 1.4 1.6 1.4 1.6z"/><path fill="#CED2DF" d="M444.3 199.8s-14.6 7.9-29.6 7.5c-2.9-.1-5.6 1-7.7 2.9-4.3 4.1-11.8 10.6-16.5 10.6-1 0-29.9 5.8-29.9 5.8l-7.7-7.7s-11.4 22.3-16.8 21.3l9.9 12.9s18.7 8.2 43.2-1.7h14.3l7.5 23.1s-3.7 31.3-6.8 38.1 1 20.1 1 20.1l26.9-1s1.4-13.3 3.4-15-7.1-60.2-7.1-60.2-6.1-33 16.3-44.9l-.4-11.8z"/><path opacity=".1" d="M473.5 197.7s13.9 10.6 32.4 11.8c2 .1 4 .9 5.5 2.1 4.7 4 8.6 8.7 11.7 14 7.5 12.3 25.8 10.9 25.8 10.9s17.9-5.6 18.9-10c0 0 .5 24 11.7 18.2l-14.8 17c-1.9 2.2-4.6 3.5-7.5 3.6-5.5.2-15.2.3-23.3-1.3-12.3-2.4-21.1-8.2-27.5-3.1 0 0-8.5 26.5-2.7 36.1s16 25.5 11.2 29.6-10.5 3.7-20.1-6.1-10.3-26.5-10.3-26.5l2.4-42.9s-9.2-32.3-18-38.8l4.6-14.6z"/><path opacity=".1" d="M581 244.3l-14.8 17.1c-1 1.1-2.2 2-3.6 2.7-1.2.5-2.5.9-3.9.9-5.5.2-15.2.3-23.3-1.3-11.5-2.2-19.9-7.4-26.3-3.9-.4.2-.9.5-1.3.9 0 0-8.5 26.5-2.7 36.1s16 25.5 11.2 29.6c-.8.7-1.7 1.3-2.7 1.7-4.3 1.9-9.6.3-17.4-7.9-9.5-9.9-10.5-26.5-10.5-26.5l2.4-42.9s-9.2-32.3-18-38.8l3.9-13.9c2.7 1.8 16.1 10.4 32.6 11.5 2 .1 4 .9 5.5 2.1 4.7 4 8.6 8.7 11.7 14 7.5 12.3 25.8 10.9 25.8 10.9 4.4-1.4 8.7-3.1 12.9-5.1 2.6-1.3 4.9-2.7 6-4 .3-.3.5-.8.7-1.2.1-.1.6 23.8 11.8 18z"/><path fill="#CED2DF" d="M580.3 244.6l-14.8 17.1c-.8.9-1.8 1.7-2.9 2.3-1.4.8-3 1.2-4.5 1.3-5.5.2-15.2.3-23.3-1.3-11-2.1-19.3-7.1-25.6-4.3-.7.3-1.4.7-2 1.2 0 0-8.5 26.5-2.7 36.1s16 25.5 11.2 29.6c-.6.5-1.3 1-2 1.4-4.4 2.4-9.8 1-18.1-7.5-9.5-9.9-10.5-26.5-10.5-26.5l2.4-42.9s-9.2-32.3-18-38.8l4.1-14.6.5.3c2.7 1.8 16.1 10.4 32.6 11.5 2 .1 4 .9 5.6 2.1 4.7 4 8.6 8.7 11.7 14 7.5 12.3 25.8 10.9 25.8 10.9 4.4-1.4 8.7-3.1 12.9-5.1 3.1-1.6 5.6-3.3 6-4.9v.9c.2 4.1 1.7 22.4 11.6 17.2z"/><path opacity=".1" d="M469.8 181.2h-25c.5 4 .7 8 .5 12 7.8 5.5 17.9 6.2 26.4 1.9-2.5-4.4-3.9-9.5-1.9-13.9z"/><circle fill="#EC8C9C" cx="459.9" cy="172.5" r="24.8"/><path opacity=".1" d="M454.8 168.1c2.8-.3 5.5-1.3 8.3-.8 2.5.5 4.6 2.2 7.1 2.7 4.8 1 9.2-2.5 12.8-5.8l7.8-7.1c1.7-1.6 3.5-3.2 4.4-5.4s.6-5-1.3-6.4c-2.9-2-7.8 0-9.8-2.8-.9-1.3-.8-3-1.3-4.5-1-3.1-4.4-4.7-7.7-4.8s-6.3 1.1-9.4 2c-6.5 1.9-13.3 2.5-20 1.9-1.8-.3-3.7-.3-5.5.2-2.2 1-3.9 2.9-4.4 5.3-1.5 5.4 1.1 14.2 3.7 19.1s10 7.1 15.3 6.4z"/><path fill="#88455E" d="M454.8 167.4c2.8-.3 5.5-1.3 8.3-.8 2.5.5 4.6 2.2 7.1 2.7 4.8 1 9.2-2.5 12.8-5.8l7.8-7.1c1.7-1.6 3.5-3.2 4.4-5.4s.6-5-1.3-6.4c-2.9-2-7.8 0-9.8-2.8-.9-1.3-.8-3-1.3-4.5-1-3.1-4.4-4.7-7.7-4.8s-6.3 1.1-9.4 2c-6.5 1.9-13.3 2.5-20 1.9-1.8-.3-3.7-.3-5.5.2-2.2 1-3.9 2.9-4.4 5.3-1.5 5.4 1.1 14.2 3.7 19.1s10 7 15.3 6.4z"/><path opacity=".1" d="M411.5 274.8s5.4.7 8.2 4.1 7.5 4.4 7.5 4.4m-64.7-53.5s4.4 9.9 1.7 10.9-1.7 8.2-1.7 8.2"/><path opacity=".1" d="M364 226.4s28.9-5.8 29.9-5.8c4.7 0 12.2-6.5 16.5-10.6 1.3-1.2 2.9-2.1 4.7-2.6h-.4c-2.9-.1-5.6 1-7.7 2.9-4.3 4.1-11.8 10.6-16.5 10.6-.8 0-19.3 3.7-26.8 5.2l.3.3zm80.3-25.2v-1.3c-7 3.5-14.4 5.9-22.2 7.1 7.7-.7 15.2-2.6 22.2-5.8zm-35.7 131.4s-4.1-13.3-1-20.1 6.8-38.1 6.8-38.1l-7.5-23.1h-14.3l-.9.3h11.8l7.5 23.1s-3.7 31.3-6.8 38.1 1 20.1 1 20.1l26.9-1v-.2l-23.5.9zM516 321.2c-.6.5-1.3 1-2 1.4-4.4 2.4-9.8 1-18.1-7.5-7.6-7.8-9.8-20-10.4-24.6l-.2 3.5s1 16.7 10.5 26.5c8.3 8.5 13.7 9.9 18.1 7.5.7-.4 1.4-.9 2-1.4 1.4-1.2 1.5-3.5.8-6.4-.1.4-.3.7-.7 1zm59.5-76l-9.6 11.1c-.8.9-1.8 1.7-2.9 2.3-1.4.8-3 1.2-4.5 1.3-5.5.2-15.2.3-23.3-1.3-11-2.1-19.3-7.1-25.6-4.3-.7.3-1.4.7-2 1.2 0 0-5.5 17.1-4.6 28.8.6-10.9 4.6-23.4 4.6-23.4.6-.5 1.3-.9 2-1.2 6.3-2.8 14.5 2.1 25.6 4.3 8.1 1.6 17.8 1.5 23.3 1.3 1.6-.1 3.1-.5 4.5-1.3 1.1-.6 2.1-1.4 2.9-2.3l14.8-17.1c-1.5 1-3.5 1.2-5.2.6z"/><linearGradient id="b" gradientUnits="userSpaceOnUse" x1="266.195" y1="174.78" x2="266.195" y2="175" gradientTransform="matrix(1 0 0 -1 -125.1 542.65)"><stop offset="0" stop-color="gray" stop-opacity=".25"/><stop offset=".54" stop-color="gray" stop-opacity=".12"/><stop offset="1" stop-color="gray" stop-opacity=".1"/></linearGradient><path fill="url(#b)" d="M140.6 367.6c.2.2.6.3.9.1-.3.1-.6 0-.9-.1z"/><linearGradient id="c" gradientUnits="userSpaceOnUse" x1="252.57" y1="56.953" x2="252.57" y2="390.915" gradientTransform="matrix(1 0 0 -1 -125.1 542.65)"><stop offset="0" stop-color="gray" stop-opacity=".25"/><stop offset=".54" stop-color="gray" stop-opacity=".12"/><stop offset="1" stop-color="gray" stop-opacity=".1"/></linearGradient><path fill="url(#c)" d="M242.5 202c-1.8-.5-4.4-1.4-7.5-2.5 3.2-4.1 5.6-8.9 6.9-13.9l-.3.1.3-.9c-5.9 2.4-12.5-1.7-16.7-6.9s-7-11.7-11.6-16.6c-1.9-1.9-4-3.7-6.1-5.3-1.4-1-2.8-2.1-4.5-2.2-2.7-.1-4.8 2.5-7.3 3.3-1.7.4-3.5.3-5.1-.2-6.6-1.5-13-4.3-19.8-5.1-3.6-.4-7.3 0-10.7 1.2-3.4 1.3-5 3.9-7.7 5.9-3 2.2-8.9 2.2-12.4 2.5-4.2.5-8.5.7-12.8.5-2.4-.2-4.9-.1-7.3.3-5.1 1.1-9.1 5.1-12.9 9-1 .9-1.8 2-2.1 3.4v1.1c0 1 .1 2 .5 3 1.2 3.5 2.8 6.8 4.9 9.8 1.6 2.2 3.4 4.3 4.2 6.9.4 1.3.6 2.6.6 4s-.2 2.9-.4 4.3c-.7 3.9-1.8 7.8-3.3 11.5-.9 1.9-1.6 3.9-1.9 6v1.3c-.3 6.6 6.4 11.4 7.7 17.9.1.5.2 1.1.2 1.6-.1 4.1-2.5 8.1-5.9 9.7l.9.3c-.3.2-.6.4-.9.5.6.2 1.3.5 1.9.6-3.9 3.4-7.2 7.5-9.7 12-11.6 21.5-89.9 63.7-89.9 63.7l1.2.7-.9.6c-6.8 4.5-22.7 17.7-8.3 34.3 0 0 11.2-17.7 19.1-25.3.4-.3.7-.6 1-.9.3.5.5 1.2.3 1.8l51.5-29s18.3-12.8 23.4-15.7c3.6-2.2 7.5-3.9 11.6-5l-.6.3c1.9-.5 3.9-.8 5.9-.8 9.1.1 19 6.8 22.2 33.3 4.4 35.4 2.3 41.8.9 42.7-.2 0-.3 0-.5-.1l.1.1c-.2 0-.4 0-.6-.1.2.2.5.3.8.2.2.1.4 0 .6-.1h.7c0 .3 0 .7-.1 1-.1 0-.4.2 0 .2-.1 2-.1 4.2 0 6.4-4.5.3-9.1.5-13 .8l.4-1.9.2-.8c3.5-.3 6.8-1.3 7.2-4.1.9-6.2-7.7-9.5-14.9-9.9-7.2-.4-50.7 2.5-50.7 2.5s-6.5 8.4 14.1 11c.6.3 1.3.7 1.9 1 8.1 4.6 19.1 13.1 24.3 17.3l.7.6-2.4 1.9c12.8 2.9 25.1 51.7 31.9 74s21.7 21.5 34.1 18.2c11.6-3.1 13-36.7 13.2-40.9v-.4l20.6 25.4 1.6 1.9 1.8.9c15.6 7.4 32.8-6.8 27.9-23-5-16.3-12.6-40.5-17.8-50.7-4.3-8.5-9.8-22.8-13.2-31.6.4-.2.9-.4 1.3-.6 0 0-.1-.4-.2-1.1l.2-.1s-5-25.7-5.2-44v-1.6c3.7-.9 6.1-1.2 6.1-1.2l.1-.8-.4.1 2.1-23.7s7.6-16.2 1.8-22.9c-1.8-2-3-4.4-3.4-7-1-6.2 0-16.5 13.5-25.1 20.9-13.2 29-24 29-24s.4-7.8-12.4-11.6zm-41.4 16.4v-11c3.9-.2 7.8.3 11.7 0 1.9-.1 3.8-.5 5.6-1l.9.6c-5.6 4.6-11.7 8.3-18.2 11.4zM142 390.1c1.5 1.1 3.1 2.2 4.6 3.3.9 5.4 1.8 9.2 1.8 9.5-1.7-4.5-3.9-8.8-6.4-12.8z"/><path fill="#FFBDC6" d="M175 381.1l-.9 4.9-.7 3.7-1.3 6.8-12.2 8.5s-1.1-.9-2.9-2.4c-5-4.1-15.5-12.5-23.3-17-2-1.3-4.1-2.3-6.4-3l47.7-1.5z"/><path opacity=".1" d="M175 381.1l-.9 4.9c-2.7.1-5.4 0-8.1-.4l-28.5.4c-1.3-.1-2.5-.2-3.8-.3-2-1.3-4.1-2.3-6.4-3l47.7-1.6z"/><path fill="#7679B4" d="M166.1 384.8s14.3 2.4 15.1-3.7-7.3-9.3-14.2-9.8-48.5 2.5-48.5 2.5-7.3 9.8 19.1 11.4l28.5-.4z"/><path opacity=".1" d="M175 381.1l-.9 4.9-.7 3.7-1.3 6.8-12.2 8.5s-1.1-.9-2.9-2.4c-5-4.1-15.5-12.5-23.3-17-2-1.3-4.1-2.3-6.4-3l47.7-1.5z"/><path opacity=".1" d="M175 381.1l-.9 4.9c-2.7.1-5.4 0-8.1-.4l-28.5.4c-1.3-.1-2.5-.2-3.8-.3-2-1.3-4.1-2.3-6.4-3l47.7-1.6z"/><path opacity=".1" d="M166.1 384.8s14.3 2.4 15.1-3.7-7.3-9.3-14.2-9.8-48.5 2.5-48.5 2.5-7.3 9.8 19.1 11.4l28.5-.4z"/><path fill="#A66477" d="M122.7 183.9h74.5v88.4h-74.5v-88.4z"/><path opacity=".1" d="M122.7 183.9h74.5v88.4h-74.5v-88.4z"/><path fill="#FFBDC6" d="M35.3 335.3c-1.2.3-2.8 1.5-4.5 3.2-7.5 7.4-18.3 24.9-18.3 24.9-13.8-16.4 1.5-29.3 8-33.8 1.6-1.1 2.6-1.7 2.6-1.7l12.2 7.4zm138.9-123.5s3.7 25.7 16.3 31.8-16.3 17.5-16.3 17.5l-39.5-14.7s22.4-7.3 17.9-28.9l21.6-5.7zm-42.3 154.4l-.9 4.9-.7 3.7-1.3 6.8-12.2 8.5s-1.1-.9-2.9-2.4c-5-4.1-15.5-12.5-23.3-17-2-1.3-4.1-2.3-6.4-3l47.7-1.5z"/><path opacity=".1" d="M131.9 366.2l-.9 4.9c-2.7.1-5.4 0-8.1-.4l-28.5.4c-1.3-.1-2.5-.2-3.8-.3-2-1.3-4.1-2.3-6.4-3l47.7-1.6z"/><path fill="#7679B4" d="M122.9 369.9s14.3 2.4 15.1-3.7-7.3-9.4-14.3-9.8-48.5 2.4-48.5 2.4-7.3 9.8 19.1 11.4l28.6-.3z"/><path opacity=".1" d="M130.3 374.9l-1.3 6.8-12.2 8.5s-1.1-.9-2.9-2.4l16.2-13.3.2.4z"/><path fill="#7679B4" d="M210.9 468.1c-.6-.3-1.1-.6-1.7-.9l-1.5-1.9-19.7-25v.4c-.1 4.1-1.6 37.3-12.6 40.3-11.8 3.3-26.1 4.1-32.6-17.9s-18.3-70.1-30.6-72.9l18.1-14.9s12 14 16.9 27.5c-.2-.9-8.5-39.6-1.6-46.4h59.5s9.2 26.1 15.5 39.1c4.9 10.1 12.3 33.8 17 49.9 4.7 16-11.7 30-26.7 22.7z"/><path opacity=".1" d="M209.2 363.8c-9.2 5.4-49.5 3.2-62.6 2.3l-3.6-.3c-.4 0 .1-.2.1-.2l.4-3.7 9.8-24.8 52.3-30.3c-1.1 3.2-1.4 8.1-1.3 13.7.2 17.9 4.9 43.3 4.9 43.3z"/><path fill="#F2F1F2" d="M209.2 362.5c-9.2 5.4-49.5 3.2-62.6 2.3l-3.6-.3h-.6l.6-.2 3.2-.9 6.9-27.7 52.3-30.3c-1.1 3.2-1.4 8.1-1.3 13.7.4 18.1 5.1 43.4 5.1 43.4z"/><path opacity=".1" d="M204.3 319.2c-10.6 2.5-34.1 9.7-43.1 27-6 11.6-11 16.5-14.6 18.6l-3.6-.3.1-.2 3.2-.9 6.9-27.7 52.3-30.3c-1 3.4-1.3 8.2-1.2 13.8zm-181.2 8.7l12.2 7.3c-1.2.3-2.8 1.5-4.5 3.2-1-3-7.4-7.1-10.3-8.9 1.6-1 2.6-1.6 2.6-1.6zm117.8 37.2c-.3.2-.6.1-.9-.1.3.1.6.1.9.1z"/><path fill="#565388" d="M168.5 242s-11 1.2-18.7-6.9c0 0-32.6 9.4-43.6 30.6s-85.9 62.7-85.9 62.7 13 7.3 11.8 11l49.3-28.5s17.5-12.6 22.4-15.5 31.8-20.4 37.5 27.3 0 42 0 42 8.1 2.9 20-20 48.5-28.1 48.5-28.1l2-24s7.3-15.9 1.7-22.6c-1.7-2-2.8-4.3-3.3-6.9-.9-6.1 0-16.3 13-24.7 20-13 27.7-23.6 27.7-23.6s.4-7.7-11.8-11.4-61.9-23.6-61.9-23.6l-1.6 6.9 39.1 27.7s-19.6 15.9-35 15.5c-.2-.1 2.7 11.7-11.2 12.1z"/><path opacity=".1" d="M176.1 223c-1-3.3-1.7-6.6-2.3-10l-21.6 5.7c.9 4.1.8 8.4-.5 12.4 9.1 2.5 18.6-.7 24.4-8.1z"/><circle fill="#FFBDC6" cx="158.1" cy="207.6" r="23.2"/><path opacity=".1" d="M170.5 154.8c6.4.7 12.6 3.5 18.9 5 1.6.5 3.3.6 4.9.2 2.5-.8 4.5-3.3 7-3.3 1.6 0 3 1.1 4.3 2.1 2.1 1.6 4 3.3 5.9 5.2 4.4 4.8 7.1 11.1 11.1 16.3s10.3 9.2 15.9 6.8c-3.9 15-16.5 26.5-30.1 27.4-5.4.4-11-.8-16.3.8-1.3.5-2.7.9-4.1 1-3 0-5.5-2.8-7.4-5.5-4.4-6.4-8-13.6-13-19.4-1.6-1.9-3.6-3.8-5.9-4.1s-4.5.8-6.6 1.8c-3.4 1.8-6.9 3.6-9.6 6.7s-4.3 7.6-3.2 11.7c.6 2.2 1.9 4.2 2 6.6 0 3.7-3.2 6.4-3.9 10-.1 1.5-.2 3-.2 4.6-.3 4.9-3.5 9-6.9 12.1-1.3 1.2-2.8 2.5-3.1 4.4-.3 1.3 0 2.6-.2 3.9-.5 3.2-3.7 4.8-6.5 5.3-3.3.5-6.7.1-9.8-1.2 4-1.9 6.4-7.2 5.5-12-1.3-6.6-7.9-11.4-7.3-18.1.3-2.1.9-4.1 1.8-5.9 1.4-3.6 2.5-7.4 3.1-11.3.7-3 .6-6.1-.2-9-.8-2.6-2.6-4.6-4.1-6.8-2-3-3.6-6.2-4.7-9.6-.4-1-.6-2.1-.4-3.2.3-1.3 1-2.4 2-3.3 3.6-3.8 7.5-7.8 12.4-8.9 2.3-.4 4.7-.5 7-.3 4.1.1 8.2 0 12.2-.5 3.3-.4 9-.3 11.8-2.5 2.6-2 4.1-4.6 7.4-5.8 3.2-1.3 6.8-1.7 10.3-1.2zm12.9 239.7s13.4 26.5 9.4 34.6m15 36.2l-19.7-25v.4s-1.1-8.1 2.6-5.4c8.2 5.9 21.4 15.7 21.6 17.4s-2.6 8.5-4.5 12.6z"/><path opacity=".1" d="M179.9 229.8s1.7 6.9-3.7 10.3c8.3-1.4 8.6-7.9 8.4-10.6-1.6.2-3.1.3-4.7.3zM25.1 326.7S100 285.2 111 264c7.9-15.2 26.9-24.3 37-28.3-7.4 2.5-32.2 11.9-41.5 29.9-11 21.2-85.9 62.7-85.9 62.7l4.5-1.6zm169.4-100.2c12.8-4 24.9-13.9 24.9-13.9L180.3 185l.9-3.8-3.7-1.5-1.6 6.9 39.1 27.7c-6.3 4.9-13.2 9-20.5 12.2zm.2 93.9c5-1.7 10.1-3 15.3-3.9l.1-.8c-5.2 1.2-10.4 2.7-15.4 4.7zm-47.4 42.7h-.3c-.3.2-.6.1-.9-.1.3.1.6.1.9.1 1.3-.8 3.4-6.9-.9-42.1-4.5-37.6-22.2-34.6-31.8-30.3 9.9-2.7 23.5-.4 27.4 31.9 4.2 35.2 2.2 41.3.9 42.1 1.6-.1 3.3-.6 4.7-1.6zm-4.8 1.6c-.3 0-.6 0-.9-.1.3.2.6.3.9.1z"/><path fill="#A66477" d="M170.5 154c6.4.7 12.6 3.5 18.9 5 1.6.5 3.3.6 4.9.2 2.5-.8 4.5-3.3 7-3.3 1.6 0 3 1.1 4.3 2.1 2.1 1.6 4 3.3 5.9 5.2 4.4 4.8 7.1 11.1 11.1 16.3s10.3 9.2 15.9 6.8c-3.9 15-16.5 26.5-30.1 27.4-5.4.4-11-.8-16.3.8-1.3.5-2.7.9-4.1 1-3 0-5.5-2.8-7.4-5.5-4.4-6.4-8-13.6-13-19.4-1.6-1.9-3.6-3.8-5.9-4.1s-4.5.8-6.6 1.8c-3.4 1.8-6.9 3.6-9.6 6.7s-4.3 7.6-3.2 11.7c.6 2.2 1.9 4.2 2 6.6 0 3.7-3.2 6.4-3.9 10-.1 1.5-.2 3-.2 4.6-.3 4.9-3.5 9-6.9 12.1-1.3 1.2-2.8 2.5-3.1 4.4-.3 1.3 0 2.6-.2 3.9-.5 3.2-3.7 4.8-6.5 5.3-3.3.5-6.7.1-9.8-1.2 4-1.9 6.4-7.2 5.5-12-1.3-6.6-7.9-11.4-7.3-18.1.3-2.1.9-4.1 1.8-5.9 1.4-3.6 2.5-7.4 3.1-11.3.7-3 .6-6.1-.2-9-.8-2.6-2.6-4.6-4.1-6.8-2-3-3.6-6.2-4.7-9.6-.4-1-.6-2.1-.4-3.2.3-1.3 1-2.4 2-3.3 3.6-3.8 7.5-7.8 12.4-8.9 2.3-.4 4.7-.5 7-.3 4.1.1 8.2 0 12.2-.5 3.3-.4 9-.3 11.8-2.5 2.6-2 4.1-4.6 7.4-5.8 3.2-1.3 6.8-1.7 10.3-1.2z"/><linearGradient id="d" gradientUnits="userSpaceOnUse" x1="852.665" y1="59.866" x2="852.665" y2="466.89" gradientTransform="matrix(1 0 0 -1 -125.1 542.65)"><stop offset="0" stop-color="gray" stop-opacity=".25"/><stop offset=".54" stop-color="gray" stop-opacity=".12"/><stop offset="1" stop-color="gray" stop-opacity=".1"/></linearGradient><path fill="url(#d)" d="M833.5 101.8v-.4c0-.1 0-.3-.1-.4h-.2v-.8c-.4-9.3-13.2-29-18.4-23.2-4.5 5.1 2.3 17.9 5.8 23.6l.3.5-.2-.1s-14.3 42.7-16 44.3-13.5 35.2-29 39c-3.1.7-5.6 1.4-7.8 2l.2-.6c1-3.3 2.2-6.4 2.7-10s0-8-1.8-9.8c-.9-.9-2-1-2.7-2.4-.5-1.2-.7-2.5-.8-3.9l-1.3-16.2.9-.3c5.6-1.8 11-6 11.6-11.7-.2.1-.4.1-.6.2.1-.3.1-.7.2-1-4.7 1.8-9-3-13.5-5.2-7.4-3.6-15.9-.2-23.5.6-8.7.9-16.9-2.6-25.8-2-4.8.4-10.2 3.6-9.9 8.4.2 2.6 2 4.8 2.8 7.3 1.9 6-2.3 12.1-6.1 17.3-2.5 3.4-4.8 7.5-5.2 11.5-8.6-9-17.9-19.4-19-23.3l-24.9-42.7s-.6.6-1.5 1.6c-.2-.5-.3-1-.5-1.5-3.2-8.9-12.2-30.5-23.6-26.5s4.7 26.1 11.8 34.9l1 1.2c-.6.1-1.2.1-1.8-.1l27.8 47.7s5 9.1 9.7 11.6c0 0 34.5 43.5 34.9 52.2s15.5 31.9 15.5 31.9 5 37.7-3.8 44.3h1.5c-.4.4-.8.9-1.3 1.4-6.5 7.3-14.9 22.8-3.5 49.3 16.8 39 19.4 54.3 19.4 54.3s-32 1.7-38.3 2.9c-5.6 1.1-27.3 1.9-32.2 2-1.8-2.1-7-6.6-14.1 0-8.8 8.3-15.2 36-15.2 36s-3.4 22.4 8 16.6c0 0 13.5-18.7 17.3-19.5 1.9-.4 3.9-3.2 5.4-5.8h.1c.1 0 .5-.2 1.1-.4 2.8-1.1 10.5-3.8 16.6-2.5 3.3.7 17.6.9 32.6.9-3.4 8.1-9.4 29-9.4 29s-2.5 19.5 5.9 18.7c6-.6 15.2-15.9 20-24.7 3.5-2.5 13.5-11.7 20.8-11l49.7-19.1s11.8-6.6 5.5-28.6c-5-17.5-19.2-53.2-24.8-67.1l-.2-.4c-1.4-3.4-2.2-5.4-2.2-5.4-2.3-6.4-3.8-13-4.5-19.7 0-.5-.1-1.1-.1-1.6.7-.3 1.4-.7 2-1.1 0 0-4.6-46.8 0-51.8l.1-.1v-.1l.1-.1.2-.2.2-.3c.3-.3.5-.7.9-1.2 2.7-3.9 7.6-12.7 6.2-23.2-.1-.5-.1-.9-.2-1.4-.5-2.8-1.5-5.6-2.9-8.1-.2-1.1-.3-2.1-.4-3.2v-2.8c0-.5.1-1 .2-1.4v-.1c0-.2 0-.4.1-.5v-.2c0-.2.1-.4.1-.5v-.2c.1-.2.1-.5.2-.7v-.1c.1-.2.1-.4.2-.6l.1-.2.2-.5.1-.2c.1-.2.2-.4.3-.5l.1-.1c.1-.2.2-.4.4-.6l.1-.2.3-.5.2-.2.3-.4.2-.2.6-.6c5.5-5 29.9-41.9 29.9-41.9s5.9-8.3 5.9-13.7c-.4-.3 10.1-35 9-45.6zM768 411.6c-.6-5.7-1.2-12.7-1.8-20l9.5 14.8s-.9 4.6-7.7 5.2z"/><path fill="#493545" d="M668.7 408.5s-5.7-9-14.3-.8-14.7 35.4-14.7 35.4-3.3 22 7.7 16.3c0 0 13-18.3 16.7-19.1s7.7-11 7.7-11l-3.1-20.8zm61.1 21.9s-7.7-3.7-10.2-.8S709 461 709 461s-2.4 18.7 5.7 17.9 22.4-30.2 22.4-30.2l-7.3-18.3z"/><path opacity=".05" d="M729.8 430.5s-7.7-3.7-10.2-.8S709 461 709 461s-2.4 18.7 5.7 17.9 22.4-30.2 22.4-30.2l-7.3-18.2z"/><path fill="#3E3D77" d="M756.7 375.1l17.5 27.3s-1.2 6.1-11.8 4.9l-36.3 22.8s-3.2 27.8 6.9 25.3c1.6-.4 13-12.2 21.2-11.4l48.1-18.7s11.4-6.5 5.3-28.1-26.3-71.6-26.3-71.6l-31.9 17.9 7.3 31.6z"/><path opacity=".05" d="M756.7 375.1l17.5 27.3s-1.2 6.1-11.8 4.9l-36.3 22.8s-3.2 27.8 6.9 25.3c1.6-.4 13-12.2 21.2-11.4l48.1-18.7s11.4-6.5 5.3-28.1-26.3-71.6-26.3-71.6l-31.9 17.9 7.3 31.6z"/><path fill="#3E3D77" d="M767.7 415.4c2.4 15.5-11.4 16.7-11.4 16.7s-62.3 1.2-69.7-.4-17.1 2.9-17.1 2.9c-12.6-7.7-2.4-26.9-2.4-26.9s26.1-.8 32.2-2 37.1-2.9 37.1-2.9-2.4-15.1-18.7-53.4c-11.1-26-3-41.3 3.4-48.4 1.6-1.9 3.5-3.5 5.6-4.9l50.1 2.4c-.1 2.5 0 5.1.3 7.6.9 8.6 3.1 17.1 6.7 25-2.8 0-21.2 17.1-21.2 17.1s2.6 51.7 5.1 67.2z"/><path opacity=".1" d="M670.7 409.3s26.1-.8 32.2-2 37.1-2.9 37.1-2.9-2.4-15.1-18.7-53.4c-11.1-26-3-41.3 3.4-48.4 1.6-1.9 3.5-3.5 5.6-4.9l46.4 2.3v-1.5l-50.1-2.4c-2.1 1.4-4 3-5.6 4.9-6.3 7.1-14.4 22.4-3.4 48.4 16.3 38.3 18.8 53.3 18.8 53.3s-31 1.6-37.1 2.9-32.2 2-32.2 2-10.2 19.1 2.4 26.9c0 0 .4-.2 1-.4-8.4-8.6.2-24.8.2-24.8z"/><path fill="#493545" d="M720 146.6h25.3v63.9H720v-63.9z"/><path opacity=".1" d="M720 146.6h25.3v63.9H720v-63.9z"/><path fill="#493545" d="M759.7 137.2c.9.2 1.8.3 2.4 1.5.4 1 .6 2 .6 3l1.6 19.8c0 1.3.3 2.6.7 3.8.7 1.3 1.8 1.5 2.7 2.4 1.8 1.7 2.3 6.1 1.8 9.6s-1.7 6.6-2.6 9.8c-1.4 4.6-2.3 9.8-4.2 13.6s-5.4 6-7.6 2.7-1.9-9.8-2.4-15.2c-.7-9-4.2-16.8-4.5-25.8-.2-7.3 1.8-14.2 3-21.1.9-4.8.9-10.6 2.2-14.8 1.1 5 3.2 9.8 6.3 10.7z"/><path opacity=".1" d="M759.7 137.2c.9.2 1.8.3 2.4 1.5.4 1 .6 2 .6 3l1.6 19.8c0 1.3.3 2.6.7 3.8.7 1.3 1.8 1.5 2.7 2.4 1.8 1.7 2.3 6.1 1.8 9.6s-1.7 6.6-2.6 9.8c-1.4 4.6-2.3 9.8-4.2 13.6s-5.4 6-7.6 2.7-1.9-9.8-2.4-15.2c-.7-9-4.2-16.8-4.5-25.8-.2-7.3 1.8-14.2 3-21.1.9-4.8.9-10.6 2.2-14.8 1.1 5 3.2 9.8 6.3 10.7z"/><path fill="#C77485" d="M652.8 109.1l-9.8 8.2s-1.2-1.4-2.9-3.6c-6.8-8.7-22.4-30.4-11.4-34.3s19.8 17.3 22.8 26.1c.9 2.2 1.3 3.6 1.3 3.6zm176.4-2.9c-4.1 6.1-9.8 0-9.8 0s-.7-1.1-1.8-2.8c-3.3-5.7-9.9-18.2-5.6-23.2 5-5.7 17.4 13.7 17.8 22.8.2 1.1-.1 2.3-.6 3.2zm-100.2 66s8.2 26.1 5.7 33.8 17.5 16.7 17.5 16.7H775s8.2-16.7 6.1-21.6-19.5-8.6-19.5-8.6-10.2 0-9.8-27.3l-22.8 7z"/><path opacity=".1" d="M652.8 109.1l-9.8 8.2s-1.2-1.4-2.9-3.6c3.5-.6 9.1-5.8 11.5-8.2.8 2.2 1.2 3.6 1.2 3.6zm176.4-2.9c-4.1 6.1-9.8 0-9.8 0s-.7-1.1-1.8-2.8l.1-.4c2.6 1.9 10.8.3 12.1 0 .2 1.1-.1 2.3-.6 3.2zm-52.3 199.9c-12.6 5.8-53.5-4.5-56-5.1 1.6-1.9 3.5-3.5 5.6-4.9l50.1 2.4c-.1 2.5 0 5 .3 7.6z"/><path fill="#FFAAC4" d="M734.3 194.6s-9.8 3.3-23.6-9.4c0 0-31-30.6-33-37.9l-24-42s-10.2 11-14.3 9.4l26.9 46.8s4.9 9 9.4 11.4c0 0 33.4 42.8 33.8 51.3s15 31.4 15 31.4 4.9 37.1-3.7 43.6c0 0 47.7 12.2 57.8 4.1 0 0-4.5-46 0-50.9 0 0 13.8-16.3 4.5-34.2 0 0-2-9.8 3.3-14.7s28.9-41.1 28.9-41.1 5.7-8.1 5.7-13.4c0 0 10.6-35.8 9-45.2 0 0-9.4 2-12.2 0 0 0-13.8 42-15.5 43.6s-13 34.6-28.1 38.3-17.5 5.3-17.5 5.3 29.3 18.3 15.1 26.5-37.5-22.9-37.5-22.9z"/><path opacity=".1" d="M752.8 178.5c-.5-3.8-.7-7.7-.6-11.6l-22.8 6.9c.6 1.5 1.1 3.1 1.4 4.7 2.6 1.1 6.1 3.9 9.2 3.9 4.6.1 9.1-1.2 12.8-3.9z"/><circle fill="#C77485" cx="739.6" cy="160" r="21.2"/><path opacity=".1" d="M714.4 127.4c-4.7.4-9.9 3.6-9.6 8.3.1 2.6 1.9 4.7 2.7 7.2 1.8 5.9-2.3 11.9-5.9 17s-7 11.8-3.9 17.2c.9 1.3 1.8 2.5 2.9 3.7 3.8 5.2 3.8 12.1 5.5 18.4 4.5 16.5 21.1 26.6 37.8 23-3-3.9-4.5-8.7-4.3-13.6.2-3.6 1.4-7.3 0-10.6-1.8-4.2-7-5.9-9.7-9.6s-2.5-8.8-1.2-13.2 3.5-8.5 4.6-13c.3-1.3.6-2.6 1-3.9 1.9-5.3 7.5-8.4 13-9.8s11.3-1.4 16.7-3.2 10.6-5.9 11.2-11.5c-4.5 1.8-8.7-2.9-13.1-5.1-7.2-3.6-15.4-.2-22.8.6-8.4.9-16.4-2.5-24.9-1.9z"/><path fill="#493545" d="M714 126.6c-4.7.4-9.9 3.6-9.6 8.3.1 2.6 1.9 4.7 2.7 7.2 1.8 5.9-2.3 11.9-5.9 17s-7 11.8-3.9 17.2c.9 1.3 1.8 2.5 2.9 3.7 3.8 5.2 3.8 12.1 5.5 18.4 4.5 16.5 21.1 26.6 37.8 23-3-3.9-4.5-8.7-4.3-13.6.2-3.6 1.4-7.3 0-10.6-1.8-4.2-7-5.9-9.7-9.6s-2.5-8.8-1.2-13.2 3.5-8.5 4.6-13c.3-1.3.6-2.6 1-3.9 1.9-5.3 7.5-8.4 13-9.8s11.3-1.4 16.7-3.2 10.6-5.9 11.2-11.5c-4.5 1.8-8.7-2.9-13.1-5.1-7.2-3.6-15.4-.2-22.8.6-8.4.9-16.4-2.6-24.9-1.9z"/><path opacity=".1" d="M760.5 207.1s8.5 7.6 10.2 10.9m8.2 34.3s-10.6 0-15.5 1.2-16.7 0-16.7 0"/><path opacity=".1" d="M771.8 217.4c-.9.5-1.9.9-2.9 1.1 2.7.6 5.4.2 7.8-1.1 14.3-8.1-15.1-26.5-15.1-26.5h-4.9c0 .1 29.3 18.4 15.1 26.5zm58.3-112.9c0-.3-.1-.5-.1-.7-1.7.3-3.4.6-5.1.8 1.7.2 3.5.2 5.2-.1zM725.7 299.3c8.5-6.5 3.7-43.6 3.7-43.6s-14.7-22.8-15.1-31.4-33.8-51.3-33.8-51.3c-4.5-2.4-9.4-11.4-9.4-11.4s-27.7-45.2-31.8-46.8l26.9 46.8s4.9 9 9.4 11.4c0 0 33.4 42.8 33.8 51.3s15.1 31.4 15.1 31.4 4.9 37.1-3.7 43.6c0 0 29.3 7.5 46.8 6.8-17.5-.6-41.9-6.8-41.9-6.8zm8.8-104.4l-.2-.3c-.3.1-.6.1-.8.2.3.1.7.1 1 .1z"/><path opacity=".1" d="M830 103.8l-.3.1c-.4 12.5-9.1 41.9-9.1 41.9 0 5.3-5.7 13.4-5.7 13.4s-23.6 36.3-28.9 41.1-3.3 14.7-3.3 14.7v.1c-.2-3.3.2-8.4 3.6-11.5 5.3-4.9 28.9-41.1 28.9-41.1s5.7-8.1 5.7-13.4c.1-.1 10.7-35.9 9.1-45.3zm-51.7 145.4c.6 3.5.2-.2.4 3.3 0 0 10-11.7 7.3-26.2.8 12.9-7.7 22.9-7.7 22.9z"/><path fill="none" stroke="#535461" stroke-width="2" stroke-miterlimit="10" d="M304 578.8s-14.6-49.5 2.7-85.8c7.4-15.2 9.6-32.4 6.3-49-1.6-7.9-3.9-15.6-6.9-23m292.6 158.5s-14.6-49.5 2.7-85.8c7.4-15.2 9.6-32.4 6.3-49-1.6-7.9-3.9-15.6-6.9-23"/><path d="M95.1 19.5c25.7 0 46.5 20.8 46.5 46.5s-20.8 46.5-46.5 46.5S48.6 91.7 48.6 66s20.9-46.5 46.5-46.5zm221.8 378.4c0 6.1-11 23.6-11 23.6s-11-17.6-11-23.6c-.4-6.1 4.1-11.3 10.2-11.8s11.3 4.1 11.8 10.2v1.6zm18.1 33.6c-3.3 5.1-22 13.9-22 13.9s.3-20.7 3.6-25.8c2.9-5.3 9.6-7.2 14.9-4.3s7.2 9.6 4.3 14.9c-.2.5-.5.9-.8 1.3zm-.8 57.4c-5.4 2.7-26 .8-26 .8s10.8-17.7 16.2-20.4c5.2-3.1 12-1.4 15.1 3.8 3.1 5.2 1.4 12-3.8 15.1-.5.2-.9.5-1.5.7zm-10.3 43.2c-4.9 3.6-25.5 5.2-25.5 5.2s7.6-19.3 12.5-22.9c5.2-3.2 12-1.5 15.1 3.7 2.7 4.6 1.8 10.5-2.1 14zm-34-85.6c4.4 4.2 24.6 8.6 24.6 8.6s-5-20.1-9.3-24.3c-4-4.5-11-4.9-15.5-.9s-4.9 11-.9 15.5c.3.4.7.8 1.1 1.1zm-11.5 50.8c5.4 2.7 26 .8 26 .8s-10.7-17.7-16.1-20.4c-5.6-2.3-12 .3-14.4 5.9-2.1 5.1-.1 10.9 4.5 13.7zm-4.4 50.9c4.9 3.6 25.5 5.2 25.5 5.2s-7.6-19.3-12.5-22.9c-4.6-4-11.5-3.6-15.5 1s-3.6 11.5 1 15.5l1.5 1.2zm337.5-149.6c0 6.1-11 23.6-11 23.6s-11-17.6-11-23.6c.4-6.1 5.7-10.6 11.8-10.2 5.4.5 9.8 4.8 10.2 10.2zm18.2 33.6c-3.3 5.1-22 13.9-22 13.9s.3-20.7 3.6-25.8c2.9-5.3 9.6-7.2 14.9-4.3 5.3 2.9 7.2 9.6 4.3 14.9-.3.5-.5.9-.8 1.3zm-.8 57.4c-5.4 2.7-26 .8-26 .8s10.8-17.7 16.2-20.4c5.2-3.1 12-1.5 15.1 3.7 3.1 5.2 1.5 12-3.7 15.1-.5.3-1.1.6-1.6.8zm-10.4 43.2c-4.9 3.6-25.5 5.2-25.5 5.2s7.6-19.3 12.5-22.9c5.2-3.2 12-1.5 15.1 3.7 2.7 4.6 1.8 10.5-2.1 14zm-33.9-85.5c4.3 4.2 24.6 8.6 24.6 8.6s-5-20.1-9.3-24.3c-4-4.5-11-4.9-15.5-.9s-4.9 11-.9 15.5l1.1 1.1zM573.1 498c5.4 2.7 26 .8 26 .8s-10.8-17.7-16.2-20.4c-5.6-2.3-12 .3-14.4 5.9-2.1 5.1-.1 10.9 4.6 13.7zm-4.4 50.9c4.9 3.6 25.5 5.2 25.5 5.2s-7.6-19.3-12.5-22.9c-5.2-3.2-12-1.5-15.1 3.7-2.7 4.6-1.9 10.4 2.1 14z"/><path opacity=".1" d="M54.6 504c0 6.6 4.9 12 4.9 12s4.9-5.4 4.9-12-4.9-12-4.9-12-4.9 5.4-4.9 12zM48.9 517.8c5.5 3.7 7.3 10.7 7.3 10.7s-7.2 1.1-12.7-2.6-7.3-10.7-7.3-10.7 7.2-1.1 12.7 2.6zM70.8 504c0 6.6 4.9 12 4.9 12s4.9-5.4 4.9-12-4.9-12-4.9-12-4.9 5.4-4.9 12zm1.4 28c-4.7 4.7-5 12-5 12s7.2-.4 11.9-5.1 5-12 5-12-7.3.4-11.9 5.1z"/><path fill="none" d="M50.7 514.8s17.5 34.3 3.2 53.1 1.3 70 1.3 70"/><path d="M55.9 504c0 6.6-4.9 12-4.9 12s-4.9-5.4-4.9-12 4.9-12 4.9-12 4.9 5.4 4.9 12z"/><path fill="none" d="M59.8 514.8s-17.5 34.3-3.2 53.1-1.3 70-1.3 70"/><path d="M54.6 504c0 6.6 4.9 12 4.9 12s4.9-5.4 4.9-12-4.9-12-4.9-12-4.9 5.4-4.9 12z"/><path fill="none" d="M66.9 514.8s17.5 34.3 3.2 53.1 1.3 70 1.3 70"/><path d="M72.1 504c0 6.6-4.9 12-4.9 12s-4.9-5.4-4.9-12 4.9-12 4.9-12 4.9 5.4 4.9 12zm-2.8 27.5c-4.6 4.8-11.8 5.3-11.8 5.3s.2-7.2 4.8-12 11.8-5.3 11.8-5.3-.2 7.3-4.8 12zm.5 23.7c-4.6 4.8-11.8 5.3-11.8 5.3s.2-7.2 4.8-12 11.8-5.3 11.8-5.3-.2 7.3-4.8 12zm-24.9 13.1c4.3 5 4.2 12.2 4.2 12.2s-7.2-.9-11.5-5.9-4.2-12.2-4.2-12.2 7.2.9 11.5 5.9zm4-50.5c5.5 3.7 7.3 10.7 7.3 10.7s-7.2 1.1-12.7-2.6-7.3-10.7-7.3-10.7 7.2-1.1 12.7 2.6z"/><path fill="none" d="M75.9 514.8s-17.5 34.3-3.2 53.1-1.3 70-1.3 70"/><path d="M70.8 504c0 6.6 4.9 12 4.9 12s4.9-5.4 4.9-12-4.9-12-4.9-12-4.9 5.4-4.9 12z"/><path fill="none" d="M72.2 532c-4.7 4.7-5 12-5 12s7.2-.4 11.9-5.1 5-12 5-12-7.3.4-11.9 5.1z"/><path d="M81.3 564.9c-4.7 4.7-5 12-5 12s7.2-.4 11.9-5.1 5-12 5-12-7.3.3-11.9 5.1z"/><path fill="none" d="M67.9 557.7s10.5-16.6 25.3-17m-33.5 6.9s-10.5-16.6-25.3-17m23.9 40.7s10.5-16.6 25.3-17"/><circle cx="92.7" cy="540.6" r="2.7"/><circle fill="none" cx="34.6" cy="530.8" r="2.7"/><path d="M66.1 576.8s-10.5-16.6-25.3-17"/><circle fill="none" cx="41" cy="559.9" r="2.7"/><circle cx="83.8" cy="554.5" r="2.7"/><path d="M894.8 522.5s8.4 11-3.9 27.5-22.3 30.5-18.3 40.8c0 0 18.5-30.7 33.5-31.2s5.3-18.6-11.3-37.1zm-44.2 0s-8.4 11 3.9 27.5 22.3 30.5 18.3 40.8c0 0-18.5-30.7-33.5-31.2s-5.3-18.6 11.3-37.1z"/><path opacity=".1" d="M894.8 522.5c.7 1.1 1.3 2.2 1.7 3.4 14.7 17.2 22.5 33.3 8.4 33.7-13.1.4-28.9 23.9-32.7 29.8.1.5.3.9.5 1.3 0 0 18.5-30.7 33.5-31.2s5.2-18.5-11.4-37zm-44.2 0c-.7 1.1-1.3 2.2-1.7 3.4-14.7 17.2-22.5 33.3-8.4 33.7 13.1.4 28.9 23.9 32.7 29.8-.1.5-.3.9-.5 1.3 0 0-18.5-30.7-33.5-31.2s-5.2-18.5 11.4-37z"/><path fill="#FFD037" d="M910.4 536.5c0 3.9-.4 7-1 7s-1-3.1-1-7 .5-2 1.1-2 .9-1.8.9 2zm5.4 4.6c-3.4 1.8-6.3 3-6.6 2.5s2.3-2.3 5.7-4.2 2-.5 2.3 0 1.9-.1-1.4 1.7zm-80.8-4.6c0 3.9.4 7 1 7s1-3.1 1-7-.5-2-1.1-2-.9-1.8-.9 2zm-5.4 4.6c3.4 1.8 6.3 3 6.6 2.5s-2.3-2.3-5.7-4.2-2-.5-2.3 0-1.9-.1 1.4 1.7z"/><path fill="#A8A8A8" d="M124.3 617.9s-25.4-5.1-32.2-11.8-37.2-18.6-40.6-10.2-45.7 37.2-16.9 42.3 67.7 6.8 76.2 3.4 13.5-23.7 13.5-23.7zm713.4-28.5s23.4-.7 30.5-5.8 36-11 37.8-3 35.2 40.1 8.8 40.3-61.5-4.1-68.5-8.4-8.6-23.1-8.6-23.1z"/><path opacity=".2" d="M34.6 635.1c28.8 5.1 67.7 6.8 76.2 3.4 6.4-2.6 10.9-15 12.7-20.7l.8.2s-5.1 20.3-13.5 23.7-47.4 1.7-76.2-3.4c-8.3-1.5-10.7-4.9-9.8-9.3.7 2.8 3.6 5 9.8 6.1zm880.6-16.9c-26.5.2-61.5-4.1-68.5-8.4-5.4-3.3-7.5-15-8.2-20.4h-.8s1.5 18.9 8.5 23.2 42.1 8.6 68.5 8.4c7.6-.1 10.3-2.8 10.1-6.8-1 2.5-3.9 4-9.6 4z"/><path opacity=".5" fill="#DEE3F3" d="M669.9 15.3h-6.3c2.4.1 4.5-1.8 4.6-4.2.1-2.4-1.8-4.5-4.2-4.6h-51.3c-2.4.1-4.3 2.2-4.2 4.6.1 2.3 1.9 4.1 4.2 4.2h6.3c-2.4.1-4.3 2.2-4.2 4.6.1 2.3 1.9 4.1 4.2 4.2h-8.8c-2.4-.1-4.5 1.8-4.6 4.2-.1 2.4 1.8 4.5 4.2 4.6h51.3c2.4.1 4.5-1.8 4.6-4.2.1-2.4-1.8-4.5-4.2-4.6h-.4 8.8c2.4-.1 4.3-2.2 4.2-4.6-.1-2.3-1.9-4.1-4.2-4.2zM375.7 40.9h-4.8c1.8.1 3.4-1.3 3.5-3.2.1-1.8-1.3-3.4-3.2-3.5h-39.1c-1.8.1-3.3 1.7-3.2 3.5.1 1.7 1.5 3.1 3.2 3.2h4.8c-1.8-.1-3.4 1.3-3.5 3.2-.1 1.8 1.3 3.4 3.2 3.5h.4-6.7c-1.8-.1-3.4 1.3-3.5 3.2-.1 1.8 1.3 3.4 3.2 3.5h39c1.8.1 3.4-1.3 3.5-3.2.1-1.8-1.3-3.4-3.2-3.5h-.4 6.7c1.8-.1 3.3-1.7 3.2-3.5-.1-1.7-1.4-3.1-3.1-3.2zM177.8 74.6h-6.3c2.4.1 4.5-1.8 4.6-4.2.1-2.4-1.8-4.5-4.2-4.6h-51.3c-2.4.1-4.3 2.2-4.2 4.6.1 2.3 1.9 4.1 4.2 4.2h6.3c-2.4.1-4.3 2.2-4.2 4.6.1 2.3 1.9 4.1 4.2 4.2h-8.8c-2.4.1-4.3 2.2-4.2 4.6.1 2.3 1.9 4.1 4.2 4.2H169c2.4.1 4.5-1.8 4.6-4.2.1-2.4-1.8-4.5-4.2-4.6h-.4 8.8c2.4-.1 4.3-2.2 4.2-4.6-.1-2.2-1.9-4.1-4.2-4.2z"/></svg>