<svg version="1.1" id="图层_1" xmlns="http://www.w3.org/2000/svg" x="0" y="0" viewBox="0 0 1077.9 757.3" xml:space="preserve"><style>.st0,.st1{opacity:.1}.st2{fill:#f7f7fd}.st3{fill:#fff}.st5{fill:#d38884}.st6{fill:#4c4981}.st7{opacity:5.000000e-02}.st8{fill:#ceddf9}.st9{fill:#cc8294}.st11{opacity:.2}.st12{fill:#ffd2c6}.st13{fill:#626696}.st18{fill:#db8b8b}.st19{fill:#2e3037}.st20{fill:#474463}.st21{fill:#fc6681}</style><path class="st0" d="M663.8 91.8c-46.3 32.4-106.2 30.3-158.8 13.4S404.2 58.4 352.9 37.1C310.2 19.3 265.3 7.6 219.3 2.3 154-5.2 81.1 3.9 35.7 56.3c-50.7 58.3-46.8 163.4 8 217 27.9 27.2 64.4 40.6 96.2 61.8s61.3 56.5 58.6 97.5c-2.5 38-31.7 67.1-61.9 85.4-23.3 14.1-52.1 29.6-54.9 58.8-2.7 28.3 21.4 50.5 44.5 63.1 75.3 41.2 168 40.8 243-1 26.7-15 51.3-34.8 79.4-46.4 73.6-30.5 154.8.2 232.8 11.4 66.3 9.5 133.8 4.6 198-14.4 38.6-11.4 77.4-28.8 104.5-61.3 19.6-23.4 31.8-53.1 43.2-82.4 12.2-31.2 23.9-62.7 35.2-94.3 6.8-19 13.4-38.4 15.2-58.7 3.2-36.9-10.2-73.3-28.3-104.4-43.1-73.9-115.6-125.8-194.2-139S693.3 62 632.4 118.3"/><path class="st1" d="M540.7 103.4l-3.8 221s137.9 0 255.3 38.1l2.3-223.3c-.1 0-188.3-44.9-253.8-35.8z"/><path class="st2" d="M537.7 99.4l-3.8 221s137.9 0 255.3 38.1l2.3-223.3c-.1 0-188.3-44.9-253.8-35.8z"/><path class="st1" d="M471.4 109.7l3.8 221s-137.9 0-255.3 38.1l-2.3-223.3c.1.1 188.3-44.9 253.8-35.8z"/><path class="st2" d="M474.4 104.7l3.8 221s-137.9 0-255.3 38.1l-2.3-223.3c.1.1 188.3-44.9 253.8-35.8z"/><path class="st1" d="M875.7 184.7v218.7s45-5.3 139.5 111.3l8.4-218.7c-.1-.1-98.4-106-147.9-111.3z"/><path class="st2" d="M873.7 181.7v218.7s45-5.3 139.5 111.3l8.4-218.7c-.1-.1-98.4-106-147.9-111.3z"/><path class="st1" d="M148.3 185.7v218.7s-45-5.3-139.4 111.3L.5 296.9S98.8 191 148.3 185.7z"/><path class="st2" d="M151.3 181.7v218.7s-45-5.3-139.4 111.3L3.5 292.9S101.8 187 151.3 181.7z"/><path class="st3" d="M394.5 276.9l-93.4 16.7v13.6l93.4-17.9v-12.4zm181.2-106.2L746.5 206v13.6l-170.8-36.5v-12.4zm0 25.4l170.8 35.3V245l-170.8-36.5v-12.4zM913.5 368.3v12l36.6 29.8 1.7-10.3-38.3-31.5zm.6-95.4l-.6 12 69.3 65.2-1.1-13.7-67.6-63.5zm-.6 22.3v11.4l69.3 66.4v-14.9l-69.3-62.9z"/><path d="M574.5 145.4l93.4 16.7v13.6l-93.4-17.9v-12.4zm339 106.9v12l36.6 29.8 1.7-10.3-38.3-31.5zm-501-121.8l2 118.5s-74 0-136.9 20.4l-1.2-119.7s100.9-24.1 136.1-19.2zM110.9 254.9l.6 12-69.2 65.2 1.1-13.7 67.5-63.5zm.6 22.3v11.4L42.3 355v-14.9l69.2-62.9z" opacity=".2"/><path class="st5" d="M581.5 253.4c-.5 1-.8 2-1 3.1-.1.3-.1.5-.2.8-.6 3.1-1 6.9-1.2 9.1-.1 1.1-.2 1.8-.2 1.8s-21.7-1.5-17.9-5.1c1-1 1.7-2.2 2-3.6l.3-1.2c.2-.9.3-1.8.3-2.8v-.5c0-1.5 0-3-.2-4.5 0 0 7 0 12.4.6 3.6.4 6.4 1.1 5.7 2.3zm-37.6 103.2c-7.4-.2-1.9-15.6-1.1-17.7s-1.3-7.1-1.3-7.1-2.5-14.7-2.5-15.6c-.1-2-.4-4-.8-5.9-.3-2 .1-4 1-5.8.8-1.3.7-6.7.7-6.7v-6.9l1.7-2.2 4.2 4 1.2 1.1 2.1 7.7-.7 11.1-.4 10.8 2.5 14.9c0-.1.9 18.6-6.6 18.3z"/><path class="st1" d="M546.3 294.5l-6.3-2.6v-1l1.6-2.2 4.2 4 .5 1.8z"/><path class="st6" d="M543.4 278.7c-.8 2-1.4 4.1-1.8 6.2-.3 2-.9 4-1.7 5.9l7 2.9-3.5-15z"/><path class="st7" d="M543.4 278.7c-.8 2-1.4 4.1-1.8 6.2-.3 2-.9 4-1.7 5.9l7 2.9-3.5-15z"/><path class="st5" d="M599.1 431.7l-.6 1.2s-.6 4.1-.6 4.2-1.8 2.8-1.8 2.8l-4.6 1-1.9-.2c-.1-1.1-.3-2.3-.5-3.4-.1-.3-.1-.6-.2-1-.7-2.6-1.8-5-3.2-7.2 0 0-3.4-8.4-4.6-9.5s-5.8-12.1-5.3-14.8c.3-1.5 0-6.4-.2-10.4-.2-3.3-.4-6.1-.4-6.1l11.5-6.8 1.3 2.1.8 1.3v.7c-.1 1.7-.5 3.4-1 5 0 0-.9 6.2 0 7.3s3.6 15.7 4.2 22.4v.6c.2 3.1 2.2 5.9 4.1 7.9l.4.4c.8 1 1.7 1.8 2.6 2.5z"/><path class="st1" d="M589.6 440.8l1.9.2 4.6-1 1.8-2.8.6-4.2.6-1.2.1-.1c-1.1-.8-2.2-1.6-3.1-2.6l-.3-.3c-.1-.1.7 4-2.8 5.8-1.7.9-3.1 1.5-4 2l.6 4.2z"/><path class="st8" d="M599.9 432.3l-.7 1.4s-.6 4.1-.6 4.2-1.8 2.8-1.8 2.8l-4.6 1-2.6-.3c0-.5-.1-1.3-.2-2.2-.1-.5-.2-1.2-.3-1.8 1-.5 2.5-1.2 4.5-2.2 3.5-1.8 2.8-5.8 2.8-5.8.8.8 1.6 1.5 2.4 2.1.5.4.9.6 1.1.8z"/><path class="st1" d="M599.9 432.3l-.7 1.4s-.6 4.1-.6 4.2-1.8 2.8-1.8 2.8l-4.6 1-2.6-.3c0-.5-.1-1.3-.2-2.2.6 0 1.1.1 1.7.2 0 0 6.2 1.3 6.5-3.6.2-2.8.8-3.9 1.2-4.3.5.4.9.7 1.1.8z"/><path class="st9" d="M599.5 432s-1.5-.3-1.9 4.6-6.5 3.6-6.5 3.6-3.1-.8-3.1.5c.1 1.2.4 2.3.8 3.4 0 0 .2 2.9.8 3.6s.2 3.3.2 3.3.2 1.9 5.1 0c0 0 4.3-.9 7.9-6.2.1-.2-.4-.7 2.7-1.9s12-8.3 11.4-11.8c-.1-1.2-1-2.2-2.1-2.5-.9-.3-1.9-.1-2.8.4-.8.5-1.7.9-2.6 1.2-1.2.5-2.4.8-3.7.9-1 .1-1.9.3-2.9.5-1.2.4-2.3.6-3.3.4z"/><path class="st5" d="M564.2 398c-.7.6-1.3 1.2-1.8 2-1.8 2.7-2.8 6.5-4 8.1-1.5 2.1-2 6.2-2 6.2-.4 2.7-6.1 17-7.6 19.5s-3.7 9.5-3.7 9.5c-1.3 1.6-1.2 4.1-1.1 5.2 0 .2 0 .4.1.5s0 .2 0 .2v.1l-2.1 3.6-6.7-.9-3.5-2.3c.3-.5.5-.9.8-1.4 1.8-4.1 3.2-11.5 3.2-11.5s1.9-8.4 1.7-10.4c0-2.7.2-5.3.5-8 0 0 5.3-16 6.9-18.6.7-1 1.1-2.2 1.3-3.5v-.8l2.3-2.3s18.6 2.5 15.7 4.8z"/><path class="st1" d="M544.1 448.5v.8l-2.1 3.6-6.7-.9-3.5-2.3c.3-.5.5-.9.8-1.4 1.7-.5 5.5.9 5.5.9s4.2.6 6-.7z"/><path class="st8" d="M542.5 458l-6.8 1.6-6.2-4.6.3-2.6c.4-.3.8-.6 1.1-1 .5-.5.8-1.2.9-1.9.4-1.9 6.3.2 6.3.2s4.3.8 6-.5c-.1 1.3 0 2.5.3 3.7.2.6.5 1.1 1 1.5 1.8 1.2-2.9 3.6-2.9 3.6z"/><path class="st1" d="M542.5 458l-6.8 1.6-6.2-4.6.3-2.6c.4-.3.8-.6 1.1-1h1.4c1 .1 3.5 4.5 3.5 4.5 6.1.4 8-1.6 8.6-3.1.2.6.5 1.1 1 1.5 1.8 1.3-2.9 3.7-2.9 3.7z"/><path class="st9" d="M535.8 456.7s-2.5-4.5-3.5-4.5h-2.6s-2.7 6.5-3.7 7-2.5 3.6-2.5 3.6 7.2 7 14.2 5.6c2.2 0 4.4.6 6.4 1.6 3.2 1.7 16.7.4 18.3-2.5 1.2-2.2 1.7-3.8.6-5-.7-.7-1.6-1-2.5-.9-1.7.2-5.5.2-8.8-3.9 0 0-6.1-5.6-6.6-5.6s.3 5.3-9.3 4.6z"/><path class="st1" d="M588.8 385.7c-.5.5-3.4 3.8-4.3 4-1.5.6-2.9 1.2-4.4 1.9 0 0-1.8 2.4-3.3 2.5-.4.1-.9.2-1.3.3-.2-3.3-.4-6.1-.4-6.1l11.5-6.8 1.3 2.1c.4 1 .7 1.8.9 2.1z"/><path class="st8" d="M546.9 338.9s-4.5 5.8 0 13.6c2.4 4.4 5.5 8.3 9.2 11.6l15.3 31.6s4-2.2 5.5-2.3 3.3-2.5 3.3-2.5c1.4-.7 2.9-1.4 4.4-1.9 1-.2 4.3-4 4.3-4s-1.7-3.6-1.3-4.6-1.1-3.4-1.1-3.4c-.5-1.2-.8-2.5-1-3.8 0-1-1.6-3.3-1.6-3.3s-1.6-2.4-1.6-3.8-2.3-6.6-2.3-6.6l-.6-23-32.5 2.4z"/><path class="st7" d="M588.8 385s-3.4 3.8-4.3 4c-1.5.6-2.9 1.2-4.4 1.9 0 0-1.8 2.4-3.3 2.5-1 .2-2.1.6-3 1.1-1.3.6-2.5 1.2-2.5 1.2L556 364.1c-1.3-1.2-2.6-2.4-3.7-3.8-2.1-2.4-3.9-5.1-5.5-7.8-1.8-2.8-2.4-6.2-1.7-9.4.3-1.5.9-2.9 1.7-4.1l10.9-.8 21.6-1.5.2 6.8.4 16.2s.3.8.8 1.9c.7 1.5 1.2 3.1 1.5 4.7 0 1.3 1.6 3.8 1.6 3.8s1.6 2.3 1.6 3.3c.2 1.3.5 2.5 1 3.8 0 0 1.5 2.4 1.1 3.4s1.3 4.4 1.3 4.4z"/><path class="st1" d="M564.2 398c-.7.6-1.3 1.2-1.8 2-6.6.5-14.3-3-16.2-3.9v-.8l2.3-2.3c-.1.1 18.6 2.7 15.7 5z"/><path class="st8" d="M583.6 346.1s-1 3.4-1.3 4.8-1.1 8.6-1.1 8.6l-.4 2-6.9 33-1.5 7.2c-2.7 1.5-9.3-2.4-9.3-2.4-7.8.9-17.3-4.1-17.3-4.1s1.6-5.1 1.2-7.6 2.2-4.6 2.2-4.6c-.6-2.3 1.6-12.4 1.6-12.4s.5-3.8 2.3-4.7-.2-2.4-.7-3.3c-.2-.7-.1-1.5.2-2.2.2-.6.3-1.1.6-1.6-4.6-4.6-5.3-11.8-5.3-15.9 0-1 0-2 .1-2.9l10-1.8 21.8-3.8 2.2 6.9.6 1.7 1 3.1z"/><path class="st1" d="M581.5 253.4c-.5 1-.8 2-1 3.1-.1.3-.1.5-.2.8-2.1 1.4-3.4 1.4-6.1 1.4-.9 0-1.5-1.8-2.3-2 0 0-1.3-4.8-1.7-.8-2.5-.5-4.7 1.5-6.5-.3v-.6c0-1.5 0-3-.2-4.5 0 0 7 0 12.4.6 3.5.4 6.3 1.1 5.6 2.3z"/><path class="st5" d="M586.5 245.3c0 7.5-6.1 13.5-13.5 13.5-.9 0-1.8-.1-2.7-.3-7.3-1.5-12-8.6-10.5-15.9 1.5-7.3 8.6-12 15.9-10.5 3.8.8 7.1 3.2 9 6.6 1.3 2 1.9 4.2 1.8 6.6z"/><path class="st1" d="M579.2 266.5c-.1 1.1-.2 1.8-.2 1.8s-21.7-1.5-17.9-5.1c1-1 1.7-2.2 2-3.6l9.4 1.5s2.7 2.1 4.7 4c.6.6 1.2 1 2 1.4zm3.2 77.1c-1 .1-1.9.1-2.8-.2-.4-.1-.8-.3-1.2-.5-1.8-1.1-7.9.3-7.9.3s-16.5 1.1-17.2 0c-.4-.6-3.3-.5-5.7-.4-1 .1-1.8.2-2.5.2.3-1.5.9-2.9 1.7-4.1l10.9-.8 21.8-3.8 2.2 6.9c.3.8.5 1.6.7 2.4z"/><path class="st6" d="M572.5 261.9l-11.8-1.9c-.4.9-1.2 1.7-2.2 1.9-1.6.4-8.6 4-11.8 8.4l-3.2 4.4s-2.5 3.1-1.7 5.7 1.8 11.1 1.8 11.1l1.2 9.6s2.3 6.9 1.6 9.9.4 15.8.4 15.8l-2.4 15.8s8.2-1.1 9 0 17.2 0 17.2 0 6-1.3 7.9-.3c1.2.7 2.6.9 4 .7 0 0-1.5-5-.6-7.8s.6-7.9.6-7.9 1.2-7.4.6-8.7 1.3-6.2 1.3-6.2l6.4-33.8s-.8-6.1-4.2-8.1-7.3-2.7-9.4-4.6-4.7-4-4.7-4z"/><path class="st5" d="M577.9 295.2v4l3.7 10.1 1.3 9.3s2.4 6.7 2.4 9 5.9 13.5 5.9 13.5 1.6 3.8.8 4.5-7.8 16.7 1 16.2 6.1-17.2 6.1-17.2l-1.2-7.3s-1.7-18.2-1.7-19.5c0 0-2.2-7.8-2.4-9.5S592 298 592 298l-1.3-5.6-12.8 2.8z"/><path class="st1" d="M573.7 307.8l-13.2 7.5-4.1 6.2 5.5-5.5 11.8-8.2zm-4 14.5s-6 3.9-8.8 3.9-9.4 6.7-9.4 6.7 9.3-6 10-5.8 8.2-4.8 8.2-4.8zm-15.4 2.1s-5.6 5.1-4.2 5.6 9-5.6 9-5.6h-4.8zm24.9-18.2s-4.4 5.9-3.2 5.8 4.5-3.5 4.5-3.5l-1.3-2.3zm.7 5.8s-4.7 5.4-4.5 6.7 4.5-6.7 4.5-6.7zm1.2 2.7s-3.2 5.7-1.8 6.9 1.8-6.9 1.8-6.9zm-4.2-14.6s-2.4 4-.6 4.3 1.9 0 1.9 0l-1.3-4.3zm.7-14.6c-.6 2.4-1.4 4.8-2.4 7.1-.4-1.2-.7-2.4-.9-3.6.9-1.3 2.1-2.5 3.3-3.5zm7.2-46.9c-.2.5-.5 1-.9 1.4-.6.6-1.2 1.2-1.6 1.9-.4 1-.6 2.1-.6 3.2-.2 1.1-.9 2.3-2 2.3-.6 0-1.1-.2-1.6-.5s-1.1-.2-1.6.1c-.3.3-.5.7-.5 1.2-.1.9-.2 1.9-.2 2.8 0 .4 0 .8.1 1.1.3 1.2.2 2.4-.2 3.6-.5.8-1.3 1.5-2.2 1.8-1 .4-2.1.7-3.1.9-2.1.3-4.1.3-6.2.2-.2 0-.4 0-.6-.1-.1 0-.2-.1-.2-.1.2-1.1.4-2.3.4-3.4-5.3-5.2-5.5-13.7-.3-19.1s13.7-5.5 19.1-.3c.8.9 1.6 1.9 2.2 3z"/><path d="M579.2 227.2c-1.2-.1-2.4.5-3.6.8-2.5.6-5.1-.6-7.7-.6-2.2.1-4.4.8-6.3 1.9-1.6.7-3 1.7-4.2 2.9-1.2 1.2-1.9 2.9-2 4.6.2 1 .1 2-.1 3-.3.5-.6 1-.9 1.4-.6 1-.8 2.3-.4 3.5.5 1.1 1.2 2.2 2.1 3.1 1.7 2.1 2.7 4.7 4.2 6.9.6 1 1.4 1.9 2.2 2.8.1.2.3.3.5.4.2.1.4.1.5.1 3.2.1 6.4.2 9.3-1.1.9-.3 1.7-1 2.2-1.8.4-1.2.5-2.4.2-3.6-.1-1.3-.1-2.7.1-4 0-.4.2-.9.5-1.2.5-.3 1.1-.3 1.6-.1.5.3 1 .4 1.6.5 1.1 0 1.8-1.2 2-2.3-.2-2 .6-3.9 2.2-5.1 1.5-1.9 2-4.5 1.4-6.8-.7-2.2-2.9-5.1-5.4-5.3z" fill="#1e1637"/><path class="st1" d="M592.1 284.6c-.3 1.7-.3 3.3 0 5-.1 1.3 0 8.7 0 8.7-4-1.2-14.2 1.2-14.2 1.2l-1.2-3.6c-.7-.9-1.2-1.9-1.5-3-.4-1.2-.7-2.4-.9-3.6-.5-2.5-.9-5.1-1.2-7.6-.5-3.9 5.2-8 9.6-10.3s8.1 7.5 8.1 7.5 1.8 3.8 1.3 5.7z"/><path class="st6" d="M592.1 283.9c-.3 1.7-.3 3.3 0 5-.1 1.3 0 8.7 0 8.7-4-1.2-14.2 1.2-14.2 1.2l-1.2-3.6c-.7-.9-1.2-1.9-1.5-3-.4-1.2-.7-2.4-.9-3.6-.5-2.5-.9-5.1-1.2-7.6-.5-3.9 5.2-8 9.6-10.3s8.1 7.5 8.1 7.5 1.8 3.8 1.3 5.7z"/><path class="st11" d="M584.5 232.5c-.2-.7-.5-1.3-.9-1.9.1.2.1.3.2.5.7 2.4.1 4.9-1.4 6.8-1.6 1.2-2.5 3.1-2.2 5.1-.2 1.1-.9 2.3-2 2.3-.6 0-1.1-.2-1.6-.5s-1.1-.2-1.6.1c-.3.3-.5.7-.5 1.2-.2 1.3-.2 2.7-.1 4 .1 1.2.3 2.5-.2 3.6-.5.8-1.3 1.5-2.2 1.8-2.9 1.2-6.2 1.2-9.3 1.1-.2 0-.4 0-.5-.1-.2-.1-.3-.2-.5-.4-.8-.9-1.5-1.8-2.2-2.8-1.5-2.3-2.5-4.8-4.2-6.9-.5-.6-1-1.1-1.4-1.8v.1c.5 1.1 1.2 2.2 2.1 3.1 1.7 2.1 2.7 4.7 4.2 6.9.7 1 1.4 1.9 2.2 2.8.1.2.3.3.5.4.2.1.4.1.5.1 3.2.1 6.4.2 9.3-1.1.9-.3 1.7-1 2.2-1.8.4-1.2.5-2.4.2-3.6-.1-1.3-.1-2.7.1-4 0-.4.2-.9.5-1.2.5-.3 1.1-.3 1.6-.1.5.3 1 .4 1.6.5 1.1 0 1.8-1.2 2-2.3 0-1.1.2-2.2.6-3.2.5-.7 1-1.3 1.6-1.9 1.5-1.9 2-4.4 1.4-6.8z"/><path class="st12" d="M681.9 235.1l-8.6 18.4s-1.3 3.5-2.1 4.1-4.5 11.5-4.5 11.5l-9.3 14.3-.6 1-3.6-1-2.5-9.5.2-2.8v-.4s5.7-6 7-6.5c0 0 1 .1 2.9-4.5s3.6-5.6 3.6-5.6l1-3.4 10.7-17.1s9-12.9 11.5-7.2-5.7 8.7-5.7 8.7zm-35.8 130.5c0 .3-.1.6-.3.9-1 1.5-6.6 31.2-6.6 31.2.5 2-.8 6-1.6 7.8s-2.6 11.3-2.6 11.3-.5 20.4-1.6 23.5.4 10 .4 10c-.1 3.1 1.8 6.5 2.9 8.1l.2.3c.4.5.6.8.6.8.3.6.7 1.1 1.3 1.6l.3.2c1.5 1 3.3 1.8 5.1 2.1h.2c.7.2 1.2.2 1.2.2l.5 2.5-4.8 1-9.2.6s-10.8.8-8.4-4c.2-.3.3-.7.4-1 .1-.2.2-.5.3-.7 1.5-4.6.5-10.3.5-10.3l-2.1-16.4c-3.5-15.3 2.7-32.3 2.7-32.3s-.5-1.4.7-4.8 0-11 0-11-.6-9.7-1.5-14.5c-.3-2-.4-4.1-.3-6.1 0-1.2.1-2.4.3-3.6l20.7-2.8c-.3.1.9 3.4.7 5.4z"/><path class="st1" d="M645.8 466.1l-4.8 1-9.2.6s-10.8.8-8.4-4c.2-.3.3-.7.4-1 .1-.2.2-.5.3-.7 1.9.1 3.7.4 5.5 1.1 3.1 1.2 5.4-1.9 5.4-1.9l1.5-2.9.2-.4c.4.5.6.8.6.8.4.7.9 1.3 1.5 1.8l-.3.5-1.5 3.1s1.9.2 4.4.6c1 .3 2.1-.3 2.4-1.3h.2c.7.2 1.2.2 1.2.2l.6 2.5z"/><path class="st13" d="M650.2 468.4c-.4 1.6-10.5 2.1-10.5 2.1s-5.6-.5-7.2.8-6.2 1-6.4 1-2.6-.1-3.6-4.5 1.3-5 1.3-5.1c2 0 3.9.4 5.7 1.1 3.1 1.2 5.4-1.9 5.4-1.9l1.7-3.3c.4.5.6.8.6.8.4.7.9 1.3 1.5 1.8l-1.7 3.6s1.9.2 4.4.6c1.1.3 2.3-.5 2.5-1.6 0-.1 0-.3.1-.4v-.3s1.6.5 3.5 1c2 .6 3.1 2.4 2.7 4.3z"/><path class="st12" d="M669.3 387.2c-.2 1.5-.5 5.2-.5 5.2.8 3.1-1.3 10.6-1.3 10.6l-1.1 4.3c.5 5.5-3 18.8-3 18.8s-2.3 12.4-3.5 17.7c-.7 3-.5 6.1.6 8.9l.1.2c0 .1 0 .2.1.3 0 .1.1.3.1.4.3.7.7 1.4 1.2 2 .2.2.4.5.7.7 1.1 1 2.4 1.8 3.9 2.4l.6.2c.6.2 1.3.4 1.9.6h.2l-.5 2.9-6.4-1.6-8.6-2.8-4.2-2.3s0-.2.1-.7v-.1c0-.2.1-.4.1-.7.7-3.8 2.3-14.2 1.5-22-1-9.6 3-22.8 3.9-25.9.6-1.8.8-3.7.7-5.6-1.6-2.3-1.9-11.5-1.9-11.5s-2.9-5.9-5.3-12.2c-.8-2.1-1.4-4.2-1.7-6.4-.3-1.5-.4-3.1-.3-4.6 0 0 19.5-17.8 21.7-.6.1.6.1 1.1.2 1.7 1.8 15.8.9 18.7.7 20.1z"/><path class="st1" d="M669.3 459.6l-.5 2.9-6.4-1.6-8.6-2.8-4.2-2.4s0-.2.1-.7v-.1c0-.2.1-.4.1-.7h.6c1.2-.1 2.5 0 3.6.5 1.4.5 3.2 1.1 3.6.9.6-.3 1.4-.4 2.1-.4l.9-2 .1-.3c.3.7.7 1.4 1.2 2 .2.3.4.5.7.7v1.7c1 .6 2 1.1 3.1 1.4.3.1.6.1.9 0l.6.2c.6.2 1.3.4 1.9.6l.2.1z"/><path class="st13" d="M666.1 465.8c-1.8-.5-6.1-1.3-6.8-.7s-6.7 0-6.7 0c-1.3 0-2.4-.7-3.1-1.8-1.3-1.9-.2-8.2-.2-8.2h.4l.7-.1c1.2-.1 2.5 0 3.6.5 1.4.5 3.2 1.1 3.6.9.6-.3 1.4-.4 2.1-.4l1-2.3c.3.7.7 1.4 1.2 2 .2.3.4.5.7.7l-.1 1.7c1 .6 2 1.1 3.1 1.4.5.2 1.2 0 1.5-.5 0-.1.1-.2.1-.3.8.4 1.7.7 2.5.8 2.3-.2 4.5 1.3 5 3.6 1 2.9-6.8 3.2-8.6 2.7z"/><path class="st1" d="M646.1 365.6l-1.1.3c-.9.3-1.8.5-2.7.6-5.7.8-15.2.3-18.2.1 0-1.2.1-2.4.3-3.6l20.7-2.8c0 .1 1.2 3.4 1 5.4z"/><path class="st13" d="M664.1 360.5s-7.6 1.2-13.8 2.5c-2.1.5-4 .9-5.4 1.4-.9.3-1.8.5-2.7.6-6.9 1-19.1.1-19.1.1-3.4-10.9 4.1-24.6 4.1-24.6-.2-1.1 1.5-4.4 1.5-4.4v-.1l1.1-3.9h28.3l.3 1.7.7 3.4 4.4 21.1.6 2.2z"/><path class="st1" d="M668.5 367.1l-.2.1-3.3 1.5c-3.6 1.6-14.3 2-18 2-.3-1.5-.4-3.1-.3-4.6 0 0 19.5-17.8 21.7-.6 0 .5 0 1.1.1 1.6z"/><path class="st13" d="M669 365.5l-.7.3-3.3 1.5c-3.6 1.7-14.7 2-18.2 2h-.9c-1.6 0-3.3-1.6-3.3-2 0-.2-.2-1.3-.3-2.2l-.2-1.4c-3.8-1.6-7.5-3.5-11-5.7-2.8-1.9-2.1-15.3-1.5-22.1.2-2.3.4-3.9.4-3.9l28.6 1.7 4 .2 2.3.5.6.1s1.7 12 2.5 13 .3 4.4.2 6.3c0 .8-.1 1.6-.3 2.5 0 0 1.2 3.4.9 5.2-.3 1.3-.1 2.7.2 4z"/><circle class="st12" cx="638.4" cy="254.1" r="11.7"/><path class="st12" d="M632.7 259s.8 11.1-1.5 13.6c-2.6 2.6-5.3 5.1-8.2 7.4l1.8 7.5 10.3 1.2 12-12.8-2.7-3.3s-2.1-7.1-.4-10.6-11.3-3-11.3-3z"/><path class="st1" d="M657.5 283.4l-.6 1-3.6-1-2.5-9.5.2-2.8.8-1.1s4 .1 3.8 3.7c-.4 3.3 1.5 8.5 1.9 9.7zm7.9 52.6s-2.9.6-6.2 1.1-7.1.7-8.7-.3c-2.6-1.6-16.9-1.1-21-1h-.7l1.1-3.9h28.3l.3 1.7 4 .2 2.3.5c.4 1.1.6 1.7.6 1.7z"/><path d="M650.9 270.8s4 .1 3.8 3.7 2.2 9.9 2.2 9.9l-.9 2.1s-1.3 5.1-.3 6.4 4.6 1.3 2.5 11.7c0 0-.5 7.8.6 10.4s1.1 8.6 2.7 11.2c1.5 2.7 2.8 5.5 3.8 8.5 0 0-11.8 2.6-14.9.8s-22.1-.9-22.1-.9.1-3.2 0-3.5c-.2-.8 0-1.6.5-2.3.6-.9 1.6-2.3 1.1-3.6s1.4-3.1.4-5.1-2.2-2.4-2-3.4c.1-1.3-.3-2.5-1.1-3.4-.7-.9-5.6-10.5-5.6-10.5l-.8-4.5s-6.3-4.6-6.2-6.8 2.4-5.2 2.4-5.2l6.1-6s3.4 3.6 6.6 2.4S640 275 640 275s2.5-1.4 2.7-2.4 1.7-.1 1.7-.1 2.3-1.3 2.7-.8c.8.4 1.6.7 2.5.8l1.3-1.7z" fill="#ffcde5"/><path class="st12" d="M616.5 289.7l-1.9 1.5c-1.5 3.1-2.3 6.5-2.4 9.9-.5 5.2-1.3 10.3-2.5 15.3l-3.8 6.8s-6.3 13.2-7.1 16.7-4.5 9.4-4.5 9.4-12.6 11.4-3.8 13.4 9.1-9 9.1-9 2-2.3 2.4-3.8 11.5-21.3 11.5-21.3 3.9-5.3 3.1-8.1c0 0 5.1-12 5.1-15-.1-2.5-.4-5-.8-7.5l.8-6.3-5.2-2z"/><path class="st1" d="M642.7 314.7s-8.9 4.7-10.6 4.9 7.5-1 7.5-1l3.1-3.9zm7.2 3.7s-11.8 4-17 3.3c0-.1 13 2.4 17-3.3z"/><path class="st1" d="M650.7 319.7s-10.6 6.7-16.9 5.6c0 0 14.6 2.9 16.9 1.4l-6.5-1.8c-.1-.1 7.2-3.9 6.5-5.2zm-12.3-86.2c-3.1-.8-6.4-.1-9 1.7-1.8 1.4-3 3.6-5.1 4.7-1.1.5-2.2.9-3.3 1.2-4.1 1.7-6.5 5.9-5.8 10.3.3 1.8 1.2 3.5 1.6 5.2.7 3.2.1 6.5-.7 9.6-2.2 8.8-5.6 17.2-10.1 25-.4.5-.5 1.1-.5 1.7.1.4.3.8.6 1.1 4.2 4.9 11 6.5 17.5 6.7 2.4.2 4.8-.2 6.9-1.1 1.3-.8 2.5-1.8 3.4-3.1 2.2-3.1 3.3-6.8 3.1-10.6-.2-3-1.2-6.1-.4-9.1.1-.4.3-.8.5-1.1.7-.7 1.8-.5 2.8-.6 2.7-.3 4.4-3.1 4.7-5.8s-.3-5.4-.4-8c0-3.5 1.1-7 3.2-9.9.9-1.2 2-2.4 2.3-3.9.4-1.9-.7-3.3-1.7-4.8-1.5-2.4-2.2-5.1-4.5-6.9-1.5-1.2-3.2-1.9-5.1-2.3z"/><path d="M637.7 232.8c-3.1-.8-6.3-.1-8.9 1.7-1.8 1.4-3 3.6-5.1 4.7-1.1.5-2.2.8-3.3 1.2-4.1 1.7-6.5 5.9-5.8 10.3.3 1.8 1.2 3.5 1.6 5.2.7 3.2.1 6.5-.7 9.7-2.2 8.7-5.6 17.2-10.1 25-.4.5-.5 1.1-.5 1.7.1.4.3.8.6 1.1 4.2 4.9 11 6.5 17.5 6.7 2.4.2 4.8-.2 6.9-1.1 1.3-.8 2.5-1.8 3.4-3.1 2.2-3.1 3.3-6.8 3.1-10.6-.2-3-1.2-6.1-.4-9.1.1-.4.3-.8.5-1.1.7-.7 1.8-.5 2.8-.6 2.7-.3 4.4-3.1 4.7-5.8s-.3-5.4-.4-8c0-3.5 1.1-7 3.2-9.9.9-1.2 2-2.4 2.3-4 .4-1.9-.7-3.3-1.7-4.8-1.5-2.4-2.2-5.1-4.5-6.9-1.6-1.2-3.3-2-5.2-2.3z" fill="#985c7e"/><path class="st1" d="M633.8 346.4s2.3 10.9 6.2 13.9l-6.2-13.9z"/><path d="M615.2 253.1c-.1-.4-.3-.9-.4-1.3.1.4.2.8.4 1.3zm33.1-9.5v1c-.3 1.5-1.4 2.7-2.3 3.9-2.1 2.9-3.2 6.3-3.2 9.9 0 2.7.7 5.4.4 8s-2 5.5-4.7 5.8c-1 .1-2.1-.1-2.8.6-.3.3-.5.7-.5 1.1-.8 3 .3 6 .4 9.1.2 3.8-.9 7.5-3.2 10.5-.9 1.3-2 2.3-3.4 3.1-2.2 1-4.5 1.4-6.9 1.1-6.3-.2-13-1.8-17.2-6.5-.1.3-.1.6-.1.9.1.4.3.8.6 1.1 4.2 4.9 11 6.5 17.5 6.7 2.4.2 4.8-.2 6.9-1.1 1.3-.8 2.5-1.8 3.4-3.1 2.2-3.1 3.3-6.8 3.1-10.6-.2-3-1.2-6.1-.4-9.1.1-.4.3-.8.5-1.1.7-.7 1.8-.5 2.8-.6 2.7-.3 4.4-3.1 4.7-5.8s-.3-5.4-.4-8c0-3.5 1.1-7 3.2-9.9.9-1.2 2-2.4 2.3-4 .2-.9-.1-2-.7-3z" opacity=".1"/><linearGradient id="SVGID_1_" gradientUnits="userSpaceOnUse" x1="2973.064" y1="63.803" x2="2973.064" y2="346.41" gradientTransform="rotate(180 1585.47 344.315)"><stop offset="0" stop-color="gray" stop-opacity=".25"/><stop offset=".54" stop-color="gray" stop-opacity=".12"/><stop offset="1" stop-color="gray" stop-opacity=".1"/></linearGradient><path d="M163.8 490.1c2.9 1.7 7.4 2.8 13.1-.8l-.1 8.1c.4 5.6 7.3 25.8 7.3 25.8l4.9 16.7c3.5 11.8 5.3 24 5.3 36.3-.1 3.9.4 7.7 1.6 11.4 2.6 7-1 16-2.6 19.3-2.9 1-5.9 1.8-8 2.3-.2.1-.5.1-.7.2 0 0-7.3 2.9-10.5 2.5-2.4-.3-3.9 2.7-2 4.9-1.6.5-3.2.7-4.9.6-3.2-.4-4.9 5.2 1.2 6.8s40.5 0 40.5 0c2-1 3.1-3.2 2.6-5.4 2.6-.1 4.3-.2 4.3-.2s6.1-2.8 0-10.3l-.3.3-1.3-3.8v-5.2s7.7-37 5.3-41.3-3.6-26.6-3.6-26.6l.8-24.2c2.2-4.5 3.3-11.6 3.9-17.2.8-2.6 1.3-5.4 1.5-8.2.1-1.3.2-2.7.2-4.1 0-3.1-.5-6.2-1.5-9.2 2.7-4.1 5.8-7.9 9.2-11.5 2.8-2.6 4.2-6.5 3.6-10.3l-2-13.5-4.9-23c.6-6.4-.7-10.1-2.2-12.2.4-2.1.7-4.1.9-6.2 1.1-9 .6-18.1-1.4-27-.7-3.1-1.7-6.3-3.8-8.6-2.5-2.6-6.4-4.3-7.4-7.7-.1-.9-.3-1.8-.6-2.6-.9-2.3-3.7-3.1-6.2-3.4-4.4-.5-10.7-.9-14.9.8-2.9 1.2-7 4.5-8.6 8.1-1 1.5-1.3 3.3-1 5 .2.6.4 1.2.7 1.7-.6 1.7-1 3.5-1 5.3 0 6.4 4 12.1 9.9 14.4l.3.9c.2.7.3 1.4.4 2.2-.1 1.4-.2 2.8-.2 4.2 0 .2-.1.4-.1.6-3.5 1.5-6.9 3.3-10.2 5.2 2.4 3.6-.4 18.7-.4 18.7-6.1 3.6-12.1 12.7-5.7 22.3s2.8 19.7 2.8 19.7l-1 15.5-.2 3.1h.1l-.1 1.2h.2v1.3c-2.9 1-7 3.1-9.5 7-1.2 1.9-2.6 3.7-4.2 5.2-1.3 1.1-1.6 3-.5 4.4.3 0 .6.3 1 .5zm48.8-41.3c-.2-2.7.3-5.4 1.4-7.8h2.9c.1.7.2 1.3.4 1.9.8 3.5-2.5 5.2-4.7 5.9z" fill="url(#SVGID_1_)"/><path class="st18" d="M213.4 602.8l1.6 4.7-5 5.1-16.7 3.9-12.1-1.2.8-4.3c.5-1.9 1.9-3.3 3.8-3.8 5-1.2 14.4-3.8 16.4-7.5l11.2 3.1z"/><path class="st1" d="M213.4 602.8l1.6 4.7-5 5.1-16.7 3.9-12.1-1.2.8-4.3c.5-1.9 1.9-3.3 3.8-3.8 5-1.2 14.4-3.8 16.4-7.5l11.2 3.1z"/><path class="st19" d="M185 614.1l2.3-3.1-2.3-3.6s-7 2.8-10.1 2.4-4.7 5.1 1.2 6.6 38.9 0 38.9 0 5.8-2.7 0-10.1l-5 3.9s-8.6 4.7-12.9 3.9H185z"/><path class="st18" d="M174.5 620.7l12.1 1.2 16.7-3.9 5.1-5.1-.4-1.2-.6-1.7-.6-1.7-11.3-3.1c-.6.9-1.4 1.7-2.3 2.3-3.7 2.5-10.3 4.3-14.1 5.2l-.5.1c-.8.2-1.4.7-2 1.2-.7.7-1.2 1.5-1.4 2.4l-.7 4.3z"/><path class="st1" d="M174.5 620.7l12.1 1.2 16.7-3.9 5.1-5.1-.4-1.2-4.6 3.6s-8.6 4.7-12.9 3.9h-12.1l2.3-3.1-2.1-3.2c-.8.2-1.4.7-2 1.2-.7.7-1.2 1.5-1.4 2.4l-.7 4.2z"/><path class="st19" d="M178.4 619.6l2.3-3.1-2.3-3.6s-7 2.8-10.1 2.4-4.7 5.1 1.2 6.6 38.9 0 38.9 0 5.8-2.7 0-10.1l-5.1 3.8s-8.6 4.7-12.9 3.9l-12 .1z"/><path class="st18" d="M188.1 393.8s18.7 1.9 16-5.8c-.8-2.2-1-4.6-.6-6.9.5-2.9 1.6-5.6 3.3-7.9l-17.5 2.7c1 1.8 1.8 3.6 2.4 5.6 2 8.2-3.6 12.3-3.6 12.3z"/><path class="st20" d="M220 482.5s-.4 16.7-4.3 24.9l-.8 23.7s1.2 21.8 3.5 26.1-5.1 40.5-5.1 40.5v6.2s-12.4 4.7-16-.8l3.6-46.3-1.5-64.3 20.6-10z"/><path class="st1" d="M220 482.5s-.4 16.7-4.3 24.9l-.8 23.7s1.2 21.8 3.5 26.1-5.1 40.5-5.1 40.5v6.2s-12.4 4.7-16-.8l3.6-46.3-1.5-64.3 20.6-10z"/><path class="st21" d="M227.8 428.8l2.3 6.2 1.9 13.2c.5 3.7-.8 7.5-3.5 10.1-4.7 4.7-10.9 14.4-10.9 14.4l-7.4-22.2s7.4-1.2 6.2-6.2-.8-14.4-.8-14.4l12.2-1.1z"/><path class="st7" d="M227.8 428.8l2.3 6.2 1.9 13.2c.5 3.7-.8 7.5-3.5 10.1-4.7 4.7-10.9 14.4-10.9 14.4l-7.4-22.2s7.4-1.2 6.2-6.2-.8-14.4-.8-14.4l12.2-1.1z"/><path class="st1" d="M193.2 607.5c5 7.9 12.8 3.4 14.1 2.5l-.6-1.7-11.3-3.1c-.5.9-1.2 1.7-2.2 2.3z"/><path class="st20" d="M177.6 497.7c.4 5.5 7 25.3 7 25.3l4.7 16.3c3.4 11.6 5.1 23.5 5.1 35.5-.1 3.8.4 7.6 1.5 11.2 3.1 8.6-3.1 20.2-3.1 20.2 5.4 9.7 14.8 3.1 14.8 3.1v-6.2s7.4-33.9 5.4-40.5-2.7-24.5-2.7-24.5v-32.3c6.2-6.2 10-14.5 10.6-23.3.1-1.3.2-2.6.2-4 .3-8.8-5.7-19.1-8-22.8-.6-.9-.9-1.4-.9-1.4l-34.4 13.6h-.1v4.3l-.1 25.5z"/><path class="st1" d="M189.3 375.9c1 1.8 1.8 3.6 2.4 5.6 3.8 1.5 8.1 1.3 11.8-.4.5-2.9 1.6-5.6 3.3-7.9l-17.5 2.7z"/><circle class="st18" cx="197.1" cy="366.5" r="15.2"/><path class="st1" d="M177.6 472.4h.2c16.3 3.4 36.8-13.7 36.8-13.7-.5-.9-1-1.9-1.4-2.9-.6-.9-.9-1.4-.9-1.4l-34.4 13.7-.1 1.4-.2 2.9z"/><path class="st21" d="M181.9 393.4s21.8-13.2 28.8-7.8l9.7 12.5s6.2 1.9 5.1 14.4l4.7 22.6-14 3.5s-8.3 7.8-1.6 19.1c0 0-20.6 17.1-37 13.6l1.2-18.3s3.5-10.1-2.7-19.5-.4-18.3 5.4-21.8c0-.1 2.7-14.8.4-18.3z"/><path class="st18" d="M180.7 472.8s-8.2 1.5-12.1 7.8c-1.1 1.9-2.5 3.6-4.1 5.1-1.3 1.1-1.4 3.1-.2 4.4.2.2.4.4.7.6 3.1 1.9 8.1 3 14.5-2.2 10.9-9.1 1.2-15.7 1.2-15.7z"/><path class="st1" d="M192.8 400.8s7.8-.8 9.7 19.5 5.1 24.9 5.1 24.9 1.9 10.5-2.7 16.7-13.6 19.5-13.6 19.5-9.7 2.7-11.7-7l12.1-22.6s1.9-7.8-2.7-13.2-8.3-41.7 3.8-37.8z"/><path class="st21" d="M192 399.6s7.8-.8 9.7 19.5 5.1 24.9 5.1 24.9 1.9 10.5-2.7 16.7-13.6 19.5-13.6 19.5-9.7 2.7-11.7-7l12.1-22.6s1.9-7.8-2.7-13.2-8.3-41.7 3.8-37.8z"/><path class="st1" d="M185.6 414.2s-.8 12.1 2.7 18.7 3.5 15.2 0 19.9m-4.7-53.4s3.1-3.1 12.1-3.5 12.9-3.1 12.9-3.1"/><path class="st1" d="M205.3 346.9c2.4.3 5.1 1.1 5.9 3.3.2.8.4 1.7.5 2.6.9 3.4 4.7 5 7.1 7.6 2.1 2.3 3 5.4 3.7 8.4 1.9 8.7 2.4 17.6 1.4 26.5-.8 6.5-2.3 12.8-2.8 19.3s.4 13.3 3.9 18.8c1.5 2.3 3.5 4.4 4.6 7-2.2 1.8-5.3 2.1-8.2 2.2-3.3.1-6.7.1-10 0-1.8.1-3.5-.3-5.1-1.1-1.1-.7-2-1.7-2.7-2.9-1.9-3.3-2.4-7.1-2.3-10.9s.7-7.5.8-11.3c0-2.1-.1-4.2-1.3-5.9-1-1.1-2.1-2.1-3.3-3-4.2-3.7-5.6-9.6-5.7-15.2s.8-11.1.3-16.7c-.2-2.2-1-4.8-3.1-5.2-.7 0-1.3-.1-2-.3-1.7-.7-1.6-3.1-2-4.9-.6-2-2.2-3.5-2.7-5.5-1.1-4.7 4.9-10.3 8.8-12s10-1.3 14.2-.8z"/><path d="M205.7 346.1c2.4.3 5.1 1.1 5.9 3.3.2.8.4 1.7.5 2.6.9 3.4 4.7 5 7.1 7.6 2.1 2.3 3 5.4 3.7 8.4 1.9 8.7 2.4 17.6 1.4 26.5-.8 6.5-2.3 12.8-2.8 19.3s.4 13.3 3.9 18.8c1.5 2.3 3.5 4.4 4.6 7-2.2 1.8-5.3 2.1-8.2 2.2-3.3.1-6.7.1-10.1 0-1.8.1-3.5-.3-5.1-1.1-1.1-.7-2-1.7-2.7-2.9-1.9-3.3-2.4-7.2-2.3-10.9s.7-7.5.8-11.3c0-2-.1-4.2-1.3-5.9-1-1.1-2.1-2.1-3.3-3-4.2-3.7-5.6-9.6-5.7-15.2s.8-11.1.3-16.7c-.2-2.2-1-4.8-3.1-5.2-.7 0-1.3-.1-2-.3-1.7-.7-1.6-3.1-2-4.9-.6-2-2.2-3.5-2.7-5.5-1.1-4.7 4.9-10.3 8.8-12s10.1-1.3 14.3-.8z" fill="#472727"/><ellipse cx="760.9" cy="689.4" rx="24" ry="3.3" opacity=".1" fill="tomato"/><path d="M136.6 464.7s-27.6 14.3-13.3 31c.8 2.1 2.9 3.5 5.2 3.4 0 0-.8-1.4 2.2-2.5 1.1-.4 2.1-.9 3-1.6 1.3-.9 2.2-2.1 2.7-3.6 0 0 5.6-7.5 1.3-21.5 0 0 .6-4 .1-4.6l-3.4 4.6s3.5 2.3 3.9 5.8c0 0-3.6-5.7-4.4-5.1-.2.1-1.7 2.5-1.7 2.5s6 4.1 6.4 9.4c0 0-3.4-7.4-7-8.5l-2.1 3.7s6.6 4 7.3 10c0 0-3.8-7.6-7.7-9.1l-1.5 3.9s6.3 4 6.9 9c0 0-5.3-8.4-7.2-8.1 0 0-1.2 3.7-1 4.8 0 0 4.5 3 4.6 5.9 0 0-4.1-5.2-4.8-4.9 0 0-.3 5.2 1 8-1.3-2.5-1.9-5.2-1.8-8-1.3 1.1-2.2 2.6-2.6 4.3 0 0-1.2-2.9 2.7-5.5 0 0 .4-4.1.8-4.6 0 0-4.2 2.1-6 4.6 0 0 .7-3.8 6.4-5.7l1.5-4s-5.7 2.4-7.5 4.6c0 0 1.3-3.8 8-5.5l2-3.7s-5.1 1.7-7.6 3.7c0 0 1.9-3.2 8.2-4.7l1.6-2.3s-3.7 1.3-4.7 1.8-1.2.2-1.2.2c1.9-1.6 4.2-2.6 6.6-3-.1 0 3.3-4.4 3.1-4.7zm732.1 236.6s33.7-110.3-5.3-154.5c-29.1-33.1-62.2-29.1-77-25-7.8 2.1-14.2 7.4-17.7 14.7-5.2 11.2-4.2 29.3 32.3 50.4 61.2 35.4 65 84 65 84l2.7 30.4zm1.3.8s-39.4-80.2-50.3-78.4c-5.1.8-7.5 5.9-8.6 11-1.3 6.6-.6 13.4 2.2 19.5 5.6 12.8 20.6 37.2 56.7 47.9zm-1.1 0s39.4-80.2 50.3-78.4c5.2.8 7.5 5.9 8.6 11 1.3 6.6.6 13.4-2.2 19.5-5.7 12.8-20.7 37.2-56.7 47.9zm-67.7 18.8c-1.1-.9-1.9-2.1-2.2-3.4-.4-1.4.3-2.8 1.6-3.5 1.4-.5 3 .5 4.1 1.5s2.5 2.2 4 2c-1.6-1.5-2.3-3.6-1.9-5.8.1-.4.3-.8.5-1.2.8-.9 2.3-.5 3.2.2 3 2.1 3.9 6.3 3.9 10 .2-1.4.2-2.8 0-4.1-.1-1.4.5-2.8 1.5-3.6.7-.4 1.5-.6 2.4-.6 1.4-.2 2.8.2 3.8 1.1 1.2 1.2.9 3.3-.2 4.7-1.1 1.3-2.5 2.4-4 3.2-1.1.7-2.1 1.6-2.8 2.7-.1.2-.2.3-.2.5h-8.6c-1.8-1.1-3.5-2.3-5.1-3.7zm150.2-32.3c-1.1-.9-1.9-2.1-2.2-3.4-.4-1.4.3-2.8 1.6-3.4 1.4-.6 3 .4 4.2 1.5s2.5 2.2 4 2c-1.6-1.5-2.3-3.6-1.9-5.8.1-.4.3-.8.5-1.2.8-.9 2.3-.5 3.2.2 3 2.1 3.9 6.3 3.9 10 .2-1.4.2-2.8 0-4.1-.1-1.4.5-2.8 1.5-3.6.7-.4 1.5-.6 2.4-.6 1.4-.2 2.8.2 3.8 1.1 1.2 1.2.9 3.3-.2 4.7-1.1 1.3-2.5 2.4-4 3.2-1.1.7-2.1 1.6-2.8 2.7-.1.2-.2.3-.2.5h-8.6c-1.9-1.1-3.6-2.4-5.2-3.8zm-50.1 32.3c-1.1-.9-1.9-2.1-2.3-3.4-.4-1.4.3-2.8 1.6-3.5 1.4-.5 3 .5 4.2 1.5s2.5 2.2 4 2c-1.6-1.4-2.3-3.6-1.9-5.8.1-.4.2-.8.5-1.2.8-.9 2.2-.5 3.2.2 3 2.1 3.9 6.3 3.9 10 .2-1.4.2-2.7.1-4.1-.1-1.4.5-2.8 1.5-3.6.7-.4 1.5-.6 2.4-.6 1.4-.2 2.8.2 3.8 1.1 1.2 1.2.9 3.3-.2 4.7-1.1 1.3-2.5 2.4-4 3.2-1.1.7-2.1 1.6-2.8 2.7-.1.2-.2.3-.2.5h-8.6c-1.8-1.1-3.6-2.3-5.2-3.7zm-141.9-65.3s-3.2 4.2 1.5 10.5 8.6 11.7 7 15.7c0 0-7.1-11.8-12.9-12s-2-7.2 4.4-14.2zm-690-90.1s5.5 7.2-2.5 18-14.7 20-12 26.8c0 0 12.1-20.1 22-20.4s3.4-12.3-7.5-24.4zm-29 0s-5.5 7.2 2.5 18 14.6 20 12 26.8c0 0-12.1-20.1-22-20.4s-3.3-12.3 7.5-24.4zm735.9 90.1s3.2 4.2-1.5 10.5-8.6 11.7-7 15.7c0 0 7.1-11.8 12.9-12s2-7.2-4.4-14.2z"/><path d="M791.7 537.3s99.2 31 77 163.9m-19-152.7s-13.7 9.2-9.3 23m-38.7-14.9s8.4-8.5 18.5-3.8m20.7 46.6s14.7-7.4 18.5 1.9m17.8 13.6s-11-.9-11.2 4.4m-45.9 19.6s41.4 60 49.4 62.6m-53.2-53.2h9.7m1.8 21.9l15.1.7m-5.8-18.2l-1.6 7.9m17.7 16.1l-.3 7.2m65.9-45s-41.4 60-49.4 62.6m53.2-53.2H913m-1.9 21.9l-15.1.7m5.9-18.2l1.6 7.9m-17.7 16.1l.3 7.2" stroke="#565987" stroke-miterlimit="10"/><path class="st1" d="M69.4 565.5c.5.7.9 1.4 1.1 2.3 9.6 11.3 14.8 21.8 5.5 22.1-8.6.2-19 15.7-21.4 19.5l.3.9s12.1-20.1 22-20.4 3.4-12.3-7.5-24.4zm-29 0c-.5.7-.9 1.5-1.1 2.3-9.6 11.3-14.8 21.8-5.5 22.1 8.6.2 19 15.7 21.4 19.5l-.3.9s-12.1-20.1-22-20.4-3.3-12.3 7.5-24.4zm719 90.1c-.3.4-.5.8-.7 1.3-5.6 6.6-8.6 12.8-3.2 12.9 5 .2 11.1 9.2 12.5 11.4 0 .2-.1.4-.2.5 0 0-7.1-11.8-12.9-12s-1.9-7.1 4.5-14.1zm16.9 0c.3.4.5.9.7 1.3 5.6 6.6 8.6 12.8 3.2 12.9-5 .2-11.1 9.2-12.5 11.4 0 .2.1.3.2.5 0 0 7.1-11.8 12.9-12s1.9-7.1-4.5-14.1z"/><path d="M79.6 574.6c0 2.5-.3 4.6-.6 4.6s-.6-2-.6-4.6.4-1.3.7-1.3.5-1.2.5 1.3zm3.6 3c-2.2 1.2-4.2 1.9-4.3 1.6s1.5-1.5 3.7-2.8 1.3-.3 1.5 0 1.3 0-.9 1.2zm-53-3c0 2.5.3 4.6.6 4.6s.6-2 .6-4.6-.4-1.3-.7-1.3-.5-1.2-.5 1.3zm-3.5 3c2.2 1.2 4.1 1.9 4.3 1.6s-1.5-1.5-3.7-2.8-1.3-.3-1.5 0-1.3 0 .9 1.2zm726.7 83.3c0 1.5.2 2.7.4 2.7s.4-1.2.4-2.7-.2-.8-.4-.8-.4-.7-.4.8zm-2.1 1.8c1.3.7 2.4 1.1 2.5 1s-.9-.9-2.2-1.6-.8-.2-.9 0-.7-.1.6.6zm31-1.8c0 1.5-.2 2.7-.4 2.7s-.4-1.2-.4-2.7.2-.8.4-.8.4-.7.4.8zm2.1 1.8c-1.3.7-2.4 1.1-2.5 1s.9-.9 2.2-1.6.8-.2.9 0 .7-.1-.6.6z" fill="#ffd037"/><path d="M31.9 609.3s15.4-.5 20-3.8 23.6-7.2 24.8-1.9 23.1 26.3 5.7 26.4-40.3-2.7-44.9-5.5-5.6-15.2-5.6-15.2zm749.4 71.9s-9-.3-11.7-2.2-13.8-4.2-14.5-1.1-13.5 15.4-3.4 15.5 23.6-1.6 26.3-3.2 3.3-9 3.3-9z" fill="#a8a8a8"/><path class="st11" d="M82.8 628.2c-17.3.1-40.3-2.7-44.9-5.5-3.5-2.1-4.9-9.8-5.4-13.4H32s1 12.4 5.6 15.2 27.6 5.7 44.9 5.5c5 0 6.7-1.8 6.6-4.5-.7 1.7-2.6 2.7-6.3 2.7zm668.7 64.1c10.2.1 23.6-1.6 26.3-3.2 2-1.3 2.9-5.8 3.2-7.8h.3s-.6 7.3-3.3 8.9-16.1 3.3-26.3 3.2c-2.9 0-4-1.1-3.9-2.6.5.9 1.6 1.5 3.7 1.5z"/><path class="st0" d="M204.6 611.6c31.5 0 57 4.6 57 10.3s-25.5 10.3-57 10.3-57-4.6-57-10.3 25.5-10.3 57-10.3zm395.9-157c51.9 0 94 7.2 94 16.1s-42.1 16.1-94 16.1-94-7.2-94-16.1 42.1-16.1 94-16.1zM129.2 498c11.7 0 21.2 1 21.2 2.1s-9.5 2.1-21.2 2.1-21.2-1-21.2-2.1 9.5-2.1 21.2-2.1zm831.9 191.4c13.3 0 24 1.5 24 3.3s-10.7 3.3-24 3.3-24-1.5-24-3.3 10.8-3.3 24-3.3zm-91.9 9.3c13.3 0 24 1.5 24 3.3s-10.7 3.3-24 3.3-24-1.5-24-3.3 10.7-3.3 24-3.3zm36.8 27.5c9.4 0 17.1 1 17.1 2.3s-7.6 2.3-17.1 2.3-17.1-1-17.1-2.3 7.7-2.3 17.1-2.3zm-95.4-2.4c9.4 0 17.1 1 17.1 2.3s-7.6 2.3-17.1 2.3-17.1-1-17.1-2.3 7.7-2.3 17.1-2.3zM167.3 701c19.2 0 34.7 2.3 34.7 5.1s-15.5 5.1-34.7 5.1-34.7-2.3-34.7-5.1 15.5-5.1 34.7-5.1zm84.1 46c19.2 0 34.7 2.3 34.7 5.1s-15.5 5.1-34.7 5.1-34.7-2.3-34.7-5.1 15.5-5.1 34.7-5.1zm370.9-117.4c12.7 0 23 1.2 23 2.6s-10.3 2.6-23 2.6-23-1.2-23-2.6 10.3-2.6 23-2.6zm-107.5 73.9c12.7 0 23 1.2 23 2.6s-10.3 2.6-23 2.6-23-1.2-23-2.6 10.3-2.6 23-2.6zm-48.5 46.1c12.7 0 23 1.2 23 2.6s-10.3 2.6-23 2.6-23-1.2-23-2.6 10.3-2.6 23-2.6z"/></svg>