<svg class="icon" viewBox="0 0 1024 1024" xmlns="http://www.w3.org/2000/svg" width="200" height="200"><defs><style/></defs><path d="M853.333 213.333h-389.12l-37.546-128h-256c-46.934 0-85.334 38.4-85.334 85.334v554.666c0 46.934 38.4 85.334 85.334 85.334h298.666l42.667 128h341.333c46.934 0 85.334-38.4 85.334-85.334V298.667c0-46.934-38.4-85.334-85.334-85.334zm-547.626 408.96C209.493 622.293 131.413 544 131.413 448s78.294-174.293 174.294-174.293c44.373 0 84.693 15.786 116.693 45.44l2.773 2.773-52.053 50.347-2.56-2.347c-12.16-11.52-33.28-24.96-64.853-24.96-55.894 0-101.334 46.293-101.334 103.253s45.44 103.254 101.334 103.254c58.453 0 83.84-37.334 90.666-62.294H302.08V423.04h168.533l.64 2.987c1.707 8.96 2.347 16.853 2.347 25.813-.213 100.48-69.12 170.453-167.893 170.453zM563.2 549.76c14.293 25.6 31.573 50.133 50.773 72.533l-22.826 22.614L563.2 549.76zm32.853-32.853h-42.24L540.8 472.533h170.453s-14.506 56.107-66.56 116.694a339.67 339.67 0 0 1-48.64-72.32zM896 853.333C896 876.8 876.8 896 853.333 896H554.667L640 810.667l-34.773-117.974 39.253-39.253L759.04 768l31.147-31.147-115.414-114.56c38.4-44.16 68.267-96 81.707-149.546h54.187v-44.374H655.573V384H611.2v44.373h-83.627L476.8 256h376.533C876.8 256 896 275.2 896 298.667v554.666z"/></svg>