<svg class="icon" viewBox="0 0 1024 1024" xmlns="http://www.w3.org/2000/svg" width="200" height="200"><defs><style/></defs><path d="M832.625 685.25h-121.5v-103.5c0-13.5-9-22.5-22.5-22.5s-22.5 9-22.5 22.5v126c0 13.5 9 22.5 22.5 22.5h144c13.5 0 22.5-9 22.5-22.5s-11.25-22.5-22.5-22.5zm-150.75-216c-135 0-245.25 110.25-245.25 245.25s110.25 245.25 245.25 245.25 245.25-110.25 245.25-245.25-110.25-243-245.25-245.25zm0 445.5c-110.25 0-200.25-90-200.25-200.25s90-200.25 200.25-200.25 200.25 90 200.25 200.25c-2.25 112.5-90 200.25-200.25 200.25zm22.5-546.75c0-13.5-9-22.5-22.5-22.5h-416.25c-13.5 0-22.5 9-22.5 22.5s9 22.5 22.5 22.5h416.25c11.25 0 22.5-9 22.5-22.5zm-270 182.25c0-13.5-9-22.5-22.5-22.5h-146.25c-13.5 0-22.5 9-22.5 22.5s9 22.5 22.5 22.5h146.25c13.5 0 22.5-11.25 22.5-22.5zm-168.75 135c-13.5 0-22.5 9-22.5 22.5s9 22.5 22.5 22.5h112.5c13.5 0 22.5-9 22.5-22.5s-9-22.5-22.5-22.5h-112.5zM486.125 917h-344.25V107h153v33.75c0 29.25 22.5 56.25 51.75 56.25 11.25 0 301.5 2.25 328.5 0 29.25 0 51.75-24.75 49.5-54v-33.75h153V494c0 13.5 9 22.5 22.5 22.5s22.5-9 22.5-22.5V86.75c0-13.5-9-22.5-22.5-22.5h-198c-13.5 0-22.5 9-22.5 22.5V143c0 6.75-4.5 11.25-9 11.25h-321.75c-6.75 0-11.25-4.5-11.25-11.25V84.5c0-13.5-9-22.5-22.5-22.5h-195.75c-13.5 0-22.5 9-22.5 22.5v855c0 13.5 9 22.5 22.5 22.5h366.75c13.5 0 22.5-9 22.5-22.5s-11.25-22.5-22.5-22.5zm-76.5-810h202.5c13.5 0 22.5-9 22.5-22.5s-9-22.5-22.5-22.5h-202.5c-13.5 0-22.5 9-22.5 22.5s11.25 22.5 22.5 22.5z"/></svg>