<svg xmlns="http://www.w3.org/2000/svg" viewBox="0 0 200 200"><path d="M56.8 53.7c-2.4 0-4.5 2.1-4.5 4.6v111c0 2.6 2 4.6 4.5 4.6h105.9c2.4 0 4.5-2.1 4.5-4.6v-111c0-2.6-2-4.6-4.5-4.6H56.8zm0-9.2h105.9c7.3 0 13.3 6.2 13.3 13.9v111c0 7.7-6 13.9-13.2 13.9h-106c-7.3 0-13.3-6.2-13.3-13.9v-111c.2-7.7 6.1-13.9 13.3-13.9zM41.5 146.3c2.6.1 4.5 2.2 4.5 4.8-.1 2.4-2 4.4-4.5 4.5h-3.7c-7.7 0-13.8-6.2-13.8-13.9v-111c0-7.7 6.2-13.9 13.7-13.9h110.1c7.7 0 13.8 6.2 13.8 13.9v4c0 2.6-2 4.6-4.6 4.6-2.6 0-4.6-2.1-4.6-4.6v-4c0-2.6-2-4.6-4.6-4.6H37.7c-2.6 0-4.6 2.1-4.6 4.6v111c0 2.6 2 4.6 4.6 4.6h3.8zM83 86.1c-2.8 0-4.9-2.1-4.9-4.6 0-2.6 2.2-4.6 4.9-4.6h39.3c2.8 0 4.9 2.1 4.9 4.6 0 2.6-2.2 4.6-4.9 4.6H83zm-.8 32.4c-2.3 0-4.1-2.1-4.1-4.6s1.9-4.6 4.1-4.6h58.2c2.3 0 4.1 2.1 4.1 4.6s-1.9 4.6-4.1 4.6H82.2zm0 32.4c-2.3.1-4.3-1.9-4.4-4.5s1.7-4.7 4-4.8h58.6c2.3 0 4.1 2.1 4.1 4.6 0 2.6-1.9 4.6-4.1 4.6l-58.2.1z"/></svg>