<svg class="icon" viewBox="0 0 1024 1024" xmlns="http://www.w3.org/2000/svg" width="128" height="128"><defs><style/></defs><path d="M128 224a32 32 0 0 1 32-32h704a32 32 0 1 1 0 64H160c-17.664 0-32-14.208-32-32zm288 288c0-17.664 14.368-32 32.224-32h415.552C881.568 480 896 494.208 896 512c0 17.664-14.368 32-32.224 32H448.224A32.032 32.032 0 0 1 416 512zM128 800a32 32 0 0 1 32-32h704a32 32 0 1 1 0 64H160c-17.664 0-32-14.208-32-32zm214.624-425.376L205.248 512l137.376 137.376a32 32 0 0 1-45.248 45.248l-160-160a32 32 0 0 1 0-45.248l160-160a32 32 0 0 1 45.248 45.248z"/></svg>