<svg class="icon" viewBox="0 0 1024 1024" xmlns="http://www.w3.org/2000/svg" width="128" height="128"><defs><style/></defs><path d="M780.32 306.74c77.16 68.7 125.43 166.71 125.43 275.49 0 75.69-23.37 146.16-63.6 205.2l.6.33a26.67 26.67 0 0 0 .15 26.82c7.65 12.75 24.63 16.59 37.95 8.58a29.19 29.19 0 0 0 7.8-6.84l.69.42A414.81 414.81 0 0 0 962 582.23c0-124.32-55.14-236.31-143.34-314.85l-38.34 39.36zm-152.67-84.45A410.4 410.4 0 0 0 512 205.79c-217.47 0-393.75 168.54-393.75 376.44a362.01 362.01 0 0 0 59.58 199.2 25.89 25.89 0 0 1 3.12 4.2c7.65 12.72 3.06 29.52-10.26 37.5-13.32 8.04-30.3 4.2-37.95-8.55a25.98 25.98 0 0 1-1.59-3.06A413.76 413.76 0 0 1 62 582.23C62 344.63 263.48 152 512 152c45.99 0 90.39 6.6 132.18 18.87l-16.5 51.42zM457.7 672.41c-57.66-33.3-34.71-72.9 6.09-125.61C504.62 494.09 797 106.22 797 106.22S610.01 517.1 566.18 599.6c-43.86 82.5-50.13 106.47-108.51 72.78z"/></svg>