<svg class="icon" width="200" height="147.87" viewBox="0 0 1385 1024" xmlns="http://www.w3.org/2000/svg"><path d="M1132.926 891.498H251.345c-92.787 0-168.012-75.225-168.012-168.011v-421.06c0-92.804 75.225-168.029 168.012-168.029h881.581c92.787 0 168.011 75.225 168.011 168.012v421.059c0 92.804-75.224 168.03-168.01 168.03zm71.724-172.807V307.206c0-42.254-34.266-76.52-76.52-76.52H254.098c-42.253 0-76.52 34.266-76.52 76.52V718.69c0 42.253 34.267 76.52 76.52 76.52h874.032c42.254 0 76.52-34.267 76.52-76.52z"/><path d="M371.413 522.176h1.35l43.949-126.834h76.848v235.23h-49.001V456.417h-1.35l-52.356 145.963H348.58l-51.682-145.963h-2.006v174.157h-46.958v-235.23h78.854l44.624 126.833zm286.894-126.834l71.468 235.23h-53.688l-14.771-54.015h-78.854l-15.1 54.016h-51.681l71.14-235.23h71.486zm-64.083 138.925h55.366l-9.063-32.88c-9.064-32.552-13.75-49.658-17.78-70.466h-1.35c-4.03 20.133-9.064 39.263-17.453 69.134l-9.72 34.212zM827.76 395.342c52.01 0 81.535 19.805 81.535 69.116 0 40.94-22.14 60.07-49.658 65.432v1.35c12.42 6.036 20.133 14.77 31.203 34.557l35.907 64.757h-61.074l-38.916-76.501c-4.358-8.389-10.741-11.07-21.482-11.07h-3.356v87.59H751.24v-235.23h76.52zM801.92 502.39h19.457c27.19 0 35.908-11.744 35.908-33.554 0-21.483-12.747-31.203-35.233-31.203h-20.133v64.757zm195.967 128.184H946.55v-235.23h51.335v235.23zm71.122-235.23h59.049l-73.146 114.432 80.532 120.798h-64.101l-72.143-118.445v-1.35l69.809-115.436z"/></svg>