<svg class="icon" viewBox="0 0 1024 1024" xmlns="http://www.w3.org/2000/svg" width="200" height="200"><defs><style/></defs><path d="M774.5 962h-525C144.5 962 62 879.5 62 774.5v-525C62 144.5 144.5 62 249.5 62h525c105 0 187.5 82.5 187.5 187.5v525c0 105-82.5 187.5-187.5 187.5zm-525-825C185.75 137 137 185.75 137 249.5v525c0 63.75 48.75 112.5 112.5 112.5h525c63.75 0 112.5-48.75 112.5-112.5v-525c0-63.75-48.75-112.5-112.5-112.5h-525z"/><path d="M448 533.333c-12.8 0-21.333-4.266-29.867-12.8l-128-128c-17.066-17.066-17.066-42.666 0-59.733s42.667-17.067 59.734 0l128 128c17.066 17.067 17.066 42.667 0 59.733-8.534 8.534-17.067 12.8-29.867 12.8z"/><path d="M320 661.333c-12.8 0-21.333-4.266-29.867-12.8-17.066-17.066-17.066-42.666 0-59.733l128-128c17.067-17.067 42.667-17.067 59.734 0s17.066 42.667 0 59.733l-128 128c-8.534 8.534-17.067 12.8-29.867 12.8zm384 0H533.333c-25.6 0-42.666-17.066-42.666-42.666S507.733 576 533.333 576H704c25.6 0 42.667 17.067 42.667 42.667S729.6 661.333 704 661.333z"/></svg>