<svg class="icon" viewBox="0 0 1024 1024" xmlns="http://www.w3.org/2000/svg" width="200" height="200"><defs><style/></defs><path d="M512 960C265.6 960 64 758.4 64 512S265.6 64 512 64s448 201.6 448 448-201.6 448-448 448zm0-832c-211.2 0-384 172.8-384 384s172.8 384 384 384 384-172.8 384-384-172.8-384-384-384z"/><path d="M512 608c-17.6 0-32-14.4-32-32 0-43.2 41.6-80 72-105.6 6.4-4.8 12.8-9.6 16-14.4 14.4-14.4 24-35.2 24-56 0-44.8-35.2-80-80-80s-80 35.2-80 80c0 17.6-14.4 32-32 32s-32-14.4-32-32c0-80 64-144 144-144s144 64 144 144c0 38.4-14.4 75.2-41.6 102.4-4.8 4.8-12.8 11.2-20.8 17.6-14.4 12.8-49.6 41.6-49.6 56 0 17.6-14.4 32-32 32zm0 160c-17.6 0-32-14.4-32-32v-32c0-17.6 14.4-32 32-32s32 14.4 32 32v32c0 17.6-14.4 32-32 32z"/></svg>