<?xml version="1.0" standalone="no"?><!DOCTYPE svg PUBLIC "-//W3C//DTD SVG 1.1//EN" "http://www.w3.org/Graphics/SVG/1.1/DTD/svg11.dtd"><svg t="1563265052086" class="icon" viewBox="0 0 1024 1024" version="1.1" xmlns="http://www.w3.org/2000/svg" p-id="2935" xmlns:xlink="http://www.w3.org/1999/xlink" width="200" height="200"><defs><style type="text/css"></style></defs><path d="M262.54056377 962c-52.48148467 0-102.53681807-21.15859395-140.95939395-59.58116982S62 813.92815215 62 761.45943623s21.15859395-102.54958682 59.58116982-140.97216269 88.47790928-59.58116982 140.95939395-59.58116982a194.4241084 194.4241084 0 0 1 72.19715625 14.04613915l5.74614844 2.28569062 54.38409785-91.69575292-4.35430284-3.97122627c-3.43491943-3.14122763-6.99753164-6.38460878-10.27922079-9.6790667-43.41533994-43.41533994-69.2857749-107.04435205-69.28577491-170.27751797s25.89597334-126.90048516 69.28577491-170.27751797S487.2660251 62.05107675 550.51196065 62.05107675s126.90048516 25.89597334 170.27751708 69.28577491 69.2857749 107.03158242 69.28577579 170.27751797c0 59.72163135-22.47382354 118.75372471-61.66255254 162.16906465l-3.83076475 4.2138413 80.10130166 118.1918795h3.83076563c86.33268106 0.49799971 153.89461143 68.48131464 153.79245791 154.77568682a154.77568769 154.77568769 0 0 1-309.55137539 0c0-61.86685957 34.34919521-115.85511211 89.62713896-140.92108594l7.82753028-3.54984258-65.32731739-96.33097793-5.89937871 3.67753447a243.52175039 243.52175039 0 0 1-128.47109853 37.32442295 248.28466816 248.28466816 0 0 1-107.08265919-24.72120527l-5.97599384-2.88584297-53.2476378 89.81867725 4.80122578 3.93291914c4.7756874 3.94568789 9.65352832 8.38937637 14.49306211 13.22890927 38.42257588 38.40980713 59.58116982 88.47790928 59.58116895 140.95939395s-21.12028594 102.4474333-59.47901543 140.85724043c-41.76811143 38.44811426-91.86175195 59.64501533-141.06154746 59.64501533z m0-350.2851794c-38.89503721 0-76.19392178 15.87213721-105.02681572 44.69226241s-44.69226152 66.13177852-44.69226153 105.02681485 15.88490684 76.18115303 44.69226153 105.01404609 66.13177852 44.69226152 105.02681572 44.6922624c17.54490498 0 35.67719443-3.83076562 53.89886777-11.59445039a185.6644251 185.6644251 0 0 0 51.80471631-33.81288838l0.14046064-0.1276919 0.14046153-0.1276919c28.21997109-28.65412442 43.76010937-65.60824043 43.76010938-104.06912431 0-38.89503721-15.88490684-76.19392178-44.69226241-105.02681484s-66.1573169-44.66672315-105.05235322-44.66672403z m545.09236347 25.23197461c-28.34766299 0-54.61394414 10.64952773-73.97207753 30.00766114s-30.00766113 45.6116458-30.00766201 73.97207842a103.97973955 103.97973955 0 0 0 207.9594791 0c0-28.38597099-10.66229648-54.65225127-30.00766113-74.06146319s-45.6116458-29.91827724-73.97207843-29.91827637zM550.51196065 112.89810166c-49.97871826 0-100.16174355 20.34136406-134.24278536 54.42240586s-54.42240586 84.27683672-54.42240586 134.24278535 20.34136406 100.16174355 54.42240586 134.23001572 84.27683672 54.42240586 134.24278536 54.42240586a188.76734473 188.76734473 0 0 0 71.68638779-14.32706221 210.6920918 210.6920918 0 0 0 63.18208916-40.72103524l0.21707665-0.21707667c33.55750372-33.96611865 53.63071435-83.84268339 53.63071437-133.38724746 0-49.97871826-20.34136406-100.16174355-54.42240586-134.24278535s-84.31514473-54.42240586-134.29386211-54.42240586z" fill="" p-id="2936"></path></svg>