<svg class="icon" viewBox="0 0 1024 1024" xmlns="http://www.w3.org/2000/svg" width="200" height="200"><defs><style/></defs><path d="M262.54 962c-52.48 0-102.536-21.159-140.959-59.581S62 813.929 62 761.459s21.159-102.55 59.581-140.972 88.478-59.58 140.96-59.58a194.424 194.424 0 0 1 72.197 14.045l5.746 2.286 54.384-91.696-4.354-3.971c-3.435-3.141-6.998-6.385-10.28-9.68-43.415-43.414-69.285-107.043-69.285-170.277s25.896-126.9 69.285-170.277S487.266 62.05 550.512 62.05s126.9 25.896 170.277 69.286 69.286 107.031 69.286 170.277c0 59.722-22.474 118.754-61.662 162.17l-3.831 4.213 80.101 118.192h3.831c86.333.498 153.895 68.481 153.792 154.776a154.776 154.776 0 0 1-309.55 0c0-61.867 34.348-115.855 89.626-140.921l7.828-3.55-65.328-96.331-5.899 3.677a243.522 243.522 0 0 1-128.471 37.325 248.285 248.285 0 0 1-107.083-24.721l-5.976-2.886-53.247 89.819 4.8 3.932c4.777 3.946 9.654 8.39 14.494 13.23 38.423 38.41 59.581 88.477 59.581 140.959s-21.12 102.447-59.479 140.857C361.834 940.803 311.74 962 262.541 962zm0-350.285c-38.894 0-76.193 15.872-105.026 44.692S112.82 722.54 112.82 761.434s15.885 76.181 44.693 105.014 66.132 44.692 105.027 44.692c17.544 0 35.677-3.83 53.898-11.594a185.664 185.664 0 0 0 51.805-33.813l.14-.128.141-.128c28.22-28.654 43.76-65.608 43.76-104.069 0-38.895-15.885-76.194-44.692-105.026s-66.157-44.667-105.052-44.667zm545.093 25.232c-28.348 0-54.614 10.65-73.972 30.007s-30.008 45.612-30.008 73.973a103.98 103.98 0 0 0 207.96 0c0-28.386-10.663-54.653-30.008-74.062s-45.612-29.918-73.972-29.918zM550.512 112.898c-49.979 0-100.162 20.341-134.243 54.423s-54.422 84.276-54.422 134.242 20.341 100.162 54.422 134.23 84.277 54.423 134.243 54.423a188.767 188.767 0 0 0 71.686-14.327 210.692 210.692 0 0 0 63.182-40.721l.218-.217c33.557-33.967 53.63-83.843 53.63-133.388 0-49.978-20.341-100.161-54.422-134.242s-84.315-54.423-134.294-54.423z"/></svg>