<svg class="icon" viewBox="0 0 1024 1024" xmlns="http://www.w3.org/2000/svg" width="16" height="16"><defs><style/></defs><path d="M823.321 689.057c-.992-1.275-98.222-136.916-98.222-236.84 0-138.758-62.789-209.91-134.082-236.414V203.19c0-43.655-35.575-79.088-79.088-79.088s-79.088 35.575-79.088 79.088v13.748c-8.93 6.52-13.323 18-9.78 29.056 4.394 13.89 19.276 21.402 33.166 17.008 14.599-4.677 30.473-6.945 46.915-6.945h17.575c94.962 0 151.656 73.419 151.656 196.303 0 89.01 60.096 193.894 90.853 241.8-47.34 21.544-150.807 62.79-251.155 62.79-100.065 0-203.815-41.529-251.155-63.073 30.757-47.765 90.71-152.365 90.71-241.517 0-51.45 9.497-94.112 28.49-126.853 7.228-12.614 2.976-28.772-9.639-36-12.756-7.37-28.772-2.977-36 9.638-23.528 40.82-35.576 92.411-35.576 153.215 0 99.924-97.23 234.997-98.222 236.415-4.394 6.236-6.095 13.89-4.394 21.402 1.7 7.37 6.52 13.748 13.181 17.292 4.677 2.55 88.443 47.197 192.335 69.592 17.575 54.71 60.946 91.702 110.128 91.702s92.553-36.993 110.128-91.702c103.892-22.395 187.658-66.758 192.335-69.167 6.662-3.685 11.48-9.922 13.323-17.292 1.701-7.512.142-15.307-4.394-21.544zM503.141 203.19c-5.952 0-11.763.85-17.575 1.275v-1.275c0-14.457 11.906-26.363 26.363-26.363 14.457 0 26.363 11.906 26.363 26.363v.708c-5.953-.425-11.764-.708-17.575-.708h-17.575zm8.788 632.848c-18.425 0-35.575-11.056-47.765-29.056 15.875 1.7 31.749 2.693 47.765 2.693s32.032-1.134 47.765-2.693c-12.19 18-29.34 29.056-47.765 29.056z"/></svg>