<svg class="icon" viewBox="0 0 1024 1024" xmlns="http://www.w3.org/2000/svg" width="128" height="128"><defs><style/></defs><path d="M511.322 289.483c41.627 0 75.382-33.006 75.382-73.703 0-40.71-33.755-73.708-75.382-73.708-41.634 0-75.382 32.997-75.382 73.708 0 40.697 33.748 73.703 75.382 73.703zm0 147.417c-41.634 0-75.382 33-75.382 73.703 0 40.704 33.748 73.709 75.382 73.709 41.627 0 75.382-33.005 75.382-73.71 0-40.704-33.755-73.702-75.382-73.702zm0 294.824c-41.634 0-75.382 32.966-75.382 73.708 0 40.704 33.748 73.703 75.382 73.703 41.627 0 75.382-32.999 75.382-73.703 0-40.742-33.755-73.708-75.382-73.708zm0 0"/></svg>