<svg class="icon" viewBox="0 0 1024 1024" xmlns="http://www.w3.org/2000/svg" width="200" height="200"><defs><style/></defs><path d="M512 960C264.576 960 64 759.424 64 512S264.576 64 512 64s448 200.576 448 448-200.576 448-448 448zm0-64c212.064 0 384-171.936 384-384S724.064 128 512 128 128 299.936 128 512s171.936 384 384 384zm-32-223.68a32 32 0 1 1 64 0v63.36a32 32 0 1 1-64 0v-63.36zm0-384.48c0-17.6 14.208-31.84 32-31.84 17.664 0 32 14.592 32 31.84v256.32c0 17.6-14.208 31.84-32 31.84-17.664 0-32-14.592-32-31.84V287.84z"/></svg>