<?xml version="1.0" encoding="utf-8"?>
<!-- Generator: Adobe Illustrator 22.1.0, SVG Export Plug-In . SVG Version: 6.00 Build 0)  -->
<svg version="1.2" baseProfile="tiny" id="图层_1"
	 xmlns="http://www.w3.org/2000/svg" xmlns:xlink="http://www.w3.org/1999/xlink" x="0px" y="0px" viewBox="0 0 250 250"
	 xml:space="preserve">
<g>
	<g>
		<path fill="#175F34" d="M73,125.6c8.3-20.3,16.7-40.7,25-61c3.7-9,7.3-18,10.9-26.9c3.1-7.6,8.8-12,15.9-12.1
			c8.4-0.1,14.2,3.6,17.5,11.9c11.6,28.6,23.2,57.3,34.7,85.9c0.3,0.8,0.7,1.5,1.1,2.2c-9.9,7.4-21.2,10.8-33.1,12.9
			c-6.3-15.9-12.7-31.8-19.3-48.4c-6.8,16.8-13.2,32.6-19.6,48.4c-4.4,11.1-8.7,22.1-13.1,33.2c-4.1,13.2-12.9,23.1-22.2,32.9
			c-6.3,6.6-12.1,13.6-18.9,21.3c0-2.6-0.1-4.1,0-5.7c0.7-15.3,0.9-30.6,2.2-45.9c0.5-5.3,3.7-10.4,5.6-15.7
			C64.2,147.6,68.6,136.6,73,125.6z"/>
		<path fill="#7DC936" d="M93.1,171.5c4.4-11.1,8.7-22.1,13.1-33.2c12.9,2.6,25.9,2.7,38.8,0c11.9-2.1,23.3-5.6,33.1-12.9
			c6.6-4.9,13.5-9.5,19.7-14.8c12-10.4,27.4-5.9,30.6,9.6c1.4,6.6-1.4,12.3-6.5,16.3c-10.1,7.9-20.7,15.3-31,22.9
			c-10.7,4.1-21.4,8.2-32.1,12.3c-14.1,3.6-28.5,4.6-42.9,3.6C108.3,174.8,100.7,172.9,93.1,171.5z"/>
		<path fill="#7DC937" d="M73,125.6c-4.4,11-8.8,22-13.1,33c-13-6.3-24.2-14.9-33.7-25.7c-5.7-6.5-4.2-17.2,2.4-23.4
			c6.8-6.4,16.8-6.2,24.2,0.2c4.6,4,9.3,8,14,11.8C68.6,123.2,70.9,124.3,73,125.6z"/>
		<path fill="#186036" d="M158.9,171.7c10.7-4.1,21.4-8.2,32.1-12.3c4.6,8.1,6.8,16.7,6.7,26.1c-0.1,12.8,0,25.5,0,37.9
			c-2.3-2.5-5.3-5.8-8.4-9.2c-7.4-8.3-15.3-16.3-22-25.2C163.5,184,161.6,177.5,158.9,171.7z"/>
	</g>
</g>
</svg>
