<?xml version="1.0" encoding="utf-8"?>
<!-- Generator: Adobe Illustrator 22.1.0, SVG Export Plug-In . SVG Version: 6.00 Build 0)  -->
<svg version="1.2" baseProfile="tiny" id="图层_1"
	 xmlns="http://www.w3.org/2000/svg" xmlns:xlink="http://www.w3.org/1999/xlink" x="0px" y="0px" viewBox="0 0 612 792"
	 xml:space="preserve">
<g>
	<g>
		<path fill="#175F34" d="M254,347.1c8.3-20.3,16.7-40.7,25-61c3.7-9,7.3-18,10.9-26.9c3.1-7.6,8.8-12,15.9-12.1
			c8.4-0.1,14.2,3.6,17.5,11.9c11.6,28.6,23.2,57.3,34.7,85.9c0.3,0.8,0.7,1.5,1.1,2.2c-9.9,7.4-21.2,10.8-33.1,12.9
			c-6.3-15.9-12.7-31.8-19.3-48.4c-6.8,16.8-13.2,32.6-19.6,48.4c-4.4,11.1-8.7,22.1-13.1,33.2c-4.1,13.2-12.9,23.1-22.2,32.9
			c-6.3,6.6-12.1,13.6-18.9,21.3c0-2.6-0.1-4.1,0-5.7c0.7-15.3,0.9-30.6,2.2-45.9c0.5-5.3,3.7-10.4,5.6-15.7
			C245.2,369.1,249.6,358.1,254,347.1z"/>
		<path fill="#7DC936" d="M274.1,393c4.4-11.1,8.7-22.1,13.1-33.2c12.9,2.6,25.9,2.7,38.8,0c11.9-2.1,23.3-5.6,33.1-12.9
			c6.6-4.9,13.5-9.5,19.7-14.8c12-10.4,27.4-5.9,30.6,9.6c1.4,6.6-1.4,12.3-6.5,16.3c-10.1,7.9-20.7,15.3-31,22.9
			c-10.7,4.1-21.4,8.2-32.1,12.3c-14.1,3.6-28.5,4.6-42.9,3.6C289.3,396.3,281.7,394.4,274.1,393z"/>
		<path fill="#7DC937" d="M254,347.1c-4.4,11-8.8,22-13.1,33c-13-6.3-24.2-14.9-33.7-25.7c-5.7-6.5-4.2-17.2,2.4-23.4
			c6.8-6.4,16.8-6.2,24.2,0.2c4.6,4,9.3,8,14,11.8C249.6,344.7,251.9,345.8,254,347.1z"/>
		<path fill="#186036" d="M339.9,393.2c10.7-4.1,21.4-8.2,32.1-12.3c4.6,8.1,6.8,16.7,6.7,26.1c-0.1,12.8,0,25.5,0,37.9
			c-2.3-2.5-5.3-5.8-8.4-9.2c-7.4-8.3-15.3-16.3-22-25.2C344.5,405.5,342.6,399,339.9,393.2z"/>
		<path fill="#238039" d="M305.2,505.3c-2.9-0.3-5.3-0.5-8.2-0.7c-1-3.1-2.1-6.7-3.3-10.5c-0.6,0.7-1,1.5-1.3,1.5
			c-6.1-0.3-9.1,2.7-10.5,8.5c-0.3,1.2-3.3,1.7-5.1,2.6c-0.4-0.3-0.8-0.6-1.2-1c2.8-10.3,5.7-20.5,8.6-31.1c1.3,1.6,2.3,2.9,3.4,4.2
			c0.4-0.1,0.8-0.2,1.2-0.3c-1.9-4.7-1.9-8.8,3.5-12.1C296.6,479.4,300.9,492.4,305.2,505.3z M293,489.8c-1.2-3.2-2.1-5.7-3.4-9
			c-1.2,3.7-2,6.4-3,9.6C289,490.1,290.7,490,293,489.8z"/>
		<path fill="#238039" d="M344.6,505.5c2.8-10.2,5.7-20.3,8.6-30.9c1.3,1.7,2.3,3,3.3,4.2c0.5-0.1,1-0.1,1.5-0.2
			c-1.8-4.7-2.7-9.1,3.4-11.8c4.2,12.7,8.6,25.7,12.8,38.3c-9.1,1.8-10-4.6-11.2-11.3c-0.7,0.8-1,1.3-1.2,1.4
			c-5.9,0.5-9.7,3.1-11.1,9.2c-0.2,1-3.2,1.5-4.9,2.2C345.4,506.2,345,505.8,344.6,505.5z M361.9,489.9c-1-3.1-1.9-5.6-3.2-9.2
			c-1.2,3.8-2.1,6.5-3.2,9.7C357.8,490.2,359.4,490,361.9,489.9z"/>
		<path fill="#24813A" d="M242.4,472.7c8.1-2.1,8.8,3,9.8,8.1c0.7,3.9,1.9,7.7,2.9,11.5c0.5,0.1,1,0.2,1.5,0.2
			c1.8-6.1,3.6-12.1,5.3-18.2c1.3-4.8,1.3-4.8,7.3-5.4c-0.6,12.7-5.4,24.1-9.5,36.2c-0.7-1.4-1.1-2.4-2.3-4.8
			c-1.5,2.2-2.5,3.7-4.3,6.4C249.2,494.7,245.8,483.6,242.4,472.7z"/>
		<path fill="#24813A" d="M338.2,469.2c-0.8,12.6-5.4,24.1-9.7,36c-0.6-1.3-1-2.3-1.6-3.8c-1.7,1.6-3.1,2.9-5.2,4.8
			c-3.5-11.4-6.9-22.4-10.4-33.8c8.2,1.1,8.1,1.1,9.9,8.7c0.7,3.1,1.5,6.1,2.4,9.1c0.2,0.7,0.6,1.3,1.6,3.5
			c2.1-7.3,3.9-13.3,5.5-19.2C332.2,469.3,332.1,469.3,338.2,469.2z"/>
		<path fill="#29843E" d="M327.6,546.2c-4.4-0.8-10.3,1.3-10.4-5.6c-0.1-5.3,4.4-5.8,8.7-5.8c-0.1-1.6-0.3-3.1-0.4-4.5
			C329.8,529.8,330.4,534,327.6,546.2z M325.8,543.7c0-2.4,0-4.3,0-6.3c-0.4-0.4-0.8-0.7-1.1-1.1c-1.5,1.4-4.2,2.7-4.4,4.2
			C319.9,543.9,322.7,544.2,325.8,543.7z"/>
		<path fill="#318845" d="M155.3,546.2c-1.2-1.7-2.4-3.4-4.2-6c-2.6,1.7-5.2,3.5-8.1,5.5c1.5-5.5,3-10.9,4.4-16.2
			c0.5,0.2,1,0.3,1.4,0.5c2.8,5.1,5.6,10.2,8.5,15.2C156.6,545.6,156,545.9,155.3,546.2z"/>
		<path fill="#2B8540" d="M207.2,534.8c-0.3,4.6-0.2,8.2-0.8,11.8c-0.8,4.9-2.3,5.4-6.8,3.4c1.5-1.1,3.2-2.4,4.9-3.7
			c-0.3-0.5-0.5-0.9-0.8-1.4c-3.8,0.5-7.7,0.4-7.7-4.4C196.2,532.8,202.4,536.1,207.2,534.8z M205.2,540.1c-1.7-1.4-2.8-3-3.5-2.8
			c-1.1,0.3-2.5,1.7-2.5,2.8c-0.1,0.9,1.4,2.6,2.4,2.8C202.4,542.9,203.5,541.4,205.2,540.1z"/>
		<path fill="#2A843F" d="M415.8,547.3c-0.1,0.2-0.5,1.9-0.9,3.5c-0.2,0-0.5-0.1-0.7-0.1c-0.3-5-0.6-9.9-0.9-16.2
			c3.6,1,6.9,1.4,9.5,2.9c1,0.6,1.4,4.6,0.5,5.7C421.8,544.9,419,545.6,415.8,547.3z M418.9,536.7c-0.5,0-1,0-1.5,0.1
			c-0.5,1.3-1.3,2.6-1.3,3.8c0,1.1,1,2.2,1.6,3.3c1.1-1.2,2.7-2.2,3-3.5C421,539.4,419.6,537.9,418.9,536.7z"/>
		<path fill="#28833E" d="M404.3,537c-0.2,3.2-0.5,6-0.7,8.8c-0.4,0-0.8,0-1.3,0.1c-0.3-3-0.7-5.9-1-8.9c-0.6,0-1.1,0-1.7-0.1
			c-0.6,2.8-1.2,5.6-1.8,8.4c-0.3,0-0.5,0-0.8,0c0-3.2,0-6.5,0-10.3c3,0,6.3-0.3,9.3,0.2c1.3,0.2,3,2,3.3,3.3
			c0.5,2.3,0.2,4.9,0.2,7.7C405.5,544.4,411,537.4,404.3,537z"/>
		<path fill="#28833E" d="M335.6,537.2c-0.6,2.8-1.1,5.6-1.7,8.3c-0.3,0-0.5-0.1-0.8-0.1c0-3.3,0-6.7,0-10.4c3.2,0,6.2-0.3,9.2,0.1
			c1.3,0.2,3.2,1.5,3.4,2.6c0.5,2.6,0.2,5.4,0.2,8.6c-4-2.3,1-8.7-5.5-9.5c-0.2,3.2-0.4,6-0.6,8.8c-0.4,0-0.8,0.1-1.2,0.1
			c-0.4-3-0.9-5.9-1.3-8.9C336.7,537,336.1,537.1,335.6,537.2z"/>
		<path fill="#28833E" d="M178.9,546.7c-3.7-3.1,0.8-8.8-5.5-9.9c-0.2,3.2-0.4,6.1-0.6,8.9c-0.4,0-0.8,0.1-1.2,0.1
			c-0.5-3-0.9-5.9-1.4-8.9c-0.5,0-1,0-1.5,0c-0.6,2.9-1.3,5.7-1.9,8.6c-0.3,0-0.5-0.1-0.8-0.1c0-3.3,0-6.7,0-10.4
			c3.2,0,6.3-0.3,9.3,0.1c1.3,0.2,3.2,1.6,3.4,2.7C179.2,540.4,178.9,543.2,178.9,546.7z"/>
		<path fill="#2F8744" d="M240.6,547.1c-2.7-0.5-6.1-0.8-9.1-2c-1-0.4-1.5-3.2-1.4-4.9c0.2-4.3,2.5-5.4,9.4-4.7
			C239.8,539.3,240.2,543,240.6,547.1z M237.6,538.4c-0.5-0.3-1-0.5-1.5-0.8c-1,1.6-2.6,3.1-2.8,4.8c-0.1,0.9,2.2,2.1,4.3,3.9
			C237.6,542.4,237.6,540.4,237.6,538.4z"/>
		<path fill="#2F8744" d="M312.5,535.5c0.3,4,0.6,7.7,1,11.7c-2.6-0.5-5.9-0.7-8.9-1.9c-1-0.4-1.5-3.2-1.5-4.9
			C303.2,536,305.5,534.9,312.5,535.5z M310.6,538.4c-0.5-0.3-1-0.5-1.5-0.8c-1,1.6-2.6,3.1-2.8,4.7c-0.1,0.9,2.1,2.1,4.3,4
			C310.6,542.5,310.6,540.4,310.6,538.4z"/>
		<path fill="#2F8744" d="M190.6,535.3c0.2,4,0.5,7.7,0.7,11.2c-8.4,0-10.3-1-10.3-5.5C181,536.5,183.2,535.1,190.6,535.3z
			 M188.7,538.6c-0.6-0.3-1.2-0.7-1.8-1c-0.9,1.6-2.4,3.2-2.6,4.9c-0.1,0.8,2.3,1.9,4.4,3.6C188.7,542.4,188.7,540.5,188.7,538.6z"
			/>
		<path fill="#2F8744" d="M445.5,535.6c0.3,3.7,0.7,7.5,1,11.1c-9.2-0.8-11-1.9-10.5-6.5C436.5,535.9,438.6,534.8,445.5,535.6z
			 M443.6,538.4c-0.5-0.3-1-0.5-1.5-0.8c-1,1.6-2.6,3.1-2.8,4.7c-0.1,0.9,2.1,2.1,4.3,4C443.6,542.5,443.6,540.4,443.6,538.4z"/>
		<path fill="#338947" d="M468.7,537.4c-1.7,0.2-3.8-0.1-4.8,0.9c-1.1,1-1.7,4.3-1.3,4.6c2,1.2,4.4,1.7,6.7,2.5
			c-1.7,2.3-4.9,2.9-7,0.6c-1.5-1.6-1.9-5.2-1.3-7.4c0.9-3.1,4-4.4,7.2-3.1c1.2,0.5,1.9,2.4,2.8,3.6c-1.7,0.9-3.4,1.7-5,2.6
			c-0.2-0.3-0.3-0.6-0.5-0.9c1.2-0.6,2.3-1.2,3.5-1.8C468.9,538.4,468.8,537.9,468.7,537.4z"/>
		<path fill="#338947" d="M289.5,540.4c1.1-0.5,2.2-0.9,3.3-1.4c-0.1-0.5-0.1-1-0.2-1.5c-1.6,0.1-3.7-0.3-4.7,0.6
			c-1.1,0.9-2,4.2-1.6,4.5c1.9,1.3,4.2,1.9,6.7,2.9c-1.9,2-4.6,2.4-7.4,0.5c-2.7-1.9-2.5-6.9,0.3-9.2c2.6-2.2,5.4-2.6,7.9,0
			c0.6,0.6,0.9,2.8,0.6,3c-1.4,0.9-3.1,1.3-4.7,1.8C289.8,541.1,289.7,540.8,289.5,540.4z"/>
		<path fill="#338947" d="M388.6,540.5c1.1-0.5,2.2-1,3.3-1.4c-0.1-0.5-0.1-1-0.2-1.5c-1.6,0.2-3.8-0.2-4.8,0.7
			c-1.1,1-1.8,4.3-1.4,4.6c2,1.2,4.3,1.8,6.7,2.6c-1.7,2.3-4.9,2.8-7,0.6c-1.5-1.6-1.9-5.2-1.2-7.5c1-3.1,4.1-4.4,7.3-2.9
			c1.2,0.6,1.8,2.4,2.6,3.7c-1.6,0.8-3.2,1.6-4.9,2.3C388.9,541.2,388.8,540.8,388.6,540.5z"/>
		<path fill="#2E8642" d="M249.9,545.5c-2.2,1.2-4.6,0.8-4.9-3.2c-0.3-4.4-0.1-8.9,1-13.9c0.6,1,1.7,2,1.7,3
			c0.1,2.8-0.5,5.7-0.3,8.4C247.7,541.6,248.9,543.2,249.9,545.5z"/>
		<path fill="#2E8642" d="M433,545.5c-2.3,1.2-4.7,0.8-4.9-3.2c-0.3-4.4-0.1-8.9,1.1-13.9c0.6,1,1.6,2,1.7,3.1
			c0.1,2.8-0.5,5.7-0.3,8.4C430.7,541.6,431.9,543.2,433,545.5z"/>
		<path fill="#2E8642" d="M225.9,535.7c-2,1.9-5.4,3.7-5.5,5.7c-0.3,4.3,3.7,3.5,6.7,3.7c-2.3,2.4-5.1,2.7-7.8,0.7
			c-3-2.3-3.2-5.4-0.9-8.3C220.7,534.5,223.7,533.9,225.9,535.7z"/>
		<path fill="#2A843F" d="M356.2,535.3c9.4,0.2,10,0.9,7.3,10.6c-0.2-2-0.2-4.1-0.7-6c-0.2-1-1.3-1.9-2-2.8c-0.7,0.8-1.7,1.4-2,2.3
			c-0.7,2.1-1,4.2-1.5,6.4c-0.4-0.1-0.8-0.1-1.2-0.2C356.2,542.2,356.2,538.7,356.2,535.3z"/>
		<path fill="#398D4D" d="M264.3,546.1c-4.9-7.6-5.2-8.7-2.7-11c0.7,1.5,1.5,2.9,2.2,4.3c0.4-0.1,0.7-0.1,0.9-0.3
			c1.2-1.3,2.3-2.6,3.4-3.9c-0.3,1.7-0.4,3.5-1,5.1C266.4,542.3,265.3,544.1,264.3,546.1z"/>
		<path fill="#24813A" d="M274.4,544.1c6.8-0.6,1.4-6.9,5-9.2c0.5,3.9,1.1,7.6,1.6,11.3c-8.8,0.6-10.6-1.6-7.4-11.1
			C273.8,537.8,274,540.5,274.4,544.1z"/>
		<path fill="#25813A" d="M452.8,531.8c1.3,1.4,2.6,2.9,3.1,3.4c-0.9,3.2-1.7,6.2-2.6,9.4c2.1,0.3,3.2,0.4,5.2,0.7
			c-1.6,0.8-2.7,1.8-3.4,1.6c-1.2-0.4-2.9-1.4-3-2.4c-0.5-4.2-0.6-8.5-0.8-12.8C451.9,531.7,452.4,531.7,452.8,531.8z"/>
		<path fill="#25813A" d="M375.8,531.8c1.3,1.4,2.6,2.9,3.1,3.4c-0.9,3.2-1.7,6.2-2.6,9.4c2.1,0.3,3.2,0.4,5.2,0.7
			c-1.6,0.8-2.7,1.8-3.4,1.6c-1.2-0.4-2.9-1.4-3-2.4c-0.5-4.2-0.6-8.5-0.8-12.8C374.9,531.7,375.4,531.7,375.8,531.8z"/>
	</g>
</g>
</svg>
