<?xml version="1.0" encoding="utf-8"?>
<!-- Generator: Adobe Illustrator 22.1.0, SVG Export Plug-In . SVG Version: 6.00 Build 0)  -->
<svg version="1.2" baseProfile="tiny" id="图层_1"
	 xmlns="http://www.w3.org/2000/svg" xmlns:xlink="http://www.w3.org/1999/xlink" x="0px" y="0px" viewBox="0 0 612 792"
	 xml:space="preserve">
<g>
	<g>
		<path fill="#7DC937" d="M264.6,280.7c28.7-17.2,72.8-13.4,97.3,8.1c1,0.9,1.7,3.2,1.4,4.5c-4.3,16.1-8.8,32.1-13.2,48.1
			c-0.1,0.3-0.1,0.7-0.3,0.9c-11.2,18.8-15,40.8-25,60.1c-1.9,3.7-4.2,7.2-6.6,10.6c-3.1,4.4-6.5,4.1-8.3-0.9
			c-3.5-9.7-6.4-19.6-10-29.2c-8-22-13.6-44.8-23.4-66.2C271.4,305.3,268.6,292.8,264.6,280.7z"/>
		<path fill="#7ECA38" d="M292,446.5c-30.5-3.2-60.1-29.1-70.1-61.3c-10.5-34,1.2-69.4,22.5-89.2c3.1,6.7,4,13.6,4.2,20.7
			c0.1,4.2,1.1,8.3,1.7,12.5c0.4,3.3,1.2,6.6,1,9.8c-0.4,9.2,2.4,17.6,5.3,26.2c4.7,13.7,8.2,27.7,12.4,41.5
			c1.3,4.4,2.8,8.9,5.2,12.8C279.9,428.8,286.1,437.7,292,446.5z"/>
		<path fill="#1E633A" d="M374.5,286.6c-1.5,7.7-2.8,15.5-4.6,23.1c-7.6,31.3-14.9,62.6-23.2,93.7c-2.3,8.5-6.7,16.7-11.7,24
			c-11.7,17-30,17-42.7,0.7c-10.3-13.2-15.6-28.8-21.2-44.3c-4.4-12.3-4.7-25.1-6.9-37.6c-1.6-9.2-3-18.4-5.3-27.4
			c-1.6-6.3-4.7-12.3-6.9-18.5c-1.2-3.3-2.9-7-2.6-10.3c1.3-12.9-1.4-25.1-4.4-37.4c-0.4-1.6,0.5-3.4,0.8-5.2
			c1.2,1.4,2.8,2.7,3.5,4.3c0.8,1.8,0.5,4,1.3,5.8c8.6,18.7,11.3,39.2,17.3,58.6c5.5,17.9,11.5,35.7,17,53.6
			c2.7,8.7,5.1,17.5,6.9,26.4c1.9,9.6,7.1,17.2,13.7,23.8c1.8,1.8,5.3,1.9,8,2.5c1.2,0.3,3-0.7,3.9-0.2c5.2,3.1,8-0.7,10.8-3.8
			c9.3-10.7,14.1-23.7,17.9-37c8.1-28.1,15.4-56.3,23.1-84.5c1-3.6,2.4-7.2,3.6-10.7C373.3,286.4,373.9,286.5,374.5,286.6z"/>
		<path fill="#7ECA38" d="M324.8,445c2.2-1.9,4.5-3.8,6.7-5.7c17.1-15.4,27.6-34.4,31.7-57.2c2.6-14.9,5.6-29.7,8.6-44.5
			c2.1-10.5,4.3-21,6.8-32.9c17.4,26.8,22.8,54,12.6,83.1c-11,31.3-33.5,50.2-65.2,58.3C325.5,445.8,325.1,445.4,324.8,445z"/>
		<path fill="#238039" d="M305.2,505.1c-3.1,0-5.3,0-8,0c-1.2-3.9-2.4-7.8-3.4-11.1c-1.5,0.7-2.8,1.9-4.1,2c-3.6,0.2-6,1.4-6.5,5.2
			c-0.5,4.2-3.1,5.4-7.7,4.5c2.9-10.4,5.7-20.5,8.7-31.1c1.3,1.7,2.3,3,3.3,4.2c0.5-0.1,1.1-0.1,1.6-0.2c-2.2-4.8-2.4-9,3.2-12.2
			C296.6,479.4,300.9,492.4,305.2,505.1z M289.7,480.7c-1.2,3.8-2.1,6.5-3.1,9.7c2.5-0.2,4.2-0.4,6.3-0.6
			C291.8,486.7,290.9,484.2,289.7,480.7z"/>
		<path fill="#238039" d="M374.1,505.1c-2.9-0.1-5.2-0.3-8.1-0.4c-1-3.4-2.2-7.3-3.3-10.7c-1.5,0.7-3,1.8-4.5,1.9
			c-3.4,0.3-5.7,1.5-6.1,5.1c-0.5,4.2-2.9,5.5-7.7,4.7c2.9-10.4,5.8-20.7,8.7-31.3c1.2,1.7,2.2,3.1,3.1,4.4c0.6,0,1.2,0,1.8-0.1
			c-2.7-5.1-1.8-9.2,3.1-12.6C365.6,479.3,369.9,492.4,374.1,505.1z M362,489.9c-1.1-3.1-2-5.7-3.3-9.3c-1.2,3.9-2,6.5-3,9.6
			C357.8,490.1,359.3,490,362,489.9z"/>
		<path fill="#24813A" d="M242.4,472.6c9-2,8.8,4,9.9,9c0.8,3.6,1.9,7.2,2.8,10.7c0.5,0,1,0.1,1.5,0.1c1.7-6,3.5-11.9,5.2-17.9
			c1.4-5.2,1.4-5.2,7.4-5.4c-0.8,12.6-5.4,24.1-9.6,36c-0.6-1.3-1-2.3-1.6-3.9c-1.7,1.6-3.1,2.9-5.1,4.8
			C249.2,494.7,245.8,483.7,242.4,472.6z"/>
		<path fill="#24813A" d="M328.5,505.2c-0.6-1.4-1-2.4-1.7-3.8c-1.6,1.5-2.9,2.7-5.1,4.8c-3.5-11.4-7-22.5-10.4-33.4
			c8.1-2.1,8.8,2.9,9.7,8c0.7,3.9,1.9,7.7,2.9,11.5c0.5,0.1,1,0.2,1.5,0.3c1.8-6,3.8-12,5.2-18.1c0.9-4.1,2.7-6,7.5-5.1
			C337.3,481.8,332.8,493.3,328.5,505.2z"/>
		<path fill="#318845" d="M155.3,546.2c-1.2-1.7-2.4-3.4-4.2-6c-2.6,1.7-5.1,3.5-8.1,5.5c1.5-5.5,3-10.8,4.4-16.2
			c0.5,0.2,1,0.3,1.4,0.5c2.8,5.1,5.7,10.2,8.5,15.2C156.7,545.6,156,545.9,155.3,546.2z"/>
		<path fill="#29843E" d="M325.9,534.7c-0.1-1.1-0.5-2-0.3-2.7c0.2-0.9,1-1.6,1.5-2.5c0.6,0.8,1.8,1.6,1.8,2.3
			c-0.1,4.6-0.4,9.2-0.6,13.8c-8.3,0.6-11.1-0.6-11.3-4.7C316.8,537.2,319.3,535.3,325.9,534.7z M325.8,537.3
			c-0.4-0.3-0.8-0.7-1.2-1c-1.5,1.5-4.1,2.9-4.3,4.4c-0.3,3.4,2.5,3.6,5.5,3C325.8,541.5,325.8,539.4,325.8,537.3z"/>
		<path fill="#2B8540" d="M207.2,534.8c-0.3,4.4-0.2,8.1-0.7,11.6c-0.8,4.9-2.2,5.5-8,3.1c1.4-0.3,2.2-0.3,3-0.5
			c0.7-0.2,1.7-0.5,2.1-1.1c0.4-0.8,0.3-1.8,0.5-3.2c-4,0.6-7.9,0.5-7.9-4.2C196.1,533,202.2,535.9,207.2,534.8z M201.3,544.5
			c1.4-2.2,2.6-3.3,2.6-4.3c0-1.1-1.3-2.1-2-3.1c-0.9,0.9-2.4,1.7-2.7,2.8C199,540.9,200.2,542.1,201.3,544.5z"/>
		<path fill="#2A843F" d="M415.8,547.2c-0.1,0.4-0.4,1.9-0.8,3.5c-0.3,0-0.6,0-0.8,0c-0.3-5-0.6-10-1-16.4c3.7,1.1,7.1,1.5,9.6,3.2
			c1,0.7,1.1,4.7,0.1,6.2C421.8,545.2,419,545.7,415.8,547.2z M415.4,543.1c0.8,0.5,1.5,0.9,2.3,1.4c1.1-1.4,2.6-2.7,3.1-4.3
			c0.2-0.7-1.7-2.1-2.7-3.1C417.2,539.1,416.3,541.1,415.4,543.1z"/>
		<path fill="#2F8744" d="M445.5,535.5c0.3,3.7,0.6,7.5,1,11.6c-2.6-0.5-6-0.7-8.9-1.9c-1-0.4-1.5-3.2-1.4-4.9
			C436.3,536,438.5,534.9,445.5,535.5z M443.7,538.5c-0.6-0.3-1.2-0.7-1.8-1c-0.9,1.7-2.4,3.3-2.5,5c-0.1,0.8,2.3,1.9,4.4,3.4
			C443.7,542.4,443.7,540.5,443.7,538.5z"/>
		<path fill="#2F8744" d="M190.6,535.3c0.3,4,0.5,7.7,0.7,11.2c-8.5-0.1-10.3-1-10.3-5.6C181,536.5,183.2,535.1,190.6,535.3z
			 M187.5,545.5c0.5-0.4,1-0.9,1.5-1.3c-0.2-2-0.3-4-0.5-6c-0.6-0.2-1.2-0.4-1.7-0.6c-0.9,1.5-2.5,3.1-2.5,4.6
			C184.3,543.3,186.4,544.4,187.5,545.5z"/>
		<path fill="#2F8744" d="M239.6,535.3c0.2,4,0.4,7.6,0.6,11.2c-8.3,0.1-10.2-0.9-10.3-5.5C230,536.5,232.2,535.1,239.6,535.3z
			 M236.3,545.5c0.5-0.4,1.1-0.8,1.6-1.3c-0.1-2-0.2-4-0.3-6c-0.6-0.2-1.1-0.5-1.7-0.7c-1,1.5-2.6,2.9-2.7,4.5
			C233.2,543.2,235.2,544.4,236.3,545.5z"/>
		<path fill="#2F8744" d="M313.6,547.1c-2.7-0.5-6.1-0.8-9.1-2c-1-0.4-1.5-3.3-1.4-4.9c0.2-4.3,2.5-5.4,9.4-4.7
			C312.8,539.3,313.2,543,313.6,547.1z M310.7,538.6c-0.6-0.3-1.2-0.7-1.8-1c-0.9,1.6-2.4,3.2-2.6,4.9c-0.1,0.8,2.3,1.9,4.4,3.6
			C310.7,542.4,310.7,540.5,310.7,538.6z"/>
		<path fill="#28833E" d="M339.8,536.9c0,3.4,0,6.1,0,8.8c-0.4,0.1-0.8,0.1-1.2,0.2c-0.5-3-0.9-5.9-1.4-8.9c-0.5,0-1,0-1.5,0
			c-0.7,2.8-1.3,5.7-2,8.5c-0.2,0-0.5-0.1-0.7-0.1c0-3.2,0-6.4,0-10.4c3.2,0,6.5-0.2,9.8,0.1c1.1,0.1,2.8,1.6,2.9,2.6
			c0.4,2.6,0.1,5.4,0.1,8.5C341.7,544.1,347,537.6,339.8,536.9z"/>
		<path fill="#28833E" d="M397,545.4c0-3.2,0-6.4,0-10.4c3.2,0,6.5-0.2,9.8,0.1c1.1,0.1,2.8,1.6,2.9,2.6c0.4,2.6,0.1,5.4,0.1,8.6
			c-4-2.4,1-8.8-5.6-9.6c-0.2,3.2-0.4,6-0.5,8.8c-0.4,0-0.8,0.1-1.2,0.1c-0.5-3-0.9-5.9-1.4-8.9c-0.5,0-1,0-1.5,0
			c-0.7,2.8-1.3,5.7-2,8.5C397.5,545.5,397.3,545.4,397,545.4z"/>
		<path fill="#28833E" d="M168.6,537.1c-0.6,2.8-1.2,5.5-1.7,8.3c-0.3,0-0.5,0-0.8-0.1c0-3.3,0-6.5,0-10.3c3,0,6.1-0.3,9,0.1
			c1.4,0.2,3.3,1.7,3.6,3c0.6,2.5,0.2,5.1,0.2,8.1c-4.2-2,0.9-8.8-5.6-9.3c-0.2,3.3-0.4,6.1-0.6,8.9c-0.4,0-0.8,0-1.2,0
			c-0.4-2.9-0.8-5.9-1.1-8.8C169.8,537,169.2,537.1,168.6,537.1z"/>
		<path fill="#338947" d="M289.5,540.5c1.1-0.4,2.2-0.9,4-1.5c-1.1-0.8-1.6-1.6-2.2-1.7c-3-0.5-4.9,1-5.1,4c-0.2,3,1.8,4,4.6,3.6
			c0.9-0.1,1.8-0.3,2.7-0.5c0.1,0.6,0.1,1.1,0.2,1.7c-2.3,0.2-4.9,1.1-6.9,0.3c-1.4-0.6-3-3.6-2.6-5.1c0.6-2.2,2.4-4.5,4.4-5.8
			c1.1-0.7,3.7,0.4,5.3,1.2c0.6,0.3,1,2.7,0.7,2.9c-1.4,0.9-3.1,1.4-4.6,2C289.9,541.2,289.7,540.8,289.5,540.5z"/>
		<path fill="#338947" d="M388.7,540.4c1.1-0.5,2.2-1,3.3-1.5c-0.1-0.5-0.2-1-0.3-1.5c-1.7,0.2-3.8-0.1-4.9,0.9
			c-1,1-1.7,4.3-1.3,4.6c2,1.2,4.4,1.7,7.8,2.8c-2.9,0.4-5.4,1.5-7.2,0.8c-1.5-0.6-3.2-3.4-3-4.9c0.3-2.1,1.9-4.7,3.7-5.8
			c1.3-0.8,4,0,5.9,0.7c0.6,0.2,1.3,2.8,1.1,2.9c-1.6,0.9-3.3,1.5-5,2.2C388.8,541.2,388.7,540.8,388.7,540.4z"/>
		<path fill="#338947" d="M465.5,540.4c1.1-0.4,2.2-0.9,3.3-1.3c0-0.5-0.1-1-0.1-1.6c-1.6,0.1-3.7-0.3-4.7,0.5
			c-1.1,0.9-2,4.2-1.6,4.5c1.9,1.3,4.2,1.9,6.7,2.9c-1.9,2-4.6,2.4-7.4,0.5c-2.5-1.7-2.4-6.4-0.1-8.9c2.4-2.6,6.5-2.8,8.3-0.4
			c0.6,0.8,1,2.8,0.6,3c-1.4,0.9-3.1,1.3-4.7,1.9C465.8,541.1,465.7,540.8,465.5,540.4z"/>
		<path fill="#2E8642" d="M246.5,528.4c0.4,1.2,1.2,2.4,1.3,3.6c0.1,2.6-0.5,5.3-0.3,7.9c0.2,1.6,1.3,3.2,2.2,5.2
			c-2.5,1.7-4.5,1.1-4.7-2.8c-0.3-4.4-0.1-8.9-0.1-13.3C245.5,528.8,246,528.6,246.5,528.4z"/>
		<path fill="#2E8642" d="M429.4,528.4c0.5,1.1,1.3,2.3,1.4,3.4c0.1,2.8-0.5,5.7-0.2,8.4c0.1,1.6,1.5,3,2.6,5.1
			c-1.5,1.2-4.2,1.7-4.8-1.9c-0.7-4.8-0.2-9.7-0.2-14.6C428.6,528.7,429,528.5,429.4,528.4z"/>
		<path fill="#2E8642" d="M226.5,546c-2.1,1.8-5.5,2-7.7-0.8c-1.3-1.7-1.5-5.5-0.5-7.5c1.7-3.3,5.1-3.6,7.5-2.1
			c-1.9,2.1-3.8,4.1-5.7,6.1C222.2,543.1,224.3,544.5,226.5,546z"/>
		<path fill="#2A843F" d="M356.2,545.6c0-3.3,0-6.7,0-10c9.1-1,10.4,0.6,7.4,10.3c-0.2-1.1-0.4-2.1-0.7-3.2
			c-0.5-1.9-1.1-3.7-1.7-5.6c-1,1.8-2.1,3.5-3,5.4c-0.5,1-0.6,2.1-1,3.2C356.9,545.7,356.5,545.7,356.2,545.6z"/>
		<path fill="#398D4D" d="M264.4,546.1c-4.7-6.8-5.1-8.5-2.8-11.1c0.8,1.7,1.5,3.2,2.2,4.8c0.3-0.1,0.7-0.1,0.8-0.3
			c1.2-1.4,2.4-2.8,3.6-4.3c-0.4,1.8-0.6,3.7-1.2,5.5C266.3,542.5,265.3,544.2,264.4,546.1z"/>
		<path fill="#24813A" d="M273.8,535.2c0,2.7,0,5.4,0,8c2.3,0.3,2.3,0.3,5.5-9.1c0.7,4.7,1.2,8.3,1.7,12.1
			C272.2,546.8,270.4,544.6,273.8,535.2z"/>
		<path fill="#25813A" d="M378.9,535.1c-0.8,3.1-1.7,5.3-1.7,7.4c0,1.1,1.8,2.1,3.1,3.5c-0.8,0.2-2.5,1.1-3.6,0.6
			c-0.9-0.4-1.5-2.4-1.7-3.7c-0.4-3.8-0.5-7.6,0.5-11.4C377,533,378.4,534.5,378.9,535.1z"/>
		<path fill="#25813A" d="M452.9,531.8c1.3,1.4,2.6,2.9,3.1,3.4c-0.9,3.1-1.7,5.9-2.7,9.1c2.1,0.4,3.3,0.7,5.1,1
			c-1.4,0.7-2.5,1.6-3.3,1.5c-1.1-0.2-2.8-1.2-2.8-1.9c-0.5-4.4-0.6-8.8-0.8-13.3C451.9,531.7,452.4,531.7,452.9,531.8z"/>
	</g>
</g>
</svg>
