<?xml version="1.0" encoding="utf-8"?>
<!-- Generator: Adobe Illustrator 22.1.0, SVG Export Plug-In . SVG Version: 6.00 Build 0)  -->
<svg version="1.2" baseProfile="tiny" id="图层_1"
	 xmlns="http://www.w3.org/2000/svg" xmlns:xlink="http://www.w3.org/1999/xlink" x="0px" y="0px" viewBox="0 0 232.7 233.1"
	 xml:space="preserve">
<g>
	<g>
		<path fill="#7DC937" d="M75,49.3c28.7-17.2,72.8-13.4,97.3,8.1c1,0.9,1.7,3.2,1.4,4.5C169.4,78,164.9,94,160.4,110
			c-0.1,0.3-0.1,0.7-0.3,0.9c-11.2,18.8-15,40.8-25,60.1c-1.9,3.7-4.2,7.2-6.6,10.6c-3.1,4.4-6.5,4.1-8.3-0.9
			c-3.5-9.7-6.4-19.6-10-29.2c-8-22-13.6-44.8-23.4-66.2C81.8,73.9,78.9,61.4,75,49.3z"/>
		<path fill="#7ECA38" d="M102.3,215.1c-30.5-3.2-60.1-29.1-70.1-61.3c-10.5-34,1.2-69.4,22.5-89.2c3.1,6.7,4,13.6,4.2,20.7
			c0.1,4.2,1.1,8.3,1.7,12.5c0.4,3.3,1.2,6.6,1,9.8c-0.4,9.2,2.4,17.6,5.3,26.2c4.7,13.7,8.2,27.7,12.4,41.5
			c1.3,4.4,2.8,8.9,5.2,12.8C90.2,197.4,96.5,206.3,102.3,215.1z"/>
		<path fill="#1E633A" d="M184.9,55.2c-1.5,7.7-2.8,15.5-4.6,23.1c-7.6,31.3-14.9,62.6-23.2,93.7c-2.3,8.5-6.7,16.7-11.7,24
			c-11.7,17-30,17-42.7,0.7c-10.3-13.2-15.6-28.8-21.2-44.3c-4.4-12.3-4.7-25.1-6.9-37.6c-1.6-9.2-3-18.4-5.3-27.4
			c-1.6-6.3-4.7-12.3-6.9-18.5c-1.2-3.3-2.9-7-2.6-10.3c1.3-12.9-1.4-25.1-4.4-37.4c-0.4-1.6,0.5-3.4,0.8-5.2
			c1.2,1.4,2.8,2.7,3.5,4.3c0.8,1.8,0.5,4,1.3,5.8c8.6,18.7,11.3,39.2,17.3,58.6c5.5,17.9,11.5,35.7,17,53.6
			c2.7,8.7,5.1,17.5,6.9,26.4c1.9,9.6,7.1,17.2,13.7,23.8c1.8,1.8,5.3,1.9,8,2.5c1.2,0.3,3-0.7,3.9-0.2c5.2,3.1,8-0.7,10.8-3.8
			c9.3-10.7,14.1-23.7,17.9-37c8.1-28.1,15.4-56.3,23.1-84.5c1-3.6,2.4-7.2,3.6-10.7C183.7,55,184.3,55.1,184.9,55.2z"/>
		<path fill="#7ECA38" d="M135.1,213.6c2.2-1.9,4.5-3.8,6.7-5.7c17.1-15.4,27.6-34.4,31.7-57.2c2.6-14.9,5.6-29.7,8.6-44.5
			c2.1-10.5,4.3-21,6.8-32.9c17.4,26.8,22.8,54,12.6,83.1c-11,31.3-33.5,50.2-65.2,58.3C135.9,214.4,135.5,214,135.1,213.6z"/>
	</g>
</g>
</svg>
