<?xml version="1.0" encoding="utf-8"?>
<!-- Generator: Adobe Illustrator 22.1.0, SVG Export Plug-In . SVG Version: 6.00 Build 0)  -->
<svg version="1.2" baseProfile="tiny" id="图层_1"
	 xmlns="http://www.w3.org/2000/svg" xmlns:xlink="http://www.w3.org/1999/xlink" x="0px" y="0px" viewBox="0 0 612 792"
	 xml:space="preserve">
<g>
	<g>
		<path fill="#7ECA37" d="M227,309.9c11.6,16.4,22.5,32,33.5,47.4c2.8,3.9,5.8,7.7,9.1,11.2c7,7.3,19.5,8.9,26.5,3.7
			c9.6-7.2,12.7-18.9,7-28.6c-4.7-8-10.5-15.4-15.3-23.3c-2.9-4.8-1.7-9.4,2.4-12.9c4.7-4,10.8-3.6,14.5,1.3
			c6.3,8.4,12.4,16.9,18.3,25.6c0.9,1.3,0.9,4.3,0,5.6c-6,8.3-5,16,1.1,23.7c4.2,5.3,8.1,10.9,12.1,16.5c2.3-1.2,4.2-2.2,6.4-3.3
			c5,6.6,9.9,13,14.9,19.8c1.9-1.5,3.5-2.7,5.3-4.2c-4.9-6.5-9.5-12.7-14.5-19.4c3.7-2.7,7.2-5.3,11.5-8.6
			c6.5,8.8,12.8,17.3,19.3,26.1c-11.6,8.5-22.8,16.7-34.1,24.9c-11.6,8.4-23.1,16.9-34.9,25c-3.7,2.5-8.2,4.5-12.6,5.4
			c-6.5,1.4-12.1-1.3-16.2-6.7c-11.9-16-23.9-32-35.6-48.2c-10.9-14.9-21.3-30.2-32.4-44.9c-7.2-9.5-5.3-18.7,1.8-26
			C218.3,316.4,222.5,313.6,227,309.9z"/>
		<path fill="#175F35" d="M334.5,331c-6.7-9.4-13.1-18.5-19.8-27.4c-6.1-8.2-16.6-11.6-25.1-8.4c-8.8,3.3-15.3,12.5-14.4,21.7
			c0.3,3.4,1.9,7,3.7,10c4,6.3,8.6,12.2,12.8,18.4c5,7.5,4.5,12.9-1.2,16.9c-5.5,3.9-11,2.6-16.1-4.5c-12.8-17.4-25.3-35-38.3-53
			c2.9-2.1,5.9-4.2,8.8-6.3c20.7-15,41.5-30,62.2-45.1c12.6-9.2,22.6-7.7,31.9,5c20.8,28.5,41.6,56.9,62.4,85.4
			c1.9,2.5,3.5,5.2,5.2,7.9c4,6.2,4.1,11.8-0.5,17.5c-5.9,7.3-13.6,12.5-22,17.4c-6.4-8.9-12.6-17.5-19-26.4c2.4-2,4.6-3.9,7.9-6.6
			c-6.2-7.8-12-16-18.9-23.2C349.8,326.1,342.9,327,334.5,331z"/>
		<path fill="#218139" d="M293.2,466.9c4.3,12.9,8.5,25.4,12.6,37.9c-0.4,0.5-0.8,1-1.2,1.4c-2.5-0.8-5.9-0.8-7.2-2.5
			c-1.7-2.1-1.8-5.5-2.6-8.5c-0.8,0.7-1.3,1.6-1.9,1.6c-5.4-0.2-8.6,1.6-9.5,7.5c-0.2,1.4-3.7,2.3-5.7,3.5c-0.5-0.4-0.9-0.9-1.4-1.3
			c2.8-10.1,5.6-20.2,8.6-30.9c1.5,1.7,2.4,2.7,3.4,3.8c0.5,0,1.1,0.1,1.6,0.1C286.8,474.3,288.5,470.5,293.2,466.9z M290.8,482
			c-1.2,3.8-2,6.2-3,9.2c2.1-0.1,3.7-0.2,5.9-0.4C292.7,487.8,292,485.6,290.8,482z"/>
		<path fill="#218139" d="M374.9,504.8c-11.4,4.1-8.4-5.6-11.3-9.4c-0.5,0.5-1.1,1.4-1.6,1.4c-5.4-0.2-8.6,1.6-9.5,7.6
			c-0.2,1.4-3.7,2.3-5.7,3.5c-0.5-0.4-0.9-0.9-1.4-1.3c2.8-10.1,5.6-20.2,8.6-30.9c1.5,1.7,2.4,2.7,3.4,3.8c0.5,0,1.1,0.1,1.6,0.1
			c-3.2-5.3-1.5-9,3.2-12.6C366.5,479.7,370.7,492.2,374.9,504.8z M362.7,490.8c-1-2.8-1.8-5.2-2.9-8.6c-1.2,3.6-2,6-3,8.9
			C358.9,491,360.5,490.9,362.7,490.8z"/>
		<path fill="#218139" d="M242.8,472.1c2.8,0.9,3.9,1.2,4.8,1.7c1.5,0.8,3.8,1.6,4.2,2.8c1.7,5.4,2.9,11,4.3,16.5
			c0.5,0,0.9,0.1,1.4,0.1c1.7-6,3.7-11.9,5.1-17.9c0.9-4.1,2.5-6.2,7.6-4.9c-0.6,12-5,23.1-9.1,34.4c-0.3-0.5-0.6-0.9-1-1.4
			c-1.9,0.9-3.9,1.7-6.8,3C250.1,495.7,246.6,484.5,242.8,472.1z"/>
		<path fill="#218139" d="M340.2,470.7c-3.2,11.4-6.3,22.8-9.5,34.1c-0.5-0.5-1-1-1.5-1.5c-2,0.8-4,1.6-6.9,2.8
			c-3.2-10.5-6.7-21.7-10.5-34.1c2.6,0.9,3.9,1.8,4.7,1.6c3.3-1.1,3.9,0.8,4.5,3.3c1.3,5.4,2.7,10.7,4.1,16.1c0.5,0,0.9,0.1,1.4,0.1
			c1.7-5.9,3.7-11.8,5.1-17.9C332.5,471.4,333.9,469,340.2,470.7z"/>
		<path fill="#2B8844" d="M144.1,546.8c1.1-4.8,2.1-9.7,3.4-14.6c0.1-0.4,3-0.8,3.3-0.4c2.5,4,4.8,8.1,7,12.3c0.4,0.7,0.1,1.8-1,3.3
			c-1.5-1.7-2.9-3.4-5-5.8C149.5,543.2,146.9,544.9,144.1,546.8z"/>
		<path fill="#25843D" d="M329.4,547.7c-5-1.5-11.2,1.2-11.3-6.2c0-5.6,4.5-5.6,8.7-5.7c-0.1-0.8-0.4-1.5-0.3-2.1
			c0.4-1.2,1-2.3,1.5-3.4c0.7,1,1.9,1.9,1.9,2.9C329.9,537.8,329.6,542.4,329.4,547.7z M325.5,545.6c0.5-0.5,1-0.9,1.5-1.4
			c-0.1-2.1-0.2-4.2-0.4-6.2c-0.5-0.2-1.1-0.5-1.6-0.7c-1.3,1.5-2.6,3-4,4.5C322.6,543.1,324.1,544.4,325.5,545.6z"/>
		<path fill="#24833C" d="M208.2,535.8c-0.3,4.5-0.1,8.5-0.8,12.3c-0.8,4.5-3.1,5.1-6.9,2.6c1.5-1,3.3-2.2,5-3.4
			c-0.2-0.4-0.4-0.9-0.5-1.3c-4,0.1-8.5,0.3-7.8-5.4C197.9,533.5,203.7,537.1,208.2,535.8z M203.1,536.5c-1.5,2.2-2.9,3.4-2.9,4.4
			c0.1,1,1.5,2,2.4,3c0.8-0.9,2.2-1.6,2.3-2.6C205,540.2,204.1,539,203.1,536.5z"/>
		<path fill="#2D8945" d="M417.4,546.9c-0.5,2-0.9,3.6-1.3,5.3c-0.3,0-0.6,0-0.8-0.1c-0.4-5.2-0.7-10.4-1.1-15.6
			c8.6-1,10.8,0.1,10.9,4.8C425.1,545.7,423.4,547,417.4,546.9z M416.2,541.5c1.1,1.4,1.9,2.4,2.7,3.4c1-1.1,2.8-2.2,2.8-3.4
			c0.1-1.1-1.7-2.2-2.7-3.3C418.2,539.1,417.4,540.1,416.2,541.5z"/>
		<path fill="#24833C" d="M346.9,547.8c-3.9-3,0.8-8.8-5.6-9.8c-0.2,3.2-0.4,6.1-0.6,8.9c-0.4,0-0.8,0.1-1.2,0.1c-0.4-3-0.9-6-1.3-9
			c-0.5,0-1,0-1.5,0c-0.6,2.9-1.2,5.7-1.7,8.6c-0.3,0-0.5-0.1-0.8-0.1c-0.2-3.3-0.4-6.6-0.7-10.5c3.6,0,6.8-0.3,10,0.1
			c1.2,0.2,3.1,1.6,3.3,2.7C347.3,541.4,346.9,544.2,346.9,547.8z"/>
		<path fill="#24833C" d="M411,547.9c-3.9-3.2,0.7-8.9-5.7-9.9c-0.2,3.2-0.4,6.1-0.6,8.9c-0.4,0-0.8,0.1-1.2,0.1c-0.5-3-0.9-6-1.4-9
			c-0.5,0-1,0-1.5,0c-0.6,2.9-1.2,5.7-1.8,8.6c-0.3,0-0.5-0.1-0.8-0.1c-0.2-3.3-0.4-6.6-0.7-10.5c3.6,0,6.8-0.3,9.9,0.1
			c1.3,0.2,3.1,1.8,3.4,3.1C411.4,541.7,411,544.3,411,547.9z"/>
		<path fill="#24833C" d="M178.2,546.9c-0.1-2.3-0.1-4.5-0.5-6.7c-0.2-0.8-1.5-1.4-2.3-2c-0.5,0.7-1.3,1.5-1.4,2.2
			c-0.2,2.2-0.1,4.3-0.1,6.5c-0.5,0-1,0-1.6,0.1c-0.4-3-0.8-5.9-1.1-8.9c-0.5,0-1-0.1-1.6-0.1c-0.6,2.9-1.2,5.8-1.8,8.7
			c-0.3,0-0.5-0.1-0.8-0.1c-0.2-3.3-0.4-6.5-0.7-10.5c3.7,0,7.2-0.1,10.7,0.1c0.8,0,2.3,0.9,2.3,1.4c0.2,3.1,0.1,6.3,0.1,9.4
			C179.1,547,178.7,546.9,178.2,546.9z"/>
		<path fill="#278640" d="M192.5,548.5c-2.9-0.7-6.3-1.1-9.2-2.4c-1-0.4-1.3-3.3-1.2-5c0.3-4.4,2.4-5.4,9.6-4.6
			C191.9,540.2,192.2,544,192.5,548.5z M190,539.5c-0.9-0.3-1.8-0.6-2.8-0.9c-0.6,1.9-1.5,3.7-1.7,5.6c-0.1,0.4,2,1.1,3.1,1.6
			C189.1,543.7,189.5,541.6,190,539.5z"/>
		<path fill="#278640" d="M241.6,547.7c-9,0-11-1.1-10.7-6.2c0.3-4.7,2.6-5.9,9.6-4.9C240.9,540.3,241.3,544,241.6,547.7z
			 M239.2,539.7c-0.9-0.4-1.8-0.7-2.7-1.1c-0.7,1.8-1.7,3.5-2.1,5.4c-0.1,0.4,1.9,1.3,3,1.9C238,543.8,238.6,541.8,239.2,539.7z"/>
		<path fill="#278640" d="M313.6,536.3c0.3,4,0.6,7.6,0.8,11.3c-8.6,0.6-10.4-0.2-10.5-5.3C303.8,537.2,306,535.8,313.6,536.3z
			 M312.2,539.7c-0.9-0.4-1.8-0.7-2.7-1.1c-0.7,1.8-1.7,3.5-2.1,5.4c-0.1,0.4,1.9,1.3,3,1.9C311,543.8,311.6,541.8,312.2,539.7z"/>
		<path fill="#278640" d="M437.1,544.7c-0.3-8.1,0.6-8.9,9.4-8.5c0.4,3.8,0.8,7.7,1.2,11.6c-3.2-0.9-8.1,2.3-10.6-3.2
			C437.1,544.6,437.1,544.7,437.1,544.7z M444.9,539.4c-0.8-0.2-1.5-0.5-2.3-0.7c-0.8,1.7-1.8,3.5-2.2,5.3c-0.1,0.4,2.2,1.2,3.4,1.9
			C444.1,543.6,444.5,541.5,444.9,539.4z"/>
		<path fill="#318C49" d="M437.1,544.7c0,0,0-0.1,0-0.1c-2.1,0.7-4.2,1.5-6.3,2.2c-0.6-2.1-1.4-4.1-1.8-6.3
			c-0.4-2.1-0.6-4.3-0.3-6.4c0.2-1.6,1.2-3.2,1.8-4.8c0.5,1.5,1.4,3,1.5,4.6c0.2,3.4,0.1,6.9,0.1,10.7
			C433.8,544.7,435.4,544.7,437.1,544.7z"/>
		<path fill="#2B8944" d="M295.7,546.7c-3.2,0.4-5.7,1.4-7.8,0.9c-1.3-0.3-3-3.1-2.8-4.5c0.4-2.3,1.7-5,3.6-6.3
			c1.2-0.9,4-0.1,5.9,0.6c0.7,0.3,1.4,3.1,1.2,3.2c-1.6,0.9-3.4,1.4-5.4,1.2c1.2-0.6,2.4-1.2,3.5-1.8c-0.1-0.5-0.2-0.9-0.3-1.4
			c-1.6,0.3-3.7,0-4.8,0.9c-1,0.8-1.6,4-1.2,4.2C289.7,544.7,292.1,545.4,295.7,546.7z"/>
		<path fill="#2B8944" d="M389.5,541.5c1.1-0.5,2.2-1,3.4-1.5c-0.1-0.5-0.2-1-0.2-1.4c-1.6,0.2-3.6-0.1-4.7,0.8
			c-1,0.8-1.7,3.9-1.4,4.1c2.1,1.3,4.5,2,6.8,2.9c-1.6,2.3-5,2.8-7,0.8c-1.6-1.6-2.1-5.4-1.4-7.8c0.9-3.2,4.3-4.2,7.4-2.9
			c1.2,0.5,1.8,2.4,2.7,3.7c-1.7,0.9-3.4,1.8-5.1,2.6C389.8,542.3,389.6,541.9,389.5,541.5z"/>
		<path fill="#2B8944" d="M471.9,546.7c-3.3,0.4-5.9,1.5-7.9,0.8c-1.4-0.5-3-3.4-2.8-5c0.3-2.1,1.8-4.7,3.6-5.8
			c1.3-0.9,4-0.1,5.9,0.6c0.7,0.3,1.3,3.1,1.1,3.2c-1.6,0.9-3.4,1.4-5.4,1.1c1.2-0.6,2.4-1.2,3.6-1.8c-0.1-0.5-0.2-0.9-0.3-1.4
			c-1.7,0.3-3.7,0.1-4.8,1c-1,0.8-1.5,4-1.2,4.2C465.7,544.7,468.1,545.4,471.9,546.7z"/>
		<path fill="#318C49" d="M251.3,546.3c-3.6,1.8-5.1,1-5.4-4c-0.2-3.3-0.5-6.6-0.4-9.9c0-1,1-2,1.6-3c0.6,1,1.7,1.9,1.8,2.9
			c0.2,2.8-0.4,5.7-0.1,8.4C249,542.4,250.3,544,251.3,546.3z"/>
		<path fill="#298742" d="M228.1,537.8c-3.2,0.3-7,0.2-6.9,4.5c0.2,4.6,4.1,3.6,7.2,3.5c-2.4,2.9-5.4,3.1-8.2,1
			c-3-2.2-3.2-5.4-1.1-8.3C221.6,535.1,224.8,535.2,228.1,537.8z"/>
		<path fill="#23833C" d="M357,546.7c0-3.4,0-6.8,0-10.2c9.3-0.9,11.1,1.5,7.3,10.4c-0.1-1.6,0-3.3-0.4-4.9
			c-0.3-1.4-1.3-2.6-1.9-3.9c-0.7,1.1-1.6,2.2-2.1,3.4c-0.7,1.7-1,3.6-1.5,5.4C357.9,546.9,357.5,546.8,357,546.7z"/>
		<path fill="#2F8C48" d="M265.3,547.5c-5.3-8.7-5.5-9.3-2.7-11.4c0.7,1.4,1.5,2.8,2.5,4.8c0.4-0.9,0.6-1.4,0.9-1.8
			c1-1,2.1-2,3.1-2.9c-0.1,1.4,0.1,2.9-0.3,4.2C267.9,542.6,266.7,544.8,265.3,547.5z"/>
		<path fill="#1F7F37" d="M280.5,536.1c0.5,3.7,1,7.4,1.5,11.1c-8.2,1.4-11-2-7.4-11.2c0.2,2.8,0.4,5.5,0.6,8.2
			c3.6,0.3,3.5,0.3,3.7-2.7c0.1-1.9,0.4-3.7,0.5-5.6C279.9,536,280.2,536.1,280.5,536.1z"/>
		<path fill="#1E7F36" d="M377.1,545.7c2.6,0.2,3.7,0.2,5.6,0.3c-1.2,0.9-1.9,1.8-2.4,1.7c-1.4-0.3-4-1.1-3.9-1.4
			c0.7-4.6-3.6-9.5,0.5-13.9c1.3,1.5,2.6,3.1,3.3,4C379.2,539.2,378.3,542.1,377.1,545.7z"/>
		<path fill="#1E7F36" d="M453.7,532.4c1.5,1.8,2.8,3.2,4.2,4.8c-4.7,0.9-2.7,4.8-2.8,8.3c1.3,0.2,2.5,0.3,4.5,0.6
			c-1.2,0.8-2,1.7-2.5,1.6c-1.4-0.3-4-1.2-3.9-1.5C454,541.6,450,536.7,453.7,532.4z"/>
	</g>
</g>
</svg>
