<?xml version="1.0" encoding="utf-8"?>
<!-- Generator: Adobe Illustrator 22.1.0, SVG Export Plug-In . SVG Version: 6.00 Build 0)  -->
<svg version="1.2" baseProfile="tiny" id="图层_1"
	 xmlns="http://www.w3.org/2000/svg" xmlns:xlink="http://www.w3.org/1999/xlink" x="0px" y="0px" viewBox="0 0 384 42.1"
	 xml:space="preserve">
<g>
	<path fill="#227739" d="M28.8,29.1c-0.5-0.2-1-0.5-1.3-0.9c-0.4-0.6-0.6-1.6-0.7-3c0-0.3,0-0.8-0.1-1.4c0-0.6-0.1-1.1-0.1-1.4
		c0-0.9-0.2-1.6-0.5-1.9c-0.3-0.5-0.9-0.8-1.7-0.8c-0.4,0-1.1,0-2.1,0.1c-0.8,0.1-1.4-0.1-2.1-0.4c-0.7-0.3-1-0.8-1-1.4
		c0-0.3,0.2-0.7,0.4-1c0.2-0.3,0.6-0.5,0.9-0.6c0.5-0.1,1.2-0.2,2.2-0.1c0.3,0,0.7,0.1,1.3,0.1c0.6,0.1,1,0.1,1.3,0.1
		c-0.3-2.6-1.1-5.1-2.3-7.5c-0.2-0.4-0.4-0.7-0.7-0.7c-0.3-0.1-0.6,0-0.9,0.3c-0.2,0.2-0.4,0.5-0.6,1c-2.3,5.4-3.5,11-3.8,16.8
		c0,0.8-0.1,1.4-0.3,1.8c-0.1,0.3-0.4,0.5-0.6,0.6c-0.3,0.2-0.6,0.2-0.8,0.1c-0.7-0.2-1-1-0.9-2.2c0.6-6.2,2-12.2,4.3-17.9
		c0.6-1.6,1.4-2.5,2.2-2.8c0.7-0.3,1.5-0.2,2.5,0.1c1.4,0.5,2.6,1.4,3.6,2.8c0.9,1.3,1.4,2.8,1.3,4.3c0,0.5,0.1,1.1,0.4,1.5
		s0.7,0.8,1.2,1.1c0.5,0.2,1,0.3,1.6,0.2c0.6-0.1,1.1-0.2,1.5-0.6c0.1,0.8-0.1,1.4-0.4,2c-0.2,0.4-0.6,0.7-1.2,1.1
		c-0.8,0.5-1.2,0.8-1.2,0.7c-0.4,0.3-0.5,0.6-0.5,0.9l0.8,6.1c0.2,1.3,0,2.2-0.5,2.7C29.9,29.1,29.4,29.2,28.8,29.1z"/>
	<path fill="#227739" d="M46.2,18.5c0.3,1.6,0.5,2.8,0.6,3.6c0.1,0.4,0.2,1.2,0.5,2.5c0.3,1.2,0.4,2.1,0.5,2.5
		c-0.1,0.3-0.4,0.6-0.8,0.7c-0.4,0.1-0.8,0-1.1-0.2c-0.5-0.3-0.9-0.9-1.2-1.9c-0.5-1.7-0.7-3.5-0.6-5.6c0.2-2.2,0.7-4,1.5-5.3
		C45.8,15.7,46,16.9,46.2,18.5z M46.7,18c-0.5-0.5-0.8-0.9-1-1.2c-0.2-0.4-0.1-0.7,0.2-0.9c1.3,1,2.8,1.6,4.5,1.9
		c2.2,0.4,4.1,0,5.8-1c1.1-1.3,2.4-1.6,3.8-1c1.1,0.5,2.1,1.4,3,2.7c0.7,1,1.1,2.3,1.1,3.7c0,1.3-0.3,2.6-0.9,3.8
		c-0.3,0.7-0.8,1.1-1.4,1.5c-0.6,0.4-1.2,0.4-1.7,0.1c-0.1-0.4-0.1-1.1-0.2-2c-0.1-0.9-0.2-1.6-0.2-2c-0.1-1.1-0.3-1.9-0.5-2.5
		c-0.3-0.9-0.9-1.5-1.5-1.8c-0.6-0.3-1.3-0.3-2.1-0.1c-0.7,0.2-1.3,0.7-1.7,1.3c-0.8,1.1-0.9,2.5-0.5,4.2c0.1,0.5-0.1,0.9-0.6,1.2
		C52,26,51.5,26,51,25.8c-0.8-0.5-1.3-1.4-1.3-2.8c-0.1-2-0.1-3.1-0.2-3.2C48.7,19.6,47.8,19,46.7,18z"/>
	<path fill="#227739" d="M69.6,24.2c0.5-0.1,0.9-0.4,1.3-0.8c0.5-0.5,0.9-1.1,1.3-1.8c0.4-0.8,0.7-1.5,0.7-2.1
		c0.1-0.6,0.3-0.8,0.7-0.7c0.4,0.1,0.7,0.4,1.1,0.9c0.3,0.4,0.2,0.9-0.1,1.5c-0.5,0.9-0.8,1.4-0.9,1.6c-0.1,0.2,0,0.5,0.3,0.8
		c0.3,0.2,0.6,0.5,1.1,0.6c1,0.4,1.8,0.6,2.4,0.5c-0.2,0.4-0.5,0.7-0.9,1c-0.4,0.2-0.8,0.4-1.3,0.4c-0.5,0.1-0.9,0-1.3-0.2
		c-0.5-0.2-0.8-0.4-1.1-0.8c-0.2-0.2-0.4-0.4-0.8-0.4c-0.3,0-0.6,0-0.9,0.2c-0.2,0.1-0.4,0.2-0.8,0.4c-0.3,0.2-0.6,0.3-0.8,0.4
		c-0.9,0.3-1.7,0.1-2.5-0.5c-0.8-0.6-1.3-1.4-1.4-2.4c-0.2-1.5,0.4-3.2,1.8-5.1c0.7-0.9,1.3-1.5,2-1.8c0.5-0.2,1.1-0.3,1.8-0.2
		c0.8,0.1,1.3,0.3,1.5,0.7c-1.7,0.4-3,1.3-3.9,2.5c-0.7,1-1.1,2.2-1.1,3.7c0,0.7,0.1,1.1,0.4,1.4C68.5,24.2,69,24.3,69.6,24.2z"/>
	<path fill="#227739" d="M91.4,29.8c0.1,1.6,0,2.9-0.2,3.8c-0.3,1.4-0.9,2.4-1.9,3.1c-0.5,0.4-1.2,0.7-2.1,0.9c-1,0.2-2,0.3-2.8,0.1
		c-1-0.2-1.7-0.7-2.1-1.4c-0.6-1.2-0.4-2.7,0.8-4.7c1-1.7,2.3-3.1,3.7-4.4c1.6-1.5,2.2-2.6,1.6-3.5l-2.3,1.9
		c-1.5,1.2-2.7,1.8-3.6,1.8c-0.7,0-1.3-0.2-1.9-0.6c-0.6-0.4-1-0.9-1.3-1.6c-0.5-1-0.6-2.4-0.4-4.1c0.2-2,0.7-3.7,1.5-4.9
		c0.5-0.8,1.1-1.4,1.9-1.9c0.8-0.5,1.6-0.8,2.4-0.9c0.9-0.1,1.7,0.2,2.4,0.7c0.7,0.5,1.2,1.2,1.3,2c0,0.4,0,0.7-0.1,1
		c-0.1,0.3-0.3,0.6-0.6,0.8c-0.3,0.2-0.6,0.1-0.9-0.1c-0.3-0.2-0.4-0.5-0.3-0.8c0.2-0.6,0.1-1.1-0.5-1.5c-0.5-0.4-1.1-0.5-1.7-0.3
		c-1,0.3-1.8,1.2-2.3,2.7c-0.8,2.1-0.9,4.3-0.3,6.4c0.1,0.5,0.4,0.9,0.6,1c0.2,0.1,0.5,0.1,0.8,0c1.2-0.2,2.4-0.8,3.4-1.7
		c1-0.9,1.7-1.9,2.1-3.1c0.2-0.7,0.5-1.3,0.7-1.6c0.4-0.5,0.8-0.8,1.2-0.7c0.4,0.1,0.7,0.4,0.8,0.9c0.1,0.3,0.1,0.8,0.1,1.5
		c0,0.5,0.2,1,0.5,1.4c0.4,0.4,0.7,0.5,1.1,0.2c1.3-1.1,2.4-1.8,3.3-2.2c1.3-0.6,2.5-0.8,3.6-0.5c-0.7,0.4-1.7,1-3.1,1.8
		c-1.4,0.8-2.4,1.4-3.1,1.8C92.1,24,91.3,26.3,91.4,29.8z M86,31.5c-0.6,1-1,1.7-1.3,2.2c-0.3,0.5-0.4,0.8-0.5,1.1
		c-0.1,0.5,0.1,0.9,0.4,1.2c0.7,0.1,1.5-0.2,2.1-0.7c0.7-0.5,1.1-1.1,1.4-1.9c0.4-1,0.5-2.5,0.4-4.6c-0.1-0.2-0.3-0.3-0.6-0.1
		c-0.3,0.1-0.5,0.4-0.7,0.6C87,29.8,86.6,30.5,86,31.5z"/>
	<path fill="#227739" d="M97.8,10.3c-0.3,0-0.7,0.1-1.3,0.4c-0.6,0.3-1,0.4-1.3,0.3c-0.2-0.1-0.4-0.2-0.5-0.5
		c-0.1-0.2-0.1-0.5-0.1-0.7c0.1-0.7,0.5-1,1-1.2c0.8-0.2,1.8,0.1,3,1c-0.2,0.3-0.5,0.5-0.7,0.8L97.8,10.3z M98.6,27.1
		c-0.4,0.4-0.9,0.6-1.5,0.5c-0.3,0-0.5-0.1-0.7-0.3C96.1,27.2,96,27,96,26.7c0-0.8-0.1-2.1-0.2-3.7s-0.2-2.9-0.2-3.7
		c-0.1-1.1,0.1-1.9,0.5-2.4c0.3-0.3,0.7-0.5,1.1-0.4c0.5,0.1,0.8,0.3,0.8,0.7c0.1,0.7,0.2,1.8,0.5,3.4c0.2,1.5,0.4,2.6,0.5,3.4
		C99.2,25.4,99.1,26.5,98.6,27.1z"/>
	<path fill="#227739" d="M104.2,27.5c-1.4-0.3-2.5-1.2-3.3-2.7c-0.7-1.4-0.9-2.9-0.4-4.3c0.5-1.5,1.4-2.9,2.8-4.1
		c1.4-1.3,2.9-2,4.3-2c0.4,0.6,0.3,1.3-0.2,2c0,0.1-0.7,0.8-1.9,2.1c-0.9,0.9-1.4,1.8-1.6,2.5c-0.3,1,0,2.1,0.8,3.3
		c0.4,0.5,1,0.8,1.7,0.8c0.7,0,1.4-0.2,2.1-0.5c0,0,0.6-0.4,1.8-1.1c0.7-0.5,1.3-0.8,1.9-0.9c0.4,0.5,0.4,1,0,1.7
		c-0.3,0.5-0.8,1-1.5,1.4C108,27.3,105.9,27.9,104.2,27.5z"/>
	<path fill="#227739" d="M117.6,24.2c0.5-0.1,0.9-0.4,1.3-0.8c0.5-0.5,0.9-1.1,1.3-1.8c0.4-0.8,0.7-1.5,0.7-2.1
		c0.1-0.6,0.3-0.8,0.7-0.7c0.4,0.1,0.7,0.4,1.1,0.9c0.3,0.4,0.2,0.9-0.1,1.5c-0.5,0.9-0.8,1.4-0.9,1.6c-0.1,0.2,0,0.5,0.3,0.8
		c0.3,0.2,0.6,0.5,1.1,0.6c1,0.4,1.8,0.6,2.4,0.5c-0.2,0.4-0.5,0.7-0.9,1c-0.4,0.2-0.8,0.4-1.3,0.4c-0.5,0.1-0.9,0-1.3-0.2
		c-0.5-0.2-0.8-0.4-1.1-0.8c-0.2-0.2-0.4-0.4-0.8-0.4c-0.3,0-0.6,0-0.9,0.2c-0.2,0.1-0.4,0.2-0.8,0.4c-0.3,0.2-0.6,0.3-0.8,0.4
		c-0.9,0.3-1.7,0.1-2.5-0.5c-0.8-0.6-1.3-1.4-1.4-2.4c-0.2-1.5,0.4-3.2,1.8-5.1c0.7-0.9,1.3-1.5,2-1.8c0.5-0.2,1.1-0.3,1.8-0.2
		c0.8,0.1,1.3,0.3,1.5,0.7c-1.7,0.4-3,1.3-3.9,2.5c-0.7,1-1.1,2.2-1.1,3.7c0,0.7,0.1,1.1,0.4,1.4C116.6,24.2,117.1,24.3,117.6,24.2z
		"/>
	<path fill="#227739" d="M131.5,13.1c-0.1,1.2-0.1,2.3-0.1,3.2c0.1,3.7,0.2,6.6,0.2,8.5c0,1.5,0.3,2.5,0.8,3
		c-0.3,0.3-0.7,0.5-1.2,0.5c-0.5,0-0.9-0.2-1.2-0.5c-0.4-0.4-0.7-1.3-0.9-2.6c-1.1-6.7-1.1-11.3,0.2-13.8c0.2-0.6,0.4-1.1,0.6-1.3
		c0.2-0.2,0.4-0.3,0.7-0.3c0.3,0,0.5,0,0.6,0.2c0.1,0.2,0.2,0.4,0.2,0.8C131.4,11.7,131.4,12.5,131.5,13.1z"/>
	<path fill="#227739" d="M153.2,14.7c-1.1,3.6-2.2,7.1-3.4,10.7c-0.2,0.6-0.7,1-1.5,1.2c-0.7,0.2-1.4,0-2-0.3
		c-0.8-0.5-1.6-1.6-2.3-3.3c-0.5-1.1-0.7-2-0.8-2.9c-0.1-1.1,0.3-1.9,1-2.4c0.6,2.3,1.6,4.4,3,6.3c0.5-0.8,1.2-2.1,2.1-3.8
		s1.6-3,2.1-3.8C152,15.3,152.6,14.7,153.2,14.7z"/>
	<path fill="#227739" d="M154.3,19c0-0.7,0.1-1.1,0.3-1.5c0.1-0.2,0.3-0.4,0.6-0.4c0.2-0.1,0.5-0.1,0.7,0.1c0.2,0.1,0.4,0.4,0.5,0.9
		c0.6,2,1.1,3.6,1.5,5c0.1,0.2,0.2,0.4,0.5,0.5c0.2,0.1,0.5,0.1,0.7,0c0.3-0.1,0.7-0.4,1.1-0.9c1.2-1.5,2-3.3,2.6-5.2
		c0.2-0.9,0.6-1.3,0.9-1.4c0.3-0.1,0.7,0.1,1,0.4c0.2,0.3,0.4,0.7,0.5,1.2c0.9,3.1,1.6,6.3,2.2,9.5c0.1,0.6,0.1,1-0.1,1.3
		c-0.1,0.2-0.3,0.3-0.6,0.3c-0.2,0-0.5,0-0.7-0.2c-0.3-0.2-0.6-0.6-0.9-1.2c-0.3-0.5-0.7-1.3-1.3-2.4c-0.3-1.2-0.6-2-0.9-2.6
		c-0.8,1.2-1.4,2.1-1.9,2.7c-0.7,0.8-1.5,1.3-2.3,1.3c-0.7,0-1.3-0.2-1.9-0.7c-0.5-0.4-1-1-1.4-1.8C154.7,22.3,154.3,20.7,154.3,19z
		"/>
	<path fill="#227739" d="M168.6,17.3c0.7-1.1,1.7-1.9,2.9-2.3c1.3-0.5,2.6-0.4,3.9,0.3c0.6,0.3,1.1,0.7,1.4,1.2
		c0.4,0.5,0.5,1,0.5,1.6c-1.6,2.4-3.8,4.3-6.6,5.8c0.3,0.6,0.9,1.1,1.8,1.4c0.8,0.2,1.6,0.3,2.5,0.1c1.3-0.3,2.8-1.1,4.7-2.5
		c-0.4,1.8-1,2.9-1.8,3.5c-1.5,1.1-3.2,1.6-5.1,1.6c-1.7-0.1-3.1-0.8-4.2-2.4c-1-1.4-1.4-3-1.2-4.7C167.6,19.5,168,18.4,168.6,17.3z
		 M174.4,19c0.3-0.5,0.2-1-0.2-1.6c-0.4-0.5-0.9-0.8-1.5-0.8c-1,1.2-1.4,2.5-1.4,3.9c0.6,0,1.1-0.2,1.7-0.5s0.9-0.7,1.1-1.2
		L174.4,19z"/>
	<path fill="#227739" d="M196,24.2c0.5-0.1,0.9-0.4,1.3-0.8c0.5-0.5,0.9-1.1,1.3-1.8c0.4-0.8,0.7-1.5,0.7-2.1
		c0.1-0.6,0.3-0.8,0.7-0.7c0.4,0.1,0.7,0.4,1.1,0.9c0.3,0.4,0.2,0.9-0.1,1.5c-0.5,0.9-0.8,1.4-0.9,1.6c-0.1,0.2,0,0.5,0.3,0.8
		c0.3,0.2,0.6,0.5,1.1,0.6c1,0.4,1.8,0.6,2.4,0.5c-0.2,0.4-0.5,0.7-0.9,1c-0.4,0.2-0.8,0.4-1.3,0.4c-0.5,0.1-0.9,0-1.3-0.2
		c-0.5-0.2-0.8-0.4-1.1-0.8c-0.2-0.2-0.4-0.4-0.8-0.4c-0.3,0-0.6,0-0.9,0.2c-0.2,0.1-0.4,0.2-0.8,0.4c-0.3,0.2-0.6,0.3-0.8,0.4
		c-0.9,0.3-1.7,0.1-2.5-0.5c-0.8-0.6-1.3-1.4-1.4-2.4c-0.2-1.5,0.4-3.2,1.8-5.1c0.7-0.9,1.3-1.5,2-1.8c0.5-0.2,1.1-0.3,1.8-0.2
		c0.8,0.1,1.3,0.3,1.5,0.7c-1.7,0.4-3,1.3-3.9,2.5c-0.7,1-1.1,2.2-1.1,3.7c0,0.7,0.1,1.1,0.4,1.4C195,24.2,195.4,24.3,196,24.2z"/>
	<path fill="#227739" d="M214.6,13.7c0.2-0.6,0.4-1.4,0.5-2.6c0.1-0.9,0.4-1.8,0.9-2.5c0.6-0.8,1.2-1.2,2-1
		c0.1,3.3,0.4,8.8,0.7,16.6c0.1,1-0.1,1.8-0.3,2.2c-0.2,0.4-0.5,0.6-0.9,0.8c-0.4,0.2-0.8,0.2-1.1,0c-0.6-0.4-1.5-0.4-2.6,0
		c-2,0.6-2.9,1-2.8,0.9c-0.8,0.2-1.5,0.1-2.3-0.2c-0.7-0.3-1.3-0.8-1.8-1.4c-0.5-0.6-0.8-1.3-1-2.1c-0.2-0.8-0.2-1.6,0-2.4
		c0.4-1.5,1.2-2.9,2.6-4.1c1.2-1.1,2.7-2,4.4-2.6C213.8,15.2,214.3,14.6,214.6,13.7z M215.2,24c0.2-1,0.2-2.2,0-3.5l-0.6-3.5
		c-1.3,0.9-2.3,1.7-3,2.4c-1,1-1.7,2-2,3c-0.2,0.6-0.2,1.2,0,1.8c0.1,0.6,0.4,1.1,0.8,1.6c0.4,0.5,0.8,0.8,1.3,0.9
		c0.5,0.2,1.1,0.1,1.7-0.1C214.3,26.2,214.9,25.3,215.2,24z"/>
	<path fill="#227739" d="M223.6,18.5c0.3,1.6,0.5,2.8,0.6,3.6c0.1,0.4,0.2,1.2,0.5,2.5c0.3,1.2,0.4,2.1,0.5,2.5
		c-0.1,0.3-0.4,0.6-0.8,0.7c-0.4,0.1-0.8,0-1.1-0.2c-0.5-0.3-0.9-0.9-1.2-1.9c-0.5-1.7-0.7-3.5-0.6-5.6c0.2-2.2,0.7-4,1.5-5.3
		C223.2,15.7,223.4,16.9,223.6,18.5z M224.1,18c-0.5-0.5-0.8-0.9-1-1.2c-0.2-0.4-0.1-0.7,0.2-0.9c1.3,1,2.8,1.6,4.5,1.9
		c2.2,0.4,4.1,0,5.8-1c1.1-1.3,2.4-1.6,3.8-1c1.1,0.5,2.1,1.4,3,2.7c0.7,1,1.1,2.3,1.1,3.7c0,1.3-0.3,2.6-0.9,3.8
		c-0.3,0.7-0.8,1.1-1.4,1.5c-0.6,0.4-1.2,0.4-1.7,0.1c-0.1-0.4-0.1-1.1-0.2-2c-0.1-0.9-0.2-1.6-0.2-2c-0.1-1.1-0.3-1.9-0.5-2.5
		c-0.3-0.9-0.9-1.5-1.5-1.8c-0.6-0.3-1.3-0.3-2.1-0.1c-0.7,0.2-1.3,0.7-1.7,1.3c-0.8,1.1-0.9,2.5-0.5,4.2c0.1,0.5-0.1,0.9-0.6,1.2
		c-0.5,0.3-1.1,0.4-1.5,0.1c-0.8-0.5-1.3-1.4-1.3-2.8c-0.1-2-0.1-3.1-0.2-3.2C226.1,19.6,225.2,19,224.1,18z"/>
	<path fill="#227739" d="M245.3,10.3c-0.3,0-0.7,0.1-1.3,0.4c-0.5,0.3-1,0.4-1.3,0.3c-0.2-0.1-0.4-0.2-0.5-0.5
		c-0.1-0.2-0.1-0.5-0.1-0.7c0.1-0.7,0.5-1,1-1.2c0.8-0.2,1.8,0.1,3,1c-0.2,0.3-0.5,0.5-0.7,0.8L245.3,10.3z M246.1,27.1
		c-0.4,0.4-0.9,0.6-1.5,0.5c-0.3,0-0.5-0.1-0.7-0.3c-0.2-0.2-0.3-0.4-0.3-0.6c0-0.8-0.1-2.1-0.2-3.7s-0.2-2.9-0.2-3.7
		c-0.1-1.1,0.1-1.9,0.5-2.4c0.3-0.3,0.7-0.5,1.1-0.4c0.5,0.1,0.8,0.3,0.8,0.7c0.1,0.7,0.3,1.8,0.5,3.4c0.2,1.5,0.4,2.6,0.5,3.4
		C246.7,25.4,246.6,26.5,246.1,27.1z"/>
	<path fill="#227739" d="M250.1,25.5c-0.3-0.1-0.5-0.2-0.6-0.4c-0.2-0.3-0.4-0.7-0.5-1.3c-0.4-2.3-0.6-4.5-0.6-6.8
		c0.3-0.2,0.6-0.1,0.9,0.2c0.3,0.3,0.4,0.7,0.4,1.1c0,0.6,0,1,0.1,1.2c0.1,0.4,0.3,0.7,0.6,0.8c0.6-1.7,1.4-2.7,2.4-3.1
		c1-0.4,2-0.3,3,0.4c1,0.6,1.6,1.5,1.8,2.6c0.2,1,0.1,2-0.3,3.1c-0.4,1-1,1.9-1.8,2.7c-0.5-0.6-0.7-1.5-0.8-2.9
		c0-1.5-0.1-2.6-0.4-3.1c-0.1-0.3-0.3-0.6-0.6-0.8c-0.3-0.2-0.6-0.3-0.9-0.3c-0.4,0.1-0.8,0.4-1.1,1c-1,1.7-1.3,3.6-1,5.5
		C250.6,25.5,250.4,25.5,250.1,25.5z"/>
	<path fill="#227739" d="M275.5,19.8c-0.1,1.6-0.1,2.9,0,3.8c0.2,1.4,0.6,2.5,1.4,3.4c0.4-0.4,1-0.6,1.6-0.7c0.6-0.1,1.2,0,1.8,0.2
		c-0.9,0.9-1.9,1.4-3,1.5c-0.6,0.1-1.2,0-1.7-0.2c-0.6-0.2-1.1-0.5-1.5-0.9c-0.8-0.8-1.2-2.2-1.3-4.1c0-0.9,0-1.8,0.1-2.7
		c0-0.6,0-1.2,0-1.5c-0.1-0.6-0.4-1-0.7-1.2c0,0-0.4-0.1-1.3-0.5c-0.2-0.1-0.4-0.2-0.6-0.4c-0.2-0.2-0.3-0.4-0.2-0.6
		c0.1-0.3,0.3-0.5,0.7-0.7c0.2-0.1,0.6-0.2,1-0.3c0.4-0.1,0.7-0.2,1-0.3c0.3-0.2,0.5-0.5,0.5-0.8c0-0.3,0-0.7,0-1.2s0-0.9,0-1.2
		c0-0.8,0.1-1.3,0.2-1.7c0.1-0.3,0.3-0.5,0.5-0.7c0.3-0.2,0.5-0.2,0.8-0.2c0.4,0.1,0.7,0.3,0.9,0.7c0.2,0.3,0.3,0.7,0.3,1.2
		c0,0.2,0,0.6-0.1,1.2c-0.1,0.5-0.1,0.9,0,1.2c0.1,0.4,0.3,0.8,0.6,1.1c0.3,0.3,0.7,0.4,1,0.3c0.3-0.1,0.7-0.1,1,0
		c0.3,0.1,0.6,0.3,0.9,0.5c-0.3,0.5-0.9,1-1.9,1.7c-0.9,0.6-1.5,1.2-1.7,1.8C275.6,18.6,275.5,19.1,275.5,19.8z"/>
	<path fill="#227739" d="M282.2,17.3c0.7-1.1,1.7-1.9,2.9-2.3c1.3-0.5,2.6-0.4,3.9,0.3c0.6,0.3,1.1,0.7,1.4,1.2
		c0.4,0.5,0.5,1,0.5,1.6c-1.6,2.4-3.8,4.3-6.6,5.8c0.3,0.6,0.9,1.1,1.8,1.4c0.8,0.2,1.6,0.3,2.5,0.1c1.3-0.3,2.8-1.1,4.7-2.5
		c-0.4,1.8-1,2.9-1.8,3.5c-1.5,1.1-3.2,1.6-5.1,1.6c-1.7-0.1-3.1-0.8-4.2-2.4c-1-1.4-1.4-3-1.2-4.7
		C281.2,19.5,281.6,18.4,282.2,17.3z M288,19c0.3-0.5,0.2-1-0.2-1.6c-0.4-0.5-0.9-0.8-1.5-0.8c-1,1.2-1.4,2.5-1.4,3.9
		c0.6,0,1.1-0.2,1.7-0.5s0.9-0.7,1.1-1.2L288,19z"/>
	<path fill="#227739" d="M297,18.5c0.3,1.6,0.5,2.8,0.6,3.6c0.1,0.4,0.2,1.2,0.5,2.5c0.3,1.2,0.4,2.1,0.5,2.5
		c-0.1,0.3-0.4,0.6-0.8,0.7c-0.4,0.1-0.8,0-1.1-0.2c-0.5-0.3-0.9-0.9-1.2-1.9c-0.5-1.7-0.7-3.5-0.6-5.6c0.2-2.2,0.7-4,1.5-5.3
		C296.5,15.7,296.7,16.9,297,18.5z M297.4,18c-0.5-0.5-0.8-0.9-1-1.2c-0.2-0.4-0.1-0.7,0.2-0.9c1.3,1,2.8,1.6,4.5,1.9
		c2.2,0.4,4.1,0,5.8-1c1.1-1.3,2.4-1.6,3.8-1c1.1,0.5,2.1,1.4,3,2.7c0.7,1,1.1,2.3,1.1,3.7c0,1.3-0.3,2.6-0.9,3.8
		c-0.3,0.7-0.8,1.1-1.4,1.5c-0.6,0.4-1.2,0.4-1.7,0.1c-0.1-0.4-0.1-1.1-0.2-2c-0.1-0.9-0.2-1.6-0.2-2c-0.1-1.1-0.3-1.9-0.5-2.5
		c-0.3-0.9-0.9-1.5-1.5-1.8c-0.6-0.3-1.3-0.3-2.1-0.1c-0.7,0.2-1.3,0.7-1.7,1.3c-0.8,1.1-0.9,2.5-0.5,4.2c0.1,0.5-0.1,0.9-0.6,1.2
		c-0.5,0.3-1.1,0.4-1.5,0.1c-0.8-0.5-1.3-1.4-1.3-2.8c-0.1-2-0.1-3.1-0.2-3.2C299.5,19.6,298.5,19,297.4,18z"/>
	<path fill="#227739" d="M325.9,16.1c0.5,1,0.7,2,0.3,3.1c-0.5,1.6-2.6,3.6-6.4,6c-0.2-0.4,0.1-1,0.7-1.8c0-0.2,0.7-1.2,2-3.2
		c0.1-0.4,0.1-0.7,0.1-0.9c0.1-0.6-0.1-1.2-0.3-1.7c-0.3-0.6-0.9-0.6-1.8-0.2c-0.6,0-1.1,0.3-1.5,1c-0.3,0.6-0.5,1.2-0.5,2
		c-0.2,4.2,0.2,8.4,1.3,12.5c0.1,0.3,0,0.6-0.1,0.8c-0.1,0.2-0.4,0.4-0.7,0.5c-0.7,0.3-1.3,0.3-1.8-0.1c-0.7-0.5-1.2-1.7-1.3-3.4
		c-0.3-2.9-0.5-5.1-0.6-6.7c-0.2-1.8-0.2-3.1,0-4.2c0.2-1.5,0.7-2.7,1.6-3.6c0.8-0.8,1.8-1.3,3.1-1.6c1-0.2,2.2-0.3,3.7-0.2
		C324.6,14.5,325.4,15.1,325.9,16.1z"/>
	<path fill="#227739" d="M331.3,13.1c-0.1,1.2-0.1,2.3-0.1,3.2c0.1,3.7,0.2,6.6,0.2,8.5c0,1.5,0.3,2.5,0.8,3
		c-0.3,0.3-0.7,0.5-1.2,0.5c-0.5,0-0.9-0.2-1.2-0.5c-0.4-0.4-0.7-1.3-0.9-2.6c-1.1-6.7-1.1-11.3,0.2-13.8c0.2-0.6,0.4-1.1,0.6-1.3
		c0.2-0.2,0.4-0.3,0.7-0.3c0.3,0,0.5,0,0.6,0.2c0.1,0.2,0.2,0.4,0.2,0.8C331.2,11.7,331.3,12.5,331.3,13.1z"/>
	<path fill="#227739" d="M337.3,24.2c0.5-0.1,0.9-0.4,1.3-0.8c0.5-0.5,0.9-1.1,1.3-1.8c0.4-0.8,0.7-1.5,0.7-2.1
		c0.1-0.6,0.3-0.8,0.7-0.7c0.4,0.1,0.7,0.4,1.1,0.9c0.3,0.4,0.2,0.9-0.1,1.5c-0.5,0.9-0.8,1.4-0.9,1.6c-0.1,0.2,0,0.5,0.3,0.8
		c0.3,0.2,0.6,0.5,1.1,0.6c1,0.4,1.8,0.6,2.4,0.5c-0.2,0.4-0.5,0.7-0.9,1c-0.4,0.2-0.8,0.4-1.3,0.4c-0.5,0.1-0.9,0-1.3-0.2
		c-0.5-0.2-0.8-0.4-1.1-0.8c-0.2-0.2-0.4-0.4-0.8-0.4c-0.3,0-0.6,0-0.9,0.2c-0.2,0.1-0.4,0.2-0.8,0.4c-0.3,0.2-0.6,0.3-0.8,0.4
		c-0.9,0.3-1.7,0.1-2.5-0.5c-0.8-0.6-1.3-1.4-1.4-2.4c-0.2-1.5,0.4-3.2,1.8-5.1c0.7-0.9,1.3-1.5,2-1.8c0.5-0.2,1.1-0.3,1.8-0.2
		c0.8,0.1,1.3,0.3,1.5,0.7c-1.7,0.4-3,1.3-3.9,2.5c-0.7,1-1.1,2.2-1.1,3.7c0,0.7,0.1,1.1,0.4,1.4C336.3,24.2,336.7,24.3,337.3,24.2z
		"/>
	<path fill="#227739" d="M352.3,19.8c-0.1,1.6-0.1,2.9,0,3.8c0.2,1.4,0.6,2.5,1.4,3.4c0.4-0.4,1-0.6,1.6-0.7c0.6-0.1,1.2,0,1.8,0.2
		c-0.9,0.9-1.9,1.4-3,1.5c-0.6,0.1-1.2,0-1.7-0.2c-0.6-0.2-1.1-0.5-1.5-0.9c-0.8-0.8-1.2-2.2-1.3-4.1c0-0.9,0-1.8,0.1-2.7
		c0-0.6,0-1.2,0-1.5c-0.1-0.6-0.4-1-0.7-1.2c0,0-0.4-0.1-1.3-0.5c-0.2-0.1-0.4-0.2-0.6-0.4c-0.2-0.2-0.3-0.4-0.2-0.6
		c0.1-0.3,0.3-0.5,0.7-0.7c0.2-0.1,0.6-0.2,1-0.3c0.4-0.1,0.7-0.2,1-0.3c0.3-0.2,0.5-0.5,0.5-0.8c0-0.3,0-0.7,0-1.2s0-0.9,0-1.2
		c0-0.8,0.1-1.3,0.2-1.7c0.1-0.3,0.3-0.5,0.5-0.7c0.3-0.2,0.5-0.2,0.8-0.2c0.4,0.1,0.7,0.3,0.9,0.7c0.2,0.3,0.3,0.7,0.3,1.2
		c0,0.2,0,0.6-0.1,1.2c-0.1,0.5-0.1,0.9,0,1.2c0.1,0.4,0.3,0.8,0.6,1.1c0.3,0.3,0.7,0.4,1,0.3c0.3-0.1,0.7-0.1,1,0
		c0.3,0.1,0.6,0.3,0.9,0.5c-0.3,0.5-0.9,1-1.9,1.7c-0.9,0.6-1.5,1.2-1.7,1.8C352.4,18.6,352.4,19.1,352.3,19.8z"/>
	<path fill="#227739" d="M359.1,17.3c0.7-1.1,1.7-1.9,2.9-2.3c1.3-0.5,2.6-0.4,3.9,0.3c0.6,0.3,1.1,0.7,1.4,1.2
		c0.4,0.5,0.5,1,0.5,1.6c-1.6,2.4-3.8,4.3-6.6,5.8c0.3,0.6,0.9,1.1,1.8,1.4c0.8,0.2,1.6,0.3,2.5,0.1c1.3-0.3,2.8-1.1,4.7-2.5
		c-0.4,1.8-1,2.9-1.8,3.5c-1.5,1.1-3.2,1.6-5.1,1.6c-1.7-0.1-3.1-0.8-4.2-2.4c-1-1.4-1.4-3-1.2-4.7C358,19.5,358.4,18.4,359.1,17.3z
		 M364.8,19c0.3-0.5,0.2-1-0.2-1.6c-0.4-0.5-0.9-0.8-1.5-0.8c-1,1.2-1.4,2.5-1.4,3.9c0.6,0,1.1-0.2,1.7-0.5s0.9-0.7,1.1-1.2
		L364.8,19z"/>
</g>
</svg>
