<?xml version="1.0" encoding="utf-8"?>
<!-- Generator: Adobe Illustrator 22.1.0, SVG Export Plug-In . SVG Version: 6.00 Build 0)  -->
<svg version="1.2" baseProfile="tiny" id="图层_1"
	 xmlns="http://www.w3.org/2000/svg" xmlns:xlink="http://www.w3.org/1999/xlink" x="0px" y="0px" viewBox="0 0 357.3 97.3"
	 xml:space="preserve">
<g>
	<g>
		<path d="M147.5,46.6c2.8-10.1,5.5-19.7,8.1-29.2c1.6,1,2.9,1.8,4.1,2.6c0-1.3-0.1-2.7,0.1-4c0.5-2.5,1.2-5,1.8-7.5
			c0.7,0,1.4-0.1,2.1-0.1c4,11.9,8,23.9,12.1,36c-2.5,0.5-4.4,0.8-6.8,1.3c-1.3-4.2-2.7-8.4-3.7-11.7c-1.9,1-3.4,2.4-5.1,2.6
			c-3.2,0.4-5.3,1.6-5.8,4.9C154.1,45.2,151.9,46.6,147.5,46.6z M164.8,30.8c-1-3-1.9-5.7-2.8-8.4c-0.4,0-0.8,0.1-1.1,0.1
			c-0.9,2.9-1.8,5.9-2.9,9.4C160.6,31.5,162.4,31.2,164.8,30.8z"/>
		<path d="M238.1,45.8c-1.3-4.3-2.6-8.5-3.6-11.8c-2.1,1.1-3.7,2.4-5.5,2.7c-3,0.5-4.9,1.8-5.3,4.8c-0.5,3.6-2.7,5.1-7.1,5.2
			c2.8-10,5.5-19.7,8.1-29.1c1.6,1,2.8,1.7,4.1,2.5c0.1-1.3,0-2.7,0.3-3.9c0.6-2.6,1.3-5.2,2-7.8c0.7,0,1.3,0.1,2,0.1
			c4,11.9,8,23.8,12,35.9C242.6,44.9,240.7,45.3,238.1,45.8z M231,22.6c-0.4,0-0.8,0-1.2,0c-0.9,2.9-1.9,5.8-3,9.4
			c2.8-0.4,4.7-0.7,7.1-1.1C232.8,27.7,231.9,25.1,231,22.6z"/>
		<path d="M131.5,44.1c-2.5-2.7-2.5-2.7-7,2.2c-3.5-11.2-6.7-21.8-9.9-32.2c7.9-1.4,8.2,3.9,9.1,8.8c0.7,3.8,2,7.5,3,11.3
			c0.5,0,1,0.1,1.5,0.1c1.8-6.1,3.9-12.1,5.3-18.3c0.8-3.7,2.7-5.4,7-5.8C139.6,22.1,135.6,32.8,131.5,44.1z"/>
		<path d="M193.2,45.5c-3.2-10.5-6.4-20.9-9.7-31.9c2.8,0.5,5.8,0.2,6.9,1.5c1.5,1.7,1.5,4.6,2.2,7c1.1,4,2.1,8.1,3.2,12.2
			c0.5,0,1.1,0.1,1.6,0.1c1.8-6.1,3.9-12.2,5.2-18.4c0.8-3.8,2.9-5.2,8-5.9c-3.2,11.8-6.2,22.9-9.4,34.6
			C196.9,38.7,196.4,45.1,193.2,45.5z"/>
		<path d="M199.4,86.5c-4.6,0-9.8,1.4-10.2-4.6c-0.4-5.1,4.2-5.5,8.3-5.9c0.3-1.6,0.5-3.1,0.8-4.6C202,76.2,199.4,81.3,199.4,86.5z
			 M197.6,76.8c-2.5,1.4-4.4,2.1-5.7,3.4c-0.5,0.6-0.3,3,0.4,3.5c1.4,0.9,3.3,1.1,5.2,1.7C197.6,82.3,197.6,80.2,197.6,76.8z"/>
		<path d="M72.7,91.4c1.3-1.8,2.6-3.5,3.8-5.2c-4.5-0.3-8.3-0.4-8.4-4.8c-0.1-6.9,5.7-4.2,11-5.2c-1,5.3-1.7,10-2.9,14.6
			C76.1,91.3,73.6,91.3,72.7,91.4z M73.7,76.2c-1.6,2.4-3.1,3.7-3,4.8c0.1,1.1,1.7,2.1,2.6,3.2c0.9-0.9,2.4-1.8,2.5-2.9
			C75.9,80.1,74.9,78.8,73.7,76.2z"/>
		<path d="M26.8,86.7c-2-3.3-4-6.7-6-10c-0.3,0.1-0.7,0.1-1,0.2c-0.1,1.5-0.2,3-0.3,5.3c-0.5,0.4-1.9,1.5-3.9,3
			c1.3-5,2.5-9.6,3.9-15c3.5,6,6.3,10.8,9,15.7C27.9,86.1,27.4,86.4,26.8,86.7z"/>
		<path d="M279.8,86c0-2,0.3-4-0.1-5.9c-0.2-0.9-1.7-1.5-2.5-2.3c-0.6,0.8-1.5,1.6-1.7,2.5c-0.3,1.8-0.1,3.6-0.1,5.4
			c-0.5,0-1,0.1-1.6,0.1c0-1.8,0.2-3.5-0.1-5.2c-0.1-0.9-1-1.8-1.5-2.7c-0.6,0.8-1.6,1.5-1.9,2.4c-0.5,1.5-0.7,3.2-1.4,4.7
			c0-2.7,0-5.4,0-8.3c3-0.1,6-0.5,9-0.3c1,0.1,2.7,1.2,2.9,2.1c0.4,2.5,0.1,5,0.1,7.6C280.6,86.1,280.2,86,279.8,86z"/>
		<path d="M205.1,76.7c3-0.1,6-0.6,8.7-0.2c1.3,0.2,2.9,2,3.3,3.3c0.6,1.9,0.1,4.2-1,6.4c-0.1-1.6,0.1-3.4-0.4-4.9
			c-0.4-1.3-1.6-2.3-2.4-3.5c-0.6,1.1-1.6,2.1-1.9,3.3c-0.4,1.5-0.2,3.1-0.3,4.6c-0.4,0-0.9,0-1.3,0c0-1.8,0.2-3.7-0.1-5.5
			c-0.1-0.9-1.2-1.6-1.8-2.3c-0.5,0.7-1.3,1.3-1.6,2.1c-0.5,1.6-0.6,3.2-1.3,4.8C205.1,82.3,205.1,79.7,205.1,76.7z"/>
		<path d="M37.9,85c0-2.6,0-5.3,0-8.2c3.1-0.1,6.1-0.6,9-0.3c1.2,0.1,2.9,1.7,3.2,3c0.5,2.1,0.1,4.5-1,6.8c-0.1-1.8,0.1-3.7-0.4-5.5
			c-0.3-1.1-1.6-1.9-2.5-2.9c-0.6,1-1.5,1.9-1.7,2.9c-0.3,1.6-0.1,3.3-0.1,4.9c-0.5,0-1,0.1-1.6,0.1c0-1.7,0.2-3.5-0.1-5.2
			c-0.1-1-1-1.8-1.5-2.7c-0.7,0.8-1.6,1.4-1.9,2.3c-0.5,1.5-0.7,3.2-1,4.8C38.3,85,38.1,85,37.9,85z"/>
		<path d="M287.5,86.5c-0.3,1.2-0.7,2.4-1.1,3.7c-0.2,0-0.3,0-0.5,0c0-4.4,0-8.8,0-13.2c6.9-0.6,9.4,0.6,9.4,4.6
			C295.4,85.3,292.9,86.9,287.5,86.5z M286,81.6c1.8,1.7,2.8,2.6,3.8,3.6c1-1.3,2.7-2.5,2.8-3.8c0.1-1-1.6-2.3-2.6-3.4
			C289,78.9,287.8,79.9,286,81.6z"/>
		<path d="M110.7,75.6c0.3,4.9,0.5,8,0.7,12.4c-3.1-1-6.3-1.3-8.4-3c-1.1-0.8-1-4.9,0.1-6.2C104.7,77.2,107.7,76.8,110.7,75.6z
			 M111,82.6c-1.5-1.6-2.4-2.7-3.3-3.7c-1.1,1.2-2.9,2.4-3,3.8c-0.1,1.1,1.9,2.3,3,3.5C108.6,85.1,109.6,84.1,111,82.6z"/>
		<path d="M317.4,87.2c-7.5,0-9.9-1.5-9.4-5.8c0.4-4,2.6-5.2,8.7-4.4C316.9,80.2,317.2,83.5,317.4,87.2z M317,83
			c-1.4-1.8-2.2-2.9-3.1-4.1c-1.1,1.3-2.7,2.6-3.2,4.1c-0.2,0.7,1.6,2.6,2.9,3C314.2,86.2,315.5,84.3,317,83z"/>
		<path d="M62.4,87.1c-7.5,0.1-9.8-1.3-9.5-5.6c0.3-4,2.7-5.3,8.7-4.6C61.9,80.1,62.1,83.4,62.4,87.1z M62,82.8
			c-1.4-1.7-2.3-2.8-3.2-3.9c-1.1,1.2-3,2.4-3.1,3.6c-0.1,1.1,1.8,2.4,2.8,3.6C59.5,85.2,60.5,84.3,62,82.8z"/>
		<path d="M184.4,87.2c-7.5,0.1-9.8-1.3-9.4-5.6c0.3-4,2.7-5.3,8.7-4.6C183.9,80.1,184.1,83.4,184.4,87.2z M184,82.4
			c-1.5-1.5-2.5-2.5-3.4-3.5c-1,1.3-2.8,2.5-2.9,3.9c0,1.1,2,2.2,3.1,3.4C181.7,85.1,182.6,84,184,82.4z"/>
		<path d="M234.9,85.9c0-1.8,0.2-3.6-0.1-5.4c-0.1-0.9-1.1-1.7-1.7-2.6c-0.9,0.7-2.3,1.2-2.7,2.2c-0.8,1.7-1,3.7-2.1,5.6
			c0-2.9,0-5.9,0-8.8C236.6,76.6,237.6,77.8,234.9,85.9z"/>
		<path d="M145.5,77c0,2-0.2,3.9,0.1,5.8c0.1,0.8,1.2,1.5,1.9,2.3c0.8-0.8,2.2-1.5,2.3-2.4c0.4-1.9,0.1-3.9,1.2-5.9
			c0.4,3.4,0.8,6.9,1.2,10.4c-2.4-0.7-6-0.7-7.5-2.5c-1.4-1.6-0.6-5.1-0.8-7.8C144.4,77,144.9,77,145.5,77z"/>
		<path d="M96.6,88.2c-2.2-1-5-1.4-6.3-3c-1-1.4-1-4.8,0-6.2c1.2-1.7,4-2.2,7.1-3.8c-2.7,3.3-5.1,5.1-5.7,7.4
			c-0.3,1.1,3,3.1,4.7,4.6C96.5,87.6,96.5,87.9,96.6,88.2z"/>
		<path d="M163,81.8c0.6-0.9,1.1-1.7,1.6-2.5c-1.3-0.4-3.3-1.6-3.8-1.1c-1.4,1.2-3.4,3.5-3.1,4.8c0.5,1.8,3,2.9,4.7,4.5
			c-1.7,0.9-4,0.6-5.6-1.9c-1.9-3-1.1-6.2,1.8-7.8c1.7-0.9,5.3-0.9,6.5,0.3C167.9,80.6,165.4,81.5,163,81.8z"/>
		<path d="M261.9,82.4c0.8-1.6,1.3-2.5,1.7-3.3c-1.3-0.4-3.2-1.4-3.9-0.9c-1.4,1-3.4,3.5-3,4.4c0.8,1.9,3,3.2,5,5.1
			c-1.6-0.4-4.6-0.4-5.2-1.5c-1-1.8-1.3-5.1-0.3-6.7c1-1.6,4-2.2,6.2-2.6c0.8-0.1,1.9,1.9,2.8,3C264.2,80.6,263.2,81.4,261.9,82.4z"
			/>
		<path d="M339.7,88.4c-2.9-1.2-5.7-1.4-6.5-2.8c-1-1.6-1-4.8,0-6.3c1-1.5,3.7-2.4,5.8-2.7c0.9-0.1,2.1,2,3.2,3.2
			c-1,0.8-2.1,1.5-3.9,2.8c1.1-1.9,1.6-2.8,2.2-3.6c-1.3-0.3-3.2-1.4-3.9-0.9c-1.4,1.1-3.3,3.5-2.9,4.4
			C334.6,84.5,336.8,85.8,339.7,88.4z"/>
		<path d="M324.4,73.5c1.3,1.4,2.4,2.5,3.4,3.6c-3.5,2.3-3.5,7.5,0.2,9.8C323.9,87.4,321.8,79.5,324.4,73.5z"/>
		<path d="M250.9,87.6c-1.1-0.3-3-0.5-3.1-0.9c-0.7-4.3-1.1-8.7-1.6-13c0.4-0.1,0.8-0.2,1.2-0.2c1.1,1.2,2.3,2.4,3.4,3.6
			C247.3,79.4,247.3,84.7,250.9,87.6z"/>
		<path d="M304.2,86.1c-4.5,0.3-6.2-6.8-3.3-16.5C304,75.1,298.3,81.9,304.2,86.1z"/>
		<path d="M121.3,86.1c-4.6,0.3-6.3-6.7-3.4-16.5C121.1,75.1,115.3,82,121.3,86.1z"/>
		<path d="M140.4,77.1c-1.4,2.9-2.7,5.8-4.6,9.6c-1.7-3.6-2.9-6.2-4.2-8.9c0.4-0.2,0.8-0.5,1.3-0.7c0.9,1.6,1.8,3.2,3,5.3
			c1-2.2,1.9-4.2,2.8-6.1C139.2,76.6,139.8,76.9,140.4,77.1z"/>
	</g>
</g>
</svg>
