<?xml version="1.0" encoding="utf-8"?>
<!-- Generator: Adobe Illustrator 22.1.0, SVG Export Plug-In . SVG Version: 6.00 Build 0)  -->
<svg version="1.2" baseProfile="tiny" id="图层_1"
	 xmlns="http://www.w3.org/2000/svg" xmlns:xlink="http://www.w3.org/1999/xlink" x="0px" y="0px" viewBox="0 0 143 57.7"
	 xml:space="preserve">
<g>
	<path fill="#1A7B31" d="M34.2,17.7c0.4,5.8-0.8,14.3-3.5,25.5c-0.8,3.3-1.8,5.5-3.1,6.7c-1.4,1.2-3.2,1.7-5.3,1.5
		c-2-0.3-3.8-1.1-5.3-2.4c-2.1-1.9-3.9-5.3-5.3-10.2c-1.5-5.1-2.6-10.3-3.4-15.6C8,21,8,19.4,8.4,18.4c0.3-0.8,0.8-1.5,1.5-1.9
		c0.8-0.5,1.5-0.6,2.3-0.4c1.2,0.3,2.2,1.7,2.8,4.1c1.1,3.9,2.7,9.8,4.9,17.7c0.2,0.7,0.5,1.3,0.9,1.8c0.5,0.5,1,0.7,1.5,0.4
		c4.6-7.6,7.3-15.8,8.2-24.6c0-0.5,0.4-0.8,1-1c0.6-0.1,1.1,0,1.5,0.4C33.8,15.3,34.1,16.3,34.2,17.7z M22.8,47.5
		c1.6,0,3-0.9,4.4-2.7c1.3-1.8,1.9-3.7,1.8-5.6C28.1,42.6,26,45.4,22.8,47.5z"/>
	<path fill="#1A7B31" d="M63.5,50.2c-1-0.3-1.8-0.8-2.3-1.7c-0.8-1.1-1.2-2.9-1.3-5.5c0-0.6,0-1.4-0.1-2.5c-0.1-1.1-0.1-2-0.1-2.5
		c-0.1-1.7-0.4-2.9-0.9-3.6c-0.6-0.9-1.7-1.4-3.1-1.5c-0.7-0.1-2,0-3.9,0.1c-1.4,0.1-2.7-0.1-3.8-0.7c-1.3-0.6-1.9-1.5-1.9-2.7
		c0-0.6,0.3-1.2,0.8-1.8c0.5-0.5,1-0.9,1.7-1.1c0.9-0.3,2.2-0.3,4-0.2c0.5,0,1.3,0.1,2.3,0.2c1,0.1,1.8,0.2,2.4,0.2
		c-0.6-4.8-2-9.4-4.3-13.8c-0.4-0.8-0.8-1.2-1.2-1.4c-0.6-0.2-1.1-0.1-1.7,0.5c-0.4,0.4-0.8,1-1.1,1.8c-4.2,9.9-6.5,20.3-6.9,31
		c-0.1,1.5-0.3,2.6-0.6,3.2c-0.3,0.5-0.6,0.9-1.1,1.2c-0.5,0.3-1,0.4-1.5,0.2c-1.3-0.4-1.8-1.8-1.6-4.1c1.1-11.4,3.7-22.5,8-33.1
		c1.2-2.9,2.5-4.6,4.1-5.3c1.3-0.5,2.8-0.4,4.6,0.2c2.7,1,4.9,2.7,6.6,5.2c1.7,2.5,2.5,5.1,2.5,8c0,1,0.2,1.9,0.8,2.8
		c0.6,0.9,1.3,1.5,2.3,2c0.9,0.4,1.9,0.6,2.9,0.4c1-0.1,2-0.5,2.8-1c0.1,1.5-0.1,2.7-0.8,3.7c-0.5,0.7-1.2,1.4-2.2,2
		c-1.6,1-2.3,1.4-2.2,1.4c-0.7,0.5-0.9,1.1-0.9,1.7l1.5,11.3c0.3,2.4,0,4.1-1,4.9C65.4,50.3,64.5,50.5,63.5,50.2z"/>
	<path fill="#1A7B31" d="M97.5,17.7c0.4,5.8-0.8,14.3-3.5,25.5c-0.8,3.3-1.8,5.5-3.1,6.7c-1.4,1.2-3.2,1.7-5.3,1.5
		c-2-0.3-3.8-1.1-5.3-2.4c-2.1-1.9-3.9-5.3-5.3-10.2c-1.5-5.1-2.6-10.3-3.4-15.6c-0.3-2.2-0.3-3.8,0.1-4.9c0.3-0.8,0.8-1.5,1.5-1.9
		c0.8-0.5,1.5-0.6,2.3-0.4c1.2,0.3,2.2,1.7,2.8,4.1c1.1,3.9,2.7,9.8,4.9,17.7c0.2,0.7,0.5,1.3,0.9,1.8c0.5,0.5,1,0.7,1.5,0.4
		c4.6-7.6,7.3-15.8,8.2-24.6c0-0.5,0.4-0.8,1-1c0.6-0.1,1.1,0,1.5,0.4C97,15.3,97.4,16.3,97.5,17.7z M86,47.5c1.6,0,3-0.9,4.4-2.7
		c1.3-1.8,1.9-3.7,1.8-5.6C91.3,42.6,89.3,45.4,86,47.5z"/>
	<path fill="#1A7B31" d="M126.7,50.2c-1-0.3-1.8-0.8-2.3-1.7c-0.8-1.1-1.2-2.9-1.3-5.5c0-0.6,0-1.4-0.1-2.5c-0.1-1.1-0.1-2-0.1-2.5
		c-0.1-1.7-0.4-2.9-0.9-3.6c-0.6-0.9-1.7-1.4-3.1-1.5c-0.7-0.1-2,0-3.9,0.1c-1.4,0.1-2.7-0.1-3.8-0.7c-1.3-0.6-1.9-1.5-1.9-2.7
		c0-0.6,0.3-1.2,0.8-1.8c0.5-0.5,1-0.9,1.7-1.1c0.9-0.3,2.2-0.3,4-0.2c0.5,0,1.3,0.1,2.3,0.2c1,0.1,1.8,0.2,2.4,0.2
		c-0.6-4.8-2-9.4-4.3-13.8c-0.4-0.8-0.8-1.2-1.2-1.4c-0.6-0.2-1.1-0.1-1.7,0.5c-0.4,0.4-0.8,1-1.1,1.8c-4.2,9.9-6.5,20.3-6.9,31
		c-0.1,1.5-0.3,2.6-0.6,3.2c-0.3,0.5-0.6,0.9-1.1,1.2c-0.5,0.3-1,0.4-1.5,0.2c-1.3-0.4-1.8-1.8-1.6-4.1c1.1-11.4,3.7-22.5,8-33.1
		c1.2-2.9,2.5-4.6,4.1-5.3c1.3-0.5,2.8-0.4,4.6,0.2c2.7,1,4.9,2.7,6.6,5.2c1.7,2.5,2.5,5.1,2.5,8c0,1,0.2,1.9,0.8,2.8s1.3,1.5,2.3,2
		c0.9,0.4,1.9,0.6,2.9,0.4c1-0.1,2-0.5,2.8-1c0.1,1.5-0.1,2.7-0.8,3.7c-0.5,0.7-1.2,1.4-2.2,2c-1.6,1-2.3,1.4-2.2,1.4
		c-0.7,0.5-0.9,1.1-0.9,1.7l1.5,11.3c0.3,2.4,0,4.1-1,4.9C128.6,50.3,127.8,50.5,126.7,50.2z"/>
</g>
</svg>
