<svg xmlns="http://www.w3.org/2000/svg" width="972.5" height="832.63"><defs><linearGradient id="a" x1="616.47" y1="702.07" x2="616.47" y2="173.03" gradientTransform="rotate(-1.34 820.96 554.388)" gradientUnits="userSpaceOnUse"><stop offset="0" stop-color="gray" stop-opacity=".25"/><stop offset=".54" stop-color="gray" stop-opacity=".12"/><stop offset="1" stop-color="gray" stop-opacity=".1"/></linearGradient></defs><ellipse cx="506.03" cy="416.32" rx="466.48" ry="416.32" fill="tomato" opacity=".1"/><path d="M780.96 295.32a119 119 0 0 0-119 119c0 65.73 119 229 119 229s119-163.32 119-229a119 119 0 0 0-119-119zm0 180.26a61.25 61.25 0 1 1 61.29-61.26 61.24 61.24 0 0 1-61.29 61.22z" fill="tomato" opacity=".1"/><path d="M78.67 573.12s-21.19-71.95 4-124.91a113.67 113.67 0 0 0 9.19-71.3 190.58 190.58 0 0 0-10.09-33.46" fill="none" stroke="#535461" stroke-miterlimit="10" stroke-width="2"/><path d="M97.4 309.98c0 8.82-16 34.39-16 34.39s-16-25.57-16-34.39a16 16 0 1 1 31.93 0zm26.39 48.84c-4.79 7.41-32.09 20.19-32.09 20.19s.49-30.14 5.29-37.54a16 16 0 1 1 26.8 17.35zm-1.15 83.5c-7.88 4-37.9 1.23-37.9 1.23s15.65-25.77 23.52-29.74a16 16 0 1 1 14.38 28.51zm-15.1 62.93c-7.09 5.24-37.14 7.61-37.14 7.61s11.07-28 18.15-33.28a16 16 0 1 1 19 25.67zM58.17 380.72c6.33 6.15 35.79 12.51 35.79 12.51s-7.21-29.27-13.54-35.41a16 16 0 0 0-22.25 22.9zm-16.71 73.85c7.87 4 37.89 1.23 37.89 1.23s-15.64-25.77-23.52-29.74a16 16 0 0 0-14.37 28.51zm-6.4 74.02c7.09 5.24 37.14 7.61 37.14 7.61s-11.07-28-18.16-33.29a16 16 0 1 0-19 25.68z" fill="tomato"/><ellipse cx="515.71" cy="660.68" rx="283.99" ry="45.79" fill="tomato" opacity=".1"/><path d="M244.32 750.82s28-5.6 35.48-13.07 41.08-20.53 44.81-11.2 50.42 41.08 18.67 46.68-74.68 7.47-84 3.74-14.96-26.15-14.96-26.15z" fill="#a8a8a8"/><path d="M343.25 769.76c-31.74 5.6-74.68 7.47-84 3.74-7.11-2.85-12.05-16.51-14-22.87-.59.13-.94.19-.94.19s5.61 22.41 14.94 26.15 52.28 1.86 84-3.74c9.17-1.62 11.79-5.41 10.8-10.22-.75 3.14-3.95 5.55-10.8 6.75z" opacity=".2"/><path d="M725.98 655.96s28-5.6 35.48-13.07 41.07-20.57 44.79-11.2 50.41 41.08 18.67 46.68-74.69 7.47-84 3.73-14.94-26.14-14.94-26.14z" fill="#a8a8a8"/><path d="M824.94 674.9c-31.74 5.6-74.69 7.47-84 3.73-7.11-2.84-12-16.5-14-22.86l-.93.19s5.6 22.41 14.94 26.14 52.28 1.87 84-3.73c9.16-1.62 11.78-5.42 10.8-10.22-.8 3.17-3.99 5.55-10.81 6.75z" opacity=".2"/><path d="M679.25 758.21s5.49 7.18-2.54 18-14.65 20-12 26.76c0 0 12.11-20.14 22-20.43s3.41-12.22-7.46-24.33z" fill="tomato"/><path d="M679.25 758.21a9 9 0 0 1 1.12 2.25c9.62 11.3 14.74 21.85 5.5 22.11-8.62.25-18.95 15.65-21.43 19.54a9.3 9.3 0 0 0 .3.89s12.11-20.14 22-20.43 3.38-12.25-7.49-24.36z" opacity=".1"/><path d="M689.49 767.32c0 2.53-.29 4.58-.64 4.58s-.63-2-.63-4.58.35-1.34.7-1.34.57-1.15.57 1.34z" fill="#ffd037"/><path d="M692.99 770.38c-2.22 1.21-4.15 1.94-4.32 1.63s1.5-1.53 3.72-2.74 1.34-.33 1.51 0 1.35-.1-.91 1.11z" fill="#ffd037"/><path d="M650.25 758.21s-5.49 7.18 2.53 18 14.65 20 12 26.76c0 0-12.12-20.14-22-20.43s-3.37-12.22 7.47-24.33z" fill="tomato"/><path d="M650.25 758.21a8.63 8.63 0 0 0-1.12 2.25c-9.62 11.3-14.75 21.85-5.5 22.11 8.61.25 19 15.65 21.42 19.54a9.24 9.24 0 0 1-.29.89s-12.12-20.14-22-20.43-3.35-12.25 7.49-24.36z" opacity=".1"/><path d="M640.05 767.32c0 2.53.28 4.58.63 4.58s.63-2 .63-4.58-.35-1.34-.7-1.34-.56-1.15-.56 1.34z" fill="#ffd037"/><path d="M636.54 770.38c2.22 1.21 4.16 1.94 4.33 1.63s-1.5-1.53-3.72-2.74-1.35-.33-1.51 0-1.32-.1.9 1.11z" fill="#ffd037"/><path d="M641.8 802.06s15.36-.47 20-3.77 23.63-7.23 24.78-2 23.08 26.3 5.74 26.44-40.29-2.71-44.91-5.52-5.61-15.15-5.61-15.15z" fill="#a8a8a8"/><path d="M692.61 820.94c-17.34.13-40.29-2.71-44.91-5.52-3.52-2.14-4.92-9.83-5.39-13.38h-.51s1 12.39 5.59 15.2 27.57 5.66 44.91 5.52c5-.05 6.73-1.83 6.64-4.46-.69 1.61-2.6 2.61-6.33 2.64z" opacity=".2"/><path d="M16.73 577.54a63.16 63.16 0 0 0 3.29 63.4c2 3 3.84 5.15 5.31 5.73 7 2.77 21.17 9.58 21.17 9.58l34-13.36s5.52-29.2 10.74-54.27c3.56-17.1 7-32.27 8.41-34.93 3.52-6.55 0-77.86 0-77.86s-34-2.28-43.35 23.93l-4.09 8z" fill="#a8a8a8"/><path d="M61.87 585.43c20.67 23.69 29.39 3.2 29.39 3.2 3.56-17.1 7-32.27 8.41-34.93 3.52-6.55 0-77.86 0-77.86s-34-2.28-43.35 23.93l-4.09 8c-2.62 20.97-5.21 60.64 9.64 77.66z" fill="#fff" opacity=".1"/><path d="M66.41 651.46l120-13.86 21.42-140.89-16.2-36.58a148.17 148.17 0 0 0-28-42.25c-8.15-8.58-18-16.85-28.36-21a41.74 41.74 0 0 0-4.33-1.48 11.22 11.22 0 0 0-10 1.77c-14.8 10.49-20.09 55.09-21.8 76.56a239.6 239.6 0 0 1-3.57 26.29z" fill="#a8a8a8"/><path d="M146.3 495.2l-25 61.5c13.11-9.58 32.51-61.75 32.51-61.75l17.44 59.48-13.86-62.69a196.14 196.14 0 0 0 1.76-41.15c-1.09-15.73-15.87-41-23.89-53.71a41.74 41.74 0 0 0-4.33-1.48 11.22 11.22 0 0 0-10 1.77c6.3 12.65 22 44.27 26.85 53.68 6.08 11.84-1.48 44.35-1.48 44.35z" fill="#fff" opacity=".1"/><path d="M166.71 656.25h85.69s-2-84.18-14.61-130c-4.69-17-10.14-26-15.14-30.41a14.71 14.71 0 0 0-8.61-4.05 11.3 11.3 0 0 0-7 1.7c-12.1 11.59-26.21 72.58-26.21 72.58z" fill="#a8a8a8"/><path d="M226.86 602.16c2.68 7.43 3.74 16 0 24.35l-14.51 7.17s-39-16.54-34.26-50.41c0 0 1.28-7 14.71-6.47a38.1 38.1 0 0 1 34.06 25.36zm-15.54-89.06c-.44-11.88 6-15.95 11.33-17.31a14.71 14.71 0 0 0-8.61-4.05 22.8 22.8 0 0 0-7.5 12l-13.61 66.28s19.15-37.01 18.39-56.92z" fill="#fff" opacity=".1"/><path fill="#a8a8a8" d="M149.58 565.51l32.26 44.11 5.59 36.39-20.71 10.23-34.28 7.56-85.94-7.56 11.09-25.7 38.31-53.77 53.68-11.26z"/><path d="M137.1 550.4s22 1.51 13.74 39.31-93.25 40.83-93.25 40.83 18.06-32.06 45.84-54.93c3.12-2.57 6.13-5.26 9-8.11 6.42-6.41 18.61-17.65 24.67-17.1z" fill="#fff" opacity=".1"/><path d="M156.89 578.88s29.82 27.12 27 68.88m23.15-154.32s-31.28 41.6-34.79 105.6M99.68 475.81s15.18 68.75-22.66 120.56" opacity=".1"/><path d="M227.65 655.5c-2.18-2-4.21-4.4-4.84-7.3s.61-6.38 3.38-7.44c3.1-1.18 6.42 1 8.93 3.14s5.4 4.65 8.69 4.19a13.23 13.23 0 0 1-4.09-12.38 5.11 5.11 0 0 1 1.14-2.51c1.72-1.84 4.85-1 6.91.4 6.56 4.61 8.39 13.53 8.43 21.55.66-2.89.1-5.91.12-8.88s.83-6.26 3.33-7.85a10.07 10.07 0 0 1 5.09-1.2c2.95-.1 6.23.19 8.24 2.35 2.51 2.68 1.86 7.18-.32 10.13s-5.49 4.8-8.54 6.83a19.07 19.07 0 0 0-6.1 5.82 6.15 6.15 0 0 0-.45 1h-18.49a51.17 51.17 0 0 1-11.43-7.85zm-114.4 5.71c-2.18-2-4.22-4.4-4.84-7.3s.61-6.37 3.38-7.43c3.1-1.19 6.42 1 8.93 3.14s5.4 4.65 8.69 4.19a13.23 13.23 0 0 1-4.09-12.38 5.11 5.11 0 0 1 1.14-2.51c1.72-1.85 4.85-1.06 6.91.4 6.56 4.61 8.39 13.52 8.43 21.54.66-2.89.1-5.9.12-8.87s.83-6.26 3.33-7.85a10.07 10.07 0 0 1 5.09-1.2c2.94-.11 6.23.19 8.24 2.34 2.51 2.68 1.86 7.18-.32 10.13s-5.49 4.8-8.54 6.84a19 19 0 0 0-6.1 5.82 5.82 5.82 0 0 0-.45 1h-18.51a51.55 51.55 0 0 1-11.41-7.86zM4.99 645.58c-2.17-2-4.21-4.4-4.83-7.3s.61-6.38 3.38-7.44c3.1-1.18 6.42 1 8.93 3.14s5.4 4.65 8.69 4.19a13.21 13.21 0 0 1-4.09-12.37 5.11 5.11 0 0 1 1.18-2.48c1.72-1.84 4.84-1.05 6.91.4 6.56 4.62 8.39 13.53 8.43 21.55.66-2.89.1-5.91.12-8.88s.83-6.25 3.33-7.85a10 10 0 0 1 5.08-1.19c2.95-.11 6.24.18 8.25 2.34 2.51 2.68 1.86 7.18-.32 10.13s-5.49 4.8-8.54 6.84a18.85 18.85 0 0 0-6.1 5.82 5.82 5.82 0 0 0-.45 1H16.43a51.61 51.61 0 0 1-11.44-7.9z" fill="tomato"/><path d="M761.81 686.45c-1.21-5.16-4.52-7-11.79-6.12-7.89 1-15.79 1.93-25.45-4.87-5.12-3.6-9.1-6.78-11.73-9l.43-.11S693.7 641.84 695 627.76s-9.1-50.52-9.1-50.52-.56-23.79-6-37.59a61.16 61.16 0 0 1-3.3-11.22c-3.28-17.43-12.98-63.43-28.7-83.76l-.95-40.6v-1.56l.4.41a18.47 18.47 0 0 0 3.5-5.36c4.61 2.37 14.55 7.28 19.93 8.33 7.16 1.39 16 7.43 16 7.43s20.35 23.72 35.94 13.2-29.15-27.41-29.15-27.41-15.24-8.23-21.62-10.42c-4.52-1.55-13.91-7.68-19-11.13-.09-.56-.18-1.12-.29-1.69-3-15.22-7.25-21.05-5.47-30.39a34.87 34.87 0 0 1 2.21-7c6-14.19-19-33.89-19-33.89s-17-14.43-10.82-22.38c0 0 9.48-1 1.38-8.62a60.908 60.908 0 0 0-4.25-3.64c.06-.21.12-.41.19-.62a43.79 43.79 0 0 1 7.78-14.3c.54-.67 1.12-1.33 1.72-2A30.52 30.52 0 0 0 649 223a30 30 0 0 0-8.17-19.92 8 8 0 0 0 2.59-6.83c.83-9.9-19.05-19.89-27.35-18.43-4.73.83-9 3.38-13.74 4.24-4.91.9-10-.08-15 0a36.53 36.53 0 0 0-18.89 5.52 9.58 9.58 0 0 0-3.51 3.29 12.59 12.59 0 0 0-1 5.14c-1.4 18.21-14.58 33.37-28.58 45.33a18.9 18.9 0 0 0-4.75 5.15c-1.42 2.68-1.39 5.85-1.41 8.87-.22 30.18-10.92 61.87-35.19 80.28a13.35 13.35 0 0 0 1.15.68l-1.12.88c7.89 5.13 19.76 2.63 25-5a74 74 0 0 1-10 23.48c.35 0 .69 0 1-.05-.33.54-.65 1.08-1 1.61 10.97-.31 18.97-9.74 25.37-18.34.07.84.11 1.67.14 2.51a50.39 50.39 0 0 1-7.41 26.43l1-.09c-.31.56-.63 1.11-1 1.65 1.59-.13 3.19-.3 4.78-.48-6.38 13-16.39 36.7-16.39 36.7l-3.78 9.29a42.31 42.31 0 0 1-8.63 13.31c-4.05 4.24-9.16 9.37-11.35 10.74-3.9 2.43-13.46 33.88 3.84 28.79s23.86-29.44 23.86-29.44a23.53 23.53 0 0 1 4.49-11 29.8 29.8 0 0 0 3.28-5.89 312.72 312.72 0 0 1 16.11-30.85 107.9 107.9 0 0 0 8.66-17.8 52.48 52.48 0 0 1 5.09-10 56 56 0 0 0 11-6.13 29.26 29.26 0 0 0 7.43-7.5 141.69 141.69 0 0 0 4.48 14.53c4.2 11.36 11.87 37.66.76 55.25-10.19 16.14-10.41 23.95-9.65 27.17 0 .17-.1.34-.14.52a29.18 29.18 0 0 0 2.58 21.39 27.49 27.49 0 0 1 3.13 11.91v1.19a26.69 26.69 0 0 1-1.08 8.14c-2.17 7.37-6.69 23.58-8.2 35.33-2 15.66-15.11 30.8-15.11 30.8s-34.75 37.49-48 81.51c0 0-7.47 18.91-12.92 22.94 0 0-10.37 6.17-12.1 18-.05.32-.09.64-.12 1l-2.15 5.56s19.25 10.48 23.21 10.39l2.26-4.74 20.15 15.14 30.07-.71a9.25 9.25 0 0 0 2.17-2c1.44-1.88 2.3-4.82-2.27-7.88a10.93 10.93 0 0 0-7.66-1.6c-3.87.56-11.27-.72-18.2-15.2l-3.82-7.11.49.17s-6.59-10.77 6.54-25.13 32-52.26 32-52.26 25.64-20.9 30.07-34.27c0 0 17.1-28.87 27-46 1.66 3.58 3 6.29 3 6.29s20.44 27.62 23.31 48.63 22.29 72.84 30.54 86.7 8.37 19.31 8.37 19.31-5.23 13.07-1.98 23.89c0 .12.07.23.1.34l.15 6.24 23 .25-.07-3.12 29.32.87s28.3-8.47 27.37-14.69c-.12-.53-.21-1-.31-1.44z" transform="translate(-113.75 -33.68)" fill="url(#a)"/><path d="M520.13 219.79a46.41 46.41 0 0 0-9.56 8.91 43.24 43.24 0 0 0-7.52 14 38.55 38.55 0 0 0-2 12.74l-14.8-12.64-19.05 4.27a59.56 59.56 0 0 0 10.21-12.84 64.47 64.47 0 0 0 6-13.47 50 50 0 0 0 2.1-9.34s54.97-5.89 34.62 8.37z" fill="#efb4b6"/><path d="M443.17 667.66a9.33 9.33 0 0 1-2.1 2l-29.08.68-19.5-14.86-2.19 4.65c-3.82.08-22.44-10.2-22.44-10.2l2.17-5.41c0-.32.07-.64.11-1 1.67-11.66 11.7-17.71 11.7-17.71l3.79-1.62 23.11 5.59 7.21 13.61c6.71 14.2 13.87 15.47 17.61 14.91a10.48 10.48 0 0 1 7.41 1.58c4.42 3.05 3.59 5.94 2.2 7.78zm200.47-14.24c.91 6.11-26.47 14.41-26.47 14.41l-28.36-.87.08 3.06-22.22-.24-.14-6.13c0-.11-.07-.22-.1-.33-3.11-10.58 1.84-23.45 1.84-23.45l2.2-3.88 22.06-6.67a147.78 147.78 0 0 0 14.83 11.9c9.34 6.68 17 5.73 24.62 4.79 7-.87 10.23.95 11.39 6 .11.48.19.93.27 1.41z" fill="#565388"/><path d="M511.46 470.42c-.73 1.56-3.14 5.9-6.32 11.52-9.52 16.82-26 45.15-26 45.15-4.29 13.12-29.08 33.61-29.08 33.61s-18.28 37.19-31 51.27-6.31 24.65-6.31 24.65l-30.89-10.76c5.27-3.95 12.5-22.5 12.5-22.5 12.77-43.19 46.37-80 46.37-80s12.67-14.85 14.61-30.21c1.45-11.53 5.82-27.44 7.92-34.66a26.3 26.3 0 0 0 1-8v-1.17a27.42 27.42 0 0 0-3-11.68 29 29 0 0 1-2.48-21 24 24 0 0 1 3-7.1l7.55-2.2 26.68-7.8s1.65 5.82 3.88 14.12c5.21 19.42 13.61 52.43 11.57 56.76z" fill="#7679b4"/><path d="M510.93 469.52c-.73 1.56-3.13 5.9-6.32 11.52-9.52 16.82-26.05 45.15-26.05 45.15-4.31 13.13-29.08 33.61-29.08 33.61s-18.27 37.19-31 51.27-6.23 24.65-6.23 24.65l-30.88-10.76c5.26-3.95 12.49-22.5 12.49-22.5 12.77-43.19 46.37-80 46.37-80s12.62-14.82 14.56-30.14c1.45-11.53 5.82-27.44 7.92-34.66a26.63 26.63 0 0 0 1-8v-1.17a27.32 27.32 0 0 0-3-11.69 29 29 0 0 1-2.48-21 24.49 24.49 0 0 1 3-7.11l7.55-2.19 26.68-7.8s1.66 5.81 3.88 14.12c5.24 19.36 13.63 52.37 11.59 56.7z" opacity=".1"/><path d="M596.43 632.32l-28.18 7.55s-.13-5.35-8.1-18.95-26.79-64.47-29.57-85.08-22.56-47.72-22.56-47.72-1.3-2.66-2.9-6.18c-1.48-3.25-3.2-7.22-4.38-10.5-2.46-6.83-13.41-16.53-13.41-16.53-20.05-11.12-24-24.44-24.23-32.76a23.37 23.37 0 0 1 1.07-8.06l5.14-6.73 9.72-12.76 32.87-35.23 20 4.12 1.21 51.29c15.21 19.91 24.6 65.1 27.73 82.2a59.42 59.42 0 0 0 3.19 11c5.27 13.55 5.82 36.89 5.82 36.89s10 35.76 8.82 49.57 17.76 37.88 17.76 37.88z" fill="#7679b4"/><path d="M534.59 346.58s15.58 11.13 21.76 13.28 20.9 10.23 20.9 10.23 43.28 16.6 28.2 26.91-34.76-13-34.76-13-8.57-5.93-15.49-7.3-21.65-9.38-21.65-9.38z" fill="#efb4b6"/><path d="M520.13 219.79a46.41 46.41 0 0 0-9.56 8.91 31.2 31.2 0 0 1-5.53.64c-8.42.2-12.78-9-18.34-14.51 1.75-5.56-1.22-3.41-1.22-3.41s55-5.89 34.65 8.37z" opacity=".1"/><circle cx="504.31" cy="197.95" r="29.86" fill="#efb4b6"/><path d="M501.06 255.47l-14.81-12.67-19.05 4.27a59.56 59.56 0 0 0 10.21-12.84h.13a25.57 25.57 0 0 1 18.49 3.54 74 74 0 0 1 7.06 5 38.55 38.55 0 0 0-2.03 12.7zm30.86 108.02l.27 11.45c-2.3-2.31-13.79-13.21-10.66 2.58 3.48 17.54-16.9 30.27-16.9 30.27q-2.4 3.28-4.74 5.89c-16.16 17.91-30.48 12.45-36.77 8.47a21.91 21.91 0 0 1-3.4-2.59 5.41 5.41 0 0 1-1-2.9 24 24 0 0 1 3-7.1l7.55-2.2 9.72-12.76 32.87-35.23z" opacity=".1"/><path d="M532.55 373.82s-14.53-15.36-11 2.17-16.91 30.27-16.91 30.27c-23.74 32.72-44.91 11.77-44.91 11.77s-5.5-6 8.52-28.54c10.74-17.25 3.32-43.06-.75-54.21a142.31 142.31 0 0 1-4.45-14.71l-1-4-2.29-9.36a100.56 100.56 0 0 1-2.5-33.43 95.87 95.87 0 0 1 4.66-22c1.54-4.56 3.27-8.48 5.13-10.82a17.37 17.37 0 0 1 10.5-6 25.53 25.53 0 0 1 18.49 3.53 69.94 69.94 0 0 1 11 8.41c7.84 7.47-1.33 8.45-1.33 8.45-5.94 7.8 10.47 22 10.47 22s24.19 19.34 18.39 33.26-.33 18.39 3.16 36.69-5.18 26.52-5.18 26.52z" fill="#565388"/><path d="M502.33 154.44c-4.58.82-8.72 3.32-13.29 4.17-4.76.87-9.64-.08-14.47 0a34.88 34.88 0 0 0-18.27 5.41 9.42 9.42 0 0 0-3.4 3.23 12.42 12.42 0 0 0-1 5c-1.35 17.87-14.09 32.73-27.63 44.47a18.37 18.37 0 0 0-4.59 5c-1.38 2.63-1.34 5.73-1.36 8.7-.21 29.61-10.54 60.71-34 78.76 7.93 5.23 20 2.4 24.77-5.81a73.06 73.06 0 0 1-10.15 25.45c10.46-.22 18.17-9.47 24.37-17.9a49.87 49.87 0 0 1-7 29.92c14-1.21 28.3-4.23 39.62-12.51 5.19-3.79 9.89-9.31 9.78-15.73-.06-3.67-1.7-7.11-2.87-10.6-3.05-9.08-2.32-20.53 5.24-26.42a28.5 28.5 0 0 0 4-3.15c1.73-1.94 2.34-4.62 2.69-7.19a51.17 51.17 0 0 0-.93-18.82 13.85 13.85 0 0 1-.61-4c.17-2.83 2.3-5.2 4.72-6.66s5.18-2.26 7.75-3.47a26.61 26.61 0 0 0 14.88-23.5c0-2.87-.37-6.07 1.44-8.28 2.69-3.28 8.29-2.16 11.51-4.92 3.05-2.61 2.71-7.47 4.84-10.88 1.75-2.8 5-4.29 7.37-6.54 11.88-11.02-13.8-25.44-23.41-23.73z" opacity=".1"/><path d="M499.81 267.56v.19l-18.86 25.57-11.57 15.69s-3.14 3-7.36 7.51l-2.29-9.36a100.56 100.56 0 0 1-2.5-33.43c4.37-8.72 9.07-14.57 13.47-18.49a17.51 17.51 0 0 1 29.11 12.32z" opacity=".1"/><path d="M502.25 152.91c-4.58.82-8.72 3.32-13.29 4.16-4.75.88-9.63-.08-14.47 0a34.9 34.9 0 0 0-18.24 5.38 9.42 9.42 0 0 0-3.4 3.23 12.42 12.42 0 0 0-1 5c-1.34 17.87-14.09 32.73-27.63 44.47a18.53 18.53 0 0 0-4.59 5c-1.37 2.62-1.34 5.73-1.36 8.7-.2 29.61-10.54 60.71-34 78.76 7.92 5.23 20 2.39 24.76-5.81a73 73 0 0 1-10.13 25.52c10.46-.22 18.17-9.48 24.37-17.91a49.89 49.89 0 0 1-7.02 29.91c14-1.21 28.3-4.23 39.63-12.51 5.18-3.79 9.89-9.31 9.78-15.73-.07-3.67-1.7-7.11-2.87-10.6-3.06-9.08-2.33-20.53 5.23-26.42a28.51 28.51 0 0 0 4-3.16c1.73-1.93 2.34-4.61 2.69-7.18a51.45 51.45 0 0 0-.94-18.83 13.72 13.72 0 0 1-.6-4c.17-2.83 2.29-5.2 4.71-6.66s5.19-2.26 7.75-3.47a26.6 26.6 0 0 0 14.92-23.44c0-2.87-.38-6.07 1.44-8.29 2.69-3.27 8.28-2.15 11.5-4.91 3.06-2.61 2.71-7.47 4.84-10.88 1.75-2.8 5-4.29 7.38-6.54 11.87-11.09-13.81-25.5-23.46-23.79z" fill="#a66477"/><path d="M498.25 266.07v.19l-18.87 25.6-11.56 15.7s-21.73 20.42-27.48 36.64a107.06 107.06 0 0 1-8.34 17.44 307.42 307.42 0 0 0-15.57 30.26 29.31 29.31 0 0 1-3.17 5.77 23.37 23.37 0 0 0-4.34 10.83s-6.34 23.89-23.07 28.87-7.5-25.86-3.72-28.25c2.12-1.34 7.05-6.37 11-10.53a41.5 41.5 0 0 0 8.35-13.06l3.65-9.11s17.4-41.76 20.41-44.13a10.27 10.27 0 0 0 2.2-2.66c2.41-3.92 4.86-7.83 7.38-11.68 3.31-5.06 8.55-15.15 16.06-35.27.53-1.42 1.06-2.77 1.61-4.08 5.14-12.32 11-20 16.38-24.82a17.51 17.51 0 0 1 29.08 12.29z" fill="#efb4b6"/><path d="M498.66 265.98v.2l-19.21 26.07-27.11-13.5c5.23-12.55 11.19-20.39 16.68-25.28a17.83 17.83 0 0 1 29.64 12.51z" fill="#565388"/><path d="M474.88 245.72s20.37 8.74 30.37 9.27m138.39 398.43c.91 6.11-26.47 14.41-26.47 14.41l-28.36-.87.08 3.06-22.22-.24-.14-6.13c0-.11-.07-.22-.1-.33l51 1.06 25.9-12.33c.15.44.23.89.31 1.37zm-200.47 14.24a9.33 9.33 0 0 1-2.1 2l-29.08.68-19.5-14.86-2.19 4.65c-3.82.08-22.44-10.2-22.44-10.2l2.17-5.41c0-.32.07-.64.11-1l22.69 10 19.48 14.09zm19.86-253.92s10.94-23.23 22.22-30.42m21.3-73.22s6.41 11.94 25.83 7.36" opacity=".1"/><path d="M377.45 105.58h-6.28a4.4 4.4 0 0 0 0-8.79h-50.92a4.4 4.4 0 1 0 0 8.79h6.28a4.4 4.4 0 1 0 0 8.8h-8.79a4.4 4.4 0 1 0 0 8.79h50.91a4.4 4.4 0 1 0 0-8.79h8.8a4.4 4.4 0 0 0 0-8.8zm467.58 152.56h-6.28a4.4 4.4 0 0 0 0-8.8h-50.88a4.4 4.4 0 1 0 0 8.8h6.28a4.4 4.4 0 1 0 0 8.79h-8.79a4.4 4.4 0 1 0 0 8.79h50.89a4.4 4.4 0 1 0 0-8.79h8.8a4.4 4.4 0 0 0 0-8.79zm-562.78-26.38h-6.28a4.4 4.4 0 0 0 0-8.8h-50.89a4.4 4.4 0 0 0 0 8.8h6.28a4.4 4.4 0 0 0 0 8.79h-8.79a4.4 4.4 0 1 0 0 8.79h50.88a4.4 4.4 0 0 0 0-8.79h8.8a4.4 4.4 0 1 0 0-8.79z" fill="tomato" opacity=".1"/></svg>