<svg xmlns="http://www.w3.org/2000/svg" xmlns:xlink="http://www.w3.org/1999/xlink" width="1117.48" height="823.88"><defs><linearGradient id="a" x1="226.67" y1="654.61" x2="226.67" y2="429.46" gradientTransform="matrix(-1 0 0 1 443.33 0)" gradientUnits="userSpaceOnUse"><stop offset="0" stop-color="gray" stop-opacity=".25"/><stop offset=".54" stop-color="gray" stop-opacity=".12"/><stop offset="1" stop-color="gray" stop-opacity=".1"/></linearGradient><linearGradient id="b" x1="307.08" y1="640.77" x2="521.61" y2="640.77" xlink:href="#a"/></defs><ellipse cx="637.3" cy="657.3" rx="158.54" ry="25.28" fill="tomato" opacity=".1"/><ellipse cx="366.11" cy="802.55" rx="158.54" ry="12.49" fill="tomato" opacity=".1"/><ellipse cx="925.77" cy="799.57" rx="34.72" ry="5.13" fill="tomato" opacity=".1"/><ellipse cx="860.73" cy="753.14" rx="25.33" ry="2.57" fill="tomato" opacity=".1"/><ellipse cx="713.56" cy="731.97" rx="22.99" ry="2.57" fill="tomato" opacity=".1"/><ellipse cx="932.83" cy="703.1" rx="22.99" ry="2.57" fill="tomato" opacity=".1"/><ellipse cx="670.81" cy="798.51" rx="34.72" ry="5.13" fill="tomato" opacity=".1"/><ellipse cx="201.69" cy="617.64" rx="201.69" ry="12.49" fill="tomato" opacity=".1"/><ellipse cx="807.18" cy="614.49" rx="83.87" ry="12.49" fill="tomato" opacity=".1"/><path d="M16.12 389.02c17.36 67.13 54.11 125.16 112.19 153.29 120.7 58.45 392.91 28.3 596.07-6.31 105.07-17.89 197.44-67.26 264.54-136.82zM1081.48 73.03H970.01c-5.3 0-9.63-3.92-9.63-8.72s4.33-8.71 9.63-8.71h19.27c-5.3 0-9.64-3.93-9.64-8.72s4.34-8.71 9.64-8.71h-13.77c-5.29 0-9.63-3.93-9.63-8.72s4.34-8.72 9.63-8.72h58.23c-12.91-5.43-28-9.29-45.38-11.31-158.69-18.48-215.33-6.24-235.31 6.3a234.79 234.79 0 0 1-81.54 32.34c-97.88 18.26-280.93 40.24-446.84-7-82.46-23.5-143.75 16.21-180.48 82.59h1056.65c-1.39-19.3-5.51-37.11-13.1-52.7a10.12 10.12 0 0 1-6.26 2.08zM6.66 248.94a402.2 402.2 0 0 0 4.33 117.12l978.68 32.39a415.14 415.14 0 0 0 68-93.83zm387.08 83.51h-19.26c5.3 0 9.63 3.92 9.63 8.72s-4.33 8.71-9.63 8.71H263.01c-5.3 0-9.63-3.92-9.63-8.71s4.33-8.72 9.63-8.72h19.27c-5.3 0-9.64-3.92-9.64-8.72s4.34-8.71 9.64-8.71h-13.77c-5.29 0-9.63-3.92-9.63-8.72s4.34-8.71 9.63-8.71h111.47c5.3 0 9.64 3.92 9.64 8.71s-4.34 8.72-9.64 8.72h13.76c5.29 0 9.63 3.92 9.63 8.71s-4.33 8.72-9.63 8.72zm707.14-208.24L32.39 147.73c-13 30.21-21.65 64.4-25.58 99.83h1075.35a379.17 379.17 0 0 0 15.52-63.62c3.2-20.84 4.49-41 3.2-59.73zm-877.14 77.05h-19.26c5.3 0 9.63 3.92 9.63 8.72s-4.33 8.71-9.63 8.71H93.01c-5.3 0-9.63-3.92-9.63-8.71s4.33-8.72 9.63-8.72h19.27c-5.3 0-9.64-3.92-9.64-8.71s4.34-8.72 9.64-8.72H98.51c-5.29 0-9.63-3.92-9.63-8.72s4.34-8.71 9.63-8.71h111.47c5.3 0 9.64 3.92 9.64 8.71s-4.34 8.72-9.64 8.72h13.76c5.29 0 9.63 3.92 9.63 8.72s-4.33 8.71-9.63 8.71z" fill="tomato" opacity=".1"/><path fill="#b77b7f" d="M319.77 608.25l3.99 8.51v-63.24h-3.99v54.73zm-257.68 0l-3.98 8.51v-63.24h3.98v54.73z"/><path opacity=".1" d="M319.77 608.25l3.99 8.51v-63.24h-3.99v54.73zm-257.68 0l-3.98 8.51v-63.24h3.98v54.73z"/><path fill="#b77b7f" d="M78.22 437.37h11.05v77.74H78.22zm222.37 0h11.05v77.74h-11.05z"/><path opacity=".1" d="M78.22 437.37h11.05v9.06H78.22zm222.37 0h11.05v9.06h-11.05z"/><path fill="#dda2a6" d="M61.19 434.11h266.19v11.6H61.19z"/><path opacity=".1" d="M78.22 450.6h11.05v11.6H78.22zm222.37 0h11.05v11.6h-11.05z"/><path fill="#dda2a6" d="M61.19 449.87h266.19v11.6H61.19z"/><path opacity=".1" d="M78.22 466.36h11.05v11.6H78.22zm222.37 0h11.05v11.6h-11.05z"/><path fill="#dda2a6" d="M61.19 465.64h266.19v11.6H61.19z"/><path opacity=".1" d="M78.22 482.13h11.05v11.6H78.22zm222.37 0h11.05v11.6h-11.05z"/><path fill="#dda2a6" d="M61.19 481.4h266.19V493H61.19z"/><path opacity=".1" d="M78.22 497.89h11.05v11.6H78.22zm222.37 0h11.05v11.6h-11.05z"/><path fill="#dda2a6" d="M61.19 497.17h266.19v11.6H61.19z"/><g opacity=".1"><circle cx="83.75" cy="440.63" r="1.6"/><circle cx="83.75" cy="456.39" r="1.6"/><circle cx="83.75" cy="472.16" r="1.6"/><circle cx="83.75" cy="487.93" r="1.6"/><circle cx="83.75" cy="503.69" r="1.6"/><circle cx="306.12" cy="440.63" r="1.6"/><circle cx="306.12" cy="456.39" r="1.6"/><circle cx="306.12" cy="472.16" r="1.6"/><circle cx="306.12" cy="487.93" r="1.6"/><circle cx="306.12" cy="503.69" r="1.6"/></g><circle cx="83.75" cy="439.91" r="1.6" fill="#918c9e"/><circle cx="83.75" cy="455.67" r="1.6" fill="#918c9e"/><circle cx="83.75" cy="471.44" r="1.6" fill="#918c9e"/><circle cx="83.75" cy="487.2" r="1.6" fill="#918c9e"/><circle cx="83.75" cy="502.97" r="1.6" fill="#918c9e"/><circle cx="306.12" cy="439.91" r="1.6" fill="#918c9e"/><circle cx="306.12" cy="455.67" r="1.6" fill="#918c9e"/><circle cx="306.12" cy="471.44" r="1.6" fill="#918c9e"/><circle cx="306.12" cy="487.2" r="1.6" fill="#918c9e"/><circle cx="306.12" cy="502.97" r="1.6" fill="#918c9e"/><path fill="#dda2a6" d="M333.54 520H54.84l6.35-7.79h266.19l6.16 7.79z"/><path opacity=".1" d="M333.54 520H54.84l6.35-7.79h266.19l6.16 7.79z"/><path fill="#dda2a6" d="M333.54 519.64H54.84l6.35-7.79h266.19l6.16 7.79zm9.79 12.5l-299-.73 10.15-10.69h280.15l8.7 11.42z"/><path opacity=".1" d="M343.33 532.14l-299-.73 10.15-10.69h280.15l8.7 11.42z"/><path fill="#dda2a6" d="M343.33 531.78l-299-.73 10.15-10.69h280.15l8.7 11.42zm9.42 11.41H33.64l9.79-11.05 300.62.36 8.7 10.69z"/><path fill="#b77b7f" d="M82.14 553.52v22.83l-3.92 7.62-1.29-27.19-.16-3.26h5.37zm223.86 0l-.16 3.26-1.29 27.19-3.93-7.62v-22.83H306z"/><path opacity=".1" d="M82.14 553.52v22.83l-3.92 7.62-1.29-27.19-.16-3.26h5.37zm223.86 0l-.16 3.26-1.29 27.19-3.93-7.62v-22.83H306z"/><path fill="#b77b7f" d="M68.07 551.71h10.15v32.25H68.07zm236.48 0h10.15v32.25h-10.15z"/><path opacity=".1" d="M78.22 553.52h3.92v3.26H68.07v-5.07h10.15v1.81zm236.48-1.81v5.07h-14.08v-3.26h3.93v-1.81h10.15z"/><path fill="#b77b7f" d="M54.84 548.09h272.54v7.97H54.84z"/><path fill="#b77b7f" d="M46.51 546.64h11.6v70.13h-11.6zm288.84 70.12h-11.6v-70.13h11.6z"/><path opacity=".1" d="M54.84 548.09h272.54v.72H54.84z"/><path fill="#dda2a6" d="M33.64 543.19h319.11v4.89H33.64z"/><path fill="#fff" opacity=".1" d="M33.64 543.19h319.11v4.89H33.64z"/><circle cx="51.62" cy="552.44" r="1.6" opacity=".1"/><circle cx="51.62" cy="551.71" r="1.6" fill="#918c9e"/><circle cx="330.5" cy="552.22" r="1.6" opacity=".1"/><circle cx="330.5" cy="551.49" r="1.6" fill="#918c9e"/><ellipse cx="926.06" cy="605.4" rx="20.49" ry="2.81" fill="tomato" opacity=".1"/><ellipse cx="1004.54" cy="613.36" rx="20.49" ry="2.81" fill="tomato" opacity=".1"/><ellipse cx="1096.99" cy="602.59" rx="20.49" ry="2.81" fill="tomato" opacity=".1"/><ellipse cx="973.13" cy="636.02" rx="14.57" ry="2" fill="tomato" opacity=".1"/><ellipse cx="1054.59" cy="634.02" rx="14.57" ry="2" fill="tomato" opacity=".1"/><path d="M1004.98 612.73s-28.73-94.2 4.5-131.94c24.86-28.22 53.08-24.84 65.72-21.35a23.34 23.34 0 0 1 15.07 12.5c4.42 9.54 3.62 25-27.57 43.07-52.22 30.23-55.47 71.71-55.47 71.71z" fill="tomato"/><path d="M1070.74 472.8s-84.71 26.48-65.72 139.93m16.21-130.44s11.66 7.86 8 19.68m32.97-12.68s-7.13-7.25-15.8-3.25m-17.66 39.73s-12.52-6.35-15.76 1.61m-15.24 11.63s9.4-.74 9.57 3.75" fill="none" stroke="#565987" stroke-miterlimit="10"/><path d="M1003.82 613.48s33.66-68.47 42.9-67c4.39.71 6.42 5 7.33 9.37a27.61 27.61 0 0 1-1.83 16.67c-4.78 10.98-17.6 31.79-48.4 40.96z" fill="tomato"/><path d="M1046.47 559.5s-35.32 51.23-42.15 53.48m45.4-45.48h-8.25m-1.63 18.74l-12.92.55m5.06-15.54l1.4 6.73m-15.14 13.76l.24 6.12" fill="none" stroke="#565987" stroke-miterlimit="10"/><path d="M1004.82 613.48s-33.65-68.47-42.9-67c-4.39.71-6.41 5-7.33 9.37a27.61 27.61 0 0 0 1.83 16.67c4.78 10.98 17.61 31.79 48.4 40.96z" fill="tomato"/><path d="M962.17 559.5s35.33 51.23 42.15 53.48m-45.4-45.48h8.25m1.63 18.74l12.92.55m-5.06-15.54l-1.4 6.73m15.15 13.76l-.25 6.12" fill="none" stroke="#565987" stroke-miterlimit="10"/><path d="M1062.61 629.47a5.81 5.81 0 0 0 1.91-2.89 2.58 2.58 0 0 0-1.33-2.95c-1.23-.47-2.55.38-3.54 1.24s-2.14 1.85-3.44 1.66a5.23 5.23 0 0 0 1.62-4.9 2 2 0 0 0-.46-1c-.68-.73-1.91-.42-2.73.15-2.6 1.83-3.33 5.36-3.34 8.54a16.54 16.54 0 0 1 0-3.52 3.6 3.6 0 0 0-1.32-3.11 4.05 4.05 0 0 0-2-.47 4.16 4.16 0 0 0-3.27.93c-1 1.06-.73 2.84.13 4a12.61 12.61 0 0 0 3.38 2.71 7.49 7.49 0 0 1 2.42 2.3 3 3 0 0 1 .18.41h7.32a20.51 20.51 0 0 0 4.47-3.1zm-128.24-27.53a5.83 5.83 0 0 0 1.91-2.89 2.56 2.56 0 0 0-1.34-2.94c-1.23-.47-2.54.38-3.54 1.24s-2.13 1.84-3.44 1.66a5.22 5.22 0 0 0 1.62-4.9 2 2 0 0 0-.45-1c-.68-.73-1.92-.41-2.73.16-2.6 1.83-3.33 5.36-3.34 8.53a16.45 16.45 0 0 1-.05-3.51 3.61 3.61 0 0 0-1.32-3.11 3.87 3.87 0 0 0-2-.47 4.16 4.16 0 0 0-3.27.92 3.27 3.27 0 0 0 .13 4 12.58 12.58 0 0 0 3.38 2.7 7.63 7.63 0 0 1 2.42 2.31 2.19 2.19 0 0 1 .17.41h7.33a20.22 20.22 0 0 0 4.52-3.11zm42.74 27.53a5.87 5.87 0 0 0 1.91-2.89 2.57 2.57 0 0 0-1.34-2.95c-1.23-.47-2.54.38-3.54 1.24s-2.13 1.85-3.44 1.66a5.21 5.21 0 0 0 1.62-4.9 1.88 1.88 0 0 0-.45-1c-.68-.73-1.92-.42-2.73.15-2.6 1.83-3.33 5.36-3.34 8.54a16.54 16.54 0 0 1 0-3.52 3.63 3.63 0 0 0-1.32-3.11 4.08 4.08 0 0 0-2-.47 4.16 4.16 0 0 0-3.27.93c-1 1.06-.73 2.84.13 4a12.61 12.61 0 0 0 3.38 2.71 7.49 7.49 0 0 1 2.42 2.3c.07.13.12.27.18.41h7.32a20.51 20.51 0 0 0 4.47-3.1zm121.21-55.74s2.75 3.59-1.27 9-7.32 10-6 13.37c0 0 6.05-10.06 11-10.2s1.69-6.12-3.73-12.17z" fill="tomato"/><path d="M1098.32 573.73a4.41 4.41 0 0 1 .56 1.12c4.81 5.65 7.37 10.92 2.75 11.06-4.31.12-9.47 7.82-10.71 9.76a3.26 3.26 0 0 0 .15.44s6.05-10.06 11-10.2 1.67-6.13-3.75-12.18z" opacity=".1"/><path d="M1103.42 578.3c0 1.27-.14 2.29-.31 2.29s-.32-1-.32-2.29.18-.67.35-.67.28-.59.28.67z" fill="#ffd037"/><path d="M1105.17 579.81c-1.1.61-2.07 1-2.16.82s.75-.77 1.86-1.37.67-.17.76 0 .65-.05-.46.55z" fill="#ffd037"/><path d="M1083.82 573.73s-2.75 3.59 1.27 9 7.32 10 6 13.37c0 0-6-10.06-11-10.2s-1.69-6.12 3.73-12.17z" fill="tomato"/><path d="M1083.82 573.73a4.41 4.41 0 0 0-.56 1.12c-4.81 5.65-7.37 10.92-2.75 11.06 4.31.12 9.47 7.82 10.71 9.76a3.26 3.26 0 0 1-.15.44s-6-10.06-11-10.2-1.67-6.13 3.75-12.18z" opacity=".1"/><path d="M1078.74 578.3c0 1.27.14 2.29.31 2.29s.32-1 .32-2.29-.18-.67-.35-.67-.28-.59-.28.67z" fill="#ffd037"/><path d="M1076.96 579.81c1.11.61 2.08 1 2.16.82s-.74-.77-1.85-1.37-.67-.17-.76 0-.66-.05.45.55z" fill="#ffd037"/><path d="M1079.59 595.64s7.68-.23 10-1.88 11.81-3.61 12.38-1 11.53 13.14 2.87 13.21-20.14-1.35-22.45-2.76-2.8-7.57-2.8-7.57z" fill="#a8a8a8"/><path d="M1104.98 605.08c-8.66.07-20.13-1.35-22.44-2.76-1.76-1.07-2.46-4.91-2.69-6.69h-.26s.49 6.19 2.79 7.6 13.78 2.83 22.45 2.76c2.5 0 3.36-.91 3.32-2.23-.35.8-1.3 1.3-3.17 1.32z" opacity=".2"/><path d="M137.26 567.18c.5 2 11.08 3 17 3.32-1.33 1.07-2.46 2.35-1.71 4.57 1.45 4.29.53 19 .53 19s14.85-1.81 21.16-7.7l5.5 1.15a80.17 80.17 0 0 0-5.5 10.65c-4.15 9.56-7.57 16.91-9 19.91l-.3.62-1.37-.58s-3.82 7.93-5.05 10.4a48.46 48.46 0 0 1-4 6.06l-2.77 5.55s-2.68 5.5-2.81 8.66 6.55 3.86 12.79 5.24 3.6-5.67 3.29-8.36 4.27-10.44 4.27-10.44 2.68-3.33 2.59-4.72 2-4.2 2-4.2 2.63-2.91 1.53-2.95a2.7 2.7 0 0 1-.71-.18l.47-.54c3.15-3.65 11.42-13 14.59-14.92 3.94-2.34 10.79-10.27 10.07-12.15s7.71-13.71 7.71-13.71a23.16 23.16 0 0 0 4.69-5.51l.19-.37c.58 1.89 1.34 3.22 2.24 3.19 1.2 0 2.25-1.44 3.16-3.43l.31.31c3 3 8.72 8.68 9.62 9.19 1.23.69 3.16 3.9 5.63 7.19a54.25 54.25 0 0 1 3.83 6.44v3.07C237.36 606.39 244 612 244 612s2.44 7.6 4.68 8.19 5.73 6.5 10.61 5.39c1-.23 1.87-1.4 2.57-3.14l.72.74.86.91-.66.26s6.07 9.23 6.33 10.59a33.88 33.88 0 0 0 2.11 5 48.33 48.33 0 0 1 4.09 6.76c1.05 2.54 6.33 7.93 6.33 7.93s8.3-1.82 12.45-5.07.93-6.11-2.11-7.28-4.74-5.59-4.74-5.59a41 41 0 0 1-3.17-4.35c-.13-.58-2.7-1.1-2.83-1.88s-3.49-6.5-3.49-6.5-4.09-5.2-4.65-4.81l-.24-.65-.22-.41c-.81-1.56-3.89-7.44-8-14.66a14.89 14.89 0 0 0-.28-3.71c-.86-2.21-2.18-17.94-1.91-20.54s-5.6-8.51-8.83-9.87c-2.41-1-3.68-7.3-4.17-10.52h.27c2.11 0 20.17-.82 20.83-3.46S252 552.05 250.68 552c-.38-1.23-1.52-4.62-3-5.52-1.78-1.11-2.51-5.27-2.51-5.27s-1.25-3.18-.59-5.07-2.64-5.33-2.64-5.33a36.62 36.62 0 0 1 .14-4c.19-2.28-1.78-2.6-1.78-2.8a32.78 32.78 0 0 1 0-3.64c.13-1.1-2.11-2.34-1.85-3.57a51 51 0 0 0 0-6.37 4.67 4.67 0 0 1-1-3.64c.2-2.47-2.11-4.74-2.11-4.74l-.39-7-3-9.61c-3-9.62-1.12-5.92-5.27-10.27-1.85-1.94-4.88-2.9-7.66-3.37 0-.57-.1-1.13-.17-1.68-.53-3.87-1.37-8.06.51-11.5 1.12-2.06 3.19-3.79 3.24-6.13a4.19 4.19 0 0 0-.44-1.95c-1.11-2.9-5.06-4.9-5.58-8.11l.15.31v-.2a3.7 3.7 0 0 0-.31-1.59 1.47 1.47 0 0 0-.15-.34 2.46 2.46 0 0 0-.8-.7c-.51-.32-1.19-.72-1.93-1.09a4.56 4.56 0 0 0 .92-2.39 3.2 3.2 0 0 0-.11-.93 5.37 5.37 0 0 0-1.35-2.41 6.93 6.93 0 0 0-2.18-1.63c.1.09.19.19.28.28a4.71 4.71 0 0 0-1.37-.46 17.64 17.64 0 0 0-2.52-.06 19.34 19.34 0 0 1-4.11-.77c-5-1.23-10.52-1.71-15 .74-3.58 2-6 5.48-7.85 9.06a10.48 10.48 0 0 0-1.47 4.52 17.63 17.63 0 0 0 .79 4.23 1.84 1.84 0 0 1 0 .87c-.2.72-1.09.93-1.78 1.23a5.28 5.28 0 0 0-2.68 3 15.3 15.3 0 0 0-.78 4 5.52 5.52 0 0 0 .16 2.59c.57 1.44 2.21 2.13 3.63 2.8a11.64 11.64 0 0 1 4.2 3.05 76.49 76.49 0 0 0-8.65 7.59c-4 1.12-8.37 2.67-9.39 4.15-2 2.86-3 1.56-3.3 11.57s-1.45 13.65-1.45 13.65v14s1.45 9.23 0 11.7-1.19 12.74-1.19 12.74 2 9.74-1.18 12.86-3.3 9-3.3 9l.27.1c-5.62.39-17.37 1.28-16.87 3.28zM171.05 551c1.19-3 3.56-11.31 3.56-11.31s1.32-6.24 0-7.41 1.85-9.62 1.85-9.62a9.92 9.92 0 0 1 1.18 5.59c-.26 3.25 0 10.27 0 10.27s-2.15 6.76-1.8 10-5.19 6.75-4.39 8.05a15.27 15.27 0 0 1 1.31 3.71s-.87 0-2 .09c-.16-3.6-.39-7.64.29-9.37z" transform="translate(-41.26 -38.06)" fill="url(#a)"/><path d="M208.38 515.41s20 .68 19.35 3.29-18.19 3.41-20.24 3.41-5-3.75-5-3.75z" fill="#efb7b9"/><path fill="#67647e" d="M195.98 516.92h-11.53v-10.63h11.53z"/><path opacity=".12" d="M195.98 516.92h-11.53v-10.63h11.53z"/><path fill="#67647e" d="M202.11 517.33l10.61 21.41-13.45 4.36-10.85-9.31-5.13-9.94-10.39.85-11.08 5.52-8.96 5.47-5.42 10.14-7.77 4.39-16.66-3.56-2.44-11.33 13.6-9.1 4.93-7.47 19.97-2.9 5.78-8.63 19.99 4.83 17.27 5.27z"/><path opacity=".12" d="M202.11 517.53l10.83 23.33-13.67 2.44-10.85-9.31-5.13-9.94-10.39.85-11.08 5.52-8.96 5.46-5.42 10.15-7.77 4.39-16.66-3.56-2.44-11.33 13.6-9.11 4.93-7.46 19.97-2.9 5.78-8.63 19.99 4.83 17.27 5.27z"/><path d="M174.28 404.94a2.36 2.36 0 0 1 .78.69 3.76 3.76 0 0 1 .3 1.57c.41 3.86 5.82 5.93 5.74 9.81-.05 2.3-2.07 4-3.16 6-1.82 3.4-1 7.52-.49 11.34.39 2.89.39 6.29-1.83 8.19a34.06 34.06 0 0 0-2.92 2.07c-1.7 1.76-1.33 4.66-2.44 6.83a1.89 1.89 0 0 1-.46.62 2 2 0 0 1-.65.34 5.87 5.87 0 0 1-6.07-2 10.38 10.38 0 0 1-2.1-6.33 51.14 51.14 0 0 1 .51-6.76c.41-4.34.27-8.71.62-13a10.53 10.53 0 0 1 .91-4c.33-.65.78-1.23 1.1-1.89a10 10 0 0 0 .74-2.86l1.2-7.64c.24-1.52.45-4.27 2.22-4.86s4.57.98 6 1.88z" fill="#e3787d"/><path d="M174.28 404.94a2.36 2.36 0 0 1 .78.69 3.76 3.76 0 0 1 .3 1.57c.41 3.86 5.82 5.93 5.74 9.81-.05 2.3-2.07 4-3.16 6-1.82 3.4-1 7.52-.49 11.34.39 2.89.39 6.29-1.83 8.19a34.06 34.06 0 0 0-2.92 2.07c-1.7 1.76-1.33 4.66-2.44 6.83a1.89 1.89 0 0 1-.46.62 2 2 0 0 1-.65.34 5.87 5.87 0 0 1-6.07-2 10.38 10.38 0 0 1-2.1-6.33 51.14 51.14 0 0 1 .51-6.76c.41-4.34.27-8.71.62-13a10.53 10.53 0 0 1 .91-4c.33-.65.78-1.23 1.1-1.89a10 10 0 0 0 .74-2.86l1.2-7.64c.24-1.52.45-4.27 2.22-4.86s4.57.98 6 1.88z" fill="#e3787d"/><path d="M174.99 406v-.32a1.49 1.49 0 0 1 .23.28 3.48 3.48 0 0 1 .3 1.58v.19a4.92 4.92 0 0 1-.53-1.73zm-12.25 43.2a5.84 5.84 0 0 0 6.06 2 2 2 0 0 0 .66-.33 2.15 2.15 0 0 0 .45-.62c1.12-2.18.75-5.07 2.44-6.84a35.6 35.6 0 0 1 2.92-2.06c2.22-1.91 2.22-5.3 1.83-8.2-.51-3.81-1.33-7.94.5-11.33 1.09-2 3.1-3.74 3.15-6.05a3.39 3.39 0 0 0 0-.64 4.41 4.41 0 0 1 .55 2.18c-.05 2.31-2.06 4-3.15 6.05-1.83 3.39-1 7.51-.5 11.33.39 2.9.39 6.29-1.83 8.19-.9.78-2.09 1.21-2.92 2.07-1.69 1.77-1.32 4.66-2.44 6.83a2 2 0 0 1-.45.63 2.21 2.21 0 0 1-.65.33 5.84 5.84 0 0 1-6.07-2 8.79 8.79 0 0 1-1.72-3.54 8.09 8.09 0 0 0 1.17 2z" opacity=".1"/><path d="M117.58 527.09s-20 .68-19.34 3.29 18.19 3.41 20.24 3.41 5-3.76 5-3.76z" fill="#efb7b9"/><path d="M171.38 435.94s9.79-.57 13.82 3.72 2.25.64 5.13 10.12l2.88 9.48.38 6.85s2.25 2.24 2.05 4.68a4.63 4.63 0 0 0 1 3.58 51.52 51.52 0 0 1 0 6.28c-.26 1.22 1.92 2.44 1.79 3.52a31.9 31.9 0 0 0 0 3.59c0 .19 1.92.51 1.73 2.76a37 37 0 0 0-.13 4s3.2 3.39 2.56 5.25.58 5 .58 5 .7 4.1 2.43 5.18 3 5.9 3 5.9-1.6 4.16-1.6 4.35 1.16 10.89 4.29 12.24 8.84 7.17 8.59 9.73 1 18.07 1.85 20.24-.12 24.41-4.86 25.5-8.14-4.74-10.32-5.32-4.54-8.07-4.54-8.07-6.47-5.51-6.54-9.93-.25-10-.25-10 7.55-12.81 9.09-13.78 5.83-6.4 2.5-11.08a49.78 49.78 0 0 1-5.44-10.63l-3.59-3.2-3-11.47-5.51-17.93-5.19-17.62-4.42-18.51-11.64-8.11s-2.08-5.32 3.36-6.32z" fill="#67647e"/><path d="M175.02 537.21l1.84 1.88c2.94 3 8.47 8.55 9.35 9.05 1.19.68 3.07 3.84 5.46 7.09s5.64 10.25 5.64 10.25 8 11.27 12.72 12.47c3.19.81 7.55 5 10 7.6 1.18 1.25 1.93 2.14 1.93 2.14l9.24-3.59-1.2-3.16-.21-.41c-.88-1.73-4.54-8.8-9.35-17.1a112.35 112.35 0 0 0-14-18.36s-7.35-6.75-7.6-9.83a38.85 38.85 0 0 1 .07-5.12c.14-2.21.35-4.1.35-4.1l-11.18-7.26-8.55 3.57zm-50.22 44.73l9.1 4.49s.45-.55 1.21-1.44c3.07-3.6 11.1-12.86 14.17-14.71 3.83-2.3 10.49-10.12 9.79-12s7.49-13.52 7.49-13.52a22.31 22.31 0 0 0 4.56-5.43 6.21 6.21 0 0 0 .89-4.37c-1.09-4.29-4.68-13.71-4.68-13.71l-1.85-3.08c-.14-.18-6.41-2.36-6.41-2.36l-6.21-.64-7.82 6.66s.29 1.58.72 3.79c.95 4.85 2.6 12.7 3.39 13.19 1.14.7-5.33 6-5.33 6s-4.29 3.65-9.6 16.08c-4 9.42-7.36 16.67-8.74 19.62z" fill="#efb7b9"/><path d="M179.54 522.33l-4.52 14.88 1.84 1.88a78 78 0 0 0 2.86-9.82c1.19-4.87 13.49-3.59 15.63-3.59.94 0 2.26 2.15 3.57 4.44.14-2.21.35-4.1.35-4.1l-11.18-7.26zm-34.5-.45s.29 1.58.72 3.79a16.25 16.25 0 0 1 4-5.54c6-5.3 13.92-.77 13.92-.77.81.3 1.21 1.15 2.1 2.19a18.61 18.61 0 0 1 4.3 10.92 37.67 37.67 0 0 0 1.06 6.91 6.21 6.21 0 0 0 .89-4.37c-1.09-4.29-4.68-13.71-4.68-13.71l-1.85-3.08c-.14-.18-6.41-2.36-6.41-2.36l-6.21-.64z" opacity=".1"/><path d="M135.74 527.94c.09 2.14 8 5.47 8 5.47s0-9 6-14.27 13.92-.77 13.92-.77c.81.3 1.21 1.15 2.1 2.2a18.56 18.56 0 0 1 4.3 10.92c.28 4.54 1.52 10.77 3.42 10.71 3-.08 5-9.05 6.24-13.92s13.49-3.58 15.63-3.58 6.23 11.1 7.77 9.73-1.71-12.06-1.71-12.06l-10.35-12.45-2.21-2.65-45.35 2.45-2.23 3.47c-1.05 1.64-2.08 3.27-2.12 3.39s-3.5 9.18-3.41 11.36z" fill="#444053"/><path d="M181.62 514.29c-.07.09-8.33 9.06-8.71 10.41a42.88 42.88 0 0 0-.78 4.58 31.11 31.11 0 0 0-.47-4.07c-.29-.9 1-3 1.85-3.65a13 13 0 0 0 2.79-2.5c.22-.54 1.28-6.12 1.28-6.12l3.46-.77zm-15.66-.9s5.31 6.09 5.18 7-5.18-7-5.18-7z" opacity=".1"/><path d="M138.81 441.55l6.14 8.55 16.89 3.41s17.11-4.27 5.49-8.71a6.68 6.68 0 0 1-2.84-1.92c-2.05-2.45-1.29-6.16.41-9.77a53.1 53.1 0 0 1 7.69-11.17s-24-10.63-21.31.48a11.1 11.1 0 0 1-.14 5.85c-1.43 5-6 9-9.12 11.23a30.42 30.42 0 0 1-3.21 2.05z" fill="#efb7b9"/><path d="M138.81 441.55l6.14 8.55 16.89 3.41s17.11-4.27 5.49-8.71a6.68 6.68 0 0 1-2.84-1.92c-2.75 1.22-5.61 2.18-7.06 1.75 0 0-9.5-2.78-15.41-5.12a30.42 30.42 0 0 1-3.21 2.04zm2.39 72.09a64.41 64.41 0 0 1 7.15-1.75c2.39-.42 4.69-.59 5.66 0 2.39 1.53 8.2 5 10.25 5a2.93 2.93 0 0 0 2.73-1.7 48 48 0 0 1 10.42 0c2.74.45 9.19-2.82 13.19-5l.46-.26-2.21-2.65-45.35 2.45-2.23 3.47z" opacity=".1"/><path d="M142.9 501.17l-1.7 11.44a67.05 67.05 0 0 1 7.15-1.75c2.39-.42 4.69-.58 5.66 0 2.39 1.54 8.2 5 10.25 5a2.94 2.94 0 0 0 2.73-1.71 48 48 0 0 1 10.42 0c2.74.46 9.19-2.81 13.19-5 2-1.11 3.38-2 3.38-2l-2.56-9.06-7.86-8.37-1.2-12.13-1.87-14-2.91-8.54-5.27-12.48-.93-2.21s-1 .61-2.54 1.41c-.69.37-1.49.78-2.35 1.2-3.25 1.6-7.25 3.23-9.06 2.68 0 0-8.45-2.47-14.36-4.71-2.73-1-4.92-2-5.49-2.69a.61.61 0 0 1-.14-.28c0-.17 0 0-.07.33-.37 3.77-1.63 32.64-1.63 32.64z" fill="#a36468"/><path d="M135.74 470.94l7.17 30.24-1.7 11.44a67.05 67.05 0 0 1 7.15-1.75c.41-4.69.87-12.6-.36-15.24-1.8-3.85-2.82-16-2.82-16l-2.11-38.69-.21-3.74a28.22 28.22 0 0 0-5.28 1.05l-.21.05c-.37 3.77-1.63 32.64-1.63 32.64zm-14.38 57.78c4.47 1.35 10.49 2.82 11.13 1.23.44-1.1.41-3.56.32-6.25-2.18.15-5.45.59-6 1.77s-3.5 2.04-5.45 3.25z" opacity=".1"/><path d="M140.81 437.2c-.38-.26-14.34 2.82-16.27 5.64s-2.94 1.53-3.2 11.4-1.41 13.45-1.41 13.45v13.83s1.41 9.1 0 11.53-1.19 12.56-1.19 12.56 1.92 9.61-1.15 12.68-3.21 8.84-3.21 8.84 15 5.38 16 2.82-.52-12.56.64-15.5 3.46-11.15 3.46-11.15 1.28-6.15 0-7.3 1.79-9.48 1.79-9.48a9.91 9.91 0 0 1 1.15 5.51c-.25 3.2 0 10.12 0 10.12s-2.09 6.66-1.75 9.86-5 6.67-4.27 7.95a15.2 15.2 0 0 1 1.28 3.65s-7.17.06-7.94 1.86-6.66 2.66-7.17 5.17-5.9 3.28-4.49 7.51.52 18.7.52 18.7 25.87-3.2 23.05-15-16.14-6.53-16.14-6.53 10.64-6.28 16.79-5.51 8.58-15.37 8.58-15.37 1.79-15 0-18.83-2.82-16-2.82-16z" fill="#67647e"/><path d="M129.03 520.94s-.64-1.22-5.19-.45-6.85-.25-6.85-.25 9.22 4.14 12.04.7zm1.28-58.95c.06.19-3.33 5.19-.77 9.22s4.68 10.51 5.12 11.72 1.07 3.08 1.07 3.08" opacity=".1"/><path d="M142.35 431.05s-12 9-12 13.26a4.92 4.92 0 0 0 3.65 1.34c2.5 0 7-1.21 7.5-4s2.43 0 1.34 1.47-1.73 2.24-1.73 2.24-11.37 3.11-13.55 4.58.89 3.2.89 3.2 3.2 5.76 3 6.72 7.88 13.52 7.88 13.52 2.69 13.58 2.56 16.14-.32 8-.32 8l5.16 7s1.25-21.77.42-24.72-3.08-21.46-3.08-21.46-2.56-11.27-1.54-12.55 1.39-5.26 1.39-5.26z" opacity=".05"/><path d="M143.38 430.54s-12 9-12 13.26a4.89 4.89 0 0 0 3.65 1.34c2.5 0 7-1.22 7.49-4s2.44 0 1.35 1.47-1.73 2.24-1.73 2.24-11.4 3.09-13.56 4.58.9 3.21.9 3.21 3.2 5.76 3 6.72 7.88 13.52 7.88 13.52 2.69 13.58 2.56 16.14-.32 8-.32 8l4.13 7s2.27-21.78 1.44-24.72-3.06-21.36-3.06-21.36-2.57-11.28-1.54-12.56 1.39-5.25 1.39-5.25z" fill="#67647e"/><path d="M143.38 430.54s-12 9-12 13.26a4.89 4.89 0 0 0 3.65 1.34c2.5 0 7-1.22 7.49-4s2.44 0 1.35 1.47-1.73 2.24-1.73 2.24-11.4 3.09-13.56 4.58.9 3.21.9 3.21 3.2 5.76 3 6.72 7.88 13.52 7.88 13.52 2.69 13.58 2.56 16.14-.32 8-.32 8l4.13 7s2.27-21.78 1.44-24.72-3.06-21.36-3.06-21.36-2.57-11.28-1.54-12.56 1.39-5.25 1.39-5.25z" opacity=".12"/><path d="M166.05 441.17a8.23 8.23 0 0 0 .44 1.8c.47 1.42 1.21 3.34 1.81 5.31.91 3 3.71 8.52 5.38 13.71s4.16 16.26 4.16 16.26-.51 10.19 2.88 12.75 7.24 12 7.24 12 1.21 3.13 2.64 6.12c2-1.11 3.38-2 3.38-2l-2.56-9.06-7.86-8.37-1.2-12.13-1.87-14-2.91-8.54-5.27-12.48c-1.41-.1-2.35-.19-2.35-.19s-.49-.28-1.12-.61c-1.16-.58-2.83-1.32-2.79-.57z" opacity=".1"/><path d="M172.01 442.94s11.88 1 14.54.7 1.54 5.71 1.54 5.71 2.05 12.23 1.6 13.51-2.88 10.89-1.41 13.2 6 14.28 6 14.28 1.47 5.32 2.75 10.63 4.3 15.5 5.06 16.4 7.32 12.7 6.58 14.55-10.84-15.57-12.87-17.11-5.81-11.28-5.81-11.28-3.85-9.41-7.24-12-2.88-12.75-2.88-12.75-2.5-11.08-4.17-16.27-4.46-10.67-5.38-13.71-2.17-6-2.24-7.11 3.93 1.25 3.93 1.25z" opacity=".05"/><path d="M170.98 442.39s11.89 1 14.54.7 1.54 5.7 1.54 5.7 2.05 12.24 1.6 13.52-2.88 10.89-1.41 13.19 6 14.29 6 14.29 1.48 5.31 2.76 10.63 4.29 15.5 5.06 16.4 7.32 12.7 6.57 14.55-10.83-15.58-12.86-17.11-5.8-11.32-5.8-11.32-3.84-9.41-7.24-12-2.88-12.74-2.88-12.74-2.5-11.08-4.16-16.27-4.46-10.67-5.38-13.71-2.18-6-2.24-7.11 3.9 1.28 3.9 1.28z" fill="#67647e"/><path d="M170.98 442.39s11.89 1 14.54.7 1.54 5.7 1.54 5.7 2.05 12.24 1.6 13.52-2.88 10.89-1.41 13.19 6 14.29 6 14.29 1.48 5.31 2.76 10.63 4.29 15.5 5.06 16.4 7.32 12.7 6.57 14.55-10.83-15.58-12.86-17.11-5.8-11.32-5.8-11.32-3.84-9.41-7.24-12-2.88-12.74-2.88-12.74-2.5-11.08-4.16-16.27-4.46-10.67-5.38-13.71-2.18-6-2.24-7.11 3.9 1.28 3.9 1.28z" opacity=".12"/><path d="M175.6 474s-1.47 7.37 1 10.86-.3-9.29-1-10.86zm-26.27 24.37s6.79 1.22 9 4.8-9-4.8-9-4.8zm0 7.3s8.65 2.76 7 3.72-5.51-.77-6.6-.45-.4-3.27-.4-3.27zm70.72 79.88c1.18 1.25 1.93 2.14 1.93 2.14l9.24-3.59-1.2-3.16-.21-.41h-.06c-.55.38-4.64 3-4.64 3z" opacity=".1"/><path d="M225.62 584.59s4.09-2.63 4.64-3 4.52 4.75 4.52 4.75a70.67 70.67 0 0 1 3.4 6.4c.12.77 2.62 1.28 2.75 1.86a39.76 39.76 0 0 0 3.08 4.29s1.66 4.36 4.61 5.51 6.08 4 2.05 7.17-12.11 5-12.11 5-5.12-5.32-6.15-7.81a46.7 46.7 0 0 0-4-6.67 33 33 0 0 1-2.05-4.93c-.26-1.34-6.15-10.44-6.15-10.44z" fill="#444053"/><path d="M124.8 581.94l9.1 4.49s.45-.55 1.21-1.44a38.19 38.19 0 0 1-4.38-2.24l-5.25-2.26z" opacity=".1"/><path d="M130.22 583.29s4.06 2.39 5.13 2.43-1.5 2.9-1.5 2.9-2 2.78-1.92 4.15-2.52 4.65-2.52 4.65-4.44 7.64-4.14 10.29 2.86 9.61-3.2 8.24-12.56-2-12.43-5.16 2.73-8.54 2.73-8.54l2.69-5.47a49 49 0 0 0 3.89-6c1.2-2.43 4.91-10.25 4.91-10.25z" fill="#444053"/><path d="M166.93 445.26c-5.75-2.2-4.52-7.82-1.81-12.93a15.28 15.28 0 0 0 7.19-5.65c1.72.74 3.29 2.82 2.64 4.54a6.58 6.58 0 0 1-1 1.46 9.79 9.79 0 0 0 .81 12.31c.49.5 1.08 1 1.07 1.74 0 .86-.9 1.43-1.72 1.73a11.18 11.18 0 0 1-3.29.65c.5-1.17-.39-2.51-3.89-3.85z" fill="#e3787d"/><path d="M130.35 523.73s-6.15.24-8.2 1.61a8 8 0 0 0-2.84 3.38m54.77-95.93a9.8 9.8 0 0 0-1 9.51 9.83 9.83 0 0 1 .51-10.53 5.94 5.94 0 0 0 1-1.46 2.51 2.51 0 0 0 0-1.73 3 3 0 0 1 .52 2.75 6.35 6.35 0 0 1-1.03 1.46zm-3.11 15.37a11.36 11.36 0 0 0 2.76-.61c.81-.3 1.71-.87 1.72-1.73a.59.59 0 0 0 0-.14 1.78 1.78 0 0 1 .53 1.16c0 .87-.9 1.44-1.72 1.73a11.25 11.25 0 0 1-3.29.66 1.52 1.52 0 0 0 0-1.07zm-4.46-3.81c2.75 1 3.89 2.1 4 3.08a8.9 8.9 0 0 0-3.51-2.05 5.9 5.9 0 0 1-3.72-3.44 6.33 6.33 0 0 0 3.23 2.41zm-15.37-16.07c2.06 3.79 8.79 5.59 9 5.59a15.18 15.18 0 0 0 4.74-.76 53.1 53.1 0 0 1 7.71-11.17s-24-10.63-21.31.48a11.1 11.1 0 0 1-.14 5.86z" opacity=".1"/><path d="M144.95 417.64a15.2 15.2 0 0 0 14 15.15h1.22a15.2 15.2 0 1 0-15.21-15.2z" fill="#efb7b9"/><path d="M144.95 417.64a15.2 15.2 0 0 0 14 15.15 21.81 21.81 0 0 0 5.41-7.23 6.92 6.92 0 0 0 1-3.75c-.13-1.14-.78-2.17-1-3.3-.32-1.85.62-3.68 1.58-5.3a19.14 19.14 0 0 1 3-4.43c.67-.63 1.3-1.25 1.91-1.91a15.21 15.21 0 0 0-25.94 10.77z" opacity=".1"/><path d="M171.67 404.85a5.93 5.93 0 0 0 1.63-3.34 4.64 4.64 0 0 0-1.38-3.13 5.9 5.9 0 0 0-3.21-1.95 18.22 18.22 0 0 0-2.45-.05 19 19 0 0 1-4-.76c-4.84-1.21-10.22-1.69-14.59.73-3.48 1.92-5.8 5.4-7.63 8.93a10.56 10.56 0 0 0-1.44 4.46 18.23 18.23 0 0 0 .77 4.17 1.75 1.75 0 0 1 0 .85c-.2.71-1.07.92-1.74 1.21a5.2 5.2 0 0 0-2.6 3 15.23 15.23 0 0 0-.75 4 5.35 5.35 0 0 0 .15 2.55c.56 1.43 2.14 2.1 3.53 2.77a11.19 11.19 0 0 1 4.08 3 5.45 5.45 0 0 1 1.11 4.8 5.77 5.77 0 0 1-3 3.25 17.78 17.78 0 0 1-4.3 1.35 4.62 4.62 0 0 0-1.81.68c-1.31.95-1.27 3.07-.27 4.34a6.49 6.49 0 0 0 4.26 2.07 15.53 15.53 0 0 0 10.24-2.17c1.88-1.14 3.61-2.82 4-5 .26-1.34 0-2.79.55-4 .72-1.61 2.55-2.34 4.06-3.27 3.1-1.89 5.23-5 6.86-8.26a6.86 6.86 0 0 0 1-3.76c-.13-1.14-.79-2.16-1-3.29-.33-1.86.61-3.69 1.58-5.31a19.58 19.58 0 0 1 3-4.42 31.46 31.46 0 0 0 3.35-3.45z" fill="#e3787d"/><path d="M136.42 427.07a14.06 14.06 0 0 1 2.68 1.62c-.37-.22-.76-.41-1.14-.6a10.76 10.76 0 0 1-2.69-1.58zm.11 19.5a15.56 15.56 0 0 0 10.21-2.17c1.88-1.14 3.61-2.82 4-5 .26-1.34 0-2.79.55-4 .72-1.61 2.55-2.34 4.06-3.26 3.09-1.9 5.22-5 6.86-8.27a6.94 6.94 0 0 0 1-3.76c-.13-1.14-.79-2.16-1-3.29-.32-1.86.62-3.68 1.59-5.31a19.26 19.26 0 0 1 3-4.42 30.56 30.56 0 0 0 3.21-3.42 5.93 5.93 0 0 0 1.63-3.34 4.61 4.61 0 0 0-1.39-3.12 6.35 6.35 0 0 0-.58-.58 6.49 6.49 0 0 1 2.12 1.6 4.64 4.64 0 0 1 1.38 3.13 5.82 5.82 0 0 1-1.62 3.33 30.62 30.62 0 0 1-3.21 3.42 19.35 19.35 0 0 0-3 4.43c-1 1.62-1.9 3.45-1.58 5.31.2 1.13.85 2.15 1 3.29a6.87 6.87 0 0 1-1 3.76c-1.64 3.23-3.77 6.37-6.86 8.26-1.51.92-3.34 1.65-4.06 3.27-.56 1.24-.3 2.69-.55 4-.41 2.16-2.15 3.84-4 5a15.62 15.62 0 0 1-10.24 2.17 7 7 0 0 1-3.9-1.68 9.19 9.19 0 0 0 2.38.65z" opacity=".1"/><path d="M186.39 613.73c-.15 2.13-.56 5.55-.56 5.55s-1.72.21-4.36.45l-1.8.15c-1.38.11-2.93.22-4.56.32-3 .16-6.34.26-9.47.19-1.56 0-3.08-.12-4.48-.26-.63-.06-1.24-.13-1.82-.22-3.58-.53-6.13-1.55-6.37-3.35a10.22 10.22 0 0 1-.08-2.29c.33-4 3.62-3.23 3.62-3.23-.21-1.11.59-4.58 1.24-7.09.4-1.58.75-2.78.75-2.78l23.14-1.55h.1a1.13 1.13 0 0 1 1.13 1.19c-.13 2.78-.33 9.13.81 9.27a3.53 3.53 0 0 1 2.78 2.06 9.27 9.27 0 0 1-.07 1.59zm-19.65-30.46s-8.72 10.51-12.92 7.6l-.29-.21c-2.83-2.15-3.57-5.59-3.77-7.34-.08-.76-.2-1.51-.34-2.27a15.91 15.91 0 0 1 .76-7.66 6.54 6.54 0 0 1 .23-.62c2.92-.83 16.33 10.5 16.33 10.5z" fill="#d3899b"/><path d="M162.06 584.24s-2.75 1.94-6.63 5.09a14.62 14.62 0 0 1-1.9 1.33c-2.83-2.15-3.57-5.59-3.77-7.34-.08-.76-.2-1.51-.34-2.27a15.91 15.91 0 0 1 .76-7.66c5.43.38 11.88 10.85 11.88 10.85z" fill="#eec5cd"/><path d="M159.07 583.21s-1.47 1-3.54 2.72a6.94 6.94 0 0 1-1 .7 5.7 5.7 0 0 1-2-3.91c-.05-.41-.12-.81-.19-1.21a8.45 8.45 0 0 1 .41-4.09c2.87.2 6.32 5.79 6.32 5.79z" opacity=".1"/><path d="M172.4 583.27s8.72 10.51 12.92 7.6l.29-.21a10.67 10.67 0 0 0 3.76-7.34c.09-.76.21-1.51.35-2.27a15.76 15.76 0 0 0-.77-7.66c-.14-.4-.24-.62-.24-.62-2.9-.83-16.31 10.5-16.31 10.5z" fill="#d3899b"/><path d="M177.08 584.24s2.75 1.94 6.63 5.09a14.62 14.62 0 0 0 1.9 1.33 10.67 10.67 0 0 0 3.76-7.34c.09-.76.21-1.51.35-2.27a15.76 15.76 0 0 0-.77-7.66c-5.42.38-11.87 10.85-11.87 10.85z" fill="#eec5cd"/><path d="M180.09 583.2s1.46 1 3.52 2.7a7.65 7.65 0 0 0 1 .71 5.66 5.66 0 0 0 2-3.9c0-.4.11-.8.19-1.2a8.38 8.38 0 0 0-.41-4.07c-2.88.2-6.3 5.76-6.3 5.76zm1.55 16.42a20.65 20.65 0 0 1-3.35 4.26c-3.47 3.06-18.41 1.85-19.38 1.69-.21 0-.63-.64-1.16-1.62.4-1.58.75-2.78.75-2.78z" opacity=".1"/><path d="M169.8 582.39c-.61 0-1.22.06-1.83 0-3.12 0-13.63.09-14.8 4.33-1.37 5 4.77 18.4 5.74 18.56s15.91 1.37 19.38-1.7 8-12.68 7.76-13.57c0 .05 4.31-9.07-16.25-7.62z" fill="#d3899b"/><path d="M169.47 590.5a11.05 11.05 0 0 0-11.31 6.4 9.23 9.23 0 0 0 .68 9.3c1.2 1.69 3 3 5.42 1.94 5.48-2.26 5.21-17.64 5.21-17.64z" opacity=".1"/><path d="M169.23 590.02a11.05 11.05 0 0 0-11.31 6.39 9.22 9.22 0 0 0 .68 9.31c1.2 1.69 3 2.94 5.41 1.93 5.45-2.25 5.22-17.63 5.22-17.63z" opacity=".1"/><path d="M169.23 590.26a11.05 11.05 0 0 0-11.31 6.39 9.22 9.22 0 0 0 .68 9.31c1.2 1.69 3 3 5.41 1.93 5.45-2.25 5.22-17.63 5.22-17.63z" fill="#eec5cd"/><path d="M160.92 596.94s-1.05 1-.64 1.21.64-1.21.64-1.21zm1.14 1.19s-.58 1.26-.17 1.4.65-.91.65-.91zm-2.54 1.91s-.56 1.49 0 1.49 0-1.49 0-1.49z" fill="#3f2b3b"/><path d="M158.82 604.04a4.25 4.25 0 0 0 4 2.66m-1.37-1.82a2 2 0 0 0 2.42.33" fill="none" stroke="#3f2b3b" stroke-miterlimit="10"/><path d="M170.44 590.5a11 11 0 0 1 11.3 6.44 9.2 9.2 0 0 1-.68 9.3c-1.2 1.69-3 3-5.41 1.94-5.45-2.3-5.21-17.68-5.21-17.68z" opacity=".1"/><path d="M170.68 590.02a11.06 11.06 0 0 1 11.31 6.39 9.27 9.27 0 0 1-.68 9.31c-1.2 1.69-3 2.94-5.42 1.93-5.45-2.25-5.21-17.63-5.21-17.63z" opacity=".1"/><path d="M170.68 590.26a11.06 11.06 0 0 1 11.31 6.39 9.27 9.27 0 0 1-.68 9.31c-1.2 1.69-3 3-5.42 1.93-5.45-2.25-5.21-17.63-5.21-17.63z" fill="#eec5cd"/><path d="M178.98 596.94s1 1 .65 1.21-.65-1.21-.65-1.21zm-1.13 1.19s.57 1.26.16 1.4-.65-.91-.65-.91zm2.54 1.91s.56 1.49 0 1.49 0-1.49 0-1.49z" fill="#3f2b3b"/><path d="M181.08 604.04a4.24 4.24 0 0 1-4.05 2.66m1.43-1.82a2 2 0 0 1-2.43.33" fill="none" stroke="#3f2b3b" stroke-miterlimit="10"/><path d="M166.3 612.2a11.07 11.07 0 0 1 8 0z" fill="#3f2b3b"/><path d="M159.34 619.94c-3.58-.53-6.13-1.55-6.37-3.35a10.22 10.22 0 0 1-.08-2.29 5.1 5.1 0 0 1 1.37-.5c.65-.18 1.45-.06 3.15.42s1.58 2.49 1.94 5.09a1.87 1.87 0 0 1-.01.63z" opacity=".1"/><path d="M154.02 614.01s-4.67.86-2.14 4.88a1.72 1.72 0 0 0 .86.71c.29.11.58.11.55-.32l2.06 2.37s4.12.48 3.76-2.12-.25-4.61-1.94-5.09-2.5-.61-3.15-.43z" fill="#d3899b"/><path d="M155.13 616.72s1 2.26 2.36.36m-4.63.53s.51 2.13 2.45.54" fill="none" stroke="#3f2b3b" stroke-miterlimit="10"/><path d="M186.39 613.73c-.15 2.13-.56 5.55-.56 5.55s-1.72.21-4.36.45a2.29 2.29 0 0 1 0-.45c.37-2.6.25-4.6 1.94-5.09a7 7 0 0 1 2.98-.46z" opacity=".1"/><path d="M186.82 614.01s4.66.86 2.14 4.88a1.72 1.72 0 0 1-.86.71c-.3.11-.59.11-.56-.32l-2.06 2.37s-4.12.48-3.75-2.12.24-4.61 1.94-5.09 2.5-.61 3.15-.43z" fill="#d3899b"/><path d="M185.74 616.72s-1 2.26-2.37.36m4.61.53s-.52 2.13-2.46.54" fill="none" stroke="#3f2b3b" stroke-miterlimit="10"/><path d="M165.64 620.39c-1.56 0-3.08-.12-4.48-.26l-1.4-4.7a3.17 3.17 0 0 1-.12-.85 3 3 0 0 1 6 0c-.01 1.81.01 4.13 0 5.81z" opacity=".1"/><path d="M159.52 615.43l1.65 5.55s-2.81-.06-2 1.7c0 0 .7.66 1 .42 0 0-.37 1.15 1.09 1.15 0 0 1.57.85 2.18.24s1.88-1.51 2-1.87 0-4.88 0-8.07a3 3 0 0 0-3-3 3 3 0 0 0-2.92 3.88z" fill="#d3899b"/><path d="M161.74 622.41s-1.22 1.18-.57 1.84m.04-2.57a1.64 1.64 0 0 0-1.13 1.42" fill="none" stroke="#3f2b3b" stroke-miterlimit="10"/><path d="M181.12 614.58a2.83 2.83 0 0 1-.13.85l-1.32 4.45c-1.38.11-2.93.22-4.56.32v-5.65a3 3 0 0 1 6 0z" opacity=".1"/><path d="M181.23 615.43l-1.64 5.51s2.8-.06 2 1.7c0 0-.7.66-.94.42 0 0 .36 1.15-1.09 1.15 0 0-1.57.85-2.18.24s-1.88-1.51-2-1.87-.06-4.88 0-8.07a3 3 0 0 1 3-3 3 3 0 0 1 2.85 3.92z" fill="#d3899b"/><path d="M179.01 622.41s1.22 1.18.58 1.84m-.04-2.57a1.64 1.64 0 0 1 1.13 1.42" fill="none" stroke="#3f2b3b" stroke-miterlimit="10"/><path d="M169.23 589.05s-5.7-.18-5.88 4.24 8.91 2.55 8.91 2.55 3.81-.52 3.15-3.2-2.06-3.35-6.18-3.59z" opacity=".1"/><path d="M169.23 588.57s-5.7-.19-5.88 4.24 8.91 2.54 8.91 2.54 3.81-.51 3.15-3.19-2.06-3.35-6.18-3.59z" opacity=".1"/><path d="M169.23 588.81s-5.7-.18-5.88 4.24 8.91 2.54 8.91 2.54 3.81-.51 3.15-3.19-2.06-3.35-6.18-3.59z" fill="#3f2b3b"/><path d="M156.51 611.04s1.91.69 2.3 2m24.84-2.97s-1.37.58-1.28 3" opacity=".1"/><ellipse cx="197.77" cy="657.79" rx=".89" ry="1.47" transform="rotate(-30 106.114 715.753)" fill="#eec5cd"/><ellipse cx="225.66" cy="657.79" rx="1.47" ry=".89" transform="rotate(-60 172.069 674.489)" fill="#eec5cd"/><ellipse cx="48.95" cy="817.64" rx="36.39" ry="6.24" fill="tomato" opacity=".1"/><path d="M65.19 754.81s-50.68 26.18-24.5 57c0 0 2.46 6.74 9.59 6.22 0 0-1.42-2.59 4-4.67a26.6 26.6 0 0 0 5.47-2.91 12.89 12.89 0 0 0 4.9-6.55s10.37-13.87 2.33-39.53c0 0 1-7.25.13-8.42l-6.16 8.44s6.37 4.28 7.1 10.55c0 0-6.63-10.53-8.07-9.34-.29.25-3.06 4.62-3.06 4.62s11 7.49 11.86 17.21c0 0-6.22-13.61-12.93-15.56l-3.79 6.86s12 7.34 13.41 18.37c0 0-7-14-14.14-16.82l-2.82 7.24s11.62 7.39 12.69 16.58c0 0-9.72-15.36-13.22-14.88 0 0-2.19 6.81-1.9 8.9 0 0 8.22 5.49 8.36 10.88 0 0-7.58-9.57-8.75-8.94 0 0-.48 9.62 1.85 14.63 0 0-4-7.14-3.35-14.63 0 0-4 3.4-4.86 7.83 0 0-2.19-5.3 5-10.16 0 0 .68-7.49 1.51-8.41 0 0-7.78 3.79-11.08 8.46 0 0 1.21-7 11.76-10.4l2.67-7.34s-10.54 4.47-13.8 8.41c0 0 2.34-6.9 14.63-10.21l3.64-6.75s-9.38 3.15-13.94 6.75c0 0 3.54-5.93 15.06-8.65l3-4.23s-6.81 2.43-8.7 3.31-2.29.43-2.29.43a24.62 24.62 0 0 1 12.2-5.54s6.67-8.29 6.2-8.75z" fill="tomato"/><ellipse cx="166.13" cy="768.83" rx="27.19" ry="4.67" fill="tomato" opacity=".1"/><path d="M178.25 721.94s-37.85 19.55-18.29 42.6c0 0 1.83 5 7.16 4.64 0 0-1.07-1.93 3-3.48a19.77 19.77 0 0 0 4.09-2.18 9.61 9.61 0 0 0 3.66-4.89s7.74-10.36 1.74-29.53c0 0 .77-5.42.1-6.29l-4.6 6.3s4.75 3.2 5.3 7.88c0 0-5-7.86-6-7-.22.18-2.29 3.45-2.29 3.45s8.25 5.59 8.86 12.85c0 0-4.64-10.16-9.66-11.62l-2.83 5.12s9 5.49 10 13.73c0 0-5.22-10.46-10.56-12.56l-2.11 5.41s8.68 5.51 9.48 12.38c0 0-7.26-11.48-9.88-11.11 0 0-1.63 5.08-1.41 6.64 0 0 6.13 4.1 6.24 8.13 0 0-5.66-7.15-6.53-6.68 0 0-.37 7.19 1.38 10.93 0 0-3-5.34-2.51-10.93a12 12 0 0 0-3.63 5.85s-1.63-4 3.74-7.59c0 0 .51-5.59 1.13-6.28 0 0-5.81 2.83-8.28 6.32 0 0 .91-5.2 8.78-7.77l2-5.49s-7.88 3.34-10.31 6.28c0 0 1.75-5.15 10.93-7.62l2.72-5.05s-7 2.36-10.42 5.05c0 0 2.65-4.43 11.26-6.46l2.21-3.16s-5.08 1.81-6.5 2.47-1.7.33-1.7.33a18.29 18.29 0 0 1 9.11-4.14s4.97-6.23 4.62-6.53z" fill="tomato"/><ellipse cx="16.12" cy="633.49" rx="15.19" ry="2.61" fill="tomato" opacity=".1"/><path d="M22.9 607.27s-21.16 10.93-10.23 23.8a4.07 4.07 0 0 0 4 2.6s-.59-1.09 1.68-2a10.79 10.79 0 0 0 2.28-1.22 5.32 5.32 0 0 0 2-2.73s4.33-5.79 1-16.5c0 0 .43-3 .06-3.51l-2.57 3.52s2.65 1.78 3 4.4c0 0-2.77-4.39-3.37-3.89-.12.1-1.28 1.92-1.28 1.92s4.61 3.13 4.95 7.18c0 0-2.59-5.68-5.39-6.49l-1.58 2.86s5 3.07 5.59 7.67c0 0-2.92-5.84-5.9-7l-1.18 3s4.85 3.09 5.3 6.92c0 0-4.06-6.41-5.52-6.21a15.68 15.68 0 0 0-.79 3.72s3.43 2.29 3.49 4.54c0 0-3.16-4-3.65-3.73 0 0-.2 4 .77 6.1a12.2 12.2 0 0 1-1.4-6.1 6.74 6.74 0 0 0-2 3.26s-.91-2.21 2.09-4.24c0 0 .28-3.12.63-3.51 0 0-3.25 1.59-4.63 3.53 0 0 .51-2.9 4.91-4.34l1.12-3.06s-4.4 1.87-5.76 3.51c0 0 1-2.88 6.1-4.26l1.52-2.82a25 25 0 0 0-5.82 2.82s1.48-2.47 6.29-3.61l1.24-1.76s-2.84 1-3.63 1.37-1 .19-1 .19a10.28 10.28 0 0 1 5.1-2.32s2.77-3.42 2.58-3.61zM901.24 98.14s-27.5-22.81 22.66-59.49c0 0 24.9 47.62-8.46 63.74 0 0 .63-23.51-2.46-23.47s-11.74 19.22-11.74 19.22zm-42.08 23.19s-48.55 4.49-35.48-79.3c0 0 70 22 53.29 69.72 0 0-22.06-23.31-25-20.29s7.19 29.87 7.19 29.87zM628.53 228.49s-48.02 8.45-41.79-76.15c0 0 71.53 16.22 58.79 65.15 0 0-23.88-21.43-26.57-18.18s9.57 29.18 9.57 29.18zm360.44-110.55s46.19 15.6 52.85-68.94c0 0-73.15 5.21-68 55.5 0 0 26.85-17.57 29-13.95s-13.85 27.39-13.85 27.39zm-243.68 24.75s-46.07-15.94.4-86.87c0 0 54.67 48.89 19.78 85.49 0 0-10.47-30.33-14.4-28.79s-5.78 30.17-5.78 30.17zm167.15-24.75s-2.72-25.93 42.17-19.49c0 0-11.3 37.55-36.92 28.95 0 0 12.31-11.95 10.68-13.5s-15.93 4.04-15.93 4.04zm-45.48 53.75s-2.73-25.93 42.16-19.49c0 0-11.29 37.55-36.92 29 0 0 12.31-12 10.68-13.5s-15.92 3.99-15.92 3.99zm95.12 11.41s-19.69-17.08 17.49-43c0 0 17.39 35.15-7.2 46.36 0 0 .84-17.13-1.42-17.15s-8.87 13.79-8.87 13.79zm-79.41 146.84s24.36-9.29 29.67 35.74c0 0-39.19-1.27-37.47-28.24 0 0 14.71 8.83 15.8 6.85s-8-14.35-8-14.35zm1.92-45.61s-19.69-17.08 17.5-43c0 0 17.39 35.15-7.21 46.37 0 0 .84-17.14-1.41-17.16s-8.88 13.79-8.88 13.79zm-151.48-48.51s-23.63 11-32.12-33.55c0 0 39.19-1.51 39.37 25.52 0 0-15.3-7.77-16.24-5.72s8.99 13.75 8.99 13.75zm-57.15-52.88s-23.64 11-32.12-33.55c0 0 39.19-1.51 39.37 25.53 0 0-15.3-7.77-16.24-5.72s8.99 13.74 8.99 13.74zm79.54 122.74s-26 1-16.57-43.39c0 0 36.69 13.83 26.37 38.81 0 0-11.08-13.1-12.75-11.58s2.95 16.16 2.95 16.16zm-4.61 31.48s4.63 25.65-40.61 22.55c0 0 8.49-38.29 34.68-31.6 0 0-11.4 12.82-9.65 14.25s15.58-5.2 15.58-5.2zm-60.68-19.86s-9.87 24.13-46.37-2.79c0 0 27.73-27.73 46.23-8 0 0-16.5 4.69-15.8 6.83s15.94 3.96 15.94 3.96zm205.33-94.56s-27.5-22.8 22.66-59.49c0 0 24.9 47.63-8.46 63.75 0 0 .63-23.51-2.46-23.47s-11.74 19.21-11.74 19.21zm113.58-47.05s-20.1-29.54 38.27-50.87c0 0 10.71 52.67-25.81 58.9 0 0 7.12-22.41 4.14-23.23s-16.6 15.2-16.6 15.2zm-3.14 92.91s-27.5-22.8 22.66-59.49c0 0 24.9 47.62-8.46 63.74 0 0 .63-23.5-2.46-23.46s-11.74 19.21-11.74 19.21zm-49.11 44.43s10.92-34 63.64-1.12c0 0-34.93 40.84-62.3 15.88 0 0 22-8.17 20.86-11s-22.2-3.76-22.2-3.76zm70.45-24.72s10.92-34 63.64-1.12c0 0-34.93 40.84-62.31 15.88 0 0 22-8.17 20.87-11s-22.2-3.76-22.2-3.76z" fill="tomato"/><path d="M801.38 159.54s-35.17-6.29-9.61-62.93c0 0 45.14 29.17 24.06 59.63 0 0-11-20.76-13.71-19.2s-.74 22.5-.74 22.5zm-83.64 13.17s-35.36 5.23-29.1-56.62c0 0 52.07 13.33 41.75 48.91 0 0-17.06-16.18-19.1-13.86s6.45 21.57 6.45 21.57zm-21.93 91.67s-35.35 5.2-29.09-56.63c0 0 52.07 13.33 41.75 48.91 0 0-17.06-16.18-19.1-13.86s6.44 21.58 6.44 21.58zm-37.42 27.84s-30.49 18.61-48.91-40.74c0 0 53.13-8.1 57.55 28.69 0 0-22-8.22-23-5.29s14.36 17.34 14.36 17.34zm286.45-28.48s-27.51-22.81 22.65-59.49c0 0 24.9 47.62-8.45 63.74 0 0 .62-23.51-2.47-23.47s-11.73 19.22-11.73 19.22z" fill="tomato"/><path d="M749.74 602.44s65.5-2.76 72.4-131-61.37-150-61.37-150-21.63-12.08-31.22-12.58-41.64 2.52-41.64 2.52l35.34-6.81s-49.72-18.93-64.61-20.45l53.75 11.36s.76-29.78-12.11-39.62c0 0 11-.82 16.82 20.63a41 41 0 0 0 24.54 27.54c19.94 7.78 47.5 20.05 53.78 30.57 0 0 11.61 12.11 9.85-19.43s-10.1-58.56-13.13-59.32c0 0-23.72-25.23-57-26.74 0 0 19.43-7.83 52.24 16.65 0 0 2.77-12.36-9.59-27s-31.55-45.43-52.5-48.71c0 0 29.28-1.77 52.5 36.09 0 0 8.58 5.55 9.34-8.58s5.8-31.8 5.8-31.8 7.07 32.56-7.82 47.19c0 0 28.51 37.1 27.25 78.75 0 0 8.84 18.92 12.12-3.29 0 0 1.9-30.58 5.69-56.53a76.8 76.8 0 0 0-16.11-59.26c-6.31-7.85-10.7-15.48-8.26-19.48l33.06 39.37s27.76-64.35 48-78.23 22.72-16.91 22.72-16.91l-32.56 38.11 40.89-14.39-41.01 18.95s-18.93 15.39-29.78 57.54-11.86 68.36-11.86 68.36 58.3-46.18 69.4-44.67l-37.73 28.57a89.91 89.91 0 0 0-35.46 65.6s72.94-18.68 90.61-22.21l33.31-34.07-25.24 32.3 52-.75 29.78-21.2s-23.47 19.68-21.2 20.94 36.6 2.78 36.6 2.78-87.33-.51-96.92 5.8-31 8.58-31 8.58l61.83 9.34-73.69-5.3s-55.81 10.1-58.81 27.51c0 0 11.36 29.64 18.93 41.39 6.28 9.77 18.92 41.39 21.45 69.15s6 70.41-3.54 96.41-13.12 40.88-8.32 48.71 9.33 17.92-6.31 19.93-84.3-1-84.3-1-20.99 4.13-16.91-11.31z" fill="#b77b7f"/><path d="M786.39 588.67a33 33 0 0 1 22.23-2.73c12.86 2.78 32.54 1.3 34.34 1m-15.46-149.4s3.13 49.33-2.43 59.06zm11.54 59.06s-4 46.21-6.78 55.24 6.78-55.24 6.78-55.24zm3.92-113.6c2.83 1 15 25.71 12.56 33s-12.56-33-12.56-33zm-30.84-25.61c1.32.6 7 14.81 5.85 19s-5.85-19-5.85-19zm52.62 82.85c-1.4 14.32-2.16 23.7-1.27 35.17a135.81 135.81 0 0 1-.38 26.75M712.52 273.43a11.53 11.53 0 0 1 2.37 7.26c.08 2.6-.25 5.2-.08 7.79s1.47 5.93 4.18 6.3m40.13-106.76a66.49 66.49 0 0 1 9.14 11.34 27.16 27.16 0 0 0 2.59 3.69 42.22 42.22 0 0 0 5 4.1 23.61 23.61 0 0 1 8 12.52m107.2-105.39a16.36 16.36 0 0 1-3.24 4.33c-1.14 1.09-2.45 2-3.48 3.2a26.47 26.47 0 0 0-2.24 3.29 89.49 89.49 0 0 1-9.35 11.84m-42.79 50.35c2.18 1.36 2.75 4.27 2.7 6.83s-.49 5.23.47 7.61c.43 1.09 1.13 2 1.59 3.12a14.44 14.44 0 0 1 .74 5.93q0 3.48-.2 7c-.12 2.79-.39 5.83-2.29 7.88" opacity=".1"/><path d="M848.24 259.69a29.57 29.57 0 0 0-5.67 3.9 10.13 10.13 0 0 0-3.29 5.9c-.12 1-.06 2-.27 2.93a9.44 9.44 0 0 1-1.94 3.55 49.84 49.84 0 0 1-4.78 5.29" fill="none"/><path d="M831.74 325.59a35.08 35.08 0 0 1 4.56-3.18 19.3 19.3 0 0 1 4.7-2.06c2.51-.67 5.16-.57 7.75-.84s5.3-1 7.07-2.9m78.55-22.91c-3.07.09-6.26.2-9 1.6-1.39.72-2.6 1.75-4 2.51a12.1 12.1 0 0 1-5.79 1.51m-23.78 7.05a1.71 1.71 0 0 1 2.2.52c.55.62.85 1.44 1.42 2.05 1.12 1.22 3 1.35 4.6 1.41m-25.78-69.2l-3 1.54a52.15 52.15 0 0 0-8.7 5.31m-22.02 22c-1.94-.46-3.61 1.61-4 3.57s.06 4-.5 5.95a11 11 0 0 1-2.91 4.36m-25.37-10.28c-1.77 5.27 2 11 .88 16.47-.33 1.66-1.1 3.21-1.49 4.85-1 4.34.73 8.95 3.57 12.39" opacity=".1"/><path d="M516.37 806a47.26 47.26 0 0 0-8.46 2.08 3.53 3.53 0 0 1-.54.32 10.43 10.43 0 0 1-6.62.48s-9 1.14-14.13-2.93c-1.93-1.54-3.9-3.32-5.6-4.94a3.36 3.36 0 0 0-4.3-.29c-.25-.17-.55-.38-.89-.64-2.22-1.65-6.07-5-7.61-9.41-.54-1.54-1.19-3.05-1.87-4.54-.93-2-2-4.65-1.86-6.09.15-2.09-6.05-20.35-9.78-29a34 34 0 0 1-2.85-12.04 10.38 10.38 0 0 1 .21-3.27c.75-1.75 1.12-10.41-1.68-14.18l-7.47-20.7-10.7-32.09-.32-1a45.31 45.31 0 0 1-2.58-3.88 35.23 35.23 0 0 1-3-6.25c-.14-.42-.28-.86-.4-1.29 4.1-1.3.93-13.06.93-13.06s-2-3.32-1.54-13a136.57 136.57 0 0 0-.81-22.33c-.12-1.08-.23-2.19-.32-3.31 9 4.22 32.53 15.11 34.79 15.11 2.8 0 10.09 4.61 10.09 4.61s14.75 8.65 27.64 2.76-10.28-13.63-16.63-12.52-19.61-7-19.61-7l-24.09-14.35-10-6c3.8-8.58 7.05-23.88-.27-34.7l-2.8-3a118.28 118.28 0 0 0 2-24.59c0-7.49-.39-15-.31-22.47a21.9 21.9 0 0 0 8.87-23.73 13.16 13.16 0 0 0 3.4-3.08c3.11-4.43 2.78-10.7-.22-15.13a12.39 12.39 0 0 0-4.26-4.69 28.18 28.18 0 0 0-5.66-2.51 17.86 17.86 0 0 1 1.93 1c.18.12.34.26.52.38-2-.8-4.13-1.43-6.08-2.38A25.72 25.72 0 0 1 421 451c.94.39 1.9.74 2.86 1.08l-.35-.15c-3.34-1.63-6.14-4.17-9.41-5.93a22 22 0 0 0-4.25-1.72l.51.25c.61.32 1.19.68 1.77 1-7.72-3.2-17.09-2-24.13 2.61-7.65 5-12.59 13.42-14.28 22.29-1.16 6.08-.94 12.46-3.18 18.24-4.53 11.69-18 18.23-22.49 29.94-2 5.29-2 11.1-2.17 16.76A186.83 186.83 0 0 1 329 606.71c-1.31 2.86-2.9 5.89-5.3 7.83l-.76.05a8.91 8.91 0 0 1-1.95 1l.82.16c-.26.12-.54.24-.82.34.58.13 1.17.22 1.75.3a10.07 10.07 0 0 1-1 .44c6.73 1.45 13.91-.33 19.81-3.86s10.62-8.68 14.63-14.21c.32-.44.62-.89.93-1.33-.1.31-.19.58-.28.8-.74 1.84-3.55 31.29-3.55 33.31s-.56 20.25-1.49 22.46-11.79 30.17 2.61 26.86c9.14-2.11 10.8-11 10.81-17.17l.7-.23c1.23-.4 2.67-.83 4.2-1.25v2.45a40.15 40.15 0 0 0-1.15 6.07c0 2.21-1.49 7-1.49 7l-.08.17c-.73 1.65-6.63 15.22-6.73 25.23l-5.52 14.55-6 10.49s-17 20.43-20 40.31L319 798.38s-2.29-2.83-2.66-1.73-1.12 6.81-2.06 7-1.3 4.24-1.3 4.24-5.05 6.07-5.61 9.75c0 .12 0 .24-.05.36a19.61 19.61 0 0 0-.19 3.2.66.66 0 0 0 0 .14v1.45l.09.47s.19 2.76 7.29 4.42 14.56 2.57 18.3 4.6S347 836 347 836l14-.74a5.18 5.18 0 0 0 3.41-8.89l-.14-.13-9.66-2.54-.79-.22s-5.29.74-6.85-2.94a13.31 13.31 0 0 1-6.6-12.52s1.12-11.41-1.68-10.31c-.31.12-.62.27-.92.42 0-.31 0-.63.08-1v-.31c0-.26.08-.53.13-.8v-.31c.07-.34.16-.69.26-1a.24.24 0 0 1 0-.08c.11-.38.24-.77.38-1.16 0-.1.09-.2.13-.31.11-.29.24-.58.38-.87.06-.13.13-.26.19-.4s.3-.56.47-.84c.07-.12.14-.25.22-.37a14.05 14.05 0 0 1 .81-1.2c5.23-7 14-23.2 14-23.2l8.21-16.56s4.49-9.58 8.41-11.42 10.46-8.83 12.7-14.54l16.6-37a6.79 6.79 0 0 1 .58 2.27s8.68 22.09 13.16 25.78c0 0 5.65 7.46 7.37 11.24.5 1.08 1 2.14 1.61 3.17a10.78 10.78 0 0 1 1.67 4.27c0 2 3.37 7.63 3.37 7.63v7.46s.55 18.68 13.25 33.5l6.44 10.78L460.15 811l.45.67a7.77 7.77 0 0 1-1.87-.52l3.74 8.1a30.91 30.91 0 0 1 1.18 4.42c0 .85 3.05 8.53 3.05 8.53a.42.42 0 0 1 0 .07v1.22c0 .08 0 .19.06.3l.06.24c0 .11.06.21.1.32l.09.27c0 .1.09.21.14.31a2.39 2.39 0 0 0 .13.28c.06.11.13.21.2.32s.09.16.15.24a4.14 4.14 0 0 0 .39.46l.14.13.17.16.2.15.16.12a6.36 6.36 0 0 0 .58.35l.18.08a3.93 3.93 0 0 0 .55.21l.24.08c.26.07.53.13.82.18h.21c.25 0 .51 0 .79.06h.33a11.36 11.36 0 0 0 1.14 0s16.25-5.4 18.74-6 15.19-5.95 15.19-5.95 14.32-8 14-13.38-1.78-6.69-5.09-6.42z" transform="translate(-41.26 -38.06)" fill="url(#b)"/><path d="M373.86 445.06a19.42 19.42 0 0 0-1.39 4c-.34 1.85-.13 3.79-.67 5.58-.79 2.61-3 4.49-4.75 6.56a23.45 23.45 0 0 0-5.56 15.49c.05 3.27.79 6.55.36 9.79-.35 2.55-1.41 4.94-2 7.44a31.56 31.56 0 0 0-.67 7.2 69.81 69.81 0 0 0 4.41 24.22 2.19 2.19 0 0 0 .63 1 2.34 2.34 0 0 0 1.14.38l7.18 1a3.06 3.06 0 0 0 2-.16 3 3 0 0 0 1.06-1.43c5.28-11.68 6.18-24.83 6.11-37.65s-1-25.71.79-38.39c.58-4 1.44-8 1.71-12 .17-2.61-.91-8.59-4.63-5.51-2.84 2.42-4.28 9.13-5.72 12.48z" fill="#864d6c"/><path d="M382.37 432.03a11 11 0 0 1 .11 2.22c-.27 4.05-1.13 8-1.71 12-1.84 12.68-.87 25.57-.79 38.39s-.83 26-6.11 37.64a3 3 0 0 1-1.06 1.43 3.06 3.06 0 0 1-2 .17l-7.19-1a2.27 2.27 0 0 1-1.14-.37l-.11-.12c.3.92.61 1.83.95 2.74a2.36 2.36 0 0 0 .63 1 2.27 2.27 0 0 0 1.14.37l7.19 1a3.07 3.07 0 0 0 2-.16 3 3 0 0 0 1-1.44c5.28-11.67 6.19-24.83 6.11-37.64s-1-25.71.79-38.39c.59-4 1.44-8 1.71-12 .16-1.62-.24-4.66-1.52-5.84z" opacity=".1"/><path d="M370.09 501.94a77.69 77.69 0 0 0 4.12 6.78l-20.75-8.54s-20.26-14.89-15.62-15.62c1.09-.18 2.66-2 4.41-4.62a158.1 158.1 0 0 0 9.14-16.91c2.49-5.17 4.27-9.23 4.27-9.23l18.55 8.55a94.48 94.48 0 0 0-5.12 9.3 56.2 56.2 0 0 0-4.15 11.2c-1.29 5.55 2.11 13.47 5.15 19.09zm-41.04 119.91s-2.56 9.52-2.56 11.72-1.47 7-1.47 7-6.57 14.65-6.67 25.26l-5.41 14.47-5.86 10.43s-16.66 20.33-19.59 40.1l-11.35 33.65 20.5 1.28a15.65 15.65 0 0 1 2.38-14.1c5.13-7 13.74-23.07 13.74-23.07l8.05-16.47s4.4-9.52 8.24-11.36 10.25-8.78 12.45-14.46l20.51-46.36 9.73-23.4z" fill="#ffc2c8"/><path d="M371.74 616.54l-9.73 23.4-20.51 46.32c-2.2 5.68-8.6 12.63-12.45 14.46s-8.24 11.36-8.24 11.36l-8.07 16.51s-8.61 16.12-13.74 23.07a15.71 15.71 0 0 0-3 7.9 15 15 0 0 0 .66 6.2l-20.5-1.28 1.48-4.38 9.87-29.31c2.93-19.77 19.59-40.1 19.59-40.1l5.86-10.43 5.41-14.47c.1-10.61 6.67-25.26 6.67-25.26s1.47-4.76 1.47-7 2.56-11.72 2.56-11.72z" opacity=".03"/><path d="M296.64 765.76l-20.5-1.28 1.48-4.38c1.68 2.72 13.53 2.91 13.53 2.91a24.35 24.35 0 0 1 4.83-3.45 15 15 0 0 0 .66 6.2z" opacity=".1"/><path d="M318.74 797.24l-13.75.74s-10.14-1.64-13.8-3.66-11-2.93-17.94-4.57-7.14-4.4-7.14-4.4a14.82 14.82 0 0 1-.05-5.32c0-.12 0-.24.05-.35.55-3.67 5.49-9.71 5.49-9.71s.37-4 1.28-4.21 1.65-5.86 2-7 2.61 1.73 2.61 1.73c1 3 13.68 3.22 13.68 3.22a22.48 22.48 0 0 1 5.68-3.85c2.74-1.1 1.65 10.25 1.65 10.25a13.26 13.26 0 0 0 6.47 12.45c1.53 3.67 6.71 2.93 6.71 2.93l.77.22 9.48 2.53a.8.8 0 0 1 .13.13 5.15 5.15 0 0 1-3.32 8.87z" fill="#ff8aa1"/><path d="M318.74 797.24l-13.75.74s-10.14-1.64-13.8-3.66-11-2.93-17.94-4.57-7.14-4.4-7.14-4.4-.05-.2-.11-.58-.07-.52-.1-.87a19 19 0 0 1 .16-3.87l14.88 5.14s11 3.66 15.19 4.39c0 0 14.84 1.1 16.3 1.1 1.07 0 1-2.64 0-4.91l9.48 2.53a.8.8 0 0 1 .13.13 5.15 5.15 0 0 1-3.3 8.83z" fill="#e8f5ff"/><circle cx="286.71" cy="783.84" r=".87" fill="#e8f5ff"/><circle cx="290.46" cy="767.04" r=".87" fill="#e8f5ff"/><circle cx="292.02" cy="771.44" r=".87" fill="#e8f5ff"/><circle cx="294.01" cy="775.65" r=".87" fill="#e8f5ff"/><circle cx="296.71" cy="779.54" r=".87" fill="#e8f5ff"/><circle cx="299.74" cy="782.6" r=".87" fill="#e8f5ff"/><circle cx="303.35" cy="785.58" r=".87" fill="#e8f5ff"/><circle cx="307.61" cy="787.87" r=".87" fill="#e8f5ff"/><circle cx="291.15" cy="785.17" r=".87" fill="#e8f5ff"/><path d="M305.07 795.65h-.14c-4.25 0-11.35-2.17-13.05-2.87-1.51-.62-10.88-2.88-11-2.91s-7.14-2.16-9.44-2.79a40.36 40.36 0 0 1-5.51-2.31c0-.23-.07-.52-.1-.87a43.19 43.19 0 0 0 5.8 2.47c2.31.64 9.36 2.77 9.44 2.8.36.08 9.49 2.3 11.06 2.94s8.71 2.83 12.81 2.83h.12z" fill="#ff8aa1"/><path opacity=".1" d="M354.32 616.04l-.16.71-2.33 10.57-1.54 6.98-11.78-3.51-10.9-3.26v-7.87l26.71-3.62z"/><path fill="#e8f4ff" d="M354.32 615.31l-.16.71-2.33 10.57-1.54 6.98-11.78-3.51-10.9-3.26v-7.88l26.71-3.61z"/><path opacity=".03" d="M354.32 615.31l-.16.71-2.33 10.57-1.54 6.98-11.78-3.51-10.9-3.26v-7.88l26.71-3.61z"/><path d="M374.21 462.33a94.48 94.48 0 0 0-5.12 9.3h-.25a21.88 21.88 0 0 1-17.45-8.63c2.49-5.17 4.27-9.23 4.27-9.23z" opacity=".1"/><circle cx="368.84" cy="448.2" r="21.97" fill="#ffc2c8"/><path d="M377.2 547.15l15.38 9.34 23.62 14.28s13 8.06 19.22 7 28.93 6.59 16.3 12.45-27.1-2.75-27.1-2.75-7.14-4.57-9.88-4.57-37.54-16.67-37.54-16.67zm55.66 216.23v10l-14.83 3-2.14-3.33-11.59-18-6.32-10.71c-12.45-14.74-13-33.32-13-33.32v-7.42s-3.3-5.58-3.3-7.6a10.78 10.78 0 0 0-1.64-4.24c-.58-1-1.09-2.08-1.57-3.15-1.69-3.76-7.23-11.19-7.23-11.19-4.4-3.66-12.91-25.63-12.91-25.63-.1-2.67-2.91-6.52-5.29-9.32a60.52 60.52 0 0 0-3.31-3.59l28.83-9.06 9.62.82.31.95 10.49 31.92 7.32 20.59c2.75 3.75 2.38 12.37 1.65 14.1a10.39 10.39 0 0 0-.2 3.26 34 34 0 0 0 2.79 12.07c3.66 8.55 9.73 26.72 9.59 28.8-.11 1.43.91 4 1.82 6.05.67 1.48 1.3 3 1.83 4.52 1.51 4.37 5.29 7.72 7.47 9.36.97.68 1.61 1.12 1.61 1.12z" fill="#ffc2c8"/><path d="M388.5 631.59a25.53 25.53 0 0 1-10.56 2.71c-4 0-17.35 5.13-24.89 8.17a60.52 60.52 0 0 0-3.31-3.59l28.83-9.06 9.62.82z" opacity=".1"/><path d="M388.19 630.64a26 26 0 0 1-11 2.93c-5.67 0-30.21 10.34-30.21 10.34l-3-4.85-5.52-9-3.1-5.08-2.7-4.41s10.29-2.49 21.45-4.55c13.25-2.46 27.72-4.32 27.62-.71a15.37 15.37 0 0 0 .95 5.26 35.08 35.08 0 0 0 2.93 6.21 43.83 43.83 0 0 0 2.58 3.86z" fill="#e8f4ff"/><path d="M388.19 630.64a26 26 0 0 1-11 2.93c-5.67 0-30.21 10.34-30.21 10.34l-3-4.85 28.41-13a131.57 131.57 0 0 0 13.22.72 43.83 43.83 0 0 0 2.58 3.86z" fill="#fff" opacity=".5"/><path d="M432.86 763.38v10l-14.83 3-2.14-3.33a23.52 23.52 0 0 0 3.36.28c4 .06 9.16-5.13 9.16-5.13.78-.4 1.32-2.08 1.68-4a3.23 3.23 0 0 1 1.17-1.95c.96.69 1.6 1.13 1.6 1.13z" opacity=".1"/><path d="M476.13 774.55c.31 5.37-13.73 13.31-13.73 13.31s-12.45 5.36-14.89 5.91-18.37 5.92-18.37 5.92c-7.26.73-6.84-5.55-6.84-5.55s-3-7.63-3-8.48a31.15 31.15 0 0 0-1.15-4.4l-3.67-8.05s1.53.79 5.5.85 9.16-5.12 9.16-5.12c.78-.4 1.32-2.08 1.69-4a3.29 3.29 0 0 1 5.51-1.76c1.67 1.61 3.6 3.39 5.49 4.92 5 4.05 13.86 2.91 13.86 2.91a10.08 10.08 0 0 0 6.48-.48 3.06 3.06 0 0 0 .53-.32 46.82 46.82 0 0 1 8.3-2.07c3.24-.31 4.83 1.04 5.13 6.41z" fill="#ff8aa1"/><path d="M476.13 774.55c.31 5.37-13.73 13.31-13.73 13.31s-12.45 5.36-14.89 5.91-18.37 5.92-18.37 5.92c-2.5.25-4.09-.33-5.1-1.2a4.15 4.15 0 0 1-.73-.79 6.12 6.12 0 0 1-1-3.56 49.51 49.51 0 0 0 8-1.59s21.18-5.86 24-8.11c0 0 10.2-4.58 10.74-6.78 0 0-3-4.42-2.91-7.13a3.06 3.06 0 0 0 .53-.32 46.82 46.82 0 0 1 8.3-2.07c3.27-.31 4.86 1.04 5.16 6.41z" fill="#e8f5ff"/><path d="M461.29 786.36c-1.92 2.57-12.56 5.64-13.83 5.88s-9.1 2.83-9.17 2.86l-7.64 2.32a12.7 12.7 0 0 1-5.62 1.09h-1a4.15 4.15 0 0 1-.73-.79c1.75.14 4.89.17 7.06-1l7.69-2.35c.32-.11 8-2.63 9.26-2.88 1.62-.31 11.72-3.37 13.39-5.6z" fill="#ff8aa1"/><path d="M382.74 620.57a1.64 1.64 0 0 1-.4.19c-4 1.28-19 1.64-19 1.64a62 62 0 0 1-11.46 4.18c-3.6.85-7.13 1.05-9-.52-1.51-1.23-4.27-1.42-7.37-1.08a50 50 0 0 0-7.79 1.58v-7.62l26.7-3.61-.16.71c13.25-2.46 27.72-4.32 27.62-.71a15.37 15.37 0 0 0 .86 5.24zm-8.53-111.87l-20.75-8.54s-20.26-14.89-15.62-15.62c1.09-.18 2.66-2 4.41-4.62a30.9 30.9 0 0 1 14.49 9.19c4.12 4.59 11 10.76 13.36 12.81a77.69 77.69 0 0 0 4.11 6.78z" opacity=".1"/><path d="M383.24 606.29s3.12 11.72-.91 13-19 1.65-19 1.65-15.59 7.69-20.59 3.66c-3.5-2.85-13.65-.11-19.28 1.74-2.33.76-3.88 1.37-3.88 1.37s-4.12-20.32 2.47-32-2-40.09-2.38-42.84c-.1-.76-.11-3.47-.06-7.06.16-9.37.83-24.7 1.89-26.81a50.39 50.39 0 0 0 2.75-7.87s.92-7.33 2.38-8.43 2-4.57 2-4.57 1.84-7.69 3.67-9.71 2.56-8.24 2.56-8.24a12.85 12.85 0 0 1 6.34.25 30.66 30.66 0 0 1 15.54 9.42c5 5.57 14.15 13.49 14.15 13.49l11.63 12.69c7.69 11.53 3.48 28.19-.55 36.25-2 4.1-1.77 12-1 18.83a139.79 139.79 0 0 1 .79 22.22c-.49 9.66 1.48 12.96 1.48 12.96z" fill="#ffe577"/><path d="M351.02 511.09l-2 12v.06s-13.19 28.56-15.38 32.08-4.4 12.41-4.4 12.41-.73 15.93-2.19 19-3.12 22.34-3.12 22.34l-.91 12.81a32.4 32.4 0 0 1 .49 4.49c-2.33.76-3.88 1.37-3.88 1.37s-4.12-20.32 2.47-32-2-40.09-2.38-42.84c-.1-.76-.11-3.47-.06-7.06l2.63-10 3.29-16.48 1.25-2.27 4.24-7.8 14.1-4.57z" opacity=".1"/><path d="M350.29 509.62l-2 12s-13.18 28.57-15.37 32.08-4.4 12.41-4.4 12.41-.73 15.93-2.2 19-3.11 22.33-3.11 22.33l-.91 12.82s4 20-10.07 23.25-3.49-24.4-2.59-26.57 1.47-20.32 1.47-22.34 2.74-31.3 3.48-33.14a70.11 70.11 0 0 0 1.83-7.65l5.12-19.44 3.3-16.48 1.24-2.28 4.25-7.79 14.1-4.58z" fill="#ffc2c8"/><path d="M350.29 509.62l-2 12c-.37-20.68-23.44-2.33-23.44-2.33s.5-1.48 1.24-3.74l4.25-7.79 14.1-4.58z" opacity=".1"/><path d="M343.15 484.72s-9.89 4.39-11.35 10.62-7 22.52-7 22.52 24.17-19.22 23.43 3.84a13.14 13.14 0 0 0 3.12-8c.36-5.31 5.49-16.66 1.19-21.42a39.66 39.66 0 0 0-9.39-7.56z" fill="#ffe577"/><path d="M393.43 439.56c4-5.76 2.23-14.68-3.66-18.49-2.78-1.8-6.13-2.48-9.1-3.95-3.28-1.61-6-4.14-9.23-5.89-7.89-4.3-18.09-3.26-25.59 1.68s-12.34 13.35-14 22.17c-1.13 6-.91 12.4-3.11 18.14-4.44 11.63-17.65 18.14-22.05 29.78-2 5.26-1.95 11-2.13 16.67a188.24 188.24 0 0 1-16.52 70.95c-1.72 3.81-3.93 7.89-7.86 9.31 6.61 1.45 13.64-.32 19.42-3.83s10.42-8.63 14.35-14.13a90.56 90.56 0 0 0 16.63-56.82c-.23-4.47-.67-9.38 2-13s7.36-4.6 10.93-7.15c8.58-6.14 8.39-18.61 11.55-28.68a11.36 11.36 0 0 1 2.61-4.84c9.48-9.15 27.79-1.46 35.76-11.92z" opacity=".1"/><path d="M392.74 438.83c4-5.76 2.22-14.68-3.66-18.49-2.78-1.8-6.13-2.49-9.11-3.95-3.27-1.62-6-4.15-9.22-5.89-7.89-4.3-18.09-3.26-25.59 1.68s-12.34 13.34-14 22.17c-1.14 6-.92 12.39-3.11 18.14-4.44 11.62-17.65 18.13-22 29.78-2 5.26-2 11-2.14 16.66a188.06 188.06 0 0 1-16.52 71c-1.72 3.81-3.92 7.89-7.85 9.31 6.6 1.45 13.64-.32 19.42-3.83s10.42-8.63 14.35-14.13a90.64 90.64 0 0 0 16.63-56.82c-.23-4.47-.67-9.39 2-13s7.36-4.6 10.93-7.15c8.58-6.14 8.39-18.62 11.55-28.68a11.23 11.23 0 0 1 2.6-4.84c9.4-9.19 27.72-1.5 35.72-11.96z" fill="#864d6c"/><circle cx="430.91" cy="772.53" r=".87" fill="#e8f5ff"/><circle cx="435.06" cy="775.04" r=".87" fill="#e8f5ff"/><circle cx="439.52" cy="776.78" r=".87" fill="#e8f5ff"/><circle cx="444.22" cy="777.64" r=".87" fill="#e8f5ff"/><circle cx="448.86" cy="778.19" r=".87" fill="#e8f5ff"/><circle cx="453.68" cy="778.19" r=".87" fill="#e8f5ff"/><circle cx="458.56" cy="777.64" r=".87" fill="#e8f5ff"/><path d="M367.04 408.54c3.21 1.75 6 4.28 9.23 5.89a37.75 37.75 0 0 0 4 1.62l-.35-.15c-3.27-1.62-6-4.15-9.22-5.9a21.9 21.9 0 0 0-4.17-1.71zm22 11.31a27.47 27.47 0 0 0-5.55-2.5 17.29 17.29 0 0 1 1.89 1c5.88 3.81 7.65 12.73 3.66 18.49-8 10.46-26.29 2.77-35.77 11.94a11.23 11.23 0 0 0-2.6 4.84c-3.16 10.07-3 22.54-11.55 28.68-3.57 2.55-8.32 3.62-10.94 7.15s-2.22 8.51-2 13a90.63 90.63 0 0 1-16.63 56.82c-3.94 5.5-8.58 10.62-14.35 14.13a29.07 29.07 0 0 1-13.85 4.32 8.61 8.61 0 0 1-1.91 1c6.6 1.45 13.64-.33 19.42-3.84s10.42-8.63 14.35-14.13a90.6 90.6 0 0 0 16.64-56.81c-.23-4.47-.67-9.39 2-13s7.36-4.59 10.93-7.15c8.58-6.13 8.39-18.61 11.55-28.67a11.18 11.18 0 0 1 2.6-4.84c9.49-9.18 27.8-1.49 35.77-11.95 4.04-5.76 2.22-14.68-3.66-18.48zm-26.66 186.01s14.57-1.5 17.45-1.22-17.45 1.22-17.45 1.22zm3.73 3.67s8.83-1.22 12.25 0-12.25 0-12.25 0zm1.27 3.76s10.81 1 12.73.44m-19.66-74.27s11 4.89 12 7.69 7.63 4.52 7.63 4.52" opacity=".1"/><path d="M352.08 438.8s-5.09-6.52-7.41-6.68c0 0 .51 1.75-.25 2.7a15 15 0 0 1-2.61 3c-1.05.7-1.46 1.31-.76 2.54s1.56 3.06 3.21 2.68 6.2-3 7.09-3.06-4.9-2.76-5.76-2.67c0 0 2.55-.7 6.14 2.07zm-3.85-6.4a4.34 4.34 0 0 1 1.44-3.26 1.75 1.75 0 0 1 1.49-.58 7.75 7.75 0 0 1 2.73 1.43s3.21 1.75 4.8.06v.63a5.48 5.48 0 0 1-.48 2.25c-.86 1.91-2.66 5.72-3.55 6.31l-.8-.35s1.08-5.44 0-6.77l-.4 6.68H353l-4.2-4.85a2.27 2.27 0 0 1-.57-1.55zm11.85 1.31a4.33 4.33 0 0 1 3.45.59 1.85 1.85 0 0 1 1 1.36 7.86 7.86 0 0 1-.76 3s-.95 3.53 1.06 4.68l-.61.15a5.41 5.41 0 0 1-2.3 0c-2.06-.39-6.18-1.25-7-2l.16-.86s5.54-.21 6.59-1.58l-6.59 1.17-.08-.45 3.74-5.22a2.31 2.31 0 0 1 1.34-.84zm2.11 11.31a4.39 4.39 0 0 1 .62 3.45 1.83 1.83 0 0 1-.95 1.37 7.84 7.84 0 0 1-3.07.31s-3.64.3-4.05 2.58l-.34-.53a5.29 5.29 0 0 1-.83-2.14c-.33-2.07-.92-6.24-.5-7.23l.86-.14s2.08 5.13 3.72 5.66l-3.34-5.8.41-.23 6.18 1.75a2.29 2.29 0 0 1 1.29.95zm-10.38 5.47a4.37 4.37 0 0 1-3.1 1.62 1.8 1.8 0 0 1-1.59-.49 7.67 7.67 0 0 1-1.22-2.83s-1.39-3.39-3.68-3.08l.39-.49a5.49 5.49 0 0 1 1.8-1.44c1.87-.94 5.67-2.76 6.74-2.65l.39.77s-4.27 3.54-4.27 5.26l4.52-4.93.34.31.2 6.42a2.29 2.29 0 0 1-.52 1.53z" fill="tomato"/><path d="M351.79 440.35l.7-.89a.3.3 0 0 1 .32-.09l1.41.48a.29.29 0 0 1 .2.27v1.23a.3.3 0 0 1-.17.27l-1.2.52a.27.27 0 0 1-.35-.1l-.92-1.34a.3.3 0 0 1 .01-.35z" fill="#444053"/><path d="M742.94 366.35l-11.28 24s-1.66 4.5-2.73 5.34-5.81 15.06-5.81 15.06l-12.1 18.65-.82 1.27-4.75-1.31-3.32-12.42.2-3.6v-.46s7.48-7.82 9.14-8.42c0 0 1.3.15 3.79-5.91s4.75-7.37 4.75-7.37l1.3-4.4 14-22.3s11.74-16.83 14.94-9.36-7.31 11.23-7.31 11.23z" fill="#ffd2c6"/><path d="M606.56 391.55a16.48 16.48 0 0 0-1.31 4c-.07.35-.15.72-.24 1.1-.77 4-1.31 9-1.57 11.94-.13 1.47-.2 2.41-.2 2.41s-28.32-1.9-23.41-6.64a10.54 10.54 0 0 0 2.59-4.71c.14-.5.27-1 .37-1.54a26.34 26.34 0 0 0 .45-3.58v-.92a37.22 37.22 0 0 0-.28-5.86s9.21-.06 16.15.74c4.7.54 8.34 1.45 7.45 3.06z" fill="#d38884"/><path d="M696.1 536.61a2.6 2.6 0 0 1-.38 1.15c-1.3 1.9-8.66 40.68-8.66 40.68.59 2.62-1.06 7.84-2.13 10.22s-3.45 14.7-3.45 14.7-.59 26.58-2.12 30.72.49 13.05.49 13.05c-.15 4.09 2.31 8.42 3.77 10.62.1.14.2.28.28.41.48.68.79 1.07.79 1.07a6.34 6.34 0 0 0 1.66 2.05l.33.26a19 19 0 0 0 6.65 2.8l.23.05c.95.21 1.57.3 1.57.3l.61 3.25-6.29 1.3-12 .83s-14.12 1.07-10.92-5.22a10.49 10.49 0 0 0 .58-1.33c.12-.3.23-.62.33-.94 1.92-6 .62-13.39.62-13.39l-2.73-21.46c-4.5-19.93 3.55-42.12 3.55-42.12s-.7-1.77.84-6.28.02-14.39.02-14.39-.82-12.7-1.89-19a37.5 37.5 0 0 1-.43-8 38.86 38.86 0 0 1 .43-4.68l27-3.58s1.57 4.43 1.25 6.93z" fill="#ffd2c6"/><path d="M695.74 667.94l-6.29 1.3-12 .83s-14.12 1.07-10.92-5.22a10.49 10.49 0 0 0 .58-1.33c.12-.3.23-.62.33-.94a21.94 21.94 0 0 1 7.15 1.44c4 1.55 7-2.49 7-2.49l2-3.73.28-.54c.48.68.79 1.07.79 1.07a6.52 6.52 0 0 0 2 2.31l-.33.69-1.9 4s2.43.25 5.75.78a2.57 2.57 0 0 0 3.13-1.71l.23.05c.95.21 1.57.3 1.57.3z" opacity=".1"/><path d="M701.53 670.85c-.47 2.14-13.7 2.79-13.7 2.79s-7.35-.71-9.42 1-8.14 1.3-8.37 1.3-3.44-.12-4.69-5.86 1.63-6.58 1.77-6.63a21.66 21.66 0 0 1 7.48 1.45c4 1.55 7-2.49 7-2.49l2.24-4.27c.48.68.79 1.07.79 1.07a6.52 6.52 0 0 0 2 2.31l-2.23 4.68s2.43.25 5.75.78a2.75 2.75 0 0 0 3.36-2.61 3 3 0 0 0 0-.36s2.07.6 4.62 1.31a4.76 4.76 0 0 1 3.4 5.53z" fill="#626696"/><path d="M726.44 564.88c-.31 1.9-.63 6.81-.63 6.81 1.11 4.11-1.74 13.87-1.74 13.87l-1.42 5.58c.63 7.12-3.91 24.51-3.91 24.51s-3 16.14-4.63 23.1a19.21 19.21 0 0 0 .82 11.64c.08.19.13.28.13.28a2.74 2.74 0 0 0 .09.39c.05.19.11.38.17.56a8.32 8.32 0 0 0 1.56 2.65 7.77 7.77 0 0 0 .85.87 17.11 17.11 0 0 0 5 3.1l.79.31a21 21 0 0 0 2.52.79l.28.07-.63 3.73-8.38-2.15-11.23-3.64-5.52-3.16.17-.89v-.09c0-.25.09-.54.16-.87.86-4.9 3-18.59 1.94-28.68-1.34-12.49 3.86-29.73 5.13-33.84a20.55 20.55 0 0 0 .95-7.28c-2.06-3-2.53-15-2.53-15s-3.8-7.75-6.94-16a41.67 41.67 0 0 1-2.26-8.31 29 29 0 0 1-.46-6.08s25.47-23.25 28.27-.74c.1.76.18 1.49.27 2.2 2.61 20.65 1.48 24.44 1.18 26.27z" fill="#ffd2c6"/><path d="M726.44 659.47l-.63 3.73-8.38-2.15-11.23-3.64-5.52-3.16.17-.89v-.09c0-.25.09-.54.16-.87l.79-.08h.06a10.45 10.45 0 0 1 4.7.64c1.83.68 4.22 1.47 4.72 1.14a5.94 5.94 0 0 1 2.68-.48l1.17-2.55.17-.39a8.32 8.32 0 0 0 1.56 2.65 8.7 8.7 0 0 0 .9.92v.9l-.06 1.28a16.46 16.46 0 0 0 4 1.86 2.35 2.35 0 0 0 1.12 0l.79.31a21 21 0 0 0 2.52.79z" opacity=".1"/><path d="M722.25 667.42c-2.34-.67-8-1.75-8.89-.91s-8.74 0-8.74 0a4.78 4.78 0 0 1-4-2.37c-1.62-2.54-.31-10.72-.31-10.72l.58-.06 1-.09h.06a10.45 10.45 0 0 1 4.7.64c1.83.68 4.22 1.47 4.72 1.14a5.8 5.8 0 0 1 2.68-.48l1.34-2.94a8.32 8.32 0 0 0 1.56 2.65 8.7 8.7 0 0 0 .9.92l-.11 2.18a16.46 16.46 0 0 0 4 1.86 1.61 1.61 0 0 0 1.93-.62 1.45 1.45 0 0 0 .15-.32c.07.13.84.4 3.31 1.1 2.67-.15 5.26 1 6.45 4.65s-9 4.03-11.33 3.37z" fill="#626696"/><path d="M696.1 536.61l-1.45.44a21.31 21.31 0 0 1-3.49.74c-7.49 1-19.82.42-23.74.17a38.86 38.86 0 0 1 .43-4.68l27-3.58s1.57 4.41 1.25 6.91z" opacity=".1"/><path d="M719.74 530.05s-9.93 1.53-18 3.3c-2.69.59-5.19 1.2-7 1.8a20.32 20.32 0 0 1-3.49.74c-9 1.26-25 .1-25 .1-4.38-14.24 5.34-32.15 5.34-32.15-.23-1.43 2-5.81 2-5.81v-.14l1.38-5.08h36.89l.45 2.18.94 4.44 5.79 27.5z" fill="#626696"/><path d="M725.4 538.67l-.22.1-4.32 1.92c-4.67 2.15-18.65 2.56-23.54 2.6a29 29 0 0 1-.46-6.08s25.47-23.25 28.27-.74c.1.76.18 1.47.27 2.2z" opacity=".1"/><path d="M726.08 536.47l-.9.4-4.32 1.92c-4.75 2.19-19.18 2.58-23.81 2.6h-1.21c-2.14-.07-4.27-2.07-4.27-2.59 0-.29-.22-1.69-.41-2.9l-.3-1.8s-9.49-4.11-14.35-7.43c-3.63-2.47-2.71-20-2-28.81.24-3 .46-5 .46-5l37.34 2.18 5.24.31 3 .66.8.17s2.14 15.66 3.21 17 .36 5.69.23 8.19a15.2 15.2 0 0 1-.35 3.2s1.54 4.39 1.18 6.85a13.7 13.7 0 0 0 .46 5.05z" fill="#626696"/><path d="M557.53 526.3c-9.65-.32-2.54-20.4-1.43-23.12s-1.65-9.31-1.65-9.31-3.25-19.14-3.25-20.4a51.27 51.27 0 0 0-1.1-7.75 12.87 12.87 0 0 1 1.26-7.59c1.11-1.74 1-8.7 1-8.7v-9l2.14-2.85 5.51 5.2 1.53 1.44 2.68 10.08-.95 14.44-.53 14.06 3.32 19.45s1.12 24.36-8.53 24.05z" fill="#d38884"/><path opacity=".1" d="M560.53 445.16l-8.22-3.4v-1.34l2.14-2.85 5.51 5.2.57 2.39z"/><path d="M556.74 424.6a37.93 37.93 0 0 0-2.28 8.06 36.21 36.21 0 0 1-2.15 7.75l9.17 3.8z" fill="#4c4981"/><path d="M556.74 424.6a37.93 37.93 0 0 0-2.28 8.06 36.21 36.21 0 0 1-2.15 7.75l9.17 3.8z" opacity=".05"/><path d="M629.54 624.33l-.8 1.61s-.83 5.37-.83 5.49-2.37 3.71-2.37 3.71l-6 1.28-2.53-.31a34.61 34.61 0 0 0-.68-4.38c-.09-.41-.19-.83-.3-1.25a33.1 33.1 0 0 0-4.17-9.45s-4.42-10.91-6-12.33-7.6-15.82-7-19.3c.34-1.91.07-8.3-.25-13.63-.25-4.35-.54-8-.54-8l15-8.89 1.75 2.76 1 1.64v1.02a27.85 27.85 0 0 1-1.34 6.57s-1.13 8.07 0 9.49 4.7 20.45 5.49 29.25c0 .27 0 .54.07.79.31 4 2.82 7.65 5.33 10.29l.5.51a35.35 35.35 0 0 0 3.67 3.13z" fill="#d38884"/><path d="M617.08 636.11l2.53.31 6-1.28s2.37-3.59 2.37-3.71.76-5.49.76-5.49l.76-1.61.09-.2a34.13 34.13 0 0 1-4.11-3.38l-.41-.41s.85 5.23-3.7 7.57c-2.2 1.13-4 2-5.28 2.6z" opacity=".1"/><path d="M630.58 625.08l-.84 1.86s-.83 5.37-.83 5.49-2.37 3.71-2.37 3.71l-6 1.28-3.43-.41c0-.7-.11-1.67-.29-2.86-.11-.72-.25-1.52-.44-2.37 1.27-.59 3.32-1.57 5.93-2.91 4.55-2.33 3.69-7.56 3.69-7.56a33.58 33.58 0 0 0 3.13 2.77c.61.44 1.15.79 1.45 1z" fill="#ceddf9"/><path d="M630.58 625.08l-.84 1.86s-.83 5.37-.83 5.49-2.37 3.71-2.37 3.71l-6 1.28-3.43-.41c0-.7-.11-1.67-.29-2.86a11.29 11.29 0 0 1 2.17.3s8.15 1.74 8.54-4.71c.23-3.66 1-5.1 1.6-5.66.61.44 1.15.79 1.45 1z" opacity=".1"/><path d="M629.98 624.65s-2-.45-2.43 6-8.54 4.71-8.54 4.71-4-1-4 .67a15.51 15.51 0 0 0 1.07 4.47s.23 3.83 1 4.74.27 4.31.27 4.31.32 2.53 6.61 0c0 0 5.62-1.15 10.28-8.14.15-.24-.56-1 3.52-2.41s15.73-10.84 14.82-15.43a3.87 3.87 0 0 0-2.76-3.28 4.7 4.7 0 0 0-3.64.49 31.08 31.08 0 0 1-3.4 1.57 16.69 16.69 0 0 1-4.86 1.16 17.93 17.93 0 0 0-3.77.72c-1.41.4-3.16.78-4.17.42z" fill="#cc8294"/><path d="M583.86 580.34a11.41 11.41 0 0 0-2.29 2.64c-2.3 3.51-3.68 8.42-5.24 10.53-2 2.74-2.56 8.07-2.56 8.07-.53 3.5-7.94 22.19-10 25.51s-4.8 12.33-4.8 12.33c-1.71 2.15-1.61 5.33-1.43 6.85 0 .26.06.47.08.61l.05.25-.05.09-2.74 4.66-8.72-1.21-4.42-3.07a15.09 15.09 0 0 0 1-1.86c2.41-5.38 4.13-15 4.13-15s2.42-11 2.24-13.52a102.38 102.38 0 0 1 .72-10.44s6.82-21 9-24.44a9.58 9.58 0 0 0 1.65-4.5 3.72 3.72 0 0 0 0-1l2.95-2.93s24.23 3.41 20.43 6.43z" fill="#d38884"/><path d="M557.74 646.18s0 .27-.05.7v.34l-2.74 4.66-8.72-1.21-4.49-3.07a15.09 15.09 0 0 0 1-1.86c2.19-.62 7.21 1.15 7.21 1.15s5.42 1 7.7-.62z" opacity=".1"/><path d="M555.57 658.63l-8.83 2.15-8.12-6 .41-3.38a6 6 0 0 0 1.49-1.36 5.27 5.27 0 0 0 1.18-2.44c.47-2.48 8.19.24 8.19.24s5.64 1.07 7.83-.71a13.65 13.65 0 0 0 .42 4.88 3.6 3.6 0 0 0 1.3 1.94c2.24 1.54-3.87 4.68-3.87 4.68z" fill="#ceddf9"/><path d="M555.57 658.63l-8.83 2.15-8.12-6 .41-3.38a6 6 0 0 0 1.49-1.36 17.22 17.22 0 0 1 1.78 0c1.36.12 4.56 5.94 4.56 5.94 8 .53 10.42-2.09 11.28-4a3.6 3.6 0 0 0 1.3 1.94c2.24 1.57-3.87 4.71-3.87 4.71z" opacity=".1"/><path d="M546.85 656.94s-3.2-5.82-4.56-5.94a32.68 32.68 0 0 0-3.44 0s-3.56 8.43-4.87 9.2-3.24 4.74-3.24 4.74 9.39 9.08 18.49 7.36a18.79 18.79 0 0 1 8.32 2.07c4.21 2.2 21.76.54 23.9-3.32 1.6-2.89 2.23-5 .83-6.53a3.77 3.77 0 0 0-3.31-1.12c-2.21.3-7.16.23-11.52-5.1 0 0-8-7.34-8.66-7.35s.58 6.86-11.94 5.99z" fill="#cc8294"/><path d="M616 564.26l-.06.07c-.54.6-4.42 4.84-5.58 5.15a55 55 0 0 0-5.7 2.52s-2.37 3.17-4.27 3.32a7.54 7.54 0 0 0-1.67.45c-.25-4.35-.54-8-.54-8l15-8.89 1.75 2.76c.4 1.12.84 2.14 1 2.47z" opacity=".1"/><path d="M561.32 503.18s-5.85 7.62 0 17.74 12 15.18 12 15.18l19.93 41.28s5.22-2.85 7.12-3 4.27-3.32 4.27-3.32a57.11 57.11 0 0 1 5.69-2.54c1.27-.31 5.65-5.21 5.65-5.21s-2.17-4.75-1.69-6-1.43-4.43-1.43-4.43a26.3 26.3 0 0 1-1.26-4.91c0-1.26-2.06-4.27-2.06-4.27s-2.05-3.16-2.05-4.9-3-8.54-3-8.54l-.79-30z" fill="#ceddf9"/><path d="M616 563.31s-4.38 4.89-5.64 5.22a55 55 0 0 0-5.7 2.52s-2.37 3.17-4.27 3.32a15.26 15.26 0 0 0-3.89 1.4c-1.7.78-3.22 1.61-3.22 1.61l-19.93-41.28a43.65 43.65 0 0 1-4.84-5 68.66 68.66 0 0 1-7.19-10.16 17.12 17.12 0 0 1-2.26-12.31 14.26 14.26 0 0 1 2.26-5.43l14.18-1 28.21-2 .24 8.88.55 21.17s.47 1.06 1 2.45c.87 2.14 2 5 2 6.09 0 1.74 2.05 4.9 2.05 4.9s2.06 3 2.06 4.27a26.3 26.3 0 0 0 1.26 4.91s1.9 3.16 1.42 4.42 1.71 6.02 1.71 6.02z" opacity=".05"/><path d="M583.86 580.34a11.41 11.41 0 0 0-2.29 2.64c-8.6.62-18.6-3.88-21.2-5.12a3.72 3.72 0 0 0 0-1l2.95-2.93s24.34 3.39 20.54 6.41z" opacity=".1"/><path d="M609.25 512.54s-1.27 4.42-1.74 6.32-1.42 11.23-1.42 11.23l-.55 2.61-9 43.07-2 9.36c-3.48 1.9-12.18-3.17-12.18-3.17-10.12 1.12-22.62-5.37-22.62-5.37s2.06-6.64 1.58-10 2.85-6 2.85-6c-.79-3 2.05-16.13 2.05-16.13s.64-4.9 3-6.17-.31-3.16-1-4.27c-.31-.54-.09-1.78.23-2.9a22.11 22.11 0 0 1 .72-2.16c-6-6-7-15.45-7-20.68a34.31 34.31 0 0 1 .17-3.83l13.07-2.28 28.53-5 2.9 9 .73 2.25z" fill="#ceddf9"/><path d="M606.56 391.55a16.48 16.48 0 0 0-1.31 4c-.07.35-.15.72-.24 1.1-2.75 1.79-4.45 1.8-8 1.8-1.21 0-1.89-2.32-3-2.56 0 0-1.72-6.21-2.21-1-3.31-.69-6.17 1.9-8.52-.36v-.92a37.22 37.22 0 0 0-.28-5.86s9.21-.06 16.15.74c4.66.54 8.3 1.45 7.41 3.06z" opacity=".1"/><path d="M613.09 380.94a17.63 17.63 0 0 1-17.62 17.62 17.31 17.31 0 0 1-3.55-.36 17.62 17.62 0 1 1 21.17-17.26z" fill="#d38884"/><path d="M603.44 408.59c-.13 1.47-.2 2.41-.2 2.41s-28.32-1.9-23.41-6.64a10.54 10.54 0 0 0 2.59-4.71l12.28 2s3.47 2.7 6.17 5.22a10.46 10.46 0 0 0 2.57 1.72zm4.22 100.78a9.2 9.2 0 0 1-3.71-.29 7.08 7.08 0 0 1-1.51-.66c-2.37-1.42-10.27.32-10.27.32s-21.52 1.43-22.47 0c-.54-.81-4.32-.69-7.44-.44-1.26.1-2.42.22-3.2.31a14.26 14.26 0 0 1 2.26-5.43l14.18-1 28.53-5 2.9 9c.33 1.82.73 3.19.73 3.19z" opacity=".1"/><path d="M594.74 402.61l-15.44-2.53a4.56 4.56 0 0 1-2.91 2.53c-2.06.48-11.23 5.22-15.34 10.92l-4.11 5.69s-3.33 4.11-2.22 7.43 2.37 14.56 2.37 14.56l1.59 12.49s3 9 2.05 13 .48 20.56.48 20.56l-3.17 20.56s10.76-1.42 11.71 0 22.46 0 22.46 0 7.9-1.74 10.28-.32a8.48 8.48 0 0 0 5.21 1s-1.89-6.48-.79-10.12.79-10.28.79-10.28 1.59-9.65.8-11.39 1.74-8.06 1.74-8.06l8.38-44.13s-1-7.91-5.49-10.6-9.54-3.48-12.23-6-6.16-5.31-6.16-5.31z" fill="#4c4981"/><path d="M601.81 446.11v5.22l4.93 13.12 1.77 12.18s3.16 8.7 3.16 11.71 7.7 17.6 7.7 17.6 2.11 4.91 1.06 5.85-10.23 21.78 1.31 21.15 7.91-22.46 7.91-22.46l-1.58-9.49s-2.22-23.72-2.22-25.46c0 0-2.84-10.13-3.16-12.34s-2.37-13.44-2.37-13.44l-1.74-7.28z" fill="#d38884"/><path opacity=".1" d="M596.32 462.56l-17.2 9.84-5.34 8.07 7.11-7.24 15.43-10.67zm-5.22 18.86s-7.83 5.1-11.51 5.1-12.22 8.78-12.22 8.78 12.1-7.82 13-7.59 10.73-6.29 10.73-6.29zm-20.05 2.73s-7.35 6.64-5.46 7.35 11.75-7.35 11.75-7.35zm32.5-23.73s-5.69 7.71-4.15 7.59 5.93-4.5 5.93-4.5zm.83 7.59s-6.17 7-5.93 8.78 5.93-8.78 5.93-8.78zm1.55 3.5s-4.16 7.42-2.38 9 2.38-9 2.38-9zm-5.34-19.04s-3.09 5.22-.83 5.58 2.47 0 2.47 0zm.83-19.09a54.78 54.78 0 0 1-3.16 9.31 44 44 0 0 1-1.24-4.67 32 32 0 0 1 4.4-4.64zm9.41-61.11a7.56 7.56 0 0 1-1.19 1.84 13.51 13.51 0 0 0-2.15 2.46c-.66 1.26-.54 2.78-.77 4.2s-1.12 3-2.54 3a5.66 5.66 0 0 1-2.09-.62 2.11 2.11 0 0 0-2.08.06 2.3 2.3 0 0 0-.66 1.57 20.83 20.83 0 0 0-.21 3.7q0 .74.09 1.47c.15 1.59.46 3.29-.29 4.71a5.62 5.62 0 0 1-2.92 2.34 17.39 17.39 0 0 1-4.1 1.15 45.43 45.43 0 0 1-8.09.27 2 2 0 0 1-.72-.12 1 1 0 0 1-.31-.2 26.19 26.19 0 0 0 .48-4.5 17.62 17.62 0 1 1 27.56-21.34z"/><path d="M603.46 357.31c-1.62-.16-3.14.7-4.73 1.05-3.28.73-6.64-.77-10-.76a18.44 18.44 0 0 0-8.22 2.46 19.39 19.39 0 0 0-5.49 3.84 8.89 8.89 0 0 0-2.61 6c0 1.3.38 2.67-.12 3.88a12.52 12.52 0 0 1-1.2 1.83 5.37 5.37 0 0 0-.56 4.52 14.65 14.65 0 0 0 2.7 4c2.17 2.79 3.53 6.12 5.47 9.06a26.24 26.24 0 0 0 2.85 3.62 1.94 1.94 0 0 0 .61.49 2.13 2.13 0 0 0 .72.11c4.12.11 8.4.2 12.19-1.42a5.62 5.62 0 0 0 2.92-2.34c.75-1.41.44-3.12.29-4.71a21.3 21.3 0 0 1 .12-5.17 2.37 2.37 0 0 1 .66-1.57 2.12 2.12 0 0 1 2.09-.06 5.26 5.26 0 0 0 2.08.62c1.43-.05 2.32-1.6 2.55-3s.1-2.92.77-4.19a13.39 13.39 0 0 1 2.14-2.45 10.06 10.06 0 0 0 1.78-8.92c-.88-2.89-3.73-6.55-7.01-6.89z" fill="#1e1637"/><circle cx="686.11" cy="391.15" r="15.3" fill="#ffd2c6"/><path d="M678.64 397.53s1.07 14.49-1.9 17.82-10.67 9.6-10.67 9.6l2.37 9.85 13.4 1.54 15.66-16.72-3.56-4.39s-2.73-9.25-.47-13.88-14.83-3.82-14.83-3.82z" fill="#ffd2c6"/><path d="M711.02 429.37l-.82 1.27-4.75-1.31-3.32-12.39.2-3.6 1-1.41s5.22.12 5 4.87c-.25 4.14 2.12 10.99 2.69 12.57zm10.32 68.66s-3.78.84-8.1 1.4-9.32.86-11.36-.34c-3.43-2-22-1.45-27.38-1.24h-.92l1.38-5.08h36.89l.45 2.18 5.24.31 3 .66c.49 1.27.8 2.11.8 2.11z" opacity=".1"/><path d="M702.36 412.86s5.22.11 5 4.86 2.84 12.93 2.84 12.93l-1.18 2.73s-1.66 6.64-.36 8.3 6.05 1.66 3.32 15.3c0 0-.59 10.2.83 13.52s1.43 11.27 3.56 14.59 5 11 5 11-15.42 3.44-19.45 1.06-28.83-1.18-28.83-1.18.12-4.15 0-4.63a4 4 0 0 1 .6-3c.83-1.13 2.13-3 1.42-4.69s1.78-4.1.48-6.68-2.9-3.08-2.58-4.49-.51-3.3-1.46-4.49-7.35-13.72-7.35-13.72l-1.07-5.85s-8.26-6.05-8.1-8.9 3.12-6.79 3.12-6.79l8-7.8s4.38 4.75 8.66 3.09 13.44-9.61 13.44-9.61 3.28-1.78 3.52-3.08 2.25-.12 2.25-.12 3-1.63 3.56-1.05 3.2 1.05 3.2 1.05z" fill="#ffcde5"/><path d="M657.53 437.57l-2.53 2s-2.58 4.63-3.17 12.93a170.73 170.73 0 0 1-3.2 20l-5 8.92s-8.19 17.19-9.26 21.76-5.93 12.28-5.93 12.28-16.49 14.82-5 17.49 11.86-11.79 11.86-11.79 2.68-3 3.12-5 15-27.81 15-27.81 5.1-6.94 4-10.62c0 0 6.64-15.62 6.64-19.53a68.87 68.87 0 0 0-1.07-9.77l1.07-8.18z" fill="#ffd2c6"/><path d="M691.74 470.27s-11.63 6.08-13.88 6.4 9.84-1.3 9.84-1.3zm9.44 4.74s-15.42 5.22-22.18 4.27c0 0 16.84 3.21 22.18-4.27z" opacity=".1"/><path d="M702.13 476.71s-13.88 8.74-22.07 7.32c0 0 19.1 3.79 22.07 1.78l-8.54-2.38s9.49-5.01 8.54-6.72zm-16-112.49c-4-.81-8.46-.31-11.67 2.21-2.38 1.87-4 4.73-6.64 6.13a38.27 38.27 0 0 1-4.33 1.52 12.53 12.53 0 0 0-7.65 13.47c.42 2.35 1.52 4.52 2.07 6.85 1 4.14.11 8.47-.94 12.59a132.69 132.69 0 0 1-13.18 32.7 3.42 3.42 0 0 0-.65 2.19 3.14 3.14 0 0 0 .81 1.41c5.48 6.33 14.4 8.51 22.77 8.79 3.09.11 6.32 0 9-1.5a13.63 13.63 0 0 0 4.41-4 21.44 21.44 0 0 0 4.08-13.78c-.23-4-1.56-8-.56-11.85a3.22 3.22 0 0 1 .71-1.46c.9-.92 2.4-.67 3.68-.82 3.49-.41 5.73-4.08 6.15-7.56s-.46-7-.48-10.49a21.89 21.89 0 0 1 4.14-12.9c1.16-1.6 2.63-3.17 3-5.17.48-2.5-1-4.34-2.21-6.32-2-3.07-2.9-6.67-5.86-9a15.92 15.92 0 0 0-6.65-3.01z" opacity=".1"/><path d="M685.18 363.27c-4-.8-8.46-.31-11.67 2.22-2.38 1.87-4 4.72-6.64 6.12a40.39 40.39 0 0 1-4.33 1.53 12.49 12.49 0 0 0-7.64 13.46c.42 2.35 1.52 4.53 2.06 6.85 1 4.14.12 8.47-.94 12.59a132.31 132.31 0 0 1-13.18 32.7 3.43 3.43 0 0 0-.65 2.19 3.14 3.14 0 0 0 .81 1.41c5.48 6.33 14.4 8.51 22.78 8.79 3.08.11 6.31 0 9-1.49a13.77 13.77 0 0 0 4.41-4.05 21.44 21.44 0 0 0 4.08-13.78c-.23-4-1.56-8-.56-11.85a3.19 3.19 0 0 1 .71-1.45c.9-.93 2.4-.68 3.68-.83 3.49-.41 5.73-4.08 6.15-7.56s-.46-7-.48-10.49a22 22 0 0 1 4.14-12.9c1.16-1.6 2.64-3.17 3-5.17.49-2.5-1-4.33-2.21-6.32-2-3.07-2.9-6.66-5.86-9a15.92 15.92 0 0 0-6.66-2.97z" fill="#985c7e"/><path d="M620.4 432.34a20.14 20.14 0 0 0 0 6.48c-.16 1.74 0 11.39 0 11.39-5.22-1.58-18.5 1.59-18.5 1.59l-1.59-4.75a11.75 11.75 0 0 1-2-3.9 41.14 41.14 0 0 1-1.24-4.67 96.59 96.59 0 0 1-1.55-9.93c-.66-5 6.82-10.44 12.48-13.45s10.62 9.8 10.62 9.8 2.41 4.91 1.78 7.44z" opacity=".1"/><path d="M620.4 431.39a20.14 20.14 0 0 0 0 6.48c-.16 1.74 0 11.39 0 11.39-5.22-1.58-18.5 1.59-18.5 1.59l-1.59-4.75a11.65 11.65 0 0 1-2-3.9 41.14 41.14 0 0 1-1.24-4.67 96.59 96.59 0 0 1-1.55-9.93c-.66-5 6.82-10.44 12.48-13.45s10.62 9.8 10.62 9.8 2.41 4.91 1.78 7.44z" fill="#4c4981"/><path d="M680.06 511.59s3 14.23 8.11 18.11z" opacity=".1"/><path d="M610.36 364.25a10.63 10.63 0 0 0-1.17-2.54c.08.22.16.43.22.64a10.06 10.06 0 0 1-1.78 8.92 13.84 13.84 0 0 0-2.15 2.45c-.66 1.27-.54 2.78-.76 4.2s-1.13 3-2.55 3a5.26 5.26 0 0 1-2.08-.62 2.15 2.15 0 0 0-2.09.07 2.32 2.32 0 0 0-.66 1.56 21.3 21.3 0 0 0-.12 5.17c.15 1.59.46 3.3-.29 4.71a5.62 5.62 0 0 1-2.92 2.34c-3.8 1.63-8.07 1.54-12.2 1.42a2.21 2.21 0 0 1-.72-.11 1.78 1.78 0 0 1-.6-.49 26.76 26.76 0 0 1-2.85-3.61c-1.95-2.95-3.31-6.27-5.47-9.06-.59-.77-1.25-1.51-1.79-2.3a.83.83 0 0 0 0 .15 14.44 14.44 0 0 0 2.7 4c2.16 2.79 3.52 6.12 5.47 9.06a26.17 26.17 0 0 0 2.84 3.62 2.06 2.06 0 0 0 .61.49 2.21 2.21 0 0 0 .72.11c4.13.11 8.4.2 12.2-1.42a5.62 5.62 0 0 0 2.92-2.34c.75-1.41.44-3.12.29-4.71a21.81 21.81 0 0 1 .11-5.17 2.43 2.43 0 0 1 .67-1.57 2.12 2.12 0 0 1 2.09-.06 5.21 5.21 0 0 0 2.07.62c1.43-.05 2.33-1.6 2.55-3s.1-2.92.77-4.19a13.45 13.45 0 0 1 2.15-2.45 10.09 10.09 0 0 0 1.82-8.89z" opacity=".2"/><path d="M655.8 389.79c-.16-.56-.35-1.11-.54-1.66.16.56.35 1.11.54 1.66zm43.27-12.42a4.7 4.7 0 0 1-.06 1.34c-.39 2-1.87 3.57-3 5.17a22 22 0 0 0-4.14 12.91c0 3.5.89 7 .48 10.48s-2.66 7.16-6.14 7.56c-1.29.15-2.78-.09-3.69.83a3.19 3.19 0 0 0-.71 1.45c-1 3.85.33 7.88.56 11.85a21.47 21.47 0 0 1-4.08 13.79 13.81 13.81 0 0 1-4.4 4c-2.72 1.47-6 1.6-9 1.5-8.24-.29-17-2.4-22.5-8.5a2.12 2.12 0 0 0-.14 1.14 3.14 3.14 0 0 0 .81 1.41c5.48 6.33 14.4 8.51 22.78 8.79 3.08.11 6.31 0 9-1.49a13.77 13.77 0 0 0 4.41-4.05 21.44 21.44 0 0 0 4.08-13.78c-.23-4-1.56-8-.56-11.85a3.19 3.19 0 0 1 .71-1.45c.9-.93 2.4-.68 3.68-.83 3.49-.41 5.73-4.08 6.15-7.56s-.46-7-.48-10.49a22 22 0 0 1 4.14-12.9c1.16-1.6 2.64-3.17 3-5.17a5.88 5.88 0 0 0-.9-4.15z" opacity=".1"/></svg>