<svg xmlns="http://www.w3.org/2000/svg" xmlns:xlink="http://www.w3.org/1999/xlink" width="1110.65" height="771.66"><defs><linearGradient id="a" x1="539.3" y1="757.1" x2="539.3" y2="610.29" gradientUnits="userSpaceOnUse"><stop offset="0" stop-color="gray" stop-opacity=".25"/><stop offset=".54" stop-color="gray" stop-opacity=".12"/><stop offset="1" stop-color="gray" stop-opacity=".1"/></linearGradient><linearGradient id="b" x1="801.8" y1="735.1" x2="801.8" y2="231.06" xlink:href="#a"/><linearGradient id="c" x1="417.95" y1="600.78" x2="417.95" y2="303.03" xlink:href="#a"/></defs><path d="M11.99 428.39c17.57 72.21 54.77 134.63 113.57 164.88 122.19 62.88 397.77 30.45 603.43-6.78 106.33-19.25 199.88-72.35 267.81-147.16zM1090.5 88.51H977.66a9.38 9.38 0 1 1 0-18.75h19.5a9.38 9.38 0 1 1 0-18.75h-13.93a9.38 9.38 0 1 1 0-18.75h58.9c-13.07-5.84-28.3-10-46-12.17C835.59.26 778.25 13.38 758.02 26.83c-25 16.64-52.8 28.88-82.55 34.78-99.09 19.65-284.4 43.29-452.36-7.57C139.63 28.83 77.59 71.52 40.4 142.91h1069.7c-1.4-20.75-5.58-39.91-13.25-56.68a9.92 9.92 0 0 1-6.35 2.28zM688.32 316.29l-1.47-.09-15.35-.87-147.18-8.27-15.89-.9-234.34-13.2-65.68-3.69-10.4-.58-9.23-.52L2.41 277.68a459.25 459.25 0 0 0 4.38 126l156.8 5.51 12.42.45 2.2.07 74.38 2.62 4 .13 8.57.3 75 2.64 10.29.37 35.87 1.23h.67l5.27.19 17.95.63 15.75.55 30 1.05h.64l2.67.09 2.84.1h.62l47.81 1.68 13.4.48h.56l6.45.23h1.68l5.68.2 17.3.62 6.51.22 8.34.29h.31l11.46.41 33.14 1.17 9.12.31h1l44.18 1.55 25.65.9 32 1.32 5.12.18 8.27.29 30.06 1.06 226.75 8a446 446 0 0 0 68.83-100.92zm-426.34 70a9.92 9.92 0 0 1-6.49-2.4 9.29 9.29 0 0 1-2.06-2.49 9 9 0 0 1 .41-9.6 9.66 9.66 0 0 1 1.09-1.29 9.87 9.87 0 0 1 7.05-2.92h19.5a9.39 9.39 0 1 1 0-18.76H267.5a9.1 9.1 0 0 1-.91 0 9.361 9.361 0 0 1 .91-18.7h112.82a9.38 9.38 0 1 1 0 18.7h14a9.39 9.39 0 1 1 0 18.76h-19.5a9.38 9.38 0 1 1 0 18.74zm848.16-242.72l-778.36 18.19-85.55 2-217.77 5.07c-13.14 32.54-21.88 69.3-25.9 107.4h1088.63a429.35 429.35 0 0 0 15.71-68.4c3.24-22.44 4.55-44.09 3.24-64.26zm-888 82.87h-19.5a9.59 9.59 0 0 1 9.76 9.37v.57a9.38 9.38 0 0 1-4.33 7.23 10 10 0 0 1-5.41 1.58H89.82a9.38 9.38 0 1 1 0-18.75h19.5a9.38 9.38 0 1 1 0-18.75H95.4a9.38 9.38 0 1 1 0-18.75h112.84a9.38 9.38 0 1 1 0 18.75h13.93a10 10 0 0 1 4.63 1.14 9.33 9.33 0 0 1 5.13 8.23 9.6 9.6 0 0 1-9.76 9.38z" fill="tomato" opacity=".1"/><path d="M162.99 584.13s19.25-3.08 30.8 10.53c0 0-8.47 6.67-26.69-2.57zm-2.06-.3s-12.28 15.15-6.25 32c0 0 10-4 11.1-24.42zm-11.03-24.85s7.7-14.12 38.5 5.64c0 0-4.11 9.5-17.71 8.73s-17.2-6.93-20.79-14.37zm-1.99-1.02s-16-1.82-17.52 34.74c0 0 10.13 2.11 17.32-9.46s4.22-18.06.2-25.28zm-9.3-29.13s9-24.9 41.58-7.19c0 0-7.45 22.85-38.25 15.66zm-10.02-37.26s16.95-25.15 47-1.8c0 0-10.53 23.62-44.41 10.79zM125 456.15s19.77-23.1 49.54 0c0 0-18.74 20.28-49.54 5.9zm-3.08-34.39s20-24.13 48.51-1.29c0 0-22.58 21.31-48.51 6.93zm1.8-30.55s21-31.06 47.74-10c0 0-22.59 26.69-47.74 15.91zm4.87-35.68s22.34-30.8 48.26-7.18c0 0-26.44 26.69-48.26 12.83zm7.45-31.89s26.44-28.94 49.54-17.39c0 0-27.55 30.74-50.65 25.09zm9.28-30.22s30.5-35.42 48.21-23.59c0 0-22.47 27.47-50.45 30.29zm13.3-35.07s26.7-28.94 46.21-21.76c0 0-22.85 30-49.8 30.8zm12.07-32.8s29.52-27.72 42.35-22.84c0 0-21.3 30.8-43.63 29zm11.81-30.28s25.41-33.11 39.27-30.55c0 0-15.4 29.52-39.27 33.88zm12.82-40.83s22.46-25.39 34.59-25.33c0 0-17.73 33.9-35.51 33.61zm7.58-27.19l21.69-52.88s1.09 47.8-24.45 62.69zm8.81-58.31s3.61-44.11 1.28-47.75c0 0 15.51 36.71-1.43 67.25zM137.77 528.2s-22.5-13.94-37.06 20.18c0 0 20 13.29 39.7-11.47zm-9.89-38.05s-27.6-12.58-41 23c0 0 21.31 14.63 43.49-14zm-4.16-31.88s-19.77-23.1-49.54 0c0 0 18.74 20.27 49.54 5.9zm-2.47-36.51s-20-24.13-48.51-1.29c0 0 22.58 21.31 48.51 6.93zm2.47-29.67s-14.05-34.79-44.57-19.83c0 0 16.47 30.85 43.33 25.6z" fill="tomato"/><path d="M130.32 355.36s-13.95-35.39-44.94-19c0 0 19 32.44 43.54 24.45zm8.7-31.53s-5.54-38.8-31.13-42.27c0 0 5.44 40.91 27.71 49.26zm6.91-30.35s-2.14-46.72-23.37-48.37c0 0 .72 35.48 21 55zm14.89-36.46s-6.33-38.88-26.57-43.63c0 0 2.51 37.65 24.58 53.14zm12.27-31.19s-.21-40.5-12.59-46.45c0 0-7.67 36.66 9 51.62zm10.35-31s-1.73-41.71-14.55-47.58c0 0-4.38 33 12.63 50.31zm13.66-37.07s-.08-33.9-9.22-41.87c0 0-9.1 37.15 4.44 48.69z" fill="tomato"/><path d="M201.82 125.58l-8.89-56.46s-12.1 46.26 9.32 66.64zm1.74-56.11s-22.84-37.94-22.37-42.19c0 0 2.42 39.77 31.18 59.6zm2.68-11.2S184.68 4.36 174.92 0c0 0 30.8 15.66 33.12 56.73z" fill="tomato"/><path d="M194.32 163.03l-1.47-.45c18.19-59.33 22.73-97.21 12.78-106.64l1.06-1.12c10.5 10.01 6.22 47.42-12.37 108.21z" fill="#444053"/><path d="M144.17 301.92l-2.18-.77c1.93-5.44 4-11 6.2-16.4 19-47.33 35.16-91.36 45.52-125.17l1.9-.95c-10.39 33.87-26.29 79.59-45.29 126.98-2.16 5.41-4.23 10.9-6.15 16.31z" fill="#444053"/><path d="M190.08 628.54c-.3-.33-29.79-33.53-50.35-90.23a334.16 334.16 0 0 1-19.88-103.38c-1.41-44.1 7.85-93.38 23.71-138.1l1.72 2c-35.6 100.43-21.46 186.49-2.7 238.3 20.35 56.18 49.5 89 49.79 89.35z" fill="#444053"/><path d="M217.07 540.25s9.08-1.45 14.53 5c0 0-4 3.15-12.59-1.21zm-.97-.14s-5.8 7.15-3 15.08c0 0 4.73-1.9 5.24-11.52zm-5.21-11.73s3.63-6.66 18.17 2.67c0 0-1.94 4.48-8.36 4.12s-8.11-3.27-9.81-6.79zm-.94-.48s-7.54-.86-8.27 16.4c0 0 4.78 1 8.18-4.47s1.99-8.52.09-11.93zm-4.39-13.76s4.24-11.75 19.62-3.39c0 0-3.51 10.78-18 7.39zm-4.72-17.56s8-11.87 22.16-.85c0 0-5 11.14-21 5.08zm-1.7-16.75s9.33-10.9 23.38 0c0 0-8.84 9.57-23.38 2.79zm-1.45-16.2s9.45-11.39 22.89-.61c0 0-10.66 10.06-22.89 3.27zm.85-14.41s9.93-14.66 22.52-4.73c0 0-10.65 12.6-22.52 7.51zm2.3-16.84s10.53-14.53 22.77-3.39c0 0-12.48 12.6-22.77 6zm3.48-15.05s12.47-13.66 23.38-8.21c0 0-13 14.51-23.91 11.84zm4.39-14.26s14.41-16.72 22.77-11.15c0 0-10.61 13-23.81 14.3zm6.29-16.55s12.6-13.66 21.81-10.27c0 0-10.78 14.17-23.5 14.54zm5.7-15.48s13.93-13.08 20-10.78c0 0-10.06 14.54-20.59 13.69zm5.62-14.29s12-15.62 18.53-14.41c0 0-7.26 13.93-18.53 16zm6-19.26s10.6-12 16.32-12c0 0-8.36 16-16.76 15.86zm3.58-12.84l10.24-24.95s.51 22.56-11.54 29.58zm4.16-27.51s1.69-20.84.6-22.53c0 0 7.32 17.32-.67 31.73zm-34.89 216.69s-10.62-6.58-17.49 9.52c0 0 9.44 6.27 18.73-5.41zm-4.67-17.92s-13-5.94-19.34 10.86c0 0 10.06 6.9 20.52-6.62zm-1.96-15.08s-9.33-10.9-23.38 0c0 0 8.84 9.57 23.38 2.79zm-1.17-17.2s-9.45-11.39-22.89-.61c0 0 10.66 10.06 22.89 3.27zm1.17-14s-6.63-16.42-21-9.36c0 0 7.77 14.56 20.45 12.08z" fill="tomato"/><path d="M201.67 432.3s-6.58-16.7-21.21-9c0 0 9 15.31 20.55 11.54zm4.08-14.88s-2.61-18.31-14.68-19.95c0 0 2.56 19.3 13.07 23.25zm3.27-14.32s-1-22-11-22.83c0 0 .34 16.75 9.9 25.95zm7.02-17.21s-3-18.34-12.54-20.59c0 0 1.19 17.77 11.6 25.08zm5.79-14.71s-.1-19.11-5.94-21.92c0 0-3.62 17.3 4.25 24.36zm4.89-14.64s-.82-19.68-6.87-22.45c0 0-2.07 15.57 6 23.74zm6.44-17.49s0-16-4.35-19.75c0 0-4.29 17.53 2.1 23z" fill="tomato"/><path d="M235.39 323.83l-4.19-26.64s-5.71 21.82 4.39 31.44zm.82-26.44s-10.78-17.91-10.56-19.91c0 0 1.15 18.77 14.72 28.13zm1.27-5.29s-10.16-25.43-14.78-27.49c0 0 14.53 7.39 15.62 26.77z" fill="tomato"/><path d="M231.83 341.54l-.7-.21c8.59-28 10.73-45.87 6-50.33l.5-.52c5.01 4.72 3 22.35-5.8 51.06z" fill="#444053"/><path d="M208.19 407.08l-1-.36c.91-2.57 1.89-5.17 2.92-7.74 9-22.34 16.59-43.12 21.49-59.07l.89-.45c-4.9 16-12.39 37.56-21.37 59.93-1.05 2.55-2.03 5.14-2.93 7.69z" fill="#444053"/><path d="M229.85 561.21c-.14-.16-14.06-15.82-23.76-42.58a157.75 157.75 0 0 1-9.38-48.8c-.67-20.82 3.7-44.07 11.19-65.18l.81 1c-16.8 47.39-10.12 88-1.27 112.45 9.6 26.51 23.35 42 23.49 42.17z" fill="#444053"/><path d="M873 579.1c-1.27 7.62-8.88 33-8.88 33s-11.42 38.05-14.59 38.73-152.21-3.22-158.58 0-42.5.07-42.5.07-22.2 1.84-33 5-69.14 8.24-72 8.24-28.59-10.15-33.17-8.88-31.85-3.17-38.19-1.27-32.36-10.14-36.16-8.24-21.57 3.17-26.64 5.71-133.84-3.81-136.38-3.17c-.41.1-2 .38-4.26.79-12 2.1-44.58 7.45-44.58 7.45l-20.3-7s-17.76-1.26-23.47-.63-31.7-24.07-31.7-24.07-2.54-12.06 0-15.23 0-19 0-19a69.27 69.27 0 0 1 7-30.45c7.61-15.22 12.05-37.42 12.05-37.42s5.67-27.99 12.67-34.33 32.35-6.35 44.4-4.44l1.05.15c16 2.27 113.36 12.52 122.64 11.9 9.52-.64 44.4 1.27 49.48-.64s121.16 3.81 121.16 3.81 19.66-7 24.42-8.25 20.61-34.88 25.69-38.69c1.61-1.21 3-2.42 4.39-3.69a58.43 58.43 0 0 1 12.73-9c9.52-5.07 34.26 15.86 30.45 24.74-3.42 8-5.82 8.28-8.11 9.18a7.51 7.51 0 0 0-.77.34c-2.54 1.27-12 18.39-12 18.39s125-3.17 138.92-4.44 55.82 0 60.26-3.17 48.2 5.71 48.2 5.71l22.84 48.21s8.25 32.98 6.93 40.59z" fill="#f8bda5"/><path d="M268.67 649.04c-12 2.1-44.58 7.45-44.58 7.45l-20.3-7s-17.76-1.26-23.47-.63-31.72-24.03-31.72-24.03-2.54-12.06 0-15.23 0-19 0-19a69.27 69.27 0 0 1 7-30.45c7.61-15.22 12.05-37.42 12.05-37.42s5.67-27.99 12.67-34.33 32.35-6.35 44.4-4.44l1.05.15c25.55 39.42 67.41 107.21 68.72 130.52.83 14.9-11.65 26.31-25.82 34.41z" fill="#ffccb2"/><path d="M380.76 587.56s-8.24 2.33-20.3.43-27.27 3.17-27.27 3.17m78.65 0s9.52 2.53 34.89 3.17 28.55-1.9 40 0 23.59 3.17 23.59 3.17m-173.33 5.07s34.89-6.34 50.12 0 45-1.9 49.47 0 27.28 2.35 34.26 2.45 11.41 1.8 20.3 0 44.4.82 44.4.82m-45.04-54.4s18.4-4.83 32.35 0 41.87 1 56.46 3.56 57.08 10.78 61.53 5.71M575.5 573.4s12.69-3.18 24.74 0 34.25 6.34 40.6 4.44a208.14 208.14 0 0 1 24.73-5.85c10.15-1.77 37.43-11.85 47.58-9.66s22.2-4.44 33-6.52 15.86-2.36 29.18 0 20.3 8.77 22.2 6.52m-61.55-28.9c1.91-1.27 10.79 5.71 29.18 6.35s35.52-6.5 35.52-6.5-1.9-2.06 9.52 0 55.82 5.23 55.82 5.23m-52.65-23.47s-22.83-6.35-32.35 0-19.66.63-22.83 0-31.09-.57-39.33-2.82-32.35 2.89-32.35 2.89-30.45-1.77-41.19-.28-35.53 6.77-37.43 3.17-22.2-9.74-29.18-6.35m-13.04 11s17.44-3.17 23.15 0 26 0 26 0 16.49 3.17 19 4.44m111.68-20.93s7.61-2.54 24.1 0a90.06 90.06 0 0 0 31.4-1.13s16.81-1.52 25.06 2 24.5-1.17 24.5-1.17m-582.07 38.36s5.07-3.81 23.47 0 27.27-1.69 27.27-1.69-7.61-.43 8.88 0 25.38-6.44 25.38-6.44m-102.17-3.72s-.63-6.78 17.13 0 27.91 3.72 27.91 3.72a56.26 56.26 0 0 1 22.83-3c12.69 1 29.82 0 29.82 0m-109.69-18.14s3.8-4.53 20.93 0 22.84 0 22.84 0 17.12.23 27.91 4.28m-49.49-10.86s5.07-.32 17.13 0 24.74 0 24.74 0m-90.06 79.19s-9.51-7.82-3.17-12.26 15.17.53 15.17 3.11v15.92s-27.91 10.15-27.91 3.17 8.25-39.61 11.42-41.69 10.78-22.18 13.32-15 17.17 50.35 17.17 50.35a24.93 24.93 0 0 1-12.7 14.67c-10.15 5-46.94 5.43-46.3-3s10.78-51.36 10.78-51.36 17.13-46.36 26.64-35.36 14 30.23 21.57 38.06 24.1 37.84 17.13 51.7-57.12 27.15-57.12 27.15-40-9.51-31.72-41.86 13.32-86.91 25.37-90.08 24.11-7 34.26 0 30.44 49.67 34.25 53.06 24.74 35.18 20.93 45.62-25.37 40.87-36.79 45.31-38.06-4.44-38.06-4.44m470.7-49.47s24.1-.64 29.81 0 17.13-14.71 23.47-12.75 8.88 12.95 20.3 10.95 40.6-4.65 40.6-4.65 15.86 1.16 26.64 0 19-.11 24.74 0 22.2 0 22.2 0l5 2.85" fill="none" stroke="#000" stroke-miterlimit="10" opacity=".1"/><path d="M696.02 571.73a168.8 168.8 0 0 1 24.11 0c10.78 1 45.67-6.23 60.89-5.45s22.84-4.87 29.81-4 12.06 4.68 22.84 4.7 37.38-4.7 37.38-4.7m-497.26 62.55s44.4 5.7 59 0 22.2-7.62 32.35-5.71 7-5.24 25.37-.72 50.75 6.72 59 3.72 66 9.68 66 9.68m-170.05 5.03s18.4 1.9 30.45 3.17 67.24 5.71 78.66 0 82.46-.16 82.46-.16 15.86 1.1 25.37 0 33.62-3 33.62-3" fill="none" stroke="#000" stroke-miterlimit="10" opacity=".1"/><path d="M616.73 464.29c-3.42 8-5.82 8.28-8.11 9.18-11.46-5.19-26.18-17.17-35.07-24.92a58.43 58.43 0 0 1 12.73-9c9.52-5.07 34.26 15.86 30.45 24.74z" fill="#ffccb2"/><path d="M303.32 652.39v-24.74l8.84 12.37s12.05-75.75 15.22-72.28 0 65 0 65l7.61-5.08 3.81 11.09s21.57-33.06 23.47-28.73-4.44 28.73-4.44 28.73l31.72-64.6s-10.79 55.42-7 58.59 18.39-9.52 20.93-5.08-23.47 27.77-23.47 27.77zm404.12-1.56l9.51-24.74s7.62 10.76 9.52 11.09 12.05-6 12.05-6v-27.94l15.86 30.92 7.61-3 3.17-12.54 3.81 7.46s28.54-71.72 44.4-64.72l-22.83 61.55 22.83-17.08s-10.15 28.15-12.37 28.32 20-3 20-3l-7.63 19.68z" fill="tomato"/><ellipse cx="119.15" cy="766.06" rx="33.61" ry="4.61" fill="tomato" opacity=".1"/><path d="M121.32 718.73s4.51 5.89-2.07 14.78-12 16.39-9.82 21.94c0 0 9.93-16.52 18-16.75s2.79-10.04-6.11-19.97z" fill="tomato"/><path d="M121.32 718.73a7.15 7.15 0 0 1 .92 1.85c7.89 9.26 12.09 17.91 4.51 18.12-7.06.21-15.53 12.83-17.56 16 .07.24.15.49.24.73 0 0 9.93-16.52 18-16.75s2.79-10.02-6.11-19.95z" opacity=".1"/><path d="M129.7 726.23c0 2.08-.24 3.76-.52 3.76s-.52-1.68-.52-3.76.29-1.09.57-1.09.47-.98.47 1.09z" fill="#ffd037"/><path d="M132.57 728.71c-1.82 1-3.41 1.59-3.55 1.34s1.23-1.26 3.05-2.25 1.1-.27 1.24 0 1.08-.08-.74.91z" fill="#ffd037"/><path d="M97.54 718.73s-4.5 5.89 2.08 14.78 12 16.39 9.81 21.94c0 0-9.93-16.52-18-16.75s-2.78-10.04 6.11-19.97z" fill="tomato"/><path d="M97.54 718.73a7.15 7.15 0 0 0-.92 1.85c-7.89 9.26-12.09 17.91-4.51 18.12 7.06.21 15.53 12.83 17.56 16a5.19 5.19 0 0 1-.24.73s-9.93-16.52-18-16.75-2.78-10.02 6.11-19.95z" opacity=".1"/><path d="M89.17 726.23c0 2.08.23 3.76.52 3.76s.52-1.68.52-3.76-.29-1.09-.58-1.09-.46-.98-.46 1.09z" fill="#ffd037"/><path d="M86.32 728.71c1.82 1 3.4 1.59 3.54 1.34s-1.23-1.26-3.05-2.25-1.1-.27-1.23 0-1.1-.08.74.91z" fill="#ffd037"/><path d="M90.6 754.67s12.59-.38 16.39-3.08 19.36-5.93 20.3-1.6 18.92 21.55 4.71 21.67-33-2.22-36.81-4.53-4.59-12.46-4.59-12.46z" fill="#a8a8a8"/><path d="M132.25 770.15c-14.21.11-33-2.22-36.81-4.52-2.88-1.76-4-8.06-4.42-11h-.42s.8 10.16 4.59 12.46 22.6 4.64 36.81 4.53c4.1 0 5.52-1.5 5.44-3.66-.57 1.35-2.12 2.16-5.19 2.19z" opacity=".2"/><path d="M585.92 452.29s7.58 12.53 14.89 12 11.23-6.27 8.88-9.92-18-10.45-18-10.45" fill="none" stroke="#000" stroke-miterlimit="10" opacity=".1"/><path d="M591.41 450.98s3.81 8.88 6.74 5.22-6.74-5.22-6.74-5.22z" fill="none" stroke="#000" stroke-miterlimit="10" opacity=".1"/><ellipse cx="387.1" cy="668.67" rx="37.95" ry="5.82" fill="tomato" opacity=".1"/><ellipse cx="934.43" cy="676.59" rx="37.95" ry="5.82" fill="tomato" opacity=".1"/><ellipse cx="840.95" cy="730.51" rx="37.95" ry="5.82" fill="tomato" opacity=".1"/><ellipse cx="268.49" cy="712.99" rx="49.23" ry="10.61" fill="tomato" opacity=".1"/><path d="M414.09 151.19s20.17 28.52 36.67 10c0 0 3.88-2.07 3-6.35 0 0-1.45 1.09-3.17-2a16.46 16.46 0 0 0-2.23-3.07 7.9 7.9 0 0 0-4.39-2.42s-9.29-5.11-24.18 1.93c0 0-4.49 0-5.12.64l5.64 3s2.06-4.23 5.8-5.2c0 0-5.83 4.92-5 5.69.17.15 3.06 1.46 3.06 1.46s3.61-7.32 9.44-8.65c0 0-7.73 4.93-8.34 9.16l4.47 1.72s3.43-7.93 10-9.69c0 0-7.9 5.43-9 10l4.63 1.1s3.5-7.67 9-9.1c0 0-8.49 7.2-7.9 9.28 0 0 4.31.75 5.55.39 0 0 2.64-5.44 5.9-6 0 0-5.17 5.41-4.68 6.07 0 0 5.87-.52 8.71-2.36a17.84 17.84 0 0 1-8.59 3.27 9.85 9.85 0 0 0 5.16 2.29s-3 1.77-6.58-2.18c0 0-4.6.22-5.23-.2 0 0 3 4.39 6.07 6 0 0-4.32-.15-7.31-6.25l-4.68-1s3.61 6 6.27 7.66c0 0-4.38-.83-7.43-8l-4.41-1.64s2.72 5.42 5.28 7.89c0 0-3.89-1.65-6.52-8.41l-2.85-1.39s2.05 3.92 2.75 5 .45 1.35.45 1.35a15.08 15.08 0 0 1-4.39-6.93s-5.62-3.42-5.85-3.06zm-31.77 29.23s-33.9-8.59-34.46 16.14c0 0-1.62 4.09 1.86 6.75 0 0 .4-1.76 3.74-.5a16 16 0 0 0 3.68.9 7.94 7.94 0 0 0 4.91-1s10.39-2.13 17.15-17.15c0 0 3.43-2.9 3.49-3.81l-6.25 1.36s1.17 4.55-1 7.72c0 0 1.24-7.52.1-7.56-.23 0-3.28.87-3.28.87s2 7.92-1.57 12.71c0 0 2.69-8.77.41-12.39l-4.53 1.6s2.53 8.26-1.33 13.87c0 0 2.49-9.26.37-13.45l-4.29 2.15s2.31 8.11-.94 12.75c0 0 1.8-11 0-12.18 0 0-3.77 2.22-4.48 3.3 0 0 1.52 5.85-.61 8.38 0 0 .43-7.47-.36-7.65 0 0-4.14 4.21-5.11 7.45a17.83 17.83 0 0 1 4.42-8.06 9.8 9.8 0 0 0-5.41 1.6s1.15-3.31 6.42-2.61c0 0 3.36-3.15 4.11-3.24 0 0-5.1-1.43-8.51-.64 0 0 3.38-2.68 9.62 0l4.2-2.28s-6.64-2.24-9.74-1.76c0 0 3.88-2.21 10.85 1.28l4.42-1.61s-5.58-2.37-9.13-2.58c0 0 4-1.28 10.41 2.16l3.08-.73s-4.1-1.65-5.33-2-1.22-.73-1.22-.73a15 15 0 0 1 7.84 2.42s6.47-1.07 6.47-1.48zM305.68 65.48s-16.22 30.94 7.75 37.21c0 0 3.61 2.52 7-.25 0 0-1.63-.8.38-3.75a16.36 16.36 0 0 0 1.72-3.38 7.88 7.88 0 0 0 .15-5s.33-10.6-12.72-20.65c0 0-2-4-2.9-4.27l-.12 6.4s4.7-.1 7.27 2.79c0 0-7-3-7.33-1.84-.06.22.09 3.39.09 3.39s8.16-.12 12 4.46c0 0-7.9-4.64-11.95-3.26l.51 4.77s8.62-.55 13.18 4.51c0 0-8.43-4.57-13-3.47l1.13 4.62s8.42-.37 12.19 3.86c0 0-10.27-4.29-11.86-2.81 0 0 1.3 4.18 2.18 5.12 0 0 6.05-.13 8 2.53 0 0-7.17-2.14-7.54-1.41 0 0 3.14 5 6.07 6.68a17.81 17.81 0 0 1-6.82-6.16 9.91 9.91 0 0 0 .31 5.64s-3-1.89-1.06-6.86c0 0-2.29-4-2.2-4.74 0 0-2.57 4.63-2.58 8.13 0 0-1.84-3.91 2.24-9.35l-1.24-4.62s-3.72 5.95-4 9.07c0 0-1.25-4.28 3.75-10.26l-.54-4.67s-3.6 4.88-4.62 8.29c0 0-.31-4.22 4.51-9.64V73.4s-2.56 3.61-3.2 4.72-1 1-1 1a15 15 0 0 1 4.17-7.07s.47-6.51.08-6.57z" fill="tomato"/><path d="M597.92 690.45s-2-8-3.8-16c-.37-5-1.24-11.41-1.62-14v-.33a4.26 4.26 0 0 0-1.13-2.91c1-2.9 4.64-13.92 4-17.09-.78-3.66-3.6-12.58-6.93-15.54a9 9 0 0 0-4.4-3.46 11.56 11.56 0 0 0-9.77.78l-17 9.53c-6.8-1-12.32-1.79-12.32-1.79s-4.21-.5-9.48-1c-1.65-3.9-7-15.69-12.64-17.56-6-2-13.1.72-14.61 1.35h-.09l-.2.09c-11.05 5.11-9.78 26.77-9.36 31.51a76.27 76.27 0 0 1-6.65 7.4c-3.79 3.34-5 12.08-1.44 13.88 1.67.84 4.05 1.86 6.11 2.7-9.57 20.35-25.77 60.37-11.26 71.75 19.72 15.45 56.68 20.59 69.35 15.45a2 2 0 0 0 1-.07s20.56-4.9 25.36-10.38a35.5 35.5 0 0 0 7.18-15.48 30.09 30.09 0 0 0 9.66-16.88c2.57-12.7.04-21.95.04-21.95zm-12.86-43.9l.49-2.43c.27.15.54.29.81.45-.12.67-.27 1.37-.44 2.08l-.77 4.68zm-3.87-20.25c.87.59 6.68 4.9 5.51 15.91a5.3 5.3 0 0 0-.31-1.25c-.26-1.57-1.39-3.71-5.31-5.05a90.71 90.71 0 0 0-10.26-2.28 34.11 34.11 0 0 1 10.37-7.33zm-57.65 1.16c-4.45-.35-7.95-.5-8.43-.15H515a4 4 0 0 0-1.68.21 12.85 12.85 0 0 0-4.78 2.23c2-11.24 7.88-12.19 9.16-12.26a31.33 31.33 0 0 1 5.84 9.97zm63.87 89.24c-.61-9.18-1.17-23.54-1.48-31.91l.51-.08a12.06 12.06 0 0 0 1.71-.33c.57 5.4 1.57 11.82 3.31 16 2.23 5.37-1.25 12.14-4.05 16.32z" transform="translate(-44.68 -64.17)" fill="url(#a)"/><path fill="#434175" d="M538.96 577.38l-11.46-3.56-12.35 4.45-.89 7.77 6.11 3.95 9.68-.32 8.53-4.01 1.46-7.39-1.08-.89z"/><path opacity=".2" d="M538.96 577.38l-11.46-3.56-12.35 4.45-.89 7.77 6.11 3.95 9.68-.32 8.53-4.01 1.46-7.39-1.08-.89z"/><path d="M455.11 581.2s-3.12-26.85 9.27-32.28c0 0 6.62.34 9.51 5.1 0 0-9.05-.51-9.79 18.33z" fill="#565387"/><path d="M455.11 581.73s-3.12-26.85 9.27-32.28c0 0 6.62.34 9.51 5.09 0 0-9.05-.5-9.79 18.34z" opacity=".1"/><path d="M461.79 571.59s-9.55 12.73-13.24 16-4.84 12-1.4 13.75 10.06 4.33 10.06 4.33z" fill="#cd939c"/><path d="M461.79 571.59s-9.55 12.73-13.24 16-4.84 12-1.4 13.75 10.06 4.33 10.06 4.33z" fill="#434175"/><path d="M491.4 566.24s-6.24-16.43-12.8-18.66-14.5 1.47-14.5 1.47 9.66-1 15.58 15.92zm53.64 27.82s4.86-14 4.1-17.63-3.5-12.48-6.75-15.41-7.13 1.65-7.13 1.65 8.34 5 4.71 20.25l-1.08 6.75z" fill="#565387"/><path d="M544.98 594.06s4.86-14 4.1-17.63-3.51-12.48-6.75-15.41-7.13 1.65-7.13 1.65 8.34 5 4.71 20.25l-1.08 6.75z" opacity=".1"/><path d="M509.6 569.23l19-10.87a11.08 11.08 0 0 1 9.51-.77 8.77 8.77 0 0 1 4.27 3.43s-9.17-.51-19.35 11.46zm31.86 41.32s.51 17.32 3.9 25.64-6.79 20-6.79 20l1.87 10s8.74-5.61 11.2-18.17 0-21.73 0-21.73-7.05-28.23-6-31.24-4.18 15.5-4.18 15.5z" fill="#565387"/><path d="M541.46 610.55s.51 17.32 3.9 25.64-6.79 20-6.79 20l1.87 10s8.74-5.61 11.2-18.17 0-21.73 0-21.73-7.05-28.23-6-31.24-4.18 15.5-4.18 15.5z" opacity=".1"/><path d="M539.08 580.16s1.53 8.83-16.47 4.92l-12 105.36s20-4.85 24.67-10.28 8.14-15.79 7-19.53-2.5-46.51-2.5-46.51z" fill="#434175"/><path d="M458.95 592.09s-36 67.78-16.81 83.1 55.13 20.42 67.46 15.32c0 0 5.71 1.53 4.86-16.29s6.63-67.57 6.63-67.57z" fill="#434175"/><path d="M460.14 595.11s-33.82 63.72-15.82 78.1 51.81 19.19 63.4 14.4c0 0 5.36 1.43 4.57-15.32s6.22-63.5 6.22-63.5z" fill="#565387"/><path d="M538.32 621.37c-1.39 1-9.3-1.4-9.3-1.4-8.56-.6-5.51-15.33-4-21.19.39-1.46.68-2.36.68-2.36 4 5.1 11.18 2.93 11.18 2.93s.21 1.64.5 4c.77 6.17 1.94 17.3.94 18.02z" opacity=".1"/><path d="M538.57 620.83c-1.38 1-9.29-1.4-9.29-1.4-8.56-.59-5.52-15.33-4-21.19.38-1.46.68-2.36.68-2.36 4 5.1 11.17 2.93 11.17 2.93s.22 1.64.5 4c.77 6.2 1.94 17.33.94 18.02z" fill="#434175"/><path d="M538.6 620.83c-1.38 1-9.29-1.4-9.29-1.4-8.56-.59-5.52-15.33-4-21.19.38-1.46.68-2.36.68-2.36 4 5.1 11.17 2.93 11.17 2.93s.22 1.64.5 4c.77 6.2 1.94 17.33.94 18.02z" opacity=".05"/><path d="M537.67 602.83c-3.89-.49-9.88-3.34-12.35-4.59.38-1.46.68-2.36.68-2.36 4 5.1 11.17 2.93 11.17 2.93s.22 1.67.5 4.02z" opacity=".1"/><path d="M533.86 598.24s-9.72 25.34 6.62 22.41c0 0 7.68-.8 7.64-6.62s-1.91-18.63-1.91-18.63z" fill="#565387"/><path d="M526.61 591.91s-4.95 20.51 10.88 12.9 5.71-12.9 5.71-12.9l-7.57-4.94z" opacity=".1"/><path d="M526.61 591.65s-4.95 20.51 10.88 12.9 5.71-12.9 5.71-12.9l-7.57-4.94z" fill="#434175"/><path d="M529.64 588.83s-4.54 1.21-2.22 5.7a12.76 12.76 0 0 1 1.45 6.58 3.07 3.07 0 0 0 2.5 3.2c1.62.29 3.94-.12 6.88-2.68 0 0 5.85-2.18 5.39-5s-10.07-9.24-10.07-9.24z" opacity=".1"/><path d="M529.64 588.53s-4.54 1.21-2.22 5.69a12.79 12.79 0 0 1 1.45 6.59 3.08 3.08 0 0 0 2.5 3.2c1.62.28 3.94-.12 6.88-2.68 0 0 5.85-2.18 5.39-5s-10.07-9.24-10.07-9.24z" fill="#565387"/><circle cx="535.74" cy="595.83" r="2.98" opacity=".1"/><circle cx="535.74" cy="595.58" r="2.98" fill="#434175"/><path d="M499.24 566.9s-28.42-3.51-29.86-2.43c0 0-15.06 2.57-15.06 30.71 0 0-.31 16.17 30.78 23.95 0 0 25 2.19 33.09-7.7s4.13-26.53 4.13-26.53 3.24-12.72 18.32-3.92c0 0 1.58-5-5.23-7.45s-36.17-6.63-36.17-6.63z" opacity=".1"/><path d="M499.24 566.39s-28.42-3.51-29.86-2.43c0 0-15.06 2.57-15.06 30.71 0 0-.31 16.17 30.78 23.95 0 0 25 2.19 33.09-7.7s4.13-26.53 4.13-26.53 3.24-12.72 18.32-3.92c0 0 1.58-5-5.23-7.45s-36.17-6.63-36.17-6.63z" fill="#434175"/><path d="M500.12 566.49s-27.63-3.31-29-2.29c0 0-14.65 2.42-14.65 28.91 0 0-.3 15.21 29.93 22.53 0 0 24.25 2.06 32.17-7.24s4-25 4-25 3.16-12 17.81-3.69c0 0 1.54-4.72-5.08-7s-35.18-6.22-35.18-6.22z" opacity=".1"/><path d="M500.12 566.24s-27.63-3.31-29-2.29c0 0-14.65 2.42-14.65 28.9 0 0-.3 15.22 29.93 22.54 0 0 24.25 2.06 32.17-7.25s4-25 4-25 3.16-12 17.81-3.69c0 0 1.54-4.71-5.08-7s-35.18-6.21-35.18-6.21z" fill="#565387"/><path d="M486.24 609.83s-7.51-3.43-7.9 3.06c0 0-2.54 6.5-2.67 7.26s.38 7.39 6.24 7.13a9 9 0 0 0 7.89-4.85s1.28-7.12 3.06-8.65-1.27-3-2.42-3a24.59 24.59 0 0 1-4.2-.95z" fill="#434175"/><path d="M485.22 608.76s-7.51-3.43-7.9 3.07c0 0-2.55 6.5-2.68 7.26s.38 7.39 6.24 7.13a9.06 9.06 0 0 0 7.9-4.85s1.27-7.12 3-8.64-1.27-3.06-2.42-3.06a24.82 24.82 0 0 1-4.14-.91z" opacity=".1"/><path d="M485.47 608.51s-7.51-3.43-7.89 3.06c0 0-2.55 6.49-2.67 7.26s.38 7.38 6.24 7.13a9.07 9.07 0 0 0 7.89-4.85s1.27-7.12 3.06-8.65-1.28-3.06-2.42-3.06a25 25 0 0 1-4.21-.89z" fill="#565387"/><circle cx="481.72" cy="621.14" r="2.73" opacity=".1"/><circle cx="481.72" cy="620.89" r="2.73" fill="#434175"/><path d="M507.18 635.77s-29.6-3.45-50.29-14.08c0 0-16.3 41.07-3.31 46.83s40 14.95 47.56 11.77c0 0 4.52.74 3-14.21s3.04-30.31 3.04-30.31z" fill="#434175"/><path d="M505.4 638.69s-29.6-3.25-50.29-13.24c0 0-16.3 38.64-3.31 44s40 14.08 47.55 11.08c0 0 4.52.7 3.06-13.37s2.99-28.47 2.99-28.47z" opacity=".1"/><path d="M505.91 638.44s-29.6-3.25-50.29-13.25c0 0-16.3 38.65-3.32 44.06s40 14.07 47.56 11.08c0 0 4.52.7 3.06-13.37s2.99-28.52 2.99-28.52z" fill="#565387"/><path d="M535.26 572.27c-6.62-2.29-35.14-6.24-35.14-6.24s-27.63-3.31-29-2.29c0 0-7.14 1.18-11.45 10.91 4.34-8.74 10.94-9.83 10.94-9.83 1.4-1 29 2.3 29 2.3s28.52 3.94 35.15 6.24c4.44 1.53 5.21 4.16 5.23 5.72l.35.2s1.54-4.72-5.08-7.01zm-12.48 9.98a9.34 9.34 0 0 0-.76 1.8s2.81 11.2-1.11 20.29c4.66-9.25 1.62-21.37 1.62-21.37a5.89 5.89 0 0 1 .25-.72z" opacity=".1"/><path d="M1019.82 682.01s-41.37-2.49-36.49 26.49c0 0-1 5.13 3.67 7.45 0 0 .08-2.15 4.24-1.42a19.12 19.12 0 0 0 4.5.22 9.32 9.32 0 0 0 5.49-2.27s11.63-4.8 16.15-23.81c0 0 3.35-4.14 3.22-5.21l-7 3s2.38 5 .51 9.22c0 0-.23-9-1.57-8.82-.27 0-3.63 1.74-3.63 1.74s4.1 8.78 1 15.15c0 0 1.17-10.81-2.29-14.51l-4.92 2.87s4.8 9.06 1.55 16.45c0 0 .83-11.34-2.58-15.75l-4.45 3.47s4.5 8.93 1.76 15.06c0 0-.36-13.2-2.73-14.2 0 0-3.89 3.44-4.49 4.85 0 0 3.09 6.48 1.18 9.9 0 0-1.18-8.79-2.14-8.83 0 0-3.88 5.83-4.29 9.82 0 0 .17-5.94 3.35-10.38a11.69 11.69 0 0 0-6 3.08s.61-4.12 6.91-4.48c0 0 3.2-4.42 4.06-4.69 0 0-6.26-.53-10.06 1.16 0 0 3.34-3.89 11.21-2.12l4.4-3.59s-8.25-1.13-11.75.12c0 0 4-3.44 12.93-.94l4.79-2.86s-7-1.51-11.22-1c0 0 4.42-2.38 12.62.2l3.42-1.53s-5.15-1-6.66-1.17-1.59-.58-1.59-.58a17.83 17.83 0 0 1 9.68 1.08s7.34-2.71 7.22-3.17z" fill="tomato"/><ellipse cx="991.33" cy="718.48" rx="29.28" ry="4.95" fill="tomato" opacity=".1"/><path d="M614.42 704.23s-41.37-2.5-36.49 26.49c0 0-1 5.12 3.67 7.45 0 0 .08-2.15 4.24-1.42a19.68 19.68 0 0 0 4.5.22 9.38 9.38 0 0 0 5.49-2.27s11.63-4.81 16.15-23.81c0 0 3.35-4.15 3.22-5.21l-7 3s2.38 5 .51 9.22c0 0-.23-9-1.57-8.83-.27 0-3.63 1.75-3.63 1.75s4.1 8.77 1 15.15c0 0 1.17-10.81-2.29-14.52l-4.9 2.85s4.8 9.06 1.55 16.46c0 0 .83-11.34-2.58-15.76l-4.45 3.47s4.5 8.93 1.76 15.07c0 0-.36-13.21-2.73-14.2 0 0-3.89 3.43-4.49 4.85 0 0 3.09 6.48 1.18 9.9 0 0-1.18-8.8-2.14-8.84 0 0-3.88 5.83-4.29 9.82 0 0 .17-5.94 3.35-10.38a11.73 11.73 0 0 0-5.94 3.08s.6-4.12 6.9-4.48c0 0 3.2-4.42 4.06-4.69 0 0-6.26-.52-10.06 1.16 0 0 3.34-3.88 11.21-2.12l4.4-3.59s-8.25-1.12-11.75.12c0 0 4-3.43 12.93-.93l4.79-2.86s-7-1.52-11.22-1c0 0 4.42-2.38 12.62.2l3.42-1.54s-5.15-1-6.66-1.17-1.59-.57-1.59-.57a17.88 17.88 0 0 1 9.68 1.07s7.27-2.69 7.15-3.14z" fill="tomato"/><ellipse cx="585.93" cy="740.69" rx="29.28" ry="4.95" fill="tomato" opacity=".1"/><path d="M924 713.7c-5.72-.2-5.93-2.42-13.28-6.25-4.15-2.17-10.46-8.45-15.16-13.5l-1.1-1.18h2s-1.84-16.14-.2-20 .41-26.62.41-26.62 1-17.34-.82-21.37.61-29.85.61-29.85 1.64-15.33 2-46.58-18-32.27-18-32.27-2.45-.19-6.17-.54l-1.12-.11c2.41-5 3.82-8.83 3.82-8.83s-3.07-29.24-3.89-34.28-5.72-25.81-5.72-25.81-3.47-8.88-5.52-15.13-8.17-13.51-8.17-13.51-11-21.78-14.1-25c-1.42-1.5-3.42-3.39-5.15-5l-.9-.83a36 36 0 0 0 .74-6.9S822.81 368.86 822 366s-11.64-13.31-11.64-13.31-6.14-11.29-13.08-11.49a57.06 57.06 0 0 0-9.85.3c1.43-5.28 3.12-10.82 4.63-15.57.17-.52.34-1 .5-1.55a35 35 0 0 0 12.56-15.18c.14-.33.27-.66.4-1h.22a4.91 4.91 0 0 0 .86-.08c2.29-.39 4.23-3 3.17-5a.77.77 0 0 0 .67.36c.76 0 1.69-1.12 1.87-2.1 0-.16.05-.33.08-.5l.09-.63v-.6c0-.2 0-.41.05-.62s0-.39 0-.58v-1.2c0-.18 0-.54-.06-.81v-.33a17.94 17.94 0 0 0-.66-3.26c-1.12-3.74-3.49-7.46-2.58-11.27v-.12c.76-2.95 3.32-5.1 4.88-7.74.15-.25.28-.51.41-.77l.07-.14c.1-.2.18-.4.26-.6s.11-.25.16-.38.12-.36.18-.54.11-.32.15-.49.08-.31.12-.47.09-.39.13-.58 0-.28.07-.42.06-.44.08-.66 0-.25 0-.37v-2.1c0-.29-.05-.58-.08-.86v-.13a14.49 14.49 0 0 0-2.93-7 17.91 17.91 0 0 0-14.64-6.21 24.61 24.61 0 0 1-4.62.08c-2.57-.37-4.74-2-6.78-3.58l-17.12-13.2a21.11 21.11 0 0 0-6.47-3.85c-2.42-.74-5.32-.48-7.11 1.28-3.2 3.17-1.17 8.61-2.45 12.9-1.12 3.71-4.71 6.23-8.42 7.48s-7.69 1.53-11.51 2.44a6.4 6.4 0 0 0-3.07 1.42 5.93 5.93 0 0 0-1.34 4.28 23.06 23.06 0 0 0 2.66 10.91c.72 1.37 1.59 2.75 2.36 4.16.06.11.12.23.19.34s.17.33.25.49.26.52.38.79l.15.34.23.56.13.36c.08.22.14.44.21.66a7.42 7.42 0 0 1 .11 4c-.59 2.17-2.28 3.84-3.78 5.53a11 11 0 0 0-2.52 4.68 3.46 3.46 0 0 0-.05 1.23v.15a1.73 1.73 0 0 0 .08.27 1.08 1.08 0 0 0 .08.19 2 2 0 0 0 .1.21 3.88 3.88 0 0 0 .26.31l.15.1a1.4 1.4 0 0 0 .26.16 1 1 0 0 0 .18.08 1.64 1.64 0 0 0 .41.11h.12a3.48 3.48 0 0 0 .66 0h.2a5 5 0 0 0 .62-.08h.23c.31-.06.62-.14 1-.24a22.14 22.14 0 0 0 3.34-1.32v1.01a34 34 0 0 0 2.21 11.57 34.93 34.93 0 0 0 10.65 14.72c-.06.35-.12.7-.19 1-1 4.84-3 9.69-4.32 9.31a17.75 17.75 0 0 0-3.79-.41h-1.11a14.78 14.78 0 0 0-3.48 0 3.84 3.84 0 0 1-1.52-.21 20.8 20.8 0 0 0-10.21-.58c-7.06 1.45-17.81 4.1-20.76 7.27-4.5 4.84-11 9.48-18.39 29.65 0 0-3.68 12.3-6.54 13.91a18.18 18.18 0 0 1 1.94-.87 5.22 5.22 0 0 1-1.53 1.68 21.9 21.9 0 0 1 3.21-1.34c-2.23 13.13 1.08 50.72 1.08 50.72s-2.66 6.48.81 10.31c2.07 2.28 3.19 5.83 3.77 8.34l-.51.78c-1.84 2.85-4.3 6.57-5.91 8.62-2.86 3.63-2 15.12-2 15.12s-.61 5.44-2.65 7.46-1.64 9.48-1.64 9.48L671 512.44s-4.91 4.44-4.91 6.45-3.88 7.67-3.88 7.67-5.92 9.68 0 8.26a18.69 18.69 0 0 0 6-3v1.26c-.17 10.54 1 25.38 8.76 25.38 12.05 0 43.12 14.32 43.12 14.32 6.33 4.84 14.92 3.22 14.92 3.22s-15.13 15.13-14.72 21.38-8.58 16.54-8.58 16.54l-27.8 54.24a41.39 41.39 0 0 0 2 11.12l-.4.34c-10.68 9.76-11.61 29.08-11.61 29.08l-2.45 9.88 37.19 16.33s48.23 1 56.61-1.21 6.54-11.49-4.5-13.31-13.69-6.65-17.37-8.87c-2.48-1.5-11.29-11.17-16.76-17.3l-.24-.27 1.27-7c2.45-1.21 6.13-13.31 6.13-13.31s0-4.84 2.45-6.25 7.56-15.94 7.56-15.94 11-18.35 10.43-20.77 8-14.72 8-14.72 14.51-14.11 13.89-16.63 11.65-15.43 11.65-15.43a40.79 40.79 0 0 0 10.85-12.5l3.54-.57c16.05-2.63 42.71-7.39 45.69-8.71 4.09-1.82 3.27 6.25 1.64 13.11s-2.86 39.72-1 44 1 11.09 1 11.09l-2.45 36.9 1.63 7.87s-5.52 4.44-3.27 7.06.21 13.91.21 13.91c.19-.07.42-.14.67-.21-.19.44-.38.9-.55 1.38-3.17 9-1.35 23.84-1.35 23.84v11.69s56.61 1 69.07 1 29.64-6 30.66-10.89-14.41-8.97-20.1-9.17zM763 503.76l-3.7.31a31.12 31.12 0 0 1 3.7-.31zM785.57 349c.52-2.33 1.15-4.84 1.85-7.41zm7 160.45a15 15 0 0 1-11 0s.2-14.12 1.84-20 3.88-16.54 3.88-16.54 1.84-14.72 3.68-21.37 9-43.76 12.67-46.18 5.72 1.81 5.72 1.81.55 0 1.47-.11c.18.39.37.8.59 1.23 4.36 8.82 17.15 26.91 17.15 26.91a29.43 29.43 0 0 1 9.4 9.28c3.48 5.85 4.5 19.56 4.5 19.56s7.77 30.45 11.44 34.69c1.84 2.11 1 3.38-.25 4.11a18.16 18.16 0 0 0-6.45 6c-.52.83-1.08 1.75-1.64 2.72-1.4-.33-2.66-.66-3.71-1-10.06-3.43-43.78-3.56-49.29-1.14z" transform="translate(-44.68 -64.17)" fill="url(#b)"/><path d="M798.25 656.91v11.59s55.39 1 67.59 1 29-6 30-10.79-14-8.8-19.6-9-5.8-2.4-13-6.2c-4.06-2.15-10.23-8.37-14.83-13.38-3.55-3.87-6.17-7-6.17-7s-29.79-.6-38.39 4.2c-2 1.11-3.35 3.28-4.28 6-3.1 8.89-1.32 23.58-1.32 23.58z" fill="#434175"/><path d="M799.57 633.27c6.25-2.18 42.82-3 48.84-3.14-3.55-3.87-6.17-7-6.17-7s-29.79-.6-38.39 4.2c-1.98 1.09-3.35 3.26-4.28 5.94z" opacity=".1"/><path d="M638.87 448.33l3.23 2 1.21.73 4.7 2.83c25.14 15.15 93.69 56.2 97.45 55.88 1-.09 3.94-.53 8-1.2l3.47-.57c15.7-2.61 41.79-7.32 44.71-8.63 4-1.8 3.2 6.2 1.6 13s-2.8 39.39-1 43.59 1 11 1 11l-2.4 36.59 1.6 7.8s-5.4 4.4-3.2 7 .2 13.8.2 13.8c6.4-2.4 49.79-3.2 49.79-3.2s-1.8-16-.2-19.8.4-26.39.4-26.39 1-17.2-.8-21.2.6-29.6.6-29.6 1.6-15.2 2-46.19-17.6-32-17.6-32-2.4-.18-6-.54c-7.13-.68-19-2-26.94-3.71a45.61 45.61 0 0 1-4.81-1.28c-9.8-3.33-42.8-3.47-48.19-1.07a14.49 14.49 0 0 1-10.78 0l-4.2-6.79-40.11 3.41-4.25.37-39.49 3.37-2.72.23z" fill="#565387"/><path d="M799.65 479.01c11.65 5.68 22.77-14.45 27.95-25.82-7.13-.68-19-2-26.94-3.71-5.22 8.76-12.18 24.09-1.01 29.53z" opacity=".1"/><path d="M764.65 342.95a12.43 12.43 0 0 0 1.42 3.91c4.26 8.74 16.78 26.68 16.78 26.68a29 29 0 0 1 9.2 9.2c3.4 5.8 4.4 19.4 4.4 19.4s7.6 30.2 11.2 34.4c1.8 2.1 1 3.35-.25 4.07a17.8 17.8 0 0 0-6.31 5.91c-5.24 8.43-13.62 25.15-1.84 30.89 16 7.8 31-33.08 31-33.08s-3-29-3.8-34-5.59-25.6-5.59-25.6-3.4-8.8-5.4-15-8-13.39-8-13.39-10.8-21.6-13.8-24.8c-1.39-1.48-3.34-3.36-5-4.94-1.95-1.82-3.56-3.26-3.56-3.26s-20.65 14.81-20.45 19.61z" fill="#ee8e9e"/><path d="M629.07 654.51l36.4 16.19s47.19 1 55.39-1.2 6.4-11.39-4.4-13.19-13.4-6.6-17-8.8c-2.43-1.49-11-11.08-16.4-17.16-2.58-2.92-4.4-5-4.4-5s-7-18.6-26.39-14.4a19.86 19.86 0 0 0-9.44 5c-10.45 9.67-11.36 28.83-11.36 28.83z" fill="#434175"/><path d="M643.32 451.02l4.7 2.83c25.14 15.15 93.69 56.2 97.45 55.88 1-.09 3.94-.53 8-1.2l3.47-.57a1.71 1.71 0 0 0 .13-.23 45.4 45.4 0 0 0 4.58-11.2c4.2-16-16.59-28.2-16.59-28.2l-4.4-3.42c-5-8.42-41-16.38-41-16.38l-4.64-3.11-2.47-1.67-.65-.43-5.64-3.78-28.19 2-8.38 5.38-.88.57-3.11 2zm-.49 164.86c7.65 26.48 39.63 17.83 39.63 17.83l.6-3.36c-2.58-2.92-4.4-5-4.4-5s-7-18.6-26.39-14.4a19.86 19.86 0 0 0-9.44 4.93z" opacity=".1"/><path d="M634.47 495.73c11.8 0 42.2 14.2 42.2 14.2 6.19 4.8 14.59 3.2 14.59 3.2s-14.79 15-14.39 21.19-8.4 16.4-8.4 16.4l-27.15 53.79c2 38.2 41.19 27.6 41.19 27.6l1.6-9c2.4-1.2 6-13.2 6-13.2s0-4.8 2.4-6.2 7.4-15.79 7.4-15.79 10.8-18.2 10.2-20.6 7.8-14.6 7.8-14.6 14.2-14 13.6-16.5 11.4-15.3 11.4-15.3a40.29 40.29 0 0 0 10.61-12.39 45.4 45.4 0 0 0 4.58-11.2c3.39-12.88-9.44-23.31-14.57-26.87-1.24-.86-2-1.33-2-1.33l-4.4-3.42c-2.27-3.83-11-7.56-19.76-10.49-6.34-2.12-12.74-3.82-16.83-4.84-2.71-.67-4.41-1-4.41-1l-4.64-3.11-1.63-1.1-1.49-1-5.64-3.78-12.54.88-15.65 1.11-8.38 5.39-4 2.57-15.63 10s-.41 3.85-.54 9v1.22c-.25 10.46.87 25.17 8.48 25.17z" fill="#565387"/><path d="M694.66 271.76l4.2 15s7.4 25.79 8.2 27.59 20.2 20 21 20.4 11.36 6.4 11.36 6.4.84-33 0-42.6a27.24 27.24 0 0 1 .52-6.28c1.27-7.53 4.5-18.56 7.18-27.05 2.24-7.12 4.1-12.46 4.1-12.46s-46.8-2-45.2 2.6c.61 1.74.41 4.65-.17 7.56-1 4.8-3 9.61-4.23 9.24a16.42 16.42 0 0 0-3.71-.41c-1.68-.06-3.25.01-3.25.01z" fill="#ee8e9e"/><path d="M705.89 262.92a34.61 34.61 0 0 0 41.27 2.3c2.24-7.12 4.1-12.46 4.1-12.46s-46.8-2-45.2 2.6c.61 1.74.41 4.65-.17 7.56z" opacity=".1"/><path d="M762.66 235.17a34.46 34.46 0 0 1-1.73 10.8 28.23 28.23 0 0 1-1 2.65 34.6 34.6 0 0 1-64.28-1.34 34.1 34.1 0 0 1-2.16-11.45v-.64a34.6 34.6 0 1 1 69.19 0z" fill="#ee8e9e"/><path d="M694.66 271.76l4.2 15s7.4 25.79 8.2 27.59 20.2 20 21 20.4 11.36 6.4 11.36 6.4.84-33 0-42.6a27.24 27.24 0 0 1 .52-6.28l-2.72 11.08.2 22.2 1.6 1.2-3.6 5.4v-4s-12.8-12.4-14.8-17.6-9.2-14.61-9.2-14.61-8.2-13.78-8.4-16.18c-.15-1.87-3.6-6.2-5.11-8-1.68-.07-3.25 0-3.25 0zm69.99 71.19a12.43 12.43 0 0 0 1.42 3.91c4.37-.45 19.26-3.23 22.54-20.25-1.95-1.82-3.56-3.26-3.56-3.26s-20.6 14.8-20.4 19.6zM625.9 470.56c4-2.85 7.88-6.75 10.17-7.83 3.4-1.6 8.6-6.8 8.6-6.8s1.32-.89 3.34-2.08c3.71-2.18 9.8-5.33 14.46-5.72 4.17-.34 18-1.23 29-1.91l14.24-.89s13-4.59 18.6-1.6a58.77 58.77 0 0 0 12.6 4.6v-1.18l-4.2-6.79-44.39 3.76-5.64-3.78-28.19 2-8.38 5.39-7.22.61 3.23 2-15.63 10s-.5 4.49-.59 10.22z" opacity=".1"/><path d="M620.07 472.33a18.27 18.27 0 0 0 5.86-3c4-2.85 7.85-6.73 10.14-7.81 3.4-1.6 8.6-6.8 8.6-6.8s10.6-7.2 17.8-7.8c2-.16 6.06-.44 11-.76s11-.72 16.32-1l8.48-.53 7.39-.46s13-4.59 18.6-1.6a58.77 58.77 0 0 0 12.6 4.6s.2-14 1.8-19.79 3.8-16.4 3.8-16.4 1.8-14.6 3.6-21.2 8.79-43.39 12.39-45.79 5.6 1.8 5.6 1.8 24-.4 24.4-26.8c0 0-11.2-11.2-12-14s-11.4-13.19-11.4-13.19-6-11.2-12.8-11.4a55.34 55.34 0 0 0-9.63.29l-5.76 23.5.2 22.2 1.6 1.2-3.6 5.4v-4s-12.8-12.4-14.8-17.6-9.2-14.61-9.2-14.61-8.2-13.78-8.4-16.18-5.8-8.83-5.8-8.83a14.11 14.11 0 0 0-3.4 0 3.64 3.64 0 0 1-1.48-.21 20.08 20.08 0 0 0-10-.57c-6.91 1.44-17.43 4.06-20.31 7.21-4.4 4.8-10.8 9.4-18 29.39l38.79 14-3.32 6.24-30.82 58.71s-1 1.67-2.41 3.85c-1.8 2.83-4.21 6.52-5.79 8.55-2.8 3.6-2 15-2 15s-.6 5.4-2.6 7.4-1.6 9.4-1.6 9.4l-5.2 19.39s-4.8 4.4-4.8 6.4-3.8 7.6-3.8 7.6-5.8 9.6-.05 8.2z" fill="#dfe5ee"/><path d="M824.85 486.73s-12.6 4.2-16 10.2 16-10.2 16-10.2zm-6.4-13.2c-.4.6-17.26 17.51-16.2 21.6s16.2-21.6 16.2-21.6zm-92.59 12s-18.8 8.86-20.4 12.73 20.4-12.73 20.4-12.73zm-1.2 11.4s-17 7.2-19.28 9 19.28-9 19.28-9zm-7.8 15.4s-7.51 5.59-11.66 1.2 11.66-1.2 11.66-1.2zm28.2-145.98c-.4.6-25.4 45.59-32 49s32-49 32-49zm-1.2 16.99c0 1-24.4 53.2-28.4 53.8s28.4-53.8 28.4-53.8zm-92.79 33.6s-11.75 25.16-16.4 26.59 16.4-26.59 16.4-26.59zm-2-11.2s-4.06 8.8-6.53 8.8 6.53-8.8 6.53-8.8zm113.59-170.57a34.46 34.46 0 0 1-1.73 10.8 28.23 28.23 0 0 1-1 2.65 10.17 10.17 0 0 1-4.85-2.13 12 12 0 0 1-3.63-3.88 48.65 48.65 0 0 1-1.77-5 11.75 11.75 0 0 0-9.49-7.19c1.15 2-.68 4.65-2.93 5s-4.44-1-6-2.67-2.67-3.7-4.21-5.37-3.74-3-6-2.67c-2 .3-3.53 1.82-5.2 2.95s-4 1.89-5.6.68c-.9-.67-1.34-1.81-2.2-2.54-2.21-1.85-5.65.06-7.28 2.45-2.51 3.7-4 5.94-7.3 7.61v-.64a34.6 34.6 0 1 1 69.19 0z" opacity=".1"/><path d="M700.79 227.2c1.63-2.39 5.07-4.3 7.28-2.44.86.72 1.3 1.86 2.2 2.53 1.61 1.21 3.94.46 5.6-.68s3.21-2.65 5.2-2.95c2.25-.34 4.44 1 6 2.67s2.66 3.7 4.21 5.37 3.74 3 6 2.67 4.08-3 2.93-5a11.75 11.75 0 0 1 9.48 7.19 51.11 51.11 0 0 0 1.77 5 12 12 0 0 0 3.64 3.88c1.83 1.34 4.06 2.48 6.3 2.09s4.14-3 3.1-5c.71 1.09 2.25-.42 2.48-1.71a18.27 18.27 0 0 0-.46-8.44c-1.1-3.71-3.42-7.4-2.53-11.17.71-3 3.26-5.14 4.81-7.79 2.75-4.69 2-11-1.32-15.32a17.41 17.41 0 0 0-14.4-6.31 23.58 23.58 0 0 1-4.52.09c-2.51-.38-4.64-2-6.64-3.55l-16.75-13.08a20.53 20.53 0 0 0-6.33-3.81c-2.36-.74-5.2-.49-7 1.27-3.14 3.13-1.15 8.53-2.41 12.78-1.09 3.69-4.6 6.18-8.23 7.43s-7.52 1.52-11.26 2.42a6.08 6.08 0 0 0-3 1.4 5.94 5.94 0 0 0-1.31 4.25 23.11 23.11 0 0 0 2.6 10.81c1.94 3.73 5 7.57 3.93 11.63-.58 2.15-2.24 3.81-3.7 5.48-3.16 3.65-4.23 9 1.73 7.15 5.75-1.75 7.36-4.1 10.6-8.86z" fill="#603556"/><path d="M766.97 236.94c-.24 1.28-1.77 2.8-2.49 1.71 1 2-.86 4.59-3.1 5s-4.46-.74-6.3-2.09a12 12 0 0 1-3.63-3.87 48.65 48.65 0 0 1-1.77-5 11.73 11.73 0 0 0-9.49-7.19c1.16 2-.68 4.65-2.93 5s-4.44-1-6-2.67-2.67-3.7-4.21-5.37-3.74-3-6-2.67c-2 .3-3.53 1.81-5.2 2.95s-4 1.89-5.6.68c-.9-.67-1.33-1.82-2.19-2.54-2.22-1.86-5.66.06-7.29 2.45-3.23 4.76-4.84 7.1-10.58 8.91-1.88.6-3.06.46-3.7-.11-1.25 2.89-.68 5.44 3.7 4.06 5.74-1.81 7.35-4.16 10.58-8.92 1.63-2.39 5.07-4.3 7.29-2.44.86.72 1.29 1.86 2.19 2.53 1.61 1.21 3.94.46 5.6-.68s3.21-2.65 5.2-2.95c2.25-.34 4.44 1 6 2.67s2.66 3.7 4.21 5.37 3.74 3 6 2.67 4.09-3 2.93-5a11.75 11.75 0 0 1 9.49 7.19 48.65 48.65 0 0 0 1.77 5 12 12 0 0 0 3.63 3.88c1.84 1.34 4.06 2.48 6.3 2.09s4.14-3 3.1-5c.72 1.09 2.25-.42 2.49-1.71a18.34 18.34 0 0 0 .18-5.23c-.05.42-.11.86-.18 1.28zm-74.84-17.24c0-.05 0-.1.05-.15 1.09-4.06-2-7.9-3.93-11.63a23.17 23.17 0 0 1-2.48-8.44 11.85 11.85 0 0 0-.12 1.57 23.23 23.23 0 0 0 2.6 10.81c1.33 2.55 3.18 5.15 3.88 7.84zm76.65-10.16c-1.54 2.65-4.1 4.8-4.81 7.79a8.69 8.69 0 0 0 0 3.83c.74-2.93 3.24-5.06 4.77-7.68a13 13 0 0 0 1.54-8.44 12.1 12.1 0 0 1-1.5 4.5z" opacity=".1"/><path fill="#464a5f" d="M200.15 659.15l2.65 4.79 86.23-18.28-3.4-5.42-85.48 18.91z"/><path d="M189.81 663.83l-13.05-77.47a2.46 2.46 0 0 1 2.17-2.86l99-10.56a2.46 2.46 0 0 1 2.71 2.12l9.26 67.84z" fill="#464a5f"/><path d="M189.81 663.83l-13.05-77.47a2.46 2.46 0 0 1 2.17-2.86l99-10.56a2.46 2.46 0 0 1 2.71 2.12l9.26 67.84z" opacity=".1"/><path d="M191.32 663.83l-13-77.48a2.46 2.46 0 0 1 2.18-2.86l99-10.56a2.46 2.46 0 0 1 2.71 2.12l9.26 67.84z" fill="#464a5f"/><path fill="tomato" d="M185.15 589.82l10.72 65.8 89.5-18.4-8.32-58.5-91.9 11.1z"/><path d="M202.32 662.43l-.63-1.26-11.88 2.66L220 709.94a3.89 3.89 0 0 0 4.35 1.61l105.97-30.82a3.9 3.9 0 0 0 1.3-6.9l-41.08-31.11-8.58 2 .38.88z" fill="#9c9ca1"/><path d="M202.32 662.43l-.63-1.26-11.88 2.66L220 709.94a3.89 3.89 0 0 0 4.35 1.61l105.97-30.82a3.9 3.9 0 0 0 1.3-6.9l-41.08-31.11-8.58 2 .38.88z" opacity=".1"/><path d="M203.8 662.43l-.63-1.26-11.85 2.66 30.19 46.11a3.9 3.9 0 0 0 4.36 1.61l106-30.81a3.9 3.9 0 0 0 1.27-6.86l-41.08-31.11-8.57 2 .38.88z" fill="#9c9ca1"/><path d="M251.08 681.33l34.07-8.85a.66.66 0 0 1 .61.15l15.13 13.72a.66.66 0 0 1-.26 1.12l-36 10.64a.67.67 0 0 1-.69-.21l-13.16-15.51a.66.66 0 0 1 .3-1.06z" opacity=".1"/><path d="M251.84 680.57l34.07-8.85a.66.66 0 0 1 .6.15l15.13 13.72a.66.66 0 0 1-.25 1.12l-36 10.64a.65.65 0 0 1-.69-.2l-13.2-15.52a.66.66 0 0 1 .34-1.06z" fill="#939498"/><g opacity=".1"><path d="M203.87 668.83l1.53 2.46a.29.29 0 0 0 .31.13l5.16-1.15a.3.3 0 0 0 .18-.46l-1.73-2.34a.32.32 0 0 0-.3-.12l-5 1.07a.3.3 0 0 0-.15.41zm6.74-1.38l1.53 2.46a.28.28 0 0 0 .31.13l5.17-1.15a.3.3 0 0 0 .17-.46l-1.71-2.38a.29.29 0 0 0-.3-.11l-5 1.07a.29.29 0 0 0-.17.44zm6.56-1.42l1.53 2.46a.28.28 0 0 0 .31.13l5.16-1.15a.29.29 0 0 0 .18-.45l-1.71-2.39a.29.29 0 0 0-.3-.11l-5 1.07a.29.29 0 0 0-.17.44zm6.44-1.4l1.51 2.43a.3.3 0 0 0 .33.14l5.12-1.14a.31.31 0 0 0 .19-.49l-1.69-2.34a.3.3 0 0 0-.32-.13l-4.94 1.06a.32.32 0 0 0-.2.47zm-.52 3.76l1.53 2.44a.31.31 0 0 0 .31.13l5.17-1.15a.3.3 0 0 0 .17-.46l-1.71-2.38a.29.29 0 0 0-.3-.12l-5 1.07a.29.29 0 0 0-.17.47zm-6.68 1.44l1.53 2.46a.3.3 0 0 0 .31.14l5.16-1.15a.3.3 0 0 0 .18-.46l-1.71-2.38a.3.3 0 0 0-.3-.12l-5 1.07a.29.29 0 0 0-.17.44zm4.35 3l1.53 2.46a.28.28 0 0 0 .31.13l5.16-1.15a.3.3 0 0 0 .18-.46l-1.71-2.38a.29.29 0 0 0-.3-.11l-5 1.06a.3.3 0 0 0-.17.45zm6.15 2.65l1.52 2.47a.31.31 0 0 0 .32.13l5.16-1.15a.29.29 0 0 0 .17-.46l-1.7-2.38a.3.3 0 0 0-.3-.12l-5 1.07a.29.29 0 0 0-.17.44zm1.06 4.29l2.47 3.09a.3.3 0 0 0 .31.1l5.2-1.35a.29.29 0 0 0 .15-.47l-2.55-3.12a.29.29 0 0 0-.3-.1l-5.12 1.38a.3.3 0 0 0-.16.47zm6.81-1.71l2.53 3.19a.3.3 0 0 0 .31.1l6.78-1.88a.29.29 0 0 0 .15-.47l-2.55-3.12a.31.31 0 0 0-.31-.1l-6.76 1.82a.29.29 0 0 0-.15.46zm-13.46 3.35l2.47 3.09a.3.3 0 0 0 .31.1l5.2-1.35a.29.29 0 0 0 .15-.47l-2.55-3.12a.29.29 0 0 0-.3-.1l-5.12 1.38a.3.3 0 0 0-.16.47zm-7 1.82l2.46 3.1a.31.31 0 0 0 .31.1l5.2-1.35a.29.29 0 0 0 .15-.47l-2.55-3.12a.29.29 0 0 0-.3-.1l-5.12 1.38a.28.28 0 0 0-.15.46zm15.75-20.11l1.51 2.43a.31.31 0 0 0 .33.14l5.12-1.14a.32.32 0 0 0 .19-.49l-1.69-2.35a.3.3 0 0 0-.32-.12l-4.89 1.06a.32.32 0 0 0-.25.47zm-.41 3.78l1.51 2.43a.31.31 0 0 0 .33.14l5.12-1.14a.31.31 0 0 0 .19-.49l-1.69-2.34a.3.3 0 0 0-.32-.13l-4.94 1.06a.32.32 0 0 0-.2.47zm6.66-5.2l1.51 2.43a.31.31 0 0 0 .33.14l5.16-1.14a.31.31 0 0 0 .19-.49l-1.68-2.35a.33.33 0 0 0-.32-.12l-4.95 1.06a.32.32 0 0 0-.24.47zm18.36-4l2.13 2.26a.24.24 0 0 0 .24.07l4.57-1.06a.25.25 0 0 0 .12-.43l-2.4-2.26a.24.24 0 0 0-.23-.06l-4.3 1.06a.26.26 0 0 0-.13.42zm5.87-1.35l2.12 2.25a.24.24 0 0 0 .24.08l4.57-1.06a.25.25 0 0 0 .12-.43l-2.4-2.26a.24.24 0 0 0-.23-.06l-4.3 1.06a.25.25 0 0 0-.12.42zm-5.74 5.01l2.13 2.26a.26.26 0 0 0 .24.07l4.57-1.06a.25.25 0 0 0 .11-.43l-2.39-2.26a.26.26 0 0 0-.24-.06l-4.3 1.06a.26.26 0 0 0-.12.42zm-6.01 1.4l2 2.15a.31.31 0 0 0 .3.09l4.42-1a.31.31 0 0 0 .15-.53l-2.29-2.16a.29.29 0 0 0-.29-.08l-4.17 1a.31.31 0 0 0-.12.53zm4.57 6.8l2 2.16a.31.31 0 0 0 .3.09l4.42-1a.32.32 0 0 0 .15-.54l-2.29-2.16a.31.31 0 0 0-.29-.07l-4.17 1a.31.31 0 0 0-.12.52zm-6.27 1.42l2 2.16a.32.32 0 0 0 .3.09l4.42-1a.31.31 0 0 0 .14-.53l-2.28-2.16a.34.34 0 0 0-.29-.08l-4.17 1a.31.31 0 0 0-.12.52zm-6.37 1.58l2 2.16a.33.33 0 0 0 .3.09l4.42-1a.31.31 0 0 0 .15-.53l-2.28-2.19a.32.32 0 0 0-.29-.08l-4.17 1a.32.32 0 0 0-.13.55zm-6.74 1.33l2.07 2.19a.28.28 0 0 0 .28.08l4.47-1a.3.3 0 0 0 .13-.5l-2.32-2.2a.33.33 0 0 0-.27-.07l-4.21 1a.3.3 0 0 0-.15.5zm13.04-6.85l2 2.16a.31.31 0 0 0 .3.09l4.43-1a.32.32 0 0 0 .14-.54l-2.29-2.16a.3.3 0 0 0-.29-.07l-4.16 1a.32.32 0 0 0-.13.52zm-6.11 1.42l2 2.16a.33.33 0 0 0 .3.09l4.42-1a.31.31 0 0 0 .15-.53l-2.29-2.16a.34.34 0 0 0-.29-.08l-4.17 1a.32.32 0 0 0-.12.52zm-6.6 1.37l2 2.15a.31.31 0 0 0 .3.1l4.43-1a.31.31 0 0 0 .14-.53l-2.29-2.16a.28.28 0 0 0-.29-.08l-4.16 1a.31.31 0 0 0-.13.52zm-6.66 1.57l2.06 2.19a.29.29 0 0 0 .28.08l4.47-1a.3.3 0 0 0 .14-.5l-2.29-2.22a.32.32 0 0 0-.28-.08l-4.21 1a.3.3 0 0 0-.17.53zm25.66-5.84l2 2.16a.32.32 0 0 0 .3.09l4.42-1a.31.31 0 0 0 .14-.53l-2.28-2.16a.34.34 0 0 0-.29-.08l-4.17 1a.31.31 0 0 0-.12.52zm-10.67-1.23l2 2.16a.31.31 0 0 0 .3.09l4.43-1a.31.31 0 0 0 .14-.53l-2.26-2.22a.3.3 0 0 0-.29-.07l-4.16 1a.32.32 0 0 0-.16.57zm23.55-9.42l2.23 2.37a.18.18 0 0 0 .18 0l4.73-1.09a.19.19 0 0 0 .08-.32l-2.51-2.37a.18.18 0 0 0-.17-.05l-4.44 1.1a.19.19 0 0 0-.1.36zm5.71-1.26l2.23 2.37a.22.22 0 0 0 .18 0l4.72-1.09a.19.19 0 0 0 .09-.32l-2.51-2.37a.2.2 0 0 0-.18-.05l-4.44 1.1a.186.186 0 0 0-.09.36zm5.86-1.35l2 2.2a.17.17 0 0 0 .18.05l4.4-1.2a.19.19 0 0 0 .08-.32l-2.28-1.92a.18.18 0 0 0-.16 0l-4.16.92a.19.19 0 0 0-.06.27zm6.15 2.05l2 2.2a.19.19 0 0 0 .19 0l4.4-1.2a.18.18 0 0 0 .07-.32l-2.26-1.87a.2.2 0 0 0-.16 0l-4.16.92a.18.18 0 0 0-.08.27zm-.74 3.99l1.93 2.09a.28.28 0 0 0 .25.07l4.24-1.16a.26.26 0 0 0 .1-.44l-2.16-1.81a.23.23 0 0 0-.21 0l-4 .88a.25.25 0 0 0-.15.37zm-5.01 5.07l1.93 2.09a.23.23 0 0 0 .25.07l4.24-1.16a.25.25 0 0 0 .1-.43l-2.16-1.82a.23.23 0 0 0-.21-.05l-4 .89a.24.24 0 0 0-.15.41zm-6.02 1.58l1.93 2.09a.28.28 0 0 0 .25.07l4.24-1.16a.26.26 0 0 0 .1-.44l-2.16-1.81a.27.27 0 0 0-.21-.06l-4 .89a.25.25 0 0 0-.15.42zm11.69-3.06l1.93 2.09a.23.23 0 0 0 .25.07l4.24-1.16a.25.25 0 0 0 .1-.43l-2.16-1.82a.23.23 0 0 0-.21-.05l-4 .88a.26.26 0 0 0-.15.42zm-.99 4.51l2.92 2.61a.23.23 0 0 0 .24 0l4.21-1.19a.25.25 0 0 0 .09-.43l-3.13-2.75a.25.25 0 0 0-.25 0l-4 1.33a.26.26 0 0 0-.08.43zm-10.18-9.26l2 2.2a.22.22 0 0 0 .19.06l4.4-1.2a.2.2 0 0 0 .07-.33l-2.27-1.91a.17.17 0 0 0-.16 0l-4.17.91a.19.19 0 0 0-.06.27zm-5.69 1.41l1.93 2.09a.25.25 0 0 0 .25.07l4.24-1.16a.25.25 0 0 0 .1-.43l-2.18-1.82a.23.23 0 0 0-.21 0l-4 .88a.26.26 0 0 0-.13.37zm-1.17 4.04l1.93 2.08a.23.23 0 0 0 .25.07l4.25-1.15a.26.26 0 0 0 .09-.44l-2.15-1.82a.25.25 0 0 0-.22 0l-4 .89a.25.25 0 0 0-.15.37zm-5.99 1.45l1.93 2.08a.24.24 0 0 0 .25.07l4.25-1.15a.26.26 0 0 0 .09-.44l-2.15-1.81a.25.25 0 0 0-.22 0l-4 .89a.25.25 0 0 0-.15.36zm1.07-4.13l1.93 2.08a.29.29 0 0 0 .26.08l4.24-1.16a.26.26 0 0 0 .09-.44l-2.15-1.81a.29.29 0 0 0-.22-.06l-4 .89a.26.26 0 0 0-.15.42zm5.02 6.39l1.93 2.09a.23.23 0 0 0 .25.07l4.24-1.15a.26.26 0 0 0 .1-.44l-2.11-1.82a.23.23 0 0 0-.21 0l-4 .89a.24.24 0 0 0-.2.36zm-5.89 1.6l1.83 2a.34.34 0 0 0 .32.09l4.09-1.12a.31.31 0 0 0 .12-.54l-2-1.72a.31.31 0 0 0-.27-.07l-3.89.86a.32.32 0 0 0-.2.5zm18.45-12.21l2 2.2a.2.2 0 0 0 .19.06l4.4-1.2a.2.2 0 0 0 .07-.33l-2.27-1.91a.18.18 0 0 0-.17 0l-4.16.92a.18.18 0 0 0-.06.26zm-.81 3.96l1.93 2.09a.23.23 0 0 0 .25.07l4.25-1.15a.26.26 0 0 0 .09-.44l-2.15-1.82a.25.25 0 0 0-.22-.05l-4 .89a.25.25 0 0 0-.15.41zm-5.77 1.58l1.93 2.09a.27.27 0 0 0 .26.07l4.24-1.16a.25.25 0 0 0 .09-.43l-2.15-1.82a.25.25 0 0 0-.22-.05l-4 .88a.26.26 0 0 0-.15.42zm-23.19-2.28l2.12 2.26a.24.24 0 0 0 .24.07l4.57-1a.25.25 0 0 0 .12-.43l-2.4-2.26a.25.25 0 0 0-.23-.07l-4.3 1.07a.24.24 0 0 0-.12.36zm-6.11 1.5l2 2.15a.29.29 0 0 0 .3.09l4.42-1a.31.31 0 0 0 .15-.53l-2.29-2.16a.29.29 0 0 0-.29-.08l-4.17 1a.32.32 0 0 0-.12.53zm-6.53 5.06l1.51 2.43a.31.31 0 0 0 .33.14l5.12-1.14a.32.32 0 0 0 .19-.49l-1.69-2.35a.31.31 0 0 0-.32-.12l-4.94 1.06a.31.31 0 0 0-.2.47zm-33.51.9l5.05-1.17a.31.31 0 0 1 .3.11l.89 1.17a.29.29 0 0 1-.17.46l-5.23 1.22a.31.31 0 0 1-.33-.14l-.7-1.21a.3.3 0 0 1 .19-.44zm6.94-1.51l5.06-1.17a.31.31 0 0 1 .3.11l.88 1.17a.29.29 0 0 1-.16.46l-5.25 1.22a.3.3 0 0 1-.32-.14l-.7-1.22a.29.29 0 0 1 .19-.43zm6.72-1.44l5.05-1.17a.29.29 0 0 1 .3.11l.89 1.16a.3.3 0 0 1-.17.47l-5.23 1.22a.29.29 0 0 1-.32-.14l-.71-1.22a.29.29 0 0 1 .19-.43zm6.52-1.49l5-1.17a.29.29 0 0 1 .3.11l.89 1.17a.29.29 0 0 1-.17.46l-5.18 1.25a.3.3 0 0 1-.32-.14l-.71-1.22a.29.29 0 0 1 .19-.46zm6.67-1.47l5-1.16a.32.32 0 0 1 .32.11l.86 1.14a.31.31 0 0 1-.17.49l-5.19 1.21a.3.3 0 0 1-.34-.15l-.69-1.18a.31.31 0 0 1 .21-.46zm6.45-1.35l5-1.16a.31.31 0 0 1 .32.12l.86 1.13a.31.31 0 0 1-.18.49l-5.19 1.21a.32.32 0 0 1-.34-.15l-.69-1.18a.32.32 0 0 1 .22-.46zm6.32-1.31l4.63-1.13a.33.33 0 0 1 .3.09l.9 1a.32.32 0 0 1-.15.52l-4.53 1.09a.3.3 0 0 1-.3-.08l-.95-1a.31.31 0 0 1 .1-.49zm6.15-1.42l4.77-1.16a.26.26 0 0 1 .24.07l1 1.05a.25.25 0 0 1-.12.42l-4.71 1.18a.24.24 0 0 1-.24-.07l-1.06-1.07a.25.25 0 0 1 .12-.42zm6.11-1.44l4.76-1.16a.29.29 0 0 1 .25.07l1 1a.25.25 0 0 1-.12.42l-4.71 1.18a.24.24 0 0 1-.24-.07l-1.05-1.02a.25.25 0 0 1 .11-.42zm6.12-1.25l4.77-1.16a.24.24 0 0 1 .24.07l1 1a.25.25 0 0 1-.12.42l-4.71 1.19a.26.26 0 0 1-.24-.07l-1.05-1.07a.25.25 0 0 1 .11-.38zm5.77-1.39l4.91-1.2a.17.17 0 0 1 .18 0l1.1 1.16a.19.19 0 0 1-.09.31l-4.86 1.22a.21.21 0 0 1-.17-.05l-1.16-1.18a.18.18 0 0 1 .09-.26zm5.89-1.26l4.91-1.19a.17.17 0 0 1 .18 0l1.1 1.15a.18.18 0 0 1-.09.31l-4.85 1.22a.17.17 0 0 1-.18-.05l-1.16-1.17a.19.19 0 0 1 .09-.27zm5.84-1.29l4.55-1a.18.18 0 0 1 .19.06l.87 1.08a.19.19 0 0 1-.09.3l-4.25 1.05a.25.25 0 0 1-.19 0l-1.15-1.18a.19.19 0 0 1 .07-.31zm5.58-1.33l4.55-1a.17.17 0 0 1 .18.06l.88 1.08a.18.18 0 0 1-.09.3l-4.28 1.13a.18.18 0 0 1-.18-.05l-1.15-1.19a.19.19 0 0 1 .09-.33zm-77.54 23.97l1.67 2.39a.29.29 0 0 0 .31.12l8.75-2a.29.29 0 0 0 .17-.46l-1.86-2.44a.28.28 0 0 0-.3-.11l-8.57 2.1a.29.29 0 0 0-.17.4zm2.64 3.21l1.68 2.67a.31.31 0 0 0 .32.13l10.59-2.52a.29.29 0 0 0 .16-.47l-2.1-2.59a.29.29 0 0 0-.29-.1l-10.16 2.44a.3.3 0 0 0-.2.44zm2.4 3.53l2.05 2.89a.27.27 0 0 0 .3.11l14-3.46a.29.29 0 0 0 .16-.46l-2.25-2.9a.29.29 0 0 0-.3-.1l-13.77 3.46a.3.3 0 0 0-.19.46zm32.05-3.16l2.56 3.08a.3.3 0 0 0 .31.1l30.81-7.68a.32.32 0 0 0 .14-.53l-3.14-3.12a.33.33 0 0 0-.3-.09l-30.24 7.73a.32.32 0 0 0-.14.51zm31.8-7.97l3 3a.24.24 0 0 0 .24.06l6.32-1.69a.25.25 0 0 0 .11-.42l-3.13-3.06a.24.24 0 0 0-.24-.07l-6.21 1.72a.25.25 0 0 0-.09.46zm15.24-1.91l1.37 1.45a.19.19 0 0 0 .19.05l4.67-1.25a.19.19 0 0 0 .08-.32l-1.66-1.56a.18.18 0 0 0-.18-.05l-4.37 1.34a.19.19 0 0 0-.1.34zm3.98-3.11l1.64 1.72a.18.18 0 0 0 .2 0l4.29-1.48a.19.19 0 0 0 .06-.32l-1.6-1.44a.18.18 0 0 0-.17 0l-4.3 1.21a.18.18 0 0 0-.12.31z"/><path d="M297.37 666.03l-1.18-1a.19.19 0 0 1 .05-.33l4.28-1.48a.19.19 0 0 1 .19 0l1.34 1.3a.19.19 0 0 1-.09.31l-4.43 1.15a.18.18 0 0 1-.16.05zm4.38-2.64c.37.36 1 1.06 1.26 1.3a.19.19 0 0 0 .19 0l4.45-1.21a.18.18 0 0 0 .08-.31l-1.58-1.34a.21.21 0 0 0-.19 0l-4.14 1.33a.19.19 0 0 0-.07.23zm-12.49-2.81l2.38 2.3a.2.2 0 0 0 .18 0l11.48-3a.19.19 0 0 0 .07-.33l-2.78-2.3a.18.18 0 0 0-.17 0l-11.08 3a.19.19 0 0 0-.08.33zm-.78-3.55l2.46 2.19a.16.16 0 0 0 .16 0l8.65-2a.19.19 0 0 0 .07-.33l-2.83-2.36a.17.17 0 0 0-.17 0l-8.27 2.22a.19.19 0 0 0-.07.28zm.84-3.77l2.33 2.08a.19.19 0 0 0 .16 0l4.44-1a.18.18 0 0 0 .08-.32l-2.76-2.38a.17.17 0 0 0-.18 0l-4 1.29a.18.18 0 0 0-.07.33zm-6.12-2.07l2.25 2a.18.18 0 0 0 .17 0l7-1.66a.19.19 0 0 0 .07-.33l-2.69-2.25a.17.17 0 0 0-.17 0l-6.51 1.88a.19.19 0 0 0-.12.36z"/></g><path d="M203.87 668.11l1.53 2.46a.28.28 0 0 0 .31.13l5.16-1.15a.29.29 0 0 0 .18-.45l-1.73-2.39a.29.29 0 0 0-.3-.11l-5 1.07a.29.29 0 0 0-.15.44zm6.74-1.42l1.53 2.46a.3.3 0 0 0 .31.14l5.17-1.15a.3.3 0 0 0 .17-.46l-1.71-2.38a.29.29 0 0 0-.3-.12l-5 1.07a.29.29 0 0 0-.17.44zm6.56-1.42l1.53 2.47a.31.31 0 0 0 .31.13l5.16-1.15a.3.3 0 0 0 .18-.46l-1.71-2.38a.3.3 0 0 0-.3-.12l-5.02 1.07a.29.29 0 0 0-.15.44zm6.44-1.39l1.51 2.43a.31.31 0 0 0 .33.14l5.12-1.14a.32.32 0 0 0 .19-.49l-1.69-2.35a.3.3 0 0 0-.32-.12l-4.94 1.06a.31.31 0 0 0-.2.47zm-.52 3.76l1.53 2.46a.28.28 0 0 0 .31.13l5.17-1.15a.3.3 0 0 0 .17-.46l-1.71-2.38a.29.29 0 0 0-.3-.11l-5 1.06a.3.3 0 0 0-.17.45zm-6.68 1.41l1.53 2.47a.3.3 0 0 0 .31.13l5.16-1.15a.3.3 0 0 0 .18-.46l-1.71-2.38a.3.3 0 0 0-.3-.12l-5 1.07a.29.29 0 0 0-.17.44zm4.35 3.03l1.53 2.46a.28.28 0 0 0 .31.13l5.16-1.15a.29.29 0 0 0 .18-.45l-1.71-2.39a.29.29 0 0 0-.3-.11l-5 1.07a.29.29 0 0 0-.17.44zm6.15 2.65l1.52 2.46a.3.3 0 0 0 .32.13l5.16-1.15a.29.29 0 0 0 .17-.46l-1.7-2.38a.29.29 0 0 0-.3-.11l-5 1.07a.29.29 0 0 0-.17.44zm1.06 4.28l2.47 3.09a.3.3 0 0 0 .31.1l5.2-1.35a.29.29 0 0 0 .15-.47l-2.55-3.12a.29.29 0 0 0-.3-.1l-5.12 1.38a.3.3 0 0 0-.16.47zm6.81-1.7l2.53 3.18a.29.29 0 0 0 .31.1l6.78-1.87a.29.29 0 0 0 .15-.47l-2.55-3.13a.31.31 0 0 0-.31-.1l-6.76 1.81a.3.3 0 0 0-.15.48zm-13.46 3.34l2.47 3.09a.3.3 0 0 0 .31.1l5.2-1.35a.29.29 0 0 0 .15-.47l-2.55-3.12a.29.29 0 0 0-.3-.1l-5.12 1.38a.3.3 0 0 0-.16.47zm-7 1.83l2.46 3.09a.31.31 0 0 0 .31.1l5.2-1.35a.29.29 0 0 0 .15-.47l-2.55-3.12a.29.29 0 0 0-.3-.1l-5.12 1.38a.29.29 0 0 0-.15.47zm15.75-20.11l1.51 2.42a.3.3 0 0 0 .33.14l5.12-1.14a.31.31 0 0 0 .19-.49l-1.69-2.34a.32.32 0 0 0-.32-.13l-4.89 1.06a.32.32 0 0 0-.25.48zm-.41 3.78l1.51 2.42a.32.32 0 0 0 .33.15l5.12-1.15a.31.31 0 0 0 .19-.48l-1.69-2.35a.3.3 0 0 0-.32-.12l-4.94 1.06a.31.31 0 0 0-.2.47zm6.66-5.2l1.51 2.42a.32.32 0 0 0 .33.15l5.12-1.15a.31.31 0 0 0 .19-.48l-1.68-2.35a.34.34 0 0 0-.32-.13l-4.95 1.07a.31.31 0 0 0-.2.47zm18.36-4.01l2.13 2.26a.24.24 0 0 0 .24.08l4.57-1.06a.25.25 0 0 0 .12-.43l-2.42-2.26a.22.22 0 0 0-.23-.06l-4.3 1.06a.25.25 0 0 0-.11.41zm5.87-1.35l2.12 2.26a.26.26 0 0 0 .24.07l4.57-1.06a.25.25 0 0 0 .12-.43l-2.4-2.26a.24.24 0 0 0-.23-.06l-4.3 1.06a.25.25 0 0 0-.12.42zm-5.74 5.01l2.13 2.26a.26.26 0 0 0 .24.07l4.57-1.06a.25.25 0 0 0 .11-.43l-2.39-2.26a.26.26 0 0 0-.24-.06l-4.3 1.06a.26.26 0 0 0-.12.42zm-6.01 1.4l2 2.16a.33.33 0 0 0 .3.09l4.42-1a.31.31 0 0 0 .15-.53l-2.29-2.16a.34.34 0 0 0-.29-.08l-4.17 1a.31.31 0 0 0-.12.52zm4.57 6.83l2 2.15a.31.31 0 0 0 .3.1l4.42-1a.31.31 0 0 0 .15-.53l-2.29-2.16a.29.29 0 0 0-.29-.08l-4.17 1a.31.31 0 0 0-.12.52zm-6.27 1.4l2 2.15a.3.3 0 0 0 .3.09l4.42-1a.31.31 0 0 0 .14-.53l-2.28-2.17a.31.31 0 0 0-.29-.07l-4.17 1a.31.31 0 0 0-.12.53zm-6.37 1.6l2 2.16a.33.33 0 0 0 .3.09l4.42-1a.31.31 0 0 0 .15-.53l-2.28-2.22a.34.34 0 0 0-.29-.08l-4.17 1a.32.32 0 0 0-.13.58zm-6.74 1.3l2.07 2.19a.29.29 0 0 0 .28.09l4.47-1a.3.3 0 0 0 .13-.5l-2.32-2.19a.27.27 0 0 0-.27-.07l-4.21 1a.29.29 0 0 0-.15.48zm13.04-6.84l2 2.15a.31.31 0 0 0 .3.09l4.43-1a.31.31 0 0 0 .14-.53l-2.26-2.17a.28.28 0 0 0-.29-.08l-4.16 1a.31.31 0 0 0-.16.54zm-6.11 1.41l2 2.16a.31.31 0 0 0 .3.09l4.42-1a.32.32 0 0 0 .15-.54l-2.29-2.16a.31.31 0 0 0-.29-.07l-4.17 1a.31.31 0 0 0-.12.52zm-6.6 1.39l2 2.16a.33.33 0 0 0 .3.09l4.43-1a.31.31 0 0 0 .14-.53l-2.29-2.16a.33.33 0 0 0-.29-.08l-4.16 1a.32.32 0 0 0-.13.52zm-6.66 1.55l2.06 2.19a.3.3 0 0 0 .28.09l4.47-1a.29.29 0 0 0 .14-.5l-2.29-2.23a.29.29 0 0 0-.28-.07l-4.21 1a.29.29 0 0 0-.17.52zm25.66-5.81l2 2.16a.3.3 0 0 0 .3.09l4.42-1a.32.32 0 0 0 .14-.54l-2.28-2.16a.31.31 0 0 0-.29-.07l-4.17 1a.3.3 0 0 0-.12.52zm-10.67-1.25l2 2.15a.31.31 0 0 0 .3.09l4.43-1a.31.31 0 0 0 .14-.53l-2.29-2.16a.28.28 0 0 0-.29-.08l-4.16 1a.31.31 0 0 0-.13.53zm23.55-9.43l2.23 2.37a.18.18 0 0 0 .18 0l4.73-1.09a.19.19 0 0 0 .08-.32l-2.51-2.28a.17.17 0 0 0-.17 0l-4.42 1a.19.19 0 0 0-.12.32zm5.71-1.26l2.23 2.37a.17.17 0 0 0 .18.05l4.72-1.09a.19.19 0 0 0 .09-.32l-2.51-2.37a.19.19 0 0 0-.18 0l-4.44 1.09a.19.19 0 0 0-.09.27zm5.86-1.35l2 2.2a.2.2 0 0 0 .18.06l4.4-1.2a.19.19 0 0 0 .08-.33l-2.28-1.92a.18.18 0 0 0-.16 0l-4.16.91a.19.19 0 0 0-.06.28zm6.15 2.05l2 2.2a.19.19 0 0 0 .19 0l4.4-1.2a.18.18 0 0 0 .07-.32l-2.26-1.87a.24.24 0 0 0-.16 0l-4.16.92a.18.18 0 0 0-.08.27zm-.74 3.99l1.93 2.09a.23.23 0 0 0 .25.07l4.24-1.16a.25.25 0 0 0 .1-.43l-2.16-1.82a.23.23 0 0 0-.21 0l-4 .89a.24.24 0 0 0-.15.36zm-5.01 5.08l1.93 2.08a.26.26 0 0 0 .25.08l4.24-1.16a.26.26 0 0 0 .1-.44l-2.16-1.81a.27.27 0 0 0-.21-.06l-4 .89a.25.25 0 0 0-.15.42zm-6.02 1.57l1.93 2.09a.23.23 0 0 0 .25.07l4.24-1.16a.25.25 0 0 0 .1-.43l-2.16-1.82a.23.23 0 0 0-.21 0l-4 .89a.24.24 0 0 0-.15.36zm11.69-3.05l1.93 2.08a.23.23 0 0 0 .25.07l4.24-1.15a.26.26 0 0 0 .1-.44l-2.16-1.82a.23.23 0 0 0-.21-.05l-4 .89a.25.25 0 0 0-.15.42zm-.99 4.5l2.92 2.61a.26.26 0 0 0 .24.06l4.21-1.19a.26.26 0 0 0 .09-.44l-3.13-2.75a.28.28 0 0 0-.25 0l-4 1.33a.26.26 0 0 0-.08.38zm-10.18-9.25l2 2.2a.19.19 0 0 0 .19.05l4.4-1.2a.19.19 0 0 0 .07-.32l-2.27-1.92a.2.2 0 0 0-.16 0l-4.17.92a.18.18 0 0 0-.06.27zm-5.69 1.4l1.93 2.08a.23.23 0 0 0 .25.07l4.24-1.15a.26.26 0 0 0 .1-.44l-2.18-1.81a.23.23 0 0 0-.21 0l-4 .89a.25.25 0 0 0-.13.36zm-1.17 4l1.93 2.09a.28.28 0 0 0 .25.07l4.25-1.16a.25.25 0 0 0 .09-.44l-2.15-1.81a.29.29 0 0 0-.22-.06l-4 .89a.26.26 0 0 0-.15.42zm-5.99 1.49l1.93 2.09a.29.29 0 0 0 .25.07l4.25-1.16a.25.25 0 0 0 .09-.44l-2.15-1.81a.29.29 0 0 0-.22-.06l-4 .89a.26.26 0 0 0-.15.42zm1.07-4.13l1.93 2.09a.28.28 0 0 0 .26.07l4.24-1.16a.25.25 0 0 0 .09-.43l-2.15-1.82a.25.25 0 0 0-.22-.05l-4 .88a.26.26 0 0 0-.15.42zm5.02 6.4l1.93 2.08a.26.26 0 0 0 .25.08l4.24-1.16a.26.26 0 0 0 .1-.44l-2.11-1.81a.27.27 0 0 0-.21-.06l-4 .89a.25.25 0 0 0-.2.42zm-5.89 1.59l1.83 2a.32.32 0 0 0 .32.09l4.09-1.12a.31.31 0 0 0 .12-.54l-2.06-1.78a.34.34 0 0 0-.27-.07l-3.89.86a.32.32 0 0 0-.14.56zm18.45-12.2l2 2.2a.19.19 0 0 0 .19 0l4.4-1.2a.19.19 0 0 0 .07-.32l-2.24-1.83a.21.21 0 0 0-.17 0l-4.16.92a.18.18 0 0 0-.09.23zm-.81 3.96l1.93 2.08a.26.26 0 0 0 .25.08l4.25-1.16a.25.25 0 0 0 .09-.44l-2.15-1.81a.29.29 0 0 0-.22-.06l-4 .89a.26.26 0 0 0-.15.42zm-5.77 1.57l1.93 2.09a.25.25 0 0 0 .26.07l4.24-1.15a.26.26 0 0 0 .09-.44l-2.15-1.82a.25.25 0 0 0-.22 0l-4 .89a.25.25 0 0 0-.15.36zm-23.19-2.27l2.12 2.26a.26.26 0 0 0 .24.07l4.57-1.06a.25.25 0 0 0 .12-.43l-2.43-2.25a.24.24 0 0 0-.23-.06l-4.27 1.06a.25.25 0 0 0-.12.41zm-6.11 1.49l2 2.16a.33.33 0 0 0 .3.09l4.42-1a.31.31 0 0 0 .15-.53l-2.29-2.16a.34.34 0 0 0-.29-.08l-4.17 1a.32.32 0 0 0-.12.52zm-6.53 5.1l1.51 2.43a.31.31 0 0 0 .33.14l5.12-1.14a.32.32 0 0 0 .19-.49l-1.69-2.35a.31.31 0 0 0-.32-.12l-4.94 1.06a.32.32 0 0 0-.2.47zm-33.51.87l5.05-1.17a.28.28 0 0 1 .3.11l.89 1.16a.3.3 0 0 1-.17.47l-5.23 1.22a.33.33 0 0 1-.33-.14l-.7-1.22a.29.29 0 0 1 .19-.43zm6.94-1.52l5.06-1.16a.29.29 0 0 1 .3.1l.88 1.17a.29.29 0 0 1-.16.46l-5.25 1.22a.29.29 0 0 1-.32-.14l-.7-1.21a.3.3 0 0 1 .19-.44zm6.72-1.44l5.05-1.17a.31.31 0 0 1 .3.11l.89 1.17a.29.29 0 0 1-.17.46l-5.23 1.22a.29.29 0 0 1-.32-.14l-.71-1.22a.29.29 0 0 1 .19-.43zm6.52-1.49l5-1.17a.3.3 0 0 1 .3.11l.89 1.17a.29.29 0 0 1-.17.46l-5.23 1.22a.3.3 0 0 1-.32-.14l-.71-1.21a.3.3 0 0 1 .24-.44zm6.67-1.42l5-1.16a.31.31 0 0 1 .32.12l.86 1.13a.31.31 0 0 1-.17.49l-5.19 1.21a.31.31 0 0 1-.34-.14l-.69-1.19a.31.31 0 0 1 .21-.46zm6.45-1.4l5-1.16a.33.33 0 0 1 .32.12l.86 1.13a.32.32 0 0 1-.18.5l-5.19 1.21a.32.32 0 0 1-.34-.15l-.69-1.18a.32.32 0 0 1 .22-.47zm6.32-1.31l4.63-1.12a.3.3 0 0 1 .3.08l.9 1a.32.32 0 0 1-.15.52l-4.53 1.1a.33.33 0 0 1-.3-.09l-.95-1a.32.32 0 0 1 .1-.49zm6.15-1.41l4.77-1.16a.22.22 0 0 1 .24.07l1 1a.25.25 0 0 1-.12.42l-4.71 1.18a.23.23 0 0 1-.24-.06l-1.06-1.07a.25.25 0 0 1 .12-.38zm6.11-1.45l4.76-1.16a.29.29 0 0 1 .25.07l1 1a.25.25 0 0 1-.12.42l-4.72 1.24a.26.26 0 0 1-.24-.06l-1.04-1.08a.26.26 0 0 1 .11-.43zm6.12-1.25l4.77-1.18a.27.27 0 0 1 .24.07l1 1a.25.25 0 0 1-.12.42l-4.71 1.18a.24.24 0 0 1-.24-.07l-1.05-1.07a.25.25 0 0 1 .11-.35zm5.77-1.39l4.91-1.2a.19.19 0 0 1 .18.06l1.1 1.15a.19.19 0 0 1-.09.31l-4.86 1.22a.16.16 0 0 1-.17-.05l-1.16-1.18a.18.18 0 0 1 .09-.31zm5.89-1.25l4.91-1.2a.17.17 0 0 1 .18 0l1.1 1.16a.19.19 0 0 1-.09.31l-4.85 1.22a.19.19 0 0 1-.14-.03l-1.16-1.18a.19.19 0 0 1 .05-.28zm5.84-1.35l4.55-1a.2.2 0 0 1 .19.06l.87 1.08a.18.18 0 0 1-.09.3l-4.25 1.1a.19.19 0 0 1-.19-.05l-1.15-1.17a.19.19 0 0 1 .07-.32zm5.58-1.27l4.55-1a.18.18 0 0 1 .18.07l.88 1.08a.19.19 0 0 1-.09.3l-4.28 1.12a.18.18 0 0 1-.18-.05l-1.15-1.17a.19.19 0 0 1 .09-.35zm-77.54 23.97l1.67 2.39a.31.31 0 0 0 .31.12l8.75-2a.3.3 0 0 0 .17-.47l-1.86-2.44a.31.31 0 0 0-.3-.11l-8.57 2.1a.3.3 0 0 0-.17.41zm2.64 3.2l1.68 2.67a.3.3 0 0 0 .32.13l10.59-2.51a.29.29 0 0 0 .16-.47l-2.1-2.59a.27.27 0 0 0-.29-.1l-10.16 2.43a.3.3 0 0 0-.2.44zm2.4 3.53l2.05 2.89a.28.28 0 0 0 .3.12l14-3.46a.3.3 0 0 0 .16-.47l-2.25-2.9a.29.29 0 0 0-.3-.1L211.32 678a.29.29 0 0 0-.19.45zm32.05-3.16l2.56 3.08a.29.29 0 0 0 .31.11l30.81-7.65a.32.32 0 0 0 .14-.53l-3.14-3.12a.3.3 0 0 0-.3-.08l-30.24 7.73a.31.31 0 0 0-.14.46zm31.8-7.97l3 3a.24.24 0 0 0 .24.07l6.32-1.69a.26.26 0 0 0 .11-.43l-3.13-3.06a.24.24 0 0 0-.24-.06l-6.21 1.71a.25.25 0 0 0-.09.46zm15.24-1.91l1.37 1.45a.19.19 0 0 0 .19.05l4.67-1.25a.19.19 0 0 0 .08-.32l-1.66-1.51a.17.17 0 0 0-.18 0l-4.37 1.28a.18.18 0 0 0-.1.3zm3.98-3.11l1.64 1.72a.21.21 0 0 0 .2 0l4.29-1.49a.19.19 0 0 0 .06-.32l-1.6-1.44a.18.18 0 0 0-.17 0l-4.3 1.22a.19.19 0 0 0-.12.31zm3.17 2.98l-1.18-1a.18.18 0 0 1 .05-.32l4.28-1.49a.19.19 0 0 1 .19.05l1.34 1.29a.2.2 0 0 1-.09.32l-4.43 1.14a.18.18 0 0 1-.16.01zm4.38-2.64c.37.35 1 1.06 1.26 1.29a.19.19 0 0 0 .19 0l4.45-1.2a.19.19 0 0 0 .08-.32l-1.58-1.42a.19.19 0 0 0-.19 0l-4.14 1.33a.19.19 0 0 0-.07.32zm-12.49-2.81l2.38 2.3a.24.24 0 0 0 .18.05l11.48-3a.18.18 0 0 0 .07-.32l-2.78-2.31a.21.21 0 0 0-.17 0l-11.08 3a.18.18 0 0 0-.08.28zm-.78-3.55l2.46 2.18a.18.18 0 0 0 .16 0l8.65-2a.18.18 0 0 0 .07-.32l-2.83-2.37a.2.2 0 0 0-.17 0l-8.27 2.23a.19.19 0 0 0-.07.28zm.84-3.77l2.33 2.08a.19.19 0 0 0 .16 0l4.44-1a.19.19 0 0 0 .08-.33l-2.76-2.38a.19.19 0 0 0-.18 0l-4 1.29a.19.19 0 0 0-.07.34zm-6.12-2.07l2.25 2a.22.22 0 0 0 .17.05l7-1.67a.18.18 0 0 0 .07-.32l-2.69-2.25a.17.17 0 0 0-.17 0l-6.6 1.87a.19.19 0 0 0-.03.32z" fill="#464a5f"/><path fill="#fff" d="M737.85 531.96l-6.23-16.37-30.61-80.47 13.59-1.74 4.86-6.17 4.29-5.42 11.11-2.15 9.35-1.81.05-.06 9.9-14.06 12.35-4.95.01-.02 5.53-12.45 26.89 20.12 19.73 14.76 1.47 1.1 37.71 28.22-8.92 27.65-.05.01-23.98 1.8-.16.36-13.1 29.32-30.43.27h-.13l-7.85 14.96-.41.79-5.66 10.79-.09.17-29.22-4.65z"/><path fill="#e5edf6" d="M738.05 528.96l-5.8-15.54-28.53-76.41 13.13-1.84 4.78-5.94 4.2-5.23 10.75-2.19 9.05-1.84.04-.07 9.73-13.54 11.98-4.87.01-.03 5.49-11.94 25.7 18.86 18.85 13.84 1.41 1.03 36.02 26.45-8.96 26.51h-.04l-23.16 2.03-.17.34-13 28.15-29.37.64h-.13l-7.75 14.37-.41.76-5.6 10.37-.09.16-28.13-4.07z"/><path d="M763.4 508.95a51.93 51.93 0 0 1-.73-11.29c0-1.3.07-2.75 1-3.69a2 2 0 0 1 2.92.12c-.11-1 1.26-2 2.45-2.06a10.84 10.84 0 0 1 1.14 0 4.25 4.25 0 0 0 2.84-.56 15.69 15.69 0 0 1-2.75-5.1 5.32 5.32 0 0 1 1.35-5.35c2.44-2.06 6.11-.53 8.87 1.06l11.22 6.43a30.74 30.74 0 0 1 4.51 3c.29-.58.56-1.17.8-1.77a25.83 25.83 0 0 0 1.4-14.7c-1-4.72-3.16-9.89-.72-14a2.39 2.39 0 0 1 1.47-1.27 1.08 1.08 0 0 1 1.3 1 22.67 22.67 0 0 1 1.18-4.58 12.88 12.88 0 0 1 2.59-4.21c2.26-2.37 6-3.56 8.93-2.14a9 9 0 0 0 2 .92 3 3 0 0 0 2.83-1 4.11 4.11 0 0 0 1.1-2 9.35 9.35 0 0 0-.88-5.37 57.08 57.08 0 0 0-4.56-9.16c-.86-1.4-1.81-3-1.46-4.57a5.39 5.39 0 0 1 2.29-2.94 23 23 0 0 1 4.36-2.35l36 26.45-9 26.51h-.05l-23.16 2-.16.34-13 28.15-29.36.64h-.13l-7.67 14.28-.41.77a8.62 8.62 0 0 1-.8-.41 11.36 11.36 0 0 1-3.26-3.22 26.28 26.28 0 0 1-4.45-9.93zm-26.83-87.12l9-1.84.05-.06 9.73-13.55 12-4.87 5.49-11.94 25.69 18.86-.16.23a38.62 38.62 0 0 0-2.93 5.86 6.42 6.42 0 0 0-.72 2.79 6.13 6.13 0 0 0 1.9 3.56 91 91 0 0 0 10.49 10.19 5 5 0 0 1-4.23-.48 3.29 3.29 0 0 1-1.44 3.41 4.12 4.12 0 0 1-1.19.63 10.51 10.51 0 0 1-5.25-.13 26 26 0 0 1-6.91-2c-5.06-2.58-7.83-8.07-10.26-13.21-.79 2.55-2.73 4.63-4.14 6.89a9.79 9.79 0 0 0-1.61 4 4 4 0 0 0 .54 2.74 9.67 9.67 0 0 0 2.71 2c2.72 1.87 3.51 5.47 4.09 8.73a6.18 6.18 0 0 1 0 3.05 2.13 2.13 0 0 1-2.34 1.55c-1.31-.34-1.58-2-2.38-3.13-1.21-1.63-3.54-1.75-5.49-2.29a10.92 10.92 0 0 1-5.86-4 29.51 29.51 0 0 0-.2 5.06v.65a64.45 64.45 0 0 1-16.41-11.38 3 3 0 0 0 .07-5.12 9.14 9.14 0 0 0-2.55-.61c-3.07-.72-5.5-3.19-7.69-5.59z" fill="tomato"/><path d="M732.24 513.42l-28.52-76.41 13.13-1.84 4.77-5.94c1 1.35 1.87 2.83 2.83 4.18 3 4.26 7.24 7.52 11.39 10.71a4.83 4.83 0 0 0 1.63.93 4.17 4.17 0 0 0 2-.12c2.1-.52 4.94-1.08 5.9.86.34.69.29 1.51.62 2.21.64 1.38 2.5 1.75 4 1.41s2.83-1.16 4.32-1.5a6.85 6.85 0 0 1 6.16 1.76c1.91 1.87 3.22 5.13 5.89 5a5 5 0 0 0 3.32-2.13l.39-.46 4.38 4.32 6.23-2.59a6.7 6.7 0 0 1 .47 8c-.59.84-1.37 1.53-2 2.33-.16.2-.31.42-.46.63-1.23 1.84-1.91 4-3.24 5.81-2.24 3-6.09 4.37-9.8 4.5a27.36 27.36 0 0 1-7-.79c-1.32-.3-2.64-.65-3.94-1a24 24 0 0 1 4.94 5.85 8.1 8.1 0 0 1 .42 7.39 6.17 6.17 0 0 1-7.64 2.71l2.67 2.66c-3.12 1.65-3.59 6-2.54 9.41s3.15 6.39 3.8 9.86a7.59 7.59 0 0 1 .11 2.23 4 4 0 0 1-.44 1.43c-1.29 2.47-4.81 2.63-7.47 1.81a17.93 17.93 0 0 1-10.67-9.12 10.17 10.17 0 0 0-2.17 7.24c-.07-.25-1.6-.77-3.48-1.34z" fill="tomato"/><path opacity=".1" d="M755.4 406.36l11.98-4.87.01-.03 34.1 32.48 16.5 15.72 27.87 26.55-23.16 2.03-.17.34-20.89-22.48-27.91-30.02-18.33-19.72zm24.76 101.01l-9.99-15.34-11.57-17.74-19.13-29.36L725.83 424l10.75-2.19 9.05-1.84.04-.07 17.56 23.87 6.43 8.74 9.01 12.26L797 489.7l12.53 17.03-29.37.64zm-42.11 21.59l-5.8-15.54-28.53-76.41 13.13-1.84 39.57 78.23 9.85 19.47-.09.16-28.13-4.07z"/><path d="M645.86 390.39a32.31 32.31 0 0 1 .61 3.35s15.8 37 17.8 39.2c.61.67 2.93 4 5.85 8.28l3.35 4.95c6 9 12.79 19.16 12.79 19.16l14.8 13s32.19 2.58 42.42-7.87c-1.24-.86-2-1.33-2-1.33l-4.4-3.42c-2.27-3.83-11-7.56-19.76-10.49-8.1.06-14.73.71-14.73.71l-2.1-5.55-2.2-5.79-11.19-29.45s-7.22-37.2-9.61-39-1.8-7.4-1.8-7.4 4.39-15.79 2.79-18 2.6-18.4 2.6-18.4a16.5 16.5 0 0 0-1.92-4.49l-30.84 58.69s-1.07 1.67-2.46 3.85z" opacity=".1"/><path d="M681.46 331.15s-4.19 16.2-2.6 18.4-2.79 18-2.79 18-.6 5.59 1.79 7.39 9.62 39 9.62 39l15.49 40.79s48.49-4.8 43.49 10.4-45 12-45 12l-14.8-13s-20-30.19-22-32.39-17.8-39.2-17.8-39.2-.8-7.4-4.2-11.2-.8-10.22-.8-10.22-4.2-48.37.2-54.17 34.81-3.2 39.4 14.2z" fill="#ee8e9e"/><path d="M656.67 300.75l-12.6 7.6s-3.6 12.2-6.4 13.8c0 0 25.2-14 44.19 18.2 0 0-.6-4.2 2-6.2s2-10.6 2-10.6a34.63 34.63 0 0 0 1.8-4.2c1.8-4.4-7.6-29.59-30.99-18.6z" opacity=".1"/><path d="M656.32 299.95l-12.6 7.6s-3.6 12.2-6.4 13.8c0 0 25.2-14 44.19 18.2 0 0-.6-4.2 2-6.2s2-10.6 2-10.6a34.63 34.63 0 0 0 1.8-4.2c1.75-4.4-7.65-29.59-30.99-18.6z" fill="#dfe5ee"/><path d="M403.9 469.39a28.26 28.26 0 0 0-4.78 3.41c-.29.23-.58.49-.87.74.13.32.28.65.43 1 .12-.24.23-.45.34-.64l.15-.27a2.75 2.75 0 0 1 .15-.25 9.51 9.51 0 0 1 .61-.93l4.62-3.34c-.21.07-.42.17-.65.28zm0 0a28.26 28.26 0 0 0-4.78 3.41c-.29.23-.58.49-.87.74.13.32.28.65.43 1 .12-.24.23-.45.34-.64l.15-.27a2.75 2.75 0 0 1 .15-.25 9.51 9.51 0 0 1 .61-.93l4.62-3.34c-.21.07-.42.17-.65.28zm150.52 116.17c1.37-4.25-15.39-9.79-21.11-11.53v-.15l-.24.06-1.61-.47s-2.56-1.87-5.73-4.12l-.19-.63-.5.15c-1.53-1.08-3.16-2.23-4.69-3.29a1.22 1.22 0 0 1 .39-.14l-.12-.81a2.12 2.12 0 0 0-.78.32v-.32a1.75 1.75 0 0 0-.55.2c-1.49-1-2.84-1.91-3.82-2.51s-2.53-1.76-4.49-3.27c-1.92-1.48-4.17-3.28-6.44-5.14.09-.24.17-.47.26-.68l.37-1-1 .46h-.07l.19-.5-.95.46-.2.09-2.26-1.74a1.19 1.19 0 0 1 .15-.09l.85-.46 1.09-.59 1.33-.74.26-.14L508 547a54.85 54.85 0 0 0 19.5-18.56c6.58-10.45-.71-20-5.34-25.56l-.14-.17a7.32 7.32 0 0 0 .93-.33 5.63 5.63 0 0 0 3.54-4.93 5 5 0 0 0-.26-2.07c-.79-2.39-2.76-9.23-.37-11.83a3.22 3.22 0 0 1 2.27-1c4.44-.3 11.07-.79 14.91-2.23a7.25 7.25 0 0 0 2.18-1.18 2.1 2.1 0 0 0 .87-1.64c0-2.41-.85-6.05-3.15-7.6a1.83 1.83 0 0 0-.45-.25.1.1 0 0 0-.06-.05c-1.15-.75-3-1.19-6-1.12a58.45 58.45 0 0 1-15.89-1.91l-.29.29-.64-.62-.54-.53L507.93 455l-2.48 2.46-1.18-1.14-2.43-2.36-.15-.14-4.37-4.24c-1-8.53-2.76-16.82-5.71-22.42a15.15 15.15 0 0 0-4.74-5.73l-5.26-5.09-.39-.37.23-.21a2.9 2.9 0 0 0 .33-.38 5.36 5.36 0 0 0 .79-1.23 5.54 5.54 0 0 0-1.19-6.31l-.15-.15a5.76 5.76 0 0 0-7.67-.27 2 2 0 0 0-.38.33c-.08.07-.14.15-.21.22l-1.53-1.48a6 6 0 0 0-8.41.06l-7.7 7.69a59.42 59.42 0 0 0-2.28-6c-2.16-4.53-9.65-8.3-17-11-3.55-1.32-7.07-2.39-9.89-3.19-1.71-.47-3.18-.85-4.25-1.11l-.37-.09c-.75-.19-1.25-.3-1.45-.34l.41-.46c.11-.13.23-.25.34-.37l.53-.59c.14-.14.27-.28.4-.43.47.31.94.61 1.42.89a34.68 34.68 0 0 0 45.69-9.74c.2-.29.4-.58.59-.88a5.15 5.15 0 0 0 .37-.58 1.67 1.67 0 0 0 .16-.35c.14-.22.28-.44.41-.67l.72-.08c2.44-.32 4.91-1 6.3-2.91a4 4 0 0 0 .41-.69 4.91 4.91 0 0 0 .25-.57c.09-.24.17-.48.24-.73a22.41 22.41 0 0 0 .51-3c0-.3.08-.58.12-.87 0-.23.07-.45.12-.68l.07.07a23.94 23.94 0 0 1 2 2c.06.05.1.11.15.16v-.75c0-2.91 5.88-3.56 7.79-5.36a1.49 1.49 0 0 0 .5-1.71c.35 0-.1-1.8-.3-3.08-.11-.67-.15-1.19 0-1.26l.3-.14c1-.54.53-1.39.44-2.3a1.83 1.83 0 0 1 .16-1 1.89 1.89 0 0 1 .48-.63c1.21-1.06-1.88-1.71-.38-2.35-.65-2-1.32-4-2-6a17.51 17.51 0 0 0-1.29-3.18 8.45 8.45 0 0 0-1.09-1.5 21.19 21.19 0 0 0-7.68-11c-2.28-1.67-4.89-2.88-7.15-4.58-5.63-4.22-8.63-10.91-13.08-16.32a23.15 23.15 0 0 0-8.15-6.36 12.08 12.08 0 0 0-9.66-.54c-.19.07-.39.16-.58.25-4.58 2.22-6.75 7.49-10.87 10.45-5.76 4.15-13.68 2.86-20.8 2.15a100.46 100.46 0 0 0-22.13.21 5.67 5.67 0 0 0-3.13 1.05 4.78 4.78 0 0 0-1.27 3.41v1.54c-.05 5 2.08 9.92 2.25 14.89a13.69 13.69 0 0 1-.07 1.43c-.64 6.15-5.19 11.35-10.54 14.59-4.62 2.79-10.76 5.74-10.5 11.05v.24a5.61 5.61 0 0 0 0 .58 7.87 7.87 0 0 0 .58 2.48c-5.23 0-9.33-.2-9.33-.2a29.28 29.28 0 0 0-15.75 2.21 27.69 27.69 0 0 0-11.76 10 37.74 37.74 0 0 0-3.74 7.1s-5.53 26.64-11.33 33.71-6.22 16.96-6.22 16.96a86.85 86.85 0 0 1-2.78 8.72c-1 2.55-2.15 4.93-3.3 6-3.05 2.72-1.39 6.8-1.39 6.8s-3.59 3.53-3.32 5.71-1.93 7.07-1.93 7.07-2.21 5.16-1.11 7.61c.67 1.48-1 5.25-2.4 8l-1.19-.11a67.07 67.07 0 0 0-3.65 9.56 17.1 17.1 0 0 0-.78 5.12c.28 4.9-3.31 13.33-3.31 13.33a53 53 0 0 0-2.34 14.5v.38c-.15 9.38 2.29 21.22 13.21 29.41a42.91 42.91 0 0 0 13.58 6.65c1.53.47 3.15.88 4.85 1.25l3.86.83a95.92 95.92 0 0 0 17.3 6.94 45.41 45.41 0 0 0 9 1.65 45.18 45.18 0 0 0 15.15-1.34c.65.1 1.3.18 1.92.25l.56.08h.09c9.8 1.27 16.54 1.83 19.8 2a1.24 1.24 0 0 1 0 .16c-.68 3.28-1.08 5.74-1.08 5.74l.59.71c0 .22-.05.35-.05.35l8.83 11a4.4 4.4 0 0 0 1.32-.39 13.11 13.11 0 0 0 4.6-3.57 4.86 4.86 0 0 0 1.47.18h.22a9.57 9.57 0 0 0 2.29-.39s1.58-1.14 3.71-2.55l.24.38 1.41-.92 1.23-.8 3.09-2 .05-.09.16-.3.76-.38c.4-.2.79-.37 1.16-.52a7.07 7.07 0 0 1 2.05-.56c1.48-.09 3.91-1.25 6.23-2.57l.35.35a4.86 4.86 0 0 0 .8-1l.49-.3c.39-.23.76-.47 1.12-.7 2-1.24 3.44-2.28 3.44-2.28s25.06-2.54 34.54-4.71v.4c0 .12 0 .4-.07.58-.86 0-1.66-.07-2.37-.08a18.5 18.5 0 0 0-2.13.07 3.2 3.2 0 0 0-1.72.61c-2 1.61 1.17 5.64 1.17 5.64h.12c3.05 1 60.31 19.28 66 20.08 2.38.34 9 0 16.16-.88 9-1.08 18.87-3 23-5.31a5.66 5.66 0 0 0 1.48-1.14 2.2 2.2 0 0 0 .14-.18c2.25-2.97-.62-5.8-3.2-7.55zm-82.34-120.09l-1.62 1.63-1.75-3.84-.85-1.87 3.46 3.34zM390.3 524.9h-1.81c.49-2.7.83-4.44.83-4.44s2.57-12.17 4.22-22.71c.88-5.68 1.5-10.88 1.31-13.45a18.85 18.85 0 0 1 .73-6.71 19.37 19.37 0 0 1 .86-2.42c.16-.38.32-.74.49-1.07l1.15-1c.06.14.11.28.17.41.13.32.28.65.43 1l.09.18c2.81 6 8.63 14.32 14.12 21.56 6.56 8.62 12.65 15.74 12.65 15.74l3.06 3.39c-6.83 2.5-13.29 4.9-13.29 4.9l-20.61 5.28a15.33 15.33 0 0 0-4.4-.66zm84.62-48l-.29-.62-1.48-3.28-.89-1.95 1 .94.52.51a2.16 2.16 0 0 0 .23.48 4.25 4.25 0 0 1 .71 1.55 9.38 9.38 0 0 1 .2 2.39zm-71-7.53a28.26 28.26 0 0 0-4.78 3.41c-.29.23-.58.49-.87.74.13.32.28.65.43 1 .12-.24.23-.45.34-.64l.15-.27a2.75 2.75 0 0 1 .15-.25 9.51 9.51 0 0 1 .61-.93l4.62-3.34c-.23.09-.44.19-.67.3zm0 0a28.26 28.26 0 0 0-4.78 3.41c-.29.23-.58.49-.87.74.13.32.28.65.43 1 .12-.24.23-.45.34-.64l.15-.27a2.75 2.75 0 0 1 .15-.25 9.51 9.51 0 0 1 .61-.93l4.62-3.34c-.23.09-.44.19-.67.3z" transform="translate(-44.68 -64.17)" fill="url(#c)"/><path d="M504.74 519.91s10 4.59 5.94 9.46-34.06 8.11-39.73 7.3-64.61-20-64.61-20-4.33-5.67.54-6.21 25.44 2.15 25.44 2.15l28.11 1.62z" fill="#535184"/><path fill="#ffb9b9" d="M406.82 418.27l13.17 28.99 17.64-17.24-12.97-20.88-17.84 9.13z"/><path opacity=".05" d="M437.63 430.02l-13.33 13.03-4.31 4.21-2.57-5.65-7.37-16.22-3.23-7.12 4.63-2.37 13.21-6.76 4.94 7.95 3.42 5.51 4.61 7.42z"/><path d="M390.12 316.63a107.88 107.88 0 0 0-13 12.16l-.73.83a63.66 63.66 0 0 0-6.07 8.21 41.71 41.71 0 0 0-3.46 6.88c-2.71 7-1.6 11.08-1.6 11.08a293.35 293.35 0 0 1-22-20.78c-11.27-12-20.55-25.08-9.62-27.07 13.5-2.45 24.74-10.82 31-16.4a65.19 65.19 0 0 0 5.27-5.23s49.41 6.8 20.21 30.32zm-47.98 147.86l29.6-7.7s26.76-10.14 28.38-10.34 56-14.19 56-14.19l-25.8 57.17-61 20.88-36.31-3.48z" fill="#ffb9b9"/><path d="M342.14 464.49l29.6-7.7s26.76-10.14 28.38-10.34 56-14.19 56-14.19l-25.8 57.17-61 20.88-36.31-3.48z" opacity=".1"/><path d="M346.99 320.38c-.8-4.45-2.32-14.37-.66-17.27 0 0-2.44-.27-11.36 1.35s-23.25.81-23.25.81-21.35-4.06-30.54 19.19c0 0-5.41 26.49-11.09 33.52s-6.21 17-6.21 17-3 11.9-5.95 14.6-1.35 6.76-1.35 6.76-3.52 3.51-3.25 5.68-1.89 7-1.89 7-2.16 5.14-1.08 7.57-4.04 11.14-4.04 11.14l91.65 19.19 24.35-76.5.55-31.9s-13.41-1.24-15.24-14.19c-.24-1.32-.4-2.64-.64-3.95z" fill="#787c9c"/><path d="M271.17 397.99l-3.24 5.95s19.46 5.68 26.49 3.78 29.74-17.3 29.74-17.3z" fill="none"/><path d="M271.17 397.99l-3.24 5.95s19.46 5.68 26.49 3.78 29.74-17.3 29.74-17.3z" opacity=".1"/><path d="M286.04 429.62s-18.65-3.79-21.62-3.79-17.57-1.36-17.57-1.36-4.6 9.74-4.33 14.6-3.2 13.26-3.2 13.26-14.33 42.44 28.65 51.9 68.35 10.54 68.35 10.54 14.06-39.74 16.76-45.14 1.9-9.19-10.81-8.11-56.23-31.9-56.23-31.9z" fill="#4c4c78"/><path d="M433.98 422.52l-1 .08c-1.1.08-3.06.22-5.43.43-3.66.34-8.27.81-12.19 1.38-2.06.3-3.92.63-5.34 1-1.75.43-2.83.9-2.83 1.39 0 1.23-10.7-20.54-21.27-42.35l-1-2.13c-.34-.7-.67-1.39-1-2.08l-1.74-3.61c-2.6-5.37-5.11-10.57-7.34-15.24-.43-.87-.83-1.71-1.23-2.54l-6.75-14.09c-.9-1.86-1.4-2.91-1.4-2.91s1.71-2.05 3.93-4.61 4.93-5.59 6.95-7.62h.09c1.7.39 27.9 6.44 32.22 15.66a78.66 78.66 0 0 1 3.24 9.24c.32 1.08.66 2.22 1 3.39 1.37 4.77 2.81 10.21 4.17 15.51.27 1 .53 2.07.79 3.08 2.89 11.46 5.19 21.49 5.19 21.49l7 15.65z" fill="#787c9c"/><path d="M453.04 421.31s-6 20.59-8.72 28.55a17.3 17.3 0 0 1-1.22 3.08 24.82 24.82 0 0 1-11 5 11.55 11.55 0 0 1-2.42.11 8.72 8.72 0 0 1-3.45-.88c-6.44-3.22-10.91-11.74-10.91-11.74l2.09-3.82 3.25-5.95 6.91-12.63.72-1.32a34.56 34.56 0 0 0 1.29-4.62 19 19 0 0 0 .42-3.45 6.25 6.25 0 0 0-.9-3.89c-2.43-3.24-2.63-59.81 12-51.7s11.94 63.26 11.94 63.26z" fill="#ffb9b9"/><path d="M455.32 432.9l.79-.64s14.6-.41 17.64 4.05 15.61 15.81 7.7 28.59a54 54 0 0 1-19.13 18.45s-41.72 23.48-49.43 25.75-35.27 5.06-35.27 5.06-8.72 6.29-12.17 6.49-13.58 7.71-13.58 7.71-11.15 3.65-2.84-11.36 9.33-18 9.33-18 7.9 4.46 12.36 0 31.6-21.53 31.6-21.53 17.44-14 20.88-15.82 25.35-14.19 25.35-14.19a18.25 18.25 0 0 1 6.77-14.56z" fill="#ffb9b9"/><path d="M481.42 464.9a54 54 0 0 1-19.1 18.45s-2.33 1.31-6 3.35c-11.76 6.53-37.19 20.48-43.32 22.36h-.14c-7.7 2.23-35.27 5.06-35.27 5.06s-8.72 6.29-12.17 6.49-13.58 7.71-13.58 7.71-11.15 3.65-2.84-11.36 9.33-18 9.33-18 7.9 4.46 12.36 0 31.63-21.49 31.63-21.49l3.19-2.55c5.2-4.11 15.18-11.94 17.69-13.27 1-.52 3.45-1.89 6.49-3.58l1.89-1.06c4.3-2.4 9.26-5.2 12.71-7.15l4.26-2.4v-.42a18.24 18.24 0 0 1 6.77-14.14l.79-.64s14.6-.41 17.64 4.05 15.57 15.81 7.67 28.59z" opacity=".05"/><path d="M333.54 521.58l8.65 10.92s8-.52 14.14-21.29-1.8-22.84-1.8-22.84-11.49 6.6-15 11.76-5.99 21.45-5.99 21.45z" fill="#535184"/><path d="M333.02 520.52l8.53 10.37s7.3-.5 13.18-20.23-1.69-21.7-1.69-21.7-10.94 6.28-14.26 11.19-5.76 20.37-5.76 20.37z" fill="#535184"/><path d="M333.02 520.52l8.53 10.37s7.3-.5 13.18-20.23-1.69-21.7-1.69-21.7-10.94 6.28-14.26 11.19-5.76 20.37-5.76 20.37z" opacity=".15"/><path d="M355.73 526.2l-.44-.68c1.48-1 5-15.78 6.83-24.87l.79.17c-.7 3.42-3.86 18.54-6.14 23.73l3.95-2.6c.63-1.21 7.21-14.13 3.61-20.47l-.3-.52 4.5-.66.14.23c.33.54 8 13.3 3.18 17.93l-.53-.63c4-3.87-2.17-15-3.17-16.7l-2.82.41c3.37 7.15-3.61 20.26-3.91 20.83l-.05.09-5.62 3.69z" fill="#535184"/><path d="M325.51 330.48c.81 1.21 1.62 11.55 4.66 11.76s-4.66-11.76-4.66-11.76zM307.67 310s8.72 1 9.33 8.92-9.33-8.92-9.33-8.92z" opacity=".1"/><path d="M261.24 406.91s3.45 10.55 11.15 12.57zm12.16 2.23s-.81 8.11 4.87 10.14-4.87-10.14-4.87-10.14z" fill="none"/><path d="M269.15 456.18s-17 8.31-16.63 11.15 16.63-11.15 16.63-11.15zm-20.48-1.01s8.52-9.13 14.6-8.32zm164.43-68.34s-2.44 17 1.21 18.25-1.21-18.25-1.21-18.25z" opacity=".1"/><path d="M269.82 471.83s-6.76 29.2-.54 31.9a88.34 88.34 0 0 0 19.33 8.26c20.38 6 42.34-3.45 51.14-22.79a24.23 24.23 0 0 0 2-6c1.57-10.37 4.57-26.28 4.57-26.28s5.94-28.65 5.4-36a20.5 20.5 0 0 1 3.52-12.71l38.08-27.52-10.5-28.92s-27.3-38.66-51.9-3-44.6 77.34-44.6 77.34-16 24.05-16.5 45.72z" fill="#ffb9b9"/><path d="M393.32 379.88l-7.41 5.36c-1.27-2.62-2.54-5.24-3.78-7.82-6.64-13.74-12.69-26.36-15.32-31.87-2.71 7-1.6 11.08-1.6 11.08a293.35 293.35 0 0 1-22-20.78c9.66-5.54 19-2.55 26.14 2.19l.93.63a57.25 57.25 0 0 1 12.51 12.28z" opacity=".1"/><path d="M269.82 471.83s-6.76 29.2-.54 31.9a88.34 88.34 0 0 0 19.33 8.26c20.38 6 42.34-3.45 51.14-22.79a24.23 24.23 0 0 0 2-6c1.57-10.37 4.57-26.28 4.57-26.28s5.94-28.65 5.4-36a20.5 20.5 0 0 1 3.52-12.71l38.08-27.52-10.5-28.92s-27.3-38.66-51.9-3-44.6 77.34-44.6 77.34-16 24.05-16.5 45.72z" fill="#ffb9b9"/><path d="M413.03 509.06c.33-4.88.33-15.64.33-15.64s-.26-7.84-6.75-17c-.33-.46-.68-1-1.07-1.47 5.2-4.11 15.18-11.94 17.69-13.27 1-.52 3.45-1.89 6.49-3.58a8.72 8.72 0 0 1-3.45-.88c-6.48-3.27-10.95-11.79-10.95-11.79l2.09-3.82-7.37-16.22c-1.75.43-2.83.9-2.83 1.39 0 1.38-13.43-26.1-25-50.17 2.67-2.15 4.43-3.49 4.43-3.49l8.39 7.57 16.46 35.21 3 6.42s.33.76.94 2.09c1.06 2.31 2.92 6.35 5.28 11.25 1.11 2.3 2.33 4.8 3.63 7.39 2.26 4.53 4.76 9.35 7.31 14 .18.32.35.64.53 1 5.66 10.16 11.51 19.11 15.56 21.4 0 0 3.93 3.39 8.65 7.34-11.8 6.44-37.23 20.39-43.36 22.27z" opacity=".1"/><path d="M384.98 373.12l8.38 7.57 19.47 41.63s22.7 51.09 33.25 57c0 0 19.19 16.49 23.51 19.19s15.73 11.13 15.73 11.13 33.79 9.73 18.66 14.59-35.69 1.09-35.69 1.09-22.7-4.87-29.19-8.66c0 0-3.79.28-6.49.28s-21.9-3.25-21.36-6 .54-17.57.54-17.57-.27-7.84-6.75-17-23.25-27.85-23.25-27.85-28.66-34.06-27.85-43.25 31.04-32.15 31.04-32.15z" fill="#ffb9b9"/><path d="M384.98 373.12l8.38 7.57 19.47 41.63s22.7 51.09 33.25 57c0 0 19.19 16.49 23.51 19.19s15.73 11.13 15.73 11.13 33.79 9.73 18.66 14.59-35.69 1.09-35.69 1.09-22.7-4.87-29.19-8.66c0 0-3.79.28-6.49.28s-21.9-3.25-21.36-6 .54-17.57.54-17.57-.27-7.84-6.75-17-23.25-27.85-23.25-27.85-28.66-34.06-27.85-43.25 31.04-32.15 31.04-32.15z" fill="#ffb9b9"/><path d="M466.18 526.83l-.74-.34a33.18 33.18 0 0 1 21.64-16.45l.18.79a32.32 32.32 0 0 0-21.08 16zm-14.61-4.85l-.72-.36c4.89-9.78 27.67-16.42 28.63-16.7l.23.78c-.23.07-23.39 6.82-28.14 16.28z" opacity=".1"/><path d="M463.49 524.1l-.77-.27c.82-2.29 8-22.42 12-23l.12.81c-2.65.39-8.23 13.64-11.35 22.46z" opacity=".1"/><path d="M465.37 526.83l-.74-.34a33.18 33.18 0 0 1 21.63-16.45l.18.79a32.29 32.29 0 0 0-21.07 16zm-14.61-4.85l-.72-.36c4.89-9.78 27.67-16.42 28.63-16.7l.23.78c-.24.07-23.41 6.82-28.14 16.28z" fill="#535184"/><path d="M462.68 524.1l-.77-.27c.81-2.29 8-22.42 11.95-23l.12.81c-2.6.39-8.18 13.64-11.3 22.46z" fill="#535184"/><path d="M448.65 520.51c-.5-3.24 7.58-25.4 9.4-30.35-12.58 5.81-45.61 12.51-46 12.58l-.16-.8c.35-.07 35-7.09 46.67-12.94l.92-.46-.36 1c-2.85 7.65-10.14 28.09-9.71 30.89z" opacity=".1"/><path d="M447.84 520.51c-.5-3.24 7.58-25.4 9.4-30.35-12.58 5.81-45.62 12.51-46 12.58l-.16-.8c.35-.07 35-7.09 46.67-12.94l.92-.46-.36 1c-2.85 7.65-10.14 28.09-9.71 30.89z" fill="#535184"/><path d="M417.84 376.5c-13.23 2.72-30.7 3.24-30.7 3.24l-2.22 2.56-1.83 2.11s-16.63 20.47-22.5 21.89-23.27 21.29-23.27 21.29-14.19 9.53-26.76 16.83-21.49-10.54-21.49-10.54l-4.46-41 27.57-5.27 1.62 12s18.05-7.5 20.68-8.11 33.66-27.37 36.09-28a22 22 0 0 0 4.31-2.15c3.07-1.84 6.44-4.13 6.44-4.13s17-1.65 31.61.67c1.37 4.77 2.81 10.21 4.17 15.51.22 1.06.48 2.09.74 3.1z" opacity=".1"/><path d="M417.05 373.42c-13.12 2.58-29.91 3.08-29.91 3.08l-3.23 3.72-.82.94s-16.63 20.48-22.5 21.9-23.27 21.29-23.27 21.29-14.19 9.53-26.76 16.83-21.54-10.55-21.54-10.55l-4.46-40.95 27.57-5.27 1.62 12s18.05-7.5 20.68-8.11 33.66-27.37 36.09-28a15.81 15.81 0 0 0 3.08-1.45l.74-.42a35.93 35.93 0 0 1 17.43-4.95 127.84 127.84 0 0 1 20.11 1.06c1.65 5.45 3.44 12.29 5.17 18.88zm31.02 142.26l7.1 3.75-3.45 4.97-5.98-2.84 2.33-5.88z" opacity=".1"/><path fill="#535184" d="M448.07 514.87l7.1 3.75-3.45 4.97-5.98-2.84 2.33-5.88z"/><path opacity=".1" d="M462.37 520.96l7.6 2.23-2.84 5.17-7.19-2.94 2.43-4.46z"/><path fill="#535184" d="M462.37 520.14l7.6 2.24-2.84 5.16-7.19-2.93 2.43-4.47z"/><path d="M311.18 402.59s-13.78 8.38-12.7 14.32zm104.37-11.85l17.642-17.91 12.424 12.24-17.643 17.909z" opacity=".1"/><path fill="#504f60" d="M416.698 391.88l17.643-17.909 12.424 12.24-17.642 17.909z"/><path opacity=".1" d="M426.1 401.136l17.643-17.91 3.034 2.99-17.642 17.91z"/><path fill="#504f60" d="M424.551 405.02l22.766-23.11 14.155 13.944-22.766 23.11z"/><path opacity=".1" d="M435.958 416.257l22.766-23.11 2.743 2.702-22.766 23.11z"/><path fill="#504f60" d="M434.128 420.427l28.169-28.595 13.863 13.656-28.17 28.596z"/><path d="M454.18 457.05c-1.07.74-3.14-.19-4-.75-4.17-5.6-4.42-23.66-4.42-23.66l.38-.38-1.16-1.14 28.17-28.6 1.16 1.14.28-.29a62.75 62.75 0 0 0 16.55 2.9c3.12.09 4.16-.45 5.4.41a13.83 13.83 0 0 1 1.92 6.41c0 3.72-11.12 4.59-17.57 5-5.46.37-2.8 9.86-1.85 12.77a5.1 5.1 0 0 1 .25 2.05c-.58 6.08-7.41 6.47-13.22 4.95-6.17-1.61-8.95 6.53-8.95 6.53s4.46 7.52-2.94 12.66z" opacity=".1"/><path d="M455.32 458.19c-1.58 1.1-4-.37-5.15-1.89-4.17-5.6-4.42-23.66-4.42-23.66l28.83-29.27a62.75 62.75 0 0 0 16.55 2.9c3.12.09 4.16-.45 5.4.41 2.24 1.54 3.06 5.17 3.08 7.55 0 3.72-11.12 4.59-17.57 5-5.46.37-2.8 9.86-1.86 12.77a5.11 5.11 0 0 1 .26 2.05c-.58 6.08-7.41 6.47-13.22 4.95-6.18-1.61-9 6.53-9 6.53s4.52 7.52-2.9 12.66z" fill="#504f60"/><path d="M455.32 458.19c-1.58 1.1-4-.37-5.15-1.89-4.17-5.6-4.42-23.66-4.42-23.66l28.83-29.27a62.75 62.75 0 0 0 16.55 2.9c3.12.09 4.16-.45 5.4.41 2.24 1.54 3.06 5.17 3.08 7.55 0 3.72-11.12 4.59-17.57 5-5.46.37-2.8 9.86-1.86 12.77a5.11 5.11 0 0 1 .26 2.05c-.58 6.08-7.41 6.47-13.22 4.95-6.18-1.61-9 6.53-9 6.53s4.52 7.52-2.9 12.66z" opacity=".1"/><path d="M453.52 456.4c-1.55 1.12-2.8.68-3.79-.7-3.67-5.1-4-23.06-4-23.06l28.83-29.27a56.24 56.24 0 0 0 15.54 1.9c3-.08 4.78.36 5.91 1.11 2 1.36 1.81 3.75 1.71 6-.17 3.53-10.78 4.93-16.91 5.68-5.12.63-3.22 9.25-2.45 12.1a5.07 5.07 0 0 1 .16 2.12c-.9 5.74-7.37 6.45-12.77 5.31-5.77-1.21-8.82 6.66-8.82 6.66s3.87 6.89-3.41 12.15zm-17.11-103.57a5.58 5.58 0 0 1-7.87.06l-.15-.15a5.58 5.58 0 0 1-.07-7.91 3.9 3.9 0 0 1 .38-.33 5.57 5.57 0 0 1 7.5.27l.15.15a5.58 5.58 0 0 1 .39 7.5 3.9 3.9 0 0 1-.33.41z" fill="#504f60"/><path d="M436.41 352.83a5.58 5.58 0 0 1-7.87.06l-.15-.15a5.58 5.58 0 0 1-.07-7.91 3.9 3.9 0 0 1 .38-.33l8 7.92a3.9 3.9 0 0 1-.29.41zm-19.705 39.056l17.642-17.91 2.309 2.274-17.643 17.91z" opacity=".1"/><path d="M429.047 345.983l11.804 11.629a9.25 9.25 0 0 1 .098 13.08l-26.52 26.922-24.984-24.611 26.52-26.922a9.25 9.25 0 0 1 13.082-.098z" fill="#504f60"/><path d="M390.12 316.63a107.88 107.88 0 0 0-13 12.16 33.49 33.49 0 0 1-14.07-27.3 33.13 33.13 0 0 1 1.5-9.92 65.19 65.19 0 0 0 5.27-5.23s49.5 6.77 20.3 30.29z" opacity=".1"/><path d="M430.13 299.83v.75a32.93 32.93 0 0 1-.64 5.83c-.13.64-.27 1.27-.44 1.89a.44.44 0 0 1 0 .1 33.53 33.53 0 1 1-62.73-22.82c.43-.91.9-1.79 1.4-2.66a35.83 35.83 0 0 1 6-7.47 33.5 33.5 0 0 1 56.41 24.38zm-42.99 78.29l-3.3 3.81-.75.86s-1.69 2.08-4.18 5c-5.32 6.15-14.32 16-18.32 16.93-5.88 1.42-23.32 21.29-23.32 21.29s-14.19 9.53-26.76 16.83-21.49-10.54-21.49-10.54l-4.46-41 27.57-5.27 1.62 12s18.05-7.5 20.68-8.11c2.22-.51 24.53-19.53 33-25.92a16.32 16.32 0 0 1 3.09-2.06 19.18 19.18 0 0 0 3.74-1.82l.09-.06a35.76 35.76 0 0 1 17.33-4.94c12.51-.24 32.65.75 39.46 9.05 10.18 12.33-44 13.95-44 13.95z" fill="#ffb9b9"/><path d="M300.32 324.01a38.52 38.52 0 0 1-5.57.38c-4.81 0-14.8 3.32-17.64 29.27-3.78 34.6-9.19 51.9-9.19 51.9s20.28-7 31.9-5.14 29.5-5.94 29.5-5.94-.81-28.12-2.7-33.79c-1.83-5.4-7.79-39.44-26.3-36.68z" opacity=".1"/><path d="M300.32 322.39a38.51 38.51 0 0 1-5.57.37c-4.81 0-14.8 3.32-17.64 29.28-3.78 34.6-9.19 51.9-9.19 51.9s20.28-7 31.9-5.14 29.5-5.97 29.5-5.97-.81-28.12-2.7-33.8c-1.83-5.37-7.79-39.4-26.3-36.64z" fill="#787c9c"/><path d="M316.59 365.15s-9.53 6.28-5.47 7.5 7.09-.61 5.47-7.5zm-1.01 11.15s-26 8.11-16.83 11.55 16.83-11.55 16.83-11.55zm97.74-58.54l11.5-1.08c2.84-.27 6.05-.74 7.7-3.07s1.06-5.51 2.08-8.15c.7-1.82 2.1-3.25 3.27-4.8 6.94-9.18 4.8-23.88-4.47-30.7-2.24-1.65-4.78-2.86-7-4.55-5.5-4.19-8.43-10.85-12.78-16.22s-11.8-9.68-18-6.62c-4.47 2.21-6.6 7.45-10.62 10.39-5.64 4.13-13.38 2.85-20.34 2.14a96.67 96.67 0 0 0-21.64.21 5.41 5.41 0 0 0-3 1 4.82 4.82 0 0 0-1.25 3.39c-.31 6 2.73 11.81 2.13 17.76-.63 6.12-5.08 11.28-10.31 14.51-4.51 2.77-10.52 5.7-10.27 11a13.73 13.73 0 0 0 1.84 5.22 55.91 55.91 0 0 1 .18 48.4c-1 2.13-2.49 4.41-4.82 4.86a14.16 14.16 0 0 0 16.16-7.06c2.52-5.11 2.05-12 6.55-15.48 3.12-2.42 7.53-2.22 11.12-3.85 4.92-2.24 7.6-7.5 9.92-12.38l6.36-13.41c1.93-4.07 4.38-9 8.64-11 4.56-2.2 10.21-.09 15 .25 7.92.55 16.21 1.06 13.79 11.58 5.2-2.66 7.57 3.8 8.26 7.66z" opacity=".1"/><path d="M437.86 299.83c-1.17 1.55-2.58 3-3.27 4.8a12.87 12.87 0 0 0-.65 3c-.24 1.84-.37 3.69-1.43 5.18-1.65 2.32-4.86 2.79-7.7 3q-5.75.56-11.5 1.08c-.68-3.85-3.05-10.31-8.24-7.66 2.42-10.52-5.87-11-13.79-11.58-4.84-.33-10.49-2.45-15-.25-4.26 2.06-6.71 7-8.64 11l-6.36 13.42c-2.32 4.88-5 10.13-9.92 12.37-3.6 1.64-8 1.44-11.12 3.86-4.5 3.5-4 10.37-6.55 15.48a14.14 14.14 0 0 1-16.16 7.05c2.33-.44 3.79-2.72 4.82-4.86a55.89 55.89 0 0 0-.18-48.39 13.73 13.73 0 0 1-1.84-5.22c-.25-5.29 5.76-8.21 10.27-11 5.24-3.22 9.68-8.38 10.3-14.5.61-5.95-2.44-11.78-2.12-17.76a4.78 4.78 0 0 1 1.25-3.39 5.41 5.41 0 0 1 3.06-1 96.58 96.58 0 0 1 21.63-.21c7 .71 14.71 2 20.34-2.14 4-2.94 6.15-8.18 10.62-10.39 6.19-3.06 13.64 1.24 18 6.61s7.28 12 12.78 16.23c2.21 1.69 4.76 2.9 7 4.55a21.39 21.39 0 0 1 7.86 12.17 22.14 22.14 0 0 1-3.46 18.55z" fill="#ffedba"/><path d="M341.67 271.29c.51-5.06-1.6-10-2.06-15.07a5.46 5.46 0 0 0-.88 3c-.27 5.2 2 10.29 2.19 15.45a15.29 15.29 0 0 0 .75-3.38zm-14.2 65.91a55.92 55.92 0 0 0-4.54-35.2 22.05 22.05 0 0 1-1.52-3.5 6.55 6.55 0 0 0-1.13 4 13.62 13.62 0 0 0 1.84 5.21 55.7 55.7 0 0 1 5.35 29.49zm111.2-42.76c-1.17 1.55-2.57 3-3.27 4.8-1 2.64-.44 5.85-2.08 8.16s-4.86 2.79-7.7 3.06l-11.5 1.08c-.68-3.86-3.05-10.32-8.24-7.67 2.42-10.52-5.87-11-13.79-11.58-4.84-.33-10.49-2.45-15-.25-4.26 2.07-6.71 7-8.64 11l-6.36 13.41c-2.32 4.89-5 10.14-9.92 12.38-3.59 1.64-8 1.43-11.12 3.86-4.5 3.49-4 10.36-6.55 15.47a14.22 14.22 0 0 1-12 7.55c-.05.1-.1.22-.15.33-1 2.13-2.49 4.41-4.82 4.86a14.16 14.16 0 0 0 16.16-7.06c2.52-5.11 2.05-12 6.55-15.48 3.12-2.42 7.53-2.22 11.12-3.85 4.92-2.24 7.6-7.5 9.92-12.38l6.36-13.41c1.93-4.07 4.38-9 8.64-11 4.56-2.2 10.21-.09 15 .25 7.92.55 16.21 1.06 13.79 11.58 5.19-2.65 7.56 3.81 8.24 7.66l11.5-1.08c2.84-.26 6.05-.73 7.7-3.06s1.06-5.51 2.08-8.15c.7-1.82 2.1-3.25 3.27-4.8a21 21 0 0 0 4.08-12.36 19.8 19.8 0 0 1-3.27 6.68z" opacity=".1"/><path d="M437.86 299.83c-1.17 1.55-2.58 3-3.27 4.8a12.87 12.87 0 0 0-.65 3 26.4 26.4 0 0 0-2.6-2c-3.86-2.64-8.25-4.34-12.61-6l-19.35-7.5c-4.56-1.77-9.14-3.53-13.7-5.31a39.08 39.08 0 0 0-5.26-1.75l-.56-.12a21.43 21.43 0 0 0-9.36.27c-.78.2-1.57.44-2.36.56 0-.31 0-.61-.05-.91 0-.5-.05-1-.06-1.5a12 12 0 0 0 6.75-.6 19.73 19.73 0 0 0 4.53-3.36 38.32 38.32 0 0 1 11.8-7.06c6.62-2.41 13.81-2.71 20.86-2.52a46.63 46.63 0 0 1 10.54 1.22 55.13 55.13 0 0 1 12 5.32c2.47 1.33 5 2.78 6.72 5a22.14 22.14 0 0 1-3.37 18.46z" opacity=".1"/><path d="M445.17 290.76c-1.47.64 1.55 1.28.37 2.34-1.69 1.51.74 3.24-1.36 4.06-.49.19.78 4.31.27 4.33 1.09 3.29-8.11 3.36-8.11 7v.75a24.3 24.3 0 0 0-5-4.44c-3.86-2.64-8.26-4.34-12.61-6l-19.35-7.49-13.71-5.31a39 39 0 0 0-5.25-1.76l-.56-.12a21.64 21.64 0 0 0-9.37.28c-.77.19-1.56.44-2.36.56v-.92c0-.49-.05-1-.06-1.49a12 12 0 0 0 6.75-.6 20 20 0 0 0 4.53-3.37 38.48 38.48 0 0 1 11.8-7.05c6.62-2.42 13.81-2.72 20.86-2.52a46.62 46.62 0 0 1 10.54 1.21c4.25 1.12 8.16 3.23 12 5.32 2.85 1.55 5.85 3.25 7.44 6.08a17.65 17.65 0 0 1 1.26 3.16q.96 2.98 1.92 5.98z" fill="#ff849d"/><path d="M440.79 301.15c-6.05-15-35.54-14.62-35.85-14.61v-.81c1.24 0 30.36-.37 36.61 15.12zm2.2-6.96c-3.91-10.44-26.17-11.36-26.39-11.36v-.81c.93 0 23 .95 27.12 11.89z" opacity=".1"/></svg>