<svg xmlns="http://www.w3.org/2000/svg" viewBox="0 0 1100 806.7"><ellipse opacity=".1" cx="629.7" cy="780.6" rx="122.6" ry="26.2"/><path opacity=".1" d="M1070.6 683.8c-24.3 20.2-59 28.6-92.5 33.8l-5.6.9c-58.6 8.7-118.3 10.5-177.8 12.3-165.9 4.9-332.2 9.8-497.6-1.5-73.2-5-148.1-13.8-212.3-43.7l-1.7-.8c-.8-.4-1.7-.8-2.5-1.2-11.4-5.4-22.3-11.8-32.6-19.1-18.3-13.1-33.4-29-41.4-47.9-12.5-29.7-5.9-63 8.4-92s35.8-55.1 54.3-82.4c5.4-8 10.6-16.3 15.4-24.8 30-53.4 44.9-115.1 13.4-166.6-4.2-6.6-8.6-12.9-13.4-19-7.7-10-15.5-20-20.7-31.1-12.3-25.8-9.7-54.7-5.2-82.3 6-36.6 17-76 51.4-98.9C145.9-4.2 196.5-3 240.8 5.5c68.8 13.2 132.4 40.8 196.5 65.7s131.3 47.6 201.9 50c62.3 2.2 134.9-14 176.2-56.1 40.2-40.8 115.6-43.9 170-19.3 51.9 23.5 85.5 73.4 83 123.1-3.2 62.1-54.9 111.8-95.9 164.7-6.8 8.8-13.3 17.7-19.3 26.7-19.4 29.5-33.2 65-19.8 96.9 7.5 17.9 21.8 31.5 39.1 43.4 38.7 26.6 92 44.5 116 81.8 20.6 32.4 12.9 75.8-17.9 101.4z"/><ellipse cx="972.5" cy="704.8" rx="57" ry="11"/><ellipse fill="#3F3D56" cx="971.5" cy="700.2" rx="6.6" ry="8.7"/><ellipse fill="#3F3D56" cx="971.5" cy="689.6" rx="6.6" ry="8.7"/><ellipse fill="#3F3D56" cx="971.5" cy="678.9" rx="6.6" ry="8.7"/><ellipse fill="#3F3D56" cx="971.5" cy="668.3" rx="6.6" ry="8.7"/><ellipse fill="#3F3D56" cx="971.5" cy="657.7" rx="6.6" ry="8.7"/><ellipse fill="#3F3D56" cx="971.5" cy="647.1" rx="6.6" ry="8.7"/><ellipse fill="#3F3D56" cx="971.5" cy="636.5" rx="6.6" ry="8.7"/><path d="M996.4 563.8c.9-1.2 1.7-2.4 2.5-3.6l-17.4-2.9 18.9.1c3.7-8 3.9-17.1.6-25.2l-25.3 13.2 23.3-17.2c-8.8-15.2-28.2-20.5-43.4-11.7s-20.5 28.2-11.7 43.4c.8 1.3 1.6 2.6 2.6 3.9-1.4 1.8-2.6 3.7-3.6 5.8l22.6 11.8-24.1-8.1c-3.4 10.2-1.5 21.4 5.1 29.9-10.9 13.8-8.5 33.8 5.3 44.7 13.8 10.9 33.8 8.5 44.7-5.3 9.1-11.5 9.1-27.8 0-39.3 9-11.7 9-28-.1-39.5z"/><path opacity=".1" d="M939.6 583.4c0 7.1 2.4 14.1 6.8 19.7-10.9 13.8-8.5 33.8 5.3 44.7 13.8 10.9 33.8 8.5 44.7-5.3 9.1-11.5 9.1-27.8 0-39.3 4.3-5.5-56.8-23.3-56.8-19.8z"/><path d="M134.7 673.9c0 5.6-21.8 10.2-50 10.9H83c-.8-.4-1.7-.8-2.5-1.2-11.4-5.4-22.3-11.8-32.6-19 6.8-.8 14.6-1.3 23-1.5H72c1.8 0 3.7-.1 5.5-.1h7.1c28.3.7 50.1 5.4 50.1 10.9z"/><ellipse fill="#3F3D56" cx="76.8" cy="669.3" rx="6.6" ry="8.7"/><ellipse fill="#3F3D56" cx="76.8" cy="658.6" rx="6.6" ry="8.7"/><ellipse fill="#3F3D56" cx="76.8" cy="648" rx="6.6" ry="8.7"/><ellipse fill="#3F3D56" cx="76.8" cy="637.4" rx="6.6" ry="8.7"/><ellipse fill="#3F3D56" cx="76.8" cy="626.8" rx="6.6" ry="8.7"/><ellipse fill="#3F3D56" cx="76.8" cy="616.2" rx="6.6" ry="8.7"/><ellipse fill="#3F3D56" cx="76.8" cy="605.5" rx="6.6" ry="8.7"/><path d="M101.6 532.8c.9-1.2 1.7-2.4 2.5-3.6l-17.5-2.8 18.9.1c3.7-8 3.9-17.1.6-25.2l-25.3 13.1 23.3-17.2c-8.8-15.2-28.2-20.4-43.4-11.6S40.3 513.8 49.1 529c.8 1.3 1.6 2.6 2.6 3.8-1.4 1.8-2.6 3.7-3.6 5.8l22.6 11.7-24.1-8.1c-3.4 10.2-1.5 21.4 5.1 29.9C40.8 586 43.2 606 57 616.8c13.8 10.9 33.8 8.5 44.7-5.3 9.1-11.5 9.1-27.8 0-39.3 9-11.6 9-27.8-.1-39.4z"/><path opacity=".1" d="M44.8 552.5c0 7.1 2.4 14.1 6.8 19.7C40.8 586 43.2 606 57 616.8c13.8 10.9 33.8 8.5 44.7-5.3 9.1-11.5 9.1-27.8 0-39.3 4.2-5.4-56.9-23.3-56.9-19.7z"/><g opacity=".2"><path d="M214.1 172.8c-2.9-3.9-5.5-8-7.8-12.2L264 153l-62.1-1.5c-11.2-26.6-11-56.6.6-83l82 45.8-75.1-59C240 6.2 304.6-8.8 353.7 21.9s64.1 95.2 33.4 144.3c-2.6 4.1-5.4 8.1-8.5 11.8 4.5 6.1 8.2 12.6 11.3 19.5l-75.8 36.4 80.3-24.2c10.3 33.9 2.7 70.7-20 97.8 34.3 46.6 24.4 112.1-22.2 146.5s-112.1 24.4-146.5-22.2c-28.7-38.9-27-92.4 4.1-129.5-28.5-38.9-26.8-92.4 4.3-129.5z"/><path opacity=".1" d="M399 243.4c-.7 23.5-9.3 46-24.4 64 34.3 46.6 24.4 112.2-22.2 146.5s-112.2 24.4-146.5-22.2c-28.7-38.9-27-92.4 4.1-129.4-13.4-18.3 189.4-70.6 189-58.9z"/></g><g opacity=".2"><path d="M732.9 208.4c-2-2.8-3.9-5.7-5.5-8.7l41.1-5.4-44.2-1.1c-8-18.9-7.8-40.3.4-59.1l58.3 32.6-53.4-41.9c21.6-35 67.6-45.9 102.6-24.2 35 21.6 45.9 67.6 24.2 102.6-1.9 3.1-4.1 6.1-6.4 8.9 3.2 4.3 5.9 9 8.1 13.9l-53.9 25.9 57.2-17.2c7.3 24.1 2 50.3-14.2 69.6 24.4 33.1 17.3 79.8-15.8 104.2s-79.8 17.3-104.2-15.8c-20.4-27.7-19.2-65.8 2.9-92.1-20.5-27.8-19.3-65.9 2.8-92.2z"/><path opacity=".1" d="M864.5 258.6c-.5 16.7-6.6 32.8-17.4 45.6 24.4 33.1 17.3 79.8-15.8 104.2s-79.8 17.3-104.2-15.8c-20.4-27.7-19.2-65.8 2.9-92.1-9.6-13 134.8-50.3 134.5-41.9z"/></g><g opacity=".2"><path d="M519.7 130.3c-2-2.8-3.9-5.7-5.5-8.7l41.1-5.4-44.2-1.1c-8-18.9-7.8-40.3.4-59.1l58.3 32.6-53.4-41.9c21.8-34.9 67.7-45.6 102.7-23.9C654 44.6 664.7 90.5 643 125.5c-1.8 3-3.9 5.8-6.1 8.5 3.2 4.3 5.9 9 8.1 13.9l-54 25.8 57.2-17.2c7.3 24.1 2 50.3-14.2 69.6 24.4 33.2 17.3 79.8-15.9 104.2s-79.8 17.3-104.2-15.9c-20.4-27.7-19.2-65.7 2.9-92.1-20.4-27.6-19.2-65.7 2.9-92z"/><path opacity=".1" d="M651.3 180.5c-.5 16.7-6.6 32.8-17.4 45.6 24.4 33.1 17.3 79.8-15.8 104.2-33.1 24.4-79.8 17.3-104.2-15.8-20.4-27.7-19.2-65.8 2.9-92.1-9.6-13 134.7-50.2 134.5-41.9z"/></g><path fill="#3F3D56" d="M972.4 500.8v217.7c-58.6 8.7-118.3 10.5-177.8 12.3-165.9 4.9-332.2 9.8-497.6-1.5-73.2-5-148.1-13.8-212.3-43.7V417.4c.2-185-.8 0 0-185.6v-66.6c0-7.8 6.3-14.1 14.1-14.1h859.4c7.8 0 14.1 6.3 14.1 14.1v168.6c.7 166.6-.3.6.1 167z"/><path fill="#444053" d="M687.9 233.2h-.6l-.2-.2c.8-.9 1.2-2.1 1.2-3.3 0-2.7-2.3-4.9-5-4.9s-4.9 2.3-4.9 5 2.2 4.9 5 4.9c1.2 0 2.3-.4 3.2-1.2l.2.2v.6l3.8 3.8 1.1-1.1-3.8-3.8zm-4.5 0c-1.9 0-3.4-1.5-3.5-3.4 0-1.9 1.5-3.4 3.4-3.4s3.4 1.5 3.5 3.4c0 1.9-1.5 3.4-3.4 3.4z"/><path opacity=".7" fill="#3F3D56" d="M227.8 493.2h24.4c2.8 0 5 2.2 5 5v1.9c0 2.8-2.2 5-5 5h-24.4c-2.8 0-5-2.2-5-5v-1.9c0-2.8 2.3-5 5-5zm0-147.5h24.4c2.8 0 5 2.2 5 5v1.9c0 2.8-2.2 5-5 5h-24.4c-2.8 0-5-2.2-5-5v-1.9c0-2.8 2.3-5 5-5zm286.8 147.5H539c2.8 0 5 2.2 5 5v1.9c0 2.8-2.2 5-5 5h-24.4c-2.8 0-5-2.2-5-5v-1.9c0-2.8 2.2-5 5-5zM227.8 603.9h24.4c2.8 0 5 2.2 5 5v1.9c0 2.8-2.2 5-5 5h-24.4c-2.8 0-5-2.2-5-5v-1.9c0-2.8 2.3-5 5-5zm286.8-258.2H539c2.8 0 5 2.2 5 5v1.9c0 2.8-2.2 5-5 5h-24.4c-2.8 0-5-2.2-5-5v-1.9c0-2.8 2.2-5 5-5zm283.2 147.5h24.4c2.8 0 5 2.2 5 5v1.9c0 2.8-2.2 5-5 5h-24.4c-2.8 0-5-2.2-5-5v-1.9c0-2.8 2.2-5 5-5zm2.4-147.5h24.4c2.8 0 5 2.2 5 5v1.9c0 2.8-2.2 5-5 5h-24.4c-2.8 0-5-2.2-5-5v-1.9c0-2.8 2.2-5 5-5z"/><path d="M756.9 518.8c1.5 0 2.6-1.2 2.6-2.6 0-1.5-1.2-2.6-2.6-2.6-1.5 0-2.6 1.2-2.6 2.6 0 1.4 1.1 2.6 2.6 2.6z"/><path opacity=".3" d="M349.4 217.7h358.4c2.9 0 5.2 2.3 5.2 5.2V241c0 2.9-2.3 5.2-5.2 5.2H349.4c-2.9 0-5.2-2.3-5.2-5.2v-18c-.1-2.9 2.3-5.3 5.2-5.3zM227.8 523h43.5c2.8 0 5 2.2 5 5v1.9c0 2.8-2.2 5-5 5h-43.5c-2.8 0-5-2.2-5-5V528c0-2.8 2.3-5 5-5zm0-14.9h97.1c2.8 0 5 2.2 5 5v1.9c0 2.8-2.2 5-5 5h-97.1c-2.8 0-5-2.2-5-5v-1.9c0-2.8 2.3-5 5-5z"/><path d="M164.6 522.6c-3.2 0-5.8 2.5-5.8 5.7 0 2.1-1.8 3.8-3.9 3.8 1.9 2.4 4.7 3.8 7.7 3.8 4.2 0 7.7-3.4 7.7-7.6 0-3.2-2.6-5.8-5.7-5.7zm26.5-17.8l-2.6-2.5c-.8-.7-2-.7-2.7 0l-17.3 17 5.3 5.2 17.3-17c.7-.7.7-1.9 0-2.7z"/><path opacity=".3" d="M227.8 375.4h43.5c2.8 0 5 2.2 5 5v1.9c0 2.8-2.2 5-5 5h-43.5c-2.8 0-5-2.2-5-5v-1.9c0-2.8 2.3-5 5-5zm0-14.9h97.1c2.8 0 5 2.2 5 5v1.9c0 2.8-2.2 5-5 5h-97.1c-2.8 0-5-2.2-5-5v-1.9c0-2.7 2.3-5 5-5z"/><path d="M191.2 378.1L176 362.9c1.5-4 .6-8.6-2.5-11.6-3.3-3.2-8.2-4.1-12.4-2.2l7.2 7.2-5 5-7.3-7.2c-2 4.2-1.1 9.2 2.2 12.4 3 3.1 7.5 4.1 11.5 2.5l15.1 15.3c.6.6 1.6.7 2.3.1l.1-.1 3.8-3.9c.7-.5.9-1.4.4-2.1-.1 0-.1-.1-.2-.2z"/><path opacity=".3" d="M514.6 523h43.5c2.8 0 5 2.2 5 5v1.9c0 2.8-2.2 5-5 5h-43.5c-2.8 0-5-2.2-5-5V528c0-2.8 2.2-5 5-5zm0-14.9h97.1c2.8 0 5 2.2 5 5v1.9c0 2.8-2.2 5-5 5h-97.1c-2.8 0-5-2.2-5-5v-1.9c0-2.8 2.2-5 5-5z"/><path d="M459.4 526c-3.1 1.7-6.8 1.7-9.9 0-3.9 1.2-6.2 5.1-7.1 8.5h24.1c-.8-3.4-3.2-7.3-7.1-8.5zm-4.9-18.4c-4.8 0-8.7 3.9-8.7 8.7 0 4.8 3.9 8.7 8.7 8.7 4.8 0 8.7-3.9 8.7-8.7 0-4.8-3.9-8.7-8.7-8.7zm0 15.3c-2.7-.1-5-1.7-6.1-4.1h12.1c-1 2.5-3.3 4.1-6 4.1z"/><path d="M472.1 521.4c-2.6 1.4-5.6 1.7-8.4.7-.6 1.1-1.4 2-2.3 2.9 2 .9 3.7 2.4 4.9 4.3h12.9c-.8-3.7-3.5-6.7-7.1-7.9zm-5-18.4c-3 0-5.7 1.5-7.3 4 2.7 1.5 4.5 4.1 5.1 7.1h8.3c-1 2.5-3.4 4.1-6.1 4.1-.7 0-1.4-.1-2.1-.4-.1.7-.3 1.4-.5 2.1.8.3 1.7.4 2.6.4 4.8 0 8.7-3.9 8.7-8.7 0-4.7-3.9-8.6-8.7-8.6z"/><path opacity=".3" d="M227.8 633.6h43.5c2.8 0 5 2.2 5 5v1.9c0 2.8-2.2 5-5 5h-43.5c-2.8 0-5-2.2-5-5v-1.9c0-2.8 2.3-5 5-5zm0-14.9h97.1c2.8 0 5 2.2 5 5v1.9c0 2.8-2.2 5-5 5h-97.1c-2.8 0-5-2.2-5-5v-1.9c0-2.7 2.3-5 5-5z"/><path d="M176.6 607.6h-9.8c-1.8 0-3.3 1.4-3.3 3.2v.7h-.6c-1.8 0-3.3 1.4-3.3 3.2v23.6c0 1.8 1.5 3.3 3.3 3.3H180c1.8 0 3.3-1.5 3.2-3.3v-.6h.7c1.8 0 3.3-1.5 3.2-3.3V618l-10.5-10.4zm0 3.7l6.8 6.8h-6.8v-6.8zm3.9 27.1c0 .4-.3.7-.6.7h-17.1c-.4 0-.7-.3-.7-.7v-23.6c0-.4.3-.6.7-.6h.6v21c0 1.8.9 2.7 2.7 2.7h14.4v.5zm3.9-3.9c0 .4-.2.7-.6.7h-17.1c-.4 0-.7-.3-.7-.7v-23.6c0-.4.3-.6.7-.6h7.2v10.5h10.5v13.7z"/><path opacity=".3" d="M514.6 375.4h43.5c2.8 0 5 2.2 5 5v1.9c0 2.8-2.2 5-5 5h-43.5c-2.8 0-5-2.2-5-5v-1.9c0-2.8 2.2-5 5-5zm0-14.9h97.1c2.8 0 5 2.2 5 5v1.9c0 2.8-2.2 5-5 5h-97.1c-2.8 0-5-2.2-5-5v-1.9c0-2.7 2.2-5 5-5z"/><path d="M457.3 353.4h-11.4c-1.9 0-3.5 1.6-3.5 3.5v19.3c0 1.9 1.6 3.5 3.5 3.5h29.8c1.9 0 3.5-1.6 3.5-3.5v-15.3c0-1.9-1.6-3.5-3.5-3.5h-14.9l-3.5-4z"/><path opacity=".3" d="M797.8 523h43.5c2.8 0 5 2.2 5 5v1.9c0 2.8-2.2 5-5 5h-43.5c-2.8 0-5-2.2-5-5V528c0-2.8 2.2-5 5-5zm0-14.9h97.1c2.8 0 5 2.2 5 5v1.9c0 2.8-2.2 5-5 5h-97.1c-2.8 0-5-2.2-5-5v-1.9c0-2.8 2.2-5 5-5z"/><path d="M762.9 509.3l-6.8-.3-.4-4.4c-.1-.9-.9-1.6-1.9-1.5l-24.3 2c-.9 0-1.6.8-1.6 1.7l1.7 19.3c.1.9 1 1.6 1.9 1.5l1.2-.1-.2 3.8c0 1 .8 1.9 1.8 1.9l27.1 1.3c1 .1 1.9-.7 2-1.7l1.1-21.6c.3-1-.5-1.9-1.6-1.9zm-29.1.4l-.6 11.1-1.4 2-1.3-14.6v-.1c.1-.4.4-.7.8-.8l21.4-1.8c.4 0 .8.2.9.6l.2 2.5-18-.9c-1.1.1-2 1-2 2zm27.4 19.5l-7-8.2-3.1 2.8-5.7-6.6-10.1 10.7.9-16.3c.1-.5.5-.8 1-.7l23.9 1.2c.5 0 .8.4.8.8l-.7 16.3z"/><path opacity=".3" d="M800.2 375.4h43.5c2.8 0 5 2.2 5 5v1.9c0 2.8-2.2 5-5 5h-43.5c-2.8 0-5-2.2-5-5v-1.9c0-2.8 2.2-5 5-5zm0-14.9h97.1c2.8 0 5 2.2 5 5v1.9c0 2.8-2.2 5-5 5h-97.1c-2.8 0-5-2.2-5-5v-1.9c0-2.7 2.2-5 5-5z"/><path d="M762.6 351.4c2.9 0 5.3 2.4 5.3 5.3s-2.4 5.3-5.3 5.3-5.3-2.4-5.3-5.3 2.4-5.3 5.3-5.3zm-4.1 11.4l-10.4 6.9-14.4-9.6v-3.5l14.4 9.6 8.3-5.5c-1.6-2.4-1.6-5.5-.1-8h-23.1c-1.9 0-3.5 1.6-3.5 3.5v21.9c0 1.9 1.6 3.5 3.5 3.5H763c1.9 0 3.5-1.6 3.5-3.5v-15.2c-2.4 1.6-5.6 1.6-8-.1z"/><ellipse cx="509.6" cy="746" rx="26.1" ry="5"/><ellipse fill="#3F3D56" cx="509.2" cy="743.9" rx="3" ry="4"/><ellipse fill="#3F3D56" cx="509.2" cy="739" rx="3" ry="4"/><ellipse fill="#3F3D56" cx="509.2" cy="734.2" rx="3" ry="4"/><ellipse fill="#3F3D56" cx="509.2" cy="729.3" rx="3" ry="4"/><ellipse fill="#3F3D56" cx="509.2" cy="724.5" rx="3" ry="4"/><ellipse fill="#3F3D56" cx="509.2" cy="719.6" rx="3" ry="4"/><ellipse fill="#3F3D56" cx="509.2" cy="714.7" rx="3" ry="4"/><path d="M520.6 681.5c.4-.5.8-1.1 1.1-1.7l-8-1.3 8.6.1c1.7-3.6 1.8-7.8.3-11.5l-11.6 6 10.7-7.8c-4-7-12.9-9.4-19.9-5.4-7 4-9.4 12.9-5.4 19.9l1.2 1.8c-.6.8-1.2 1.7-1.7 2.7l10.4 5.4-11-3.7c-1.6 4.7-.7 9.8 2.3 13.7-5 6.3-3.9 15.5 2.4 20.4 6.3 5 15.5 3.9 20.4-2.4 4.1-5.3 4.1-12.7 0-18 4.4-5.5 4.4-12.9.2-18.2z"/><path opacity=".1" d="M494.6 690.5c0 3.3 1.1 6.4 3.1 9-5 6.3-3.9 15.5 2.4 20.4 6.3 5 15.5 3.9 20.4-2.4 4.1-5.3 4.1-12.7 0-18 2-2.5-25.9-10.6-25.9-9z"/><linearGradient id="a" gradientUnits="userSpaceOnUse" x1="459.282" y1="-42.111" x2="459.282" y2="420.13" gradientTransform="matrix(1 0 0 -1 200.84 759.26)"><stop offset="0" stop-color="gray" stop-opacity=".25"/><stop offset=".54" stop-color="gray" stop-opacity=".12"/><stop offset="1" stop-color="gray" stop-opacity=".1"/></linearGradient><path fill="url(#a)" d="M752 390.2c-.4-.9-.8-1.8-1-2.7-.1-1.1.3-2.5-.6-3-.5-.3-1.3-.1-1.7-.5-.3-.3-.5-.8-.5-1.2-.5-1.7-2-2.9-3.8-3 1-2.7 4.7-3.4 6.3-5.8.8-1.2.5-3.4-.9-3.4-.3 0-.7.1-1 .3l-5.3 2.2c-1 .4-2 .9-3 1.4-2.9 1.7-5.1 4.4-7.1 7.1-1.9 2.4-3.4 5.1-4.4 8-.6 1.8-.9 3.6-.9 5.5v.6c-.9.1-1.6.5-2.5.7l-2.1 5.5c-.3.9-.7 1.8-1.3 2.5-.5.4-.9.8-1.5 1.1-2.1 1.8-3.2 4.6-2.9 7.4-3.9 1.5-5.9 5.8-4.7 9.8-3.2.7-5.7 3-6.8 6-.1.7-.4 1.3-.9 1.9-.7.5-1.5.8-2.4.7-2.3.1-4.4 2-6.5 1-2.4-1.1-5.1-1.5-7.7-1.1-.5.1-1.1.2-1.7.1-.5-.1-.9-.2-1.3-.5-.9-.6-2-1-3.1-1.2-1.1-.2-2.2.2-2.9 1.1-.7-.8-1.2-1.9-1.8-2.7-.6-.9-1.7-1.5-2.8-1.4.7-.6 0-1.9-.9-2.1-.9-.1-1.9 0-2.8.1-2.4 0-4.3-2.2-6.7-2.8-2.2-.5-5.1.1-6.2-1.9-.3-.6-.5-1.5-1-1.9-.1-.5-.4-1-.7-1.5-.9-1-2.4-1.2-3.8-1.1-1.5 0-3 .3-4.4.8 0-.2-.1-.4-.2-.6-.9-2.5-2.6-4.6-4.8-5.9-1.8-1-3.7-1.8-5.7-2.3v-.4c0-2.5.4-5 1.2-7.4.1-.3.2-.5.3-.8 14.2-3.7 22.7-18.2 19-32.5-1.2-4.6-3.6-8.8-7-12.2 0-.5-.1-1.1-.2-1.6-.3-1.1-.8-2.2-1.6-3.1-1.2-2.7-3.1-3.9-5.5-5.1-.7-.3-1.4-.6-2.2-1-3.9-1.7-7.6-4.3-12-4.3-4 0-7.9 2.2-11.8 2.1h-1c-1.1-.1-2.4-.4-3.2.5-.2.3-.4.7-.6 1.1-.1.1-.1.3-.2.4-.1.2-.3.5-.5.7-1.3 1.4-3.4 2-5.2 2.9-4 2-6.6 6.2-7.7 10.6s-.7 9 .1 13.4c.4 2.2 1.3 4.7 2.8 6.1s-13.4 9.5-10.9 10.9c1.3.7 6.9-2.8 11.6-6.1 0 .2.1.4.2.6.6 2.1 1.3 4.2 2.2 6.3 1 2.4 2.4 5 4.9 5.7.5.2 1.1.2 1.7.2h.4c.1 3.7-.3 7.3-1.2 10.9-1.5-.1-2.9.3-4.1 1.1-.5.4-1 .8-1.7.9-.6-.1-1.3-.4-1.7-.8-3.7-2.7-8.7-2.4-12.1.6-4.8 4.6-4.3 13.5-10 17-1.6 1-3.6 1.5-4.5 3-.2.5-.5 1-.8 1.5-.4.4-.8.8-1.4 1-1.6.7-3.2 1.6-4.7 2.7s-2.4 2.7-2.7 4.5c0 1.3.3 2.6.8 3.8.9 2.1 1.9 4.1 3.1 6-.7.9-1.1 1.9-1.3 3-.4 2.8.9 5.6 1.1 8.4.1 2.5-.7 4.9-1.1 7.3-1.8 9.5 1.6 19.2 5 28.3.7 1.5 1.1 3 1.2 4.7.1 3-1.6 5.7-2.1 8.6-1 6.1 3.5 11.9 3.6 18.1 0 2.9-.9 5.8-.1 8.5.5 1.8 1.6 3.4 2.4 5.2 1.4 3.1 1.8 6.5 3.2 9.6 1.6 3.4 4.1 6.3 7.1 8.5 1.7 5.5-.7 12.1 0 18 .9-.4 1.9-.7 2.8-1-.6 8.7 1.6 17.4 6.3 24.8 1.5 2.4 3.4 4.7 4.5 7.3.8 1.9 1.4 3.8 1.8 5.8 1.7 7 3.3 14 5 20.9 1.4 5.7 2.7 11.4 2.3 17.2-.3 4-1.3 8.6 1.2 11.8.6.6 1.1 1.3 1.5 2.1.2.9.2 1.8 0 2.7-1.2 6.7-2 13.6-2.5 20.4-.6.8-1.1 1.5-1.6 2.3-4.1 6-6.1 13.2-7.7 20.3-2.9 14-4.7 28.2-5.2 42.4-2.1 1.9-3.8 4-5.3 6.4-2.2 4-2.4 8.7-2.7 13.2-.1.7 0 1.5.2 2.2.5.8 1.3 1.4 2.2 1.7l1.2.6c-.3 1-.5 2-.7 3-1.6-1.8-4.4-4.6-4.9-2.5-1.6 6.9-2.4 13.9-2.6 21-.2 1 .4 1.9 1.4 2.1h.5c6.9 1.2 13.8 1.8 20.8 1.8 5.7 0 11.3-.5 16.9-.9l5.8-.4c5.9-.3 11.8-1 17.7-2.2 2.5-.6 5.2-1.3 7.1-3.1s2.9-4.8 1.5-7.1c-1.6-2.7-5.4-2.9-8.5-3.4-3.1-.4-6.1-1.4-8.9-2.8-.6-.3-1.2-.7-1.8-1 .2 0 .3-.1.5-.1 2.7-.9 4.8-3 7.4-4.3 3-1.5 6.3-1.8 9.6-2.2s6.6-1 9.3-2.9c2.5-1.7 4.3-4.9 3.8-7.9 0-.2-.1-.4-.2-.6-1-3.2-4.5-5-7.8-5.8s-6.8-1.3-9.4-3.4l-.4-.3c-.2-.2-.5-.4-.7-.6.6-1 .9-2.1.8-3.3-.1-1.8-1.2-3.4-1.9-5-1.4-3.3-1.5-6.9-1.9-10.4-.9-8.8-3.7-17.3-5.7-26-.2-1-.5-2-.7-3 2-4.1 4.4-8 7.3-11.6 3.3-4.1 5.6-8.7 7-13.8.4-1.5.7-3.1 1-4.7 3.6-18.1 7-36.1 10.2-54.3.5-2.6.8-5.2.9-7.8.8-2.4 1.3-4.9 1.3-7.4.9-3.7 1.9-7.5 1.1-9.9-.5-1.7-.8-7.5-1.1-13.1.1-3-.1-6-.5-8.9l-.3-1.5c-.1-.3-.1-.5-.2-.8-.4-1.7-1-3.3-1.8-4.9-.4-.9-.8-1.8-1.3-2.7-.3-.5-.6-1-1-1.5 2.1.1 4.2.3 6.2.6.5.1 1.1.1 1.4-.3.1-.2.2-.5.2-.8.1-2.4-.5-4.7-1.6-6.8-.8-1.4-1.9-2.8-1.9-4.4.1-.8.2-1.5.5-2.2l2.8-7.4c2.3-6.3 1.2-13.6 2.5-20.2 1-5.2 1.6-10.4 1.8-15.6.2-4.5.1-9.3-2.6-12.9-.8-.9-1.4-1.8-2-2.8-.4-1.1-.6-2.2-.5-3.4 0-7 .1-14 .4-21 11.8-.3 23.5-1.7 35-4 1.4-.2 2.7-.6 4-1.1 1.4-.7 2.8-1.5 4-2.5 3.9-2.8 7.9-5.7 10.9-9.5 3.6-4.6 5.8-10.1 6.5-15.9 2.8-2.6 4.3-6.4 5.8-10 .7-1.5 1.1-3.2 1.3-4.9.1-1.7-1.1-3.5-.7-5.2.5-2.9 2-5.6 4.2-7.6.5-.3.8-.8 1-1.3.1-.4 0-.9-.2-1.3l-.1-.1c.3-.2.5-.4.8-.5l2.7-2.1c1.3-1 2.5-2.2 3.5-3.5 1.7-1.4 2.1-3.1 1.7-4.8zM623.7 773.5c-.2 0-.5 0-.7.1-.9.1-1.7.4-2.5.7l-.2.1c1.1-2.4 2.1-4.8 3.1-7.3l.3-.9-.1 1.6c-.3 2-.2 3.9.1 5.7z"/><path fill="#EE8E9E" d="M638 409.1c.1 3.9 1.4 7.6 1.6 11.5-11.4.6-22.7-5-34-3.3 3.2-2 4.9-5.7 5.9-9.4 1.3-4.7 1.6-9.6 1.1-14.4 0-.3-.1-.5-.1-.8-.4-1.9-1.5-4.6-1.2-6.1.4-2 2.3-1.6 3.9-1.5 5.1.4 10.2 1.1 15.3 2 1.3.2 14.1 3.4 14.3 3.1-2.3 3.6-4.1 7.4-5.5 11.4-.9 2.5-1.3 5-1.3 7.5zm113-12c-1 1.3-2.2 2.5-3.5 3.5l-2.7 2.1c-1.7 1.3-3.6 2.1-5.7 2.3-2.7.2-8.5-1.4-10.2-3.8-.7-1.2-1.1-2.5-1-3.9 0-1.9.3-3.7.9-5.5 1.1-2.9 2.5-5.6 4.4-8 2-2.7 4.2-5.4 7.1-7.1 1-.5 2-1 3-1.4l5.3-2.2c.3-.2.7-.2 1-.3 1.4 0 1.7 2.2.9 3.4-1.6 2.4-5.3 3-6.3 5.7 1.8.1 3.3 1.2 3.8 3 0 .4.2.9.5 1.2.5.4 1.2.2 1.7.5 1 .5.5 1.9.6 3 .2.9.6 1.8 1 2.7.6 1.7.2 3.4-.8 4.8z"/><path fill="#65617D" d="M593.4 786.5c.9-.9 2.3-.7 3.5-.5 6.6 1 13.3 1.6 20 1.6.8-4.1-1.6-8-2.4-12.1-.1-1.1-.4-2.1-.8-3.1-.9-1.8-3.1-2.6-5-3-3.6-.8-9.2-2.1-11.2 1.5-2.4 4.2-3.2 10.7-4.1 15.6z"/><path fill="#3F3D56" d="M666.5 771c-2.7 1.8-6.1 2.4-9.3 2.8s-6.6.7-9.6 2.2c-2.5 1.3-4.7 3.3-7.4 4.2-2.5.7-5.1.7-7.7.1-3-.6-6.3-1.7-7.9-4.3-1.5-2.3-1.3-5.3-1.1-8 .2-3.1.5-6.2.7-9.3 0-.8.2-1.6.6-2.2 2.2-3.2 7.5 1.3 10.4 1.3 4.5 0 9.4-2.5 12.6-5.5.3-.3.6-.5 1-.7 1.3-.6 2.6.5 3.7 1.4l.4.3c2.6 2.1 6.2 2.5 9.4 3.4s6.8 2.5 7.8 5.8c.1.2.1.4.2.6.5 3-1.3 6.2-3.8 7.9z"/><path fill="#434175" d="M666.5 771c-2.7 1.8-6.1 2.4-9.3 2.8s-6.6.7-9.6 2.2c-2.5 1.3-4.7 3.3-7.4 4.2-2.5.7-5.1.7-7.7.1-3-.6-6.3-1.7-7.9-4.3-1.5-2.3-1.3-5.3-1.1-8 .2-3.1.5-6.2.7-9.3 0-.8.2-1.6.6-2.2 2.2-3.2 7.5 1.3 10.4 1.3 4.5 0 9.4-2.5 12.6-5.5.3-.3.6-.5 1-.7 1.3-.6 2.6.5 3.7 1.4l.4.3c2.6 2.1 6.2 2.5 9.4 3.4s6.8 2.5 7.8 5.8c.1.2.1.4.2.6.5 3-1.3 6.2-3.8 7.9z"/><path fill="#E8EAF2" d="M666.5 772.1c-2.7 1.8-6.1 2.4-9.3 2.8s-6.6.7-9.6 2.2c-2.5 1.3-4.7 3.3-7.4 4.2-2.5.7-5.1.7-7.7.1-3.2-.7-6.1-2.6-7.9-5.3-1.5-2.3-1.3-5.3-1.1-8 .2-3.1.5-6.2.7-9.3 0-.8.2-1.6.6-2.2 2.2-3.2 7.5 1.3 10.4 1.3 4.5 0 9.4-2.5 12.6-5.5.3-.3.6-.5 1-.7 1.3-.6 2.6.5 3.7 1.4-.7 2.3-1.8 4.5-3.2 6.6-2.2 3.5-5.9 5.8-10 6.2-2 .2-4.1-.3-6 .3s-3.8 2.5-3.1 4.4 3.1 2.3 5 2.4c2.7.3 5.5.1 8.2-.6 1.6-.5 3.1-1.4 4.6-2.1 6.6-2.7 15-1.2 20.5-5.8.5-.5 1.1-.9 1.7-1.3 1.5 3-1.2 7.2-3.7 8.9z"/><path opacity=".05" d="M666.5 772.1c-2.7 1.8-6.1 2.4-9.3 2.8s-6.6.7-9.6 2.2c-2.5 1.3-4.7 3.3-7.4 4.2-2.5.7-5.1.7-7.7.1-3.2-.7-6.1-2.6-7.9-5.3-1.5-2.3-1.3-5.3-1.1-8 .2-3.1.5-6.2.7-9.3 0-.8.2-1.6.6-2.2 2.2-3.2 7.5 1.3 10.4 1.3 4.5 0 9.4-2.5 12.6-5.5.3-.3.6-.5 1-.7 1.3-.6 2.6.5 3.7 1.4-.7 2.3-1.8 4.5-3.2 6.6-2.2 3.5-5.9 5.8-10 6.2-2 .2-4.1-.3-6 .3s-3.8 2.5-3.1 4.4 3.1 2.3 5 2.4c2.7.3 5.5.1 8.2-.6 1.6-.5 3.1-1.4 4.6-2.1 6.6-2.7 15-1.2 20.5-5.8.5-.5 1.1-.9 1.7-1.3 1.5 3-1.2 7.2-3.7 8.9z"/><path fill="#696791" d="M594.6 569.4c-2.1 10.3-.1 21.1 5.6 30 1.5 2.4 3.4 4.7 4.5 7.3.8 1.9 1.4 3.8 1.8 5.8l5 20.8c1.4 5.6 2.7 11.3 2.3 17.1-.3 4-1.3 8.5 1.2 11.7.6.6 1.1 1.3 1.5 2 .2.9.2 1.8 0 2.7-2.5 15.1-4.4 30.9.2 45.5 4.2 13.3 4.4 27.9 8 41.3.3 1.7 1 3.3 2.2 4.6.9.8 2.1 1.3 3.3 1.6 5.2 1.3 10.7-.2 15.6-2.5 3.4-1.6 7.1-4.4 6.8-8.1-.1-1.8-1.2-3.4-1.9-5-1.4-3.2-1.5-6.8-1.9-10.3-.9-8.8-3.7-17.3-5.7-25.8s-3.4-17.6-1.7-26.2c3.5-17.9 9.2-35.3 16.9-51.9.3-.9.9-1.7 1.5-2.3.8-.4 1.5-.9 2.2-1.5.5-.8.9-1.8 1-2.7.8-2.7 3-4.8 4.5-7.2 3.8-6.1 2.6-13.9 2.5-21-.1-7 .9-14-.3-20.9s-5-13.9-11.7-16.1c-3.3-1.1-6.8-.8-10.3-.5-18.2 1.8-35.9 5.1-53.1 11.6z"/><path opacity=".1" d="M594.6 570.4c-2.1 10.3-.1 21.1 5.6 30 1.5 2.4 3.4 4.7 4.5 7.3.8 1.9 1.4 3.8 1.8 5.8l5 20.8c1.4 5.6 2.7 11.3 2.3 17.1-.3 4-1.3 8.5 1.2 11.7.6.6 1.1 1.3 1.5 2 .2.9.2 1.8 0 2.7-2.5 15.1-4.4 30.9.2 45.5 4.2 13.3 4.4 27.9 8 41.3.3 1.7 1 3.3 2.2 4.6.9.8 2.1 1.3 3.3 1.6 5.2 1.3 10.7-.2 15.6-2.5 3.4-1.6 7.1-4.4 6.8-8.1-.1-1.8-1.2-3.4-1.9-5-1.4-3.2-1.5-6.8-1.9-10.3-.9-8.8-3.7-17.3-5.7-25.8s-3.4-17.6-1.7-26.2c3.5-17.9 9.2-35.3 16.9-51.9.3-.9.9-1.7 1.5-2.3.8-.4 1.5-.9 2.2-1.5.5-.8.9-1.8 1-2.7.8-2.7 3-4.8 4.5-7.2 3.8-6.1 2.6-13.9 2.5-21-.1-7 .9-14-.3-20.9s-5-13.9-11.7-16.1c-3.3-1.1-6.8-.8-10.3-.5-18.2 1.8-35.9 5.1-53.1 11.6z"/><path fill="#696791" d="M668.9 613.2c-.1 2.7-.4 5.4-.9 8.1-3.2 18-6.6 36-10.3 54-.3 1.6-.6 3.1-1 4.7-1.4 5-3.8 9.7-7 13.7-15.2 18.9-16.5 46.3-24.7 69.1-.6 1.5-1.1 3.1-1.7 4.6-1.5 3.9-3.2 7.6-5.1 11.3-.2.5-.6 1-1 1.3-.5.3-1.1.4-1.7.3-7.4 0-14.7-1.6-21.4-4.9-.9-.4-1.7-1-2.3-1.9-.3-.7-.3-1.4-.2-2.2.2-4.5.5-9.2 2.7-13.2 1.4-2.4 3.2-4.5 5.3-6.4.5-14.2 2.2-28.3 5.2-42.2 1.6-7.1 3.6-14.2 7.7-20.2 3-4.4 7.4-8.8 6.8-14.1-.2-2.3-1.2-5.3.7-6.6.8-.6 2.1-.7 2.6-1.5.2-.4.4-.9.4-1.3.4-3.7.2-7.4-.7-10.9-.7-2.3-1.2-4.7-1.6-7.1-.4-2.4.3-4.9 1.8-6.9.1-4.9 0-9.9.1-14.8.2-2.8 0-5.6-.7-8.3-.4-1.3-.9-2.5-1.2-3.8-1-4.7 1.5-10.3-1.5-14-1.3-1.5-3.2-2.3-4.8-3.4-3.2-2.3-5.6-5.7-6.7-9.6-1.1-3.8-1.7-7.8-1.9-11.7-.1-.8-.1-1.7 0-2.5 0-.4.2-.9.3-1.3.9-2.1 3.5-2.9 5.7-3.5 14.3-3.4 28.9-5.1 43.6-5.1 5.4-3.7 8.5-2.4 10.8 1.5 1.3 2.4 2.3 4.9 3.1 7.5 1 3.2 1.1 21 2.1 24.2 1.3 4.3-2.5 12.8-2.5 17.1z"/><path fill="#434175" d="M570.7 451.3c-.4 2.8.9 5.5 1.1 8.4.1 2.5-.7 4.9-1.1 7.3-1.8 9.5 1.6 19.1 5 28.1.7 1.5 1.1 3 1.2 4.6.1 2.9-1.6 5.6-2.1 8.5-1 6.1 3.5 11.8 3.6 18 0 2.8-.9 5.8-.1 8.5.5 1.8 1.6 3.4 2.4 5.1 1.5 3 1.8 6.5 3.2 9.6 2.5 5.5 7.8 9.2 12.9 12.5 2.9-1 6-2.1 7.6-4.7.7-1.3 1.2-2.7 1.3-4.1 1.1-6.3 1.1-12.8 1-19.2.1-5.5-.2-11.1-.8-16.5-1-7-3.3-13.7-4.9-20.6-2-8.6-3.1-17.6-6.3-25.9-2.8-7.3-7.2-13.8-11.8-20.1-1.8-2.4-3.1-5.8-6.5-5.3-2.9.5-5.2 2.8-5.7 5.8z"/><path opacity=".05" d="M570.7 449.3c-.4 2.8.9 5.5 1.1 8.4.1 2.5-.7 4.9-1.1 7.3-1.8 9.5 1.6 19.1 5 28.1.7 1.5 1.1 3 1.2 4.6.1 2.9-1.6 5.6-2.1 8.5-1 6.1 3.5 11.8 3.6 18 0 2.8-.9 5.8-.1 8.5.5 1.8 1.6 3.4 2.4 5.1 1.5 3 1.8 6.5 3.2 9.6 2.5 5.5 7.8 9.2 12.9 12.5 2.9-1 6-2.1 7.6-4.7.7-1.3 1.2-2.7 1.3-4.1 1.1-6.3 1.1-12.8 1-19.2.1-5.5-.2-11.1-.8-16.5-1-7-3.3-13.7-4.9-20.6-2-8.6-3.1-17.6-6.3-25.9-2.8-7.3-7.2-13.8-11.8-20.1-1.8-2.4-3.1-5.8-6.5-5.3-2.9.5-5.2 2.8-5.7 5.8z"/><path opacity=".1" d="M644.7 390.3c-2.3 3.6-4.1 7.4-5.5 11.4-2.1.5-4.2.8-6.3.8-8.3 0-14.1-4.7-18.9-10.6-.4-1.9-3-3.7-2.7-5.2.4-2 2.3-1.6 3.9-1.5 5.1.4 10.2 1.1 15.3 2 1.2.2 14 3.4 14.2 3.1z"/><circle fill="#EE8E9E" cx="632.8" cy="375.3" r="26.4"/><path opacity=".1" d="M666.2 564.6c-4.6-.3-9.2-.1-13.8.1-2.9 0-5.7.3-8.5.9-3.5.8-6.7 2.4-10.1 3.4-5.5 1.6-11.3 1.7-16.9 2.2-3.7.4-7.4.9-11.1 1.7 0-.4.2-.9.3-1.3.9-2.1 3.5-2.9 5.7-3.5 14.3-3.4 28.9-5.1 43.6-5.1 5.4-3.6 8.5-2.4 10.8 1.6z"/><path fill="#434175" d="M648.2 418.6c-1.2 1.3-2.7 2.8-4.4 2.4-.6-.2-1.2-.5-1.7-.9-3-2-6.8-2.4-10.4-3-7.2-1.1-14.4-2.7-21.3-4.8-2-.7-4.2-1.2-6.3-1.3-4.5 0-8.4 3-11.2 6.5s-4.8 7.6-7.5 11.1c-2 2.5-4.3 4.7-6.1 7.4-4.6 6.6-5.6 15.2-4.4 23.1s4.4 15.5 7.5 22.9c1.7 4.3 3.7 8.5 6.1 12.5-1.1 6-.5 13 2.4 18.4.9 1.8 2.1 3.5 2.4 5.5.1 1.3.1 2.7-.2 4l-1.3 9.6c-.4 2.9-.8 5.8-1.3 8.7-1 5.3-2.3 11 .2 15.8 2.9 5.7-.2 13.1.6 19.5 8.3-3.2 16.9-5.2 25.7-6.1 5.7-.6 11.5-.6 16.9-2.2 3.4-1 6.7-2.6 10.1-3.4 2.8-.6 5.7-.8 8.5-.9 6.3-.3 12.7-.5 19 .4.5.1 1.1.1 1.4-.3.1-.2.2-.5.2-.8.1-2.3-.5-4.7-1.6-6.7-.8-1.4-1.9-2.8-1.9-4.4.1-.8.2-1.5.5-2.2l2.8-7.4c2.3-6.3 1.2-13.5 2.5-20.1 1-5.1 1.6-10.3 1.8-15.5.2-4.5.1-9.3-2.6-12.8-.8-.9-1.4-1.8-2-2.8-.4-1.1-.6-2.2-.5-3.4-.1-8.9.2-17.8.7-26.7-2.3-4.2-4.8-8.5-7.1-12.7-2.7-4.9-5.5-9.9-6.6-15.4-.7-3.6-.7-7.4-1.2-11-.1-.9-.4-1.8-.9-2.6-1-.9-2.4-1.3-3.8-1.1-1.7-.2-3.4.1-5 .7z"/><path opacity=".1" d="M744.9 402.7c-1.7 1.3-3.6 2.1-5.7 2.3-2.7.2-8.5-1.4-10.2-3.8-.7-1.2-1.1-2.5-1-3.9.4-.1.8-.2 1.1-.2 3-.3 5.9-.2 8.9.4 2.8.7 5.6 2.5 6.9 5.2z"/><path fill="#434175" d="M657 459.8c1.6 2 3.3 4.1 5.6 5.3 2.6 1.4 5.7 1.4 8.7 1.3 12.2-.3 24.3-1.6 36.2-4 1.4-.2 2.7-.6 4-1.1 1.4-.7 2.8-1.5 4-2.5 3.9-2.8 7.9-5.7 10.9-9.5 3.6-4.6 5.8-10.1 6.5-15.9 2.8-2.6 4.3-6.3 5.8-9.9.7-1.5 1.1-3.2 1.3-4.8.1-1.7-1.1-3.5-.7-5.2.5-2.9 2-5.5 4.2-7.5.5-.3.8-.8 1-1.3.1-.4 0-.9-.2-1.3-1.2-2.7-4-4.5-6.9-5.2-2.9-.6-5.9-.7-8.9-.4-1 .2-2 .4-2.9.8l-2.1 5.4c-.3.9-.7 1.8-1.3 2.5-.5.4-.9.8-1.5 1.1-2.1 1.8-3.2 4.6-2.9 7.3-3.9 1.5-5.9 5.8-4.7 9.7-3.2.7-5.7 3-6.8 6-.1.7-.5 1.3-.9 1.9-.7.5-1.5.8-2.3.8-2.3.1-4.4 2-6.5 1-2.4-1.1-5.1-1.5-7.7-1.1-.5.1-1.1.2-1.7.1-.5-.1-.9-.2-1.3-.5-1-.6-2-1-3.1-1.2-1.1-.2-2.2.2-2.9 1.1-.7-.8-1.2-1.9-1.8-2.7-.6-.9-1.7-1.5-2.8-1.4.7-.6 0-1.9-.9-2.1-.9-.1-1.9 0-2.8.1-2.4 0-4.3-2.2-6.7-2.8-2.2-.5-5.1.1-6.2-1.8-.4-.7-.5-1.6-1.1-2-.5-.2-1-.3-1.5-.2-1.5.2-3.1.7-4.5 1.4-2.3 9-1.1 18.2.7 27.3.5 4.2 2.1 8.1 4.7 11.3z"/><path opacity=".1" d="M656.9 491.9l-11.4 22.9c1.2-2.1 3.8-3 5.9-4.3 2.6-1.9 4.5-4.5 5.6-7.5 1-3 1.7-6.1 2.2-9.3.2-1.5.7-3.5 0-4.8-1.3.2-1.7 1.9-2.3 3zm-32.7 19.5c-2.6 2.5-5.7 4.4-8.5 6.7-6.6 5.3-11.3 12.5-15.9 19.5-1.3 1.8-2.4 3.8-3.3 5.9.5.5 1.3 0 1.9-.5l8.9-7.8c1.1-.9 2.1-1.9 3-3 1.5-2.1 2.2-4.7 3.7-6.9 1.5-2.1 3.4-4 5.4-5.5 2-1.8 11.5-9.7 9.2-12.8-1.7.7-3 3-4.4 4.4z"/><path fill="#434175" d="M643.7 412c-2.9-1.6-6.1-2.7-9.5-3.1-2-.4-4-.6-6-.4-1.9.2-3.7 1-5.5 1-2.6.1-5.1-.9-7.7-1.6s-5.5-1-7.6.6c-.5.4-1 .8-1.7.9-.6-.1-1.2-.4-1.7-.8-3.7-2.6-8.7-2.4-12.1.6-4.8 4.5-4.3 13.4-10 16.9-1.6 1-3.6 1.5-4.5 3-.2.5-.5 1-.8 1.5-.4.4-.8.8-1.4 1-1.6.7-3.2 1.6-4.7 2.7s-2.4 2.7-2.7 4.5c0 1.3.3 2.6.8 3.8 5.7 14 19.6 22.8 34.6 22.1 1.3.1 2.6-.3 3.6-1.1.5-.6 1-1.3 1.3-2.1 2.7-5.6 7.7-9.7 10.9-15 1.9-3.2 3.1-6.7 5.1-9.8 3-4.7 7.5-8.2 12-11.6 2.5-1.9 5.3-3.9 8.5-3.8 2.8.1 4.9.3 3.8-3.2-.7-2.7-2.4-4.8-4.7-6.1z"/><path opacity=".05" d="M643.7 412c-2.9-1.6-6.1-2.7-9.5-3.1-2-.4-4-.6-6-.4-1.9.2-3.7 1-5.5 1-2.6.1-5.1-.9-7.7-1.6s-5.5-1-7.6.6c-.5.4-1 .8-1.7.9-.6-.1-1.2-.4-1.7-.8-3.7-2.6-8.7-2.4-12.1.6-4.8 4.5-4.3 13.4-10 16.9-1.6 1-3.6 1.5-4.5 3-.2.5-.5 1-.8 1.5-.4.4-.8.8-1.4 1-1.6.7-3.2 1.6-4.7 2.7s-2.4 2.7-2.7 4.5c0 1.3.3 2.6.8 3.8 5.7 14 19.6 22.8 34.6 22.1 1.3.1 2.6-.3 3.6-1.1.5-.6 1-1.3 1.3-2.1 2.7-5.6 7.7-9.7 10.9-15 1.9-3.2 3.1-6.7 5.1-9.8 3-4.7 7.5-8.2 12-11.6 2.5-1.9 5.3-3.9 8.5-3.8 2.8.1 4.9.3 3.8-3.2-.7-2.7-2.4-4.8-4.7-6.1z"/><path fill="#434175" d="M657.5 794.7c-1.9 1.8-4.5 2.6-7.1 3.1-5.8 1.1-11.7 1.9-17.7 2.2l-5.8.4c-5.6.4-11.3.9-16.9.9-7 0-13.9-.6-20.8-1.8-.6 0-1.2-.3-1.7-.8-.2-.4-.3-.9-.3-1.3.1-7 1-14 2.6-20.9.7-2.8 5.7 3.5 5.9 3.8 1.1 1.5 2.8 2.4 4.6 2.4 5.8.3 12.3-3.2 16.9-6.3 1-.7 2-1.4 3.1-2 .8-.4 1.7-.6 2.5-.7 3-.3 6 .3 8.6 1.8 3.5 1.7 6.5 4.2 10 6 2.8 1.4 5.8 2.4 8.9 2.8 3.1.4 6.9.6 8.5 3.4 1.5 2.2.6 5.3-1.3 7z"/><path fill="#E8EAF2" d="M657.5 795.8c-1.9 1.8-4.5 2.6-7.1 3.1-5.8 1.1-11.7 1.9-17.7 2.2l-5.8.4c-5.6.4-11.3.9-16.9.9-7 0-13.9-.6-20.8-1.8-.6 0-1.2-.3-1.7-.8-.5-.7-1-1.5-1.3-2.4.1-7 2-14 3.6-20.9.7-2.8 5.7 3.5 5.9 3.8 1.1 1.5 2.8 2.4 4.6 2.4 5.8.3 12.3-3.2 16.9-6.3 1-.7 2-1.4 3.1-2 .8-.4 1.7-.6 2.5-.7-.8 4.2-6.7 9.2-9.8 10.8-6.3 3.1-13.7 1.5-20.7 1.9-.5 0-1 .1-1.5.3-.8.6-.9 1.8-.9 2.8.1 1.7.3 3.6 1.7 4.5.7.3 1.5.5 2.3.5 17.2.8 34.5.1 51.6-1.8 2.9-.2 5.7-.8 8.4-1.9 1.8-.8 3.4-1.9 4.9-3.1 2.4 1.7.6 6.3-1.3 8.1z"/><path fill="#434175" d="M643.1 375.1c-.1 2.7 1.8 8-3.3 6.5-3-.9-3.9-4.5-7.8-3.7s-4.8 5.6-6.1 8.7c-2.2 5-6.6 8.7-12 9.7-1.1.3-2.2.3-3.3 0-2.5-.7-3.9-3.3-4.9-5.7-.9-2-1.6-4.1-2.2-6.2-.4-1.5-.7-3-.8-4.6-.1-1-.1-2.1 0-3.1.5-6.2 4-11.9 8.5-16.1s10-7.4 15.5-10.4c1.8-1.1 3.7-2 5.7-2.5 2-.4 4-.5 6-.2 2.6.1 5.2.7 7.7 1.8 1 .5 1.9 1.1 2.7 1.9 1.1 1 1.9 2.4 2.3 3.9 1 4-1.6 7.6-3.7 10.8-1.9 2.7-4.2 5.6-4.3 9.2z"/><path opacity=".1" d="M729 433.7c-1.1-2.8-5.7-10.4-4.3-13 1.4 2 2.6 4 3.5 6.2.8 2.2.1 5 .8 6.8zm-81.5-68c2.1-3.2 4.6-6.8 3.7-10.8-.5-1.8-1.5-3.3-3-4.4.3.6.6 1.2.8 1.9 1 4-1.6 7.6-3.7 10.8-1.8 2.8-4.1 5.8-4.3 9.3-.1 2.7 1.8 8-3.3 6.5-3-.9-3.9-4.5-7.8-3.7s-4.8 5.6-6.1 8.7c-2.2 5-6.6 8.7-12 9.7-1.1.3-2.2.3-3.3 0-.6-.2-1.1-.4-1.6-.8.8 1.6 2.1 2.8 3.8 3.3 1.1.3 2.2.3 3.3 0 5.4-1.1 9.8-4.7 12-9.7 1.3-3.1 2.2-7.9 6.1-8.7s4.7 2.8 7.8 3.7c5.1 1.5 3.2-3.8 3.3-6.5.1-3.5 2.4-6.4 4.3-9.3z"/><path opacity=".1" d="M648.6 360.3c-.5.8-1 1.5-1.6 2.2-1.1 1.4-2.3 2.6-3.6 3.7-.8.7-1.6 1.3-2.4 1.9-1.6 1.1-3.2 2.1-4.9 3-5.1 2.4-10.4 4.3-15.8 5.6l-10.5 3.1c-1.3 1-3.7 2.7-6.3 4.6-.4-1.5-.7-3-.8-4.6-.1-1-.1-2.1 0-3.1.5-6.2 4-11.9 8.5-16.1s10-7.4 15.5-10.4c1.8-1.1 3.7-2 5.7-2.5 2-.4 4-.5 6-.2 2.6.1 5.2.7 7.7 1.8 1 .5 1.9 1.1 2.7 1.9.6.9 1.1 1.8 1.3 2.9.6 2-.3 4.3-1.5 6.2z"/><path d="M648.6 359.6c-.5.8-1 1.5-1.6 2.2-1.1 1.4-2.3 2.6-3.6 3.7-.8.7-1.6 1.3-2.4 1.9-1.6 1.1-3.2 2.1-4.9 3-5.1 2.4-10.4 4.3-15.8 5.6l-10.5 3.1c-3.7 2.8-16 11.9-18.1 10.8-2.4-1.3 10.9-10.8 10.9-10.8l.6.5c-2-1.2-3-4.1-3.4-6.5-.8-4.4-1.2-9-.1-13.4s3.7-8.5 7.7-10.5c1.8-.9 3.9-1.5 5.2-2.9.2-.2.4-.4.5-.7.1-.1.1-.2.2-.4.1-.4.3-.8.6-1.1.7-.8 2.1-.6 3.2-.5h1c4 .1 7.8-2.1 11.8-2.1 4.4 0 8.1 2.5 12 4.3.8.4 1.5.7 2.2 1 2.8 1.3 4.9 2.7 6 6.4.6 2.2-.3 4.5-1.5 6.4z"/><path opacity=".1" d="M617.9 343.6c.5.8.3 1.8-.4 2.3-.5.3-1.1.6-1.7.6-.4.1-.9.1-1.3.1-.6 0-1.2-.1-1.7-.3-.1-.1-.2-.1-.3-.2.2-.2.4-.4.5-.7.1.1.2.1.6 0 .7 0 1.4-.2 2.1-.4.3-.1.6-.2.8-.4.4-.3.6-.7.8-1.1l.6.1zm-15 35.4c.6.3 1.2.6 1.8.7.5.1.9.2 1.4.2 1.2-.1 2.4-.4 3.5-1"/></svg>