<svg xmlns="http://www.w3.org/2000/svg" viewBox="0 0 948.4 758"><path opacity=".1" d="M201.3 130h71.1c4.1 0 7.4 3.3 7.4 7.4v11.1c0 4.1-3.3 7.4-7.4 7.4h-71.1c-4.1 0-7.4-3.3-7.4-7.4v-11.1c0-4.1 3.3-7.4 7.4-7.4zm0-39h71.1c4.1 0 7.4 3.3 7.4 7.4v11.1c0 4.1-3.3 7.4-7.4 7.4h-71.1c-4.1 0-7.4-3.3-7.4-7.4V98.4c0-4.1 3.3-7.4 7.4-7.4zm90 26h71.1c4.1 0 7.4 3.3 7.4 7.4v11.1c0 4.1-3.3 7.4-7.4 7.4h-71.1c-4.1 0-7.4-3.3-7.4-7.4v-11.1c0-4.1 3.3-7.4 7.4-7.4zm190 13h71.1c4.1 0 7.4 3.3 7.4 7.4v11.1c0 4.1-3.3 7.4-7.4 7.4h-71.1c-4.1 0-7.4-3.3-7.4-7.4v-11.1c0-4.1 3.3-7.4 7.4-7.4zm0-39h71.1c4.1 0 7.4 3.3 7.4 7.4v11.1c0 4.1-3.3 7.4-7.4 7.4h-71.1c-4.1 0-7.4-3.3-7.4-7.4V98.4c0-4.1 3.3-7.4 7.4-7.4zm90 26h71.1c4.1 0 7.4 3.3 7.4 7.4v11.1c0 4.1-3.3 7.4-7.4 7.4h-71.1c-4.1 0-7.4-3.3-7.4-7.4v-11.1c0-4.1 3.3-7.4 7.4-7.4zm-370-78h71.1c4.1 0 7.4 3.3 7.4 7.4v11.1c0 4.1-3.3 7.4-7.4 7.4h-71.1c-4.1 0-7.4-3.3-7.4-7.4V46.4c0-4.1 3.3-7.4 7.4-7.4zm90 26h71.1c4.1 0 7.4 3.3 7.4 7.4v11.1c0 4.1-3.3 7.4-7.4 7.4h-71.1c-4.1 0-7.4-3.3-7.4-7.4V72.4c0-4.1 3.3-7.4 7.4-7.4zm90 26h71.1c4.1 0 7.4 3.3 7.4 7.4v11.1c0 4.1-3.3 7.4-7.4 7.4h-71.1c-4.1 0-7.4-3.3-7.4-7.4V98.4c0-4.1 3.3-7.4 7.4-7.4zm-180-91h71.1c4.1 0 7.4 3.3 7.4 7.4v11.1c0 4.1-3.3 7.4-7.4 7.4h-71.1c-4.1 0-7.4-3.3-7.4-7.4V7.4c0-4.1 3.3-7.4 7.4-7.4zm90 26h71.1c4.1 0 7.4 3.3 7.4 7.4v11.1c0 4.1-3.3 7.4-7.4 7.4h-71.1c-4.1 0-7.4-3.3-7.4-7.4V33.4c0-4.1 3.3-7.4 7.4-7.4zm90 26h71.1c4.1 0 7.4 3.3 7.4 7.4v11.1c0 4.1-3.3 7.4-7.4 7.4h-71.1c-4.1 0-7.4-3.3-7.4-7.4V59.4c0-4.1 3.3-7.4 7.4-7.4zm100-13h71.1c4.1 0 7.4 3.3 7.4 7.4v11.1c0 4.1-3.3 7.4-7.4 7.4h-71.1c-4.1 0-7.4-3.3-7.4-7.4V46.4c0-4.1 3.3-7.4 7.4-7.4zm90 26h71.1c4.1 0 7.4 3.3 7.4 7.4v11.1c0 4.1-3.3 7.4-7.4 7.4h-71.1c-4.1 0-7.4-3.3-7.4-7.4V72.4c0-4.1 3.3-7.4 7.4-7.4zm90 26h71.1c4.1 0 7.4 3.3 7.4 7.4v11.1c0 4.1-3.3 7.4-7.4 7.4h-71.1c-4.1 0-7.4-3.3-7.4-7.4V98.4c0-4.1 3.3-7.4 7.4-7.4zm-180-91h71.1c4.1 0 7.4 3.3 7.4 7.4v11.1c0 4.1-3.3 7.4-7.4 7.4h-71.1c-4.1 0-7.4-3.3-7.4-7.4V7.4c0-4.1 3.3-7.4 7.4-7.4zm90 26h71.1c4.1 0 7.4 3.3 7.4 7.4v11.1c0 4.1-3.3 7.4-7.4 7.4h-71.1c-4.1 0-7.4-3.3-7.4-7.4V33.4c0-4.1 3.3-7.4 7.4-7.4zm90 26h71.1c4.1 0 7.4 3.3 7.4 7.4v11.1c0 4.1-3.3 7.4-7.4 7.4h-71.1c-4.1 0-7.4-3.3-7.4-7.4V59.4c0-4.1 3.3-7.4 7.4-7.4zm-460 541h71.1c4.1 0 7.4 3.3 7.4 7.4v11.1c0 4.1-3.3 7.4-7.4 7.4h-71.1c-4.1 0-7.4-3.3-7.4-7.4v-11.1c0-4.1 3.3-7.4 7.4-7.4zm90 26h71.1c4.1 0 7.4 3.3 7.4 7.4v11.1c0 4.1-3.3 7.4-7.4 7.4h-71.1c-4.1 0-7.4-3.3-7.4-7.4v-11.1c0-4.1 3.3-7.4 7.4-7.4zm90 26h71.1c4.1 0 7.4 3.3 7.4 7.4v11.1c0 4.1-3.3 7.4-7.4 7.4h-71.1c-4.1 0-7.4-3.3-7.4-7.4v-11.1c0-4.1 3.3-7.4 7.4-7.4zm-180-91h71.1c4.1 0 7.4 3.3 7.4 7.4v11.1c0 4.1-3.3 7.4-7.4 7.4h-71.1c-4.1 0-7.4-3.3-7.4-7.4v-11.1c0-4.1 3.3-7.4 7.4-7.4zm90 26h71.1c4.1 0 7.4 3.3 7.4 7.4v11.1c0 4.1-3.3 7.4-7.4 7.4h-71.1c-4.1 0-7.4-3.3-7.4-7.4v-11.1c0-4.1 3.3-7.4 7.4-7.4zm90 26h71.1c4.1 0 7.4 3.3 7.4 7.4v11.1c0 4.1-3.3 7.4-7.4 7.4h-71.1c-4.1 0-7.4-3.3-7.4-7.4v-11.1c0-4.1 3.3-7.4 7.4-7.4zm100-13h71.1c4.1 0 7.4 3.3 7.4 7.4v11.1c0 4.1-3.3 7.4-7.4 7.4h-71.1c-4.1 0-7.4-3.3-7.4-7.4v-11.1c0-4.1 3.3-7.4 7.4-7.4zm90 26h71.1c4.1 0 7.4 3.3 7.4 7.4v11.1c0 4.1-3.3 7.4-7.4 7.4h-71.1c-4.1 0-7.4-3.3-7.4-7.4v-11.1c0-4.1 3.3-7.4 7.4-7.4zm90 26h71.1c4.1 0 7.4 3.3 7.4 7.4v11.1c0 4.1-3.3 7.4-7.4 7.4h-71.1c-4.1 0-7.4-3.3-7.4-7.4v-11.1c0-4.1 3.3-7.4 7.4-7.4zm-180-91h71.1c4.1 0 7.4 3.3 7.4 7.4v11.1c0 4.1-3.3 7.4-7.4 7.4h-71.1c-4.1 0-7.4-3.3-7.4-7.4v-11.1c0-4.1 3.3-7.4 7.4-7.4zm90 26h71.1c4.1 0 7.4 3.3 7.4 7.4v11.1c0 4.1-3.3 7.4-7.4 7.4h-71.1c-4.1 0-7.4-3.3-7.4-7.4v-11.1c0-4.1 3.3-7.4 7.4-7.4zm90 26h71.1c4.1 0 7.4 3.3 7.4 7.4v11.1c0 4.1-3.3 7.4-7.4 7.4h-71.1c-4.1 0-7.4-3.3-7.4-7.4v-11.1c0-4.1 3.3-7.4 7.4-7.4zm-460-104h71.1c4.1 0 7.4 3.3 7.4 7.4v11.1c0 4.1-3.3 7.4-7.4 7.4h-71.1c-4.1 0-7.4-3.3-7.4-7.4v-11.1c0-4.1 3.3-7.4 7.4-7.4zm90 26h71.1c4.1 0 7.4 3.3 7.4 7.4v11.1c0 4.1-3.3 7.4-7.4 7.4h-71.1c-4.1 0-7.4-3.3-7.4-7.4v-11.1c0-4.1 3.3-7.4 7.4-7.4zm90 26h71.1c4.1 0 7.4 3.3 7.4 7.4v11.1c0 4.1-3.3 7.4-7.4 7.4h-71.1c-4.1 0-7.4-3.3-7.4-7.4v-11.1c0-4.1 3.3-7.4 7.4-7.4zm-90-65h71.1c4.1 0 7.4 3.3 7.4 7.4v11.1c0 4.1-3.3 7.4-7.4 7.4h-71.1c-4.1 0-7.4-3.3-7.4-7.4v-11.1c0-4.1 3.3-7.4 7.4-7.4zm90 26h71.1c4.1 0 7.4 3.3 7.4 7.4v11.1c0 4.1-3.3 7.4-7.4 7.4h-71.1c-4.1 0-7.4-3.3-7.4-7.4v-11.1c0-4.1 3.3-7.4 7.4-7.4zm100-13h71.1c4.1 0 7.4 3.3 7.4 7.4v11.1c0 4.1-3.3 7.4-7.4 7.4h-71.1c-4.1 0-7.4-3.3-7.4-7.4v-11.1c0-4.1 3.3-7.4 7.4-7.4zm90 26h71.1c4.1 0 7.4 3.3 7.4 7.4v11.1c0 4.1-3.3 7.4-7.4 7.4h-71.1c-4.1 0-7.4-3.3-7.4-7.4v-11.1c0-4.1 3.3-7.4 7.4-7.4zm90 26h71.1c4.1 0 7.4 3.3 7.4 7.4v11.1c0 4.1-3.3 7.4-7.4 7.4h-71.1c-4.1 0-7.4-3.3-7.4-7.4v-11.1c0-4.1 3.3-7.4 7.4-7.4zm-90-65h71.1c4.1 0 7.4 3.3 7.4 7.4v11.1c0 4.1-3.3 7.4-7.4 7.4h-71.1c-4.1 0-7.4-3.3-7.4-7.4v-11.1c0-4.1 3.3-7.4 7.4-7.4zm90 26h71.1c4.1 0 7.4 3.3 7.4 7.4v11.1c0 4.1-3.3 7.4-7.4 7.4h-71.1c-4.1 0-7.4-3.3-7.4-7.4v-11.1c0-4.1 3.3-7.4 7.4-7.4zM482.4 686c242.2 0 438.5 16.1 438.5 36s-196.3 36-438.5 36-438.5-16.1-438.5-36 196.3-36 438.5-36z"/><path d="M84.7 186.8c41.3 17.9 65.1 55 65.1 55s-43.3 8-84.7-9.9-65.1-55-65.1-55 43.3-8 84.7 9.9zM211.6 118c12.8-21 34.6-31 34.6-31s1 23.9-11.8 44.9-34.6 30.9-34.6 30.9-1-23.9 11.8-44.8zm645.9 583.9c0-50.8 35.2-91.9 78.7-91.9M78.6 712.7c0-40.4 28-73.1 62.6-73.1"/><path fill="#46455B" d="M22.5 640.4c0 40 25.1 72.3 56.1 72.3M787 611c0 50.2 31.5 90.9 70.5 90.9"/><path d="M42.8 644c0 38 16 68.7 35.8 68.7m733.9-97.1c0 47.7 20.1 86.3 44.9 86.3"/><path fill="#46455B" d="M78.6 712.7c0-51.7 32.3-93.5 72.3-93.5m706.6 82.7c0-64.9 40.7-117.5 90.9-117.5M117.5 140.5c9.2 32.7 34.4 54.2 34.4 54.2s10.4-31.5 1.2-64.1-34.4-54.2-34.4-54.2-10.3 31.4-1.2 64.1z"/><path fill="#3F3D56" d="M126.1 139h714.6c4 0 7.2 3.2 7.2 7.2v350.6c0 4-3.2 7.2-7.2 7.2H126.1c-4 0-7.2-3.2-7.2-7.2V146.2c0-4 3.2-7.2 7.2-7.2z"/><path opacity=".1" d="M118.9 482h729v14.8c0 4-3.2 7.2-7.2 7.2H126.1c-4 0-7.2-3.2-7.2-7.2V482z"/><path d="M192.4 455h49c1.4 0 2.5 1.1 2.5 2.5v22c0 1.4-1.1 2.5-2.5 2.5h-49c-1.4 0-2.5-1.1-2.5-2.5v-22c0-1.4 1.1-2.5 2.5-2.5zm68.5 23h33c1.1 0 2 .9 2 2s-.9 2-2 2h-33c-1.1 0-2-.9-2-2s.9-2 2-2zM226 210.4c26.4 4.9 53.3 0 79.6-3.3l79.9-10c3.2-.4 7.9-2.3 9.8 1.6 1.1 2.2.4 7 .4 9.5.2 7 .2 14 0 21-.4 13.4-1.3 26.7-2.6 40.1-2.4 26.1-5.9 52-7.6 78.2-.9 13.3-1.3 26.7-.9 40 .1 3.2.2 6.4.4 9.5.2 3.5 1.8 8.8-2.1 11.2-2.2 1.4-6.6 1.3-9.1 1.7-4 .6-8 1.1-12.1 1.5-26.9 2.7-54.1 1.6-81.1 1.4l-81.5-.4-19.9-.1c-1.8 0-8.3 1.1-9.4-1.1-.5-.9.8-5.2 1-6.3.3-1.9.6-3.8 1-5.6 2.3-13.1 5.1-26.2 7.8-39.3 5.9-28 12-56.1 14.4-84.7 1.2-14.4.4-28.8 1.9-43.2.7-6.6 1.5-21.5 10.4-22.1 7.5-.5 15.2 0 22.7 0 .8 0 1.5-.7 1.5-1.5s-.7-1.5-1.5-1.5c-7.1 0-14.2-.2-21.3-.1-4.7.1-8 1.2-10.3 5.6-5.8 11.1-5.2 26-5.3 38.2-.4 29.1-4.9 57.6-10.7 86.1-2.9 14.3-6.1 28.6-9 43-1.4 6.9-2.7 13.7-3.9 20.6-.6 3.3-3.4 10.5-.9 13.5s10.1 1.4 13.6 1.4l23.9.1 45.7.3c29.5.2 59.2 1 88.7.1 14.1-.4 29-1 42.7-4.4 4.1-1 6.1-2.9 6.2-7.2.2-6.8-.9-13.7-1-20.5-1-58.1 12.6-115.4 11.3-173.5-.1-3.9 1.4-13.9-2.9-16.3-1.9-1.1-4.5-.5-6.5-.3-3.9.4-7.8 1-11.7 1.5l-50.6 6.3c-16.2 2-32.4 4.2-48.6 6-17.2 2-34.5 3.2-51.6 0-1.9-.4-2.7 2.5-.8 2.9v.1zm-31.8 35.3l199.8-9.8c1.9-.1 1.9-3.1 0-3l-199.8 9.8c-1.9.1-1.9 3.1 0 3zm61.5-24.7c-1.9 2-1.8 5.2.2 7.1.5.4 1 .8 1.6 1 2.7 1.2 5.9.2 8.5-.5 4-1 8-1.9 12.1-2.6 8.9-1.6 18-2.4 27.1-2.5 4.1-.1 8.3.1 12.4.3 3 .1 6.2.4 8.8-1.5 2.9-2.1 3.8-6.3 1-8.8-4-3.6-12.6-1.5-17.2-1.1-16.8 1.4-33.4 3.9-49.9 7.4-1.9.4-1.1 3.3.8 2.9 10.8-2.3 21.8-4.2 32.8-5.6 5.4-.7 10.8-1.2 16.3-1.7 2.6-.2 5.1-.4 7.7-.6 1-.1 2.1-.2 3.1-.1 3.2.1 3.5-.5 1.6 3.3-1.7 3.4-1.1 3-4.1 2.9-1.2 0-2.5-.1-3.7-.2-2.5-.1-5.1-.2-7.6-.2-5.4 0-10.8.3-16.2.8-4.6.4-9.1 1.1-13.6 1.9-2.8.5-5.6 1.1-8.4 1.7-1.2.3-2.5.6-3.7.9-.6.2-1.2.3-1.8.4-2.2.8-4-.2-5.6-3 1.3-1.4-.8-3.6-2.2-2.2zm36.3 42.7c-14.5-.6-30.1 3.4-39.6 15-7.5 9.1-11.7 24.7-3.8 35 8.5 11 27.1 9.1 38.3 4.4 11.9-5 24.9-15.3 28.5-28.2 4.5-16.1-10-28.3-25-28.5-1.9 0-1.9 3 0 3 8.6.1 17 3.8 21 11.8 4.2 8.4.6 17.3-5 24-8.9 10.7-22.9 18.8-37.2 18.6-8.5-.1-18-3.1-20.6-12.1-2.2-7.3-.5-15.3 3.3-21.8 8.2-14 25-18.7 40.3-18.1 1.8 0 1.8-3-.2-3.1zm-14.4 22.2c-2-.7-4.3.3-5 2.3-.2.5-.3 1.1-.2 1.7.3 3.9 4.6 5 7.8 4.8 2.8-.2 6-1.3 5.1-4.8-.4-1.2-1.3-2.3-2.4-2.8-.9-.4-1.9-.5-2.8-.4-.4 0-3.8 1.2-2.3-.3l-2.4-.3c.5.5.8 1.3.7 2 0 .8.7 1.5 1.5 1.5.3 0 .5-.1.7-.2 1-.4 2.2.1 2.6 1.1.2.4.2.8.1 1.3-.2.8.3 1.6 1.1 1.8.6.1 1.3-.1 1.6-.7 1-1.8 2.2-5.4.7-7.3-1-1.3-2.9-.9-4.1-.1-.7.5-1.4 1.1-2.1 1.8-1.2 1.1-2 1.6-1.5-.5.8-3.7 4.3-6.7 7.6-8.2l-2.2-1.7c-1.2 4.3-3.2 8.4-6 11.9l2.6 1.1c-.1-2.8 1.5-5.4 4.1-6.5h-1.5l.8 1.3c-.3 1.9 2.6 2.7 2.9.8.4-2.5-1.2-5.7-4.1-4.5-3.5 1.4-5.2 5.4-5.2 8.9 0 1.2 1.7 2.1 2.6 1.1 3.2-3.9 5.5-8.4 6.8-13.2.2-.8-.3-1.6-1.1-1.8-.4-.1-.8 0-1.1.1-3 1.4-5.5 3.6-7.3 6.3-1.2 2-2.8 5.1-1.5 7.4.8 1.5 2.8 2.1 4.3 1.2.9-.5 1.8-1.2 2.5-2 .4-.3.8-.9 1.3-1 .4-.3.4-.1-.1.5 0 1-.3 2-.9 2.9l2.7 1.1c.7-2.7-.9-5.4-3.6-6.1-1.2-.3-2.5-.2-3.6.4l2.3 1.3c0-1.3-.4-2.5-1.1-3.5-.4-.7-1.4-.9-2.1-.5-.1.1-.2.1-.3.2-1.5 1.6-1.8 4.3.1 5.8 1.4 1.1 2.1 0 3.7-.3 5.3-.7 2.2 1.7.3 1.8-.8.1-1.7 0-2.5-.2-2.1-.7-2.2-1.6-.4-2.7 1.9.9 2.7-2 .9-2.8zm-2.4 5.5c1.2 4-3.9 5.3-6.3 6.7-1.7.9-3.2 2.2-4.3 3.8-2.5 3.4-3.5 7.7-4.3 11.7-.4 1.9 2.5 2.7 2.9.8.5-3 1.3-5.9 2.5-8.6 1.8-3.6 4.4-4.8 7.7-6.6s5.8-4.7 4.6-8.6c-.5-1.9-3.4-1.1-2.8.8zm5-2c-1.5.2-2.6 1.5-2.5 3 0 1.2.8 2 1.3 2.9 1.3 1.9 2.3 4.1 2.9 6.3.5 2.1 1 6-.2 8-2.1 3.7-5.8 3-9 3-3 0-5.3 1-5.2-3.2.1-2.4 1.7-4.7 3-6.6l-2.7-.4c.6 3.1.9 6.2.9 9.3 0 1.4 2.1 2.2 2.8.8 1.6-3.4 2.9-6.9 3.8-10.5l-3-.4.5 7.6c0 .8.7 1.5 1.5 1.5.5 0 1-.3 1.2-.7.4-.4.6-.8.8-1.4.1-.5-.8-3.6-1.2-2.5l2.9.4.2-7.2-3 .4c.6 2 .8 4.2.6 6.3-.2 1.7 2.6 2 3 .4l1.9-9.7-2.7.4c.7 1.3.8 2.9.5 4.3-.2 1.9 2.8 1.9 3 0 .3-2-.1-4-.9-5.8-.4-.7-1.4-.9-2.1-.5-.3.2-.6.5-.7.9l-1.9 9.7 3 .4c.3-2.4.1-4.8-.7-7.1-.2-.8-1.1-1.3-1.9-1-.6.2-1.1.8-1.1 1.4l-.2 7.2c0 1.8 2.4 2 3 .4l.2-.5c.1-.5 0-1.1-.4-1.5-3.1-3.4-3.7 2-4.8 3.5l2.8.8-.5-7.6c-.1-1.6-2.5-2.1-3-.4-.8 3.4-2 6.7-3.5 9.8l2.8.8c0-3.4-.4-6.7-1-10.1-.3-1.4-2.1-1.3-2.7-.4-2 2.9-5.5 9.2-2.8 12.6 2.3 3 9.7 1.8 12.8 1.6 4.9-.3 6.7-3.4 7.3-8.1.3-2.2.1-4.5-.4-6.7-.3-1.2-3-8.7-3.8-8.5 1.9-.3 1.1-3.2-.8-2.9zm-5.8 6.7l-8.2 10.8 2.6 1.5 6-8.7-2.7-1.2-3 11.4c-.2.8.3 1.6 1.1 1.8.6.1 1.3-.1 1.6-.7 1.4-2.3 2.9-4.4 4.6-6.4l-2.5-1.5c-.7 2.6-2 5-3.8 6.9l2.5 1.5c.2-1.4.5-2.7 1.1-4 .8-1.7-1.7-3.3-2.6-1.5-.8 1.6-1.8 3.1-2.9 4.5l2.7.4.6-2.9-2.7-.4.4 2.5c.2.8 1.1 1.3 1.9 1 .2-.1.5-.2.6-.4 2.5-2.6 4.6-5.7 6-9h-2.6c.7 1.3 1.2 2.6 1.4 4 .4 1.8 2.8 1.1 2.9-.4.4-3.3.6-6.7.7-10.1h-3v6.3c0 1.6 2.7 2.1 3 .4.2-1.5.7-3 1.5-4.3H279c.6 1 1 2.2 1 3.4 0 .8.7 1.5 1.5 1.5s1.5-.7 1.5-1.5l.4-2h-2.9c.3 1.8 1.4 11.7-2.5 10.6-.7-.2-.9-.1-.6.1l.9-1.9 2.1-4.4-2.8-.8c.2 2.1.4 5-.9 6.8-1 1.4-4.1 2-5.6 1.2-1-.7-1.9-1.7-2.6-2.7l-2 2c1.7 1.2 4.4 4.2 6.5 4.4 1.6.1 3-1.2 4.1-2.3 3.3-3.4 5.1-8.1 4.9-12.8 0-.8-.7-1.5-1.5-1.5s-1.5.7-1.5 1.5v3.4c0 .8.7 1.5 1.5 1.5s1.5-.7 1.5-1.5v-8.4c0-.8-.7-1.5-1.5-1.5s-1.5.7-1.5 1.5c0 2-.2 4-.5 6l3 .4c-.2-2.4-.3-4.8-.3-7.2 0-.8-.7-1.5-1.5-1.5-.7 0-1.2.4-1.4 1.1l-1.5 5.7 2.7-.4-.2-.8c-.1-1.9-3.1-1.9-3 0 0 .8.2 1.6.6 2.3.6 1.2 2.4.8 2.7-.4.6-1.9 1.1-3.8 1.5-5.7l-3-.4c0 2.4.1 4.8.3 7.2.1 1.5 2.6 2.2 2.9.4.4-2.3.6-4.5.6-6.8h-3v8.4h3v-3.4h-3c.2 3.8-1.1 7.5-3.6 10.3-.4.4-.8.9-1.3 1.2-.7.7-1.4.6-1.9-.3-1.4-.6-2.9-2.1-4.1-3s-2.9.9-2.1 2c2.3 3.1 5.7 6.5 10 5 4.5-1.6 5.1-7.7 4.8-11.7-.1-1.3-2.1-2.2-2.8-.8l-3 6.3c-.4.7-1 1.8-.9 2.6.3 2.3 3.1 1.9 4.7 1.8 6.5-.5 5.5-9.7 4.7-14.4-.3-1.5-2.5-1.3-2.9 0-.3.9-.5 1.9-.5 2.8h3c-.1-1.7-.6-3.4-1.4-4.9-.4-.7-1.4-.9-2.1-.5-.2.1-.4.3-.5.5-.9 1.5-1.5 3.2-1.8 5l3 .4v-6.3c0-.8-.7-1.5-1.5-1.5s-1.5.7-1.5 1.5c0 3.4-.2 6.8-.7 10.1l3-.4c-.3-1.6-.9-3.2-1.7-4.7-.4-.7-1.4-.9-2.1-.5-.2.1-.4.3-.5.5-1.3 3.1-3.2 6-5.5 8.4l2.5.7-.4-2.5c-.2-1.3-2.1-1.4-2.7-.4-1 1.5-1.3 3.4-.9 5.2.3 1.4 2 1.3 2.7.4 1.1-1.4 2-2.9 2.9-4.5l-2.6-1.5c-.7 1.5-1.2 3.1-1.4 4.7-.2 1.3 1.4 2.7 2.5 1.5 2.1-2.4 3.7-5.2 4.5-8.3.4-1.4-1.5-2.6-2.5-1.5-1.8 2.2-3.5 4.5-5 7l2.7 1.2 3-11.4c.2-.8-.3-1.6-1.1-1.8-.6-.1-1.3.1-1.6.7l-6 8.7c-1.1 1.6 1.5 3 2.6 1.5l8.2-10.8c1.1-1.3-1.5-2.8-2.7-1.3zM402 332.2c12-7.3 21.5-18.3 32.1-27.5 11.5-9.9 23.6-19.2 36-27.9 24.1-17 49.5-32.2 74.8-47.4.7-.4.9-1.4.5-2.1-.4-.7-1.3-.9-2-.5-25.3 15.2-50.7 30.4-74.8 47.4-11.4 8-22.5 16.5-33.2 25.5-11.6 9.8-21.9 22-35 29.9-1.6 1-.1 3.6 1.6 2.6zm181.6-149.4c-13 1.3-27 4.6-35 16-6.9 9.8-6.8 26.8-.3 36.9 7.4 11.4 22.4 11.8 34.1 8.1s23.8-10.2 23.7-24.1c-.1-7.5-2.8-15.3-5.8-22.1-2.6-5.9-7.2-11-14.1-10.4-1.9.2-1.9 3.2 0 3 9.3-.9 12.3 10.1 14.5 17.1 2 6.5 3.8 14.2.7 20.6s-10.7 9.7-17.2 12.1c-7 2.5-14.7 4.1-22 2-14.5-4.1-18.5-22.4-14.3-35.4 4.8-15 21.8-19.4 35.7-20.8 2-.1 2-3.1 0-3zm20 116.1c-13 1.3-27 4.6-35 16-6.9 9.8-6.8 26.8-.3 36.9 7.4 11.4 22.4 11.8 34.1 8.1s23.8-10.2 23.7-24.1c-.1-7.5-2.8-15.3-5.8-22.1-2.6-5.9-7.2-11-14.1-10.4-1.9.2-1.9 3.2 0 3 9.3-.9 12.3 10.1 14.5 17.1 2 6.5 3.8 14.2.7 20.6s-10.7 9.7-17.2 12.1c-7 2.5-14.7 4.1-22 2-14.5-4-18.5-22.4-14.3-35.4 4.8-15 21.8-19.4 35.7-20.8 2-.2 2-3.2 0-3zM564 212.1l9.5 10.8c.6.6 1.6.6 2.1 0 .2-.2.3-.4.4-.6 2-5.3 1.6-10.7 2.1-16.2.5-5.7 2-11.3 4.3-16.6 4.6-10.7 12.4-19.6 22.4-25.6 1.7-1 .1-3.6-1.5-2.6-9.8 5.9-17.7 14.5-22.6 24.9-2.4 5-4.1 10.4-5 15.9-1 6.5-.1 13.3-2.5 19.5l2.5-.7-9.4-10.8c-1.4-1.6-3.5.5-2.3 2zM406.8 343.9c51.6-1.6 103.2-1.9 154.8-1 1.9 0 1.9-3 0-3-51.6-.9-103.2-.6-154.8 1-1.9.1-2 3.1 0 3zm165.5-29.6c17.6 6.9 34.6 15.4 50.7 25.5 1.6 1 3.2-1.6 1.5-2.6-16.3-10.1-33.5-18.8-51.3-25.8-1.8-.7-2.6 2.2-.9 2.9zm32.1-13.6c-17.9 20.8-28.2 47.1-29.4 74.5-.1 1.9 2.9 1.9 3 0 1.1-26.6 11.2-52.1 28.5-72.4 1.2-1.4-.9-3.5-2.1-2.1zm-400 32.3l111.8-1.5 12.9-.2c2.3 0 4.6-.1 6.9-.1 3.3 0 5.4 2.7 5.4 6-.1 7-4.5 6.8-10.3 7l-13.9.6-56.6 2.5c-10.1.5-20.3 1-30.4 1.4-9.1.3-26.5-2.7-22.5-16 .6-1.9-2.3-2.6-2.9-.8-2 6.5 1.5 13.2 7.2 16.6 8.1 4.9 18.8 3.2 27.7 2.8l69.4-3.1 16.9-.8c4.3-.2 10.3.7 14.3-1.3 4.7-2.4 5.5-11.7 2.5-15.6-1.5-2-3.6-2.2-6-2.3-6.2-.2-12.5.2-18.8.3l-34.6.5-79.1 1c-1.9 0-1.9 3 .1 3z"/><path fill="#323444" d="M656 700.5c-2.5 1.6-5.4 2.5-8 3.9s-5.1 3.5-5.9 6.4c-.3.9-.2 1.9.1 2.7.6 1 1.6 1.8 2.8 2.2 10.7 4.7 22.8 4.9 33.6.4 1.9-.9 3.8-1.7 5.8-2.3 2.4-.5 4.9-.8 7.4-.8 2.6-.2 5.2-.5 7.8-1 1.3-.1 2.5-.7 3.5-1.5.9-1.1 1.5-2.4 1.6-3.8 1.2-7.8-.6-15.7-5-22.3-.6-.9-1.3-1.7-2.2-2.3-1.1-.6-2.3-.9-3.5-.9-5-.6-10.2-1.7-15.3-1.8-3.6-.1-5.4 1.6-8 4.1-5.1 5.2-8.2 12.9-14.7 17zm73.7-.7c0 4.9.6 10.1 3.6 14 1.4 1.7 3 3.1 4.9 4.3 6.3 4 14.6 5.5 21.2 2.1 1.1-.5 2-1.2 2.6-2.2 1-1.7.5-3.9-.1-5.8l-9.6-33.2c-6.2 1-15.3 1.6-20.8 4.8-4 2.1-1.8 11.6-1.8 16z"/><path fill="#FBB3B2" d="M650.4 495.3c-.6 1.8-2.7 2.7-3.8 4.2-1.3 1.8-1.2 4.3-.7 6.5.6 3.2 2.1 6.2 4.4 8.6 2.3 2.4 5.7 3.6 9 3.1 3.2-.6 6-3.5 6.1-6.7-.1-1.5-.4-3-.9-4.3l-6.8-19.7c-.1-.3-.2-.5-.5-.7-.3-.1-.5 0-.8.1-1.6.8-4.8 1.6-5.8 3.2s.4 3.9-.2 5.7z"/><path fill="#323444" d="M647.2 494.3c2.5-.4 4.7-1.9 7-2.8s5.3-1.3 7.2.3c.6.5 1.1 1.1 1.8 1.1-1-4.9-2.5-9.7-4.5-14.2-.1-.2-.2-.4-.4-.5-.3-.1-.6-.1-.8 0l-6.7 1.8c-2.5.6-2.8.5-2.6 2.9 0 .9.6 11.4-1 11.4z"/><path fill="#5B5583" d="M646.4 351.9c-1 1.5-1 3.5-1 5.3 0 8.9.1 17.8 1.4 26.5.3 2.1.7 4.2.9 6.3.2 3 .3 5.9.1 8.9l-1 38.5c-.1 4.7-.4 9.8-3.3 13.5-.9 1.2-1.3 2.8-1.2 4.3.8 9.7 2.4 19.2 4 28.8 5.2-2.3 11.2-2.1 16.1.8 5-15.9 7.8-32.4 8.3-49 .2-8.2-.1-16.4 1.1-24.5 2.1-13.6 1.3-27.6-.3-41.3-.5-4.3-1.5-8.8-4.3-12.2-2.6-2.9-6.1-5-10-5.8-3.5-1-6.9 0-10.8-.1z"/><path opacity=".1" d="M646.4 351.9c-1 1.5-1 3.5-1 5.3 0 8.9.1 17.8 1.4 26.5.3 2.1.7 4.2.9 6.3.2 3 .3 5.9.1 8.9l-1 38.5c-.1 4.7-.4 9.8-3.3 13.5-.9 1.2-1.3 2.8-1.2 4.3.8 9.7 2.4 19.2 4 28.8 5.2-2.3 11.2-2.1 16.1.8 5-15.9 7.8-32.4 8.3-49 .2-8.2-.1-16.4 1.1-24.5 2.1-13.6 1.3-27.6-.3-41.3-.5-4.3-1.5-8.8-4.3-12.2-2.6-2.9-6.1-5-10-5.8-3.5-1-6.9 0-10.8-.1z"/><path fill="#3C354C" d="M658.7 463.6c-6.7 34.4-3 70 10.5 102.2 1.2 2.4 2 4.9 2.4 7.6.5 4.9-1.7 9.6-3 14.3-3 10.8-1.3 22.3.7 33.3.8 4.6 1.6 9.2 2.5 13.8.8 4.5 1.6 9.3-.5 13.4 1.8 7.5 2.8 14.8 4.6 22.3.2.6.2 1.2.2 1.8-.4 1-1 1.8-1.8 2.5-2.7 2.8-3.8 6.7-2.8 10.5 4.6-3.3 10.9-2.1 16.2 0s10.4 5 16 5c-.8-6.6-1.6-13.6.8-19.8 1.4-3.6 3.9-7 3.8-10.8-.1-3.5-2.2-6.5-2.7-9.9-.2-2.1-.1-4.3.2-6.4 1.3-12.2-.2-24.6-1.7-36.8-.2-2.4-.7-4.8-1.7-7-.7-1.4-1.8-2.8-1.8-4.4 0-1.9 1.5-3.4 2.1-5.2 1-3.3-.8-7.7 1.9-9.8 7.3-5.4 4.5-18.2 4.3-27.2-.1-7.8-.5-15.6-1-23.4 4.6 12.9 6.5 26.7 5.5 40.3-.3 4.5-.9 9.2.8 13.3 1.3 3.2 4 5.8 4.7 9.2.5 2.1.1 4.2.2 6.3s.8 4.4 2.7 5.5c.1 9.6 1 20 1.2 29.6-.1 4.9.3 9.9 1.2 14.7.4 1.5.7 3.1.7 4.7-.2 2-.8 4-1.6 5.8-3.5 10.5-1.7 22 5 30.8 2.4-4.2 7.3-6.4 12.1-6.8s9.5.9 14.2 2.1c-.7-5.8.5-11.8 3.3-16.9.8-1.2 1.4-2.4 1.8-3.8.5-2.5-.7-5.1-1.4-7.6-1.1-4-.7-8.3-.5-12.5.9-14 .3-28.1-1.8-41.9-.3-2.7-1-5.4-1.9-8-.4-.9-.8-1.8-1.1-2.7-.5-1.7-.7-3.4-.8-5.1l-1.2-16c-.8-11.2 2.9-22.3 5.4-33.2 1.2-4.9 2.4-9.8 3.2-14.8 1-6.8 1.2-13.7 2.8-20.4 1.4-6 3.9-11.9 4.4-18 .8-9.5-3.2-18.7-7-27.5-1.6-3.6-7.7-3.2-11.5-3.9-27.6-4.5-56.7-4.6-82.7 5.6-2.5 1.4-4.9 3.1-6.9 5.2z"/><path fill="#FBB3B2" d="M678.5 286.1l3.1 11.9c.8 2.7 1.3 5.6 1.4 8.4 0 1-.2 2.1-.7 3-.5.8-1.1 1.4-1.9 1.9-2.1 1.6-3.5 5.3-5.9 6.4 1.2 2.1 2.9.8 5.2 1.8 3.9 1.9 7.5 4.6 11.7 5.6 4 .9 8.2 0 12.2-1 5.6-1.5 11.2-3.6 15.8-7.3s7.1-7 7.1-12.8c-5 .6-9.5-4.5-11.7-9-.8-1.7-1.3-3.5-1.7-5.4l-2.7-11.8c-2.9.6-5.3 2.7-8.1 3.8s-6.1 1.2-9.2 1.3c-5.5.3-11 1-16.4 2.1-.7.1-1.7.6-1.5 1.3"/><path opacity=".1" d="M678.5 286.1l3.1 11.9c.8 2.7 1.3 5.6 1.4 8.4 0 1-.2 2.1-.7 3-.5.8-1.1 1.4-1.9 1.9-2.1 1.6-3.5 5.3-5.9 6.4 1.2 2.1 2.9.8 5.2 1.8 3.9 1.9 7.5 4.6 11.7 5.6 4 .9 8.2 0 12.2-1 5.6-1.5 11.2-3.6 15.8-7.3s7.1-7 7.1-12.8c-5 .6-9.5-4.5-11.7-9-.8-1.7-1.3-3.5-1.7-5.4l-2.7-11.8c-2.9.6-5.3 2.7-8.1 3.8s-6.1 1.2-9.2 1.3c-5.5.3-11 1-16.4 2.1-.7.1-1.7.6-1.5 1.3"/><circle fill="#FBB3B2" cx="691.7" cy="266.2" r="26.5"/><path fill="#323444" d="M699 309.8c1.4-3.1 3.5-5.8 6-8 3.7-3.3 8.8-5.9 9.7-10.8l8.1 9.4c.4.4.8 1 1 1.5.2 1.1-.1 2.2-.8 3.1-2 3.2-5.2 5.5-8.1 7.8-6.8 5.4-13.4 11.2-19.6 17.3-.3.3-.6.5-1 .6-.4 0-.8-.1-1.1-.3-5.4-2.8-10.1-6.7-14-11.4-.3-.4-.7-.8-1.1-.7-.3.1-.5.2-.8.4-2.7 2.2-5.6 4.8-9.1 4.5 4.5-3.2 7-8.6 7.9-14 .2-1.9.6-3.7 1.1-5.5.6-1.8 2.1-3.2 3.9-3.7-2.2 3.3-.7 8 2.2 10.7 2.8 2.4 6.3 4.1 9.9 4.8 3.6.8 4.6-3 5.8-5.7zm-34.5 156.5c3.8.9 7.3 2.5 11 3.7 6.7 2.1 13.7 2.8 20.7 2.2 2.1 0 4.2-.7 6-1.9.5-.4.9-.8 1.4-1.2.8-.5 1.7-.9 2.7-1.1 9.2-2.9 16.8-9.1 24.3-15.1.2-.2.5-.5.5-.8 0-.2-.1-.4-.3-.6l-3.9-4.5c-10.3 1.8-20.8 1.1-31.2.8-2.1-.1-4.3 0-6.4.2-2.1.2-4.1.8-6.1 1.2-7.7 1.7-15.6 2.3-23.4 3.4-.5 0-1.1.2-1.5.5-.3.3-.6.6-.8.9l-2.7 3.9c-1.1 1.3-1.8 2.8-2.3 4.4-.6 3 .7 4 3.3 3.6 2.7-.5 5.8-.3 8.7.4z"/><path fill="#5B5583" d="M695.2 325.6c-3.1-3.1-6.5-5.8-10.3-8-1.5-1-3.2-1.6-5-2-1.8-.4-3.7.1-5.1 1.3-.9.8-1.5 1.9-2.3 2.7-1.1.9-2.3 1.6-3.7 2.1-4.6 1.9-8.9 4.4-12.9 7.3-2.2 1.5-4.1 3.3-5.8 5.4-4.5 5.8-5.2 13.7-5.1 21 .1 5.1 5 8.9 8.4 12.8 3.2 3.8 6 7.8 8.6 12 1.8 2.9 3.7 6 3.5 9.4-.2 2.8-1.8 5.5-1.6 8.3.1 1 .4 1.9.5 2.9.2 2-.6 4-.8 6-.3 2.8.7 5.6.7 8.5 0 2-.3 3.9-.7 5.8-1.9 9.1-4.3 18.3-3.8 27.7l-5.5 1c1.8 1.8 1.9 4.8.1 6.6-.3.3-.7.6-1.1.9 8.7 2.9 18 1.4 27.2 1.4 7.6 0 15.2 1 22.7.9s15.4-1.5 21.7-5.8c1.7-1.2 3.3-2.5 5-3.5 2.4-1.2 5-2.1 7.7-2.5 4.9-.9 10-1.4 15-1.3 2.5 0 5.1.1 7.1-1.4 2.2-1.6 2.7-4.6 3-7.3.3-2.8.5-5.7.5-8.5.1-2.2 0-4.4-.3-6.6-.3-1.6-.7-3.2-1.2-4.8l-3.8-13.3c-1.6-5.5.6-11.5 1.1-17.2.1-1.3.1-2.9-.9-3.8-.4-.3-.9-.5-1-1-.1-.5 0-.9.2-1.3 2-4 5-7.5 7.7-11.1 4.6-6.3 8.9-12.9 12.8-19.7-1.2-14.2-7.2-27.5-16.9-37.9-2-2.2-4.3-4.3-7.1-5.2-1.8-.6-3.7-.9-5.6-.9-7.8-.5-16-1-22.8-4.9-.5-.3-1-.6-1.6-.7-1.5-.2-2.6 1.3-3.6 2.5-2.5 3-6.2 4.7-9.5 6.9-6.4 3.8-11.1 9.5-15.5 15.3z"/><path fill="#5B5583" d="M778.3 354.3c1.6 4.9 1.4 10.2 1.9 15.4.3 3.1.8 6.2 1.6 9.2.4 1.7 1 3.2 1.9 4.7.9 1.3 2.2 2.4 2.8 3.9.3 1 .5 2.1.4 3.1l.1 6.9c.3 3.7-.3 7.3-1.6 10.7l-4.3 13.1c-2.3 7.1-4.7 14.3-8.9 20.5-.6 1-1.5 1.9-2.6 2.4-.8.2-1.7.4-2.6.4-3.1.6-5.4 3.3-5.5 6.5-1-1.5-2.2-2.7-3.7-3.8l-8.8-7c-3-2.4-6.1-4.9-9.8-6.3 10-3.1 17.2-11.8 18.4-22.3 0-1.5.3-3 1-4.4.7-1.2 2.1-2.1 2.2-3.5.1-1.8-1.9-3.1-1.9-4.8 0-1.2.9-2.1 1.2-3.2.4-1.3.4-2.8 0-4.1l-1.2-6.7c-.1-.7-.3-1.3-.6-1.9-.5-.6-1-1.1-1.5-1.6-2.1-2.3-1.2-6 0-8.9 2.7-6.4 6.1-12.4 10.2-17.9 1.5-1.9 2.8-3.8 4.1-5.8 1.1-1.8 1.3-4.4 2.4-6 1.6 3.8 3.6 7.5 4.8 11.4z"/><path fill="#323444" d="M739 434.4c-.4.3-.8.7-1.1 1.2-1.2 1.5-2.7 2.6-4.5 3.2 1 .7 1.9 1.4 2.8 2.2 7 5.4 13.3 11.5 19 18.2.6-2.3 4.4-2.1 5.3-4.2.2-.6.3-1.3.2-1.9-.2-3.4-.7-6.7-1.4-10-.3-1.7-1-3.3-2-4.7-1.4-1.7-3.6-2.5-5.7-3.2-3.2-1.2-9.4-2.7-12.6-.8z"/><path fill="#FBB3B2" d="M726.5 442.2c-3 2.2-5.6 5-9 6.5-2.4 1.1-5.1 1.5-7.2 3.2 1.1 2.5 4.1 3.8 6.8 3.7 2.7-.3 5.4-1.2 7.6-2.8 1.8-1.1 3.9-2.4 5.8-1.6.3 1.5-1 3-1 4.5s1.3 2.7 2.5 3.5c6 3.9 13.7 3.5 20.9 3.1.4 0 .8-.1 1.2-.3.3-.4.5-.8.4-1.3.1-1.6.1-3.1.1-4.7.4-2.6-.7-5.2-2.9-6.7a91.4 91.4 0 0 0-12.5-8.9c-4.3-2.6-8.8-1.1-12.7 1.8z"/><path fill="#3C354C" d="M701 255.1c-4.4.5-7.7 4-7.2 7.8s4.4 6.4 8.8 5.8 7.7-4 7.2-7.8-4.4-6.3-8.8-5.8zm1.5 12.6c-3.8.5-7.1-1.8-7.5-4.9s2.4-6.1 6.1-6.6c3.8-.5 7.1 1.8 7.5 4.9s-2.3 6.1-6.1 6.6zm-23.2-10c-4.4.5-7.7 4-7.2 7.8s4.4 6.4 8.8 5.8 7.7-4 7.2-7.8-4.3-6.3-8.8-5.8zm1.6 12.6c-3.8.5-7.1-1.8-7.5-4.9s2.3-6.1 6.1-6.6 7.1 1.8 7.5 4.9-2.4 6.1-6.1 6.6z"/><path fill="#3C354C" d="M663.3 259.6l9.7 2.1-1 2.5-9.1-2.7.4-1.9zm53.8-6.4l-8.9 4.3 1.5 2.2 8.2-4.8-.8-1.7zm-29.8 7.9l6.8-.8-.3 1.7-5.8.4-.7-1.3z"/><path fill="#CBCEDA" d="M674.2 258.8c.6-1.4 1-2.9 1-4.4 0-.9.2-1.8.5-2.7.5-1.1 1.2-2 2.2-2.8 3.1-2.6 7.6-4 12-4.2 4.8-.2 9.6.8 13.9 3 1.3.6 2.5 1.5 3.5 2.6 1.4 1.7 1.7 3.9 3.1 5.6 2 2.1 4.9 3 7.7 2.4.5-1.7-.2-3.6.1-5.4.4-1.5.9-3 1.6-4.4 1.5-4.6-.7-9.9-5.4-12.6-1.6-1-3.6-1.6-4.8-3s-1.5-2.8-2.3-4.1c-2.2-3.6-8-5.2-12.4-3.6-1.4.5-2.6 1.3-4 1.9-2.6 1.1-5.6 1.3-8.4 1.6-2.8.3-5.6 1-8.2 2.1-2.5 1.2-4.5 3.2-5.1 5.5-.3 1.1-.2 2.2-.5 3.3-1.4 5.4-10.3 8.1-10.8 13.6-.2 2 .9 3.9 2.3 5.6.9 1.1 3.2 4.1 4.8 4.5s2.8-1.1 4.3-1.6c2.2-.7 3.7-.9 4.9-2.9z"/><ellipse opacity=".1" fill="tomato" cx="854.4" cy="716.3" rx="17.5" ry="3"/><path fill="#A8A8A8" d="M842.6 702.5s10-.3 13-2.5 15.4-4.7 16.1-1.3 15 17.1 3.7 17.2-26.2-1.8-29.2-3.6-3.6-9.8-3.6-9.8z"/><path opacity=".2" d="M875.7 714.8c-11.3.1-26.2-1.8-29.2-3.6-2.3-1.4-3.2-6.4-3.5-8.7h-.3s.6 8.1 3.6 9.9 17.9 3.7 29.2 3.6c3.3 0 4.4-1.2 4.3-2.9-.4 1.1-1.6 1.7-4.1 1.7z"/><ellipse opacity=".1" fill="tomato" cx="76.1" cy="724.1" rx="13.9" ry="2.4"/><path fill="#A8A8A8" d="M66.8 713.2s7.9-.3 10.3-2 12.2-3.8 12.8-1 11.9 13.6 3 13.7-20.9-1.4-23.3-2.8-2.8-7.9-2.8-7.9z"/><path opacity=".2" d="M93.1 723c-9 .1-20.9-1.4-23.3-2.9-1.8-1.1-2.5-5.1-2.8-6.9h-.3s.5 6.4 2.9 7.9 14.3 2.9 23.3 2.8c2.6 0 3.5-.9 3.4-2.3-.3.8-1.3 1.3-3.2 1.4z"/></svg>