<svg xmlns="http://www.w3.org/2000/svg" viewBox="0 0 210.5 210.5"><path d="M23.3 68.4c11.6 16.4 22.5 32 33.5 47.4 2.8 3.9 5.8 7.7 9.1 11.2 7 7.3 19.5 8.9 26.5 3.7 9.6-7.2 12.7-18.9 7-28.6-4.7-8-10.5-15.4-15.3-23.3-2.9-4.8-1.7-9.4 2.4-12.9 4.7-4 10.8-3.6 14.5 1.3 6.3 8.4 12.4 16.9 18.3 25.6.9 1.3.9 4.3 0 5.6-6 8.3-5 16 1.1 23.7 4.2 5.3 8.1 10.9 12.1 16.5 2.3-1.2 4.2-2.2 6.4-3.3 5 6.6 9.9 13 14.9 19.8 1.9-1.5 3.5-2.7 5.3-4.2-4.9-6.5-9.5-12.7-14.5-19.4 3.7-2.7 7.2-5.3 11.5-8.6 6.5 8.8 12.8 17.3 19.3 26.1-11.6 8.5-22.8 16.7-34.1 24.9-11.6 8.4-23.1 16.9-34.9 25-3.7 2.5-8.2 4.5-12.6 5.4-6.5 1.4-12.1-1.3-16.2-6.7-11.9-16-23.9-32-35.6-48.2-11-14.9-21.4-30.2-32.5-45-7.2-9.5-5.3-18.7 1.8-26 3.3-3.5 7.5-6.3 12-10z"/><path d="M130.8 89.5C124 80.1 117.6 71 111 62.1c-6.1-8.2-16.6-11.6-25.1-8.4C77 57 70.6 66.1 71.4 75.4c.3 3.4 1.9 7 3.7 10 4 6.3 8.6 12.2 12.8 18.4 5 7.5 4.5 12.9-1.2 16.9-5.5 3.9-11 2.6-16.1-4.5-12.8-17.4-25.3-35-38.3-53 2.9-2.1 5.9-4.2 8.8-6.3 20.7-15 41.5-30 62.2-45.1 12.6-9.2 22.6-7.7 31.9 5 20.8 28.5 41.6 56.9 62.4 85.4 1.9 2.5 3.5 5.2 5.2 7.9 4 6.2 4.1 11.8-.5 17.5-5.9 7.3-13.6 12.5-22 17.4-6.4-8.9-12.6-17.5-19-26.4 2.4-2 4.6-3.9 7.9-6.6-6.2-7.8-12-16-18.9-23.2-4.2-4.2-11.1-3.3-19.5.7z"/><path opacity=".65" fill="#00260E" d="M130.8 89.5C124 80.1 117.6 71 111 62.1c-6.1-8.2-16.6-11.6-25.1-8.4C77 57 70.6 66.1 71.4 75.4c.3 3.4 1.9 7 3.7 10 4 6.3 8.6 12.2 12.8 18.4 5 7.5 4.5 12.9-1.2 16.9-5.5 3.9-11 2.6-16.1-4.5-12.8-17.4-25.3-35-38.3-53 2.9-2.1 5.9-4.2 8.8-6.3 20.7-15 41.5-30 62.2-45.1 12.6-9.2 22.6-7.7 31.9 5 20.8 28.5 41.6 56.9 62.4 85.4 1.9 2.5 3.5 5.2 5.2 7.9 4 6.2 4.1 11.8-.5 17.5-5.9 7.3-13.6 12.5-22 17.4-6.4-8.9-12.6-17.5-19-26.4 2.4-2 4.6-3.9 7.9-6.6-6.2-7.8-12-16-18.9-23.2-4.2-4.2-11.1-3.3-19.5.7z"/></svg>