<svg xmlns="http://www.w3.org/2000/svg" viewBox="0 0 1081.2 638.5"><path fill="#65617D" d="M25.6 609.6h1055.6v28.9H25.6v-28.9z"/><path opacity=".1" d="M329.7 19.4h65c5.5 0 9.9 4.4 9.9 9.9v18.9c0 5.5-4.4 9.9-9.9 9.9h-65c-5.5 0-9.9-4.4-9.9-9.9V29.3c0-5.5 4.4-9.9 9.9-9.9zm84.8 0h65c5.5 0 9.9 4.4 9.9 9.9v18.9c0 5.5-4.4 9.9-9.9 9.9h-65c-5.5 0-9.9-4.4-9.9-9.9V29.3c0-5.5 4.4-9.9 9.9-9.9zm84.8 0h65c5.5 0 9.9 4.4 9.9 9.9v18.9c0 5.5-4.4 9.9-9.9 9.9h-65c-5.5 0-9.9-4.4-9.9-9.9V29.3c0-5.5 4.4-9.9 9.9-9.9zm84.8 0h65c5.5 0 9.9 4.4 9.9 9.9v18.9c0 5.5-4.4 9.9-9.9 9.9h-65c-5.5 0-9.9-4.4-9.9-9.9V29.3c0-5.5 4.4-9.9 9.9-9.9zM329.7 55.9h65c5.5 0 9.9 4.4 9.9 9.9v18.9c0 5.5-4.4 9.9-9.9 9.9h-65c-5.5 0-9.9-4.4-9.9-9.9V65.9c0-5.5 4.4-10 9.9-10zm84.8 0h65c5.5 0 9.9 4.4 9.9 9.9v18.9c0 5.5-4.4 9.9-9.9 9.9h-65c-5.5 0-9.9-4.4-9.9-9.9V65.9c0-5.5 4.4-10 9.9-10zm84.8 0h65c5.5 0 9.9 4.4 9.9 9.9v18.9c0 5.5-4.4 9.9-9.9 9.9h-65c-5.5 0-9.9-4.4-9.9-9.9V65.9c0-5.5 4.4-10 9.9-10zm84.8 0h65c5.5 0 9.9 4.4 9.9 9.9v18.9c0 5.5-4.4 9.9-9.9 9.9h-65c-5.5 0-9.9-4.4-9.9-9.9V65.9c0-5.5 4.4-10 9.9-10zM246.7 92.4H308c6.5 0 11.8 5.3 11.8 11.8v15.1c0 6.5-5.3 11.8-11.8 11.8h-61.2c-6.5 0-11.8-5.3-11.8-11.8v-15.1c-.1-6.5 5.2-11.8 11.7-11.8zm169.7 0h61.2c6.5 0 11.8 5.3 11.8 11.8v15.1c0 6.5-5.3 11.8-11.8 11.8h-61.2c-6.5 0-11.8-5.3-11.8-11.8v-15.1c0-6.5 5.3-11.8 11.8-11.8zm84.8 0h61.2c6.5 0 11.8 5.3 11.8 11.8v15.1c0 6.5-5.3 11.8-11.8 11.8h-61.2c-6.5 0-11.8-5.3-11.8-11.8v-15.1c0-6.5 5.3-11.8 11.8-11.8zm84.8 0h61.2c6.5 0 11.8 5.3 11.8 11.8v15.1c0 6.5-5.3 11.8-11.8 11.8H586c-6.5 0-11.8-5.3-11.8-11.8v-15.1c0-6.5 5.3-11.8 11.8-11.8zM331.5 129h61.2c6.5 0 11.8 5.3 11.8 11.8v15.1c0 6.5-5.3 11.8-11.8 11.8h-61.2c-6.5 0-11.8-5.3-11.8-11.8v-15.1c.1-6.5 5.3-11.8 11.8-11.8zm84.9 0h61.2c6.5 0 11.8 5.3 11.8 11.8v15.1c0 6.5-5.3 11.8-11.8 11.8h-61.2c-6.5 0-11.8-5.3-11.8-11.8v-15.1c0-6.5 5.3-11.8 11.8-11.8zm84.8 0h61.2c6.5 0 11.8 5.3 11.8 11.8v15.1c0 6.5-5.3 11.8-11.8 11.8h-61.2c-6.5 0-11.8-5.3-11.8-11.8v-15.1c0-6.5 5.3-11.8 11.8-11.8zm-254.5 36.5H308c6.5 0 11.8 5.3 11.8 11.8v15.1c0 6.5-5.3 11.8-11.8 11.8h-61.2c-6.5 0-11.8-5.3-11.8-11.8v-15.1c-.1-6.5 5.2-11.8 11.7-11.8zm0 109.6H308c6.5 0 11.8 5.3 11.8 11.8V302c0 6.5-5.3 11.8-11.8 11.8h-61.2c-6.5 0-11.8-5.3-11.8-11.8v-15.1c-.1-6.5 5.2-11.8 11.7-11.8zm169.7-109.6h61.2c6.5 0 11.8 5.3 11.8 11.8v15.1c0 6.5-5.3 11.8-11.8 11.8h-61.2c-6.5 0-11.8-5.3-11.8-11.8v-15.1c0-6.5 5.3-11.8 11.8-11.8zm84.8 0h61.2c6.5 0 11.8 5.3 11.8 11.8v15.1c0 6.5-5.3 11.8-11.8 11.8h-61.2c-6.5 0-11.8-5.3-11.8-11.8v-15.1c0-6.5 5.3-11.8 11.8-11.8zm84.8 0h61.2c6.5 0 11.8 5.3 11.8 11.8v15.1c0 6.5-5.3 11.8-11.8 11.8H586c-6.5 0-11.8-5.3-11.8-11.8v-15.1c0-6.5 5.3-11.8 11.8-11.8zm84.8-109.6H732c6.5 0 11.8 5.3 11.8 11.8v15.1c0 6.5-5.3 11.8-11.8 11.8h-61.2c-6.5 0-11.8-5.3-11.8-11.8V67.7c0-6.5 5.3-11.8 11.8-11.8zm-5 73.1h71.3c3.7 0 6.8 3 6.8 6.8V161c0 3.7-3 6.8-6.8 6.8h-71.3c-3.7 0-6.8-3-6.8-6.8v-25.2c0-3.8 3-6.8 6.8-6.8zm0 36.5h71.3c3.7 0 6.8 3 6.8 6.8v25.2c0 3.7-3 6.8-6.8 6.8h-71.3c-3.7 0-6.8-3-6.8-6.8v-25.2c0-3.8 3-6.8 6.8-6.8zm-334.5 36.6H393c6.4 0 11.6 5.2 11.6 11.6v15.6c0 6.4-5.2 11.6-11.6 11.6h-61.7c-6.4 0-11.6-5.2-11.6-11.6v-15.6c.1-6.4 5.2-11.6 11.6-11.6zm84.8 0h61.7c6.4 0 11.6 5.2 11.6 11.6v15.6c0 6.4-5.2 11.6-11.6 11.6h-61.7c-6.4 0-11.6-5.2-11.6-11.6v-15.6c.1-6.4 5.2-11.6 11.6-11.6zm84.9 0h61.7c6.4 0 11.6 5.2 11.6 11.6v15.6c0 6.4-5.2 11.6-11.6 11.6H501c-6.4 0-11.6-5.2-11.6-11.6v-15.6c0-6.4 5.2-11.6 11.6-11.6zm84.8 0h61.7c6.4 0 11.6 5.2 11.6 11.6v15.6c0 6.4-5.2 11.6-11.6 11.6h-61.7c-6.4 0-11.6-5.2-11.6-11.6v-15.6c0-6.4 5.2-11.6 11.6-11.6zm-339.3 36.4h61.7c6.4 0 11.6 5.2 11.6 11.6v15.6c0 6.4-5.2 11.6-11.6 11.6h-61.7c-6.4 0-11.6-5.2-11.6-11.6v-15.6c0-6.4 5.2-11.6 11.6-11.6zm-84.8 0h61.7c6.4 0 11.6 5.2 11.6 11.6v15.6c0 6.4-5.2 11.6-11.6 11.6h-61.7c-6.4 0-11.6-5.2-11.6-11.6v-15.6c0-6.4 5.2-11.6 11.6-11.6zM140.6 0h61.7c6.4 0 11.6 5.2 11.6 11.6v15.6c0 6.4-5.2 11.6-11.6 11.6h-61.7c-6.4 0-11.6-5.2-11.6-11.6V11.6C129 5.2 134.2 0 140.6 0zm-52 38.7h61.7c6.4 0 11.6 5.2 11.6 11.6v15.6c0 6.4-5.2 11.6-11.6 11.6H88.6c-6.4 0-11.6-5.2-11.6-11.6V50.3c0-6.4 5.2-11.6 11.6-11.6zm-77 141.8h61.7c6.4 0 11.6 5.2 11.6 11.6v15.6c0 6.4-5.2 11.6-11.6 11.6H11.6C5.2 219.2 0 214 0 207.7V192c0-6.3 5.2-11.5 11.6-11.5zM54 219.2h61.7c6.4 0 11.6 5.2 11.6 11.6v15.6c0 6.4-5.2 11.6-11.6 11.6H54c-6.4 0-11.6-5.2-11.6-11.6v-15.6c0-6.4 5.2-11.6 11.6-11.6zm277.3 19.3H393c6.4 0 11.6 5.2 11.6 11.6v15.6c0 6.4-5.2 11.6-11.6 11.6h-61.7c-6.4 0-11.6-5.2-11.6-11.6v-15.6c.1-6.4 5.2-11.6 11.6-11.6zm84.8 0h61.7c6.4 0 11.6 5.2 11.6 11.6v15.6c0 6.4-5.2 11.6-11.6 11.6h-61.7c-6.4 0-11.6-5.2-11.6-11.6v-15.6c.1-6.4 5.2-11.6 11.6-11.6zm84.9 0h61.7c6.4 0 11.6 5.2 11.6 11.6v15.6c0 6.4-5.2 11.6-11.6 11.6H501c-6.4 0-11.6-5.2-11.6-11.6v-15.6c0-6.4 5.2-11.6 11.6-11.6zm84.8 0h61.7c6.4 0 11.6 5.2 11.6 11.6v15.6c0 6.4-5.2 11.6-11.6 11.6h-61.7c-6.4 0-11.6-5.2-11.6-11.6v-15.6c0-6.4 5.2-11.6 11.6-11.6zm-170 36.6h62.4c6.2 0 11.2 5 11.2 11.2v16.3c0 6.2-5 11.2-11.2 11.2h-62.4c-6.2 0-11.2-5-11.2-11.2v-16.3c0-6.1 5-11.2 11.2-11.2zm84.8 0H563c6.2 0 11.2 5 11.2 11.2v16.3c0 6.2-5 11.2-11.2 11.2h-62.4c-6.2 0-11.2-5-11.2-11.2v-16.3c0-6.1 5-11.2 11.2-11.2zm-254.5 36.5h62.4c6.2 0 11.2 5 11.2 11.2v16.3c0 6.2-5 11.2-11.2 11.2h-62.4c-6.2 0-11.2-5-11.2-11.2v-16.3c0-6.2 5-11.2 11.2-11.2zm84.9 0h62.4c6.2 0 11.2 5 11.2 11.2v16.3c0 6.2-5 11.2-11.2 11.2H331c-6.2 0-11.2-5-11.2-11.2v-16.3c0-6.2 5-11.2 11.2-11.2zm0 36.5h62.4c6.2 0 11.2 5 11.2 11.2v16.3c0 6.2-5 11.2-11.2 11.2H331c-6.2 0-11.2-5-11.2-11.2v-16.3c0-6.1 5-11.2 11.2-11.2zm84.8-36.5h62.4c6.2 0 11.2 5 11.2 11.2v16.3c0 6.2-5 11.2-11.2 11.2h-62.4c-6.2 0-11.2-5-11.2-11.2v-16.3c0-6.2 5-11.2 11.2-11.2zm84.8 0H563c6.2 0 11.2 5 11.2 11.2v16.3c0 6.2-5 11.2-11.2 11.2h-62.4c-6.2 0-11.2-5-11.2-11.2v-16.3c0-6.2 5-11.2 11.2-11.2zm84.8 0h62.4c6.2 0 11.2 5 11.2 11.2v16.3c0 6.2-5 11.2-11.2 11.2h-62.4c-6.2 0-11.2-5-11.2-11.2v-16.3c0-6.2 5-11.2 11.2-11.2zm-169.6 36.6h62.4c6.2 0 11.2 5 11.2 11.2v16.3c0 6.2-5 11.2-11.2 11.2h-62.4c-6.2 0-11.2-5-11.2-11.2v-16.3c0-6.2 5-11.2 11.2-11.2zm84.8 0H563c6.2 0 11.2 5 11.2 11.2v16.3c0 6.2-5 11.2-11.2 11.2h-62.4c-6.2 0-11.2-5-11.2-11.2v-16.3c0-6.2 5-11.2 11.2-11.2zm-254.5 36.5h62.4c6.2 0 11.2 5 11.2 11.2v16.3c0 6.2-5 11.2-11.2 11.2h-62.4c-6.2 0-11.2-5-11.2-11.2v-16.3c0-6.2 5-11.2 11.2-11.2zm84.9 0h62.4c6.2 0 11.2 5 11.2 11.2v16.3c0 6.2-5 11.2-11.2 11.2H331c-6.2 0-11.2-5-11.2-11.2v-16.3c0-6.2 5-11.2 11.2-11.2zm84.8 0h62.4c6.2 0 11.2 5 11.2 11.2v16.3c0 6.2-5 11.2-11.2 11.2h-62.4c-6.2 0-11.2-5-11.2-11.2v-16.3c0-6.2 5-11.2 11.2-11.2zm84.8 0H563c6.2 0 11.2 5 11.2 11.2v16.3c0 6.2-5 11.2-11.2 11.2h-62.4c-6.2 0-11.2-5-11.2-11.2v-16.3c0-6.2 5-11.2 11.2-11.2zm84.8 0h62.4c6.2 0 11.2 5 11.2 11.2v16.3c0 6.2-5 11.2-11.2 11.2h-62.4c-6.2 0-11.2-5-11.2-11.2v-16.3c0-6.2 5-11.2 11.2-11.2zm80.4 0h71.3c3.7 0 6.8 3 6.8 6.8v25.2c0 3.7-3 6.8-6.8 6.8h-71.3c-3.7 0-6.8-3-6.8-6.8v-25.2c0-3.8 3-6.8 6.8-6.8zm-337.9 36.6h68.5c4.5 0 8.1 3.6 8.1 8.1v22.4c0 4.5-3.6 8.1-8.1 8.1h-68.5c-4.5 0-8.1-3.6-8.1-8.1v-22.4c0-4.5 3.6-8.1 8.1-8.1zm84.8 0h68.5c4.5 0 8.1 3.6 8.1 8.1v22.4c0 4.5-3.6 8.1-8.1 8.1h-68.5c-4.5 0-8.1-3.6-8.1-8.1v-22.4c0-4.5 3.6-8.1 8.1-8.1zm84.8 0H566c4.5 0 8.2 3.6 8.2 8.1v22.4c0 4.5-3.6 8.1-8.2 8.1h-68.5c-4.5 0-8.1-3.6-8.1-8.1v-22.4c0-4.5 3.6-8.1 8.1-8.1zm84.9 0h68.5c4.5 0 8.2 3.6 8.2 8.1v22.4c0 4.5-3.6 8.1-8.2 8.1h-68.5c-4.5 0-8.2-3.6-8.2-8.1v-22.4c0-4.5 3.6-8.1 8.2-8.1zm-254.5 36.4h68.5c4.5 0 8.1 3.6 8.1 8.1v22.4c0 4.5-3.6 8.1-8.1 8.1h-68.5c-4.5 0-8.1-3.6-8.1-8.1v-22.4c0-4.4 3.6-8.1 8.1-8.1zm84.8 0h68.5c4.5 0 8.1 3.6 8.1 8.1v22.4c0 4.5-3.6 8.1-8.1 8.1h-68.5c-4.5 0-8.1-3.6-8.1-8.1v-22.4c0-4.4 3.6-8.1 8.1-8.1zm84.8 0H566c4.5 0 8.2 3.6 8.2 8.1v22.4c0 4.5-3.6 8.1-8.2 8.1h-68.5c-4.5 0-8.1-3.6-8.1-8.1v-22.4c0-4.4 3.6-8.1 8.1-8.1zm84.9 0h68.5c4.5 0 8.2 3.6 8.2 8.1v22.4c0 4.5-3.6 8.1-8.2 8.1h-68.5c-4.5 0-8.2-3.6-8.2-8.1v-22.4c0-4.4 3.6-8.1 8.2-8.1zm-339.3 36.6h68.5c4.5 0 8.1 3.6 8.1 8.1v22.4c0 4.5-3.6 8.2-8.1 8.2h-68.5c-4.5 0-8.1-3.6-8.1-8.2v-22.4c-.1-4.4 3.6-8.1 8.1-8.1zm84.8 0h68.5c4.5 0 8.1 3.6 8.1 8.1v22.4c0 4.5-3.6 8.2-8.1 8.2h-68.5c-4.5 0-8.1-3.6-8.1-8.2v-22.4c0-4.4 3.6-8.1 8.1-8.1zm84.8 0h68.5c4.5 0 8.1 3.6 8.1 8.1v22.4c0 4.5-3.6 8.2-8.1 8.2h-68.5c-4.5 0-8.1-3.6-8.1-8.2v-22.4c0-4.4 3.6-8.1 8.1-8.1zm84.8 0H566c4.5 0 8.2 3.6 8.2 8.1v22.4c0 4.5-3.6 8.2-8.2 8.2h-68.5c-4.5 0-8.1-3.6-8.1-8.2v-22.4c0-4.4 3.6-8.1 8.1-8.1zm84.9 0h68.5c4.5 0 8.2 3.6 8.2 8.1v22.4c0 4.5-3.6 8.2-8.2 8.2h-68.5c-4.5 0-8.2-3.6-8.2-8.2v-22.4c0-4.4 3.6-8.1 8.2-8.1zm-339.3 36.5h68.5c4.5 0 8.1 3.6 8.1 8.2v22.4c0 4.5-3.6 8.2-8.1 8.2h-68.5c-4.5 0-8.1-3.6-8.1-8.2V539c-.1-4.6 3.6-8.2 8.1-8.2zm83.4 0h71.3c3.7 0 6.8 3 6.8 6.8v25.2c0 3.7-3 6.8-6.8 6.8h-71.3c-3.7 0-6.8-3-6.8-6.8v-25.2c.1-3.8 3.1-6.8 6.8-6.8zm86.2 0h68.5c4.5 0 8.1 3.6 8.1 8.2v22.4c0 4.5-3.6 8.2-8.1 8.2h-68.5c-4.5 0-8.1-3.6-8.1-8.2V539c0-4.6 3.6-8.2 8.1-8.2zm84.8 0H566c4.5 0 8.2 3.6 8.2 8.2v22.4c0 4.5-3.6 8.2-8.2 8.2h-68.5c-4.5 0-8.1-3.6-8.1-8.2V539c0-4.6 3.6-8.2 8.1-8.2zm83.3 0h71.6c3.6 0 6.6 3 6.6 6.6v25.5c0 3.6-3 6.6-6.6 6.6h-71.6c-3.6 0-6.6-3-6.6-6.6v-25.5c0-3.7 3-6.6 6.6-6.6zm-337.7 36.6h68.5c4.5 0 8.1 3.6 8.1 8.2V598c0 4.5-3.6 8.2-8.1 8.2h-68.5c-4.5 0-8.1-3.6-8.1-8.2v-22.4c-.1-4.6 3.6-8.2 8.1-8.2zm84.8 0h68.5c4.5 0 8.1 3.6 8.1 8.2V598c0 4.5-3.6 8.2-8.1 8.2h-68.5c-4.5 0-8.1-3.6-8.1-8.2v-22.4c0-4.6 3.6-8.2 8.1-8.2zm84.8 0h68.5c4.5 0 8.1 3.6 8.1 8.2V598c0 4.5-3.6 8.2-8.1 8.2h-68.5c-4.5 0-8.1-3.6-8.1-8.2v-22.4c0-4.6 3.6-8.2 8.1-8.2zm83.3 0h71.6c3.6 0 6.6 3 6.6 6.6v25.5c0 3.6-3 6.6-6.6 6.6H496c-3.6 0-6.6-3-6.6-6.6V574c0-3.7 2.9-6.6 6.6-6.6zm84.8 0h71.6c3.6 0 6.6 3 6.6 6.6v25.5c0 3.6-3 6.6-6.6 6.6h-71.6c-3.6 0-6.6-3-6.6-6.6V574c0-3.7 3-6.6 6.6-6.6zm86.4-73.1h68.5c4.5 0 8.2 3.6 8.2 8.1v22.4c0 4.5-3.6 8.2-8.2 8.2h-68.5c-4.5 0-8.2-3.6-8.2-8.2v-22.4c0-4.4 3.7-8.1 8.2-8.1zm-1.6 73.1h71.6c3.6 0 6.6 3 6.6 6.6v25.5c0 3.6-3 6.6-6.6 6.6h-71.6c-3.6 0-6.6-3-6.6-6.6V574c0-3.7 3-6.6 6.6-6.6z"/><path opacity=".1" fill="tomato" d="M749.6 235.3c0 .8.1 1.5.2 2.3-.2-.7-.2-1.5-.2-2.3zm9.4 15.6c-1.4-.7-2.6-1.6-3.8-2.6 1.2 1 2.5 1.9 3.8 2.6z"/><path opacity=".1" d="M613.1 568.3c-.2-.2-.5-.4-.8-.5 0 0-1-11.4-7.2-18.5s-7.4-26.6-7.4-26.6c-.8-.1-1.6-.2-2.3-.2-.3-.6-.7-1.6-1.2-2.7-1-2.5-2.3-5.7-2.4-7.4-.2-3-7.4-19.4-7.4-19.4s-7.6-38.2-21.4-50.3c0 0-5.5-7.8-5.5-12s-6.4-6.1-6.4-6.1-4.2-12.3-3.9-15.6-9.3-14.6-9.3-14.6-1.3-11.4-3.7-14.3-2-10.6-2-10.6-7.2-6.7-6.6-11.1-2.2-11.6-2.2-11.6 5-8.8 5.6-16c.1-.9.1-1.8 0-2.7 1.1-.2 2.2-.5 3.2-1.1 5-4.2-1.2-43.4-1.2-43.4s-6.9-22-3.4-38.5S516 152 516 152s-2.4-8.8-5.1-13.9c-.2-.3-.3-.6-.5-.9 1.9-1.4 2.5-4.6 2.5-4.6s7.3-10.1 3-13c-3.9-2.6-10.2-3.7-11.9-7.5-.1-.2-.2-.5-.2-.7 4.1.9 7.6 1.7 8.7 2.1 3 1.1 10.5 2.5 11.6-5s-13.9-25.9-15.3-26.6-3.6-6.3-3.6-6.3c1.6-2.9-2.7-6.3-2.7-6.3l-2.2 1.2c-.3-5.4-.9-11.5-.9-11.5s-1.7-3.8-4.7-16.8-9.4-7-11.7-7.3-14.7 1.7-19.4 2.8-25.5 16.3-27 16.6-7.2 10.8-7.9 13c-.2.8 1 1.7 2.6 2.6-.2.3-.5.6-.7 1-8.5 12.6-5.7 29.6 6.3 39-.4.9-.7 1.7-1 2.6-.2.6-.3 1.1-.5 1.7-3.8 1.8-6.5 5.1-7.6 9.2-1.4 5.3-2.8 12.2-1.1 14.7 1.6 2.3 2.3 5.1 2 7.9.1.7 11.3 10.1 11.3 15.3s7.4-.9 8.8-2c.3-.2 1.6-1.2 3.5-2.6l-.8 1.9c-2.8 6.5-6.8 15.6-8.1 16.5-2 1.5-14.1 44.1-13.8 49.1s-1 32.7-1 32.7-4.2 39.4-7.4 44.4c0 0-2.2 18.7-4.2 19.2s-2.9 4.5 7.8 6.4c3.6.6 8.6 1.3 13.8 1.9l-1.4 2.5-17.9 31.4-15 35.8s-2.7 9.1-5.4 9.1-4.5 8.9-4.5 8.9-4.9 9.6-3.2 12 3.2 8.6 1 9.4-3.7 23-3.7 23l-12 42.9s-3.4 3-2.7 6.6-3.4 3.9-3.4 3.9c-.9 1.6-1.7 3.3-2.2 5 0 .2-.1.4-.1.5-1 .4-1.8 1.1-2.3 2.1-4 6.9-10.1 21.2-13.6 22.9s-10.9 3.2-16.7 2.7-12.8 1.9-15.8.1c-3.3-1.6-6.8-2.6-10.5-3-3.5-.2-5.9 1-3.2 5.7 5.7 9.7 21.9 21.2 25.6 22.2s35.7 14.1 39 15.7 11.9 3 12.3 0-.9-9.8-.9-9.8v-.1c.6-1.2 6.7-13.5 6.2-16.9-.5-3.5 14.8-22.5 11.4-28.1 0 0 .2-1.1.5-2.5.4-2.2.7-4.5.9-6.7 0-2.5 11.6-22.2 11.6-22.2s13.5-29.3 14-37.7 4.2-9.8 4.2-9.8.7-.7 1.7-4.5.2-10.6.2-10.6 5.7-4 5.9-6.6 38-51.3 38-51.3 2.5.5 3.7 4.9S514 450 514 450s14.6 4.2 15.7 13.8l6.1 10.6 11.8 21s3.7 11.1 8.4 14.6c0 0 3 6.1 1.8 8.9s4.5 5.1 4.5 5.1.9 4.5 1.4 7.6c.1.8.2 1.6.2 2.4-1.6 1.8-2.1 4.4-1.3 6.7 3.4 11.3 7.4 18.2 4 22s-12.1 14.6-12.1 14.6-13 3.9-15.8 5c-1.8.7-2.7 3.3-1.4 5.7 1.2 1.9 3 3.4 5.1 4 7.2 2.7 40.5 1.5 40.5 1.5s32-11.9 33.3-17.5c1.2-3.9-1.6-6.7-3.1-7.7z"/><path fill="#FDC2CC" d="M720.4 123.4c0 .8 0 1.6-.1 2.4-1.4 15.9-15.4 27.6-31.2 26.2-15.9-1.4-27.6-15.4-26.2-31.2 1.4-15.9 15.4-27.6 31.2-26.2 14.9 1.3 26.4 13.9 26.3 28.8z"/><path fill="#464A5F" d="M671.2 108.8c-.2 1.3.2 2.6.1 3.9-.2 1.7-1.1 3.2-1.9 4.7s-1.3 3.4-.5 4.9c.6 1.3 2 2 3 3.2 1.5 1.8 1.6 4.5.9 6.7-.5 1.6-1.3 3.4-.4 4.9.7 1.3 2.5 1.7 3 3.1.2.9.1 1.8-.3 2.6-.8 2.1-1.8 4-2.4 6.1-.8 2.1-.9 4.3-.3 6.4.1.3.2.5.4.7.3.2.6.3 1 .3l2.8.3c1.1.1 2.4.1 3-.9.3-.5.3-1.1.7-1.4s1.3.2 1.7.7c2.8 2.8 6.4 4.5 10.3 5 1 .2 2.1.1 3-.5.8-.6 1.2-1.6 2-2.2 1.8-1.4 4.6.2 6.7-.7 1.9-.8 2.6-3.1 2.7-5.1s-.2-4.2.7-6c.8-1.2 1.6-2.4 2.6-3.4 1.5-2.4 2.1-5.2 1.7-8-.5-2.7-1.3-5.4-2.5-7.9-1.9-4.4-4.1-8.8-7.7-12-.8-.6-1.5-1.3-2.2-2.1-1.6-2.3-1.2-5.6-3-7.8-1.5-1.7-3.9-2.1-6.2-2.1-3.1 0-6.2.8-9 2.1-.9.4-1.8.8-2.7 1-1.8.3-2.6-1.2-4.3-.4-1.6.8-2.7 2.2-2.9 3.9z"/><path opacity=".1" d="M679.7 105.5c.9-.2 1.9-.5 2.7-1 2.7-1.2 5.7-1.9 8.7-2h-1c-3.1 0-6.2.8-9 2.1-.8.4-1.7.8-2.5 1 .3.1.7 0 1.1-.1zm-1.9 51.2l-2.8-.3c-.4 0-.7-.1-1-.3-.2-.2-.3-.4-.4-.7-.6-2.1-.4-4.4.3-6.4.7-2.1 1.7-4 2.4-6.1.4-.8.5-1.7.3-2.6-.5-1.4-2.3-1.8-3-3.1-.9-1.4 0-3.3.4-4.9.7-2.3.6-4.9-.9-6.7-.9-1.1-2.3-1.8-3-3.2-.8-1.5-.2-3.4.5-4.9s1.7-3 1.9-4.8c.1-1.3-.3-2.6-.1-3.9.2-1.6 1.3-3.1 2.8-3.7.1 0 .2-.1.3-.1-.5-.2-1.1-.1-1.7.1-1.5.7-2.6 2.1-2.8 3.7-.2 1.3.2 2.6.1 3.9-.2 1.7-1.1 3.2-1.9 4.8s-1.3 3.4-.5 4.9c.6 1.3 2 2 3 3.2 1.5 1.8 1.6 4.5.9 6.7-.5 1.6-1.3 3.4-.4 4.9.7 1.3 2.5 1.7 3 3.1.2.9.1 1.8-.3 2.6-.8 2.1-1.8 4-2.4 6.1-.8 2.1-.9 4.3-.3 6.4.1.3.2.5.4.7.3.2.6.3 1 .3l2.8.3h1.4zm15.8 3.5c-3.9-.5-7.5-2.2-10.3-5-.5-.5-1.2-1-1.7-.7-.1 0-.1.1-.2.2.2.2.4.3.6.5 2.8 2.8 6.4 4.5 10.3 5 .5.1 1.1.1 1.6 0h-.3zm6.5-3.2c.9.1 1.8.1 2.8.1-.9-.2-1.9-.2-2.8-.1z"/><path fill="#5F5D7E" d="M832.4 559.6c-1.8 9.9-32.3 11.6-31.8 11.3.1-.9.1-1.8-.2-2.7-.4-3-1.4-7.6-1.4-7.6s-5.7-2.2-4.5-5.1-1.8-8.9-1.8-8.9c-4.7-3.5-8.4-14.7-8.4-14.7l-11.8-21-6.1-10.6c-1-9.6-15.7-13.8-15.7-13.8s-32.5-59.4-33.7-63.8-3.7-4.9-3.7-4.9-37.8 48.8-38 51.3-5.9 6.6-5.9 6.6.8 6.7-.2 10.6-1.7 4.5-1.7 4.5-3.7 1.4-4.2 9.8-14 37.7-14 37.7-11.6 19.7-11.6 22.2c-.1 2.3-.4 4.5-.9 6.7-.3 1.4-.5 2.5-.5 2.5s-28.9-10.8-31.1-11.6c-.8-.3-.8-1.3-.5-2.4.5-1.7 1.3-3.4 2.2-5 0 0 4-.3 3.4-3.9s2.7-6.6 2.7-6.6l12-42.9s1.5-22.2 3.7-23 .7-7.1-1-9.4 3.2-12 3.2-12 1.8-8.9 4.5-8.9 5.4-9.1 5.4-9.1l15-35.8 17.9-31.4 3.8-6.6s75.4-6.7 84.7-2.4c3.1 1.5 3.9 4.7 3.6 8.4-.6 7.2-5.6 16-5.6 16s2.9 7.3 2.2 11.6 6.6 11.1 6.6 11.1-.5 7.8 2 10.6 3.7 14.3 3.7 14.3 9.6 11.3 9.3 14.6 3.9 15.6 3.9 15.6 6.4 1.9 6.4 6.1 5.5 12 5.5 12c13.7 12.1 21.3 50.3 21.3 50.3s7.2 16.3 7.4 19.3c.1 1.7 1.3 4.9 2.4 7.4.8 2.1 1.5 3.6 1.5 3.6z"/><path opacity=".1" d="M720.4 123.4c0 .8 0 1.6-.1 2.4-3.4 1.8-6.8 3.5-9.6 4.9l-6.8 3.4s-14.7-9-17.4-13.1-11-10.4-11-10.4-2.1-.6-4.3-1.5c-1.3-.5-2.5-1.1-3.7-1.7 9-13.3 27-16.7 40.3-7.7 7.8 5.2 12.6 14.2 12.6 23.7z"/><path fill="#65617D" d="M675.5 109.2s-10.7-3.3-10-5.5 6.3-12.7 7.8-13 22.3-15.5 27-16.6 17.2-3.1 19.4-2.8 8.6-5.7 11.7 7.3 4.7 16.8 4.7 16.8 1.8 16.9.8 19.3-33.1 18.1-33.1 18.1-14.7-9-17.4-13.1-10.9-10.5-10.9-10.5z"/><path opacity=".1" d="M765.8 367.2c-14.5 3.1-70.3 3.1-70.3 3.1s-11.3-1.1-21.8-2.5l3.8-6.6s75.4-6.7 84.7-2.4c3.2 1.5 3.9 4.7 3.6 8.4z"/><path d="M769 363.4c-5 4.2-73.4 4.2-73.4 4.2s-23.6-2.4-34.2-4.2-9.8-5.9-7.8-6.4 4.2-19.2 4.2-19.2c3.2-5.1 7.4-44.4 7.4-44.4s1.3-27.6 1-32.7c-.3-5.1 11.8-47.6 13.8-49.1 1.3-1 5.3-10 8.1-16.5 1.6-3.8 2.8-6.7 2.8-6.7 8.6-15.5 50.8-19.2 54.2-17.2 1.1.9 2 2 2.5 3.3 2.6 5.1 5.1 13.8 5.1 13.8s15.2 76.6 11.6 93.1 3.4 38.5 3.4 38.5 6.3 39.3 1.3 43.5z"/><path fill="#5F5D7E" d="M706.5 350.1h15.2v6.7h-15.2v-6.7z"/><path opacity=".1" d="M683.5 362.7s-7.8 14-10.4 14.5-6.6 21.7 8.9 29 16-21.7 16-21.7l6.2-24.4-16.8-6.2-3.9 8.8z"/><path fill="#464A5F" d="M682.1 361.3s-7.7 14-10.4 14.5-6.6 21.7 8.9 28.9 16-21.7 16-21.7l6.2-24.4-16.8-6.2-3.9 8.9z"/><path opacity=".1" d="M747.3 423.4s12.1 13 18.7 7.2-18.7-7.2-18.7-7.2zm19 20.2s9.9 12.5 10.1 5.7-10.1-5.7-10.1-5.7zm10.1 29.7s7.1.5 9.6-3.2l-9.6 3.2zm7 11.1s4.7 2.5 7.9-1.3l-7.9 1.3zM698 394s3 17.2 15.5 23.9L698 394zm-50.2 94.3s-1.5 4.4 6.9 5.6-6.9-5.6-6.9-5.6zm3.9-15s5.5 10.4 7.7 9.7l-7.7-9.7zm7-9.2s1.7 4.8 5.9 4.3-5.9-4.3-5.9-4.3zM637 567.3c-.3 1.4-.5 2.5-.5 2.5s-29-10.8-31.1-11.6c-.8-.3-.8-1.3-.5-2.4 4.9-4.3 16.2 3.6 16.2 3.6s11.5 3.1 15.9 7.9z"/><path fill="#464A5F" d="M618.9 614.9c0 .1 1.2 6.8.8 9.9s-8.9 1.5-12.3 0-35.3-14.7-39-15.7-19.9-12.5-25.6-22.2c-2.8-4.7-.4-6 3.2-5.7 3.6.4 7.2 1.4 10.5 3 3 1.8 10.1-.6 15.8-.1s13.1-1 16.7-2.7 9.6-16 13.6-22.9 17.2 2.4 17.2 2.4 13.4 3.5 16.8 9.1-12 24.6-11.4 28.1-5.7 15.5-6.3 16.8z"/><path fill="#464A5F" d="M619.7 624.7c-.3 3-8.9 1.5-12.3 0s-35.3-14.7-39-15.7-19.9-12.5-25.6-22.2c-2.8-4.7-.4-6 3.2-5.7 1.9 4.1 4.9 7.5 8.6 10 9.9 7 31.5 16.9 31.5 16.9s12.1-.5 17.7 3c3.7 2.3 10.8 3.3 15.2 3.8v.1c-.1 0 1 6.8.7 9.8z"/><path fill="#464A5F" d="M615 570.9s-12 22.7-12 24.2-4.7 15.7-4.7 15.7l8.3 3.4 3.1-18.2 11.1-21.9-5.8-3.2z"/><path opacity=".1" d="M832.4 559.6c-1.8 9.9-32.3 11.6-31.8 11.3.1-.9.1-1.8-.2-2.7 4-4.9 15.2-4.9 15.2-4.9 4-4.2 9.5-6.7 15.3-7 .8 1.8 1.5 3.3 1.5 3.3z"/><path fill="#464A5F" d="M853.1 612.8c-1.3 5.6-33.3 17.5-33.3 17.5s-33.3 1.2-40.5-1.5c-2.2-.6-4-2.1-5.1-4-1.3-2.5-.3-5 1.4-5.7 2.9-1.2 15.8-5 15.8-5s8.8-10.8 12.1-14.7-.7-10.8-4-22 16.1-11.3 16.1-11.3c8.8-8.9 18.8-6.9 18.8-6.9s1.2 19.5 7.4 26.6 7.2 18.5 7.2 18.5c.3.2.5.3.8.5 1.5 1 4.3 3.8 3.3 8z"/><path fill="#464A5F" d="M853.1 612.8c-1.3 5.6-33.3 17.5-33.3 17.5s-33.3 1.2-40.5-1.5c-2.2-.6-4-2.1-5.1-4 6.9 1.1 19.9 3 22 2.5 2.8-.7 14 .5 20.4-5.1s16-9.4 16-9.4 11.5-4.7 17.4-8c1.3 1 4.1 3.8 3.1 8z"/><path fill="#464A5F" d="M820 575.8l5.9 22.2 7.6 17.5 6.1-2.9-8.9-17-6.4-19.9-4.3.1z"/><path opacity=".1" d="M620.9 574.1l-5.9-3.2s-12 22.7-12 24.2c0 1.2-3 10.4-4.2 14.1-4.2-.9-8.5-1.3-12.8-1.1 0 0-21.5-9.9-31.5-16.9-3.7-2.5-6.7-5.9-8.6-10-3.5-.2-5.9 1-3.2 5.7 5.7 9.8 21.9 21.2 25.6 22.2s35.7 14.1 39 15.7 11.9 3 12.3 0-.8-9.8-.8-9.8v-.1c-4.1-.3-8.1-1.1-12-2.3l2.8-16.6 11.3-21.9zm228.9 30.6c-3.2 1.8-7.8 4-11.6 5.6l-7.7-14.7-6.4-19.8H820l5.9 22.2 6.4 14.9c-1.2.5-9.9 4.2-15.8 9.4-6.4 5.6-17.5 4.4-20.4 5.1-2.1.5-15.1-1.4-22-2.5 1.2 1.9 3 3.4 5.1 4 7.2 2.7 40.5 1.5 40.5 1.5s32-11.9 33.3-17.5c1.1-4.3-1.7-7.1-3.2-8.2z"/><path d="M696 139s14.9-17.6 19.6-20.4 23.7-12.9 23.7-12.9 4.3 3.4 2.7 6.3c0 0 2.3 5.6 3.6 6.3s16.3 19.1 15.3 26.6-8.5 6.2-11.6 5-26.5-5.7-26.5-5.7L696 139z"/><path opacity=".1" d="M718.8 126.9s10.2-3 11 0-11 0-11 0zm28.9 47.6c-.2.2-.4.4-.7.5-2 1.3-23.4 1.3-28.3 1.3-4.1 0-23.3 13.4-30.6 18.7 1.6-3.8 2.8-6.7 2.8-6.7 8.6-15.5 50.8-19.2 54.2-17.2 1.2 1 2.1 2.1 2.6 3.4z"/><path fill="#5F5D7E" d="M749.8 169s-.7 3.4-2.7 4.7-23.4 1.4-28.3 1.4-32 19.5-33.3 20.7-8.8 7.2-8.8 2-11.1-14.6-11.3-15.3c.3-2.8-.4-5.6-2-7.9-1.7-2.5-.3-9.4 1.1-14.7 1.1-4 3.9-7.4 7.6-9.2 6.2-3 15.8-7.8 20.9-10.9 1.2-.8 3.3-1.1 5.9-1.1 13.6 0 41.6 8.9 41.6 8.9.1.4.2.7.3 1.1 1.7 3.8 8 4.8 11.9 7.5 4.3 2.7-2.9 12.8-2.9 12.8z"/><path opacity=".1" d="M672.2 167.5s16.3.8 17.2 1.6-17.2-1.6-17.2-1.6zM717 185s-25.5 12.4-23.6 22.6c0 0 3.3 3.5 1.7 7.4s-2.9 31.1-1 33.1 3.9 6.9 2.9 10.3c-1 3.4 1.5 18.5 1.5 18.5s3.7 7.6-.7 9.3-.5 7.2-.5 7.2 0 6.9-4.1 7.2-.8 9.1-.8 9.1-2 5.9-5.2 5.4 1.8 8.4 1.8 8.4-12.3 8.2-10.8 21.9l-1.7 9.3 24.2 10.4 3.2-6.1s6.6-1.5 5.7-5.6 4.4-6.4 4.4-6.4 1-6.2 4.4-8.9S727 324 727 324s3-6.4 7.2-9.1 7.6-15.8 7.6-15.8l2.5-90.4c.1 0-9.2-27.8-27.3-23.7z"/><path opacity=".1" d="M722.3 185s-25.5 12.4-23.6 22.6c0 0 3.3 3.5 1.7 7.4s-2.9 31.1-1 33.1 3.9 6.9 2.9 10.3c-1 3.4 1.5 18.5 1.5 18.5s3.7 7.6-.7 9.3-.5 7.2-.5 7.2.1 6.9-4.1 7.2-.8 9.1-.8 9.1-2 5.9-5.2 5.4 1.9 8.4 1.9 8.4-12.3 8.2-10.8 21.9l-1.7 9.3 24.2 10.4 3.2-6.1s6.6-1.5 5.7-5.6 4.4-6.4 4.4-6.4 1-6.2 4.4-8.9 8.6-14.1 8.6-14.1 3-6.4 7.2-9.1 7.6-15.8 7.6-15.8l2.5-90.4c.1 0-9.1-27.8-27.4-23.7z"/><path d="M719.7 185s-25.5 12.4-23.6 22.6c0 0 3.3 3.5 1.7 7.4s-2.9 31.1-1 33.1 3.9 6.9 2.9 10.3c-1 3.4 1.5 18.5 1.5 18.5s3.7 7.6-.7 9.3-.5 7.2-.5 7.2 0 6.9-4.1 7.2-.8 9.1-.8 9.1-2 5.9-5.2 5.4 1.8 8.4 1.8 8.4-12.3 8.2-10.8 21.9l-1.7 9.3 24.2 10.4 3.2-6.1s6.6-1.5 5.7-5.6 4.4-6.4 4.4-6.4 1-6.2 4.4-8.9 8.6-14.1 8.6-14.1 3-6.4 7.2-9.1 7.6-15.8 7.6-15.8l2.5-90.4c.1 0-9.2-27.8-27.3-23.7z"/><path opacity=".1" d="M702 299.3s6.9 6.6 6.9 8.4-9.1-3.4-9.1-3.4l2.2-5zm-4 16.1s6.7 7.6 4.5 7.9-4.5-7.9-4.5-7.9zm10.9 23.7s-15.3 2.5-11.8 3.5 11.8-3.5 11.8-3.5zm4.3-50s27.7 12.5 23 15.8-23-15.8-23-15.8zm27.7-140.5c-.6-.6-44.9-9.6-44.9-9.6l2.9-.4c13.6 0 41.6 8.9 41.6 8.9.2.3.3.7.4 1.1zm-31.5-64.7s13.2 17.5 19.5 13-9.9-14.3-19.5-13zm-30.1 101.9s11.2-3.4 12.2-4-12.2 4-12.2 4zm52.5-16.9s11.7 1 12.8.7-12.8-.7-12.8-.7zm6.2-12s11.7 1 12.8.7-12.8-.7-12.8-.7zm-32.8-.8s11.7 1 12.8.7-12.8-.7-12.8-.7zm-28.6 23.7s11.2-3.4 12.2-4-12.2 4-12.2 4z"/><path fill="#464A5F" d="M1061.8 476l-7.6 121.8c-.6 9.4-8.4 16.8-17.9 16.8h-91.7c-9.5 0-17.3-7.4-17.9-16.8L919.1 476c-.1-2.5 1.8-4.6 4.3-4.7h134c2.5 0 4.5 2 4.4 4.5v.2z"/><path d="M974.6 468.6c2.3.9 6.4 2.7 6.4-.6 0-1.4-1.1-1.5-2.2-1.9-4.1-1.5-7.5-4.2-9.9-7.9-4.2-6.3-5.2-12.5-5.2-20 0-16.6 22.8-19.6 22.8-36.2 0-6.4-4-8.2-4-10 0-1.1.4-1.1 1.5-1.1 4.1 0 9.9 6.9 11.6 10.2 1 1.7 1.4 3.7 1.2 5.7 0 3.6-.4 7.3-.4 11 0 14 16.5 10.2 16.5 3.5 0-3.1-1.9-6-1.9-9 0-.4 0-.6.4-.6 1.8 0 4.8 4 5.7 5.2 3 4.6 4.4 10.8 4.4 16.2 0 16.7-15.2 25.3-15.2 28.9 0 .5 1.5 4 6.3 1 15.3-7.8 27.4-24.6 27.4-46.4 0-17.4-4.5-29.8-16.6-42.7-2-2.1-8.5-8.7-11.6-8.7-4.2 0 3.7 9.6 3.7 16.1.2 3.3-2.3 6.2-5.6 6.4h-.7c-6 0-7.5-13.1-8.2-17.2-3-17.5-6.6-30.1-24-38.3-5.4-2.6-18.9-6.1-18.9-1.1 0 1.2 1.4 2.1 2.4 2.6 4.8 2.9 10.1 11.1 10.1 19.7 0 23.8-29.8 45.6-29.8 70.4-.1 21 14.5 37.6 33.8 44.8z"/></svg>