<svg version="1.1" id="图层_1" xmlns="http://www.w3.org/2000/svg" x="0" y="0" viewBox="0 0 1110.7 771.7" xml:space="preserve"><style>.st4{fill:#ffccb2}.st5{fill:none;stroke:#000;stroke-miterlimit:10}.st5,.st6{opacity:.1}.st9{opacity:.2}.st11{fill:#434175}.st12{fill:#565387}.st14{opacity:5.000000e-02}.st17{fill:#ee8e9e}.st18{fill:#dfe5ee}.st20{fill:#464a5f}.st21{fill:#9c9ca1}.st26{fill:#535184}.st27{fill:#ffb9b9}.st28{fill:#787c9c}.st31{fill:#504f60}</style><path id="背景" d="M12 428.4C29.6 500.6 66.8 563 125.6 593.3c122.2 62.9 397.8 30.5 603.4-6.8 106.3-19.3 199.9-72.3 267.8-147.2L12 428.4zM1090.5 88.5H977.7c-5.2.2-9.5-3.9-9.7-9.1-.2-5.2 3.9-9.5 9.1-9.7h20.1c-5.2.2-9.5-3.9-9.7-9.1s3.9-9.5 9.1-9.7h.6-13.9c-5.2.2-9.5-3.9-9.7-9.1s3.9-9.5 9.1-9.7h59.5c-13.1-5.8-28.3-10-46-12.2C835.6.3 778.3 13.4 758 26.8c-25 16.6-52.8 28.9-82.5 34.8-99.1 19.7-284.4 43.3-452.4-7.6-83.5-25.2-145.5 17.5-182.7 88.9h1069.7c-1.4-20.8-5.6-39.9-13.3-56.7-1.7 1.5-4 2.3-6.3 2.3zM688.3 316.3l-1.5-.1-15.3-.9-147.2-8.3-15.9-.9L274.1 293l-65.7-3.7-10.4-.6-9.2-.5L2.4 277.7c-4.3 42-2.9 84.4 4.4 126l156.8 5.5 12.4.5 2.2.1 74.4 2.6 4 .1 8.6.3 75 2.6 10.3.4 35.9 1.2h.7l5.3.2 18 .6 15.8.5 30 1h.6l2.7.1 2.8.1h.6l47.8 1.7 13.4.5h.6l6.5.2h1.7l5.7.2 17.3.6 6.5.2 8.3.3h.3l11.5.4 33.1 1.2 9.1.3h1l44.2 1.5 25.7.9 32 1.3 5.1.2 8.3.3 30.1 1.1 226.8 8c27.5-30.3 50.6-64.3 68.8-100.9l-378.4-21.2zm-426.3 70c-2.4 0-4.7-.8-6.5-2.4-.8-.7-1.5-1.5-2.1-2.5-1.7-3-1.6-6.7.4-9.6.3-.5.7-.9 1.1-1.3 1.9-1.9 4.4-2.9 7.1-2.9h19.5c-5.2.2-9.6-3.8-9.8-8.9-.2-5.2 3.8-9.6 8.9-9.8h.9-14.9c-5.2-.3-9.1-4.6-8.9-9.8.3-5.2 4.6-9.1 9.8-8.9h112.8c5.2-.4 9.7 3.4 10.1 8.6.4 5.2-3.4 9.7-8.6 10.1h-1.5 14c5.2-.2 9.6 3.8 9.8 8.9.2 5.2-3.8 9.6-8.9 9.8h-20.4c5.2-.2 9.6 3.8 9.8 8.9.2 5.2-3.8 9.6-8.9 9.8H262zm848.1-242.7l-778.4 18.2-85.6 2-217.8 5.1c-13 32.5-21.7 69.2-25.7 107.3h1088.6c7.1-22.3 12.3-45.2 15.7-68.4 3.2-22.4 4.6-44.1 3.2-64.2zm-888 82.8h-19.5c5.3-.1 9.6 4.1 9.8 9.4v.6c-.2 3-1.8 5.6-4.3 7.2-1.6 1-3.5 1.6-5.4 1.6H89.8c-5.2.2-9.5-3.9-9.7-9.1-.2-5.2 3.9-9.5 9.1-9.7h20.1c-5.2.2-9.5-3.9-9.7-9.1-.2-5.2 3.9-9.5 9.1-9.7h.6-13.9c-5.2.2-9.5-3.9-9.7-9.1-.2-5.2 3.9-9.5 9.1-9.7h113.4c5.2-.2 9.5 3.9 9.7 9.1.2 5.2-3.9 9.5-9.1 9.7h-.6 13.9c1.6 0 3.2.4 4.6 1.1 3.1 1.6 5.1 4.7 5.1 8.2 0 5.4-4.4 9.6-9.7 9.5zM119.2 761.5c18.6 0 33.6 2.1 33.6 4.6s-15 4.6-33.6 4.6-33.6-2.1-33.6-4.6 15-4.6 33.6-4.6zm267.9-98.7c21 0 38 2.6 38 5.8s-17 5.8-38 5.8-38-2.6-38-5.8 17-5.8 38-5.8zm547.3 8c21 0 38 2.6 38 5.8s-17 5.8-38 5.8-38-2.6-38-5.8 17.1-5.8 38-5.8zM841 724.7c21 0 38 2.6 38 5.8s-17 5.8-38 5.8-38-2.6-38-5.8 17-5.8 38-5.8zm-572.5-22.3c27.2 0 49.2 4.8 49.2 10.6s-22 10.6-49.2 10.6-49.2-4.8-49.2-10.6 22-10.6 49.2-10.6zm722.8 11.1c16.2 0 29.3 2.2 29.3 5s-13.1 5-29.3 5-29.3-2.2-29.3-5 13.2-5 29.3-5zm-405.4 22.2c16.2 0 29.3 2.2 29.3 5s-13.1 5-29.3 5-29.3-2.2-29.3-5 13.2-5 29.3-5z" opacity=".1"/><path class="st1" d="M163 584.1s19.3-3.1 30.8 10.5c0 0-8.5 6.7-26.7-2.6l-4.1-7.9zm-2.1-.3s-12.3 15.2-6.3 32c0 0 10-4 11.1-24.4l-4.8-7.6zm-11-24.8s7.7-14.1 38.5 5.6c0 0-4.1 9.5-17.7 8.7s-17.2-6.9-20.8-14.3zm-2-1s-16-1.8-17.5 34.7c0 0 10.1 2.1 17.3-9.5s4.2-18 .2-25.2zm-9.3-29.2s9-24.9 41.6-7.2c0 0-7.4 22.8-38.3 15.7l-3.3-8.5zm-10-37.2s16.9-25.1 47-1.8c0 0-10.5 23.6-44.4 10.8l-2.6-9zm-3.6-35.5s19.8-23.1 49.5 0c0 0-18.7 20.3-49.5 5.9v-5.9zm-3.1-34.3s20-24.1 48.5-1.3c0 0-22.6 21.3-48.5 6.9v-5.6zm1.8-30.6s21-31.1 47.7-10c0 0-22.6 26.7-47.7 15.9v-5.9zm4.9-35.7s22.3-30.8 48.3-7.2c0 0-26.4 26.7-48.3 12.8v-5.6zm7.4-31.9s26.4-28.9 49.5-17.4c0 0-27.6 30.7-50.6 25.1l1.1-7.7zm9.3-30.2s30.5-35.4 48.2-23.6c0 0-22.5 27.5-50.4 30.3l2.2-6.7zm13.3-35s26.7-28.9 46.2-21.8c0 0-22.9 30-49.8 30.8l3.6-9zm12.1-32.8s29.5-27.7 42.4-22.8c0 0-21.3 30.8-43.6 29l1.2-6.2zm11.8-30.3s25.4-33.1 39.3-30.6c0 0-15.4 29.5-39.3 33.9v-3.3zm12.8-40.9s22.5-25.4 34.6-25.3c0 0-17.7 33.9-35.5 33.6l.9-8.3zm7.6-27.1l21.7-52.9s1.1 47.8-24.4 62.7l2.7-9.8zm8.8-58.4s3.6-44.1 1.3-47.8c0 0 15.5 36.7-1.4 67.3l.1-19.5zm-73.9 459.3s-22.5-13.9-37.1 20.2c0 0 20 13.3 39.7-11.5l-2.6-8.7zm-9.9-38.1s-27.6-12.6-41 23c0 0 21.3 14.6 43.5-14l-2.5-9zm-4.2-31.8s-19.8-23.1-49.5 0c0 0 18.7 20.3 49.5 5.9v-5.9zm-2.4-36.5s-20-24.1-48.5-1.3c0 0 22.6 21.3 48.5 6.9v-5.6zm2.4-29.7s-14.1-34.8-44.6-19.8c0 0 16.5 30.9 43.3 25.6l1.3-5.8zm6.6-36.7s-13.9-35.4-44.9-19c0 0 19 32.4 43.5 24.5l1.4-5.5zm8.7-31.6s-5.5-38.8-31.1-42.3c0 0 5.4 40.9 27.7 49.3l3.4-7zm6.9-30.3s-2.1-46.7-23.4-48.4c0 0 .7 35.5 21 55l2.4-6.6zm14.9-36.5s-6.3-38.9-26.6-43.6c0 0 2.5 37.6 24.6 53.1l2-9.5zm12.3-31.2s-.2-40.5-12.6-46.4c0 0-7.7 36.7 9 51.6l3.6-5.2zm10.3-31s-1.7-41.7-14.6-47.6c0 0-4.4 33 12.6 50.3l2-2.7zm13.7-37s-.1-33.9-9.2-41.9c0 0-9.1 37.2 4.4 48.7l4.8-6.8zm4.7-32.2l-8.9-56.5s-12.1 46.3 9.3 66.6l-.4-10.1zm1.8-56.1s-22.8-37.9-22.4-42.2c0 0 2.4 39.8 31.2 59.6l-8.8-17.4zm2.6-11.2S184.6 4.4 174.9 0c0 0 30.8 15.7 33.1 56.7l-1.8 1.6zm-7.1 421.5s9.3-10.9 23.4 0c0 0-8.8 9.6-23.4 2.8v-2.8zm-1.4-16.2s9.4-11.4 22.9-.6c0 0-10.7 10.1-22.9 3.3v-2.7zm.8-14.4s9.9-14.7 22.5-4.7c0 0-10.6 12.6-22.5 7.5v-2.8zm2.3-16.8s10.5-14.5 22.8-3.4c0 0-12.5 12.6-22.8 6v-2.6zm3.5-15.1s12.5-13.7 23.4-8.2c0 0-13 14.5-23.9 11.8l.5-3.6zm4.4-14.2s14.4-16.7 22.8-11.1c0 0-10.6 13-23.8 14.3l1-3.2zm6.3-16.6s12.6-13.7 21.8-10.3c0 0-10.8 14.2-23.5 14.5l1.7-4.2zm5.7-15.5s13.9-13.1 20-10.8c0 0-10.1 14.5-20.6 13.7l.6-2.9zm5.6-14.2s12-15.6 18.5-14.4c0 0-7.3 13.9-18.5 16v-1.6zm6-19.3s10.6-12 16.3-12c0 0-8.4 16-16.8 15.9l.5-3.9zm3.6-12.9l10.2-25s.5 22.6-11.5 29.6l1.3-4.6zm4.2-27.5s1.7-20.8.6-22.5c0 0 7.3 17.3-.7 31.7l.1-9.2zm-41.6 183.7s-9.3-10.9-23.4 0c0 0 8.8 9.6 23.4 2.8v-2.8zm-1.1-17.2s-9.4-11.4-22.9-.6c0 0 10.7 10.1 22.9 3.3v-2.7zm1.1-14s-6.6-16.4-21-9.4c0 0 7.8 14.6 20.4 12.1l.6-2.7zm3.2-17.3s-6.6-16.7-21.2-9c0 0 9 15.3 20.6 11.5l.6-2.5zm4.1-14.9s-2.6-18.3-14.7-20c0 0 2.6 19.3 13.1 23.3l1.6-3.3zm3.2-14.3s-1-22-11-22.8c0 0 .3 16.8 9.9 26l1.1-3.2zm7-17.2s-3-18.3-12.5-20.6c0 0 1.2 17.8 11.6 25.1l.9-4.5zm5.8-14.7s-.1-19.1-5.9-21.9c0 0-3.6 17.3 4.3 24.4l1.6-2.5zm4.9-14.7s-.8-19.7-6.9-22.5c0 0-2.1 15.6 6 23.7l.9-1.2zm6.5-17.5s0-16-4.4-19.8c0 0-4.3 17.5 2.1 23l2.3-3.2zm2.2-15.2l-4.2-26.6s-5.7 21.8 4.4 31.4l-.2-4.8zm.8-26.4s-10.8-17.9-10.6-19.9c0 0 1.1 18.8 14.7 28.1l-4.1-8.2zm1.3-5.3s-10.2-25.4-14.8-27.5c0 0 14.5 7.4 15.6 26.8l-.8.7zm176.6-140.9s20.2 28.5 36.7 10c0 0 3.9-2.1 3-6.4 0 0-1.5 1.1-3.2-2-.6-1.1-1.4-2.1-2.2-3.1-1.2-1.3-2.7-2.1-4.4-2.4 0 0-9.3-5.1-24.2 1.9 0 0-4.5 0-5.1.6l5.6 3s2.1-4.2 5.8-5.2c0 0-5.8 4.9-5 5.7.2.1 3.1 1.5 3.1 1.5s3.6-7.3 9.4-8.6c0 0-7.7 4.9-8.3 9.2l4.5 1.7s3.4-7.9 10-9.7c0 0-7.9 5.4-9 10l4.6 1.1s3.5-7.7 9-9.1c0 0-8.5 7.2-7.9 9.3 0 0 4.3.8 5.5.4 0 0 2.6-5.4 5.9-6 0 0-5.2 5.4-4.7 6.1 0 0 5.9-.5 8.7-2.4-2.5 1.8-5.5 2.9-8.6 3.3 1.5 1.3 3.3 2 5.2 2.3 0 0-3 1.8-6.6-2.2 0 0-4.6.2-5.2-.2 0 0 3 4.4 6.1 6 0 0-4.3-.1-7.3-6.3l-4.7-1s3.6 6 6.3 7.7c0 0-4.4-.8-7.4-8l-4.4-1.6s2.7 5.4 5.3 7.9c0 0-3.9-1.6-6.5-8.4l-2.9-1.4s2 3.9 2.8 5 .5 1.4.5 1.4c-2.1-1.9-3.6-4.3-4.4-6.9-.2-.1-5.8-3.6-6-3.2zm-31.8 29.2s-33.9-8.6-34.5 16.1c0 0-1.6 4.1 1.9 6.8 0 0 .4-1.8 3.7-.5 1.2.4 2.4.7 3.7.9 1.7.2 3.4-.1 4.9-1 0 0 10.4-2.1 17.1-17.1 0 0 3.4-2.9 3.5-3.8l-6.3 1.4s1.2 4.6-1 7.7c0 0 1.2-7.5.1-7.6-.2 0-3.3.9-3.3.9s2 7.9-1.6 12.7c0 0 2.7-8.8.4-12.4l-4.5 1.6s2.5 8.3-1.3 13.9c0 0 2.5-9.3.4-13.4l-4.3 2.1s2.3 8.1-.9 12.8c0 0 1.8-11 0-12.2 0 0-3.8 2.2-4.5 3.3 0 0 1.5 5.9-.6 8.4 0 0 .4-7.5-.4-7.6 0 0-4.1 4.2-5.1 7.4.7-3 2.3-5.8 4.4-8.1-1.9 0-3.8.5-5.4 1.6 0 0 1.1-3.3 6.4-2.6 0 0 3.4-3.1 4.1-3.2 0 0-5.1-1.4-8.5-.6 0 0 3.4-2.7 9.6 0l4.2-2.3s-6.6-2.2-9.7-1.8c0 0 3.9-2.2 10.9 1.3l4.4-1.6s-5.6-2.4-9.1-2.6c0 0 4-1.3 10.4 2.2l3.1-.7s-4.1-1.6-5.3-2-1.2-.7-1.2-.7c2.8.1 5.5.9 7.8 2.4.1-.2 6.5-1.3 6.5-1.7zM305.7 65.5s-16.2 30.9 7.8 37.2c0 0 3.6 2.5 7-.3 0 0-1.6-.8.4-3.8.7-1.1 1.3-2.2 1.7-3.4.6-1.6.6-3.4.1-5 0 0 .3-10.6-12.7-20.7 0 0-2-4-2.9-4.3l-.1 6.4s4.7-.1 7.3 2.8c0 0-7-3-7.3-1.8-.1.2.1 3.4.1 3.4s8.2-.1 12 4.5c0 0-7.9-4.6-12-3.3l.5 4.8s8.6-.6 13.2 4.5c0 0-8.4-4.6-13-3.5l1.1 4.6s8.4-.4 12.2 3.9c0 0-10.3-4.3-11.9-2.8 0 0 1.3 4.2 2.2 5.1 0 0 6-.1 8 2.5 0 0-7.2-2.1-7.5-1.4 0 0 3.1 5 6.1 6.7-2.8-1.4-5.1-3.5-6.8-6.2-.4 1.9-.3 3.8.3 5.6 0 0-3-1.9-1.1-6.9 0 0-2.3-4-2.2-4.7 0 0-2.6 4.6-2.6 8.1 0 0-1.8-3.9 2.2-9.3l-1.2-4.6s-3.7 5.9-4 9.1c0 0-1.3-4.3 3.8-10.3l-.5-4.7s-3.6 4.9-4.6 8.3c0 0-.3-4.2 4.5-9.6v-3.2s-2.6 3.6-3.2 4.7-1 1-1 1c.7-2.7 2.1-5.1 4.2-7.1-.2.3.3-6.3-.1-6.3zM1019.8 682s-41.4-2.5-36.5 26.5c0 0-1 5.1 3.7 7.5 0 0 .1-2.2 4.2-1.4 1.5.3 3 .3 4.5.2 2-.1 4-.9 5.5-2.3 0 0 11.6-4.8 16.2-23.8 0 0 3.3-4.1 3.2-5.2l-7 3s2.4 5 .5 9.2c0 0-.2-9-1.6-8.8-.3 0-3.6 1.7-3.6 1.7s4.1 8.8 1 15.2c0 0 1.2-10.8-2.3-14.5l-4.9 2.9s4.8 9.1 1.5 16.5c0 0 .8-11.3-2.6-15.8l-4.5 3.5s4.5 8.9 1.8 15.1c0 0-.4-13.2-2.7-14.2 0 0-3.9 3.4-4.5 4.8 0 0 3.1 6.5 1.2 9.9 0 0-1.2-8.8-2.1-8.8 0 0-3.9 5.8-4.3 9.8 0 0 .2-5.9 3.3-10.4-2.3.4-4.3 1.5-6 3.1 0 0 .6-4.1 6.9-4.5 0 0 3.2-4.4 4.1-4.7 0 0-6.3-.5-10.1 1.2 0 0 3.3-3.9 11.2-2.1l4.4-3.6s-8.3-1.1-11.8.1c0 0 4-3.4 12.9-.9l4.8-2.9s-7-1.5-11.2-1c0 0 4.4-2.4 12.6.2l3.4-1.5s-5.2-1-6.7-1.2-1.6-.6-1.6-.6c3.3-.5 6.6-.2 9.7 1.1.2-.1 7.5-2.8 7.4-3.3zm-405.4 22.2s-41.4-2.5-36.5 26.5c0 0-1 5.1 3.7 7.5 0 0 .1-2.2 4.2-1.4 1.5.2 3 .3 4.5.2 2-.1 4-.9 5.5-2.3 0 0 11.6-4.8 16.2-23.8 0 0 3.3-4.2 3.2-5.2l-7 3s2.4 5 .5 9.2c0 0-.2-9-1.6-8.8-.3 0-3.6 1.8-3.6 1.8s4.1 8.8 1 15.2c0 0 1.2-10.8-2.3-14.5l-4.9 2.8s4.8 9.1 1.5 16.5c0 0 .8-11.3-2.6-15.8l-4.5 3.5s4.5 8.9 1.8 15.1c0 0-.4-13.2-2.7-14.2 0 0-3.9 3.4-4.5 4.8 0 0 3.1 6.5 1.2 9.9 0 0-1.2-8.8-2.1-8.8 0 0-3.9 5.8-4.3 9.8 0 0 .2-5.9 3.3-10.4-2.2.4-4.3 1.5-5.9 3.1 0 0 .6-4.1 6.9-4.5 0 0 3.2-4.4 4.1-4.7 0 0-6.3-.5-10.1 1.2 0 0 3.3-3.9 11.2-2.1l4.4-3.6s-8.3-1.1-11.8.1c0 0 4-3.4 12.9-.9l4.8-2.9s-7-1.5-11.2-1c0 0 4.4-2.4 12.6.2l3.4-1.5s-5.2-1-6.7-1.2-1.6-.6-1.6-.6c3.3-.5 6.6-.2 9.7 1.1.2-.1 7.4-2.8 7.3-3.3zm-493.1 14.5s4.5 5.9-2.1 14.8-12 16.4-9.8 21.9c0 0 9.9-16.5 18-16.8s2.8-9.9-6.1-19.9zm-23.8 0s-4.5 5.9 2.1 14.8 12 16.4 9.8 21.9c0 0-9.9-16.5-18-16.8s-2.7-9.9 6.1-19.9z"/><path d="M194.3 163l-1.5-.4C211 103.3 215.5 65.4 205.6 56l1.1-1.1c10.5 9.9 6.2 47.3-12.4 108.1zm-50.1 138.9l-2.2-.8c1.9-5.4 4-11 6.2-16.4 19-47.3 35.2-91.4 45.5-125.2l1.9-.9c-10.4 33.9-26.3 79.6-45.3 127-2.1 5.4-4.2 10.9-6.1 16.3zm45.9 326.6c-.3-.3-29.8-33.5-50.3-90.2-12-33.2-18.8-68.1-19.9-103.4-1.4-44.1 7.8-93.4 23.7-138.1l1.7 2c-35.6 100.4-21.5 186.5-2.7 238.3 20.4 56.2 49.5 89 49.8 89.3l-2.3 2.1zm41.7-287l-.7-.2c8.6-28 10.7-45.9 6-50.3l.5-.5c5 4.7 3 22.3-5.8 51zm-23.6 65.6l-1-.4c.9-2.6 1.9-5.2 2.9-7.7 9-22.3 16.6-43.1 21.5-59.1l.9-.5c-4.9 16-12.4 37.6-21.4 59.9-1 2.6-2 5.2-2.9 7.8zm21.7 154.1c-.1-.2-14.1-15.8-23.8-42.6-5.7-15.7-8.9-32.1-9.4-48.8-.7-20.8 3.7-44.1 11.2-65.2l.8 1c-16.8 47.4-10.1 88-1.3 112.5 9.6 26.5 23.4 42 23.5 42.2l-1 .9z" fill="#444053"/><path d="M873 579.1c-1.3 7.6-8.9 33-8.9 33s-11.4 38-14.6 38.7-152.2-3.2-158.6 0-42.5.1-42.5.1-22.2 1.8-33 5-69.1 8.2-72 8.2-28.6-10.2-33.2-8.9-31.9-3.2-38.2-1.3-32.4-10.1-36.2-8.2-21.6 3.2-26.6 5.7-133.8-3.8-136.4-3.2c-.4.1-2 .4-4.3.8-12 2.1-44.6 7.5-44.6 7.5l-20.3-7s-17.8-1.3-23.5-.6-31.7-24.1-31.7-24.1-2.5-12.1 0-15.2 0-19 0-19c0-10.6 2.4-21 7-30.5 7.6-15.2 12.1-37.4 12.1-37.4s5.7-28 12.7-34.3 32.3-6.4 44.4-4.4l1.1.1c16 2.3 113.4 12.5 122.6 11.9 9.5-.6 44.4 1.3 49.5-.6s121.2 3.8 121.2 3.8 19.7-7 24.4-8.3 20.6-34.9 25.7-38.7c1.6-1.2 3-2.4 4.4-3.7 3.8-3.6 8.1-6.6 12.7-9 9.5-5.1 34.3 15.9 30.5 24.7-3.4 8-5.8 8.3-8.1 9.2-.3.1-.5.2-.8.3-2.5 1.3-12 18.4-12 18.4s125-3.2 138.9-4.4 55.8 0 60.3-3.2 48.2 5.7 48.2 5.7l22.8 48.2c.1.1 8.3 33.1 7 40.7z" fill="#f8bda5"/><path class="st4" d="M268.7 649c-12 2.1-44.6 7.5-44.6 7.5l-20.3-7s-17.8-1.3-23.5-.6-31.7-24-31.7-24-2.5-12.1 0-15.2 0-19 0-19c0-10.6 2.4-21 7-30.5 7.6-15.2 12.1-37.4 12.1-37.4s5.7-28 12.7-34.3 32.4-6.4 44.4-4.4l1.1.1c25.6 39.4 67.4 107.2 68.7 130.5.7 14.8-11.8 26.2-25.9 34.3z"/><path class="st5" d="M380.8 587.6s-8.2 2.3-20.3.4-27.3 3.2-27.3 3.2m78.6 0s9.5 2.5 34.9 3.2 28.5-1.9 40 0 23.6 3.2 23.6 3.2m-173.3 5s34.9-6.3 50.1 0 45-1.9 49.5 0 27.3 2.3 34.3 2.5 11.4 1.8 20.3 0 44.4.8 44.4.8m-45.1-54.5s18.4-4.8 32.3 0c13.9 4.8 41.9 1 56.5 3.6s57.1 10.8 61.5 5.7m-65.3 12.7s12.7-3.2 24.7 0 34.3 6.3 40.6 4.4c8.1-2.5 16.4-4.4 24.7-5.8 10.2-1.8 37.4-11.8 47.6-9.7s22.2-4.4 33-6.5 15.9-2.4 29.2 0 20.3 8.8 22.2 6.5M736 533.4c1.9-1.3 10.8 5.7 29.2 6.3s35.5-6.5 35.5-6.5-1.9-2.1 9.5 0 55.8 5.2 55.8 5.2M813.4 515s-22.8-6.4-32.3 0c-9.5 6.4-19.7.6-22.8 0s-31.1-.6-39.3-2.8-32.3 2.9-32.3 2.9-30.5-1.8-41.2-.3-35.5 6.8-37.4 3.2-22.2-9.7-29.2-6.4m-13.2 11.1s17.4-3.2 23.2 0 26 0 26 0 16.5 3.2 19 4.4m111.6-20.9s7.6-2.5 24.1 0c10.5 1.5 21.1 1.1 31.4-1.1 0 0 16.8-1.5 25.1 2s24.5-1.2 24.5-1.2m-582.1 38.3s5.1-3.8 23.5 0 27.3-1.7 27.3-1.7-7.6-.4 8.9 0 25.4-6.4 25.4-6.4m-102.3-3.7s-.6-6.8 17.1 0 27.9 3.7 27.9 3.7c7.3-2.6 15.1-3.6 22.8-3 12.7 1 29.8 0 29.8 0M239.3 515s3.8-4.5 20.9 0c17.1 4.5 22.8 0 22.8 0s17.1.2 27.9 4.3m-49.4-10.9s5.1-.3 17.1 0 24.7 0 24.7 0m-90 79.2s-9.5-7.8-3.2-12.3 15.2.5 15.2 3.1v15.9s-27.9 10.2-27.9 3.2 8.3-39.6 11.4-41.7 10.8-22.2 13.3-15 17.2 50.3 17.2 50.3c-2.1 6.4-6.7 11.7-12.7 14.7-10.1 5-46.9 5.4-46.3-3s10.8-51.4 10.8-51.4 17.1-46.4 26.6-35.4 14 30.2 21.6 38.1 24.1 37.8 17.1 51.7-57.1 27.2-57.1 27.2-40-9.5-31.7-41.9 13.3-86.9 25.4-90.1 24.1-7 34.3 0 30.4 49.7 34.2 53.1 24.7 35.2 20.9 45.6-25.4 40.9-36.8 45.3-38.1-4.4-38.1-4.4m470.8-49.4s24.1-.6 29.8 0 17.1-14.7 23.5-12.8 8.9 13 20.3 11 40.6-4.7 40.6-4.7 15.9 1.2 26.6 0 19-.1 24.7 0 22.2 0 22.2 0l5 2.8"/><path class="st5" d="M696 571.7c8-.6 16.1-.6 24.1 0 10.8 1 45.7-6.2 60.9-5.5s22.8-4.9 29.8-4 12.1 4.7 22.8 4.7 37.4-4.7 37.4-4.7m-497.2 62.6s44.4 5.7 59 0 22.2-7.6 32.4-5.7 7-5.2 25.4-.7 50.8 6.7 59 3.7 66 9.7 66 9.7m-170.1 5s18.4 1.9 30.5 3.2 67.2 5.7 78.7 0 82.5-.2 82.5-.2 15.9 1.1 25.4 0 33.6-3 33.6-3"/><path class="st4" d="M616.7 464.3c-3.4 8-5.8 8.3-8.1 9.2-11.5-5.2-26.2-17.2-35.1-24.9 3.8-3.6 8.1-6.6 12.7-9 9.6-5.1 34.3 15.8 30.5 24.7z"/><path class="st1" d="M303.3 652.4v-24.7l8.8 12.4s12-75.8 15.2-72.3 0 65 0 65l7.6-5.1 3.8 11.1s21.6-33.1 23.5-28.7-4.4 28.7-4.4 28.7l31.7-64.6s-10.8 55.4-7 58.6 18.4-9.5 20.9-5.1-23.4 27.7-23.4 27.7l-76.7-3zm404.1-1.6l9.5-24.7s7.6 10.8 9.5 11.1 12-6 12-6v-27.9l15.9 30.9 7.6-3 3.2-12.5 3.8 7.5s28.5-71.7 44.4-64.7L790.5 623l22.8-17.1s-10.2 28.2-12.4 28.3 20-3 20-3l-7.6 19.7-105.9-.1z"/><path class="st6" d="M121.3 718.7c.4.6.7 1.2.9 1.8 7.9 9.3 12.1 17.9 4.5 18.1-7.1.2-15.5 12.8-17.6 16 .1.2.2.5.2.7 0 0 9.9-16.5 18-16.8s2.9-9.8-6-19.8zm-23.8 0c-.4.6-.7 1.2-.9 1.8-7.9 9.3-12.1 17.9-4.5 18.1 7.1.2 15.5 12.8 17.6 16-.1.2-.1.5-.2.7 0 0-9.9-16.5-18-16.8s-2.8-9.8 6-19.8z"/><path d="M129.7 726.2c0 2.1-.2 3.8-.5 3.8s-.5-1.7-.5-3.8.3-1.1.6-1.1.4-.9.4 1.1zm2.9 2.5c-1.8 1-3.4 1.6-3.6 1.3s1.2-1.3 3.1-2.3 1.1-.3 1.2 0 1.1 0-.7 1zm-43.4-2.5c0 2.1.2 3.8.5 3.8s.5-1.7.5-3.8-.3-1.1-.6-1.1-.4-.9-.4 1.1zm-2.9 2.5c1.8 1 3.4 1.6 3.5 1.3s-1.2-1.3-3.1-2.3-1.1-.3-1.2 0-1 0 .8 1z" fill="#ffd037"/><path d="M90.6 754.7s12.6-.4 16.4-3.1 19.4-5.9 20.3-1.6c.9 4.3 18.9 21.5 4.7 21.7s-33-2.2-36.8-4.5-4.6-12.5-4.6-12.5z" fill="#a8a8a8"/><path class="st9" d="M132.3 770.2c-14.2.1-33-2.2-36.8-4.5-2.9-1.8-4-8.1-4.4-11h-.4s.8 10.2 4.6 12.5 22.6 4.6 36.8 4.5c4.1 0 5.5-1.5 5.4-3.7-.6 1.3-2.2 2.1-5.2 2.2z"/><path class="st5" d="M585.9 452.3s7.6 12.5 14.9 12 11.2-6.3 8.9-9.9-18-10.5-18-10.5"/><path class="st5" d="M591.4 451s3.8 8.9 6.7 5.2-6.7-5.2-6.7-5.2z"/><linearGradient id="SVGID_1_" gradientUnits="userSpaceOnUse" x1="539.288" y1="16.863" x2="539.288" y2="163.642" gradientTransform="matrix(1 0 0 -1 -44.68 709.83)"><stop offset="0" stop-color="gray" stop-opacity=".25"/><stop offset=".54" stop-color="gray" stop-opacity=".12"/><stop offset="1" stop-color="gray" stop-opacity=".1"/></linearGradient><path d="M553.2 626.3s-2-8-3.8-16c-.4-5-1.2-11.4-1.6-14v-.3c0-1.1-.4-2.1-1.1-2.9 1-2.9 4.6-13.9 4-17.1-.8-3.7-3.6-12.6-6.9-15.5-1.1-1.6-2.6-2.8-4.4-3.5-3.2-1.2-6.8-.9-9.8.8l-17 9.5c-6.8-1-12.3-1.8-12.3-1.8s-4.2-.5-9.5-1c-1.7-3.9-7-15.7-12.6-17.6-6-2-13.1.7-14.6 1.3h-.1l-.2.1c-11 5.1-9.8 26.8-9.4 31.5-2.1 2.6-4.3 5.1-6.6 7.4-3.8 3.3-5 12.1-1.4 13.9 1.7.8 4 1.9 6.1 2.7-9.6 20.3-25.8 60.4-11.3 71.8 19.7 15.5 56.7 20.6 69.3 15.5.3.1.7 0 1-.1 0 0 20.6-4.9 25.4-10.4 3.6-4.5 6.1-9.8 7.2-15.5 5-4.4 8.4-10.3 9.7-16.9 2.5-12.7-.1-21.9-.1-21.9zm-12.8-43.9l.5-2.4c.3.2.5.3.8.5-.1.7-.3 1.4-.4 2.1l-.8 4.7-.1-4.9zm-3.9-20.3c.9.6 6.7 4.9 5.5 15.9-.1-.4-.2-.8-.3-1.3-.3-1.6-1.4-3.7-5.3-5-3.4-1-6.8-1.7-10.3-2.3 3-3 6.5-5.5 10.4-7.3zm-57.6 1.2c-4.5-.3-8-.5-8.4-.2h-.1c-.6-.1-1.1 0-1.7.2-1.7.4-3.4 1.2-4.8 2.2 2-11.2 7.9-12.2 9.2-12.3 2.5 3.1 4.4 6.4 5.8 10.1zm63.8 89.2c-.6-9.2-1.2-23.5-1.5-31.9l.5-.1c.6-.1 1.1-.2 1.7-.3.6 5.4 1.6 11.8 3.3 16 2.3 5.4-1.2 12.1-4 16.3z" fill="url(#SVGID_1_)"/><path class="st11" d="M539 577.4l-11.5-3.6-12.3 4.5-.9 7.8 6.1 4 9.7-.3 8.5-4 1.5-7.4-1.1-1z"/><path class="st9" d="M539 577.4l-11.5-3.6-12.3 4.5-.9 7.8 6.1 4 9.7-.3 8.5-4 1.5-7.4-1.1-1z"/><path class="st12" d="M455.1 581.2s-3.1-26.8 9.3-32.3c0 0 6.6.3 9.5 5.1 0 0-9-.5-9.8 18.3l-9 8.9z"/><path class="st6" d="M455.1 581.7s-3.1-26.8 9.3-32.3c0 0 6.6.3 9.5 5.1 0 0-9-.5-9.8 18.3l-9 8.9z"/><path d="M461.8 571.6s-9.5 12.7-13.2 16-4.8 12-1.4 13.8 10.1 4.3 10.1 4.3l4.5-34.1z" fill="#cd939c"/><path class="st11" d="M461.8 571.6s-9.5 12.7-13.2 16-4.8 12-1.4 13.8 10.1 4.3 10.1 4.3l4.5-34.1z"/><path class="st12" d="M491.4 566.2s-6.2-16.4-12.8-18.7-14.5 1.5-14.5 1.5 9.7-1 15.6 15.9l11.7 1.3zm53.6 27.9s4.9-14 4.1-17.6-3.5-12.5-6.8-15.4-7.1 1.7-7.1 1.7 8.3 5 4.7 20.3l-1.1 6.8 6.2 4.2z"/><path class="st6" d="M545 594.1s4.9-14 4.1-17.6-3.5-12.5-6.8-15.4-7.1 1.7-7.1 1.7 8.3 5 4.7 20.3l-1.1 6.8 6.2 4.2z"/><path class="st12" d="M509.6 569.2l19-10.9c2.9-1.7 6.4-2 9.5-.8 1.8.7 3.2 1.9 4.3 3.4 0 0-9.2-.5-19.3 11.5l-13.5-3.2zm31.9 41.3s.5 17.3 3.9 25.6-6.8 20-6.8 20l1.9 10s8.7-5.6 11.2-18.2 0-21.7 0-21.7-7-28.2-6-31.2-4.2 15.6-4.2 15.5z"/><path class="st6" d="M541.5 610.5s.5 17.3 3.9 25.6-6.8 20-6.8 20l1.9 10s8.7-5.6 11.2-18.2 0-21.7 0-21.7-7-28.2-6-31.2-4.2 15.6-4.2 15.5z"/><path class="st11" d="M539.1 580.2s1.5 8.8-16.5 4.9l-12 105.4s20-4.8 24.7-10.3 8.1-15.8 7-19.5-2.5-46.5-2.5-46.5l-.7-34z"/><path class="st11" d="M459 592.1s-36 67.8-16.8 83.1 55.1 20.4 67.5 15.3c0 0 5.7 1.5 4.9-16.3s6.6-67.6 6.6-67.6L459 592.1z"/><path class="st12" d="M460.1 595.1s-33.8 63.7-15.8 78.1 51.8 19.2 63.4 14.4c0 0 5.4 1.4 4.6-15.3s6.2-63.5 6.2-63.5l-58.4-13.7z"/><path class="st6" d="M538.3 621.4c-1.4 1-9.3-1.4-9.3-1.4-8.6-.6-5.5-15.3-4-21.2.4-1.5.7-2.4.7-2.4 4 5.1 11.2 2.9 11.2 2.9l.5 4c.8 6.2 1.9 17.3.9 18.1z"/><path class="st11" d="M538.6 620.8c-1.4 1-9.3-1.4-9.3-1.4-8.6-.6-5.5-15.3-4-21.2.4-1.5.7-2.4.7-2.4 4 5.1 11.2 2.9 11.2 2.9l.5 4c.7 6.3 1.9 17.4.9 18.1z"/><path class="st14" d="M538.6 620.8c-1.4 1-9.3-1.4-9.3-1.4-8.6-.6-5.5-15.3-4-21.2.4-1.5.7-2.4.7-2.4 4 5.1 11.2 2.9 11.2 2.9l.5 4c.7 6.3 1.9 17.4.9 18.1z"/><path class="st6" d="M537.7 602.8c-3.9-.5-9.9-3.3-12.3-4.6.4-1.5.7-2.4.7-2.4 4 5.1 11.2 2.9 11.2 2.9s.1 1.8.4 4.1z"/><path class="st12" d="M533.9 598.2s-9.7 25.3 6.6 22.4c0 0 7.7-.8 7.6-6.6s-1.9-18.6-1.9-18.6l-12.3 2.8z"/><path class="st6" d="M526.6 591.9s-5 20.5 10.9 12.9 5.7-12.9 5.7-12.9l-7.6-4.9-9 4.9z"/><path class="st11" d="M526.6 591.7s-5 20.5 10.9 12.9 5.7-12.9 5.7-12.9l-7.6-4.9-9 4.9z"/><path class="st6" d="M529.6 588.8s-4.5 1.2-2.2 5.7c1.1 2 1.6 4.3 1.5 6.6-.1 1.5 1 2.9 2.5 3.2 1.6.3 3.9-.1 6.9-2.7 0 0 5.8-2.2 5.4-5s-10.1-9.2-10.1-9.2l-4 1.4z"/><path class="st12" d="M529.6 588.5s-4.5 1.2-2.2 5.7c1.1 2 1.6 4.3 1.5 6.6-.1 1.5 1 2.9 2.5 3.2 1.6.3 3.9-.1 6.9-2.7 0 0 5.8-2.2 5.4-5s-10.1-9.2-10.1-9.2l-4 1.4z"/><circle class="st6" cx="535.7" cy="595.8" r="3"/><circle class="st11" cx="535.7" cy="595.6" r="3"/><path class="st6" d="M499.2 566.9s-28.4-3.5-29.9-2.4c0 0-15.1 2.6-15.1 30.7 0 0-.3 16.2 30.8 24 0 0 25 2.2 33.1-7.7 8.1-9.9 4.1-26.5 4.1-26.5s3.2-12.7 18.3-3.9c0 0 1.6-5-5.2-7.5s-36.1-6.7-36.1-6.7z"/><path class="st11" d="M499.2 566.4s-28.4-3.5-29.9-2.4c0 0-15.1 2.6-15.1 30.7 0 0-.3 16.2 30.8 24 0 0 25 2.2 33.1-7.7 8.1-9.9 4.1-26.5 4.1-26.5s3.2-12.7 18.3-3.9c0 0 1.6-5-5.2-7.5s-36.1-6.7-36.1-6.7z"/><path class="st6" d="M500.1 566.5s-27.6-3.3-29-2.3c0 0-14.6 2.4-14.6 28.9 0 0-.3 15.2 29.9 22.5 0 0 24.3 2.1 32.2-7.2 7.9-9.3 4-25 4-25s3.2-12 17.8-3.7c0 0 1.5-4.7-5.1-7s-35.2-6.2-35.2-6.2z"/><path class="st12" d="M500.1 566.2s-27.6-3.3-29-2.3c0 0-14.6 2.4-14.6 28.9 0 0-.3 15.2 29.9 22.5 0 0 24.3 2.1 32.2-7.3 7.9-9.3 4-25 4-25s3.2-12 17.8-3.7c0 0 1.5-4.7-5.1-7s-35.2-6.1-35.2-6.1z"/><path class="st11" d="M486.2 609.8s-7.5-3.4-7.9 3.1c0 0-2.5 6.5-2.7 7.3s.4 7.4 6.2 7.1c3.3 0 6.4-1.9 7.9-4.8 0 0 1.3-7.1 3.1-8.7s-1.3-3-2.4-3c-1.4-.2-2.8-.5-4.2-1z"/><path class="st6" d="M485.2 608.8s-7.5-3.4-7.9 3.1c0 0-2.5 6.5-2.7 7.3s.4 7.4 6.2 7.1c3.3 0 6.4-1.9 7.9-4.8 0 0 1.3-7.1 3-8.6s-1.3-3.1-2.4-3.1c-1.3-.3-2.7-.6-4.1-1z"/><path class="st12" d="M485.5 608.5s-7.5-3.4-7.9 3.1c0 0-2.5 6.5-2.7 7.3s.4 7.4 6.2 7.1c3.3-.1 6.3-1.9 7.9-4.8 0 0 1.3-7.1 3.1-8.7s-1.3-3.1-2.4-3.1c-1.4-.2-2.9-.5-4.2-.9z"/><circle class="st6" cx="481.7" cy="621.1" r="2.7"/><circle class="st11" cx="481.7" cy="620.9" r="2.7"/><path class="st11" d="M507.2 635.8s-29.6-3.5-50.3-14.1c0 0-16.3 41.1-3.3 46.8s40 15 47.6 11.8c0 0 4.5.7 3-14.2s3-30.3 3-30.3z"/><path class="st6" d="M505.4 638.7s-29.6-3.3-50.3-13.2c0 0-16.3 38.6-3.3 44s40 14.1 47.5 11.1c0 0 4.5.7 3.1-13.4s3-28.5 3-28.5z"/><path class="st12" d="M505.9 638.4s-29.6-3.3-50.3-13.3c0 0-16.3 38.7-3.3 44.1s40 14.1 47.6 11.1c0 0 4.5.7 3.1-13.4s2.9-28.5 2.9-28.5z"/><path d="M535.3 572.3c-6.6-2.3-35.1-6.2-35.1-6.2s-27.6-3.3-29-2.3c0 0-7.1 1.2-11.5 10.9 4.3-8.7 10.9-9.8 10.9-9.8 1.4-1 29 2.3 29 2.3s28.5 3.9 35.2 6.2c4.4 1.5 5.2 4.2 5.2 5.7l.3.2s1.6-4.7-5-7zm-12.5 10c-.3.6-.6 1.2-.8 1.8 0 0 2.8 11.2-1.1 20.3 4.7-9.3 1.6-21.4 1.6-21.4.1-.3.2-.5.3-.7z"/><linearGradient id="SVGID_2_" gradientUnits="userSpaceOnUse" x1="801.864" y1="38.864" x2="801.864" y2="542.938" gradientTransform="matrix(1 0 0 -1 -44.68 709.83)"><stop offset="0" stop-color="gray" stop-opacity=".25"/><stop offset=".54" stop-color="gray" stop-opacity=".12"/><stop offset="1" stop-color="gray" stop-opacity=".1"/></linearGradient><path d="M879.3 649.5c-5.7-.2-5.9-2.4-13.3-6.3-4.2-2.2-10.5-8.5-15.2-13.5l-1.1-1.2h2s-1.8-16.1-.2-20 .5-26.5.5-26.5 1-17.3-.8-21.4.6-29.8.6-29.8 1.6-15.3 2-46.6-18-32.3-18-32.3-2.5-.2-6.2-.5l-1.1-.1c2.4-5 3.8-8.8 3.8-8.8s-3.1-29.2-3.9-34.3c-.8-5-5.7-25.8-5.7-25.8s-3.5-8.9-5.5-15.1-8.2-13.5-8.2-13.5-11-21.8-14.1-25c-1.4-1.5-3.4-3.4-5.2-5l-.9-.8c.5-2.3.7-4.6.7-6.9 0 0-11.5-11.3-12.3-14.1s-11.6-13.3-11.6-13.3-6.1-11.3-13.1-11.5c-3.3-.2-6.6-.1-9.8.3 1.4-5.3 3.1-10.8 4.6-15.6.2-.5.3-1 .5-1.5 5.6-3.8 9.9-9 12.6-15.2.1-.3.3-.7.4-1h.2c.3 0 .6 0 .9-.1 2.3-.4 4.2-3 3.2-5 .1.2.4.4.7.4.8 0 1.7-1.1 1.9-2.1 0-.2 0-.3.1-.5l.1-.6v-3c0-.2 0-.5-.1-.8v-.3c-.1-1.1-.3-2.2-.7-3.3-1.1-3.7-3.5-7.5-2.6-11.3v-.1c.8-3 3.3-5.1 4.9-7.7.2-.3.3-.5.4-.8l.1-.1.3-.6c.1-.2.1-.3.2-.4s.1-.4.2-.5.1-.3.2-.5.1-.3.1-.5.1-.4.1-.6 0-.3.1-.4.1-.4.1-.7V202c0-.3 0-.6-.1-.9v-.1c-.3-2.6-1.3-5-2.9-7-3.6-4.2-9.1-6.5-14.6-6.2-1.5.2-3.1.2-4.6.1-2.6-.4-4.7-2-6.8-3.6l-17.1-13.2c-1.9-1.7-4.1-3-6.5-3.9-2.4-.7-5.3-.5-7.1 1.3-3.2 3.2-1.2 8.6-2.5 12.9-1.1 3.7-4.7 6.2-8.4 7.5s-7.7 1.5-11.5 2.4c-1.1.2-2.2.7-3.1 1.4-1 1.2-1.5 2.7-1.3 4.3 0 3.8.9 7.5 2.7 10.9.7 1.4 1.6 2.8 2.4 4.2.1.1.1.2.2.3s.2.3.3.5.3.5.4.8l.2.3.2.6.1.4c.1.2.1.4.2.7.4 1.3.4 2.7.1 4-.6 2.2-2.3 3.8-3.8 5.5-1.2 1.3-2.1 2.9-2.5 4.7-.1.4-.1.8 0 1.2v.1c0 .1 0 .2.1.3 0 .1 0 .1.1.2 0 .1.1.1.1.2l.3.3.2.1c.1.1.2.1.3.2.1 0 .1.1.2.1.1.1.3.1.4.1h1c.2 0 .4 0 .6-.1h.2c.3-.1.6-.1 1-.2 1.1-.3 2.3-.8 3.3-1.3v1c.1 4 .8 7.9 2.2 11.6 2.2 5.8 5.9 10.8 10.7 14.7-.1.3-.1.7-.2 1-1 4.8-3 9.7-4.3 9.3-1.2-.3-2.5-.4-3.8-.4H696c-1.2-.1-2.3-.1-3.5 0-.5 0-1 0-1.5-.2-3.3-1-6.8-1.2-10.2-.6-7.1 1.5-17.8 4.1-20.8 7.3-4.5 4.8-11 9.5-18.4 29.6 0 0-3.7 12.3-6.5 13.9.6-.3 1.3-.6 1.9-.9-.4.7-.9 1.2-1.5 1.7 1-.5 2.1-1 3.2-1.3-2.2 13.1 1.1 50.7 1.1 50.7s-2.7 6.5.8 10.3c2.1 2.3 3.2 5.8 3.8 8.3l-.5.8c-1.8 2.8-4.3 6.6-5.9 8.6-2.9 3.6-2 15.1-2 15.1s-.6 5.4-2.7 7.5c-2 2-1.6 9.5-1.6 9.5l-5.3 19.7s-4.9 4.4-4.9 6.5-3.9 7.7-3.9 7.7-5.9 9.7 0 8.3c2.2-.6 4.2-1.6 6-3v1.3c-.2 10.5 1 25.4 8.8 25.4 12 0 43.1 14.3 43.1 14.3 6.3 4.8 14.9 3.2 14.9 3.2s-15.1 15.1-14.7 21.4-8.6 16.5-8.6 16.5L639.2 604c.2 3.8.8 7.5 2 11.1l-.4.3c-10.7 9.8-11.6 29.1-11.6 29.1l-2.5 9.9 37.2 16.3s48.2 1 56.6-1.2 6.5-11.5-4.5-13.3-13.7-6.7-17.4-8.9c-2.5-1.5-11.3-11.2-16.8-17.3l-.2-.3 1.3-7c2.5-1.2 6.1-13.3 6.1-13.3s0-4.8 2.5-6.3 7.6-15.9 7.6-15.9 11-18.3 10.4-20.8 8-14.7 8-14.7 14.5-14.1 13.9-16.6 11.7-15.4 11.7-15.4c4.4-3.4 8.1-7.6 10.8-12.5l3.5-.6c16-2.6 42.7-7.4 45.7-8.7 4.1-1.8 3.3 6.3 1.6 13.1s-2.9 39.7-1 44 1 11.1 1 11.1l-2.5 36.9 1.6 7.9s-5.5 4.4-3.3 7.1.2 13.9.2 13.9c.2-.1.4-.1.7-.2-.2.4-.4.9-.5 1.4-3.2 9-1.3 23.8-1.3 23.8v11.7s56.6 1 69.1 1 29.6-6 30.7-10.9-14.4-9-20.1-9.2zm-161-209.9l-3.7.3c1.2-.2 2.5-.3 3.7-.3zm22.6-154.8c.5-2.3 1.2-4.8 1.8-7.4l-1.8 7.4zm7 160.5c-3.5 1.4-7.5 1.4-11 0 0 0 .2-14.1 1.8-20s3.9-16.5 3.9-16.5 1.8-14.7 3.7-21.4c1.8-6.6 9-43.8 12.7-46.2s5.7 1.8 5.7 1.8.5 0 1.5-.1l.6 1.2c4.4 8.8 17.2 26.9 17.2 26.9 3.8 2.3 7 5.5 9.4 9.3 3.5 5.8 4.5 19.6 4.5 19.6s7.8 30.5 11.4 34.7c1.8 2.1 1 3.4-.3 4.1-2.6 1.4-4.8 3.5-6.5 6-.5.8-1.1 1.8-1.6 2.7-1.4-.3-2.7-.7-3.7-1-10.1-3.4-43.8-3.6-49.3-1.1z" fill="url(#SVGID_2_)"/><path class="st11" d="M798.3 656.9v11.6s55.4 1 67.6 1 29-6 30-10.8-14-8.8-19.6-9-5.8-2.4-13-6.2c-4.1-2.2-10.2-8.4-14.8-13.4-3.5-3.9-6.2-7-6.2-7s-29.8-.6-38.4 4.2c-2 1.1-3.3 3.3-4.3 6-3.1 8.9-1.4 23.6-1.3 23.6z"/><path class="st6" d="M799.6 633.3c6.3-2.2 42.8-3 48.8-3.1-3.5-3.9-6.2-7-6.2-7s-29.8-.6-38.4 4.2c-1.9 1-3.3 3.2-4.2 5.9z"/><path class="st12" d="M638.9 448.3l3.2 2 1.2.7 4.7 2.8c25.1 15.1 93.7 56.2 97.5 55.9 1-.1 3.9-.5 8-1.2l3.5-.6c15.7-2.6 41.8-7.3 44.7-8.6 4-1.8 3.2 6.2 1.6 13s-2.8 39.4-1 43.6 1 11 1 11l-2.4 36.6 1.6 7.8s-5.4 4.4-3.2 7 .2 13.8.2 13.8c6.4-2.4 49.8-3.2 49.8-3.2s-1.8-16-.2-19.8.4-26.4.4-26.4 1-17.2-.8-21.2.6-29.6.6-29.6 1.6-15.2 2-46.2-17.6-32-17.6-32l-6-.5c-7.1-.7-19-2-26.9-3.7-1.6-.3-3.2-.8-4.8-1.3-9.8-3.3-42.8-3.5-48.2-1.1-3.5 1.4-7.3 1.4-10.8 0l-4.2-6.8-40.1 3.4-4.3.4-39.5 3.4-2.7.2-7.3.6z"/><path class="st6" d="M799.7 479c11.7 5.7 22.8-14.5 28-25.8-7.1-.7-19-2-26.9-3.7-5.4 8.7-12.3 24.1-1.1 29.5z"/><path class="st17" d="M764.7 343c.3 1.4.7 2.7 1.4 3.9 4.3 8.7 16.8 26.7 16.8 26.7 3.7 2.3 6.9 5.5 9.2 9.2 3.4 5.8 4.4 19.4 4.4 19.4s7.6 30.2 11.2 34.4c1.8 2.1 1 3.4-.3 4.1-2.6 1.4-4.7 3.5-6.3 5.9-5.2 8.4-13.6 25.1-1.8 30.9 16 7.8 31-33.1 31-33.1s-3-29-3.8-34-5.6-25.6-5.6-25.6-3.4-8.8-5.4-15-8-13.4-8-13.4-10.8-21.6-13.8-24.8c-1.4-1.5-3.3-3.4-5-4.9-2-1.8-3.6-3.3-3.6-3.3s-20.6 14.7-20.4 19.6z"/><path class="st11" d="M629.1 654.5l36.4 16.2s47.2 1 55.4-1.2 6.4-11.4-4.4-13.2-13.4-6.6-17-8.8c-2.4-1.5-11-11.1-16.4-17.2-2.6-2.9-4.4-5-4.4-5s-7-18.6-26.4-14.4c-3.5.8-6.8 2.5-9.4 5-10.5 9.7-11.4 28.8-11.4 28.8l-2.4 9.8z"/><path class="st6" d="M643.3 451l4.7 2.8c25.1 15.1 93.7 56.2 97.5 55.9 1-.1 3.9-.5 8-1.2l3.5-.6c0-.1.1-.2.1-.2 2-3.5 3.6-7.3 4.6-11.2 4.2-16-16.6-28.2-16.6-28.2l-4.4-3.4c-5-8.4-41-16.4-41-16.4l-4.6-3.1-2.5-1.7-.7-.4-5.6-3.8-28.2 2-8.4 5.4-.9.6-3.1 2-2.4 1.5zm-.5 164.9c7.7 26.5 39.6 17.8 39.6 17.8l.6-3.4c-2.6-2.9-4.4-5-4.4-5s-7-18.6-26.4-14.4c-3.5.8-6.7 2.5-9.4 5z"/><path class="st12" d="M634.5 495.7c11.8 0 42.2 14.2 42.2 14.2 6.2 4.8 14.6 3.2 14.6 3.2s-14.8 15-14.4 21.2-8.4 16.4-8.4 16.4l-27.2 53.8c2 38.2 41.2 27.6 41.2 27.6l1.6-9c2.4-1.2 6-13.2 6-13.2s0-4.8 2.4-6.2 7.4-15.8 7.4-15.8 10.8-18.2 10.2-20.6 7.8-14.6 7.8-14.6 14.2-14 13.6-16.5 11.4-15.3 11.4-15.3c4.3-3.4 8-7.6 10.6-12.4 2-3.5 3.6-7.3 4.6-11.2 3.4-12.9-9.4-23.3-14.6-26.9-1.2-.9-2-1.3-2-1.3l-4.4-3.4c-2.3-3.8-11-7.6-19.8-10.5-6.3-2.1-12.7-3.8-16.8-4.8-2.7-.7-4.4-1-4.4-1l-4.6-3.1-1.6-1.1-1.5-1-5.6-3.8-12.5.9-15.7 1.1-8.4 5.4-4 2.6-15.6 10s-.4 3.9-.5 9v1.2c-.4 10.4.8 25.1 8.4 25.1z"/><path class="st17" d="M694.7 271.8l4.2 15s7.4 25.8 8.2 27.6 20.2 20 21 20.4 11.4 6.4 11.4 6.4.8-33 0-42.6c-.1-2.1.1-4.2.5-6.3 1.3-7.5 4.5-18.6 7.2-27 2.2-7.1 4.1-12.5 4.1-12.5s-46.8-2-45.2 2.6c.6 1.7.4 4.7-.2 7.6-1 4.8-3 9.6-4.2 9.2-1.2-.3-2.5-.4-3.7-.4-1.8-.1-3.3 0-3.3 0z"/><path class="st6" d="M705.9 262.9c11.7 9.8 28.5 10.7 41.3 2.3 2.2-7.1 4.1-12.5 4.1-12.5s-46.8-2-45.2 2.6c.6 1.8.4 4.7-.2 7.6z"/><path class="st17" d="M762.7 235.2c0 3.7-.6 7.3-1.7 10.8-.3.9-.6 1.8-1 2.6-7.4 17.6-27.7 25.8-45.3 18.4-8.8-3.7-15.6-10.8-18.9-19.8-1.4-3.7-2.1-7.5-2.2-11.4v-.6c-.3-19.1 14.9-34.9 34-35.2 19.1-.3 34.9 14.9 35.2 34-.1.4-.1.8-.1 1.2z"/><path class="st6" d="M694.7 271.8l4.2 15s7.4 25.8 8.2 27.6 20.2 20 21 20.4 11.4 6.4 11.4 6.4.8-33 0-42.6c-.1-2.1.1-4.2.5-6.3l-2.7 11.1.2 22.2 1.6 1.2-3.6 5.4v-4s-12.8-12.4-14.8-17.6-9.2-14.6-9.2-14.6-8.2-13.8-8.4-16.2c-.2-1.9-3.6-6.2-5.1-8-1.8-.1-3.3 0-3.3 0zm70 71.2c.3 1.4.7 2.7 1.4 3.9 4.4-.5 19.3-3.2 22.5-20.3-2-1.8-3.6-3.3-3.6-3.3s-20.5 14.8-20.3 19.7zM625.9 470.6c4-2.9 7.9-6.8 10.2-7.8 3.4-1.6 8.6-6.8 8.6-6.8s1.3-.9 3.3-2.1c3.7-2.2 9.8-5.3 14.5-5.7 4.2-.3 18-1.2 29-1.9l14.2-.9s13-4.6 18.6-1.6c4 2 8.2 3.6 12.6 4.6v-1.2l-4.2-6.8-44.4 3.8-5.6-3.8-28.2 2-8.4 5.4-7.2.6 3.2 2-15.6 10c0-.1-.5 4.4-.6 10.2z"/><path class="st18" d="M620.1 472.3c2.1-.6 4.1-1.7 5.9-3 4-2.9 7.8-6.7 10.1-7.8 3.4-1.6 8.6-6.8 8.6-6.8s10.6-7.2 17.8-7.8c2-.2 6.1-.4 11-.8s11-.7 16.3-1l8.5-.5 7.4-.5s13-4.6 18.6-1.6c4 2 8.2 3.6 12.6 4.6 0 0 .2-14 1.8-19.8s3.8-16.4 3.8-16.4 1.8-14.6 3.6-21.2 8.8-43.4 12.4-45.8 5.6 1.8 5.6 1.8 24-.4 24.4-26.8c0 0-11.2-11.2-12-14S765 291.8 765 291.8s-6-11.2-12.8-11.4c-3.2-.2-6.4-.1-9.6.3l-5.8 23.5.2 22.2 1.6 1.2-3.6 5.4v-4s-12.8-12.4-14.8-17.6-9.2-14.6-9.2-14.6-8.2-13.8-8.4-16.2-5.8-8.8-5.8-8.8c-1.1-.1-2.3-.1-3.4 0-.5 0-1 0-1.5-.2-3.2-1-6.7-1.2-10-.6-6.9 1.4-17.4 4.1-20.3 7.2-4.4 4.8-10.8 9.4-18 29.4l38.8 14-3.3 6.2-30.8 58.7s-1 1.7-2.4 3.9c-1.8 2.8-4.2 6.5-5.8 8.5-2.8 3.6-2 15-2 15s-.6 5.4-2.6 7.4-1.6 9.4-1.6 9.4l-5.2 19.4s-4.8 4.4-4.8 6.4-3.8 7.6-3.8 7.6-5.8 9.6 0 8.2z"/><path class="st6" d="M824.8 486.7s-12.6 4.2-16 10.2 16-10.2 16-10.2zm-6.3-13.2c-.4.6-17.3 17.5-16.2 21.6s16.2-21.6 16.2-21.6zm-92.6 12s-18.8 8.9-20.4 12.7 20.4-12.7 20.4-12.7zm-1.2 11.4s-17 7.2-19.3 9 19.3-9 19.3-9zm-7.8 15.4s-7.5 5.6-11.7 1.2 11.7-1.2 11.7-1.2zm28.2-145.9c-.4.6-25.4 45.6-32 49s32-49 32-49zm-1.2 16.9c0 1-24.4 53.2-28.4 53.8s28.4-53.8 28.4-53.8zm-92.8 33.6s-11.8 25.2-16.4 26.6 16.4-26.6 16.4-26.6zm-2-11.2s-4.1 8.8-6.5 8.8 6.5-8.8 6.5-8.8zm113.6-170.5c0 3.7-.6 7.3-1.7 10.8-.3.9-.6 1.8-1 2.6-1.8-.3-3.4-1-4.8-2.1-1.5-1-2.7-2.3-3.6-3.9-.7-1.6-1.3-3.3-1.8-5-1.6-3.9-5.3-6.7-9.5-7.2 1.2 2-.7 4.6-2.9 5s-4.4-1-6-2.7-2.7-3.7-4.2-5.4-3.7-3-6-2.7c-2 .3-3.5 1.8-5.2 2.9s-4 1.9-5.6.7c-.9-.7-1.3-1.8-2.2-2.5-2.2-1.9-5.7.1-7.3 2.4-2.5 3.7-4 5.9-7.3 7.6v-.6c-.3-19.1 14.9-34.9 34-35.2 19.1-.3 34.9 14.9 35.2 34-.1.5-.1.9-.1 1.3z"/><path d="M700.8 227.2c1.6-2.4 5.1-4.3 7.3-2.4.9.7 1.3 1.9 2.2 2.5 1.6 1.2 3.9.5 5.6-.7s3.2-2.6 5.2-2.9c2.3-.3 4.4 1 6 2.7s2.7 3.7 4.2 5.4 3.7 3 6 2.7 4.1-3 2.9-5c4.2.5 7.9 3.3 9.5 7.2.5 1.7 1.1 3.4 1.8 5 .9 1.5 2.2 2.9 3.6 3.9 1.8 1.3 4.1 2.5 6.3 2.1s4.1-3 3.1-5c.7 1.1 2.3-.4 2.5-1.7.5-2.8.4-5.7-.5-8.4-1.1-3.7-3.4-7.4-2.5-11.2.7-3 3.3-5.1 4.8-7.8 2.8-4.7 2-11-1.3-15.3-3.5-4.3-8.9-6.6-14.4-6.3-1.5.2-3 .2-4.5.1-2.5-.4-4.6-2-6.6-3.6l-16.8-13.1c-1.9-1.6-4-2.9-6.3-3.8-2.4-.7-5.2-.5-7 1.3-3.1 3.1-1.2 8.5-2.4 12.8-1.1 3.7-4.6 6.2-8.2 7.4s-7.5 1.5-11.3 2.4c-1.1.2-2.1.7-3 1.4-1 1.2-1.4 2.7-1.3 4.3 0 3.8.9 7.5 2.6 10.8 1.9 3.7 5 7.6 3.9 11.6-.6 2.1-2.2 3.8-3.7 5.5-3.2 3.6-4.2 9 1.7 7.1 5.7-1.9 7.3-4.2 10.6-9z" fill="#603556"/><path d="M767 236.9c-.2 1.3-1.8 2.8-2.5 1.7 1 2-.9 4.6-3.1 5s-4.5-.7-6.3-2.1c-1.5-1-2.7-2.3-3.6-3.9-.7-1.6-1.3-3.3-1.8-5-1.6-3.9-5.3-6.7-9.5-7.2 1.2 2-.7 4.6-2.9 5s-4.4-1-6-2.7-2.7-3.7-4.2-5.4-3.7-3-6-2.7c-2 .3-3.5 1.8-5.2 2.9s-4 1.9-5.6.7c-.9-.7-1.3-1.8-2.2-2.5-2.2-1.9-5.7.1-7.3 2.4-3.2 4.8-4.8 7.1-10.6 8.9-1.9.6-3.1.5-3.7-.1-1.3 2.9-.7 5.4 3.7 4.1 5.7-1.8 7.3-4.2 10.6-8.9 1.6-2.4 5.1-4.3 7.3-2.4.9.7 1.3 1.9 2.2 2.5 1.6 1.2 3.9.5 5.6-.7s3.2-2.6 5.2-2.9c2.3-.3 4.4 1 6 2.7s2.7 3.7 4.2 5.4 3.7 3 6 2.7 4.1-3 2.9-5c4.2.5 7.9 3.2 9.5 7.2.5 1.7 1.1 3.4 1.8 5 .9 1.5 2.1 2.9 3.6 3.9 1.8 1.3 4.1 2.5 6.3 2.1s4.1-3 3.1-5c.7 1.1 2.3-.4 2.5-1.7.3-1.7.4-3.5.2-5.2-.1.4-.2.8-.2 1.2zm-74.9-17.2v-.1c1.1-4.1-2-7.9-3.9-11.6-1.4-2.6-2.2-5.5-2.5-8.4-.1.5-.1 1-.1 1.6 0 3.8.9 7.5 2.6 10.8 1.4 2.4 3.2 5 3.9 7.7zm76.7-10.2c-1.5 2.6-4.1 4.8-4.8 7.8-.3 1.3-.3 2.6 0 3.8.7-2.9 3.2-5.1 4.8-7.7 1.5-2.6 2-5.5 1.5-8.4-.2 1.6-.7 3.2-1.5 4.5z"/><path class="st20" d="M200.1 659.2l2.6 4.8 86.2-18.3-3.4-5.4-85.4 18.9z"/><path class="st20" d="M189.8 663.8l-13.1-77.5c-.2-1.3.7-2.6 2-2.8h.2l99-10.6c1.3-.1 2.5.8 2.7 2.1l9.3 67.8-100.1 21z"/><path class="st6" d="M189.8 663.8l-13.1-77.5c-.2-1.3.7-2.6 2-2.8h.2l99-10.6c1.3-.1 2.5.8 2.7 2.1l9.3 67.8-100.1 21z"/><path class="st20" d="M191.3 663.8l-13-77.5c-.2-1.3.7-2.6 2-2.8h.2l99-10.6c1.3-.1 2.5.8 2.7 2.1l9.3 67.8-100.2 21z"/><path class="st1" d="M185.1 589.8l10.7 65.8 89.5-18.4-8.3-58.5-91.9 11.1z"/><path class="st21" d="M202.3 662.4l-.6-1.3-11.9 2.7 30.2 46.1c.9 1.4 2.7 2.1 4.4 1.6l106-30.8c2.1-.6 3.3-2.7 2.7-4.8-.2-.8-.7-1.6-1.4-2.1l-41.1-31.1-8.6 2 .4.9-80.1 16.8z"/><path class="st6" d="M202.3 662.4l-.6-1.3-11.9 2.7 30.2 46.1c.9 1.4 2.7 2.1 4.4 1.6l106-30.8c2.1-.6 3.3-2.7 2.7-4.8-.2-.8-.7-1.6-1.4-2.1l-41.1-31.1-8.6 2 .4.9-80.1 16.8z"/><path class="st21" d="M203.8 662.4l-.6-1.3-11.9 2.7 30.2 46.1c.9 1.4 2.7 2.1 4.4 1.6l106-30.8c2.1-.6 3.3-2.8 2.7-4.8-.2-.8-.7-1.5-1.4-2l-41.1-31.1-8.6 2 .4.9-80.1 16.7z"/><path class="st6" d="M251.1 681.3l34.1-8.8c.2-.1.4 0 .6.2l15.1 13.7c.3.2.3.7 0 .9-.1.1-.2.2-.3.2l-36 10.6c-.3.1-.5 0-.7-.2l-13.2-15.5c-.2-.3-.2-.7.1-.9.1-.1.2-.1.3-.2z"/><path d="M251.8 680.6l34.1-8.8c.2-.1.4 0 .6.2l15.1 13.7c.3.2.3.7 0 .9-.1.1-.2.2-.3.2l-36 10.6c-.2.1-.5 0-.7-.2l-13.2-15.5c-.2-.3-.2-.7.1-.9.2-.2.2-.2.3-.2z" fill="#939498"/><g opacity=".1"><path d="M203.9 668.8l1.5 2.5c.1.1.2.2.3.1l5.2-1.2c.2 0 .3-.2.2-.4v-.1l-1.7-2.3c-.1-.1-.2-.1-.3-.1l-5 1.1c-.2.1-.3.3-.2.4zm6.7-1.3l1.5 2.5c.1.1.2.2.3.1l5.2-1.2c.2 0 .3-.2.2-.4v-.1l-1.7-2.4c-.1-.1-.2-.1-.3-.1l-5 1.1c-.2 0-.3.2-.2.5 0-.1 0-.1 0 0zm6.6-1.5l1.5 2.5c.1.1.2.2.3.1l5.2-1.2c.2 0 .3-.2.2-.3v-.1l-1.7-2.4c-.1-.1-.2-.1-.3-.1l-5 1.1c-.2 0-.3.2-.2.4-.1 0 0 0 0 0zm6.4-1.4l1.5 2.4c.1.1.2.2.3.1l5.1-1.1c.2 0 .3-.2.2-.4 0 0 0-.1-.1-.1l-1.7-2.3c-.1-.1-.2-.2-.3-.1l-4.9 1.1c-.1 0-.2.2-.1.4zm-.5 3.8l1.5 2.4c.1.1.2.2.3.1l5.2-1.2c.2 0 .3-.2.2-.4v-.1l-1.7-2.4c-.1-.1-.2-.1-.3-.1l-5 1.1c-.2 0-.3.2-.2.3-.1.2 0 .3 0 .3zm-6.7 1.4l1.5 2.5c.1.1.2.2.3.1l5.2-1.2c.2 0 .3-.2.2-.4v-.1l-1.7-2.4c-.1-.1-.2-.1-.3-.1l-5 1.1c-.2.1-.3.3-.2.5zm4.4 3l1.5 2.5c.1.1.2.2.3.1l5.2-1.2c.2 0 .3-.2.2-.4v-.1l-1.7-2.4c-.1-.1-.2-.1-.3-.1l-5 1.1c-.2.1-.3.3-.2.5-.1 0-.1 0 0 0zm6.1 2.7l1.5 2.5c.1.1.2.2.3.1l5.2-1.2c.2 0 .3-.2.2-.3 0 0 0-.1-.1-.1l-1.7-2.4c-.1-.1-.2-.1-.3-.1l-5 1.1c-.1 0-.2.1-.1.4 0-.1 0 0 0 0zm1.1 4.3l2.5 3.1c.1.1.2.1.3.1l5.2-1.3c.2 0 .2-.2.2-.4 0 0 0-.1-.1-.1l-2.6-3.1c-.1-.1-.2-.1-.3-.1l-5.1 1.4c-.2 0-.3.2-.2.4 0-.1 0-.1.1 0zm6.8-1.7l2.5 3.2c.1.1.2.1.3.1l6.8-1.9c.2 0 .2-.2.2-.4 0 0 0-.1-.1-.1l-2.6-3.1c-.1-.1-.2-.1-.3-.1l-6.8 1.8c-.2 0-.2.2-.2.4.1 0 .2 0 .2.1zm-13.5 3.3l2.5 3.1c.1.1.2.1.3.1l5.2-1.3c.2 0 .2-.2.2-.4 0 0 0-.1-.1-.1l-2.6-3.1c-.1-.1-.2-.1-.3-.1l-5.1 1.4c-.2 0-.3.2-.2.4.1-.1.1 0 .1 0zm-7 1.8l2.5 3.1c.1.1.2.1.3.1l5.2-1.3c.2 0 .2-.2.2-.4 0 0 0-.1-.1-.1l-2.6-3.1c-.1-.1-.2-.1-.3-.1l-5.1 1.4c-.2 0-.2.2-.2.3l.1.1zm15.8-20.1l1.5 2.4c.1.1.2.2.3.1l5.1-1.1c.2 0 .3-.2.2-.4v-.1l-1.7-2.3c-.1-.1-.2-.2-.3-.1l-4.9 1.1c-.2 0-.3.2-.3.4 0-.1.1 0 .1 0zm-.4 3.8l1.5 2.4c.1.1.2.2.3.1l5.1-1.1c.2 0 .3-.2.2-.4 0 0 0-.1-.1-.1l-1.7-2.3c-.1-.1-.2-.2-.3-.1l-4.9 1.1c-.1 0-.2.1-.1.4-.1-.1-.1 0 0 0zm6.6-5.2l1.5 2.4c.1.1.2.2.3.1l5.2-1.1c.2 0 .3-.2.2-.4 0 0 0-.1-.1-.1l-1.7-2.3c-.1-.1-.2-.1-.3-.1l-4.9 1.1c-.2 0-.3.2-.3.4.1-.1.1 0 .1 0zm18.4-4l2.1 2.3c.1.1.2.1.2.1l4.6-1.1c.1 0 .2-.2.2-.3 0-.1 0-.1-.1-.1l-2.4-2.3c-.1-.1-.1-.1-.2-.1l-4.3 1.1c-.1 0-.2.2-.2.3l.1.1zm5.8-1.4l2.1 2.3c.1.1.2.1.2.1l4.6-1.1c.1 0 .2-.2.2-.3 0-.1 0-.1-.1-.1l-2.4-2.3c-.1-.1-.1-.1-.2-.1l-4.3 1.1c-.1 0-.2.2-.2.3l.1.1zm-5.7 5.1l2.1 2.3c.1.1.2.1.2.1l4.6-1.1c.1 0 .2-.2.2-.3 0-.1 0-.1-.1-.1l-2.4-2.3c-.1-.1-.2-.1-.2-.1l-4.3 1.1c-.1 0-.2.1-.1.4 0-.1 0-.1 0 0zm-6 1.4l2 2.2c.1.1.2.1.3.1l4.4-1c.2 0 .3-.2.2-.4 0-.1 0-.1-.1-.2l-2.3-2.2c-.1-.1-.2-.1-.3-.1l-4.2 1c-.2 0-.3.2-.2.4.1.1.2.1.2.2zm4.6 6.8l2 2.2c.1.1.2.1.3.1l4.4-1c.2 0 .3-.2.2-.4 0-.1 0-.1-.1-.2l-2.3-2.2c-.1-.1-.2-.1-.3-.1l-4.2 1c-.2.1-.3.2-.2.4l.2.2zm-6.3 1.4l2 2.2c.1.1.2.1.3.1l4.4-1c.2 0 .3-.2.2-.4 0-.1 0-.1-.1-.2l-2.3-2.2c-.1-.1-.2-.1-.3-.1l-4.2 1c-.2.1-.3.2-.2.4.1.1.2.1.2.2zm-6.4 1.6l2 2.2c.1.1.2.1.3.1l4.4-1c.2 0 .3-.2.2-.4 0-.1 0-.1-.1-.2l-2.3-2.2c-.1-.1-.2-.1-.3-.1l-4.2 1c-.2 0-.3.2-.2.4.1.1.2.1.2.2zm-6.7 1.3l2.1 2.2c.1.1.2.1.3.1l4.5-1c.2 0 .3-.2.2-.4 0 0 0-.1-.1-.1l-2.3-2.2c-.1-.1-.2-.1-.3-.1l-4.2 1c-.2 0-.3.2-.2.4-.1 0 0 .1 0 .1zm13-6.9l2 2.2c.1.1.2.1.3.1l4.4-1c.2 0 .3-.2.2-.4 0-.1 0-.1-.1-.1l-2.3-2.2c-.1-.1-.2-.1-.3-.1l-4.2 1c-.2.1-.3.2-.2.4l.2.1zm-6.1 1.5l2 2.2c.1.1.2.1.3.1l4.4-1c.2 0 .3-.2.2-.4 0-.1 0-.1-.1-.2l-2.3-2.2c-.1-.1-.2-.1-.3-.1l-4.2 1c-.2.1-.2.2-.2.4.2.1.2.1.2.2zm-6.6 1.3l2 2.2c.1.1.2.1.3.1l4.4-1c.2 0 .3-.2.2-.4 0-.1 0-.1-.1-.2l-2.3-2.2c-.1-.1-.2-.1-.3-.1l-4.2 1c-.2 0-.3.2-.2.4.2.1.2.2.2.2zm-6.6 1.6l2.1 2.2c.1.1.2.1.3.1l4.5-1c.2 0 .3-.2.2-.4 0-.1 0-.1-.1-.1l-2.3-2.2c-.1-.1-.2-.1-.3-.1l-4.2 1c-.2 0-.3.2-.3.3 0 .1 0 .1.1.2zm25.6-5.8l2 2.2c.1.1.2.1.3.1l4.4-1c.2 0 .3-.2.2-.4 0-.1 0-.1-.1-.2l-2.3-2.2c-.1-.1-.2-.1-.3-.1l-4.2 1c-.2.1-.3.2-.2.4.2.1.2.1.2.2zm-10.7-1.3l2 2.2c.1.1.2.1.3.1l4.4-1c.2 0 .3-.2.2-.4 0-.1 0-.1-.1-.2l-2.3-2.2c-.1-.1-.2-.1-.3-.1l-4.2 1c-.2 0-.3.2-.3.4.2.1.3.2.3.2zm23.6-9.4l2.2 2.4h.2l4.7-1.1c.1 0 .2-.1.1-.2 0 0 0-.1-.1-.1l-2.5-2.4s-.1-.1-.2 0l-4.4 1.1c-.1 0-.2.1-.2.2.1 0 .1.1.2.1zm5.7-1.2l2.2 2.4h.2l4.7-1.1c.1 0 .2-.1.1-.2 0 0 0-.1-.1-.1l-2.5-2.4s-.1-.1-.2 0l-4.4 1.1c-.1 0-.2 0-.2.2.1-.1.1 0 .2.1zm5.9-1.4l2 2.2c0 .1.1.1.2 0l4.4-1.2c.1 0 .2-.1.1-.2 0 0 0-.1-.1-.1l-2.3-1.9h-.2l-4.2.9c0 .1 0 .2.1.3zm6.1 2l2 2.2h.2l4.4-1.2c.1 0 .2-.1.1-.2 0 0 0-.1-.1-.1l-2.3-1.9h-.2l-4.2.9c.1.1.1.2.1.3zm-.7 4l1.9 2.1c.1.1.2.1.3.1l4.2-1.2c.1 0 .2-.2.2-.3 0 0 0-.1-.1-.1l-2.2-1.8h-.2l-4 .9c-.1 0-.2.1-.1.3zm-5 5.1l1.9 2.1c.1.1.2.1.3.1l4.2-1.2c.1 0 .2-.2.2-.3 0 0 0-.1-.1-.1l-2.2-1.8c-.1-.1-.1-.1-.2 0l-4 .9c-.1 0-.2.1-.2.3 0-.1 0 0 .1 0zm-6.1 1.6l1.9 2.1c.1.1.2.1.3.1l4.2-1.2c.1 0 .2-.2.2-.3 0 0 0-.1-.1-.1l-2.2-1.8c-.1 0-.1-.1-.2-.1l-4 .9c-.1 0-.2.1-.2.3.1 0 .1.1.1.1zm11.7-3.1l1.9 2.1c.1.1.2.1.3.1l4.2-1.2c.1 0 .2-.2.2-.3 0 0 0-.1-.1-.1l-2.2-1.8c-.1-.1-.1-.1-.2 0l-4 .9c-.1 0-.2.2-.2.3h.1zm-.9 4.5l2.9 2.6h.2l4.2-1.2c.1 0 .2-.2.2-.3 0 0 0-.1-.1-.1l-3.1-2.8h-.3l-4 1.3c-.1.2-.2.3 0 .5-.1 0-.1 0 0 0zm-10.2-9.2l2 2.2c.1 0 .1.1.2.1l4.4-1.2c.1 0 .2-.2.1-.3v-.1l-2.3-1.9h-.2l-4.2.9c-.1.1-.1.2 0 .3zm-5.7 1.4l1.9 2.1c.1.1.2.1.3.1l4.2-1.2c.1 0 .2-.2.2-.3 0 0 0-.1-.1-.1l-2.2-1.8h-.2l-4 .9c-.1 0-.2.1-.1.3zm-1.2 4l1.9 2.1c.1.1.2.1.3.1l4.3-1.2c.1 0 .2-.2.2-.3 0 0 0-.1-.1-.1l-2.1-1.8h-.2l-4 .9c-.3 0-.4.1-.3.3zm-6 1.5l1.9 2.1c.1.1.2.1.3.1l4.3-1.2c.1 0 .2-.2.2-.3 0 0 0-.1-.1-.1l-2.1-1.8h-.2l-4 .9c-.3 0-.3.1-.3.3 0-.1 0 0 0 0zm1.1-4.1l1.9 2.1c.1.1.2.1.3.1l4.2-1.2c.1 0 .2-.2.2-.3 0 0 0-.1-.1-.1l-2.1-1.8c-.1 0-.1-.1-.2-.1l-4 .9c-.1 0-.2.2-.2.3-.1 0 0 0 0 .1zm5 6.3l1.9 2.1c.1.1.2.1.3.1l4.2-1.2c.1 0 .2-.2.2-.3 0 0 0-.1-.1-.1l-2.1-1.8h-.2l-4 .9c-.1 0-.2.1-.2.2v.1zm-5.9 1.6l1.8 2c.1.1.2.1.3.1l4.1-1.1c.2 0 .3-.2.2-.4 0-.1-.1-.1-.1-.2l-2-1.7c-.1-.1-.2-.1-.3-.1l-3.9.9c-.2 0-.3.2-.3.4l.2.1zm18.5-12.2l2 2.2c0 .1.1.1.2.1l4.4-1.2c.1 0 .2-.2.1-.3v-.1l-2.3-1.9h-.2l-4.2.9c-.1.1-.1.2 0 .3zm-.8 4l1.9 2.1c.1.1.2.1.3.1l4.3-1.2c.1 0 .2-.2.2-.3 0 0 0-.1-.1-.1l-2.1-1.8c-.1-.1-.1-.1-.2 0l-4 .9c-.1 0-.2.1-.2.3-.2-.1-.2 0-.1 0zm-5.8 1.6l1.9 2.1c.1.1.2.1.3.1l4.2-1.2c.1 0 .2-.2.2-.3 0 0 0-.1-.1-.1l-2.1-1.8c-.1-.1-.1-.1-.2 0l-4 .9c-.1 0-.2.2-.2.3-.1-.1 0-.1 0 0zm-23.2-2.3l2.1 2.3c.1.1.2.1.2.1l4.6-1c.1 0 .2-.2.2-.3 0-.1 0-.1-.1-.1l-2.4-2.3c-.1-.1-.1-.1-.2-.1l-4.3 1.1c-.1 0-.2.1-.1.3zm-6.1 1.5l2 2.2c.1.1.2.1.3.1l4.4-1c.2 0 .3-.2.2-.4 0-.1 0-.1-.1-.2l-2.3-2.2c-.1-.1-.2-.1-.3-.1l-4.2 1c-.2.1-.3.2-.2.4l.2.2zm-6.5 5l1.5 2.4c.1.1.2.2.3.1l5.1-1.1c.2 0 .3-.2.2-.4v-.1l-1.7-2.3c-.1-.1-.2-.1-.3-.1l-4.9 1.1c-.2 0-.3.2-.2.4-.1 0-.1 0 0 0zm-33.5 1l5.1-1.2c.1 0 .2 0 .3.1l.9 1.2c.1.1.1.3-.1.4 0 0-.1 0-.1.1l-5.2 1.2c-.1 0-.3 0-.3-.1l-.7-1.2c-.2-.3-.2-.4.1-.5-.1 0-.1 0 0 0zm6.9-1.6l5.1-1.2c.1 0 .2 0 .3.1l.9 1.2c.1.1.1.3-.1.4 0 0-.1 0-.1.1l-5.3 1.2c-.1 0-.3 0-.3-.1l-.7-1.2c-.1-.2 0-.3.2-.5-.1.1 0 0 0 0zm6.7-1.4l5.1-1.2c.1 0 .2 0 .3.1l.9 1.2c.1.1.1.3-.1.4 0 0-.1 0-.1.1l-5.2 1.2c-.1 0-.3 0-.3-.1l-.7-1.2c-.2-.2-.1-.4.1-.5zm6.5-1.5l5-1.2c.1 0 .2 0 .3.1l.9 1.2c.1.1.1.3-.1.4 0 0-.1 0-.1.1l-5.2 1.3c-.1 0-.3 0-.3-.1l-.7-1.2c-.1-.1-.1-.3.1-.4 0-.2.1-.2.1-.2zm6.7-1.5l5-1.2c.1 0 .2 0 .3.1l.9 1.1c.1.1.1.3-.1.4 0 0-.1 0-.1.1l-5.2 1.2c-.1 0-.3 0-.3-.2l-.7-1.2c-.1.1 0-.1.2-.3-.1.1 0 0 0 0zm6.5-1.3l5-1.2c.1 0 .2 0 .3.1l.9 1.1c.1.1.1.3-.1.4 0 0-.1 0-.1.1l-5.2 1.2c-.1 0-.3 0-.3-.2l-.7-1.2c-.2 0-.1-.2.2-.3-.1 0-.1 0 0 0zm6.3-1.3l4.6-1.1c.1 0 .2 0 .3.1l.9 1c.1.1.1.3 0 .5l-.1.1-4.5 1.1c-.1 0-.2 0-.3-.1l-.9-1c-.2-.3-.2-.5 0-.6-.1 0-.1 0 0 0zm6.1-1.4l4.8-1.2c.1 0 .2 0 .2.1l1 1c.1.1.1.3 0 .4l-.1.1-4.7 1.2c-.1 0-.2 0-.2-.1l-1.1-1.1c-.1-.1-.1-.3 0-.4h.1zm6.1-1.5l4.8-1.2c.1 0 .2 0 .3.1l1 1c.1.1.1.3 0 .4l-.1.1-4.7 1.2c-.1 0-.2 0-.2-.1l-1.1-1c-.1-.1-.1-.3 0-.4-.1 0 0-.1 0-.1zm6.1-1.2l4.8-1.2c.1 0 .2 0 .2.1l1 1c.1.1.1.3 0 .4l-.1.1-4.7 1.2c-.1 0-.2 0-.2-.1l-1-1.1c-.1-.2-.1-.3 0-.4zm5.8-1.4l4.9-1.2h.2l1.1 1.2c.1.1.1.2 0 .3h-.1l-4.9 1.2h-.2l-1.2-1.2c.1-.1.1-.3.2-.3zm5.9-1.3l4.9-1.2h.2l1.1 1.2c.1.1.1.2 0 .3 0 0-.1 0-.1.1l-4.9 1.2h-.2l-1.2-1.2c.1-.2.1-.3.2-.4zm5.8-1.3l4.5-1c.1 0 .1 0 .2.1l.9 1.1c.1.1.1.2 0 .3h-.1l-4.3 1h-.2l-1.1-1.2s0-.2.1-.3c0 .1 0 0 0 0zm5.6-1.3l4.5-1c.1 0 .1 0 .2.1l.9 1.1c.1.1.1.2 0 .3h-.1l-4.3 1.1h-.2l-1.1-1.2c-.1-.1-.1-.2 0-.3 0-.1.1-.1.1-.1zm-77.5 24l1.7 2.4c.1.1.2.1.3.1l8.8-2c.2 0 .3-.2.2-.3 0 0 0-.1-.1-.1l-1.9-2.4c-.1-.1-.2-.1-.3-.1l-8.6 2.1c-.1-.1-.2.1-.1.3 0-.1 0 0 0 0zm2.6 3.2l1.7 2.7c.1.1.2.2.3.1l10.6-2.5c.2 0 .3-.2.2-.3 0 0 0-.1-.1-.1l-2.1-2.6c-.1-.1-.2-.1-.3-.1l-10.2 2.4s-.1.1-.1.4c0-.1 0 0 0 0zm2.4 3.5l2.1 2.9c.1.1.2.1.3.1l14-3.5c.2 0 .3-.2.2-.4 0 0 0-.1-.1-.1l-2.3-2.9c-.1-.1-.2-.1-.3-.1l-13.8 3.5c-.2 0-.3.2-.2.4.1 0 .1.1.1.1zm32.1-3.2l2.6 3.1c.1.1.2.1.3.1l30.8-7.7c.2 0 .3-.2.2-.4 0-.1 0-.1-.1-.1l-3.1-3.1c-.1-.1-.2-.1-.3-.1l-30.2 7.7c-.2.1-.3.2-.2.4-.1.1 0 .1 0 .1zm31.8-7.9l3 3c.1.1.2.1.2.1l6.3-1.7c.1 0 .2-.2.2-.3 0 0 0-.1-.1-.1l-3.1-3.1c-.1-.1-.2-.1-.2-.1l-6.2 1.7c-.1 0-.2.2-.2.3 0 .1 0 .1.1.2zm15.2-1.9l1.4 1.5c0 .1.1.1.2 0l4.7-1.3c.1 0 .2-.1.1-.2 0 0 0-.1-.1-.1l-1.7-1.6s-.1-.1-.2 0l-4.4 1.3c-.1 0-.2.1-.2.2.2.1.2.1.2.2zm4-3.1l1.6 1.7h.2l4.3-1.5c.1 0 .1-.1.1-.2 0 0 0-.1-.1-.1l-1.6-1.4h-.2l-4.3 1.2c-.1 0-.2.1-.2.2.1 0 .2 0 .2.1z"/><path d="M297.4 666l-1.2-1c-.1-.1-.1-.2 0-.3l.1-.1 4.3-1.5h.2l1.3 1.3c.1.1.1.2 0 .3h-.1l-4.4 1.2c-.1.1-.2.1-.2.1zm4.4-2.6c.4.4 1 1.1 1.3 1.3h.2l4.5-1.2c.1 0 .2-.1.1-.2 0 0 0-.1-.1-.1l-1.6-1.3h-.2l-4.1 1.3c-.2 0-.2.1-.1.2zm-12.5-2.8l2.4 2.3h.2l11.5-3c.1 0 .2-.1.1-.2 0 0 0-.1-.1-.1l-2.8-2.3h-.2l-11.1 3c-.1 0-.2.1-.1.2 0 0 0 .1.1.1zm-.8-3.6l2.5 2.2h.2l8.6-2c.1 0 .2-.1.1-.2 0 0 0-.1-.1-.1l-2.8-2.4h-.2l-8.3 2.2c0 .1-.1.2 0 .3zm.8-3.7l2.3 2.1h.2l4.4-1c.1 0 .2-.1.1-.2 0 0 0-.1-.1-.1l-2.8-2.4h-.2l-4 1.3c-.1 0-.2.1-.2.2.2 0 .3 0 .3.1zm-6.1-2.1l2.3 2h.2l7-1.7c.1 0 .2-.1.1-.2 0 0 0-.1-.1-.1L290 649h-.2l-6.5 1.9c-.1 0-.2 0-.2.1s0 .2.1.2z"/></g><path class="st20" d="M203.9 668.1l1.5 2.5c.1.1.2.2.3.1l5.2-1.2c.2 0 .3-.2.2-.3v-.1l-1.7-2.4c-.1-.1-.2-.1-.3-.1l-5 1.1c-.2 0-.3.2-.2.4-.1 0 0 0 0 0zm6.7-1.4l1.5 2.5c.1.1.2.2.3.1l5.2-1.2c.2 0 .3-.2.2-.4v-.1l-1.7-2.4c-.1-.1-.2-.1-.3-.1l-5 1.1c-.2.1-.3.2-.2.5 0-.1 0 0 0 0zm6.6-1.4l1.5 2.5c.1.1.2.2.3.1l5.2-1.2c.2 0 .3-.2.2-.4v-.1l-1.7-2.4c-.1-.1-.2-.1-.3-.1l-5 1.1c-.2.1-.3.2-.2.5-.1-.1 0-.1 0 0zm6.4-1.4l1.5 2.4c.1.1.2.2.3.1l5.1-1.1c.2 0 .3-.2.2-.4v-.1l-1.7-2.3c-.1-.1-.2-.2-.3-.1l-4.9 1.1c-.2 0-.3.2-.2.4 0-.1 0-.1 0 0zm-.5 3.7l1.5 2.5c.1.1.2.2.3.1l5.2-1.2c.2 0 .3-.2.2-.4v-.1l-1.7-2.4c-.1-.1-.2-.1-.3-.1l-5 1.1c-.2.1-.3.3-.2.5zm-6.7 1.4l1.5 2.5c.1.1.2.2.3.1l5.2-1.2c.2 0 .3-.2.2-.4v-.1l-1.7-2.4c-.1-.1-.2-.1-.3-.1l-5 1.1c-.2.1-.3.3-.2.5zm4.4 3.1l1.5 2.5c.1.1.2.2.3.1l5.2-1.2c.2 0 .3-.2.2-.3v-.1l-1.7-2.4c-.1-.1-.2-.1-.3-.1l-5 1.1c-.2 0-.3.1-.2.4-.1-.1-.1 0 0 0zm6.1 2.6l1.5 2.5c.1.1.2.2.3.1l5.2-1.2c.2 0 .3-.2.2-.3 0 0 0-.1-.1-.1l-1.7-2.4c-.1-.1-.2-.1-.3-.1l-5 1.1c-.1 0-.2.2-.1.4zm1.1 4.3l2.5 3.1c.1.1.2.1.3.1l5.2-1.3c.2 0 .2-.2.2-.4 0 0 0-.1-.1-.1l-2.6-3.1c-.1-.1-.2-.1-.3-.1l-5.1 1.4c-.2 0-.3.2-.2.4 0-.1 0 0 .1 0zm6.8-1.7l2.5 3.2c.1.1.2.1.3.1l6.8-1.9c.2 0 .2-.2.2-.4 0 0 0-.1-.1-.1l-2.6-3.1c-.1-.1-.2-.1-.3-.1l-6.8 1.8c-.2 0-.3.2-.2.4.1 0 .2.1.2.1zm-13.5 3.4l2.5 3.1c.1.1.2.1.3.1l5.2-1.3c.2 0 .2-.2.2-.4 0 0 0-.1-.1-.1l-2.6-3.1c-.1-.1-.2-.1-.3-.1l-5.1 1.4c-.2 0-.3.2-.2.4.1-.1.1-.1.1 0zm-7 1.8l2.5 3.1c.1.1.2.1.3.1l5.2-1.3c.2 0 .2-.2.2-.4 0 0 0-.1-.1-.1l-2.6-3.1c-.1-.1-.2-.1-.3-.1l-5.1 1.4c-.2 0-.2.2-.2.4.1-.1.1-.1.1 0zm15.8-20.1l1.5 2.4c.1.1.2.2.3.1l5.1-1.1c.2 0 .3-.2.2-.4 0 0 0-.1-.1-.1l-1.7-2.3c-.1-.1-.2-.2-.3-.1l-4.9 1.1c-.2 0-.3.2-.3.3.1 0 .1 0 .2.1zm-.4 3.8l1.5 2.4c.1.1.2.2.3.2l5.1-1.2c.2 0 .3-.2.2-.4v-.1l-1.7-2.3c-.1-.1-.2-.2-.3-.1l-4.9 1.1c-.2 0-.3.2-.2.4-.1-.1-.1-.1 0 0zm6.6-5.2l1.5 2.4c.1.1.2.2.3.2l5.1-1.2c.2 0 .3-.2.2-.4v-.1l-1.7-2.3c-.1-.1-.2-.1-.3-.1l-4.9 1.1c-.2 0-.3.2-.2.4 0-.1 0-.1 0 0zm18.4-4.1l2.1 2.3c.1.1.2.1.2.1l4.6-1.1c.1 0 .2-.2.2-.3 0-.1 0-.1-.1-.1l-2.4-2.3c-.1-.1-.1-.1-.2-.1l-4.3 1.1c-.1.1-.2.2-.1.4-.1 0 0 0 0 0zm5.8-1.3l2.1 2.3c.1.1.2.1.2.1l4.6-1.1c.1 0 .2-.2.2-.3 0-.1 0-.1-.1-.1l-2.4-2.3c-.1-.1-.1-.1-.2-.1l-4.3 1.1c-.1 0-.2.2-.2.3.1 0 .1.1.1.1zm-5.7 5l2.1 2.3c.1.1.2.1.2.1l4.6-1.1c.1 0 .2-.2.2-.3 0-.1 0-.1-.1-.1l-2.4-2.3c-.1-.1-.2-.1-.2-.1l-4.3 1.1c-.1 0-.2.2-.1.4 0-.1 0 0 0 0zm-6 1.4l2 2.2c.1.1.2.1.3.1l4.4-1c.2 0 .3-.2.2-.4 0-.1 0-.1-.1-.2l-2.3-2.2c-.1-.1-.2-.1-.3-.1l-4.2 1c-.2.1-.3.2-.2.4l.2.2zm4.6 6.8l2 2.2c.1.1.2.1.3.1l4.4-1c.2 0 .3-.2.2-.4 0-.1 0-.1-.1-.2l-2.3-2.2c-.1-.1-.2-.1-.3-.1l-4.2 1c-.2.1-.3.2-.2.4.1.1.1.2.2.2zm-6.3 1.4l2 2.2c.1.1.2.1.3.1l4.4-1c.2 0 .3-.2.2-.4 0-.1 0-.1-.1-.2l-2.3-2.2c-.1-.1-.2-.1-.3-.1l-4.2 1c-.2 0-.3.2-.2.4l.2.2zm-6.4 1.6l2 2.2c.1.1.2.1.3.1l4.4-1c.2 0 .3-.2.2-.4 0-.1 0-.1-.1-.2l-2.3-2.2c-.1-.1-.2-.1-.3-.1l-4.2 1c-.2 0-.3.2-.3.4.2.1.3.2.3.2zm-6.7 1.3l2.1 2.2c.1.1.2.1.3.1l4.5-1c.2 0 .3-.2.2-.4 0 0 0-.1-.1-.1l-2.3-2.2c-.1-.1-.2-.1-.3-.1l-4.2 1c-.2 0-.3.2-.2.3-.1.1 0 .2 0 .2zm13-6.8l2 2.2c.1.1.2.1.3.1l4.4-1c.2 0 .3-.2.2-.4 0-.1 0-.1-.1-.2l-2.3-2.2c-.1-.1-.2-.1-.3-.1l-4.2 1c-.2 0-.3.2-.3.4.2.1.3.1.3.2zm-6.1 1.4l2 2.2c.1.1.2.1.3.1l4.4-1c.2 0 .3-.2.2-.4 0-.1 0-.1-.1-.2l-2.3-2.2c-.1-.1-.2-.1-.3-.1l-4.2 1c-.2.1-.3.2-.2.4.2.1.2.2.2.2zm-6.6 1.4l2 2.2c.1.1.2.1.3.1l4.4-1c.2 0 .3-.2.2-.4 0-.1 0-.1-.1-.2l-2.3-2.2c-.1-.1-.2-.1-.3-.1l-4.2 1c-.2.1-.3.2-.2.4.2.1.2.2.2.2zm-6.6 1.5l2.1 2.2c.1.1.2.1.3.1l4.5-1c.2 0 .3-.2.2-.3 0-.1 0-.1-.1-.2l-2.3-2.2c-.1-.1-.2-.1-.3-.1l-4.2 1c-.2 0-.3.1-.3.3-.1.1 0 .2.1.2zm25.6-5.8l2 2.2c.1.1.2.1.3.1l4.4-1c.2 0 .3-.2.2-.4 0-.1 0-.1-.1-.1l-2.3-2.2c-.1-.1-.2-.1-.3-.1l-4.2 1c-.2 0-.3.2-.2.4.1 0 .2.1.2.1zm-10.7-1.2l2 2.2c.1.1.2.1.3.1l4.4-1c.2 0 .3-.2.2-.4 0-.1 0-.1-.1-.2l-2.3-2.2c-.1-.1-.2-.1-.3-.1l-4.2 1c-.2 0-.3.2-.2.4.2.1.2.1.2.2zm23.6-9.4l2.2 2.4h.2l4.7-1.1c.1 0 .2-.1.1-.2 0 0 0-.1-.1-.1l-2.5-2.3h-.2l-4.4 1c-.1 0-.2.1-.2.2.2 0 .2 0 .2.1zm5.7-1.3l2.2 2.4c0 .1.1.1.2 0l4.7-1.1c.1 0 .2-.1.1-.2 0 0 0-.1-.1-.1l-2.5-2.4h-.2l-4.4 1.1v.3zm5.9-1.4l2 2.2s.1.1.2.1l4.4-1.2c.1 0 .2-.1.1-.2 0 0 0-.1-.1-.1l-2.3-1.9h-.2l-4.2.9s0 .1.1.2zm6.1 2.1l2 2.2h.2l4.4-1.2c.1 0 .2-.1.1-.2 0 0 0-.1-.1-.1l-2.3-1.9h-.2l-4.2.9c.1.1.1.2.1.3zm-.7 4l1.9 2.1c.1.1.2.1.3.1l4.2-1.2c.1 0 .2-.2.2-.3 0 0 0-.1-.1-.1l-2.2-1.8h-.2l-4 .9c-.1 0-.2.1-.1.3 0-.1 0 0 0 0zm-5 5.1l1.9 2.1c.1.1.2.1.3.1l4.2-1.2c.1 0 .2-.2.2-.3 0 0 0-.1-.1-.1l-2.2-1.8c-.1 0-.1-.1-.2-.1l-4 .9c-.1 0-.2.1-.2.3l.1.1zm-6.1 1.5l1.9 2.1c.1.1.2.1.3.1l4.2-1.2c.1 0 .2-.2.2-.3 0 0 0-.1-.1-.1l-2.2-1.8h-.2l-4 .9s-.1.1-.1.3zm11.7-3l1.9 2.1c.1.1.2.1.3.1l4.2-1.2c.1 0 .2-.2.2-.3 0 0 0-.1-.1-.1l-2.2-1.8c-.1-.1-.1-.1-.2 0l-4 .9c-.1 0-.2.1-.2.3.1-.1.1-.1.1 0zm-.9 4.5l2.9 2.6c.1.1.2.1.2.1l4.2-1.2c.1 0 .2-.2.2-.3 0 0 0-.1-.1-.1l-3.1-2.8h-.3l-4 1.3c-.1.1-.1.2 0 .4-.1 0-.1 0 0 0zm-10.2-9.3l2 2.2c0 .1.1.1.2 0l4.4-1.2c.1 0 .2-.1.1-.2 0 0 0-.1-.1-.1l-2.3-1.9h-.2l-4.2.9c0 .1 0 .2.1.3zm-5.7 1.4l1.9 2.1c.1.1.2.1.3.1l4.2-1.2c.1 0 .2-.2.2-.3 0 0 0-.1-.1-.1l-2.2-1.8h-.2l-4 .9c-.1 0-.2.2-.1.3zm-1.2 4l1.9 2.1c.1.1.2.1.3.1l4.3-1.2c.1 0 .2-.2.2-.3 0-.1 0-.1-.1-.1l-2.1-1.8c-.1 0-.1-.1-.2-.1l-4 .9c-.1 0-.2.2-.2.3l-.1.1zm-6 1.5l1.9 2.1c.1.1.2.1.3.1l4.3-1.2c.1 0 .2-.2.2-.3 0-.1 0-.1-.1-.1l-2.1-1.8c-.1 0-.1-.1-.2-.1l-4 .9c-.1 0-.2.2-.2.3-.1 0-.1.1-.1.1zm1.1-4.1l1.9 2.1c.1.1.2.1.3.1l4.2-1.2c.1 0 .2-.2.2-.3 0 0 0-.1-.1-.1l-2.1-1.8c-.1-.1-.1-.1-.2 0l-4 .9c-.1 0-.2.2-.2.3-.1-.1 0 0 0 0zm5 6.4l1.9 2.1c.1.1.2.1.3.1l4.2-1.2c.1 0 .2-.2.2-.3 0 0 0-.1-.1-.1l-2.1-1.8c-.1 0-.1-.1-.2-.1l-4 .9c-.1 0-.3.1-.3.2s.1.1.1.2zm-5.9 1.6l1.8 2c.1.1.2.1.3.1l4.1-1.1c.2 0 .3-.2.2-.4 0-.1-.1-.1-.1-.2l-2.1-1.8c-.1-.1-.2-.1-.3-.1l-3.9.9c-.2 0-.3.2-.2.4.1.1.2.1.2.2zm18.5-12.2l2 2.2h.2l4.4-1.2c.1 0 .2-.1.1-.2 0 0 0-.1-.1-.1l-2.2-1.8h-.2l-4.2.9s-.1.1 0 .2zm-.8 3.9l1.9 2.1c.1.1.2.1.3.1l4.3-1.2c.1 0 .2-.2.2-.3 0-.1 0-.1-.1-.1l-2.1-1.8c-.1 0-.1-.1-.2-.1l-4 .9c-.1 0-.2.2-.2.3-.2.1-.2.1-.1.1zm-5.8 1.6l1.9 2.1c.1.1.2.1.3.1l4.2-1.2c.1 0 .2-.2.2-.3 0 0 0-.1-.1-.1l-2.1-1.8h-.2l-4 .9c-.2 0-.3.1-.2.3zm-23.2-2.3l2.1 2.3c.1.1.2.1.2.1l4.6-1.1c.1 0 .2-.2.2-.3 0-.1 0-.1-.1-.1l-2.4-2.3c-.1-.1-.1-.1-.2-.1l-4.3 1.1c-.1 0-.2.2-.2.3l.1.1zm-6.1 1.5l2 2.2c.1.1.2.1.3.1l4.4-1c.2 0 .3-.2.2-.4 0-.1 0-.1-.1-.2l-2.3-2.2c-.1-.1-.2-.1-.3-.1l-4.2 1c-.2.1-.2.2-.2.4.1.2.2.2.2.2zm-6.5 5.1l1.5 2.4c.1.1.2.2.3.1l5.1-1.1c.2 0 .3-.2.2-.4v-.1l-1.7-2.3c-.1-.1-.2-.1-.3-.1l-4.9 1.1c-.2 0-.3.2-.2.4-.1 0-.1 0 0 0zm-33.5.9l5.1-1.2c.1 0 .2 0 .3.1l.9 1.2c.1.1.1.3-.1.4 0 0-.1 0-.1.1l-5.2 1.2c-.1 0-.3 0-.3-.1l-.7-1.2c-.2-.2-.2-.4.1-.5-.1 0-.1 0 0 0zm6.9-1.5l5.1-1.2c.1 0 .2 0 .3.1l.9 1.2c.1.1.1.3-.1.4 0 0-.1 0-.1.1l-5.3 1.2c-.1 0-.3 0-.3-.1l-.7-1.2c-.1-.2 0-.4.2-.5-.1 0 0 0 0 0zm6.7-1.5l5.1-1.2c.1 0 .2 0 .3.1l.9 1.2c.1.1.1.3-.1.4 0 0-.1 0-.1.1l-5.2 1.2c-.1 0-.3 0-.3-.1l-.7-1.2c-.2-.2-.1-.3.1-.5 0 .1 0 0 0 0zm6.5-1.4l5-1.2c.1 0 .2 0 .3.1l.9 1.2c.1.1.1.3-.1.4 0 0-.1 0-.1.1l-5.2 1.2c-.1 0-.3 0-.3-.1l-.7-1.2c-.1-.1 0-.3.1-.4 0-.1.1-.1.1-.1zm6.7-1.5l5-1.2c.1 0 .2 0 .3.1l.9 1.1c.1.1.1.3-.1.4 0 0-.1 0-.1.1l-5.2 1.2c-.1 0-.3 0-.3-.1l-.7-1.2c-.1-.1 0-.2.2-.4-.1 0 0 0 0 0zm6.5-1.4l5-1.2c.1 0 .2 0 .3.1l.9 1.1c.1.1.1.3-.1.4 0 0-.1 0-.1.1l-5.2 1.2c-.1 0-.3 0-.3-.2l-.7-1.2c-.2 0-.1-.1.2-.3-.1 0-.1 0 0 0zm6.3-1.3l4.6-1.1c.1 0 .2 0 .3.1l.9 1c.1.1.1.3 0 .5l-.1.1-4.5 1.1c-.1 0-.2 0-.3-.1l-.9-1c-.2-.2-.2-.4 0-.6-.1 0-.1 0 0 0zm6.1-1.4l4.8-1.2c.1 0 .2 0 .2.1l1 1c.1.1.1.3 0 .4l-.1.1-4.7 1.2c-.1 0-.2 0-.2-.1l-1.1-1.1c-.1-.1-.1-.3.1-.4zm6.1-1.4l4.8-1.2c.1 0 .2 0 .3.1l1 1c.1.1.1.3 0 .4l-.1.1-4.7 1.2c-.1 0-.2 0-.2-.1l-1-1.1c-.1-.1-.1-.3 0-.4h-.1zm6.1-1.3l4.8-1.2c.1 0 .2 0 .2.1l1 1c.1.1.1.3 0 .4l-.1.1-4.7 1.2c-.1 0-.2 0-.2-.1l-1-1.1c-.1-.2-.1-.3 0-.4zm5.8-1.4l4.9-1.2c.1 0 .1 0 .2.1l1.1 1.2c.1.1.1.2 0 .3h-.1l-4.9 1.2h-.2l-1.2-1.2c-.1-.1-.1-.2 0-.3.1-.1.2-.1.2-.1zm5.9-1.2l4.9-1.2h.2l1.1 1.2c.1.1.1.2 0 .3h-.1l-4.9 1.2h-.1l-1.2-1.2c0-.1 0-.3.1-.3zm5.8-1.4l4.5-1c.1 0 .1 0 .2.1l.9 1.1c.1.1.1.2 0 .3h-.1l-4.3 1.1h-.2l-1.1-1.2c0-.1 0-.3.1-.4zm5.6-1.2l4.5-1c.1 0 .1 0 .2.1l.9 1.1c.1.1.1.2 0 .3h-.1l-4.3 1.1h-.2l-1.1-1.2c-.1-.1-.1-.2-.1-.3.1-.1.2-.1.2-.1zm-77.5 23.9l1.7 2.4c.1.1.2.1.3.1l8.8-2c.2 0 .3-.2.2-.4 0 0 0-.1-.1-.1l-1.9-2.4c-.1-.1-.2-.1-.3-.1l-8.6 2.1c-.1.1-.2.2-.1.4zm2.6 3.2l1.7 2.7c.1.1.2.2.3.1l10.6-2.5c.2 0 .3-.2.2-.3 0 0 0-.1-.1-.1l-2.1-2.6c-.1-.1-.2-.1-.3-.1l-10.2 2.4s-.1.2-.1.4zm2.4 3.6l2.1 2.9c.1.1.2.1.3.1l14-3.5c.2 0 .3-.2.2-.4v-.1l-2.3-2.9c-.1-.1-.2-.1-.3-.1l-13.8 3.5c-.2 0-.3.2-.2.3v.2zm32.1-3.2l2.6 3.1c.1.1.2.1.3.1l30.8-7.7c.2 0 .3-.2.2-.4 0-.1 0-.1-.1-.1l-3.1-3.1c-.1-.1-.2-.1-.3-.1l-30.2 7.7c-.2.1-.3.3-.2.5zm31.8-8l3 3c.1.1.2.1.2.1l6.3-1.7c.1 0 .2-.2.2-.3 0 0 0-.1-.1-.1l-3.1-3.1c-.1-.1-.2-.1-.2-.1l-6.2 1.7c-.1 0-.2.2-.2.3 0 .1 0 .2.1.2zm15.2-1.9l1.4 1.5c0 .1.1.1.2 0l4.7-1.3c.1 0 .2-.1.1-.2 0 0 0-.1-.1-.1l-1.7-1.5h-.2l-4.4 1.3v.3zm4-3.1l1.6 1.7h.2l4.3-1.5c.1 0 .1-.1.1-.2 0 0 0-.1-.1-.1l-1.6-1.4h-.2l-4.3 1.2s-.1.1 0 .3c0-.1 0 0 0 0zm3.2 3l-1.2-1c-.1-.1-.1-.2 0-.3l.1-.1 4.3-1.5h.2l1.3 1.3c.1.1.1.2 0 .3h-.1l-4.4 1.1c-.1.2-.2.2-.2.2zm4.4-2.7c.4.3 1 1.1 1.3 1.3h.2l4.5-1.2c.1 0 .2-.1.1-.2 0 0 0-.1-.1-.1l-1.6-1.4h-.2l-4.1 1.3c-.2.1-.2.2-.1.3-.1 0-.1 0 0 0zm-12.5-2.8l2.4 2.3c.1 0 .1.1.2 0l11.5-3c.1 0 .2-.1.1-.2 0 0 0-.1-.1-.1l-2.8-2.3h-.2l-11.1 3c-.1.1-.1.2 0 .3-.1 0-.1 0 0 0zm-.8-3.5l2.5 2.2h.2l8.6-2c.1 0 .2-.1.1-.2 0 0 0-.1-.1-.1l-2.8-2.4h-.2l-8.3 2.2s-.1.2 0 .3zm.8-3.8l2.3 2.1h.2l4.4-1c.1 0 .2-.1.1-.2 0 0 0-.1-.1-.1l-2.8-2.4h-.2l-4 1.3c-.1 0-.2.1-.1.2.2 0 .2.1.2.1zm-6.1-2.1l2.3 2s.1.1.2 0l7-1.7c.1 0 .2-.1.1-.2 0 0 0-.1-.1-.1l-2.7-2.3h-.2l-6.6 1.9c-.1.2-.1.3 0 .4z"/><path d="M737.8 532l-6.2-16.4-30.6-80.5 13.6-1.7 4.9-6.2 4.3-5.4 11.1-2.1 9.3-1.8v-.1l9.9-14.1 12.3-5 5.5-12.5 26.9 20.1 19.7 14.8 1.5 1.1 37.7 28.2-8.9 27.6-24 1.8-.2.4-13.1 29.3-30.4.3h-.1l-7.8 15-.4.8-5.7 10.8-.1.2-29.2-4.6z" fill="#fff"/><path d="M738 529l-5.8-15.5-28.5-76.5 13.1-1.8 4.8-5.9 4.2-5.2 10.8-2.2 9-1.8v-.1l9.7-13.5 12-4.9 5.5-11.9 25.7 18.9 18.8 13.8 1.4 1 36 26.5-9 26.5-23.2 2-.2.3-13 28.1-29.4.6h.1l-7.8 14.4-.4.8-5.6 10.4-.1.2L738 529z" fill="#e5edf6"/><path class="st1" d="M763.4 509c-.7-3.7-.9-7.5-.7-11.3 0-1.3.1-2.8 1-3.7.8-.8 2.1-.8 2.8 0l.1.1c-.1-1 1.3-2 2.5-2.1h1.1c1 .2 2 0 2.8-.6-1.2-1.5-2.2-3.2-2.8-5.1-.6-1.9-.1-4 1.3-5.4 2.4-2.1 6.1-.5 8.9 1.1l11.2 6.4c1.6.9 3.1 1.9 4.5 3 .3-.6.6-1.2.8-1.8 1.9-4.7 2.4-9.8 1.4-14.7-1-4.7-3.2-9.9-.7-14 .3-.6.8-1.1 1.5-1.3.6-.1 1.2.3 1.3.8v.2c.2-1.6.6-3.1 1.2-4.6.6-1.6 1.5-3 2.6-4.2 2.3-2.4 6-3.6 8.9-2.1.6.4 1.3.7 2 .9 1.1.2 2.1-.2 2.8-1 .5-.5.9-1.2 1.1-2 .2-1.8-.1-3.7-.9-5.4-1.2-3.2-2.8-6.2-4.6-9.2-.9-1.4-1.8-3-1.5-4.6.4-1.2 1.2-2.3 2.3-2.9 1.4-.9 2.8-1.7 4.4-2.4l36 26.5-9 26.5-23.2 2-.2.3-13 28.1-29.4.6h.1l-7.7 14.3-.4.8c-.3-.1-.5-.3-.8-.4-1.3-.8-2.4-1.9-3.3-3.2-2.1-2.7-3.6-6.1-4.4-9.6zm-26.8-87.2l9-1.8v-.1l9.7-13.5 12-4.9 5.5-11.9 25.7 18.9-.2.2c-1.1 1.9-2.1 3.8-2.9 5.9-.4.9-.7 1.8-.7 2.8.2 1.4.9 2.6 1.9 3.6 3.2 3.7 6.7 7.1 10.5 10.2-1.4.5-3 .3-4.2-.5.3 1.3-.3 2.7-1.4 3.4-.4.3-.8.5-1.2.6-1.7.4-3.5.4-5.3-.1-2.4-.3-4.7-1-6.9-2-5.1-2.6-7.8-8.1-10.3-13.2-.8 2.5-2.7 4.6-4.1 6.9-.8 1.2-1.4 2.6-1.6 4-.2.9 0 1.9.5 2.7.8.8 1.7 1.5 2.7 2 2.7 1.9 3.5 5.5 4.1 8.7.3 1 .3 2 0 3s-1.3 1.7-2.3 1.5c-1.3-.3-1.6-2-2.4-3.1-1.2-1.6-3.5-1.8-5.5-2.3-2.3-.6-4.4-2.1-5.9-4-.2 1.7-.3 3.4-.2 5.1v.6c-6-2.9-11.6-6.8-16.4-11.4 1.4-.8 1.9-2.7 1.1-4.1-.2-.4-.6-.8-1-1-.8-.3-1.7-.5-2.5-.6-3.1-.7-5.5-3.2-7.7-5.6zm-4.4 91.6L703.7 437l13.1-1.8 4.8-5.9c1 1.4 1.9 2.8 2.8 4.2 3 4.3 7.2 7.5 11.4 10.7.5.4 1 .7 1.6.9.7.1 1.4.1 2-.1 2.1-.5 4.9-1.1 5.9.9.3.7.3 1.5.6 2.2.6 1.4 2.5 1.8 4 1.4s2.8-1.2 4.3-1.5c2.2-.5 4.5.2 6.2 1.8 1.9 1.9 3.2 5.1 5.9 5 1.4-.2 2.6-1 3.3-2.1l.4-.5 4.4 4.3 6.2-2.6c1.9 2.3 2.1 5.5.5 8-.6.8-1.4 1.5-2 2.3-.2.2-.3.4-.5.6-1.2 1.8-1.9 4-3.2 5.8-2.2 3-6.1 4.4-9.8 4.5-2.4 0-4.7-.2-7-.8-1.3-.3-2.6-.6-3.9-1 1.9 1.7 3.6 3.6 4.9 5.9 1.3 2.3 1.5 5 .4 7.4-1.5 2.7-4.8 3.8-7.6 2.7l2.7 2.7c-3.1 1.6-3.6 6-2.5 9.4s3.2 6.4 3.8 9.9c.1.7.2 1.5.1 2.2-.1.5-.2 1-.4 1.4-1.3 2.5-4.8 2.6-7.5 1.8-4.6-1.5-8.5-4.8-10.7-9.1-1.6 2-2.4 4.6-2.2 7.2 0-.3-1.6-.8-3.5-1.4z"/><path class="st6" d="M755.4 406.4l12-4.9 34.1 32.5 16.5 15.7 27.9 26.5-23.2 2-.2.3-20.9-22.5-27.9-30-18.3-19.6zm24.8 101l-10-15.3-11.6-17.7-19.1-29.4-13.7-21 10.8-2.2 9-1.8v-.1l17.6 23.9 6.4 8.7 9 12.3 18.3 24.9 12.5 17-29.2.7zM738 529l-5.8-15.5-28.5-76.5 13.1-1.8 39.6 78.2 9.8 19.5-.1.2L738 529z"/><path class="st6" d="M645.9 390.4c.3 1.1.5 2.2.6 3.4 0 0 15.8 37 17.8 39.2.6.7 2.9 4 5.8 8.3l3.3 5 12.8 19.2 14.8 13s32.2 2.6 42.4-7.9c-1.2-.9-2-1.3-2-1.3l-4.4-3.4c-2.3-3.8-11-7.6-19.8-10.5-8.1.1-14.7.7-14.7.7l-2.1-5.5-2.2-5.8-11.2-29.5s-7.2-37.2-9.6-39-1.8-7.4-1.8-7.4 4.4-15.8 2.8-18 2.6-18.4 2.6-18.4c-.4-1.6-1.1-3.1-1.9-4.5l-30.8 58.7c0-.2-1.1 1.5-2.4 3.7z"/><path class="st17" d="M681.5 331.1s-4.2 16.2-2.6 18.4-2.8 18-2.8 18-.6 5.6 1.8 7.4 9.6 39 9.6 39l15.5 40.8s48.5-4.8 43.5 10.4-45 12-45 12l-14.8-13s-20-30.2-22-32.4-17.8-39.2-17.8-39.2-.8-7.4-4.2-11.2-.8-10.2-.8-10.2-4.2-48.4.2-54.2 34.8-3.2 39.4 14.2z"/><path class="st6" d="M656.7 300.8l-12.6 7.6s-3.6 12.2-6.4 13.8c0 0 25.2-14 44.2 18.2 0 0-.6-4.2 2-6.2s2-10.6 2-10.6c.7-1.4 1.3-2.8 1.8-4.2 1.8-4.5-7.6-29.6-31-18.6z"/><path class="st18" d="M656.3 300l-12.6 7.6s-3.6 12.2-6.4 13.8c0 0 25.2-14 44.2 18.2 0 0-.6-4.2 2-6.2s2-10.6 2-10.6c.7-1.4 1.3-2.8 1.8-4.2 1.8-4.5-7.6-29.6-31-18.6z"/><linearGradient id="SVGID_3_" gradientUnits="userSpaceOnUse" x1="417.963" y1="173.25" x2="417.963" y2="470.788" gradientTransform="matrix(1 0 0 -1 -44.68 709.83)"><stop offset="0" stop-color="gray" stop-opacity=".25"/><stop offset=".54" stop-color="gray" stop-opacity=".12"/><stop offset="1" stop-color="gray" stop-opacity=".1"/></linearGradient><path d="M359.2 405.2c-1.7 1-3.3 2.1-4.8 3.4-.3.2-.6.5-.9.7.1.3.3.7.4 1 .1-.2.2-.5.3-.6l.1-.3c0-.1.1-.2.1-.3l.6-.9 4.6-3.3c.1.1-.2.2-.4.3zm0 0c-1.7 1-3.3 2.1-4.8 3.4-.3.2-.6.5-.9.7.1.3.3.7.4 1 .1-.2.2-.5.3-.6l.1-.3c0-.1.1-.2.1-.3l.6-.9 4.6-3.3c.1.1-.2.2-.4.3zm150.5 116.2c1.4-4.3-15.4-9.8-21.1-11.5v-.2l-.2.1-1.6-.5s-2.6-1.9-5.7-4.1l-.2-.6-.5.2c-1.5-1.1-3.2-2.2-4.7-3.3.1-.1.3-.1.4-.1l-.1-.8c-.3.1-.5.2-.8.3v-.3c-.2 0-.4.1-.5.2-1.5-1-2.8-1.9-3.8-2.5s-2.5-1.8-4.5-3.3c-1.9-1.5-4.2-3.3-6.4-5.1.1-.2.2-.5.3-.7l.4-1-1 .5h-.1l.2-.5-1 .5-.2.1-2.3-1.7.1-.1.9-.5 1.1-.6 1.3-.7.3-.1 3.4-2c7.9-4.5 14.6-10.8 19.5-18.6 6.6-10.5-.7-20-5.3-25.6l-.1-.2.9-.3c2-.8 3.4-2.7 3.5-4.9.1-.7 0-1.4-.3-2.1-.8-2.4-2.8-9.2-.4-11.8.6-.6 1.4-1 2.3-1 4.4-.3 11.1-.8 14.9-2.2.8-.3 1.5-.7 2.2-1.2.5-.4.9-1 .9-1.6 0-2.4-.8-6-3.2-7.6-.1-.1-.3-.2-.5-.3h-.1c-1.2-.8-3-1.2-6-1.1-5.4.1-10.7-.5-15.9-1.9l-.3.3-.6-.6-.5-.5-11.1-10.7-2.5 2.5-1.2-1.1-2.4-2.4-.1-.1-4.4-4.2c-1-8.5-2.8-16.8-5.7-22.4-1.1-2.3-2.7-4.2-4.7-5.7l-5.3-5.1-.4-.4.2-.2c.1-.1.2-.2.3-.4.3-.4.6-.8.8-1.2 1-2.1.5-4.7-1.2-6.3l-.1-.2c-2.1-2-5.4-2.1-7.7-.3-.1.1-.3.2-.4.3-.1.1-.1.2-.2.2l-1.5-1.5c-2.4-2.3-6.1-2.3-8.4.1l-7.7 7.7c-.7-2-1.4-4-2.3-6-2.2-4.5-9.6-8.3-17-11-3.5-1.3-7.1-2.4-9.9-3.2-1.7-.5-3.2-.8-4.3-1.1l-.4-.1c-.8-.2-1.3-.3-1.5-.3l.4-.5c.1-.1.2-.3.3-.4l.5-.6.4-.4c.5.3.9.6 1.4.9 15.5 9 35.3 4.8 45.7-9.7l.6-.9c.1-.2.3-.4.4-.6.1-.1.1-.2.2-.4s.3-.4.4-.7l.7-.1c2.4-.3 4.9-1 6.3-2.9.2-.2.3-.4.4-.7l.3-.6c.1-.2.2-.5.2-.7.2-1 .4-2 .5-3 0-.3.1-.6.1-.9 0-.2.1-.5.1-.7l.1.1c.7.6 1.4 1.3 2 2 .1 0 .1.1.1.2v-.8c0-2.9 5.9-3.6 7.8-5.4.5-.4.7-1.1.5-1.7.4 0-.1-1.8-.3-3.1-.1-.7-.1-1.2 0-1.3l.3-.1c1-.5.5-1.4.4-2.3 0-.3 0-.7.2-1 .1-.2.3-.5.5-.6 1.2-1.1-1.9-1.7-.4-2.4-.6-2-1.3-4-2-6-.3-1.1-.8-2.2-1.3-3.2-.3-.5-.7-1-1.1-1.5-1.3-4.4-4-8.3-7.7-11-2.3-1.7-4.9-2.9-7.1-4.6-5.6-4.2-8.6-10.9-13.1-16.3-2.2-2.7-5-4.9-8.1-6.4-3-1.5-6.5-1.7-9.7-.5l-.6.3c-4.6 2.2-6.8 7.5-10.9 10.5-5.8 4.1-13.7 2.9-20.8 2.1-7.4-.7-14.8-.7-22.1.2-1.1 0-2.2.4-3.1 1-.9.9-1.3 2.2-1.3 3.4v1.5c0 5 2.1 9.9 2.3 14.9 0 .5 0 1-.1 1.4-.6 6.2-5.2 11.4-10.5 14.6-4.6 2.8-10.8 5.7-10.5 11v.8c.1.9.3 1.7.6 2.5-5.2 0-9.3-.2-9.3-.2-5.4-.7-10.8 0-15.8 2.2-4.8 2.2-8.9 5.6-11.8 10-1.5 2.2-2.7 4.6-3.7 7.1 0 0-5.5 26.6-11.3 33.7-5.8 7.1-6.2 17-6.2 17-.8 3-1.7 5.9-2.8 8.7-1 2.5-2.1 4.9-3.3 6-3 2.7-1.4 6.8-1.4 6.8s-3.6 3.5-3.3 5.7-1.9 7.1-1.9 7.1-2.2 5.2-1.1 7.6c.7 1.5-1 5.3-2.4 8l-1.2-.1c-1.5 3.1-2.7 6.3-3.6 9.6-.5 1.7-.8 3.4-.8 5.1.3 4.9-3.3 13.3-3.3 13.3-1.4 4.7-2.2 9.6-2.3 14.5v.4c-.1 9.4 2.3 21.2 13.2 29.4 4.1 3 8.7 5.3 13.6 6.7 1.5.5 3.1.9 4.9 1.3l3.9.8c5.5 2.9 11.3 5.2 17.3 6.9 2.9.9 6 1.4 9 1.7 5.1.4 10.2 0 15.1-1.3.6.1 1.3.2 1.9.3l.6.1h.1c9.8 1.3 16.5 1.8 19.8 2v.2c-.7 3.3-1.1 5.7-1.1 5.7l.6.7v.3l8.8 11c.5-.1.9-.2 1.3-.4 1.8-.8 3.4-2.1 4.6-3.6.5.1 1 .2 1.5.2h.2c.8 0 1.5-.2 2.3-.4 0 0 1.6-1.1 3.7-2.5l.2.4 1.4-.9 1.2-.8 3.1-2v-.1l.2-.3.8-.4c.4-.2.8-.4 1.2-.5.7-.3 1.3-.5 2-.6 1.5-.1 3.9-1.3 6.2-2.6l.4.3c.3-.3.6-.6.8-1l.5-.3c.4-.2.8-.5 1.1-.7 2-1.2 3.4-2.3 3.4-2.3s25.1-2.5 34.5-4.7v.4c0 .1 0 .4-.1.6-.9 0-1.7-.1-2.4-.1s-1.4 0-2.1.1c-.6 0-1.2.2-1.7.6-2 1.6 1.2 5.6 1.2 5.6h.1c3 1 60.3 19.3 66 20.1 2.4.3 9 0 16.2-.9 9-1.1 18.9-3 23-5.3.6-.3 1.1-.7 1.5-1.1 0-.1.1-.1.1-.2 2.3-3.1-.6-6-3.2-7.7zm-82.3-120.1l-1.6 1.6-1.8-3.8-.9-1.9 3.5 3.3.8.8zm-81.8 59.4h-1.8c.5-2.7.8-4.4.8-4.4s2.6-12.2 4.2-22.7c.9-5.7 1.5-10.9 1.3-13.5-.2-2.3.1-4.5.7-6.7.2-.8.5-1.6.9-2.4.2-.4.3-.7.5-1.1l1.1-1c.1.1.1.3.2.4.1.3.3.6.4 1l.1.2c2.8 6 8.6 14.3 14.1 21.6 6.6 8.6 12.6 15.7 12.6 15.7l3.1 3.4c-6.8 2.5-13.3 4.9-13.3 4.9l-20.6 5.3c-1.3-.4-2.8-.7-4.3-.7zm84.6-48l-.3-.6-1.5-3.3-.9-2 1 .9.5.5c.1.2.1.3.2.5.3.5.6 1 .7 1.5.3.9.4 1.7.3 2.5zm-71-7.5c-1.7 1-3.3 2.1-4.8 3.4-.3.2-.6.5-.9.7.1.3.3.6.4 1 .1-.2.2-.5.3-.6l.1-.3c0-.1.1-.2.1-.3l.6-.9 4.6-3.3c.1.1-.2.2-.4.3zm0 0c-1.7 1-3.3 2.1-4.8 3.4-.3.2-.6.5-.9.7.1.3.3.6.4 1 .1-.2.2-.5.3-.6l.1-.3c0-.1.1-.2.1-.3l.6-.9 4.6-3.3c.1.1-.2.2-.4.3z" fill="url(#SVGID_3_)"/><path class="st26" d="M504.7 519.9s10 4.6 5.9 9.5-34.1 8.1-39.7 7.3-64.6-20-64.6-20-4.3-5.7.5-6.2 25.4 2.1 25.4 2.1l28.1 1.6 44.4 5.7z"/><path class="st27" d="M406.8 418.3l13.2 29 17.6-17.2-13-20.9-17.8 9.1z"/><path class="st14" d="M437.6 430l-13.3 13-4.3 4.2-2.6-5.6-7.4-16.2-3.2-7.1 4.6-2.4 13.2-6.8 4.9 8 3.4 5.5 4.7 7.4z"/><path class="st27" d="M390.1 316.6c-4.7 3.7-9 7.8-13 12.2l-.7.8c-2.2 2.6-4.3 5.3-6.1 8.2-1.4 2.2-2.5 4.5-3.5 6.9-2.7 7-1.6 11.1-1.6 11.1-7.7-6.5-15-13.5-22-20.8-11.3-12-20.5-25.1-9.6-27.1 13.5-2.5 24.7-10.8 31-16.4 1.9-1.6 3.6-3.4 5.3-5.2 0 0 49.4 6.8 20.2 30.3zm-48 147.9l29.6-7.7s26.8-10.1 28.4-10.3 56-14.2 56-14.2l-25.8 57.2-61 20.9-36.3-3.5 9.1-42.4z"/><path class="st6" d="M342.1 464.5l29.6-7.7s26.8-10.1 28.4-10.3 56-14.2 56-14.2l-25.8 57.2-61 20.9-36.3-3.5 9.1-42.4z"/><path class="st28" d="M347 320.4c-.8-4.5-2.3-14.4-.7-17.3 0 0-2.4-.3-11.4 1.4s-23.3.8-23.3.8-21.4-4.1-30.5 19.2c0 0-5.4 26.5-11.1 33.5s-6.2 17-6.2 17-3 11.9-6 14.6-1.4 6.8-1.4 6.8-3.5 3.5-3.3 5.7-1.9 7-1.9 7-2.2 5.1-1.1 7.6-4 11.1-4 11.1l91.7 19.2 24.4-76.5.5-31.9s-13.4-1.2-15.2-14.2c-.1-1.4-.3-2.7-.5-4z"/><path class="st1" d="M271.2 398l-3.2 6s19.5 5.7 26.5 3.8 29.7-17.3 29.7-17.3l-53 7.5z"/><path class="st6" d="M271.2 398l-3.2 6s19.5 5.7 26.5 3.8 29.7-17.3 29.7-17.3l-53 7.5z"/><path d="M286 429.6s-18.6-3.8-21.6-3.8-17.6-1.4-17.6-1.4-4.6 9.7-4.3 14.6-3.2 13.3-3.2 13.3-14.3 42.5 28.7 51.9 68.4 10.5 68.4 10.5 14.1-39.7 16.8-45.1 1.9-9.2-10.8-8.1-56.4-31.9-56.4-31.9z" fill="#4c4c78"/><path class="st28" d="M434 422.5l-1 .1c-1.1.1-3.1.2-5.4.4-3.7.3-8.3.8-12.2 1.4-2.1.3-3.9.6-5.3 1-1.8.4-2.8.9-2.8 1.4 0 1.2-10.7-20.5-21.3-42.4l-1-2.1c-.3-.7-.7-1.4-1-2.1l-1.7-3.6c-2.6-5.4-5.1-10.6-7.3-15.2-.4-.9-.8-1.7-1.2-2.5l-6.8-14.1c-.9-1.9-1.4-2.9-1.4-2.9s1.7-2 3.9-4.6 4.9-5.6 7-7.6h.1c1.7.4 27.9 6.4 32.2 15.7 1.3 3 2.4 6.1 3.2 9.2.3 1.1.7 2.2 1 3.4 1.4 4.8 2.8 10.2 4.2 15.5.3 1 .5 2.1.8 3.1 2.7 11.4 5 21.4 5 21.4l7 15.6 4 8.9z"/><path class="st27" d="M453 421.3s-6 20.6-8.7 28.5c-.3 1.1-.7 2.1-1.2 3.1-3.2 2.5-7 4.3-11 5-.8.1-1.6.2-2.4.1-1.2-.1-2.4-.4-3.5-.9-6.4-3.2-10.9-11.7-10.9-11.7l2.1-3.8 3.3-6 6.9-12.6.7-1.3c.5-1.5 1-3.1 1.3-4.6.2-1.1.4-2.3.4-3.5.1-1.4-.2-2.7-.9-3.9-2.4-3.2-2.6-59.8 12-51.7s11.9 63.3 11.9 63.3z"/><path class="st27" d="M455.3 432.9l.8-.6s14.6-.4 17.6 4 15.6 15.8 7.7 28.6c-4.7 7.6-11.3 14-19.1 18.5 0 0-41.7 23.5-49.4 25.8s-35.3 5.1-35.3 5.1-8.7 6.3-12.2 6.5-13.6 7.7-13.6 7.7-11.1 3.5-2.8-11.5 9.3-18 9.3-18 7.9 4.5 12.4 0 31.6-21.5 31.6-21.5 17.4-14 20.9-15.8 25.4-14.2 25.4-14.2c-.2-5.7 2.3-11.1 6.7-14.6z"/><path class="st14" d="M481.4 464.9c-4.7 7.6-11.3 14-19.1 18.5 0 0-2.3 1.3-6 3.4-11.8 6.5-37.2 20.5-43.3 22.4h-.1c-7.7 2.2-35.3 5.1-35.3 5.1s-8.7 6.3-12.2 6.5-13.6 7.7-13.6 7.7-11.1 3.5-2.8-11.5 9.3-18 9.3-18 7.9 4.5 12.4 0 31.6-21.5 31.6-21.5l3.2-2.5c5.2-4.1 15.2-11.9 17.7-13.3 1-.5 3.5-1.9 6.5-3.6l1.9-1.1c4.3-2.4 9.3-5.2 12.7-7.1l4.3-2.4v-.5c0-5.5 2.5-10.7 6.8-14.1l.8-.6s14.6-.4 17.6 4 15.5 15.8 7.6 28.6z"/><path class="st26" d="M333.5 521.6l8.6 10.9s8-.5 14.1-21.3-1.8-22.8-1.8-22.8-11.5 6.6-15 11.8-5.9 21.4-5.9 21.4z"/><path class="st26" d="M333 520.5l8.5 10.4s7.3-.5 13.2-20.2S353 489 353 489s-10.9 6.3-14.3 11.2-5.7 20.3-5.7 20.3z"/><path d="M333 520.5l8.5 10.4s7.3-.5 13.2-20.2S353 489 353 489s-10.9 6.3-14.3 11.2-5.7 20.3-5.7 20.3z" opacity=".15"/><path class="st26" d="M355.7 526.2l-.4-.7c1.5-1 5-15.8 6.8-24.9l.8.2c-.7 3.4-3.9 18.5-6.1 23.7l4-2.6c.6-1.2 7.2-14.1 3.6-20.5l-.4-.4 4.5-.7.1.2c.3.5 8 13.3 3.2 17.9l-.5-.6c4-3.9-2.2-15-3.2-16.7l-2.8.4c3.4 7.1-3.6 20.3-3.9 20.8v.1l-5.7 3.8z"/><path class="st6" d="M325.5 330.5c.8 1.2 1.6 11.5 4.7 11.8s-4.7-11.8-4.7-11.8zM307.7 310s8.7 1 9.3 8.9-9.3-8.9-9.3-8.9z"/><path class="st1" d="M261.2 406.9s3.5 10.5 11.1 12.6l-11.1-12.6zm12.2 2.2s-.8 8.1 4.9 10.1-4.9-10.1-4.9-10.1z"/><path class="st6" d="M269.1 456.2s-17 8.3-16.6 11.1 16.6-11.1 16.6-11.1zm-20.4-1s8.5-9.1 14.6-8.3l-14.6 8.3zm164.4-68.4s-2.4 17 1.2 18.3-1.2-18.3-1.2-18.3z"/><path class="st27" d="M269.8 471.8s-6.8 29.2-.5 31.9c6.1 3.5 12.6 6.3 19.3 8.3 20.4 6 42.3-3.5 51.1-22.8.9-1.9 1.6-3.9 2-6 1.6-10.4 4.6-26.3 4.6-26.3s5.9-28.6 5.4-36c-.3-4.5 1-9 3.5-12.7l38.1-27.5-10.5-28.9s-27.3-38.7-51.9-3-44.6 77.3-44.6 77.3-16 24.1-16.5 45.7z"/><path class="st6" d="M393.3 379.9l-7.4 5.4c-1.3-2.6-2.5-5.2-3.8-7.8-6.6-13.7-12.7-26.4-15.3-31.9-2.7 7-1.6 11.1-1.6 11.1-7.7-6.5-15-13.5-22-20.8 9.7-5.5 19-2.5 26.1 2.2l.9.6c4.8 3.4 9 7.6 12.5 12.3l10.6 28.9z"/><path class="st27" d="M269.8 471.8s-6.8 29.2-.5 31.9c6.1 3.5 12.6 6.3 19.3 8.3 20.4 6 42.3-3.5 51.1-22.8.9-1.9 1.6-3.9 2-6 1.6-10.4 4.6-26.3 4.6-26.3s5.9-28.6 5.4-36c-.3-4.5 1-9 3.5-12.7l38.1-27.5-10.5-28.9s-27.3-38.7-51.9-3-44.6 77.3-44.6 77.3-16 24.1-16.5 45.7z"/><path class="st6" d="M413 509.1c.3-4.9.3-15.6.3-15.6s-.3-7.8-6.8-17c-.3-.5-.7-1-1.1-1.5 5.2-4.1 15.2-11.9 17.7-13.3 1-.5 3.5-1.9 6.5-3.6-1.2-.1-2.4-.4-3.5-.9-6.5-3.3-11-11.8-11-11.8l2.1-3.8-7.4-16.2c-1.8.4-2.8.9-2.8 1.4 0 1.4-13.4-26.1-25-50.2 2.7-2.1 4.4-3.5 4.4-3.5l8.4 7.6 16.5 35.2 3 6.4s.3.8.9 2.1c1.1 2.3 2.9 6.4 5.3 11.3 1.1 2.3 2.3 4.8 3.6 7.4 2.3 4.5 4.8 9.4 7.3 14 .2.3.4.6.5 1 5.7 10.2 11.5 19.1 15.6 21.4 0 0 3.9 3.4 8.6 7.3-11.5 6.4-36.9 20.4-43.1 22.3z"/><path class="st27" d="M385 373.1l8.4 7.6 19.5 41.6s22.7 51.1 33.3 57c0 0 19.2 16.5 23.5 19.2s15.7 11.1 15.7 11.1 33.8 9.7 18.7 14.6-35.7 1.1-35.7 1.1-22.7-4.9-29.2-8.7c0 0-3.8.3-6.5.3s-21.9-3.3-21.4-6 .5-17.6.5-17.6-.3-7.8-6.8-17-23.3-27.9-23.3-27.9-28.7-34.1-27.9-43.3 31.2-32 31.2-32z"/><path class="st27" d="M385 373.1l8.4 7.6 19.5 41.6s22.7 51.1 33.3 57c0 0 19.2 16.5 23.5 19.2s15.7 11.1 15.7 11.1 33.8 9.7 18.7 14.6-35.7 1.1-35.7 1.1-22.7-4.9-29.2-8.7c0 0-3.8.3-6.5.3s-21.9-3.3-21.4-6 .5-17.6.5-17.6-.3-7.8-6.8-17-23.3-27.9-23.3-27.9-28.7-34.1-27.9-43.3 31.2-32 31.2-32z"/><path class="st6" d="M466.2 526.8l-.7-.3c4.5-8.3 12.4-14.3 21.6-16.5l.2.8c-9 2.1-16.7 7.9-21.1 16zm-14.6-4.8l-.7-.4c4.9-9.8 27.7-16.4 28.6-16.7l.2.8c-.2.1-23.4 6.8-28.1 16.3z"/><path class="st6" d="M463.5 524.1l-.8-.3c.8-2.3 8-22.4 12-23l.1.8c-2.6.4-8.2 13.7-11.3 22.5z"/><path class="st26" d="M465.4 526.8l-.7-.3c4.5-8.3 12.4-14.3 21.6-16.5l.2.8c-9 2.1-16.7 7.9-21.1 16zm-14.6-4.8l-.7-.4c4.9-9.8 27.7-16.4 28.6-16.7l.2.8c-.2.1-23.4 6.8-28.1 16.3z"/><path class="st26" d="M462.7 524.1l-.8-.3c.8-2.3 8-22.4 12-23l.1.8c-2.6.4-8.2 13.7-11.3 22.5z"/><path class="st6" d="M448.6 520.5c-.5-3.2 7.6-25.4 9.4-30.4-12.6 5.8-45.6 12.5-46 12.6l-.2-.8c.4-.1 35-7.1 46.7-12.9l.9-.5-.4 1c-2.9 7.6-10.1 28.1-9.7 30.9l-.7.1z"/><path class="st26" d="M447.8 520.5c-.5-3.2 7.6-25.4 9.4-30.4-12.6 5.8-45.6 12.5-46 12.6l-.2-.8c.4-.1 35-7.1 46.7-12.9l.9-.5-.4 1c-2.9 7.6-10.1 28.1-9.7 30.9l-.7.1z"/><path class="st6" d="M417.8 376.5c-13.2 2.7-30.7 3.2-30.7 3.2l-2.2 2.6-1.8 2.1s-16.6 20.5-22.5 21.9-23.3 21.3-23.3 21.3-14.2 9.5-26.8 16.8-21.5-10.5-21.5-10.5l-4.5-41 27.6-5.3 1.6 12s18-7.5 20.7-8.1 33.7-27.4 36.1-28c1.5-.6 3-1.3 4.3-2.1 3.1-1.8 6.4-4.1 6.4-4.1s17-1.6 31.6.7c1.4 4.8 2.8 10.2 4.2 15.5.3 1 .6 2 .8 3z"/><path class="st6" d="M417 373.4c-13.1 2.6-29.9 3.1-29.9 3.1l-3.2 3.7-.8.9s-16.6 20.5-22.5 21.9-23.3 21.3-23.3 21.3-14.2 9.5-26.8 16.8-21.5-10.5-21.5-10.5l-4.5-41 27.6-5.3 1.6 12s18-7.5 20.7-8.1 33.7-27.4 36.1-28c1.1-.4 2.1-.9 3.1-1.5l.7-.4c5.3-3.1 11.3-4.8 17.4-5 6.7-.2 13.4.2 20.1 1.1 1.7 5.6 3.5 12.4 5.2 19zm31.1 142.3l7.1 3.8-3.5 5-6-2.8 2.4-6z"/><path class="st26" d="M448.1 514.9l7.1 3.8-3.5 5-6-2.8 2.4-6z"/><path class="st6" d="M462.4 521l7.6 2.2-2.8 5.2-7.2-2.9 2.4-4.5z"/><path class="st26" d="M462.4 520.1l7.6 2.2-2.8 5.2-7.2-2.9 2.4-4.5z"/><path class="st6" d="M311.2 402.6s-13.8 8.4-12.7 14.3l12.7-14.3zm104.3-11.9l17.6-17.9 12.4 12.2-17.5 18-12.5-12.3z"/><path class="st31" d="M416.7 391.9l17.6-17.9 12.4 12.2-17.6 17.9-12.4-12.2z"/><path class="st6" d="M426.1 401.1l17.6-17.9 3 3-17.6 17.9-3-3z"/><path class="st31" d="M424.6 405l22.8-23.1 14.2 13.9-22.9 23.2-14.1-14z"/><path class="st6" d="M436 416.3l22.8-23.1 2.7 2.7-22.8 23.1-2.7-2.7z"/><path class="st31" d="M434.1 420.4l28.2-28.6 13.9 13.7-28.2 28.6-13.9-13.7z"/><path class="st6" d="M454.2 457c-1.1.7-3.1-.2-4-.8-4.2-5.6-4.4-23.7-4.4-23.7l.4-.4-1.2-1.1 28.2-28.6 1.2 1.1.3-.3c5.4 1.7 10.9 2.7 16.5 2.9 3.1.1 4.2-.5 5.4.4 1.2 1.9 1.8 4.1 1.9 6.4 0 3.7-11.1 4.6-17.6 5-5.5.4-2.8 9.9-1.9 12.8.2.7.3 1.4.3 2-.6 6.1-7.4 6.5-13.2 5-6.2-1.6-9 6.5-9 6.5s4.5 7.7-2.9 12.8z"/><path class="st31" d="M455.3 458.2c-1.6 1.1-4-.4-5.1-1.9-4.2-5.6-4.4-23.7-4.4-23.7l28.8-29.3c5.4 1.7 10.9 2.7 16.5 2.9 3.1.1 4.2-.5 5.4.4 2.2 1.5 3.1 5.2 3.1 7.5 0 3.7-11.1 4.6-17.6 5-5.5.4-2.8 9.9-1.9 12.8.2.7.3 1.4.3 2-.6 6.1-7.4 6.5-13.2 5-6.2-1.6-9 6.5-9 6.5s4.5 7.6-2.9 12.8z"/><path class="st6" d="M455.3 458.2c-1.6 1.1-4-.4-5.1-1.9-4.2-5.6-4.4-23.7-4.4-23.7l28.8-29.3c5.4 1.7 10.9 2.7 16.5 2.9 3.1.1 4.2-.5 5.4.4 2.2 1.5 3.1 5.2 3.1 7.5 0 3.7-11.1 4.6-17.6 5-5.5.4-2.8 9.9-1.9 12.8.2.7.3 1.4.3 2-.6 6.1-7.4 6.5-13.2 5-6.2-1.6-9 6.5-9 6.5s4.5 7.6-2.9 12.8z"/><path class="st31" d="M453.5 456.4c-1.5 1.1-2.8.7-3.8-.7-3.7-5.1-4-23.1-4-23.1l28.8-29.3c5.1 1.4 10.3 2 15.5 1.9 3-.1 4.8.4 5.9 1.1 2 1.4 1.8 3.8 1.7 6-.2 3.5-10.8 4.9-16.9 5.7-5.1.6-3.2 9.3-2.5 12.1.2.7.3 1.4.2 2.1-.9 5.7-7.4 6.5-12.8 5.3-5.8-1.2-8.8 6.7-8.8 6.7s4 6.9-3.3 12.2zm-17.1-103.6c-2.2 2.2-5.7 2.2-7.9.1l-.1-.1c-2.2-2.2-2.2-5.7-.1-7.9.1-.1.2-.2.4-.3 2.2-1.9 5.4-1.7 7.5.3l.1.1c2 2 2.2 5.3.4 7.5l-.3.3z"/><path class="st6" d="M436.4 352.8c-2.2 2.2-5.7 2.2-7.9.1l-.1-.1c-2.2-2.2-2.2-5.7-.1-7.9.1-.1.2-.2.4-.3l8 7.9-.3.3zm-19.7 39.1l17.6-17.9 2.3 2.3-17.6 17.9-2.3-2.3z"/><path class="st31" d="M429 346l11.8 11.6c3.6 3.6 3.7 9.4.1 13.1l-26.5 26.9-25-24.6 26.5-26.9c3.6-3.7 9.5-3.7 13.1-.1z"/><path class="st6" d="M390.1 316.6c-4.7 3.7-9 7.8-13 12.2-8.8-6.3-14.1-16.5-14.1-27.3 0-3.4.5-6.7 1.5-9.9 1.9-1.6 3.6-3.4 5.3-5.2 0-.1 49.5 6.7 20.3 30.2z"/><path class="st27" d="M430.1 299.8v.8c0 2-.3 3.9-.6 5.8-.1.6-.3 1.3-.4 1.9v.1c-4.6 17.9-22.9 28.7-40.9 24.1-17.9-4.6-28.7-22.9-24.1-40.9.5-2.1 1.3-4.1 2.2-6 .4-.9.9-1.8 1.4-2.7 1.7-2.7 3.7-5.3 6-7.5 13.5-12.7 34.7-12 47.4 1.5 5.8 6.3 9 14.4 9 22.9zm-43 78.3l-3.3 3.8-.8.9s-1.7 2.1-4.2 5c-5.3 6.1-14.3 16-18.3 16.9-5.9 1.4-23.3 21.3-23.3 21.3s-14.2 9.5-26.8 16.8-21.4-10.5-21.4-10.5l-4.5-41 27.6-5.3 1.6 12s18-7.5 20.7-8.1c2.2-.5 24.5-19.5 33-25.9.9-.8 2-1.5 3.1-2.1 1.3-.5 2.6-1.1 3.7-1.8l.1-.1c5.3-3.1 11.2-4.8 17.3-4.9 12.5-.2 32.6.8 39.5 9 10.2 12.4-44 14-44 14z"/><path class="st6" d="M300.3 324c-1.8.3-3.7.4-5.6.4-4.8 0-14.8 3.3-17.6 29.3-3.8 34.6-9.2 51.9-9.2 51.9s20.3-7 31.9-5.1 29.5-5.9 29.5-5.9-.8-28.1-2.7-33.8c-1.8-5.5-7.8-39.6-26.3-36.8z"/><path class="st28" d="M300.3 322.4c-1.8.3-3.7.4-5.6.4-4.8 0-14.8 3.3-17.6 29.3-3.8 34.6-9.2 51.9-9.2 51.9s20.3-7 31.9-5.1 29.5-6 29.5-6-.8-28.1-2.7-33.8c-1.8-5.4-7.8-39.5-26.3-36.7z"/><path class="st6" d="M316.6 365.1s-9.5 6.3-5.5 7.5 7.1-.6 5.5-7.5zm-1 11.2s-26 8.1-16.8 11.5 16.8-11.5 16.8-11.5zm97.7-58.5l11.5-1.1c2.8-.3 6-.7 7.7-3.1s1.1-5.5 2.1-8.1c.7-1.8 2.1-3.3 3.3-4.8 6.9-9.2 4.8-23.9-4.5-30.7-2.2-1.6-4.8-2.9-7-4.5-5.5-4.2-8.4-10.9-12.8-16.2s-11.8-9.7-18-6.6c-4.5 2.2-6.6 7.4-10.6 10.4-5.6 4.1-13.4 2.9-20.3 2.1-7.2-.7-14.5-.7-21.6.2-1.1 0-2.1.4-3 1-.8.9-1.3 2.1-1.3 3.4-.3 6 2.7 11.8 2.1 17.8-.6 6.1-5.1 11.3-10.3 14.5-4.5 2.8-10.5 5.7-10.3 11 .3 1.8.9 3.6 1.8 5.2 7.4 15.3 7.5 33.1.2 48.4-1 2.1-2.5 4.4-4.8 4.9 6.4 1.7 13.1-1.2 16.2-7.1 2.5-5.1 2-12 6.5-15.5 3.1-2.4 7.5-2.2 11.1-3.9 4.9-2.2 7.6-7.5 9.9-12.4l6.4-13.4c1.9-4.1 4.4-9 8.6-11 4.6-2.2 10.2-.1 15 .3 7.9.5 16.2 1.1 13.8 11.6 5.3-2.8 7.6 3.7 8.3 7.6z"/><path d="M437.9 299.8c-1.2 1.5-2.6 3-3.3 4.8-.3 1-.6 2-.6 3-.2 1.8-.4 3.7-1.4 5.2-1.6 2.3-4.9 2.8-7.7 3-3.8.4-7.7.7-11.5 1.1-.7-3.9-3-10.3-8.2-7.7 2.4-10.5-5.9-11-13.8-11.6-4.8-.3-10.5-2.5-15-.3-4.3 2.1-6.7 7-8.6 11l-6.4 13.4c-2.3 4.9-5 10.1-9.9 12.4-3.6 1.6-8 1.4-11.1 3.9-4.5 3.5-4 10.4-6.5 15.5-3.1 5.8-9.8 8.8-16.2 7 2.3-.4 3.8-2.7 4.8-4.9 7.3-15.3 7.2-33.1-.2-48.4-1-1.6-1.6-3.4-1.8-5.2-.3-5.3 5.8-8.2 10.3-11 5.2-3.2 9.7-8.4 10.3-14.5.6-6-2.4-11.8-2.1-17.8 0-1.3.4-2.5 1.3-3.4.9-.6 2-1 3.1-1 7.2-.9 14.4-1 21.6-.2 7 .7 14.7 2 20.3-2.1 4-2.9 6.1-8.2 10.6-10.4 6.2-3.1 13.6 1.2 18 6.6s7.3 12 12.8 16.2c2.2 1.7 4.8 2.9 7 4.5 4 3 6.7 7.3 7.9 12.2 1.4 6.6.1 13.4-3.7 18.7z" fill="#ffedba"/><path d="M341.7 271.3c.5-5.1-1.6-10-2.1-15.1-.6.9-.9 1.9-.9 3-.3 5.2 2 10.3 2.2 15.5.4-1.1.6-2.3.8-3.4zm-14.2 65.9c2.3-11.9.8-24.3-4.5-35.2-.6-1.1-1.1-2.3-1.5-3.5-.8 1.2-1.2 2.6-1.1 4 .3 1.8.9 3.6 1.8 5.2 4.4 9.2 6.2 19.4 5.3 29.5zm111.2-42.8c-1.2 1.5-2.6 3-3.3 4.8-1 2.6-.4 5.9-2.1 8.2s-4.9 2.8-7.7 3.1l-11.5 1.1c-.7-3.9-3-10.3-8.2-7.7 2.4-10.5-5.9-11-13.8-11.6-4.8-.3-10.5-2.5-15-.3-4.3 2.1-6.7 7-8.6 11l-6.4 13.4c-2.3 4.9-5 10.1-9.9 12.4-3.6 1.6-8 1.4-11.1 3.9-4.5 3.5-4 10.4-6.5 15.5-2.4 4.5-6.9 7.3-12 7.5 0 .1-.1.2-.1.3-1 2.1-2.5 4.4-4.8 4.9 6.4 1.7 13.1-1.2 16.2-7.1 2.5-5.1 2-12 6.5-15.5 3.1-2.4 7.5-2.2 11.1-3.9 4.9-2.2 7.6-7.5 9.9-12.4l6.4-13.4c1.9-4.1 4.4-9 8.6-11 4.6-2.2 10.2-.1 15 .3 7.9.5 16.2 1.1 13.8 11.6 5.2-2.6 7.6 3.8 8.2 7.7l11.5-1.1c2.8-.3 6-.7 7.7-3.1s1.1-5.5 2.1-8.1c.7-1.8 2.1-3.3 3.3-4.8 2.6-3.6 4.1-7.9 4.1-12.4-.8 2.5-1.9 4.7-3.4 6.7z"/><path class="st6" d="M437.9 299.8c-1.2 1.5-2.6 3-3.3 4.8-.3 1-.6 2-.6 3-.8-.7-1.7-1.4-2.6-2-3.9-2.6-8.3-4.3-12.6-6l-19.4-7.5c-4.6-1.8-9.1-3.5-13.7-5.3-1.7-.7-3.5-1.3-5.3-1.8l-.6-.1c-3.1-.6-6.3-.5-9.4.3l-2.4.6v-.9c0-.5 0-1-.1-1.5 2.3.5 4.6.2 6.8-.6 1.7-.9 3.2-2 4.5-3.4 3.5-3 7.5-5.4 11.8-7.1 6.6-2.4 13.8-2.7 20.9-2.5 3.5 0 7.1.4 10.5 1.2 4.2 1.3 8.2 3.1 12 5.3 2.5 1.3 5 2.8 6.7 5 1.8 6.4.6 13.2-3.2 18.5z"/><path d="M445.2 290.8c-1.5.6 1.5 1.3.4 2.3-1.7 1.5.7 3.2-1.4 4.1-.5.2.8 4.3.3 4.3 1.1 3.3-8.1 3.4-8.1 7v.8c-1.5-1.7-3.1-3.2-5-4.4-3.9-2.6-8.3-4.3-12.6-6l-19.4-7.5-13.7-5.3c-1.7-.7-3.5-1.3-5.3-1.8l-.6-.1c-3.1-.6-6.3-.5-9.4.3l-2.4.6V284c0-.5 0-1-.1-1.5 2.3.5 4.6.2 6.8-.6 1.7-.9 3.2-2 4.5-3.4 3.5-3 7.5-5.4 11.8-7 6.6-2.4 13.8-2.7 20.9-2.5 3.5 0 7.1.4 10.5 1.2 4.3 1.1 8.2 3.2 12 5.3 2.9 1.5 5.9 3.3 7.4 6.1.5 1 .9 2.1 1.3 3.2.8 2 1.4 4 2.1 6z" fill="#ff849d"/><path class="st6" d="M440.8 301.1c-6-15-35.5-14.6-35.9-14.6v-.8c1.2 0 30.4-.4 36.6 15.1l-.7.3zm2.2-6.9c-3.9-10.4-26.2-11.4-26.4-11.4v-.8c.9 0 23 1 27.1 11.9l-.7.3z"/></svg>