<svg version="1.1" id="图层_1" xmlns="http://www.w3.org/2000/svg" x="0" y="0" viewBox="0 0 1150.4 866.5" xml:space="preserve"><style>.st1{fill:none;stroke:#535461;stroke-width:2;stroke-miterlimit:10}.st4{fill:#c8cad7}.st5{opacity:.1;enable-background:new}.st8{fill:#fff}.st9{fill:#ededf4}.st10{fill:#65617d}.st13{fill:#fbbebe}.st14{fill:#e7effd}.st15{fill:#3f3d56}</style><path d="M1119.6 593.6l-3.3 2.1c-4.2 2.6-8.5 4.9-12.9 6.9-23.5 10.8-52.4 16.2-80.5 19.8-63.2 8.1-127.6 9.7-191.8 11.2-173.5 4.2-347.4 8.3-520.4-1.3-68.4-3.8-138.3-10.2-200.2-29.7-8.9-2.8-17.6-5.9-26.1-9.2-17.3-6.8-33.8-15.1-47.6-25-13-9.3-23.5-19.9-29.8-32.1-13.1-25.2-6.2-53.6 8.8-78.3 6.3-10.1 13.3-19.7 21-28.8 11.5-13.9 24.2-27.5 35.8-41.3 41.3-49.5 68.3-112.1 30.1-162.9-11-14.6-26.8-27.4-35.7-42.6-11.4-19.5-10.5-41.1-6.9-62.1.5-2.7 1-5.3 1.5-7.9 6.2-31.1 17.9-64.6 53.7-84.1 37.3-20.2 90.3-19.2 136.6-12 72 11.2 138.4 34.7 205.5 55.9s137.3 40.6 211.1 42.7c65.1 1.8 141.1-11.9 184.3-47.7 42-34.8 120.9-37.4 177.8-16.4 39 14.4 68.2 40.4 80.4 69.6 2.5 5.8 4.3 11.9 5.4 18.1 1 5.6 1.3 11.4 1 17.1-.2 2.8-.5 5.6-1 8.4-9.5 57.6-77.9 103.1-119.5 154.5-20.3 25.1-34.7 55.3-20.7 82.5 21.3 41.3 95.4 56 140.2 86.7 8.6 5.9 16.1 12.4 22 19.8 21.6 27.3 13.6 64.3-18.8 86.1zM640 832.8c185 0 335 7.5 335 16.8s-150 16.8-335 16.8-335-7.5-335-16.8 150-16.8 335-16.8zm-403 16.8c16.5 0 29.9 2.3 29.9 5.1s-13.4 5.1-29.9 5.1-29.9-2.3-29.9-5.1 13.4-5.1 29.9-5.1zm-61.3-12.5c9.3 0 16.9 1.3 16.9 2.8s-7.6 2.8-16.9 2.8-16.9-1.3-16.9-2.8 7.6-2.8 16.9-2.8zm41.9-31.6c11.3 0 20.4 1.5 20.4 3.4s-9.1 3.4-20.4 3.4-20.4-1.5-20.4-3.4 9.2-3.4 20.4-3.4z" opacity=".1"/><path class="st1" d="M294.9 324.9s-46-81.5-115.3-105c-29.1-9.9-54.5-28.4-71.8-53.7-8.2-12-15.3-24.8-21.2-38.1"/><path class="st1" d="M292.3 323.2s-9-93.2-62.9-142.7c-22.6-20.8-38.3-48.1-43.9-78.2-2.6-14.3-3.9-28.9-3.9-43.5"/><path class="st2" d="M43 112.9c7.9 7.7 44.7 15.6 44.7 15.6s-9-36.5-16.9-44.2c-8-7.6-20.6-7.2-28.2.8-7.5 7.8-7.3 20.2.4 27.8zM63.8 179c10.8 2.1 46-11.2 46-11.2S82.4 142 71.6 139.9c-10.8-1.9-21.2 5.3-23.1 16.2-1.9 10.5 4.9 20.6 15.3 22.9zm75.7 71.5c10.4-3.6 34-32.9 34-32.9s-36.7-8.4-47.1-4.8c-10.5 3.3-16.4 14.4-13.1 24.9 3.3 10.5 14.4 16.4 24.9 13.1.5 0 .9-.1 1.3-.3zm.9-111.2c0 11-19.9 42.9-19.9 42.9s-19.9-31.9-20-42.9c-.2-11 8.5-20.1 19.5-20.4s20.1 8.5 20.4 19.5v.9zm7.4-111.9c4.1 10.2 34.5 32.4 34.5 32.4s6.6-37 2.4-47.3c-4.2-10.2-15.8-15.1-26-10.9-10 4.1-15 15.6-10.9 25.8zm-7.7 68.8c9 6.3 46.6 8.4 46.6 8.4S172 70 163 63.6c-9.1-6.2-21.5-3.9-27.7 5.2-6.1 8.9-4 21.1 4.8 27.4zm40.2 96.1c11 .9 44.4-16.3 44.4-16.3s-30.1-22.5-41.1-23.4c-10.9-1.2-20.8 6.8-21.9 17.7-1.2 10.9 6.8 20.8 17.7 21.9.3.1.6.1.9.1zM226.2 91c-4.4 10.1-35.6 31.2-35.6 31.2s-5.3-37.3-.9-47.3c4.7-10 16.5-14.3 26.5-9.6 9.7 4.5 14.1 15.8 10 25.7z"/><path d="M43 112.9c7.9 7.7 44.7 15.6 44.7 15.6s-9-36.5-16.9-44.2c-8-7.6-20.6-7.2-28.2.8-7.5 7.8-7.3 20.2.4 27.8zM63.8 179c10.8 2.1 46-11.2 46-11.2S82.4 142 71.6 139.9c-10.8-1.9-21.2 5.3-23.1 16.2-1.9 10.5 4.9 20.6 15.3 22.9zm75.7 71.5c10.4-3.6 34-32.9 34-32.9s-36.7-8.4-47.1-4.8c-10.5 3.3-16.4 14.4-13.1 24.9 3.3 10.5 14.4 16.4 24.9 13.1.5 0 .9-.1 1.3-.3zm.9-111.2c0 11-19.9 42.9-19.9 42.9s-19.9-31.9-20-42.9c-.2-11 8.5-20.1 19.5-20.4s20.1 8.5 20.4 19.5v.9z" opacity=".25"/><path class="st4" d="M677 826.8v7.8H445.7v-6.3c39.4-14.6 59.4-58.3 44.9-97.7-7-18.9-21.3-34.3-39.6-42.7h224.5c-20.9 9.6-36.3 28.1-42 50.4-7.7 30.3 4 62.2 29.4 80.5 4.3 3.1 9.1 5.8 14.1 8z"/><path class="st5" d="M675.4 687.9c-20.9 9.6-36.3 28.1-42 50.4H493c-5.7-22.3-21.1-40.8-42-50.4h224.4z"/><path class="st4" d="M180.9 648.1V692c0 24.2 17.7 43.9 39.6 43.9h680.4c21.9 0 39.6-19.7 39.6-43.9v-43.9H180.9z"/><path class="st5" d="M677 826.8v7.8H445.7v-6.3c6.3-2.4 12.3-5.6 17.8-9.5h199.2c4.5 3.2 9.3 5.8 14.3 8z"/><path class="st4" d="M378.8 821.2h365.1c5.2 0 9.5 4.3 9.5 9.5v4.2c0 5.2-4.3 9.5-9.5 9.5H378.8c-5.2 0-9.5-4.3-9.5-9.5v-4.2c0-5.2 4.3-9.5 9.5-9.5z"/><path d="M940.6 167c0-21.9-17.7-39.6-39.6-39.6H220.6c-21.9 0-39.6 17.7-39.6 39.6v489.6h759.6V167z" fill="#474157"/><path d="M919.8 184.8v420.6c0 10.8-8.7 19.5-19.5 19.5H221.1c-10.8 0-19.5-8.7-19.5-19.5V184.8c0-10.8 8.7-19.5 19.5-19.5h679.2c10.8 0 19.5 8.7 19.5 19.5z" fill="#f4f4f7"/><circle class="st8" cx="560.7" cy="146.3" r="9.2"/><circle class="st8" cx="560.7" cy="693.8" r="22.6"/><path class="st8" d="M919.8 184.8H201.6c0-10.8 8.7-19.5 19.5-19.5h679.2c10.8-.1 19.5 8.7 19.5 19.5 0-.1 0 0 0 0z"/><circle class="st9" cx="221.1" cy="175" r="4.9"/><circle class="st9" cx="235.8" cy="175" r="4.9"/><circle class="st9" cx="250.4" cy="175" r="4.9"/><path class="st8" d="M269.3 238.8h579.6v338.7H269.3V238.8z"/><path class="st10" d="M368.3 525h21.4v4h-21.4v-4zm10.7-10.7c1.5 0 2.7-1.2 2.7-2.7 0-1.5-1.2-2.7-2.7-2.7-.2 0-.5 0-.7.1l-5.6-4.1-.3.3 4.1 5.6c-.1.3-.1.5-.1.8-.1 1.5 1.1 2.7 2.6 2.7z"/><path class="st10" d="M379 494.3c-9.6 0-17.4 7.8-17.4 17.4 0 3.9 1.3 7.6 3.7 10.7h4.9l.3-.3 1.8-1.8-1.9-1.9-1.8 1.8c-1.7-2-2.7-4.5-2.9-7.1h2.6v-2.7h-2.6c.3-2.6 1.3-5.1 2.9-7.1l1.8 1.8 1.9-1.9-1.8-1.8c2-1.7 4.5-2.7 7.1-2.9v2.6h2.7v-2.6c2.6.3 5.1 1.3 7.1 2.9l-1.8 1.8 1.9 1.9 1.8-1.8c1.7 2 2.7 4.5 2.9 7.1h-2.6v2.7h2.6c-.3 2.6-1.3 5.1-2.9 7.1l-1.8-1.8-1.9 1.9 1.9 1.8.3.3h4.9c5.9-7.6 4.6-18.5-3-24.4-3.1-2.4-6.9-3.7-10.7-3.7zm0-72.9c-1.2-.1-2.5-.4-3.6-.9-.3-.2-.7 0-.9.3 0 .1-.1.2-.1.3l.3 4.3c0 .2.2.3.4.3.1 0 .1 0 .2-.1l1.2-.9c.1-.1.4-.1.5.1l1.7 2.7c.1.2.3.2.5.1l.1-.1 1.7-2.7c.1-.1.3-.2.5-.1l1.2.9c.1.1.4.1.5-.1 0 0 .1-.1.1-.2l.3-4.3c0-.4-.3-.7-.6-.7-.1 0-.2 0-.3.1-1.3.7-2.5 1-3.7 1z"/><path class="st10" d="M390.8 410.7l-4-4.1c0-13.2-7.8-19-7.8-19s-7.9 5.9-7.9 19l-4 4.1c-.2.2-.2.4-.2.6l1.5 9.3c0 .4.4.6.7.6.1 0 .2 0 .3-.1l5.6-3.8c1.1 1 2.5 1.6 3.9 1.7 1.4-.1 2.8-.7 3.9-1.7l5.6 3.8c.3.2.7.1.9-.2.1-.1.1-.2.1-.3l1.5-9.3c.2-.3.1-.5-.1-.6zm-11.8-8.4c-1.5.1-2.7-1.1-2.8-2.6-.1-1.5 1.1-2.7 2.6-2.8 1.5-.1 2.7 1.1 2.8 2.6v.1c0 1.4-1.1 2.6-2.6 2.7zm13.3-83h-.4c-.5 0-1-.1-1.1-.6-1.2-11.3-8.4-11.6-8.4-14.2s7.2-2.9 8.4-14.2c.1-.5.5-.6 1.1-.6h.4c.6 0 1.2-.5 1.2-1.1 0-.7-.5-1.2-1.1-1.2h-26.7c-.6 0-1.2.5-1.2 1.1 0 .6.5 1.2 1.1 1.2h.6c.5 0 1 .1 1.1.6 1.2 11.3 8.4 11.6 8.4 14.2s-7.2 2.9-8.4 14.2c-.1.5-.5.6-1.1.6h-.4c-.6 0-1.2.5-1.2 1.1 0 .6.5 1.2 1.1 1.2h26.8c.6 0 1.2-.5 1.2-1.2v-.1c-.2-.5-.8-1-1.4-1zm-21.1-2.9c2.4-6.7 6.6-5.9 6.6-8.5v-4.6c0-1.6-3.1-2.8-5-5.4-.2-.3-.1-.7.2-.9.1-.1.2-.1.3-.1h11.1c.4 0 .7.3.7.6 0 .1 0 .3-.1.4-1.9 2.6-5 3.8-5 5.4v4.6c0 2.6 4.1 1.9 6.7 8.5.2.6.1 1.3-.6 1.3h-14.4c-.5.1-.7-.7-.5-1.3z"/><path d="M756.5 304.4c0 6.1-5 11.1-11.1 11.1H459.7c-6.2.2-11.3-4.7-11.5-10.8-.2-6.2 4.7-11.3 10.8-11.5h286.5c6.1.1 11 5.1 11 11.2zm0 103.2c0 6.1-5 11.1-11.1 11.2H459.7c-6.2-.2-11-5.3-10.8-11.5.2-5.9 4.9-10.6 10.8-10.8h285.8c6.1 0 11 5 11 11.1zm0 104c0 6.1-5 11.1-11.1 11.1H459.7c-6.2.2-11.3-4.7-11.5-10.8-.2-6.2 4.7-11.3 10.8-11.5h286.5c6.1.1 11.1 5.1 11 11.2z" opacity=".2" fill="#5a5773"/><path class="st2" d="M266.2 817.4s-42.3-2.5-37.3 27.1c0 0-1 5.2 3.8 7.6 0 0 .1-2.2 4.3-1.5 1.5.3 3.1.3 4.6.2 2.1-.1 4-1 5.6-2.3 0 0 11.9-4.9 16.5-24.3 0 0 3.4-4.2 3.3-5.3l-7.1 3s2.4 5.1.5 9.4c0 0-.2-9.2-1.6-9-.3 0-3.7 1.8-3.7 1.8s4.2 9 1 15.5c0 0 1.2-11-2.3-14.8l-5 2.9s4.9 9.3 1.6 16.8c0 0 .9-11.6-2.6-16.1l-4.6 3.5s4.6 9.1 1.8 15.4c0 0-.4-13.5-2.8-14.5 0 0-4 3.5-4.6 5 0 0 3.1 6.6 1.2 10.1 0 0-1.2-9-2.2-9 0 0-4 6-4.4 10 0 0 .2-6.1 3.4-10.6-2.3.4-4.4 1.5-6.1 3.1 0 0 .6-4.2 7.1-4.6 0 0 3.3-4.5 4.1-4.8 0 0-6.4-.5-10.3 1.2 0 0 3.4-4 11.5-2.2l4.5-3.7s-8.4-1.2-12 .1c0 0 4.1-3.5 13.2-1l4.9-2.9s-7.2-1.5-11.5-1c0 0 4.5-2.4 12.9.2l3.5-1.6s-5.3-1-6.8-1.2-1.6-.6-1.6-.6c3.3-.6 6.8-.2 9.9 1.1-.1.2 7.4-2.6 7.3-3zm-74.1 1.6s-23.8-1.4-21 15.3c-.3 1.7.6 3.5 2.1 4.3 0 0 0-1.2 2.4-.8.9.1 1.7.2 2.6.1 1.2-.1 2.3-.5 3.2-1.3 0 0 6.7-2.8 9.3-13.7 0 0 1.9-2.4 1.9-3l-4 1.7s1.4 2.9.3 5.3c0 0-.1-5.2-.9-5.1-.2 0-2.1 1-2.1 1s2.4 5.1.6 8.7c0 0 .7-6.2-1.3-8.4l-2.9 1.7s2.8 5.2.9 9.5c0 0 .5-6.5-1.5-9.1l-2.6 2s2.6 5.1 1 8.7c0 0-.2-7.6-1.6-8.2-1 .8-1.8 1.8-2.6 2.8 0 0 1.8 3.7.7 5.7 0 0-.7-5.1-1.2-5.1 0 0-2.2 3.4-2.5 5.7.1-2.1.8-4.2 1.9-6-1.3.2-2.5.9-3.4 1.8 0 0 .4-2.4 4-2.6 0 0 1.9-2.5 2.3-2.7 0 0-3.6-.3-5.8.7 0 0 1.9-2.2 6.4-1.2l2.5-2.1s-4.8-.7-6.8.1c0 0 2.3-2 7.4-.5l2.8-1.7c-2.1-.5-4.3-.7-6.5-.6 0 0 2.6-1.4 7.3.1l2-.9s-3-.6-3.8-.7-.9-.3-.9-.3c1.9-.3 3.8-.1 5.6.6.1 0 4.3-1.6 4.2-1.8zm45.3-35.5s-28.8-1.7-25.4 18.4c-.4 2.1.7 4.2 2.6 5.2 0 0 .1-1.5 3-1 1 .2 2.1.2 3.1.2 1.4-.1 2.7-.6 3.8-1.5 0 0 8.1-3.3 11.2-16.6 0 0 2.3-2.9 2.2-3.6l-4.9 2.1s1.6 3.5.4 6.4c0 0-.2-6.3-1.1-6.1-.2 0-2.5 1.2-2.5 1.2s2.9 6.1.7 10.5c0 0 .8-7.5-1.6-10.1l-3.4 2s3.3 6.3 1.1 11.5c0 0 .6-7.9-1.8-11l-3.1 2.4s3.1 6.2 1.2 10.5c0 0-.3-9.2-1.9-9.9 0 0-2.7 2.4-3.1 3.4 0 0 2.1 4.5.8 6.9 0 0-.8-6.1-1.5-6.2 0 0-2.7 4.1-3 6.8.1-2.6.9-5.1 2.3-7.2-1.6.3-3 1-4.1 2.2 0 0 .4-2.9 4.8-3.1 0 0 2.2-3.1 2.8-3.3 0 0-4.4-.4-7 .8 0 0 2.3-2.7 7.8-1.5l3.1-2.5s-5.7-.8-8.2.1c0 0 2.8-2.4 9-.6l3.3-2s-4.9-1-7.8-.7c0 0 3.1-1.7 8.8.1l2.4-1.1s-3.6-.7-4.6-.8-1.1-.4-1.1-.4c2.3-.4 4.6-.1 6.7.8.1-.1 5.2-1.9 5-2.3zm461.8-490.2v22.3H459.7c-6.2.2-11.3-4.7-11.5-10.8-.2-6.2 4.7-11.3 10.8-11.5h240.2zm42.5 103.2v22.3h-282c-6.2-.2-11-5.3-10.8-11.5.2-5.9 4.9-10.6 10.8-10.8h282zm-104.5 104v22.3H459.7c-6.2.2-11.3-4.7-11.5-10.8-.2-6.2 4.7-11.3 10.8-11.5h178.2z"/><linearGradient id="SVGID_1_" gradientUnits="userSpaceOnUse" x1="296.502" y1="-5.648" x2="296.502" y2="559.245" gradientTransform="matrix(1 0 0 -1 605.84 850.76)"><stop offset="0" stop-color="gray" stop-opacity=".25"/><stop offset=".54" stop-color="gray" stop-opacity=".12"/><stop offset="1" stop-color="gray" stop-opacity=".1"/></linearGradient><path d="M1038 469.6c.6-1.5-3.6-9.8-3.6-10.2s-4.3-5-4.3-7.6-5.6-8.2-5.6-8.2-7.5-3.1-8.3-9.9-9-6.9-9-6.9v-1.6c0-2.1-.1-5.9-1-8-1-1.9-2.6-3.3-4.7-3.9 0 0-.8-5.3-2.5-6.9-1.9-2-2.6-4.7-1.9-7.3.8-2.6-1.1-9.1-5.1-10s-8.5-2.5-8.5-2.5-.5.1-1.1.2l-.5-.2c-.9.2-1.9.3-2.9.4-.8 0-1.7-.2-2.3-.8-1.4-1.5-12.4-4.4-14.5-4.4s-8-2.7-8-2.7l-5.9-4.5c-1.7-1.3-4.7-6.4-5.1-7.1l-.1-.1c-.5-1.2-.9-2.4-1.2-3.6 2-2.1 3.7-4.5 5.1-7 .1-.3.3-.5.4-.8.3 0 .6 0 .9-.1l.4-.1c1.4-.7 2.4-2 2.9-3.5l.3-.9.1-.3c0-.2.1-.4.1-.6l.1-.4c0-.2.1-.4.1-.6v-.3c0-.1.1-.5.1-.8.1-1 .2-1.9.4-2.9.8-3.7 3-6.8 4.6-10.2l.6-1.5c.2-.5.4-1.1.5-1.6 0-.2.1-.3.1-.5l.3-1.2c0-.2.1-.4.1-.5.1-.6.2-1.1.2-1.7.3-3.2-.2-6.5-1.4-9.5-1-2.5-2.5-4.9-3.6-7.4-1.6-3.9-2-8.3-3.9-11.9-3.2-6.2-10.8-9.3-17-7-3 1.1-5.5 3.3-8.6 4.2-4 1.3-8.4.3-12.6-.3s-8.8-.6-12.2 2.1c-3.9 3.1-4.9 9.1-8.6 12.5-1.5 1.5-3.4 2.4-5 3.7-1.1.9-2 2.1-2.5 3.5 0 .1-.1.2-.1.3 0 .1-.1.2-.1.4 0 .1 0 .3-.1.4s0 .2 0 .3v.7c0 .2.1.5.1.7v.2c0 .1.1.4.2.6v.1c.1.2.2.4.2.6s.1.2.1.3c0 .1.1.2.1.3.5 1 1 2.1 1.3 3.2.2.7.1 1.4-.1 2.1-.4.8-.9 1.4-1.5 2-2.7 2.8-4.8 6.2-6.2 9.9-.2.4-.3.8-.4 1.3h.2l1.2.3c.2 0 .5.1.7.1.9.1 1.9 0 2.8-.2l.7-.2c.9-.3 1.9-.6 2.8-1v1.3c0 12.3 7 23.5 18 28.9l.1.9.1.7-.4-.4s-2.5-1.2-4.8 2.3c-1.7 2.3-4 4.1-6.7 5.2 0 0-24.9 3.9-25.9 7.2l-11.6.7s-4.1.5-4.5 9.1-2.6 9.4-2.6 9.4-4.8 8.4-4.4 12.8-3.8 6.5-3.8 6.5l-.5 7.8s-4.5-.7-5.8 4.6-3.4 7.8-3.4 7.8-7.5 6.3-7.9 11.5l-4.7 2.9s-10.8-2.5-13.3-6.8l-.8-.7s0-.1-.1-.1c-1.6-1.5-5-4.7-4.5-4 .3.7.4 1.5.2 2.2l-.8-.9-2.2-2.3s-16.1-18.5-26.3-19.8c-2.2.6-4 2.3-4.6 4.5-1.3 4.4-2.7 11.7.7 15.3l16.2 17.3.4.3 3.5 4.5c-.6 1.4-1.1 2.8-1.5 4v.1c-.1.3-.2.5-.3.8l-.1.3c-.1.3-.2.5-.2.8s-.1.3-.1.5 0 .2-.1.3c-.4 1.4-.6 2.4-.8 3l-.9-.3.9.4v.1c0 .1 0 .2-.1.3.3.1.5.3.8.4 4.8 2.1 28.7 12.6 30 14.2 1.4 1.8 10.4 6.9 18.6 2.6s10-11 10-11 7.9-11 8.2-12.6 6.4-3.5 6.4-3.5.5 18.2-2.6 24.9c-3.1 6.7-9 36.2-9 36.2.4-.1.8-.1 1.2-.1l-.3 1.7c.5-.1 1-.1 1.5 0-.4 3.3-3 18.9-3 18.9s-.8 7.1-2.2 9.5-1.5 15.2-1.5 15.2l-2.2 9.2.8 1.6c.5 1 2.3 5.2 6.3 8.1-.2 1.4-.6 2.9-1.1 4.2-.9 2.1-1.2 4.3-1.1 6.5 0 0-2.3 10.5-2 13.5s-1.5 10.3-1.5 10.3l-2.5 23.7s-1.6 20.5-.8 26.1-.5 13.2-.5 13.2 1.6 16.2 1.2 17.9-2.5 9.4-1.2 13.6.5 15.8.5 15.8.8 15.2 1.8 20.1-.3 11.2-.3 11.2-1 10.5-1.4 10.5-4 7.2 3.3 14.3 2.8 6 2.8 6-5.8-2.8-5.1 3c.7 5.6 1.5 4.1 1.6 4l-1.4 4.5 1 .1c-.3.3-.5.6-.8 1-.8 1-1.7 2-2.8 2.9-1.7 1.2-1.8 3.9-1.8 3.9s-10.1 11-19.6 16.6c-5 2.9-9.3 5.4-11.1 7.5-1.7 1.8-1.4 3.3 2.1 4.5 7.4 2.5 20.4 3.7 29.7.5 5.5-1.9 10.5-5.1 14.5-9.4 0 0 5.9-3 11.6-1.9s17.3-6.4 17.3-6.4l-.2-1.9-.6-5.6c-.8-.9-1.2-2.2-1-3.4.1-1.6-.1-3.3-.5-4.9-.1-.5-.2-1.1-.3-1.6l1-.2s-1.4-6.9 1.1-8.3 1.8-19.2 1.8-19.2-3.1-4.1-4.8-4.8-.1-9.1.1-10.2 2.3-22.3 2.3-22.3-.8-6.7.3-9.5-1.4-13.9-1.4-13.9-.8-1.4.7-3 1-16.2 1-16.2-.1-7.3-.1-9.3 1.6-8.8 3.1-11.1.5-9.5.5-9.5l.1-.5c0-.2.1-.5.1-.8l.1-.7c.7-4 1.6-7.9 2.7-11.8 1.8-5.7 3.8-15.8 3.8-15.8l12.7-33.3.1-.4s5.9 10.9 5.9 20.9c0 0 1.5 12.1 1.1 15.3s1.2 18.6 1.2 18.6 1.8 22 1.8 23 2.2 17.9 3.6 20.5-1.4 10.5-2.2 11.3.3 20.8.3 20.8-2 15.8-2.5 19-2 15.8-.7 20.7.8 5.6.8 5.6 4.9 5 2 5.4c-4.1.9-6.6 4.9-5.8 9l.3.9c1.7 5 3.7 9.8 6 14.5l2.3-.5v1.6l.2 8.1s1 7.8.4 9.5c-.6 3.5-.9 7-1.1 10.6-.1 1.2-.2 1.9-.2 1.9s0 7.2 15.2 5 18-8.1 18-8.1 0-.3.1-.8c.2-1.4.7-4.3 1.1-5.9.5-2.2-4.4-12-4.4-12s-.8-6.7-2.2-8.2c-.6-.9-.9-1.8-1.1-2.8-.1-.5-.2-1.1-.3-1.7.4.1.7.1 1 .2.5.1-.8-4.8 2.3-6.3s2.3-4.6 1.9-6 1.2-9 1.2-9c-.4-1.5 0-3.2 1.1-4.3 1.9-1.9 3.4-15.2 3.4-15.2l.3-51.4s1-9.1-.1-12.8-2.2-10.7-.7-12.6.1-10.7.1-10.7 0-18.6 2-23.2 1.4-33.8 1.4-33.8l.5-19.2s4.5-4.2 3.4-26.3c4.8-.3 10.2-.5 11 .2 1.5 1.2 11.2 7.5 17 3.5 1.2-.5 6.8-5.3 6.8-5.3l-2.4-40.8c1.5 2.3 2.4 3.8 2.4 3.8 0-5.7 16.2-24.2 16.2-24.2s15-19.4 18.3-21.8 9.7-14.5 9.7-14.5c1-2.3 2.1-4.6 3.3-6.8 2.4-2.5-2.6-9-2-10.5zm-35.3 14.3c-4.1.4-12.7 9.8-12.9 11.8-.3 1.3-.9 2.6-1.8 3.7-.1-.8-.1-1.7-.2-2.5-1-12-2-26.6-1.5-28.1.8-2.4.5-13.5.5-13.5l.2-.2c2.8 8.5 11.3 18.6 11.3 18.6s1.5 4.4 3.3 4.5 1.1 5.7 1.1 5.7z" fill="url(#SVGID_1_)"/><path class="st10" d="M783.3 480.8s5-26.2 21-26.3l11.7 24.1-7.8 5.4s-17 .5-24.9-3.2z"/><path class="st5" d="M816 478.6l-7.8 5.4s-12 .4-20.5-1.7c-1.5-.4-3-.9-4.5-1.5 0 0 0-.1.1-.4v-.1c.7-3.3 1.7-6.5 3-9.6.5-1.2 1-2.4 1.7-3.6 2.3-4.5 5.7-9 10.2-11.1 1.7-.8 3.5-1.3 5.3-1.4h.7l.3.5 4 8.2 7.5 15.3z"/><path class="st10" d="M949.3 587.3s16.9-1.6 18.3-.4 11.1 7.4 16.7 3.5 1.9-17.5 1.9-18.1-.5-19.8-.5-19.8l-10.1-13.6-12.7-23.9-25.9-2.6.7 37.9-.1 19.4 11.7 17.6z"/><path class="st5" d="M949.3 587.3s16.9-1.6 18.3-.4 11.1 7.4 16.7 3.5 1.9-17.5 1.9-18.1-.5-19.8-.5-19.8l-10.1-13.6-12.7-23.9-25.9-2.6.7 37.9-.1 19.4 11.7 17.6z"/><path class="st13" d="M800.9 453.8s-1.3 16.5-11.6 16.7c0 0-2.9-1.8-6.8-4.7-9-6.8-23.3-19.7-19.3-31.8 5.7-17.3 33.2 14.6 33.2 14.6l2.1 2.4 2.4 2.8z"/><path class="st5" d="M800.9 453.8s-1.3 16.5-11.6 16.7c0 0-2.9-1.8-6.8-4.7l-.9-1.1c1.7.9 3.7 1.4 5.6 1.5 3.2.1 6.1-1.7 7.3-4.6 1.1-2.1 2-4.3 2.8-6.5.5-1.3.8-2.7 1-4l2.6 2.7z"/><path class="st14" d="M796.4 483.6l-2.3-3-7.8-10-4-5.1c1.7.9 3.7 1.4 5.6 1.5 3.2.1 6.1-1.7 7.3-4.6 1.1-2.1 2-4.3 2.8-6.5 1.3-3.6 1.3-5.5.8-6.1s2.9 2.4 4.5 4l.1.1.8.7.3.5 3.9 7.8v.3c.4 2.4 1.8 18.1-12 20.4z"/><path class="st10" d="M877.3 830.8s-11.3 7.4-17 6.3-11.5 1.9-11.5 1.9c-3.9 4.3-8.8 7.5-14.3 9.3-9.2 3.1-22 1.9-29.3-.5-3.5-1.2-3.7-2.6-2.1-4.5 1.8-2 6.1-4.5 11-7.4 9.3-5.5 19.3-16.4 19.3-16.4s.1-2.7 1.8-3.9c1-.9 1.9-1.8 2.7-2.8 1.5-1.7 2.8-3.5 2.8-3.5l33.3 1.1s.6 2.4 1 4.8c.4 1.6.5 3.2.5 4.9-.2 1.2.2 2.4 1 3.4l.6 5.5.2 1.8zm69.7 9.3c-.4 1.6-.9 4.5-1.1 5.9-.1.5-.1.8-.1.8s-2.7 5.9-17.7 8.1-15-5-15-5 .1-.8.2-1.9c.2-3.5.6-7 1.2-10.5.5-1.8-.4-9.5-.4-9.5l-.2-8-.1-5.6 24.8-2.6c.2 1.9.4 3.7.8 5.5.2 1 .5 2 1.1 2.8 1.4 1.5 2.2 8.1 2.2 8.1s4.9 9.7 4.3 11.9z"/><path class="st5" d="M874 810.3s.6 2.4 1 4.8c-3.6.7-19.3 3.4-23.3 1.5-4.5-2.2-14-3.4-14-3.4l.2-.5c1.5-1.7 2.8-3.5 2.8-3.5l33.3 1.1zm65.4 7c-6.3-1.1-20.1 1.5-25.5 2.6l-.1-5.6 24.8-2.6c.2 1.9.5 3.8.8 5.6z"/><path class="st15" d="M953.5 612.8l-.5 19s.7 29-1.3 33.6-2 23.1-2 23.1 1.3 8.8-.1 10.7-.4 8.9.7 12.5.1 12.7.1 12.7l-.3 51s-1.5 13.2-3.4 15.1c-1.1 1.1-1.5 2.8-1.1 4.3 0 0-1.6 7.5-1.2 8.9s1.2 4.5-1.9 5.9-2.3 6.2-2.3 6.2c-7.4-1.8-28.5 3-28.5 3-2.3-4.7-4.3-9.5-5.9-14.4-1.4-3.9.6-8.2 4.5-9.6l.9-.3c2.8-.4-2-5.4-2-5.4s.5-.7-.8-5.5.3-17.3.7-20.5 2.4-18.9 2.4-18.9-1.1-19.8-.3-20.6 3.5-8.6 2.2-11.2-3.5-19.4-3.5-20.4-1.8-22.8-1.8-22.8-1.6-15.2-1.2-18.4-1.1-15.3-1.1-15.3c0-10-5.8-20.8-5.8-20.8l-.2.4-12.5 32.9s-2 10-3.8 15.6c-1.1 3.9-2 7.8-2.6 11.7l-.1.7c0 .3-.1.6-.1.8l-.1.5s.9 7.2-.5 9.5-3.1 9.2-3.1 11.1.1 9.2.1 9.2.5 14.4-.9 16c-.9.7-1.2 2-.7 3 0 0 2.4 10.9 1.3 13.8s-.3 9.4-.3 9.4-2.2 20.9-2.4 22-1.8 9.4-.1 10.1 4.7 4.7 4.7 4.7.7 17.7-1.8 19-1.1 8.2-1.1 8.2-19.6 3.8-24 1.6-14-3.4-14-3.4l1.3-4.4c-.1.2-1 1.6-1.6-3.9-.7-5.8 5-3 5-3s4.5 1.1-2.7-5.9-3.6-14.2-3.2-14.2 1.3-10.4 1.3-10.4 1.2-6.2.3-11.1-1.8-20-1.8-20 .7-11.5-.5-15.7.8-11.7 1.2-13.5-1.2-17.8-1.2-17.8 1.3-7.5.5-13.1.8-25.9.8-25.9l2.4-23.5s1.8-7.3 1.5-10.3 2-13.3 2-13.3c-.1-2.2.2-4.4 1.1-6.5 1.3-2.7 1.9-11.6 1.9-11.6l12.9-29.7 6.4-26.1 85.7-.8s.3 2.3.8 6.4 1.3 10.2 2.1 17.8c.8 6.8 1.6 14.9 2.4 23.9 2.5 28.8-2.9 33.9-2.9 33.9z"/><path class="st13" d="M945.5 376.6l-20 21.3s-25.6-10.3-22.9-13.8c1-1.4.9-5.6.3-10.4-1-7.5-3-16.1-3-16.1s44.8-7.3 41 .3c-1.4 2.8-1.1 6-.3 9 1.1 3.5 2.8 6.8 4.9 9.7z"/><path class="st5" d="M941 358c-1.4 2.8-2 3-1.2 6-5.8 6.3-13.3 13.1-22.6 13.1-5 0-9.9-1.2-14.3-3.4-1-7.5-3-16.1-3-16.1s44.8-7.2 41.1.4z"/><path class="st13" d="M949.3 344.2c0 17.7-14.4 32.1-32.1 32.1-17.7 0-32.1-14.4-32.1-32.1v-.5c.4-17.7 15.1-31.8 32.8-31.4 17.4.5 31.3 14.6 31.4 31.9z"/><path class="st5" d="M954 556c-4.3 0-18.4.2-34.2.4h-.2l-5.2.1h-.2c-18.8.3-37.3-3.4-44.7-2.7-15.8 1.5 5.7-14.6 5.7-14.6 11.8 2.9 23.9 4.1 36 3.6l4.5-.2c14.3-.8 28.8-2.2 36.3-4.4.4 4.2 1.2 10.3 2 17.8z"/><path d="M954 555.2c-4.3 0-18.4.2-34.2.4h-.2l-5.2.1h-.2c-18.8.3-37.3-3.4-44.7-2.7-15.8 1.5 5.7-14.6 5.7-14.6 11.8 2.9 23.9 4.1 36 3.6l4.5-.2c14.3-.8 28.8-2.2 36.3-4.4.4 4.2 1.2 10.3 2 17.8z" fill="#e3a79f"/><path class="st5" d="M908.6 385.5l-24.8 11.6-19.2 148.1s11.3-5.1 17.8-1.9 26.4.3 26.4.3 14.6-.8 16.7.8 27.5-6.8 27.5-6.8 4.6-10.3 1.1-11.9 1.1-17.5 1.1-17.5L953 401.4l-4.3-13.8-11.6-7-11.9 9.4-5.7.8-10.9-5.3z"/><path class="st14" d="M908.6 383.9l-24.8 11.6-19.2 148.1s11.3-5.1 17.8-1.8 26.4.3 26.4.3 14.6-.8 16.7.8 27.5-6.7 27.5-6.7 4.6-10.3 1.1-11.9 1.1-17.5 1.1-17.5L953 400l-4.3-13.8-11.6-7-11.9 9.4-5.7.8-10.9-5.5z"/><path class="st5" d="M908.2 390.8s7.2 8.5 7 10.3-.4 5.9-.4 5.9l-5.3 11s-3 13.6-3 16.5-4.7 27.4-4.7 27.4l-5.7 37.8-7.2 49.5 7.3 12.5 8.6-7.3 11.5-88.2 2.4-17.4s2.6-31.3 2.6-34.5-1.5-11.7-1.5-11.7 1.8-8.1 9-10-.5-.4-.5-.4l-4.2-3.4-3.6 1.5c-.1-.2-10.2-3.3-12.3.5z"/><path class="st15" d="M907.4 390s7.2 8.5 7 10.3-.4 5.9-.4 5.9l-5.4 10.9s-3 13.6-3 16.5-4.7 27.4-4.7 27.4l-5.7 37.8-7.2 49.5 7.3 12.6 8.6-7.3 11.5-88.2 2.4-17.4s2.6-31.3 2.6-34.5-1.5-11.7-1.5-11.7 1.8-8.1 9-10-.5-.4-.5-.4l-4.2-3.4-3.6 1.5c0-.2-10.1-3.3-12.2.5z"/><path class="st5" d="M902.6 375.8s-1.1.8-1.3 6.2-4 17.5-4 17.5 14-9.7 21-8.6l-15.7-15.1z"/><path class="st14" d="M902.6 374.2s-1.1.8-1.3 6.2-4 17.5-4 17.5 14-9.7 21-8.6l-15.7-15.1z"/><path class="st5" d="M941 371.5l-22.1 19.4s18.6 11.1 21 13.8 4.9-26.4 4.9-26.4l-3.8-6.8z"/><path class="st14" d="M941.8 369.9l-22.1 19.4s18.6 11.1 21 13.8 4.9-26.4 4.9-26.4l-3.8-6.8z"/><path class="st5" d="M903.4 375.8s-2.4-1.2-4.7 2.3c-1.7 2.3-4 4.1-6.6 5.1 0 0-24.5 3.9-25.5 7.1l-11.5.7s-4 .5-4.5 9-2.6 9.3-2.6 9.3-4.7 8.4-4.3 12.8-3.6 6.5-3.6 6.5l16.9 43.8s.5 18.1-2.6 24.7-8.9 35.9-8.9 35.9 2.4-.5 2.3 1.1-3 19.3-3 19.3-.8 7-2.2 9.4-1.5 15.1-1.5 15.1l-2.2 9.2s5.1 11.5 13 9.8 22-32.2 22-32.2l9-33 7-32.6 2-22.1 3.2-49 4.7-32.4c.2-.1 5.5-17.5 3.6-19.8z"/><path class="st10" d="M902.6 374.2s-2.4-1.2-4.7 2.3c-1.7 2.3-4 4.1-6.6 5.1 0 0-24.5 3.9-25.5 7.1l-11.5.7s-4 .5-4.5 9-2.6 9.3-2.6 9.3-4.7 8.4-4.3 12.7-3.6 6.5-3.6 6.5l16.9 43.8s.5 18.1-2.6 24.7-8.9 35.9-8.9 35.9 2.4-.5 2.3 1.1-3 19.3-3 19.3-.8 7-2.2 9.5-1.5 15.1-1.5 15.1l-2.2 9.2s5.1 11.5 13 9.8 22-32.2 22-32.2l9-33 7-32.6 2-22.1 3.2-49L899 394c.2-.1 5.5-17.5 3.6-19.8z"/><path class="st5" d="M816 478.6l-7.8 5.4s-12 .4-20.5-1.7l-4.4-1.9-.9-.4.9.3c4.5 1.3 8 1.3 10.8.4 11.1-3.7 9.8-22 9.4-26.1 0-.4-.1-.7-.1-.8 0 0 0 .1.1.1.2.2.3.5.5.7.2.2.3.4.5.5l3.9 7.8v.3l7.6 15.4z"/><path class="st10" d="M843.2 425.9l-3.8 1.1-.5 7.7s-4.5-.7-5.7 4.6-3.4 7.7-3.4 7.7-7.4 6.2-7.8 11.5l-4.5 2.8s-10.7-2.4-13.1-6.7c0 0 4.8 34.8-21 26.3 0 0 29 12.7 30.3 14.4s10.3 6.9 18.3 2.6 9.8-10.9 9.8-10.9 7.8-10.9 8.1-12.5 6.3-3.5 6.3-3.5l11.5-28-24.5-17.1z"/><path class="st5" d="M937.8 387.7l3.9-17.8s1.8 5.8 3.5 7.1l5.8 4.5s5.8 2.7 7.8 2.7 13 2.8 14.3 4.3 6.8.4 6.8.4 4.5 1.5 8.4 2.4 5.8 7.4 5 10c-.7 2.6 0 5.3 1.9 7.3 1.6 1.6 2.4 6.9 2.4 6.9 2 .7 3.6 2.1 4.6 3.9 1.3 3 1 9.5 1 9.5l-20.1 28.3s.3 10.9-.5 13.4 2.8 43.7 2.8 43.7l4.2 71s-5.5 4.7-6.7 5.3-2.4-25.1-2.4-26-31.2-46.7-31.2-46.7-4.2-6.7-4.2-8.2-3.9-15.1-3.9-15.1l-5.9-26.3 2.5-80.6z"/><path class="st10" d="M1004.8 427.3v1.5l-20.1 28.3s.3 10.9-.5 13.4c-.5 1.4.6 15.9 1.5 27.9.7 8.6 1.3 15.9 1.3 15.9l1.8 30.1 2.4 40.9s-5.5 4.7-6.7 5.3-2.4-25.1-2.4-26-31.2-46.6-31.2-46.6-4.2-6.8-4.2-8.2-3.9-15.1-3.9-15.1l-5.9-26.3 2.7-80.4 2.3-17.8s3.4 5.8 5.1 7.1 5.8 4.5 5.8 4.5 5.8 2.7 7.8 2.7 13 2.8 14.3 4.3 6.8.4 6.8.4 4.5 1.5 8.4 2.4 5.8 7.4 5 10c-.7 2.6 0 5.3 1.9 7.3 1.6 1.6 2.4 6.9 2.4 6.9 2 .7 3.6 2.1 4.6 3.9.8 1.7.8 5.5.8 7.6z"/><path class="st5" d="M839.9 786.7c.7 0 29 1.1 28.5 5.7s-28.5-5.7-28.5-5.7zm6.4 7.7s19 3.1 14 5.9-14-5.9-14-5.9zm70.6-10.6s31.6 2.7 26.8 6.2-15.9 4-16.5 4.2-10.3-10.4-10.3-10.4zm-3.7 13.8s17.5 3 18.1 6.3-18.1-6.3-18.1-6.3zm9.7-81.2s16 3.8 17 6.3l-17-6.3zM861 728s-8.4 2.4-.3 7.3.3-7.3.3-7.3zm37.1-129.6c.9 0 15.6-4.9 20.8-2.7 3.7 1.4 7.6 2.1 11.5 2.2l-32.3.5zm1.9 15.4l-.2 1.3-12.5 32.9s-2 10-3.8 15.6c-1.1 3.9-2 7.8-2.6 11.7l11.1-69 8 7.5z"/><path class="st15" d="M919.5 555.6l-5.2.1h-.2l-3.1-13.6 4.5-.2 4 13.7z"/><path class="st13" d="M983.2 539.2l-3.3 2.8-11.2 9.2s-30.4 16.2-38.7.8c-7.4-13.5 27-23.2 35.3-25.3l1.8-.4 16.1 12.9z"/><path class="st5" d="M853.5 406.6s5.9 2.7 7.3 6.5-7.3-6.5-7.3-6.5zM835.2 447s-8.6 10.5-5.1 14.6 5.1-14.6 5.1-14.6zm154.3-34.5s-8.1.8-8.4 7.8l8.4-7.8zm-75 110.6c.8-.8 19.4-28.3 23.7-25.9l-23.7 25.9zm34.8-178.9c0 5.3-1.3 10.5-3.8 15.2h-.2c-2-.4-3.1-2.8-4.7-4.3-2-1.9-4.9-2.3-7.3-1-2.4 1.4-3.8 4.1-3.6 6.9-1-4.3-.7-8.9-1.7-13.2s-4-8.7-8.2-8.8c-1.8 0-3.9.7-5.2-.7-.8-.8-.9-2.1-1.5-3-3-4.8-12-2.4-15.6.1s-7.9 6.4-12.5 8.5c.4-17.7 15.1-31.8 32.8-31.4 17.5.4 31.4 14.5 31.5 31.7z"/><path class="st15" d="M913.2 334.4c.6 1 .7 2.3 1.5 3 1.3 1.3 3.4.6 5.2.7 4.1.1 7.2 4.5 8.2 8.8s.7 8.9 1.7 13.3c-.2-2.8 1.2-5.5 3.6-6.9 2.4-1.3 5.3-.8 7.3 1 1.6 1.5 2.6 3.9 4.7 4.3s4-1.5 4.7-3.7.7-4.5 1.2-6.7c.9-4.2 3.7-7.7 5.2-11.7 1.8-4.9 1.8-10.2-.1-15.1-1-2.5-2.5-4.8-3.5-7.3-1.5-3.9-2-8.2-3.8-11.9-3.2-6.1-10.7-9.2-16.8-6.9-2.9 1.1-5.5 3.2-8.5 4.2-4 1.3-8.3.3-12.4-.3s-8.7-.6-12 2.1c-3.8 3.1-4.9 9-8.5 12.4-1.5 1.4-3.4 2.4-5 3.7s-3 3.3-2.8 5.5c.2 2.8 3 5.3 2 7.9-.4.8-.9 1.4-1.5 2-3 3.1-5.2 7-6.5 11.1 7.2 2.3 15-5.7 20.7-9.5 3.5-2.4 12.5-4.8 15.4 0z"/><path class="st5" d="M983.2 539.2l-3.3 2.8c-3-4.9-15.1-14.8-15.1-14.8l.5-.5 1.8-.4 16.1 12.9z"/><path class="st14" d="M986.4 534.2s-1.2 3-2.5 5.6-2.6 5-2.7 3c-.1-3.8-15.8-16.5-15.8-16.5l2.1-2.1 2.5-2.4 16.4 12.4z"/><path class="st5" d="M987 514.2l1.8 30.1c-4.2-6.5-15.7-23.2-23.1-22.7l17.9-20.6c.7-.8 1.4-1.7 2-2.6.7 8.5 1.4 15.8 1.4 15.8z"/><path class="st5" d="M986.4 534.2s-1.2 3-2.5 5.6c-4.7-6.5-11.2-14.1-16.3-15.5l2.5-2.4 16.3 12.3z"/><path class="st10" d="M999.9 425l4.9 3.8s8.1.1 8.9 6.9 8.2 9.8 8.2 9.8 5.5 5.5 5.5 8.1 4.2 7.1 4.2 7.5 4 8.6 3.5 10.1 4.3 8 2.8 10.4c-1.2 2.2-2.3 4.4-3.2 6.8 0 0-6.3 12.1-9.6 14.4s-18.1 21.6-18.1 21.6-15.9 18.3-15.9 24c0 0-15.5-25.9-24.7-25.2l18-20.6s3.1-3.4 3.2-5.4 8.6-11.3 12.7-11.7c0 0 .7-5.5-1.1-5.7s-3.2-4.5-3.2-4.5-11.9-14-12-22.9 15.9-27.4 15.9-27.4z"/><path class="st5" d="M1007 437.9s-11.3 8.4-8.9 11.1 8.9-11.1 8.9-11.1zm.6 34.5s21-6.8 23.2 0h-23.2zM877.3 830.8s-11.3 7.4-17 6.3-11.5 1.9-11.5 1.9c-3.9 4.3-8.8 7.5-14.3 9.3-9.2 3.1-22 1.9-29.3-.5-3.5-1.2-3.7-2.6-2.1-4.5 7.9 1.6 25.6 4.7 30.4 2.4 6.2-3 15.1-9.4 15.1-9.4s11.6-1.5 13.2-1.5c1.2 0 10.1-3.7 15.2-5.8l.3 1.8zm68.6 15.2c-.1.5-.1.8-.1.8s-2.7 5.9-17.7 8.1-15-5-15-5 .1-.8.2-1.9c4.7 1.7 15.1 3.7 32.6-2zm-86.8-409.8s0 30.8-2.6 33.8 2.6-33.8 2.6-33.8zm121.7 9.9l3.9 11s1.5-10.7-3.9-11z"/><path d="M885.4 328.2c1-2.5-1.6-5-1.9-7.7-.3.8-.5 1.6-.4 2.4.2 2 1.7 4 2.1 5.8 0-.1.1-.3.2-.5zm44.7 29.1c-1-4.3-.7-8.8-1.7-13s-4-8.7-8.2-8.8c-1.8 0-3.9.7-5.2-.7-.8-.8-.9-2.1-1.5-3-3-4.8-11.9-2.4-15.6.1-5.5 3.7-13.1 11.3-20.2 9.6-.3.8-.7 1.6-.9 2.5 7.2 2.3 15-5.7 20.7-9.5 3.7-2.5 12.7-4.9 15.6-.1.6 1 .7 2.3 1.5 3 1.3 1.3 3.4.6 5.2.7 4.1.1 7.2 4.5 8.2 8.8s.7 8.9 1.7 13.3c0-1 .1-2 .4-2.9zm20.3-5.1c-.7 2.1-2.7 4.1-4.7 3.7s-3.1-2.8-4.6-4.3c-2-1.8-4.9-2.3-7.3-1-2.3 1.4-3.7 3.9-3.6 6.5.5-1.6 1.7-3 3.2-3.9 2.4-1.3 5.3-.8 7.3 1 1.6 1.5 2.6 3.9 4.7 4.3s4-1.5 4.7-3.7c.4-1.3.6-2.6.7-3.9-.1.5-.2.9-.4 1.3zm6.4-18.3c-1.5 4-4.3 7.5-5.2 11.7-.2.9-.3 1.7-.4 2.6.9-4.2 3.7-7.6 5.2-11.6.7-1.8 1.1-3.7 1.3-5.6-.3.9-.6 1.9-.9 2.9z" opacity=".1"/></svg>