<svg xmlns="http://www.w3.org/2000/svg" viewBox="0 0 1054 754"><ellipse opacity=".1" cx="510" cy="707.4" rx="510" ry="25.5"/><g opacity=".2"><path d="M952.1 464c-.4-2-.6-4-.7-6.1l23.3 7.8-23.3-12.1c.7-12.2 6.3-23.5 15.6-31.3l22.5 32.6-17.5-36.3c20.7-12.9 48-6.6 60.9 14.1 12.9 20.7 6.6 48-14.1 60.9-1.7 1.1-3.6 2.1-5.4 2.9.6 3.1.8 6.3.7 9.5l-35.5-.3 34.9 5.8c-.8 4.8-2.3 9.4-4.6 13.6-4.6 8.8-12 15.7-21.1 19.7 4.4 24-11.6 47-35.6 51.4-24 4.4-47-11.6-51.4-35.6-3.6-20.1 6.9-40 25.6-48.3-3.4-20.1 7.1-40 25.7-48.3z"/><path opacity=".1" d="M1009.1 525.1c-4.6 8.8-12 15.7-21.1 19.7 4.4 24-11.6 47-35.6 51.4-24 4.4-47-11.6-51.4-35.6-3.6-20.1 6.9-40 25.6-48.3-1.7-9.4 84.8 8.4 82.5 12.8z"/></g><g opacity=".2"><path d="M914.2 98c-1-3.2-1.8-6.4-2.3-9.6l39 7.9-39.8-14.8c-1.3-19.7 5.5-39 18.9-53.5l42.7 47.9-35.3-54.8c30.7-24.8 75.8-20 100.6 10.7 24.8 30.7 20 75.8-10.7 100.6-2.5 2-5.2 3.9-8 5.6 1.5 4.9 2.5 10 3 15.1l-57 6.6 57.2 2.3c-.9 24.2-13.9 46.2-34.7 58.7 11.8 37.7-9.3 77.8-47 89.6s-77.8-9.3-89.6-47c-9.8-31.5 3.2-65.6 31.5-82.6-9.8-31.6 3.2-65.7 31.5-82.7z"/><path opacity=".1" d="M1017.8 184.7c-5.7 15-16.2 27.6-30 35.9 11.8 37.7-9.3 77.8-47 89.6-37.7 11.8-77.8-9.3-89.6-47-9.8-31.5 3.2-65.6 31.5-82.6-4.6-14.8 138-3.4 135.1 4.1z"/></g><g opacity=".2"><path d="M210.5 120.3c1.6-3.6 3-7.2 4.1-11l-47.1 3.6 49.1-11.6c4.5-23-.8-46.8-14.4-65.9l-57.4 50.2 49.8-59.4C162.1-7.8 108.3-9 74.3 23.4S39 109.6 71.4 143.6c2.9 3 5.9 5.8 9.2 8.4-2.5 5.6-4.5 11.4-5.8 17.4l66.3 16.2-67.9-5.8c-2.5 28.6 9.6 56.6 32.3 74.4-19.5 42.8-.6 93.2 42.1 112.7 42.8 19.5 93.2.6 112.7-42.1 16.3-35.7 6-78-24.9-102.2 16.3-35.8 6-78.1-24.9-102.3z"/><path opacity=".1" d="M75.4 207.4c4.5 18.5 15.1 35 30.2 46.8-19.5 42.8-.6 93.2 42.2 112.7 42.8 19.5 93.2.6 112.7-42.2 16.3-35.7 6-78-24.9-102.2 7.5-16.8-162.5-24.4-160.2-15.1z"/></g><linearGradient id="a" gradientUnits="userSpaceOnUse" x1="613.815" y1="49.53" x2="613.815" y2="582.89" gradientTransform="matrix(1 0 0 -1 -73 680.88)"><stop offset="0" stop-color="gray" stop-opacity=".25"/><stop offset=".54" stop-color="gray" stop-opacity=".12"/><stop offset="1" stop-color="gray" stop-opacity=".1"/></linearGradient><path fill="url(#a)" d="M958.2 98H123.4c-4.1 0-7.4 3.3-7.4 7.5v510.9c0 8.3 6.7 15 14.9 15h819.7c8.3 0 15-6.7 15-15v-511c0-4.1-3.3-7.4-7.4-7.4z"/><path fill="#FFF" d="M962.2 129.7v483.6c0 8.2-6.7 14.9-14.9 14.9H134.4c-8.2 0-14.9-6.7-14.9-14.9V129.7h842.7z"/><path fill="#EDEDF4" d="M962.2 108.2v21.5H119.5v-21.5c0-4.1 3.3-7.4 7.4-7.4h828c4.1.1 7.3 3.4 7.3 7.4z"/><circle opacity=".8" fill="#FA5959" cx="132.9" cy="115" r="3.4"/><circle opacity=".8" fill="#FED253" cx="142.4" cy="115" r="3.4"/><circle opacity=".8" fill="#8CCF4D" cx="151.8" cy="115" r="3.4"/><linearGradient id="b" gradientUnits="userSpaceOnUse" x1="827.795" y1="-592.36" x2="827.795" y2="-587.19" gradientTransform="matrix(0 1 1 0 1177.11 -741.01)"><stop offset="0" stop-color="gray" stop-opacity=".25"/><stop offset=".54" stop-color="gray" stop-opacity=".12"/><stop offset="1" stop-color="gray" stop-opacity=".1"/></linearGradient><path fill="url(#b)" d="M589.9 85.1v3.5h-5.2v-3.5h5.2z"/><path fill="#EDEDF4" d="M313.3 172.1h81v8.6h-81v-8.6zm0 25h455v8.6h-455v-8.6zm0 25h455v8.6h-455v-8.6zm0 24.9h455v8.6h-455V247zm0 25h455v8.6h-455V272zm86.9 47.7h280.9v217.1H400.2V319.7z"/><ellipse cx="905.6" cy="748.8" rx="26.9" ry="5.2"/><ellipse fill="#3F3D56" cx="905.2" cy="746.6" rx="3.1" ry="4.1"/><ellipse fill="#3F3D56" cx="905.2" cy="741.6" rx="3.1" ry="4.1"/><ellipse fill="#3F3D56" cx="905.2" cy="736.6" rx="3.1" ry="4.1"/><ellipse fill="#3F3D56" cx="905.2" cy="731.6" rx="3.1" ry="4.1"/><ellipse fill="#3F3D56" cx="905.2" cy="726.6" rx="3.1" ry="4.1"/><ellipse fill="#3F3D56" cx="905.2" cy="721.6" rx="3.1" ry="4.1"/><ellipse fill="#3F3D56" cx="905.2" cy="716.6" rx="3.1" ry="4.1"/><path d="M916.9 682.3c.4-.5.8-1.1 1.2-1.7l-8.2-1.3 8.9.1c1.7-3.7 1.8-8 .3-11.9l-11.9 6.2 11-8.1c-4-7.2-13.2-9.8-20.4-5.8-7.2 4-9.8 13.2-5.8 20.4.4.8.9 1.5 1.5 2.1-.7.8-1.2 1.8-1.7 2.7l10.7 5.5-11.4-3.8c-1.6 4.8-.7 10.1 2.4 14.1-5.1 6.5-4 15.9 2.5 21.1s15.9 4 21.1-2.5c4.3-5.4 4.3-13.1 0-18.6 4-5.4 4-13-.2-18.5z"/><path opacity=".1" d="M890.1 691.6c0 3.4 1.1 6.6 3.2 9.3-5.1 6.5-4 15.9 2.5 21.1s15.9 4 21.1-2.5c4.3-5.4 4.3-13.1 0-18.6 2-2.6-26.8-11-26.8-9.3z"/><ellipse cx="77" cy="682" rx="12.2" ry="2.3"/><ellipse fill="#3F3D56" cx="76.8" cy="681" rx="1.4" ry="1.8"/><ellipse fill="#3F3D56" cx="76.8" cy="678.8" rx="1.4" ry="1.8"/><ellipse fill="#3F3D56" cx="76.8" cy="676.5" rx="1.4" ry="1.8"/><ellipse fill="#3F3D56" cx="76.8" cy="674.3" rx="1.4" ry="1.8"/><ellipse fill="#3F3D56" cx="76.8" cy="672" rx="1.4" ry="1.8"/><ellipse fill="#3F3D56" cx="76.8" cy="669.7" rx="1.4" ry="1.8"/><ellipse fill="#3F3D56" cx="76.8" cy="667.5" rx="1.4" ry="1.8"/><path d="M82.1 652c.2-.2.4-.5.5-.8l-3.7-.6h4c.8-1.7.8-3.6.1-5.4l-5.4 2.8 5-3.7c-1.9-3.2-6-4.3-9.3-2.4-3.2 1.9-4.3 6-2.4 9.3.2.3.3.5.5.8-.3.4-.6.8-.8 1.2l4.8 2.5-5.2-1.7c-.7 2.2-.3 4.6 1.1 6.4-2.3 2.9-1.8 7.2 1.1 9.5 2.9 2.3 7.2 1.8 9.5-1.1 1.9-2.5 1.9-5.9 0-8.4 2.1-2.5 2.1-6 .2-8.4z"/><path opacity=".1" d="M70 656.1c0 1.5.5 3 1.4 4.2-2.3 2.9-1.8 7.2 1.1 9.5 2.9 2.3 7.2 1.8 9.5-1.1 1.9-2.5 1.9-5.9 0-8.4 1-1.1-12-4.9-12-4.2z"/><linearGradient id="c" gradientUnits="userSpaceOnUse" x1="844.668" y1="-43.177" x2="844.668" y2="460.522" gradientTransform="matrix(1 0 0 -1 -665.04 680.88)"><stop offset="0" stop-color="gray" stop-opacity=".25"/><stop offset=".54" stop-color="gray" stop-opacity=".12"/><stop offset="1" stop-color="gray" stop-opacity=".1"/></linearGradient><path fill="url(#c)" d="M278.9 304.5h-46.6c-1.5 0-2.7 1-3 2.5l-12.6 62.3v.5l-1.2.1-1.1.1h-.2c-.3-.2-.5-.6-.6-1-.6-2.2-1.1-4.5-1.3-6.8-.2-2.5-.2-5 0-7.5.1-2 0-4 0-5.9.3-2.2.5-4.5.6-6.7.1-2.4-.1-4.8-.7-7.1-.4-1.3-.8-2.5-1.4-3.7-.4-3.4-.9-6.7-1.4-10.1-.4-2.5-.7-5-1.2-7.5l.3-1.2c.5-4.1-1.1-8.3-4.4-10.9-1-.8-2.1-1.5-3.3-2-1-.4-2-.8-3-1l-16.1-5c-1.5-2.2-3-4.4-4.3-6.6-1.3-2-2.4-4.1-3.4-6.3 10.8-7.7 13.8-22.6 6.6-33.9-.3-.4-.6-.8-.8-1.2.1-1.9-.1-3.9-.7-5.7-.1-.7-.3-1.4-.6-2-.4-.9-1-1.7-1.6-2.4l-.4-.4c-1.3-1.4-2.8-2.7-4.4-3.9-5.3-3.9-12.5-8.6-19.1-10.1-3.2-.7-6.6-.8-9.8 0l-.5-.1-.9-.2c.2.1.5.2.7.3-3.4-.8-7-.7-10.4.2-4.2 1.3-5.7 4.6-7.5 8.3-2.9 5.9-7.3 10.9-12.8 14.6-3.5 2.4-7.7 4.4-9.4 8.3-1.6 3.6-.5 7.7-.1 11.7.9 10.8-3.7 21.4-12.3 28.1-4.8 3.7-11.2 6.8-12.3 12.8-.7 4.3 1.7 8.3 3.5 12.2 3.8 8.3 5.1 18.4.6 26.3-1.3 2.3-3 4.3-3.7 6.8-1.2 4.4 1.4 9.3 5.2 11.8s8.6 3.3 13.2 3.3c.8 0 1.6 0 2.4-.1-.4 3.9-.9 7.7-1.5 11.6-.9 5.7-2.1 11.4-1.8 17.1.2 3.1.9 6.3 2.9 8.7 3.2 3.8 8.7 4.5 13.6 4.4 7.8-.3 15.5-2.3 23.2-2.8-.1.3-.2.7-.2 1 0 1.4.8 2.8.4 4.2-.2.5-.4.9-.7 1.3-2 2.9-4.4 6.2-3.7 9.7.3 1.7 1.4 3.4.9 5.1-.3.8-.7 1.5-1.3 2.1-2.7 4.1-2.2 9.5-1.5 14.3l.9.3c-.3.6-.5 1.1-.8 1.7-1.1 2.5-1.8 5.2-1.9 8 .1 3.1.6 6.2 1.6 9.1 1.4 5 2.8 10 4.6 14.8 1.5 4.2 3.3 8.2 5.1 12.2.6 1.2 1.1 2.5 1.7 3.7 3.4 7.7 6.8 15.5 10.3 23.2.4.9.8 1.8 1 2.8.2.8.2 1.7.4 2.5.5 3.2 2.6 5.9 4.2 8.8 5.2 9.8 3.9 21.5 2.5 32.5.8.8 1.6 1.4 2.6 2-.1 1.1-.3 2.2-.5 3.3-1.4 6.3-3 12.5-3.9 18.8-.5 3.1-.7 6.2-.7 9.3 0 3 1.1 6 1.1 9 .7 3 1.8 5.9 2.6 8.8.3 4.6.9 9.2 1.6 13.8.2 4.2.5 8.4.7 12.5.2 3.7.4 7.6-1.3 10.9 0 .1-.1.2-.2.3-2.9-.2-5.8 1.1-7.5 3.5-1.7 2.5-2.8 5.5-2.9 8.6-.2 1.3-.1 2.6.4 3.9.5 1 1.3 1.7 1.9 2.6.5 1.1.9 2.2 1 3.4 1.1 6.9 2.3 13.9 2.9 20.8.2 2.1.4 4.4 1.6 6.1s4 2.6 5.6 1.1c-1.6-8-2.4-16.2-2.3-24.3.5-.1 1.1-.1 1.6 0 .3 1.4.7 2.8 1.1 4.2.3 1 .6 2 1 3-.2 1.4 0 3.4-.1 4.4-.1 4.4-.1 8.8 0 13.3.1 2.5.2 5 .3 7.6 0 .3 0 .6.2.8.1.1.2.1.3.1h2.5c.1-1 .1-2 .1-3v-12.8c.6 3.5 1.4 7 2.3 10.5l1.8 7.4.2.7 1.5 6.3c0 .2.1.4.2.7.2.3.4.6.8.8 6.4 4.7 14.9 5.6 22.2 2.4.3-.1.5-.3.8-.5.4-.5.6-1.2.5-1.9-.1-2 .3-4 1.1-5.8.5-.7.8-1.4 1.1-2.2.2-1.2-.1-2.5-.7-3.6l-1.6-3.8c.8 0 1.6-.1 2.3-.2 1.2-1 .3-3.1 1.3-4.3.4-.4.8-.7 1.3-1 1.2-1.1 1.1-3 .5-4.5-1.8-4.9-6.5-8.1-11-10.8l-.6-.4c-3.6-17-10.1-33.8-8.4-51 .4-3.7 1.1-7.3 1.7-11 3-18.1 2.8-36.7 6.3-54.7 1.8-.1 3.5-.6 5.1-1.5 2.9-1.8 4.4-5.3 4.8-8.8s-.1-6.8 0-10.3c.1-4.9 1.3-9.8 2.5-14.6 1.4-5.6-1-11.6.4-17.2.5-1.7 1-3.5 1.3-5.3.3-2.5-.2-5.2.7-7.5.4-1.1 1.1-2.1 1.5-3.1 2-4.5-.2-10 1.8-14.5.6-1.1 1.1-2.2 1.4-3.4.1-.9 0-1.9-.4-2.8-.5-2.1-1-4.2-1.3-6.3-.1-.7-.2-1.5-.2-2.2.1-.8.3-1.6.5-2.3 1.5-5.3 1.7-10.8 1.9-16.3.1-2.9.2-6-1.1-8.6-.4-.8-.8-1.5-1.4-2.2l.1-.1c-.8-3.1-1.4-6.8-.3-9.8.5-1.3 1.3-2.5 1.1-3.9s-1.1-2.3-1.5-3.5c-.6-2 .3-4.2.9-6.2 1-3.5.8-7.3.5-10.9 0-.8-.2-1.6-.5-2.3l-.9-1.2c-.5-1.1-.5-2.3.1-3.4.6-1 1-2.1 1.4-3.2.1-.3.1-.7 0-1 .7-.3 1.4-.8 2.1-1.2 3-1.6 6.5-1.4 9.9-1.5s7.1-.8 9.2-3.5c.2-.3.5-.6.8-.8.1-.1.2-.1.3-.1 1.2.2 2 .2 1.8-.2.6-.3.8-.9 1.1-1.4.1-.1.2-.3.3-.4 1.3-.7 2.6-1.4 3.9-1.9h-.7c2.1-.7 4.3-1 6.5-.9 2.1 0 5.7.3 7.3-1.3 3-1.9 3.9-5.7 5.3-9 .5-1.1 1-2.1 1.5-3.1l7.8-.8c1.3-.1 2.4-1.1 2.7-2.4l11.7-57.6c.3-1.7-.7-3.3-2.4-3.6-.3-.2-.5-.2-.7-.2zm-147.1 79c-3.5 1.5-7.4 1.5-10.9 0-.5-.2-1.1-.9-.7-1.3s.8-.1 1.1-.2c.6-.3.2-1.3-.2-1.9-1-1.8-.3-4.1.7-5.9s2.3-3.6 2.3-5.7c-.1-.7-.1-1.3 0-2 .3-.9.8-1.8 1.5-2.6.2-.3.3-.5.5-.8.3.4.5.8.8 1.2l2.7 4.2c.7.9 1.2 2.1 1.3 3.2-.1.7-.1 1.4.1 2.1.4.9 1.6 1.6 1.2 2.5-.5.9-.5 2 0 2.9.5.8 1.2 1.5 1.6 2.3.1.2.2.5.3.8-.7.4-1.5.8-2.3 1.2zm97-10.8c-.6.1-1.2.3-1.8.4-.1-.4-.1-.6-.1-.6l-3.1.9c-1.2.1-2.4-.2-3.4-.7l12.9-1.3c-1.5.5-3 .9-4.5 1.3z"/><path fill="#3F3D56" d="M134 232c-2.9 5.9-7.2 10.9-12.6 14.5-3.5 2.4-7.6 4.4-9.3 8.2-1.6 3.6-.5 7.7-.1 11.6.9 10.7-3.6 21.1-12.1 27.8-4.8 3.7-11.1 6.8-12.1 12.7-.7 4.2 1.7 8.3 3.4 12.2 3.8 8.2 5.1 18.3.6 26.1-1.3 2.2-3 4.3-3.6 6.8-1.2 4.4 1.3 9.2 5.1 11.8s8.5 3.3 13.1 3.2c3.3 0 6.9-.5 9.3-2.8 1.6-1.6 2.4-3.7 3.1-5.8l5.8-16.3c1-2.9 2.1-6 4.3-8.2 4.6-4.7 12.2-4.2 18.8-4.1 9.7.1 19.4-1.4 28.6-4.5 5.4-1.8 11.3-4.9 12.5-10.5s-2.5-10.6-5.8-15.1c-2.4-3.3-4.8-6.8-6.9-10.4-2.1-3.4-4.2-7.1-4.8-11.1-1-6.6 2.1-13.1 4.6-19.4 2.4-6.3 4.1-13.7.6-19.4-1.5-2.2-3.4-4.1-5.7-5.6-5.3-3.9-12.4-8.5-18.8-10.1-3.5-.8-7.1-.8-10.5.1-4.3 1.3-5.7 4.7-7.5 8.3z"/><path fill="#454B69" d="M205 309.7c1.3 4.4 2.2 8.9 2.8 13.5 1.6 11 3.2 22.1 2.9 33.3-.1 2.5-.1 5 0 7.5.3 2.3.7 4.5 1.3 6.7 0 .4.3.8.6 1 .4.2.8 0 1.3 0 1.4-.2 2.5 1.2 3.6 2.1 2.2 1.8 5.3 2 7.8.6-.8 3.3.5 6.8 3.3 8.9 2.8 2 6.3 2.6 9.6 1.8-1.7-.3-3.3.9-4.2 2.3-.3.5-.6 1.1-1.1 1.4s-1.5-.1-2.1.3c-.3.2-.6.5-.8.8-2 2.7-5.7 3.3-9.1 3.4s-6.9-.1-9.8 1.5c-.7.4-1.4.9-2.2 1.2-2.3 1-5.1 0-6.9-1.7-1.7-1.8-2.9-4.1-3.5-6.5-3-9.7-2.4-20-1.8-30.2.9-16.2 2.9-32.7 8.3-47.9z"/><path opacity=".1" d="M205 309.7c1.3 4.4 2.2 8.9 2.8 13.5 1.6 11 3.2 22.1 2.9 33.3-.1 2.5-.1 5 0 7.5.3 2.3.7 4.5 1.3 6.7 0 .4.3.8.6 1 .4.2.8 0 1.3 0 1.4-.2 2.5 1.2 3.6 2.1 2.2 1.8 5.3 2 7.8.6-.8 3.3.5 6.8 3.3 8.9 2.8 2 6.3 2.6 9.6 1.8-1.7-.3-3.3.9-4.2 2.3-.3.5-.6 1.1-1.1 1.4s-1.5-.1-2.1.3c-.3.2-.6.5-.8.8-2 2.7-5.7 3.3-9.1 3.4s-6.9-.1-9.8 1.5c-.7.4-1.4.9-2.2 1.2-2.3 1-5.1 0-6.9-1.7-1.7-1.8-2.9-4.1-3.5-6.5-3-9.7-2.4-20-1.8-30.2.9-16.2 2.9-32.7 8.3-47.9z"/><path fill="#FBBEBE" d="M156.2 604.3c.8 3.5 2.2 6.8 3 10.3.6 3 .9 6.1 1 9.1l.9 15.5c.2 3.7.4 7.5-1.3 10.8-1.1 2.3-3.1 4.2-3.6 6.7-.9 3.9 1.9 7.6 4.5 10.6l12.9 14.9c4 4.7 8.4 9.6 14.4 11.2.9.3 1.8.3 2.8.1 1.7-.5 2.5-2.6 2.2-4.3-.4-1.7-1.2-3.3-2.3-4.7-3.4-4.7-7-9.4-9.2-14.8-2.8-6.8-3.1-14.4-2.9-21.8.7-30.1 8.3-59.8 7.4-90-6.6-.5-13.4-1.6-20-1.5-5.9.1-5.2 6-6.2 10.8-1.4 6.2-3 12.4-3.9 18.7-.5 3.1-.7 6.2-.7 9.3-.1 3.1 1 6.1 1 9.1z"/><path opacity=".05" d="M156.2 604.3c.8 3.5 2.2 6.8 3 10.3.6 3 .9 6.1 1 9.1l.9 15.5c.2 3.7.4 7.5-1.3 10.8-1.1 2.3-3.1 4.2-3.6 6.7-.9 3.9 1.9 7.6 4.5 10.6l12.9 14.9c4 4.7 8.4 9.6 14.4 11.2.9.3 1.8.3 2.8.1 1.7-.5 2.5-2.6 2.2-4.3-.4-1.7-1.2-3.3-2.3-4.7-3.4-4.7-7-9.4-9.2-14.8-2.8-6.8-3.1-14.4-2.9-21.8.7-30.1 8.3-59.8 7.4-90-6.6-.5-13.4-1.6-20-1.5-5.9.1-5.2 6-6.2 10.8-1.4 6.2-3 12.4-3.9 18.7-.5 3.1-.7 6.2-.7 9.3-.1 3.1 1 6.1 1 9.1z"/><path fill="#3F3D56" d="M160.1 650.5c-3-.6-6.1 1-8 3.4-1.7 2.5-2.7 5.5-2.9 8.6-.2 1.3-.1 2.6.4 3.8.5 1 1.3 1.7 1.8 2.6.5 1.1.9 2.2 1 3.4 1.1 6.9 2.2 13.8 2.8 20.7.2 2.1.4 4.4 1.6 6.1s4 2.6 5.5 1.1c-1.6-7.9-2.3-16-2.3-24.1 3.5-.5 6.6 2.3 8.9 5 2.3 2.8 4.5 5.7 6.4 8.7 1.6 2.9 3.5 5.6 5.6 8.2 4.7 5 11.5 7.3 18.2 6.2 1.2-1 .3-3.1 1.3-4.2.4-.4.8-.7 1.3-1 1.2-1.1 1.1-3 .5-4.5-1.8-4.9-6.5-8-10.9-10.8-8-5-16.1-10-24.1-14.8-3.1-1.9-5.4-4.8-6.6-8.2-.3-.8-1.5-10.5-.5-10.2z"/><path opacity=".05" d="M160.1 650.5c-3-.6-6.1 1-8 3.4-1.7 2.5-2.7 5.5-2.9 8.6-.2 1.3-.1 2.6.4 3.8.5 1 1.3 1.7 1.8 2.6.5 1.1.9 2.2 1 3.4 1.1 6.9 2.2 13.8 2.8 20.7.2 2.1.4 4.4 1.6 6.1s4 2.6 5.5 1.1c-1.6-7.9-2.3-16-2.3-24.1 3.5-.5 6.6 2.3 8.9 5 2.3 2.8 4.5 5.7 6.4 8.7 1.6 2.9 3.5 5.6 5.6 8.2 4.7 5 11.5 7.3 18.2 6.2 1.2-1 .3-3.1 1.3-4.2.4-.4.8-.7 1.3-1 1.2-1.1 1.1-3 .5-4.5-1.8-4.9-6.5-8-10.9-10.8-8-5-16.1-10-24.1-14.8-3.1-1.9-5.4-4.8-6.6-8.2-.3-.8-1.5-10.5-.5-10.2z"/><path fill="#FBBEBE" d="M158.8 595.5c-1.6 20.1 2.9 40.1 6.9 59.9.4 1.6.6 3.2.6 4.8-.2 2-.5 4-1 6-1.5 8.2.4 16.5 2.4 24.6 1.3 5.6 3.2 11.9 8.4 14.3 3.7 1.7 8 1 12 .2 1.3-.1 2.6-.6 3.6-1.5 1.4-1.3 1.5-3.6 1.4-5.5-1.4-22.2-12.6-43.5-10.4-65.6.4-3.7 1.1-7.3 1.7-10.9 3.1-18.8 2.7-38.2 6.7-56.8.2-.7.2-1.3 0-2-.3-.6-.9-1.2-1.5-1.5-3.6-2.2-7.5-4.1-11.7-4.7-3.3-.5-7.4-.1-10.2 1.9s-3.1 6.7-3.9 10.1c-2.5 8.8-4.2 17.7-5 26.7z"/><path fill="#3F3D56" d="M164 708.4c0 .3 0 .5.1.8.1.1.2.2.3.2h2.5c.1-1 .1-2 .1-3v-6.8c0-5.4 0-10.9-.2-16.3 0-.2 0-.4-.1-.6l-.3-.3c-.6-.3-2-1.2-2.5-.2s-.3 4.2-.3 5.5c-.1 4.4-.1 8.8 0 13.2.2 2.5.3 5 .4 7.5zm43.9-237.9c0 .7 0 1.5.2 2.2.4 2.1.8 4.2 1.3 6.3.3.9.4 1.8.3 2.8-.3 1.2-.8 2.3-1.4 3.4-2 4.5.1 10-1.8 14.5-.5 1.1-1.1 2-1.5 3.1-.9 2.4-.4 5-.7 7.5-.3 1.8-.7 3.5-1.3 5.2-1.4 5.6.9 11.5-.4 17.1-1.2 4.8-2.3 9.6-2.4 14.5-.1 3.4.4 6.8 0 10.2s-1.8 6.9-4.7 8.7c-2.3 1.4-5.1 1.6-7.8 1.6-5.2.1-10.4-.1-15.6-.5s-10.8-1.3-14.4-4.9c1.4-10.9 2.7-22.6-2.5-32.3-1.5-2.9-3.6-5.6-4.1-8.8-.1-.8-.2-1.7-.4-2.5-.2-1-.6-1.9-1-2.8-3.4-7.7-6.8-15.4-10.1-23.1-.5-1.2-1.1-2.5-1.6-3.7-1.8-4-3.5-8-5-12.1-1.8-4.8-3.2-9.8-4.5-14.8-.9-2.9-1.5-6-1.5-9.1.1-2.7.8-5.4 1.9-7.9.6-1.5 1.3-2.9 2-4.3 20.1-4.7 40.8-6.5 61.4-5.3 3.3.1 6.6.6 9.7 1.6 2.1.8 4 2 5.6 3.6.7.8 1.3 1.6 1.7 2.6 1.2 2.6 1.1 5.7 1.1 8.6-.2 5.5-.4 11-1.9 16.2-.3.9-.5 1.6-.6 2.4z"/><path fill="#3F3D56" d="M193.8 697.3c-3 2.3-6.6 3.8-10.4 4.4-3.3.5-7 .1-9.6-2-3-2.4-4.1-6.5-4.9-10.2l-1.1-5-1.2-5.4c-.9-4.8-1.1-9.7-.8-14.6-2.7 1.1-4.4 4.3-4.6 7.3s.7 5.8 1.6 8.6c.3 1.4.8 2.7 1.5 3.9.5.8 1.1 1.5 1.6 2.4.5 1.3.8 2.6.9 4 .6 4.5 1.5 9 2.7 13.4l1.8 7.3.2.7 1.5 6.2c0 .2.1.4.2.6.2.3.4.6.7.8 6.4 4.7 14.7 5.6 21.9 2.4.3-.1.5-.3.8-.5.4-.5.6-1.2.5-1.8-.1-2 .3-4 1.1-5.8.5-.7.8-1.4 1.1-2.1.2-1.2-.1-2.5-.7-3.5l-3.7-8.7c-.3-.9-.6-1.7-1.1-2.4z"/><path fill="#FBBEBE" d="M185.1 337c-.1 1.9-.5 3.8-1.1 5.6-.4 1.3-1.2 2.5-2.3 3.4-1.7-2.3-4.8-3.1-7.1-4.8-1.9-1.6-3.6-3.5-4.9-5.6-3-4-6.4-7.5-9.6-11.3-.5-.6-1-1.1-1.4-1.7-1.6-2-3.1-4.1-4.4-6.3-2.7-4.6-4.5-9.9-8.5-13.4-2.2-1.9-4.9-3.1-6.9-5.3 1.2-2 2-4.3 2.3-6.6.5-2.2.9-4.5 1.1-6.7.1-.6.1-1.2.1-1.8v-.8c0-1.9-1.2-5 .7-6.1 1.7-1 4.6-1 6.6-.9h.4c4.7.1 9.4 1.5 13.3 4.1.9.5 1.7 1.3 2.3 2.1.9 1.7 1.3 3.6 1 5.5 0 .4 0 .9-.1 1.3v.6c-.1 2.1.1 4.4 1.6 5.9s4.2 1.7 6.4 2.4c.4.1.7.2 1.1.4 2.4 1.1 4.4 2.8 5.9 5 1.6 2.5 2.8 5.3 3.4 8.3.6 2.6 1 5.3 1.1 8 .2 6.1-.1 12.4-1 18.7z"/><path opacity=".1" d="M166.6 287.5v.6c-2.7 1-9.2-1.8-12.2-1.8-6 0-7.8 1.2-12.1-2.3.1-.9.1-1.7.2-2.6 0-1.9-1.2-5 .7-6.1s4.9-1 6.9-.9c4.7.1 9.4 1.5 13.3 4.1.9.5 1.7 1.3 2.3 2.1 1.2 2.1 1 4.6.9 6.9z"/><path fill="#FBBEBE" d="M183.1 262.6c0 13.9-11.2 25.1-25.1 25.1-1.6 0-3.3-.2-4.9-.5-11.8-2.3-20.3-12.7-20.3-24.7-.3-13.9 10.8-25.4 24.6-25.6 13.9-.3 25.4 10.8 25.6 24.6.1.4.1.8.1 1.1z"/><path d="M140.8 292.3c-.8-.7-1.8-1.1-2.8-1.2-1.5.1-2.8 1.1-3.3 2.6-.6 1.4-.8 2.8-1.3 4.2-.7 1.9-2 3.5-3.7 4.5-1.2.7-2.6 1.3-3.4 2.4-1.3 1.8-.5 4.3.6 6.3 4 7.2 11.3 12 18.3 16.4l7.9 5c3.2 2.1 6.4 4 9.8 5.8 5.5 2.7 11.4 4.4 16.8 7.2 2.5 1.3 5 2.8 7.7 3.2.6-1.9.9-3.8 1.1-5.7 1.4-12 2.7-24.3 0-36-.4-2.3-1.3-4.4-2.8-6.2-1-1-2.2-1.8-3.5-2.4-3.2-1.7-6.5-3.3-9.8-4.6-1.6-.8-3.3-1.1-5.1-1.1.2 1.3.5 2.6 1.2 3.8 4.2 9.4 8.4 18.8 12.7 28.2.9 1.7 1.5 3.6 1.5 5.6-.1 2.8-2 5.5-1.2 8.1-7.4-10.7-15.8-20.7-25.3-29.7-.4-.3-.8-.8-1-1.3-.2-.8-.3-1.6-.1-2.3.1-1.5-.2-3.5-1.5-4.5-.9-.7-2.1-.9-3.1-1.5-3.3-2.2-6.5-4.5-9.7-6.8z"/><path opacity=".1" d="M208 443.1c-6.4 3.2-13.3 5.1-20.4 5.6-7.1.5-14.2.5-21.3.1l-16.1-.6c-7.3-.3-14.5-.9-21.5-3.1.6-1.5 1.3-2.9 2-4.3 20.1-4.7 40.8-6.5 61.4-5.3 3.3.1 6.6.6 9.7 1.6 2.1.8 4 2 5.6 3.6.3.9.4 1.6.6 2.4z"/><path fill="#454B69" d="M206.9 364.5c-2.8 9.4-.9 19.7.9 29.4 1 .7 1.5 1.9 1.1 3.1-.3 1.1-.8 2.2-1.3 3.2s-.6 2.3-.1 3.4l.9 1.2c.3.7.5 1.5.5 2.3.2 3.6.4 7.4-.5 10.9-.6 2-1.5 4.2-.9 6.2.4 1.2 1.3 2.3 1.4 3.5s-.6 2.6-1.1 3.9c-1.1 3-.5 6.6.3 9.8-6.4 3.2-13.3 5.1-20.4 5.6-7.1.5-14.2.6-21.3.1l-16.1-.6c-7.4-.3-14.6-.9-21.6-3.1-.7-4.9-1.3-10.2 1.5-14.2.5-.6.9-1.4 1.3-2.1.5-1.7-.6-3.4-.9-5-.7-3.5 1.6-6.7 3.6-9.6.3-.4.5-.8.7-1.3.4-1.3-.4-2.8-.4-4.2 0-.4.1-.8.3-1.1.3-.6.9-1 1.1-1.5.3-.7.4-1.5.3-2.3-.4-5-1-10-1.8-15-.1-.4-.2-.9-.3-1.4-.1-.7-.4-1.4-.7-2-.5-.8-1.2-1.5-1.6-2.3-.5-.9-.5-2 0-2.9.4-.8-.8-1.6-1.2-2.4-.2-.7-.2-1.4-.1-2.1-.1-1.2-.6-2.3-1.3-3.2-.9-1.4-1.8-2.8-2.7-4.1-4-6.2-8.2-12.3-12.5-18.3-2.1-2.9-4.2-5.7-6.3-8.5-1.7-2.3-3.5-4.6-4.4-7.3-.2-.5-.3-1-.4-1.5-.5-2.6-.1-5.3 1.1-7.7 1.2-2 2.5-3.9 4-5.6 1.4-2.1 3-4.2 4.6-6.2 1.7-2 4.1-3.2 6.7-3.4 1.5 0 3.2.4 4.3-.6.4-.4.6-.9 1-1.3 1.1-1 2.9-.3 4.2.4l25.2 14.2 4.1 2.3c.7.4 1.5.9 2.2 1.3 3.5 2 6.8 4.3 10 6.8 4.7 3.7 9.8 7.2 13.9 11.6.4.4.8.8 1.1 1.3.7-5.1 1.5-10.2 2.2-15.4.3-1.5.4-3 .3-4.5-.2-1.5-.6-2.9-1.1-4.3-.2-.5-.3-1-.5-1.5l-2.7-8.1c-1.3-4-2.8-8.1-5.8-11.1-.7-.6-1.4-1.3-2-2-.6-.8-.8-1.7-.5-2.6l21.2 6.6c1 .3 2 .6 3 1 1.2.5 2.3 1.2 3.3 2 3.2 2.6 4.9 6.7 4.4 10.8-.2 1.3-.7 2.6-.9 3.9-.5 2.4-1.3 5.1-.2 7.3s2 4.1 2.9 6.2c.8 1.6 1.5 3.2 2 4.9.6 2.3.8 4.7.7 7.1-.1 5.3-1 10.6-2.7 15.6-.9 1.1-1.5 2.7-2 4.4z"/><path fill="#3F3D56" d="M163.6 376.4l50.3-4.7 8.8-1-8.1 2.9-51 2.8z"/><path fill="#3F3D56" d="M162.5 378.8V375l53.3-2.6 2.6 2.2-55.9 4.2z"/><path fill="#FBBEBE" d="M162.6 371.6c1.1-.3 2.3-.2 3.4-.5 1.5-.4 2.8-1.3 4.3-1.4.9-.1 1.9 0 2.8.2l6.9 1.2c.5.1 1.1.3 1.3.8.1.5-.1 1-.4 1.3-1.2 1.3-3.2 1.5-5 1.6l-4.8.3c-.9 0-1.9.2-2.7.6-.8.5-1.2 1.5-.9 2.4.3.4.6.8 1.1 1 1.9 1.1 4.1 1.5 6.3 1.2 1.8-.3 3.5-.8 5.1-1.5 4.2-1.4 8.7-1.8 13.1-1.4 1.1.1 2.5.4 2.9 1.5.2.8 0 1.6-.5 2.2-1.7 2.4-5.1 2.5-8 3.1-2.7.6-5.3 1.9-7.4 3.8.6 1.3.1 2.9-.5 4.2-.7 1.5-1.6 2.9-2.6 4.3-.5.8-1.3 1.5-2.2 2-.6.2-1.2.3-1.8.3-6 .4-12 0-17.9-1-.6 0-1.2-.3-1.7-.7-.3-.4-.5-.9-.6-1.4-.6-3-1.1-6-1.6-9.1-.4-1.9-.3-3.9.5-5.7.7-1.4 1.9-1.8 3.1-2.8 2.8-2 4.4-5.6 7.8-6.5z"/><path fill="#3F3D56" d="M227.6 309.1L215.1 371c-.4 1.6.7 3.2 2.3 3.6.3.1.7.1 1 0l47.1-4.6c1.3-.1 2.4-1.1 2.7-2.4l11.5-57.3c.3-1.6-.7-3.2-2.3-3.6-.2 0-.5-.1-.7-.1h-46.1c-1.5 0-2.7 1.1-3 2.5z"/><path fill="#FBBEBE" d="M251 382.8c3-1.9 3.9-5.7 5.2-8.9 1.1-2.4 2.4-4.7 3.8-6.9 1.2-2 2.4-4.4 1.5-6.5-.7-1.3-2-2.4-3.5-2.8-1.3-.6-2.8-.8-4.3-.5-1.6.4-2.8 1.8-3.9 3l-3.9 4.5c-1.7 2.2-3.7 4-5.9 5.5-1.4.8-2.9 1.4-4.5 1.9-2.8.9-5.6 1.7-8.4 2.4-1.6.3-3.2.8-4.8 1.5-.6.2-1.1.7-1.4 1.3-.1.8.1 1.5.5 2.1 1 1.8 2.1 5.6 4.2 6.2 2 .5 3.9.8 5.9.9 2 .2 3.5-.6 5.3-1.3 2.2-.8 4.6-1.2 7-1.1 2 0 5.6.3 7.2-1.3z"/><path fill="#454B69" d="M225.2 374.4s1.8 11.9 12.9 10.6c0 0-5.9 2.4-5.3 3.7s-13.7-2.6-13.7-2.6l-.7-6.2s-.5-3.4 0-3.5 6.8-2 6.8-2z"/><path opacity=".1" d="M225.2 374.4s1.8 11.9 12.9 10.6c0 0-5.9 2.4-5.3 3.7s-13.7-2.6-13.7-2.6l-.7-6.2s-.5-3.4 0-3.5 6.8-2 6.8-2zm-51.3-49.8c1.1.6 2 1.4 2.6 2.5.9 1.5 1.6 3.1 2.1 4.8.6 2 .8 4.4 2.3 5.8m-53.6 19.9c.8 2.9.5 6-.9 8.6-4-6.2-8.2-12.3-12.5-18.3-2.1-2.9-4.2-5.7-6.3-8.5-1.7-2.3-3.5-4.6-4.4-7.3-.2-.5-.3-1-.4-1.5 1.1-1.6 2.7-2.7 4.5-3.3 2.9 8.5 10.3 14.5 15.6 21.8 2 2.6 3.5 5.4 4.4 8.5zm37.2 43.4l-17.5.6c-1.5 0-3.3.3-3.8 1.8-.1.5-.1.9-.3 1.4-.5 1.6-2.6 1.8-4.3 1.8-1.4 0-2.9.1-4.3.2 0-.4.1-.8.3-1.1.3-.6.9-1 1.1-1.5.3-.7.4-1.5.3-2.3-.4-5-1-10-1.8-15-.1-.4-.2-.9-.3-1.4 1.4-.9 2.9-1.4 4.6-1.4 1.4.2 2.8 1 4.2.9 2.5-.1 4.2-2.9 6.7-3.1.5 0 1.1 0 1.6-.2.8-.4.9-1.5 1.3-2.2.6-1.2 2.3-1.4 3.6-1.1 0 2.6.1 5.3.5 7.9.1 1.1.4 2.3.8 3.4.5 1.1 1.1 2.1 1.8 3.1 1.9 2.7 3.7 5.4 5.5 8.2z"/><path fill="#454B69" d="M106.3 326.4c-3.1.8-5.3 3.7-6.2 6.8s-.8 6.4-.7 9.6c.3 11.9-.5 23.8-2.4 35.6-.9 5.6-2.1 11.3-1.8 17 .2 3.1.9 6.3 2.9 8.7 3.1 3.7 8.6 4.5 13.4 4.3 8.8-.3 17.4-2.9 26.1-2.9 1.7 0 3.8-.2 4.3-1.8.1-.4.1-.9.3-1.4.5-1.4 2.3-1.7 3.8-1.8l17.5-.6c-1.9-2.8-3.7-5.5-5.6-8.3-.7-1-1.3-2-1.8-3.1-.4-1.1-.7-2.2-.8-3.4-.4-2.6-.5-5.3-.5-7.9-1.3-.3-3 0-3.6 1.1-.4.8-.5 1.8-1.3 2.2-.5.2-1.1.2-1.6.2-2.5.2-4.2 3-6.7 3.1-1.4.1-2.8-.8-4.2-.9-2.3-.2-4.3 1.3-6.4 2.2-3.4 1.5-7.4 1.5-10.8 0-.5-.2-1.1-.9-.7-1.2s.8-.1 1.1-.2c.6-.3.2-1.3-.2-1.9-1-1.8-.3-4 .7-5.9s2.2-3.6 2.3-5.7c-.1-.7-.1-1.3 0-2 .3-.9.8-1.8 1.5-2.5 1.7-2.7 2.2-6.1 1.3-9.2-.9-3.1-2.4-5.9-4.4-8.4-5.2-7.1-12.6-13.2-15.5-21.7z"/><path opacity=".1" d="M153.7 320.5l4.1 2.3c-1.3.6-2.5 1.1-3.8 1.5-9.2 3.1-5.9 7.4-15.6 7.3-6.6-.1-14.2-.6-18.8 4.1-2.2 2.2-3.3 5.3-4.3 8.2-.5 1.3-.9 2.7-1.4 4-2.1-2.9-4.2-5.7-6.3-8.5-1.7-2.3-3.5-4.6-4.4-7.3-.9-3-.7-6.3.7-9.2 1.2-2 2.5-3.9 4-5.6 1.4-2.1 3-4.2 4.6-6.2 1.7-2 4.1-3.2 6.7-3.4 1.5 0 3.2.4 4.3-.6.4-.4.6-.9 1-1.3 1.1-1 2.9-.3 4.2.4l25 14.3z"/><path fill="#3F3D56" d="M178.1 244.1c-.1-1.2-.4-2.4-.9-3.5-.4-.9-1-1.7-1.6-2.4-4.3-4.8-10.4-7.6-16.9-7.7-.6 0-1.1.1-1.6.3-.1.1-.2.1-.4.2-4.6-3.1-10-6.2-15-7.4-3.5-.8-7.1-.8-10.5.1-4.2 1.3-5.7 4.6-7.4 8.3-2.9 5.9-7.2 10.9-12.6 14.5-3.5 2.4-7.6 4.4-9.3 8.2-1.6 3.6-.5 7.7-.1 11.6.9 10.7-3.7 21.1-12.1 27.8-4.8 3.7-11.1 6.8-12.1 12.7-.7 4.2 1.7 8.3 3.4 12.2 3.8 8.2 5.1 18.3.6 26.1-1.3 2.2-3 4.3-3.7 6.8-1.2 4.4 1.3 9.2 5.1 11.8s8.5 3.3 13.1 3.2c3.3 0 6.9-.5 9.3-2.8 1.5-1.7 2.5-3.7 3.1-5.8 1.9-5.4 3.8-10.9 5.8-16.3 1-2.9 2.1-6 4.3-8.2 4.6-4.7 12.2-4.2 18.8-4.1 9.7.1 6.4-4.2 15.6-7.3 5.4-1.8 11.3-4.9 12.5-10.5s-2.5-10.6-5.8-15.1c-2.5-3.3-4.8-6.8-6.9-10.4-2.1-3.4-4.2-7.1-4.8-11.1-1-6.6 15.1-10.4 17.6-16.6.7-1.8 1.3-3.6 1.7-5.4 1.2-.1 2.2-.2 3-.2 3.1-.1 6.6-1.4 7.6-4.3.5-1.5.5-3.1.2-4.7z"/><path opacity=".1" d="M150.9 228.6c.5-.2 1.1-.3 1.6-.3h.2c-3.4-2.2-7.1-3.8-11-4.9l-.9-.2c3.4 1.6 6.7 3.4 9.8 5.5.1 0 .2-.1.3-.1zm27.1 15.3c-.1-1.2-.4-2.4-.9-3.5-.4-.9-1-1.7-1.6-2.4-3.4-3.9-8-6.4-13.1-7.3 2.7 1.3 5 3.1 7 5.3.7.7 1.2 1.5 1.6 2.4.5 1.1.8 2.3.9 3.5.4 1.6.4 3.3-.1 4.8-1.1 2.9-4.5 4.1-7.6 4.2-.8 0-1.8.1-3 .2-.5 1.8-1 3.7-1.7 5.4-2.4 6.3-18.5 10-17.6 16.6.6 4 2.6 7.6 4.7 11.1s4.5 7 6.9 10.4c3.3 4.5 7 9.7 5.8 15.1s-7.1 8.7-12.5 10.5c-9.2 3.1-5.9 7.4-15.6 7.3-6.6-.1-14.2-.6-18.8 4.1-2.2 2.2-3.3 5.3-4.3 8.2l-5.8 16.3c-.6 2.1-1.6 4.1-3.1 5.8-2.4 2.3-5.9 2.8-9.3 2.8-1.9 0-3.8-.1-5.6-.4 3.5 1.9 7.7 2.5 11.8 2.4 3.3 0 6.9-.5 9.3-2.8 1.5-1.7 2.5-3.7 3.1-5.8 1.9-5.4 3.8-10.9 5.8-16.3 1-2.9 2.1-6 4.3-8.2 4.6-4.7 12.2-4.2 18.8-4.1 9.7.1 6.4-4.2 15.6-7.3 5.4-1.8 11.3-4.9 12.5-10.5s-2.5-10.6-5.8-15.1c-2.5-3.3-4.8-6.8-6.9-10.4-2.1-3.4-4.2-7.1-4.8-11.1-1-6.6 15.1-10.4 17.6-16.6.7-1.8 1.3-3.6 1.7-5.4 1.2-.1 2.2-.2 3-.2 3.1-.1 6.6-1.4 7.6-4.3.5-1.5.5-3.1.1-4.7z"/></svg>