<svg version="1.1" id="b0a37f3a-1907-4368-876c-1460423e9ec9" xmlns="http://www.w3.org/2000/svg" x="0" y="0" viewBox="0 0 946 632.5" xml:space="preserve"><style>.st0{fill:#f2f2f2}.st1{fill:#3f3d56}.st4{fill:#a0616a}.st5{fill:#2f2e41}.st7{fill:#575a89}</style><path class="st0" d="M929.7 253.7C895.6 119.6 777.9 22.9 639.6 19c-73.1-2.1-150 22.2-206 107-100.1 151.6 6.2 256.4 80.2 306.2 35.8 24.1 68 53.1 95.8 86.1 50 59.4 146.3 133.2 260.9 17.6 83.2-83.8 81.9-193 59.2-282.2z"/><ellipse class="st1" cx="814.2" cy="602.2" rx="127.7" ry="18.4"/><g id="面板_1_"><path id="面板" class="st1" d="M0 78h810v491.8H0z"/><path id="白杆" class="st0" d="M7.2 384.5h288.4v9.9H7.2v-9.9zm0 28h288.4v9.9H7.2v-9.9zm0 28h288.4v9.9H7.2v-9.9zm0 28h288.4v9.9H7.2v-9.9zm0 28.1h288.4v9.9H7.2v-9.9zm0 28h288.4v9.9H7.2v-9.9z"/><path id="地图" class="st0" d="M468.5 370.9c-.1-1.1-.4-2.1-.8-3.1-.1-.4-.4-.7-.7-.9-.2-.1-.5-.1-.7 0l-3.7.6c-.3 0-.6.1-.8.3-.5.5 0 1.3 0 2-.1.8-.7 1.5-1.5 1.6-.8.2-1.6.1-2.3 0l-5.1-.8c1.5-.5 2.9-1.4 3.9-2.6.7-.8 1-2.3.1-2.7-.3-.1-.6-.1-.9-.1-2.3 0-4.2-1.9-6.3-2.7-2.9-1-6.1-.1-7.9 2.4l2.7.1c.3 0 .5.1.7.2.6.5-.1 1.4-.1 2.2.1 1 1.4 1.2 2.4 1.3s2.3.9 1.8 1.8c-5 1.7-10.2-3.4-15.5-2.8-1.3.3-2.6.6-3.9 1-8 2-16.3-3.4-24.5-2.2-1.8.3-3.6.8-5.3 1.4-1.1.3-2.2.8-3.1 1.6-.9.8-1 2.2-.4 3.2-2.1.2-4.2 0-6.3-.6 1.1.6 1.8 1.8 1.8 3.1-3.3.5-6.5 1.5-9.5 2.9.6.9 1.2 1.8 2 2.6l-4.2 2.7c1.3.4 1.9 1.7 1.5 3-.1.2-.1.3-.2.5 1.5-.7 2.4-2.3 3.9-2.7 1-.1 2.1.1 3 .6s2 .7 3 .5c1-.3 1.7-1.6 1.1-2.4 4.3-1.3 8.7-1.9 13.2-2.1.3 0 .7 0 1 .2.6.4.4 1.3.4 2s.5 1.6 1.2 1.3c-.7.6-.1 1.9.6 2.5s1.6 1.6 1.1 2.5c-.1.2-.3.4-.4.6-.3.7.2 1.5.8 1.9.7.4 1.3.8 1.8 1.4.4.6.2 1.7-.5 1.8l-2.1-2.7c-.7.8-1.2 1.7-1.4 2.7 2.3 2 2.6 5.5.7 7.9-1.1 1-2.3 2-3.6 2.7-1.3.8-2.2 2.1-2.3 3.7 0 2.6-.2 5 .8 7.4 1.8 4.4 3.9 8.8 6.2 12.9.6 1.1 1.4 2.3 2.6 2.5-1.6-3.8-3-7.7-4.2-11.6.8-.1 1.6.2 2.2.7.3.6.4 1.3.4 2 .2.6.4 1.3.8 1.8l7.5 13.3c.5 1.2 1.4 2.1 2.5 2.7.8.1 1.6.4 2.3.6.5.3.9.9 1.5 1.2 1.6.9 3.8-.8 5.2.2.4.3.7.7 1.1 1.1 1.4 1.2 3.6.4 5.2 1.3.9.7 1.7 1.6 2.1 2.7 1.4 2.6 3.5 5.1 6.4 5.3.9 0 1.8 0 2.7.1.9.2 1.8 1 1.6 1.9-.2 1.5.5 3.2.3 4.8-.4 2.8-4.4 4.1-4.7 6.9 0 .6 0 1.2-.1 1.9-.2.7-.7 1.4-.9 2.1-.4 1.4.6 2.8 1.7 3.7s2.4 1.8 3 3.1c.6 1.4.3 3 .5 4.5.5 3.3 3.3 5.8 6.3 7.4.9.4 1.8 1 2.4 1.8.8 1.1.7 2.5.9 3.8.6 3.2 3.3 5.8 3.4 9.1.1 2.3-1.2 4.4-2 6.6-1.5 4.2-1 8.9 1.3 12.8.6.9 1.2 1.9 1.7 2.9.7 1.9.5 4 1.2 5.9.9 2.5 3.3 4.6 3.1 7.2 1.1 2.3 3.5 3.4 6 4.1l4.4 1.2c.8.3 1.7.4 2.6.3.9-.1 1.6-.9 1.7-1.8-2.2-.3-4.3-1.1-6.2-2.3-1.8-1.3-3-3.7-2.3-5.8.3-1 1-2.1.3-2.9-.4-.5-1-.6-1.4-1-.5-.8-.5-1.8 0-2.6.6-.7 1-1.5 1.3-2.4.2-1-.3-2.1-1.2-2.6.8-.3 1.6-.8 2.2-1.4.6-.6.8-1.6.4-2.4 1.3.2 2.9.3 3.8-.8.6-.9.8-2.1.4-3.1s-.6-2.1-.8-3.1c3.1.1 6.2 0 9.2-.3-.4-1.5-1.5-2.8-2.8-3.5 1.4-.2 2.7-1.9 3.1-3.2.4-1.4.4-2.8.1-4.2-.1-.4-.1-.7 0-1.1.2-.5.6-.9 1.1-1.1l6.9-4c.4-.2.8-.5 1.1-.8.6-.9.7-2.2.2-3.2s-.8-2.1-1.1-3.1c-.4-3.3 3.1-5.7 4.3-8.8.4-1.2.6-2.5.7-3.9s.1-3-1-3.9c-1-.9-2.6-.7-3.7-1.5-1-.7-1.3-2.2-2.4-2.8-1-.5-2.2-.2-3.3-.5-1.9-.4-3.1-2.7-5.1-2.9-1.1-.1-2.4.4-3.3-.2-.8-.6-.8-1.7-1-2.7-.5-3.1-3-5.5-6-6.1-1.1-.2-2.4-.1-3.4-.7s-1.4-1.8-2.2-2.7c-1.2-1.4-3.2-1.9-5-2.4l-7.5-1.8c-1.3-.3-3-.5-3.8.7-.2.4-.4.9-.4 1.4-.5 1.8-2.2 3-4.1 3.1-.6-1.1-1.6-1.9-2.8-2.2-.8-.1-1.5-.3-2.3-.5-1.6-.8-2.3-2.7-1.5-4.3 0-.1.1-.1.1-.2.9-1.6.6-3.6-.7-4.8-1.4-1.1-3.1-1.5-4.8-1.3-.4-1 .3-2.1 1.1-2.8s1.8-1.4 2-2.5c.3-1.7-1.8-2.9-3.5-2.4s-2.6 2.1-3.3 3.6c-.3.9-.8 1.8-1.3 2.6-.6.8-1.6 1.2-2.5 1-1.3-.3-1.8-1.9-2.1-3.3-.5-1.8-.7-3.6-.7-5.4 0-1.9.7-3.6 2.1-5 2.2-2 5.6-1.8 8.6-1.5-.7-.9-.6-2.1.2-2.9.8-.7 1.9-1 3-.7.9.2 1.7.7 2.3 1.4.8 1 1.1 2.4 1.7 3.6s2.1 2.2 3.3 1.5c1-.5 1.2-2 .9-3.1-.4-1.1-.6-2.2-.7-3.4.2-2.2 2.4-3.5 4.5-4.4s4.3-2.1 4.6-4.3c0-.4.1-.8.2-1.2.2-.4.5-.6.9-.8 5.9-3.9 11.8-7.8 18.5-9.9.3-.1.4 0 .7-.1.5-.3.2-1.1-.3-1.4s-1.1-.6-1.2-1.1c-.1-.4.2-.8.2-1.2.1-.8-.6-1.6-1.4-1.6-.2 0-.4 0-.6.1-.5-.7.5-1.5 1.4-1.8 2.6-.7 5.2-1.1 7.9-1.3.3 0 .6 0 .9.2.4.4.4 1 .1 1.5-.4.4-.8.8-1.2 1.1-.9.9-1.2 2.1-.9 3.3 1.4.7 2.9 1.4 4.5 1.2s2.9-2 2.2-3.4c-.7-1.3-2.7-1.6-3.1-3-.4-1.7 1.9-3.1 1.4-4.8-.2-.7-.9-1.1-1.5-1.6-1.3-1.3-1.7-3.3-1-4.9-1.8.3-3.6-.3-4.9-1.5-1.2-1.2-2.1-3.1-3.8-3-1.5 0-2.9 1.8-4.3 1.3-.4-.1-.7-.4-1.1-.2-.2.1-.4.4-.4.7-.4 1.7.3 3.7-.7 5.2-1 1.6-3.4 1.9-4.7 3.4-.7.8-.9 1.9-1.6 2.7s-2 1.4-2.7.6c.8-1.6.3-3.4-1-4.5-.7-.5-1.5-.8-2.2-1.1-.9-.4-1.7-.8-2.5-1.4-.4-.2-.7-.6-.9-1-.2-.5-.1-1.1.1-1.6.8-2.2 2.7-3.8 5.1-4.2 1-.1 2.2-.1 2.8-.9.4-.4.5-1 1-1.2.3-.1.7 0 1 .1l3.7 1.3c.4.2.9.3 1.3.2.5-.1.8-.5.8-.9-.1-.6-1.1-.9-1-1.5 0-.2.2-.4.3-.5 2.7-2.9 6.6-4.4 10.6-4.2.5.8-.3 1.7-.9 2.4s-1.1 1.8-.4 2.4c.3.2.6.2 1 .2.9.1 1.8.4 2.6.8 1.3.6 2.6 1.2 3.8 1.8-.2-.8-.1-1.7.1-2.4.3-.8 1.1-1.3 2-1.1.7.3 1.1 1.3 1.9 1.4 1.1.1 1.5-1.4 1-2.4s-1.3-1.8-1.4-2.8c0-.7.2-1.6-.3-2-.2-.1-.4-.2-.7-.2l-14.3-2.6c-.8-.2-2.1 0-2.1.8 0 .5.4 1 .2 1.4-.2.5-.9.4-1.4.6-.7.3-1.2 1.1-1.1 1.9s.4 1.5.9 2.2c-.8.1-2.2 0-3.2-.4zm-11.3-12.1c-1.8-.6-3.9 0-5.1 1.5-.3.3-.4.7-.2 1.1.3.5 1 .3 1.5.1.8-.3 1.6-.3 2.4-.1.5.2.9.5 1.4.6.5.2 1.1.1 1.5-.2.3-.4.4-.9.4-1.4 0-.3-.1-.7-.3-.9-.2-.1-.4-.2-.7-.2-.5-.1-1-.4-1.3-.8m5.5-1.1c-.6 0-1.2.5-1.2 1.1 0 .2 0 .4.1.5.6.2 1.3.2 1.9.1s1.2-.6 1.3-1.2c-.7.1-1.5 0-2.2-.4m17.4-2.5c-1.7.4-3.3.9-4.9 1.7 1.5.6 2.4 2.1 2.3 3.7-.1.3-.1.6 0 .9.2.4.7.6 1.2.7.8.2 1.7.4 2.5.3.9 0 1.7-.5 2.1-1.3.1-.4.3-.7.4-1 1.1-1.7 4.3.3 5.5-1.3.4-.6.4-1.4.9-1.9.3-.2.6-.3.9-.4 2.4-.5 4.7-.8 7.1-1 1.1-.1 2.6-.5 2.6-1.6-4.3-.8-8.7-.2-12.6 1.7-1.4.7-3.3 2.2-4.6 1.3-.5-.3-.5-1.3-1.2-1.7-.6-.3-1.5-.4-2.2-.1zm13.9 2.6l2 .4c-1.4-.1-2.6 1-2.7 2.5v.3c1.9.6 3.9 0 5.9.1s4.3 1.5 3.9 3.4c-.1.6-.4 1.2-.3 1.8.2.4.4.7.7 1.1.3.8.2 1.8-.4 2.4-.5.7-1.2 1.3-1.7 2-1.1 1.8-.5 4.2.2 6.3.2.8.6 1.5 1.1 2.1 1 1.1 2.7 1.2 4.1 1.2 1.1 0 2.3 0 3-.9.9-1.1.3-2.8.9-4.1.5-1.2 1.9-1.7 3.1-2 2.3-.6 4.5-1.3 6.6-2.2 2.6-1.2 5.1-3.1 8-3.3.8 0 1.6 0 2.4-.2.8-.2 1.4-.9 1.5-1.7-.1-.7-.6-1.2-1.1-1.7s-.8-1.3-.4-1.9l7.6-1.4c-.5-1.5-1-3.4.3-4.3.4-.3 1-.5 1.4-.9.6-.8.4-1.9-.4-2.5-.8-.5-1.7-.8-2.7-.8-3.3-.2-6.7-.2-10 .1l-19.5 1.1c-1.4-.1-2.7.1-4 .4-.9.5-1.9 1-2.9 1.3-2.3.5-4.6.2-6.6 1.4zm35.9 15.9c-.2 0-.4 0-.6.1-.1.1-.2.3-.2.4-.1.7 0 1.5.4 2.1s1.2 1 1.9.9c.9-.1 1.6-.9 2.4-1.3 1.3-.6 6.7-1.5 3-3.5-1.3-.7-2.1-.1-3.2.4-1.1.7-2.4 1-3.7.9zm32.9-17c-.4.2-.8.5-1 .9s-.1 1 .3 1.2c.2.1.3.1.5.1l1.8.1c.8 0 1.7.2 1.9.9.2.5-.2 1.2.2 1.6.2.1.4.2.6.2.6.2 1.2.2 1.8.1 1.3-.3.6-1.1 1-1.8.6-1.1.5-.4 1.6-1 .8-.5 1.9-1.3 1.2-2.4-1.1-2.2-8.1-.8-9.9.1zm35.2-1l-1 .1c-2.3.2-4.7.7-6.9 1.3 1 .4 2 .6 3 .7.6 0 1.1.1 1.7.2 1 .3 2 1.1 3 .7.6-.2.8-.9 1.3-1.2.3-.2 1.6-.6 1.8-.8 1.1-1.8-2-1.2-2.9-1zm4.6 4.7c-1.4.8-2.7 1.7-3.8 2.8-.5.4-.9 1-.9 1.7.1.9 1 1.4 1.8 1.7l3.3 1.4c.4-.6 0-1.3-.4-1.9s-.9-1.2-.7-1.9c.2-.8 1.1-1 1.9-1.2 1.3-.2 4.7-.2 4.3-2.2-.5-2.4-4.2-1.2-5.5-.4zm-.7 136.7c-.4.9-.3 1.9.2 2.8.7.9 1.8 1.3 2.9 1 1.1-.3 2-.9 2.7-1.7.6-.7 1.2-1.5 1.5-2.4.5-1.3.9-2.8 1.1-4.2l1-5.4c.2-1.2.2-4.9-2-3.7-.6.3-2 2.9-2.6 3.7-1.1 1.3-1.3 2.6-1.9 4.2-.7 2-2.2 3.7-2.9 5.7zm117.1 27.7c-.7-.3-1.4-.6-2.1-1-.7 1.9-1 3.8-1.1 5.8l5-2.8c.7-.4 1.6-1 1.6-1.9 0-.2-.1-.4-.3-.5-.1 0-.2-.1-.3 0-.7.1-1.4.4-2.1.7-.7.3-1.5.3-2.1 0m27.6 1.3c-.5.1-1.1.3-1.6.6-1.1.6-1.9 1.7-2.9 2.4s-2.1 1.2-3.3 1.5c-.3.3-.2.8.1 1.1l.1.1c.4.2.9.3 1.3.3 1.2.1 2.4-.1 3.5-.5.6-.4 1.2-.8 1.7-1.3 1.3-1 2.7-1.8 4.2-2.4.5-.2 1-.5 1.5-.9.9-.9 1-2.3-.3-2.6-1.2-.2-3.2 1.4-4.3 1.7zm11.6-7.5c.1-1.3-.3-2.5-1.3-3.4.1 1.3-.2 2.5-.8 3.6-.5.7-1.3 1.2-1.8 1.9-.6.7-.7 1.7-.1 2.4.4.3.9.5 1.4.5 1.3.2 2.8.2 3.7-.7.5-.5.7-1.3 1.3-1.6.2-.1.4-.2.6-.4.2-.4-.1-.9-.6-1.1s-.9-.1-1.4-.2-.9-.6-.6-1m-21-45.8c-.7.2-1.4.2-2.1.1-1.1-.4-2.1-1-2.9-1.8-2.2-1.7-4.9-2.6-7.6-2.7-2.5 0-5 .6-7.5.2.2.9.9 1.6 1.7 2s1.7.6 2.5 1c1.3.6 2.4 1.7 2.9 3 .2.6.5 1.3.8 1.8 1 1 2.4 1.5 3.7 1.3 1.8-.1 3.6-.6 5.3 0 1.2.7 2.3 1.5 3.2 2.5 1.1.9 2.6 1.5 3.8.9-2.6-.8-4.3-3.3-4.3-6 1.2.1 4.6.1 4.4-2 .1-1.7-2.8-.5-3.9-.3zm-15.6 13.9c.2-1.2 1.4-2.2 1-3.3-.4-.8-1.1-1.2-2-1.2-.8 0-1.6.2-2.4.2h-1.6c-1.6.3-2.6 2-4.1 2.6-1 .2-1.9.4-2.9.6-2.2.6-3.6 2.6-5.1 4.3-2.5 2.7-5.7 4.6-9.3 5.4-1.3.2-2.5.6-3.6 1.3-1.3 1.1-1.6 2.9-1.9 4.6-.8 4.6-2 9.1-3.7 13.5l5.2.7c1 .2 2 .2 3 0 .7-.3 1.3-.6 2-1 2.3-1.4 4.9-2.4 7.6-2.7 1.4-.3 2.8-.2 4.1.3s2.3 1.6 2.5 3c1.1-.4 2.4-.1 3.2.8.8.8 1.3 1.9 1.5 3 .1.7.3 1.6.9 1.9.5.2 1.2 0 1.7-.1 2-.2 3.7 2.2 5.6 1.8 2.1-.4 2.6-3.6 4.7-4.2 1.2-.4 2.8.1 3.4-1 .5-1-.5-2.1-.4-3.2.1-1.3 1.7-1.9 2.9-2.5 4.3-2.2 6.1-7.4 4.1-11.8-1.2-2.5-3.6-4.4-4-7.1-.3-2.1.5-4.5-.8-6.1-.7-.8-1.8-1.3-2.2-2.3-.2-.7-.3-1.3-.3-2-.1-.7-.7-1.4-1.4-1.2-1.9.5-2.5 6.4-3.5 7.8-.7 1.1-2.2 1.4-3.3.6-.7-.7-1.1-1.7-.9-2.7zm-35-11.7c-.6-.3-1.3-.3-2-.1-.6.3-1 1.2-.5 1.6 3.9-.3 7.8-.2 11.7.2 4.5.6 8.9 2.1 13.3 1.7-2.6-.8-5.2-1.4-7.8-1.8l-4.4-.8c-1.2-.2-2.4-.4-3.6-.5-2.4-.3-4.2.4-6.7-.3zm3.9-13.6c-.3 0-.7-.1-.9.2-.2.3 0 .6-.1.9-.1.4-.7.5-1.1.5-.4-.1-.8-.1-1.2 0-.4.3-.6.8-.4 1.2.2.4.4.8.7 1.1.6.7 1.2 1.3 1.9 1.9 1.3 1 3.2 1.5 4 2.9.1.3.3.5.5.7.5.2 1 .1 1.4-.1l1.5-.7c.3-.1.5-.3.7-.5.3-.5.2-1.2-.2-1.7s-.6-1-.6-1.6c.1-1 1.5-1.4 2-2.3.6-.9.2-2.1.3-3.1.1-1.2.9-2.8-.4-3.8-1.1-.8-2.1-.1-2.8.8-1.6 1.9-2.3 3.8-5.3 3.6zm9.3-18.5c.5 1 1.6 1.6 2.2 2.6.6 1.1.5 2.4 1.2 3.4s2.1 1.6 2.5 2.8c.4 1.3-.5 2.9.2 4 .6.7 1.6.9 2.4.3l.1-.1c.7-.7.6-1.9-.1-2.5-.5-.4-1.1-.6-1.5-1.1-.2-.3-.3-.6-.4-.9-.2-1-.2-2 .1-2.9.1-.2.1-.5.1-.8-.2-.5-.8-.5-1.3-.8-1.1-.5-1-2-.9-3.2-.1.8-2.9-.5-3.2-1-.6-.9-.3-2.6-.4-3.5-1.2.9-1.7 2.4-1 3.7zm-27.9 15.4c-.5-.6-1.3-1.2-2-.8-.5.3-.7 1-.5 1.5s.6 1 1.1 1.3c1.5 1.1 2.9 2.3 4.2 3.6 2.2 2.4 3.4 5.8 5.8 8 .5.5 1.1.9 1.8 1s1.4-.4 1.6-1.1c0-.6-.3-1.1-.7-1.5-.9-1-2-2-2.9-3-.4-.4-.7-.9-.7-1.5s.5-1.2 1.1-1c-.7-.2-1.2-1.3-2.2-1.5-.8-.2-1 .3-2-.1-1.8-.9-3.3-3.4-4.6-4.9zm44.4-55.6c-.5-.2-1.1-.4-1.6-.6-1.4-.4-3.3.6-3.1 2.1.1 1 1 1.6 1.5 2.5.6 1.3.7 2.8.2 4.2-.1.4-.3.8-.5 1.2-.4.4-.8.7-1.3.9-1.9 1.1-3.6 2.5-4.9 4.2l-.3.6c-.1.5.4.8.7 1.3.6.9.2 2.1.2 3.2 0 .3.1.6.4.8.4.2.8-.1 1-.5.7-1.2.2-3.2 1.4-3.8.2-.1.5-.2.7-.4.3-.3 0-.8.1-1.2.2-.6 1-.6 1.6-.6 1.1 0 2.2-.1 3.2-.4.4-.1.8-.3 1.1-.6.3-.5.4-1.1.3-1.7-.4-3-1.3-5.9-2.8-8.5 1.1.3 2.2.2 3.3-.3.5-.3 1.2-1.3.9-1.9-.4-1.2-1.2-.4-2.1-.5zM573 419.1c.2.7.2 1.4 0 2.1s-.9 1.2-1.7 1c-.5-.2-.8-.7-1.2-1.1-2.1-2.3-6.9-1-8.2-3.8-.5-1.2-.2-2.5-.5-3.8-.5-1.4-1.9-2.4-3.4-2.3-.7.1-1.3.3-1.9.6-4.1 1.7-8.5 2.7-12.9 3.2-.8.1-1.7.2-2.5.5-1.8.8-3.2 2.3-3.9 4.1-.7 1.8-1.7 3.5-2.7 5.1-1.4 1.5-2.9 2.8-4.6 3.9-.6.4-1.1 1-1.5 1.6-.3.8-.4 1.6-.3 2.4l.3 9.8c0 1.3.2 2.5.7 3.7.7 1.4 2.1 2.3 3.1 3.6 1 1.3 1.5 2.9 1.5 4.5 0 .6-.1 1.4.4 1.8.3.2.7.3 1 .3l13.2 1.1c2.3.2 4.9.5 6.4 2.3.7.8 1.3 2 2.4 2.1.5 0 .9-.1 1.4-.2 1.2 0 2.3.7 2.9 1.8 1 1.5 1.5 3.3 1.3 5.1-.1 1.1-.5 2.2-.5 3.4-.3 4.3 3.4 8.1 3.5 12.4 0 2.6-1.2 4.9-2.3 7.2 1.9 2.9.3 6.7 1.1 10.1.7 3.2 3.4 5.7 4.1 8.9.3 1.5.3 3.3 1.6 4 .6.3 1.2.4 1.8.4 3.8 0 7.6-.8 11-2.5 1.6-.8 3.3-2 3.5-3.8.2-1.4-.5-3 .2-4.3.9-1.5 3.1-1.3 4.4-2.5 2.1-1.8.5-5.3 1.3-7.9.8-2.4 3.3-3.6 4.6-5.7.5-.9.9-1.9 1.1-2.9.6-2.4 1-4.9 1.1-7.4 0-1.5.1-3 .3-4.6 1.4-8.6 9.9-14.4 12.7-22.7.3-.8.4-1.8-.3-2.3-.4-.2-.9-.2-1.3-.1l-6.1.8c-.8.2-1.5.1-2.3-.1-.7-.3-1.1-1.1-.8-1.9 1-1.9-1.1-4.3-2-6.2-2.6-5.2-5.6-10.1-9.1-14.7-.2-.2-.4-.5-.4-.9l1.7.1c-.6-2.1-1.5-4.4-3.6-5.2-1.2-.3-2.4-.4-3.6-.2-3.9.2-7.5-.1-11-.8zm10.8-47.3c.8 1.1 2 1.8 3.3 2.2 2.3.3 4-2.1 5.1-4.2.1 1.1 1 2 2.2 1.9.6-.1 1.1-.3 1.6-.6 4.7-2.5 9.9-3.9 15.2-3.9-.1-.8.4-1.6 1.3-1.8 1.1-.2 2 .7 2.6 1.7.4 1 1 2 1.7 2.8.8.7 2.4.7 2.8-.4.3-1-.7-1.9-1.6-2.5s-1.8-1.7-1.2-2.6c4.4-1.1 8.9-1.8 13.5-2.2.8 0 1.5-.1 2.3-.4.7-.3 1.2-1.1 1.1-1.9-2 .5-4.2-.3-5.4-2 6.3-.5 13-1 18.7 2 .7 1.4-2.8 2.6-1.8 3.9.4.4.9.5 1.4.5 3.9.2 7.8 0 11.7-.4 1.4-.3 2.8-.4 4.2-.3 2.4.3 4.4 1.9 6.7 2.4.9.3 1.9.2 2.8-.3.8-.5 1.1-1.6.5-2.4v-.1c2.2-2.1 5.8-1.6 8.7-.6s5.6 2.7 8.6 2.9c2.2.2 4.4-.4 6.6-.1 1.3.3 2.6.7 3.9 1.2 2.5.7 5.2.6 7.8.6 6.6.1 13.2 1.4 19.4 3.8.8.3 1.5.7 2.2 1.3.6.6.8 1.5.5 2.3l-6.4-.9c.6 1.2 2.2 1.4 3.4 1.8s2.6 1.8 1.8 2.9c-1.4-.4-2.6.9-3.3 2.2s-1.5 2.8-3 2.8c-1.3.1-2.8-1-3.7 0 1.2 1.5 2.1 3 2.9 4.7.8 1.7 1.4 3.9.3 5.4-.2.3-.4.5-.8.6-.9.2-1.5-.9-2.2-1.6-.9-.7-2-1.2-3.2-1.5-1.1-.4-2.3-1.2-2.4-2.4 0-.7.3-1.5.6-2.1.5-1.1.7-2.4.6-3.6 0-1-.4-2-1.1-2.7-.7-.7-1.9-.9-2.7-.3-.4.3-.6.8-1.1.8-.8 0-1.5-1.4-2.1-.9.1.5 0 1.1-.3 1.5-2 1.7-5 1-7.6 1.6-1.2.3-2.4.9-3.4 1.5-.4.2-.7.5-1 .8-.3.7 0 1.4.6 1.8s1.3.6 2 .7c3.1.6 6.3 1.5 8.7 3.5s4.1 5.3 3.3 8.4l-6.1-5.9c.2 2.5.4 4.9.4 7.4 0 .5 0 1-.2 1.4-.4 1-1.6 1.3-2.7 1.5-1.1.2-1.9 1.3-1.7 2.4 0 .1 0 .2.1.2.5 1.2 1.2 2.2 2.1 3.1.9.9 1.5 2 1.8 3.2.1 1.3-.8 2.7-2.1 2.6-1-.2-1.7-.9-2.1-1.8-.3-.9-.7-1.8-1.3-2.6-1.8-2.2-6-1.3-7.6-3.6-.9 1-1.1 2.3-.8 3.6.9-.4 1.9-.1 2.4.7.5.8.9 1.6 1.3 2.4.6 1.1 1.6 2 1.7 3.2v1.4c.3.7.7 1.3 1.2 1.9.9 1.5 1 3.4.3 5s-1.7 3.1-3 4.3c-2 2.4-4.1 4.5-6.5 6.5-.7.5-1.4 1.1-1.8 1.8-.5.8-.4 1.8.2 2.4-.5 0-1.3.3-1.8.3-.2-1.9-.2-3.8-.1-5.6-1.8-.9-3.8 1.5-3.6 3.5s1.7 3.7 2.8 5.4c.9 1.2 1.2 2.8 1.1 4.3-.2 1.5-1.5 2.7-3.1 2.7-2.4-.2-3.4-3.6-5.7-4-.2 0-.4 0-.6.1-.3.2-.4.7-.4 1.1-.2 1.9 0 3.9.6 5.8 1.1 2.6 4 4.8 3.4 7.6-3.3-1.5-4.9-5.2-5.7-8.7s-.9-7.2-2.3-10.5c-1 1.3-3.2.2-4.2-1.2-.9-1.3-1.5-2.9-2.3-4.2-.8-1.4-2.2-2.4-3.8-2.6-1.7-.1-3.1 1.1-4.4 2.2-1.1.8-2.1 1.9-2.8 3.1-.9 1.8-.7 3.9-.7 6 .1 2.2-.6 4.4-2 6.1-1.5 1.6-4.2 2.2-5.9.7-.8-.8-1.4-1.8-1.6-3-1.8-5.2-3.3-10.5-4.4-15.9-.3 1.2-1.4 2.8-2.4 2.1-.2-.2-.4-.4-.5-.7-1.9-3.2-5.5-5.2-9.1-6.4s-7.4-1.7-10.9-3c-2-.7-3.9-1.7-5.7-2.8-.9 1.4-1 3.1-.3 4.6.8 1.4 2.5 2.1 4.1 1.7.8-.3 1.5-.8 2.2-1.1.8-.4 1.7-.1 2.2.6.3.7-.2 1.6.1 2.3.4 1.1 2.1 1.2 2.7 2.3.4.8.1 1.8-.6 2.4-.7.6-1.5 1-2.3 1.4-2.5 1.4-4.4 3.8-6.6 5.7s-5.4 3.3-8 2c.6-3.2-3.2-5.5-3.9-8.7-.2-1-.1-2.2-.4-3.2-.5-1.5-1.8-2.5-2.9-3.6-2.6-2.8-4-6.5-3.9-10.3.2-1.3.2-2.6 0-3.9s-1.3-2.4-2.7-2.5c-3 .1-6.8.4-8.4-2.2-.6-.9-.8-2.3 0-3 .6-.4 1.4-.5 2.2-.4l6.8.7c1.6.2 3.3.3 4.7-.5s1.9-3 .7-4c-.9-.7-2.6-.7-2.8-1.8-.2-.9.8-2 .3-2.8-.4-.6-1.3-.4-1.9 0-.5.5-1 1-1.6 1.4-1.1.6-2.4 0-3.5-.3s-2.7-.4-3.3.7c-.6 1.2.6 2.8-.1 4-.8 1.6-3.6.7-4.8 2.1-1.3 1.6.9 3.9.5 6-1.2.6-2.6.5-3.6-.2-1.1-.7-1.7-2-1.5-3.3.1-.9.6-1.8.3-2.7-.3-.7-.9-1.2-1.6-1.5l-6.6-3.6c-.6 1.1.2 2.5 1.1 3.4s2.2 1.5 2.8 2.6c.8 1.6.3 3.6-1.3 4.5-.2.1-.4.2-.7.1-.2-.1-.4-.3-.4-.6-1.2-3-2.9-5.9-5.7-7.5s-6.8-1.2-8.6 1.4c-.4.6-.7 1.3-1.1 2-2 3.5-6.3 5.1-10.3 5-.4 0-.8-.1-1.1-.3-.7-.4-.6-1.4-.5-2.2l.4-3.3c0-.7.3-1.3.7-1.8.7-.6 1.8-.2 2.8-.2 1.5-.1 2.7-1.1 3.2-2.5.4-1.4 0-2.9-1.1-3.9-.4-.4-1-.9-.8-1.5.2-.3.5-.5.9-.6 1.7-.5 3.5-.6 5.2-1.2 1.7-.5 3.1-1.8 3.7-3.5.1-.5.2-1.2.7-1.4.2-.1.5-.2.8-.2 1.9-.3 3.3-1.9 3.2-3.8.9-.4 2-.3 2.7.4.7.7 1.5 1.3 2.4 1.6 1.8.5 3.5-1.1 5.3-1.1.8.1 1.5.1 2.3 0 .7-.3 1.2-1 1.7-1.5s1.5-.9 2.1-.3l-.4-3.3c1.8.5 3.7.1 5.2-.9l-5.7-1.9c-.2 0-.4-.1-.5-.3-.4-.4 0-1.1.3-1.7.8-1.2.9-3.2-.4-3.8-.9-.4-1.9.1-2.8.6L567 376c-.1.8.8 1.2 1.4 1.8 1 .9 1.1 2.4.2 3.4-.5.5-1.1.8-1.8.8.6.7.8 1.7.5 2.5l-2.8.2c-.3.1-.6 0-.9-.2-.3-.3-.3-.7-.3-1.1-.3-1-1.1-1.7-2.1-1.8-1-.1-1.9 0-2.9.3-.4.1-.8.1-1.2 0-.2-.1-.4-.4-.5-.6-.3-1.1-.1-2.2.6-3 .7-.8 1.5-1.5 2.4-2.2 2-1.7 3.4-3.9 4.1-6.4 1.5-.6 3.1-1.5 4.7-2.2 2.4-1.2 5.1-1.7 7.7-1.5l5.2.1c1.6-.1 3.1.2 4.6.7s2.6 1.8 2.8 3.4c.1.4-.1.7-.3 1-.2.1-.4.2-.7.1-1.9.1-2.5.5-3.9.5zm-41.7 16.4c.4-.4.6-1 .4-1.5-1-.4-2.2-.2-3 .6-.3.3-.6.7-.8 1.1-.8 1.1-1.1 2.4-.9 3.7.1.3.2.5.5.7.2.1.4.1.6.1.8 0 1.5 0 2.3-.1.5-.1 1-.2 1.2-.6.2-.6-.3-1.2-.2-1.8.1-.3.3-.5.5-.7s.3-.5.3-.8c-.1-.3-.5-.4-.6-.2m3.6-5.6c-.7-.2-1.4-.2-2.1-.1-.2 0-.3 0-.4.1-.1.1-.2.2-.3.4-.3 1 .2 2 1.1 2.4.2.1.5.2.7.3.6.5.2 1.4.3 2.1.1.8.9 1.5.8 2.3-.1.6-.8 1.1-.7 1.8.1.7 1 .9 1.6.9.4.1.8 0 1.2-.1.4-.3.6-.6.7-1.1.3-.8.4-1.7.3-2.6 0-.4-.1-.8-.3-1.1-.2-.3-.4-.5-.7-.8-1.1-1.5.2-3.8-2.2-4.5z"/><circle id="圆" class="st0" cx="151.4" cy="191.9" r="68.7"/></g><g id="树叶"><path d="M177.2 236.6c0 19.3-11.5 26.1-25.6 26.1h-1c-.7 0-1.3 0-1.9-.1-12.8-.9-22.7-8-22.7-25.9 0-18.6 23.7-42 25.5-43.8l.1-.1s25.6 24.4 25.6 43.8z"/><path class="st1" d="M150.7 259.7l9.4-13.1-9.4 14.5v1.5c-.7 0-1.3 0-1.9-.1l1-19.3v-.1l.1-1.8-9.4-14.6 9.5 13.2v.4l.8-14.6-8.1-15.1 8.2 12.5.8-30.3v-.1.1l-.1 23.9 8-9.5-8.1 11.5-.2 13.1 7.5-12.5-7.5 14.5-.3 7.2 10.9-17.5-10.9 20-.3 16.2z"/></g><path id="自由色" d="M7.2 289.5h288.4v9.9H7.2v-9.9zm334.5-167.2h460.1v1.8H341.7v-1.8zm0 18.1h460.1v1.8H341.7v-1.8zm0 18.1h460.1v1.8H341.7v-1.8zm0 18h460.1v1.8H341.7v-1.8zm0 18.1h460.1v1.8H341.7v-1.8zm0 18.1h460.1v1.8H341.7v-1.8zm0 18.1h460.1v1.8H341.7v-1.8zm0 18.1h460.1v1.8H341.7v-1.8zm0 18h460.1v1.8H341.7v-1.8zm0 18.1h460.1v1.8H341.7V285zm0 18.1h460.1v1.8H341.7v-1.8zm8.2-25.3h30.7v7.2h-30.7v-7.2zm49.7-17.2h30.7v7.2h-30.7v-7.2zm49.7-36.2H480v7.2h-30.7v-7.2zm49.7 17.2h30.7v7.2H499v-7.2zm49.7-35.2h30.7v7.2h-30.7v-7.2zm49.8 35.2h30.7v7.2h-30.7v-7.2zm49.7-53.3h30.7v7.2h-30.7v-7.2zm49.7-35.3h30.7v7.2h-30.7V153zm49.7 18.1h30.7v7.2h-30.7v-7.2z"/><path id="图表" opacity=".1" d="M747.6 176.5v72.8h-19v-92.7h-30.7v92.7h-19v-57.4h-30.7v57.4h-68.7V210h-30.8v39.3h-50.1v17.6H480v-38.8h-30.7v38.8h-49.7V285h-49.7v19.9h428.5V176.5z"/><path id="地图标记" d="M433.7 389c2.4 0 4.4 2 4.4 4.4s-2 4.4-4.4 4.4-4.4-2-4.4-4.4 2-4.4 4.4-4.4zm39.4 93.3c2.4 0 4.4 2 4.4 4.4s-2 4.4-4.4 4.4-4.4-2-4.4-4.4 2-4.4 4.4-4.4zm167.2-93.9c2.4 0 4.4 2 4.4 4.4s-2 4.4-4.4 4.4-4.4-2-4.4-4.4 2-4.4 4.4-4.4zM717 497.3c2.4 0 4.4 2 4.4 4.4s-2 4.4-4.4 4.4-4.4-2-4.4-4.4 2-4.4 4.4-4.4zM574.5 451c2.4 0 4.4 2 4.4 4.4s-2 4.4-4.4 4.4-4.4-2-4.4-4.4 2-4.4 4.4-4.4z"/><path id="actions" d="M13.1 83.9c3.2 0 5.8 2.6 5.8 5.8s-2.6 5.8-5.8 5.8-5.9-2.5-5.9-5.7 2.7-5.9 5.9-5.9zm14.9 0c3.2 0 5.8 2.6 5.8 5.8s-2.6 5.8-5.8 5.8-5.8-2.6-5.8-5.8 2.6-5.8 5.8-5.8zm15 0c3.2 0 5.8 2.6 5.8 5.8s-2.6 5.8-5.8 5.8-5.8-2.6-5.8-5.8 2.5-5.8 5.8-5.8z"/><g id="人物"><path class="st4" d="M778.2 207.9s3.3 22.1 2.5 23.7c-.8 1.6 2.5 10.6 15.6 8.2 13.1-2.5 18-19.7 18-19.7s-10.6-13.9-9-18l-27.1 5.8zm-3.7 346v27l17.2 5.8-3.3-36.9zm63.9 3.3l-2.5 33.5 14.8-9v-27z"/><path class="st5" d="M756.5 367.2s-10.6 18.8-7.4 24.6c3.3 5.7 3.3 8.2 3.3 8.2s1.6 44.2 13.1 65.5c0 0-2.5 41.8 2.5 67.1l4.9 25.4 18.8-2.5 1.6-27s3.3-31.9 0-46.7c-3.3-14.7 9-63.9 9-63.9l21.3 71.2s.8 26.2 4.9 43.4c4.1 17.2 5.7 27 5.7 27l18 .8s5.7-53.2 0-79.4c0 0-2.5-80.2 0-85.2 2.5-4.9-2.5-20.5-7.4-23.7-4.8-3.2-88.3-4.8-88.3-4.8zm25.4 208s-.8-4.9-4.9-4.9h-4.1l-.8 6.6-14.7 14.7s-23.7 18-3.3 18.8c20.5.8 25.4-8.2 25.4-8.2s18.8-5.7 18.8-6.6-4.9-21.3-4.9-21.3l-2.7.6-2.2 5.9-6.6-5.6zm71.2 0s-9-3.3-9 0v3.3s-3.3-2.5-3.3 0-4.9 4.1-4.9 4.1l-.8-4.1s-4.9 19.7-2.5 21.3c2.5 1.6 10.6 5.7 11.5 8.2.8 2.5 2.5 11.5 19.7 8.2s6.6-13.1 6.6-13.1l-9-9-8.3-18.9z"/><circle class="st4" cx="787.6" cy="193.6" r="22.9"/><path d="M791.7 235.4s-8.9-2.5-11-7-18.5 3.7-18.5 3.7l-5.7 72.1-2 63.5s41.4 16 54.5 11.1 28.7-7.4 28.7-7.4l2.5-122.8-4.1-22.9s-19.3-8.1-23.2-7.3c-.1-.2-4.8 17.8-21.2 17z" fill="#d0cde1"/><path class="st7" d="M780.1 221.9s-3.9 3.7-5.5 3.7-27.8 1.6-30.3 12.3c-2.5 10.6 4.1 41.8 4.1 41.8s.8 31.9 4.9 42.6c4.1 10.6.4 17.6.4 17.6s-5.3 27.4-.4 29.9S768 376 768 376s13.2-14.4 9.1-34.9-9.8-49.9-6.6-59.8c3.2-9.9 9.6-59.4 9.6-59.4z"/><path class="st4" d="M731.1 338.5l5.7 10.6s27 30.3 31.9 13.1c4.9-17.2-19.7-21.3-19.7-21.3l-7.4-7.4-10.5 5z"/><path class="st7" d="M811.6 216.5s30.9 4.1 39.1 12.3c8.2 8.2 1.6 46.7 1.6 46.7s-9.8 59-9 62.2c.8 3.3.8 31.1.8 31.1s-10.6 11.5-19.7 8.2c-9-3.3-20.5-27-9-55.7 4.8-12 4.3-23.8 2-33.4-5.4-23.3-7.4-47.4-5.8-71.4z"/><path class="st4" d="M858 332l-8.2 7.4s-46.7 1.6-34.4 13.9 41.8 0 41.8 0l10.6-11.5-10.6-9.8h.8z"/><path class="st5" d="M769.2 169.4l-4.2-1.7s8.8-9.7 21.1-8.9l-3.4-3.8s8.4-3.4 16.1 5.5c4 4.7 8.7 10.1 11.6 16.3h4.5l-1.9 4.1 6.6 4.1-6.8-.7c.6 3.6.4 7.3-.6 10.7 0 0-7.7-8.9-7.7-10.5v4.2s-4.2-3.8-4.2-6.3l-2.3 3-1.1-4.6-14.2 4.6 2.3-3.8-8.8 1.3 3.4-4.6s-7.4 6.6-10.3 10.1c-4.1 4.8-7.7 6.3-7.7 6.3s-3.6-19 7.6-25.3z"/><path class="st7" d="M750.8 234.6l-7.4 3.3s-29.5 39.3-31.9 47.5c-2.5 8.2-4.9 27 18.8 56.5l14.7-7.4s-16.4-23.7-10.6-32.8 18.8-24.6 18.8-24.6l-2.4-42.5zm95-6.6l4.9.8s61.4 45 56.5 62.2-39.3 54-39.3 54l-13.1-12.3s28.7-33.6 17.2-41.8c-11.5-8.2-26.2-22.1-26.2-22.1V228z"/></g></svg>