<svg xmlns="http://www.w3.org/2000/svg" viewBox="0 0 1135.7 856.8"><path d="M1044.7 222.9s-14.1-5.7-58.8 14.8-50.3 17.9-61.9 14.8-18-3.9-30.5-21c0 0-8.8-47.5-17.2-54.8s-44.5 4.2-44.5 4.2-43.2 9.9-51.4-47.8c0 0 5.8-43.5-2.1-56.8 0 0 16 6.9 42.5-4.3s47.7 12 47.7 12 6.7 17.3 6 27.6 3.5 14.2 16.2 9.2c0 0 6.2-8.8-2.6-23.4S873 71.9 875.4 60.6s9.5-27 32.2-34.9 53.4-9.4 68.2-15.5S994.2 0 994.2 0s-9.1 9.1 12.3 47.7 7.8 55.4 7.8 55.4-11.4 27.1-61.7 24.9c0 0-48.5 1.8-22 22.3 0 0 16.9-3.4 42.2-11.5s43.6 25.2 48.1 48.3c4.5 23.1 23.8 35.8 23.8 35.8z"/><path fill="#444053" d="M979.5 29.3l.3-.1c1.9 7.4-19.7 37-38.2 60.5l-.2-.2c26.1-33.1 39.6-54.6 38.1-60.2z"/><path fill="#444053" d="M941.7 89.1l.1.3c-14.8 18.8-33.4 41.3-48.3 57.9-1.4 1.6-2.8 3.3-4.2 4.9l-.4-.3c1.4-1.7 2.8-3.4 4.2-5 14.9-16.6 33.8-39 48.6-57.8z"/><path fill="#444053" d="M889.3 151.4l.3.5c-27.1 33.8-28.9 86.4-29 86.8l-5.7-6.6c.1-.4 7.1-46.6 34.4-80.7z"/><path stroke="#444053" stroke-miterlimit="10" d="M1013.3 204.6s-32-16.6-56.9-10.6-81-21.1-81-21.1-23.8-9.7-28.6-20.7c0 0-16.3-17.3-17.3-26.2s-16.8-31.4-27.2-32.3m206.3 126.9s-16.1-10.8-14.2-23.5m-10.5 37.5s-23-8.4-25.3-41.1m-11.7 49.6s-22-18.2-14.7-50.1m-30 41.2s-14.7-30.7-1.6-50.7m113 .8s-16.6 5.3-13.1 14m-7-44.2s-22.3 7.1-22.8 38.6m-8.2-45.8s-20.3 25-18.8 47.8m-16.7-38s-20.1 19.2-17.6 29.9m5.4-36.7s-18.9 3.4-21.5-2.8m-3-20s9.5 12.6 12 9.8m82.5-17.8s-47.6 3.4-58.3-10.9m-46.2-44.8s22.3 47.9 38.5 54m-15.1-76.8s13.7 44.1 30.7 57.8"/><path stroke="#444053" stroke-width=".75" stroke-miterlimit="10" d="M1004.8 82.7s-36.2 15.5-57.9-.2M936 31.2s8.3 32.4 19.4 40.2m44-25s-20.3 7.7-27.9 1.8"/><path stroke="#444053" stroke-miterlimit="10" d="M872.9 137.7s-.1 28.3-7.7 30.3m-55.2 6.3s30.5 2.6 44.6-13.1m10.4-56.9s-7.4 28.7-27.8 36.4m-45.5 3.4s21.6 7.5 40.2-11.6m9.1-52.8s-2 24.3-15.3 35.7m-33.2-8.4s17.9.1 22.2-5.7"/><path d="M184.6 820.7s-36.1-2.2-31.9 23.1c0 0-.8 4.5 3.2 6.5 0 0 .1-1.9 3.7-1.2 1.3.2 2.6.3 3.9.2 1.8-.1 3.5-.8 4.8-2 0 0 10.1-4.2 14.1-20.8 0 0 2.9-3.6 2.8-4.5l-6.1 2.6s2.1 4.4.4 8c0 0-.2-7.9-1.4-7.7-.2 0-3.2 1.5-3.2 1.5s3.6 7.7.9 13.2c0 0 1-9.4-2-12.7l-4.3 2.5s4.2 8 1.4 14.4c0 0 .7-9.9-2.3-13.8l-3.9 3s3.9 7.8 1.5 13.1c0 0-.3-11.5-2.4-12.4 0 0-3.4 3-3.9 4.2 0 0 2.7 5.7 1 8.6 0 0-1-7.7-1.9-7.7 0 0-3.4 5.1-3.7 8.6.2-3.2 1.2-6.3 2.9-9.1-2 .4-3.8 1.3-5.2 2.7 0 0 .5-3.6 6-3.9 0 0 2.8-3.9 3.6-4.1 0 0-5.5-.5-8.8 1 0 0 2.9-3.4 9.8-1.8l3.8-3.1s-7.2-1-10.3.1c0 0 3.5-3 11.3-.8l4.2-2.5s-6.1-1.3-9.8-.8c0 0 3.9-2.1 11 .2l3-1.3s-4.5-.9-5.8-1-1.4-.5-1.4-.5c2.8-.5 5.8-.1 8.4.9.3 0 6.7-2.3 6.6-2.7zm-63.3 1.4s-20.3-1.2-18 13c-.3 1.5.5 3 1.8 3.7 0 0 0-1.1 2.1-.7.7.1 1.5.2 2.2.1 1-.1 1.9-.5 2.7-1.1 0 0 5.7-2.4 7.9-11.7 0 0 1.6-2 1.6-2.6l-3.4 1.5c.7 1.4.8 3.1.3 4.5 0 0-.1-4.5-.8-4.3-.1 0-1.8.8-1.8.8s2 4.3.5 7.5c0 0 .6-5.3-1.1-7.1l-2.4 1.4s2.4 4.5.8 8.1c0 0 .4-5.6-1.3-7.8l-2.2 1.7s2.2 4.4.9 7.4c0 0-.2-6.5-1.3-7-.8.7-1.6 1.5-2.2 2.4 0 0 1.5 3.2.6 4.9 0 0-.6-4.3-1-4.3 0 0-1.9 2.9-2.1 4.8.1-1.8.7-3.6 1.7-5.1-1.1.2-2.1.7-2.9 1.5 0 0 .3-2 3.4-2.2.6-.8 1.2-1.6 2-2.3-1.7-.1-3.4.1-4.9.6 0 0 1.6-1.9 5.5-1l2.2-1.8s-4.1-.6-5.8 0c0 0 2-1.7 6.4-.5l2.4-1.4c-1.8-.4-3.7-.6-5.5-.5 0 0 2.2-1.2 6.2.1l1.7-.8s-2.5-.5-3.3-.6-.8-.3-.8-.3c1.6-.3 3.3-.1 4.8.5-.3.1 3.2-1.2 3.1-1.4zm38.8-30.3s-24.6-1.5-21.7 15.7c-.3 1.8.6 3.6 2.2 4.4 0 0 0-1.3 2.5-.8.9.1 1.8.2 2.7.1 1.2-.1 2.3-.6 3.3-1.3 0 0 6.9-2.8 9.6-14.1 0 0 2-2.5 1.9-3.1l-4.1 1.8s1.4 3 .3 5.5c0 0-.1-5.4-.9-5.2-.2 0-2.2 1-2.2 1s2.4 5.2.6 9c0 0 .7-6.4-1.4-8.6l-2.9 1.7s2.9 5.4.9 9.8c0 0 .5-6.7-1.5-9.4l-2.6 2.1s2.7 5.3 1 8.9c0 0-.2-7.8-1.6-8.4-1 .8-1.9 1.8-2.7 2.9 0 0 1.8 3.8.7 5.9 0 0-.7-5.2-1.3-5.3 0 0-2.3 3.5-2.5 5.8.1-2.2.8-4.3 2-6.2-1.3.3-2.6.9-3.5 1.8 0 0 .4-2.5 4.1-2.7 0 0 1.9-2.6 2.4-2.8 0 0-3.7-.3-6 .7 0 0 2-2.3 6.7-1.3l2.6-2.1s-4.9-.7-7 .1c0 0 2.4-2 7.7-.5l2.9-1.7c-2.2-.5-4.4-.7-6.7-.6 0 0 2.6-1.4 7.5.1l2-.9s-3.1-.6-3.9-.7-1-.3-1-.3c1.9-.3 3.9-.1 5.8.6-.2 0 4.2-1.6 4.1-1.9z"/><path opacity=".1" d="M584.5 172.8c-71.4 11.9-142.9 5.5-211.8-3.4s-137.5-20.2-209.1-18c-46 1.4-97.2 10.5-129 38.2C4.1 216.3-.3 252.8 0 285.8c.2 24.8 2.5 50.5 19.4 70.5 11.7 13.9 29.5 23.9 43 36.7 47 44.6 33.7 113.6 3.9 172.1-14 27.4-31.1 54.4-40.5 82.5s-10.3 58.5 7.4 81.8c17.5 23.1 51.1 36.4 86 43.5 70.9 14.5 149.6 7 225.7-3.4 168.4-23.1 335-60.5 501-97.8 61.5-13.8 123.2-27.7 182.3-48 32.8-11.3 66.3-25.4 87.3-47.8 26.7-28.5 26.9-67.7.6-91.5-44.2-39.9-143.2-32.5-177.6-77.9-18.9-25-11.2-58.6 3.2-88.2 31-63.4 91.7-125.7 83-189.4-6-43.8-48.4-80.4-104.7-90.5-59-10.6-134.4 7.1-167.7 50.6-34.4 44.8-104.7 73.3-167.8 83.8zm91.3 619c195.2 0 353.5 7.5 353.5 16.8S871 825.4 675.8 825.4s-353.5-7.5-353.5-16.8 158.3-16.8 353.5-16.8zm-516.1 56.4c14.1 0 25.6 1.9 25.6 4.3s-11.4 4.3-25.6 4.3-25.6-1.9-25.6-4.3 11.5-4.3 25.6-4.3zm-52.4-10.6c8 0 14.4 1.1 14.4 2.4s-6.5 2.4-14.4 2.4-14.4-1.1-14.4-2.4 6.5-2.4 14.4-2.4zm35.9-27.1c9.6 0 17.4 1.3 17.4 2.9s-7.8 2.9-17.4 2.9-17.4-1.3-17.4-2.9 7.8-2.9 17.4-2.9z"/><path fill="#D2D4DE" d="M668.6 784.1v7.8H437.3v-6.4c39.4-14.6 59.4-58.3 44.9-97.7-7-18.9-21.3-34.3-39.6-42.7H667c-20.9 9.6-36.3 28.1-42 50.4-7.7 30.3 4 62.3 29.4 80.5 4.4 3.2 9.2 5.9 14.2 8.1z"/><path opacity=".1" d="M667 645.2c-20.9 9.6-36.3 28.1-42 50.4H484.6c-5.7-22.3-21.1-40.8-42-50.4H667z"/><path fill="#D2D4DE" d="M172.5 605.3v43.9c0 24.3 17.7 43.9 39.6 43.9h680.4c21.9 0 39.6-19.7 39.6-43.9v-43.9H172.5z"/><path opacity=".1" d="M668.6 784.1v7.8H437.3v-6.4c6.3-2.4 12.3-5.6 17.8-9.5h199.2c4.5 3.2 9.3 5.9 14.3 8.1z"/><path fill="#D2D4DE" d="M370.4 778.5h365.1c5.2 0 9.5 4.3 9.5 9.5v4.2c0 5.2-4.3 9.5-9.5 9.5H370.4c-5.2 0-9.5-4.3-9.5-9.5V788c0-5.3 4.3-9.5 9.5-9.5z"/><path fill="#30374E" d="M932.2 124.3c0-21.9-17.7-39.6-39.6-39.6H212.2c-21.9 0-39.6 17.7-39.6 39.6v489.6h759.6V124.3z"/><path fill="#DFE3EF" d="M911.5 142v420.7c0 10.8-8.7 19.5-19.5 19.5H212.8c-10.8 0-19.5-8.7-19.5-19.5V142c0-10.8 8.7-19.5 19.5-19.5H892c10.7-.1 19.5 8.7 19.5 19.5z"/><circle fill="#FFF" cx="552.3" cy="103.6" r="9.2"/><circle fill="#FFF" cx="552.3" cy="651" r="22.6"/><path fill="#FFF" d="M911.4 142H193.3c0-10.8 8.7-19.5 19.5-19.5h679.3c10.6-.1 19.3 8.7 19.3 19.5 0-.1 0 0 0 0z"/><circle fill="#DFE3EF" cx="212.8" cy="132.2" r="4.9"/><circle fill="#DFE3EF" cx="227.4" cy="132.2" r="4.9"/><circle fill="#DFE3EF" cx="242" cy="132.2" r="4.9"/><path fill="#FFF" d="M260.9 196h579.6v338.7H260.9V196z"/><linearGradient id="a" gradientUnits="userSpaceOnUse" x1="345.594" y1="31.942" x2="345.594" y2="249.541" gradientTransform="matrix(1 0 0 -1 604.25 834.32)"><stop offset="0" stop-color="gray" stop-opacity=".25"/><stop offset=".54" stop-color="gray" stop-opacity=".12"/><stop offset="1" stop-color="gray" stop-opacity=".1"/></linearGradient><path fill="url(#a)" d="M1002.3 653.3c.2-.6-1.4-3.8-1.4-3.9s-1.6-1.9-1.6-2.9-2.2-3.2-2.2-3.2-2.9-1.2-3.2-3.8-3.5-2.7-3.5-2.7v-.6c.1-1-.1-2.1-.4-3.1-.4-.7-1-1.3-1.8-1.5-.1-1-.5-1.9-1-2.7-.7-.8-1-1.8-.7-2.8.3-1-.4-3.5-2-3.9s-3.3-.9-3.3-.9l-.4.1-.2-.1c-.4.1-.7.1-1.1.1-.3 0-.6-.1-.9-.3-.5-.6-4.8-1.7-5.6-1.7-1.1-.2-2.1-.5-3.1-1l-2.3-1.7c-.8-.8-1.4-1.8-2-2.7-.2-.4-.4-.9-.5-1.4.8-.8 1.5-1.7 2-2.7l.2-.3h.3l.1-.1c.5-.3.9-.8 1.1-1.3 0-.1.1-.2.1-.3v-1c0-.4.1-.7.2-1.1.5-1.4 1.1-2.7 1.8-3.9.1-.2.2-.4.2-.6.1-.2.2-.4.2-.6v-.2c0-.2.1-.3.1-.5v-.2c0-.2.1-.4.1-.7.1-1.3-.1-2.5-.5-3.7-.4-1-1-1.9-1.4-2.8-.6-1.5-.8-3.2-1.5-4.6-1.2-2.4-4-3.5-6.6-2.7-1.2.4-2.1 1.3-3.3 1.6-1.6.5-3.2.1-4.8-.1s-3.4-.2-4.7.8c-1.5 1.2-1.9 3.5-3.3 4.8-.6.6-1.3.9-1.9 1.4-.4.3-.8.8-1 1.3v1.2c0 .1 0 .1.1.2l.1.2.1.1v.1c.2.4.4.8.5 1.2.1.3.1.5 0 .8-.1.3-.3.6-.6.8-1 1.1-1.9 2.4-2.4 3.8-.1.2-.1.3-.2.5h.1c.1 0 .3.1.5.1h.3c.4 0 .7 0 1.1-.1l.3-.1c.4-.1.7-.2 1.1-.4v.5c0 4.7 2.7 9 6.9 11.1v.6l-.1-.1s-1-.5-1.8.9c-.7.9-1.6 1.6-2.6 2 0 0-9.6 1.5-10 2.8l-4.5.3s-1.6.2-1.7 3.5-1 3.6-1 3.6-1.8 3.3-1.7 4.9c0 1-.5 2-1.4 2.5l-.2 3c-1.1-.1-2.1.7-2.2 1.8-.2 1.1-.7 2.1-1.3 3 0 0-2.9 2.4-3.1 4.5l-1.8 1.1s-4.2-.9-5.1-2.6l-.3-.3c-.5-.6-1.1-1.1-1.7-1.5.1.3.1.6.1.8l-.3-.3-.5-1s-6.2-7.1-10.2-7.6c-.9.2-1.5.9-1.8 1.7-.5 1.7-1 4.5.3 5.9l6.3 6.7.2.1 1.4 1.7c-.2.5-.4 1.1-.6 1.6 0 .1-.1.2-.1.3v.1l-.1.3v.3c-.2.5-.2.9-.3 1.2l-.3-.1.3.2v.1l.3.1c1.8.8 11.1 4.8 11.5 5.5 2 1.7 4.8 2.1 7.2 1 1.8-.9 3.2-2.4 3.8-4.2 1.1-1.5 2.2-3.1 3.1-4.7.1-.6 2.5-1.4 2.5-1.4s.2 7-1 9.6-3.5 13.9-3.5 13.9h.5l-.1.7h.6c-.2 1.3-1.1 7.3-1.1 7.3-.1 1.3-.4 2.5-.8 3.7-.5.9-.6 5.9-.6 5.9l-.8 3.6.3.6c.6 1.2 1.4 2.3 2.4 3.1-.1.6-.2 1.1-.4 1.6-.3.8-.5 1.7-.4 2.5-.4 1.7-.7 3.4-.8 5.2-.1 1.3-.2 2.7-.6 4l-1 9.1s-.6 7.9-.3 10c.2 1.7.1 3.4-.2 5.1 0 0 .6 6.2.5 6.9s-1 3.6-.5 5.2.2 6.1.2 6.1.3 5.9.7 7.8c.2 1.4.2 2.9-.1 4.3-.1 1.3-.3 2.7-.5 4-.2 0-1.5 2.8 1.3 5.5s1.1 2.3 1.1 2.3-2.2-1.1-2 1.2.6 1.6.6 1.5l-.5 1.7h.4c-.1.1-.2.3-.3.4-.3.4-.7.8-1.1 1.1-.4.4-.7.9-.7 1.5-2.2 2.4-4.8 4.6-7.5 6.4-1.5.8-3 1.8-4.3 2.9-.7.7-.5 1.3.8 1.7 3.7 1.2 7.7 1.2 11.4.2 2.1-.7 4.1-2 5.6-3.6 1.4-.7 2.9-.9 4.5-.7 2.2.4 6.7-2.5 6.7-2.5l-.1-.7-.2-2.1c-.3-.4-.4-.8-.4-1.3 0-.6 0-1.3-.2-1.9 0-.2-.1-.4-.1-.6l.4-.1s-.5-2.7.4-3.2.7-7.4.7-7.4c-.5-.7-1.1-1.3-1.8-1.8-.6-.3-.1-3.5 0-3.9s1-8.5 1-8.5c-.2-1.2-.1-2.5.1-3.7.4-1.1-.5-5.3-.5-5.3-.2-.4-.1-.9.3-1.2.6-.6.4-6.2.4-6.2v-3.6c.2-1.5.6-2.9 1.2-4.3.6-.9.2-3.7.2-3.7v-.8c.2-1.5.6-3 1-4.5.7-2.2 1.5-6.1 1.5-6.1l4.9-12.8v-.2c1.3 2.5 2.1 5.3 2.3 8.1.3 2 .4 3.9.4 5.9 0 2.4.2 4.8.5 7.2 0 0 .7 8.5.7 8.9s.8 6.9 1.4 7.9-.5 4-.8 4.3.1 8 .1 8-.8 6.1-1 7.3-.8 6.1-.3 8 .3 2.1.3 2.1 1.9 1.9.8 2.1c-1.6.3-2.6 1.9-2.2 3.5 0 .1.1.2.1.4.7 1.9 1.4 3.8 2.3 5.6l.9-.2v.6l.1 3.1c.2 1.2.2 2.4.2 3.7-.2.5-.4 2.8-.5 4.1 0 .5-.1.8-.1.8s0 2.8 5.9 1.9 6.9-3.1 6.9-3.1v-.3c.1-.5.3-1.7.4-2.3.2-.8-1.7-4.6-1.7-4.6s-.3-2.6-.8-3.2c-.2-.3-.4-.7-.4-1.1 0-.2-.1-.4-.1-.6l.4.1s-.3-1.8.9-2.4c.8-.4 1.2-1.5.7-2.3 0-1.2.2-2.3.5-3.5-.2-.6 0-1.2.4-1.7.8-.7 1.3-5.9 1.3-5.9l.1-19.8c.2-1.6.2-3.3 0-4.9-.4-1.4-.8-4.1-.3-4.9s.1-4.1.1-4.1 0-7.2.8-9 .5-13 .5-13l.2-7.4s1.7-1.6 1.3-10.1c1.8-.1 3.9-.2 4.2.1.6.5 4.3 2.9 6.5 1.4.9-.6 1.8-1.3 2.6-2l-.9-15.7c.6.9.9 1.5.9 1.5 0-2.2 6.2-9.3 6.2-9.3s5.8-7.5 7.1-8.4 3.8-5.6 3.8-5.6c.4-.9.8-1.8 1.3-2.6-.1-1.5-2-4.1-1.7-4.6zm-13.6 5.5c-1.6.2-4.9 3.8-5 4.6-.1.5-.4 1-.7 1.4 0-.3 0-.6-.1-1-.4-4.6-.8-10.3-.6-10.8.2-1.7.3-3.5.2-5.2l.1-.1c1.1 3.3 4.4 7.2 4.4 7.2s.6 1.7 1.3 1.7.4 2.2.4 2.2z"/><path fill="#65617D" d="M904.1 657.6s1.9-10.1 8.1-10.1l4.5 9.3-3 2.1c0-.1-6.6.1-9.6-1.3z"/><path opacity=".1" d="M916.7 656.7l-3 2.1c-2.6.1-5.3-.1-7.9-.7-.6-.1-1.2-.3-1.7-.6v-.2c.3-1.3.7-2.5 1.2-3.7.2-.5.4-.9.6-1.4.8-1.8 2.2-3.3 3.9-4.3.6-.3 1.3-.5 2.1-.5h.3l.1.2 1.5 3.2 2.9 5.9z"/><path fill="#65617D" d="M968.1 698.6s6.5-.6 7.1-.2 4.3 2.9 6.5 1.3.7-6.8.7-7-.2-7.6-.2-7.6l-3.9-5.3-4.9-9.2-10-1 .3 14.6v7.5l4.4 6.9z"/><path opacity=".1" d="M968.1 698.6s6.5-.6 7.1-.2 4.3 2.9 6.5 1.3.7-6.8.7-7-.2-7.6-.2-7.6l-3.9-5.3-4.9-9.2-10-1 .3 14.6v7.5l4.4 6.9z"/><path fill="#FBBEBE" d="M910.8 647.2s-.5 6.3-4.5 6.4c0 0-1.1-.7-2.6-1.8-3.5-2.6-9-7.6-7.5-12.2 2.2-6.7 12.8 5.6 12.8 5.6l.8.9 1 1.1z"/><path opacity=".1" d="M910.8 647.2s-.5 6.3-4.5 6.4c0 0-1.1-.7-2.6-1.8l-.3-.4c.7.3 1.4.5 2.2.6 1.2.1 2.4-.6 2.8-1.8.4-.8.8-1.7 1.1-2.5.2-.5.3-1 .4-1.6l.9 1.1z"/><path fill="#E7EFFD" d="M909.2 658.7l-.9-1.2-3-3.8-1.5-2c.7.4 1.4.6 2.2.6 1.2.1 2.3-.7 2.8-1.8.4-.8.8-1.7 1.1-2.5.5-1.4.5-2.1.3-2.4.6.5 1.2 1 1.7 1.5l.3.3.1.2 1.5 3v.1c.1 1 .6 7.1-4.6 8z"/><path fill="#65617D" d="M940.3 792.5s-4.4 2.9-6.6 2.4c-1.5-.2-3 .1-4.4.7-1.5 1.6-3.4 2.9-5.5 3.6-3.5 1.2-8.5.7-11.3-.2-1.3-.4-1.4-1-.8-1.7 1.3-1.1 2.7-2.1 4.2-2.9 2.7-1.8 5.2-3.9 7.4-6.3 0-.6.3-1.1.7-1.5.4-.3.7-.7 1-1.1.6-.7 1.1-1.3 1.1-1.3l12.8.4s.2.9.4 1.9c.1.6.2 1.2.2 1.9-.1.5.1.9.4 1.3l.2 2.1.2.7zm26.9 3.6c-.2.6-.3 1.7-.4 2.3v.3s-1 2.3-6.8 3.1-5.8-1.9-5.8-1.9 0-.3.1-.7c.1-1.3.2-2.7.5-4 .1-1.2 0-2.4-.2-3.6l-.1-3.1v-2.2l9.6-1 .3 2.1c.1.4.2.8.4 1.1.5.6.8 3.1.8 3.1s1.8 3.7 1.6 4.5z"/><path opacity=".1" d="M939.1 784.6s.2.9.4 1.9c-1.4.3-7.5 1.3-9 .6-1.7-.6-3.6-1.1-5.4-1.3l.1-.2c.6-.7 1.1-1.3 1.1-1.3l12.8.3zm25.2 2.7c-2.4-.4-7.7.6-9.8 1v-2.2l9.6-1c-.1.8 0 1.5.2 2.2z"/><path fill="#3F3D56" d="M969.7 708.4l-.2 7.3s.3 11.2-.5 13-.8 8.9-.8 8.9.5 3.4-.1 4.1-.2 3.4.3 4.8c.2 1.6.2 3.3 0 4.9l-.1 19.7s-.6 5.1-1.3 5.8c-.4.4-.6 1.1-.4 1.7-.3 1.1-.4 2.3-.5 3.4.4.8.1 1.8-.7 2.3-1.2.6-.9 2.4-.9 2.4-2.8-.7-11 1.1-11 1.1-.9-1.8-1.6-3.7-2.3-5.6-.5-1.5.2-3.1 1.7-3.7.1 0 .2-.1.4-.1 1.1-.2-.8-2.1-.8-2.1s.2-.3-.3-2.1.1-6.7.3-7.9l.9-7.3s-.4-7.7-.1-8 1.3-3.3.8-4.3-1.3-7.5-1.3-7.9-.7-8.8-.7-8.8-.6-5.9-.5-7.1c0-2-.1-3.9-.4-5.9-.2-2.8-.9-5.5-2.2-8v.2l-4.8 12.7s-.8 3.8-1.5 6c-.4 1.5-.8 3-1 4.5v.8s.4 2.8-.2 3.6c-.6 1.3-1.1 2.8-1.2 4.3v3.5s.2 5.6-.4 6.2c-.3.3-.4.8-.3 1.2 0 0 .9 4.2.5 5.3-.2 1.2-.3 2.4-.1 3.6 0 0-.8 8.1-.9 8.5s-.7 3.6 0 3.9c.7.5 1.3 1.1 1.8 1.8 0 0 .3 6.8-.7 7.3s-.4 3.2-.4 3.2-7.5 1.5-9.3.6c-1.7-.6-3.6-1.1-5.4-1.3l.5-1.7c0 .1-.4.6-.6-1.5s1.9-1.2 1.9-1.2 1.7.4-1-2.3-1.4-5.5-1.3-5.5c.3-1.3.4-2.7.5-4 .3-1.4.3-2.8.1-4.3-.4-1.9-.7-7.7-.7-7.7s.3-4.4-.2-6 .3-4.5.5-5.2-.5-6.9-.5-6.9c.3-1.7.4-3.3.2-5-.3-2.1.3-10 .3-10l.9-9c.3-1.3.5-2.7.6-4 .1-1.7.4-3.5.8-5.1 0-.9.1-1.7.4-2.5.4-1.5.7-3 .7-4.5l5-11.4 2.4-10.1 33-.3s.1.9.3 2.5.5 3.9.8 6.8c.3 2.6.6 5.8.9 9.2 1.2 11.3-.9 13.2-.9 13.2z"/><path fill="#FBBEBE" d="M966.6 617.4l-7.7 8.2s-9.9-4-8.8-5.3c.4-.5.3-2.2.1-4-.4-2.9-1.2-6.2-1.2-6.2s17.3-2.8 15.8.1c-.5 1.1-.5 2.3-.1 3.5.5 1.3 1.1 2.6 1.9 3.7z"/><path opacity=".1" d="M964.8 610.3c-.5 1.1-.8 1.2-.5 2.3-2.3 2.4-5.1 5.1-8.7 5.1-1.9 0-3.8-.4-5.5-1.3-.4-2.9-1.2-6.2-1.2-6.2s17.4-2.9 15.9.1z"/><path fill="#FBBEBE" d="M968.1 604.9c.2 6.8-5.2 12.5-12 12.7-6.8.2-12.5-5.2-12.7-12v-.9c.2-6.8 6-12.2 12.8-11.9 6.5.3 11.7 5.6 11.9 12.1z"/><path opacity=".1" d="M969.8 686.6c-1.6 0-7.1.1-13.2.2h-2.2c-7.2.1-14.4-1.3-17.2-1-6.1.6 2.2-5.6 2.2-5.6 4.5 1.1 9.2 1.6 13.9 1.4l1.8-.1c5.5-.3 11.1-.8 14-1.7.2 1.6.4 3.9.7 6.8z"/><path fill="#E3A79F" d="M969.8 686.3c-1.6 0-7.1.1-13.2.2h-2.2c-7.2.1-14.4-1.3-17.2-1-6.1.6 2.2-5.6 2.2-5.6 4.5 1.1 9.2 1.6 13.9 1.4l1.8-.1c5.5-.3 11.1-.8 14-1.7.2 1.5.4 3.9.7 6.8z"/><path opacity=".1" d="M952.4 620.9l-9.5 4.5-7.4 57.1s4.4-2 6.9-.7 10.2.1 10.2.1 5.6-.3 6.5.3 10.6-2.6 10.6-2.6 1.8-4 .4-4.6.4-6.8.4-6.8l-.8-41.2-1.7-5.3-4.5-2.7-4.5 3.6-2.2.3-4.4-2z"/><path fill="#E7EFFD" d="M952.4 620.2l-9.5 4.5-7.4 57.1s4.4-2 6.9-.7 10.2.1 10.2.1 5.6-.3 6.5.3 10.6-2.6 10.6-2.6 1.8-4 .4-4.6.4-6.8.4-6.8l-.8-41.2-1.7-5.3-4.5-2.7-4.6 3.6-2.2.3-4.3-2z"/><path opacity=".1" d="M952.2 622.9s2.8 3.3 2.7 4l-.2 2.3-2.1 4.2s-1.1 5.3-1.1 6.3-1.8 10.5-1.8 10.5l-2.2 14.6-2.8 19.1 2.8 4.8 3.3-2.8 4.4-34 .9-6.7s1-12.1 1-13.3c-.1-1.5-.3-3-.6-4.5 0 0 .7-3.1 3.5-3.8s-.2-.2-.2-.2l-1.6-1.3-1.4.6c.2 0-3.8-1.3-4.6.2z"/><path fill="#3F3D56" d="M951.9 622.6s2.8 3.3 2.7 4-.2 2.3-.2 2.3l-2.1 4.2s-1.2 5.3-1.2 6.3-1.8 10.5-1.8 10.5l-2.2 14.6-2.8 19.1 2.8 4.8 3.3-2.8 4.4-34 .9-6.7s1-12.1 1-13.3c-.1-1.5-.3-3-.6-4.5 0 0 .7-3.1 3.5-3.8s-.2-.2-.2-.2l-1.6-1.3-1.4.6c.2 0-3.7-1.3-4.5.2z"/><path opacity=".1" d="M950.1 617.1s-.4.3-.5 2.4c-.3 2.3-.9 4.5-1.6 6.8 0 0 5.4-3.7 8.1-3.3l-6-5.9z"/><path fill="#E7EFFD" d="M950.1 616.5s-.4.3-.5 2.4c-.3 2.3-.9 4.6-1.6 6.8 0 0 5.4-3.7 8.1-3.3l-6-5.9z"/><path opacity=".1" d="M964.8 615.4l-8.5 7.5s7.2 4.3 8.1 5.3 1.9-10.2 1.9-10.2l-1.5-2.6z"/><path fill="#E7EFFD" d="M965.2 614.8l-8.5 7.5s7.2 4.3 8.1 5.3 1.9-10.2 1.9-10.2l-1.5-2.6z"/><path opacity=".1" d="M950.4 617.1s-.9-.5-1.8.9c-.6.9-1.5 1.6-2.5 2 0 0-9.5 1.5-9.8 2.8l-4.4.3s-1.6.2-1.7 3.5-1 3.6-1 3.6-1.8 3.2-1.7 4.9c0 1-.5 2-1.4 2.5l6.5 16.9s.2 7-1 9.5-3.4 13.8-3.4 13.8.9-.2.9.4-1.1 7.4-1.1 7.4c-.1 1.2-.4 2.5-.8 3.6-.5.9-.6 5.8-.6 5.8l-.8 3.5s2 4.4 5 3.8 8.5-12.4 8.5-12.4l3.5-12.7 2.7-12.6.8-8.5 1.3-18.9 1.8-12.5c-.3 0 1.7-6.7 1-7.6z"/><path fill="#65617D" d="M950.1 616.5s-.9-.5-1.8.9c-.6.9-1.5 1.6-2.5 2 0 0-9.5 1.5-9.8 2.8l-4.4.3s-1.6.2-1.7 3.5-1 3.6-1 3.6-1.8 3.2-1.7 4.9c0 1-.5 2-1.4 2.5l6.5 16.9s.2 7-1 9.5-3.4 13.8-3.4 13.8.9-.2.9.4-1.2 7.4-1.2 7.4c-.1 1.2-.4 2.5-.8 3.6-.5.9-.6 5.8-.6 5.8l-.8 3.5s2 4.4 5 3.8 8.5-12.4 8.5-12.4l3.5-12.7 2.7-12.6.8-8.5 1.3-18.9 1.8-12.5c-.2 0 1.9-6.7 1.1-7.6z"/><path opacity=".1" d="M916.7 656.7l-3 2.1c-2.6.1-5.3-.1-7.9-.7l-1.7-.8-.3-.1.3.1c1.3.5 2.8.5 4.2.1 4.3-1.4 3.8-8.5 3.6-10.1v-.3c.1.1.1.2.2.3l.2.2 1.5 3v.1l2.9 6.1z"/><path fill="#65617D" d="M927.2 636.4l-1.5.4-.2 3c-1.1-.1-2.1.7-2.2 1.8-.2 1.1-.6 2.1-1.3 3 0 0-2.9 2.4-3 4.4l-1.8 1.1s-4.1-.9-5-2.6c0 0 1.9 13.4-8.1 10.1 0 0 11.2 4.9 11.7 5.6 2 1.7 4.7 2.1 7.1 1 1.8-.9 3.1-2.4 3.8-4.2 0 0 3-4.2 3.1-4.8s2.4-1.3 2.4-1.3l4.5-10.8-9.5-6.7z"/><path opacity=".1" d="M963.7 621.7l1.5-6.9c.3 1 .7 1.9 1.3 2.8l2.2 1.7c1 .5 2 .8 3 1 .8 0 5 1.1 5.5 1.7s2.6.2 2.6.2 1.7.6 3.2.9 2.2 2.9 1.9 3.8c-.3 1 0 2.1.7 2.8.5.8.8 1.7.9 2.7.8.2 1.4.8 1.8 1.5.3 1.2.5 2.4.4 3.6l-7.7 10.9c.1 1.7 0 3.4-.2 5.1-.3.9 1.1 16.8 1.1 16.8l1.6 27.3c-.8.7-1.7 1.4-2.6 2-.5.2-.9-9.7-.9-10s-12-18-12-18c-.7-1-1.2-2.1-1.6-3.2 0-.6-1.5-5.8-1.5-5.8l-2.3-10.1 1.1-30.8z"/><path fill="#65617D" d="M989.5 637v.6l-7.8 10.9c.1 1.7 0 3.4-.2 5.1-.2.5.2 6.1.6 10.7.3 3.3.5 6.1.5 6.1l.7 11.6.9 15.8c-.8.7-1.7 1.4-2.6 2-.5.2-.9-9.7-.9-10s-12-18-12-18c-.7-1-1.2-2.1-1.6-3.2 0-.6-1.5-5.8-1.5-5.8l-2.3-10.1 1-31 .9-6.9c.6 1 1.2 1.9 2 2.8l2.2 1.7c1 .5 2 .8 3 1 .8 0 5 1.1 5.5 1.7s2.6.2 2.6.2 1.7.6 3.2.9 2.2 2.9 1.9 3.8c-.3 1 0 2.1.7 2.8.5.8.8 1.7.9 2.7.8.2 1.4.8 1.8 1.5.4.9.5 2 .5 3.1z"/><path opacity=".1" d="M925.9 775.5c.3 0 11.2.4 11 2.2s-11-2.2-11-2.2zm2.5 2.9s7.3 1.2 5.4 2.3-5.4-2.3-5.4-2.3zm27.2-4.1s12.2 1 10.3 2.4-6.1 1.6-6.3 1.6c-1.4-1.2-2.7-2.5-4-4zm-1.5 5.4s6.8 1.1 7 2.4-7-2.4-7-2.4zm3.8-31.3s6.2 1.5 6.5 2.5l-6.5-2.5zm-23.9 4.5s-3.2.9-.1 2.8.1-2.8.1-2.8zm14.3-50c.4 0 6-1.9 8-1 1.4.5 2.9.8 4.4.8l-12.4.2zm.7 5.9v.5l-4.8 12.7s-.8 3.8-1.5 6c-.4 1.5-.8 3-1 4.5l4.3-26.6 3 2.9z"/><path fill="#3F3D56" d="M956.6 686.4h-2.1l-1.2-5.2 1.8-.1 1.5 5.3z"/><path fill="#FBBEBE" d="M981.1 680.1l-1.3 1.1-4.3 3.6s-11.7 6.2-14.9.3c-2.8-5.2 10.4-9 13.6-9.8l.7-.2 6.2 5z"/><path opacity=".1" d="M931.2 629s2.3 1 2.8 2.5-2.8-2.5-2.8-2.5zm-7.1 15.6s-3.3 4-2 5.6 2-5.6 2-5.6zm59.5-13.3s-3.1.3-3.2 3l3.2-3zm-28.9 42.6c.3-.3 7.5-10.9 9.2-10l-9.2 10zm13.4-69c0 2-.5 4-1.5 5.8h-.1c-.8-.2-1.2-1.1-1.8-1.7-.8-.7-1.9-.9-2.8-.4-.9.5-1.5 1.6-1.4 2.7-.4-1.7-.3-3.4-.7-5.1s-1.5-3.4-3.2-3.4c-.7 0-1.5.3-2-.3-.3-.3-.4-.8-.6-1.2-1.1-1.8-4.6-.9-6 0-1.5 1.2-3.1 2.3-4.8 3.3.2-6.8 6-12.2 12.8-11.9 6.7.3 11.9 5.7 12.1 12.2z"/><path fill="#3F3D56" d="M954.2 601.2c.2.4.3.9.6 1.2.5.5 1.3.3 2 .3 1.6 0 2.8 1.7 3.1 3.4s.3 3.4.7 5.1c-.1-1.1.4-2.1 1.4-2.7.9-.5 2-.3 2.8.4.6.6 1 1.5 1.8 1.7s1.5-.6 1.8-1.4c.2-.9.3-1.7.5-2.6.3-1.6 1.4-3 2-4.5.7-1.9.7-3.9-.1-5.8-.4-1-1-1.8-1.4-2.8-.6-1.5-.8-3.2-1.5-4.6-1.2-2.4-4-3.5-6.5-2.7-1.1.4-2.1 1.2-3.3 1.6-1.5.5-3.2.1-4.8-.1s-3.3-.2-4.6.8c-1.5 1.2-1.9 3.5-3.3 4.8-.6.5-1.3.9-1.9 1.4-.7.5-1.1 1.3-1.1 2.1.1 1.1 1.1 2.1.8 3-.1.3-.3.5-.6.8-1.2 1.2-2 2.7-2.5 4.3 2.8.9 5.8-2.2 8-3.7 1.5-1 4.9-1.9 6.1 0z"/><path opacity=".1" d="M981.1 680.1l-1.3 1.1c-1.1-1.9-5.8-5.7-5.8-5.7l.2-.2.7-.2 6.2 5z"/><path fill="#E7EFFD" d="M982.4 678.2s-.5 1.2-1 2.2-1 1.9-1 1.2c-.1-1.5-6.1-6.3-6.1-6.3l.8-.8 1-.9 6.3 4.6z"/><path opacity=".1" d="M982.6 670.4l.7 11.6c-1.6-2.5-6-9-8.9-8.7l6.9-8c.3-.3.5-.7.8-1 .2 3.4.5 6.1.5 6.1z"/><path opacity=".1" d="M982.4 678.2s-.5 1.2-1 2.2c-1.8-2.5-4.3-5.4-6.3-6l1-.9 6.3 4.7z"/><path fill="#65617D" d="M987.6 636.1l1.9 1.5s3.1 0 3.4 2.7 3.2 3.8 3.2 3.8 2.1 2.1 2.1 3.1 1.6 2.8 1.6 2.9 1.6 3.3 1.3 3.9 1.7 3.1 1.1 4c-.5.8-.9 1.7-1.3 2.6 0 0-2.4 4.7-3.7 5.6s-7 8.3-7 8.3-6.1 7.1-6.1 9.3c0 0-6-10-9.5-9.7l6.9-8s1.2-1.3 1.3-2.1 3.3-4.4 4.9-4.5c0 0 .3-2.1-.4-2.2s-1.3-1.7-1.3-1.7-4.6-5.4-4.6-8.8 6.2-10.7 6.2-10.7z"/><path opacity=".1" d="M990.3 641s-4.4 3.2-3.4 4.3 3.4-4.3 3.4-4.3zm.2 13.3s8.1-2.6 9 0h-9zm-50.2 138.2s-4.4 2.9-6.6 2.4c-1.5-.2-3 .1-4.4.7-1.5 1.6-3.4 2.9-5.5 3.6-3.5 1.2-8.5.7-11.3-.2-1.3-.4-1.4-1-.8-1.7 3.1.6 9.9 1.8 11.7.9 2-1.1 4-2.3 5.8-3.6 0 0 4.5-.6 5.1-.6 2-.6 3.9-1.4 5.8-2.2l.2.7zm26.5 5.8v.3s-1 2.3-6.8 3.1-5.8-1.9-5.8-1.9 0-.3.1-.7c1.7.7 5.7 1.5 12.5-.8zm-33.5-157.9s0 11.8-1 13 1-13 1-13zm46.9 3.8l1.5 4.2c0 .1.6-4.1-1.5-4.2zm-36.8-45.4c.4-1-.6-1.9-.8-3-.1.3-.2.6-.2.9.1.8.7 1.5.8 2.3.2-.1.2-.2.2-.2zm17.3 11.2c-.4-1.6-.3-3.4-.6-5s-1.6-3.3-3.2-3.4c-.7 0-1.5.3-2-.3-.3-.3-.4-.8-.6-1.2-1.1-1.8-4.6-.9-6 0-2.1 1.4-5 4.4-7.8 3.7-.1.3-.3.7-.3 1 2.8.9 5.8-2.2 8-3.7 1.4-1 4.9-1.9 6 0 .2.4.3.9.6 1.2.5.5 1.3.3 2 .3 1.6 0 2.8 1.7 3.1 3.4s.3 3.4.7 5.1c-.1-.3 0-.7.1-1.1zm7.8-2c-.3.8-1 1.6-1.8 1.4s-1.2-1.1-1.8-1.7c-.8-.7-1.9-.9-2.8-.4-.9.5-1.4 1.5-1.4 2.5.2-.6.7-1.2 1.2-1.5.9-.5 2-.3 2.8.4.6.6 1 1.5 1.8 1.7s1.5-.6 1.8-1.4l.3-1.5c0 .2-.1.4-.1.5zm2.4-7.1c-.6 1.5-1.6 2.9-2 4.5-.1.3-.1.7-.2 1 .4-1.6 1.4-2.9 2-4.5.3-.7.4-1.4.5-2.2 0 .5-.1.9-.3 1.2z"/><path fill="#DFE3EF" d="M315.4 228h74v76.7h-74V228zm95 0h74v76.7h-74V228z"/><path opacity=".2" d="M505.4 228h74v76.7h-74V228zm94.9 0h74v76.7h-74V228zm95 0h74v76.7h-74V228z"/><path opacity=".1" d="M704.2 244.1l59-44.6 46.3 61.2-59 44.6-46.3-61.2z"/><path fill="#FFF" d="M352.4 236c-6.8 0-12.4 5.5-12.4 12.4 0 6.8 5.5 12.4 12.4 12.4 6.8 0 12.4-5.5 12.4-12.4-.1-6.9-5.6-12.4-12.4-12.4zm8.5 15.6c-.5-.2-1.4-.2-1.8-.6-.2-.2-.1-1-.1-1 .6 0 1.3-.1 1.8-.4.2-.1.1-.2 0-.4-.6-1.1-.4-2.5-.4-3.7.1-1-.4-2-1.2-2.6-.6-.3-1.2-.4-1.9-.4-.5 0-1 .1-1.5.2-2.5 1-1 4.4-1.9 6.3-.1.3-.4.4 0 .6.5.2 1.1.4 1.7.4v.8c-.1.3-.7.5-.9.6-.3.1-.7.2-1 .3-.1 0-.2.2-.1.3 0 .1.1.1.1.1.2 0 .5.1.7.2 1 .3 2 .8 2.7 1.5.7.7 1.1 1.7 1.2 2.7 0 .3-.1.5-.3.7l-.3.2h-.2v-.1c0-1.7-1.1-3.3-2.7-3.9-.8-.3-1.7-.3-2.5-.6-.3-.1-.7-.2-.8-.5-.1-.3-.1-.6-.1-.9v-.7c0-.2.4-.5.5-.6.3-.6.4-1.2.4-1.9.5.1.6-.8.7-1.1s.3-1.2-.1-1.4l.3-.9c.2-.8.1-1.6-.1-2.3-.5-1.5-1.9-2.5-3.5-2.5-1.6-.1-3.1.8-3.8 2.3-.2.8-.3 1.6-.2 2.4 0 .4.1.7.3 1.1-.4.2-.3 1-.2 1.3s.2 1.4.7 1.2c0 .5.1 1 .2 1.4.1.3.3.6.5.8.1.1.2.1.1.3 0 .5 0 1-.1 1.4-.1.4-1.1.6-1.5.7-.8.1-1.7.3-2.5.7-3-5.1-1.3-11.7 3.8-14.7 1.6-1 3.5-1.5 5.3-1.5 2.8 0 5.6 1.1 7.6 3.1 2.1 2 3.2 4.8 3.2 7.6 0 1.5-.3 2.9-.9 4.2-.3-.2-.8-.5-1.2-.7z"/><path opacity=".5" d="M353.5 292.6V279l6.3 6.3 1.6-1.6-9-9-9 9 1.6 1.6 6.3-6.2v13.7h2.2zm95 0V279l6.3 6.3 1.6-1.6-9-9-9 9 1.6 1.6 6.3-6.2v13.7h2.2z"/><path fill="#FFF" d="M447.7 245.9c-.1-.1-.3-.1-.4-.1l-.1.1-5.1 6.8c-.1.1-.1.3 0 .4 0 0 .1.1.2.1l9 .8c.1 0 .3-.1.3-.2v-.2l-3.9-7.7zm5.9 3.6c-.1-.1-.3-.1-.4-.1l-.1.1-1.4 1.4c-.1.1-.1.2 0 .3l1.4 2.8c0 .1.1.1.2.1l2.5.2c.1 0 .3-.1.3-.2v-.2l-2.5-4.4zm.6-2.2c.6 0 1.2-.5 1.3-1.1.1-.7-.3-1.4-1-1.5s-1.4.3-1.5 1c-.1.7.3 1.4 1 1.5 0 .1.1.1.2.1z"/><path fill="#FFF" d="M458.5 242l-3.7-.3-.3-3.7c-.1-.8-.8-1.4-1.6-1.4l-16.6 1.5c-.8.1-1.4.8-1.4 1.6l1.5 16.5c.1.8.8 1.4 1.6 1.4l.9-.1-.1.9c-.1.8.5 1.6 1.4 1.6l16.6 1.5c.8.1 1.6-.5 1.6-1.4l1.5-16.5c0-.8-.6-1.5-1.4-1.6zm-20.6 9.6c-.2 0-.4-.1-.4-.3l-1-11.2c0-.2.1-.4.3-.4l15.6-1.4c.2 0 .4.1.4.3l.3 2.9-11.3-1c-.8-.1-1.6.5-1.6 1.4l-.8 9.5-1.5.2zm20.3-7.6l-1 11.2c0 .2-.2.4-.4.3l-1-.1-14.5-1.3c-.2 0-.4-.2-.4-.4l.2-2.4.8-8.7c0-.2.2-.4.4-.4l11 1 1.6.1 2.9.3c.2.1.4.2.4.4z"/><path fill="#DFE3EF" d="M315.4 380.1h169v126h-169v-126z"/><path d="M419.2 418.8c-31-10.7-64.8 5.7-75.5 36.7-2.1 6.2-3.2 12.8-3.2 19.3 0 2.3-1.9 4.2-4.2 4.2-2.3 0-4.2-1.9-4.2-4.2 0-37.4 30.4-67.8 67.8-67.8 7.4 0 14.8 1.2 21.8 3.6"/><path fill="#FFF" d="M421.7 410.8c27.4 9.4 45.9 35.2 45.9 64.1 0 2.3-1.9 4.2-4.2 4.2-2.3 0-4.2-1.9-4.2-4.2 0-25.3-16.1-47.8-39.9-56.1"/><path d="M406.1 445c-2.6 0-4.9 1.3-6.2 3.4-1.4-2.1-3.7-3.4-6.2-3.4h-.1c-4 0-7.3 3.3-7.3 7.3.2 3.1 1.2 6.1 3.1 8.6 3.9 5.4 10.4 10 10.4 10s6.5-4.7 10.4-10c1.9-2.5 3-5.5 3.1-8.6.1-4-3.2-7.3-7.2-7.3z"/><path fill="#DFE3EF" d="M531 327.5h256.4v190.7H531V327.5z"/><path fill="#FFF" d="M557.3 471h10.5v35.2h-10.5V471zm20-43.6h10.5v78.8h-10.5v-78.8z"/><path fill="#DFE3EF" d="M597.3 388.1h10.5v118h-10.5v-118z"/><path fill="#FFF" d="M617.3 360.1h10.5v146h-10.5v-146z"/><path d="M597.3 360.1h10.5v146h-10.5v-146zm40 65.8h10.5v80.3h-10.5v-80.3z"/><path fill="#FFF" d="M657.3 405.1h10.5v101h-10.5v-101zm20-31.5h10.5v132.5h-10.5V373.6z"/><path opacity=".2" d="M697.3 447.1h10.5v59h-10.5v-59zm20-27.2h10.5v86.3h-10.5v-86.3zm20-31.8h10.5v118h-10.5v-118zm20 0h10.5v118h-10.5v-118z"/><path fill="#65617D" d="M816 309l10.3-5.8 4.8 2.9 96.3 463.7-5.8 1.1-12-10.5L816 309z"/><path opacity=".1" d="M826.3 303.3L921.7 771l5.8-1.1-96.3-463.7-4.9-2.9z"/><path fill="#65617D" d="M755.4 328.6l73.3 7v5.7l-72.9-6.4-.4-6.3zm7.8 69.1H841v8.3h-78.8l1-8.3zm7.1 72.4l78.5-3.1 9.8 3.1v5.3l-69.7 3.7H771l-.7-9z"/><path opacity=".1" d="M789.8 474.5l68.7-4.3v5.3l-69.7 3.7 1-4.7z"/><path opacity=".1" d="M770.3 470.1l19.6 4.3-1 4.7H771l-.7-9z"/><path fill="#65617D" d="M777.4 548.7l86.7-8 9.5 2.5v5.5l-77.4 8.1-18.8 1.7v-9.8z"/><path opacity=".1" d="M795.9 552.2l69.1-7 8.6-2.1v5.5l-77.4 8.1-.3-4.5zm-19.7 1l19.6-1 .3 4.7-18.8 1.7-1.1-5.4z"/><path fill="#65617D" d="M781.5 626.9l97.7-13 8.4 3.3v6.3l-84.3 12.7h-19.8l-2-9.3z"/><path opacity=".1" d="M803.3 632.3l84.3-15v6.3l-84.3 12.7v-4zm-20.6.1l20.6-.1v4h-19.8l-.8-3.9z"/><path fill="#65617D" d="M787.3 707.4l107.2-20 9.5 5.6v4.4l-94.1 22.8-19.4 1.5-3.2-14.3z"/><path opacity=".1" d="M809.9 715.7L904 693v4.4l-94.1 22.8v-4.5zm-20.5 1l20.5-1v4.5l-19.4 1.5-1.1-5z"/><path fill="#65617D" d="M762.2 297.5l-8.7 1.9L784.8 798l9.2 3.4h7.2l-39-503.9z"/><path opacity=".1" d="M758 298.4l36 503h7.2l-39-503.9-4.2.9z"/><path fill="#FFF" d="M713.3 241l59-44.6 46.3 61.2-59 44.6-46.3-61.2z"/><path fill="#DFE3EF" d="M713.3 241l59-44.6 46.3 61.2-59 44.6-46.3-61.2z"/><path opacity=".5" d="M783.3 270.4l-8.2-10.9 8.8 1.2.3-2.3-12.6-1.8-1.7 12.6 2.2.3 1.3-8.8 8.3 10.9 1.6-1.2z"/><path fill="#FFF" d="M763.8 246.5c-5.1 3.9-12.4 2.9-16.2-2.2-1.9-2.5-2.7-5.7-2.2-8.8.1-.5.6-.9 1.1-.8.5.1.9.6.8 1.1-.8 5.3 2.8 10.3 8.1 11.1 2.6.4 5.3-.3 7.4-1.9 4.2-3.3 4.9-9.5 1.6-13.7-3-3.8-8.4-4.8-12.6-2.3l2.2 2.9c.3.4.1 1-.3 1.3-.4.2-.9.2-1.2-.2l-2.8-3.7c-.3-.4-.2-1 .2-1.3 5.2-3.7 12.5-2.5 16.2 2.7 3.5 5.1 2.5 12.1-2.3 15.8z"/><path fill="#FFF" d="M749.9 235.7l7.1-.2c1-.1 1.8.6 1.9 1.6.1 1-.6 1.8-1.6 1.9h-.2c-.2 0-.4 0-.6-.1l-6.8-2.1c-.3-.1-.5-.4-.4-.7.1-.2.4-.4.6-.4z"/><linearGradient id="b" gradientUnits="userSpaceOnUse" x1="-253.75" y1="396.489" x2="-253.75" y2="634.058" gradientTransform="matrix(.9993 -.03839 -.03839 -.9993 1053.156 865.35)"><stop offset="0" stop-color="gray" stop-opacity=".25"/><stop offset=".54" stop-color="gray" stop-opacity=".12"/><stop offset="1" stop-color="gray" stop-opacity=".1"/></linearGradient><path fill="url(#b)" d="M840 471.8c-.7-2.7-1.2-5-1.2-5 0-1.8-.5-3.6-1.4-5.1v-.7l-.2-5.4c.3-1 .8-2 1.3-2.9.9-1.8-.3-8-.3-8s-4-8.7-3.3-14.3-8.4-24.6-8.4-24.6c0-1.9.2-3.7.6-5.5.1-.4.1-.8.1-1.2v-.1c-.3-3.7-3.5-10.5-3.5-10.5l-.1-13.2s1.6-7.9-1.9-18.2c-1.2-3.6-2-6.5-2.5-8.7-.1-.3-.1-.5-.2-.7 6.2-1.2 11-2.2 11-2.2s-4.2-15.1-6.8-17.6-4.8-10.9-4.8-10.9-1.7-10.7.3-13.9 2-8.6 2-8.6 4.6-3.6 5.1-5.1c.7-2.2 1.2-4.5 1.3-6.8-.1-1.8-.7-3.4-.6-4.4s-1.5-4.5-.8-6.3c.2-.5.3-1.1.3-1.7-.1-1.5-.2-3-.6-4.4-1.4-1.1-3-1.9-4.8-2.3l-.1-.4-.3-1.1c-.2-.1-.3-.2-.5-.3v-.4l-.1-1.5.6-3.5c1.2-6.1-6.9-6.7-6.9-6.7-.5-.9-1.4-1.6-2.4-1.9-1.6-.5.1 9.1.9 9.7 1.3 1.5 2.4 3.1 3.4 4.9l.1.2c-.1.1-.2.3-.3.4l.4 2.1.1.3c-.5.7-.9 1.4-1.2 2.2.9.9 1.3 2.1 1.3 3.4-.1 1.4.2 2.8.6 4.2-.1-.1-1.2-1.2-2.2-.9s-3.9 1.3-3.9 1.3-2.2.5-1.9.9-1.4 2.6-1.4 2.6l-6-5.3c-.1-.2-.1-.3-.2-.5-.3-.8-.5-1.6-.6-2.4.6-.2 1.2-.4 1.8-.7.6-.2 1.1-.6 1.6-1.1.5-.8.7-1.6.8-2.5.6-1.7 1.2-3.3 2-4.9 1.1-2.8 1.4-5.8.8-8.7-.1-.9-.5-1.8-1-2.5-1-1.3-2.7-1.7-4-2.7s-2.2-2.5-3.6-3.3c-1.4-.6-3-.6-4.4-.2-2.9.6-5.7 1.8-8.2 3.4-.8.6-1.7 1-2.7 1-.8-.2-1.5-.7-2-1.4v-.2l-.1-.1c-.6 1.4-.8 2.9-.7 4.4 0 .2 0 .5.1.7v.7c-.1.3-.3.6-.5.8-.2.2-.3.4-.4.7 0-.1 0-.2.1-.2-.4.6-.5 1.2-.5 1.9 0 .5.2.9.5 1.3.3.3.6.5 1 .7-.1.6-.1 1.3-.1 1.9.2 3.9 2.4 7.5 5.8 9.4.1.2.2.3.2.5.9 2 1.4 4.1 1.3 6.3 0 .2 0 .3-.1.5l-.2.3s-9.6.5-11.9-1.5-5.5 5.2-5.5 5.2-3.4.8-4.1.2-4.7.1-4.7.1c-1.7-1.4-3.9-2.1-6.1-2-1.4-1-2.9-1.7-4.5-2.3h-.1c-.7-.2-1.4-.3-2.2-.2 0 0-4.9-3.7-6.3-5.8s-8.3-9.5-8.3-9.6v-.4l-.1-1.1c-.2 0-.4.1-.6.1l-.1-.4c-.4-1.1-.9-2.1-1.5-3.1 0 0 0-1.4.3-1.8s-.4-5.6-.4-5.6-4.6-9.8-8.1-2.2c0 0-7 5.1-.8 10.4 0 0 2.5 1.1 2.8 2 .3.6 1.1 2.2 1.7 3.3l.3.5-.1.1.1.9v.4c-1.1.7-1.8 1.4-1.7 1.8.4.8.6 1.7.8 2.5 0 0 8.8 10.1 10 14.6 0 0 22.9 12.4 30.3 13.1l-1 6.7s-.2 4-.1 5.4-.6 7.9-.6 7.9-.9 9.5-1.9 10.9-.6 7.1-.6 7.1c-.2 2.7-.5 5.5-1.2 8.1-.5 2.7-.5 5.4 0 8.1 0 0-3.4 8.7 5.3 2.5 0 0 4.4-.4 9.4-.8v2.6c.1 4.9.3 11.6.8 16.8.7 9 4.2 26.8 4.2 26.8l.3 9c-.1.9-.2 1.7-.2 2.6.1 3.2 1 6.2 2.8 8.9l.9 6s1.8 3.9 1.9 6.2v1.5c0 2.7 1.9 9.2 1.9 9.2s.3 6.5 1.3 6.9-1 3.8-1.5 4.8v-.2l-.1.2c-.2.5-.3 1.1-.3 1.7-.1.9.4 1.8 1.2 2.3 1.9 1.1 3 2 1.4 2.4-.6.1-1.1.3-1.7.4 0-.1-.1-.1-.1-.2-.5.2-.7.7-.6 1.2 0 .8.3 1.5.7 2.2.8 1.7 1.7 3.3 2.8 4.7l.8-.1c-.1.3-.2.6-.4.8-.3.4-.6.8-1.1 1-.4.3-.9.4-1.3.5-1.1.1-2.1.6-2.7 1.5-.9 1.3-1.5 3 .5 4.5l7.1 2.1s12.1 1 11.4-1.7-1.2-5-1.2-5c0-1.7-.4-3.3-1.2-4.8-.1-.2-.3-.5-.5-.7l.4-.1s.7-6 1.8-7.2c.3-.3.3-.5.3-.6.1-.3-.2-.5-.6-.6 0 .1 0 .1-.1.2-.4-.1-.8-.1-1.2-.1 0 0-.5-3.1.7-4.3.2-.3.3-.6.2-.9 0-.4-.1-.9-.2-1.3v.1c-.8-2.5-1.9-4.9-3.1-7.3 0 0-.2-2.9.5-4s-.7-15.5-.7-15.5 0-7-1-10.1.8-7.1.8-7.1v-.2s-.1-.4-.2-1.1v.1c-.3-1.8-.8-5.1-1.1-6.7-.5-2.2-.4-12.6-.4-12.6l1.6-4.5 3.4 7.6 3.7 10.1c1 1.2 1.6 2.7 1.9 4.3v1c0 1.3.4 2.6 1.2 3.6 0 0 1.1 4.8 2.5 6 .9 1 1.5 2.2 1.5 3.6 0 0 1.9 7 2.8 8.2.7 1 .8 3.9.9 4.8v.3s.3 2.5.4 4.6v.7c0 .5-.1 1.1-.2 1.6v.1-.4c-.3 1.4-.4 2.9-.3 4.4 0 2.5.5 5.5 2.2 7.2 2.8 2.9 4.4 2.5 4.4 2.5s-1.1 3.9-2.7 4.7c-.1 0-.1.1-.2.1v-.2c-.3.4-.5.9-.4 1.4.1 2 .9 4 2.2 5.6.4.3.9.6 1.4.7l-.2.2c-.2.1-.3.2-.5.3-.3.1-.5.2-.8.2-1.1.1-2.1.6-2.7 1.5-.9 1.3-1.5 3 .5 4.5l7.1 2.1c-.2-.2 11.9.9 11.1-1.7z"/><path fill="#2D293D" d="M794.1 478l-6.9-2.2c-1.9-1.4-1.4-3.2-.5-4.5.6-.8 1.6-1.4 2.6-1.5.5-.1.9-.2 1.3-.5.4-.2.8-.6 1-1 .5-.8.7-1.7.7-2.7 0 0 7.4-2.5 9.5-.4.4.4.7.8 1 1.3.7 1.5 1.1 3.1 1.1 4.8 0 0 .5 2.4 1.2 5s-11 1.7-11 1.7zm33.1-4.6l-6.9-2.2c-1.9-1.5-1.4-3.2-.5-4.5.6-.9 1.6-1.4 2.6-1.5.3 0 .5-.1.8-.2.2-.1.3-.2.5-.3 1.9-1.1 1.7-3.7 1.7-3.7s7.4-2.5 9.5-.4c.3.3.5.6.8.9.9 1.6 1.3 3.3 1.3 5.1 0 0 .5 2.4 1.2 5s-11 1.8-11 1.8z"/><path opacity=".1" d="M801.8 465.4c.4.4.7.8 1 1.3l-11.1 1.7c.5-.8.7-1.7.7-2.7 0 0 7.3-2.5 9.4-.3zm33.9-3.7l.1 2.1c-1.6 2.9-10.1 2.6-12.6 1.3.2-.1.3-.2.5-.3 1.9-1.1 1.7-3.7 1.7-3.7s7.4-2.5 9.5-.4c.3.3.6.6.8 1z"/><path fill="#575988" d="M836.7 452.6c-.5.9-.9 1.9-1.2 2.9l.3 7.5c-1.8 3.2-11.7 2.5-13.1.9s-3-6.1-1.5-6.9 2.6-4.7 2.6-4.7-1.6.5-4.3-2.5-2.2-9.7-1.8-11.4-.3-7-.3-7 0-3.8-.9-5-2.7-8.2-2.7-8.2c-.1-1.3-.6-2.6-1.5-3.6-1.4-1.2-2.4-6-2.4-6-.8-1.2-1.2-2.6-1.1-4 .2-2.4-1.8-4.9-1.8-4.9l-3.6-10.1-3.3-7.6-1.5 4.5s-.1 10.5.4 12.6 1.3 8 1.3 8-1.8 3.9-.8 7.1 1 10.1 1 10.1 1.4 14.3.7 15.5-.5 4-.5 4 4.2 8.2 3 9.4-.7 4.3-.7 4.3 2.7-.1 1.6 1.1-1.7 7.2-1.7 7.2l-11.4 1.8c-1.1-1.5-2-3.1-2.8-4.7-1.7-3.5.2-3.1 1.7-3.6s.5-1.4-1.3-2.4-.9-3.7-.9-3.7 2.6-4.8 1.6-5.1-1.3-6.9-1.3-6.9-2.2-7.7-1.8-9.8-1.8-7.1-1.8-7.1l-.9-6c-2.2-3.3-3.1-7.3-2.5-11.2l-.3-9.2s-3.3-17.8-4.1-26.8c-.5-5.8-.7-13.7-.8-18.6-.1-2.8-.1-4.6-.1-4.6l40.9-5.9c.1 2 .5 4.1 1 6.1.5 2.2 1.3 5.1 2.4 8.7 3.3 10.3 1.8 18.2 1.8 18.2l.1 13.2s4 8.7 3.3 11.8c-.4 1.8-.6 3.7-.5 5.5 0 0 8.8 19 8.2 24.6s3.2 14.3 3.2 14.3 1 6.4.1 8.2z"/><path opacity=".05" d="M811.3 404l12.4-2.1c.1-.1-6.7 7.4-12.4 2.1z"/><path opacity=".1" d="M821.5 389.7s.6 4.4-2 6.2c-.1 0 4.7-1 2-6.2zm-1.3-14s-10.1 9-13.9 8.4 13.9-8.4 13.9-8.4zM796 408.6s-7.9 2.1-8 5.3 8-5.3 8-5.3z"/><path opacity=".05" d="M799.3 448.2s-11.1 2.5-7.9 3.8c2.8 1 5.6 1.7 8.5 2.2 0 0 3.6.1-.6-6zm-10.1 6.2c-.6-.3-1-.9-1.1-1.6l-.1.2s-.9 2.6.9 3.7l.6.4c.3-.1.7-.1 1-.2 1.5-.6.5-1.5-1.3-2.5zm14.4-1.4c.3-.3.3-1 0-2-.4.9-.6 1.8-.5 2.8.1-.3.3-.6.5-.8zm-3.5-47.2c-.4 1.1-.6 2.3-.6 3.5.2-.8.4-1.7.8-2.4-.1 0-.1-.4-.2-1.1zm25.4-5.9c.1-.3.1-.7.1-1-.1.7-.2 1.4-.2 2 0-.5.1-.7.1-1zm-24.4 39.7c.2-.7.3-1.4.2-2.1-.3.9-.5 1.8-.5 2.7l.3-.6zm3 17.8c-.5 1.9-.9 3.9-1.1 5.9l-11.4 1.8c-1.1-1.5-2-3.1-2.8-4.7-.2-.3-.3-.6-.4-.8-.7.3-.9 1.1.1 3.1.7 1.7 1.7 3.3 2.8 4.8l11.4-1.8s.6-6 1.7-7.2c.6-.7.2-.9-.3-1.1zM788.3 441s.3 6.5 1.3 6.9c.4-1.1.7-2.1.3-2.3-1-.4-1.3-6.9-1.3-6.9s-2.2-7.7-1.8-9.8-1.8-7.1-1.8-7.1l-.9-6c-2.2-3.3-3.1-7.3-2.5-11.2l-.4-9.2s-3.3-17.8-4.1-26.8c-.5-5.8-.7-13.7-.8-18.6v-2.3h-.3s0 1.8.1 4.6c.1 4.9.3 12.8.8 18.6.7 9 4.1 26.8 4.1 26.8l.3 9.2c-.5 4 .4 8 2.6 11.3l.9 6s2.2 5 1.8 7.1 1.7 9.7 1.7 9.7zm34.6 20.3c-1-1.3-1.7-2.8-2-4.5-1.1 1.1.4 5.2 1.7 6.7s11.3 2.3 13.1-.9l-.1-1.8c-2.4 2.8-11.3 2.1-12.7.5zM837 450c-.5.9-.9 1.9-1.2 2.9v1.3c.3-.7.6-1.3.9-1.9.3-.7.4-1.5.3-2.3zm-13.8 2.1c.3-.7.6-1.5.8-2.3 0 0-1.6.5-4.3-2.5-2-2.1-2.2-6.3-2-9-.4 1.6-.9 8.4 1.8 11.4 1.7 1.8 3 2.3 3.7 2.4zm-5.8-20.9c.2 1.9.4 3.7.4 5.6 0-.4.1-.7.2-.9.4-1.6-.3-7-.3-7s-.1-3.8-.9-5-2.7-8.2-2.7-8.2c-.1-1.3-.6-2.6-1.5-3.6-1.4-1.2-2.4-6-2.4-6-.8-1.2-1.2-2.6-1.1-4 .2-2.4-1.8-4.9-1.8-4.9l-3.6-10.1-3.3-7.6-1.5 4.5v1.5l1.3-3.7 3.3 7.6 3.6 10.1s2 2.5 1.8 4.9c-.1 1.4.3 2.8 1.1 4 0 0 1 4.8 2.4 6 .9 1 1.4 2.2 1.5 3.5 0 0 1.9 7 2.7 8.2s.8 5.1.8 5.1z"/><path fill="#FFCDD3" d="M818.7 256.1l-.6 3.5.1 1.5.1 1.1-4 .6-.5-.8c-1-1.7-2-3.3-3.3-4.9-.8-.6-2.4-10.2-.8-9.7 1 .3 1.8 1 2.3 1.9 0 .1 7.8.7 6.7 6.8z"/><path opacity=".1" d="M818.3 262.3l-4 .6-.5-.8c1-1.3 2.9-1.7 4.3-.9l.2 1.1z"/><path fill="#DCE6F2" d="M819.3 264.1l-5.2 1.4-.1-.8-.4-2.1c1.1-1.6 3.4-2 5-.9l.3 1.1.4 1.3z"/><path fill="#FFCDD3" d="M734.4 259.7l-5.5 3.2-.5-1c-.6-1.1-1.4-2.7-1.7-3.3-.4-.9-2.7-2-2.7-2-6.1-5.4.7-10.4.7-10.4 3.4-7.6 7.9 2.2 7.9 2.2s.8 5.2.4 5.6-.3 1.8-.3 1.8c.6 1 1.1 2.1 1.5 3.1.1.5.2.8.2.8z"/><path opacity=".1" d="M734.4 259.7l-5.5 3.2-.5-1c.8-.7 3.5-3.1 4.4-3h1.3c.2.5.3.8.3.8z"/><path fill="#DCE6F2" d="M735 261.4l-6.1 3.3-.2-1.4-.1-.9s3.5-3.3 4.6-3.2c.5.1 1.1 0 1.6-.1l.1 1.1.1 1.2z"/><path fill="#FFCDD3" d="M804.3 279.7s-27.2 4.1-22.2 2.3c3.5-1.3 4.8-3.6 5-6.1.1-2.2-.4-4.3-1.3-6.3-.7-1.7-1.6-3.3-2.6-4.8 0 0 20.5-12.3 16.7-1.7-.6 1.6-.9 3.3-1 5-.1 1.7.2 3.4.7 5 1 2.6 2.6 4.9 4.7 6.6z"/><path opacity=".1" d="M800 263c-.6 1.6-.9 3.3-1 5-1.9 1.7-4.1 1.7-6.8 1.8-2.1.1-4.5.7-6.2-.3-.7-1.7-1.6-3.3-2.6-4.8-.1 0 20.4-12.3 16.6-1.7z"/><circle fill="#FFCDD3" cx="791.4" cy="259.3" r="11.3"/><path opacity=".1" d="M804.3 279.7s-27.2 4.1-22.2 2.3c3.5-1.3 4.8-3.6 5-6.1 1.3-1.5 4-2.7 5.7-3.3 1.6-.6 3.3-.7 5-.3.6.2 1.3.4 1.8.8 1 2.5 2.6 4.9 4.7 6.6zm15-15.6l-5.2 1.4-.1-.8c1.1-1.6 3.1-2.4 5-1.9l.3 1.3zm-84.3-2.7l-6.1 3.3-.2-1.4c2-1.2 4.1-2.2 6.2-3l.1 1.1zm82.8 86.8c-10.5 2.1-25.5 4.8-27.9 4.2-2-.5-8.3-.2-13.8.2-.1-2.8-.1-4.6-.1-4.6l40.9-5.9c.1 2.1.4 4.1.9 6.1z"/><path fill="#656691" d="M828.3 345.3s-34.6 7.3-38.4 6.3-23 1-23 1c-8.4 6.1-5.1-2.6-5.1-2.6-.5-2.7-.5-5.4 0-8.1.6-2.7 1-5.4 1.1-8.1 0 0-.4-5.7.6-7.1s1.9-10.9 1.9-10.9.7-6.5.6-7.9.1-5.4.1-5.4l1-6.7c-7.2-.7-29.3-13.1-29.3-13.1-1.2-4.4-9.7-14.6-9.7-14.6-.1-.9-.4-1.7-.8-2.5-.6-1.5 7.8-4.9 7.8-4.9s6.7 7.5 8.1 9.6 6.1 5.8 6.1 5.8c.7-.1 1.4 0 2.1.2h.1c1.6.5 3 1.3 4.3 2.3 2.1-.1 4.2.6 5.9 2 0 0 3.9-.7 4.6-.1s4-.1 4-.1 3-7.2 5.3-5.2 11.5 1.5 11.5 1.5c1.2-1.7 4.1-3 6-3.7 1.6-.6 3.3-.7 5-.3.7.2 1.4.5 2 .9l5.8 5.3s1.5-2.1 1.3-2.6 1.9-.9 1.9-.9 2.7-1 3.8-1.3 2 .8 2.1.9c-.5-1.3-.7-2.7-.6-4.1 0-1.2-.4-2.5-1.3-3.4 3-8.3 10.8-1.8 10.8-1.8s1 4.4.3 6.2 1 5.3.8 6.2.5 2.5.5 4.4c-.1 2.3-.5 4.6-1.3 6.8-.5 1.5-4.9 5.1-4.9 5.1s-.1 5.4-2 8.6-.2 13.9-.2 13.9 2.2 8.3 4.7 10.9 6.5 17.5 6.5 17.5z"/><path opacity=".1" d="M775 284.7s-1.2-3.1-2.1-3.3c-1-.3-1.9-.7-2.8-1.1l.6-1.2s3.6.8 4.2 1.9.2 3.7.1 3.7zm-19.3-6.2c-.2 1-8.6 2.1-8.6 2.1l4.1-4.5h.1c1.6.7 3.1 1.5 4.4 2.4z"/><circle fill="#575988" cx="730.7" cy="266.4" r=".8"/><circle fill="#575988" cx="731.8" cy="267.9" r=".8"/><circle fill="#575988" cx="732.8" cy="269.3" r=".8"/><circle fill="#575988" cx="733.8" cy="270.8" r=".8"/><circle fill="#575988" cx="823.4" cy="267.2" r=".6"/><circle fill="#575988" cx="823.5" cy="268.6" r=".6"/><circle fill="#575988" cx="823.7" cy="270" r=".6"/><path opacity=".1" d="M776.1 310.5c-.1-.1 22.4 26.1 38.4 9.8 0 0-26.2 4.6-38.4-9.8zM764.3 325s12.8-.1 14.3 3.5l.1 3.8c-.7.4-1.6.5-2.4.1-1.3-.6-9.2-4.3-11.9-2.3l-.1-5.1z"/><path fill="#656691" d="M764.6 325s12.3-.1 13.7 3.3l.1 3.7c-.7.4-1.6.4-2.3.1-1.3-.6-8.8-4.1-11.4-2.2l-.1-4.9z"/><path opacity=".1" d="M770.3 296.9c1.4 3 3.2 5.8 5.3 8.3 2.3 2.8 5 5.3 8.1 7.2-.1.1-13.2-13.7-13.4-15.5zm-4.8-14.7s2.5 9.1 8.1 12.1l-8.1-12.1zm-3.3 1.1c-.1-.2-1.6 7.4 7.5 11.2.1-.1-3.8-1.2-7.5-11.2zm55.8-8.4c-.1 0 4.6 2.8 5.8 4 0 .1-3.1-4.3-5.8-4z"/><path fill="#2D293D" d="M788.7 269.6c.1.6.5 1.1.9 1.5.3.1.7.2 1.1.2 3.5.1 7 .1 10.2-1.4.6-.2 1.1-.6 1.5-1.1.4-.8.7-1.6.8-2.5.5-1.7 1.1-3.3 1.9-4.9 1-2.8 1.3-5.8.8-8.7-.1-.9-.5-1.7-1-2.5-1-1.3-2.7-1.7-3.9-2.7s-2.1-2.6-3.5-3.3c-1.4-.5-2.9-.6-4.3-.2-2.8.6-5.5 1.7-7.8 3.3-.7.6-1.7 1-2.6 1-.8-.2-1.5-.7-2-1.4-.6 1.6-.8 3.3-.7 4.9v.8c-.1.3-.3.6-.5.8-.8 1-1.3 2.6-.4 3.6.4.4 1 .6 1.3 1.1.7.8.5 1.9.5 2.9 0 .4.1.7.3 1 .4.3.9.4 1.4.3.5-.2 1-.2 1.5-.2.5.2 1 .5 1.3 1 1.6 1.9 2.6 4.2 3.2 6.5z"/><path opacity=".1" d="M802.8 268c-.4.5-.9.9-1.5 1.1-3.1 1.5-6.7 1.4-10.2 1.4-.4 0-.7 0-1.1-.2-.5-.4-.8-.9-.9-1.5-.6-2.4-1.6-4.6-3.1-6.6-.3-.5-.8-.8-1.3-.9-.5 0-1 0-1.5.2s-1 0-1.4-.3c-.2-.3-.3-.6-.3-1 0-1 .2-2.2-.5-2.9-.4-.4-.9-.6-1.3-1.1-.5-.6-.6-1.5-.3-2.3-.6.9-.6 2.1 0 3 .4.4 1 .6 1.3 1.1.7.8.5 1.9.5 2.9 0 .4.1.7.3 1 .4.3.9.4 1.4.3.5-.2 1-.2 1.5-.2.5.2 1 .5 1.3 1 1.5 1.9 2.6 4.2 3.1 6.6.1.6.4 1.1.9 1.5.3.1.7.2 1.1.2 3.5.1 7 .1 10.2-1.4.6-.2 1.1-.6 1.5-1.1.2-.3.4-.6.5-.9l-.2.1zm-22.6-15.6c.1-.2.3-.4.3-.6v-.7c-.1-1.4 0-2.8.4-4.1l-.1-.1c-.6 1.6-.8 3.3-.7 4.9.1.3.1.4.1.6zm6.8 24.2s14.2 1.3 15.4-.9m11.8-6s7.8-.3 9.7 2.6"/><path fill="#FFF" d="M828.8 618.8l74 .1-.1 76.7-74-.1.1-76.7z"/><path fill="#FFF" d="M828.8 618.8l74 .1-.1 76.7-74-.1.1-76.7z"/><path opacity=".5" d="M866.8 684.7V671l6.3 6.3 1.6-1.6-9-9-9 9 1.6 1.6 6.3-6.2v13.7l2.2-.1z"/><path fill="#DFE3EF" d="M853.4 638.4h12.3v-12.3h-.9c-6.3 0-11.4 5.1-11.4 11.4v.9z"/><path fill="#DFE3EF" d="M857.7 646.4c3.9 4.9 11.1 5.7 16.1 1.8 4.9-3.9 5.7-11.1 1.8-16.1-2-2.5-4.9-4-8-4.2v12.2h-12.3c0 2.3.9 4.5 2.4 6.3z"/><path d="M213.8 103.3c-6.4 13.3-17 28.5-28.9 22.7S164 95.6 170.5 82.3s21.4-19.4 33.4-13.6 16.3 21.2 9.9 34.6z"/><path d="M188.3 134.4s-2.3-.4-1.4-2.3c.1-.2.2-.3.3-.5.4-.5.6-1.2.8-1.8.1-.2.1-.5.1-.7.1-1 .1-2.1-.1-3.1l6.4-.4s-2.5 2.1-2.2 3.2c0 .2.1.3.3.4.1.1.3.1.4.2.2 0 .3.1.5.1 1.7.6 1 1.4 1 1.4-.4 2.8-6.1 3.5-6.1 3.5z"/><path fill="#444053" d="M192.3 129.2l-4.5.6c.1-.2.1-.5.1-.7 1.1 0 2.9-.2 4.1-.3.1.2.2.3.3.4z"/><path d="M188.3 134.4s-2.3-.4-1.4-2.3c.9.2 1.8.3 2.8.1 1.5-.4 2.8-1.3 3.7-2.7 1.7.6 1 1.4 1 1.4-.4 2.8-6.1 3.5-6.1 3.5z"/><path opacity=".1" d="M188.3 134.4s-2.3-.4-1.4-2.3c.9.2 1.8.3 2.8.1 1.5-.4 2.8-1.3 3.7-2.7 1.7.6 1 1.4 1 1.4-.4 2.8-6.1 3.5-6.1 3.5z"/><path opacity=".1" fill="#FFF" d="M191.6 70s-7.1-.8-9.1 3.9c.9-.1 1.7-.1 2.6.2.5.2 1.1.3 1.7.3 1-2 2.8-3.5 4.8-4.4z"/><path d="M177.6 166.7c-1.2 1.3-2.5 2.4-4 3.3-.4.3-.8.5-1.3.8-11.3 6.2-31.3 6.3-40.7-1.9-8.8-7.7-11.8-19.3-8.4-28.7.2-.5.3-.9.6-1.4.9-2.1 2.1-4 3.6-5.7 7.1-8.1 19-9.7 29.2-4.8.9.4 1.8.9 2.6 1.4.4.2.8.5 1.2.8 1 .7 2.1 1.5 3 2.3.5.5 1 .9 1.6 1.4l.1.1c3.2 2.9 6.2 6.1 8.9 9.4.8 1.1 1.6 2.1 2.3 3.2.5.7 1 1.5 1.4 2.2 1.9 3 2.9 6.5 2.9 10 0 .3 0 .6-.1 1v.1c-.2 1.3-.5 2.5-1.1 3.7-.5 1-1.1 1.9-1.8 2.8z"/><path opacity=".1" d="M177.6 166.7c-1.2 1.3-2.5 2.4-4 3.3-.4.3-.8.5-1.3.8-11.3 6.2-31.3 6.3-40.7-1.9-8.8-7.7-11.8-19.3-8.4-28.7.2-.5.3-.9.6-1.4.9-2.1 2.1-4 3.6-5.7 7.1-8.1 19-9.7 29.2-4.8.9.4 1.8.9 2.6 1.4.4.2.8.5 1.2.8 1 .7 2.1 1.5 3 2.3.5.5 1 .9 1.6 1.4l.1.1c3.2 2.9 6.2 6.1 8.9 9.4.8 1.1 1.6 2.1 2.3 3.2.5.7 1 1.5 1.4 2.2 1.9 3 2.9 6.5 2.9 10 0 .3 0 .6-.1 1v.1c-.2 1.3-.5 2.5-1.1 3.7-.5 1-1.1 1.9-1.8 2.8z"/><path d="M184 166.4l-.4-.4c-.4-.5-.9-.9-1.5-1.2l-.6-.3c-.6-.3-1.3-.5-2-.6-.3-.1-.7-.1-1-.1l.9-4.3v-.1l.4-1.9c.3.5.6 1.1.9 1.6.5.7 1 1.4 1.6 1.4.2 0 .3-.1.4-.2.1-.1.2-.2.3-.4.1-.2.2-.3.3-.4 1-1.4 1.6-.5 1.6-.5 1.1.4 1.6 1.8 1.8 3.1 0 .2 0 .4.1.6.1 1 0 1.9-.1 2.9-.1.1-1.1 2.2-2.7.8z"/><path fill="#444053" d="M182.1 164.8l-.6-.3c.2-.9.5-2.3.7-3.4 0-.1 0-.1.1-.2s0-.2.1-.3c.2 0 .3-.1.4-.2l-.1.7v.3l-.6 3.4z"/><path d="M184 166.4c.4-.8.7-1.7.8-2.6 0-.6 0-1.1-.2-1.6-.1-.2-.1-.3-.1-.5-.2-.8-.7-1.5-1.3-2.1 1-1.4 1.6-.5 1.6-.5 1.1.4 1.6 1.8 1.8 3.1 0 .2 0 .4.1.6.1 1 0 1.9-.1 2.9 0 0-1 2.1-2.6.7z"/><path opacity=".1" d="M184 166.4c.4-.8.7-1.7.8-2.6 0-.6 0-1.1-.2-1.6-.1-.2-.1-.3-.1-.5-.2-.8-.7-1.5-1.3-2.1 1-1.4 1.6-.5 1.6-.5 1.1.4 1.6 1.8 1.8 3.1 0 .2 0 .4.1.6.1 1 0 1.9-.1 2.9 0 0-1 2.1-2.6.7z"/><path opacity=".1" fill="#FFF" d="M125.5 145.1s-2.7 6.6 1.3 9.8c.1-.9.4-1.7.8-2.4.4-.4.6-1 .8-1.5-1.7-1.5-2.7-3.6-2.9-5.9z"/><path d="M227.3 125.3c-5.4 3.5-11.6 6.8-17.6 8.6-4.6 1.4-8.9 1.8-12.6.7-1.6-.5-3-1.3-4.3-2.4-.8-.8-1.5-1.6-2.1-2.6-4.2-6.6-4.1-18.2-.8-28.3 2.3-7 6.2-13.2 11.3-16.5 12.5-8 28.4-5.4 35.6 5.8s2.9 26.7-9.5 34.7z"/><path opacity=".1" d="M227.3 125.3c-5.4 3.5-11.6 6.8-17.6 8.6-4.6 1.4-8.9 1.8-12.6.7-1.6-.5-3-1.3-4.3-2.4-.8-.8-1.5-1.6-2.1-2.6-4.2-6.6-4.1-18.2-.8-28.3 2.3-7 6.2-13.2 11.3-16.5 12.5-8 28.4-5.4 35.6 5.8s2.9 26.7-9.5 34.7z"/><path d="M196.1 138.7c-1.6 2.2-6.9-.1-6.9-.1s-1.8-1.6 0-2.7c.2-.1.3-.2.5-.3.6-.3 1.1-.7 1.6-1.1l.5-.5c.4-.5.8-1.1 1.1-1.8.2-.3.3-.6.4-.9l5.6 3c-.6.1-1.2.2-1.8.4-.8.3-1.6.6-1.8 1.2-.1.2-.1.3 0 .5.1.1.2.3.3.4.1.1.2.2.3.4 1.3 1.1.2 1.5.2 1.5z"/><path fill="#444053" d="M195.4 136.2l-4.1-1.8.5-.5c1 .6 2.6 1.4 3.6 1.9v.4z"/><path d="M196.1 138.7c-1.6 2.2-6.9-.1-6.9-.1s-1.8-1.6 0-2.7c.7.7 1.4 1.2 2.3 1.5 1.5.5 3.1.3 4.5-.4 1.2 1.3.1 1.7.1 1.7z"/><path opacity=".1" d="M196.1 138.7c-1.6 2.2-6.9-.1-6.9-.1s-1.8-1.6 0-2.7c.7.7 1.4 1.2 2.3 1.5 1.5.5 3.1.3 4.5-.4 1.2 1.3.1 1.7.1 1.7z"/><path opacity=".1" fill="#FFF" d="M225.7 85.4s-5.6-4.4-9.8-1.5c.8.3 1.5.8 2.1 1.5.3.5.8.9 1.3 1.1 1.9-1.1 4.2-1.5 6.4-1.1z"/><g opacity=".1"><path d="M114.6 120.8c-.5.7-.7 1.6-.8 2.4-4-3.2-1.3-9.8-1.3-9.8.2 2.2 1.2 4.3 2.9 5.9-.1.5-.4 1.1-.8 1.5zm50.9 11.2l1.3-6.2c.3.5.6 1.1.9 1.6 0 1.7-.5 3.3-1.2 4.8-.4-.1-.7-.1-1-.2zm-.4 2.2c-.2.2-.4.4-.6.7-1.2 1.3-2.5 2.4-4 3.3-.4.3-.8.5-1.3.8-9.7 5.3-25.8 6.2-36.1 1.1.9-2.6 2.4-5 4.2-7.1 7.1-8.1 19-9.7 29.2-4.8 2.5 1.2 4.8 2.7 6.8 4.5.7.5 1.3 1 1.8 1.5z"/><path d="M171 134.7l-.4-.4c-.4-.5-.9-.9-1.5-1.2l-.6-.3c-.6-.3-1.3-.5-2-.6-.3-.1-.7-.1-1-.1l1.3-6.2c.3.5.6 1.1.9 1.6.5.7 1.1 1.4 1.6 1.4.2 0 .3-.1.4-.2.1-.1.2-.2.3-.4l.3-.4c1-1.4 1.6-.5 1.6-.5 2.6.9 1.7 6.6 1.7 6.6s-1 2-2.6.7z"/><path d="M169.1 133.1l-.6-.3c.3-1.1.6-2.9.8-4 .2 0 .3-.1.4-.2l-.6 4.5zm1.9 1.6c.4-.8.7-1.7.8-2.6 0-1.6-.5-3.1-1.6-4.3 1-1.4 1.6-.5 1.6-.5 2.6.9 1.7 6.6 1.7 6.6s-.9 2.1-2.5.8z"/><path opacity=".1" d="M171 134.7c.4-.8.7-1.7.8-2.6 0-1.6-.5-3.1-1.6-4.3 1-1.4 1.6-.5 1.6-.5 2.6.9 1.7 6.6 1.7 6.6s-.9 2.1-2.5.8zm-57.1-11.5c-4-3.2-1.3-9.8-1.3-9.8.2 2.2 1.2 4.3 2.9 5.9-.1.6-.4 1.1-.8 1.5-.5.7-.8 1.5-.8 2.4z"/></g><path d="M165.4 133.7l-.4.4c-1.1 1.1-2.3 2.1-3.6 2.9l-.4.2c-.3.2-.6.4-.9.5-9.8 5.4-26.1 6.2-36.3 1-1.6-.8-3-1.7-4.3-2.9-11.1-9.8-13-25.8-4.2-35.8 7.1-8.1 19-9.7 29.2-4.8.3.2.6.3.9.5 2.1 1.1 4.1 2.4 5.9 4 3.9 3.3 7.4 7 10.6 11 .6.8 1.3 1.7 1.8 2.5.2.2.3.5.4.7.3.4.5.8.8 1.3s.4.7.6 1c1.9 3 2.9 6.5 2.9 10 0 1.7-.5 3.3-1.2 4.8-.4.9-1 1.9-1.8 2.7z"/><path d="M171.9 133.4l-.4-.4c-.4-.5-.9-.9-1.5-1.2l-.6-.3c-.6-.3-1.3-.5-2-.6-.3-.1-.7-.1-1-.1l1.3-6.2c.3.5.6 1.1.9 1.6.5.7 1.1 1.4 1.6 1.4.2 0 .3-.1.4-.2.1-.1.2-.2.3-.4.1-.2.2-.3.3-.4 1-1.4 1.6-.5 1.6-.5 2.6.9 1.7 6.6 1.7 6.6s-1.1 2.1-2.6.7z"/><path fill="#444053" d="M169.9 131.8l-.6-.3c.3-1.1.6-2.9.8-4 .2 0 .3-.1.4-.2l-.6 4.5z"/><path d="M171.9 133.4c.4-.8.7-1.7.8-2.6 0-1.6-.5-3.1-1.6-4.3 1-1.4 1.6-.5 1.6-.5 2.6.9 1.7 6.6 1.7 6.6s-.9 2.2-2.5.8z"/><path opacity=".1" d="M171.9 133.4c.4-.8.7-1.7.8-2.6 0-1.6-.5-3.1-1.6-4.3 1-1.4 1.6-.5 1.6-.5 2.6.9 1.7 6.6 1.7 6.6s-.9 2.2-2.5.8z"/><path opacity=".1" fill="#FFF" d="M113.3 112.2s-2.7 6.6 1.3 9.8c.1-.9.4-1.7.8-2.4.4-.4.6-1 .8-1.5-1.6-1.6-2.6-3.7-2.9-5.9z"/><g opacity=".1"><path d="M154.3 67.5c-.5.2-1.1.3-1.7.2-.9 0-1.7.3-2.4.7.4-5.1 7.4-6.6 7.4-6.6-1.8 1.5-3 3.5-3.3 5.7zm9.9 46.4c.5.7.9 1.5 1.4 2.3-1-.3-1.9-.7-2.8-1.2-7.2-3.6-14.3-11.4-18.3-19.7 2.5 1.2 4.8 2.7 6.8 4.5 3.9 3.3 7.4 7 10.6 11 .8 1 1.6 2 2.3 3.1zm12.9 1.4c-1.4.9-3 1.5-4.6 1.7-.1-.3-.3-.6-.5-.9l5.9-2.4c-.4.5-.6 1-.8 1.6z"/><path d="M175 123.9s-2.3.4-2.1-1.7c0-.2.1-.4.1-.6.2-.6.2-1.3.1-1.9 0-.2-.1-.5-.1-.7-.1-.7-.3-1.4-.6-2-.1-.3-.3-.6-.5-.9l5.9-2.4c-.3.5-.6 1.1-.8 1.6-.3.8-.5 1.7-.2 2.1.1.1.2.2.4.3h.9c1.8 0 1.4 1 1.4 1 .7 2.7-4.5 5.2-4.5 5.2z"/><path d="M177.2 117.6l-4 2c0-.2-.1-.5-.1-.7 1.1-.4 2.7-1.1 3.7-1.6.1.2.3.3.4.3zm-2.2 6.3s-2.3.4-2.1-1.7c.9-.1 1.8-.4 2.6-.8 1.3-.9 2.2-2.2 2.6-3.7 1.8 0 1.4 1 1.4 1 .7 2.7-4.5 5.2-4.5 5.2z"/><path opacity=".1" d="M175 123.9s-2.3.4-2.1-1.7c.9-.1 1.8-.4 2.6-.8 1.3-.9 2.2-2.2 2.6-3.7 1.8 0 1.4 1 1.4 1 .7 2.7-4.5 5.2-4.5 5.2zm-20.7-56.4c-.5.2-1.1.3-1.7.2-.9 0-1.7.3-2.4.7.4-5.1 7.4-6.6 7.4-6.6-1.8 1.5-3 3.5-3.3 5.7z"/></g><path d="M177.5 114.7c-1.4.9-3 1.5-4.6 1.8-1.1.2-2.2.2-3.3 0-1.6-.2-3.1-.6-4.6-1.2-.6-.2-1.2-.5-1.8-.8l-.1-.1c-6.8-3.5-13.6-10.7-17.6-18.6-2.8-5.4-4.2-11-3.6-16 1.8-14.7 14-25.3 27.2-23.7s22.4 14.9 20.6 29.5c-.6 5.1-1.6 10.1-3.1 14.9-.1.4-.3.8-.4 1.3-2.1 5.6-4.8 10.4-8.7 12.9z"/><path opacity=".1" d="M177.5 114.7c-1.4.9-3 1.5-4.6 1.8-1.1.2-2.2.2-3.3 0-1.6-.2-3.1-.6-4.6-1.2-.6-.2-1.2-.5-1.8-.8l-.1-.1c-6.8-3.5-13.6-10.7-17.6-18.6-2.8-5.4-4.2-11-3.6-16 1.8-14.7 14-25.3 27.2-23.7s22.4 14.9 20.6 29.5c-.6 5.1-1.6 10.1-3.1 14.9-.1.4-.3.8-.4 1.3-2.1 5.6-4.8 10.4-8.7 12.9z"/><path opacity=".1" fill="#FFF" d="M157.9 61.2s-7 1.5-7.4 6.6c.8-.4 1.6-.6 2.5-.7.6.1 1.1 0 1.7-.2.3-2.2 1.5-4.2 3.2-5.7z"/><path d="M251.1 174.6c-8.7 10.1-24.8 10.4-36 .7-5.4-4.7-11.1-10.4-14.4-16.3-1.9-3-2.9-6.5-3-10 0-1.7.4-3.3 1.1-4.8.5-1 1.1-1.9 1.9-2.8 2.5-2.6 5.5-4.6 8.9-5.9 11.5-4.6 28.5-4.1 37 3.3 11.1 9.8 13.2 25.8 4.5 35.8z"/><path opacity=".1" fill="#FFF" d="M252.9 162.5s2.7-6.6-1.4-9.8c-.1.9-.4 1.7-.8 2.4-.4.4-.6 1-.7 1.5 1.6 1.6 2.6 3.7 2.9 5.9z"/><path opacity=".1" d="M200.7 159.1c-1.9-3-2.9-6.5-3-10-.5-.7-1.1-1.4-1.6-1.4-.2 0-.3.1-.4.2-.1.1-.2.2-.3.4-.1.1-.2.3-.3.4-1 1.5-1.6.6-1.6.6-2.6-.9-1.8-6.6-1.8-6.6s1-2.2 2.6-.8l.4.4c.4.5 1 .9 1.5 1.2l.6.3c.6.3 1.3.5 2 .6.5-1 1.1-1.9 1.9-2.8 2.5-2.6 5.5-4.6 8.9-5.9-1.5 8.8-4.1 18.1-8.9 23.4zm-14.1 3c-.7-.1-1.4-.3-2.1-.5-.6-.2-1.3-.4-1.9-.6l-.4-.2c-.5-.2-1.1-.5-1.6-.8s-.8-.4-1.2-.7c-7.6-4.4-15-13.2-18.3-22.2-.9-2.4-1.5-5-1.8-7.6-.1-1.4-.1-2.8.1-4.2.5-3.9 1.8-7.8 3.8-11.2.2-.4.4-.7.7-1.1 5-7.7 13.4-12.4 22.4-11.4-1.9 5.6-4.7 10.4-8.6 12.9-.3.8-.5 1.7-.2 2.1.1.1.2.2.4.3h.9c1.8 0 1.4 1 1.4 1 .7 2.7-4.5 5.2-4.5 5.2s-2.3.4-2.1-1.7c0-.2.1-.4.1-.6.2-.6.2-1.3.1-1.9 0-.2-.1-.5-.1-.7-.1-.7-.3-1.4-.6-2-1.1.2-2.2.2-3.3 0-1.6-.2-3.1-.6-4.6-1.2.2.3.4.7.6 1 1.9 3 2.9 6.5 2.9 10 .5.7 1.1 1.4 1.6 1.4.2 0 .3-.1.4-.2.1-.1.2-.2.3-.4.1-.2.2-.3.3-.4 1-1.4 1.6-.5 1.6-.5 2.6.9 1.7 6.6 1.7 6.6s-1 2.1-2.6.8l-.4-.4c-.4-.5-.9-.9-1.5-1.2l-.6-.3c-.6-.3-1.3-.5-2-.6-.5 1-1.1 1.9-1.9 2.8l-.4.4.1.1c3.2 2.9 6.2 6.1 8.9 9.4.8 1.1 1.6 2.1 2.3 3.2.5.7 1 1.5 1.4 2.2 1.9 3 2.9 6.5 2.9 10 .5.7 1 1.4 1.6 1.4.2 0 .3-.1.4-.2.1-.1.2-.2.3-.4.1-.2.2-.3.3-.4 1-1.4 1.6-.5 1.6-.5 1 .6 1.5 2 1.6 3.3z"/><g opacity=".1"><path d="M175.2 112.1c-.5.2-1.1.3-1.7.2-.9 0-1.7.3-2.5.7.4-5.1 7.4-6.6 7.4-6.6-1.6 1.5-2.8 3.5-3.2 5.7zm35 18.7c-.1 1-.3 2.1-.4 3.1-4.6 1.4-8.9 1.8-12.6.7-.8.3-1.6.6-1.8 1.2-.1.2-.1.3 0 .5.1.1.2.3.3.4.1.1.2.2.3.4 1.1 1.4.1 1.7.1 1.7-1.6 2.2-6.9-.1-6.9-.1s-1.8-1.6 0-2.7c.2-.1.3-.2.5-.3.6-.3 1.1-.7 1.6-1.1l.5-.5c.4-.5.8-1.1 1.1-1.8-.8-.8-1.5-1.6-2.1-2.6-4.2-6.6-4.1-18.2-.8-28.3 12.9 1.7 22 14.8 20.2 29.4zm-12.2 29c-1.4.9-3 1.5-4.6 1.7-.1-.3-.3-.6-.5-.9l5.9-2.4c-.3.5-.5 1.1-.8 1.6z"/><path d="M196 168.4s-2.3.4-2.1-1.7c0-.2 0-.4.1-.6.2-.6.2-1.3.1-1.9 0-.2 0-.5-.1-.7-.1-.7-.3-1.4-.6-2-.1-.3-.3-.6-.5-.9l5.9-2.4c-.3.5-.6 1.1-.8 1.6-.3.8-.5 1.7-.2 2.1.1.1.2.2.4.3h1c1.8 0 1.4 1 1.4 1 .6 2.7-4.6 5.2-4.6 5.2z"/><path d="M198.2 162.2l-4 2c0-.2 0-.5-.1-.7 1.1-.4 2.7-1.1 3.7-1.6.1.2.3.3.4.3zm-2.2 6.2s-2.3.4-2.1-1.7c.9-.1 1.8-.4 2.6-.8 1.3-.9 2.3-2.2 2.6-3.7 1.8 0 1.4 1 1.4 1 .7 2.7-4.5 5.2-4.5 5.2z"/><path opacity=".1" d="M196 168.4s-2.3.4-2.1-1.7c.9-.1 1.8-.4 2.6-.8 1.3-.9 2.3-2.2 2.6-3.7 1.8 0 1.4 1 1.4 1 .7 2.7-4.5 5.2-4.5 5.2zm-20.8-56.3c-.5.2-1.1.3-1.7.2-.9 0-1.7.3-2.5.7.4-5.1 7.4-6.6 7.4-6.6-1.6 1.5-2.8 3.5-3.2 5.7z"/></g><path d="M208.7 131.6c-1.8 14.7-6.9 32.4-20.1 30.8s-29.5-22-27.7-36.7 14-25.3 27.2-23.7 22.4 14.9 20.6 29.6z"/><path d="M194.6 169.3s-2.3.4-2.1-1.7c0-.2.1-.4.1-.6.2-.6.2-1.3.1-1.9 0-.2-.1-.5-.1-.7-.2-1-.6-2-1.1-2.9l5.9-2.4s-1.7 2.8-1 3.7c.1.1.2.2.4.3h.9c1.8 0 1.4 1 1.4 1 .7 2.7-4.5 5.2-4.5 5.2z"/><path fill="#444053" d="M196.8 163l-4 2c0-.2-.1-.5-.1-.7 1.1-.4 2.7-1.1 3.7-1.6.1.2.2.3.4.3z"/><path d="M194.6 169.3s-2.3.4-2.1-1.7c.9-.1 1.8-.4 2.6-.8 1.3-.9 2.2-2.2 2.6-3.7 1.8 0 1.4 1 1.4 1 .7 2.6-4.5 5.2-4.5 5.2z"/><path opacity=".1" d="M194.6 169.3s-2.3.4-2.1-1.7c.9-.1 1.8-.4 2.6-.8 1.3-.9 2.2-2.2 2.6-3.7 1.8 0 1.4 1 1.4 1 .7 2.6-4.5 5.2-4.5 5.2z"/><path opacity=".1" fill="#FFF" d="M177 107.3s-7 1.5-7.4 6.6c.8-.4 1.6-.6 2.5-.7.6.1 1.1 0 1.7-.2.4-2.3 1.5-4.3 3.2-5.7z"/><path fill="none" stroke="#444053" stroke-miterlimit="10" d="M194.2 164.4c-2.3.2-4.1 2.3-3.9 4.6 0 .2.1.4.1.6.9 2.9 4.5 3.9 6.9 5.9s3.5 5.1 3.8 8.2c.5 5.9-1.6 11.7-5.8 15.9-2.1 2.1-4.7 3.7-6.8 5.8-2.4 2.7-4.4 5.7-5.8 8.9-1.3 2.3-2.2 4.9-2.6 7.5-.4 4.2 1.8 8.2 4.3 11.6s5.6 6.4 7.5 10.2c2.7 5.2 3.1 11.2 1.2 16.8-.1.4-.4.8-.7 1.1-.4.3-.8.2-1.1-.2v-.1"/><path fill="none" stroke="#444053" stroke-miterlimit="10" d="M181.9 163.6c-.6.7-.7 1.8-.1 2.6.6.7 1.5 1.1 2.4 1.1 1.1 0 2.4-.4 3.3.3.6.5 1 1.3 1 2.2 0 .8.1 1.6.3 2.4.2.7.6 1.3 1.1 1.8.5.6 1.2 1.1 2 1.5 1.7.6 3.6.1 5.3.6 2.3.7 3.5 3.1 4.1 5.4.9 2.7 1.1 5.6.5 8.4-.6 1.8-1.3 3.5-2.3 5.1-.9 1.6-1.4 3.5-1.5 5.4 0 1.9 1.1 3.7 2.8 4.5"/><path fill="#EFB7B9" d="M268.9 263.7l-1.9 1.1 2.5 9.2s.8.5 2 1.3c2.2 1.5 5.7 4 7.6 6.7 2.9 4.1 15.6 15.8 14 10.9s-2.4-3.9-2.4-3.9 2.8-7.3-4.1-10.6c-5.2-2.5-12.8-9.7-16.2-13-.9-1.1-1.5-1.7-1.5-1.7z"/><path fill="#925978" d="M306.9 288.3c1.1 1.1 2.1 2.3 2.9 3.7.8 1.4.9 3 .4 4.5-.3.8-.9 1.5-1.3 2.3-1.7 3.9 2.7 8.1 1.9 12.2-.5 2.5-2.8 4.3-4.8 6s-3.9 4-3.4 6.6c.4 1.2.9 2.3 1.6 3.3.7 1.1.8 2.4.2 3.5-1.2 1.8-4.6 1.5-5 3.6-.4 1.9 2.1 3.8 1.1 5.4-.6.7-1.6 1-2.5.7-.9-.3-1.8-.6-2.7-.7-1.8-.1-3.4 1.2-3.5 3.1 0 .6.1 1.3.4 1.8.5 1 1.5 1.8 1.4 2.8-.1.7-.6 1.3-1.2 1.6-2.2 1.1-4.9.3-6.2-1.8-.8-1.6-.6-3.6-.5-5.4s0-3.9-1.3-5.2c-.7-.6-1.4-1-2.2-1.4-2.3-1.1-4.3-2.6-6.1-4.4-1.6-1.6-3-3.6-2.9-5.8.1-2.5 2.3-4.7 2.1-7.2s-2.7-4.4-4.9-5.9-4.4-3.9-3.7-6.5c.8-2.8 4.3-3.6 6.1-5.8.6-.9 1.1-1.9 1.3-2.9.5-1.9.6-3.8 1-5.6.3-1.9 1.4-3.6 2.9-4.8 1.9-1.3 4.4-1.2 6.7-.9s4.6.9 6.9.4c1.7-.4 3.2-1.4 4.9-1.7 2.1-.3 4.2.5 5.6 2 .8.9.8 1.1 1.9 1.2 1.1-.1 2.2.4 2.9 1.3z"/><path opacity=".1" d="M303.9 330.9c-.8.6-1.7 1.1-2.7 1.4.7-.6 1.7-1.1 2.7-1.4zm-8.8 8.5c-.4 0-.8 0-1.1.1.7-.7 1.6-1.1 2.6-1 .9.2 1.8.4 2.7.7.4.1.7.1 1.1.1v.1c-.6.7-1.6 1-2.5.7-1-.2-1.9-.5-2.8-.7zm-18.7-49.6c-.5 1.9-.6 3.8-1 5.7-.2 1.1-.7 2.1-1.3 2.9-1.8 2.2-5.3 3-6.1 5.8-.7 2.5 1.5 4.9 3.7 6.5s4.7 3.3 4.9 5.9-1.9 4.7-2.1 7.2c-.1 2.2 1.3 4.3 2.9 5.9 1.8 1.8 3.9 3.3 6.1 4.4.8.3 1.6.8 2.2 1.4 1.3 1.3 1.4 3.3 1.3 5.2s-.4 3.8.5 5.4c1.1 1.9 3.3 2.8 5.4 2.2-.2.2-.5.4-.7.6-2.2 1.1-4.9.3-6.2-1.8-.8-1.6-.6-3.6-.5-5.4s0-3.9-1.3-5.2c-.7-.6-1.4-1-2.2-1.4-2.3-1.1-4.3-2.6-6.1-4.4-1.6-1.6-3-3.6-2.9-5.9.1-2.5 2.3-4.7 2.1-7.2s-2.7-4.4-4.9-5.9-4.4-3.9-3.7-6.5c.8-2.8 4.3-3.6 6.1-5.8.6-.9 1.1-1.9 1.3-2.9.5-1.9.6-3.8 1-5.7.4-1.9 1.4-3.6 2.9-4.8.3-.2.7-.4 1.1-.6a7.25 7.25 0 0 0-2.5 4.4z"/><path fill="#4C4981" d="M230.4 314.2l-2.1-2.9s-3.7 5.3 1.7 8.6.4-5.7.4-5.7z"/><path opacity=".1" d="M230.4 314.2l-2.1-2.9s-3.7 5.3 1.7 8.6.4-5.7.4-5.7z"/><path fill="#EFB7B9" d="M212.6 403.1s-.4 5.3-1.2 10.5c-.6 3.7-1.4 7.4-2.6 8.9-2.7 3.8-2.1 16-2.1 16l-3.4 13.9c.3 2.8-1.7 6.5-2.6 8.1-.3.5-.5.8-.5.8l2.4 4 3.8 1s6.6-2.2 4.6-6.5c-.3-.9-.5-1.8-.4-2.7 0-5.6 3.7-14.9 3.7-14.9s9-17.2 8.1-20.7c-.1-.4-.2-.8-.2-1.2-.3-3.9 2-10.6 2-10.6l-11.6-6.6zm-58.8-25.6c-6.2 4-16.7 14.6-18.7 17.4-2.4 3.5-8.6 7.4-8.6 7.4l-4.3 2.6c-.6.4-1.1.9-1.5 1.4-.2.3-.5.7-.7 1l6.2 7.3s1.7-1.3 3.6-3c1.9-1.7 4.2-4 4.8-5.5 1.1-2.9 8.1-6.3 8.1-6.3s12.9-7.6 14.4-8.9c1.4-1.2 3-2.2 4.6-3.1.9-.5 1.9-1 3.1-1.5 3.3-1.7 6.5-3.6 9.6-5.7l-6-9-11 4.5c-1.4.1-2.6.6-3.6 1.4z"/><path opacity=".1" d="M200.7 460.6c-.3.5-.5.8-.5.8l2.4 4 3.8 1s6.6-2.2 4.6-6.5c-.3-.9-.5-1.8-.4-2.7-2 .5-2.7 3.3-2.7 3.3s-.3 1.2-3.3 2.2c-2.1.6-3.3-1.1-3.9-2.1z"/><path fill="#444053" d="M200.1 460.3c-.9.7-1.3 4-1.4 6.3-.1 1.1-.1 2-.1 2.1 0 .5 3.4 1.7 5.5 1.1s10.6 2 10.6 2c2.9.1 5.8-.4 8.6-1.4 2.8-1 2.5-2.2 1.3-3.3-.9-.7-2-1.3-3.1-1.6-1.2-.5-2.3-1.4-3.1-2.5-1.1-1.5-2.5-2.8-4-3.8-1.4-.9-2.9-1.7-3.9-1.6-2.2.4-2.9 3.3-2.9 3.3s-.3 1.1-3.3 2.2-4.1-2.9-4.2-2.8z"/><path opacity=".1" d="M198.8 466.5c-.1 1.1-.1 2-.1 2.1 0 .5 3.4 1.7 5.5 1.1s10.6 2 10.6 2c2.9.1 5.8-.4 8.6-1.4 2.8-1 2.5-2.2 1.3-3.3-2.2.7-6.6 2-9.3 1.8-3.1 0-13.8-1.8-16.6-2.3zm-77.9-60.2h-.2c-.2.3-.5.7-.7 1l6.2 7.3s1.7-1.3 3.6-3c-.5-3.7-8.4-5.9-8.4-5.9l-.5.6z"/><path fill="#444053" d="M114.4 408.4s.6 8 2.3 11c1.3 2.3 2.5 1.9 4.7.7.7-.4 1.5-.8 2.5-1.3 4-1.9 4.1-3.9 4.1-3.9 5.8-5.7-6.9-9.3-6.9-9.3l-.6.7c-1.4 0-2.9.3-4.2.9-.6.4-1.3.8-1.9 1.2z"/><path opacity=".1" d="M114.4 408.4s.6 8 2.3 11c1.3 2.3 2.5 1.9 4.7.7-2-1-3.5-2.8-4.1-5-.8-2.5-1.1-5.2-1-7.9-.6.4-1.3.8-1.9 1.2z"/><path fill="#EFB7B9" d="M268.9 300.1l-10.8 7.9-2.2 1.6 1.6 5.3 1.6 5.5 4.5 4.8s6.1-.8 9.5-3.8c1.3-1 2.1-2.5 2.3-4.1.1-.5.2-1 .4-1.5s.5-1 .9-1.5c.5-.5 1-1 1.7-1.3 3.1-1.7 7.5-1.2 7.5-1.2s-1.1-13.8-3.4-11.7c-1.5 1.4-5.2 1-7.6.5-1.3-.2-2.3-.5-2.3-.5h-3.7z"/><circle opacity=".1" cx="288.6" cy="304.4" r="11.4"/><circle fill="#EFB7B9" cx="288.9" cy="304.1" r="11.4"/><path fill="#444053" d="M229.5 318.1c-2.1 1.5-4.7 5.3-4.7 5.3l2.8 16.1 15.4 5.7h.1c.9-.8 12-10.3 16.4-8.8 4.6 1.6 13.4-3.6 13.4-3.6s3.7-7.8 4.7-9.5-.8-8.9-.8-8.9l-.9 1.5c-.8 1.2-1.7 2.3-2.8 3.2-1.1 1-2.4 1.5-3.9 1.5-.4 0-.8 0-1.1.1-5.5 1-7-4.5-7.4-6.7-.1-.6-.1-1-.1-1l-2.6-5-1.5-3.1s-23.9 12.1-26 12.6c-.3.1-.7.3-1 .6z"/><path fill="#925978" d="M275.8 315.8c-.3.5-.6.9-1 1.4l3 5c0-1.2 0-2.3-.2-3.4l-1.8-3z"/><path fill="#FFF" d="M274 318c-.3.4-.7.7-1.1 1l-.1.1 3.6 6.1c.3-.7.6-1.3.9-1.6L274 318zm-3.5 2.3l4.6 7.6c.3-.6.6-1.1.8-1.7l-4-6.6c-.4.4-.9.6-1.4.7zm-2.9.3l6.1 10.2.8-1.7-5.1-8.6h-.4c-.4 0-.8 0-1.1.1h-.3zm5.1 12.1l-.7.5-7.8-13c.7.4 1.4.6 2.2.6l6.8 11.3-.5.6z"/><path fill="#925978" d="M255.4 305.5l5.1 8.5v-.2c-.1-.6-.1-1-.1-1L258 308l-1.5-3.1-1.1.6z"/><path fill="#FFF" d="M253 306.7l16.6 27.6c.5-.2 1-.5 1.4-.7L254.5 306l-1.5.7zm-2.3 1.2l16.5 27.5 1.5-.6-16.6-27.6-1.4.7zm-2.4 1.2l16.3 27.1c.5-.1 1.1-.3 1.6-.5l-16.4-27.4-1.5.8zm-2.4 1.2l15.8 26.4c.6 0 1.2-.1 1.7-.2l-16.1-26.9-1.4.7zm-2.4 1.1l14.9 24.8c.3 0 .7.1 1 .2.4.1.7.2 1.1.2L245 310.7l-1.5.7zm-2.3 1.2l14.5 24.2c.5-.2 1-.4 1.6-.5l-14.6-24.4-1.5.7z"/><path fill="#925978" d="M238.8 313.8l14.4 24.1c.5-.3 1-.5 1.4-.7l-14.4-24.1-1.4.7zm-2.4 1.1l14.6 24.3c.4-.3.9-.6 1.4-.8L238 314.3l-1.6.6zm-2.4 1.2l14.8 24.6c.4-.3.9-.6 1.3-.9l-14.6-24.3-1.5.6zm-2.4 1.1l15 25.1 1.3-1-14.9-24.8-1.4.7z"/><path fill="#FFF" d="M229.5 318.1l-.3.2 15.3 25.6c.4-.3.8-.6 1.3-1l-15.2-25.4c-.4.1-.8.3-1.1.6zm-1.1.9c-.4.4-.8.8-1.1 1.2l14.8 24.7.9.3.7-.6-15.3-25.6zm-1.9 2.1c-.4.5-.8 1-1 1.3l12.6 21 2.4.9-14-23.2zm-1.7 2.2l.6 4.2 8.7 14.5 2.4.9-11.7-19.6z"/><path fill="#925978" d="M225.9 330.4l.8 4.3 3.5 5.8 2.4.9-6.7-11zm1.3 7.2l.3 2 1.1.4-1.4-2.4z"/><path opacity=".1" d="M229.5 318.1c.8 2.4 1.6 4.6 1.6 4.6l5.7 11.8 12.6-5.4c.7-2 1.1-4.1 1.1-6.2-.2-2.4 1-5.8 7-7.9.4-.1.7-.2 1.1-.4.7-.2 1.4-.4 2-.8 2.9-1.3 5.2-3.7 6.3-6.7l.1-.3 8.2-5.9c-.1-.1-.1-.3-.2-.4-1.3-.2-2.3-.5-2.3-.5l-3.8-.1L258 308l-1.5-3.1s-23.9 12.1-26 12.6c-.3.1-.7.3-1 .6z"/><path fill="#4C4981" d="M249.5 293.1c-.7 2.4-2.2 4.6-4.3 6.1-3.5 2.5-3 3.9-3 3.9l-10.3 6.3s-1.8 2.4-3.6 2 2.5 11 2.5 11l5.7 11.8 12.6-5.4c.7-2 1.1-4.1 1.1-6.2-.2-2.5 1.1-6.2 8.1-8.3 3.8-.9 6.9-3.7 8.3-7.4 0-.2.1-.3.1-.3l8.3-5.9c-.6-1.2-1.8-2-3.1-2.3-.4-.1-.9-.2-1.3-.3-1.2-.4-1.8-1-1.8-2.1 0-1.5-.1-8-2.9-8.2s-16.4 5.3-16.4 5.3z"/><path fill="#4C4981" d="M270.4 298l-5.2 4.7 1.4 4.1c0-.2.1-.3.1-.3l8.3-5.9c-.6-1.2-1.8-2-3.1-2.3-.6-.1-1-.2-1.5-.3z"/><path opacity=".1" d="M270.4 298l-5.2 4.7 1.4 4.1c0-.2.1-.3.1-.3l8.3-5.9c-.6-1.2-1.8-2-3.1-2.3-.6-.1-1-.2-1.5-.3zm-1.5-34.3l-1.9 1.1 2.5 9.2s.8.5 2 1.3c-.2-1-1.1-5.7-1.4-8.3-.1-.9-.1-1.6 0-1.7s.2 0 .4.1c-1-1.1-1.7-1.7-1.6-1.7z"/><path fill="#4C4981" d="M251.5 259.1s-3.2 13.1-1.7 19.7c0 0 1.2 9.7-.3 14.3l15.8-2.5.6-2.9s-2.8-2-3.3-4.5-1.2-5.2-1.2-5.2c-.1-2.4-.5-4.7-1-7-.6-1.7 1.9-2 3.7-.8.2.1.5.3.7.5-.6 1-.4 2.3.6 3 .7.5 1.4.8 2.2 1 1.2.3 2.4.5 3.5.6 0 0-1.1-5.6-1.4-8.5-.1-.9-.1-1.6 0-1.7.5-.3 4.4 3.5 4.4 3.5s.2-4.8-1.9-5.8c0 0-.3 1.4-1.5.9s-13.4-7.3-13.4-7.3-4.7-3.9-5.8 2.7z"/><path opacity=".1" d="M262.4 264.4l1.6 5.8c.2.1.5.3.7.5-.6 1-.4 2.3.6 3 .7.5 1.4.8 2.2 1 1 .2 2 .4 3 .5 0 0-1.1-5.6-1.5-8.5l-6.6-2.3z"/><path fill="#4C4981" d="M263 264.5l1.7 6.1c-.6 1-.4 2.3.6 3 1.7 1.3 5.8 1.6 5.8 1.6s-1.1-5.6-1.4-8.5l-6.7-2.2z"/><path opacity=".1" fill="#FFF" d="M263.1 264.4l1.7 6.1c-.6 1-.4 2.3.6 3.1 1.7 1.3 5.8 1.6 5.8 1.6s-1.1-5.6-1.5-8.5l-6.6-2.3z"/><path opacity=".1" d="M224.1 409.6l-11.5-6.5s-.4 5.3-1.2 10.5c3.9 2.5 7.6 4.9 10.7 6.6-.2-3.9 2-10.6 2-10.6zm-70.3-32.1c1.3 2.3 2.9 4.4 4.8 6.3 0 0 1.2 1.6 3.2 3.9.9-.5 1.9-1 3.1-1.5 3.3-1.7 6.5-3.6 9.6-5.7l-6-9-11 4.5c-1.5.1-2.7.7-3.7 1.5z"/><path fill="#444053" d="M190.5 340.8c-2.1 3.2-12.1 14-12.1 14-1.7 2.2-3.2 4.4-4.5 6.8-1.8 3.3-7.2 7.4-11.3 11.1s-4.1 1.2-6.6 2.6 4.8 9.1 4.8 9.1 12.3 17 26.2 17.7 34.3 19.1 42.8 20.9 3.2-3 6.8-4.3 5.4-5.2 5.4-5.2-1.3-9.7-.2-11.8 2.3-10.9 2.3-10.9 0-7.7.6-9 .3-10.3-.1-12.9 1.9-6.4 1.9-6.4-.8-1.4.3-4.5-1-12.9-1-12.9c-18-10.5-21.1-21.9-21.1-21.9l-2.3.7c-14.1-3.4-29.9 13.7-31.9 16.9z"/><path opacity=".1" d="M222.5 324.1s1.4 15.3 23.3 21.2c-18-10.5-21.1-21.9-21.1-21.9l-2.2.7zm2.4 26.3s-18.1 29.2-18.5 30.7 19.2-29.9 18.5-30.7zm-1.6-9.2s-13.9 20.8-16.6 21.7c0 0 13.3-20.1 16.6-21.7zm-8.5-4.9s-9.8 7-17.4 6.2l17.4-6.2zm-2.6-4.5s-9.4 3.9-11.8 3.7l11.8-3.7zm21.5 26.7l.7 19.3-3.4-5.7 2.7-13.6zm58-63.8c-.2 1.1-.8 2.1-.5 3.2.3.7.8 1.3 1.4 1.8 1.4 1.3 2.8 3 3 4.9.3 2.8-2 5.3-1.7 8.1.1.9.4 1.7.9 2.4.3.4.7.8 1.1 1.1 1 .7 2.2 1 3.4.8 2.1-.5 3.7-2.1 4.3-4.1.5-2 .6-4.1.1-6.1-1-5.3-3.6-10.2-6.1-15-.2-.4-.5-.7-.8-1-.9-.5-4.3-.6-5.1.1-1.2.8 1 3.2 0 3.8z"/><path fill="#925978" d="M292.1 294.5c-.2 1.1-.8 2.1-.5 3.2.3.7.8 1.3 1.4 1.8 1.4 1.3 2.8 3 3 4.9.3 2.8-2 5.3-1.7 8.1.1.9.4 1.7.9 2.4.3.4.7.8 1.1 1.1 1 .7 2.2 1 3.4.8 2.1-.5 3.7-2.1 4.3-4.1.6-2 .6-4.1.1-6.1-1-5.3-3.6-10.2-6.1-15-.2-.4-.5-.7-.8-1-.9-.5-4.3-.6-5.1.1-1.2.7 1 3.2 0 3.8z"/><path fill="#EFB7B9" d="M312.2 361.7l-5.7 4.4 2.1 1.5 11.5 8.2s4 8.3 11 6-4-9.4-4.8-9.7-2.2-1.1-2.2-1.1l-10.1-8-1.8-1.3z"/><path opacity=".1" d="M312.2 361.7l-5.7 4.4 2.1 1.5c2.7-1.7 5-3.6 5.4-4.5l-1.8-1.4zm-65.6-36.8l-12.3 8 8.6 12.2c.9-.8 12-10.3 16.4-8.8 4.6 1.6 13.4-3.6 13.4-3.6s3.7-7.8 4.7-9.5-.8-8.9-.8-8.9c.5-.5 1-1 1.7-1.3-.5 0-1.1 0-1.6.1-2.4 1.1-3.7 2.8-3.8 5.9v.9c0 .5 0 1 .1 1.5v.3c.6 4.9-1.6 6.9-1.6 6.9-1.3 2.4-3.5 4.2-6.1 5-4.2 1.3-18.7-8.7-18.7-8.7z"/><path fill="#4C4981" d="M247.1 325.7l-12.3 8 9.7 13.8s4.8-2.6 6.4-4.6 9.6-5.2 9.6-5.2c9.7 3.4 13.9-2.4 13.9-2.4s11.3 17.5 12 17.6 6.8 4.9 6.8 4.9 4.7 6.1 6.1 6.6c.5.2 1 .4 1.5.7.1.1.3.2.4.3l-4.1 2.4c0 .1 0 .1.1.1v.1c.6 1 1.5 1.9 2.5 2.5 1.9 1 14.1-6.6 13.9-8.3 0-.3-.2-.6-.4-.9-.9-1-2-1.9-3.2-2.5l-.3-.2-.1-.1s-7.1-7.1-9.4-8.1-10-13.5-10-13.5-4-5.3-3.5-6.5-2-10.8-3.7-11-2.3-2.4-2.3-2.4c1.1-2.3 0-3-1.3-3.2-.7-.1-1.5-.1-2.3 0-2.6 1.2-3.9 3.1-3.8 6.8 0 .5.1 1.1.1 1.8.6 4.9-1.6 6.9-1.6 6.9-1.3 2.4-3.5 4.2-6.1 5-4.2 1.3-18.6-8.6-18.6-8.6z"/><path opacity=".1" d="M313.2 361.2c.1.2.1.3.1.5.2 1.7-12 9.4-13.9 8.3-.9-.5-1.7-1.3-2.3-2.1v-.1l-.1-.1 4.1-2.4c-.1-.1-.3-.2-.4-.3l.2-.1c3.7-.7 7-3 8.7-6.4l3.6 2.7z"/><path fill="#4C4981" d="M301.2 365.3l-4.1 2.4c.6 1.2 1.5 2.1 2.6 2.7 1.9 1 14.1-6.6 13.9-8.3-.1-1.4-2.5-2.8-3.5-3.4-1.8 3.5-5.1 5.9-8.9 6.6z"/><path opacity=".1" fill="#FFF" d="M301.2 365.3l-4.1 2.4c.6 1.2 1.5 2.1 2.6 2.7 1.9 1 14.1-6.6 13.9-8.3-.1-1.4-2.5-2.8-3.5-3.4-1.8 3.5-5.1 5.9-8.9 6.6z"/><path fill="#4C4981" d="M273.4 320.6l3 1.3 3-8.1c-.7-.1-1.5-.1-2.3 0-2.6 1.2-3.8 3.1-3.7 6.8z"/><path opacity=".1" d="M273.5 320.5l3 1.3 3-8.1c-.7-.1-1.5-.1-2.3 0-2.6 1.2-3.8 3.1-3.7 6.8zm19.4-26.4c-.2 1.1-.8 2.1-.5 3.2.3.7.8 1.3 1.4 1.8 1.4 1.3 2.8 3 3 4.9.3 2.8-2 5.3-1.7 8.1 0 .9.3 1.7.8 2.4.3.4.7.7 1.1 1 1 .7 2.2 1 3.4.8.4-.1.8-.2 1.2-.4-.6.4-1.2.7-1.9.8-1.7.3-3.5-.4-4.5-1.8-.5-.7-.8-1.5-.9-2.4-.2-2.8 2-5.3 1.7-8.1-.2-1.9-1.5-3.6-3-4.9-.6-.5-1.1-1.1-1.4-1.8-.3-1 .3-2.1.5-3.2 1-.6-1.2-3-.1-4l.6-.3c-.7 1.1 1.2 3.3.3 3.9zm-26.2 22s-3.9.3-4.4 2.3c0 0 3.7-3.6 3.2-4.5"/><path fill="#EFB7B9" d="M332 376.4s-10.1-4.8-8.7 1.2 8.7-1.2 8.7-1.2z"/><path d="M310.7 341.3l9.6-4.4 49 107.3-9.6 4.4-49-107.3z"/><path fill="none" stroke="#444053" stroke-miterlimit="10" d="M192.4 164.8c-1.9 4.1-6.4 7.7-5.1 12 .7 2.2 2.8 3.6 4.8 4.9 4.6 2.9 9.3 5.9 12.6 10.2s5.1 10.1 3.2 15.2c-1.3 3.5-4.1 6.1-5.8 9.5-1.9 4.2-2.3 8.9-1.1 13.4 1.2 4.4 3 8.6 5.5 12.5.9 1.5 1.9 3 3.4 3.6 1.2.3 2.4.4 3.6.3 4.2.2 8.1 3 10.3 6.6 2.3 3.6 3.2 7.9 3.6 12.1.2 2.1.4 4.4 1.6 6.1 1.7 2.5 4.9 3.3 7.8 3.8 7.6 1.3 15.4 1.7 23.1 1.2"/><path fill="#444053" d="M252.8 269.8h4.7c2.5 0 4.5 2 4.5 4.5s-2 4.5-4.5 4.5h-4.7c-2.5 0-4.5-2-4.5-4.5s2-4.5 4.5-4.5z"/></svg>